<?xml version="1.0" encoding="UTF-8" standalone="no"?>
<svg
   xmlns:dc="http://purl.org/dc/elements/1.1/"
   xmlns:cc="http://creativecommons.org/ns#"
   xmlns:rdf="http://www.w3.org/1999/02/22-rdf-syntax-ns#"
   xmlns:svg="http://www.w3.org/2000/svg"
   xmlns="http://www.w3.org/2000/svg"
   version="1.0"
   width="22"
   height="22"
   id="svg2">
  <metadata
     id="metadata88">
    <rdf:RDF>
      <cc:Work
         rdf:about="">
        <dc:format>image/svg+xml</dc:format>
        <dc:type
           rdf:resource="http://purl.org/dc/dcmitype/StillImage" />
        <dc:title />
      </cc:Work>
    </rdf:RDF>
  </metadata>
  <defs
     id="defs4" />
  <g
     id="g829"
     transform="matrix(1,0,0,-1,0,22.000041)">
    <g
       transform="translate(-0.99999995,-1.9999992)"
       id="g843">
      <rect
         x="7.5"
         y="-23.5"
         width="9"
         height="9"
         ry="1"
         rx="1"
         transform="scale(1,-1)"
         style="fill:#e6e6e6;fill-opacity:1;stroke:#000000;stroke-width:1;stroke-opacity:0.30232562"
         id="rect3448" />
      <g
         id="g4576"
         style="opacity:0.2">
        <rect
           y="20"
           x="9"
           height="2"
           width="2"
           id="rect4570"
           style="opacity:1;fill:#000000;fill-opacity:1;stroke:none;stroke-width:2;stroke-linecap:round;stroke-linejoin:round;stroke-miterlimit:4;stroke-dasharray:none;stroke-dashoffset:0;stroke-opacity:0.4" />
        <rect
           style="opacity:1;fill:#000000;fill-opacity:1;stroke:none;stroke-width:2;stroke-linecap:round;stroke-linejoin:round;stroke-miterlimit:4;stroke-dasharray:none;stroke-dashoffset:0;stroke-opacity:0.4"
           id="rect4572"
           width="2"
           height="2"
           x="13"
           y="20" />
      </g>
    </g>
    <rect
       x="6"
       y="1"
       width="10"
       height="14.999998"
       rx="0.5"
       style="opacity:1;fill:#f4f4f4;fill-opacity:1;stroke:none;stroke-width:0.99992192;stroke-linecap:butt;stroke-linejoin:round;stroke-miterlimit:4;stroke-dasharray:none;stroke-dashoffset:0;stroke-opacity:1;marker:none"
       id="rect5391-5-7"
       ry="0.5" />
    <path
       id="rect901"
       d="m 6.4999609,0.5000008 h 9.0000781 c 0.554,0 1,0.446 1,1 V 15.500001 c 0,0.554 -0.446,1 -1,1 H 6.4999609 c -0.554,0 -1,-0.446 -1,-1 V 1.5000008 c 0,-0.554 0.446,-1 1,-1 z"
       style="opacity:0.3;vector-effect:none;fill:none;fill-opacity:1;stroke:#000000;stroke-width:0.9999218;stroke-linecap:butt;stroke-linejoin:round;stroke-miterlimit:4;stroke-dasharray:none;stroke-dashoffset:0;stroke-opacity:1;marker:none" />
  </g>
  <path
     d="m 9.8407231,19.42596 c 0,-0.812844 0.2701589,-1.023722 0.6010809,-1.307524 0.265666,-0.128245 0.308115,-0.215797 0.304622,-0.628246 -0.0038,-0.455788 -0.04748,-0.403723 -0.8922569,-1.137052 C 8.5643342,15.233522 8.3908718,14.963528 8.2394261,13.84003 8.1277129,13.011405 8.2060699,13.698419 7.8853869,13.379682 7.2951367,12.793033 7.3962618,11.932675 8.0989191,11.562906 c 0.6330041,-0.333104 1.382865,0.02118 1.614105,0.762637 0.113972,0.365424 -0.159266,0.996488 -0.526165,1.215194 -0.3357519,0.200157 -0.4750429,-0.133546 -0.3982639,0.604262 0.04249,0.408357 0.14605,0.373298 0.2301219,0.538934 0.144387,0.284464 1.5582999,1.623587 1.7120989,1.623587 V 9.9999132 H 9.9470531 l 1.0671199,-2.5039139 1.11847,2.5041687 h -0.76181 v 4.754664 c 0.105957,0 1.129458,-1.023679 1.478993,-1.498314 0.151025,-0.205076 0.242676,-0.496265 0.242676,-0.771037 0,-0.414402 0.136657,-0.50154 -0.17942,-0.50154 h -0.336744 v -1.941814 h 1.908216 v 1.941814 h -0.308681 c -0.275428,0.03225 -0.472288,0.172635 -0.524283,0.632133 -0.07755,0.68526 -0.355742,1.104427 -1.435848,2.193184 l -0.844915,0.911155 v 2.24934 l 0.249682,0.149014 c 0.169778,0.08196 0.403596,0.346791 0.519598,0.58852 C 12.553084,19.569508 11.978481,20.496 11.030991,20.496 10.344394,20.47054 9.8404231,20.118022 9.8404231,19.426972 Z"
     style="opacity:0.95;fill:#969696;fill-opacity:1;stroke-width:0.63632655"
     id="path3690" />
</svg>
