<?xml version="1.0" encoding="UTF-8" standalone="no"?>
<svg
   xmlns:dc="http://purl.org/dc/elements/1.1/"
   xmlns:cc="http://creativecommons.org/ns#"
   xmlns:rdf="http://www.w3.org/1999/02/22-rdf-syntax-ns#"
   xmlns:svg="http://www.w3.org/2000/svg"
   xmlns="http://www.w3.org/2000/svg"
   version="1.0"
   width="24"
   height="24"
   id="svg2">
  <metadata
     id="metadata88">
    <rdf:RDF>
      <cc:Work
         rdf:about="">
        <dc:format>image/svg+xml</dc:format>
        <dc:type
           rdf:resource="http://purl.org/dc/dcmitype/StillImage" />
        <dc:title />
      </cc:Work>
    </rdf:RDF>
  </metadata>
  <defs
     id="defs4" />
  <g
     id="g830"
     transform="matrix(1,0,0,-1,0,23.999998)">
    <rect
       id="rect3448"
       style="fill:#e6e6e6;fill-opacity:1;stroke:#000000;stroke-width:1;stroke-opacity:0.30232562"
       transform="scale(1,-1)"
       rx="1"
       ry="1"
       height="9"
       width="9"
       y="-23.5"
       x="7.5" />
    <g
       style="opacity:0.2"
       id="g4576">
      <rect
         style="opacity:1;fill:#000000;fill-opacity:1;stroke:none;stroke-width:2;stroke-linecap:round;stroke-linejoin:round;stroke-miterlimit:4;stroke-dasharray:none;stroke-dashoffset:0;stroke-opacity:0.4"
         id="rect4570"
         width="2"
         height="2"
         x="9"
         y="20" />
      <rect
         y="20"
         x="13"
         height="2"
         width="2"
         id="rect4572"
         style="opacity:1;fill:#000000;fill-opacity:1;stroke:none;stroke-width:2;stroke-linecap:round;stroke-linejoin:round;stroke-miterlimit:4;stroke-dasharray:none;stroke-dashoffset:0;stroke-opacity:0.4" />
    </g>
    <rect
       x="7"
       y="0.99999845"
       width="10"
       height="17"
       rx="0.5"
       style="opacity:1;fill:#f4f4f4;fill-opacity:1;stroke:none;stroke-width:0.99992192;stroke-linecap:butt;stroke-linejoin:round;stroke-miterlimit:4;stroke-dasharray:none;stroke-dashoffset:0;stroke-opacity:1;marker:none"
       id="rect5391-5-7"
       ry="0.5" />
    <rect
       style="opacity:0.3;vector-effect:none;fill:none;fill-opacity:1;stroke:#000000;stroke-width:0.9999218;stroke-linecap:butt;stroke-linejoin:round;stroke-miterlimit:4;stroke-dasharray:none;stroke-dashoffset:0;stroke-opacity:1;marker:none"
       id="rect901"
       width="11.000078"
       height="18.000078"
       x="6.4999609"
       y="0.49995935"
       rx="1"
       ry="1" />
  </g>
  <path
     d="m 10.840723,20.42596 c 0,-0.812844 0.270159,-1.023722 0.601081,-1.307524 0.265666,-0.128245 0.308115,-0.215797 0.304622,-0.628246 -0.0038,-0.455788 -0.04748,-0.403723 -0.892257,-1.137052 C 9.5643341,16.233522 9.3908717,15.963528 9.239426,14.84003 9.1277128,14.011405 9.2060698,14.698419 8.8853869,14.379682 8.2951367,13.793033 8.3962618,12.932676 9.098919,12.562906 c 0.6330041,-0.333104 1.382865,0.02118 1.614105,0.762638 0.113972,0.365423 -0.159266,0.996487 -0.526165,1.215193 -0.3357519,0.200157 -0.4750429,-0.133546 -0.3982639,0.604262 0.04249,0.408357 0.14605,0.373298 0.2301219,0.538934 0.144387,0.284464 1.5583,1.623587 1.712099,1.623587 v -6.307607 h -0.783763 l 1.06712,-2.5039135 1.11847,2.5041685 h -0.76181 v 4.754664 c 0.105957,0 1.129458,-1.023678 1.478993,-1.498314 0.151025,-0.205076 0.242676,-0.496265 0.242676,-0.771037 0,-0.414401 0.136657,-0.50154 -0.17942,-0.50154 h -0.336744 v -1.941814 h 1.908216 v 1.941814 h -0.308681 c -0.275428,0.03225 -0.472288,0.172635 -0.524283,0.632133 -0.07755,0.68526 -0.355742,1.104427 -1.435848,2.193184 l -0.844915,0.911155 v 2.24934 l 0.249682,0.149014 c 0.169778,0.08196 0.403596,0.346791 0.519598,0.58852 0.412977,0.862221 -0.161626,1.788713 -1.109116,1.788713 -0.686597,-0.02546 -1.190568,-0.377978 -1.190568,-1.069028 z"
     style="opacity:0.95;fill:#969696;fill-opacity:1;stroke-width:0.63632655"
     id="path3690" />
</svg>
