<?xml version="1.0" encoding="UTF-8" standalone="no"?>
<svg
   xmlns:dc="http://purl.org/dc/elements/1.1/"
   xmlns:cc="http://creativecommons.org/ns#"
   xmlns:rdf="http://www.w3.org/1999/02/22-rdf-syntax-ns#"
   xmlns:svg="http://www.w3.org/2000/svg"
   xmlns="http://www.w3.org/2000/svg"
   xmlns:xlink="http://www.w3.org/1999/xlink"
   version="1.1"
   width="48"
   height="48"
   id="svg3901">
  <defs
     id="defs3903">
    <linearGradient
       id="linearGradient3104-6">
      <stop
         offset="0"
         style="stop-color:#000000;stop-opacity:0.31782946"
         id="stop3106-3" />
      <stop
         offset="1"
         style="stop-color:#000000;stop-opacity:0.24031007"
         id="stop3108-9" />
    </linearGradient>
    <linearGradient
       xlink:href="#linearGradient3104-6"
       id="linearGradient3170"
       gradientUnits="userSpaceOnUse"
       gradientTransform="matrix(0.80749686,0,0,0.89471714,59.410232,-2.9773433)"
       x1="-51.786404"
       y1="50.786446"
       x2="-51.786404"
       y2="2.9062471" />
  </defs>
  <metadata
     id="metadata3906">
    <rdf:RDF>
      <cc:Work
         rdf:about="">
        <dc:format>image/svg+xml</dc:format>
        <dc:type
           rdf:resource="http://purl.org/dc/dcmitype/StillImage" />
        <dc:title />
      </cc:Work>
    </rdf:RDF>
  </metadata>
  <path
     style="fill:#fafafa;fill-opacity:1;stroke:none;display:inline"
     id="path4160"
     d="m 7,1.0000001 c 7.791126,0 33.999959,0.00274 33.999959,0.00274 L 41,44 C 41,44 18.333334,44 7,44 7,29.666666 7,15.333333 7,1 z" />
  <path
     d="m 32,35 4,0 0,4 -4,0 z m -8,0 4,0 0,4 -4,0 z m -8,0 4,0 0,4 -4,0 z m 12,-4 4,0 0,4 -4,0 z m -8,0 4,0 0,4 -4,0 z m -8,0 4,0 0,4 -4,0 z m 20,-4 4,0 0,4 -4,0 z m -8,0 4,0 0,4 -4,0 z m -8,0 4,0 0,4 -4,0 z m 12,-4 4,0 0,4 -4,0 z m -8,0 4,0 0,4 -4,0 z m -8,0 4,0 0,4 -4,0 z m 20,-4 4,0 0,4 -4,0 z m -8,0 4,0 0,4 -4,0 z m -8,0 4,0 0,4 -4,0 z m 12,-4 4,0 0,4 -4,0 z m -8,0 4,0 0,4 -4,0 z m -8,0 4,0 0,4 -4,0 z m 20,-4 4,0 0,4 -4,0 z m -8,0 4,0 0,4 -4,0 z m -8,0 4,0 0,4 -4,0 z m 12,-4.0000003 4,0 L 32,11 28,11 Z m -8,0 4,0 L 24,11 20,11 Z m -8,0 4,0 L 16,11 12,11 Z"
     id="rect3137-6-5-5"
     style="color:#000000;display:inline;overflow:visible;visibility:visible;opacity:0.4;fill:#d4d4d4;fill-opacity:1;fill-rule:nonzero;stroke:none;stroke-width:0.98542744;marker:none;enable-background:accumulate" />
  <path
     style="fill:none;stroke:url(#linearGradient3170);stroke-width:0.99992192;stroke-linecap:butt;stroke-linejoin:round;stroke-miterlimit:4;stroke-opacity:1;stroke-dasharray:none;stroke-dashoffset:0;display:inline"
     id="path4160-6-1"
     d="m 6.4999605,0.4999623 c 8.0202885,0 35.0000415,0.00298 35.0000415,0.00298 l 3.7e-5,43.9970957 c 0,0 -23.333385,0 -35.0000785,0 0,-14.666738 0,-29.333326 0,-43.9998923 z" />
  <path
     d="m 24.65625,16.5 -1,0 -0.999999,7 4.999999,4 1e-6,-1 -3,-4 z M 24,12 c -6.072,0 -11,4.928 -11,11 0,6.072 4.928,11 11,11 6.072,0 11,-4.928 11,-11 0,-6.072 -4.928,-11 -11,-11 z m 0,2 c 4.968,0 9,4.032 9,9 0,4.968 -4.032,9 -9,9 -4.968,0 -9,-4.032 -9,-9 0,-4.968 4.032,-9 9,-9 z"
     id="path3318"
     style="opacity:1;fill:#7e8087;fill-opacity:1;fill-rule:evenodd;stroke:none" />
</svg>
