<?xml version="1.0" encoding="UTF-8" standalone="no"?>
<svg
   xmlns:dc="http://purl.org/dc/elements/1.1/"
   xmlns:cc="http://creativecommons.org/ns#"
   xmlns:rdf="http://www.w3.org/1999/02/22-rdf-syntax-ns#"
   xmlns:svg="http://www.w3.org/2000/svg"
   xmlns="http://www.w3.org/2000/svg"
   id="svg11300"
   height="96"
   width="96"
   version="1.0"
   viewBox="0 0 96 96">
  <metadata
     id="metadata49">
    <rdf:RDF>
      <cc:Work
         rdf:about="">
        <dc:format>image/svg+xml</dc:format>
        <dc:type
           rdf:resource="http://purl.org/dc/dcmitype/StillImage" />
        <dc:title />
      </cc:Work>
    </rdf:RDF>
  </metadata>
  <defs
     id="defs3" />
  <g
     id="g821"
     transform="matrix(1,0,0,-1,0,96)">
    <rect
       x="33.5"
       y="-89.5"
       width="28.965517"
       height="28.965517"
       ry="1.5245011"
       rx="1.5245011"
       transform="scale(1,-1)"
       style="fill:#e6e6e6;fill-opacity:1;stroke:#000000;stroke-width:1;stroke-miterlimit:4;stroke-dasharray:none;stroke-opacity:0.29302326"
       id="rect3448" />
    <rect
       x="28.499878"
       y="6.4998779"
       width="39.000244"
       height="66.000244"
       rx="4.3333473"
       style="opacity:1;fill:#f4f4f4;fill-opacity:1;stroke:#000000;stroke-width:0.99975544;stroke-linecap:butt;stroke-linejoin:round;stroke-miterlimit:4;stroke-dasharray:none;stroke-dashoffset:0;stroke-opacity:0.29411765;marker:none"
       id="rect5391-2"
       ry="4.4000092" />
    <path
       id="rect3450-3"
       d="m 38.500156,78.500156 v 5.999688 h 5.999688 v -5.999688 z"
       style="opacity:0.35;fill:#000000;fill-opacity:0.33598848;stroke:#000000;stroke-width:1.00031233;stroke-linecap:butt;stroke-linejoin:round;stroke-miterlimit:4;stroke-dasharray:none;stroke-dashoffset:0;stroke-opacity:0.67441861" />
    <path
       id="rect3450-3-6"
       d="m 51.500156,78.500156 v 5.999688 h 5.999688 v -5.999688 z"
       style="opacity:0.35;fill:#000000;fill-opacity:0.33598848;stroke:#000000;stroke-width:1.00031233;stroke-linecap:butt;stroke-linejoin:round;stroke-miterlimit:4;stroke-dasharray:none;stroke-dashoffset:0;stroke-opacity:0.67441861" />
  </g>
  <path
     id="path3690"
     style="opacity:0.95;fill:#aaaaaa;stroke-width:1.47368324"
     d="m 43.522793,76.331499 c 0,-2.738117 0.910048,-3.448475 2.024779,-4.404479 0.894914,-0.432002 1.037907,-0.726927 1.02614,-2.116285 -0.01282,-1.535352 -0.159949,-1.359969 -3.005627,-3.830233 -4.34489,-3.771502 -4.929209,-4.680991 -5.439365,-8.465569 -0.376314,-2.791275 -0.112368,-2.177161 -1.192604,-3.250844 -1.988297,-1.976163 -1.64765,-4.874336 0.719297,-6.119929 2.132318,-1.122083 4.65827,0.07134 5.437221,2.568994 0.383923,1.230953 -0.536499,3.356733 -1.772424,4.093457 -1.131001,0.67424 -1.600214,-0.449858 -1.341578,2.035496 0.143139,1.375575 0.491977,2.957613 0.775178,3.515567 0.486383,0.958234 5.249236,5.469159 5.767321,5.469159 l 0.0051,-26.142774 H 43.8861 c 1.2218,-2.117786 2.411447,-5.047477 3.594663,-7.179409 l 3.767643,7.180266 h -2.566207 l -0.0052,20.490389 c 0.356914,0 3.856169,-3.551364 5.033598,-5.150206 0.50874,-0.690809 0.449049,-2.4102 0.449049,-3.335788 0,-1.395937 0.46034,-1.68947 -0.604383,-1.68947 h -1.134314 v -7.368416 h 7.368416 v 7.368416 h -1.980281 c -0.927796,0.10864 -1.590933,1.227929 -1.766078,2.775777 -0.261208,2.308343 -0.881437,3.91548 -4.519849,7.583021 l -2.846149,3.069289 v 7.99824 l 0.841069,0.501967 c 0.57191,0.276084 1.359542,1.16819 1.750303,1.982465 1.391136,2.904453 -0.544451,6.0254 -3.736134,6.0254 -2.312844,-0.08574 -4.010502,-1.273243 -4.010502,-3.601092 z" />
</svg>
