<?xml version="1.0" encoding="UTF-8" standalone="no"?>
<svg
   xmlns:dc="http://purl.org/dc/elements/1.1/"
   xmlns:cc="http://creativecommons.org/ns#"
   xmlns:rdf="http://www.w3.org/1999/02/22-rdf-syntax-ns#"
   xmlns:svg="http://www.w3.org/2000/svg"
   xmlns="http://www.w3.org/2000/svg"
   id="svg11300"
   height="128"
   width="128"
   version="1.0"
   viewBox="0 0 128 128">
  <metadata
     id="metadata49">
    <rdf:RDF>
      <cc:Work
         rdf:about="">
        <dc:format>image/svg+xml</dc:format>
        <dc:type
           rdf:resource="http://purl.org/dc/dcmitype/StillImage" />
        <dc:title />
      </cc:Work>
    </rdf:RDF>
  </metadata>
  <defs
     id="defs3" />
  <g
     id="g840"
     transform="matrix(1,0,0,-1,0,123)">
    <rect
       x="44.5"
       y="-118.5"
       width="39"
       height="39"
       ry="1.0000001"
       rx="1.0000001"
       transform="scale(1,-1)"
       style="fill:#e6e6e6;fill-opacity:1;stroke:#000000;stroke-width:1.00000012;stroke-opacity:0.29302326"
       id="rect3448" />
    <path
       id="rect3450"
       d="m 50.5,103.5 v 7 h 9 v -7 z"
       style="opacity:0.35;fill:#000000;fill-opacity:0.33598848;stroke:#000000;stroke-width:0.99999994;stroke-linecap:butt;stroke-linejoin:round;stroke-miterlimit:4;stroke-dasharray:none;stroke-dashoffset:0;stroke-opacity:0.67441861" />
    <rect
       x="37"
       y="5"
       width="54"
       height="90"
       rx="2.5000002"
       style="opacity:1;fill:#f4f4f4;fill-opacity:1;stroke:none;stroke-width:0.99992192;stroke-linecap:butt;stroke-linejoin:round;stroke-miterlimit:4;stroke-dasharray:none;stroke-dashoffset:0;stroke-opacity:1;marker:none"
       id="rect5391"
       ry="2.5" />
    <rect
       x="36.499962"
       y="4.4999609"
       width="55.000076"
       height="91.000076"
       rx="2.9999998"
       style="opacity:0.3;fill:none;fill-opacity:1;stroke:#000000;stroke-width:0.99992198;stroke-linecap:butt;stroke-linejoin:round;stroke-miterlimit:4;stroke-dasharray:none;stroke-dashoffset:0;stroke-opacity:1;marker:none"
       id="rect5391-2"
       ry="3" />
    <path
       style="opacity:0.35;fill:#000000;fill-opacity:0.33598848;stroke:#000000;stroke-width:0.99999994;stroke-linecap:butt;stroke-linejoin:round;stroke-miterlimit:4;stroke-dasharray:none;stroke-dashoffset:0;stroke-opacity:0.67441861"
       d="m 68.5,103.5 v 7 h 9 v -7 z"
       id="path4655" />
    <rect
       style="opacity:0.2;fill:#000000;fill-opacity:1;stroke:none;stroke-width:3;stroke-linecap:round;stroke-linejoin:round;stroke-miterlimit:4;stroke-dasharray:none;stroke-dashoffset:0;stroke-opacity:1"
       id="rect4665"
       width="2"
       height="1"
       x="54"
       y="99"
       ry="0.5"
       rx="0.5" />
    <rect
       ry="0.5"
       y="99"
       x="72"
       height="1"
       width="2"
       id="rect4667"
       style="opacity:0.2;fill:#000000;fill-opacity:1;stroke:none;stroke-width:3;stroke-linecap:round;stroke-linejoin:round;stroke-miterlimit:4;stroke-dasharray:none;stroke-dashoffset:0;stroke-opacity:1"
       rx="0.5" />
  </g>
  <path
     id="path1334"
     d="M 63.751369,37.001953 59.132228,45 h 3.294922 v 40.880859 l -8.410156,-7.958984 c -0.543003,-0.677435 -0.924212,-1.56479 -0.945312,-2.476563 0,-3.688487 5.5e-5,-5.879274 -0.002,-6.685546 C 54.626806,68.213247 55.74937,66.745219 55.74937,65 c 0,-2.207818 -1.791383,-3.998047 -4,-3.998047 -2.209577,0 -4,1.790069 -4,3.998047 0,1.745219 1.123888,3.213247 2.679688,3.759766 l -0.002,6.607422 c 0,1.790615 0.983061,3.667104 2.134766,4.861328 v 0.002 c 0.02845,0.02526 8.921875,8.445312 8.921875,8.445312 0.542204,0.675996 0.92162,1.561522 0.943359,2.472657 v 7.029296 A 5,5 0 0 0 58.749416,103 a 5,5 0 0 0 5,5 5,5 0 0 0 5,-5 5,5 0 0 0 -3.681641,-4.818359 v -6.953125 c 0,-0.01164 6.39e-4,-0.02334 0,-0.03516 V 81.144531 c 0.02317,-0.909374 0.40247,-1.795346 0.945313,-2.470703 0,0 8.893103,-8.417303 8.921875,-8.443359 1.151544,-1.194222 2.134766,-3.072347 2.134765,-4.863281 L 77.067728,59 h 2.681641 v -8 h -8 v 8 h 2.677734 c 0,0 -0.002,1.677211 -0.002,6.445312 -0.02093,0.911933 -0.402309,1.799448 -0.945312,2.476563 l -8.41211,7.960937 V 45 h 3.300782 z"
     style="fill:#aaaaaa;fill-opacity:1;stroke-width:1" />
</svg>
