<?xml version="1.0" encoding="UTF-8" standalone="no"?>
<svg
   width="16"
   height="16"
   version="1.1"
   id="svg18"
   sodipodi:docname="emblem-shared.svg"
   inkscape:version="1.2.2 (b0a8486541, 2022-12-01)"
   xmlns:inkscape="http://www.inkscape.org/namespaces/inkscape"
   xmlns:sodipodi="http://sodipodi.sourceforge.net/DTD/sodipodi-0.dtd"
   xmlns="http://www.w3.org/2000/svg"
   xmlns:svg="http://www.w3.org/2000/svg">
  <defs
     id="defs22" />
  <sodipodi:namedview
     id="namedview20"
     pagecolor="#ffffff"
     bordercolor="#666666"
     borderopacity="1.0"
     inkscape:showpageshadow="2"
     inkscape:pageopacity="0.0"
     inkscape:pagecheckerboard="0"
     inkscape:deskcolor="#d1d1d1"
     showgrid="false"
     inkscape:zoom="64"
     inkscape:cx="4.65625"
     inkscape:cy="8"
     inkscape:window-width="2500"
     inkscape:window-height="1348"
     inkscape:window-x="2620"
     inkscape:window-y="0"
     inkscape:window-maximized="1"
     inkscape:current-layer="svg18" />
  <rect
     style="fill:#a9a9a9;fill-opacity:0.988235;stroke-width:2.7005;stroke-linecap:round;stroke-linejoin:round"
     id="rect3182"
     width="12"
     height="12"
     x="2"
     y="2"
     ry="1.8404413" />
  <g
     style="fill:#ffffff;enable-background:new"
     transform="matrix(0.5,0,0,0.5,-307.99997,-260)"
     id="g16">
    <path
       style="fill:#ffffff"
       d="m 636,528 c -1.6568,0 -3,1.3432 -3,3 0,0.23127 0.0442,0.44001 0.0937,0.65625 l -3.2188,2 C 629.36149,533.24498 628.709,533 627.9999,533 c -1.6568,0 -3,1.3432 -3,3 0,1.6568 1.3432,3 3,3 0.70904,0 1.3615,-0.24498 1.875,-0.65625 l 3.2188,2 C 633.0442,540.55999 633,540.76873 633,541 c 0,1.6568 1.3432,3 3,3 1.6568,0 3,-1.3432 3,-3 0,-1.6568 -1.3432,-3 -3,-3 -0.70904,0 -1.3615,0.24498 -1.875,0.65625 l -3.2188,-2 c 0.0495,-0.21624 0.0937,-0.42498 0.0937,-0.65625 0,-0.23127 -0.0442,-0.44001 -0.0937,-0.65625 l 3.2188,-2 C 634.63841,533.75502 635.2909,534 636,534 c 1.6568,0 3,-1.3432 3,-3 0,-1.6568 -1.3432,-3 -3,-3 z"
       id="path14" />
  </g>
</svg>
