<?xml version="1.0" encoding="UTF-8" standalone="no"?>
<svg
   width="16"
   height="16"
   version="1.1"
   id="svg6"
   sodipodi:docname="emblem-readonly.svg"
   inkscape:version="1.2.2 (b0a8486541, 2022-12-01)"
   xmlns:inkscape="http://www.inkscape.org/namespaces/inkscape"
   xmlns:sodipodi="http://sodipodi.sourceforge.net/DTD/sodipodi-0.dtd"
   xmlns="http://www.w3.org/2000/svg"
   xmlns:svg="http://www.w3.org/2000/svg">
  <defs
     id="defs10" />
  <sodipodi:namedview
     id="namedview8"
     pagecolor="#ffffff"
     bordercolor="#666666"
     borderopacity="1.0"
     inkscape:showpageshadow="2"
     inkscape:pageopacity="0.0"
     inkscape:pagecheckerboard="0"
     inkscape:deskcolor="#d1d1d1"
     showgrid="false"
     inkscape:zoom="64"
     inkscape:cx="2.3203125"
     inkscape:cy="8"
     inkscape:window-width="2500"
     inkscape:window-height="1348"
     inkscape:window-x="2620"
     inkscape:window-y="0"
     inkscape:window-maximized="1"
     inkscape:current-layer="svg6" />
  <rect
     style="fill:#a9a9a9;fill-opacity:0.988235;stroke-width:2.7005;stroke-linecap:round;stroke-linejoin:round"
     id="rect3182"
     width="12"
     height="12"
     x="2"
     y="2"
     ry="1.8404413" />
  <path
     style="fill:#ffffff;stroke-width:0.777778"
     d="M 7.9999999,4.5 C 6.7555553,4.5 5.6666665,5.2777778 5.6666665,6.7685166 V 7.6111111 H 5.4074073 c -0.2872593,0 -0.5185186,0.2848888 -0.5185186,0.5926666 v 2.7406673 c 0,0.307777 0.2312593,0.555555 0.5185186,0.555555 h 5.1851847 c 0.28726,0 0.518519,-0.247778 0.518519,-0.555555 V 8.2037777 c 0,-0.3077778 -0.267125,-0.5926666 -0.518519,-0.5926666 H 10.333334 V 6.7685166 C 10.333334,5.2777778 9.2444444,4.5 7.9999999,4.5 Z m 0,0.7777778 c 0.6222222,0 1.5555555,0.4281388 1.5555555,1.4907388 V 7.6111111 H 6.4444443 V 6.7685166 c 0,-1.0520833 0.9333333,-1.4907388 1.5555556,-1.4907388 z"
     id="path4" />
</svg>
