<?xml version="1.0" encoding="UTF-8" standalone="no"?>
<svg
   xmlns:dc="http://purl.org/dc/elements/1.1/"
   xmlns:cc="http://creativecommons.org/ns#"
   xmlns:rdf="http://www.w3.org/1999/02/22-rdf-syntax-ns#"
   xmlns:svg="http://www.w3.org/2000/svg"
   xmlns="http://www.w3.org/2000/svg"
   xmlns:xlink="http://www.w3.org/1999/xlink"
   version="1.1"
   width="24"
   height="24"
   id="svg3828">
  <defs
     id="defs3830">
    <linearGradient
       id="linearGradient2867-449-88-871-390-598-476-591-434-148-57-177-8-3">
      <stop
         offset="0"
         style="stop-color:#90dbec;stop-opacity:1"
         id="stop3750-1-0" />
      <stop
         offset="0.26238"
         style="stop-color:#55c1ec;stop-opacity:1"
         id="stop3752-3-7" />
      <stop
         offset="0.704952"
         style="stop-color:#3689e6;stop-opacity:1"
         id="stop3754-1-8" />
      <stop
         offset="1"
         style="stop-color:#2b63a0;stop-opacity:1"
         id="stop3756-1-6" />
    </linearGradient>
    <radialGradient
       r="12.671875"
       fy="9.9571075"
       fx="5.118885"
       cy="9.9571075"
       cx="5.6491151"
       gradientTransform="matrix(-7.6630149e-8,3.5405486,-3.8355631,-1.0627773e-7,89.48052,-32.283476)"
       gradientUnits="userSpaceOnUse"
       id="radialGradient3441"
       xlink:href="#linearGradient2867-449-88-871-390-598-476-591-434-148-57-177-8-3" />
    <radialGradient
       r="12.671875"
       fy="9.9571075"
       fx="5.0852842"
       cy="9.9571075"
       cx="5.6155143"
       gradientTransform="matrix(-1.501195e-8,4.103576,-5.0378796,-1.8040853e-8,62.156945,-35.443688)"
       gradientUnits="userSpaceOnUse"
       id="radialGradient4777"
       xlink:href="#linearGradient3242-7-3-8-0-4-58" />
    <linearGradient
       id="linearGradient3242-7-3-8-0-4-58">
      <stop
         id="stop3244-5-8-5-6-4-3"
         style="stop-color:#bdff69;stop-opacity:1;"
         offset="0" />
      <stop
         id="stop3246-9-5-1-5-3-0"
         style="stop-color:#8ed451;stop-opacity:1;"
         offset="0.26238" />
      <stop
         id="stop3248-7-2-0-7-5-35"
         style="stop-color:#58aa30;stop-opacity:1;"
         offset="0.66093999" />
      <stop
         id="stop3250-8-2-8-5-6-40"
         style="stop-color:#2a6c1f;stop-opacity:1;"
         offset="1" />
    </linearGradient>
  </defs>
  <metadata
     id="metadata3833">
    <rdf:RDF>
      <cc:Work
         rdf:about="">
        <dc:format>image/svg+xml</dc:format>
        <dc:type
           rdf:resource="http://purl.org/dc/dcmitype/StillImage" />
        <dc:title />
      </cc:Work>
    </rdf:RDF>
  </metadata>
  <path
     d="m 4,2 c 3.6664118,0 15.99998,0.0013 15.99998,0.0013 L 20,22 C 20,22 9.3333337,22 4,22 4,15.33334 4,8.6666817 4,2.0000212 Z"
     id="path4160-3"
     style="display:inline;fill:#fafafa;fill-opacity:1;stroke:none" />
  <path
     d="m 3.4999601,1.4999569 c 3.8955809,0 17.0000589,0.00136 17.0000589,0.00136 l 2.1e-5,20.9987161 c 0,0 -11.3333862,0 -17.0000799,0 0,-7.000018 0,-14.000035 0,-21.0000538 z"
     id="path4160-3-1"
     style="opacity:0.3;fill:none;stroke:#000000;stroke-width:0.99992186;stroke-linecap:butt;stroke-linejoin:round;stroke-miterlimit:4;stroke-opacity:1;stroke-dasharray:none;stroke-dashoffset:0;display:inline" />
  <path
     id="path3439"
     d="M 52,6.8007812 46,8 46,16.800781 52,18 52,6.8007812 Z M 53,8 l 0,1.2285156 3.75,0 0,0.4082032 -3.75,0 0,0.8183592 3.75,0 0,0.408203 -3.75,0 0,0.81836 3.75,0 0,0.410156 -3.75,0 0,0.816406 3.75,0 0,0.410156 -3.75,0 0,0.81836 3.75,0 0,0.408203 -3.75,0 0,0.818359 3.75,0 0,0.408203 -3.75,0 L 53,17 l 5,0 0,-9 -5,0 z m -2.71875,2.363281 0.339844,0 c 0.313618,0 0.332531,0.02299 0.296875,0.199219 -0.02123,0.10492 -0.198282,1.036636 -0.394531,2.074219 l -0.353516,1.888672 -0.365235,0 c -0.19848,0 -0.359477,-0.01373 -0.363281,-0.02539 -0.0038,-0.01166 -0.118023,-0.628874 -0.253906,-1.375 -0.135881,-0.74613 -0.265085,-1.30823 -0.287109,-1.238281 -0.02203,0.06995 -0.13616,0.684953 -0.251954,1.351562 l -0.210937,1.212891 -0.330078,-0.02734 -0.341797,-0.02344 -0.275391,-1.664063 c -0.153855,-0.909341 -0.299516,-1.751611 -0.320312,-1.875 -0.03441,-0.204143 -0.01199,-0.22964 0.230469,-0.261719 0.337832,-0.04469 0.351567,-0.0047 0.550781,1.462891 0.0851,0.627004 0.156424,1.149027 0.167969,1.162109 0.01154,0.01309 0.129833,-0.581482 0.261718,-1.3125 0.131887,-0.731018 0.28119,-1.350122 0.332032,-1.386718 0.146324,-0.105326 0.557429,-0.07959 0.595703,0.03711 0.01911,0.05829 0.137949,0.689239 0.253906,1.400391 0.194003,1.189803 0.331444,1.621978 0.332031,1.048828 2.27e-4,-0.22891 0.154892,-1.321107 0.308594,-2.199219 l 0.07813,-0.449219 z"
     style="color:#000000;clip-rule:nonzero;display:inline;overflow:visible;visibility:visible;opacity:1;isolation:auto;mix-blend-mode:normal;color-interpolation:sRGB;color-interpolation-filters:linearRGB;solid-color:#000000;solid-opacity:1;fill:url(#radialGradient3441);fill-opacity:1;fill-rule:nonzero;stroke:none;stroke-width:1;stroke-linecap:butt;stroke-linejoin:miter;stroke-miterlimit:4;stroke-dasharray:none;stroke-dashoffset:0;stroke-opacity:1;marker:none;color-rendering:auto;image-rendering:auto;shape-rendering:auto;text-rendering:auto;enable-background:accumulate" />
  <path
     id="path4881"
     d="M 12,6.8 6,8 6,16.8 12,18 Z m 1,1.2067796 0,1.0070874 2.004237,0 0,0.9637904 -2.004237,0 0,0.5454546 2.004237,0 0,0.963791 -2.004237,0 0,0.520031 2.004237,0 0,0.996456 -2.004237,0 0,0.563636 2.004237,0 0,0.887519 -2.004237,0 L 13,15 l 2.004237,0 0,1.014638 -2.004237,0 0,0.996148 5,0 0,-9.0040064 z m 2.700693,1.0070874 1.299307,0 0,0.9637904 -1.299307,0 z m 0,1.509245 1.299307,0 0,0.963791 -1.299307,0 z m -5.664337,-0.337307 c 0.07265,-0.0014 0.112536,-0.0031 0.1125,0 -5.6e-5,0.0061 -0.2045756,0.471023 -0.4624996,1.025 l -0.475,1 0.475,1 c 0.257924,0.546548 0.4624996,1.014624 0.4624996,1.0375 0,0.04804 -0.3446476,0.04002 -0.6374996,-0.0125 -0.193848,-0.03476 -0.203536,-0.05652 -0.45,-0.675 -0.140452,-0.352458 -0.276348,-0.662847 -0.3,-0.6875 -0.02364,-0.02465 -0.160844,0.242429 -0.3,0.5875 -0.139156,0.345068 -0.268672,0.64176 -0.2875,0.6625 -0.01884,0.02076 -0.189936,0.02076 -0.3875,0 l -0.3625,-0.0375 0.4375,-0.925 0.4375,-0.925 -0.3875,-0.8875 c -0.212164,-0.489652 -0.3875,-0.92777 -0.3875,-0.962501 0,-0.03876 0.146492,-0.0625 0.375,-0.0625 l 0.375,0 0.2125,0.6 c 0.119432,0.328426 0.240424,0.613294 0.2625,0.6375 0.02208,0.0242 0.17074,-0.267805 0.325,-0.650001 l 0.275,-0.687499 0.4,-0.025 c 0.110264,-0.0052 0.214848,-0.01105 0.2874996,-0.0125 z m 5.664337,1.821129 1.299307,0 0,0.996456 -1.299307,0 z m 0,1.560092 1.299307,0 0,0.887519 -1.299307,0 z M 15.700693,15 17,15 l 0,1.014638 -1.299307,0 z"
     style="color:#000000;clip-rule:nonzero;display:inline;overflow:visible;visibility:visible;opacity:1;isolation:auto;mix-blend-mode:normal;color-interpolation:sRGB;color-interpolation-filters:linearRGB;solid-color:#000000;solid-opacity:1;fill:url(#radialGradient4777);fill-opacity:1;fill-rule:nonzero;stroke:none;stroke-width:0.99999994;stroke-linecap:butt;stroke-linejoin:miter;stroke-miterlimit:4;stroke-dasharray:none;stroke-dashoffset:0;stroke-opacity:1;marker:none;color-rendering:auto;image-rendering:auto;shape-rendering:auto;text-rendering:auto;enable-background:accumulate" />
</svg>
