<?xml version="1.0" encoding="UTF-8" standalone="no"?>
<svg
   xmlns:dc="http://purl.org/dc/elements/1.1/"
   xmlns:cc="http://creativecommons.org/ns#"
   xmlns:rdf="http://www.w3.org/1999/02/22-rdf-syntax-ns#"
   xmlns:svg="http://www.w3.org/2000/svg"
   xmlns="http://www.w3.org/2000/svg"
   xmlns:xlink="http://www.w3.org/1999/xlink"
   height="24.101"
   version="1"
   viewBox="0 0 24.176655 24.100876"
   width="24.177"
   id="svg89">
  <metadata
     id="metadata93">
    <rdf:RDF>
      <cc:Work
         rdf:about="">
        <dc:format>image/svg+xml</dc:format>
        <dc:type
           rdf:resource="http://purl.org/dc/dcmitype/StillImage" />
      </cc:Work>
    </rdf:RDF>
  </metadata>
  <title
     id="title2">
        elementary Icon Template
    </title>
  <defs
     id="defs69">
    <linearGradient
       id="g">
      <stop
         offset="0"
         stop-color="#997543"
         id="stop4"
         style="stop-color:#abacae;stop-opacity:1" />
      <stop
         offset="1"
         stop-color="#604c31"
         id="stop10"
         style="stop-color:#7e8087;stop-opacity:1" />
    </linearGradient>
    <linearGradient
       id="e">
      <stop
         offset="0"
         stop-color="#fff"
         id="stop13" />
      <stop
         offset=".009"
         stop-color="#fff"
         stop-opacity=".235"
         id="stop15" />
      <stop
         offset="1"
         stop-color="#fff"
         stop-opacity=".157"
         id="stop17" />
      <stop
         offset="1"
         stop-color="#fff"
         stop-opacity=".392"
         id="stop19" />
    </linearGradient>
    <linearGradient
       id="d">
      <stop
         offset="0"
         stop-color="#fff"
         id="stop27" />
      <stop
         offset=".302"
         stop-color="#fff"
         id="stop29" />
      <stop
         offset=".344"
         stop-color="#fff"
         stop-opacity=".643"
         id="stop31" />
      <stop
         offset="1"
         stop-color="#fff"
         stop-opacity=".391"
         id="stop33" />
    </linearGradient>
    <linearGradient
       gradientTransform="matrix(0.9899,0,0,0.6901,-11.54,-3.182)"
       gradientUnits="userSpaceOnUse"
       xlink:href="#d"
       id="l"
       x1="24.537"
       x2="24.537"
       y1="21.915"
       y2="8.347" />
    <linearGradient
       gradientTransform="matrix(0.72973,0,0,0.32432,-1.337,6.716)"
       gradientUnits="userSpaceOnUse"
       xlink:href="#e"
       id="m"
       x1="24"
       x2="24"
       y1="7.042"
       y2="40.958" />
    <linearGradient
       gradientUnits="userSpaceOnUse"
       xlink:href="#g"
       id="o"
       x1="53"
       x2="53"
       y1="189"
       y2="208"
       gradientTransform="translate(-39.823,-186)" />
  </defs>
  <path
     id="path77"
     style="display:block;overflow:visible;fill:#d4d4d4;marker:none;fill-opacity:1"
     overflow="visible"
     display="block"
     d="m 5.075,3.617 13.864,0 c 1.218,0 1.766,-0.199 2.116,0.694 l 1.623,4.29 0,12.08 c 0,1.079 0.073,0.914 -1.145,0.914 l -18.712,0 c -1.218,0 -1.145,0.165 -1.145,-0.914 l 0,-12.08 1.623,-4.29 C 3.639,3.436 3.857,3.617 5.075,3.617 Z" />
  <g
     transform="matrix(0.68749647,0,0,0.68749647,3.927042,6.2500424)"
     id="g876">
    <g
       style="fill:#f89820;fill-opacity:1"
       id="g864">
      <path
         style="clip-rule:evenodd;fill:#f89820;fill-opacity:1;fill-rule:evenodd;stroke-width:0.27398297"
         d="m 12.743682,11.650218 c 0.772225,0.888918 -0.202488,1.688184 -0.202488,1.688184 0,0 1.959655,-1.011452 1.05987,-2.278661 -0.840676,-1.1812008 -1.485199,-1.7679611 2.00411,-3.7915375 3.6e-5,0 -5.47735,1.3676562 -2.861492,4.3820145 z"
         id="path3934" />
      <path
         style="clip-rule:evenodd;fill:#f89820;fill-opacity:1;fill-rule:evenodd;stroke-width:0.27398297"
         d="m 13.6011,4 c 0,0 1.662204,1.66316 -1.577047,4.2199105 C 9.4263874,10.27166 11.431771,11.441075 12.023122,12.777868 10.506669,11.409787 9.3943802,10.205297 10.140448,9.0844422 11.236032,7.4393684 14.271591,6.6415187 13.601089,4 v 0 z"
         id="path3942" />
    </g>
    <g
       id="g860">
      <path
         style="clip-rule:evenodd;fill:#5382a1;fill-opacity:1;fill-rule:evenodd;stroke-width:0.27398297"
         d="m 9.9000289,16.37343 c 0,0 -0.611076,0.355673 0.4353811,0.475694 1.267951,0.144761 1.915872,0.123914 3.312728,-0.140125 0,0 0.367991,0.230203 0.881026,0.429576 -3.132397,1.342032 -7.08926,-0.07776 -4.6291351,-0.765145 z"
         id="path3930" />
      <path
         style="clip-rule:evenodd;fill:#5382a1;fill-opacity:1;fill-rule:evenodd;stroke-width:0.27398297"
         d="m 9.5170668,14.621856 c 0,0 -0.6854739,0.507513 0.3617611,0.615748 1.3545601,0.139841 2.4238821,0.151309 4.2753021,-0.205002 0,0 0.255473,0.259508 0.657796,0.401332 -3.786654,1.107617 -8.0042282,0.08714 -5.2948592,-0.812078 z"
         id="path3932" />
      <path
         style="clip-rule:evenodd;fill:#5382a1;fill-opacity:1;fill-rule:evenodd;stroke-width:0.27398297"
         d="m 16.886469,17.669201 c 0,0 0.45237,0.37291 -0.49824,0.6613 -1.807603,0.547509 -7.5248878,0.712656 -9.1128713,0.02191 -0.5704438,-0.248465 0.4997976,-0.592848 0.8365353,-0.665583 0.3511075,-0.07596 0.5515787,-0.06208 0.5515787,-0.06208 -0.6348608,-0.44706 -4.1033946,0.878017 -1.7616259,1.258042 6.3860892,1.03513 11.6408822,-0.466245 9.9846232,-1.213587 v 0 z"
         id="path3936" />
      <path
         style="clip-rule:evenodd;fill:#5382a1;fill-opacity:1;fill-rule:evenodd;stroke-width:0.27398297"
         d="m 10.194117,12.806785 c 0,0 -2.9077873,0.690854 -1.0296798,0.941938 0.7932484,0.106147 2.3736218,0.08173 3.8467878,-0.04187 1.203605,-0.101014 2.411494,-0.317059 2.411494,-0.317059 0,0 -0.42409,0.181925 -0.731132,0.391457 -2.95341,0.77679 -8.6577774,0.415029 -7.0153226,-0.379139 1.3883973,-0.671671 2.5178526,-0.595326 2.5178526,-0.595326 z"
         id="path3938" />
      <path
         style="clip-rule:evenodd;fill:#5382a1;fill-opacity:1;fill-rule:evenodd;stroke-width:0.27398297"
         d="m 15.410685,15.722394 c 3.002041,-1.559562 1.613856,-3.058459 0.644983,-2.856572 -0.236927,0.04945 -0.343215,0.09227 -0.343215,0.09227 0,0 0.08827,-0.138284 0.256358,-0.197781 1.916758,-0.673546 3.390525,1.987226 -0.618119,3.04101 -3.6e-5,0 0.04608,-0.04176 0.05999,-0.07893 z"
         id="path3940" />
      <path
         style="clip-rule:evenodd;fill:#5382a1;fill-opacity:1;fill-rule:evenodd;stroke-width:0.27398297"
         d="m 10.489267,19.949808 c 2.880958,0.18419 7.306224,-0.102501 7.410955,-1.465839 0,0 -0.201321,0.516822 -2.381161,0.926896 -2.459205,0.462988 -5.49303,0.409083 -7.2917132,0.112093 0,0 0.368486,0.304989 2.2619192,0.42685 z"
         id="path3944" />
    </g>
  </g>
  <path
     id="path79"
     style="overflow:visible;opacity:0.3;fill:url(#l);marker:none"
     overflow="visible"
     d="m 11.527,3.598 1.34,0.07 0.33,5.332 0,2.07 c -0.39,0 -0.088,-0.602 -0.477,-0.602 -0.4,0 -0.137,0.62 -0.536,0.62 -0.32,0 -0.036,-0.554 -0.357,-0.554 -0.21,0 -0.42,0.466 -0.63,0.466 0,0 -0.09,-0.325 0,-2.07 z" />
  <path
     style="opacity:0.3;fill:none;stroke:url(#m);stroke-linecap:round;stroke-linejoin:round"
     id="path81"
     d="m 21.677,20.5 -19,0 0,-12 19,0 z" />
  <path
     id="path85"
     style="display:block;overflow:visible;opacity:0.5;fill:none;stroke:url(#o);stroke-width:0.99400002;stroke-linecap:round;marker:none"
     overflow="visible"
     display="block"
     d="m 5.075,3.516 13.864,0 c 1.218,0 1.766,-0.199 2.116,0.694 l 1.623,4.29 0,12.08 c 0,1.079 0.073,0.914 -1.145,0.914 l -18.712,0 c -1.218,0 -1.145,0.165 -1.145,-0.913 L 1.676,8.5 3.299,4.21 C 3.639,3.335 3.857,3.516 5.075,3.516 Z" />
</svg>
