<?xml version="1.0" encoding="UTF-8" standalone="no"?>
<svg
   xmlns:dc="http://purl.org/dc/elements/1.1/"
   xmlns:cc="http://creativecommons.org/ns#"
   xmlns:rdf="http://www.w3.org/1999/02/22-rdf-syntax-ns#"
   xmlns:svg="http://www.w3.org/2000/svg"
   xmlns="http://www.w3.org/2000/svg"
   height="24.000027"
   id="svg11300"
   style="display:inline;enable-background:new"
   version="1.0"
   viewBox="0 0 24 24.000027"
   width="24">
  <metadata
     id="metadata155">
    <rdf:RDF>
      <cc:Work
         rdf:about="">
        <dc:format>image/svg+xml</dc:format>
        <dc:type
           rdf:resource="http://purl.org/dc/dcmitype/StillImage" />
        <dc:title>elementary Icon Template</dc:title>
      </cc:Work>
    </rdf:RDF>
  </metadata>
  <title
     id="title4162">elementary Icon Template</title>
  <defs
     id="defs3" />
  <path
     style="display:inline;fill:#fafafa;fill-opacity:1;stroke:none"
     id="path4160-3"
     d="M 4,2 C 7.666412,2 19.99998,2.001 19.99998,2.001 L 20,22 4,22 4,2.00002 Z" />
  <path
     style="display:inline;opacity:0.3;fill:none;stroke:#000000;stroke-width:0.99992186;stroke-linecap:butt;stroke-linejoin:round;stroke-miterlimit:4;stroke-dasharray:none;stroke-dashoffset:0;stroke-opacity:1"
     id="path4160-3-1"
     d="m 3.49996,1.49996 c 3.895581,0 17.000059,0.001 17.000059,0.001 l 2.1e-5,20.99871 -17.00008,0 0,-21.00005 z" />
  <path
     style="color:#bebebe;display:inline;overflow:visible;visibility:visible;opacity:0.2;fill:#3689e6;fill-opacity:1;fill-rule:nonzero;stroke:none;stroke-width:1;marker:none;enable-background:accumulate"
     id="path10832"
     d="m 12,5.45556 c 0,0 -0.666655,0 -0.666655,0.63707 0,0.63703 -0.666685,0.63703 -0.666685,0.63703 0,0 -0.66666,4.5e-4 -0.66666,-0.63703 l 0,8.9186 4,0 0,-8.9186 c 0,0.63703 -0.666655,0.63703 -0.666655,0.63703 0,0 -0.66669,0 -0.66669,-0.63703 C 12.666655,5.45556 12,5.45556 12,5.45556 Z" />
  <path
     style="color:#bebebe;display:inline;overflow:visible;visibility:visible;opacity:0.5;fill:#3689e6;fill-opacity:1;fill-rule:nonzero;stroke:none;stroke-width:1;marker:none;enable-background:accumulate"
     id="path10846"
     d="m 10.666668,8.33707 c 0,0 -0.666666,-5.4e-4 -0.666666,0.63704 l 0,4.36296 3.999997,0 0,-4.36296 c 0,-0.63704 -0.666666,-0.63704 -0.666666,-0.63704 0,0 -0.666667,0 -0.666667,0.63704 C 12.666666,9.61116 12,9.61116 12,9.61116 c 0,0 -0.666666,0 -0.666666,-0.63705 0,-0.63704 -0.666666,-0.63704 -0.666666,-0.63704 z" />
  <path
     style="color:#bebebe;display:inline;overflow:visible;visibility:visible;fill:#3689e6;fill-opacity:1;fill-rule:nonzero;stroke:none;stroke-width:0.99999994;marker:none;enable-background:accumulate"
     id="path10852"
     d="m 12,10.95508 c 0,0 -0.66699,5e-4 -0.66699,0.63769 0,0.63704 -0.66602,0.63672 -0.66602,0.63672 0,0 -0.66699,10e-4 -0.66699,-0.63672 L 10,14 9.85742,14 7,14 12,20.45996 17,14 l -1.14258,0 -1.713865,10e-4 0,-10e-4 L 14,14 14,11.59278 c 0,0.63703 -0.66699,0.63671 -0.66699,0.63671 0,0 -0.66602,3.2e-4 -0.66602,-0.63671 C 12.66699,10.95571 12,10.95508 12,10.95508 Z" />
</svg>
