<?xml version="1.0" encoding="UTF-8" standalone="no"?>
<svg
   xmlns:dc="http://purl.org/dc/elements/1.1/"
   xmlns:cc="http://creativecommons.org/ns#"
   xmlns:rdf="http://www.w3.org/1999/02/22-rdf-syntax-ns#"
   xmlns:svg="http://www.w3.org/2000/svg"
   xmlns="http://www.w3.org/2000/svg"
   xmlns:xlink="http://www.w3.org/1999/xlink"
   version="1.1"
   width="24"
   height="24"
   id="svg3828">
  <defs
     id="defs3830">
    <radialGradient
       xlink:href="#linearGradient4330"
       id="radialGradient3457"
       gradientUnits="userSpaceOnUse"
       gradientTransform="matrix(0,4.9206162,-6.1869842,0,112.4336,-105.52025)"
       cx="17.347919"
       cy="16.231987"
       fx="17.347919"
       fy="16.231987"
       r="12.671875" />
    <linearGradient
       id="linearGradient4330">
      <stop
         id="stop4332"
         style="stop-color:#e4c6fa;stop-opacity:1"
         offset="0" />
      <stop
         id="stop4334"
         style="stop-color:#cd9ef7;stop-opacity:1"
         offset="0.26238" />
      <stop
         id="stop4336"
         style="stop-color:#7239b3;stop-opacity:1"
         offset="0.704952" />
      <stop
         id="stop4338"
         style="stop-color:#452981;stop-opacity:1"
         offset="1" />
    </linearGradient>
  </defs>
  <metadata
     id="metadata3833">
    <rdf:RDF>
      <cc:Work
         rdf:about="">
        <dc:format>image/svg+xml</dc:format>
        <dc:type
           rdf:resource="http://purl.org/dc/dcmitype/StillImage" />
        <dc:title />
      </cc:Work>
    </rdf:RDF>
  </metadata>
  <path
     d="m 4,2 c 3.6664118,0 15.99998,0.0013 15.99998,0.0013 L 20,22 C 20,22 9.3333337,22 4,22 4,15.33334 4,8.6666817 4,2.0000212 Z"
     id="path4160-3"
     style="display:inline;fill:#fafafa;fill-opacity:1;stroke:none" />
  <path
     d="m 3.4999601,1.4999569 c 3.8955809,0 17.0000589,0.00136 17.0000589,0.00136 l 2.1e-5,20.9987161 c 0,0 -11.3333862,0 -17.0000799,0 0,-7.000018 0,-14.000035 0,-21.0000538 z"
     id="path4160-3-1"
     style="opacity:0.3;fill:none;stroke:#000000;stroke-width:0.99992186;stroke-linecap:butt;stroke-linejoin:round;stroke-miterlimit:4;stroke-opacity:1;stroke-dasharray:none;stroke-dashoffset:0;display:inline" />
  <path
     id="path3455"
     d="M 12.015625 8.7109375 C 11.342341 8.7109435 10.716075 8.8634773 10.126953 9.1914062 L 10.484375 9.9648438 C 10.707834 9.8545708 10.94462 9.7639079 11.179688 9.6855469 C 11.414755 9.6071969 11.663755 9.562506 11.939453 9.5625 C 12.244168 9.562506 12.487872 9.6330929 12.650391 9.7636719 C 12.812904 9.8942709 12.882809 10.076541 12.882812 10.320312 C 12.882808 10.529265 12.843757 10.71238 12.742188 10.863281 C 12.643517 11.014194 12.423469 11.223304 12.078125 11.496094 C 11.787915 11.722459 11.575064 11.934636 11.458984 12.146484 C 11.342899 12.358337 11.28906 12.631947 11.289062 12.951172 L 11.289062 13.230469 L 12.138672 13.230469 L 12.138672 13.029297 C 12.138671 12.794231 12.189317 12.611958 12.279297 12.472656 C 12.372157 12.333359 12.550417 12.15912 12.820312 11.947266 C 13.136636 11.700593 13.358633 11.495611 13.486328 11.341797 C 13.616917 11.187992 13.715447 11.031606 13.779297 10.863281 C 13.843137 10.692064 13.873047 10.489144 13.873047 10.271484 C 13.873043 9.7810399 13.710689 9.4075102 13.376953 9.1289062 C 13.043213 8.8503143 12.584428 8.7109435 12.015625 8.7109375 z M 8.7695312 9.3339844 L 5 11.554688 L 5 12.445312 L 8.7695312 14.666016 L 8.7695312 13.777344 L 5.8378906 12.001953 L 8.7695312 10.222656 L 8.7695312 9.3339844 z M 15.230469 9.3339844 L 15.230469 10.222656 L 18.162109 12.001953 L 15.230469 13.777344 L 15.230469 14.666016 L 19 12.445312 L 19 11.554688 L 15.230469 9.3339844 z M 11.751953 13.957031 C 11.325347 13.957031 11.10156 14.184835 11.101562 14.623047 C 11.101562 14.834898 11.161202 15.000155 11.271484 15.119141 C 11.381761 15.235223 11.545904 15.289063 11.751953 15.289062 C 11.957999 15.289062 12.106516 15.220552 12.216797 15.101562 C 12.329976 14.979676 12.386716 14.829094 12.386719 14.623047 C 12.386716 14.414098 12.342706 14.240134 12.232422 14.126953 C 12.122142 14.010872 11.9609 13.957031 11.751953 13.957031 z "
     style="color:#000000;font-style:normal;font-variant:normal;font-weight:600;font-stretch:normal;font-size:18px;line-height:125%;font-family:'Open Sans';-inkscape-font-specification:'Open Sans Semi-Bold';text-align:center;letter-spacing:0px;word-spacing:0px;writing-mode:lr-tb;text-anchor:middle;clip-rule:nonzero;display:inline;overflow:visible;visibility:visible;opacity:1;isolation:auto;mix-blend-mode:normal;color-interpolation:sRGB;color-interpolation-filters:linearRGB;solid-color:#000000;solid-opacity:1;fill:url(#radialGradient3457);fill-opacity:1;fill-rule:nonzero;stroke:none;stroke-width:1;stroke-linecap:butt;stroke-linejoin:round;stroke-miterlimit:4;stroke-dasharray:none;stroke-dashoffset:0;stroke-opacity:1;marker:none;color-rendering:auto;image-rendering:auto;shape-rendering:auto;text-rendering:auto;enable-background:accumulate" />
</svg>
