<?xml version="1.0" encoding="UTF-8" standalone="no"?>
<svg
   xmlns:dc="http://purl.org/dc/elements/1.1/"
   xmlns:cc="http://creativecommons.org/ns#"
   xmlns:rdf="http://www.w3.org/1999/02/22-rdf-syntax-ns#"
   xmlns:svg="http://www.w3.org/2000/svg"
   xmlns="http://www.w3.org/2000/svg"
   xmlns:xlink="http://www.w3.org/1999/xlink"
   version="1.1"
   width="24"
   height="24"
   id="svg4157">
  <defs
     id="defs4159">
    <linearGradient
       x1="12.913282"
       y1="17.533852"
       x2="12.913282"
       y2="20.187275"
       id="linearGradient3223"
       xlink:href="#linearGradient4097"
       gradientUnits="userSpaceOnUse"
       gradientTransform="matrix(1.0181566,0,0,-1.0195328,-0.21530444,32.481143)" />
    <linearGradient
       id="linearGradient4097">
      <stop
         id="stop4099"
         style="stop-color:#000000;stop-opacity:1"
         offset="0" />
      <stop
         id="stop4101"
         style="stop-color:#000000;stop-opacity:0"
         offset="1" />
    </linearGradient>
  </defs>
  <metadata
     id="metadata4162">
    <rdf:RDF>
      <cc:Work
         rdf:about="">
        <dc:format>image/svg+xml</dc:format>
        <dc:type
           rdf:resource="http://purl.org/dc/dcmitype/StillImage" />
        <dc:title />
      </cc:Work>
    </rdf:RDF>
  </metadata>
  <rect
     style="opacity:1;fill:#fafafa;fill-opacity:1;fill-rule:nonzero;stroke:none;stroke-width:0.25;stroke-linecap:butt;stroke-linejoin:miter;stroke-miterlimit:4;stroke-dasharray:none;stroke-opacity:1"
     id="rect4144"
     width="18"
     height="18"
     x="3"
     y="3"
     rx="0.5"
     ry="0.5" />
  <rect
     style="color:#000000;display:inline;overflow:visible;visibility:visible;opacity:0.3;fill:none;stroke:#000000;stroke-width:1;stroke-linecap:round;stroke-linejoin:round;stroke-miterlimit:4;stroke-dasharray:none;stroke-dashoffset:0;stroke-opacity:1;marker:none;enable-background:accumulate"
     id="rect5505-21-8-1"
     y="2.5000257"
     x="2.4999981"
     ry="1"
     rx="1"
     height="19.000002"
     width="19.000002" />
  <path
     id="path4690"
     d="m 11.142857,6.0000272 c -0.154257,0 -0.282804,0.595793 -0.35826,1.447265 a 4.7142854,4.7142854 0 0 0 -1.1392302,0.478795 c -0.658092,-0.551548 -1.172157,-0.884484 -1.281529,-0.775112 l -1.212891,1.21289 c -0.109371,0.109373 0.223564,0.623438 0.775113,1.28153 a 4.7142854,4.7142854 0 0 0 -0.47461,1.1392288 c -0.853858,0.07538 -1.451451,0.203745 -1.451451,0.358259 l 0,1.714286 c 0,0.154256 0.595793,0.282803 1.447265,0.358259 a 4.7142854,4.7142854 0 0 0 0.477121,1.141741 c -0.550295,0.656913 -0.882677,1.169777 -0.773438,1.279018 l 1.212891,1.21289 c 0.109137,0.109137 0.621357,-0.222452 1.277344,-0.771763 a 4.7142854,4.7142854 0 0 0 1.1434152,0.471261 c 0.07538,0.853858 0.203745,1.451451 0.35826,1.451451 l 1.714285,0 c 0.154256,0 0.282803,-0.595793 0.358259,-1.447266 a 4.7142854,4.7142854 0 0 0 1.13923,-0.478795 c 0.658092,0.551549 1.172157,0.884484 1.281529,0.775112 l 1.212891,-1.21289 c 0.109371,-0.109372 -0.223564,-0.623438 -0.775113,-1.281529 a 4.7142854,4.7142854 0 0 0 0.47461,-1.13923 c 0.853858,-0.07538 1.451451,-0.203745 1.451451,-0.358259 l 0,-1.714286 c 0,-0.154256 -0.595793,-0.282803 -1.447265,-0.358259 A 4.7142854,4.7142854 0 0 0 16.075613,9.6428842 c 0.550295,-0.656913 0.882677,-1.169778 0.773438,-1.279019 l -1.212891,-1.21289 c -0.109137,-0.109137 -0.621357,0.222452 -1.277344,0.771764 a 4.7142854,4.7142854 0 0 0 -1.143415,-0.471262 c -0.07538,-0.853857 -0.203744,-1.45145 -0.358259,-1.45145 l -1.714285,0 z m 0.857142,3.857142 a 2.142857,2.142857 0 0 1 2.142857,2.1428568 2.142857,2.142857 0 0 1 -2.142857,2.142857 2.142857,2.142857 0 0 1 -2.1428572,-2.142857 2.142857,2.142857 0 0 1 2.1428572,-2.1428568 z"
     style="color:#000000;clip-rule:nonzero;display:inline;overflow:visible;visibility:visible;opacity:1;isolation:auto;mix-blend-mode:normal;color-interpolation:sRGB;color-interpolation-filters:linearRGB;solid-color:#000000;solid-opacity:1;fill:#455365;fill-opacity:1;fill-rule:nonzero;stroke:none;stroke-width:1;stroke-linecap:butt;stroke-linejoin:miter;stroke-miterlimit:4;stroke-dasharray:none;stroke-dashoffset:0;stroke-opacity:1;marker:none;color-rendering:auto;image-rendering:auto;shape-rendering:auto;text-rendering:auto;enable-background:accumulate;filter-blend-mode:normal;filter-gaussianBlur-deviation:0" />
  <path
     style="display:inline;overflow:visible;visibility:visible;opacity:0.05;fill:none;stroke:url(#linearGradient3223);stroke-width:0.99999994;stroke-linejoin:round;stroke-miterlimit:4;stroke-dasharray:none;stroke-opacity:1;marker:none;enable-background:accumulate"
     id="path4094"
     d="m 12.002575,14.671181 c 1.469034,0.0381 2.754293,-1.381505 2.563778,-2.842678 -0.114039,-1.464029 -1.647021,-2.6049393 -3.079912,-2.265809 -1.441327,0.2611074 -2.4259723,1.896655 -1.9442349,3.290986 0.3196809,1.053899 1.3566149,1.831057 2.4603689,1.817501 z" />
  <path
     style="color:#000000;clip-rule:nonzero;display:inline;overflow:visible;visibility:visible;opacity:0.05;isolation:auto;mix-blend-mode:normal;color-interpolation:sRGB;color-interpolation-filters:linearRGB;solid-color:#000000;solid-opacity:1;fill:none;fill-opacity:1;fill-rule:nonzero;stroke:#000000;stroke-width:1;stroke-linecap:butt;stroke-linejoin:miter;stroke-miterlimit:4;stroke-dasharray:none;stroke-dashoffset:0;stroke-opacity:1;marker:none;color-rendering:auto;image-rendering:auto;shape-rendering:auto;text-rendering:auto;enable-background:accumulate"
     d="m 11.431641,6.5 c -0.0016,0.00651 -0.0023,0.00495 -0.0039,0.011719 -0.05052,0.2127751 -0.100234,0.5609439 -0.136718,0.9726562 -0.01967,0.2122132 -0.169229,0.3898162 -0.375,0.4453125 C 10.559466,8.026698 10.215527,8.1729612 9.8964844,8.359375 9.7114422,8.4668133 9.4790082,8.4473138 9.3144531,8.3105469 8.9961461,8.0437744 8.7126074,7.8304674 8.5253906,7.7148438 c -0.00749,-0.00463 -0.00645,-0.00351 -0.013672,-0.00781 L 7.7070312,8.5117188 c 0.0043,0.00722 0.00318,0.00618 0.00781,0.013672 C 7.8304676,8.7126064 8.043773,8.9961475 8.3105469,9.3144531 8.4473153,9.479008 8.4668148,9.7114424 8.359375,9.8964844 8.17417,10.215707 8.0314576,10.559638 7.9355469,10.916016 c -0.055746,0.206394 -0.2343113,0.356109 -0.4472657,0.375 -0.4129715,0.03646 -0.7611044,0.08617 -0.9746093,0.136718 -0.00775,0.0018 -0.00627,0.002 -0.013672,0.0039 l 0,1.136718 c 0.00651,0.0016 0.00495,0.0023 0.011719,0.0039 0.212776,0.05052 0.5609425,0.100234 0.9726562,0.136718 0.2129543,0.01889 0.3915199,0.168606 0.4472656,0.375 0.096316,0.357064 0.2398319,0.701807 0.4257813,1.021485 0.1074396,0.185042 0.08794,0.417476 -0.048828,0.582031 -0.2661194,0.317678 -0.4784769,0.600262 -0.59375,0.787109 -0.00461,0.0075 -0.00352,0.0065 -0.00781,0.01367 l 0.8027344,0.802735 c 0.00684,-0.0041 0.00658,-0.0015 0.013672,-0.0059 0.1864151,-0.114875 0.4699312,-0.326199 0.7871094,-0.591797 0.1637402,-0.136504 0.3951104,-0.156759 0.5800781,-0.05078 0.320495,0.184275 0.666029,0.327354 1.023437,0.421875 0.207163,0.05505 0.357788,0.233772 0.376954,0.447266 0.03646,0.412971 0.08617,0.761106 0.136718,0.974609 0.0018,0.0077 0.002,0.0063 0.0039,0.01367 l 1.136718,0 c 0.0016,-0.0065 0.0023,-0.0049 0.0039,-0.01172 0.05052,-0.212776 0.100234,-0.560942 0.136718,-0.972656 0.01967,-0.212213 0.169229,-0.389817 0.375,-0.445313 0.35655,-0.09701 0.700488,-0.243274 1.019532,-0.429687 0.185042,-0.107438 0.417476,-0.08794 0.582031,0.04883 0.318306,0.266773 0.601846,0.480079 0.789062,0.595703 0.0075,0.0046 0.0065,0.0035 0.01367,0.0078 l 0.804688,-0.804688 c -0.0043,-0.0072 -0.0032,-0.0062 -0.0078,-0.01367 -0.115624,-0.187215 -0.328929,-0.470758 -0.595703,-0.789062 -0.136768,-0.164555 -0.156268,-0.396989 -0.04883,-0.582031 0.185205,-0.319223 0.327917,-0.663154 0.423828,-1.019532 0.05575,-0.206394 0.234312,-0.356109 0.447266,-0.375 0.412971,-0.03646 0.761105,-0.08617 0.974609,-0.136718 0.0077,-0.0018 0.0063,-0.002 0.01367,-0.0039 l 0,-1.136718 c -0.0065,-0.0016 -0.0049,-0.0023 -0.01172,-0.0039 -0.212777,-0.05052 -0.560942,-0.100234 -0.972656,-0.136718 -0.212954,-0.01889 -0.39152,-0.168606 -0.447266,-0.375 -0.09632,-0.357064 -0.239832,-0.701807 -0.425781,-1.0214848 -0.10744,-0.185042 -0.08794,-0.4174763 0.04883,-0.5820312 0.26612,-0.3176779 0.478477,-0.6002621 0.59375,-0.7871094 0.0046,-0.00748 0.0035,-0.00647 0.0078,-0.013672 L 15.490234,7.7089844 c -0.0068,0.00407 -0.0066,0.00149 -0.01367,0.00586 -0.186415,0.1148753 -0.469931,0.3261985 -0.787109,0.5917968 -0.16374,0.1365044 -0.39511,0.1567591 -0.580078,0.050781 C 13.78888,8.1731472 13.443346,8.0300675 13.085938,7.9355469 12.878775,7.8804956 12.72815,7.7017747 12.708984,7.4882812 12.672527,7.0753115 12.62281,6.7271761 12.572266,6.5136719 c -0.0018,-0.00775 -0.002,-0.00627 -0.0039,-0.013672 z"
     id="path4272" />
</svg>
