<?xml version="1.0" encoding="UTF-8" standalone="no"?>
<svg
   xmlns:dc="http://purl.org/dc/elements/1.1/"
   xmlns:cc="http://creativecommons.org/ns#"
   xmlns:rdf="http://www.w3.org/1999/02/22-rdf-syntax-ns#"
   xmlns:svg="http://www.w3.org/2000/svg"
   xmlns="http://www.w3.org/2000/svg"
   xmlns:xlink="http://www.w3.org/1999/xlink"
   id="svg3828"
   height="24"
   width="24"
   version="1.1">
  <defs
     id="defs3830">
    <linearGradient
       xlink:href="#linearGradient994"
       id="linearGradient996"
       x1="33.503624"
       y1="0.39035916"
       x2="33.503624"
       y2="59.221642"
       gradientUnits="userSpaceOnUse"
       gradientTransform="matrix(0.35263343,0,0,0.34925899,0.35341157,1.5222476)" />
    <linearGradient
       id="linearGradient994">
      <stop
         style="stop-color:#f9c440;stop-opacity:1"
         offset="0"
         id="stop990" />
      <stop
         style="stop-color:#d48e15;stop-opacity:1"
         offset="1"
         id="stop992" />
    </linearGradient>
  </defs>
  <metadata
     id="metadata3833">
    <rdf:RDF>
      <cc:Work
         rdf:about="">
        <dc:format>image/svg+xml</dc:format>
        <dc:type
           rdf:resource="http://purl.org/dc/dcmitype/StillImage" />
        <dc:title />
      </cc:Work>
    </rdf:RDF>
  </metadata>
  <path
     style="display:inline;fill:#fafafa;fill-opacity:1;stroke:none"
     id="path4160-3"
     d="m 4,2 c 3.6664118,0 15.99998,0.0013 15.99998,0.0013 L 20,22 C 20,22 9.3333337,22 4,22 4,15.33334 4,8.6666817 4,2.0000212 Z" />
  <path
     style="opacity:0.3;fill:none;stroke:#000000;stroke-width:0.99992186;stroke-linecap:butt;stroke-linejoin:round;stroke-miterlimit:4;stroke-opacity:1;stroke-dasharray:none;stroke-dashoffset:0;display:inline"
     id="path4160-3-1"
     d="m 3.4999601,1.4999569 c 3.8955809,0 17.0000589,0.00136 17.0000589,0.00136 l 2.1e-5,20.9987161 c 0,0 -11.3333862,0 -17.0000799,0 0,-7.000018 0,-14.000035 0,-21.0000538 z" />
  <path
     d="m 9.0080883,8 v 5.294409 c 0,0.812499 -0.1219669,0.712809 -0.6616706,0.712809 -0.5646153,0 -0.545088,-0.280112 -0.8041485,-0.732415 L 5.898551,14.315789 C 6.2854748,15.126645 7.2336978,16 8.5489155,16 10.003627,16 11,15.233553 11,13.550987 V 8 Z m 5.5855107,0 c -1.448067,0 -2.376356,0.9177638 -2.376356,2.123356 0,1.307565 0.778831,1.925986 1.949572,2.419407 l 0.405198,0.172698 c 0.738978,0.320724 1.104315,0.516447 1.104315,1.067434 0,0.458882 -0.352051,0.791118 -1.024606,0.791118 -0.800421,0 -1.179049,-0.537828 -1.52612,-1.100328 l -1.275361,0.842104 C 12.326841,15.248355 13.182068,16 14.688258,16 c 1.541063,0 2.688554,-0.792763 2.688554,-2.238486 0,-1.342106 -0.777173,-1.939146 -2.157152,-2.524672 L 14.814463,11.06579 c -0.695803,-0.299342 -0.998038,-0.49342 -0.998038,-0.975331 0,-0.3898023 0.302235,-0.6891411 0.777175,-0.6891452 0.466639,0 0.765543,0.1957266 1.042874,0.6891452 L 16.900213,9.2878275 C 16.367155,8.3552633 15.624847,8 14.593599,8 Z"
     id="path16"
     style="fill:url(#linearGradient996);fill-opacity:1;stroke-width:1" />
</svg>
