<?xml version="1.0" encoding="UTF-8" standalone="no"?>
<svg
   xmlns:dc="http://purl.org/dc/elements/1.1/"
   xmlns:cc="http://creativecommons.org/ns#"
   xmlns:rdf="http://www.w3.org/1999/02/22-rdf-syntax-ns#"
   xmlns:svg="http://www.w3.org/2000/svg"
   xmlns="http://www.w3.org/2000/svg"
   xmlns:xlink="http://www.w3.org/1999/xlink"
   version="1.1"
   width="24"
   height="24"
   id="svg3828">
  <defs
     id="defs3830">
    <radialGradient
       gradientTransform="matrix(0,4.0140392,-4.9279572,0,61.062437,-35.389667)"
       gradientUnits="userSpaceOnUse"
       xlink:href="#linearGradient2867-449-88-871-390-598-476-591-434-148-57-177-8-3-3"
       id="radialGradient3029"
       fy="9.9571075"
       fx="6.0330806"
       r="12.671875"
       cy="9.9571075"
       cx="6.5633106" />
    <linearGradient
       id="linearGradient2867-449-88-871-390-598-476-591-434-148-57-177-8-3-3">
      <stop
         offset="0"
         style="stop-color:#ffcd7d;stop-opacity:1"
         id="stop3750-1-0-7" />
      <stop
         offset="0.26238"
         style="stop-color:#fc8f36;stop-opacity:1"
         id="stop3752-3-7-4" />
      <stop
         offset="0.704952"
         style="stop-color:#e23a0e;stop-opacity:1"
         id="stop3754-1-8-5" />
      <stop
         offset="1"
         style="stop-color:#ac441f;stop-opacity:1"
         id="stop3756-1-6-2" />
    </linearGradient>
  </defs>
  <metadata
     id="metadata3833">
    <rdf:RDF>
      <cc:Work
         rdf:about="">
        <dc:format>image/svg+xml</dc:format>
        <dc:type
           rdf:resource="http://purl.org/dc/dcmitype/StillImage" />
        <dc:title />
      </cc:Work>
    </rdf:RDF>
  </metadata>
  <path
     d="m 4,2 c 3.6664118,0 15.99998,0.0013 15.99998,0.0013 L 20,22 C 20,22 9.3333337,22 4,22 4,15.33334 4,8.6666817 4,2.0000212 Z"
     id="path4160-3"
     style="display:inline;fill:#fafafa;fill-opacity:1;stroke:none" />
  <path
     d="m 3.4999601,1.4999569 c 3.8955809,0 17.0000589,0.00136 17.0000589,0.00136 l 2.1e-5,20.9987161 c 0,0 -11.3333862,0 -17.0000799,0 0,-7.000018 0,-14.000035 0,-21.0000538 z"
     id="path4160-3-1"
     style="opacity:0.3;fill:none;stroke:#000000;stroke-width:0.99992186;stroke-linecap:butt;stroke-linejoin:round;stroke-miterlimit:4;stroke-opacity:1;stroke-dasharray:none;stroke-dashoffset:0;display:inline" />
  <path
     style="color:#000000;clip-rule:nonzero;display:inline;overflow:visible;visibility:visible;opacity:1;isolation:auto;mix-blend-mode:normal;color-interpolation:sRGB;color-interpolation-filters:linearRGB;solid-color:#000000;solid-opacity:1;fill:url(#radialGradient3029);fill-opacity:1;fill-rule:nonzero;stroke:none;stroke-width:0.99999994;stroke-linecap:butt;stroke-linejoin:miter;stroke-miterlimit:4;stroke-dasharray:none;stroke-dashoffset:0;stroke-opacity:1;marker:none;color-rendering:auto;image-rendering:auto;shape-rendering:auto;text-rendering:auto;enable-background:accumulate"
     id="path3065"
     d="M 12,6.8 6,8 6,16.8 12,18 Z m 1,1.2 0,0.8 4.5,0 0,5.2 0.7,0 0,-5.2 0,-0.8 -0.6,0 z m 0,1.2 0,0.8625 C 13.128066,10.02947 13.46162,10 13.6,10 l 0,1.6 1.6,0 c 0,0.883656 -0.716344,1.6 -1.6,1.6 -0.13838,0 -0.471934,-0.02947 -0.6,-0.0625 L 13,14 l 3,0 0,0.5 -3,0 0,1 3,0 0,0.508978 -3,0 0,1.00225 4,0 L 17,9.2 Z m 1,0.4 c 0.883656,0 1.6,0.716344 1.6,1.6 l -1.6,0 z m -4.8141604,0.9 c 0.4008164,0.0068 0.604332,0.08649 0.7750002,0.25 0.2226242,0.213286 0.3151522,0.493702 0.3125002,0.9875 -0.0044,0.8105 -0.487556,1.3125 -1.25,1.3125 l -0.2875004,0 -0.024998,0.65 -0.012502,0.6625 -0.3,-0.025 -0.3818367,-0.0125 0,-1.8875 0,-1.8875 0.6943369,-0.0375 C 8.8955476,10.50202 9.0522316,10.49772 9.1858396,10.5 Z m -0.4624996,0.675 0,0.575 c 0,0.315639 0.028598,0.591101 0.050002,0.6125 0.062528,0.06253 0.2363117,0.05179 0.45,-0.0375 0.2593037,-0.108344 0.37704,-0.446923 0.2749997,-0.7875 C 9.4231037,11.28638 9.256324,11.175 8.93584,11.175 Z" />
</svg>
