<?xml version="1.0" encoding="UTF-8" standalone="no"?>
<svg
   xmlns:dc="http://purl.org/dc/elements/1.1/"
   xmlns:cc="http://creativecommons.org/ns#"
   xmlns:rdf="http://www.w3.org/1999/02/22-rdf-syntax-ns#"
   xmlns:svg="http://www.w3.org/2000/svg"
   xmlns="http://www.w3.org/2000/svg"
   xmlns:xlink="http://www.w3.org/1999/xlink"
   version="1.1"
   width="24"
   height="24"
   id="svg3828">
  <defs
     id="defs3830">
    <radialGradient
       r="12.671875"
       fy="9.9571075"
       fx="7.2758255"
       cy="9.9571075"
       cx="7.8060555"
       gradientTransform="matrix(-7.6081464e-8,3.0706349,-3.8080996,-9.2172196e-8,49.912607,-26.406022)"
       gradientUnits="userSpaceOnUse"
       id="radialGradient4231"
       xlink:href="#linearGradient2867-449-88-871-390-598-476-591-434-148-57-177-8-3" />
    <linearGradient
       id="linearGradient2867-449-88-871-390-598-476-591-434-148-57-177-8-3">
      <stop
         offset="0"
         style="stop-color:#ffcd7d;stop-opacity:1"
         id="stop3750-1-0" />
      <stop
         offset="0.26238"
         style="stop-color:#fc8f36;stop-opacity:1"
         id="stop3752-3-7" />
      <stop
         offset="0.704952"
         style="stop-color:#e23a0e;stop-opacity:1"
         id="stop3754-1-8" />
      <stop
         offset="1"
         style="stop-color:#ac441f;stop-opacity:1"
         id="stop3756-1-6" />
    </linearGradient>
  </defs>
  <metadata
     id="metadata3833">
    <rdf:RDF>
      <cc:Work
         rdf:about="">
        <dc:format>image/svg+xml</dc:format>
        <dc:type
           rdf:resource="http://purl.org/dc/dcmitype/StillImage" />
        <dc:title />
      </cc:Work>
    </rdf:RDF>
  </metadata>
  <path
     d="m 4,2 c 3.6664118,0 15.99998,0.0013 15.99998,0.0013 L 20,22 C 20,22 9.3333337,22 4,22 4,15.33334 4,8.6666817 4,2.0000212 Z"
     id="path4160-3"
     style="display:inline;fill:#fafafa;fill-opacity:1;stroke:none" />
  <path
     d="m 3.4999601,1.4999569 c 3.8955809,0 17.0000589,0.00136 17.0000589,0.00136 l 2.1e-5,20.9987161 c 0,0 -11.3333862,0 -17.0000799,0 0,-7.000018 0,-14.000035 0,-21.0000538 z"
     id="path4160-3-1"
     style="opacity:0.3;fill:none;stroke:#000000;stroke-width:0.99992186;stroke-linecap:butt;stroke-linejoin:round;stroke-miterlimit:4;stroke-opacity:1;stroke-dasharray:none;stroke-dashoffset:0;display:inline" />
  <path
     style="color:#000000;clip-rule:nonzero;display:inline;overflow:visible;visibility:visible;opacity:1;isolation:auto;mix-blend-mode:normal;color-interpolation:sRGB;color-interpolation-filters:linearRGB;solid-color:#000000;solid-opacity:1;fill:url(#radialGradient4231);fill-opacity:1;fill-rule:nonzero;stroke:none;stroke-width:1;stroke-linecap:butt;stroke-linejoin:round;stroke-miterlimit:4;stroke-dasharray:none;stroke-dashoffset:0;stroke-opacity:1;marker:none;color-rendering:auto;image-rendering:auto;shape-rendering:auto;text-rendering:auto;enable-background:accumulate"
     id="rect3029"
     d="m 15.851591,7.9268036 c 0,-0.2057694 0.03111,-0.3756566 0.09332,-0.509663 0.06221,-0.1387707 0.145958,-0.2488391 0.251243,-0.3302047 0.110067,-0.086129 0.236884,-0.1459485 0.380454,-0.1794589 0.14835,-0.033488 0.30388,-0.050235 0.466591,-0.050248 0.162708,1.1e-5 0.315845,0.01676 0.459415,0.050248 0.143565,0.033512 0.267989,0.09333 0.373274,0.1794589 0.110065,0.081365 0.196206,0.191434 0.258421,0.3302047 0.06699,0.1340064 0.100494,0.3038936 0.100497,0.509663 -3e-6,0.2010038 -0.0335,0.3708911 -0.100497,0.509663 -0.06221,0.1387911 -0.148356,0.2512521 -0.258421,0.3373826 -0.105285,0.081364 -0.22971,0.1411836 -0.373274,0.179459 -0.14357,0.033507 -0.296707,0.05026 -0.459415,0.050248 -0.162711,9.1e-6 -0.318241,-0.016741 -0.466591,-0.050248 -0.143569,-0.038272 -0.270387,-0.098095 -0.380454,-0.179459 -0.105285,-0.08613 -0.189031,-0.1985915 -0.251243,-0.3373826 -0.06221,-0.1387719 -0.09332,-0.3086592 -0.09332,-0.509663 M 18,17.992975 l -2,0.007 0,-7.992975 2,-0.01405 0,8.0070254 m -5.457629,0 -0.717836,-2.000001 -3.6178907,0 -0.7250131,2.000001 -2.2468251,0 3.409718,-10.0000007 2.7205959,0 3.424076,10.0000007 -2.246825,0 M 11.307694,14 C 10.867904,12.194312 10.382565,11.135569 10,9.4999996 9.607738,11.214026 9.1202046,12.521523 8.7450185,14 l 2.5626725,0" />
</svg>
