<?xml version="1.0" encoding="UTF-8" standalone="no"?>
<svg
   xmlns:dc="http://purl.org/dc/elements/1.1/"
   xmlns:cc="http://creativecommons.org/ns#"
   xmlns:rdf="http://www.w3.org/1999/02/22-rdf-syntax-ns#"
   xmlns:svg="http://www.w3.org/2000/svg"
   xmlns="http://www.w3.org/2000/svg"
   xmlns:xlink="http://www.w3.org/1999/xlink"
   id="svg3828"
   height="24"
   width="24"
   version="1.1">
  <defs
     id="defs3830">
    <linearGradient
       id="linearGradient2867-449-88-871-390-598-476-591-434-148-57-177-8-3">
      <stop
         id="stop3750-1-0"
         style="stop-color:#90dbec;stop-opacity:1"
         offset="0" />
      <stop
         id="stop3752-3-7"
         style="stop-color:#55c1ec;stop-opacity:1"
         offset="0.26238" />
      <stop
         id="stop3754-1-8"
         style="stop-color:#3689e6;stop-opacity:1"
         offset="0.704952" />
      <stop
         id="stop3756-1-6"
         style="stop-color:#2b63a0;stop-opacity:1"
         offset="1" />
    </linearGradient>
    <radialGradient
       xlink:href="#linearGradient2867-449-88-871-390-598-476-591-434-148-57-177-8-3"
       id="radialGradient3441"
       gradientUnits="userSpaceOnUse"
       gradientTransform="matrix(-7.6630149e-8,3.5405486,-3.8355631,-1.0627773e-7,49.480521,-32.283476)"
       cx="5.6491151"
       cy="9.9571075"
       fx="5.118885"
       fy="9.9571075"
       r="12.671875" />
  </defs>
  <metadata
     id="metadata3833">
    <rdf:RDF>
      <cc:Work
         rdf:about="">
        <dc:format>image/svg+xml</dc:format>
        <dc:type
           rdf:resource="http://purl.org/dc/dcmitype/StillImage" />
        <dc:title />
      </cc:Work>
    </rdf:RDF>
  </metadata>
  <path
     style="display:inline;fill:#fafafa;fill-opacity:1;stroke:none"
     id="path4160-3"
     d="m 4,2 c 3.6664118,0 15.99998,0.0013 15.99998,0.0013 L 20,22 C 20,22 9.3333337,22 4,22 4,15.33334 4,8.6666817 4,2.0000212 Z" />
  <path
     style="opacity:0.3;fill:none;stroke:#000000;stroke-width:0.99992186;stroke-linecap:butt;stroke-linejoin:round;stroke-miterlimit:4;stroke-opacity:1;stroke-dasharray:none;stroke-dashoffset:0;display:inline"
     id="path4160-3-1"
     d="m 3.4999601,1.4999569 c 3.8955809,0 17.0000589,0.00136 17.0000589,0.00136 l 2.1e-5,20.9987161 c 0,0 -11.3333862,0 -17.0000799,0 0,-7.000018 0,-14.000035 0,-21.0000538 z" />
  <path
     style="color:#000000;clip-rule:nonzero;display:inline;overflow:visible;visibility:visible;opacity:1;isolation:auto;mix-blend-mode:normal;color-interpolation:sRGB;color-interpolation-filters:linearRGB;solid-color:#000000;solid-opacity:1;fill:url(#radialGradient3441);fill-opacity:1;fill-rule:nonzero;stroke:none;stroke-width:1;stroke-linecap:butt;stroke-linejoin:miter;stroke-miterlimit:4;stroke-dasharray:none;stroke-dashoffset:0;stroke-opacity:1;marker:none;color-rendering:auto;image-rendering:auto;shape-rendering:auto;text-rendering:auto;enable-background:accumulate"
     d="M 12 6.8007812 L 6 8 L 6 16.800781 L 12 18 L 12 6.8007812 z M 13 8 L 13 9.2285156 L 16.75 9.2285156 L 16.75 9.6367188 L 13 9.6367188 L 13 10.455078 L 16.75 10.455078 L 16.75 10.863281 L 13 10.863281 L 13 11.681641 L 16.75 11.681641 L 16.75 12.091797 L 13 12.091797 L 13 12.908203 L 16.75 12.908203 L 16.75 13.318359 L 13 13.318359 L 13 14.136719 L 16.75 14.136719 L 16.75 14.544922 L 13 14.544922 L 13 15.363281 L 16.75 15.363281 L 16.75 15.771484 L 13 15.771484 L 13 17 L 18 17 L 18 8 L 13 8 z M 10.28125 10.363281 L 10.621094 10.363281 C 10.934712 10.363281 10.953625 10.386271 10.917969 10.5625 C 10.896739 10.66742 10.719687 11.599136 10.523438 12.636719 L 10.169922 14.525391 L 9.8046875 14.525391 C 9.6062072 14.525391 9.4452099 14.51166 9.4414062 14.5 C 9.437556 14.48834 9.323383 13.871126 9.1875 13.125 C 9.0516187 12.37887 8.9224145 11.81677 8.9003906 11.886719 C 8.8783632 11.956669 8.7642307 12.571672 8.6484375 13.238281 L 8.4375 14.451172 L 8.1074219 14.423828 L 7.765625 14.400391 L 7.4902344 12.736328 C 7.3363794 11.826987 7.1907177 10.984717 7.1699219 10.861328 C 7.1355159 10.657185 7.1579277 10.631688 7.4003906 10.599609 C 7.7382228 10.554919 7.7519582 10.594909 7.9511719 12.0625 C 8.0362739 12.689504 8.1075956 13.211527 8.1191406 13.224609 C 8.1306806 13.237699 8.2489745 12.643127 8.3808594 11.912109 C 8.5127456 11.181091 8.662049 10.561987 8.7128906 10.525391 C 8.8592151 10.420065 9.2703197 10.4458 9.3085938 10.5625 C 9.3277078 10.62079 9.4465431 11.251739 9.5625 11.962891 C 9.7565028 13.152694 9.8939436 13.584869 9.8945312 13.011719 C 9.8947578 12.782809 10.049423 11.690612 10.203125 10.8125 L 10.28125 10.363281 z "
     id="path3439" />
</svg>
