<?xml version="1.0" encoding="UTF-8" standalone="no"?>
<svg
   xmlns:dc="http://purl.org/dc/elements/1.1/"
   xmlns:cc="http://creativecommons.org/ns#"
   xmlns:rdf="http://www.w3.org/1999/02/22-rdf-syntax-ns#"
   xmlns:svg="http://www.w3.org/2000/svg"
   xmlns="http://www.w3.org/2000/svg"
   version="1.1"
   width="24"
   height="24"
   id="svg3828">
  <defs
     id="defs3830" />
  <metadata
     id="metadata3833">
    <rdf:RDF>
      <cc:Work
         rdf:about="">
        <dc:format>image/svg+xml</dc:format>
        <dc:type
           rdf:resource="http://purl.org/dc/dcmitype/StillImage" />
        <dc:title />
      </cc:Work>
    </rdf:RDF>
  </metadata>
  <path
     d="m 4,2 c 3.6664118,0 15.99998,0.0013 15.99998,0.0013 L 20,22 C 20,22 9.3333337,22 4,22 4,15.33334 4,8.6666817 4,2.0000212 Z"
     id="path4160-3"
     style="display:inline;fill:#fafafa;fill-opacity:1;stroke:none" />
  <path
     d="m 3.4999601,1.4999569 c 3.8955809,0 17.0000589,0.00136 17.0000589,0.00136 l 2.1e-5,20.9987161 c 0,0 -11.3333862,0 -17.0000799,0 0,-7.000018 0,-14.000035 0,-21.0000538 z"
     id="path4160-3-1"
     style="opacity:0.3;fill:none;stroke:#000000;stroke-width:0.99992186;stroke-linecap:butt;stroke-linejoin:round;stroke-miterlimit:4;stroke-opacity:1;stroke-dasharray:none;stroke-dashoffset:0;display:inline" />
  <path
     style="display:inline;overflow:visible;visibility:visible;opacity:0.12000002;fill:#000000;fill-opacity:1;fill-rule:evenodd;stroke:none;stroke-width:1.21500194;marker:none"
     id="path2648"
     d="m 10,15 -2,0 0,2 2,0 z M 12.000001,5.0000007 10,5.0000007 10.000001,7 12,7 Z m 3.999999,0 -2,0 L 14,7 16,7 Z M 14,7 l -2,0 0,2 2,0 z m -6,-1.9999993 -2,0 L 6,7 8,7 Z M 18,7 l -2,0 0,2 2,0 z m -2,2 -2,0 0,2 2,0 z m -2,2 -2,0 0,2 2,0 z m -2,-2 -1.999999,0 0,2 L 12,11 Z M 9.999999,7 8,7 8,9 9.999999,9 Z M 8,9 6,9 l 0,2 2.0000015,0 z m 1.999999,2 -2.0000005,0 0,2 2.0000005,0 z M 8.0000015,13 6,13 6,15 8,15 Z M 18,11 l -2,0 0,2 2,0 z m -2,2 -2,0 0,2 2,0 z m 2,2 -2,0 0,2 2,0 z m -2,2 -2,0 0,2 2,0 z m -2,-2 -2,0 0,2 2,0 z m -1.999999,-2 -2,0 -10e-7,2 2,0 z M 12,17 l -2,0 0,2 2,0 z m -4,0 -2,0 0,2 2,0 z" />
</svg>
