<?xml version="1.0" encoding="UTF-8" standalone="no"?>
<svg
   xmlns:dc="http://purl.org/dc/elements/1.1/"
   xmlns:cc="http://creativecommons.org/ns#"
   xmlns:rdf="http://www.w3.org/1999/02/22-rdf-syntax-ns#"
   xmlns:svg="http://www.w3.org/2000/svg"
   xmlns="http://www.w3.org/2000/svg"
   xmlns:xlink="http://www.w3.org/1999/xlink"
   version="1.1"
   width="24"
   height="24"
   id="svg3828">
  <defs
     id="defs3830">
    <linearGradient
       id="linearGradient4156">
      <stop
         style="stop-color:#abacae;stop-opacity:1"
         offset="0"
         id="stop4158" />
      <stop
         style="stop-color:#7e8087;stop-opacity:1"
         offset="1"
         id="stop4160" />
    </linearGradient>
    <linearGradient
       xlink:href="#linearGradient4156"
       id="linearGradient4154"
       x1="12"
       y1="1"
       x2="12"
       y2="23"
       gradientUnits="userSpaceOnUse" />
  </defs>
  <metadata
     id="metadata3833">
    <rdf:RDF>
      <cc:Work
         rdf:about="">
        <dc:format>image/svg+xml</dc:format>
        <dc:type
           rdf:resource="http://purl.org/dc/dcmitype/StillImage" />
        <dc:title />
      </cc:Work>
    </rdf:RDF>
  </metadata>
  <path
     d="m 4,2 c 3.6664118,0 15.99998,0.0013 15.99998,0.0013 L 20,22 C 20,22 9.3333337,22 4,22 4,15.33334 4,8.6666817 4,2.0000212 Z"
     id="path4160-3"
     style="display:inline;fill:#fafafa;fill-opacity:1;stroke:none" />
  <path
     d="m 3.4999601,1.4999569 c 3.8955809,0 17.0000589,0.00136 17.0000589,0.00136 l 2.1e-5,20.9987161 c 0,0 -11.3333862,0 -17.0000799,0 0,-7.000018 0,-14.000035 0,-21.0000538 z"
     id="path4160-3-1"
     style="opacity:0.3;fill:none;stroke:#000000;stroke-width:0.99992186;stroke-linecap:butt;stroke-linejoin:round;stroke-miterlimit:4;stroke-opacity:1;stroke-dasharray:none;stroke-dashoffset:0;display:inline" />
  <path
     style="color:#000000;display:inline;overflow:visible;visibility:visible;fill:url(#linearGradient4154);fill-opacity:1;fill-rule:nonzero;stroke:none;stroke-width:20;marker:none;enable-background:new"
     d="m 12,5.6666651 c -2.8380001,0 -6.0000002,0.95834 -6.0000002,2.33334 0,1.375 3.1620001,2.3333299 6.0000002,2.3333299 2.838,0 6,-0.9583299 6,-2.3333299 0,-1.375 -3.162,-2.33334 -6,-2.33334 z m -6.0000002,3.64584 0,1.3541599 c 0,1.375 3.1620001,2.33334 6.0000002,2.33334 2.838,0 6,-0.95834 6,-2.33334 l 0,-1.3541599 c -1.06692,1.0032799 -3.31999,1.6874999 -6,1.6874999 -2.6800101,0 -4.9330801,-0.68422 -6.0000001,-1.6874999 z m 0,2.6666599 0,1.35417 c 0,1.375 3.1620001,2.33333 6.0000002,2.33333 2.838,0 6,-0.95833 6,-2.33333 l 0,-1.35417 c -1.06692,1.00329 -3.31999,1.6875 -6,1.6875 -2.6800101,0 -4.9330801,-0.68421 -6.0000001,-1.6875 z m 0,2.66667 0,1.35417 c 0,1.375 3.1620001,2.33333 6.0000002,2.33333 2.838,0 6,-0.95833 6,-2.33333 l 0,-1.35417 c -1.06692,1.00329 -3.31999,1.6875 -6,1.6875 -2.6800101,0 -4.9330801,-0.68421 -6.0000001,-1.6875 z"
     id="path4162" />
</svg>
