<?xml version="1.0" encoding="UTF-8" standalone="no"?>
<svg
   xmlns:dc="http://purl.org/dc/elements/1.1/"
   xmlns:cc="http://creativecommons.org/ns#"
   xmlns:rdf="http://www.w3.org/1999/02/22-rdf-syntax-ns#"
   xmlns:svg="http://www.w3.org/2000/svg"
   xmlns="http://www.w3.org/2000/svg"
   xmlns:xlink="http://www.w3.org/1999/xlink"
   version="1.1"
   width="24"
   height="24"
   id="svg3828">
  <defs
     id="defs3830">
    <linearGradient
       id="linearGradient4417">
      <stop
         id="stop4419"
         offset="0"
         style="stop-color:#ffa154;stop-opacity:1" />
      <stop
         id="stop4421"
         offset="1"
         style="stop-color:#cc3b02;stop-opacity:1" />
    </linearGradient>
    <linearGradient
       xlink:href="#linearGradient4417"
       id="linearGradient4252"
       gradientUnits="userSpaceOnUse"
       gradientTransform="matrix(0.33469959,-0.0946529,0.11219966,0.32923278,-5.7488173,-3.4071265)"
       x1="36.948124"
       y1="25.439518"
       x2="17.238106"
       y2="84.235909" />
  </defs>
  <metadata
     id="metadata3833">
    <rdf:RDF>
      <cc:Work
         rdf:about="">
        <dc:format>image/svg+xml</dc:format>
        <dc:type
           rdf:resource="http://purl.org/dc/dcmitype/StillImage" />
        <dc:title />
      </cc:Work>
    </rdf:RDF>
  </metadata>
  <path
     d="m 4,2 c 3.6664118,0 15.99998,0.0013 15.99998,0.0013 L 20,22 C 20,22 9.3333337,22 4,22 4,15.33334 4,8.6666817 4,2.0000212 Z"
     id="path4160-3"
     style="display:inline;fill:#fafafa;fill-opacity:1;stroke:none" />
  <path
     d="m 3.4999601,1.4999569 c 3.8955809,0 17.0000589,0.00136 17.0000589,0.00136 l 2.1e-5,20.9987161 c 0,0 -11.3333862,0 -17.0000799,0 0,-7.000018 0,-14.000035 0,-21.0000538 z"
     id="path4160-3-1"
     style="opacity:0.3;fill:none;stroke:#000000;stroke-width:0.99992186;stroke-linecap:butt;stroke-linejoin:round;stroke-miterlimit:4;stroke-opacity:1;stroke-dasharray:none;stroke-dashoffset:0;display:inline" />
  <path
     style="color:#000000;clip-rule:nonzero;display:inline;overflow:visible;visibility:visible;opacity:1;isolation:auto;mix-blend-mode:normal;color-interpolation:sRGB;color-interpolation-filters:linearRGB;solid-color:#000000;solid-opacity:1;fill:url(#linearGradient4252);fill-opacity:1;fill-rule:nonzero;stroke:none;stroke-width:1.00069865;stroke-linecap:butt;stroke-linejoin:miter;stroke-miterlimit:4;stroke-dasharray:none;stroke-dashoffset:0;stroke-opacity:1;marker:none;color-rendering:auto;image-rendering:auto;shape-rendering:auto;text-rendering:auto;enable-background:accumulate;filter-blend-mode:normal;filter-gaussianBlur-deviation:0"
     d="M 15.722656 7.0058594 C 15.668041 6.9952844 15.606152 6.9986658 15.542969 7.015625 L 10.457031 8.3808594 C 10.204297 8.4486961 10 8.7269063 10 9.0039062 L 10 10.607422 L 10 15.044922 A 1.5171451 2.0185373 78.171094 0 0 8.5097656 15.017578 A 1.5171451 2.0185373 78.171094 0 0 7.0605469 17.005859 A 1.5171451 2.0185373 78.171094 0 0 9.4902344 17.898438 A 1.5171451 2.0185373 78.171094 0 0 10.998047 16.291016 L 11 16.291016 L 11 10.837891 L 15 9.765625 L 15 14.044922 A 1.5171451 2.0185373 78.171094 0 0 13.509766 14.017578 A 1.5171451 2.0185373 78.171094 0 0 12.060547 16.005859 A 1.5171451 2.0185373 78.171094 0 0 14.490234 16.898438 A 1.5171451 2.0185373 78.171094 0 0 15.998047 15.291016 L 16 15.291016 L 16 8.9960938 L 16 7.3925781 C 16 7.1848281 15.886503 7.0375842 15.722656 7.0058594 z "
     id="path4192" />
</svg>
