<?xml version="1.0" encoding="UTF-8" standalone="no"?>
<svg
   xmlns:dc="http://purl.org/dc/elements/1.1/"
   xmlns:cc="http://creativecommons.org/ns#"
   xmlns:rdf="http://www.w3.org/1999/02/22-rdf-syntax-ns#"
   xmlns:svg="http://www.w3.org/2000/svg"
   xmlns="http://www.w3.org/2000/svg"
   xmlns:xlink="http://www.w3.org/1999/xlink"
   id="svg3828"
   height="24"
   width="24"
   version="1.1">
  <defs
     id="defs3830">
    <linearGradient
       xlink:href="#linearGradient1061"
       id="linearGradient1063"
       x1="-17.375"
       y1="-6.125"
       x2="-17.375"
       y2="37.678539"
       gradientUnits="userSpaceOnUse"
       gradientTransform="matrix(0.34782609,0,0,0.35094866,16.837637,3.767775)" />
    <linearGradient
       id="linearGradient1061">
      <stop
         style="stop-color:#4d4d4d;stop-opacity:1"
         offset="0"
         id="stop1057" />
      <stop
         style="stop-color:#333333;stop-opacity:1"
         offset="1"
         id="stop1059" />
    </linearGradient>
    <linearGradient
       xlink:href="#linearGradient1069"
       id="linearGradient1071"
       x1="44"
       y1="0"
       x2="44"
       y2="44.5"
       gradientUnits="userSpaceOnUse"
       gradientTransform="matrix(0.34782609,0,0,0.34782609,1.0828828,1.6521738)" />
    <linearGradient
       id="linearGradient1069">
      <stop
         style="stop-color:#ed5353;stop-opacity:1"
         offset="0"
         id="stop1065" />
      <stop
         style="stop-color:#c6262e;stop-opacity:1"
         offset="1"
         id="stop1067" />
    </linearGradient>
  </defs>
  <metadata
     id="metadata3833">
    <rdf:RDF>
      <cc:Work
         rdf:about="">
        <dc:format>image/svg+xml</dc:format>
        <dc:type
           rdf:resource="http://purl.org/dc/dcmitype/StillImage" />
        <dc:title />
      </cc:Work>
    </rdf:RDF>
  </metadata>
  <path
     style="display:inline;fill:#fafafa;fill-opacity:1;stroke:none"
     id="path4160-3"
     d="m 4,2 c 3.6664118,0 15.99998,0.0013 15.99998,0.0013 L 20,22 C 20,22 9.3333337,22 4,22 4,15.33334 4,8.6666817 4,2.0000212 Z" />
  <path
     style="opacity:0.3;fill:none;stroke:#000000;stroke-width:0.99992186;stroke-linecap:butt;stroke-linejoin:round;stroke-miterlimit:4;stroke-opacity:1;stroke-dasharray:none;stroke-dashoffset:0;display:inline"
     id="path4160-3-1"
     d="m 3.4999601,1.4999569 c 3.8955809,0 17.0000589,0.00136 17.0000589,0.00136 l 2.1e-5,20.9987161 c 0,0 -11.3333862,0 -17.0000799,0 0,-7.000018 0,-14.000035 0,-21.0000538 z" />
  <path
     style="font-style:normal;font-weight:normal;font-size:40px;line-height:1.25;font-family:sans-serif;letter-spacing:0px;word-spacing:0px;fill:url(#linearGradient1071);fill-opacity:1;stroke:none;stroke-width:1"
     d="m 15.18163,9.9320221 c -0.76087,-4e-7 -1.410779,0.2604159 -1.949729,0.7812499 -0.538949,0.520833 -0.953351,1.1798 -1.243206,1.976902 -0.131341,0.362319 -0.228714,0.726902 -0.29212,1.09375 -0.06341,0.362319 -0.09511,0.726902 -0.09511,1.09375 0,0.362319 0.05208,0.686141 0.156249,0.971467 0.289856,0.792573 0.846921,1.188859 1.671196,1.188859 0.824275,0 1.524004,-0.430253 2.099185,-1.290761 0.05435,0.412138 0.199276,0.731431 0.434783,0.957881 0.235507,0.22192 0.536685,0.33288 0.903532,0.33288 0.371377,0 0.677084,-0.13134 0.91712,-0.394022 0.135869,-0.153985 0.301177,-0.491395 0.495924,-1.012228 -0.08152,0.04076 -0.183424,0.06114 -0.305707,0.06114 -0.380435,0 -0.570652,-0.158515 -0.570652,-0.475544 0,-0.167573 0.02038,-0.330616 0.06114,-0.489131 l 0.998646,-4.7282583 -2.004077,0 -0.149456,0.7404893 0,-0.101902 c 0,-0.203805 -0.08832,-0.371377 -0.264946,-0.502718 C 15.867772,9.9999567 15.58018,9.9320221 15.18163,9.9320221 Z m 0.373641,0.8627709 c 0.258152,0 0.425724,0.06793 0.502717,0.203805 0.08152,0.13134 0.122283,0.240036 0.122283,0.326087 l -0.665761,3.138587 c -0.08605,0.380435 -0.242301,0.681612 -0.46875,0.903533 -0.226449,0.217391 -0.477808,0.326087 -0.754076,0.326087 -0.149457,0 -0.274004,-0.04982 -0.373641,-0.149457 -0.172102,-0.163044 -0.258153,-0.450634 -0.258153,-0.862772 0,-0.212862 0.01132,-0.414402 0.03397,-0.604619 0.149457,-1.245471 0.518569,-2.201087 1.107337,-2.866848 0.244565,-0.276268 0.495924,-0.414403 0.754076,-0.414403 z"
     id="text942" />
  <path
     style="font-style:normal;font-variant:normal;font-weight:bold;font-stretch:normal;font-size:13.95095444px;line-height:1.25;font-family:'Open Sans';-inkscape-font-specification:'Open Sans Bold';letter-spacing:0px;word-spacing:0px;opacity:1;fill:url(#linearGradient1063);fill-opacity:1;stroke:none;stroke-width:1;stroke-linecap:butt;stroke-linejoin:miter;stroke-miterlimit:4;stroke-dasharray:none;stroke-dashoffset:0;stroke-opacity:1"
     d="M 9.038625,6.9999567 5.523,16.999957 l 2.2753906,0 0.7226563,-2 3.6308591,0 0.720703,2 2.275391,0 -3.527344,-10.0000003 z m 1.300781,2 1.308594,4.0000003 -2.5957031,0 z"
     id="text76" />
</svg>
