<?xml version="1.0" encoding="UTF-8" standalone="no"?>
<svg
   xmlns:dc="http://purl.org/dc/elements/1.1/"
   xmlns:cc="http://creativecommons.org/ns#"
   xmlns:rdf="http://www.w3.org/1999/02/22-rdf-syntax-ns#"
   xmlns:svg="http://www.w3.org/2000/svg"
   xmlns="http://www.w3.org/2000/svg"
   xmlns:xlink="http://www.w3.org/1999/xlink"
   id="svg3828"
   height="24"
   width="24"
   version="1.1">
  <defs
     id="defs3830">
    <linearGradient
       gradientTransform="matrix(0.43775742,0,0,0.43775742,-1.9849184,-2.0079829)"
       xlink:href="#linearGradient4515"
       id="linearGradient4521"
       x1="32.999352"
       y1="1.9994068"
       x2="32.999352"
       y2="57.999405"
       gradientUnits="userSpaceOnUse" />
    <linearGradient
       id="linearGradient4515">
      <stop
         style="stop-color:#67614f;stop-opacity:1"
         offset="0"
         id="stop4517" />
      <stop
         style="stop-color:#4b473a;stop-opacity:1"
         offset="1"
         id="stop4519" />
    </linearGradient>
  </defs>
  <metadata
     id="metadata3833">
    <rdf:RDF>
      <cc:Work
         rdf:about="">
        <dc:format>image/svg+xml</dc:format>
        <dc:type
           rdf:resource="http://purl.org/dc/dcmitype/StillImage" />
        <dc:title />
      </cc:Work>
    </rdf:RDF>
  </metadata>
  <path
     style="display:inline;fill:#fafafa;fill-opacity:1;stroke:none"
     id="path4160-3"
     d="m 4,2 c 3.6664118,0 15.99998,0.0013 15.99998,0.0013 L 20,22 C 20,22 9.3333337,22 4,22 4,15.33334 4,8.6666817 4,2.0000212 Z" />
  <path
     style="opacity:0.3;fill:none;stroke:#000000;stroke-width:0.99992186;stroke-linecap:butt;stroke-linejoin:round;stroke-miterlimit:4;stroke-opacity:1;stroke-dasharray:none;stroke-dashoffset:0;display:inline"
     id="path4160-3-1"
     d="m 3.4999601,1.4999569 c 3.8955809,0 17.0000589,0.00136 17.0000589,0.00136 l 2.1e-5,20.9987161 c 0,0 -11.3333862,0 -17.0000799,0 0,-7.000018 0,-14.000035 0,-21.0000538 z" />
  <path
     style="color:#000000;clip-rule:nonzero;display:inline;overflow:visible;visibility:visible;opacity:1;isolation:auto;mix-blend-mode:normal;color-interpolation:sRGB;color-interpolation-filters:linearRGB;solid-color:#000000;solid-opacity:1;fill:url(#linearGradient4521);fill-opacity:1;fill-rule:nonzero;stroke:none;stroke-width:1;stroke-linecap:butt;stroke-linejoin:miter;stroke-miterlimit:4;stroke-dasharray:none;stroke-dashoffset:0;stroke-opacity:1;marker:none;color-rendering:auto;image-rendering:auto;shape-rendering:auto;text-rendering:auto;enable-background:accumulate"
     d="m 17.367893,6.4957962 c -0.02104,-0.00733 -0.04304,-0.00653 -0.06498,0.0043 -0.05266,0.025842 -0.099,0.1099822 -0.144494,0.2462388 -0.107419,0.321728 -0.795036,2.3233308 -4.30661,2.8625258 a 1.7455966,1.7460829 0 0 1 0.9499,1.5535262 1.7455966,1.7460829 0 0 1 -1.7459,1.745899 1.7455966,1.7460829 0 0 1 -1.588582,-1.025993 1.3853941,1.3857801 0 0 1 -1.1645026,0.637826 1.3853941,1.3857801 0 0 1 -1.375687,-1.228628 c -0.04434,0.0891 -0.09745,0.179638 -0.172708,0.271888 -0.02688,-0.04192 -0.04317,-0.08913 -0.07267,-0.129959 -0.177931,-0.24617 -0.386679,-0.453622 -0.608757,-0.607902 -0.255168,-0.177267 -0.520431,-0.294172 -0.782321,-0.332592 -0.301931,-0.0443 -0.593947,0.02101 -0.825924,0.188099 -0.232047,0.16713 -0.367573,0.423187 -0.420658,0.723325 -0.04602,0.260194 -0.02987,0.542022 0.05814,0.839605 0.07661,0.259023 0.199202,0.519897 0.377052,0.766076 0.187889,0.26007 0.421453,0.490886 0.666042,0.651506 0.275847,0.181146 0.568358,0.286989 0.854995,0.303523 0.0887,0.0051 0.179273,-0.01674 0.260774,-0.02907 1.85653,1.469368 5.5422136,2.84063 7.9847976,1.273088 0.05284,0.01795 0.105918,0.03982 0.159029,0.05814 0.0013,0.02509 -0.0066,0.05031 0,0.07267 l 0.116279,-0.0436 c 0.02063,0.0065 0.03622,0.0229 0.05729,0.02907 0.0045,0.0014 0.01,-0.0013 0.01453,0 l 0.0436,0.04275 1.101233,0.390733 c -0.04518,0.381761 0.144163,0.815608 0.623291,0.998634 0.862865,0.329593 1.666387,0.751524 1.666387,0.751524 -0.411592,-1.394854 -0.561682,-2.513912 -1.637313,-2.415361 -0.200132,0.01834 -0.35107,0.100438 -0.463407,0.217169 l -0.971274,-0.622437 -0.0436,0 -0.01453,-0.01453 c 1.30737,-1.284535 2.071701,-3.698574 1.608241,-7.8984466 -0.02011,-0.1574113 -0.07455,-0.2575262 -0.137654,-0.2795836 z m -9.3091854,1.2773626 -0.05814,2.6043142 c 0,0 0.02261,0.08002 0.04104,0.188099 A 1.3853941,1.3857801 0 0 1 9.3027256,9.7490518 1.3853941,1.3857801 0 0 1 10.482619,10.410818 1.7455966,1.7460829 0 0 1 11.058031,9.7328068 C 8.9602126,9.6220778 8.0587096,7.7731588 8.0587096,7.7731588 Z m 1.458621,2.5855052 a 0.97004603,0.95156902 0 0 0 -0.288988,0.0436 0.4803141,0.47116527 0 0 1 0.279583,0.427498 0.4803141,0.47116527 0 0 1 -0.480506,0.471102 0.4803141,0.47116527 0 0 1 -0.436049,-0.273599 0.97004603,0.95156902 0 0 0 -0.04446,0.283004 0.97004603,0.95156902 0 0 0 0.97042,0.951609 0.97004603,0.95156902 0 0 0 0.9695644,-0.951609 0.97004603,0.95156902 0 0 0 -0.9695644,-0.95161 z m 2.9189544,0.184678 a 0.97004603,0.95156902 0 0 0 -0.288989,0.0436 0.4803141,0.47116527 0 0 1 0.279584,0.427498 0.4803141,0.47116527 0 0 1 -0.480508,0.471102 0.4803141,0.47116527 0 0 1 -0.435192,-0.273598 0.97004603,0.95156902 0 0 0 -0.04446,0.283003 0.97004603,0.95156902 0 0 0 0.969564,0.951609 0.97004603,0.95156902 0 0 0 0.970419,-0.951609 0.97004603,0.95156902 0 0 0 -0.970419,-0.951609 z m -6.3149944,0.572847 a 0.50422939,0.56355051 0 0 1 0.504447,0.563442 0.50422939,0.56355051 0 0 1 -0.504447,0.563442 0.50422939,0.56355051 0 0 1 -0.504447,-0.563442 0.50422939,0.56355051 0 0 1 0.504447,-0.563442 z"
     id="path4323-9" />
</svg>
