<?xml version="1.0" encoding="UTF-8" standalone="no"?>
<svg
   xmlns:dc="http://purl.org/dc/elements/1.1/"
   xmlns:cc="http://creativecommons.org/ns#"
   xmlns:rdf="http://www.w3.org/1999/02/22-rdf-syntax-ns#"
   xmlns:svg="http://www.w3.org/2000/svg"
   xmlns="http://www.w3.org/2000/svg"
   xmlns:xlink="http://www.w3.org/1999/xlink"
   version="1.1"
   width="24"
   height="24"
   id="svg3828">
  <defs
     id="defs3830">
    <linearGradient
       id="linearGradient2867-449-88-871-390-598-476-591-434-148-57-177-8-3-3">
      <stop
         offset="0"
         style="stop-color:#ffcd7d;stop-opacity:1"
         id="stop3750-1-0-7" />
      <stop
         offset="0.26238"
         style="stop-color:#fc8f36;stop-opacity:1"
         id="stop3752-3-7-4" />
      <stop
         offset="0.704952"
         style="stop-color:#e23a0e;stop-opacity:1"
         id="stop3754-1-8-5" />
      <stop
         offset="1"
         style="stop-color:#ac441f;stop-opacity:1"
         id="stop3756-1-6-2" />
    </linearGradient>
    <radialGradient
       xlink:href="#linearGradient2867-449-88-871-390-598-476-591-434-148-57-177-8-3-3"
       id="radialGradient4873"
       gradientUnits="userSpaceOnUse"
       gradientTransform="matrix(0,3.9492541,-4.8064053,0,90.003149,-85.360351)"
       cx="18.1481"
       cy="16.231987"
       fx="18.1481"
       fy="16.231987"
       r="12.671875" />
  </defs>
  <metadata
     id="metadata3833">
    <rdf:RDF>
      <cc:Work
         rdf:about="">
        <dc:format>image/svg+xml</dc:format>
        <dc:type
           rdf:resource="http://purl.org/dc/dcmitype/StillImage" />
        <dc:title />
      </cc:Work>
    </rdf:RDF>
  </metadata>
  <path
     d="m 4,2 c 3.6664118,0 15.99998,0.0013 15.99998,0.0013 L 20,22 C 20,22 9.3333337,22 4,22 4,15.33334 4,8.6666817 4,2.0000212 Z"
     id="path4160-3"
     style="display:inline;fill:#fafafa;fill-opacity:1;stroke:none" />
  <path
     d="m 3.4999601,1.4999569 c 3.8955809,0 17.0000589,0.00136 17.0000589,0.00136 l 2.1e-5,20.9987161 c 0,0 -11.3333862,0 -17.0000799,0 0,-7.000018 0,-14.000035 0,-21.0000538 z"
     id="path4160-3-1"
     style="opacity:0.3;fill:none;stroke:#000000;stroke-width:0.99992186;stroke-linecap:butt;stroke-linejoin:round;stroke-miterlimit:4;stroke-opacity:1;stroke-dasharray:none;stroke-dashoffset:0;display:inline" />
  <path
     id="path4304"
     d="m 13.024339,8 -2.908955,8 0.860277,0 2.908955,-8 -0.860277,0 z M 8.7692307,9.3333341 5,11.555208 l 0,0.889583 3.7692307,2.221875 0,-0.888542 -2.932091,-1.776042 2.932091,-1.780207 0,-0.8885409 z m 6.4615383,0 0,0.8885409 2.932092,1.780207 -2.932092,1.776042 0,0.888542 L 19,12.444791 19,11.555208 15.230769,9.3333341 Z"
     style="color:#000000;clip-rule:nonzero;display:inline;overflow:visible;visibility:visible;opacity:1;isolation:auto;mix-blend-mode:normal;color-interpolation:sRGB;color-interpolation-filters:linearRGB;solid-color:#000000;solid-opacity:1;fill:url(#radialGradient4873);fill-opacity:1;fill-rule:nonzero;stroke:none;stroke-width:1;stroke-linecap:butt;stroke-linejoin:round;stroke-miterlimit:4;stroke-dasharray:none;stroke-dashoffset:0;stroke-opacity:1;marker:none;color-rendering:auto;image-rendering:auto;shape-rendering:auto;text-rendering:auto;enable-background:accumulate" />
</svg>
