<?xml version="1.0" encoding="UTF-8" standalone="no"?>
<svg
   xmlns:dc="http://purl.org/dc/elements/1.1/"
   xmlns:cc="http://creativecommons.org/ns#"
   xmlns:rdf="http://www.w3.org/1999/02/22-rdf-syntax-ns#"
   xmlns:svg="http://www.w3.org/2000/svg"
   xmlns="http://www.w3.org/2000/svg"
   viewBox="0 0 24 24"
   id="svg3828"
   height="24"
   width="24"
   version="1.1">
  <defs
     id="defs3830" />
  <metadata
     id="metadata3833">
    <rdf:RDF>
      <cc:Work
         rdf:about="">
        <dc:format>image/svg+xml</dc:format>
        <dc:type
           rdf:resource="http://purl.org/dc/dcmitype/StillImage" />
        <dc:title />
      </cc:Work>
    </rdf:RDF>
  </metadata>
  <path
     style="display:inline;fill:#fafafa;fill-opacity:1;stroke:none"
     id="path4160-3"
     d="M 4,2 C 7.6664118,2 19.99998,2.0013 19.99998,2.0013 L 20,22 H 4 V 2.0000212 Z" />
  <path
     style="display:inline;opacity:0.3;fill:none;stroke:#000000;stroke-width:0.99992186;stroke-linecap:butt;stroke-linejoin:round;stroke-miterlimit:4;stroke-dasharray:none;stroke-dashoffset:0;stroke-opacity:1"
     id="path4160-3-1"
     d="m 3.4999601,1.4999569 c 3.8955809,0 17.0000589,0.00136 17.0000589,0.00136 l 2.1e-5,20.9987161 H 3.4999601 V 1.4999792 Z" />
  <path
     d="m 6,5.3772208 h 2.7752072 z m 3.0835636,0 h 1.3283044 z m 1.5655014,0 h 0.664152 z m 0.925069,0 h 1.209706 z m 1.470623,0 h 1.233425 z M 6,7.3794857 h 3.2496016 z m 3.5105186,0 h 3.5105184 z m 1.2927244,5.9928833 h 0.640433 z m 0.90135,0 h 1.423183 z m 1.70782,0 h 3.723996 z m -2.820275,5.964718 h 2.253373 z m 2.927013,0 h 0.90135 z"
     id="path2609"
     style="fill:none;stroke:#89adc2;stroke-width:0.75;stroke-linecap:butt;stroke-linejoin:miter;stroke-miterlimit:4;stroke-dasharray:none;stroke-opacity:1" />
  <path
     style="display:inline;fill:#d48eb3;fill-opacity:1;stroke:none;stroke-width:1;stroke-miterlimit:4;stroke-dasharray:none"
     id="path4217"
     d="m 8.6494305,13.035281 h 0.7086944 v 0.753017 H 8.6494305 Z" />
  <path
     style="display:inline;fill:#d48eb3;fill-opacity:1;stroke:none;stroke-width:1;stroke-miterlimit:4;stroke-dasharray:none"
     id="path4219"
     d="m 9.4743454,13.035281 h 0.3112893 v 0.753017 H 9.4743454 Z" />
  <path
     style="display:inline;opacity:0.7;fill:#666666;fill-opacity:1;stroke:none;stroke-width:1;stroke-miterlimit:4;stroke-dasharray:none"
     id="path4251"
     d="m 6,17 h 1.5155467 v 0.753016 H 6 Z" />
  <path
     style="display:inline;opacity:0.7;fill:#666666;fill-opacity:1;stroke:none;stroke-width:1;stroke-miterlimit:4;stroke-dasharray:none"
     id="path4253"
     d="m 7.6343502,17 h 1.6239264 v 0.753016 H 7.6343502 Z" />
  <path
     style="display:inline;fill:#d48eb3;fill-opacity:1;stroke:none;stroke-width:1;stroke-miterlimit:4;stroke-dasharray:none"
     id="path4255"
     d="m 9.3770809,17 h 0.6484821 v 0.753016 H 9.3770809 Z" />
  <path
     style="display:inline;fill:#d48eb3;fill-opacity:1;stroke:none;stroke-width:1;stroke-miterlimit:4;stroke-dasharray:none"
     id="path4257"
     d="m 10.144367,17 h 1.527587 v 0.753016 h -1.527587 z" />
  <path
     style="display:inline;fill:#d48eb3;fill-opacity:1;stroke:none;stroke-width:1;stroke-miterlimit:4;stroke-dasharray:none"
     id="path4259"
     d="m 12.955446,17 h 0.407628 v 0.753016 h -0.407628 z" />
  <path
     style="display:inline;fill:#d48eb3;fill-opacity:1;stroke:none;stroke-width:1;stroke-miterlimit:4;stroke-dasharray:none"
     id="path4261"
     d="m 11.790759,17 h 1.045883 v 0.753016 h -1.045883 z" />
  <path
     style="display:inline;fill:#d48eb3;fill-opacity:1;stroke:none;stroke-width:1;stroke-miterlimit:4;stroke-dasharray:none"
     id="path4263"
     d="m 13.481878,17 h 0.239033 v 0.753016 h -0.239033 z" />
  <path
     style="display:inline;fill:#d48eb3;fill-opacity:1;stroke:none;stroke-width:1;stroke-miterlimit:4;stroke-dasharray:none"
     id="path4265"
     d="m 13.839715,17 h 0.648482 v 0.753016 h -0.648482 z" />
  <path
     style="display:inline;fill:#94d48e;fill-opacity:1;stroke:none;stroke-width:1;stroke-miterlimit:4;stroke-dasharray:none"
     id="path4271"
     d="m 6,15 h 1.3710355 v 0.753017 H 6 Z" />
  <path
     style="display:inline;fill:#94d48e;fill-opacity:1;stroke:none;stroke-width:1;stroke-miterlimit:4;stroke-dasharray:none"
     id="path4273"
     d="m 7.4842472,15 h 0.4317141 v 0.753017 H 7.4842472 Z" />
  <path
     style="display:inline;opacity:0.7;fill:#666666;fill-opacity:1;stroke:none;stroke-width:1;stroke-miterlimit:4;stroke-dasharray:none"
     id="path4275"
     d="M 8.0291723,15 H 9.014847 v 0.753017 H 8.0291723 Z" />
  <path
     style="display:inline;opacity:0.7;fill:#666666;fill-opacity:1;stroke:none;stroke-width:1;stroke-miterlimit:4;stroke-dasharray:none"
     id="path4277"
     d="m 9.128058,15 h 0.6725675 v 0.753017 H 9.128058 Z" />
  <path
     style="display:inline;fill:#de6161;fill-opacity:1;stroke:none;stroke-width:1;stroke-miterlimit:4;stroke-dasharray:none"
     id="path4283"
     d="m 6,19 h 1.1290511 v 0.753017 H 6 Z" />
  <path
     style="display:inline;opacity:0.7;fill:#666666;fill-opacity:1;stroke:none;stroke-width:1;stroke-miterlimit:4;stroke-dasharray:none"
     id="path4285"
     d="m 7.3104018,19 h 2.0092903 v 0.753017 H 7.3104018 Z" />
  <path
     d="M 6,9 V 9.7530165 H 8.3245326 V 9 Z m 0,2 v 0.753017 H 8.3482523 V 11 Z"
     id="path4063"
     style="display:inline;fill:#b78ed4;fill-opacity:1;stroke:none;stroke-width:1;stroke-miterlimit:4;stroke-dasharray:none" />
  <path
     d="M 9.3444805,9 V 9.753017 H 13.59031 V 9 Z m 0.05497,2 v 0.753017 H 13.265765 V 11 Z"
     id="path4061"
     style="display:inline;fill:#d48eb3;fill-opacity:1;stroke:none;stroke-width:1;stroke-miterlimit:4;stroke-dasharray:none" />
  <path
     d="m 6,12.99586 v 0.753017 H 7.9212973 V 12.99586 Z"
     id="path5302"
     style="display:inline;fill:#94d48e;fill-opacity:1;stroke:none;stroke-width:1;stroke-miterlimit:4;stroke-dasharray:none" />
</svg>
