<?xml version="1.0" encoding="UTF-8" standalone="no"?>
<svg
   xmlns:dc="http://purl.org/dc/elements/1.1/"
   xmlns:cc="http://creativecommons.org/ns#"
   xmlns:rdf="http://www.w3.org/1999/02/22-rdf-syntax-ns#"
   xmlns:svg="http://www.w3.org/2000/svg"
   xmlns="http://www.w3.org/2000/svg"
   id="svg3828"
   height="24"
   width="24"
   version="1.1">
  <defs
     id="defs3830" />
  <metadata
     id="metadata3833">
    <rdf:RDF>
      <cc:Work
         rdf:about="">
        <dc:format>image/svg+xml</dc:format>
        <dc:type
           rdf:resource="http://purl.org/dc/dcmitype/StillImage" />
        <dc:title />
      </cc:Work>
    </rdf:RDF>
  </metadata>
  <path
     style="display:inline;fill:#fafafa;fill-opacity:1;stroke:none"
     id="path4160-3"
     d="m 4,2 c 3.6664118,0 15.99998,0.0013 15.99998,0.0013 L 20,22 C 20,22 9.3333337,22 4,22 4,15.33334 4,8.6666817 4,2.0000212 Z" />
  <path
     style="opacity:0.3;fill:none;stroke:#000000;stroke-width:0.99992186;stroke-linecap:butt;stroke-linejoin:round;stroke-miterlimit:4;stroke-opacity:1;stroke-dasharray:none;stroke-dashoffset:0;display:inline"
     id="path4160-3-1"
     d="m 3.4999601,1.4999569 c 3.8955809,0 17.0000589,0.00136 17.0000589,0.00136 l 2.1e-5,20.9987161 c 0,0 -11.3333862,0 -17.0000799,0 0,-7.000018 0,-14.000035 0,-21.0000538 z" />
  <path
     id="path4447"
     d="m 13.814815,7.9999955 0,0.277778 0.185185,0 c 0.493074,0 0.662998,0.0638 0.833333,0.314815 L 16.481481,11.092587 15,13.259254 c -0.12551,0.179301 -0.390832,0.592592 -1.296297,0.592592 l 0,0.277779 1,-0.03703 c 0.331705,0 0.825408,0.01014 1.148148,0.03703 l 0,-0.277779 c -0.412389,-0.009 -0.574074,-0.264555 -0.574074,-0.425924 0,-0.08068 0.02984,-0.105089 0.09259,-0.203704 l 1.277779,-1.888889 1.407406,2.148148 c 0.01793,0.03586 0.05556,0.0657 0.05556,0.09259 0,0.10758 -0.207097,0.268812 -0.592592,0.277777 l 0,0.277779 c 0.313775,-0.02689 0.974144,-0.03703 1.314815,-0.03703 L 20,14.129622 l 0,-0.277778 -0.166666,0 c -0.466181,0 -0.663588,-0.05542 -0.851852,-0.333333 l -1.88889,-2.85185 1.222223,-1.7962955 c 0.19723,-0.28688 0.51693,-0.583627 1.314815,-0.592592 l 0,-0.277778 -1,0.03703 c -0.358601,0 -0.789549,-0.01014 -1.148149,-0.03703 l 0,0.277778 c 0.3586,0.009 0.555556,0.201213 0.555556,0.407407 0,0.08965 -0.01132,0.123608 -0.07408,0.222223 L 16.925921,10.407403 15.777772,8.6851805 c -0.01793,-0.0269 -0.05556,-0.09377 -0.05556,-0.12963 0,-0.10758 0.188579,-0.268812 0.574074,-0.277777 l 0,-0.277778 c -0.313775,0.02689 -0.974145,0.03703 -1.314815,0.03703 l -1.166666,-0.03703 z m -9.6481486,0.05556 -0.1666665,2.0185185 0.2222224,0 C 4.3477322,8.6307105 4.4796181,8.3333345 5.8333334,8.3333345 c 0.16137,0 0.391832,6e-4 0.4814815,0.01851 0.1882645,0.03585 0.2037035,0.127139 0.2037035,0.333333 l 0,4.7222215 c 0,0.30481 -0.00315,0.444445 -0.9444445,0.444445 l -0.3703705,0 0,0.277778 c 0.3675655,-0.02689 1.291314,-0.03703 1.703704,-0.03703 0.41239,0 1.336139,0.01014 1.7037035,0.03703 l 0,-0.277778 -0.37037,0 c -0.9413245,0 -0.925926,-0.139635 -0.925926,-0.444445 l 0,-4.7222215 c 0,-0.179299 -0.01322,-0.297473 0.1481475,-0.333333 0.098615,-0.01793 0.348184,-0.01851 0.518519,-0.01851 1.353714,0 1.485601,0.297376 1.611111,1.7407395 l 0.2222225,0 -0.1666665,-2.0185185 -5.481482,0 z m 4.851852,2.3518525 0,0.277777 0.2222225,0 c 0.6903045,0 0.703704,0.08467 0.703704,0.407407 l 0,4.703704 c 0,0.322739 -0.013395,0.425926 -0.703704,0.425926 l -0.2222225,0 0,0.277778 5.1666666,0 0.388889,-2.314814 -0.240741,0 c -0.224125,1.380609 -0.420983,2.037037 -1.962963,2.037037 l -1.185185,0 c -0.421355,0 -0.444444,-0.07453 -0.444444,-0.370371 l 0,-2.388889 0.796296,0 c 0.869604,0 0.981481,0.293532 0.981481,1.055556 l 0.222223,0 0,-2.388888 -0.222223,0 c 0,0.770989 -0.111877,1.055555 -0.981481,1.055555 l -0.796296,0 0,-2.148148 c 0,-0.295845 0.02309,-0.351852 0.444444,-0.351852 l 1.148148,0 c 1.371644,0 1.615819,0.476087 1.759259,1.722222 l 0.222223,0 -0.25926,-1.999999 -5.0370366,0 z"
     style="font-style:normal;font-variant:normal;font-weight:normal;font-stretch:normal;font-size:15.12844849px;line-height:125%;font-family:'Latin Modern Roman';-inkscape-font-specification:'Latin Modern Roman';text-align:start;letter-spacing:0px;word-spacing:0px;writing-mode:lr-tb;text-anchor:start;opacity:1;fill:#555761;fill-opacity:1;stroke:none" />
</svg>
