<?xml version="1.0" encoding="UTF-8" standalone="no"?>
<svg
   xmlns:dc="http://purl.org/dc/elements/1.1/"
   xmlns:cc="http://creativecommons.org/ns#"
   xmlns:rdf="http://www.w3.org/1999/02/22-rdf-syntax-ns#"
   xmlns:svg="http://www.w3.org/2000/svg"
   xmlns="http://www.w3.org/2000/svg"
   id="svg3828"
   height="24"
   width="24"
   version="1.1">
  <defs
     id="defs3830" />
  <metadata
     id="metadata3833">
    <rdf:RDF>
      <cc:Work
         rdf:about="">
        <dc:format>image/svg+xml</dc:format>
        <dc:type
           rdf:resource="http://purl.org/dc/dcmitype/StillImage" />
        <dc:title />
      </cc:Work>
    </rdf:RDF>
  </metadata>
  <path
     style="display:inline;fill:#fafafa;fill-opacity:1;stroke:none"
     id="path4160-3"
     d="m 4,2 c 3.6664118,0 15.99998,0.0013 15.99998,0.0013 L 20,22 C 20,22 9.3333337,22 4,22 4,15.33334 4,8.6666817 4,2.0000212 Z" />
  <path
     style="opacity:0.3;fill:none;stroke:#000000;stroke-width:0.99992186;stroke-linecap:butt;stroke-linejoin:round;stroke-miterlimit:4;stroke-opacity:1;stroke-dasharray:none;stroke-dashoffset:0;display:inline"
     id="path4160-3-1"
     d="m 3.4999601,1.4999569 c 3.8955809,0 17.0000589,0.00136 17.0000589,0.00136 l 2.1e-5,20.9987161 c 0,0 -11.3333862,0 -17.0000799,0 0,-7.000018 0,-14.000035 0,-21.0000538 z" />
  <path
     style="font-style:normal;font-variant:normal;font-weight:bold;font-stretch:normal;font-size:40px;line-height:100%;font-family:'URW Palladio L';-inkscape-font-specification:'URW Palladio L Bold';text-align:start;writing-mode:lr-tb;text-anchor:start;opacity:1;fill:#7e8087;fill-opacity:1;stroke:none;color:#000000;clip-rule:nonzero;display:inline;overflow:visible;visibility:visible;isolation:auto;mix-blend-mode:normal;color-interpolation:sRGB;color-interpolation-filters:linearRGB;solid-color:#000000;solid-opacity:1;fill-rule:nonzero;stroke-width:1;stroke-linecap:butt;stroke-linejoin:miter;stroke-miterlimit:4;stroke-dasharray:none;stroke-dashoffset:0;stroke-opacity:1;marker:none;filter-blend-mode:normal;filter-gaussianBlur-deviation:0;color-rendering:auto;image-rendering:auto;shape-rendering:auto;text-rendering:auto;enable-background:accumulate"
     id="text3482"
     d="m 8.5,12.340691 c 0.166546,0.389874 0.354006,0.705896 0.753316,0.273779 0.495055,-0.25364 2.1538,-1.36542 1.987822,-0.276407 -0.531129,2.015157 -1.177632,4.009121 -1.671955,6.030485 -0.516886,1.106787 0.656861,2.107924 1.882338,1.388174 1.302603,-0.462411 2.423491,-1.215601 3.568602,-1.906538 -0.156242,-0.329962 -0.260381,-0.803951 -0.692095,-0.372436 -0.566865,0.221561 -1.804958,1.266137 -2.034973,0.404596 0.476161,-2.18205 1.358379,-4.283324 1.922307,-6.447977 C 14.734323,10.439065 13.886758,9.1814647 12.61805,10.004792 11.098105,10.574844 9.827033,11.506046 8.5,12.340691 Z m 5.641005,-7.3389813 c -1.550793,-0.07087 -2.361601,2.081873 -0.887893,2.67096 1.195609,0.422236 2.497413,-0.633718 2.205331,-1.688858 -0.09064,-0.549421 -0.66347,-1.000584 -1.317438,-0.982102 l 0,0 z" />
</svg>
