<?xml version="1.0" encoding="UTF-8" standalone="no"?>
<svg
   xmlns:dc="http://purl.org/dc/elements/1.1/"
   xmlns:cc="http://creativecommons.org/ns#"
   xmlns:rdf="http://www.w3.org/1999/02/22-rdf-syntax-ns#"
   xmlns:svg="http://www.w3.org/2000/svg"
   xmlns="http://www.w3.org/2000/svg"
   xmlns:xlink="http://www.w3.org/1999/xlink"
   xmlns:sodipodi="http://sodipodi.sourceforge.net/DTD/sodipodi-0.dtd"
   xmlns:inkscape="http://www.inkscape.org/namespaces/inkscape"
   version="1.1"
   width="24"
   height="24"
   id="svg3828"
   sodipodi:docname="text-x-authors.svg"
   inkscape:version="0.92.5 (2060ec1f9f, 2020-04-08)">
  <sodipodi:namedview
     pagecolor="#ffffff"
     bordercolor="#666666"
     borderopacity="1"
     objecttolerance="10"
     gridtolerance="10"
     guidetolerance="10"
     inkscape:pageopacity="0"
     inkscape:pageshadow="2"
     inkscape:window-width="959"
     inkscape:window-height="1015"
     id="namedview16"
     showgrid="false"
     inkscape:zoom="13.906433"
     inkscape:cx="8.3590749"
     inkscape:cy="7.7228125"
     inkscape:window-x="0"
     inkscape:window-y="0"
     inkscape:window-maximized="0"
     inkscape:current-layer="svg3828">
    <inkscape:grid
       type="xygrid"
       id="grid866" />
  </sodipodi:namedview>
  <defs
     id="defs3830">
    <linearGradient
       xlink:href="#linearGradient868"
       id="linearGradient980"
       x1="11.011719"
       y1="2.4787073"
       x2="11.011719"
       y2="15.17359"
       gradientUnits="userSpaceOnUse"
       gradientTransform="translate(4.1857491,4.1126867)" />
    <linearGradient
       id="linearGradient868">
      <stop
         id="stop864"
         offset="0"
         style="stop-color:#fafafa;stop-opacity:1" />
      <stop
         id="stop866"
         offset="1"
         style="stop-color:#d4d4d4;stop-opacity:1" />
    </linearGradient>
    <linearGradient
       xlink:href="#linearGradient978"
       id="linearGradient968"
       x1="11.07965"
       y1="4.1472802"
       x2="11.07965"
       y2="13.103444"
       gradientUnits="userSpaceOnUse"
       gradientTransform="translate(4.1857491,4.1126867)" />
    <linearGradient
       id="linearGradient978">
      <stop
         offset="0"
         style="stop-color:#ffffff;stop-opacity:1"
         id="stop970" />
      <stop
         offset="0.21971756"
         style="stop-color:#ffffff;stop-opacity:0.23529412"
         id="stop972" />
      <stop
         offset="0.95779753"
         style="stop-color:#ffffff;stop-opacity:0.15686275"
         id="stop974" />
      <stop
         offset="1"
         style="stop-color:#ffffff;stop-opacity:0.39215687"
         id="stop976" />
    </linearGradient>
  </defs>
  <metadata
     id="metadata3833">
    <rdf:RDF>
      <cc:Work
         rdf:about="">
        <dc:format>image/svg+xml</dc:format>
        <dc:type
           rdf:resource="http://purl.org/dc/dcmitype/StillImage" />
        <dc:title />
      </cc:Work>
    </rdf:RDF>
  </metadata>
  <path
     style="display:inline;fill:#fafafa;fill-opacity:1;stroke:none"
     id="path4160-3-2"
     d="M 4,2 C 7.6664118,2 19.99998,2.0013 19.99998,2.0013 L 20,22 C 20,22 9.3333337,22 4,22 4,15.33334 4,8.6666817 4,2.0000212 Z" />
  <path
     style="display:inline;opacity:0.3;fill:none;stroke:#000000;stroke-width:0.99992186;stroke-linecap:butt;stroke-linejoin:round;stroke-miterlimit:4;stroke-dasharray:none;stroke-dashoffset:0;stroke-opacity:1"
     id="path4160-3-1"
     d="m 3.4999601,1.4999569 c 3.8955809,0 17.0000589,0.00136 17.0000589,0.00136 l 2.1e-5,20.9987161 c 0,0 -11.3333862,0 -17.0000799,0 0,-7.000018 0,-14.000035 0,-21.0000538 z" />
  <g
     id="g830">
    <path
       sodipodi:nodetypes="ccccssccccccc"
       inkscape:connector-curvature="0"
       d="m 7.9081407,8.002518 c -1.4257812,0.02507 -2.426015,1 -2.4257812,2.513672 5.817e-4,1.486328 1,2.454187 2.4101562,2.486328 -1.467717,0.06475 -3.3706176,2.190737 -3.4101562,3.5 0,1.108001 0.3920001,1.500736 1.5,1.500736 h 3.0000001 c 0.1594371,0 2.3515214,0.03492 2.4999994,0 -1.24785,-1.051114 -1.015347,-2.105118 -1.01618,-3.442142 0.01618,-0.558594 -1.3459507,-1.509387 -2.3900685,-1.558594 1.40625,-0.05406 2.4063785,-1 2.4062495,-2.486327 0,-1.513673 -0.9999995,-2.513673 -2.5214838,-2.513673 -0.017578,-1.55e-4 -0.035157,-1.55e-4 -0.052734,0 z"
       style="opacity:1;vector-effect:none;fill:#666666;fill-opacity:1;stroke:none;stroke-width:1;stroke-linecap:butt;stroke-linejoin:round;stroke-miterlimit:4;stroke-dasharray:none;stroke-dashoffset:0;stroke-opacity:0.5;marker:none"
       id="path883-3" />
    <path
       sodipodi:nodetypes="sccssscccs"
       inkscape:connector-curvature="0"
       d="m 13.9939,5.9809715 c -2.011719,0 -3.511719,1.521293 -3.511719,3.546683 4.8e-5,1.9746095 1.5,3.3402965 3.207031,3.4707025 -2.334621,0.07038 -4.223212,1.5625 -4.223212,3.503907 0,1.108001 0.892,1.500736 2,1.500736 h 5.051462 c 1.108,0 2,-0.392735 2,-1.500736 -0.05063,-1.67667 -2.035281,-3.417746 -4.25989,-3.5 1.724609,-0.113932 3.225047,-1.5 3.224609,-3.4746095 0,-2.02539 -1.5,-3.546683 -3.488281,-3.546683 z"
       style="opacity:0.2;vector-effect:none;fill:#ffffff;fill-opacity:1;stroke:none;stroke-width:1;stroke-linecap:butt;stroke-linejoin:round;stroke-miterlimit:4;stroke-dasharray:none;stroke-dashoffset:0;stroke-opacity:0.5;marker:none"
       id="path883-6" />
    <path
       sodipodi:nodetypes="sccssscccs"
       inkscape:connector-curvature="0"
       d="m 14.994078,5.9812255 c -2.011719,0 -3.511719,1.5212927 -3.511719,3.546683 4.8e-5,1.9746095 1.5,3.3402965 3.207031,3.4707035 -2.334621,0.07038 -4.223212,1.5625 -4.223212,3.503906 0,1.108 0.892,1.500736 2,1.500736 h 5.051462 c 1.108,0 2,-0.392736 2,-1.500736 -0.05063,-1.676671 -2.035281,-3.417746 -4.25989,-3.5 1.724609,-0.113931 3.225047,-1.5 3.224609,-3.4746095 0,-2.0253903 -1.5,-3.546683 -3.488281,-3.546683 z"
       style="opacity:1;vector-effect:none;fill:#343434;fill-opacity:1;stroke:none;stroke-width:1;stroke-linecap:butt;stroke-linejoin:round;stroke-miterlimit:4;stroke-dasharray:none;stroke-dashoffset:0;stroke-opacity:0.5;marker:none"
       id="path883" />
  </g>
</svg>
