<?xml version="1.0" encoding="UTF-8" standalone="no"?>
<svg
   xmlns:dc="http://purl.org/dc/elements/1.1/"
   xmlns:cc="http://creativecommons.org/ns#"
   xmlns:rdf="http://www.w3.org/1999/02/22-rdf-syntax-ns#"
   xmlns:svg="http://www.w3.org/2000/svg"
   xmlns="http://www.w3.org/2000/svg"
   xmlns:xlink="http://www.w3.org/1999/xlink"
   version="1.1"
   width="24"
   height="24"
   id="svg3828">
  <defs
     id="defs3830">
    <linearGradient
       xlink:href="#linearGradient1028"
       id="linearGradient1030"
       x1="32.724728"
       y1="4.0328865"
       x2="32.724728"
       y2="55.101532"
       gradientUnits="userSpaceOnUse"
       gradientTransform="matrix(0.40184616,0,0,0.40184616,-0.85907768,-0.05536561)" />
    <linearGradient
       id="linearGradient1028">
      <stop
         style="stop-color:#64baff;stop-opacity:1"
         offset="0"
         id="stop1024" />
      <stop
         style="stop-color:#3689e6;stop-opacity:1"
         offset="1"
         id="stop1026" />
    </linearGradient>
  </defs>
  <metadata
     id="metadata3833">
    <rdf:RDF>
      <cc:Work
         rdf:about="">
        <dc:format>image/svg+xml</dc:format>
        <dc:type
           rdf:resource="http://purl.org/dc/dcmitype/StillImage" />
        <dc:title />
      </cc:Work>
    </rdf:RDF>
  </metadata>
  <path
     d="m 4,2 c 3.6664118,0 15.99998,0.0013 15.99998,0.0013 L 20,22 C 20,22 9.3333337,22 4,22 4,15.33334 4,8.6666817 4,2.0000212 Z"
     id="path4160-3"
     style="display:inline;fill:#fafafa;fill-opacity:1;stroke:none" />
  <path
     d="m 3.4999601,1.4999569 c 3.8955809,0 17.0000589,0.00136 17.0000589,0.00136 l 2.1e-5,20.9987161 c 0,0 -11.3333862,0 -17.0000799,0 0,-7.000018 0,-14.000035 0,-21.0000538 z"
     id="path4160-3-1"
     style="opacity:0.3;fill:none;stroke:#000000;stroke-width:0.99992186;stroke-linecap:butt;stroke-linejoin:round;stroke-miterlimit:4;stroke-opacity:1;stroke-dasharray:none;stroke-dashoffset:0;display:inline" />
  <path
     d="m 13.892502,10.844551 c 0,0 -0.145806,-1.3594529 -1.494659,-1.3972035 -1.34885,-0.03775 -2.041588,1.0195895 -2.041588,2.5300725 0,1.510483 0.765589,2.718933 2.078,2.718933 1.312441,0 1.458247,-1.510483 1.458247,-1.510483 l 2.515448,0.15103 c 0,0 0.148118,1.364218 -0.904507,2.40504 -1.052664,1.04074 -2.34469,1.210779 -3.246991,1.203711 -0.902294,-0.0072 -2.153315,0.01414 -3.3631021,-1.224942 -1.2097899,-1.23908 -1.4150898,-2.442792 -1.4150898,-3.625218 0,-1.182479 0.2294223,-2.7489188 1.6678846,-3.9367807 0.9776093,-0.8071687 1.9686313,-1.1045691 2.9598133,-1.1045691 4.137872,0 4.41578,3.8164068 4.41578,3.8164068 z"
     id="path3"
     style="opacity:1;vector-effect:none;fill:url(#linearGradient1030);fill-opacity:1;stroke:none;stroke-width:0.99999994;stroke-linecap:butt;stroke-linejoin:miter;stroke-miterlimit:4;stroke-dasharray:none;stroke-dashoffset:0;stroke-opacity:1;marker:none" />
</svg>
