<?xml version="1.0" encoding="UTF-8" standalone="no"?>
<svg
   xmlns:dc="http://purl.org/dc/elements/1.1/"
   xmlns:cc="http://creativecommons.org/ns#"
   xmlns:rdf="http://www.w3.org/1999/02/22-rdf-syntax-ns#"
   xmlns:svg="http://www.w3.org/2000/svg"
   xmlns="http://www.w3.org/2000/svg"
   xmlns:xlink="http://www.w3.org/1999/xlink"
   version="1.1"
   width="24"
   height="24"
   id="svg3828">
  <defs
     id="defs3830">
    <linearGradient
       x1="22.004084"
       y1="47.813133"
       x2="22.004084"
       y2="3.3638515"
       id="linearGradient3031"
       xlink:href="#linearGradient3104-5"
       gradientUnits="userSpaceOnUse"
       gradientTransform="matrix(0.48571482,0,0,0.477213,-0.305596,-0.326798)" />
    <linearGradient
       id="linearGradient3104-5">
      <stop
         id="stop3106-2"
         style="stop-color:#aaaaaa;stop-opacity:1"
         offset="0" />
      <stop
         id="stop3108-5"
         style="stop-color:#c8c8c8;stop-opacity:1"
         offset="1" />
    </linearGradient>
  </defs>
  <metadata
     id="metadata3833">
    <rdf:RDF>
      <cc:Work
         rdf:about="">
        <dc:format>image/svg+xml</dc:format>
        <dc:type
           rdf:resource="http://purl.org/dc/dcmitype/StillImage" />
        <dc:title />
      </cc:Work>
    </rdf:RDF>
  </metadata>
  <path
     d="m 4,2 c 3.6664118,0 15.99998,0.0013 15.99998,0.0013 L 20,22 C 20,22 9.3333337,22 4,22 4,15.33334 4,8.6666817 4,2.0000212 Z"
     id="path4160-3"
     style="display:inline;fill:#fafafa;fill-opacity:1;stroke:none" />
  <path
     d="m 3.4999601,1.4999569 c 3.8955809,0 17.0000589,0.00136 17.0000589,0.00136 l 2.1e-5,20.9987161 c 0,0 -11.3333862,0 -17.0000799,0 0,-7.000018 0,-14.000035 0,-21.0000538 z"
     id="path4160-3-1"
     style="opacity:0.3;fill:none;stroke:#000000;stroke-width:0.99992186;stroke-linecap:butt;stroke-linejoin:round;stroke-miterlimit:4;stroke-opacity:1;stroke-dasharray:none;stroke-dashoffset:0;display:inline" />
  <path
     style="fill:none;stroke:url(#linearGradient3031);stroke-width:1px;stroke-linecap:butt;stroke-linejoin:miter;stroke-opacity:1"
     id="path3475"
     d="m 6,5.5 h 1.138394 z m 1.305359,0 H 8.36786 Z m 1.229466,0 h 0.941072 z m 1.092858,0 h 0.409822 z m 0.576786,0 h 0.910715 z m 1.092859,0 H 12.396 Z m 3.449672,0 h 0.93694 z m 1.088725,0 H 17.397 Z M 6,6.5 h 1.775895 z m 1.973217,0 h 0.850001 z m 1.001787,0 h 0.425 z m 0.591965,0 h 0.774108 z m 0.941072,0 H 11.497 Z m 5.403577,0 H 17.885 Z M 6,7.4925436 h 1.502681 z m 1.654466,0 h 2.458932 z M 16.338,7.5074566 h 1.744156 z M 6,8.5 h 2.079467 z m 2.246431,0 H 9.593 Z m 7.100569,0 h 0.777119 z m 0.928904,0 h 0.318751 z m 0.485715,0 h 0.895537 z M 6,9.5 h 0.774108 z m 1.016966,0 H 9.06 Z m -1.017044,0.992273 h 1.502681 z m 1.654466,0 H 8.713 Z m 6.644612,0 1.202718,0.01491 z m 1.339326,0.01491 h 2.443752 z m -9.638404,0.992545 h 1.912502 z m 2.064288,0 H 9.713 Z m 6.60179,0 h 1.048219 z m 1.215183,0 h 0.895537 z" />
  <g
     id="g876">
    <g
       style="fill:#f89820;fill-opacity:1"
       id="g864">
      <path
         style="clip-rule:evenodd;fill:#f89820;fill-opacity:1;fill-rule:evenodd;stroke-width:0.27398297"
         d="m 12.743682,11.650218 c 0.772225,0.888918 -0.202488,1.688184 -0.202488,1.688184 0,0 1.959655,-1.011452 1.05987,-2.278661 -0.840676,-1.1812008 -1.485199,-1.7679611 2.00411,-3.7915375 3.6e-5,0 -5.47735,1.3676562 -2.861492,4.3820145 z"
         id="path3934" />
      <path
         style="clip-rule:evenodd;fill:#f89820;fill-opacity:1;fill-rule:evenodd;stroke-width:0.27398297"
         d="m 13.6011,4 c 0,0 1.662204,1.66316 -1.577047,4.2199105 C 9.4263874,10.27166 11.431771,11.441075 12.023122,12.777868 10.506669,11.409787 9.3943802,10.205297 10.140448,9.0844422 11.236032,7.4393684 14.271591,6.6415187 13.601089,4 v 0 z"
         id="path3942" />
    </g>
    <g
       id="g860">
      <path
         style="clip-rule:evenodd;fill:#5382a1;fill-opacity:1;fill-rule:evenodd;stroke-width:0.27398297"
         d="m 9.9000289,16.37343 c 0,0 -0.611076,0.355673 0.4353811,0.475694 1.267951,0.144761 1.915872,0.123914 3.312728,-0.140125 0,0 0.367991,0.230203 0.881026,0.429576 -3.132397,1.342032 -7.08926,-0.07776 -4.6291351,-0.765145 z"
         id="path3930" />
      <path
         style="clip-rule:evenodd;fill:#5382a1;fill-opacity:1;fill-rule:evenodd;stroke-width:0.27398297"
         d="m 9.5170668,14.621856 c 0,0 -0.6854739,0.507513 0.3617611,0.615748 1.3545601,0.139841 2.4238821,0.151309 4.2753021,-0.205002 0,0 0.255473,0.259508 0.657796,0.401332 -3.786654,1.107617 -8.0042282,0.08714 -5.2948592,-0.812078 z"
         id="path3932" />
      <path
         style="clip-rule:evenodd;fill:#5382a1;fill-opacity:1;fill-rule:evenodd;stroke-width:0.27398297"
         d="m 16.886469,17.669201 c 0,0 0.45237,0.37291 -0.49824,0.6613 -1.807603,0.547509 -7.5248878,0.712656 -9.1128713,0.02191 -0.5704438,-0.248465 0.4997976,-0.592848 0.8365353,-0.665583 0.3511075,-0.07596 0.5515787,-0.06208 0.5515787,-0.06208 -0.6348608,-0.44706 -4.1033946,0.878017 -1.7616259,1.258042 6.3860892,1.03513 11.6408822,-0.466245 9.9846232,-1.213587 v 0 z"
         id="path3936" />
      <path
         style="clip-rule:evenodd;fill:#5382a1;fill-opacity:1;fill-rule:evenodd;stroke-width:0.27398297"
         d="m 10.194117,12.806785 c 0,0 -2.9077873,0.690854 -1.0296798,0.941938 0.7932484,0.106147 2.3736218,0.08173 3.8467878,-0.04187 1.203605,-0.101014 2.411494,-0.317059 2.411494,-0.317059 0,0 -0.42409,0.181925 -0.731132,0.391457 -2.95341,0.77679 -8.6577774,0.415029 -7.0153226,-0.379139 1.3883973,-0.671671 2.5178526,-0.595326 2.5178526,-0.595326 z"
         id="path3938" />
      <path
         style="clip-rule:evenodd;fill:#5382a1;fill-opacity:1;fill-rule:evenodd;stroke-width:0.27398297"
         d="m 15.410685,15.722394 c 3.002041,-1.559562 1.613856,-3.058459 0.644983,-2.856572 -0.236927,0.04945 -0.343215,0.09227 -0.343215,0.09227 0,0 0.08827,-0.138284 0.256358,-0.197781 1.916758,-0.673546 3.390525,1.987226 -0.618119,3.04101 -3.6e-5,0 0.04608,-0.04176 0.05999,-0.07893 z"
         id="path3940" />
      <path
         style="clip-rule:evenodd;fill:#5382a1;fill-opacity:1;fill-rule:evenodd;stroke-width:0.27398297"
         d="m 10.489267,19.949808 c 2.880958,0.18419 7.306224,-0.102501 7.410955,-1.465839 0,0 -0.201321,0.516822 -2.381161,0.926896 -2.459205,0.462988 -5.49303,0.409083 -7.2917132,0.112093 0,0 0.368486,0.304989 2.2619192,0.42685 z"
         id="path3944" />
    </g>
  </g>
</svg>
