<?xml version="1.0" encoding="UTF-8" standalone="no"?>
<svg
   xmlns:dc="http://purl.org/dc/elements/1.1/"
   xmlns:cc="http://creativecommons.org/ns#"
   xmlns:rdf="http://www.w3.org/1999/02/22-rdf-syntax-ns#"
   xmlns:svg="http://www.w3.org/2000/svg"
   xmlns="http://www.w3.org/2000/svg"
   id="svg3828"
   height="24"
   width="24"
   version="1.1">
  <defs
     id="defs3830" />
  <metadata
     id="metadata3833">
    <rdf:RDF>
      <cc:Work
         rdf:about="">
        <dc:format>image/svg+xml</dc:format>
        <dc:type
           rdf:resource="http://purl.org/dc/dcmitype/StillImage" />
        <dc:title />
      </cc:Work>
    </rdf:RDF>
  </metadata>
  <path
     style="display:inline;fill:#fafafa;fill-opacity:1;stroke:none"
     id="path4160-3"
     d="m 4,2 c 3.6664118,0 15.99998,0.0013 15.99998,0.0013 L 20,22 C 20,22 9.3333337,22 4,22 4,15.33334 4,8.6666817 4,2.0000212 Z" />
  <path
     style="opacity:0.3;fill:none;stroke:#000000;stroke-width:0.99992186;stroke-linecap:butt;stroke-linejoin:round;stroke-miterlimit:4;stroke-opacity:1;stroke-dasharray:none;stroke-dashoffset:0;display:inline"
     id="path4160-3-1"
     d="m 3.4999601,1.4999569 c 3.8955809,0 17.0000589,0.00136 17.0000589,0.00136 l 2.1e-5,20.9987161 c 0,0 -11.3333862,0 -17.0000799,0 0,-7.000018 0,-14.000035 0,-21.0000538 z" />
  <path
     style="font-style:normal;font-weight:bold;font-size:72px;font-family:'Standard Symbols L';opacity:1;fill:#7e8087;fill-opacity:1;stroke:none;color:#000000;clip-rule:nonzero;display:inline;overflow:visible;visibility:visible;isolation:auto;mix-blend-mode:normal;color-interpolation:sRGB;color-interpolation-filters:linearRGB;solid-color:#000000;solid-opacity:1;fill-rule:nonzero;stroke-width:1;stroke-linecap:butt;stroke-linejoin:miter;stroke-miterlimit:4;stroke-dasharray:none;stroke-dashoffset:0;stroke-opacity:1;marker:none;filter-blend-mode:normal;filter-gaussianBlur-deviation:0;color-rendering:auto;image-rendering:auto;shape-rendering:auto;text-rendering:auto;enable-background:accumulate"
     id="path9053"
     d="m 12.455218,14.981775 c -0.03304,-1.179381 0.231187,-2.324308 1.345435,-3.135304 1.17693,-0.917184 2.310408,-2.0647086 2.190623,-3.417378 -0.02615,-1.3045275 -1.546121,-2.3267671 -3.183774,-2.4737465 -1.842093,-0.255193 -4.0710127,0.3758678 -4.6882857,1.8144708 -0.313067,0.6996878 -0.02275,1.9550081 1.027897,1.9550081 0.614526,0 0.8967807,-0.396967 0.9431507,-0.7600983 0.03508,-0.274757 -0.07772,-0.5201124 -0.1443317,-0.7470637 -0.0759,-0.2585964 0.2481247,-0.7597828 0.6010407,-0.9639859 0.294901,-0.1706366 0.603443,-0.2278539 0.648923,-0.2387845 1.059073,-0.2545227 2.114816,0.3076836 2.55529,0.9919565 0.440475,0.684273 -0.04435,1.7221829 -0.741427,2.7315115 -0.697074,1.009328 -1.445158,2.155718 -1.44217,3.373372 0,0.463561 -0.0413,0.621043 -0.01196,0.808589 0.02345,0.149843 0.519613,0.131735 0.899585,0.06145 z m -0.483327,1.587383 c -1.012642,-0.05497 -1.713529,1.092998 -1.105185,1.824413 0.543281,0.807553 2.066513,0.608202 2.327595,-0.306271 0.27143,-0.711121 -0.381772,-1.530013 -1.22241,-1.518143 l 0,1e-6 z" />
</svg>
