<?xml version="1.0" encoding="UTF-8" standalone="no"?>
<svg
   xmlns:dc="http://purl.org/dc/elements/1.1/"
   xmlns:cc="http://creativecommons.org/ns#"
   xmlns:rdf="http://www.w3.org/1999/02/22-rdf-syntax-ns#"
   xmlns:svg="http://www.w3.org/2000/svg"
   xmlns="http://www.w3.org/2000/svg"
   xmlns:xlink="http://www.w3.org/1999/xlink"
   id="svg2453"
   height="24.000042"
   width="24.000042"
   version="1.0">
  <metadata
     id="metadata35">
    <rdf:RDF>
      <cc:Work
         rdf:about="">
        <dc:format>image/svg+xml</dc:format>
        <dc:type
           rdf:resource="http://purl.org/dc/dcmitype/StillImage" />
        <dc:title />
      </cc:Work>
    </rdf:RDF>
  </metadata>
  <defs
     id="defs2455">
    <linearGradient
       id="linearGradient3600">
      <stop
         offset="0"
         style="stop-color:#505050;stop-opacity:1"
         id="stop3602" />
      <stop
         offset="1"
         style="stop-color:#2b2b2b;stop-opacity:1"
         id="stop3604" />
    </linearGradient>
    <linearGradient
       gradientTransform="matrix(0.60000084,0,0,0.39111189,-2.400021,2.5134037)"
       gradientUnits="userSpaceOnUse"
       xlink:href="#linearGradient3600"
       id="linearGradient3141"
       y2="47.013336"
       x2="25.132275"
       y1="0.98520643"
       x1="25.132275" />
    <linearGradient
       xlink:href="#linearGradient3104-6"
       id="linearGradient3285"
       gradientUnits="userSpaceOnUse"
       gradientTransform="matrix(0.71521168,0,0,0.50836186,47.363354,2.524216)"
       x1="-51.786404"
       y1="50.786446"
       x2="-51.786404"
       y2="2.9062471" />
    <linearGradient
       id="linearGradient3104-6">
      <stop
         id="stop3106-3"
         style="stop-color:#000000;stop-opacity:0.31782946"
         offset="0" />
      <stop
         id="stop3108-9"
         style="stop-color:#000000;stop-opacity:0.24031007"
         offset="1" />
    </linearGradient>
  </defs>
  <path
     style="display:inline;fill:url(#linearGradient3141);fill-opacity:1;stroke:none;stroke-width:0.9999218;stroke-linecap:butt;stroke-linejoin:round;stroke-miterlimit:4;stroke-dasharray:none;stroke-dashoffset:0;stroke-opacity:1"
     id="path4160"
     d="m 2,4.0000834 c 4.5830154,0 19.999976,0.00104 19.999976,0.00104 L 22,21.000042 c 0,0 -13.3333326,0 -20,0 0,-5.666667 0,-11.333333 0,-17 z" />
  <path
     d="m 1.4999609,3.500206 c 7.1036853,0 21.0001821,0.00174 21.0001821,0.00174 l 3.2e-5,17.998135 -21.0002141,0 0,-17.9997231 z"
     id="path4160-6-1"
     style="display:inline;fill:none;stroke:url(#linearGradient3285);stroke-width:0.99992174;stroke-linecap:butt;stroke-linejoin:round;stroke-miterlimit:4;stroke-dasharray:none;stroke-dashoffset:0;stroke-opacity:1" />
  <path
     d="m 7.5312502,8.000042 c -0.296786,0 -0.53125,0.2578 -0.53125,0.5625 v 9.875 c 0,0.3047 0.234464,0.5625 0.53125,0.5625 H 16.46875 c 0.296786,0 0.53125,-0.2578 0.53125,-0.5625 v -9.875 c 0,-0.3047 -0.234464,-0.5625 -0.53125,-0.5625 z m 0.1875,0.71875 h 0.71875 v 0.75 h -0.71875 z m 7.8437498,0 h 0.71875 v 0.75 H 15.5625 Z M 9.5000002,9.000042 H 14.5 c 0.277,0 0.5,0.223 0.5,0.5 v 3 c 0,0.277 -0.223,0.5 -0.5,0.5 H 9.5000003 c -0.277,0 -0.5,-0.223 -0.5,-0.5 v -3 c 0,-0.277 0.223,-0.5 0.4999999,-0.5 z m -1.78125,1.1875 h 0.71875 v 0.749999 h -0.71875 z m 7.8437498,0 h 0.71875 v 0.749999 H 15.5625 Z m -7.8437498,1.46875 h 0.71875 v 0.75 h -0.71875 z m 7.8437498,0 h 0.71875 v 0.75 H 15.5625 Z m -7.8437498,1.46875 h 0.71875 v 0.75 h -0.71875 z m 7.8437498,0 h 0.71875 v 0.75 H 15.5625 Z m -6.0624998,0.875 H 14.5 c 0.277,0 0.5,0.223 0.5,0.5 v 3 c 0,0.277 -0.223,0.5 -0.5,0.5 H 9.5000003 c -0.277,0 -0.5,-0.223 -0.5,-0.5 v -3 c 0,-0.277 0.223,-0.5 0.4999999,-0.5 z m -1.78125,0.59375 h 0.71875 v 0.75 h -0.71875 z m 7.8437498,0 h 0.71875 v 0.75 H 15.5625 Z m -7.8437498,1.46875 h 0.71875 v 0.75 h -0.71875 z m 7.8437498,0 h 0.71875 v 0.75 H 15.5625 Z m -7.8437498,1.46875 h 0.71875 v 0.75 h -0.71875 z m 7.8437498,0 h 0.71875 v 0.75 H 15.5625 Z"
     id="rect3032-8-9-3"
     style="color:#000000;display:inline;overflow:visible;visibility:visible;fill:#000000;fill-opacity:1;fill-rule:nonzero;stroke:none;stroke-width:1;marker:none;enable-background:accumulate;opacity:0.2" />
  <path
     d="m 7.5312502,7.0000421 c -0.296786,0 -0.53125,0.2578 -0.53125,0.5625 v 9.8749999 c 0,0.3047 0.234464,0.5625 0.53125,0.5625 H 16.46875 c 0.296786,0 0.53125,-0.2578 0.53125,-0.5625 V 7.5625421 c 0,-0.3047 -0.234464,-0.5625 -0.53125,-0.5625 z m 0.1875,0.71875 h 0.71875 v 0.75 h -0.71875 z m 7.8437498,0 h 0.71875 v 0.75 H 15.5625 Z m -6.0624998,0.28125 H 14.5 c 0.277,0 0.5,0.223 0.5,0.5 v 2.9999999 c 0,0.277 -0.223,0.5 -0.5,0.5 H 9.5000003 c -0.277,0 -0.5,-0.223 -0.5,-0.5 V 8.5000421 c 0,-0.277 0.223,-0.5 0.4999999,-0.5 z m -1.78125,1.1875 h 0.71875 v 0.7499995 h -0.71875 z m 7.8437498,0 h 0.71875 V 9.9375416 H 15.5625 Z M 7.7187502,10.656292 h 0.71875 v 0.75 h -0.71875 z m 7.8437498,0 h 0.71875 v 0.75 H 15.5625 Z m -7.8437498,1.46875 h 0.71875 v 0.75 h -0.71875 z m 7.8437498,0 h 0.71875 v 0.75 H 15.5625 Z m -6.0624998,0.875 H 14.5 c 0.277,0 0.5,0.223 0.5,0.5 v 3 c 0,0.277 -0.223,0.5 -0.5,0.5 H 9.5000003 c -0.277,0 -0.5,-0.223 -0.5,-0.5 v -3 c 0,-0.277 0.223,-0.5 0.4999999,-0.5 z m -1.78125,0.59375 h 0.71875 v 0.75 h -0.71875 z m 7.8437498,0 h 0.71875 v 0.75 H 15.5625 Z m -7.8437498,1.46875 h 0.71875 v 0.75 h -0.71875 z m 7.8437498,0 h 0.71875 v 0.75 H 15.5625 Z m -7.8437498,1.46875 h 0.71875 v 0.75 h -0.71875 z m 7.8437498,0 h 0.71875 v 0.75 H 15.5625 Z"
     id="rect3032-8-9"
     style="color:#000000;display:inline;overflow:visible;visibility:visible;fill:#ffffff;fill-opacity:1;fill-rule:nonzero;stroke:none;stroke-width:1;marker:none;enable-background:accumulate" />
</svg>
