<?xml version="1.0" encoding="UTF-8" standalone="no"?>
<svg
   xmlns:dc="http://purl.org/dc/elements/1.1/"
   xmlns:cc="http://creativecommons.org/ns#"
   xmlns:rdf="http://www.w3.org/1999/02/22-rdf-syntax-ns#"
   xmlns:svg="http://www.w3.org/2000/svg"
   xmlns="http://www.w3.org/2000/svg"
   xmlns:xlink="http://www.w3.org/1999/xlink"
   id="svg3481"
   height="24"
   width="24"
   version="1.1">
  <defs
     id="defs3483">
    <linearGradient
       gradientTransform="matrix(0.37516915,0,0,0.49377366,0.2291167,0.1438346)"
       gradientUnits="userSpaceOnUse"
       xlink:href="#linearGradient3110"
       id="linearGradient3092"
       y2="0.065301567"
       x2="54.887218"
       y1="0.065301567"
       x1="10.199131" />
    <linearGradient
       id="linearGradient3110">
      <stop
         offset="0"
         style="stop-color:#0e9a83;stop-opacity:1"
         id="stop3112" />
      <stop
         offset="0.93372953"
         style="stop-color:#0e9a83;stop-opacity:1"
         id="stop3114" />
      <stop
         offset="0.9424805"
         style="stop-color:#c2c2c2;stop-opacity:1"
         id="stop3116" />
      <stop
         offset="1"
         style="stop-color:#c2c2c2;stop-opacity:1"
         id="stop3118" />
    </linearGradient>
    <linearGradient
       xlink:href="#linearGradient925"
       id="linearGradient919"
       x1="15"
       y1="11"
       x2="15"
       y2="29"
       gradientUnits="userSpaceOnUse"
       gradientTransform="translate(0,-7.9999797)" />
    <linearGradient
       id="linearGradient925">
      <stop
         offset="0"
         style="stop-color:#43d6b5;stop-opacity:1"
         id="stop921" />
      <stop
         offset="1"
         style="stop-color:#28bca3;stop-opacity:1"
         id="stop923" />
    </linearGradient>
  </defs>
  <metadata
     id="metadata3486">
    <rdf:RDF>
      <cc:Work
         rdf:about="">
        <dc:format>image/svg+xml</dc:format>
        <dc:type
           rdf:resource="http://purl.org/dc/dcmitype/StillImage" />
        <dc:title />
      </cc:Work>
    </rdf:RDF>
  </metadata>
  <path
     d="M 20.491301,2.3040833 C 20.336576,1.64902 20.433025,1.1331533 20.347555,0.5084042 H 4.5086987 l 0.093482,1.9826021"
     id="path2723-3"
     style="display:inline;fill:#fafafa;fill-opacity:1;stroke:url(#linearGradient3092);stroke-width:1.01739752;stroke-linecap:butt;stroke-linejoin:round;stroke-miterlimit:0;stroke-dasharray:none;stroke-dashoffset:0;stroke-opacity:1" />
  <path
     d="M 5.5001259,2.4997053 H 3.9001258 c -0.2283392,0 -0.3999999,-0.02116 -0.3999999,-0.04878 v -1.39822 c 0,-0.4439617 0.2236128,-0.552999 0.5163577,-0.552999 h 1.4836423"
     id="rect5505-21-3-9-6"
     style="color:#000000;display:inline;overflow:visible;visibility:visible;fill:#fafafa;fill-opacity:1;fill-rule:nonzero;stroke:#343434;stroke-width:1;stroke-linecap:round;stroke-linejoin:round;stroke-miterlimit:4;stroke-dasharray:none;stroke-dashoffset:0;stroke-opacity:1;marker:none;enable-background:accumulate" />
  <rect
     width="15.980959"
     height="18.980959"
     x="4.5095205"
     y="2.5095408"
     id="rect2719-7"
     style="display:inline;fill:url(#linearGradient919);fill-opacity:1;stroke:#0e9a83;stroke-width:1;stroke-linecap:round;stroke-linejoin:round;stroke-miterlimit:0;stroke-dasharray:none;stroke-dashoffset:0;stroke-opacity:1" />
  <path
     d="m 5.4999998,2.4997053 c 0,0 0,13.2115427 0,18.9999997 h -1.6 c -0.2283394,0 -0.4,-0.201098 -0.4,-0.463414 V 2.4997053 Z"
     id="rect5505-21-3-5"
     style="color:#000000;display:inline;overflow:visible;visibility:visible;fill:#343434;fill-opacity:1;fill-rule:nonzero;stroke:#343434;stroke-width:0.99999988;stroke-linecap:round;stroke-linejoin:round;stroke-miterlimit:4;stroke-dasharray:none;stroke-dashoffset:0;stroke-opacity:1;marker:none;enable-background:accumulate" />
  <path
     style="color:#000000;font-style:normal;font-variant:normal;font-weight:normal;font-stretch:normal;font-size:medium;line-height:normal;font-family:sans-serif;font-variant-ligatures:normal;font-variant-position:normal;font-variant-caps:normal;font-variant-numeric:normal;font-variant-alternates:normal;font-feature-settings:normal;text-indent:0;text-align:start;text-decoration:none;text-decoration-line:none;text-decoration-style:solid;text-decoration-color:#000000;letter-spacing:normal;word-spacing:normal;text-transform:none;writing-mode:lr-tb;direction:ltr;text-orientation:mixed;dominant-baseline:auto;baseline-shift:baseline;text-anchor:start;white-space:normal;shape-padding:0;clip-rule:nonzero;display:inline;overflow:visible;visibility:visible;opacity:0.15;isolation:auto;mix-blend-mode:normal;color-interpolation:sRGB;color-interpolation-filters:linearRGB;solid-color:#000000;solid-opacity:1;vector-effect:none;fill:#007367;fill-opacity:1;fill-rule:nonzero;stroke:none;stroke-width:1;stroke-linecap:round;stroke-linejoin:round;stroke-miterlimit:4;stroke-dasharray:none;stroke-dashoffset:0;stroke-opacity:1;marker:none;color-rendering:auto;image-rendering:auto;shape-rendering:auto;text-rendering:auto;enable-background:accumulate"
     d="m 13,8.0000203 c -1.650932,0 -3,1.3490681 -3,2.9999997 0,1.650932 1.349068,3 3,3 1.650932,0 3,-1.349068 3,-3 0,-1.6509316 -1.349068,-2.9999997 -3,-2.9999997 z m 0,5.9999997 h -1 c -0.0341,-2.16e-4 -0.06813,0.0031 -0.101562,0.0098 C 10.11519,14.379669 8.6325922,15.13995 8.0351562,16.660176 8.0120014,16.71862 8.0000743,16.780906 8,16.84377 v 0.8125 c 0,0.735639 0.6081119,1.34375 1.34375,1.34375 h 7.3125 C 17.391888,19.00002 18,18.391909 18,17.65627 v -0.8125 c 2.26e-4,-0.03077 -0.0024,-0.0615 -0.0078,-0.0918 -0.166906,-0.885419 -0.868136,-1.533487 -1.63086,-1.992187 -0.762736,-0.458698 -1.611057,-0.740299 -2.328137,-0.759763 -0.0046,-6.2e-5 -0.0091,-6.2e-5 -0.01367,0 z"
     id="path927" />
  <g
     id="g994"
     style="opacity:0.3;fill:#ffffff;fill-opacity:1"
     transform="translate(0,2.0262316e-5)" />
  <path
     style="color:#000000;font-style:normal;font-variant:normal;font-weight:normal;font-stretch:normal;font-size:medium;line-height:normal;font-family:sans-serif;font-variant-ligatures:normal;font-variant-position:normal;font-variant-caps:normal;font-variant-numeric:normal;font-variant-alternates:normal;font-feature-settings:normal;text-indent:0;text-align:start;text-decoration:none;text-decoration-line:none;text-decoration-style:solid;text-decoration-color:#000000;letter-spacing:normal;word-spacing:normal;text-transform:none;writing-mode:lr-tb;direction:ltr;text-orientation:mixed;dominant-baseline:auto;baseline-shift:baseline;text-anchor:start;white-space:normal;shape-padding:0;clip-rule:nonzero;display:inline;overflow:visible;visibility:visible;opacity:1;isolation:auto;mix-blend-mode:normal;color-interpolation:sRGB;color-interpolation-filters:linearRGB;solid-color:#000000;solid-opacity:1;vector-effect:none;fill:#ffffff;fill-opacity:1;fill-rule:nonzero;stroke:none;stroke-width:1;stroke-linecap:round;stroke-linejoin:round;stroke-miterlimit:4;stroke-dasharray:none;stroke-dashoffset:0;stroke-opacity:1;marker:none;color-rendering:auto;image-rendering:auto;shape-rendering:auto;text-rendering:auto;enable-background:accumulate"
     d="m 13,7.0000203 c -1.650932,0 -3,1.3490681 -3,2.9999997 0,1.650932 1.349068,3 3,3 1.650932,0 3,-1.349068 3,-3 0,-1.6509316 -1.349068,-2.9999997 -3,-2.9999997 z m 0,5.9999997 h -1 c -0.0341,-2.16e-4 -0.06813,0.0031 -0.101562,0.0098 C 10.11519,13.379669 8.6325922,14.13995 8.0351562,15.660176 8.0120014,15.71862 8.0000743,15.780906 8,15.84377 v 0.8125 c 0,0.735639 0.6081119,1.34375 1.34375,1.34375 h 7.3125 C 17.391888,18.00002 18,17.391909 18,16.65627 v -0.8125 c 2.26e-4,-0.03077 -0.0024,-0.0615 -0.0078,-0.0918 -0.166906,-0.885419 -0.868136,-1.533487 -1.63086,-1.992187 -0.762736,-0.458698 -1.611057,-0.740299 -2.328137,-0.759763 -0.0046,-6.2e-5 -0.0091,-6.2e-5 -0.01367,0 z"
     id="path915" />
</svg>
