<?xml version="1.0" encoding="UTF-8" standalone="no"?>
<svg
   xmlns:osb="http://www.openswatchbook.org/uri/2009/osb"
   xmlns:dc="http://purl.org/dc/elements/1.1/"
   xmlns:cc="http://creativecommons.org/ns#"
   xmlns:rdf="http://www.w3.org/1999/02/22-rdf-syntax-ns#"
   xmlns:svg="http://www.w3.org/2000/svg"
   xmlns="http://www.w3.org/2000/svg"
   xmlns:sodipodi="http://sodipodi.sourceforge.net/DTD/sodipodi-0.dtd"
   xmlns:inkscape="http://www.inkscape.org/namespaces/inkscape"
   width="16"
   version="1.1"
   style="enable-background:new"
   id="svg7384"
   height="16"
   inkscape:version="0.91 r13725"
   sodipodi:docname="system-switch-user-symbolic.svg">
  <sodipodi:namedview
     pagecolor="#ffffff"
     bordercolor="#666666"
     borderopacity="1"
     objecttolerance="10"
     gridtolerance="10"
     guidetolerance="10"
     inkscape:pageopacity="0"
     inkscape:pageshadow="2"
     inkscape:window-width="1920"
     inkscape:window-height="1026"
     id="namedview21"
     showgrid="true"
     inkscape:zoom="22.627417"
     inkscape:cx="1.6844155"
     inkscape:cy="7.5676685"
     inkscape:window-x="0"
     inkscape:window-y="0"
     inkscape:window-maximized="1"
     inkscape:current-layer="svg7384">
    <inkscape:grid
       type="xygrid"
       id="grid4167" />
  </sodipodi:namedview>
  <metadata
     id="metadata90">
    <rdf:RDF>
      <cc:Work
         rdf:about="">
        <dc:format>image/svg+xml</dc:format>
        <dc:type
           rdf:resource="http://purl.org/dc/dcmitype/StillImage" />
        <dc:title>Moka Symbolic Icon Theme</dc:title>
      </cc:Work>
    </rdf:RDF>
  </metadata>
  <title
     id="title8473">Moka Symbolic Icon Theme</title>
  <defs
     id="defs7386">
    <linearGradient
       osb:paint="solid"
       id="linearGradient5606">
      <stop
         style="stop-color:#000000;stop-opacity:1;"
         offset="0"
         id="stop5608" />
    </linearGradient>
    <filter
       style="color-interpolation-filters:sRGB"
       id="filter7554">
      <feBlend
         mode="darken"
         in2="BackgroundImage"
         id="feBlend7556" />
    </filter>
  </defs>
  <g
     transform="translate(-661.0002,-14.99664)"
     style="display:inline"
     id="layer9" />
  <g
     transform="translate(-661.0002,-14.99664)"
     style="display:inline;filter:url(#filter7554)"
     id="layer10" />
  <g
     transform="translate(-420,-631.99664)"
     style="display:inline"
     id="layer1" />
  <g
     transform="translate(-661.0002,-14.99664)"
     style="display:inline"
     id="layer14" />
  <g
     transform="translate(-661.0002,-14.99664)"
     style="display:inline"
     id="layer15" />
  <g
     transform="translate(-661.0002,-14.99664)"
     style="display:inline"
     id="g71291" />
  <g
     transform="translate(-420,-481.99664)"
     style="display:inline"
     id="layer2" />
  <g
     transform="translate(-661.0002,-14.99664)"
     style="display:inline"
     id="layer12" />
  <path
     d="M 6.914062,11.869938 C 8.600558,12.74335 9,13.969675 9,16 L 0,16 C 0,13.969675 0.399443,12.74335 2.085937,11.869938 2.74188,12.431065 3.574553,12.784 4.5,12.784 c 0.925447,0 1.75812,-0.352935 2.414062,-0.914062 z"
     id="path6729-2-9-78"
     style="fill:#bebebe;fill-opacity:1;fill-rule:evenodd;stroke:none;enable-background:new"
     inkscape:connector-curvature="0"
     sodipodi:nodetypes="ccccsc" />
  <path
     d="m 4.5,5.9999996 c 1.656855,0 3,1.343145 3,3 C 7.5,10.656855 6.156855,12 4.5,12 c -1.656855,0 -3,-1.343145 -3,-3.0000004 0,-1.656855 1.343145,-3 3,-3 z"
     id="path6751-4-6-9"
     style="color:#bebebe;display:inline;overflow:visible;visibility:visible;fill:#bebebe;fill-opacity:1;fill-rule:nonzero;stroke:none;stroke-width:1;marker:none;enable-background:accumulate"
     inkscape:connector-curvature="0" />
  <path
     style="fill:#bebebe;fill-opacity:1;fill-rule:evenodd;stroke:none;enable-background:new"
     d="M 9.1308594 5.8359375 C 8.4927503 6.1664053 8.046946 6.5537965 7.7304688 7.0117188 C 8.2034963 7.54202 8.5 8.2334712 8.5 9 L 16 9 C 15.865032 7.5346782 15.356634 6.5597599 13.958984 5.8359375 C 13.303042 6.3970645 12.470369 6.75 11.544922 6.75 C 10.619475 6.75 9.7868024 6.3970645 9.1308594 5.8359375 z "
     id="path6729-2-9-78-0" />
  <path
     d="m 11.5,0 c 1.656855,0 3,1.343145 3,3 0,1.6568554 -1.343145,3.0000004 -3,3.0000004 -1.656855,0 -3,-1.343145 -3,-3.0000004 0,-1.656855 1.343145,-3 3,-3 z"
     id="path6751-4-6-9-5"
     style="color:#bebebe;display:inline;overflow:visible;visibility:visible;fill:#bebebe;fill-opacity:1;fill-rule:nonzero;stroke:none;stroke-width:1;marker:none;enable-background:accumulate"
     inkscape:connector-curvature="0" />
  <path
     inkscape:connector-curvature="0"
     d="m 15.156604,15.98976 0.83984,0 0,-1 c 0.008,-1.67271 0,-4.9999999 0,-4.9999999 0,0 -3.986139,0 -5.9999993,0 l 0,0.8456999 c -0.0954,0.61124 0.3814003,1.16164 1.0000003,1.1543 l 1.58594,0 -1.64298,1.64299 -0.64999,0.64998 c -0.6540903,0.63582 -0.18523,1.74367 0.72657,1.71679 0.25979,-0.008 0.50637,-0.11632 0.6875,-0.30273 l 0.62788,-0.62789 1.665079,-1.66508 0,1.58594 c 0,0.68107 0.4492,1 1.16016,1 z"
     id="path12113-8-6"
     sodipodi:nodetypes="cccccccccccccccc"
     style="color:#000000;font-style:normal;font-variant:normal;font-weight:normal;font-stretch:normal;font-size:medium;line-height:normal;font-family:sans-serif;text-indent:0;text-align:start;text-decoration:none;text-decoration-line:none;text-decoration-style:solid;text-decoration-color:#000000;letter-spacing:normal;word-spacing:normal;text-transform:none;direction:ltr;writing-mode:lr-tb;baseline-shift:baseline;text-anchor:start;white-space:normal;clip-rule:nonzero;display:inline;overflow:visible;visibility:visible;opacity:1;isolation:auto;mix-blend-mode:normal;color-interpolation:sRGB;color-interpolation-filters:linearRGB;solid-color:#000000;solid-opacity:1;fill:#bebebe;fill-opacity:1;fill-rule:nonzero;stroke:none;stroke-width:2;stroke-linecap:round;stroke-linejoin:round;stroke-miterlimit:4;stroke-dasharray:none;stroke-dashoffset:0;stroke-opacity:1;marker:none;color-rendering:auto;image-rendering:auto;shape-rendering:auto;text-rendering:auto;enable-background:new" />
</svg>
