<?xml version="1.0" encoding="UTF-8" standalone="no"?>
<svg
   xmlns:dc="http://purl.org/dc/elements/1.1/"
   xmlns:cc="http://creativecommons.org/ns#"
   xmlns:rdf="http://www.w3.org/1999/02/22-rdf-syntax-ns#"
   xmlns:svg="http://www.w3.org/2000/svg"
   xmlns="http://www.w3.org/2000/svg"
   xmlns:xlink="http://www.w3.org/1999/xlink"
   id="svg3182"
   height="32"
   width="32"
   version="1.1">
  <defs
     id="defs3184">
    <linearGradient
       id="linearGradient3104-6">
      <stop
         id="stop3106-3"
         style="stop-color:#000000;stop-opacity:0.31782946"
         offset="0" />
      <stop
         id="stop3108-9"
         style="stop-color:#000000;stop-opacity:0.24031007"
         offset="1" />
    </linearGradient>
    <linearGradient
       y2="2.9062471"
       x2="-51.786404"
       y1="50.786446"
       x1="-51.786404"
       gradientTransform="matrix(0.53064141,0,0,0.58970049,39.269607,-1.791918)"
       gradientUnits="userSpaceOnUse"
       id="linearGradient3148"
       xlink:href="#linearGradient3104-6" />
  </defs>
  <metadata
     id="metadata3187">
    <rdf:RDF>
      <cc:Work
         rdf:about="">
        <dc:format>image/svg+xml</dc:format>
        <dc:type
           rdf:resource="http://purl.org/dc/dcmitype/StillImage" />
        <dc:title />
      </cc:Work>
    </rdf:RDF>
  </metadata>
  <path
     style="fill:#fafafa;fill-opacity:1;stroke:none;display:inline"
     id="path4160-3"
     d="m 5,1 c 5.041316,0 21.999973,0.00179 21.999973,0.00179 L 27,29 C 27,29 12.333334,29 5,29 5,19.666667 5,10.333336 5,1.0000041 z" />
  <path
     d="m 13.371915,20 -2.661057,0 0,3 2.661057,0 0,-3 z m 2.644918,-15.0000005 -2.661056,0 0,3 2.661056,0 0,-3 z m 5.322112,0 -2.661058,0 0,3 2.661058,0 0,-3 z m -2.661058,3 -2.661056,0 0,3.0000005 2.661056,0 0,-3.0000005 z m -8.016831,-3 -2.661056,0 0,3 2.661056,0 0,-3 z m 13.338944,3 -2.661056,0 0,3.0000005 L 24,11 24,7.9999995 Z M 21.338945,11 l -2.661058,0 0,3 2.661058,0 0,-3 z m -2.661058,3 -2.661056,0 0,3 2.661056,0 0,-3 z m -2.661054,-3 -2.661056,0 0,3 2.661056,0 0,-3 z m -2.661058,-3.0000005 -2.661057,0 0,3.0000005 2.661057,0 0,-3.0000005 z M 10.694721,11 8,11 l 0,3 2.694721,0 0,-3 z m 2.661054,3 -2.661057,0 0,3 2.661057,0 0,-3 z M 10.694721,17 8,17 l 0,3 2.694721,0 0,-3 z M 24,14 l -2.661056,0 0,3 L 24,17 24,14 Z m -2.661055,3 -2.661058,0 0,3 2.661058,0 0,-3 z M 24,20 l -2.661056,0 0,3 L 24,23 24,20 Z m -2.661055,3 -2.661058,0 0,3 2.661058,0 0,-3 z m -2.661058,-3 -2.661056,0 0,3 2.661056,0 0,-3 z m -2.661054,-3 -2.661056,0 0,3 2.661056,0 0,-3 z m -0.03458,6 -2.661056,0 0,3 2.661056,0 0,-3 z M 10.694721,23 8,23 l 0,3 2.694721,0 0,-3 z"
     id="path2648"
     style="display:inline;overflow:visible;visibility:visible;opacity:0.4;fill:#d4d4d4;fill-opacity:1;fill-rule:evenodd;stroke:none;stroke-width:1.21500194;marker:none" />
  <path
     d="m 4.499961,0.499944 c 5.27048,0 23.000054,0.002 23.000054,0.002 l 2.4e-5,28.998112 c 0,0 -15.333385,0 -23.000078,0 0,-9.666722 0,-19.333346 0,-28.999956 z"
     id="path4160-6-1"
     style="fill:none;stroke:url(#linearGradient3148);stroke-width:0.9999218;stroke-linecap:butt;stroke-linejoin:round;stroke-miterlimit:4;stroke-opacity:1;stroke-dasharray:none;stroke-dashoffset:0;display:inline" />
  <path
     style="opacity:1;fill:#7e8087;fill-opacity:1;fill-rule:evenodd;stroke:none"
     d="m 16,7 c -4.416,0 -8.0000002,3.584 -8.0000002,8 0,4.416 3.5840002,8 8.0000002,8 4.416,0 8,-3.584 8,-8 0,-4.416 -3.584,-8 -8,-8 z m 0,2 c 3.31202,0 6,2.68798 6,6 0,3.31202 -2.68798,6 -6,6 C 12.68798,21 9.9999998,18.31202 9.9999998,15 9.9999998,11.68798 12.68798,9 16,9 Z M 15.77148,10.66602 15.10352,15.33398 18.4375,18 l 0,-0.66602 -2,-2.66796 0,-4 -0.66602,0 z"
     id="path3609" />
</svg>
