<?xml version="1.0" encoding="UTF-8" standalone="no"?>
<svg
   xmlns:dc="http://purl.org/dc/elements/1.1/"
   xmlns:cc="http://creativecommons.org/ns#"
   xmlns:rdf="http://www.w3.org/1999/02/22-rdf-syntax-ns#"
   xmlns:svg="http://www.w3.org/2000/svg"
   xmlns="http://www.w3.org/2000/svg"
   xmlns:xlink="http://www.w3.org/1999/xlink"
   id="svg3810"
   height="16"
   width="16"
   version="1.1">
  <defs
     id="defs3812">
    <linearGradient
       id="linearGradient3104-9">
      <stop
         offset="0"
         style="stop-color:#000000;stop-opacity:0.33950618"
         id="stop3106-5" />
      <stop
         offset="1"
         style="stop-color:#000000;stop-opacity:0.24691358"
         id="stop3108-5" />
    </linearGradient>
    <linearGradient
       gradientTransform="matrix(0.25378586,0,0,0.30501865,19.128979,-0.68547704)"
       gradientUnits="userSpaceOnUse"
       xlink:href="#linearGradient3104-9"
       id="linearGradient3019"
       y2="2.9062471"
       x2="-51.786404"
       y1="50.786446"
       x1="-51.786404" />
    <linearGradient
       gradientTransform="matrix(9,0,0,9,120.00001,36)"
       x1="78"
       y1="48"
       x2="78"
       y2="60"
       id="linearGradient4059-2"
       xlink:href="#linearGradient4053-8"
       gradientUnits="userSpaceOnUse" />
    <linearGradient
       id="linearGradient4053-8">
      <stop
         id="stop4055-2"
         style="stop-color:#fcb214;stop-opacity:1"
         offset="0" />
      <stop
         id="stop4057-8"
         style="stop-color:#f0a000;stop-opacity:1"
         offset="1" />
    </linearGradient>
    <linearGradient
       gradientTransform="matrix(9,0,0,9,120.00001,36)"
       x1="71"
       y1="34"
       x2="77"
       y2="45"
       id="linearGradient4051-9"
       xlink:href="#linearGradient4684"
       gradientUnits="userSpaceOnUse" />
    <linearGradient
       id="linearGradient4684">
      <stop
         offset="0"
         style="stop-color:#fdfb16;stop-opacity:1"
         id="stop4680" />
      <stop
         offset="1"
         style="stop-color:#e2e00b;stop-opacity:1"
         id="stop4682" />
    </linearGradient>
    <linearGradient
       gradientTransform="matrix(9,0,0,9,120.00001,36)"
       x1="58"
       y1="25"
       x2="68"
       y2="31"
       id="linearGradient4043-7"
       xlink:href="#linearGradient4678"
       gradientUnits="userSpaceOnUse" />
    <linearGradient
       id="linearGradient4678">
      <stop
         offset="0"
         style="stop-color:#bafa16;stop-opacity:1"
         id="stop4674" />
      <stop
         offset="1"
         style="stop-color:#9ad403;stop-opacity:1"
         id="stop4676" />
    </linearGradient>
    <linearGradient
       gradientTransform="matrix(9,0,0,9,120.00001,36)"
       x1="42"
       y1="32"
       x2="54"
       y2="32"
       id="linearGradient4035-4"
       xlink:href="#linearGradient4672"
       gradientUnits="userSpaceOnUse" />
    <linearGradient
       id="linearGradient4672">
      <stop
         offset="0"
         style="stop-color:#15df28;stop-opacity:1"
         id="stop4668" />
      <stop
         offset="1"
         style="stop-color:#03b715;stop-opacity:1"
         id="stop4670" />
    </linearGradient>
    <linearGradient
       gradientTransform="matrix(9,0,0,9,120.00001,36)"
       x1="28"
       y1="31"
       x2="38.099506"
       y2="25.169048"
       id="linearGradient4027-3"
       xlink:href="#linearGradient4021-8"
       gradientUnits="userSpaceOnUse" />
    <linearGradient
       id="linearGradient4021-8">
      <stop
         id="stop4023-1"
         style="stop-color:#18b0d2;stop-opacity:1"
         offset="0" />
      <stop
         id="stop4025-7"
         style="stop-color:#058caa;stop-opacity:1"
         offset="1" />
    </linearGradient>
    <linearGradient
       gradientTransform="matrix(9,0,0,9,120.00001,36)"
       x1="19"
       y1="44"
       x2="25"
       y2="34"
       id="linearGradient4019-7"
       xlink:href="#linearGradient4013-8"
       gradientUnits="userSpaceOnUse" />
    <linearGradient
       id="linearGradient4013-8">
      <stop
         id="stop4015-9"
         style="stop-color:#2d47db;stop-opacity:1"
         offset="0" />
      <stop
         id="stop4017-7"
         style="stop-color:#172eb1;stop-opacity:1"
         offset="1" />
    </linearGradient>
    <linearGradient
       gradientTransform="matrix(9,0,0,9,120.00001,36)"
       x1="18"
       y1="60"
       x2="18"
       y2="47.958405"
       id="linearGradient4121-7"
       xlink:href="#linearGradient4005-1"
       gradientUnits="userSpaceOnUse" />
    <linearGradient
       id="linearGradient4005-1">
      <stop
         id="stop4007-6"
         style="stop-color:#4715a1;stop-opacity:1"
         offset="0" />
      <stop
         id="stop4009-0"
         style="stop-color:#3a0794;stop-opacity:1"
         offset="1" />
    </linearGradient>
    <linearGradient
       x1="71"
       y1="34"
       x2="77"
       y2="45"
       id="linearGradient4051-9-5"
       xlink:href="#linearGradient4045-8"
       gradientUnits="userSpaceOnUse"
       gradientTransform="matrix(-9,0,0,-9,984.00003,1008)" />
    <linearGradient
       id="linearGradient4045-8">
      <stop
         id="stop4047-7"
         style="stop-color:#7218a1;stop-opacity:1"
         offset="0" />
      <stop
         id="stop4049-9"
         style="stop-color:#8338a8;stop-opacity:1"
         offset="1" />
    </linearGradient>
    <linearGradient
       x1="58"
       y1="25"
       x2="68"
       y2="31"
       id="linearGradient4043-7-6"
       xlink:href="#linearGradient4037-7"
       gradientUnits="userSpaceOnUse"
       gradientTransform="matrix(-9,0,0,-9,984.00003,1008)" />
    <linearGradient
       id="linearGradient4037-7">
      <stop
         id="stop4039-4"
         style="stop-color:#a319a2;stop-opacity:1"
         offset="0" />
      <stop
         id="stop4041-5"
         style="stop-color:#be5dbd;stop-opacity:1"
         offset="1" />
    </linearGradient>
    <linearGradient
       x1="42"
       y1="32"
       x2="54"
       y2="32"
       id="linearGradient4035-4-6"
       xlink:href="#linearGradient4029-7"
       gradientUnits="userSpaceOnUse"
       gradientTransform="matrix(-9,0,0,-9,984.00003,1008)" />
    <linearGradient
       id="linearGradient4029-7">
      <stop
         id="stop4031-8"
         style="stop-color:#d2204a;stop-opacity:1"
         offset="0" />
      <stop
         id="stop4033-7"
         style="stop-color:#df607e;stop-opacity:1"
         offset="1" />
    </linearGradient>
    <linearGradient
       x1="28"
       y1="31"
       x2="38.099506"
       y2="25.169048"
       id="linearGradient4027-3-0"
       xlink:href="#linearGradient4696"
       gradientUnits="userSpaceOnUse"
       gradientTransform="matrix(-9,0,0,-9,984.00003,1008)" />
    <linearGradient
       id="linearGradient4696">
      <stop
         offset="0"
         style="stop-color:#fa171c;stop-opacity:1"
         id="stop4692" />
      <stop
         offset="1"
         style="stop-color:#fb5e61;stop-opacity:1"
         id="stop4694" />
    </linearGradient>
    <linearGradient
       x1="19"
       y1="44"
       x2="25"
       y2="34"
       id="linearGradient4019-7-5"
       xlink:href="#linearGradient4690"
       gradientUnits="userSpaceOnUse"
       gradientTransform="matrix(-9,0,0,-9,984.00003,1008)" />
    <linearGradient
       id="linearGradient4690">
      <stop
         offset="0"
         style="stop-color:#fd7115;stop-opacity:1"
         id="stop4686" />
      <stop
         offset="1"
         style="stop-color:#f37320;stop-opacity:1"
         id="stop4688" />
    </linearGradient>
  </defs>
  <metadata
     id="metadata3815">
    <rdf:RDF>
      <cc:Work
         rdf:about="">
        <dc:format>image/svg+xml</dc:format>
        <dc:type
           rdf:resource="http://purl.org/dc/dcmitype/StillImage" />
        <dc:title />
      </cc:Work>
    </rdf:RDF>
  </metadata>
  <path
     d="m 3,1 c 2.2915074,0 9.999988,8.904e-4 9.999988,8.904e-4 L 13,15 C 13,15 6.3333332,15 3,15 3,10.333334 3,5.6666664 3,1 Z"
     id="path4160"
     style="display:inline;fill:#fafafa;fill-opacity:1;stroke:none" />
  <path
     d="m 2.4999621,0.49997396 c 2.5206756,0 11.0000629,9.54e-4 11.0000629,9.54e-4 l 1.3e-5,14.99909804 c 0,0 -7.3333841,0 -11.000076,0 0,-5.000017 0,-10.000035 0,-15.00005204 z"
     id="path4160-8"
     style="display:inline;fill:none;stroke:url(#linearGradient3019);stroke-width:0.99992192;stroke-linecap:butt;stroke-linejoin:round;stroke-miterlimit:4;stroke-dasharray:none;stroke-dashoffset:0;stroke-opacity:1" />
  <g
     transform="matrix(0.11111111,0,0,0.11111111,2.6666667,2.0000001)"
     style="display:inline"
     id="g951">
    <path
       style="color:#000000;display:inline;overflow:visible;visibility:visible;fill:url(#linearGradient4059-2);fill-opacity:1;fill-rule:nonzero;stroke:none;stroke-width:1;marker:none;enable-background:accumulate"
       id="path3949"
       d="m 78,48 c -3.313709,0 -6,2.68629 -6,6 0,3.31371 2.686291,6 6,6 3.313709,0 6,-2.68629 6,-6 0,-3.31371 -2.686291,-6 -6,-6 z m -12,2 c -2.209139,0 -4,1.79086 -4,4 0,2.20914 1.790861,4 4,4 2.209139,0 4,-1.79086 4,-4 0,-2.20914 -1.790861,-4 -4,-4 z" />
    <path
       style="color:#000000;display:inline;overflow:visible;visibility:visible;fill:url(#linearGradient4051-9);fill-opacity:1;fill-rule:nonzero;stroke:none;stroke-width:1;marker:none;enable-background:accumulate"
       id="path3951"
       d="M 70.980762,33.80385 C 68.111006,35.4607 67.127755,39.13024 68.78461,42 c 1.656854,2.86976 5.326396,3.85301 8.196152,2.19615 C 79.850518,42.5393 80.833769,38.86976 79.176915,36 77.52006,33.13024 73.850518,32.14699 70.980762,33.80385 Z m -9.392305,7.73205 c -1.91317,1.10457 -2.568671,3.55093 -1.464101,5.4641 1.104569,1.91317 3.550931,2.56867 5.464101,1.4641 1.913171,-1.10457 2.568671,-3.55093 1.464102,-5.4641 -1.10457,-1.91317 -3.550931,-2.56867 -5.464102,-1.4641 z" />
    <path
       style="color:#000000;display:inline;overflow:visible;visibility:visible;fill:url(#linearGradient4043-7);fill-opacity:1;fill-rule:nonzero;stroke:none;stroke-width:1;marker:none;enable-background:accumulate"
       id="path3953"
       d="m 57.803848,25.01924 c -1.656855,2.86975 -0.673604,6.5393 2.196152,8.19615 2.869756,1.65685 6.539298,0.6736 8.196152,-2.19615 C 69.853007,28.14948 68.869756,24.47994 66,22.82309 63.130244,21.16623 59.460702,22.14948 57.803848,25.01924 Z m -4.26795,11.3923 C 52.431329,38.32471 53.08683,40.77107 55,41.87564 c 1.91317,1.10457 4.359532,0.44907 5.464102,-1.4641 C 61.568671,38.49837 60.91317,36.05201 59,34.94744 c -1.91317,-1.10457 -4.359532,-0.44907 -5.464102,1.4641 z" />
    <path
       style="color:#000000;display:inline;overflow:visible;visibility:visible;fill:url(#linearGradient4035-4);fill-opacity:1;fill-rule:nonzero;stroke:none;stroke-width:1;marker:none;enable-background:accumulate"
       id="path3955"
       d="M 42.000001,24 C 42,27.31371 44.686291,30 48,30 c 3.313709,0 6,-2.68629 6,-6 0,-3.31371 -2.686291,-6 -6,-6 -3.313709,0 -6,2.68629 -5.999999,6 z M 44,36 c 0,2.20914 1.790862,4 4,4 2.209139,0 4,-1.79086 4.000001,-4 C 52,33.79086 50.209138,32 48,32 c -2.209138,0 -4,1.79086 -4,4 z" />
    <path
       style="color:#000000;display:inline;overflow:visible;visibility:visible;fill:url(#linearGradient4027-3);fill-opacity:1;fill-rule:nonzero;stroke:none;stroke-width:1;marker:none;enable-background:accumulate"
       id="path3957"
       d="m 27.803849,31.01924 c 1.656853,2.86975 5.326395,3.85301 8.196151,2.19615 2.869756,-1.65685 3.853007,-5.3264 2.196152,-8.19615 C 36.539298,22.14948 32.869756,21.16623 30,22.82309 c -2.869756,1.65685 -3.853007,5.32639 -2.196151,8.19615 z m 7.732049,9.3923 c 1.10457,1.91317 3.550932,2.56867 5.464102,1.4641 1.913171,-1.10457 2.568671,-3.55093 1.464103,-5.4641 C 41.359532,34.49837 38.91317,33.84287 37,34.94744 c -1.91317,1.10457 -2.568671,3.55093 -1.464102,5.4641 z" />
    <path
       style="color:#000000;display:inline;overflow:visible;visibility:visible;fill:url(#linearGradient4019-7);fill-opacity:1;fill-rule:nonzero;stroke:none;stroke-width:1;marker:none;enable-background:accumulate"
       id="path3959"
       d="M 19.019239,44.19615 C 21.888994,45.85301 25.558536,44.86976 27.215391,42 28.872245,39.13024 27.888994,35.4607 25.019238,33.80385 22.149482,32.14699 18.47994,33.13024 16.823086,36 c -1.656855,2.86976 -0.673604,6.5393 2.196153,8.19615 z M 30.411542,48.4641 C 32.324713,49.56867 34.771075,48.91317 35.875645,47 36.980214,45.08683 36.324713,42.64047 34.411544,41.5359 32.498372,40.43133 30.05201,41.08683 28.947441,43 c -1.104569,1.91317 -0.449069,4.35953 1.464101,5.4641 z" />
    <path
       style="color:#000000;display:inline;overflow:visible;visibility:visible;fill:url(#linearGradient4121-7);fill-opacity:1;fill-rule:nonzero;stroke:none;stroke-width:1;marker:none;enable-background:accumulate"
       id="path3961"
       d="m 18.000001,60 c 3.313708,0 5.999999,-2.68629 6,-6 C 24,50.68629 21.313709,48 18,48 c -3.313709,0 -6,2.68629 -5.999999,6 -10e-7,3.31371 2.68629,6 6,6 z M 30,58 c 2.209139,0 4,-1.79086 4.000001,-4 C 34,51.79086 32.209139,50 30,50 c -2.209139,0 -4,1.79086 -4,4 0,2.20914 1.790861,4 4,4 z" />
    <path
       style="color:#000000;display:inline;overflow:visible;visibility:visible;fill:url(#linearGradient4051-9-5);fill-opacity:1;fill-rule:nonzero;stroke:none;stroke-width:1;marker:none;enable-background:accumulate"
       id="path3951-3"
       d="M 25.019238,74.19615 C 27.888994,72.5393 28.872245,68.86976 27.21539,66 25.558536,63.13024 21.888994,62.14699 19.019238,63.80385 16.149482,65.4607 15.166231,69.13024 16.823085,72 c 1.656855,2.86976 5.326397,3.85301 8.196153,2.19615 z M 34.411543,66.4641 C 36.324713,65.35953 36.980214,62.91317 35.875644,61 34.771075,59.08683 32.324713,58.43133 30.411543,59.5359 28.498372,60.64047 27.842872,63.08683 28.947441,65 c 1.10457,1.91317 3.550931,2.56867 5.464102,1.4641 z" />
    <path
       style="color:#000000;display:inline;overflow:visible;visibility:visible;fill:url(#linearGradient4043-7-6);fill-opacity:1;fill-rule:nonzero;stroke:none;stroke-width:1;marker:none;enable-background:accumulate"
       id="path3953-7"
       d="M 38.196152,82.98076 C 39.853007,80.11101 38.869756,76.44146 36,74.78461 c -2.869756,-1.65685 -6.539298,-0.6736 -8.196152,2.19615 -1.656855,2.86976 -0.673604,6.5393 2.196152,8.19615 2.869756,1.65686 6.539298,0.67361 8.196152,-2.19615 z m 4.26795,-11.3923 C 43.568671,69.67529 42.91317,67.22893 41,66.12436 39.08683,65.01979 36.640468,65.67529 35.535898,67.58846 34.431329,69.50163 35.08683,71.94799 37,73.05256 c 1.91317,1.10457 4.359532,0.44907 5.464102,-1.4641 z" />
    <path
       style="color:#000000;display:inline;overflow:visible;visibility:visible;fill:url(#linearGradient4035-4-6);fill-opacity:1;fill-rule:nonzero;stroke:none;stroke-width:1;marker:none;enable-background:accumulate"
       id="path3955-4"
       d="M 53.999999,84 C 54,80.68629 51.313709,78 48,78 c -3.313709,0 -6,2.68629 -6,6 0,3.31371 2.686291,6 6,6 3.313709,0 6,-2.68629 5.999999,-6 z M 52,72 c 0,-2.20914 -1.790862,-4 -4,-4 -2.209139,0 -4,1.79086 -4.000001,4 C 44,74.20914 45.790862,76 48,76 c 2.209138,0 4,-1.79086 4,-4 z" />
    <path
       style="color:#000000;display:inline;overflow:visible;visibility:visible;fill:url(#linearGradient4027-3-0);fill-opacity:1;fill-rule:nonzero;stroke:none;stroke-width:1;marker:none;enable-background:accumulate"
       id="path3957-5"
       d="M 68.196151,76.98076 C 66.539298,74.11101 62.869756,73.12775 60,74.78461 c -2.869756,1.65685 -3.853007,5.3264 -2.196152,8.19615 1.656854,2.86976 5.326396,3.85301 8.196152,2.19615 2.869756,-1.65685 3.853007,-5.32639 2.196151,-8.19615 z m -7.732049,-9.3923 C 59.359532,65.67529 56.91317,65.01979 55,66.12436 c -1.913171,1.10457 -2.568671,3.55093 -1.464103,5.4641 1.104571,1.91317 3.550933,2.56867 5.464103,1.4641 1.91317,-1.10457 2.568671,-3.55093 1.464102,-5.4641 z" />
    <path
       style="color:#000000;display:inline;overflow:visible;visibility:visible;fill:url(#linearGradient4019-7-5);fill-opacity:1;fill-rule:nonzero;stroke:none;stroke-width:1;marker:none;enable-background:accumulate"
       id="path3959-2"
       d="M 76.980761,63.80385 C 74.111006,62.14699 70.441464,63.13024 68.784609,66 c -1.656854,2.86976 -0.673603,6.5393 2.196153,8.19615 2.869756,1.65686 6.539298,0.67361 8.196152,-2.19615 1.656855,-2.86976 0.673604,-6.5393 -2.196153,-8.19615 z M 65.588458,59.5359 C 63.675287,58.43133 61.228925,59.08683 60.124355,61 c -1.104569,1.91317 -0.449068,4.35953 1.464101,5.4641 1.913172,1.10457 4.359534,0.44907 5.464103,-1.4641 1.104569,-1.91317 0.449069,-4.35953 -1.464101,-5.4641 z" />
  </g>
</svg>
