<?xml version="1.0" encoding="UTF-8" standalone="no"?>
<svg
   xmlns:dc="http://purl.org/dc/elements/1.1/"
   xmlns:cc="http://creativecommons.org/ns#"
   xmlns:rdf="http://www.w3.org/1999/02/22-rdf-syntax-ns#"
   xmlns:svg="http://www.w3.org/2000/svg"
   xmlns="http://www.w3.org/2000/svg"
   xmlns:xlink="http://www.w3.org/1999/xlink"
   xmlns:sodipodi="http://sodipodi.sourceforge.net/DTD/sodipodi-0.dtd"
   xmlns:inkscape="http://www.inkscape.org/namespaces/inkscape"
   id="svg4372"
   height="16"
   width="16"
   version="1.1"
   sodipodi:docname="1-16.svg"
   inkscape:version="0.92.3 (2405546, 2018-03-11)">
  <sodipodi:namedview
     pagecolor="#ffffff"
     bordercolor="#666666"
     borderopacity="1"
     objecttolerance="10"
     gridtolerance="10"
     guidetolerance="10"
     inkscape:pageopacity="0"
     inkscape:pageshadow="2"
     inkscape:window-width="1920"
     inkscape:window-height="1145"
     id="namedview12"
     showgrid="false"
     inkscape:zoom="14.75"
     inkscape:cx="8"
     inkscape:cy="8"
     inkscape:window-x="0"
     inkscape:window-y="0"
     inkscape:window-maximized="1"
     inkscape:current-layer="svg4372" />
  <defs
     id="defs4374">
    <linearGradient
       id="linearGradient4140">
      <stop
         style="stop-color:#000000;stop-opacity:0.34117648"
         offset="0"
         id="stop4142" />
      <stop
         style="stop-color:#000000;stop-opacity:0.24705882"
         offset="1"
         id="stop4144" />
    </linearGradient>
    <linearGradient
       xlink:href="#linearGradient4140"
       id="linearGradient4146"
       x1="6"
       y1="15"
       x2="6"
       y2="0"
       gradientUnits="userSpaceOnUse" />
    <linearGradient
       inkscape:collect="always"
       xlink:href="#linearGradient4238"
       id="linearGradient3170"
       gradientUnits="userSpaceOnUse"
       gradientTransform="matrix(0.88605598,0,0,0.91501205,-190.09393,-217.91028)"
       x1="277.47501"
       y1="44.793747"
       x2="275.5"
       y2="271.42502" />
    <linearGradient
       id="linearGradient4238">
      <stop
         style="stop-color:#89c64b;stop-opacity:1"
         offset="0"
         id="stop4240" />
      <stop
         style="stop-color:#6bae35;stop-opacity:1"
         offset="1"
         id="stop4242" />
    </linearGradient>
  </defs>
  <metadata
     id="metadata4377">
    <rdf:RDF>
      <cc:Work
         rdf:about="">
        <dc:format>image/svg+xml</dc:format>
        <dc:type
           rdf:resource="http://purl.org/dc/dcmitype/StillImage" />
        <dc:title />
      </cc:Work>
    </rdf:RDF>
  </metadata>
  <path
     style="opacity:1;fill:#fafafa;fill-opacity:1;fill-rule:nonzero;stroke:none;stroke-width:0.25;stroke-linecap:butt;stroke-linejoin:miter;stroke-miterlimit:4;stroke-dasharray:none;stroke-opacity:1"
     d="m 2.5,2 11,0 C 13.777,2 14,2.223 14,2.5 l 0,11 c 0,0.277 -0.223,0.5 -0.5,0.5 l -11,0 C 2.223,14 2,13.777 2,13.5 L 2,2.5 C 2,2.223 2.223,2 2.5,2 Z"
     id="rect4138" />
  <rect
     width="13.000003"
     height="13.000003"
     rx="1"
     ry="1"
     x="1.5"
     y="1.499997"
     id="rect5505-21-2-8"
     style="color:#000000;display:inline;overflow:visible;visibility:visible;opacity:1;fill:none;stroke:url(#linearGradient4146);stroke-width:1;stroke-linecap:round;stroke-linejoin:round;stroke-miterlimit:4;stroke-dasharray:none;stroke-dashoffset:0;stroke-opacity:1;marker:none;enable-background:accumulate" />
  <g
     id="g852"
     transform="matrix(0.06050654,0,0,0.06050654,11.084813,12.299041)">
    <path
       id="path4138"
       d="m -50.983143,-141.0489 c -38.65906,0 -69.998047,31.33898 -69.998047,69.99805 0,38.659063 31.338987,69.9980525 69.998047,69.9980525 38.659063,0 69.998053,-31.3389895 69.998053,-69.9980525 0,-38.65907 -31.33899,-69.99805 -69.998053,-69.99805 z m -32.32031,34.99805 h 8.64062 c 1.49151,0 2.67969,1.18343 2.67969,2.65234 v 8.69532 c 0,1.46891 -1.18818,2.65234 -2.67969,2.65234 h -8.64062 c -1.49151,0 -2.67969,-1.18343 -2.67969,-2.65234 v -8.69532 c 0,-1.46891 1.18818,-2.65234 2.67969,-2.65234 z m 28,0 h 8.64062 c 1.49151,0 2.67969,1.18343 2.67969,2.65234 v 8.69532 c 0,1.46891 -1.18818,2.65234 -2.67969,2.65234 h -8.64062 c -1.49151,0 -2.67969,-1.18343 -2.67969,-2.65234 v -8.69532 c 0,-1.46891 1.18818,-2.65234 2.67969,-2.65234 z m 28,0 h 8.640623 c 1.49151,0 2.67969,1.18343 2.67969,2.65234 v 8.69532 c 0,1.46891 -1.18818,2.65234 -2.67969,2.65234 h -8.640623 c -1.49151,0 -2.67969,-1.18343 -2.67969,-2.65234 v -8.69532 c 0,-1.46891 1.18818,-2.65234 2.67969,-2.65234 z m -56,28 h 8.64062 c 1.49151,0 2.67969,1.18343 2.67969,2.65234 v 8.69532 c 0,1.46891 -1.18818,2.65234 -2.67969,2.65234 h -8.64062 c -1.49151,0 -2.67969,-1.18343 -2.67969,-2.65234 v -8.69532 c 0,-1.46891 1.18818,-2.65234 2.67969,-2.65234 z m 28,0 h 8.64062 c 1.49151,0 2.67969,1.18343 2.67969,2.65234 v 8.69532 c 0,1.46891 -1.18818,2.65234 -2.67969,2.65234 h -8.64062 c -1.49151,0 -2.67969,-1.18343 -2.67969,-2.65234 v -8.69532 c 0,-1.46891 1.18818,-2.65234 2.67969,-2.65234 z m 28,0 h 8.640623 c 1.49151,0 2.67969,1.18343 2.67969,2.65234 v 8.69532 c 0,1.46891 -1.18818,2.65234 -2.67969,2.65234 h -8.640623 c -1.49151,0 -2.67969,-1.18343 -2.67969,-2.65234 v -8.69532 c 0,-1.46891 1.18818,-2.65234 2.67969,-2.65234 z m -56,28 h 8.64062 c 1.49151,0 2.67969,1.18343 2.67969,2.65234 v 8.695323 c 0,1.46891 -1.18818,2.65234 -2.67969,2.65234 h -8.64062 c -1.49151,0 -2.67969,-1.18343 -2.67969,-2.65234 v -8.695323 c 0,-1.46891 1.18818,-2.65234 2.67969,-2.65234 z m 28,0 h 8.64062 c 1.49151,0 2.67969,1.18343 2.67969,2.65234 v 8.695323 c 0,1.46891 -1.18818,2.65234 -2.67969,2.65234 h -8.64062 c -1.49151,0 -2.67969,-1.18343 -2.67969,-2.65234 v -8.695323 c 0,-1.46891 1.18818,-2.65234 2.67969,-2.65234 z m 28,0 h 8.640623 c 1.49151,0 2.67969,1.18343 2.67969,2.65234 v 8.695323 c 0,1.46891 -1.18818,2.65234 -2.67969,2.65234 h -8.640623 c -1.49151,0 -2.67969,-1.18343 -2.67969,-2.65234 v -8.695323 c 0,-1.46891 1.18818,-2.65234 2.67969,-2.65234 z"
       style="color:#000000;display:inline;overflow:visible;visibility:visible;fill:url(#linearGradient3170);fill-opacity:1;fill-rule:nonzero;stroke:none;stroke-width:4;marker:none;enable-background:accumulate"
       inkscape:connector-curvature="0" />
    <path
       id="path4138-1-9-4"
       d="m -50.983143,-141.0489 c -38.65906,0 -69.998047,31.33898 -69.998047,69.99805 0,0.2928 -0.004,0.58304 0,0.875 0.46977,-38.25485 31.631787,-69.12305 69.998047,-69.12305 38.366253,0 69.528283,30.8682 69.998053,69.12305 0.004,-0.29196 0,-0.5822 0,-0.875 0,-38.65907 -31.33899,-69.99805 -69.998053,-69.99805 z m -35,46.34571 v 1 c 0,1.46891 1.18818,2.65234 2.67969,2.65234 h 8.64062 c 1.49151,0 2.67969,-1.18343 2.67969,-2.65234 v -1 c 0,1.46891 -1.18818,2.65234 -2.67969,2.65234 h -8.64062 c -1.49151,0 -2.67969,-1.18343 -2.67969,-2.65234 z m 28,0 v 1 c 0,1.46891 1.18818,2.65234 2.67969,2.65234 h 8.64062 c 1.49151,0 2.67969,-1.18343 2.67969,-2.65234 v -1 c 0,1.46891 -1.18818,2.65234 -2.67969,2.65234 h -8.64062 c -1.49151,0 -2.67969,-1.18343 -2.67969,-2.65234 z m 28,0 v 1 c 0,1.46891 1.18818,2.65234 2.67969,2.65234 h 8.640623 c 1.49151,0 2.67969,-1.18343 2.67969,-2.65234 v -1 c 0,1.46891 -1.18818,2.65234 -2.67969,2.65234 h -8.640623 c -1.49151,0 -2.67969,-1.18343 -2.67969,-2.65234 z m -56,28 v 1 c 0,1.46891 1.18818,2.65234 2.67969,2.65234 h 8.64062 c 1.49151,0 2.67969,-1.18343 2.67969,-2.65234 v -1 c 0,1.46891 -1.18818,2.65234 -2.67969,2.65234 h -8.64062 c -1.49151,0 -2.67969,-1.18343 -2.67969,-2.65234 z m 28,0 v 1 c 0,1.46891 1.18818,2.65234 2.67969,2.65234 h 8.64062 c 1.49151,0 2.67969,-1.18343 2.67969,-2.65234 v -1 c 0,1.46891 -1.18818,2.65234 -2.67969,2.65234 h -8.64062 c -1.49151,0 -2.67969,-1.18343 -2.67969,-2.65234 z m 28,0 v 1 c 0,1.46891 1.18818,2.65234 2.67969,2.65234 h 8.640623 c 1.49151,0 2.67969,-1.18343 2.67969,-2.65234 v -1 c 0,1.46891 -1.18818,2.65234 -2.67969,2.65234 h -8.640623 c -1.49151,0 -2.67969,-1.18343 -2.67969,-2.65234 z m -56,28.000003 v 1 c 0,1.46891 1.18818,2.65234 2.67969,2.65234 h 8.64062 c 1.49151,0 2.67969,-1.18343 2.67969,-2.65234 v -1 c 0,1.46891 -1.18818,2.65234 -2.67969,2.65234 h -8.64062 c -1.49151,0 -2.67969,-1.18343 -2.67969,-2.65234 z m 28,0 v 1 c 0,1.46891 1.18818,2.65234 2.67969,2.65234 h 8.64062 c 1.49151,0 2.67969,-1.18343 2.67969,-2.65234 v -1 c 0,1.46891 -1.18818,2.65234 -2.67969,2.65234 h -8.64062 c -1.49151,0 -2.67969,-1.18343 -2.67969,-2.65234 z m 28,0 v 1 c 0,1.46891 1.18818,2.65234 2.67969,2.65234 h 8.640623 c 1.49151,0 2.67969,-1.18343 2.67969,-2.65234 v -1 c 0,1.46891 -1.18818,2.65234 -2.67969,2.65234 h -8.640623 c -1.49151,0 -2.67969,-1.18343 -2.67969,-2.65234 z"
       style="color:#000000;display:inline;overflow:visible;visibility:visible;opacity:0.2;fill:#000000;fill-opacity:1;fill-rule:nonzero;stroke:none;stroke-width:4;marker:none;enable-background:accumulate"
       inkscape:connector-curvature="0" />
  </g>
</svg>
