<?xml version="1.0" encoding="UTF-8" standalone="no"?>
<svg
   xmlns:dc="http://purl.org/dc/elements/1.1/"
   xmlns:cc="http://creativecommons.org/ns#"
   xmlns:rdf="http://www.w3.org/1999/02/22-rdf-syntax-ns#"
   xmlns:svg="http://www.w3.org/2000/svg"
   xmlns="http://www.w3.org/2000/svg"
   xmlns:xlink="http://www.w3.org/1999/xlink"
   id="svg3810"
   height="16"
   width="16"
   version="1.1">
  <defs
     id="defs3812">
    <linearGradient
       id="linearGradient3104-9">
      <stop
         offset="0"
         style="stop-color:#000000;stop-opacity:0.33950618"
         id="stop3106-5" />
      <stop
         offset="1"
         style="stop-color:#000000;stop-opacity:0.24691358"
         id="stop3108-5" />
    </linearGradient>
    <linearGradient
       gradientTransform="matrix(0.25378586,0,0,0.30501865,19.128979,-0.68547704)"
       gradientUnits="userSpaceOnUse"
       xlink:href="#linearGradient3104-9"
       id="linearGradient3019"
       y2="2.9062471"
       x2="-51.786404"
       y1="50.786446"
       x1="-51.786404" />
  </defs>
  <metadata
     id="metadata3815">
    <rdf:RDF>
      <cc:Work
         rdf:about="">
        <dc:format>image/svg+xml</dc:format>
        <dc:type
           rdf:resource="http://purl.org/dc/dcmitype/StillImage" />
        <dc:title />
      </cc:Work>
    </rdf:RDF>
  </metadata>
  <path
     d="m 3,1 c 2.2915074,0 9.999988,8.904e-4 9.999988,8.904e-4 L 13,15 C 13,15 6.3333332,15 3,15 3,10.333334 3,5.6666664 3,1 Z"
     id="path4160"
     style="display:inline;fill:#fafafa;fill-opacity:1;stroke:none" />
  <path
     d="m 2.4999621,0.49997396 c 2.5206756,0 11.0000629,9.54e-4 11.0000629,9.54e-4 l 1.3e-5,14.99909804 c 0,0 -7.3333841,0 -11.000076,0 0,-5.000017 0,-10.000035 0,-15.00005204 z"
     id="path4160-8"
     style="display:inline;fill:none;stroke:url(#linearGradient3019);stroke-width:0.99992192;stroke-linecap:butt;stroke-linejoin:round;stroke-miterlimit:4;stroke-dasharray:none;stroke-dashoffset:0;stroke-opacity:1" />
  <path
     id="path4226-1-8-06"
     d="m 5.76565,9.8154301 c -0.07,0.12551 -0.1254,0.3143399 -0.1254,0.4333299 0,0.0276 0,0.0628 0.01,0.11149 l -0.8723,-1.5021 c -0.028,-0.0487 -0.049,-0.11866 -0.049,-0.1816599 0,-0.0631 0.021,-0.1397601 0.049,-0.1885901 l 0.4188,-0.73364 -0.4675,-0.26528 1.5212,-0.0282 0.7396,1.3343701 -0.4743,-0.27244 z m 0.67,-4.3976901 c 0.1325,-0.2308 0.349,-0.35656 0.614,-0.35656 0.2863,0 0.5096,0.1329201 0.67,0.40505 L 7.95695,5.8644301 7.13335,7.45394 5.80065,6.51445 Z m 0.097,5.6063 c -0.3977,0 -0.7256,-0.32836 -0.7256,-0.72655 0,-0.11182 0.049,-0.3006399 0.1188,-0.4192999 l 0.223,-0.3982 1.654,0 0,1.5440599 -1.2702,0 z m 1.3261,-5.6485199 c -0.1046,-0.18142 -0.2442,-0.3075 -0.4117,-0.37742 l 1.7164,0 c 0.1536,0 0.2721,0.0631 0.3422,0.18198 l 0.4256,0.72655 0.4604,-0.27269 -0.7399,1.32776 -1.5138,-0.0214 0.4674,-0.26528 z m 2.6449,4.11848 c 0.2091,0 0.3837,-0.0559 0.5301,-0.16749 l -0.8654,1.5089399 c -0.07,0.11866 -0.1953,0.19348 -0.3417,0.18858 l -0.8167,0 0,0.53797 -0.7814,-1.30641 0.7814,-1.3067499 0,0.5451499 1.4937,0 z m 0.6694,-1.25768 c 0.063,0.11182 0.098,0.23048 0.098,0.35631 0,0.25158 -0.1606,0.5171 -0.3837,0.64262 -0.1048,0.0562 -0.2518,0.0999 -0.3977,0.0913 l -0.4609,0 L 9.20565,7.9009 10.53835,7.1393 Z"
     style="fill:#3a9104;fill-opacity:1" />
</svg>
