<?xml version="1.0" encoding="UTF-8" standalone="no"?>
<svg
   xmlns:dc="http://purl.org/dc/elements/1.1/"
   xmlns:cc="http://creativecommons.org/ns#"
   xmlns:rdf="http://www.w3.org/1999/02/22-rdf-syntax-ns#"
   xmlns:svg="http://www.w3.org/2000/svg"
   xmlns="http://www.w3.org/2000/svg"
   xmlns:xlink="http://www.w3.org/1999/xlink"
   version="1.1"
   width="16"
   height="16"
   id="svg3810">
  <defs
     id="defs3812">
    <linearGradient
       id="linearGradient4194">
      <stop
         id="stop4196"
         offset="0"
         style="stop-color:#abacae;stop-opacity:1" />
      <stop
         id="stop4198"
         offset="1"
         style="stop-color:#7e8087;stop-opacity:1" />
    </linearGradient>
    <linearGradient
       id="linearGradient3104-9">
      <stop
         id="stop3106-5"
         style="stop-color:#000000;stop-opacity:0.33950618"
         offset="0" />
      <stop
         id="stop3108-5"
         style="stop-color:#000000;stop-opacity:0.24691358"
         offset="1" />
    </linearGradient>
    <linearGradient
       x1="-51.786404"
       y1="50.786446"
       x2="-51.786404"
       y2="2.9062471"
       id="linearGradient3019"
       xlink:href="#linearGradient3104-9"
       gradientUnits="userSpaceOnUse"
       gradientTransform="matrix(0.25378586,0,0,0.30501865,19.128979,-0.68547704)" />
    <linearGradient
       xlink:href="#linearGradient4194"
       id="linearGradient4190"
       x1="8"
       y1="0"
       x2="8"
       y2="16"
       gradientUnits="userSpaceOnUse" />
  </defs>
  <metadata
     id="metadata3815">
    <rdf:RDF>
      <cc:Work
         rdf:about="">
        <dc:format>image/svg+xml</dc:format>
        <dc:type
           rdf:resource="http://purl.org/dc/dcmitype/StillImage" />
        <dc:title />
      </cc:Work>
    </rdf:RDF>
  </metadata>
  <path
     style="display:inline;fill:#fafafa;fill-opacity:1;stroke:none"
     id="path4160"
     d="m 3,1 c 2.2915074,0 9.999988,8.904e-4 9.999988,8.904e-4 L 13,15 C 13,15 6.3333332,15 3,15 3,10.333334 3,5.6666664 3,1 Z" />
  <path
     style="display:inline;fill:none;stroke:url(#linearGradient3019);stroke-width:0.99992192;stroke-linecap:butt;stroke-linejoin:round;stroke-miterlimit:4;stroke-dasharray:none;stroke-dashoffset:0;stroke-opacity:1"
     id="path4160-8"
     d="m 2.4999621,0.49997396 c 2.5206756,0 11.0000629,9.54e-4 11.0000629,9.54e-4 l 1.3e-5,14.99909804 c 0,0 -7.3333841,0 -11.000076,0 0,-5.000017 0,-10.000035 0,-15.00005204 z" />
  <path
     id="path4164"
     d="m 8,3.777776 c -1.892,0 -4,0.638896 -4,1.55556 0,0.916672 2.108,1.555552 4,1.555552 1.892,0 4,-0.63888 4,-1.555552 0,-0.916664 -2.108,-1.55556 -4,-1.55556 z m -4,2.43056 0,0.902776 c 0,0.916664 2.108,1.5555602 4,1.5555602 1.892,0 4,-0.6388962 4,-1.5555603 l 0,-0.902776 c -0.71128,0.668856 -2.213328,1.125 -4,1.125 -1.786672,0 -3.28872,-0.456144 -4,-1.125 z m 0,1.777776 0,0.9027762 c 0,0.916672 2.108,1.5555598 4,1.5555598 1.892,0 4,-0.6388878 4,-1.5555598 L 12,7.986112 c -0.71128,0.6688562 -2.213328,1.1250002 -4,1.1250002 -1.786672,0 -3.28872,-0.456144 -4,-1.1250002 z m 0,1.7777762 0,0.9027838 c 0,0.916664 2.108,1.555552 4,1.555552 1.892,0 4,-0.638888 4,-1.555552 l 0,-0.9027838 c -0.71128,0.6688638 -2.213328,1.1249998 -4,1.1249998 -1.786672,0 -3.28872,-0.456136 -4,-1.1249998 z"
     style="color:#000000;display:inline;overflow:visible;visibility:visible;fill:url(#linearGradient4190);fill-opacity:1;fill-rule:nonzero;stroke:none;stroke-width:20;marker:none;enable-background:new" />
</svg>
