<?xml version="1.0" encoding="UTF-8" standalone="no"?>
<svg
   xmlns:dc="http://purl.org/dc/elements/1.1/"
   xmlns:cc="http://creativecommons.org/ns#"
   xmlns:rdf="http://www.w3.org/1999/02/22-rdf-syntax-ns#"
   xmlns:svg="http://www.w3.org/2000/svg"
   xmlns="http://www.w3.org/2000/svg"
   xmlns:xlink="http://www.w3.org/1999/xlink"
   id="svg3323"
   height="16"
   width="16"
   version="1.1">
  <defs
     id="defs3325">
    <linearGradient
       gradientTransform="matrix(0,0.20000175,-0.20000175,0,12.62004,3.1999575)"
       gradientUnits="userSpaceOnUse"
       xlink:href="#linearGradient3263"
       id="linearGradient3270"
       y2="14.2033"
       x2="35.391201"
       y1="32.4165"
       x1="12.2744" />
    <linearGradient
       gradientUnits="userSpaceOnUse"
       id="linearGradient3263"
       y2="14.2033"
       x2="35.391201"
       y1="32.4165"
       x1="12.2744">
      <stop
         offset="0"
         style="stop-color:#dedbde;stop-opacity:1"
         id="stop3265" />
      <stop
         offset="0.5"
         style="stop-color:#e6e6e6;stop-opacity:1"
         id="stop3267" />
      <stop
         offset="1"
         style="stop-color:#d2d2d2;stop-opacity:1"
         id="stop3269" />
    </linearGradient>
    <linearGradient
       gradientTransform="matrix(0.17073167,0,0,0.17073167,12.484278,3.9024399)"
       gradientUnits="userSpaceOnUse"
       xlink:href="#linearGradient3772"
       id="linearGradient3272"
       y2="45.032898"
       x2="-21.915663"
       y1="3"
       x1="-21.915663" />
    <linearGradient
       id="linearGradient3772">
      <stop
         offset="0"
         style="stop-color:#b4b4b4;stop-opacity:1"
         id="stop3774" />
      <stop
         offset="1"
         style="stop-color:#969696;stop-opacity:1"
         id="stop3776" />
    </linearGradient>
    <linearGradient
       x1="-51.786404"
       y1="50.786446"
       x2="-51.786404"
       y2="2.9062471"
       id="linearGradient3019"
       xlink:href="#linearGradient3104-9"
       gradientUnits="userSpaceOnUse"
       gradientTransform="matrix(0.25378586,0,0,0.30501865,19.128979,-0.68547704)" />
    <linearGradient
       id="linearGradient3104-9">
      <stop
         id="stop3106-5"
         style="stop-color:#000000;stop-opacity:0.33950618"
         offset="0" />
      <stop
         id="stop3108-5"
         style="stop-color:#000000;stop-opacity:0.24691358"
         offset="1" />
    </linearGradient>
  </defs>
  <metadata
     id="metadata3328">
    <rdf:RDF>
      <cc:Work
         rdf:about="">
        <dc:format>image/svg+xml</dc:format>
        <dc:type
           rdf:resource="http://purl.org/dc/dcmitype/StillImage" />
        <dc:title />
      </cc:Work>
    </rdf:RDF>
  </metadata>
  <path
     style="display:inline;fill:#fafafa;fill-opacity:1;stroke:none"
     id="path4160-3"
     d="m 3,1 c 2.2915074,0 9.999988,8.904e-4 9.999988,8.904e-4 L 13,15 C 13,15 6.3333332,15 3,15 3,10.333334 3,5.6666664 3,1 Z" />
  <path
     style="display:inline;fill:none;stroke:url(#linearGradient3019);stroke-width:0.99992192;stroke-linecap:butt;stroke-linejoin:round;stroke-miterlimit:4;stroke-dasharray:none;stroke-dashoffset:0;stroke-opacity:1"
     id="path4160-8"
     d="m 2.4999621,0.49997396 c 2.5206756,0 11.0000629,9.54e-4 11.0000629,9.54e-4 l 1.3e-5,14.99909804 c 0,0 -7.3333841,0 -11.000076,0 0,-5.000017 0,-10.000035 0,-15.00005204 z" />
  <path
     d="m 11.5,8.0000001 c 0,-1.9400173 -1.5599826,-3.4999994 -3.5000009,-3.4999994 -1.9400173,0 -3.4999992,1.5599822 -3.4999992,3.4999994 0,1.9400172 1.5599819,3.4999989 3.4999992,3.4999989 C 9.9400166,11.499998 11.5,9.9400173 11.5,8.0000001 Z m -2.3333335,0 c 0,0.6038405 -0.4638238,1.1666662 -1.1666674,1.1666662 -0.7028428,0 -1.1666659,-0.6097035 -1.1666659,-1.1666662 0,-0.5726081 0.4829954,-1.1666665 1.1666659,-1.1666665 0.699307,0 1.1666674,0.5626231 1.1666674,1.1666665 z"
     id="path2781"
     style="fill:url(#linearGradient3270);fill-rule:nonzero;stroke:url(#linearGradient3272);stroke-width:1;stroke-miterlimit:4;stroke-opacity:1" />
</svg>
