<?xml version="1.0" encoding="UTF-8" standalone="no"?>
<svg
   xmlns:dc="http://purl.org/dc/elements/1.1/"
   xmlns:cc="http://creativecommons.org/ns#"
   xmlns:rdf="http://www.w3.org/1999/02/22-rdf-syntax-ns#"
   xmlns:svg="http://www.w3.org/2000/svg"
   xmlns="http://www.w3.org/2000/svg"
   xmlns:xlink="http://www.w3.org/1999/xlink"
   id="svg3810"
   height="16"
   width="16"
   version="1.1">
  <defs
     id="defs3812">
    <linearGradient
       id="linearGradient3104-9">
      <stop
         offset="0"
         style="stop-color:#000000;stop-opacity:0.33950618"
         id="stop3106-5" />
      <stop
         offset="1"
         style="stop-color:#000000;stop-opacity:0.24691358"
         id="stop3108-5" />
    </linearGradient>
    <linearGradient
       gradientTransform="matrix(0.25378586,0,0,0.30501865,19.128979,-0.68547704)"
       gradientUnits="userSpaceOnUse"
       xlink:href="#linearGradient3104-9"
       id="linearGradient3019"
       y2="2.9062471"
       x2="-51.786404"
       y1="50.786446"
       x1="-51.786404" />
    <linearGradient
       xlink:href="#linearGradient994"
       id="linearGradient996"
       x1="33.503624"
       y1="0.39035916"
       x2="33.503624"
       y2="59.221642"
       gradientUnits="userSpaceOnUse"
       gradientTransform="matrix(0.26447508,0,0,0.26194425,-0.46320276,0.14168537)" />
    <linearGradient
       id="linearGradient994">
      <stop
         style="stop-color:#f9c440;stop-opacity:1"
         offset="0"
         id="stop990" />
      <stop
         style="stop-color:#d48e15;stop-opacity:1"
         offset="1"
         id="stop992" />
    </linearGradient>
  </defs>
  <metadata
     id="metadata3815">
    <rdf:RDF>
      <cc:Work
         rdf:about="">
        <dc:format>image/svg+xml</dc:format>
        <dc:type
           rdf:resource="http://purl.org/dc/dcmitype/StillImage" />
        <dc:title />
      </cc:Work>
    </rdf:RDF>
  </metadata>
  <path
     d="m 3,1 c 2.2915074,0 9.999988,8.904e-4 9.999988,8.904e-4 L 13,15 C 13,15 6.3333332,15 3,15 3,10.333334 3,5.6666664 3,1 Z"
     id="path4160"
     style="display:inline;fill:#fafafa;fill-opacity:1;stroke:none" />
  <path
     d="m 2.4999621,0.49997396 c 2.5206756,0 11.0000629,9.54e-4 11.0000629,9.54e-4 l 1.3e-5,14.99909804 c 0,0 -7.3333841,0 -11.000076,0 0,-5.000017 0,-10.000035 0,-15.00005204 z"
     id="path4160-8"
     style="display:inline;fill:none;stroke:url(#linearGradient3019);stroke-width:0.99992192;stroke-linecap:butt;stroke-linejoin:round;stroke-miterlimit:4;stroke-dasharray:none;stroke-dashoffset:0;stroke-opacity:1" />
  <path
     d="m 6.2463768,5 v 3.9708066 c 0,0.6093752 -0.232904,0.7660357 -0.6376823,0.7660357 -0.4234608,0 -0.7173867,-0.2615136 -0.9116823,-0.6007401 L 3.6956521,9.7368423 c 0.2901931,0.6081417 1.0013601,1.2631587 1.9877737,1.2631587 1.0910334,0 1.8383129,-0.574836 1.8383129,-1.8367607 V 5 Z M 10.216938,5 C 9.1308873,5 8.4346711,5.6883228 8.4346711,6.5925169 c 0,0.9806739 0.5841232,1.4444899 1.4621792,1.8145552 l 0.3038977,0.1295234 c 0.554234,0.240543 0.828237,0.3873351 0.828237,0.8005757 0,0.344161 -0.264038,0.5933392 -0.768454,0.5933392 -0.6003165,0 -0.8842873,-0.403372 -1.144591,-0.8252471 l -0.9565208,0.631579 c 0.3574503,0.6994247 0.9988713,1.2631587 2.1285128,1.2631587 1.155798,0 2.016416,-0.594572 2.016416,-1.6788661 0,-1.0065789 -0.582879,-1.4543586 -1.617864,-1.8935033 L 10.382586,7.2993422 C 9.8607342,7.0748358 9.6340578,6.9292776 9.6340578,6.5678444 c 0,-0.2923519 0.2266764,-0.516856 0.5828812,-0.5168591 0.349979,0 0.574158,0.1467949 0.782156,0.5168591 L 11.946899,5.9658706 C 11.547105,5.2664474 10.990374,5 10.216938,5 Z"
     id="path16"
     style="fill:url(#linearGradient996);fill-opacity:1;stroke-width:0.99999982" />
</svg>
