<?xml version="1.0" encoding="UTF-8" standalone="no"?>
<svg
   xmlns:dc="http://purl.org/dc/elements/1.1/"
   xmlns:cc="http://creativecommons.org/ns#"
   xmlns:rdf="http://www.w3.org/1999/02/22-rdf-syntax-ns#"
   xmlns:svg="http://www.w3.org/2000/svg"
   xmlns="http://www.w3.org/2000/svg"
   xmlns:xlink="http://www.w3.org/1999/xlink"
   id="svg3810"
   height="16"
   width="16"
   version="1.1">
  <defs
     id="defs3812">
    <linearGradient
       id="linearGradient3104-9">
      <stop
         offset="0"
         style="stop-color:#000000;stop-opacity:0.33950618"
         id="stop3106-5" />
      <stop
         offset="1"
         style="stop-color:#000000;stop-opacity:0.24691358"
         id="stop3108-5" />
    </linearGradient>
    <linearGradient
       gradientTransform="matrix(0.25378586,0,0,0.30501865,19.128979,-0.68547704)"
       gradientUnits="userSpaceOnUse"
       xlink:href="#linearGradient3104-9"
       id="linearGradient3019"
       y2="2.9062471"
       x2="-51.786404"
       y1="50.786446"
       x1="-51.786404" />
    <linearGradient
       id="linearGradient4417">
      <stop
         id="stop4419"
         offset="0"
         style="stop-color:#ffa154;stop-opacity:1" />
      <stop
         id="stop4421"
         offset="1"
         style="stop-color:#cc3b02;stop-opacity:1" />
    </linearGradient>
    <linearGradient
       xlink:href="#linearGradient4417"
       id="linearGradient4236"
       gradientUnits="userSpaceOnUse"
       gradientTransform="matrix(0.2529987,-0.06188599,0.07145079,0.18134844,-4.1592307,2.5785007)"
       x1="43.141579"
       y1="3.4214787"
       x2="21.736967"
       y2="79.212646" />
  </defs>
  <metadata
     id="metadata3815">
    <rdf:RDF>
      <cc:Work
         rdf:about="">
        <dc:format>image/svg+xml</dc:format>
        <dc:type
           rdf:resource="http://purl.org/dc/dcmitype/StillImage" />
        <dc:title />
      </cc:Work>
    </rdf:RDF>
  </metadata>
  <path
     d="m 3,1 c 2.2915074,0 9.999988,8.904e-4 9.999988,8.904e-4 L 13,15 C 13,15 6.3333332,15 3,15 3,10.333334 3,5.6666664 3,1 Z"
     id="path4160"
     style="display:inline;fill:#fafafa;fill-opacity:1;stroke:none" />
  <path
     d="m 2.4999621,0.49997396 c 2.5206756,0 11.0000629,9.54e-4 11.0000629,9.54e-4 l 1.3e-5,14.99909804 c 0,0 -7.3333841,0 -11.000076,0 0,-5.000017 0,-10.000035 0,-15.00005204 z"
     id="path4160-8"
     style="display:inline;fill:none;stroke:url(#linearGradient3019);stroke-width:0.99992192;stroke-linecap:butt;stroke-linejoin:round;stroke-miterlimit:4;stroke-dasharray:none;stroke-dashoffset:0;stroke-opacity:1" />
  <path
     style="color:#000000;clip-rule:nonzero;display:inline;overflow:visible;visibility:visible;opacity:1;isolation:auto;mix-blend-mode:normal;color-interpolation:sRGB;color-interpolation-filters:linearRGB;solid-color:#000000;solid-opacity:1;fill:url(#linearGradient4236);fill-opacity:1;fill-rule:nonzero;stroke:none;stroke-width:1.0022527;stroke-linecap:butt;stroke-linejoin:miter;stroke-miterlimit:4;stroke-dasharray:none;stroke-dashoffset:0;stroke-opacity:1;marker:none;color-rendering:auto;image-rendering:auto;shape-rendering:auto;text-rendering:auto;enable-background:accumulate"
     d="M 10.722656 4.0058594 C 10.668132 3.995603 10.608 3.9982973 10.544922 4.015625 L 6.4550781 5.1386719 C 6.2027663 5.2079828 6 5.4866719 6 5.7636719 L 6 6.3261719 L 6 6.609375 L 6 11.025391 A 0.98817231 1.5078181 82.261693 0 0 5.1308594 11.064453 A 0.98817231 1.5078181 82.261693 0 0 4.046875 12.355469 A 0.98817231 1.5078181 82.261693 0 0 5.8691406 12.935547 A 0.98817231 1.5078181 82.261693 0 0 6.9980469 11.849609 L 7 11.849609 L 7 6.8339844 L 10 6.0117188 L 10 10.025391 A 0.98817231 1.5078181 82.261693 0 0 9.1308594 10.064453 A 0.98817231 1.5078181 82.261693 0 0 8.046875 11.355469 A 0.98817231 1.5078181 82.261693 0 0 9.8691406 11.935547 A 0.98817231 1.5078181 82.261693 0 0 10.998047 10.882812 L 11 10.882812 L 11 5.2363281 L 11 4.390625 C 11 4.182875 10.886229 4.0366285 10.722656 4.0058594 z "
     id="path4192" />
</svg>
