<?xml version="1.0" encoding="UTF-8" standalone="no"?>
<svg
   xmlns:dc="http://purl.org/dc/elements/1.1/"
   xmlns:cc="http://creativecommons.org/ns#"
   xmlns:rdf="http://www.w3.org/1999/02/22-rdf-syntax-ns#"
   xmlns:svg="http://www.w3.org/2000/svg"
   xmlns="http://www.w3.org/2000/svg"
   xmlns:xlink="http://www.w3.org/1999/xlink"
   version="1.1"
   width="16"
   height="16"
   id="svg3810">
  <defs
     id="defs3812">
    <linearGradient
       id="linearGradient3104-9">
      <stop
         id="stop3106-5"
         style="stop-color:#000000;stop-opacity:0.33950618"
         offset="0" />
      <stop
         id="stop3108-5"
         style="stop-color:#000000;stop-opacity:0.24691358"
         offset="1" />
    </linearGradient>
    <linearGradient
       x1="-51.786404"
       y1="50.786446"
       x2="-51.786404"
       y2="2.9062471"
       id="linearGradient3019"
       xlink:href="#linearGradient3104-9"
       gradientUnits="userSpaceOnUse"
       gradientTransform="matrix(0.25378586,0,0,0.30501865,19.128979,-0.68547704)" />
    <linearGradient
       gradientTransform="matrix(0.26398086,0,0,0.26010927,11.766914,1.7076502)"
       gradientUnits="userSpaceOnUse"
       y2="39.569332"
       x2="-17.375"
       y1="-2.720588"
       x1="-17.375"
       id="linearGradient1063"
       xlink:href="#linearGradient1061" />
    <linearGradient
       id="linearGradient1061">
      <stop
         id="stop1057"
         offset="0"
         style="stop-color:#4d4d4d;stop-opacity:1" />
      <stop
         id="stop1059"
         offset="1"
         style="stop-color:#333333;stop-opacity:1" />
    </linearGradient>
    <linearGradient
       gradientTransform="matrix(0.26248216,0,0,0.26248216,-0.25251212,0.70073985)"
       gradientUnits="userSpaceOnUse"
       y2="44.5"
       x2="44"
       y1="0"
       x1="44"
       id="linearGradient1071"
       xlink:href="#linearGradient1069" />
    <linearGradient
       id="linearGradient1069">
      <stop
         id="stop1065"
         offset="0"
         style="stop-color:#ed5353;stop-opacity:1" />
      <stop
         id="stop1067"
         offset="1"
         style="stop-color:#c6262e;stop-opacity:1" />
    </linearGradient>
  </defs>
  <metadata
     id="metadata3815">
    <rdf:RDF>
      <cc:Work
         rdf:about="">
        <dc:format>image/svg+xml</dc:format>
        <dc:type
           rdf:resource="http://purl.org/dc/dcmitype/StillImage" />
        <dc:title />
      </cc:Work>
    </rdf:RDF>
  </metadata>
  <path
     style="display:inline;fill:#fafafa;fill-opacity:1;stroke:none"
     id="path4160"
     d="m 3,1 c 2.2915074,0 9.999988,8.904e-4 9.999988,8.904e-4 L 13,15 C 13,15 6.3333332,15 3,15 3,10.333334 3,5.6666664 3,1 Z" />
  <path
     style="display:inline;fill:none;stroke:url(#linearGradient3019);stroke-width:0.99992192;stroke-linecap:butt;stroke-linejoin:round;stroke-miterlimit:4;stroke-dasharray:none;stroke-dashoffset:0;stroke-opacity:1"
     id="path4160-8"
     d="m 2.4999621,0.49997396 c 2.5206756,0 11.0000629,9.54e-4 11.0000629,9.54e-4 l 1.3e-5,14.99909804 c 0,0 -7.3333841,0 -11.000076,0 0,-5.000017 0,-10.000035 0,-15.00005204 z" />
  <path
     id="text942"
     d="M 10.38751,6.9485705 C 9.8133289,6.9485702 9.322884,7.14509 8.9161734,7.5381298 8.5094625,7.9311695 8.1967398,8.4284501 7.9780048,9.0299718 7.8788908,9.3033908 7.805409,9.5785186 7.7575606,9.8553552 7.7097126,10.128775 7.6857886,10.403902 7.6857886,10.68074 c 0,0.273419 0.039303,0.517786 0.1179117,0.733104 0.2187353,0.598103 0.6391168,0.897156 1.2611449,0.897156 0.6220276,0 1.1500678,-0.324685 1.5841208,-0.974056 0.04101,0.311015 0.150381,0.551965 0.328103,0.722852 0.177722,0.167469 0.405002,0.251204 0.681839,0.251204 0.280253,0 0.510951,-0.09912 0.69209,-0.297343 0.102533,-0.116203 0.22728,-0.370825 0.374243,-0.763865 -0.06152,0.03076 -0.138419,0.04614 -0.230698,0.04614 -0.287089,0 -0.430634,-0.119621 -0.430634,-0.358862 0,-0.126457 0.01538,-0.249495 0.04614,-0.369116 l 0.753611,-3.5681177 -1.512348,0 -0.112785,0.5587999 0,-0.076898 c 0,-0.1537983 -0.06665,-0.2802546 -0.199937,-0.3793689 -0.133293,-0.102533 -0.35032,-0.1537988 -0.65108,-0.1537988 z m 0.281963,0.6510785 c 0.194811,0 0.321267,0.051266 0.379369,0.1537983 0.06152,0.099114 0.09228,0.18114 0.09228,0.246077 l -0.502407,2.3684917 c -0.06494,0.28709 -0.182849,0.51437 -0.353736,0.681839 -0.170886,0.164051 -0.3605711,0.246077 -0.5690531,0.246077 -0.112786,0 -0.2067734,-0.03759 -0.2819635,-0.112786 -0.129874,-0.123039 -0.1948111,-0.340064 -0.1948111,-0.651079 0,-0.160633 0.00854,-0.312723 0.025633,-0.456268 C 9.3775723,9.1359217 9.6561179,8.4147792 10.100424,7.9123719 10.284982,7.7038902 10.474667,7.599649 10.669476,7.599649 Z"
     style="font-style:normal;font-weight:normal;font-size:40px;line-height:1.25;font-family:sans-serif;letter-spacing:0px;word-spacing:0px;fill:url(#linearGradient1071);fill-opacity:1;stroke:none;stroke-width:1" />
  <path
     id="text68"
     d="M 5.8225312,4.9995246 3.303,11.999525 l 1.6308594,0 0.6775781,-2.0000004 2.2472768,0 0.7118638,2.0000004 1.6308599,0 -2.5292974,-7.0000004 z m 0.9316406,1.0820312 0.9375,2.9179688 -1.859375,0 z"
     style="font-style:normal;font-variant:normal;font-weight:bold;font-stretch:normal;font-size:9.88213921px;line-height:1.25;font-family:'Open Sans';-inkscape-font-specification:'Open Sans Bold';letter-spacing:0px;word-spacing:0px;opacity:1;fill:url(#linearGradient1063);fill-opacity:1;stroke:none;stroke-width:1;stroke-linecap:butt;stroke-linejoin:miter;stroke-miterlimit:4;stroke-dasharray:none;stroke-dashoffset:0;stroke-opacity:1" />
</svg>
