<?xml version="1.0" encoding="UTF-8" standalone="no"?>
<svg
   xmlns:dc="http://purl.org/dc/elements/1.1/"
   xmlns:cc="http://creativecommons.org/ns#"
   xmlns:rdf="http://www.w3.org/1999/02/22-rdf-syntax-ns#"
   xmlns:svg="http://www.w3.org/2000/svg"
   xmlns="http://www.w3.org/2000/svg"
   xmlns:xlink="http://www.w3.org/1999/xlink"
   id="svg3810"
   height="16"
   width="16"
   version="1.1">
  <defs
     id="defs3812">
    <linearGradient
       id="linearGradient3104-9">
      <stop
         offset="0"
         style="stop-color:#000000;stop-opacity:0.33950618"
         id="stop3106-5" />
      <stop
         offset="1"
         style="stop-color:#000000;stop-opacity:0.24691358"
         id="stop3108-5" />
    </linearGradient>
    <linearGradient
       gradientTransform="matrix(0.25378586,0,0,0.30501865,19.128979,-0.68547704)"
       gradientUnits="userSpaceOnUse"
       xlink:href="#linearGradient3104-9"
       id="linearGradient3019"
       y2="2.9062471"
       x2="-51.786404"
       y1="50.786446"
       x1="-51.786404" />
  </defs>
  <metadata
     id="metadata3815">
    <rdf:RDF>
      <cc:Work
         rdf:about="">
        <dc:format>image/svg+xml</dc:format>
        <dc:type
           rdf:resource="http://purl.org/dc/dcmitype/StillImage" />
        <dc:title />
      </cc:Work>
    </rdf:RDF>
  </metadata>
  <path
     d="m 3,1 c 2.2915074,0 9.999988,8.904e-4 9.999988,8.904e-4 L 13,15 C 13,15 6.3333332,15 3,15 3,10.333334 3,5.6666664 3,1 Z"
     id="path4160"
     style="display:inline;fill:#fafafa;fill-opacity:1;stroke:none" />
  <path
     d="m 2.4999621,0.49997396 c 2.5206756,0 11.0000629,9.54e-4 11.0000629,9.54e-4 l 1.3e-5,14.99909804 c 0,0 -7.3333841,0 -11.000076,0 0,-5.000017 0,-10.000035 0,-15.00005204 z"
     id="path4160-8"
     style="display:inline;fill:none;stroke:url(#linearGradient3019);stroke-width:0.99992192;stroke-linecap:butt;stroke-linejoin:round;stroke-miterlimit:4;stroke-dasharray:none;stroke-dashoffset:0;stroke-opacity:1" />
  <path
     style="color:#000000;fill:#343434;fill-opacity:1;fill-rule:nonzero;stroke:#343434;stroke-width:0.99999976;stroke-linecap:round;stroke-linejoin:round;stroke-miterlimit:4;stroke-opacity:1;stroke-dasharray:none;stroke-dashoffset:0;marker:none;visibility:visible;display:inline;overflow:visible;enable-background:accumulate"
     id="path3107"
     d="M 7.9736781,5.5134934 C 7.4892365,5.4815558 7.0166035,5.7619615 6.734785,6.1418136 6.4605709,6.6316038 6.6844869,7.2150579 6.5132852,7.7320756 6.4091517,8.1022002 6.5120429,8.4968528 6.7853304,8.7657415 7.0179072,9.0564835 7.3043388,9.4353534 7.1448971,9.8259352 6.9141284,10.265576 6.4543203,10.522958 6.0355545,10.757543 c -0.271372,0.109443 -0.7940598,0.383962 -0.4501728,0.709984 0.1560121,0.101982 0.3382908,-0.01026 0.5123215,0.02257 1.4674209,0 2.9348416,0 4.4022628,0 0,-0.176524 0,-0.353049 0,-0.529573 C 9.9407128,10.65933 9.3090248,10.36914 8.9946323,9.7829776 8.888063,9.3224911 9.2161028,8.9190674 9.5031288,8.5993209 9.7859368,8.2429598 9.6727548,7.773055 9.5740148,7.3747488 9.5322558,6.9340823 9.6760318,6.4136996 9.3445978,6.0525857 8.9862587,5.6922785 8.4683724,5.5454886 7.9736781,5.5134934 z" />
</svg>
