<?xml version="1.0" encoding="UTF-8" standalone="no"?>
<svg
   xmlns:dc="http://purl.org/dc/elements/1.1/"
   xmlns:cc="http://creativecommons.org/ns#"
   xmlns:rdf="http://www.w3.org/1999/02/22-rdf-syntax-ns#"
   xmlns:svg="http://www.w3.org/2000/svg"
   xmlns="http://www.w3.org/2000/svg"
   xmlns:xlink="http://www.w3.org/1999/xlink"
   xmlns:sodipodi="http://sodipodi.sourceforge.net/DTD/sodipodi-0.dtd"
   xmlns:inkscape="http://www.inkscape.org/namespaces/inkscape"
   id="svg3810"
   height="16"
   width="16"
   version="1.1"
   sodipodi:docname="text-x-c++src.svg"
   inkscape:version="0.92.3 (2405546, 2018-03-11)">
  <sodipodi:namedview
     pagecolor="#ffffff"
     bordercolor="#666666"
     borderopacity="1"
     objecttolerance="10"
     gridtolerance="10"
     guidetolerance="10"
     inkscape:pageopacity="0"
     inkscape:pageshadow="2"
     inkscape:window-width="1920"
     inkscape:window-height="1025"
     id="namedview11"
     showgrid="false"
     inkscape:zoom="29.5"
     inkscape:cx="0.85821648"
     inkscape:cy="6.8579829"
     inkscape:window-x="0"
     inkscape:window-y="0"
     inkscape:window-maximized="1"
     inkscape:current-layer="svg3810"
     showguides="false">
    <inkscape:grid
       type="xygrid"
       id="grid830" />
  </sodipodi:namedview>
  <defs
     id="defs3812">
    <linearGradient
       id="linearGradient3104-9">
      <stop
         offset="0"
         style="stop-color:#000000;stop-opacity:0.33950618"
         id="stop3106-5" />
      <stop
         offset="1"
         style="stop-color:#000000;stop-opacity:0.24691358"
         id="stop3108-5" />
    </linearGradient>
    <linearGradient
       gradientTransform="matrix(0.25378586,0,0,0.30501865,19.128979,-0.68547704)"
       gradientUnits="userSpaceOnUse"
       xlink:href="#linearGradient3104-9"
       id="linearGradient3019"
       y2="2.9062471"
       x2="-51.786404"
       y1="50.786446"
       x1="-51.786404" />
  </defs>
  <metadata
     id="metadata3815">
    <rdf:RDF>
      <cc:Work
         rdf:about="">
        <dc:format>image/svg+xml</dc:format>
        <dc:type
           rdf:resource="http://purl.org/dc/dcmitype/StillImage" />
        <dc:title />
      </cc:Work>
    </rdf:RDF>
  </metadata>
  <path
     d="m 3,1 c 2.2915074,0 9.999988,8.904e-4 9.999988,8.904e-4 L 13,15 C 13,15 6.3333332,15 3,15 3,10.333334 3,5.6666664 3,1 Z"
     id="path4160"
     style="display:inline;fill:#fafafa;fill-opacity:1;stroke:none" />
  <path
     d="m 2.4999621,0.49997396 c 2.5206756,0 11.0000629,9.54e-4 11.0000629,9.54e-4 l 1.3e-5,14.99909804 c 0,0 -7.3333841,0 -11.000076,0 0,-5.000017 0,-10.000035 0,-15.00005204 z"
     id="path4160-8"
     style="display:inline;fill:none;stroke:url(#linearGradient3019);stroke-width:0.99992192;stroke-linecap:butt;stroke-linejoin:round;stroke-miterlimit:4;stroke-dasharray:none;stroke-dashoffset:0;stroke-opacity:1" />
  <path
     sodipodi:nodetypes="csscscccssscc"
     inkscape:connector-curvature="0"
     id="path4331-1-2"
     style="font-style:normal;font-variant:normal;font-weight:600;font-stretch:normal;font-size:20px;line-height:125%;font-family:'URW Gothic';-inkscape-font-specification:'URW Gothic Semi-Bold';letter-spacing:0px;word-spacing:0px;fill:#68b723;fill-opacity:1;stroke:none;stroke-width:0.35955745px;stroke-linecap:butt;stroke-linejoin:miter;stroke-opacity:1"
     d="m 7.3649287,11.176469 c -0.4679465,0.49412 -0.8591794,0.788232 -1.4038387,0.788232 -1.0509589,0 -1.9024645,-0.894112 -1.9024645,-1.9764646 0,-0.470586 0.1764397,-0.972552 0.467946,-1.3176454 0.3452063,-0.415686 0.8361657,-0.6352919 1.4115051,-0.6352919 0.6597259,0 1.1046588,0.2784257 1.4882184,0.7882319 H 8.5999935 C 8.3775272,8.3215719 8.1780743,8.0470591 7.7945149,7.7254922 7.2728681,7.2941193 6.6054759,6.9999997 5.9150633,6.9999997 4.3117785,6.9999997 3,8.3411782 3,9.9803901 3,11.658822 4.3271184,13 5.9841032,13 7.1501285,13 8.1550609,12.235294 8.5999935,11.176469 Z" />
  <g
     id="g837"
     transform="translate(0,-3)">
    <path
       d="M 7,7 H 6 V 7.99999 H 7 V 9 H 8 V 7.99999 H 9 V 7 H 8 V 6 H 7 Z"
       style="font-style:normal;font-variant:normal;font-weight:600;font-stretch:normal;font-size:20px;line-height:125%;font-family:'URW Gothic';-inkscape-font-specification:'URW Gothic Semi-Bold';letter-spacing:0px;word-spacing:0px;fill:#68b723;fill-opacity:1;stroke:none;stroke-width:0.5393368px;stroke-linecap:butt;stroke-linejoin:miter;stroke-opacity:1"
       id="path4333-7-3"
       inkscape:connector-curvature="0"
       sodipodi:nodetypes="ccccccccccccc" />
    <path
       d="m 11,7 h -1 v 1 h 1 v 1 h 1 V 8 h 1 V 7 H 12 V 6 h -1 z"
       style="font-style:normal;font-variant:normal;font-weight:600;font-stretch:normal;font-size:20px;line-height:125%;font-family:'URW Gothic';-inkscape-font-specification:'URW Gothic Semi-Bold';letter-spacing:0px;word-spacing:0px;fill:#68b723;fill-opacity:1;stroke:none;stroke-width:1px;stroke-linecap:butt;stroke-linejoin:miter;stroke-opacity:1"
       id="path4333-7-2"
       inkscape:connector-curvature="0"
       sodipodi:nodetypes="ccccccccccccc" />
  </g>
</svg>
