<?xml version="1.0" encoding="UTF-8" standalone="no"?>
<svg
   xmlns:dc="http://purl.org/dc/elements/1.1/"
   xmlns:cc="http://creativecommons.org/ns#"
   xmlns:rdf="http://www.w3.org/1999/02/22-rdf-syntax-ns#"
   xmlns:svg="http://www.w3.org/2000/svg"
   xmlns="http://www.w3.org/2000/svg"
   xmlns:xlink="http://www.w3.org/1999/xlink"
   version="1.1"
   width="16"
   height="16"
   id="svg3810">
  <defs
     id="defs3812">
    <linearGradient
       id="linearGradient3104-9">
      <stop
         id="stop3106-5"
         style="stop-color:#000000;stop-opacity:0.33950618"
         offset="0" />
      <stop
         id="stop3108-5"
         style="stop-color:#000000;stop-opacity:0.24691358"
         offset="1" />
    </linearGradient>
    <linearGradient
       x1="-51.786404"
       y1="50.786446"
       x2="-51.786404"
       y2="2.9062471"
       id="linearGradient3019"
       xlink:href="#linearGradient3104-9"
       gradientUnits="userSpaceOnUse"
       gradientTransform="matrix(0.25378586,0,0,0.30501865,19.128979,-0.68547704)" />
  </defs>
  <metadata
     id="metadata3815">
    <rdf:RDF>
      <cc:Work
         rdf:about="">
        <dc:format>image/svg+xml</dc:format>
        <dc:type
           rdf:resource="http://purl.org/dc/dcmitype/StillImage" />
        <dc:title />
      </cc:Work>
    </rdf:RDF>
  </metadata>
  <path
     style="display:inline;fill:#fafafa;fill-opacity:1;stroke:none"
     id="path4160"
     d="m 3,1 c 2.2915074,0 9.999988,8.904e-4 9.999988,8.904e-4 L 13,15 C 13,15 6.3333332,15 3,15 3,10.333334 3,5.6666664 3,1 Z" />
  <path
     style="display:inline;fill:none;stroke:url(#linearGradient3019);stroke-width:0.99992192;stroke-linecap:butt;stroke-linejoin:round;stroke-miterlimit:4;stroke-dasharray:none;stroke-dashoffset:0;stroke-opacity:1"
     id="path4160-8"
     d="m 2.4999621,0.49997396 c 2.5206756,0 11.0000629,9.54e-4 11.0000629,9.54e-4 l 1.3e-5,14.99909804 c 0,0 -7.3333841,0 -11.000076,0 0,-5.000017 0,-10.000035 0,-15.00005204 z" />
  <path
     id="path4498"
     d="M 8 4.8476562 C 7.6775952 4.8476562 7.4027418 5.0570984 7.2988281 5.3457031 L 6.5039062 5.3457031 C 6.1668874 5.3409331 6.1668875 5.8485163 6.5039062 5.84375 L 7.2988281 5.84375 C 7.3745221 6.0539771 7.4616479 6.2211814 7.671875 6.296875 L 7.671875 11.365234 L 5.9511719 11.365234 C 5.614153 11.360434 5.614153 12.008672 5.9511719 12.003906 L 10.138672 12.003906 C 10.475691 12.008706 10.475691 11.360468 10.138672 11.365234 L 8.3574219 11.365234 L 8.3574219 6.296875 C 8.5676491 6.2211814 8.6254784 6.0539771 8.7011719 5.84375 L 9.4941406 5.84375 C 9.8311596 5.84852 9.8311596 5.3409368 9.4941406 5.3457031 L 8.7011719 5.3457031 C 8.5972583 5.0570984 8.3224047 4.8476563 8 4.8476562 z M 5.5019531 6.4375 C 5.4067948 6.4372147 5.3177709 6.4929246 5.2753906 6.578125 L 4.0273438 9.0742188 C 4.0094698 9.1099688 4.0014051 9.1494885 4.0019531 9.1894531 L 4.0019531 9.3457031 C 4.0016554 9.3518035 4 9.3571033 4 9.3632812 L 4 9.3867188 C 4 9.3939888 4.0034862 9.4010381 4.0039062 9.4082031 L 4.0039062 9.4375 L 4 9.4375 C 4.00502 9.451697 4.0121871 9.4645326 4.0175781 9.4785156 C 4.0276781 9.5164536 4.0434731 9.5520724 4.0644531 9.5839844 C 4.3247585 10.137405 4.880941 10.499534 5.5019531 10.5 C 6.1226145 10.499102 6.6755376 10.137113 6.9355469 9.5839844 C 6.9565269 9.5520744 6.9723219 9.5164495 6.9824219 9.4785156 C 6.9878119 9.4645396 6.994984 9.451689 7 9.4375 L 7 9.3886719 L 7 9.3867188 L 7 9.3632812 L 7 9.3613281 L 6.9980469 9.1835938 C 6.9978294 9.1452738 6.9897832 9.1085 6.9726562 9.0742188 L 5.7246094 6.5761719 C 5.6822721 6.4919786 5.5961915 6.4377698 5.5019531 6.4375 z M 10.501953 6.4375 C 10.406793 6.4372147 10.317771 6.4929251 10.275391 6.578125 L 9.0273438 9.0742188 C 9.0094737 9.1099688 9.0014031 9.1494876 9.0019531 9.1894531 L 9.0019531 9.3457031 C 9.0017181 9.3518035 9 9.3571033 9 9.3632812 L 9 9.3867188 C 9 9.3939987 9.0035062 9.4010381 9.0039062 9.4082031 L 9.0039062 9.4375 L 9 9.4375 C 9.005 9.451697 9.0121881 9.4645316 9.0175781 9.4785156 C 9.0276781 9.5164536 9.0434831 9.5520734 9.0644531 9.5839844 C 9.3247591 10.137405 9.8809411 10.499534 10.501953 10.5 C 11.122614 10.4991 11.675538 10.137113 11.935547 9.5839844 C 11.956527 9.5520744 11.972322 9.5164487 11.982422 9.4785156 C 11.987822 9.4645396 11.99498 9.451688 12 9.4375 L 12 9.3886719 L 12 9.3867188 L 12 9.3632812 L 12 9.3613281 L 11.998047 9.1835938 C 11.997829 9.1452737 11.989826 9.1084999 11.972656 9.0742188 L 10.724609 6.5761719 C 10.682272 6.4919787 10.596191 6.4377699 10.501953 6.4375 z M 5.5 7.2460938 L 6.3769531 9 L 4.6230469 9 L 5.5 7.2460938 z M 10.5 7.2460938 L 11.375 9 L 9.6230469 9 L 10.5 7.2460938 z "
     style="color:#000000;font-style:normal;font-variant:normal;font-weight:normal;font-stretch:normal;font-size:medium;line-height:normal;font-family:sans-serif;font-variant-ligatures:normal;font-variant-position:normal;font-variant-caps:normal;font-variant-numeric:normal;font-variant-alternates:normal;font-feature-settings:normal;text-indent:0;text-align:start;text-decoration:none;text-decoration-line:none;text-decoration-style:solid;text-decoration-color:#000000;letter-spacing:normal;word-spacing:normal;text-transform:none;writing-mode:lr-tb;direction:ltr;text-orientation:mixed;dominant-baseline:auto;baseline-shift:baseline;text-anchor:start;white-space:normal;shape-padding:0;clip-rule:nonzero;display:inline;overflow:visible;visibility:visible;opacity:1;isolation:auto;mix-blend-mode:normal;color-interpolation:sRGB;color-interpolation-filters:linearRGB;solid-color:#000000;solid-opacity:1;vector-effect:none;fill:#7e8087;fill-opacity:1;fill-rule:nonzero;stroke:none;stroke-width:1;stroke-linecap:round;stroke-linejoin:round;stroke-miterlimit:4;stroke-dasharray:none;stroke-dashoffset:0;stroke-opacity:1;color-rendering:auto;image-rendering:auto;shape-rendering:auto;text-rendering:auto;enable-background:accumulate" />
</svg>
