<?xml version="1.0" encoding="UTF-8" standalone="no"?>
<svg
   xmlns:dc="http://purl.org/dc/elements/1.1/"
   xmlns:cc="http://creativecommons.org/ns#"
   xmlns:rdf="http://www.w3.org/1999/02/22-rdf-syntax-ns#"
   xmlns:svg="http://www.w3.org/2000/svg"
   xmlns="http://www.w3.org/2000/svg"
   xmlns:xlink="http://www.w3.org/1999/xlink"
   id="svg3810"
   height="16"
   width="16"
   version="1.1">
  <defs
     id="defs3812">
    <linearGradient
       id="linearGradient3104-9">
      <stop
         offset="0"
         style="stop-color:#000000;stop-opacity:0.33950618"
         id="stop3106-5" />
      <stop
         offset="1"
         style="stop-color:#000000;stop-opacity:0.24691358"
         id="stop3108-5" />
    </linearGradient>
    <linearGradient
       gradientTransform="matrix(0.25378586,0,0,0.30501865,19.128979,-0.68547704)"
       gradientUnits="userSpaceOnUse"
       xlink:href="#linearGradient3104-9"
       id="linearGradient3019"
       y2="2.9062471"
       x2="-51.786404"
       y1="50.786446"
       x1="-51.786404" />
  </defs>
  <metadata
     id="metadata3815">
    <rdf:RDF>
      <cc:Work
         rdf:about="">
        <dc:format>image/svg+xml</dc:format>
        <dc:type
           rdf:resource="http://purl.org/dc/dcmitype/StillImage" />
        <dc:title />
      </cc:Work>
    </rdf:RDF>
  </metadata>
  <path
     d="m 3,1 c 2.2915074,0 9.999988,8.904e-4 9.999988,8.904e-4 L 13,15 C 13,15 6.3333332,15 3,15 3,10.333334 3,5.6666664 3,1 Z"
     id="path4160"
     style="display:inline;fill:#fafafa;fill-opacity:1;stroke:none" />
  <path
     d="m 2.4999621,0.49997396 c 2.5206756,0 11.0000629,9.54e-4 11.0000629,9.54e-4 l 1.3e-5,14.99909804 c 0,0 -7.3333841,0 -11.000076,0 0,-5.000017 0,-10.000035 0,-15.00005204 z"
     id="path4160-8"
     style="display:inline;fill:none;stroke:url(#linearGradient3019);stroke-width:0.99992192;stroke-linecap:butt;stroke-linejoin:round;stroke-miterlimit:4;stroke-dasharray:none;stroke-dashoffset:0;stroke-opacity:1" />
  <path
     id="path3402"
     style="fill:#cd4a9c;fill-opacity:1;fill-rule:nonzero;stroke:none"
     d="m 6.7505961,10.103457 c 0.091589,0.338816 0.081544,0.654766 -0.013062,0.940898 -0.010506,0.03177 -0.022092,0.06322 -0.034657,0.09429 -0.01257,0.03102 -0.02617,0.0617 -0.040752,0.09198 -0.072973,0.151383 -0.1708829,0.293084 -0.2907889,0.423873 -0.3657883,0.399056 -0.8768493,0.54996 -1.0959936,0.422805 -0.2366402,-0.137158 -0.118107,-0.699807 0.3059872,-1.148079 0.4562504,-0.482328 1.1126891,-0.792416 1.1126891,-0.792416 l -0.00104,-0.0019 c 0.018904,-0.01019 0.038127,-0.02065 0.057575,-0.03139 z M 11.950745,4.4053918 C 11.665657,3.2872809 9.8116901,2.9197201 8.0570243,3.5430974 7.0127907,3.9140586 5.8823249,4.4963141 5.069503,5.256619 4.1030537,6.16058 3.9489313,6.947358 4.0124589,7.2761179 4.2365254,8.4361507 5.8260078,9.1944064 6.4794136,9.7569836 l 0,0.0034 c -0.1926666,0.09485 -1.6028548,0.8085014 -1.932866,1.5381014 -0.3482163,0.769705 0.055424,1.32205 0.3226605,1.3964 0.8279945,0.230361 1.6776609,-0.183989 2.1342658,-0.865077 0.4406443,-0.657272 0.4039611,-1.506022 0.2124671,-1.9282224 0.2641552,-0.06968 0.5721104,-0.100906 0.9634713,-0.05519 1.1043614,0.128996 1.3210501,0.8185674 1.2796165,1.1070894 -0.041401,0.288605 -0.2730438,0.44729 -0.3504884,0.495188 -0.077472,0.04793 -0.1010947,0.0645 -0.094567,0.100122 0.00938,0.05178 0.04523,0.04986 0.1112724,0.03867 0.090888,-0.01533 0.5798888,-0.234734 0.600794,-0.767439 C 9.7526671,10.143647 9.1045287,9.3870869 7.9569012,9.4068526 7.4842686,9.4149579 7.1870689,9.4599563 6.9724018,9.5398476 6.9565286,9.5217735 6.9403721,9.5037835 6.923677,9.4859705 6.2141883,8.7290127 4.9026055,8.193552 4.9582335,7.1759244 4.9784569,6.8059745 5.1070446,5.8318028 7.4784429,4.6501363 9.421032,3.6821808 10.976144,3.9485423 11.244899,4.5388919 11.628794,5.3822698 10.413777,6.9498299 8.3963875,7.1759244 7.6277762,7.2621023 7.223077,6.9641964 7.1224098,6.8532634 7.0164161,6.7364742 7.0006272,6.7312072 6.9610662,6.7531132 c -0.064483,0.035703 -0.02363,0.1388221 0,0.2003003 0.060217,0.156749 0.3073993,0.4347279 0.728799,0.5729996 0.3706842,0.1216603 1.2731171,0.1884935 2.3644768,-0.2336393 1.222273,-0.4728222 2.176745,-1.7880434 1.896406,-2.8874317" />
</svg>
