<?xml version="1.0" encoding="UTF-8" standalone="no"?>
<svg
   xmlns:dc="http://purl.org/dc/elements/1.1/"
   xmlns:cc="http://creativecommons.org/ns#"
   xmlns:rdf="http://www.w3.org/1999/02/22-rdf-syntax-ns#"
   xmlns:svg="http://www.w3.org/2000/svg"
   xmlns="http://www.w3.org/2000/svg"
   xmlns:xlink="http://www.w3.org/1999/xlink"
   id="svg3810"
   height="16"
   width="16"
   version="1.1">
  <defs
     id="defs3812">
    <linearGradient
       x1="-51.786404"
       y1="50.786446"
       x2="-51.786404"
       y2="2.9062471"
       id="linearGradient3019"
       xlink:href="#linearGradient3104-9"
       gradientUnits="userSpaceOnUse"
       gradientTransform="matrix(0.25378586,0,0,0.30501865,19.128979,-0.68547704)" />
    <linearGradient
       id="linearGradient3104-9">
      <stop
         id="stop3106-5"
         style="stop-color:#000000;stop-opacity:0.33950618"
         offset="0" />
      <stop
         id="stop3108-5"
         style="stop-color:#000000;stop-opacity:0.24691358"
         offset="1" />
    </linearGradient>
  </defs>
  <metadata
     id="metadata3815">
    <rdf:RDF>
      <cc:Work
         rdf:about="">
        <dc:format>image/svg+xml</dc:format>
        <dc:type
           rdf:resource="http://purl.org/dc/dcmitype/StillImage" />
        <dc:title />
      </cc:Work>
    </rdf:RDF>
  </metadata>
  <path
     style="display:inline;fill:#fafafa;fill-opacity:1;stroke:none"
     id="path4160-4"
     d="m 3,1 c 2.2915074,0 9.999988,8.904e-4 9.999988,8.904e-4 L 13,15 C 13,15 6.3333332,15 3,15 3,10.333334 3,5.6666664 3,1 Z" />
  <path
     style="display:inline;fill:none;stroke:url(#linearGradient3019);stroke-width:0.99992192;stroke-linecap:butt;stroke-linejoin:round;stroke-miterlimit:4;stroke-dasharray:none;stroke-dashoffset:0;stroke-opacity:1"
     id="path4160-8"
     d="m 2.4999621,0.49997396 c 2.5206756,0 11.0000629,9.54e-4 11.0000629,9.54e-4 l 1.3e-5,14.99909804 c 0,0 -7.3333841,0 -11.000076,0 0,-5.000017 0,-10.000035 0,-15.00005204 z" />
  <path
     style="fill:#343434;fill-opacity:1;stroke:#343434;stroke-width:1.00012147;stroke-linejoin:round;stroke-miterlimit:4;stroke-dasharray:none;stroke-opacity:1"
     id="path2880"
     d="M 7.1099894,6.4162585 C 7.0461935,6.954294 7.5768804,8.0776946 7.283047,8.5671174 6.1400164,8.9665468 4.0799126,9.6953723 3.9702299,10.174081 c -0.080987,0.743602 -0.2024625,1.828613 -0.2966702,2.571142 2.0038273,1.082385 6.7180383,1.030236 8.6528803,0 C 12.25817,12.218402 12.196932,10.700901 12.12866,10.174081 11.611552,9.5565971 10.24984,9.1952671 8.815843,8.5671174 8.4411312,8.0796503 9.00845,6.9902718 8.8900106,6.440981 8.6634131,6.4020207 7.3394634,6.4222117 7.1099894,6.4162585 Z" />
  <path
     style="fill:#343434;fill-opacity:1;stroke:#343434;stroke-width:0.94714093;stroke-miterlimit:4;stroke-dasharray:none;stroke-opacity:1"
     id="path2870"
     d="m 8.0247225,2.4359334 c -1.1038564,0 -2.0025238,0.7963796 -2.0025238,1.7800211 0.00866,0.3640269 0.046637,0.7954564 0.2719477,1.7800212 0.1332475,0.3816515 1.3242921,1.4055792 1.3350159,1.532796 0.2584128,0.1272161 0.6729603,0.1272161 0.9394556,0 0,-0.1272168 1.0534339,-1.1511445 1.1866808,-1.532796 0.2535363,-1.0232566 0.2583473,-1.3983693 0.2719473,-1.7800212 0,-0.9836415 -0.8986651,-1.7800211 -2.0025235,-1.7800211 z" />
</svg>
