<?xml version="1.0" encoding="UTF-8" standalone="no"?>
<svg
   xmlns:dc="http://purl.org/dc/elements/1.1/"
   xmlns:cc="http://creativecommons.org/ns#"
   xmlns:rdf="http://www.w3.org/1999/02/22-rdf-syntax-ns#"
   xmlns:svg="http://www.w3.org/2000/svg"
   xmlns="http://www.w3.org/2000/svg"
   xmlns:xlink="http://www.w3.org/1999/xlink"
   version="1.1"
   width="16"
   height="16"
   id="svg3063">
  <defs
     id="defs3065">
    <linearGradient
       x1="22.104254"
       y1="40.124432"
       x2="22.104254"
       y2="10.035408"
       id="linearGradient2580-0"
       xlink:href="#linearGradient5031-4"
       gradientUnits="userSpaceOnUse"
       gradientTransform="matrix(0.6655579,0,0,1.4407893,-1.8234977,-35.848874)" />
    <linearGradient
       id="linearGradient5031-4">
      <stop
         id="stop5033-8"
         style="stop-color:#a3a3a3;stop-opacity:1"
         offset="0" />
      <stop
         id="stop5035-8"
         style="stop-color:#bababa;stop-opacity:1"
         offset="1" />
    </linearGradient>
    <linearGradient
       x1="-51.786404"
       y1="50.786446"
       x2="-51.786404"
       y2="2.9062471"
       id="linearGradient3019"
       xlink:href="#linearGradient3104-9"
       gradientUnits="userSpaceOnUse"
       gradientTransform="matrix(0.25378586,0,0,0.30501865,19.128979,-0.68547704)" />
    <linearGradient
       id="linearGradient3104-9">
      <stop
         id="stop3106-5"
         style="stop-color:#000000;stop-opacity:0.33950618"
         offset="0" />
      <stop
         id="stop3108-5"
         style="stop-color:#000000;stop-opacity:0.24691358"
         offset="1" />
    </linearGradient>
  </defs>
  <metadata
     id="metadata3068">
    <rdf:RDF>
      <cc:Work
         rdf:about="">
        <dc:format>image/svg+xml</dc:format>
        <dc:type
           rdf:resource="http://purl.org/dc/dcmitype/StillImage" />
        <dc:title />
      </cc:Work>
    </rdf:RDF>
  </metadata>
  <path
     style="display:inline;fill:#fafafa;fill-opacity:1;stroke:none"
     id="path4160"
     d="m 3,1 c 2.2915074,0 9.999988,8.904e-4 9.999988,8.904e-4 L 13,15 C 13,15 6.3333332,15 3,15 3,10.333334 3,5.6666664 3,1 Z" />
  <path
     style="display:inline;fill:none;stroke:url(#linearGradient3019);stroke-width:0.99992192;stroke-linecap:butt;stroke-linejoin:round;stroke-miterlimit:4;stroke-dasharray:none;stroke-dashoffset:0;stroke-opacity:1"
     id="path4160-8"
     d="m 2.4999621,0.49997396 c 2.5206756,0 11.0000629,9.54e-4 11.0000629,9.54e-4 l 1.3e-5,14.99909804 c 0,0 -7.3333841,0 -11.000076,0 0,-5.000017 0,-10.000035 0,-15.00005204 z" />
  <path
     style="display:inline;fill:#b78ed4;fill-opacity:1;stroke:none"
     id="path3027"
     d="m 4,7 0,1 3.0625,0 0,-1 L 4,7 Z" />
  <path
     style="display:inline;fill:#d48eb3;fill-opacity:1;stroke:none"
     id="path3023"
     d="M 8,7 8,8 12,8 12,7 8,7 Z" />
  <path
     style="display:inline;fill:#89adc2;fill-opacity:1;stroke:none"
     id="path2940"
     d="m 10,5 0,1 1.90625,0 0,-1 L 10,5 Z m -3,0 0,1 2.15625,0 0,-1 L 7,5 Z m -3,0 0,1 2.3125,0 0,-1 L 4,5 Z M 7,3 7,4 9,4 9,3 7,3 Z M 4,3 4,4 6,4 6,3 4,3 Z" />
  <path
     style="display:inline;fill:#94d48e;fill-opacity:1;stroke:none"
     id="path3066"
     d="M 4,9 4,10 6,10 6,9 4,9 Z" />
  <path
     style="display:inline;fill:#de6161;fill-opacity:1;stroke:none"
     id="path4009"
     d="m 4,13 3.036746,0 0,1 L 4,14 4,13 Z" />
  <path
     style="display:inline;fill:url(#linearGradient2580-0);fill-opacity:1;stroke:none"
     id="path4007"
     d="m 8,13 0,1 3.34375,0 0,-1 L 8,13 Z m -4,-2 0,1 2,0 0,-1 -2,0 z M 7,9 7,10 9,10 9,9 7,9 Z" />
</svg>
