<?xml version="1.0" encoding="UTF-8" standalone="no"?>
<svg
   xmlns:dc="http://purl.org/dc/elements/1.1/"
   xmlns:cc="http://creativecommons.org/ns#"
   xmlns:rdf="http://www.w3.org/1999/02/22-rdf-syntax-ns#"
   xmlns:svg="http://www.w3.org/2000/svg"
   xmlns="http://www.w3.org/2000/svg"
   xmlns:xlink="http://www.w3.org/1999/xlink"
   xmlns:sodipodi="http://sodipodi.sourceforge.net/DTD/sodipodi-0.dtd"
   xmlns:inkscape="http://www.inkscape.org/namespaces/inkscape"
   id="svg3810"
   height="16"
   width="16"
   version="1.1"
   sodipodi:docname="text-x-authors.svg"
   inkscape:version="0.92.5 (2060ec1f9f, 2020-04-08)">
  <sodipodi:namedview
     pagecolor="#ffffff"
     bordercolor="#666666"
     borderopacity="1"
     objecttolerance="10"
     gridtolerance="10"
     guidetolerance="10"
     inkscape:pageopacity="0"
     inkscape:pageshadow="2"
     inkscape:window-width="1920"
     inkscape:window-height="1016"
     id="namedview13"
     showgrid="true"
     inkscape:zoom="29.5"
     inkscape:cx="4.1975637"
     inkscape:cy="11.462733"
     inkscape:window-x="0"
     inkscape:window-y="0"
     inkscape:window-maximized="1"
     inkscape:current-layer="svg3810">
    <inkscape:grid
       type="xygrid"
       id="grid836" />
  </sodipodi:namedview>
  <defs
     id="defs3812">
    <linearGradient
       x1="-51.786404"
       y1="50.786446"
       x2="-51.786404"
       y2="2.9062471"
       id="linearGradient3019"
       xlink:href="#linearGradient3104-9"
       gradientUnits="userSpaceOnUse"
       gradientTransform="matrix(0.25378586,0,0,0.30501865,19.128979,-0.68547704)" />
    <linearGradient
       id="linearGradient3104-9">
      <stop
         id="stop3106-5"
         style="stop-color:#000000;stop-opacity:0.33950618"
         offset="0" />
      <stop
         id="stop3108-5"
         style="stop-color:#000000;stop-opacity:0.24691358"
         offset="1" />
    </linearGradient>
  </defs>
  <metadata
     id="metadata3815">
    <rdf:RDF>
      <cc:Work
         rdf:about="">
        <dc:format>image/svg+xml</dc:format>
        <dc:type
           rdf:resource="http://purl.org/dc/dcmitype/StillImage" />
        <dc:title />
      </cc:Work>
    </rdf:RDF>
  </metadata>
  <path
     style="display:inline;fill:#fafafa;fill-opacity:1;stroke:none"
     id="path4160-4"
     d="m 3,1 c 2.2915074,0 9.999988,8.904e-4 9.999988,8.904e-4 L 13,15 C 13,15 6.3333332,15 3,15 3,10.333334 3,5.6666664 3,1 Z" />
  <path
     style="display:inline;fill:none;stroke:url(#linearGradient3019);stroke-width:0.99992192;stroke-linecap:butt;stroke-linejoin:round;stroke-miterlimit:4;stroke-dasharray:none;stroke-dashoffset:0;stroke-opacity:1"
     id="path4160-8"
     d="m 2.4999621,0.49997396 c 2.5206756,0 11.0000629,9.54e-4 11.0000629,9.54e-4 l 1.3e-5,14.99909804 c 0,0 -7.3333841,0 -11.000076,0 0,-5.000017 0,-10.000035 0,-15.00005204 z" />
  <path
     id="path883-3"
     style="opacity:1;vector-effect:none;fill:#666666;fill-opacity:1;stroke:none;stroke-width:0.64202327;stroke-linecap:butt;stroke-linejoin:round;stroke-miterlimit:4;stroke-dasharray:none;stroke-dashoffset:0;stroke-opacity:0.5;marker:none"
     d="M 5.3729313,5.5693308 C 4.4575466,5.5854264 3.8153732,6.2113541 3.8155233,7.1831668 3.8158968,8.1374239 4.4575466,8.7588119 5.3628997,8.7794472 4.4205912,8.8210182 3.1988847,10.185952 3.1735,11.026529 c 0,0.711362 0.2516732,0.963507 0.9630349,0.963507 h 1.9260699 c 0.1023623,0 1.5097315,0.02242 1.6050578,0 C 6.8665139,11.315197 7.0157862,10.638502 7.0152514,9.7801008 7.0256393,9.4214705 6.1511197,8.8110392 5.4807718,8.7794472 6.383617,8.7447394 7.0257228,8.1374239 7.02564,7.1831674 c 0,-0.9718133 -0.642023,-1.6138366 -1.6188513,-1.6138366 -0.011285,-9.95e-5 -0.022572,-9.95e-5 -0.033856,0 z"
     inkscape:connector-curvature="0"
     sodipodi:nodetypes="ccccssccccccc" />
  <path
     id="path883-36"
     style="opacity:0.2;vector-effect:none;fill:#ffffff;fill-opacity:1;stroke:none;stroke-width:0.64202327;stroke-linecap:butt;stroke-linejoin:round;stroke-miterlimit:4;stroke-dasharray:none;stroke-dashoffset:0;stroke-opacity:0.5;marker:none"
     d="m 8.9220172,4.271614 c -1.2915704,0 -2.2546053,0.9767053 -2.2546053,2.277053 3.08e-5,1.2677454 0.9630349,2.1445484 2.0589885,2.2282724 C 7.2275194,8.8221294 6.015,9.7801004 6.015,11.026529 c 0,0.711362 0.5726848,0.963507 1.2840466,0.963507 h 3.2431554 c 0.711362,0 1.284047,-0.252145 1.284047,-0.963507 C 11.793739,9.9500664 10.519551,8.8322564 9.0913003,8.7794474 10.19854,8.7062974 11.161856,7.8164124 11.161574,6.548667 c 0,-1.3003477 -0.963034,-2.277053 -2.2395568,-2.277053 z"
     inkscape:connector-curvature="0"
     sodipodi:nodetypes="sccssscccs" />
  <path
     id="path883"
     style="opacity:1;vector-effect:none;fill:#343434;fill-opacity:1;stroke:none;stroke-width:0.64202327;stroke-linecap:butt;stroke-linejoin:round;stroke-miterlimit:4;stroke-dasharray:none;stroke-dashoffset:0;stroke-opacity:0.5;marker:none"
     d="m 9.9222679,4.271614 c -1.2915704,0 -2.2546053,0.9767053 -2.2546053,2.277053 3.08e-5,1.2677453 0.9630349,2.1445481 2.0589885,2.2282724 -1.498881,0.045186 -2.7114004,1.0031614 -2.7114004,2.2495896 0,0.711362 0.5726848,0.963507 1.2840466,0.963507 h 3.2431557 c 0.711362,0 1.284047,-0.252145 1.284047,-0.963507 -0.03251,-1.0764622 -1.306698,-2.1942728 -2.734949,-2.2470818 1.10724,-0.073146 2.070556,-0.9630349 2.070274,-2.2307802 0,-1.3003477 -0.963034,-2.277053 -2.2395571,-2.277053 z"
     inkscape:connector-curvature="0"
     sodipodi:nodetypes="sccssscccs" />
</svg>
