<?xml version="1.0" encoding="UTF-8" standalone="no"?>
<svg
   xmlns:dc="http://purl.org/dc/elements/1.1/"
   xmlns:cc="http://creativecommons.org/ns#"
   xmlns:rdf="http://www.w3.org/1999/02/22-rdf-syntax-ns#"
   xmlns:svg="http://www.w3.org/2000/svg"
   xmlns="http://www.w3.org/2000/svg"
   xmlns:xlink="http://www.w3.org/1999/xlink"
   version="1.1"
   width="16"
   height="16"
   id="svg3810">
  <defs
     id="defs3812">
    <linearGradient
       id="linearGradient875">
      <stop
         id="stop871"
         offset="0"
         style="stop-color:#cc3b02;stop-opacity:1" />
      <stop
         id="stop873"
         offset="1"
         style="stop-color:#f37329;stop-opacity:1" />
    </linearGradient>
    <linearGradient
       id="linearGradient3104-9">
      <stop
         id="stop3106-5"
         style="stop-color:#000000;stop-opacity:0.33950618"
         offset="0" />
      <stop
         id="stop3108-5"
         style="stop-color:#000000;stop-opacity:0.24691358"
         offset="1" />
    </linearGradient>
    <linearGradient
       x1="-51.786404"
       y1="50.786446"
       x2="-51.786404"
       y2="2.9062471"
       id="linearGradient3019"
       xlink:href="#linearGradient3104-9"
       gradientUnits="userSpaceOnUse"
       gradientTransform="matrix(0.25378586,0,0,0.30501865,19.128979,-0.68547704)" />
    <linearGradient
       gradientUnits="userSpaceOnUse"
       y2="4.9876151"
       x2="7.5957031"
       y1="14.844112"
       x1="7.5957031"
       id="linearGradient877"
       xlink:href="#linearGradient875" />
  </defs>
  <metadata
     id="metadata3815">
    <rdf:RDF>
      <cc:Work
         rdf:about="">
        <dc:format>image/svg+xml</dc:format>
        <dc:type
           rdf:resource="http://purl.org/dc/dcmitype/StillImage" />
        <dc:title />
      </cc:Work>
    </rdf:RDF>
  </metadata>
  <path
     style="display:inline;fill:#fafafa;fill-opacity:1;stroke:none"
     id="path4160"
     d="m 3,1 c 2.2915074,0 9.999988,8.904e-4 9.999988,8.904e-4 L 13,15 C 13,15 6.3333332,15 3,15 3,10.333334 3,5.6666664 3,1 Z" />
  <path
     style="display:inline;fill:none;stroke:url(#linearGradient3019);stroke-width:0.99992192;stroke-linecap:butt;stroke-linejoin:round;stroke-miterlimit:4;stroke-dasharray:none;stroke-dashoffset:0;stroke-opacity:1"
     id="path4160-8"
     d="m 2.4999621,0.49997396 c 2.5206756,0 11.0000629,9.54e-4 11.0000629,9.54e-4 l 1.3e-5,14.99909804 c 0,0 -7.3333841,0 -11.000076,0 0,-5.000017 0,-10.000035 0,-15.00005204 z" />
  <path
     id="path848"
     d="M 8.4042969 5 L 6.6953125 11 L 7.5957031 11 L 9.3046875 5 L 8.4042969 5 z M 6 6 L 4 7.25 L 4 8.75 L 6 10 L 6 9 L 4.5 8.0019531 L 6 7 L 6 6 z M 10 6 L 10 7 L 11.5 8.0019531 L 10 9 L 10 10 L 12 8.75 L 12 7.25 L 10 6 z "
     style="color:#bebebe;opacity:1;isolation:auto;mix-blend-mode:normal;fill:url(#linearGradient877);stroke-width:0.6546303;marker:none;fill-opacity:1" />
</svg>
