<?xml version="1.0" encoding="UTF-8" standalone="no"?>
<svg
   xmlns:dc="http://purl.org/dc/elements/1.1/"
   xmlns:cc="http://creativecommons.org/ns#"
   xmlns:rdf="http://www.w3.org/1999/02/22-rdf-syntax-ns#"
   xmlns:svg="http://www.w3.org/2000/svg"
   xmlns="http://www.w3.org/2000/svg"
   xmlns:xlink="http://www.w3.org/1999/xlink"
   id="svg3810"
   height="16"
   width="16"
   version="1.1">
  <defs
     id="defs3812">
    <linearGradient
       id="linearGradient3600">
      <stop
         offset="0"
         style="stop-color:#505050;stop-opacity:1"
         id="stop3602" />
      <stop
         offset="1"
         style="stop-color:#2b2b2b;stop-opacity:1"
         id="stop3604" />
    </linearGradient>
    <linearGradient
       gradientTransform="matrix(0.28571361,0,0,0.30419701,1.1428727,1.232605)"
       gradientUnits="userSpaceOnUse"
       xlink:href="#linearGradient3600"
       id="linearGradient3806"
       y2="47.013336"
       x2="25.132275"
       y1="0.98520643"
       x1="25.132275" />
    <linearGradient
       id="linearGradient3104-9">
      <stop
         offset="0"
         style="stop-color:#000000;stop-opacity:0.33950618"
         id="stop3106-5" />
      <stop
         offset="1"
         style="stop-color:#000000;stop-opacity:0.24691358"
         id="stop3108-5" />
    </linearGradient>
    <linearGradient
       gradientTransform="matrix(0.25378586,0,0,0.30501865,19.128979,0.314523)"
       gradientUnits="userSpaceOnUse"
       xlink:href="#linearGradient3104-9"
       id="linearGradient3019"
       y2="2.9062471"
       x2="-51.786404"
       y1="50.786446"
       x1="-51.786404" />
  </defs>
  <metadata
     id="metadata3815">
    <rdf:RDF>
      <cc:Work
         rdf:about="">
        <dc:format>image/svg+xml</dc:format>
        <dc:type
           rdf:resource="http://purl.org/dc/dcmitype/StillImage" />
        <dc:title />
      </cc:Work>
    </rdf:RDF>
  </metadata>
  <path
     d="M 1,14 C 1,11.708493 1.0008904,2.000012 1.0008904,2.000012 L 15,2 15,14 Z"
     id="path4160"
     style="display:inline;fill:url(#linearGradient3806);fill-opacity:1;stroke:none" />
  <path
     d="m 0.49997398,14.500038 c 0,-2.520676 9.54e-4,-13.000063 9.54e-4,-13.000063 l 14.99909802,-1.3e-5 0,13.000076 z"
     id="path4160-8"
     style="display:inline;fill:none;stroke:url(#linearGradient3019);stroke-width:0.99992192;stroke-linecap:butt;stroke-linejoin:round;stroke-miterlimit:4;stroke-dasharray:none;stroke-dashoffset:0;stroke-opacity:1" />
  <path
     id="rect3032-8-9-3"
     d="M 4.4257811,4 C 4.1883524,4 4,4.2054587 4,4.4492187 V 12.550781 C 4,12.794541 4.1883524,13 4.4257811,13 H 11.574219 C 11.811647,13 12,12.794541 12,12.550781 V 4.4492187 C 12,4.2054587 11.811647,4 11.574219,4 Z M 6.4003905,5 H 9.5996094 C 9.8212098,5 10,5.1787905 10,5.4003905 v 2.1992188 c 0,0.2216 -0.1787902,0.4003906 -0.4003906,0.4003906 H 6.4003905 C 6.1787906,7.9999999 6,7.8212093 6,7.5996093 V 5.4003905 C 6,5.1787905 6.1787906,5 6.4003905,5 Z M 4.71875,5.1875 H 5.4375 v 0.75 H 4.71875 Z m 5.84375,0 h 0.71875 v 0.75 H 10.5625 Z M 4.7187499,6.65625 h 0.71875 v 0.75 h -0.71875 z m 5.8437501,0 h 0.71875 v 0.75 H 10.5625 Z M 4.7187499,8.125 h 0.71875 v 0.75 h -0.71875 z m 5.8437501,0 h 0.71875 v 0.75 H 10.5625 Z M 6.4003905,9 H 9.5996094 C 9.8212098,9 10,9.1787906 10,9.4003906 V 11.599609 C 10,11.821209 9.8212098,12 9.5996094,12 H 6.4003905 C 6.1787906,12 6,11.821209 6,11.599609 V 9.4003906 C 6,9.1787906 6.1787906,9 6.4003905,9 Z M 4.71875,9.59375 H 5.4375 v 0.75 H 4.71875 Z m 5.84375,0 h 0.71875 v 0.75 H 10.5625 Z M 4.7187499,11.0625 h 0.71875 v 0.75 h -0.71875 z m 5.8437501,0 h 0.71875 v 0.75 H 10.5625 Z"
     style="color:#000000;display:inline;overflow:visible;visibility:visible;fill:#000000;fill-opacity:1;fill-rule:nonzero;stroke:none;stroke-width:1;marker:none;enable-background:accumulate;opacity:0.2" />
  <path
     id="rect3032-8-9"
     d="M 4.4257811,3.0000001 C 4.1883524,3.0000001 4,3.2054588 4,3.4492188 V 11.550781 C 4,11.794541 4.1883524,12 4.4257811,12 H 11.574219 C 11.811647,12 12,11.794541 12,11.550781 V 3.4492188 c 0,-0.24376 -0.188353,-0.4492187 -0.425781,-0.4492187 z m 1.9746094,1 H 9.5996094 C 9.8212098,4.0000001 10,4.1787906 10,4.4003906 V 6.5996094 C 10,6.8212094 9.8212098,7 9.5996094,7 H 6.4003905 C 6.1787906,7 6,6.8212094 6,6.5996094 V 4.4003906 C 6,4.1787906 6.1787906,4.0000001 6.4003905,4.0000001 Z M 4.71875,4.1875001 H 5.4375 v 0.75 H 4.71875 Z m 5.84375,0 h 0.71875 v 0.75 H 10.5625 Z m -5.8437501,1.46875 h 0.71875 v 0.75 h -0.71875 z m 5.8437501,0 h 0.71875 v 0.75 H 10.5625 Z m -5.8437501,1.46875 h 0.71875 v 0.75 h -0.71875 z m 5.8437501,0 h 0.71875 v 0.75 H 10.5625 Z m -4.1621095,0.875 H 9.5996094 C 9.8212098,8.0000001 10,8.1787907 10,8.4003907 V 10.599609 C 10,10.821209 9.8212098,11 9.5996094,11 H 6.4003905 C 6.1787906,11 6,10.821209 6,10.599609 V 8.4003907 C 6,8.1787907 6.1787906,8.0000001 6.4003905,8.0000001 Z M 4.71875,8.5937501 H 5.4375 V 9.34375 H 4.71875 Z m 5.84375,0 h 0.71875 V 9.34375 H 10.5625 Z M 4.7187499,10.0625 h 0.71875 v 0.75 h -0.71875 z m 5.8437501,0 h 0.71875 v 0.75 H 10.5625 Z"
     style="color:#000000;display:inline;overflow:visible;visibility:visible;fill:#ffffff;fill-opacity:1;fill-rule:nonzero;stroke:none;stroke-width:1;marker:none;enable-background:accumulate" />
</svg>
