<?xml version="1.0" encoding="UTF-8" standalone="no"?>
<svg
   xmlns:dc="http://purl.org/dc/elements/1.1/"
   xmlns:cc="http://creativecommons.org/ns#"
   xmlns:rdf="http://www.w3.org/1999/02/22-rdf-syntax-ns#"
   xmlns:svg="http://www.w3.org/2000/svg"
   xmlns="http://www.w3.org/2000/svg"
   xmlns:xlink="http://www.w3.org/1999/xlink"
   id="svg3810"
   height="16"
   width="16"
   version="1.1">
  <defs
     id="defs3812">
    <linearGradient
       id="linearGradient3104-9">
      <stop
         offset="0"
         style="stop-color:#000000;stop-opacity:0.33950618"
         id="stop3106-5" />
      <stop
         offset="1"
         style="stop-color:#000000;stop-opacity:0.24691358"
         id="stop3108-5" />
    </linearGradient>
    <linearGradient
       gradientTransform="matrix(0.25378586,0,0,0.30501865,19.128979,-0.68547704)"
       gradientUnits="userSpaceOnUse"
       xlink:href="#linearGradient3104-9"
       id="linearGradient3019"
       y2="2.9062471"
       x2="-51.786404"
       y1="50.786446"
       x1="-51.786404" />
  </defs>
  <metadata
     id="metadata3815">
    <rdf:RDF>
      <cc:Work
         rdf:about="">
        <dc:format>image/svg+xml</dc:format>
        <dc:type
           rdf:resource="http://purl.org/dc/dcmitype/StillImage" />
        <dc:title />
      </cc:Work>
    </rdf:RDF>
  </metadata>
  <path
     d="m 3,1 c 2.2915074,0 9.999988,8.904e-4 9.999988,8.904e-4 L 13,15 C 13,15 6.3333332,15 3,15 3,10.333334 3,5.6666664 3,1 Z"
     id="path4160"
     style="display:inline;fill:#fafafa;fill-opacity:1;stroke:none" />
  <path
     d="m 2.4999621,0.49997396 c 2.5206756,0 11.0000629,9.54e-4 11.0000629,9.54e-4 l 1.3e-5,14.99909804 c 0,0 -7.3333841,0 -11.000076,0 0,-5.000017 0,-10.000035 0,-15.00005204 z"
     id="path4160-8"
     style="display:inline;fill:none;stroke:url(#linearGradient3019);stroke-width:0.99992192;stroke-linecap:butt;stroke-linejoin:round;stroke-miterlimit:4;stroke-dasharray:none;stroke-dashoffset:0;stroke-opacity:1" />
  <path
     id="rect3032-8-9"
     d="M 4.4257812,3 C 4.1883525,3 4,3.2054587 4,3.4492188 L 4,11.550781 C 4,11.794541 4.1883525,12 4.4257812,12 l 7.1484378,0 C 11.811647,12 12,11.794541 12,11.550781 L 12,3.4492188 C 12,3.2054587 11.811647,3 11.574219,3 L 4.4257812,3 Z M 6.4003906,4 9.5996094,4 C 9.8212098,4 10,4.1787906 10,4.4003906 l 0,2.1992188 C 10,6.8212094 9.8212098,7 9.5996094,7 L 6.4003906,7 C 6.1787907,7 6,6.8212094 6,6.5996094 L 6,4.4003906 C 6,4.1787906 6.1787906,4 6.4003906,4 Z M 4.71875,4.1875 l 0.71875,0 0,0.75 -0.71875,0 0,-0.75 z m 5.84375,0 0.71875,0 0,0.75 -0.71875,0 0,-0.75 z m -5.84375,1.46875 0.71875,0 0,0.75 -0.71875,0 0,-0.75 z m 5.84375,0 0.71875,0 0,0.75 -0.71875,0 0,-0.75 z M 4.71875,7.125 l 0.71875,0 0,0.75 -0.71875,0 0,-0.75 z m 5.84375,0 0.71875,0 0,0.75 -0.71875,0 0,-0.75 z M 6.4003906,8 9.5996094,8 C 9.8212098,8 10,8.1787906 10,8.4003906 l 0,2.1992184 C 10,10.821209 9.8212098,11 9.5996094,11 L 6.4003906,11 C 6.1787907,11 6,10.821209 6,10.599609 L 6,8.4003906 C 6,8.1787906 6.1787906,8 6.4003906,8 Z M 4.71875,8.59375 l 0.71875,0 0,0.75 -0.71875,0 0,-0.75 z m 5.84375,0 0.71875,0 0,0.75 -0.71875,0 0,-0.75 z m -5.84375,1.46875 0.71875,0 0,0.75 -0.71875,0 0,-0.75 z m 5.84375,0 0.71875,0 0,0.75 -0.71875,0 0,-0.75 z"
     style="color:#000000;display:inline;overflow:visible;visibility:visible;fill:#7e8087;fill-opacity:1;fill-rule:nonzero;stroke:none;stroke-width:1;marker:none;enable-background:accumulate" />
</svg>
