<?xml version="1.0" encoding="UTF-8" standalone="no"?>
<svg
   xmlns:dc="http://purl.org/dc/elements/1.1/"
   xmlns:cc="http://creativecommons.org/ns#"
   xmlns:rdf="http://www.w3.org/1999/02/22-rdf-syntax-ns#"
   xmlns:svg="http://www.w3.org/2000/svg"
   xmlns="http://www.w3.org/2000/svg"
   xmlns:xlink="http://www.w3.org/1999/xlink"
   version="1.1"
   width="16"
   height="16"
   id="svg3147"
   viewBox="0 0 16 16">
  <defs
     id="defs3149">
    <linearGradient
       id="linearGradient3104-5">
      <stop
         id="stop3106-2"
         style="stop-color:#aaaaaa;stop-opacity:1"
         offset="0" />
      <stop
         id="stop3108-5"
         style="stop-color:#c8c8c8;stop-opacity:1"
         offset="1" />
    </linearGradient>
    <linearGradient
       id="linearGradient3104">
      <stop
         id="stop3106"
         style="stop-color:#a0a0a0;stop-opacity:1"
         offset="0" />
      <stop
         id="stop3108"
         style="stop-color:#bebebe;stop-opacity:1"
         offset="1" />
    </linearGradient>
    <linearGradient
       id="linearGradient2867-449-88-871-390-598-476-591-434-148-57-177-8">
      <stop
         id="stop3750-1"
         style="stop-color:#90dbec;stop-opacity:1"
         offset="0" />
      <stop
         id="stop3752-3"
         style="stop-color:#55c1ec;stop-opacity:1"
         offset="0.26238" />
      <stop
         id="stop3754-1"
         style="stop-color:#3689e6;stop-opacity:1"
         offset="0.704952" />
      <stop
         id="stop3756-1"
         style="stop-color:#2b63a0;stop-opacity:1"
         offset="1" />
    </linearGradient>
    <linearGradient
       id="linearGradient3707-319-631-407-324-3">
      <stop
         id="stop3760-4"
         style="stop-color:#185f9a;stop-opacity:1"
         offset="0" />
      <stop
         id="stop3762-0"
         style="stop-color:#599ec9;stop-opacity:1"
         offset="1" />
    </linearGradient>
    <radialGradient
       cx="7.8060555"
       cy="9.9571075"
       r="12.671875"
       fx="7.2758255"
       fy="9.9571075"
       id="radialGradient3062"
       xlink:href="#linearGradient2867-449-88-871-390-598-476-591-434-148-57-177-8"
       gradientUnits="userSpaceOnUse"
       gradientTransform="matrix(-7.3617649e-8,2.251132,-3.6847783,-6.7572924e-8,47.15124,-20.156075)" />
    <linearGradient
       x1="25"
       y1="47.935162"
       x2="25"
       y2="0.91790956"
       id="linearGradient3064"
       xlink:href="#linearGradient3707-319-631-407-324-3"
       gradientUnits="userSpaceOnUse"
       gradientTransform="matrix(0.45534875,0,0,0.34098425,-0.46197711,0.32769652)" />
    <linearGradient
       x1="22.004084"
       y1="47.813133"
       x2="22.004084"
       y2="3.3638515"
       id="linearGradient3052"
       xlink:href="#linearGradient3104-5"
       gradientUnits="userSpaceOnUse"
       gradientTransform="matrix(-0.32160807,0,0,0.3333374,15.813338,-0.34907707)" />
    <linearGradient
       x1="-51.786404"
       y1="50.786446"
       x2="-51.786404"
       y2="2.9062471"
       id="linearGradient3060"
       xlink:href="#linearGradient3104"
       gradientUnits="userSpaceOnUse"
       gradientTransform="matrix(0.25378586,0,0,0.30501865,19.128979,-0.68547704)" />
  </defs>
  <metadata
     id="metadata3152">
    <rdf:RDF>
      <cc:Work
         rdf:about="">
        <dc:format>image/svg+xml</dc:format>
        <dc:type
           rdf:resource="http://purl.org/dc/dcmitype/StillImage" />
        <dc:title />
      </cc:Work>
    </rdf:RDF>
  </metadata>
  <path
     d="m 2.4999621,0.49997396 c 2.5206756,0 11.0000629,9.54e-4 11.0000629,9.54e-4 l 1.3e-5,14.99909804 c 0,0 -7.3333841,0 -11.0000759,0 0,-5.000017 0,-10.000035 0,-15.00005204 z"
     id="path4160"
     style="display:inline;fill:#fafafa;fill-opacity:1;stroke:url(#linearGradient3060);stroke-width:0.99992192;stroke-linecap:butt;stroke-linejoin:round;stroke-miterlimit:4;stroke-dasharray:none;stroke-dashoffset:0;stroke-opacity:1" />
  <path
     d="m 11.638191,3.499995 h -0.753769 z m -0.864322,0 h -0.703517 z m -0.8140697,0 H 9.3366837 Z m -0.7236186,0 H 8.9648241 Z m -0.3819095,0 h -0.603015 z m -0.7236186,0 H 6.542713 Z m 3.5075384,0.994817 h -0.994975 z m -1.095477,0 H 8.9145731 Z m -1.728644,0 H 8.0200998 Z m -0.8944722,0 H 7.175879 Z m -0.8442218,0 H 6.442211 Z M 11.638191,5.5 h -0.512563 z m -0.673367,0 H 9.065326 Z m 0.673367,1.9947954 h -0.994975 z m -1.095477,0 H 8.9145731 Z m -1.728644,0 H 8.0200998 Z m -0.8944722,0 H 7.175879 Z m -0.8442218,0 H 6.442211 Z M 11.638191,8.5 h -0.753769 z m -0.864322,0 h -0.693467 z m -0.8140697,0 H 9.3366837 Z m -0.7236186,0 H 8.9648241 Z m -0.3819095,0 h -0.603015 z m -0.7236186,0 H 6.552764 Z m 3.5075384,1 h -1.17588 z m -1.306533,0 H 9.7688441 Z m -0.6633159,0 H 9.3869347 Z m -0.3919602,0 H 8.763819 Z m -0.6231157,0 H 8.1306526 Z m -0.6231156,0 H 7.195979 Z M 7.085426,9.5 H 6 Z m 4.552765,1.994804 h -0.994975 z m -1.095477,0 H 8.9145731 Z m -1.728644,0 H 8.0200998 Z m -0.8944722,0 H 7.175879 Z m -0.8442218,0 H 6.442211 Z M 11.638191,12.5 H 10.39196 Z m -1.356784,0 H 9.8894467 Z m -0.4924623,0 H 8.8944725 Z m -0.9949753,0 H 7.477386 Z m -1.4271354,0 H 6.472361 Z m -0.984925,0 H 6.190954 Z m 5.256282,1 H 10.39196 Z m -1.356784,0 H 9.7185931 Z m -0.6633169,0 H 8.7336686 Z m -0.9849245,0 h -0.954774 z m -1.0653266,0 h -0.38191 z m -0.482413,0 H 6.874371 Z m -0.321607,0 H 6.170853 Z"
     id="path3475"
     style="fill:none;stroke:url(#linearGradient3052);stroke-width:1px;stroke-linecap:butt;stroke-linejoin:miter;stroke-opacity:1" />
  <path
     d="m 4.9999997,15.5 c -0.7988458,0 -1.5976936,0 -2.3965433,0 -0.194166,-0.177608 -0.046516,-0.530231 -0.092649,-0.781669 0,-4.710715 0,-9.4214287 0,-14.13214153 l 0.02708,-0.0610008 0.065569,-0.0251887 v 0 c 0.8314375,0 1.53252,0 2.3639536,0"
     id="path4530"
     style="color:#000000;display:inline;overflow:visible;visibility:visible;fill:url(#radialGradient3062);fill-opacity:1;fill-rule:nonzero;stroke:url(#linearGradient3064);stroke-width:1;stroke-linecap:butt;stroke-linejoin:round;stroke-miterlimit:4;stroke-dasharray:none;stroke-dashoffset:0;stroke-opacity:1;marker:none;enable-background:accumulate" />
  <path
     style="opacity:0.8;fill:#e9e9e9;fill-opacity:1;fill-rule:evenodd;stroke:#83899a;stroke-width:1px;stroke-linecap:butt;stroke-linejoin:miter;stroke-opacity:1"
     id="path3410"
     d="M 13.500106,6.500001 4.5001068,15.5 l 8.9999992,0 z m -2,4.999999 0,2 -1.999999,0 z" />
</svg>
