<?xml version="1.0" encoding="UTF-8" standalone="no"?>
<svg
   xmlns:dc="http://purl.org/dc/elements/1.1/"
   xmlns:cc="http://creativecommons.org/ns#"
   xmlns:rdf="http://www.w3.org/1999/02/22-rdf-syntax-ns#"
   xmlns:svg="http://www.w3.org/2000/svg"
   xmlns="http://www.w3.org/2000/svg"
   xmlns:xlink="http://www.w3.org/1999/xlink"
   version="1.1"
   width="16"
   height="16"
   id="svg3147"
   viewBox="0 0 16 16">
  <defs
     id="defs3149">
    <linearGradient
       id="linearGradient3104-5">
      <stop
         id="stop3106-2"
         style="stop-color:#aaaaaa;stop-opacity:1"
         offset="0" />
      <stop
         id="stop3108-5"
         style="stop-color:#c8c8c8;stop-opacity:1"
         offset="1" />
    </linearGradient>
    <linearGradient
       id="linearGradient2867-449-88-871-390-598-476-591-434-148-57-177-8">
      <stop
         id="stop3750-1"
         style="stop-color:#90dbec;stop-opacity:1"
         offset="0" />
      <stop
         id="stop3752-3"
         style="stop-color:#55c1ec;stop-opacity:1"
         offset="0.26238" />
      <stop
         id="stop3754-1"
         style="stop-color:#3689e6;stop-opacity:1"
         offset="0.704952" />
      <stop
         id="stop3756-1"
         style="stop-color:#2b63a0;stop-opacity:1"
         offset="1" />
    </linearGradient>
    <linearGradient
       x1="22.004084"
       y1="47.813133"
       x2="22.004084"
       y2="3.3638515"
       id="linearGradient3052"
       xlink:href="#linearGradient3104-5"
       gradientUnits="userSpaceOnUse"
       gradientTransform="matrix(-0.32160807,0,0,0.3333374,14.175147,-0.34490471)" />
    <linearGradient
       x1="-51.786404"
       y1="50.786446"
       x2="-51.786404"
       y2="2.9062471"
       id="linearGradient3019"
       xlink:href="#linearGradient3104-9"
       gradientUnits="userSpaceOnUse"
       gradientTransform="matrix(-0.25378586,0,0,0.30501865,-3.128979,-0.68547704)" />
    <linearGradient
       id="linearGradient3104-9">
      <stop
         id="stop3106-5"
         style="stop-color:#000000;stop-opacity:0.33950618"
         offset="0" />
      <stop
         id="stop3108-5-3"
         style="stop-color:#000000;stop-opacity:0.24691358"
         offset="1" />
    </linearGradient>
    <radialGradient
       cx="7.8060555"
       cy="9.9571075"
       r="12.671875"
       fx="7.2758255"
       fy="9.9571075"
       id="radialGradient3062-9"
       xlink:href="#linearGradient2867-449-88-871-390-598-476-591-434-148-57-177-8"
       gradientUnits="userSpaceOnUse"
       gradientTransform="matrix(7.3617649e-8,2.251132,3.6847783,-6.7572924e-8,-31.15124,-20.156075)" />
  </defs>
  <metadata
     id="metadata3152">
    <rdf:RDF>
      <cc:Work
         rdf:about="">
        <dc:format>image/svg+xml</dc:format>
        <dc:type
           rdf:resource="http://purl.org/dc/dcmitype/StillImage" />
        <dc:title />
      </cc:Work>
    </rdf:RDF>
  </metadata>
  <path
     style="display:inline;fill:#fafafa;fill-opacity:1;stroke:none"
     id="path4160-1"
     d="m 3,1 c 2.2915074,0 9.999988,8.904e-4 9.999988,8.904e-4 L 13,15 C 13,15 6.3333332,15 3,15 3,10.333334 3,5.6666664 3,1 Z" />
  <path
     d="m 11,15.5 c 0.798846,0 1.597694,0 2.396544,0 0.194166,-0.177608 0.04652,-0.530231 0.09265,-0.781669 0,-4.710715 0,-9.4214287 0,-14.1321415 L 13.462113,0.5251887 13.396544,0.5 v 0 c -0.831438,0 -1.53252,0 -2.363954,0"
     id="path4530"
     style="color:#000000;display:inline;overflow:visible;visibility:visible;fill:url(#radialGradient3062-9);fill-opacity:1;fill-rule:nonzero;stroke:none;stroke-width:1;marker:none;enable-background:accumulate" />
  <path
     style="display:inline;fill:none;stroke:url(#linearGradient3019);stroke-width:0.99992192;stroke-linecap:butt;stroke-linejoin:round;stroke-miterlimit:4;stroke-dasharray:none;stroke-dashoffset:0;stroke-opacity:1"
     id="path4160-8"
     d="m 13.500038,0.49997396 c -2.520676,0 -11.000063,9.54e-4 -11.000063,9.54e-4 L 2.499962,15.500026 c 0,0 7.3333841,0 11.000076,0 0,-5.000017 0,-10.000035 0,-15.00005204 z" />
  <path
     d="M 10,3.5041674 H 9.246231 Z m -0.864322,0 H 8.432161 Z m -0.8140697,0 H 7.6984927 Z m -0.7236186,0 H 7.3266331 Z m -0.3819095,0 h -0.603015 z m -0.7236186,0 H 4.904522 Z M 10,4.4989844 H 9.005025 Z m -1.095477,0 H 7.2763821 Z m -1.728644,0 H 6.3819088 Z m -0.8944722,0 H 5.537688 Z m -0.8442218,0 H 4.80402 Z M 10,5.5041724 H 9.487437 Z m -0.673367,0 H 7.427135 Z M 10,7.4989678 H 9.005025 Z m -1.095477,0 H 7.2763821 Z m -1.728644,0 H 6.3819088 Z m -0.8944722,0 H 5.537688 Z m -0.8442218,0 H 4.80402 Z M 10,8.5041724 H 9.246231 Z m -0.864322,0 H 8.442211 Z m -0.8140697,0 H 7.6984927 Z m -0.7236186,0 H 7.3266331 Z m -0.3819095,0 h -0.603015 z m -0.7236186,0 H 4.914573 Z m 3.5075384,1 H 8.82412 Z m -1.306533,0 H 8.1306531 Z m -0.6633159,0 H 7.7487437 Z m -0.3919602,0 H 7.125628 Z m -0.6231157,0 H 6.4924616 Z m -0.6231156,0 H 5.557788 Z m -0.9447246,0 H 4.361809 Z M 10,11.498977 H 9.005025 Z m -1.095477,0 H 7.2763821 Z m -1.728644,0 H 6.3819088 Z m -0.8944722,0 H 5.537688 Z m -0.8442218,0 H 4.80402 Z M 10,12.504172 H 8.753769 Z m -1.356784,0 H 8.2512557 Z m -0.4924623,0 H 7.2562815 Z m -0.9949753,0 H 5.839195 Z m -1.4271354,0 H 4.83417 Z m -0.984925,0 H 4.552763 Z m 5.256282,1 H 8.753769 Z m -1.356784,0 H 8.0804021 Z m -0.6633169,0 H 7.0954776 Z m -0.9849245,0 h -0.954774 z m -1.0653266,0 h -0.38191 z m -0.482413,0 H 5.23618 Z m -0.321607,0 H 4.532662 Z"
     id="path3475"
     style="fill:none;stroke:url(#linearGradient3052);stroke-width:1px;stroke-linecap:butt;stroke-linejoin:miter;stroke-opacity:1" />
  <path
     style="opacity:0.8;fill:#e9e9e9;fill-opacity:1;fill-rule:evenodd;stroke:#83899a;stroke-width:1px;stroke-linecap:butt;stroke-linejoin:miter;stroke-opacity:1"
     id="path3410"
     d="M 13.500106,6.500001 4.5001068,15.5 l 8.9999992,0 z m -2,4.999999 0,2 -1.999999,0 z" />
</svg>
