<?xml version="1.0" encoding="UTF-8" standalone="no"?>
<svg
   xmlns:dc="http://purl.org/dc/elements/1.1/"
   xmlns:cc="http://creativecommons.org/ns#"
   xmlns:rdf="http://www.w3.org/1999/02/22-rdf-syntax-ns#"
   xmlns:svg="http://www.w3.org/2000/svg"
   xmlns="http://www.w3.org/2000/svg"
   xmlns:xlink="http://www.w3.org/1999/xlink"
   id="svg3810"
   height="16"
   width="16"
   version="1.1">
  <defs
     id="defs3812">
    <linearGradient
       x1="20.453684"
       y1="16.387245"
       x2="14.005782"
       y2="8.6535578"
       id="linearGradient3064"
       xlink:href="#linearGradient4102"
       gradientUnits="userSpaceOnUse"
       gradientTransform="matrix(0.65942749,0,0,0.64652213,-4.0326731,-3.5947163)" />
    <linearGradient
       id="linearGradient4102">
      <stop
         id="stop4104"
         style="stop-color:#fda852;stop-opacity:1"
         offset="0" />
      <stop
         id="stop4106"
         style="stop-color:#ffffff;stop-opacity:0"
         offset="1" />
    </linearGradient>
    <linearGradient
       x1="-51.786404"
       y1="50.786446"
       x2="-51.786404"
       y2="2.9062471"
       id="linearGradient3019"
       xlink:href="#linearGradient3104-9"
       gradientUnits="userSpaceOnUse"
       gradientTransform="matrix(0.25378586,0,0,0.30501865,19.128979,-0.68547704)" />
    <linearGradient
       id="linearGradient3104-9">
      <stop
         id="stop3106-5"
         style="stop-color:#000000;stop-opacity:0.33950618"
         offset="0" />
      <stop
         id="stop3108-5"
         style="stop-color:#000000;stop-opacity:0.24691358"
         offset="1" />
    </linearGradient>
  </defs>
  <metadata
     id="metadata3815">
    <rdf:RDF>
      <cc:Work
         rdf:about="">
        <dc:format>image/svg+xml</dc:format>
        <dc:type
           rdf:resource="http://purl.org/dc/dcmitype/StillImage" />
        <dc:title />
      </cc:Work>
    </rdf:RDF>
  </metadata>
  <path
     style="display:inline;fill:#fafafa;fill-opacity:1;stroke:none"
     id="path4160-3"
     d="m 3,1 c 2.2915074,0 9.999988,8.904e-4 9.999988,8.904e-4 L 13,15 C 13,15 6.3333332,15 3,15 3,10.333334 3,5.6666664 3,1 Z" />
  <path
     style="display:inline;fill:none;stroke:url(#linearGradient3019);stroke-width:0.99992192;stroke-linecap:butt;stroke-linejoin:round;stroke-miterlimit:4;stroke-dasharray:none;stroke-dashoffset:0;stroke-opacity:1"
     id="path4160-8"
     d="m 2.4999621,0.49997396 c 2.5206756,0 11.0000629,9.54e-4 11.0000629,9.54e-4 l 1.3e-5,14.99909804 c 0,0 -7.3333841,0 -11.000076,0 0,-5.000017 0,-10.000035 0,-15.00005204 z" />
  <g
     id="g4258">
    <path
       style="fill:url(#linearGradient3064);fill-opacity:1;fill-rule:evenodd;stroke:#ea541a;stroke-width:0.99999994px;stroke-linecap:butt;stroke-linejoin:miter;stroke-opacity:1"
       id="path2783"
       d="m 5.0000026,11 c 1.7284353,2.817675 4.9593062,0.424509 3,-2.9999999 -1.8807679,-3.2872389 2.0000004,-5.860683 3.0000004,-2" />
    <rect
       style="fill:#ea541a;fill-opacity:1;stroke:none"
       id="rect3565-6"
       y="10"
       x="4.0000029"
       height="2"
       width="2" />
    <rect
       style="fill:#ea541a;fill-opacity:1;stroke:none"
       id="rect3567-9"
       y="5"
       x="10.000003"
       height="2"
       width="2" />
    <path
       style="fill:none;stroke:#ea541a;stroke-width:1.00000012px;stroke-linecap:butt;stroke-linejoin:miter;stroke-opacity:1"
       id="path3571"
       d="m 5.997024,4.1092653 5.082184,8.8854897" />
    <path
       style="fill:#e6e6e6;fill-opacity:1;stroke:#ea541a;stroke-width:1.00000012;stroke-linecap:butt;stroke-miterlimit:4;stroke-dasharray:none;stroke-opacity:1"
       id="path3573"
       d="m 6.4999976,3.5 c 3.72e-4,0.552176 -0.447453,1 -1,1 -0.552547,0 -1.000372,-0.447824 -1,-1 -3.72e-4,-0.552176 0.447453,-1 1,-1 0.552547,0 1.000372,0.447824 1,1 l 0,0 z" />
    <path
       style="fill:#e6e6e6;fill-opacity:1;stroke:#ea541a;stroke-width:1.00000012;stroke-linecap:butt;stroke-miterlimit:4;stroke-dasharray:none;stroke-opacity:1"
       id="path3575"
       d="m 11.500002,12.5 c 3.73e-4,0.552177 -0.447452,1 -1,1 -0.5525461,0 -1.0003711,-0.447823 -0.9999991,-1 -3.72e-4,-0.552175 0.447453,-1 0.9999991,-1 0.552548,0 1.000373,0.447825 1,1 l 0,0 z" />
    <rect
       style="fill:#ea541a;fill-opacity:1;stroke:none"
       id="rect3569-2"
       y="7"
       x="7.0000029"
       height="2"
       width="2" />
  </g>
  <path
     style="opacity:0.8;fill:#e9e9e9;fill-opacity:1;fill-rule:evenodd;stroke:#83899a;stroke-width:1px;stroke-linecap:butt;stroke-linejoin:miter;stroke-opacity:1"
     id="path3410"
     d="M 13.500106,6.5000008 4.5001068,15.5 l 8.9999992,0 z m -2,4.9999992 0,2 -1.999999,0 z" />
</svg>
