<?xml version="1.0" encoding="UTF-8" standalone="no"?>
<svg
   xmlns:dc="http://purl.org/dc/elements/1.1/"
   xmlns:cc="http://creativecommons.org/ns#"
   xmlns:rdf="http://www.w3.org/1999/02/22-rdf-syntax-ns#"
   xmlns:svg="http://www.w3.org/2000/svg"
   xmlns="http://www.w3.org/2000/svg"
   xmlns:xlink="http://www.w3.org/1999/xlink"
   id="svg3216"
   height="16"
   width="16"
   version="1.1">
  <defs
     id="defs3218">
    <linearGradient
       gradientTransform="matrix(0.23432741,0,0,0.49377342,0.8357149,0.14412869)"
       gradientUnits="userSpaceOnUse"
       xlink:href="#linearGradient3108"
       id="linearGradient3206"
       y2="0.065301567"
       x2="54.887218"
       y1="0.065301567"
       x1="5.2122574" />
    <linearGradient
       id="linearGradient3108">
      <stop
         offset="0"
         style="stop-color:#0e9a83;stop-opacity:1"
         id="stop3110" />
      <stop
         offset="0.92477626"
         style="stop-color:#0e9a83;stop-opacity:1"
         id="stop3112" />
      <stop
         offset="0.93581694"
         style="stop-color:#c2c2c2;stop-opacity:1"
         id="stop3114" />
      <stop
         offset="1"
         style="stop-color:#c2c2c2;stop-opacity:1"
         id="stop3116" />
    </linearGradient>
    <linearGradient
       xlink:href="#linearGradient884"
       id="linearGradient876"
       x1="8.4974871"
       y1="2.9858596"
       x2="8.4974871"
       y2="14.993865"
       gradientUnits="userSpaceOnUse" />
    <linearGradient
       id="linearGradient884">
      <stop
         offset="0"
         style="stop-color:#43d6b5;stop-opacity:1"
         id="stop880" />
      <stop
         offset="1"
         style="stop-color:#28bca3;stop-opacity:1"
         id="stop882" />
    </linearGradient>
  </defs>
  <metadata
     id="metadata3221">
    <rdf:RDF>
      <cc:Work
         rdf:about="">
        <dc:format>image/svg+xml</dc:format>
        <dc:type
           rdf:resource="http://purl.org/dc/dcmitype/StillImage" />
        <dc:title />
      </cc:Work>
    </rdf:RDF>
  </metadata>
  <path
     d="M 13.491301,2.3043766 C 13.39467,1.6493144 13.45489,1.1334488 13.401512,0.50869876 H 3.5086987 l 0.058388,1.98260254"
     id="path2723-3"
     style="display:inline;fill:#fafafa;fill-opacity:1;stroke:url(#linearGradient3206);stroke-width:1.01739752;stroke-linecap:butt;stroke-linejoin:round;stroke-miterlimit:0;stroke-dasharray:none;stroke-dashoffset:0;stroke-opacity:1" />
  <path
     d="M 4.4999999,2.5 H 2.8999997 C 2.6716605,2.5 2.4999999,2.478829 2.4999999,2.451214 V 1.0529983 c 0,-0.4439613 0.2236128,-0.55299825 0.5163576,-0.55299825 h 1.4836424"
     id="rect5505-21-3-9-6"
     style="color:#000000;display:inline;overflow:visible;visibility:visible;fill:#fafafa;fill-opacity:1;fill-rule:nonzero;stroke:#343434;stroke-width:0.99999988;stroke-linecap:round;stroke-linejoin:round;stroke-miterlimit:4;stroke-dasharray:none;stroke-dashoffset:0;stroke-opacity:1;marker:none;enable-background:accumulate" />
  <rect
     width="9.9809589"
     height="12.980959"
     x="3.5095205"
     y="2.5095205"
     id="rect2719-7"
     style="display:inline;fill:url(#linearGradient876);fill-opacity:1;stroke:#0e9a83;stroke-width:1;stroke-linecap:round;stroke-linejoin:round;stroke-miterlimit:0;stroke-dasharray:none;stroke-dashoffset:0;stroke-opacity:1" />
  <path
     d="m 4.4999999,2.5 c 0,0 0,9.039476 0,13 H 2.9 C 2.6716606,15.5 2.4999999,15.362407 2.4999999,15.182926 V 2.5 Z"
     id="rect5505-21-3-5"
     style="color:#000000;display:inline;overflow:visible;visibility:visible;fill:#343434;fill-opacity:1;fill-rule:nonzero;stroke:#343434;stroke-width:0.99999994;stroke-linecap:round;stroke-linejoin:round;stroke-miterlimit:4;stroke-dasharray:none;stroke-dashoffset:0;stroke-opacity:1;marker:none;enable-background:accumulate" />
  <g
     id="g911">
    <g
       id="g903"
       style="opacity:0.3;fill:#ffffff;fill-opacity:1;stroke:none">
      <path
         style="color:#000000;font-style:normal;font-variant:normal;font-weight:normal;font-stretch:normal;font-size:medium;line-height:normal;font-family:sans-serif;font-variant-ligatures:normal;font-variant-position:normal;font-variant-caps:normal;font-variant-numeric:normal;font-variant-alternates:normal;font-feature-settings:normal;text-indent:0;text-align:start;text-decoration:none;text-decoration-line:none;text-decoration-style:solid;text-decoration-color:#000000;letter-spacing:normal;word-spacing:normal;text-transform:none;writing-mode:lr-tb;direction:ltr;text-orientation:mixed;dominant-baseline:auto;baseline-shift:baseline;text-anchor:start;white-space:normal;shape-padding:0;clip-rule:nonzero;display:inline;overflow:visible;visibility:visible;opacity:0.05;isolation:auto;mix-blend-mode:normal;color-interpolation:sRGB;color-interpolation-filters:linearRGB;solid-color:#000000;solid-opacity:1;vector-effect:none;fill:#007367;fill-opacity:1;fill-rule:nonzero;stroke:none;stroke-width:1;stroke-linecap:round;stroke-linejoin:round;stroke-miterlimit:4;stroke-dasharray:none;stroke-dashoffset:0;stroke-opacity:1;marker:none;color-rendering:auto;image-rendering:auto;shape-rendering:auto;text-rendering:auto;enable-background:accumulate"
         d="M 8.9394531,6 C 7.5881223,6.0330012 6.4995971,7.1482663 6.5,8.5 6.5,9.8747896 7.6252104,11 9,11 10.37479,11 11.5,9.8747896 11.5,8.5 11.5,7.1252104 10.37479,6 9,6 8.9816242,5.9998191 8.963688,5.9997757 8.9453125,6 a 0.50005,0.50005 0 0 0 -0.00586,0 z M 9,11 H 7.5 C 6.6776486,11 6,11.677649 6,12.5 6,13.322351 6.6776486,14 7.5,14 h 3 C 11.322351,14 12,13.322351 12,12.5 12,11.677649 11.322351,11 10.5,11 Z M 8.9628906,7 c 0.01028,-8.59e-5 0.020971,-1.255e-4 0.03125,0 A 0.50005,0.50005 0 0 0 9,7 C 9.8343494,7 10.5,7.6656506 10.5,8.5 10.5,9.3343494 9.8343494,10 9,10 8.1656506,10 7.5,9.3343494 7.5,8.5 7.4997556,7.6801766 8.1433115,7.0200152 8.9628906,7 Z M 7.5,12 h 3 c 0.285649,0 0.5,0.214351 0.5,0.5 0,0.285649 -0.214351,0.5 -0.5,0.5 h -3 C 7.2143514,13 7,12.785649 7,12.5 7,12.214351 7.2143514,12 7.5,12 Z"
         id="path907" />
      <path
         style="color:#000000;font-style:normal;font-variant:normal;font-weight:normal;font-stretch:normal;font-size:medium;line-height:normal;font-family:sans-serif;font-variant-ligatures:normal;font-variant-position:normal;font-variant-caps:normal;font-variant-numeric:normal;font-variant-alternates:normal;font-feature-settings:normal;text-indent:0;text-align:start;text-decoration:none;text-decoration-line:none;text-decoration-style:solid;text-decoration-color:#000000;letter-spacing:normal;word-spacing:normal;text-transform:none;writing-mode:lr-tb;direction:ltr;text-orientation:mixed;dominant-baseline:auto;baseline-shift:baseline;text-anchor:start;white-space:normal;shape-padding:0;clip-rule:nonzero;display:inline;overflow:visible;visibility:visible;opacity:0.15;isolation:auto;mix-blend-mode:normal;color-interpolation:sRGB;color-interpolation-filters:linearRGB;solid-color:#000000;solid-opacity:1;vector-effect:none;fill:#007367;fill-opacity:1;fill-rule:nonzero;stroke:none;stroke-width:1;stroke-linecap:round;stroke-linejoin:round;stroke-miterlimit:4;stroke-dasharray:none;stroke-dashoffset:0;stroke-opacity:1;marker:none;color-rendering:auto;image-rendering:auto;shape-rendering:auto;text-rendering:auto;enable-background:accumulate"
         d="M 8.9511719,6.5 C 7.8657169,6.5265082 6.9996764,7.4142215 7,8.5 c 0,1.1045695 0.8954305,2 2,2 1.104569,0 2,-0.8954305 2,-2 0,-1.1045695 -0.895431,-2 -2,-2 -0.016275,-1.987e-4 -0.032553,-1.987e-4 -0.048828,0 z M 7.5,11.5 c -0.554,0 -1,0.446 -1,1 0,0.554 0.446,1 1,1 h 3 c 0.554,0 1,-0.446 1,-1 0,-0.554 -0.446,-1 -1,-1 z"
         id="path905" />
    </g>
    <path
       style="color:#000000;font-style:normal;font-variant:normal;font-weight:normal;font-stretch:normal;font-size:medium;line-height:normal;font-family:sans-serif;font-variant-ligatures:normal;font-variant-position:normal;font-variant-caps:normal;font-variant-numeric:normal;font-variant-alternates:normal;font-feature-settings:normal;text-indent:0;text-align:start;text-decoration:none;text-decoration-line:none;text-decoration-style:solid;text-decoration-color:#000000;letter-spacing:normal;word-spacing:normal;text-transform:none;writing-mode:lr-tb;direction:ltr;text-orientation:mixed;dominant-baseline:auto;baseline-shift:baseline;text-anchor:start;white-space:normal;shape-padding:0;clip-rule:nonzero;display:inline;overflow:visible;visibility:visible;opacity:1;isolation:auto;mix-blend-mode:normal;color-interpolation:sRGB;color-interpolation-filters:linearRGB;solid-color:#000000;solid-opacity:1;vector-effect:none;fill:#ffffff;fill-opacity:1;fill-rule:nonzero;stroke:none;stroke-width:1;stroke-linecap:round;stroke-linejoin:round;stroke-miterlimit:4;stroke-dasharray:none;stroke-dashoffset:0;stroke-opacity:1;marker:none;color-rendering:auto;image-rendering:auto;shape-rendering:auto;text-rendering:auto;enable-background:accumulate"
       d="M 8.9394531,5 C 7.5881223,5.0330012 6.4995971,6.1482663 6.5,7.5 6.5,8.8747896 7.6252104,10 9,10 10.37479,10 11.5,8.8747896 11.5,7.5 11.5,6.1252104 10.37479,5 9,5 8.9816242,4.9998191 8.963688,4.9997757 8.9453125,5 c -0.00195,-1.14e-5 -0.00391,-1.14e-5 -0.00586,0 z M 9,10 H 7.5 C 6.6776486,10 6,10.677649 6,11.5 6,12.322351 6.6776486,13 7.5,13 h 3 C 11.322351,13 12,12.322351 12,11.5 12,10.677649 11.322351,10 10.5,10 Z"
       id="path888" />
  </g>
</svg>
