<?xml version="1.0" encoding="UTF-8" standalone="no"?>
<svg
   xmlns:dc="http://purl.org/dc/elements/1.1/"
   xmlns:cc="http://creativecommons.org/ns#"
   xmlns:rdf="http://www.w3.org/1999/02/22-rdf-syntax-ns#"
   xmlns:svg="http://www.w3.org/2000/svg"
   xmlns="http://www.w3.org/2000/svg"
   id="svg3216"
   height="16"
   width="16"
   version="1.1">
  <defs
     id="defs3218" />
  <metadata
     id="metadata3221">
    <rdf:RDF>
      <cc:Work
         rdf:about="">
        <dc:format>image/svg+xml</dc:format>
        <dc:type
           rdf:resource="http://purl.org/dc/dcmitype/StillImage" />
        <dc:title />
      </cc:Work>
    </rdf:RDF>
  </metadata>
  <path
     d="M 13.491301,2.3043766 C 13.39467,1.6493144 13.45489,1.1334488 13.401512,0.50869876 l -9.8928133,0 0.058388,1.98260254"
     id="path2723"
     style="display:inline;fill:#fafafa;fill-opacity:1;stroke:#343434;stroke-width:1.01739752;stroke-linecap:butt;stroke-linejoin:round;stroke-miterlimit:0;stroke-dasharray:none;stroke-dashoffset:0;stroke-opacity:1" />
  <path
     d="m 4.4999999,2.5 -1.6000002,0 C 2.6716605,2.5 2.4999999,2.478829 2.4999999,2.451214 l 0,-1.3982157 c 0,-0.4439613 0.2236128,-0.55299825 0.5163576,-0.55299825 l 1.4836424,0"
     id="rect5505-21-3-9"
     style="color:#000000;display:inline;overflow:visible;visibility:visible;fill:#fafafa;fill-opacity:1;fill-rule:nonzero;stroke:#343434;stroke-width:0.99999988;stroke-linecap:round;stroke-linejoin:round;stroke-miterlimit:4;stroke-dasharray:none;stroke-dashoffset:0;stroke-opacity:1;marker:none;enable-background:accumulate" />
  <rect
     width="9.9809589"
     height="12.980959"
     x="3.5095205"
     y="2.5095205"
     id="rect2719"
     style="display:inline;fill:#569dd3;fill-opacity:1;stroke:#343434;stroke-width:1.01904118;stroke-linecap:round;stroke-linejoin:round;stroke-miterlimit:0;stroke-dasharray:none;stroke-dashoffset:0;stroke-opacity:1" />
  <path
     d="m 4.4999999,2.5 c 0,0 0,9.039476 0,13 L 2.9,15.5 c -0.2283394,0 -0.4000001,-0.137593 -0.4000001,-0.317074 l 0,-12.682926 z"
     id="rect5505-21-3"
     style="color:#000000;display:inline;overflow:visible;visibility:visible;fill:#343434;fill-opacity:1;fill-rule:nonzero;stroke:#343434;stroke-width:0.99999994;stroke-linecap:round;stroke-linejoin:round;stroke-miterlimit:4;stroke-dasharray:none;stroke-dashoffset:0;stroke-opacity:1;marker:none;enable-background:accumulate" />
  <path
     d="M 8.9737123,5.5134934 C 8.4892707,5.4815558 8.0166377,5.7619615 7.7348192,6.1418136 7.4606051,6.6316038 7.6845211,7.2150579 7.5133194,7.7320756 7.4091859,8.1022002 7.5120771,8.4968528 7.7853646,8.7657415 8.0179414,9.0564835 8.304373,9.4353534 8.1449313,9.8259352 7.9141626,10.265576 7.4543545,10.522958 7.0355887,10.757543 c -0.271372,0.109443 -0.7940598,0.383962 -0.4501728,0.709984 0.1560121,0.101982 0.3382908,-0.01026 0.5123215,0.02257 1.4674209,0 2.9348416,0 4.4022626,0 0,-0.176524 0,-0.353049 0,-0.529573 C 10.940747,10.65933 10.309059,10.36914 9.9946665,9.7829776 9.8880972,9.3224911 10.216137,8.9190674 10.503163,8.5993209 10.785971,8.2429598 10.672789,7.773055 10.574049,7.3747488 10.53229,6.9340823 10.676066,6.4136996 10.344632,6.0525857 9.9862929,5.6922785 9.4684066,5.5454886 8.9737123,5.5134934 Z"
     id="path3107"
     style="color:#000000;display:inline;overflow:visible;visibility:visible;fill:#343434;fill-opacity:1;fill-rule:nonzero;stroke:#343434;stroke-width:0.99999976;stroke-linecap:round;stroke-linejoin:round;stroke-miterlimit:4;stroke-dasharray:none;stroke-dashoffset:0;stroke-opacity:1;marker:none;enable-background:accumulate" />
</svg>
