<?xml version="1.0" encoding="UTF-8" standalone="no"?>
<svg
   xmlns:osb="http://www.openswatchbook.org/uri/2009/osb"
   xmlns:dc="http://purl.org/dc/elements/1.1/"
   xmlns:cc="http://creativecommons.org/ns#"
   xmlns:rdf="http://www.w3.org/1999/02/22-rdf-syntax-ns#"
   xmlns:svg="http://www.w3.org/2000/svg"
   xmlns="http://www.w3.org/2000/svg"
   xmlns:sodipodi="http://sodipodi.sourceforge.net/DTD/sodipodi-0.dtd"
   xmlns:inkscape="http://www.inkscape.org/namespaces/inkscape"
   width="16"
   version="1.1"
   style="enable-background:new"
   id="svg7384"
   height="16"
   inkscape:version="0.91 r13725"
   sodipodi:docname="system-users-symbolic.svg">
  <sodipodi:namedview
     pagecolor="#ffffff"
     bordercolor="#666666"
     borderopacity="1"
     objecttolerance="10"
     gridtolerance="10"
     guidetolerance="10"
     inkscape:pageopacity="0"
     inkscape:pageshadow="2"
     inkscape:window-width="1920"
     inkscape:window-height="1026"
     id="namedview21"
     showgrid="true"
     inkscape:zoom="14.75"
     inkscape:cx="1.260728"
     inkscape:cy="-3.3172329"
     inkscape:window-x="0"
     inkscape:window-y="0"
     inkscape:window-maximized="1"
     inkscape:current-layer="svg7384">
    <inkscape:grid
       type="xygrid"
       id="grid4167" />
  </sodipodi:namedview>
  <metadata
     id="metadata90">
    <rdf:RDF>
      <cc:Work
         rdf:about="">
        <dc:format>image/svg+xml</dc:format>
        <dc:type
           rdf:resource="http://purl.org/dc/dcmitype/StillImage" />
        <dc:title>Moka Symbolic Icon Theme</dc:title>
      </cc:Work>
    </rdf:RDF>
  </metadata>
  <title
     id="title8473">Moka Symbolic Icon Theme</title>
  <defs
     id="defs7386">
    <linearGradient
       osb:paint="solid"
       id="linearGradient5606">
      <stop
         style="stop-color:#000000;stop-opacity:1;"
         offset="0"
         id="stop5608" />
    </linearGradient>
    <filter
       style="color-interpolation-filters:sRGB"
       id="filter7554">
      <feBlend
         mode="darken"
         in2="BackgroundImage"
         id="feBlend7556" />
    </filter>
  </defs>
  <g
     transform="translate(-661.0002,-14.99664)"
     style="display:inline"
     id="layer9" />
  <g
     transform="translate(-661.0002,-14.99664)"
     style="display:inline;filter:url(#filter7554)"
     id="layer10" />
  <g
     transform="translate(-420,-631.99664)"
     style="display:inline"
     id="layer1" />
  <g
     transform="translate(-661.0002,-14.99664)"
     style="display:inline"
     id="layer14" />
  <g
     transform="translate(-661.0002,-14.99664)"
     style="display:inline"
     id="layer15" />
  <g
     transform="translate(-661.0002,-14.99664)"
     style="display:inline"
     id="g71291" />
  <g
     transform="translate(-420,-481.99664)"
     style="display:inline"
     id="layer2" />
  <g
     transform="translate(-661.0002,-14.99664)"
     style="display:inline"
     id="layer12" />
  <path
     d="m 4.499995,0 c -1.656855,0 -3,1.343145 -3,3 0,1.656855 1.343145,3 3,3 1.656855,0 3,-1.343145 3,-3 0,-1.656855 -1.343145,-3 -3,-3 z"
     id="path6751-4-6-8"
     style="color:#bebebe;display:inline;overflow:visible;visibility:visible;fill:#bebebe;fill-opacity:1;fill-rule:nonzero;stroke:none;stroke-width:1;marker:none;enable-background:accumulate"
     inkscape:connector-curvature="0" />
  <path
     style="fill:#bebebe;fill-opacity:1;fill-rule:evenodd;stroke:none"
     d="M 2.0859375 5.8359375 C 0.3994425 6.70935 0 8.469675 0 10.5 L 8.2792969 10.5 C 7.8002121 9.9683458 7.5 9.2720168 7.5 8.5 C 7.5 7.8596954 7.7031417 7.2684334 8.0449219 6.78125 C 7.7539583 6.407063 7.3902964 6.0825725 6.9140625 5.8359375 C 6.25812 6.397065 5.4254475 6.75 4.5 6.75 C 3.5745525 6.75 2.74188 6.397065 2.0859375 5.8359375 z "
     id="path6729-2-9-7" />
  <path
     d="M 9.085938,11.335938 C 7.399442,12.20935 7,13.969675 7,16 l 9,0 C 16,13.969675 15.600557,12.20935 13.914063,11.335938 13.25812,11.897065 12.425447,12.25 11.5,12.25 c -0.925447,0 -1.75812,-0.352935 -2.414062,-0.914062 z"
     id="path6729-2-9-78"
     style="fill:#bebebe;fill-opacity:1;fill-rule:evenodd;stroke:none;enable-background:new"
     inkscape:connector-curvature="0" />
  <path
     d="m 11.5,5.4999996 c -1.656855,0 -3,1.343145 -3,3 C 8.5,10.156855 9.843145,11.5 11.5,11.5 c 1.656855,0 3,-1.343145 3,-3.0000004 0,-1.656855 -1.343145,-3 -3,-3 z"
     id="path6751-4-6-9"
     style="color:#bebebe;display:inline;overflow:visible;visibility:visible;fill:#bebebe;fill-opacity:1;fill-rule:nonzero;stroke:none;stroke-width:1;marker:none;enable-background:accumulate"
     inkscape:connector-curvature="0" />
</svg>
