<?xml version="1.0" encoding="UTF-8" standalone="no"?>
<svg
   xmlns:osb="http://www.openswatchbook.org/uri/2009/osb"
   xmlns:dc="http://purl.org/dc/elements/1.1/"
   xmlns:cc="http://creativecommons.org/ns#"
   xmlns:rdf="http://www.w3.org/1999/02/22-rdf-syntax-ns#"
   xmlns:svg="http://www.w3.org/2000/svg"
   xmlns="http://www.w3.org/2000/svg"
   xmlns:sodipodi="http://sodipodi.sourceforge.net/DTD/sodipodi-0.dtd"
   xmlns:inkscape="http://www.inkscape.org/namespaces/inkscape"
   width="16"
   version="1.1"
   style="enable-background:new"
   id="svg7384"
   height="16"
   inkscape:version="0.91 r13725"
   sodipodi:docname="user-info-symbolic.svg">
  <sodipodi:namedview
     pagecolor="#ffffff"
     bordercolor="#666666"
     borderopacity="1"
     objecttolerance="10"
     gridtolerance="10"
     guidetolerance="10"
     inkscape:pageopacity="0"
     inkscape:pageshadow="2"
     inkscape:window-width="1920"
     inkscape:window-height="1026"
     id="namedview21"
     showgrid="true"
     inkscape:zoom="11.313709"
     inkscape:cx="5.8865101"
     inkscape:cy="6.9719565"
     inkscape:window-x="0"
     inkscape:window-y="0"
     inkscape:window-maximized="1"
     inkscape:current-layer="svg7384">
    <inkscape:grid
       type="xygrid"
       id="grid4161" />
  </sodipodi:namedview>
  <metadata
     id="metadata90">
    <rdf:RDF>
      <cc:Work
         rdf:about="">
        <dc:format>image/svg+xml</dc:format>
        <dc:type
           rdf:resource="http://purl.org/dc/dcmitype/StillImage" />
        <dc:title>Moka Symbolic Icon Theme</dc:title>
      </cc:Work>
    </rdf:RDF>
  </metadata>
  <title
     id="title8473">Moka Symbolic Icon Theme</title>
  <defs
     id="defs7386">
    <linearGradient
       osb:paint="solid"
       id="linearGradient5606">
      <stop
         style="stop-color:#000000;stop-opacity:1;"
         offset="0"
         id="stop5608" />
    </linearGradient>
    <filter
       style="color-interpolation-filters:sRGB"
       id="filter7554">
      <feBlend
         mode="darken"
         in2="BackgroundImage"
         id="feBlend7556" />
    </filter>
  </defs>
  <g
     transform="translate(-661.0002,-14.99664)"
     style="display:inline"
     id="layer9" />
  <g
     transform="translate(-661.0002,-14.99664)"
     style="display:inline;filter:url(#filter7554)"
     id="layer10" />
  <g
     transform="translate(-420,-631.99664)"
     style="display:inline"
     id="layer1" />
  <g
     transform="translate(-661.0002,-14.99664)"
     style="display:inline"
     id="layer14" />
  <g
     transform="translate(-661.0002,-14.99664)"
     style="display:inline"
     id="layer15" />
  <g
     transform="translate(-661.0002,-14.99664)"
     style="display:inline"
     id="g71291" />
  <g
     transform="translate(-420,-481.99664)"
     style="display:inline"
     id="layer2" />
  <path
     style="color:#bebebe;display:inline;overflow:visible;visibility:visible;fill:#bebebe;fill-opacity:1;fill-rule:nonzero;stroke:none;stroke-width:2;marker:none;enable-background:accumulate"
     d="m 7.9999499,2.99999 a 3,3 0 0 1 -3,3 3,3 0 0 1 -3,-3 3,3 0 0 1 3,-3.00000001358 3,3 0 0 1 3,3.00000001358 z"
     id="path9221" />
  <path
     inkscape:connector-curvature="0"
     d="m 8.87515,8.00002 c -0.49245,0 -0.875,0.38256 -0.875,0.875 l 0,6.25 c 0,0.49244 0.38255,0.875 0.875,0.875 l 6.25,0 c 0.49245,0 0.875,-0.38256 0.875,-0.875 l 0,-6.25 c 0,-0.49244 -0.38255,-0.875 -0.875,-0.875 z m 2.125,1 2,0 0,1 -2,0 z m 0,2 2,0 0,4 -2,0 z"
     id="path9233"
     sodipodi:nodetypes="ccccccccccccccccccc"
     style="color:#bebebe;display:inline;overflow:visible;visibility:visible;fill:#bebebe;fill-opacity:1;fill-rule:nonzero;stroke:none;stroke-width:2;marker:none;enable-background:accumulate" />
  <path
     style="fill:#bebebe;fill-opacity:1;fill-rule:evenodd;stroke:none;enable-background:new"
     d="M 2.3183594 6 C 0.44447598 7.1235858 0 9.3881246 0 12 L 7 12 L 7 7.875 C 7 7.38256 7.38255 7 7.875 7 L 8.7949219 7 C 8.4962123 6.6096039 8.1316146 6.2698056 7.6816406 6 C 6.9528156 6.7218524 6.028275 7.1757813 5 7.1757812 C 3.971725 7.1757812 3.0471844 6.7218524 2.3183594 6 z "
     id="path6729-2-2" />
  <g
     transform="translate(-661.0002,-14.99664)"
     style="display:inline"
     id="layer12" />
</svg>
