<?xml version="1.0" encoding="UTF-8" standalone="no"?>
<svg
   xmlns:dc="http://purl.org/dc/elements/1.1/"
   xmlns:cc="http://creativecommons.org/ns#"
   xmlns:rdf="http://www.w3.org/1999/02/22-rdf-syntax-ns#"
   xmlns:svg="http://www.w3.org/2000/svg"
   xmlns="http://www.w3.org/2000/svg"
   version="1.1"
   width="24"
   height="24"
   id="svg3828">
  <defs
     id="defs3830" />
  <metadata
     id="metadata3833">
    <rdf:RDF>
      <cc:Work
         rdf:about="">
        <dc:format>image/svg+xml</dc:format>
        <dc:type
           rdf:resource="http://purl.org/dc/dcmitype/StillImage" />
        <dc:title />
      </cc:Work>
    </rdf:RDF>
  </metadata>
  <path
     d="m 4,2 c 3.6664118,0 15.99998,0.0013 15.99998,0.0013 L 20,22 C 20,22 9.3333337,22 4,22 4,15.33334 4,8.6666817 4,2.0000212 Z"
     id="path4160-3"
     style="display:inline;fill:#fafafa;fill-opacity:1;stroke:none" />
  <path
     style="display:inline;overflow:visible;visibility:visible;opacity:0.4;fill:#d4d4d4;fill-opacity:1;fill-rule:evenodd;stroke:none;stroke-width:1.21500194;marker:none"
     id="path2648"
     d="m 10,15 -2,0 0,2 2,0 z m 2.000001,-9.9999997 -2.000001,0 10e-7,1.9999993 1.999999,0 z m 3.999999,0 -2,0 0,1.9999993 2,0 z m -2,1.9999993 -2,0 0,2 2,0 z m -6.0000001,-1.9999993 -2,0 0,1.9999993 2,0 z M 18,6.9999996 l -2,0 0,2.0000001 2,0 z m -2,2.0000001 -2,0 L 14,11 16,11 Z M 14,11 l -2,0 0,2 2,0 z m -2,-2.0000003 -1.999999,0 0,2.0000003 L 12,11 Z m -2.0000009,-2.0000001 -1.9999992,0 0,2.0000001 1.9999992,0 z m -1.9999992,2.0000001 -2,0 0,2.0000003 2.0000015,0 z M 9.9999991,11 l -2.0000007,0 0,2 2.0000007,0 z m -1.9999977,2 -2.0000015,0 0,2 2,0 z M 18,11 l -2,0 0,2 2,0 z m -2,2 -2,0 0,2 2,0 z m 2,2 -2,0 0,2 2,0 z m -2,2 -2,0 0,2 2,0 z m -2,-2 -2,0 0,2 2,0 z m -1.999999,-2 -2,0 -10e-7,2 2,0 z M 12,17 l -2,0 0,2 2,0 z m -4.0000001,0 -2,0 0,2 2,0 z" />
  <path
     d="m 3.4999601,1.4999569 c 3.8955809,0 17.0000589,0.00136 17.0000589,0.00136 l 2.1e-5,20.9987161 c 0,0 -11.3333862,0 -17.0000799,0 0,-7.000018 0,-14.000035 0,-21.0000538 z"
     id="path4160-3-1"
     style="opacity:0.3;fill:none;stroke:#000000;stroke-width:0.99992186;stroke-linecap:butt;stroke-linejoin:round;stroke-miterlimit:4;stroke-opacity:1;stroke-dasharray:none;stroke-dashoffset:0;display:inline" />
  <path
     style="opacity:1;fill:#7e8087;fill-opacity:1;fill-rule:evenodd;stroke:none"
     d="m 12,6.0625 c -3.3120001,0 -6.0000002,2.65996 -6.0000002,5.9375 0,3.27755 2.6880001,5.9375 6.0000002,5.9375 3.312,0 6,-2.65995 6,-5.9375 0,-3.27754 -2.688,-5.9375 -6,-5.9375 z m 0,1.48438 c 2.48402,0 4.5,1.99495 4.5,4.45312 0,2.45818 -2.01598,4.45313 -4.5,4.45312 -2.4840202,0 -4.5000002,-1.99494 -4.5000002,-4.45312 0,-2.4581701 2.01598,-4.4531201 4.5000002,-4.4531201 z m -0.17188,1.23632 -0.5,3.46485 2.5,1.97851 0,-0.49414 -1.5,-1.98047 0,-2.96875 -0.5,0 z"
     id="path3609-3" />
</svg>
