<?xml version="1.0" encoding="UTF-8" standalone="no"?>
<!-- Created with Inkscape (http://www.inkscape.org/) -->

<svg
   inkscape:export-ydpi="90.000000"
   inkscape:export-xdpi="90.000000"
   width="480"
   height="300"
   id="svg11300"
   sodipodi:version="0.32"
   inkscape:version="1.2.2 (b0a8486541, 2022-12-01)"
   sodipodi:docname="battlenet.svg"
   inkscape:output_extension="org.inkscape.output.svg.inkscape"
   version="1.0"
   style="display:inline;enable-background:new"
   inkscape:export-filename="/home/sam/moka-next-template.png"
   xmlns:inkscape="http://www.inkscape.org/namespaces/inkscape"
   xmlns:sodipodi="http://sodipodi.sourceforge.net/DTD/sodipodi-0.dtd"
   xmlns:xlink="http://www.w3.org/1999/xlink"
   xmlns="http://www.w3.org/2000/svg"
   xmlns:svg="http://www.w3.org/2000/svg"
   xmlns:rdf="http://www.w3.org/1999/02/22-rdf-syntax-ns#"
   xmlns:cc="http://creativecommons.org/ns#"
   xmlns:dc="http://purl.org/dc/elements/1.1/">
  <style
     id="style8223">
.measure-arrow
{
}
.measure-label
{

}
.measure-line
{
}</style>
  <sodipodi:namedview
     stroke="#ef2929"
     fill="#f57900"
     id="base"
     pagecolor="#777777"
     bordercolor="#666666"
     borderopacity="0.25490196"
     inkscape:pageopacity="0"
     inkscape:pageshadow="2"
     inkscape:zoom="1"
     inkscape:cx="110.5"
     inkscape:cy="177"
     inkscape:current-layer="layer6"
     showgrid="false"
     inkscape:grid-bbox="true"
     inkscape:document-units="px"
     inkscape:showpageshadow="false"
     inkscape:window-width="1920"
     inkscape:window-height="1008"
     inkscape:window-x="0"
     inkscape:window-y="0"
     width="400px"
     height="300px"
     inkscape:snap-nodes="true"
     inkscape:snap-bbox="true"
     gridtolerance="10000"
     inkscape:object-nodes="true"
     inkscape:snap-grids="true"
     showguides="true"
     inkscape:guide-bbox="true"
     inkscape:window-maximized="1"
     inkscape:bbox-nodes="true"
     inkscape:bbox-paths="true"
     inkscape:snap-bbox-edge-midpoints="true"
     inkscape:snap-bbox-midpoints="true"
     inkscape:pagecheckerboard="0"
     inkscape:deskcolor="#d1d1d1">
    <inkscape:grid
       spacingy="1"
       spacingx="1"
       id="grid5883"
       type="xygrid"
       enabled="true"
       visible="true"
       empspacing="4"
       snapvisiblegridlinesonly="true"
       dotted="false"
       color="#000000"
       opacity="0.1254902"
       empcolor="#203ef3"
       empopacity="0.36470588"
       originx="0"
       originy="0" />
    <inkscape:grid
       type="xygrid"
       id="grid11592"
       empspacing="8"
       visible="true"
       enabled="false"
       spacingx="0.5"
       spacingy="0.5"
       color="#ff0000"
       opacity="0.1254902"
       empcolor="#ff0000"
       empopacity="0.25098039"
       snapvisiblegridlinesonly="true"
       dotted="true"
       originx="0"
       originy="0" />
  </sodipodi:namedview>
  <defs
     id="defs3">
    <linearGradient
       inkscape:collect="always"
       xlink:href="#outerBackgroundGradient-6"
       id="linearGradient4254"
       x1="35"
       y1="156"
       x2="253"
       y2="156"
       gradientUnits="userSpaceOnUse"
       gradientTransform="rotate(-90,144,156)" />
    <linearGradient
       inkscape:collect="always"
       xlink:href="#outerBackgroundGradient-6"
       id="linearGradient4256"
       x1="417"
       y1="148"
       x2="431"
       y2="148"
       gradientUnits="userSpaceOnUse"
       gradientTransform="matrix(0,-1,1,0,276,572)" />
    <linearGradient
       inkscape:collect="always"
       xlink:href="#outerBackgroundGradient-6"
       id="linearGradient4260"
       x1="418"
       y1="68"
       x2="446"
       y2="68"
       gradientUnits="userSpaceOnUse"
       gradientTransform="matrix(0,-1,1,0,364,500)" />
    <linearGradient
       inkscape:collect="always"
       xlink:href="#outerBackgroundGradient-6"
       id="linearGradient4262"
       x1="292"
       y1="244"
       x2="332"
       y2="244"
       gradientUnits="userSpaceOnUse"
       gradientTransform="matrix(0,-1,1,0,68,556)" />
    <linearGradient
       inkscape:collect="always"
       xlink:href="#outerBackgroundGradient-6"
       id="linearGradient4264"
       x1="293"
       y1="76"
       x2="379"
       y2="76"
       gradientUnits="userSpaceOnUse"
       gradientTransform="matrix(0,-1,1,0,260,412)" />
    <linearGradient
       inkscape:collect="always"
       xlink:href="#outerBackgroundGradient-6"
       id="linearGradient4266"
       x1="291"
       y1="172"
       x2="349"
       y2="172"
       gradientUnits="userSpaceOnUse"
       gradientTransform="matrix(0,-1,1,0,148,492)" />
    <linearGradient
       inkscape:collect="always"
       xlink:href="#outerBackgroundGradient-6"
       id="linearGradient3870"
       gradientUnits="userSpaceOnUse"
       gradientTransform="matrix(0,-1,1,0,316,540)"
       x1="418"
       y1="112"
       x2="438"
       y2="112" />
    <linearGradient
       id="outerBackgroundGradient-6">
      <stop
         style="stop-color:#1a1c23;stop-opacity:1;"
         offset="0"
         id="stop3864-8-6-3" />
      <stop
         style="stop-color:#36383e;stop-opacity:1;"
         offset="1"
         id="stop3866-9-1-4" />
    </linearGradient>
  </defs>
  <metadata
     id="metadata4">
    <rdf:RDF>
      <cc:Work
         rdf:about="">
        <dc:format>image/svg+xml</dc:format>
        <dc:type
           rdf:resource="http://purl.org/dc/dcmitype/StillImage" />
        <dc:creator>
          <cc:Agent>
            <dc:title>Sam Hewitt</dc:title>
          </cc:Agent>
        </dc:creator>
        <dc:source />
        <cc:license
           rdf:resource="" />
        <dc:title />
        <dc:subject>
          <rdf:Bag />
        </dc:subject>
        <dc:date />
        <dc:rights>
          <cc:Agent>
            <dc:title />
          </cc:Agent>
        </dc:rights>
        <dc:publisher>
          <cc:Agent>
            <dc:title />
          </cc:Agent>
        </dc:publisher>
        <dc:identifier />
        <dc:relation />
        <dc:language />
        <dc:coverage />
        <dc:description />
        <dc:contributor>
          <cc:Agent>
            <dc:title />
          </cc:Agent>
        </dc:contributor>
      </cc:Work>
      <cc:Work
         rdf:about="">
        <dc:format>image/svg+xml</dc:format>
        <dc:type
           rdf:resource="http://purl.org/dc/dcmitype/StillImage" />
      </cc:Work>
    </rdf:RDF>
  </metadata>
  <g
     style="display:inline"
     inkscape:groupmode="layer"
     inkscape:label="Icon"
     id="layer1">
    <g
       style="display:none"
       inkscape:label="Baseplate"
       id="layer7"
       inkscape:groupmode="layer">
      <text
         y="19.745117"
         xml:space="preserve"
         x="15.006836"
         style="font-style:normal;font-variant:normal;font-weight:normal;font-stretch:normal;line-height:0%;font-family:'DejaVu Sans';-inkscape-font-specification:'DejaVu Sans';display:inline;fill:#000000;fill-opacity:1;stroke:none;enable-background:new"
         inkscape:label="context"
         id="context"><tspan
           style="font-style:normal;font-variant:normal;font-weight:normal;font-stretch:normal;font-size:18px;line-height:1.25;font-family:'DejaVu Sans';-inkscape-font-specification:'DejaVu Sans'"
           y="19.745117"
           x="15.006836"
           sodipodi:role="line"
           id="tspan3933">apps</tspan></text>
      <text
         y="19.745117"
         xml:space="preserve"
         x="122.48828"
         style="font-style:normal;font-variant:normal;font-weight:bold;font-stretch:normal;line-height:0%;font-family:'DejaVu Sans';-inkscape-font-specification:'DejaVu Sans Bold';text-align:start;writing-mode:lr-tb;text-anchor:start;display:inline;fill:#000000;fill-opacity:1;stroke:none;enable-background:new"
         inkscape:label="icon-name"
         id="icon-name"><tspan
           style="font-style:normal;font-variant:normal;font-weight:bold;font-stretch:normal;font-size:18px;line-height:1.25;font-family:'DejaVu Sans';-inkscape-font-specification:'DejaVu Sans Bold'"
           y="19.745117"
           x="122.48828"
           sodipodi:role="line"
           id="tspan3937">battlenet</tspan></text>
      <rect
         style="fill:#eeeeec;fill-opacity:1;fill-rule:nonzero;stroke:none;stroke-width:2;marker:none;visibility:visible;display:inline;overflow:visible;enable-background:accumulate"
         id="rect16x16"
         width="16"
         height="16"
         x="416"
         y="140"
         inkscape:label="16x16" />
      <rect
         style="fill:#d4d4d4;fill-opacity:1;fill-rule:nonzero;stroke:none;stroke-width:2;marker:none;visibility:visible;display:inline;overflow:visible;enable-background:accumulate"
         id="rect24x24"
         width="24"
         height="24"
         x="416"
         y="100"
         inkscape:label="24x24" />
      <rect
         style="fill:#eeeeec;fill-opacity:1;fill-rule:nonzero;stroke:none;stroke-width:2;marker:none;visibility:visible;display:inline;overflow:visible;enable-background:accumulate"
         id="rect32x32"
         width="32"
         height="32"
         x="416"
         y="52"
         inkscape:label="32x32" />
      <rect
         inkscape:label="22x22"
         y="101"
         x="417"
         height="22"
         width="22"
         id="rect22x22"
         style="fill:#eeeeec;fill-opacity:1;fill-rule:nonzero;stroke:none;stroke-width:2;marker:none;visibility:visible;display:inline;overflow:visible;enable-background:accumulate" />
      <rect
         inkscape:label="48x48"
         y="220"
         x="288"
         height="48"
         width="48"
         id="rect48x48"
         style="fill:#eeeeec;fill-opacity:1;fill-rule:nonzero;stroke:none;stroke-width:2;marker:none;visibility:visible;display:inline;overflow:visible;enable-background:accumulate" />
      <rect
         style="fill:#eeeeec;fill-opacity:1;fill-rule:nonzero;stroke:none;stroke-width:2;marker:none;visibility:visible;display:inline;overflow:visible;enable-background:accumulate"
         id="rect256x256"
         width="256"
         height="256"
         x="16"
         y="28"
         inkscape:label="256x256" />
      <rect
         style="fill:#eeeeec;fill-opacity:1;fill-rule:nonzero;stroke:none;stroke-width:2;marker:none;visibility:visible;display:inline;overflow:visible;enable-background:accumulate"
         id="rect64x64"
         width="64"
         height="64"
         x="288"
         y="140"
         inkscape:label="64x64" />
      <rect
         style="fill:#eeeeec;fill-opacity:1;fill-rule:nonzero;stroke:none;stroke-width:2;marker:none;visibility:visible;display:inline;overflow:visible;enable-background:accumulate"
         id="rect96x96"
         width="96"
         height="96"
         x="288"
         y="28"
         inkscape:label="96x96" />
    </g>
    <g
       inkscape:groupmode="layer"
       id="layer4"
       inkscape:label="Shadow"
       style="display:inline"
       sodipodi:insensitive="true">
      <rect
         ry="50"
         y="47"
         x="34"
         height="220"
         width="220"
         id="rect4114"
         style="opacity:0.1;color:#bebebe;fill:#000000;fill-opacity:1;fill-rule:nonzero;stroke:none;stroke-width:0;marker:none;visibility:visible;display:inline;overflow:visible;enable-background:accumulate" />
      <rect
         style="opacity:0.1;color:#bebebe;fill:#000000;fill-opacity:1;fill-rule:nonzero;stroke:none;stroke-width:0;marker:none;visibility:visible;display:inline;overflow:visible;enable-background:accumulate"
         id="rect4120"
         width="30"
         height="30"
         x="417"
         y="54"
         ry="7" />
      <rect
         transform="scale(1,-1)"
         ry="9"
         y="-266"
         x="291"
         height="42"
         width="42"
         id="rect4122"
         style="opacity:0.1;color:#bebebe;fill:#000000;fill-opacity:1;fill-rule:nonzero;stroke:none;stroke-width:0;marker:none;visibility:visible;display:inline;overflow:visible;enable-background:accumulate" />
      <rect
         style="opacity:0.1;color:#bebebe;fill:#000000;fill-opacity:1;fill-rule:nonzero;stroke:none;stroke-width:0;marker:none;visibility:visible;display:inline;overflow:visible;enable-background:accumulate"
         id="rect4124"
         width="88"
         height="88"
         x="292"
         y="33"
         ry="18" />
      <rect
         ry="12.5"
         y="143"
         x="290"
         height="60"
         width="60"
         id="rect4126"
         style="opacity:0.1;color:#bebebe;fill:#000000;fill-opacity:1;fill-rule:nonzero;stroke:none;stroke-width:0;marker:none;visibility:visible;display:inline;overflow:visible;enable-background:accumulate" />
      <path
         id="path4268"
         d="m 422,101 c -2.77,0 -5,2.23 -5,5 l 0,12 c 0,2.77 2.23,5 5,5 l 12,0 c 2.77,0 5,-2.23 5,-5 l 0,-12 c 0,-2.77 -2.23,-5 -5,-5 z"
         style="opacity:0.1;color:#bebebe;fill:#000000;fill-opacity:1;fill-rule:nonzero;stroke:none;stroke-width:0;marker:none;visibility:visible;display:inline;overflow:visible;enable-background:accumulate"
         inkscape:connector-curvature="0"
         sodipodi:nodetypes="sssssssss" />
      <path
         id="path4270"
         d="m 419,140 c -1.662,0 -3,1.338 -3,3 l 0,10 c 0,1.662 1.338,3 3,3 l 10,0 c 1.662,0 3,-1.338 3,-3 l 0,-10 c 0,-1.662 -1.338,-3 -3,-3 z"
         style="opacity:0.1;color:#bebebe;fill:#000000;fill-opacity:1;fill-rule:nonzero;stroke:none;stroke-width:0;marker:none;visibility:visible;display:inline;overflow:visible;enable-background:accumulate"
         inkscape:connector-curvature="0"
         sodipodi:nodetypes="sssssssss" />
    </g>
    <g
       inkscape:groupmode="layer"
       id="layer2"
       inkscape:label="Background"
       style="display:inline">
      <path
         style="color:#bebebe;display:inline;overflow:visible;visibility:visible;fill:url(#linearGradient4254);fill-opacity:1;fill-rule:nonzero;stroke:none;stroke-width:2;marker:none;enable-background:accumulate"
         d="M 84,46.5 C 56.568735,46.5 34.5,68.568732 34.5,96.000004 V 216 c 0,27.43127 22.068735,49.5 49.5,49.5 h 119.99999 c 27.43127,0 49.5,-22.06873 49.5,-49.5 V 96.000004 C 253.49999,68.568732 231.43126,46.5 203.99999,46.5 Z"
         id="path4200" />
      <path
         style="color:#bebebe;fill:url(#linearGradient4256);fill-opacity:1.0;fill-rule:nonzero;stroke:none;stroke-width:2;marker:none;visibility:visible;display:inline;overflow:visible;enable-background:accumulate"
         d="M 419 140.5 C 417.6156 140.5 416.5 141.6156 416.5 143 L 416.5 153 C 416.5 154.3844 417.6156 155.5 419 155.5 L 429 155.5 C 430.3844 155.5 431.5 154.3844 431.5 153 L 431.5 143 C 431.5 141.6156 430.3844 140.5 429 140.5 L 419 140.5 z "
         id="path4202" />
      <path
         style="color:#bebebe;fill:url(#linearGradient3870);fill-opacity:1.0;fill-rule:nonzero;stroke:none;stroke-width:2;marker:none;visibility:visible;display:inline;overflow:visible;enable-background:accumulate"
         d="M 422 101.5 C 419.50301 101.5 417.5 103.50301 417.5 106 L 417.5 118 C 417.5 120.49699 419.50301 122.5 422 122.5 L 434 122.5 C 436.49699 122.5 438.5 120.49699 438.5 118 L 438.5 106 C 438.5 103.50301 436.49699 101.5 434 101.5 L 422 101.5 z "
         id="path4204" />
      <path
         style="color:#bebebe;fill:url(#linearGradient4260);fill-opacity:1.0;fill-rule:nonzero;stroke:none;stroke-width:2;marker:none;visibility:visible;display:inline;overflow:visible;enable-background:accumulate"
         d="M 424 53.5 C 420.39346 53.5 417.5 56.393464 417.5 60 L 417.5 76 C 417.5 79.606536 420.39346 82.5 424 82.5 L 440 82.5 C 443.60654 82.5 446.5 79.606536 446.5 76 L 446.5 60 C 446.5 56.393464 443.60654 53.5 440 53.5 L 424 53.5 z "
         id="path4206" />
      <path
         style="color:#bebebe;fill:url(#linearGradient4262);fill-opacity:1.0;fill-rule:nonzero;stroke:none;stroke-width:2;marker:none;visibility:visible;display:inline;overflow:visible;enable-background:accumulate"
         d="M 300 223.5 C 295.28469 223.5 291.5 227.28469 291.5 232 L 291.5 256 C 291.5 260.71531 295.28469 264.5 300 264.5 L 324 264.5 C 328.71531 264.5 332.5 260.71531 332.5 256 L 332.5 232 C 332.5 227.28469 328.71531 223.5 324 223.5 L 300 223.5 z "
         id="path4208" />
      <path
         style="color:#bebebe;fill:url(#linearGradient4264);fill-opacity:1.0;fill-rule:nonzero;stroke:none;stroke-width:2;marker:none;visibility:visible;display:inline;overflow:visible;enable-background:accumulate"
         d="M 310 32.5 C 300.29745 32.5 292.5 40.297452 292.5 50 L 292.5 102 C 292.5 111.70255 300.29745 119.5 310 119.5 L 362 119.5 C 371.70255 119.5 379.5 111.70255 379.5 102 L 379.5 50 C 379.5 40.297452 371.70255 32.5 362 32.5 L 310 32.5 z "
         id="path4210" />
      <path
         style="color:#bebebe;fill:url(#linearGradient4266);fill-opacity:1.0;fill-rule:nonzero;stroke:none;stroke-width:2;marker:none;visibility:visible;display:inline;overflow:visible;enable-background:accumulate"
         d="M 302.5 142.5 C 295.84498 142.5 290.5 147.84498 290.5 154.5 L 290.5 189.5 C 290.5 196.15502 295.84498 201.5 302.5 201.5 L 337.5 201.5 C 344.15502 201.5 349.5 196.15502 349.5 189.5 L 349.5 154.5 C 349.5 147.84498 344.15502 142.5 337.5 142.5 L 302.5 142.5 z "
         id="path4212" />
    </g>
    <g
       inkscape:groupmode="layer"
       id="layer6"
       inkscape:label="Symbols"
       style="display:inline">
      <path
         id="path3180"
         style="opacity:0.2;fill:#000000;fill-opacity:1;stroke:none;stroke-width:0.309038"
         d="m 326.50195,45.144793 c -0.81548,0.02843 -1.60988,0.183386 -2.37304,0.47461 -4.64678,1.772434 -7.01821,8.164894 -6.73633,16.755859 -6.04978,1.287684 -10.87622,3.657876 -13.74414,6.818359 l -0.0801,0.08789 c -0.15375,0.17938 -0.45783,0.581375 -0.33398,0.794922 0.0918,0.16016 0.36155,0.0055 0.49609,-0.08203 l 0.0742,-0.05469 c 2.93625,-2.173901 7.97456,-3.802588 13.78515,-4.582031 0.48902,5.003389 1.80048,10.593261 4,16.363281 1.97744,5.187038 4.4341,9.826973 7.15039,13.751953 -3.5235,1.38378 -6.47879,1.474178 -8.09961,-0.236328 -2.23367,-2.355415 -2.15688,-6.375054 -0.52539,-11.109375 -0.21639,-0.529594 -0.42834,-1.063426 -0.63476,-1.601562 -0.57699,-1.5137 -1.10461,-3.045762 -1.58203,-4.59375 -6.75875,10.811847 -8.20826,20.919392 -3.13867,25.042969 3.85664,3.13913 10.58007,1.99684 17.87695,-2.54102 4.14065,4.59551 8.6068,7.5889 12.77734,8.49219 l 0.11719,0.0254 c 0.23064,0.0427 0.72966,0.10613 0.85352,-0.10742 0.094,-0.16229 -0.1753,-0.32016 -0.31836,-0.39063 l -0.084,-0.0352 c -3.35054,-1.45425 -7.28035,-5.00594 -10.85937,-9.648439 4.08726,-2.925584 8.2727,-6.854507 12.16992,-11.646484 3.50216,-4.305093 6.2923,-8.750637 8.33594,-13.066406 2.9576,2.361821 4.51215,4.871539 3.84375,7.130859 -0.92465,3.113505 -4.44158,5.05735 -9.35743,6.009766 -1.34491,1.734224 -2.76556,3.408375 -4.25781,5.017578 12.74231,0.448446 22.22016,-3.351685 23.25586,-9.800782 0.79013,-4.911563 -3.55972,-10.161917 -11.14062,-14.21289 1.91124,-5.883199 2.26943,-11.248714 0.96679,-15.3125 l -0.0371,-0.115234 c -0.079,-0.219953 -0.27199,-0.685547 -0.51757,-0.685547 -0.18792,0 -0.19037,0.312678 -0.17969,0.470703 l 0.0137,0.0918 c 0.41428,3.630286 -0.69618,8.806577 -2.92773,14.228515 -4.5763,-2.077805 -10.07301,-3.736802 -16.17188,-4.714844 -5.4796,-0.881946 -10.72675,-1.076154 -15.48242,-0.6875 0.56377,-3.741331 1.96237,-6.345534 4.25586,-6.896484 3.1562,-0.753818 6.59865,1.321975 9.88086,5.09961 0.56804,0.07688 1.13509,0.16084 1.70312,0.251953 1.62011,0.260525 3.21117,0.5704 4.77149,0.927734 -5.2375,-9.850888 -12.03773,-15.913871 -17.7461,-15.714844 z m -0.46093,19.705078 c 2.68764,0.03334 5.37157,0.259328 8.02929,0.675782 7.02995,1.131795 13.90465,3.628686 18.75,6.582031 -1.68241,3.168399 -3.6634,6.16899 -5.91601,8.960937 -4.49302,5.524443 -10.09413,10.22687 -15.07618,12.945313 -1.90201,-3.040529 -3.50957,-6.255628 -4.80078,-9.601563 -2.53691,-6.6541 -3.81049,-13.857325 -3.67382,-19.53125 0.89615,-0.03164 1.79161,-0.04236 2.6875,-0.03125 z"
         sodipodi:nodetypes="sccccccccccccccccsccccccccccccccscccccccccssccccccs" />
      <path
         id="path3188"
         style="opacity:0.2;fill:#000000;fill-opacity:1;stroke:none;stroke-width:0.206025"
         d="m 313.66777,151.76218 c -0.54367,0.0189 -1.07322,0.12421 -1.58201,0.31836 -3.09791,1.18162 -4.68007,5.44261 -4.49213,11.16992 -4.03327,0.85846 -7.25001,2.43793 -9.16199,4.54492 l -0.0527,0.0586 c -0.1025,0.11959 -0.30524,0.38692 -0.22266,0.52929 0.0612,0.10677 0.24038,0.003 0.33008,-0.0547 l 0.0488,-0.0371 c 1.95752,-1.44926 5.3175,-2.53311 9.19128,-3.05274 0.32602,3.3356 1.1996,7.06153 2.66598,10.9082 1.31833,3.45803 2.95662,6.55132 4.76752,9.16797 -2.34906,0.92252 -4.31976,0.98214 -5.40032,-0.1582 -1.48915,-1.57028 -1.43728,-4.25004 -0.3496,-7.40625 -0.14426,-0.35307 -0.2862,-0.70765 -0.42383,-1.06641 -0.38466,-1.00913 -0.73639,-2.03051 -1.05467,-3.0625 -4.50593,7.20791 -5.47352,13.94628 -2.09373,16.69532 2.57115,2.09275 7.05511,1.32992 11.91977,-1.69532 2.76051,3.06368 5.73704,5.05991 8.51747,5.66211 l 0.0781,0.0176 c 0.15375,0.0285 0.48774,0.0701 0.5703,-0.0723 0.0626,-0.10819 -0.11749,-0.21279 -0.21288,-0.25977 l -0.0566,-0.0234 c -2.23374,-0.9695 -4.85407,-3.3386 -7.24015,-6.43359 2.72491,-1.9504 5.515,-4.56902 8.11318,-7.76367 2.33481,-2.87006 4.19801,-5.83377 5.56048,-8.71094 1.97176,1.57455 3.00807,3.24771 2.56246,4.75391 -0.61645,2.07567 -2.96092,3.37091 -6.2382,4.00586 -0.89641,1.15635 -1.84516,2.27267 -2.8398,3.3457 8.49504,0.29897 14.81322,-2.2338 15.5037,-6.5332 0.52677,-3.27437 -2.37166,-6.77592 -7.42568,-9.47657 h -0.002 c 1.27419,-3.92214 1.51491,-7.49783 0.64647,-10.20703 l -0.0254,-0.0781 c -0.0527,-0.14664 -0.18198,-0.45704 -0.3457,-0.45704 -0.12529,0 -0.12626,0.20911 -0.11914,0.31446 l 0.008,0.0605 c 0.2762,2.42019 -0.4634,5.87171 -1.95114,9.48633 -3.05092,-1.38521 -6.71707,-2.4925 -10.78307,-3.14453 -3.65314,-0.58796 -7.14966,-0.71614 -10.32018,-0.45703 0.37585,-2.49423 1.30687,-4.23036 2.8359,-4.59766 2.10418,-0.50255 4.39963,0.88199 6.58781,3.40039 0.37869,0.0513 0.758,0.10725 1.1367,0.16797 1.08009,0.17369 2.14137,0.37897 3.1816,0.61719 -3.49173,-6.56725 -8.02625,-10.60925 -11.83188,-10.47656 z m -0.30663,13.13672 c 1.79179,0.0222 3.57964,0.17353 5.35149,0.45117 4.68673,0.75453 9.27149,2.41977 12.50179,4.38867 -1.1215,2.11179 -2.44378,4.11174 -3.94526,5.97266 -2.99539,3.68295 -6.72921,6.81856 -10.05065,8.63086 -1.26823,-2.02679 -2.34006,-4.16997 -3.20113,-6.40039 -1.69132,-4.43606 -2.5403,-9.23886 -2.44919,-13.02149 0.59745,-0.0211 1.19567,-0.0289 1.79295,-0.0215 z"
         sodipodi:nodetypes="sccccccccccccccccccccccccccccccccscccccccccssccccccs" />
      <path
         id="path3196"
         style="opacity:0.2;fill:#000000;fill-opacity:1;stroke:none;stroke-width:0.103013"
         d="m 428.83369,58.380556 c -0.27184,0.0095 -0.53663,0.06113 -0.79103,0.158203 -1.549,0.59082 -2.34012,2.722243 -2.24616,5.585938 -2.01667,0.429235 -3.6242,1.219928 -4.58022,2.273438 l -0.0273,0.02734 c -0.0513,0.05979 -0.15262,0.194442 -0.11134,0.265625 0.0306,0.05339 0.12118,0.0019 0.16603,-0.02734 l 0.0234,-0.01758 c 0.9788,-0.724643 2.65889,-1.267525 4.59584,-1.527343 0.16302,1.667819 0.59886,3.531712 1.33207,5.455078 0.65918,1.729037 1.47937,3.275639 2.38485,4.583984 -1.17456,0.461267 -2.15901,0.490102 -2.69931,-0.08008 -0.74459,-0.785149 -0.71964,-2.123042 -0.17578,-3.701172 -0.0721,-0.176533 -0.14215,-0.355774 -0.21095,-0.535156 -0.19268,-0.504837 -0.36986,-1.014955 -0.52932,-1.53125 -2.25301,3.603999 -2.73489,6.97311 -1.04495,8.347656 1.28561,1.046392 3.52678,0.664984 5.95918,-0.847656 1.38027,1.531859 2.86768,2.528973 4.25794,2.830078 l 0.0391,0.0098 c 0.0769,0.01424 0.24388,0.03603 0.28517,-0.03516 0.0313,-0.0541 -0.0578,-0.107369 -0.10548,-0.130859 l -0.0293,-0.01172 c -1.11689,-0.484756 -2.42618,-1.669276 -3.61925,-3.216797 1.36248,-0.975207 2.75764,-2.283511 4.05677,-3.880859 1.16743,-1.435051 2.09814,-2.918811 2.77938,-4.357422 0.98592,0.787285 1.5041,1.625789 1.28129,2.378906 -0.30824,1.03785 -1.48054,1.684478 -3.11923,2.001954 -0.4484,0.57808 -0.92051,1.13743 -1.41802,1.673828 4.24762,0.149483 7.40499,-1.11785 7.75024,-3.267578 0.26339,-1.637212 -1.18592,-3.387939 -3.713,-4.738282 0.6371,-1.961094 0.7565,-3.748902 0.32227,-5.103515 l -0.0117,-0.03906 c -0.0263,-0.07332 -0.0919,-0.228516 -0.17384,-0.228516 -0.0627,0 -0.0622,0.105529 -0.0586,0.158204 l 0.004,0.0293 c 0.1381,1.210112 -0.23271,2.93485 -0.97659,4.742188 -1.52551,-0.692611 -3.35774,-1.244294 -5.3908,-1.570312 -1.82661,-0.293986 -3.57502,-0.358069 -5.16031,-0.228516 0.18793,-1.247128 0.65349,-2.115176 1.41802,-2.298828 1.05211,-0.251277 2.19893,0.43999 3.29306,1.699218 0.18934,0.02563 0.37902,0.0536 0.56838,0.08398 0.54005,0.08684 1.07173,0.189481 1.59185,0.308594 -1.74591,-3.283676 -4.01333,-5.304626 -5.91621,-5.238282 z m -0.15429,6.56836 c 0.89612,0.01126 1.7917,0.08755 2.67781,0.226562 2.34342,0.37727 4.63499,1.208898 6.25019,2.19336 -0.56067,1.055894 -1.22205,2.05585 -1.97271,2.986328 -1.49774,1.841506 -3.36479,3.410245 -5.02554,4.316406 -0.63401,-1.013494 -1.16925,-2.085881 -1.59966,-3.201172 -0.84569,-2.218065 -1.27217,-4.620385 -1.22661,-6.511719 0.2988,-0.01051 0.59781,-0.01352 0.89652,-0.0098 z"
         sodipodi:nodetypes="sccccccccscccccccccsccccccccccccscccccccccssccccccs" />
      <path
         id="path3204"
         style="opacity:0.2;fill:#000000;fill-opacity:1;stroke:none;stroke-width:0.0749184"
         d="m 425.69669,105.27724 c -0.1977,0.007 -0.39117,0.0447 -0.57618,0.11524 -1.1265,0.42972 -1.70114,1.97994 -1.63281,4.06274 -1.46662,0.31219 -2.63677,0.88621 -3.33203,1.65244 l -0.0195,0.0215 c -0.0373,0.0435 -0.11009,0.13964 -0.0801,0.19141 0.0223,0.0388 0.0865,0.004 0.11914,-0.0176 l 0.0195,-0.0156 c 0.71183,-0.52704 1.93316,-0.92047 3.3418,-1.10945 0.11855,1.21303 0.43552,2.56816 0.96875,3.96704 0.47938,1.25754 1.07392,2.38261 1.73242,3.33418 -0.85419,0.33549 -1.56996,0.35606 -1.96289,-0.0586 -0.54151,-0.57105 -0.52247,-1.54378 -0.12695,-2.69156 -0.0525,-0.1284 -0.10426,-0.25823 -0.1543,-0.3887 -0.13977,-0.36686 -0.26716,-0.73818 -0.38281,-1.11335 -1.6385,2.62124 -1.99072,5.07095 -0.76172,6.07068 0.93495,0.76104 2.56699,0.48488 4.33594,-0.61528 1.00381,1.11414 2.08465,1.83972 3.0957,2.05871 l 0.0293,0.006 c 0.0559,0.0104 0.177,0.0245 0.20703,-0.0273 0.0228,-0.0393 -0.0415,-0.0768 -0.0762,-0.0937 l -0.0215,-0.008 c -0.81226,-0.35257 -1.76516,-1.21446 -2.63281,-2.33999 0.99086,-0.70928 2.00638,-1.66262 2.95117,-2.82439 0.84902,-1.04372 1.5241,-2.12182 2.01953,-3.16814 0.71701,0.5726 1.09368,1.18282 0.93164,1.73056 -0.22416,0.75483 -1.07585,1.22622 -2.26757,1.45712 -0.32609,0.42045 -0.6714,0.82478 -1.03321,1.21492 3.08907,0.10871 5.38759,-0.81161 5.63867,-2.37514 0.19155,-1.19076 -0.86336,-2.4634 -2.70117,-3.44551 0.46333,-1.42633 0.55017,-2.72788 0.23438,-3.71311 l -0.008,-0.0274 c -0.0192,-0.0533 -0.0675,-0.16602 -0.12695,-0.16602 -0.0456,0 -0.0456,0.0749 -0.043,0.11328 l 0.004,0.0234 c 0.10043,0.88014 -0.16995,2.13492 -0.71094,3.44943 -1.10941,-0.50375 -2.44139,-0.9075 -3.91992,-1.14461 -1.3284,-0.21382 -2.601,-0.26025 -3.75391,-0.16602 0.13667,-0.90705 0.47524,-1.53841 1.03125,-1.67198 0.76515,-0.18276 1.60079,0.32055 2.39649,1.2364 0.1377,0.0186 0.27635,0.0384 0.41406,0.0605 0.39275,0.0632 0.77603,0.13799 1.1543,0.22462 -1.26971,-2.38826 -2.91693,-3.85708 -4.30078,-3.80882 z m -0.11133,4.77763 c 0.65143,0.008 1.30111,0.0633 1.94531,0.16407 1.70424,0.27439 3.37223,0.87978 4.54687,1.59579 -0.40801,0.76837 -0.88922,1.49498 -1.43554,2.17201 -1.08923,1.33935 -2.44653,2.47978 -3.6543,3.13885 -0.46108,-0.73712 -0.85104,-1.51711 -1.16406,-2.32825 -0.61502,-1.61323 -0.92376,-3.35907 -0.89063,-4.73466 0.21721,-0.008 0.4352,-0.0105 0.65235,-0.008 z"
         sodipodi:nodetypes="cscscccccscccccccccsccccccccccccsccccccccccsccccccs" />
      <path
         id="path3212"
         style="opacity:0.2;fill:#000000;fill-opacity:1;stroke:none;stroke-width:0.0561888"
         d="m 422.27323,143.20813 c -0.14829,0.005 -0.29292,0.0349 -0.43169,0.0879 -0.84497,0.32222 -1.276,1.48467 -1.22475,3.04648 -1.10008,0.2341 -1.97877,0.66355 -2.50028,1.23812 l -0.0137,0.0176 c -0.028,0.0326 -0.0831,0.10373 -0.0605,0.14255 0.0167,0.0291 0.0654,0.003 0.0898,-0.0137 l 0.0137,-0.01 c 0.53393,-0.39521 1.44955,-0.69218 2.50615,-0.83388 0.0889,0.9096 0.32669,1.92524 0.72665,2.97422 0.35958,0.94298 0.80699,1.78808 1.30093,2.50163 -0.64072,0.25156 -1.1781,0.26601 -1.47283,-0.0449 -0.40618,-0.4282 -0.39233,-1.15857 -0.0957,-2.01926 -0.0393,-0.0963 -0.0777,-0.19315 -0.11525,-0.29097 -0.10483,-0.2751 -0.2004,-0.55256 -0.28715,-0.83388 -1.22901,1.96556 -1.49419,3.80249 -0.57232,4.55214 0.7013,0.57068 1.92545,0.36408 3.25232,-0.46088 0.75295,0.83545 1.56416,1.37855 2.32254,1.54277 l 0.0215,0.006 c 0.0419,0.008 0.13374,0.0193 0.15627,-0.0195 0.0171,-0.0295 -0.0326,-0.0595 -0.0586,-0.0723 l -0.0156,-0.006 c -0.60927,-0.26437 -1.32402,-0.90969 -1.97484,-1.75368 0.74324,-0.53186 1.50448,-1.2477 2.21314,-2.11886 0.63684,-0.78265 1.14419,-1.5901 1.51581,-2.37469 0.53781,0.42937 0.82084,0.88597 0.6993,1.29671 -0.16815,0.56603 -0.80746,0.91851 -1.70137,1.09166 -0.24435,0.31525 -0.50239,0.61942 -0.77352,0.91198 2.31707,0.0815 4.03871,-0.6086 4.22704,-1.78101 0.14367,-0.89291 -0.64712,-1.8472 -2.02562,-2.58365 0.34754,-1.06955 0.41266,-2.04601 0.1758,-2.7848 l -0.006,-0.0195 c -0.0144,-0.04 -0.0491,-0.12499 -0.0937,-0.12499 -0.0342,0 -0.0351,0.0572 -0.0332,0.0859 l 0.002,0.0156 c 0.0753,0.65997 -0.12746,1.60186 -0.53326,2.58755 -0.83215,-0.37774 -1.83076,-0.67951 -2.93978,-0.85732 -0.99642,-0.16033 -1.95001,-0.19564 -2.81479,-0.12498 0.10252,-0.68016 0.35647,-1.15358 0.77353,-1.25374 0.57393,-0.13704 1.20024,0.24085 1.79709,0.92761 0.10329,0.014 0.20533,0.0283 0.30862,0.0449 0.29461,0.0474 0.58552,0.10298 0.86924,0.16794 -0.95239,-1.79085 -2.18892,-2.89323 -3.22693,-2.85704 z m -0.084,3.58352 c 0.48864,0.006 0.97595,0.0474 1.45916,0.12302 1.27833,0.20576 2.52946,0.65826 3.41054,1.19517 -0.30605,0.57614 -0.6665,1.12296 -1.07629,1.63063 -0.81702,1.00432 -1.83461,1.85901 -2.74055,2.35321 -0.34581,-0.55249 -0.63832,-1.13786 -0.87315,-1.74586 -0.46132,-1.20969 -0.6929,-2.51882 -0.66804,-3.55031 0.16293,-0.006 0.32545,-0.008 0.48833,-0.006 z"
         sodipodi:nodetypes="cccccccccscccccccccsccccccccccccscccccccsccsccccccs" />
      <path
         id="path3220"
         style="opacity:0.2;fill:#000000;fill-opacity:1;stroke:none;stroke-width:0.140472"
         d="m 307.68225,230.52006 c -0.37067,0.0129 -0.73123,0.0844 -1.07812,0.2168 -2.11216,0.80565 -3.19063,3.71026 -3.0625,7.61523 -2.74989,0.58531 -4.94444,1.66302 -6.24805,3.09961 l -0.0351,0.0391 c -0.0699,0.0815 -0.20865,0.26427 -0.15235,0.36133 0.0417,0.0728 0.16541,0.003 0.22656,-0.0371 l 0.0312,-0.0254 c 1.33467,-0.98814 3.62641,-1.72774 6.26758,-2.08203 0.22229,2.27427 0.81858,4.81476 1.81836,7.4375 0.89884,2.35775 2.01531,4.46789 3.25,6.25195 -1.6016,0.62899 -2.94491,0.67008 -3.68164,-0.10742 -1.01532,-1.07065 -0.98182,-2.89881 -0.24023,-5.05078 -0.0984,-0.24073 -0.19327,-0.48195 -0.28711,-0.72656 -0.26214,-0.68799 -0.50185,-1.38432 -0.71875,-2.08789 -3.07215,4.91446 -3.73209,9.50846 -1.42774,11.38281 1.75302,1.42688 4.81019,0.90642 8.12696,-1.15625 1.88212,2.08888 3.91093,3.45074 5.80664,3.86133 l 0.0527,0.0117 c 0.10483,0.0194 0.33237,0.0482 0.38867,-0.0488 0.0427,-0.0738 -0.0795,-0.14571 -0.14453,-0.17773 l -0.0391,-0.0156 c -1.52297,-0.66102 -3.30871,-2.27649 -4.93555,-4.38672 1.85785,-1.32981 3.75978,-3.1148 5.53125,-5.29297 1.59189,-1.95687 2.86209,-3.97774 3.79102,-5.93945 1.34437,1.07355 2.04991,2.21523 1.74609,3.24219 -0.4203,1.41523 -2.01944,2.29755 -4.2539,2.73047 -0.61073,0.78842 -1.2559,1.54958 -1.9336,2.28125 5.79196,0.20384 10.09954,-1.52369 10.57031,-4.45508 0.35915,-2.23254 -1.61859,-4.61959 -5.06445,-6.46094 0.86875,-2.67419 1.03156,-5.11182 0.43945,-6.95898 l -0.0176,-0.0527 c -0.0359,-0.1 -0.12275,-0.3125 -0.23438,-0.3125 -0.0854,0 -0.0869,0.14302 -0.082,0.21484 l 0.006,0.041 c 0.18831,1.65014 -0.31574,4.00228 -1.33008,6.4668 -2.08014,-0.94445 -4.57934,-1.69801 -7.35156,-2.14258 -2.49072,-0.40088 -4.87543,-0.48916 -7.03711,-0.3125 0.25626,-1.70061 0.8911,-2.88433 1.93359,-3.13477 1.43465,-0.34264 3.00027,0.60125 4.49219,2.31836 0.25819,0.0349 0.51719,0.0738 0.77539,0.11524 0.73641,0.11842 1.45874,0.25749 2.16797,0.41992 -2.38068,-4.47769 -5.4717,-7.23305 -8.06641,-7.14258 z m -0.21093,8.95899 c 1.22159,0.0147 2.44233,0.1159 3.65039,0.30468 3.19543,0.51446 6.321,1.64976 8.52343,2.99219 -0.76477,1.44057 -1.66535,2.80483 -2.68945,4.07422 -2.04229,2.51111 -4.58895,4.64715 -6.85351,5.88281 -0.86431,-1.38174 -1.59484,-2.84279 -2.18164,-4.36328 -1.15315,-3.0246 -1.73205,-6.29791 -1.66993,-8.87695 0.40732,-0.0145 0.81351,-0.0186 1.22071,-0.0137 z"
         sodipodi:nodetypes="sccccccccsccccccccccccccccccccccscccccccccssccccccs" />
      <path
         id="path3228"
         style="opacity:0.2;fill:#000000;fill-opacity:1;stroke:none;stroke-width:0.70236"
         d="m 122.41174,84.596806 c -1.85337,0.06462 -3.65617,0.420159 -5.39065,1.082031 -10.56093,4.028252 -15.9532,18.555143 -15.31258,38.080073 -13.749573,2.92656 -24.718397,8.31317 -31.236464,15.4961 l -0.179688,0.19921 c -0.349443,0.40768 -1.043226,1.31936 -0.761723,1.80469 0.208692,0.36399 0.825103,0.0154 1.130865,-0.18359 l 0.164063,-0.12695 c 6.673387,-4.94071 18.128094,-8.63869 31.334137,-10.41016 1.11142,11.37136 4.09091,24.07186 9.08988,37.18555 4.49423,11.78872 10.0766,22.33545 16.25008,31.25586 -8.00804,3.14494 -14.72653,3.34845 -18.41025,-0.53907 -5.07662,-5.3532 -4.90133,-14.48626 -1.19337,-25.24609 -0.4918,-1.20362 -0.97225,-2.41758 -1.4414,-3.64063 -1.3114,-3.43993 -2.5106,-6.92159 -3.59572,-10.43945 -15.360926,24.57239 -18.656699,47.54425 -7.1348,56.91602 8.76521,7.13438 24.0471,4.53793 40.63105,-5.77539 9.41068,10.44436 19.56055,17.24782 29.0392,19.30078 l 0.26563,0.0586 c 0.52416,0.0971 1.65992,0.24314 1.94141,-0.24219 0.21355,-0.36885 -0.39748,-0.72851 -0.72265,-0.88867 l -0.19336,-0.082 c -7.61496,-3.30511 -16.54556,-11.3766 -24.67981,-21.92773 9.28934,-6.64906 18.80093,-15.57986 27.65833,-26.47071 7.95953,-9.7843 14.30268,-19.88869 18.94736,-29.69726 6.72191,5.36777 10.25547,11.07611 8.73637,16.21093 -2.10151,7.07615 -10.09522,11.49168 -21.26768,13.65626 -3.05624,3.9423 -6.28462,7.74808 -9.67582,11.40624 28.96005,1.0192 50.49792,-7.6203 52.85181,-22.27734 1.79575,-11.16265 -8.09097,-23.09793 -25.32043,-32.30469 4.34376,-13.37091 5.15977,-25.561 2.19923,-34.79687 l -0.082,-0.26367 c -0.17958,-0.49989 -0.62156,-1.55664 -1.17969,-1.55664 -0.42708,0 -0.43248,0.70725 -0.40821,1.0664 l 0.0293,0.20899 c 0.94154,8.25065 -1.58255,20.01529 -6.65433,32.33789 -10.40077,-4.7223 -22.89285,-8.49203 -36.75408,-10.71485 -12.45375,-2.00442 -24.37728,-2.44775 -35.18572,-1.56445 1.28131,-8.50302 4.45941,-14.41776 9.67193,-15.66992 7.17327,-1.71323 14.9975,3.00431 22.45714,11.58984 1.29099,0.17472 2.58207,0.36519 3.87306,0.57227 3.68209,0.5921 7.29563,1.29334 10.84185,2.10547 C 150.84047,97.923276 135.38542,84.144469 122.41174,84.596806 Z m -1.04297,44.789064 c 6.10759,0.0748 12.20451,0.58587 18.24423,1.53125 15.97729,2.57226 31.59923,8.25075 42.61153,14.96289 -3.82315,7.19997 -8.32468,14.01864 -13.44342,20.36328 -10.2115,12.55555 -22.94091,23.24359 -34.26384,29.42187 -4.3225,-6.90987 -7.97575,-14.21643 -10.91021,-21.82031 -5.7658,-15.12296 -8.6583,-31.49338 -8.34769,-44.38867 2.03647,-0.0722 4.07354,-0.0953 6.1094,-0.0703 z"
         sodipodi:nodetypes="scccccccccccccccccccccccccccccccscccccccccssccccccs" />
      <path
         id="path3339-5"
         style="display:inline;fill:#148eff;fill-opacity:1;stroke:none;stroke-width:0.309038"
         d="m 326.50138,44.144319 c -0.81548,0.02843 -1.60988,0.183386 -2.37304,0.47461 -4.64678,1.772436 -7.01821,8.164885 -6.73633,16.755859 -6.04978,1.287685 -10.87621,3.657872 -13.74414,6.818359 l -0.0801,0.08789 c -0.15375,0.17938 -0.45784,0.581375 -0.33399,0.794922 0.0918,0.16016 0.36156,0.0055 0.4961,-0.08203 l 0.0742,-0.05469 c 2.93626,-2.173903 7.97455,-3.802587 13.78515,-4.582031 0.48902,5.003394 1.80047,10.593255 4,16.363281 1.97744,5.187043 4.43409,9.826969 7.15039,13.751953 -3.52351,1.383781 -6.47879,1.47418 -8.09961,-0.236328 -2.23368,-2.355417 -2.15689,-6.375049 -0.52539,-11.109375 -0.21639,-0.529595 -0.42834,-1.063425 -0.63476,-1.601562 -0.57699,-1.513701 -1.10461,-3.04576 -1.58203,-4.59375 -6.75875,10.811858 -8.20827,20.919383 -3.13868,25.042963 3.85665,3.13913 10.58007,1.99685 17.87696,-2.541007 4.14066,4.595507 8.60679,7.588887 12.77734,8.492177 l 0.11719,0.0254 c 0.23064,0.0427 0.72965,0.10612 0.85351,-0.10743 0.094,-0.16229 -0.17529,-0.32015 -0.31835,-0.39062 l -0.084,-0.0352 c -3.35055,-1.45425 -7.28034,-5.00593 -10.85937,-9.648433 4.08727,-2.925587 8.2727,-6.854502 12.16992,-11.646484 3.50216,-4.305097 6.2923,-8.750632 8.33594,-13.066406 2.95761,2.361824 4.51214,4.871537 3.84374,7.130859 -0.92465,3.113508 -4.44157,5.057349 -9.35742,6.009766 -1.34492,1.734226 -2.76556,3.408374 -4.25781,5.017578 12.74232,0.448447 22.22016,-3.351678 23.25586,-9.800781 0.79013,-4.911568 -3.55972,-10.161914 -11.14063,-14.212891 1.91125,-5.883205 2.26944,-11.24871 0.9668,-15.3125 l -0.0371,-0.115234 c -0.079,-0.219953 -0.272,-0.685547 -0.51758,-0.685547 -0.18792,0 -0.19036,0.312678 -0.17968,0.470703 l 0.0137,0.0918 c 0.41428,3.63029 -0.69618,8.806571 -2.92774,14.228515 -4.5763,-2.077807 -10.07299,-3.736801 -16.17187,-4.714843 -5.47961,-0.881947 -10.72674,-1.076155 -15.48242,-0.6875 0.56377,-3.741335 1.96237,-6.345535 4.25586,-6.896485 3.15621,-0.753819 6.59865,1.321972 9.88086,5.09961 0.56804,0.07688 1.13509,0.16084 1.70312,0.251953 1.62011,0.260526 3.21117,0.5704 4.77149,0.927734 -5.2375,-9.850898 -12.03773,-15.913871 -17.7461,-15.714844 z m -3.14844,19.736328 c 3.58464,-0.126566 7.17317,0.08926 10.7168,0.644532 7.02995,1.131797 13.90464,3.628683 18.75,6.582031 -1.68241,3.168402 -3.66339,6.168987 -5.91601,8.960937 -4.49302,5.524448 -10.09413,10.226867 -15.07618,12.945313 -1.90202,-3.040532 -3.50957,-6.255625 -4.80078,-9.601563 -2.53692,-6.654107 -3.8105,-13.85732 -3.67383,-19.53125 z"
         sodipodi:nodetypes="sccccccccccccccccsccccccccccccccscccccccccsccccccc" />
      <path
         id="path3105"
         style="display:inline;fill:#148eff;fill-opacity:1;stroke:none;stroke-width:0.206025"
         d="m 313.66845,150.76172 c -0.54368,0.0189 -1.07329,0.12421 -1.58208,0.31836 -3.09795,1.18162 -4.68027,5.4426 -4.49233,11.16992 -4.03332,0.85846 -7.25039,2.43793 -9.1624,4.54492 l -0.0527,0.0586 c -0.1025,0.11959 -0.30524,0.38693 -0.22266,0.5293 0.0612,0.10677 0.24039,0.003 0.33009,-0.0547 l 0.0488,-0.0371 c 1.95756,-1.44926 5.31785,-2.5331 9.19169,-3.05273 0.32603,3.3356 1.19971,7.06152 2.66611,10.9082 1.31834,3.45803 2.9568,6.55131 4.76773,9.16797 -2.34909,0.92252 -4.31999,0.98214 -5.40057,-0.1582 -1.48917,-1.57028 -1.43731,-4.25004 -0.34962,-7.40625 -0.14426,-0.35307 -0.28621,-0.70765 -0.42384,-1.06641 -0.38467,-1.00913 -0.73643,-2.03051 -1.05472,-3.0625 -4.50599,7.20791 -5.47366,13.94627 -2.09382,16.69531 2.57118,2.09276 7.05557,1.32993 11.9203,-1.69531 2.76054,3.06368 5.73738,5.05991 8.51785,5.66211 l 0.0781,0.0176 c 0.15375,0.0285 0.48776,0.0701 0.57033,-0.0723 0.0626,-0.10819 -0.11751,-0.21278 -0.2129,-0.25976 l -0.0566,-0.0234 c -2.23377,-0.9695 -4.85436,-3.3386 -7.24047,-6.43359 2.72494,-1.9504 5.51532,-4.56902 8.11354,-7.76368 2.33484,-2.87006 4.1963,-5.83376 5.55878,-8.71093 1.97179,1.57455 3.00819,3.2477 2.56258,4.7539 -0.61646,2.07568 -2.96116,3.37091 -6.23848,4.00586 -0.89642,1.15636 -1.84333,2.27268 -2.83799,3.34571 8.49516,0.29897 14.81196,-2.2338 15.50245,-6.53321 0.52677,-3.27437 -2.37192,-6.77591 -7.42601,-9.47656 h -0.002 c 1.27421,-3.92215 1.51496,-7.49783 0.64651,-10.20703 l -0.0254,-0.0781 c -0.0527,-0.14664 -0.182,-0.45703 -0.34572,-0.45703 -0.12529,0 -0.12627,0.20911 -0.11915,0.31446 l 0.008,0.0605 c 0.2762,2.42019 -0.46348,5.8717 -1.95124,9.48633 -3.05096,-1.38521 -6.71553,-2.4925 -10.78159,-3.14453 -3.65319,-0.58796 -7.15008,-0.71614 -10.32064,-0.45703 0.37586,-2.49423 1.30698,-4.23036 2.83603,-4.59766 2.10421,-0.50255 4.39989,0.88198 6.5881,3.40039 0.3787,0.0513 0.75805,0.10725 1.13676,0.16797 1.0801,0.17369 2.13954,0.37897 3.17979,0.61719 -3.49178,-6.56726 -8.02477,-10.60925 -11.83046,-10.47656 z m -2.09968,13.1582 c 2.38984,-0.0844 4.78227,0.0595 7.14476,0.42969 4.68679,0.75453 9.27005,2.41977 12.5004,4.38867 -1.12151,2.11179 -2.44199,4.11174 -3.94349,5.97266 -2.99543,3.68296 -6.72962,6.81856 -10.0511,8.63086 -1.26824,-2.02679 -2.34019,-4.16997 -3.20127,-6.4004 -1.69134,-4.43606 -2.54041,-9.23885 -2.4493,-13.02148 z"
         sodipodi:nodetypes="sccccccccccccccccccccccccccccccccscccccccccsccccccc" />
      <path
         id="path3113"
         style="display:inline;fill:#148eff;fill-opacity:1;stroke:none;stroke-width:0.103013"
         d="m 428.83381,57.381031 c -0.27183,0.0095 -0.53669,0.06142 -0.79108,0.158494 -1.54895,0.59082 -2.33929,2.721126 -2.24533,5.584824 -2.01661,0.429235 -3.62504,1.219625 -4.58103,2.273136 l -0.0264,0.0292 c -0.0513,0.05979 -0.15391,0.194363 -0.11262,0.265546 0.0306,0.05339 0.12199,0.0014 0.16684,-0.0278 l 0.0236,-0.01807 c 0.97877,-0.724644 2.65804,-1.266727 4.59493,-1.526546 0.16301,1.667821 0.60011,3.530768 1.3333,5.454136 0.65916,1.729039 1.47891,3.275464 2.38436,4.58381 -1.17452,0.461267 -2.15968,0.490931 -2.69996,-0.07925 -0.74457,-0.78515 -0.71902,-2.124231 -0.17518,-3.702362 -0.0721,-0.176533 -0.14252,-0.354492 -0.21132,-0.533874 -0.19267,-0.504837 -0.36887,-1.015811 -0.52832,-1.532107 -2.25295,3.604003 -2.73539,6.974188 -1.0455,8.348735 1.28557,1.046393 3.52649,0.664561 5.95881,-0.848081 1.38024,1.531861 2.86828,2.52954 4.25849,2.830645 l 0.0389,0.0097 c 0.0769,0.01424 0.24372,0.03504 0.28501,-0.03615 0.0313,-0.0541 -0.058,-0.107197 -0.10566,-0.130687 l -0.0292,-0.01113 c -1.11686,-0.484757 -2.42591,-1.669626 -3.61894,-3.217148 1.36244,-0.975208 2.7578,-2.28436 4.05689,-3.88171 1.1674,-1.435052 2.09798,-2.917189 2.7792,-4.355801 0.98589,0.787286 1.50327,1.62429 1.28047,2.377408 -0.30823,1.037851 -1.4798,1.685942 -3.11844,2.003418 -0.44838,0.578081 -0.922,1.136131 -1.41949,1.672529 4.24749,0.149484 7.40566,-1.117468 7.7509,-3.267199 0.26338,-1.637213 -1.18648,-3.387789 -3.71348,-4.738133 0.63708,-1.961096 0.75677,-3.749167 0.32255,-5.103782 l -0.0111,-0.03893 c -0.0263,-0.07332 -0.0919,-0.228009 -0.17378,-0.228009 -0.0627,0 -0.0634,0.104428 -0.0598,0.157103 l 0.004,0.03059 c 0.1381,1.210113 -0.23212,2.934964 -0.97598,4.742304 -1.52546,-0.692612 -3.3572,-1.245017 -5.39019,-1.571036 -1.82656,-0.293986 -3.57553,-0.358952 -5.16078,-0.229399 0.18792,-1.247129 0.6536,-2.114509 1.4181,-2.298161 1.05209,-0.251277 2.19953,0.439713 3.29362,1.698943 0.18934,0.02563 0.37928,0.05443 0.56863,0.08481 0.54004,0.08684 1.07039,0.189533 1.59049,0.308646 -1.74585,-3.283679 -4.01289,-5.304984 -5.91571,-5.23864 z m -1.04967,6.578887 c 1.19516,-0.04202 2.39161,0.03014 3.57306,0.215496 2.34335,0.37727 4.63424,1.209426 6.24939,2.193889 -0.56066,1.055895 -1.2208,2.05588 -1.97144,2.986359 -1.4977,1.841508 -3.36522,3.409321 -5.02593,4.315483 -0.63399,-1.013495 -1.16983,-2.085173 -1.60023,-3.200465 -0.84566,-2.218067 -1.27041,-4.619426 -1.22485,-6.510762 z"
         sodipodi:nodetypes="sccccccccscccccccccsccccccccccccscccccccccsccccccc" />
      <path
         id="path3148"
         style="display:inline;fill:#148eff;fill-opacity:1;stroke:none;stroke-width:0.0749185"
         d="m 425.6973,104.27666 c -0.1977,0.007 -0.39032,0.0457 -0.57533,0.11627 -1.1265,0.42969 -1.7023,1.97899 -1.63397,4.06167 -1.46662,0.31217 -2.63638,0.887 -3.33164,1.65318 l -0.0192,0.0212 c -0.0373,0.0435 -0.11091,0.14034 -0.0809,0.19211 0.0223,0.0388 0.0877,0.002 0.12032,-0.0192 l 0.0182,-0.0141 c 0.71183,-0.52701 1.93311,-0.92125 3.34175,-1.11021 0.11855,1.21295 0.43644,2.56782 0.96967,3.96662 0.47938,1.25747 1.07455,2.38214 1.73305,3.33366 -0.85419,0.33547 -1.57066,0.35704 -1.96359,-0.0576 -0.54151,-0.57102 -0.52292,-1.54489 -0.1274,-2.69261 -0.0525,-0.12839 -0.10365,-0.25781 -0.15369,-0.38827 -0.13977,-0.36684 -0.26757,-0.73811 -0.38322,-1.11325 -1.6385,2.62108 -1.99037,5.0711 -0.76137,6.07077 0.93495,0.76101 2.56572,0.48432 4.33467,-0.61577 1.00381,1.11407 2.08601,1.83965 3.09706,2.05863 l 0.0283,0.006 c 0.0559,0.0104 0.17725,0.0255 0.20728,-0.0263 0.0228,-0.0393 -0.0421,-0.077 -0.0768,-0.094 l -0.0212,-0.009 c -0.81226,-0.35255 -1.76429,-1.21326 -2.63194,-2.33872 0.99086,-0.70924 2.00565,-1.66236 2.95044,-2.82406 0.84902,-1.04367 1.52479,-2.12158 2.02022,-3.16784 0.71701,0.57257 1.09429,1.1813 0.93225,1.72902 -0.22416,0.75479 -1.07722,1.22613 -2.26895,1.45702 -0.32609,0.42042 -0.67054,0.82627 -1.03235,1.21638 3.08907,0.10871 5.38692,-0.8127 5.638,-2.37614 0.19155,-1.19069 -0.86289,-2.46383 -2.7007,-3.44589 0.46333,-1.42624 0.55037,-2.72665 0.23458,-3.71182 l -0.009,-0.0273 c -0.0192,-0.0533 -0.0659,-0.16683 -0.12538,-0.16683 -0.0456,0 -0.0461,0.0759 -0.0435,0.11425 l 0.003,0.0222 c 0.10043,0.88008 -0.16882,2.13552 -0.70981,3.44995 -1.10941,-0.50372 -2.44158,-0.90648 -3.92011,-1.14358 -1.3284,-0.21381 -2.60037,-0.26105 -3.75328,-0.16683 0.13667,-0.907 0.47534,-1.53783 1.03135,-1.67139 0.76515,-0.18275 1.59964,0.3208 2.39534,1.2366 0.1377,0.0186 0.27584,0.0386 0.41355,0.0607 0.39275,0.0632 0.77744,0.13784 1.15571,0.22447 -1.26971,-2.38812 -2.91745,-3.85815 -4.30131,-3.8099 z m -0.7634,4.78563 c 0.86884,-0.0309 1.73864,0.0213 2.59757,0.15571 1.70424,0.27438 3.37135,0.87957 4.546,1.59554 -0.40802,0.76832 -0.88846,1.49591 -1.43478,2.1729 -1.08923,1.33927 -2.44642,2.47949 -3.65419,3.13852 -0.46108,-0.73708 -0.85078,-1.51649 -1.1638,-2.3276 -0.61502,-1.61313 -0.92393,-3.35956 -0.8908,-4.73507 z"
         sodipodi:nodetypes="sccccccccscccccccccsccccccccccccscccccccccsccccccc" />
      <path
         id="path3156"
         style="display:inline;fill:#148eff;fill-opacity:1;stroke:none;stroke-width:0.0561886"
         d="m 422.27302,142.20753 c -0.14828,0.005 -0.29275,0.0342 -0.4315,0.0872 -0.84488,0.32226 -1.27598,1.48425 -1.22473,3.04626 -1.09996,0.23413 -1.97804,0.66525 -2.49949,1.23989 l -0.0144,0.0159 c -0.028,0.0326 -0.0832,0.10526 -0.0607,0.14409 0.0167,0.0291 0.0658,0.002 0.0902,-0.0144 l 0.0136,-0.0106 c 0.53387,-0.39526 1.44984,-0.69094 2.50632,-0.83266 0.0889,0.90972 0.32733,1.92587 0.72725,2.97498 0.35954,0.94311 0.80592,1.78661 1.2998,2.50025 -0.64065,0.2516 -1.178,0.26778 -1.4727,-0.0432 -0.40613,-0.42826 -0.39219,-1.15867 -0.0956,-2.01947 -0.0393,-0.0963 -0.0777,-0.19336 -0.11527,-0.2912 -0.10482,-0.27513 -0.20067,-0.55358 -0.28741,-0.83494 -1.22888,1.96582 -1.49279,3.80334 -0.57103,4.55309 0.70122,0.57076 1.92429,0.36324 3.25101,-0.46183 0.75286,0.83556 1.56451,1.37975 2.3228,1.54399 l 0.0212,0.005 c 0.0419,0.008 0.13294,0.0191 0.15546,-0.0197 0.0171,-0.0295 -0.0316,-0.0577 -0.0576,-0.0705 l -0.0159,-0.007 c -0.6092,-0.2644 -1.32322,-0.90994 -1.97396,-1.75404 0.74315,-0.53193 1.50425,-1.24677 2.21284,-2.11805 0.63676,-0.78275 1.14359,-1.59119 1.51517,-2.37588 0.53775,0.42943 0.82072,0.88597 0.69919,1.29676 -0.16813,0.5661 -0.80792,0.9196 -1.70172,1.09277 -0.24433,0.3153 -0.50241,0.61969 -0.77351,0.91229 2.31681,0.0815 4.03944,-0.60953 4.22775,-1.7821 0.14366,-0.89303 -0.64717,-1.84788 -2.02552,-2.58443 0.3475,-1.06969 0.41277,-2.045 0.17593,-2.78388 l -0.007,-0.0205 c -0.0144,-0.04 -0.0494,-0.12512 -0.094,-0.12512 -0.0342,0 -0.0345,0.057 -0.0326,0.0857 l 0.002,0.0167 c 0.0753,0.66007 -0.12661,1.60165 -0.53236,2.58747 -0.83206,-0.37779 -1.83119,-0.67986 -2.94009,-0.85769 -0.9963,-0.16035 -1.95028,-0.19579 -2.81496,-0.12512 0.1025,-0.68026 0.3565,-1.15337 0.77351,-1.25354 0.57386,-0.13706 1.19973,0.2406 1.79651,0.92745 0.10328,0.014 0.20688,0.0289 0.31016,0.0455 0.29457,0.0474 0.58385,0.10338 0.86754,0.16835 -0.95228,-1.79109 -2.18885,-2.89362 -3.22674,-2.85743 z m -0.57255,3.58923 c 0.65163,-0.0231 1.30398,0.016 1.94818,0.11679 1.27818,0.20578 2.52852,0.65968 3.4095,1.19666 -0.30601,0.57623 -0.66634,1.12194 -1.07609,1.62968 -0.81692,1.00445 -1.83481,1.85886 -2.74064,2.35313 -0.34577,-0.55257 -0.63805,-1.13686 -0.87285,-1.74494 -0.46127,-1.20985 -0.69295,-2.51968 -0.6681,-3.55132 z"
         sodipodi:nodetypes="sccscccccscccccccccsccccccccccccscccccccccsccccccc" />
      <path
         id="path3164"
         style="display:inline;fill:#148eff;fill-opacity:1;stroke:none;stroke-width:0.140472"
         d="m 307.68281,229.52002 c -0.37067,0.0129 -0.73124,0.0844 -1.07813,0.2168 -2.11216,0.80565 -3.19063,3.71025 -3.0625,7.61523 -2.74989,0.58531 -4.94443,1.66302 -6.24804,3.09961 l -0.0352,0.0391 c -0.0699,0.0815 -0.20864,0.26427 -0.15234,0.36133 0.0417,0.0728 0.16541,0.003 0.22656,-0.0371 l 0.0312,-0.0254 c 1.33467,-0.98814 3.6264,-1.72774 6.26758,-2.08203 0.22229,2.27427 0.81858,4.81476 1.81836,7.4375 0.89884,2.35775 2.01531,4.46788 3.25,6.25195 -1.6016,0.62899 -2.94491,0.67008 -3.68164,-0.10742 -1.01532,-1.07065 -0.98183,-2.89881 -0.24024,-5.05078 -0.0984,-0.24073 -0.19327,-0.48195 -0.28711,-0.72656 -0.26214,-0.68799 -0.50185,-1.38432 -0.71875,-2.08789 -3.07215,4.91447 -3.73209,9.50846 -1.42773,11.38281 1.75302,1.42688 4.81018,0.90642 8.12695,-1.15625 1.88213,2.08888 3.91093,3.45074 5.80664,3.86133 l 0.0527,0.0117 c 0.10483,0.0194 0.33237,0.0482 0.38867,-0.0488 0.0427,-0.0738 -0.0795,-0.14571 -0.14453,-0.17774 l -0.0391,-0.0156 c -1.52297,-0.66102 -3.3087,-2.27649 -4.93554,-4.38672 1.85785,-1.32981 3.75978,-3.1148 5.53125,-5.29297 1.59189,-1.95687 2.86208,-3.97774 3.79101,-5.93945 1.34437,1.07355 2.04992,2.21523 1.7461,3.24219 -0.4203,1.41523 -2.01944,2.29755 -4.25391,2.73047 -0.61073,0.78843 -1.25589,1.54958 -1.93359,2.28125 5.79196,0.20384 10.09954,-1.52368 10.57031,-4.45508 0.35915,-2.23254 -1.61859,-4.61959 -5.06445,-6.46094 0.86875,-2.67419 1.03156,-5.11181 0.43945,-6.95898 l -0.0176,-0.0527 c -0.0359,-0.1 -0.12274,-0.3125 -0.23437,-0.3125 -0.0854,0 -0.0869,0.14302 -0.082,0.21485 l 0.006,0.041 c 0.18831,1.65014 -0.31573,4.00228 -1.33007,6.4668 -2.08014,-0.94445 -4.57935,-1.69801 -7.35157,-2.14258 -2.49072,-0.40088 -4.87543,-0.48916 -7.03711,-0.3125 0.25626,-1.70061 0.89111,-2.88433 1.9336,-3.13477 1.43465,-0.34264 3.00027,0.60125 4.49219,2.31836 0.25819,0.0349 0.51719,0.0738 0.77539,0.11524 0.73641,0.11842 1.45873,0.25749 2.16796,0.41992 -2.38068,-4.47769 -5.47169,-7.23305 -8.0664,-7.14258 z m -1.43164,8.97266 c 1.62926,-0.0582 3.26035,0.0393 4.87109,0.29101 3.19544,0.51446 6.321,1.64976 8.52344,2.99219 -0.76478,1.44057 -1.66535,2.80483 -2.68945,4.07422 -2.04229,2.51111 -4.58895,4.64715 -6.85352,5.88281 -0.86431,-1.38174 -1.59483,-2.84279 -2.18164,-4.36328 -1.15315,-3.0246 -1.73204,-6.2979 -1.66992,-8.87695 z"
         sodipodi:nodetypes="sccccccccsccccccccccccccccccccccscccccccccsccccccc" />
      <path
         id="path3172"
         style="display:inline;fill:#148eff;fill-opacity:1;stroke:none;stroke-width:0.70236"
         d="m 122.41171,83.596367 c -1.85337,0.06462 -3.65618,0.420158 -5.39065,1.082031 -10.56089,4.028256 -15.95321,18.555122 -15.31258,38.080072 -13.749535,2.92656 -24.718427,8.31317 -31.236469,15.4961 l -0.179691,0.19922 c -0.349441,0.40768 -1.043225,1.31936 -0.761723,1.80469 0.208691,0.36399 0.825104,0.0154 1.130865,-0.18361 l 0.164061,-0.12694 c 6.673362,-4.94071 18.128167,-8.63869 31.334157,-10.41016 1.11142,11.37137 4.09093,24.07185 9.08988,37.18555 4.49421,11.78874 10.07662,22.33545 16.25008,31.25586 -8.00801,3.14495 -14.72655,3.34845 -18.41025,-0.53907 -5.07661,-5.35321 -4.90133,-14.48626 -1.19337,-25.2461 -0.4918,-1.20362 -0.97225,-2.41757 -1.4414,-3.64062 -1.31139,-3.43994 -2.51061,-6.9216 -3.59573,-10.43946 -15.360867,24.57241 -18.656663,47.54424 -7.134807,56.91602 8.765177,7.13439 24.047177,4.53794 40.631067,-5.77539 9.41064,10.44437 19.56059,17.24782 29.0392,19.30078 l 0.26562,0.0586 c 0.52416,0.0971 1.65992,0.24315 1.94141,-0.24218 0.21355,-0.36885 -0.39748,-0.72852 -0.72265,-0.88868 l -0.19336,-0.082 c -7.61492,-3.30511 -16.54559,-11.37659 -24.67981,-21.92773 9.28931,-6.64906 18.80096,-15.57984 27.65833,-26.4707 7.9595,-9.78431 14.3027,-19.88869 18.94736,-29.69727 6.72189,5.36778 10.25547,11.07611 8.73637,16.21094 -2.1015,7.07615 -10.09527,11.49167 -21.26768,13.65625 -3.05623,3.94231 -6.28463,7.74808 -9.67583,11.40625 28.95995,1.0192 50.49794,-7.6203 52.85182,-22.27735 1.79574,-11.16266 -8.09103,-23.09791 -25.32043,-32.30468 4.34375,-13.37093 5.15977,-25.561 2.19923,-34.79688 l -0.082,-0.26367 c -0.17958,-0.49989 -0.62157,-1.556641 -1.1797,-1.556641 -0.42708,0 -0.43247,0.707251 -0.4082,1.066401 l 0.0293,0.20899 c 0.94154,8.25066 -1.58258,20.01528 -6.65434,32.33789 -10.40073,-4.7223 -22.8929,-8.49203 -36.75408,-10.71485 -12.4537,-2.00443 -24.37732,-2.44775 -35.18572,-1.56445 1.2813,-8.50303 4.45944,-14.41776 9.67193,-15.66992 7.17325,-1.71323 14.99753,3.0043 22.45713,11.58984 1.29099,0.17472 2.58208,0.36519 3.87307,0.57227 3.68208,0.5921 7.29566,1.29334 10.84186,2.10547 C 150.84053,96.922844 135.38537,83.144069 122.41175,83.596407 Z m -7.15237,44.859373 c 8.14587,-0.28876 16.3007,0.20043 24.35363,1.46093 15.97723,2.57227 31.59927,8.25075 42.61153,14.96289 -3.82313,7.19998 -8.32469,14.01864 -13.44342,20.36328 -10.21146,12.55557 -22.94096,23.24359 -34.26384,29.42188 -4.32248,-6.90988 -7.97576,-14.21642 -10.91021,-21.82031 -5.76578,-15.12298 -8.6583,-31.49337 -8.34769,-44.38867 z"
         sodipodi:nodetypes="scccccccccccccccccccccccccccccccscccccccccsccccccc" />
    </g>
    <g
       inkscape:groupmode="layer"
       id="layer5"
       inkscape:label="Highlights"
       style="display:inline"
       sodipodi:insensitive="true">
      <path
         style="opacity:0.12999998;color:#bebebe;fill:#ffffff;fill-opacity:1;fill-rule:nonzero;stroke:none;stroke-width:0;marker:none;visibility:visible;display:inline;overflow:visible;enable-background:accumulate"
         d="M 84,47 C 56.836703,47 35,68.836703 35,96 l 0,1 C 35,69.836703 56.836703,48 84,48 l 120,0 c 27.1633,0 49,21.836703 49,49 l 0,-1 C 253,68.836703 231.1633,47 204,47 L 84,47 z"
         id="rect3894"
         inkscape:connector-curvature="0" />
      <path
         style="opacity:0.12999998;color:#bebebe;fill:#ffffff;fill-opacity:1;fill-rule:nonzero;stroke:none;stroke-width:0;marker:none;visibility:visible;display:inline;overflow:visible;enable-background:accumulate"
         d="m 419,141 c -1.1253,0 -2,0.8747 -2,2 l 0,1 c 0,-1.1253 0.8747,-2 2,-2 l 10,0 c 1.1253,0 2,0.8747 2,2 l 0,-1 c 0,-1.1253 -0.8747,-2 -2,-2 l -10,0 z"
         id="rect3896"
         inkscape:connector-curvature="0" />
      <path
         style="opacity:0.12999998;color:#bebebe;fill:#ffffff;fill-opacity:1;fill-rule:nonzero;stroke:none;stroke-width:0;marker:none;visibility:visible;display:inline;overflow:visible;enable-background:accumulate"
         d="m 422,102 c -2.2333,0 -4,1.7667 -4,4 l 0,1 c 0,-2.2333 1.7667,-4 4,-4 l 12,0 c 2.2333,0 4,1.7667 4,4 l 0,-1 c 0,-2.2333 -1.7667,-4 -4,-4 l -12,0 z"
         id="rect3898"
         inkscape:connector-curvature="0" />
      <path
         style="opacity:0.12999998;color:#bebebe;fill:#ffffff;fill-opacity:1;fill-rule:nonzero;stroke:none;stroke-width:0;marker:none;visibility:visible;display:inline;overflow:visible;enable-background:accumulate"
         d="m 424,54 c -3.3413,0 -6,2.658703 -6,6 l 0,1 c 0,-3.341297 2.6587,-6 6,-6 l 16,0 c 3.3413,0 6,2.658703 6,6 l 0,-1 c 0,-3.341297 -2.6587,-6 -6,-6 l -16,0 z"
         id="rect3900"
         inkscape:connector-curvature="0" />
      <path
         style="opacity:0.12999998;color:#bebebe;fill:#ffffff;fill-opacity:1;fill-rule:nonzero;stroke:none;stroke-width:0;marker:none;visibility:visible;display:inline;overflow:visible;enable-background:accumulate"
         d="m 300,224 c -4.4493,0 -8,3.5507 -8,8 l 0,1 c 0,-4.4493 3.5507,-8 8,-8 l 24,0 c 4.4493,0 8,3.5507 8,8 l 0,-1 c 0,-4.4493 -3.5507,-8 -8,-8 l -24,0 z"
         id="rect3902"
         inkscape:connector-curvature="0" />
      <path
         style="opacity:0.12999998;color:#bebebe;fill:#ffffff;fill-opacity:1;fill-rule:nonzero;stroke:none;stroke-width:0;marker:none;visibility:visible;display:inline;overflow:visible;enable-background:accumulate"
         d="m 310,33 c -9.4353,0 -17,7.564703 -17,17 l 0,1 c 0,-9.435297 7.5647,-17 17,-17 l 52,0 c 9.4353,0 17,7.564703 17,17 l 0,-1 c 0,-9.435297 -7.5647,-17 -17,-17 l -52,0 z"
         id="rect3904"
         inkscape:connector-curvature="0" />
      <path
         style="opacity:0.12999998;color:#bebebe;fill:#ffffff;fill-opacity:1;fill-rule:nonzero;stroke:none;stroke-width:0;marker:none;visibility:visible;display:inline;overflow:visible;enable-background:accumulate"
         d="m 302.5,143 c -6.3883,0 -11.5,5.1117 -11.5,11.5 l 0,1 c 0,-6.3883 5.1117,-11.5 11.5,-11.5 l 35,0 c 6.3883,0 11.5,5.1117 11.5,11.5 l 0,-1 c 0,-6.3883 -5.1117,-11.5 -11.5,-11.5 l -35,0 z"
         id="rect3906"
         inkscape:connector-curvature="0" />
      <path
         id="path4085"
         d="m 204,266 c 27.1633,0 49,-21.8367 49,-49 l 0,-1 c 0,27.1633 -21.8367,49 -49,49 L 84,265 C 56.8367,265 35,243.1633 35,216 l 0,1 c 0,27.1633 21.8367,49 49,49 l 120,0 z"
         style="opacity:0.41;color:#bebebe;fill:#000000;fill-opacity:1;fill-rule:nonzero;stroke:none;stroke-width:0;marker:none;visibility:visible;display:inline;overflow:visible;enable-background:accumulate"
         inkscape:connector-curvature="0" />
      <path
         id="path4087"
         d="m 429,156 c 1.1253,0 2,-0.8747 2,-2 l 0,-1 c 0,1.1253 -0.8747,2 -2,2 l -10,0 c -1.1253,0 -2,-0.8747 -2,-2 l 0,1 c 0,1.1253 0.8747,2 2,2 l 10,0 z"
         style="opacity:0.3;color:#bebebe;fill:#000000;fill-opacity:1;fill-rule:nonzero;stroke:none;stroke-width:0;marker:none;visibility:visible;display:inline;overflow:visible;enable-background:accumulate"
         inkscape:connector-curvature="0" />
      <path
         id="path4089"
         d="m 434,123 c 2.2333,0 4,-1.7667 4,-4 l 0,-1 c 0,2.2333 -1.7667,4 -4,4 l -12,0 c -2.2333,0 -4,-1.7667 -4,-4 l 0,1 c 0,2.2333 1.7667,4 4,4 l 12,0 z"
         style="opacity:0.3;color:#bebebe;fill:#000000;fill-opacity:1;fill-rule:nonzero;stroke:none;stroke-width:0;marker:none;visibility:visible;display:inline;overflow:visible;enable-background:accumulate"
         inkscape:connector-curvature="0" />
      <path
         id="path4091"
         d="m 440,83 c 3.3413,0 6,-2.6587 6,-6 l 0,-1 c 0,3.3413 -2.6587,6 -6,6 l -16,0 c -3.3413,0 -6,-2.6587 -6,-6 l 0,1 c 0,3.3413 2.6587,6 6,6 l 16,0 z"
         style="opacity:0.41;color:#bebebe;fill:#000000;fill-opacity:1;fill-rule:nonzero;stroke:none;stroke-width:0;marker:none;visibility:visible;display:inline;overflow:visible;enable-background:accumulate"
         inkscape:connector-curvature="0" />
      <path
         id="path4093"
         d="m 324,265 c 4.4493,0 8,-3.5507 8,-8 l 0,-1 c 0,4.4493 -3.5507,8 -8,8 l -24,0 c -4.4493,0 -8,-3.5507 -8,-8 l 0,1 c 0,4.4493 3.5507,8 8,8 l 24,0 z"
         style="opacity:0.41;color:#bebebe;fill:#000000;fill-opacity:1;fill-rule:nonzero;stroke:none;stroke-width:0;marker:none;visibility:visible;display:inline;overflow:visible;enable-background:accumulate"
         inkscape:connector-curvature="0" />
      <path
         id="path4095"
         d="m 362,120 c 9.4353,0 17,-7.5647 17,-17 l 0,-1 c 0,9.4353 -7.5647,17 -17,17 l -52,0 c -9.4353,0 -17,-7.5647 -17,-17 l 0,1 c 0,9.4353 7.5647,17 17,17 l 52,0 z"
         style="opacity:0.41;color:#bebebe;fill:#000000;fill-opacity:1;fill-rule:nonzero;stroke:none;stroke-width:0;marker:none;visibility:visible;display:inline;overflow:visible;enable-background:accumulate"
         inkscape:connector-curvature="0" />
      <path
         id="path4097"
         d="m 337.5,202 c 6.3883,0 11.5,-5.1117 11.5,-11.5 l 0,-1 c 0,6.3883 -5.1117,11.5 -11.5,11.5 l -35,0 c -6.3883,0 -11.5,-5.1117 -11.5,-11.5 l 0,1 c 0,6.3883 5.1117,11.5 11.5,11.5 l 35,0 z"
         style="opacity:0.41;color:#bebebe;fill:#000000;fill-opacity:1;fill-rule:nonzero;stroke:none;stroke-width:0;marker:none;visibility:visible;display:inline;overflow:visible;enable-background:accumulate"
         inkscape:connector-curvature="0" />
      <path
         inkscape:connector-curvature="0"
         id="path4280"
         d="M 84,265 C 56.836703,265 35,243.1633 35,216 l 0,-1 c 0,27.1633 21.836703,49 49,49 l 120,0 c 27.1633,0 49,-21.8367 49,-49 l 0,1 c 0,27.1633 -21.8367,49 -49,49 l -120,0 z"
         style="opacity:0.1;color:#bebebe;fill:#ffffff;fill-opacity:1;fill-rule:nonzero;stroke:none;stroke-width:0;marker:none;visibility:visible;display:inline;overflow:visible;enable-background:accumulate" />
      <path
         style="opacity:0.1;color:#bebebe;fill:#ffffff;fill-opacity:1;fill-rule:nonzero;stroke:none;stroke-width:0;marker:none;visibility:visible;display:inline;overflow:visible;enable-background:accumulate"
         d="m 300,264 c -4.4493,0 -8,-3.5507 -8,-8 l 0,-1 c 0,4.4493 3.5507,8 8,8 l 24,0 c 4.4493,0 8,-3.5507 8,-8 l 0,1 c 0,4.4493 -3.5507,8 -8,8 l -24,0 z"
         id="path4294"
         inkscape:connector-curvature="0" />
      <path
         style="opacity:0.1;color:#bebebe;fill:#ffffff;fill-opacity:1;fill-rule:nonzero;stroke:none;stroke-width:0;marker:none;visibility:visible;display:inline;overflow:visible;enable-background:accumulate"
         d="m 302.5,201 c -6.3883,0 -11.5,-5.1117 -11.5,-11.5 l 0,-1 c 0,6.3883 5.1117,11.5 11.5,11.5 l 35,0 c 6.3883,0 11.5,-5.1117 11.5,-11.5 l 0,1 c 0,6.3883 -5.1117,11.5 -11.5,11.5 l -35,0 z"
         id="path4296"
         inkscape:connector-curvature="0" />
      <path
         style="opacity:0.1;color:#bebebe;fill:#ffffff;fill-opacity:1;fill-rule:nonzero;stroke:none;stroke-width:0;marker:none;visibility:visible;display:inline;overflow:visible;enable-background:accumulate"
         d="m 310,119 c -9.4353,0 -17,-7.5647 -17,-17 l 0,-1 c 0,9.4353 7.5647,17 17,17 l 52,0 c 9.4353,0 17,-7.5647 17,-17 l 0,1 c 0,9.4353 -7.5647,17 -17,17 l -52,0 z"
         id="path4298"
         inkscape:connector-curvature="0" />
      <path
         style="opacity:0.1;color:#bebebe;fill:#ffffff;fill-opacity:1;fill-rule:nonzero;stroke:none;stroke-width:0;marker:none;visibility:visible;display:inline;overflow:visible;enable-background:accumulate"
         d="m 424,82 c -3.3413,0 -6,-2.658703 -6,-6 l 0,-1 c 0,3.341297 2.6587,6 6,6 l 16,0 c 3.3413,0 6,-2.658703 6,-6 l 0,1 c 0,3.341297 -2.6587,6 -6,6 l -16,0 z"
         id="path4300"
         inkscape:connector-curvature="0" />
      <path
         style="opacity:0.1;color:#bebebe;fill:#ffffff;fill-opacity:1;fill-rule:nonzero;stroke:none;stroke-width:0;marker:none;visibility:visible;display:inline;overflow:visible;enable-background:accumulate"
         d="m 422,122 c -2.2333,0 -4,-1.7667 -4,-4 l 0,-1 c 0,2.2333 1.7667,4 4,4 l 12,0 c 2.2333,0 4,-1.7667 4,-4 l 0,1 c 0,2.2333 -1.7667,4 -4,4 l -12,0 z"
         id="path4302"
         inkscape:connector-curvature="0" />
      <path
         style="opacity:0.1;color:#bebebe;fill:#ffffff;fill-opacity:1;fill-rule:nonzero;stroke:none;stroke-width:0;marker:none;visibility:visible;display:inline;overflow:visible;enable-background:accumulate"
         d="m 419,154.5 c -1.1253,0 -2,-0.8747 -2,-2 l 0,-1 c 0,1.1253 0.8747,2 2,2 l 10,0 c 1.1253,0 2,-0.8747 2,-2 l 0,1 c 0,1.1253 -0.8747,2 -2,2 l -10,0 z"
         id="path4304"
         inkscape:connector-curvature="0" />
    </g>
    <g
       inkscape:groupmode="layer"
       id="layer3"
       inkscape:label="Border"
       style="display:inline"
       sodipodi:insensitive="true">
      <path
         style="opacity:0.41;color:#bebebe;fill:#000000;fill-opacity:1;fill-rule:nonzero;stroke:none;stroke-width:0;marker:none;visibility:visible;display:inline;overflow:visible;enable-background:accumulate"
         d="m 422,101 c -2.77,0 -5,2.23 -5,5 l 0,12 c 0,2.77 2.23,5 5,5 l 12,0 c 2.77,0 5,-2.23 5,-5 l 0,-12 c 0,-2.77 -2.23,-5 -5,-5 l -12,0 z m 0,1 12,0 c 2.2333,0 4,1.7667 4,4 l 0,12 c 0,2.2333 -1.7667,4 -4,4 l -12,0 c -2.2333,0 -4,-1.7667 -4,-4 l 0,-12 c 0,-2.2333 1.7667,-4 4,-4 z"
         id="rect4099"
         inkscape:connector-curvature="0" />
      <path
         style="opacity:0.41;color:#bebebe;fill:#000000;fill-opacity:1;fill-rule:nonzero;stroke:none;stroke-width:0;marker:none;visibility:visible;display:inline;overflow:visible;enable-background:accumulate"
         d="m 424,53 c -3.878,0 -7,3.122 -7,7 l 0,16 c 0,3.878 3.122,7 7,7 l 16,0 c 3.878,0 7,-3.122 7,-7 l 0,-16 c 0,-3.878 -3.122,-7 -7,-7 l -16,0 z m 0,1 16,0 c 3.3413,0 6,2.658703 6,6 l 0,16 c 0,3.341297 -2.6587,6 -6,6 l -16,0 c -3.3413,0 -6,-2.658703 -6,-6 l 0,-16 c 0,-3.341297 2.6587,-6 6,-6 z"
         id="rect4151"
         inkscape:connector-curvature="0" />
      <path
         style="opacity:0.41;color:#bebebe;fill:#000000;fill-opacity:1;fill-rule:nonzero;stroke:none;stroke-width:0;marker:none;visibility:visible;display:inline;overflow:visible;enable-background:accumulate"
         d="m 419,140 c -1.662,0 -3,1.338 -3,3 l 0,10 c 0,1.662 1.338,3 3,3 l 10,0 c 1.662,0 3,-1.338 3,-3 l 0,-10 c 0,-1.662 -1.338,-3 -3,-3 l -10,0 z m 0,1 10,0 c 1.1253,0 2,0.8747 2,2 l 0,10 c 0,1.1253 -0.8747,2 -2,2 l -10,0 c -1.1253,0 -2,-0.8747 -2,-2 l 0,-10 c 0,-1.1253 0.8747,-2 2,-2 z"
         id="rect4095"
         inkscape:connector-curvature="0" />
      <path
         style="opacity:0.41;color:#bebebe;fill:#000000;fill-opacity:1;fill-rule:nonzero;stroke:none;stroke-width:0;marker:none;visibility:visible;display:inline;overflow:visible;enable-background:accumulate"
         d="m 300,223 c -4.986,0 -9,4.014 -9,9 l 0,24 c 0,4.986 4.014,9 9,9 l 24,0 c 4.986,0 9,-4.014 9,-9 l 0,-24 c 0,-4.986 -4.014,-9 -9,-9 l -24,0 z m 0,1 24,0 c 4.4493,0 8,3.5507 8,8 l 0,24 c 0,4.4493 -3.5507,8 -8,8 l -24,0 c -4.4493,0 -8,-3.5507 -8,-8 l 0,-24 c 0,-4.4493 3.5507,-8 8,-8 z"
         id="rect4783"
         inkscape:connector-curvature="0" />
      <path
         style="opacity:0.41;color:#bebebe;fill:#000000;fill-opacity:1;fill-rule:nonzero;stroke:none;stroke-width:0;marker:none;visibility:visible;display:inline;overflow:visible;enable-background:accumulate"
         d="m 302.5,142 c -6.925,0 -12.5,5.575 -12.5,12.5 l 0,35 c 0,6.925 5.575,12.5 12.5,12.5 l 35,0 c 6.925,0 12.5,-5.575 12.5,-12.5 l 0,-35 c 0,-6.925 -5.575,-12.5 -12.5,-12.5 l -35,0 z m 0,1 35,0 c 6.3883,0 11.5,5.1117 11.5,11.5 l 0,35 c 0,6.3883 -5.1117,11.5 -11.5,11.5 l -35,0 c -6.3883,0 -11.5,-5.1117 -11.5,-11.5 l 0,-35 c 0,-6.3883 5.1117,-11.5 11.5,-11.5 z"
         id="rect4515"
         inkscape:connector-curvature="0" />
      <path
         style="opacity:0.41;color:#bebebe;fill:#000000;fill-opacity:1;fill-rule:nonzero;stroke:none;stroke-width:0;marker:none;visibility:visible;display:inline;overflow:visible;enable-background:accumulate"
         d="m 310,32 c -9.972,0 -18,8.028 -18,18 l 0,52 c 0,9.972 8.028,18 18,18 l 52,0 c 9.972,0 18,-8.028 18,-18 l 0,-52 c 0,-9.972 -8.028,-18 -18,-18 l -52,0 z m 0,1 52,0 c 9.4353,0 17,7.564703 17,17 l 0,52 c 0,9.4353 -7.5647,17 -17,17 l -52,0 c -9.4353,0 -17,-7.5647 -17,-17 l 0,-52 c 0,-9.435297 7.5647,-17 17,-17 z"
         id="rect4511"
         inkscape:connector-curvature="0" />
      <path
         style="opacity:0.41;color:#bebebe;fill:#000000;fill-opacity:1;fill-rule:nonzero;stroke:none;stroke-width:0;marker:none;visibility:visible;display:inline;overflow:visible;enable-background:accumulate"
         d="M 84,46 C 56.3,46 34,68.3 34,96 l 0,120 c 0,27.7 22.3,50 50,50 l 120,0 c 27.7,0 50,-22.3 50,-50 L 254,96 C 254,68.3 231.7,46 204,46 L 84,46 z m 0,1 120,0 c 27.1633,0 49,21.836703 49,49 l 0,120 c 0,27.1633 -21.8367,49 -49,49 L 84,265 C 56.836703,265 35,243.1633 35,216 L 35,96 C 35,68.836703 56.836703,47 84,47 z"
         id="rect4040"
         inkscape:connector-curvature="0" />
    </g>
  </g>
</svg>
