<?xml version="1.0" encoding="UTF-8" standalone="no"?>
<svg
   xmlns:dc="http://purl.org/dc/elements/1.1/"
   xmlns:cc="http://creativecommons.org/ns#"
   xmlns:rdf="http://www.w3.org/1999/02/22-rdf-syntax-ns#"
   xmlns:svg="http://www.w3.org/2000/svg"
   xmlns="http://www.w3.org/2000/svg"
   xmlns:xlink="http://www.w3.org/1999/xlink"
   xmlns:sodipodi="http://sodipodi.sourceforge.net/DTD/sodipodi-0.dtd"
   xmlns:inkscape="http://www.inkscape.org/namespaces/inkscape"
   inkscape:export-ydpi="90.000000"
   inkscape:export-xdpi="90.000000"
   width="480"
   height="300"
   id="svg11300"
   sodipodi:version="0.32"
   inkscape:version="1.0.2 (e86c870, 2021-01-15)"
   sodipodi:docname="bitdefender.svg"
   inkscape:output_extension="org.inkscape.output.svg.inkscape"
   version="1.0"
   style="display:inline;enable-background:new"
   inkscape:export-filename="/home/sam/moka-next-template.png">
  <sodipodi:namedview
     stroke="#ef2929"
     fill="#f57900"
     id="base"
     pagecolor="#777777"
     bordercolor="#666666"
     borderopacity="0.25490196"
     inkscape:pageopacity="0"
     inkscape:pageshadow="2"
     inkscape:zoom="45.254834"
     inkscape:cx="423.86594"
     inkscape:cy="152.00525"
     inkscape:current-layer="layer6"
     showgrid="false"
     inkscape:grid-bbox="true"
     inkscape:document-units="px"
     inkscape:showpageshadow="false"
     inkscape:window-width="1366"
     inkscape:window-height="703"
     inkscape:window-x="0"
     inkscape:window-y="0"
     width="400px"
     height="300px"
     inkscape:snap-nodes="true"
     inkscape:snap-bbox="true"
     gridtolerance="10000"
     inkscape:object-nodes="true"
     inkscape:snap-grids="true"
     showguides="true"
     inkscape:guide-bbox="true"
     inkscape:window-maximized="1"
     inkscape:bbox-nodes="true"
     inkscape:bbox-paths="true"
     inkscape:snap-bbox-edge-midpoints="true"
     inkscape:snap-bbox-midpoints="true"
     inkscape:document-rotation="0">
    <inkscape:grid
       spacingy="1px"
       spacingx="1px"
       id="grid5883"
       type="xygrid"
       enabled="true"
       visible="true"
       empspacing="4"
       snapvisiblegridlinesonly="true"
       dotted="false"
       color="#000000"
       opacity="0.1254902"
       empcolor="#203ef3"
       empopacity="0.36470588" />
    <inkscape:grid
       type="xygrid"
       id="grid11592"
       empspacing="8"
       visible="true"
       enabled="false"
       spacingx="0.5px"
       spacingy="0.5px"
       color="#ff0000"
       opacity="0.1254902"
       empcolor="#ff0000"
       empopacity="0.25098039"
       snapvisiblegridlinesonly="true"
       dotted="true" />
  </sodipodi:namedview>
  <defs
     id="defs3">
    <linearGradient
       inkscape:collect="always"
       xlink:href="#outerBackgroundGradient"
       id="linearGradient4254"
       x1="35"
       y1="156"
       x2="253"
       y2="156"
       gradientUnits="userSpaceOnUse"
       gradientTransform="matrix(0,-1,1,0,-12,300)" />
    <linearGradient
       inkscape:collect="always"
       xlink:href="#outerBackgroundGradient"
       id="linearGradient4256"
       x1="417"
       y1="148"
       x2="431"
       y2="148"
       gradientUnits="userSpaceOnUse"
       gradientTransform="matrix(0,-1,1,0,276,572)" />
    <linearGradient
       inkscape:collect="always"
       xlink:href="#outerBackgroundGradient"
       id="linearGradient4260"
       x1="418"
       y1="68"
       x2="446"
       y2="68"
       gradientUnits="userSpaceOnUse"
       gradientTransform="matrix(0,-1,1,0,364,500)" />
    <linearGradient
       inkscape:collect="always"
       xlink:href="#outerBackgroundGradient"
       id="linearGradient4262"
       x1="292"
       y1="244"
       x2="332"
       y2="244"
       gradientUnits="userSpaceOnUse"
       gradientTransform="matrix(0,-1,1,0,68,556)" />
    <linearGradient
       inkscape:collect="always"
       xlink:href="#outerBackgroundGradient"
       id="linearGradient4264"
       x1="293"
       y1="76"
       x2="379"
       y2="76"
       gradientUnits="userSpaceOnUse"
       gradientTransform="matrix(0,-1,1,0,260,412)" />
    <linearGradient
       inkscape:collect="always"
       xlink:href="#outerBackgroundGradient"
       id="linearGradient4266"
       x1="291"
       y1="172"
       x2="349"
       y2="172"
       gradientUnits="userSpaceOnUse"
       gradientTransform="matrix(0,-1,1,0,148,492)" />
    <linearGradient
       inkscape:collect="always"
       xlink:href="#outerBackgroundGradient"
       id="linearGradient3870"
       gradientUnits="userSpaceOnUse"
       gradientTransform="matrix(0,-1,1,0,316,540)"
       x1="418"
       y1="112"
       x2="438"
       y2="112" />
    <linearGradient
       id="outerBackgroundGradient">
      <stop
         style="stop-color:#ca211b;stop-opacity:1"
         offset="0"
         id="stop3864-8-6" />
      <stop
         style="stop-color:#eb140c;stop-opacity:1"
         offset="1"
         id="stop3866-9-1" />
    </linearGradient>
    <style
       id="style228">.cls-1{fill:none;}.cls-2{clip-path:url(#clip-path);}.cls-3{fill:#231f20;}</style>
    <clipPath
       id="clip-path"
       transform="translate(-99.66 -74.13)">
      <rect
         class="cls-1"
         width="582.43"
         height="215.55"
         id="rect230" />
    </clipPath>
  </defs>
  <metadata
     id="metadata4">
    <rdf:RDF>
      <cc:Work
         rdf:about="">
        <dc:format>image/svg+xml</dc:format>
        <dc:type
           rdf:resource="http://purl.org/dc/dcmitype/StillImage" />
        <dc:creator>
          <cc:Agent>
            <dc:title>Sam Hewitt</dc:title>
          </cc:Agent>
        </dc:creator>
        <dc:source />
        <cc:license
           rdf:resource="" />
        <dc:title />
        <dc:subject>
          <rdf:Bag />
        </dc:subject>
        <dc:date />
        <dc:rights>
          <cc:Agent>
            <dc:title />
          </cc:Agent>
        </dc:rights>
        <dc:publisher>
          <cc:Agent>
            <dc:title />
          </cc:Agent>
        </dc:publisher>
        <dc:identifier />
        <dc:relation />
        <dc:language />
        <dc:coverage />
        <dc:description />
        <dc:contributor>
          <cc:Agent>
            <dc:title />
          </cc:Agent>
        </dc:contributor>
      </cc:Work>
      <cc:Work
         rdf:about="">
        <dc:format>image/svg+xml</dc:format>
        <dc:type
           rdf:resource="http://purl.org/dc/dcmitype/StillImage" />
      </cc:Work>
    </rdf:RDF>
  </metadata>
  <g
     style="display:inline"
     inkscape:groupmode="layer"
     inkscape:label="Icon"
     id="layer1">
    <g
       style="display:none"
       inkscape:label="Baseplate"
       id="layer7"
       inkscape:groupmode="layer">
      <text
         y="19.745117"
         xml:space="preserve"
         x="15.006836"
         style="font-style:normal;font-variant:normal;font-weight:normal;font-stretch:normal;line-height:0%;font-family:'DejaVu Sans';-inkscape-font-specification:'DejaVu Sans';display:inline;fill:#000000;fill-opacity:1;stroke:none;enable-background:new"
         inkscape:label="context"
         id="context"><tspan
           style="font-style:normal;font-variant:normal;font-weight:normal;font-stretch:normal;font-size:18px;line-height:1.25;font-family:'DejaVu Sans';-inkscape-font-specification:'DejaVu Sans'"
           y="19.745117"
           x="15.006836"
           sodipodi:role="line"
           id="tspan3933">apps</tspan></text>
      <text
         y="19.745117"
         xml:space="preserve"
         x="122.48828"
         style="font-style:normal;font-variant:normal;font-weight:bold;font-stretch:normal;line-height:0%;font-family:'DejaVu Sans';-inkscape-font-specification:'DejaVu Sans Bold';text-align:start;writing-mode:lr-tb;text-anchor:start;display:inline;fill:#000000;fill-opacity:1;stroke:none;enable-background:new"
         inkscape:label="icon-name"
         id="icon-name"><tspan
           style="font-style:normal;font-variant:normal;font-weight:bold;font-stretch:normal;font-size:18px;line-height:1.25;font-family:'DejaVu Sans';-inkscape-font-specification:'DejaVu Sans Bold'"
           y="19.745117"
           x="122.48828"
           sodipodi:role="line"
           id="tspan3937">bitdefender</tspan></text>
      <rect
         style="display:inline;overflow:visible;visibility:visible;fill:#eeeeec;fill-opacity:1;fill-rule:nonzero;stroke:none;stroke-width:2;marker:none;enable-background:accumulate"
         id="rect16x16"
         width="16"
         height="16"
         x="416"
         y="140"
         inkscape:label="16x16" />
      <rect
         style="display:inline;overflow:visible;visibility:visible;fill:#d4d4d4;fill-opacity:1;fill-rule:nonzero;stroke:none;stroke-width:2;marker:none;enable-background:accumulate"
         id="rect24x24"
         width="24"
         height="24"
         x="416"
         y="100"
         inkscape:label="24x24" />
      <rect
         style="display:inline;overflow:visible;visibility:visible;fill:#eeeeec;fill-opacity:1;fill-rule:nonzero;stroke:none;stroke-width:2;marker:none;enable-background:accumulate"
         id="rect32x32"
         width="32"
         height="32"
         x="416"
         y="52"
         inkscape:label="32x32" />
      <rect
         inkscape:label="22x22"
         y="101"
         x="417"
         height="22"
         width="22"
         id="rect22x22"
         style="display:inline;overflow:visible;visibility:visible;fill:#eeeeec;fill-opacity:1;fill-rule:nonzero;stroke:none;stroke-width:2;marker:none;enable-background:accumulate" />
      <rect
         inkscape:label="48x48"
         y="220"
         x="288"
         height="48"
         width="48"
         id="rect48x48"
         style="display:inline;overflow:visible;visibility:visible;fill:#eeeeec;fill-opacity:1;fill-rule:nonzero;stroke:none;stroke-width:2;marker:none;enable-background:accumulate" />
      <rect
         style="display:inline;overflow:visible;visibility:visible;fill:#eeeeec;fill-opacity:1;fill-rule:nonzero;stroke:none;stroke-width:2;marker:none;enable-background:accumulate"
         id="rect256x256"
         width="256"
         height="256"
         x="16"
         y="28"
         inkscape:label="256x256" />
      <rect
         style="display:inline;overflow:visible;visibility:visible;fill:#eeeeec;fill-opacity:1;fill-rule:nonzero;stroke:none;stroke-width:2;marker:none;enable-background:accumulate"
         id="rect64x64"
         width="64"
         height="64"
         x="288"
         y="140"
         inkscape:label="64x64" />
      <rect
         style="display:inline;overflow:visible;visibility:visible;fill:#eeeeec;fill-opacity:1;fill-rule:nonzero;stroke:none;stroke-width:2;marker:none;enable-background:accumulate"
         id="rect96x96"
         width="96"
         height="96"
         x="288"
         y="28"
         inkscape:label="96x96" />
    </g>
    <g
       inkscape:groupmode="layer"
       id="layer4"
       inkscape:label="Shadow"
       style="display:inline"
       sodipodi:insensitive="true">
      <rect
         ry="50"
         y="47"
         x="34"
         height="220"
         width="220"
         id="rect4114"
         style="color:#bebebe;display:inline;overflow:visible;visibility:visible;opacity:0.1;fill:#000000;fill-opacity:1;fill-rule:nonzero;stroke:none;stroke-width:0;marker:none;enable-background:accumulate" />
      <rect
         style="color:#bebebe;display:inline;overflow:visible;visibility:visible;opacity:0.1;fill:#000000;fill-opacity:1;fill-rule:nonzero;stroke:none;stroke-width:0;marker:none;enable-background:accumulate"
         id="rect4120"
         width="30"
         height="30"
         x="417"
         y="54"
         ry="7" />
      <rect
         transform="scale(1,-1)"
         ry="9"
         y="-266"
         x="291"
         height="42"
         width="42"
         id="rect4122"
         style="color:#bebebe;display:inline;overflow:visible;visibility:visible;opacity:0.1;fill:#000000;fill-opacity:1;fill-rule:nonzero;stroke:none;stroke-width:0;marker:none;enable-background:accumulate" />
      <rect
         style="color:#bebebe;display:inline;overflow:visible;visibility:visible;opacity:0.1;fill:#000000;fill-opacity:1;fill-rule:nonzero;stroke:none;stroke-width:0;marker:none;enable-background:accumulate"
         id="rect4124"
         width="88"
         height="88"
         x="292"
         y="33"
         ry="18" />
      <rect
         ry="12.5"
         y="143"
         x="290"
         height="60"
         width="60"
         id="rect4126"
         style="color:#bebebe;display:inline;overflow:visible;visibility:visible;opacity:0.1;fill:#000000;fill-opacity:1;fill-rule:nonzero;stroke:none;stroke-width:0;marker:none;enable-background:accumulate" />
      <path
         id="path4268"
         d="m 422,101 c -2.77,0 -5,2.23 -5,5 v 12 c 0,2.77 2.23,5 5,5 h 12 c 2.77,0 5,-2.23 5,-5 v -12 c 0,-2.77 -2.23,-5 -5,-5 z"
         style="color:#bebebe;display:inline;overflow:visible;visibility:visible;opacity:0.1;fill:#000000;fill-opacity:1;fill-rule:nonzero;stroke:none;stroke-width:0;marker:none;enable-background:accumulate"
         inkscape:connector-curvature="0"
         sodipodi:nodetypes="sssssssss" />
      <path
         id="path4270"
         d="m 419,140 c -1.662,0 -3,1.338 -3,3 v 10 c 0,1.662 1.338,3 3,3 h 10 c 1.662,0 3,-1.338 3,-3 v -10 c 0,-1.662 -1.338,-3 -3,-3 z"
         style="color:#bebebe;display:inline;overflow:visible;visibility:visible;opacity:0.1;fill:#000000;fill-opacity:1;fill-rule:nonzero;stroke:none;stroke-width:0;marker:none;enable-background:accumulate"
         inkscape:connector-curvature="0"
         sodipodi:nodetypes="sssssssss" />
    </g>
    <g
       inkscape:groupmode="layer"
       id="layer2"
       inkscape:label="Background"
       style="display:inline">
      <path
         style="color:#bebebe;display:inline;overflow:visible;visibility:visible;fill:url(#linearGradient4254);fill-opacity:1;fill-rule:nonzero;stroke:none;stroke-width:2;marker:none;enable-background:accumulate"
         d="M 84,46.5 C 56.568735,46.5 34.5,68.568732 34.5,96 v 120 c 0,27.43127 22.068735,49.5 49.5,49.5 h 120 c 27.43127,0 49.5,-22.06873 49.5,-49.5 V 96 C 253.5,68.568732 231.43127,46.5 204,46.5 Z"
         id="path4200" />
      <path
         style="color:#bebebe;display:inline;overflow:visible;visibility:visible;fill:url(#linearGradient4256);fill-opacity:1;fill-rule:nonzero;stroke:none;stroke-width:2;marker:none;enable-background:accumulate"
         d="m 419,140.5 c -1.3844,0 -2.5,1.1156 -2.5,2.5 v 10 c 0,1.3844 1.1156,2.5 2.5,2.5 h 10 c 1.3844,0 2.5,-1.1156 2.5,-2.5 v -10 c 0,-1.3844 -1.1156,-2.5 -2.5,-2.5 z"
         id="path4202" />
      <path
         style="color:#bebebe;display:inline;overflow:visible;visibility:visible;fill:url(#linearGradient3870);fill-opacity:1;fill-rule:nonzero;stroke:none;stroke-width:2;marker:none;enable-background:accumulate"
         d="m 422,101.5 c -2.49699,0 -4.5,2.00301 -4.5,4.5 v 12 c 0,2.49699 2.00301,4.5 4.5,4.5 h 12 c 2.49699,0 4.5,-2.00301 4.5,-4.5 v -12 c 0,-2.49699 -2.00301,-4.5 -4.5,-4.5 z"
         id="path4204" />
      <path
         style="color:#bebebe;display:inline;overflow:visible;visibility:visible;fill:url(#linearGradient4260);fill-opacity:1;fill-rule:nonzero;stroke:none;stroke-width:2;marker:none;enable-background:accumulate"
         d="m 424,53.5 c -3.60654,0 -6.5,2.893464 -6.5,6.5 v 16 c 0,3.606536 2.89346,6.5 6.5,6.5 h 16 c 3.60654,0 6.5,-2.893464 6.5,-6.5 V 60 c 0,-3.606536 -2.89346,-6.5 -6.5,-6.5 z"
         id="path4206" />
      <path
         style="color:#bebebe;display:inline;overflow:visible;visibility:visible;fill:url(#linearGradient4262);fill-opacity:1;fill-rule:nonzero;stroke:none;stroke-width:2;marker:none;enable-background:accumulate"
         d="m 300,223.5 c -4.71531,0 -8.5,3.78469 -8.5,8.5 v 24 c 0,4.71531 3.78469,8.5 8.5,8.5 h 24 c 4.71531,0 8.5,-3.78469 8.5,-8.5 v -24 c 0,-4.71531 -3.78469,-8.5 -8.5,-8.5 z"
         id="path4208" />
      <path
         style="color:#bebebe;display:inline;overflow:visible;visibility:visible;fill:url(#linearGradient4264);fill-opacity:1;fill-rule:nonzero;stroke:none;stroke-width:2;marker:none;enable-background:accumulate"
         d="m 310,32.5 c -9.70255,0 -17.5,7.797452 -17.5,17.5 v 52 c 0,9.70255 7.79745,17.5 17.5,17.5 h 52 c 9.70255,0 17.5,-7.79745 17.5,-17.5 V 50 c 0,-9.702548 -7.79745,-17.5 -17.5,-17.5 z"
         id="path4210" />
      <path
         style="color:#bebebe;display:inline;overflow:visible;visibility:visible;fill:url(#linearGradient4266);fill-opacity:1;fill-rule:nonzero;stroke:none;stroke-width:2;marker:none;enable-background:accumulate"
         d="m 302.5,142.5 c -6.65502,0 -12,5.34498 -12,12 v 35 c 0,6.65502 5.34498,12 12,12 h 35 c 6.65502,0 12,-5.34498 12,-12 v -35 c 0,-6.65502 -5.34498,-12 -12,-12 z"
         id="path4212" />
    </g>
    <g
       inkscape:groupmode="layer"
       id="layer6"
       inkscape:label="Symbols"
       style="display:inline">
      <path
         id="path3872"
         style="display:inline;opacity:0.2;fill:#000000;fill-opacity:1;fill-rule:evenodd;enable-background:new"
         d="m 310.21167,47 v 0.89649 l 3.07422,2.61523 c 3.69992,3.0165 4.17188,3.59449 4.17188,6.31641 V 107 h 21.62304 c 11.33543,0 22.70508,-4.06337 22.70508,-17.11914 0.13724,-7.47833 -5.51375,-13.79861 -12.96093,-14.49414 l -0.0234,-0.0117 v -0.16601 c 6.18617,-1.86175 10.41601,-6.34966 10.41601,-13.125 0,-10.9348 -9.3216,-15.08399 -18.37109,-15.08399 z m 17.91016,9.14454 h 8.80078 c 5.9623,0 7.80069,0.82458 9.60352,2.54492 1.37019,1.36276 2.09893,3.24368 2.0039,5.17383 0.046,1.88471 -0.70276,3.70191 -2.0625,5.00781 -1.76748,1.69678 -4.19458,2.52148 -8.61328,2.52148 h -9.73242 z m 0,24.41406 h 10.25195 c 8.63708,0 12.70118,2.20399 12.70118,8.47265 0,7.88295 -7.63599,8.81446 -13.12696,8.81446 v -0.0117 h -9.82617 z"
         sodipodi:nodetypes="cccscsccccssccscccscccsscccc" />
      <path
         id="path3874"
         style="display:inline;opacity:0.2;fill:#000000;fill-opacity:1;fill-rule:evenodd;stroke-width:1.00003;enable-background:new"
         d="m 302.807,153.00018 v 0.59765 l 2.04892,1.74414 c 2.46672,2.01098 2.78138,2.3963 2.78138,4.21091 V 193 h 14.41666 c 7.5573,0 15.13741,-2.7102 15.13741,-11.414 0.0915,-4.98554 -3.676,-9.19838 -8.64101,-9.66207 l -0.0156,-0.008 v -0.10938 c 4.1243,-1.24114 6.94367,-4.23503 6.94367,-8.7519 0,-7.28984 -6.21338,-10.05465 -12.24664,-10.05465 z m 11.93999,6.09568 h 5.86941 c 3.97505,0 5.19874,0.55036 6.40069,1.69725 0.9135,0.9085 1.39935,2.16245 1.33599,3.44921 0.0306,1.25648 -0.46853,2.46729 -1.37506,3.33787 -1.17838,1.13119 -2.79652,1.68164 -5.74245,1.68164 h -6.48858 z m 0,16.27726 h 6.8343 c 5.75831,0 8.46913,1.46933 8.46913,5.64842 0,5.25528 -5.09154,5.87497 -8.75235,5.87497 v -0.008 h -6.55108 z"
         sodipodi:nodetypes="cccscsccccscccscccscccsscccc" />
      <path
         id="path3876"
         style="display:inline;opacity:0.2;fill:#000000;fill-opacity:1;fill-rule:evenodd;stroke-width:0.99997;enable-background:new"
         d="m 299.965,231.00017 v 0.41797 l 1.43545,1.22071 c 1.72657,1.40771 1.94716,1.67703 1.94716,2.94726 v 23.41406 h 10.08923 c 5.28966,0 10.59702,-1.89558 10.59702,-7.98828 0.064,-3.48988 -2.57325,-6.43909 -6.04847,-6.76367 l -0.0117,-0.006 v -0.0762 c 2.88678,-0.86881 4.86104,-2.96512 4.86104,-6.12695 0,-5.1029 -4.34881,-7.03907 -8.57174,-7.03907 z m 8.35887,4.26758 h 4.10717 c 2.7823,0 3.64087,0.38468 4.48216,1.1875 0.6394,0.63596 0.97788,1.51332 0.93353,2.41406 0.0215,0.87953 -0.32636,1.72847 -0.96088,2.33789 -0.82479,0.79184 -1.95926,1.17579 -4.02124,1.17579 h -4.54074 z m 0,11.39453 h 4.78292 c 4.03049,0 5.92737,1.02776 5.92737,3.95313 0,3.67871 -3.56227,4.11328 -6.12463,4.11328 v -0.006 h -4.58566 z"
         sodipodi:nodetypes="cccscsccccscccscccscccsscccc" />
      <path
         id="path3878"
         style="display:inline;opacity:0.2;fill:#000000;fill-opacity:1;fill-rule:evenodd;stroke-width:1.00005;enable-background:new"
         d="m 423.403,59 v 0.298828 l 1.02355,0.871094 c 1.23342,1.005499 1.39076,1.198163 1.39076,2.105469 V 79 h 7.20973 c 3.77886,0 7.56915,-1.355106 7.56915,-5.707031 0.0457,-2.492777 -1.83811,-4.600189 -4.32076,-4.832031 l -0.008,-0.0039 v -0.05469 c 2.06226,-0.620581 3.47107,-2.116555 3.47107,-4.375 0,-3.644933 -3.10688,-5.027344 -6.12369,-5.027344 z m 5.96937,3.048828 h 2.93585 c 1.98764,0 2.59855,0.274209 3.19955,0.847657 0.45679,0.454253 0.69971,1.081224 0.66804,1.724609 0.0153,0.628236 -0.23427,1.232671 -0.68757,1.667969 -0.58921,0.565593 -1.39835,0.841797 -2.8714,0.841796 h -3.24447 z m 0,8.136719 h 3.41832 c 2.87933,0 4.23482,0.734666 4.23482,2.824219 0,2.627651 -2.54691,2.9375 -4.37742,2.9375 v -0.0039 h -3.27572 z"
         sodipodi:nodetypes="cccscsccccssccscccscccsscccc" />
      <path
         id="path3880"
         style="display:inline;opacity:0.2;fill:#000000;fill-opacity:1;fill-rule:evenodd;enable-background:new"
         d="m 421.983,106.00008 v 0.20898 l 0.7168,0.61133 c 0.86331,0.70385 0.97461,0.8395 0.97461,1.47461 v 11.70508 h 5.04492 c 2.64493,0 5.29687,-0.9478 5.29687,-3.99414 0.032,-1.74495 -1.28575,-3.21857 -3.02343,-3.38086 l -0.006,-0.004 v -0.0371 c 1.44344,-0.43441 2.43164,-1.48354 2.43164,-3.06445 0,-2.55146 -2.17556,-3.51953 -4.28711,-3.51953 z m 4.17969,2.13477 h 2.05273 c 1.39121,0 1.81958,0.19233 2.24024,0.59375 0.31972,0.31797 0.49093,0.75666 0.46875,1.20703 0.0107,0.43976 -0.16515,0.86326 -0.48242,1.16797 -0.41241,0.39591 -0.97874,0.58789 -2.00977,0.58789 h -2.26953 z m 0,5.69726 h 2.39062 c 2.01532,0 2.96485,0.51387 2.96485,1.97656 0,1.83936 -1.78127,2.05664 -3.0625,2.05664 v -0.004 h -2.29297 z"
         sodipodi:nodetypes="cccscsccccssccscccscccsscccc" />
      <path
         id="path3882"
         style="display:inline;opacity:0.2;fill:#000000;fill-opacity:1;fill-rule:evenodd;enable-background:new"
         d="m 419.702,144 v 0.14844 l 0.51172,0.43554 c 0.61665,0.50275 0.69531,0.59909 0.69531,1.05274 V 154 h 3.60352 c 1.88924,0 3.78515,-0.67755 3.78515,-2.85352 0.0229,-1.24638 -0.91895,-2.30009 -2.16015,-2.41601 l -0.004,-0.002 v -0.0273 c 1.03103,-0.31029 1.73438,-1.05828 1.73438,-2.1875 0,-1.82247 -1.5523,-2.51367 -3.06055,-2.51367 z m 2.98437,1.52344 h 1.4668 c 0.99372,0 1.30109,0.1371 1.60156,0.42382 0.22837,0.22713 0.34788,0.5416 0.33204,0.86329 0.008,0.31412 -0.11713,0.61633 -0.34375,0.83398 -0.29458,0.2828 -0.6991,0.41992 -1.43555,0.41992 h -1.6211 z m 0,4.06836 h 1.70899 c 1.43951,0 2.11719,0.36733 2.11719,1.41211 0,1.31382 -1.27234,1.46875 -2.1875,1.46875 v -0.002 h -1.63868 z"
         sodipodi:nodetypes="cccscsccccssccsccsscccsscccc" />
      <path
         id="path3884"
         style="display:inline;opacity:0.2;fill:#000000;fill-opacity:1;fill-rule:evenodd;enable-background:new"
         d="m 75.231112,77 v 2.38867 l 8.205078,6.97656 c 9.866426,8.04396 11.121094,9.58143 11.121094,16.83985 V 237 h 57.658206 c 30.22771,0 60.54687,-10.83901 60.54687,-45.6543 0.36597,-19.94215 -14.70339,-36.79563 -34.5625,-38.65039 l -0.0625,-0.0312 v -0.4414 c 16.49642,-4.96464 27.77734,-16.9325 27.77734,-35 C 205.9147,88.06328 181.06028,77 156.92838,77 Z m 47.765628,24.38281 h 23.46679 c 15.8994,0 20.8038,2.19953 25.61133,6.78711 3.65384,3.63402 5.59131,8.64981 5.33789,13.79688 0.12255,5.02588 -1.87211,9.87113 -5.49805,13.35351 -4.71325,4.52473 -11.18169,6.72071 -22.96484,6.72071 h -25.95312 z m 0,65.10938 h 27.33398 c 23.03214,0 33.87109,5.87347 33.87109,22.58984 0,21.02114 -20.35747,23.50391 -35,23.50391 v -0.0312 h -26.20507 z"
         sodipodi:nodetypes="cccscsccccssccscccscccsscccc" />
      <path
         id="path6"
         style="display:inline;fill:#ffffff;fill-opacity:1;fill-rule:evenodd;enable-background:new"
         d="m 310.21167,46 v 0.89649 l 3.07422,2.61523 c 3.69992,3.0165 4.17187,3.59449 4.17187,6.31641 V 106 h 21.62305 c 11.33543,0 22.70508,-4.06337 22.70508,-17.11914 0.13723,-7.47833 -5.51375,-13.79861 -12.96094,-14.49414 l -0.0234,-0.0117 v -0.16601 c 6.18617,-1.86175 10.41601,-6.34966 10.41601,-13.125 0,-10.9348 -9.3216,-15.08399 -18.37109,-15.08399 z m 17.91015,9.14453 h 8.80078 c 5.9623,0 7.80069,0.82459 9.60352,2.54493 1.3702,1.36276 2.09894,3.24368 2.00391,5.17383 0.046,1.88471 -0.70277,3.70191 -2.0625,5.00781 -1.76748,1.69678 -4.19459,2.52148 -8.61329,2.52148 h -9.73242 z m 0,24.41407 h 10.25196 c 8.63707,0 12.70117,2.20399 12.70117,8.47265 0,7.88295 -7.63599,8.81446 -13.12696,8.81446 v -0.0117 h -9.82617 z"
         sodipodi:nodetypes="cccscsccccssccscccscccsscccc" />
      <path
         id="path3860"
         style="display:inline;fill:#ffffff;fill-opacity:1;fill-rule:evenodd;enable-background:new"
         d="m 302.8068,152.0001 v 0.59766 l 2.05078,1.74414 c 2.46662,2.01099 2.78125,2.39437 2.78125,4.20898 v 33.44922 h 14.41407 c 7.55695,0 15.13867,-2.71021 15.13867,-11.41407 0.0915,-4.98555 -3.67584,-9.19842 -8.64063,-9.66211 l -0.0176,-0.008 v -0.10938 c 4.12412,-1.24116 6.94532,-4.23506 6.94532,-8.75195 0,-7.28987 -6.21311,-10.05469 -12.2461,-10.05469 z m 11.94141,6.0957 h 5.86719 c 3.97486,0 5.20045,0.55037 6.40234,1.69727 0.91346,0.9085 1.39929,2.1605 1.33594,3.44726 0.0306,1.25648 -0.46851,2.46926 -1.375,3.33985 -1.17832,1.13119 -2.79639,1.68164 -5.74219,1.68164 h -6.48828 z m 0,16.27735 h 6.83398 c 5.75805,0 8.46875,1.46738 8.46875,5.64648 0,5.25531 -5.09131,5.87695 -8.75195,5.87695 v -0.008 h -6.55078 z"
         sodipodi:nodetypes="cccscsccccscccscccscccsscccc" />
      <path
         id="path3862"
         style="display:inline;fill:#ffffff;fill-opacity:1;fill-rule:evenodd;enable-background:new"
         d="m 299.96525,230.00009 v 0.41795 l 1.43359,1.2207 c 1.72663,1.4077 1.94727,1.67704 1.94727,2.94727 v 23.41408 h 10.08984 c 5.28987,0 10.59766,-1.89754 10.59766,-7.99023 0.0641,-3.48988 -2.57348,-6.4391 -6.04883,-6.76368 l -0.0117,-0.006 v -0.0762 c 2.88688,-0.86881 4.86133,-2.96317 4.86133,-6.125 0,-5.1029 -4.34917,-7.03906 -8.57227,-7.03906 z m 8.35742,4.26758 h 4.10742 c 2.78241,0 3.64111,0.38468 4.48242,1.1875 0.63943,0.63596 0.97795,1.51332 0.9336,2.41406 0.0215,0.87953 -0.32835,1.72653 -0.96289,2.33594 -0.82483,0.79184 -1.95748,1.17773 -4.01953,1.17773 h -4.54102 z m 0,11.39258 h 4.7832 c 4.03064,0 5.92774,1.02775 5.92774,3.95312 0,3.67871 -3.56255,4.11328 -6.125,4.11328 v -0.004 h -4.58594 z"
         sodipodi:nodetypes="cccscsccccscccscccscccsscccc" />
      <path
         id="path3864"
         style="display:inline;fill:#ffffff;fill-opacity:1;fill-rule:evenodd;enable-background:new"
         d="m 423.40291,58 v 0.296875 l 1.02539,0.873047 c 1.2333,1.005499 1.39062,1.198163 1.39062,2.105469 V 78 h 7.20704 c 3.77846,0 7.57031,-1.355106 7.57031,-5.707031 0.0457,-2.492777 -1.83987,-4.600189 -4.32227,-4.832031 l -0.008,-0.0039 v -0.05469 c 2.06205,-0.620581 3.47266,-2.116555 3.47266,-4.375 0,-3.644933 -3.10656,-5.027344 -6.12305,-5.027344 z m 5.9707,3.046875 h 2.93359 c 1.98744,0 2.60024,0.276161 3.20118,0.849609 0.45674,0.454254 0.69964,1.079272 0.66797,1.722657 0.0153,0.628236 -0.23425,1.234623 -0.6875,1.669922 -0.58915,0.565593 -1.3982,0.839844 -2.8711,0.839844 h -3.24414 z m 0,8.138672 h 3.41797 c 2.87903,0 4.23438,0.734667 4.23438,2.824219 0,2.627651 -2.54664,2.9375 -4.37696,2.9375 v -0.0039 h -3.27539 z"
         sodipodi:nodetypes="cccscsccccssccscccscccsscccc" />
      <path
         id="path3866"
         style="display:inline;fill:#ffffff;fill-opacity:1;fill-rule:evenodd;enable-background:new"
         d="m 421.98311,105.00004 v 0.20899 l 0.7168,0.61132 c 0.86331,0.70385 0.97265,0.83755 0.97265,1.47266 v 11.70703 h 5.04492 c 2.64493,0 5.29883,-0.94779 5.29883,-3.99414 0.032,-1.74495 -1.28576,-3.22052 -3.02344,-3.38281 l -0.006,-0.002 v -0.0391 c 1.44344,-0.43441 2.42969,-1.48159 2.42969,-3.0625 0,-2.55145 -2.1736,-3.51953 -4.28515,-3.51953 z m 4.17773,2.13477 h 2.05469 c 1.39121,0 1.81957,0.19233 2.24023,0.59375 0.31972,0.31797 0.48898,0.75666 0.4668,1.20703 0.0107,0.43976 -0.1632,0.86326 -0.48047,1.16796 -0.41241,0.39592 -0.97873,0.5879 -2.00976,0.5879 h -2.27149 z m 0,5.69531 h 2.39258 c 2.01532,0 2.96484,0.51387 2.96484,1.97656 0,1.83936 -1.78322,2.05664 -3.06445,2.05664 v -0.002 h -2.29297 z"
         sodipodi:nodetypes="cccscsccccssccscccscccsscccc" />
      <path
         id="path3868"
         style="display:inline;fill:#ffffff;fill-opacity:1;fill-rule:evenodd;enable-background:new"
         d="m 419.70195,143 v 0.14844 l 0.51367,0.43555 c 0.61665,0.50274 0.69531,0.59908 0.69531,1.05273 V 153 h 3.60352 c 1.88924,0 3.7832,-0.67754 3.7832,-2.85351 0.0229,-1.24638 -0.91896,-2.3001 -2.16016,-2.41602 l -0.004,-0.002 v -0.0273 c 1.03103,-0.31029 1.73633,-1.05828 1.73633,-2.1875 0,-1.82247 -1.5523,-2.51367 -3.06055,-2.51367 z m 2.98632,1.52344 h 1.4668 c 0.99372,0 1.29914,0.1371 1.59961,0.42383 0.22837,0.22712 0.34982,0.54159 0.33398,0.86328 0.008,0.31412 -0.11712,0.61633 -0.34374,0.83398 -0.29458,0.2828 -0.6991,0.41992 -1.43555,0.41992 h -1.6211 z m 0,4.06836 h 1.70704 c 1.43951,0 2.11718,0.36733 2.11718,1.41211 0,1.31382 -1.27234,1.46875 -2.1875,1.46875 v -0.002 h -1.63672 z"
         sodipodi:nodetypes="cccscsccccssccsccsscccsscccc" />
      <path
         id="path3870"
         style="display:inline;fill:#ffffff;fill-opacity:1;fill-rule:evenodd;stroke-width:3.14217;enable-background:new"
         d="m 75.230995,76.00074 v 2.38733 l 8.205247,6.97783 c 9.866426,8.04396 11.120348,9.58165 11.120348,16.84007 v 133.79402 h 57.65767 c 30.22771,0 60.54822,-10.83827 60.54822,-45.65356 0.36597,-19.94215 -14.70481,-36.79646 -34.56392,-38.65122 l -0.0614,-0.0314 v -0.44188 c 16.49642,-4.96464 27.77633,-16.93214 27.77633,-34.99964 0,-29.15938 -24.8541,-40.22228 -48.986,-40.22228 z m 47.764725,24.38255 h 23.46812 c 15.8994,0 20.80241,2.19999 25.60994,6.78757 3.65384,3.63402 5.59266,8.64905 5.33924,13.79612 0.12255,5.02588 -1.87286,9.87186 -5.4988,13.35424 -4.71326,4.52473 -11.18173,6.72007 -22.96488,6.72007 h -25.95362 z m 0,65.10804 h 27.33446 c 23.03214,0 33.87043,5.87414 33.87043,22.59051 0,21.02114 -20.35712,23.50494 -34.99965,23.50494 v -0.0314 h -26.20524 z"
         sodipodi:nodetypes="cccscsccccscccscccscccsscccc" />
    </g>
    <g
       inkscape:groupmode="layer"
       id="layer5"
       inkscape:label="Highlights"
       style="display:inline"
       sodipodi:insensitive="true">
      <path
         style="color:#bebebe;display:inline;overflow:visible;visibility:visible;opacity:0.13;fill:#ffffff;fill-opacity:1;fill-rule:nonzero;stroke:none;stroke-width:0;marker:none;enable-background:accumulate"
         d="M 84,47 C 56.836703,47 35,68.836703 35,96 v 1 C 35,69.836703 56.836703,48 84,48 h 120 c 27.1633,0 49,21.836703 49,49 V 96 C 253,68.836703 231.1633,47 204,47 Z"
         id="rect3894"
         inkscape:connector-curvature="0" />
      <path
         style="color:#bebebe;display:inline;overflow:visible;visibility:visible;opacity:0.13;fill:#ffffff;fill-opacity:1;fill-rule:nonzero;stroke:none;stroke-width:0;marker:none;enable-background:accumulate"
         d="m 419,141 c -1.1253,0 -2,0.8747 -2,2 v 1 c 0,-1.1253 0.8747,-2 2,-2 h 10 c 1.1253,0 2,0.8747 2,2 v -1 c 0,-1.1253 -0.8747,-2 -2,-2 z"
         id="rect3896"
         inkscape:connector-curvature="0" />
      <path
         style="color:#bebebe;display:inline;overflow:visible;visibility:visible;opacity:0.13;fill:#ffffff;fill-opacity:1;fill-rule:nonzero;stroke:none;stroke-width:0;marker:none;enable-background:accumulate"
         d="m 422,102 c -2.2333,0 -4,1.7667 -4,4 v 1 c 0,-2.2333 1.7667,-4 4,-4 h 12 c 2.2333,0 4,1.7667 4,4 v -1 c 0,-2.2333 -1.7667,-4 -4,-4 z"
         id="rect3898"
         inkscape:connector-curvature="0" />
      <path
         style="color:#bebebe;display:inline;overflow:visible;visibility:visible;opacity:0.13;fill:#ffffff;fill-opacity:1;fill-rule:nonzero;stroke:none;stroke-width:0;marker:none;enable-background:accumulate"
         d="m 424,54 c -3.3413,0 -6,2.658703 -6,6 v 1 c 0,-3.341297 2.6587,-6 6,-6 h 16 c 3.3413,0 6,2.658703 6,6 v -1 c 0,-3.341297 -2.6587,-6 -6,-6 z"
         id="rect3900"
         inkscape:connector-curvature="0" />
      <path
         style="color:#bebebe;display:inline;overflow:visible;visibility:visible;opacity:0.13;fill:#ffffff;fill-opacity:1;fill-rule:nonzero;stroke:none;stroke-width:0;marker:none;enable-background:accumulate"
         d="m 300,224 c -4.4493,0 -8,3.5507 -8,8 v 1 c 0,-4.4493 3.5507,-8 8,-8 h 24 c 4.4493,0 8,3.5507 8,8 v -1 c 0,-4.4493 -3.5507,-8 -8,-8 z"
         id="rect3902"
         inkscape:connector-curvature="0" />
      <path
         style="color:#bebebe;display:inline;overflow:visible;visibility:visible;opacity:0.13;fill:#ffffff;fill-opacity:1;fill-rule:nonzero;stroke:none;stroke-width:0;marker:none;enable-background:accumulate"
         d="m 310,33 c -9.4353,0 -17,7.564703 -17,17 v 1 c 0,-9.435297 7.5647,-17 17,-17 h 52 c 9.4353,0 17,7.564703 17,17 v -1 c 0,-9.435297 -7.5647,-17 -17,-17 z"
         id="rect3904"
         inkscape:connector-curvature="0" />
      <path
         style="color:#bebebe;display:inline;overflow:visible;visibility:visible;opacity:0.13;fill:#ffffff;fill-opacity:1;fill-rule:nonzero;stroke:none;stroke-width:0;marker:none;enable-background:accumulate"
         d="m 302.5,143 c -6.3883,0 -11.5,5.1117 -11.5,11.5 v 1 c 0,-6.3883 5.1117,-11.5 11.5,-11.5 h 35 c 6.3883,0 11.5,5.1117 11.5,11.5 v -1 c 0,-6.3883 -5.1117,-11.5 -11.5,-11.5 z"
         id="rect3906"
         inkscape:connector-curvature="0" />
      <path
         id="path4085"
         d="m 204,266 c 27.1633,0 49,-21.8367 49,-49 v -1 c 0,27.1633 -21.8367,49 -49,49 H 84 C 56.8367,265 35,243.1633 35,216 v 1 c 0,27.1633 21.8367,49 49,49 z"
         style="color:#bebebe;display:inline;overflow:visible;visibility:visible;opacity:0.41;fill:#000000;fill-opacity:1;fill-rule:nonzero;stroke:none;stroke-width:0;marker:none;enable-background:accumulate"
         inkscape:connector-curvature="0" />
      <path
         id="path4087"
         d="m 429,156 c 1.1253,0 2,-0.8747 2,-2 v -1 c 0,1.1253 -0.8747,2 -2,2 h -10 c -1.1253,0 -2,-0.8747 -2,-2 v 1 c 0,1.1253 0.8747,2 2,2 z"
         style="color:#bebebe;display:inline;overflow:visible;visibility:visible;opacity:0.3;fill:#000000;fill-opacity:1;fill-rule:nonzero;stroke:none;stroke-width:0;marker:none;enable-background:accumulate"
         inkscape:connector-curvature="0" />
      <path
         id="path4089"
         d="m 434,123 c 2.2333,0 4,-1.7667 4,-4 v -1 c 0,2.2333 -1.7667,4 -4,4 h -12 c -2.2333,0 -4,-1.7667 -4,-4 v 1 c 0,2.2333 1.7667,4 4,4 z"
         style="color:#bebebe;display:inline;overflow:visible;visibility:visible;opacity:0.3;fill:#000000;fill-opacity:1;fill-rule:nonzero;stroke:none;stroke-width:0;marker:none;enable-background:accumulate"
         inkscape:connector-curvature="0" />
      <path
         id="path4091"
         d="m 440,83 c 3.3413,0 6,-2.6587 6,-6 v -1 c 0,3.3413 -2.6587,6 -6,6 h -16 c -3.3413,0 -6,-2.6587 -6,-6 v 1 c 0,3.3413 2.6587,6 6,6 z"
         style="color:#bebebe;display:inline;overflow:visible;visibility:visible;opacity:0.41;fill:#000000;fill-opacity:1;fill-rule:nonzero;stroke:none;stroke-width:0;marker:none;enable-background:accumulate"
         inkscape:connector-curvature="0" />
      <path
         id="path4093"
         d="m 324,265 c 4.4493,0 8,-3.5507 8,-8 v -1 c 0,4.4493 -3.5507,8 -8,8 h -24 c -4.4493,0 -8,-3.5507 -8,-8 v 1 c 0,4.4493 3.5507,8 8,8 z"
         style="color:#bebebe;display:inline;overflow:visible;visibility:visible;opacity:0.41;fill:#000000;fill-opacity:1;fill-rule:nonzero;stroke:none;stroke-width:0;marker:none;enable-background:accumulate"
         inkscape:connector-curvature="0" />
      <path
         id="path4095"
         d="m 362,120 c 9.4353,0 17,-7.5647 17,-17 v -1 c 0,9.4353 -7.5647,17 -17,17 h -52 c -9.4353,0 -17,-7.5647 -17,-17 v 1 c 0,9.4353 7.5647,17 17,17 z"
         style="color:#bebebe;display:inline;overflow:visible;visibility:visible;opacity:0.41;fill:#000000;fill-opacity:1;fill-rule:nonzero;stroke:none;stroke-width:0;marker:none;enable-background:accumulate"
         inkscape:connector-curvature="0" />
      <path
         id="path4097"
         d="m 337.5,202 c 6.3883,0 11.5,-5.1117 11.5,-11.5 v -1 c 0,6.3883 -5.1117,11.5 -11.5,11.5 h -35 c -6.3883,0 -11.5,-5.1117 -11.5,-11.5 v 1 c 0,6.3883 5.1117,11.5 11.5,11.5 z"
         style="color:#bebebe;display:inline;overflow:visible;visibility:visible;opacity:0.41;fill:#000000;fill-opacity:1;fill-rule:nonzero;stroke:none;stroke-width:0;marker:none;enable-background:accumulate"
         inkscape:connector-curvature="0" />
      <path
         inkscape:connector-curvature="0"
         id="path4280"
         d="M 84,265 C 56.836703,265 35,243.1633 35,216 v -1 c 0,27.1633 21.836703,49 49,49 h 120 c 27.1633,0 49,-21.8367 49,-49 v 1 c 0,27.1633 -21.8367,49 -49,49 z"
         style="color:#bebebe;display:inline;overflow:visible;visibility:visible;opacity:0.1;fill:#ffffff;fill-opacity:1;fill-rule:nonzero;stroke:none;stroke-width:0;marker:none;enable-background:accumulate" />
      <path
         style="color:#bebebe;display:inline;overflow:visible;visibility:visible;opacity:0.1;fill:#ffffff;fill-opacity:1;fill-rule:nonzero;stroke:none;stroke-width:0;marker:none;enable-background:accumulate"
         d="m 300,264 c -4.4493,0 -8,-3.5507 -8,-8 v -1 c 0,4.4493 3.5507,8 8,8 h 24 c 4.4493,0 8,-3.5507 8,-8 v 1 c 0,4.4493 -3.5507,8 -8,8 z"
         id="path4294"
         inkscape:connector-curvature="0" />
      <path
         style="color:#bebebe;display:inline;overflow:visible;visibility:visible;opacity:0.1;fill:#ffffff;fill-opacity:1;fill-rule:nonzero;stroke:none;stroke-width:0;marker:none;enable-background:accumulate"
         d="m 302.5,201 c -6.3883,0 -11.5,-5.1117 -11.5,-11.5 v -1 c 0,6.3883 5.1117,11.5 11.5,11.5 h 35 c 6.3883,0 11.5,-5.1117 11.5,-11.5 v 1 c 0,6.3883 -5.1117,11.5 -11.5,11.5 z"
         id="path4296"
         inkscape:connector-curvature="0" />
      <path
         style="color:#bebebe;display:inline;overflow:visible;visibility:visible;opacity:0.1;fill:#ffffff;fill-opacity:1;fill-rule:nonzero;stroke:none;stroke-width:0;marker:none;enable-background:accumulate"
         d="m 310,119 c -9.4353,0 -17,-7.5647 -17,-17 v -1 c 0,9.4353 7.5647,17 17,17 h 52 c 9.4353,0 17,-7.5647 17,-17 v 1 c 0,9.4353 -7.5647,17 -17,17 z"
         id="path4298"
         inkscape:connector-curvature="0" />
      <path
         style="color:#bebebe;display:inline;overflow:visible;visibility:visible;opacity:0.1;fill:#ffffff;fill-opacity:1;fill-rule:nonzero;stroke:none;stroke-width:0;marker:none;enable-background:accumulate"
         d="m 424,82 c -3.3413,0 -6,-2.658703 -6,-6 v -1 c 0,3.341297 2.6587,6 6,6 h 16 c 3.3413,0 6,-2.658703 6,-6 v 1 c 0,3.341297 -2.6587,6 -6,6 z"
         id="path4300"
         inkscape:connector-curvature="0" />
      <path
         style="color:#bebebe;display:inline;overflow:visible;visibility:visible;opacity:0.1;fill:#ffffff;fill-opacity:1;fill-rule:nonzero;stroke:none;stroke-width:0;marker:none;enable-background:accumulate"
         d="m 422,122 c -2.2333,0 -4,-1.7667 -4,-4 v -1 c 0,2.2333 1.7667,4 4,4 h 12 c 2.2333,0 4,-1.7667 4,-4 v 1 c 0,2.2333 -1.7667,4 -4,4 z"
         id="path4302"
         inkscape:connector-curvature="0" />
      <path
         style="color:#bebebe;display:inline;overflow:visible;visibility:visible;opacity:0.1;fill:#ffffff;fill-opacity:1;fill-rule:nonzero;stroke:none;stroke-width:0;marker:none;enable-background:accumulate"
         d="m 419,154.5 c -1.1253,0 -2,-0.8747 -2,-2 v -1 c 0,1.1253 0.8747,2 2,2 h 10 c 1.1253,0 2,-0.8747 2,-2 v 1 c 0,1.1253 -0.8747,2 -2,2 z"
         id="path4304"
         inkscape:connector-curvature="0" />
    </g>
    <g
       inkscape:groupmode="layer"
       id="layer3"
       inkscape:label="Border"
       style="display:inline"
       sodipodi:insensitive="true">
      <path
         style="color:#bebebe;display:inline;overflow:visible;visibility:visible;opacity:0.41;fill:#000000;fill-opacity:1;fill-rule:nonzero;stroke:none;stroke-width:0;marker:none;enable-background:accumulate"
         d="m 422,101 c -2.77,0 -5,2.23 -5,5 v 12 c 0,2.77 2.23,5 5,5 h 12 c 2.77,0 5,-2.23 5,-5 v -12 c 0,-2.77 -2.23,-5 -5,-5 z m 0,1 h 12 c 2.2333,0 4,1.7667 4,4 v 12 c 0,2.2333 -1.7667,4 -4,4 h -12 c -2.2333,0 -4,-1.7667 -4,-4 v -12 c 0,-2.2333 1.7667,-4 4,-4 z"
         id="rect4099"
         inkscape:connector-curvature="0" />
      <path
         style="color:#bebebe;display:inline;overflow:visible;visibility:visible;opacity:0.41;fill:#000000;fill-opacity:1;fill-rule:nonzero;stroke:none;stroke-width:0;marker:none;enable-background:accumulate"
         d="m 424,53 c -3.878,0 -7,3.122 -7,7 v 16 c 0,3.878 3.122,7 7,7 h 16 c 3.878,0 7,-3.122 7,-7 V 60 c 0,-3.878 -3.122,-7 -7,-7 z m 0,1 h 16 c 3.3413,0 6,2.658703 6,6 v 16 c 0,3.341297 -2.6587,6 -6,6 h -16 c -3.3413,0 -6,-2.658703 -6,-6 V 60 c 0,-3.341297 2.6587,-6 6,-6 z"
         id="rect4151"
         inkscape:connector-curvature="0" />
      <path
         style="color:#bebebe;display:inline;overflow:visible;visibility:visible;opacity:0.41;fill:#000000;fill-opacity:1;fill-rule:nonzero;stroke:none;stroke-width:0;marker:none;enable-background:accumulate"
         d="m 419,140 c -1.662,0 -3,1.338 -3,3 v 10 c 0,1.662 1.338,3 3,3 h 10 c 1.662,0 3,-1.338 3,-3 v -10 c 0,-1.662 -1.338,-3 -3,-3 z m 0,1 h 10 c 1.1253,0 2,0.8747 2,2 v 10 c 0,1.1253 -0.8747,2 -2,2 h -10 c -1.1253,0 -2,-0.8747 -2,-2 v -10 c 0,-1.1253 0.8747,-2 2,-2 z"
         id="rect4095"
         inkscape:connector-curvature="0" />
      <path
         style="color:#bebebe;display:inline;overflow:visible;visibility:visible;opacity:0.41;fill:#000000;fill-opacity:1;fill-rule:nonzero;stroke:none;stroke-width:0;marker:none;enable-background:accumulate"
         d="m 300,223 c -4.986,0 -9,4.014 -9,9 v 24 c 0,4.986 4.014,9 9,9 h 24 c 4.986,0 9,-4.014 9,-9 v -24 c 0,-4.986 -4.014,-9 -9,-9 z m 0,1 h 24 c 4.4493,0 8,3.5507 8,8 v 24 c 0,4.4493 -3.5507,8 -8,8 h -24 c -4.4493,0 -8,-3.5507 -8,-8 v -24 c 0,-4.4493 3.5507,-8 8,-8 z"
         id="rect4783"
         inkscape:connector-curvature="0" />
      <path
         style="color:#bebebe;display:inline;overflow:visible;visibility:visible;opacity:0.41;fill:#000000;fill-opacity:1;fill-rule:nonzero;stroke:none;stroke-width:0;marker:none;enable-background:accumulate"
         d="m 302.5,142 c -6.925,0 -12.5,5.575 -12.5,12.5 v 35 c 0,6.925 5.575,12.5 12.5,12.5 h 35 c 6.925,0 12.5,-5.575 12.5,-12.5 v -35 c 0,-6.925 -5.575,-12.5 -12.5,-12.5 z m 0,1 h 35 c 6.3883,0 11.5,5.1117 11.5,11.5 v 35 c 0,6.3883 -5.1117,11.5 -11.5,11.5 h -35 c -6.3883,0 -11.5,-5.1117 -11.5,-11.5 v -35 c 0,-6.3883 5.1117,-11.5 11.5,-11.5 z"
         id="rect4515"
         inkscape:connector-curvature="0" />
      <path
         style="color:#bebebe;display:inline;overflow:visible;visibility:visible;opacity:0.41;fill:#000000;fill-opacity:1;fill-rule:nonzero;stroke:none;stroke-width:0;marker:none;enable-background:accumulate"
         d="m 310,32 c -9.972,0 -18,8.028 -18,18 v 52 c 0,9.972 8.028,18 18,18 h 52 c 9.972,0 18,-8.028 18,-18 V 50 c 0,-9.972 -8.028,-18 -18,-18 z m 0,1 h 52 c 9.4353,0 17,7.564703 17,17 v 52 c 0,9.4353 -7.5647,17 -17,17 h -52 c -9.4353,0 -17,-7.5647 -17,-17 V 50 c 0,-9.435297 7.5647,-17 17,-17 z"
         id="rect4511"
         inkscape:connector-curvature="0" />
      <path
         style="color:#bebebe;display:inline;overflow:visible;visibility:visible;opacity:0.41;fill:#000000;fill-opacity:1;fill-rule:nonzero;stroke:none;stroke-width:0;marker:none;enable-background:accumulate"
         d="M 84,46 C 56.3,46 34,68.3 34,96 v 120 c 0,27.7 22.3,50 50,50 h 120 c 27.7,0 50,-22.3 50,-50 V 96 C 254,68.3 231.7,46 204,46 Z m 0,1 h 120 c 27.1633,0 49,21.836703 49,49 v 120 c 0,27.1633 -21.8367,49 -49,49 H 84 C 56.836703,265 35,243.1633 35,216 V 96 C 35,68.836703 56.836703,47 84,47 Z"
         id="rect4040"
         inkscape:connector-curvature="0" />
    </g>
  </g>
</svg>
