<?xml version="1.0" encoding="UTF-8" standalone="no"?>
<svg
   xmlns:dc="http://purl.org/dc/elements/1.1/"
   xmlns:cc="http://creativecommons.org/ns#"
   xmlns:rdf="http://www.w3.org/1999/02/22-rdf-syntax-ns#"
   xmlns:svg="http://www.w3.org/2000/svg"
   xmlns="http://www.w3.org/2000/svg"
   xmlns:xlink="http://www.w3.org/1999/xlink"
   xmlns:sodipodi="http://sodipodi.sourceforge.net/DTD/sodipodi-0.dtd"
   xmlns:inkscape="http://www.inkscape.org/namespaces/inkscape"
   width="480"
   height="300"
   viewBox="0 0 480 300"
   version="1.1"
   id="svg38"
   sodipodi:docname="brave-dev-svgrepo-com.svg"
   inkscape:version="0.92.5 (2060ec1f9f, 2020-04-08)">
  <metadata
     id="metadata44">
    <rdf:RDF>
      <cc:Work
         rdf:about="">
        <dc:format>image/svg+xml</dc:format>
        <dc:type
           rdf:resource="http://purl.org/dc/dcmitype/StillImage" />
        <dc:title></dc:title>
      </cc:Work>
    </rdf:RDF>
  </metadata>
  <defs
     id="defs42">
    <linearGradient
       gradientTransform="rotate(90,-77.725758,-58.351472)"
       gradientUnits="userSpaceOnUse"
       y2="156"
       x2="253"
       y1="156"
       x1="35"
       id="linearGradient4254"
       xlink:href="#b"
       inkscape:collect="always" />
    <linearGradient
       gradientTransform="rotate(90,202.27424,-66.351471)"
       gradientUnits="userSpaceOnUse"
       y2="148"
       x2="431"
       y1="148"
       x1="417"
       id="linearGradient4256"
       xlink:href="#b"
       inkscape:collect="always" />
    <linearGradient
       gradientTransform="rotate(90,210.27424,-146.35147)"
       gradientUnits="userSpaceOnUse"
       y2="68"
       x2="446"
       y1="68"
       x1="418"
       id="linearGradient4260"
       xlink:href="#b"
       inkscape:collect="always" />
    <linearGradient
       gradientTransform="rotate(90,90.274242,29.648529)"
       gradientUnits="userSpaceOnUse"
       y2="244"
       x2="332"
       y1="244"
       x1="292"
       id="linearGradient4262"
       xlink:href="#b"
       inkscape:collect="always" />
    <linearGradient
       gradientTransform="rotate(90,114.52424,-138.60147)"
       gradientUnits="userSpaceOnUse"
       y2="76"
       x2="379"
       y1="76"
       x1="293"
       id="linearGradient4264"
       xlink:href="#b"
       inkscape:collect="always" />
    <linearGradient
       gradientTransform="rotate(90,98.274242,-42.351472)"
       gradientUnits="userSpaceOnUse"
       y2="172"
       x2="349"
       y1="172"
       x1="291"
       id="linearGradient4266"
       xlink:href="#b"
       inkscape:collect="always" />
    <linearGradient
       gradientTransform="rotate(90,206.27424,-102.35147)"
       y2="112"
       x2="438"
       y1="112"
       x1="418"
       gradientUnits="userSpaceOnUse"
       id="linearGradient3870"
       xlink:href="#b"
       inkscape:collect="always" />
    <linearGradient
       id="linearGradient6464-1">
      <stop
         id="stop6466-7"
         offset="0"
         style="stop-color:#483164;stop-opacity:1" />
      <stop
         id="stop6468-6"
         offset="1"
         style="stop-color:#332b51;stop-opacity:1" />
    </linearGradient>
    <linearGradient
       id="outerBackgroundGradient">
      <stop
         style="stop-color:#fd5d38;stop-opacity:1"
         offset="0"
         id="stop3864-8-6" />
      <stop
         style="stop-color:#f69d31;stop-opacity:1"
         offset="1"
         id="stop3866-9-1" />
    </linearGradient>
    <linearGradient
       id="outerBackgroundGradient-5">
      <stop
         style="stop-color:#f2f2f2;stop-opacity:1;"
         offset="0"
         id="stop3864-8-6-7" />
      <stop
         style="stop-color:#ffffff;stop-opacity:1;"
         offset="1"
         id="stop3866-9-1-73" />
    </linearGradient>
  </defs>
  <sodipodi:namedview
     pagecolor="#ffffff"
     bordercolor="#666666"
     borderopacity="1"
     objecttolerance="10"
     gridtolerance="10"
     guidetolerance="10"
     inkscape:pageopacity="0"
     inkscape:pageshadow="2"
     inkscape:window-width="1366"
     inkscape:window-height="697"
     id="namedview40"
     showgrid="false"
     inkscape:zoom="0.9639116"
     inkscape:cx="343.26724"
     inkscape:cy="136.6174"
     inkscape:window-x="0"
     inkscape:window-y="40"
     inkscape:window-maximized="1"
     inkscape:current-layer="layer2-1" />
  <linearGradient
     id="a"
     y1="1296.7542"
     y2="1296.7542"
     gradientTransform="matrix(0.08483793,0,0,0.10604743,667.98786,99.955815)"
     x1="319.59723"
     x2="2677.0332"
     gradientUnits="userSpaceOnUse">
    <stop
       offset="0"
       stop-color="#00a7ff"
       id="stop2" />
    <stop
       offset=".4"
       stop-color="#0162bf"
       id="stop4" />
    <stop
       offset=".5"
       stop-color="#0058b8"
       id="stop6" />
    <stop
       offset=".6"
       stop-color="#0038b0"
       id="stop8" />
    <stop
       offset="1"
       stop-color="#001450"
       id="stop10" />
  </linearGradient>
  <linearGradient
     id="b"
     x2="1113.9823"
     y1="679.99127"
     y2="679.99127"
     gradientTransform="matrix(0.19764557,0,0,0.0494114,566.61154,-66.752704)"
     x1="242.42216"
     gradientUnits="userSpaceOnUse">
    <stop
       offset="0"
       stop-color="#0082ff"
       id="stop13" />
    <stop
       offset="1"
       stop-color="#001b6d"
       id="stop15" />
  </linearGradient>
  <filter
     id="c"
     width="1.158"
     height="1.291"
     x="-0.079999998"
     y="-0.11">
    <feOffset
       dy="20"
       id="feOffset19" />
    <feGaussianBlur
       stdDeviation="25"
       id="feGaussianBlur21" />
    <feColorMatrix
       values="0 0 0 0 0 0 0 0 0 0 0 0 0 0 0 0 0 0 .3 0"
       id="feColorMatrix23" />
  </filter>
  <g
     style="display:inline;opacity:1"
     inkscape:label="Symbols"
     id="layer6"
     inkscape:groupmode="layer"
     transform="translate(-0.5,1)">
    <g
       transform="translate(436.07723,-7.374287)"
       inkscape:groupmode="layer"
       id="layer2-1"
       inkscape:label="Background"
       style="display:inline;opacity:1">
      <g
         id="g1305">
        <g
           id="g1250">
          <path
             inkscape:connector-curvature="0"
             id="path4200"
             d="m -232.07723,272.87429 c 27.43126,0 49.5,-22.06873 49.5,-49.5 v -120 c 0,-27.431273 -22.06874,-49.500003 -49.5,-49.500003 h -120 c -27.43127,0 -49.5,22.06873 -49.5,49.500003 v 120 c 0,27.43127 22.06873,49.5 49.5,49.5 z"
             style="color:#bebebe;display:inline;overflow:visible;visibility:visible;opacity:1;fill:url(#linearGradient4254);fill-opacity:1.0;fill-rule:nonzero;stroke:none;stroke-width:2;marker:none;enable-background:accumulate" />
          <g
             id="g160"
             transform="matrix(0.80442127,0,0,0.80395867,-841.0131,74.937553)"
             style="fill:#ffffff;fill-opacity:1">
            <path
               id="path133"
               d="m 663.1058,16.908592 -15.33333,4.666667 -15.73334,-2.8 c -8.53333,-1.466667 -16.66667,-2.666667 -18.13333,-2.666667 -1.6,0 -6.8,6 -15.06667,16.933334 -21.6,28.933335 -24.8,35.733335 -20.4,42.666669 1.33333,2.133333 10.66667,11.733334 20.8,21.466668 20.4,19.599997 20.4,19.599997 15.86667,30.933337 -3.33334,8.53333 -3.33334,14.66666 0,21.2 2.8,5.73333 10.93333,13.06667 15.46666,14.26667 3.33334,0.8 20.00001,-6.4 28.80001,-12.53334 8.4,-5.86667 18.4,-16 18.4,-18.66667 0,-1.2 -6.26667,-8.26666 -14,-15.6 l -14.13334,-13.33333 1.86667,-6.000001 c 1.06667,-3.333333 3.2,-9.2 4.8,-13.066667 3.33333,-8.266667 3.6,-13.333334 0.93333,-17.066668 -1.2,-1.6 -10.26666,-6 -23.46667,-11.2 -11.86666,-4.533334 -21.06666,-8.800001 -20.4,-9.466667 0.53334,-0.533334 7.06667,-1.333334 14.4,-1.866667 12.66667,-0.666667 13.86667,-0.533333 25.20001,3.733333 6.8,2.400001 12.53333,5.466667 13.46666,6.933334 1.46667,2.266667 0.93334,6 -2.8,22.533335 -3.06666,13.6 -4.13333,20.400001 -3.2,21.466667 1.6,2.000001 14.4,4.666671 22,4.666671 7.73334,0 20.4,-2.66667 22,-4.666671 0.93334,-1.2 0.13334,-7.466667 -3.2,-21.466667 -3.73333,-16.533335 -4.26666,-20.266668 -2.8,-22.533335 0.93334,-1.466667 6.66667,-4.533333 13.46667,-6.933334 11.33334,-4.266666 12.53334,-4.4 25.2,-3.733333 7.33334,0.533333 13.86667,1.333333 14.4,1.866667 0.53334,0.533333 -8.4,4.8 -20,9.333333 -11.6,4.533334 -22.13333,9.600001 -23.33333,11.066668 -3.46667,4 -2.93334,8.266667 2.53333,22.933334 l 4.93334,13.199998 -14.26667,13.46667 c -7.86667,7.46667 -14.26667,14.4 -14.26667,15.6 0,4.4 17.6,19.06667 30.8,25.73334 14.53334,7.33333 16.8,7.33333 24.53334,0.53333 9.86666,-8.53333 12.13333,-18.13334 7.33333,-30.66667 -1.46667,-3.86667 -2.66667,-8.4 -2.66667,-10 0,-1.86667 5.86667,-8.53333 18.53334,-20.666667 10.13333,-9.733334 19.46667,-19.333335 20.8,-21.333335 4.4,-7.066667 0.53333,-15.333334 -19.86667,-42.266669 -14.93333,-19.600001 -12.4,-18.400001 -32.53333,-14.933334 l -16.93334,2.933334 -15.86667,-4.8 c -8.8,-2.533334 -17.46666,-4.666667 -19.33333,-4.533334 -1.86667,0 -10.4,2.133333 -18.8,4.666667 z"
               inkscape:connector-curvature="0"
               style="fill:#ffffff;fill-opacity:1;stroke:none;stroke-width:0.13333334" />
            <path
               id="path135"
               d="m 666.97247,157.84193 c -14.66667,6.66667 -27.86667,14.26667 -27.86667,16.26667 0,0.93333 4.93333,5.33333 11.06667,9.73333 6,4.4 14.8,11.33334 19.46666,15.46667 4.66667,4.13333 9.73334,7.73333 11.06667,8.26667 3.06667,0.93333 6.66667,-1.33334 18.4,-11.33334 4.8,-4.13333 12.8,-10.53333 17.73334,-14.13333 5.06666,-3.73333 8.8,-7.46667 8.53333,-8.66667 -0.13333,-1.06666 -8,-5.86666 -17.6,-10.53333 -21.86667,-10.93333 -26.4,-11.46667 -40.8,-5.06667 z"
               inkscape:connector-curvature="0"
               style="fill:#ffffff;fill-opacity:1;stroke:none;stroke-width:0.13333334" />
          </g>
        </g>
        <g
           id="g1256">
          <path
             inkscape:connector-curvature="0"
             id="path4210"
             d="m -74.07723,126.37429 c 9.70255,0 17.5,-7.79745 17.5,-17.5 V 56.874287 c 0,-9.70255 -7.79745,-17.5 -17.5,-17.5 h -52 c -9.70255,0 -17.5,7.79745 -17.5,17.5 v 52.000003 c 0,9.70255 7.79745,17.5 17.5,17.5 z"
             style="color:#bebebe;display:inline;overflow:visible;visibility:visible;opacity:1;fill:url(#linearGradient4264);fill-opacity:1.0;fill-rule:nonzero;stroke:none;stroke-width:2;marker:none;enable-background:accumulate" />
          <g
             style="fill:#ffffff;fill-opacity:1"
             transform="matrix(0.31956461,0,0,0.31938084,-318.14764,47.741886)"
             id="g666">
            <path
               style="fill:#ffffff;fill-opacity:1;stroke:none;stroke-width:0.13333334"
               inkscape:connector-curvature="0"
               d="m 663.1058,16.908592 -15.33333,4.666667 -15.73334,-2.8 c -8.53333,-1.466667 -16.66667,-2.666667 -18.13333,-2.666667 -1.6,0 -6.8,6 -15.06667,16.933334 -21.6,28.933335 -24.8,35.733335 -20.4,42.666669 1.33333,2.133333 10.66667,11.733334 20.8,21.466668 20.4,19.599997 20.4,19.599997 15.86667,30.933337 -3.33334,8.53333 -3.33334,14.66666 0,21.2 2.8,5.73333 10.93333,13.06667 15.46666,14.26667 3.33334,0.8 20.00001,-6.4 28.80001,-12.53334 8.4,-5.86667 18.4,-16 18.4,-18.66667 0,-1.2 -6.26667,-8.26666 -14,-15.6 l -14.13334,-13.33333 1.86667,-6.000001 c 1.06667,-3.333333 3.2,-9.2 4.8,-13.066667 3.33333,-8.266667 3.6,-13.333334 0.93333,-17.066668 -1.2,-1.6 -10.26666,-6 -23.46667,-11.2 -11.86666,-4.533334 -21.06666,-8.800001 -20.4,-9.466667 0.53334,-0.533334 7.06667,-1.333334 14.4,-1.866667 12.66667,-0.666667 13.86667,-0.533333 25.20001,3.733333 6.8,2.400001 12.53333,5.466667 13.46666,6.933334 1.46667,2.266667 0.93334,6 -2.8,22.533335 -3.06666,13.6 -4.13333,20.400001 -3.2,21.466667 1.6,2.000001 14.4,4.666671 22,4.666671 7.73334,0 20.4,-2.66667 22,-4.666671 0.93334,-1.2 0.13334,-7.466667 -3.2,-21.466667 -3.73333,-16.533335 -4.26666,-20.266668 -2.8,-22.533335 0.93334,-1.466667 6.66667,-4.533333 13.46667,-6.933334 11.33334,-4.266666 12.53334,-4.4 25.2,-3.733333 7.33334,0.533333 13.86667,1.333333 14.4,1.866667 0.53334,0.533333 -8.4,4.8 -20,9.333333 -11.6,4.533334 -22.13333,9.600001 -23.33333,11.066668 -3.46667,4 -2.93334,8.266667 2.53333,22.933334 l 4.93334,13.199998 -14.26667,13.46667 c -7.86667,7.46667 -14.26667,14.4 -14.26667,15.6 0,4.4 17.6,19.06667 30.8,25.73334 14.53334,7.33333 16.8,7.33333 24.53334,0.53333 9.86666,-8.53333 12.13333,-18.13334 7.33333,-30.66667 -1.46667,-3.86667 -2.66667,-8.4 -2.66667,-10 0,-1.86667 5.86667,-8.53333 18.53334,-20.666667 10.13333,-9.733334 19.46667,-19.333335 20.8,-21.333335 4.4,-7.066667 0.53333,-15.333334 -19.86667,-42.266669 -14.93333,-19.600001 -12.4,-18.400001 -32.53333,-14.933334 l -16.93334,2.933334 -15.86667,-4.8 c -8.8,-2.533334 -17.46666,-4.666667 -19.33333,-4.533334 -1.86667,0 -10.4,2.133333 -18.8,4.666667 z"
               id="path662" />
            <path
               style="fill:#ffffff;fill-opacity:1;stroke:none;stroke-width:0.13333334"
               inkscape:connector-curvature="0"
               d="m 666.97247,157.84193 c -14.66667,6.66667 -27.86667,14.26667 -27.86667,16.26667 0,0.93333 4.93333,5.33333 11.06667,9.73333 6,4.4 14.8,11.33334 19.46666,15.46667 4.66667,4.13333 9.73334,7.73333 11.06667,8.26667 3.06667,0.93333 6.66667,-1.33334 18.4,-11.33334 4.8,-4.13333 12.8,-10.53333 17.73334,-14.13333 5.06666,-3.73333 8.8,-7.46667 8.53333,-8.66667 -0.13333,-1.06666 -8,-5.86666 -17.6,-10.53333 -21.86667,-10.93333 -26.4,-11.46667 -40.8,-5.06667 z"
               id="path664" />
          </g>
        </g>
        <g
           id="g1262">
          <path
             inkscape:connector-curvature="0"
             id="path4212"
             d="m -98.57723,208.87429 c 6.65502,0 12,-5.34498 12,-12 v -35 c 0,-6.65502 -5.34498,-12 -12,-12 h -35 c -6.65502,0 -12,5.34498 -12,12 v 35 c 0,6.65502 5.34498,12 12,12 z"
             style="color:#bebebe;display:inline;overflow:visible;visibility:visible;opacity:1;fill:url(#linearGradient4266);fill-opacity:1.0;fill-rule:nonzero;stroke:none;stroke-width:2;marker:none;enable-background:accumulate" />
          <g
             id="g689"
             transform="matrix(0.21671623,0,0,0.2165916,-263.96406,155.54887)"
             style="fill:#ffffff;fill-opacity:1">
            <path
               id="path685"
               d="m 663.1058,16.908592 -15.33333,4.666667 -15.73334,-2.8 c -8.53333,-1.466667 -16.66667,-2.666667 -18.13333,-2.666667 -1.6,0 -6.8,6 -15.06667,16.933334 -21.6,28.933335 -24.8,35.733335 -20.4,42.666669 1.33333,2.133333 10.66667,11.733334 20.8,21.466668 20.4,19.599997 20.4,19.599997 15.86667,30.933337 -3.33334,8.53333 -3.33334,14.66666 0,21.2 2.8,5.73333 10.93333,13.06667 15.46666,14.26667 3.33334,0.8 20.00001,-6.4 28.80001,-12.53334 8.4,-5.86667 18.4,-16 18.4,-18.66667 0,-1.2 -6.26667,-8.26666 -14,-15.6 l -14.13334,-13.33333 1.86667,-6.000001 c 1.06667,-3.333333 3.2,-9.2 4.8,-13.066667 3.33333,-8.266667 3.6,-13.333334 0.93333,-17.066668 -1.2,-1.6 -10.26666,-6 -23.46667,-11.2 -11.86666,-4.533334 -21.06666,-8.800001 -20.4,-9.466667 0.53334,-0.533334 7.06667,-1.333334 14.4,-1.866667 12.66667,-0.666667 13.86667,-0.533333 25.20001,3.733333 6.8,2.400001 12.53333,5.466667 13.46666,6.933334 1.46667,2.266667 0.93334,6 -2.8,22.533335 -3.06666,13.6 -4.13333,20.400001 -3.2,21.466667 1.6,2.000001 14.4,4.666671 22,4.666671 7.73334,0 20.4,-2.66667 22,-4.666671 0.93334,-1.2 0.13334,-7.466667 -3.2,-21.466667 -3.73333,-16.533335 -4.26666,-20.266668 -2.8,-22.533335 0.93334,-1.466667 6.66667,-4.533333 13.46667,-6.933334 11.33334,-4.266666 12.53334,-4.4 25.2,-3.733333 7.33334,0.533333 13.86667,1.333333 14.4,1.866667 0.53334,0.533333 -8.4,4.8 -20,9.333333 -11.6,4.533334 -22.13333,9.600001 -23.33333,11.066668 -3.46667,4 -2.93334,8.266667 2.53333,22.933334 l 4.93334,13.199998 -14.26667,13.46667 c -7.86667,7.46667 -14.26667,14.4 -14.26667,15.6 0,4.4 17.6,19.06667 30.8,25.73334 14.53334,7.33333 16.8,7.33333 24.53334,0.53333 9.86666,-8.53333 12.13333,-18.13334 7.33333,-30.66667 -1.46667,-3.86667 -2.66667,-8.4 -2.66667,-10 0,-1.86667 5.86667,-8.53333 18.53334,-20.666667 10.13333,-9.733334 19.46667,-19.333335 20.8,-21.333335 4.4,-7.066667 0.53333,-15.333334 -19.86667,-42.266669 -14.93333,-19.600001 -12.4,-18.400001 -32.53333,-14.933334 l -16.93334,2.933334 -15.86667,-4.8 c -8.8,-2.533334 -17.46666,-4.666667 -19.33333,-4.533334 -1.86667,0 -10.4,2.133333 -18.8,4.666667 z"
               inkscape:connector-curvature="0"
               style="fill:#ffffff;fill-opacity:1;stroke:none;stroke-width:0.13333334" />
            <path
               id="path687"
               d="m 666.97247,157.84193 c -14.66667,6.66667 -27.86667,14.26667 -27.86667,16.26667 0,0.93333 4.93333,5.33333 11.06667,9.73333 6,4.4 14.8,11.33334 19.46666,15.46667 4.66667,4.13333 9.73334,7.73333 11.06667,8.26667 3.06667,0.93333 6.66667,-1.33334 18.4,-11.33334 4.8,-4.13333 12.8,-10.53333 17.73334,-14.13333 5.06666,-3.73333 8.8,-7.46667 8.53333,-8.66667 -0.13333,-1.06666 -8,-5.86666 -17.6,-10.53333 -21.86667,-10.93333 -26.4,-11.46667 -40.8,-5.06667 z"
               inkscape:connector-curvature="0"
               style="fill:#ffffff;fill-opacity:1;stroke:none;stroke-width:0.13333334" />
          </g>
        </g>
        <g
           id="g1268">
          <path
             inkscape:connector-curvature="0"
             id="path4208"
             d="m -112.07723,271.87429 c 4.71531,0 8.5,-3.78469 8.5,-8.5 v -24 c 0,-4.71531 -3.78469,-8.5 -8.5,-8.5 h -24 c -4.71531,0 -8.5,3.78469 -8.5,8.5 v 24 c 0,4.71531 3.78469,8.5 8.5,8.5 z"
             style="color:#bebebe;display:inline;overflow:visible;visibility:visible;opacity:1;fill:url(#linearGradient4262);fill-opacity:1.0;fill-rule:nonzero;stroke:none;stroke-width:2;marker:none;enable-background:accumulate" />
          <g
             id="g701"
             transform="matrix(0.15059941,0,0,0.15051281,-226.84604,234.81764)"
             style="fill:#ffffff;fill-opacity:1">
            <path
               id="path697"
               d="m 663.1058,16.908592 -15.33333,4.666667 -15.73334,-2.8 c -8.53333,-1.466667 -16.66667,-2.666667 -18.13333,-2.666667 -1.6,0 -6.8,6 -15.06667,16.933334 -21.6,28.933335 -24.8,35.733335 -20.4,42.666669 1.33333,2.133333 10.66667,11.733334 20.8,21.466668 20.4,19.599997 20.4,19.599997 15.86667,30.933337 -3.33334,8.53333 -3.33334,14.66666 0,21.2 2.8,5.73333 10.93333,13.06667 15.46666,14.26667 3.33334,0.8 20.00001,-6.4 28.80001,-12.53334 8.4,-5.86667 18.4,-16 18.4,-18.66667 0,-1.2 -6.26667,-8.26666 -14,-15.6 l -14.13334,-13.33333 1.86667,-6.000001 c 1.06667,-3.333333 3.2,-9.2 4.8,-13.066667 3.33333,-8.266667 3.6,-13.333334 0.93333,-17.066668 -1.2,-1.6 -10.26666,-6 -23.46667,-11.2 -11.86666,-4.533334 -21.06666,-8.800001 -20.4,-9.466667 0.53334,-0.533334 7.06667,-1.333334 14.4,-1.866667 12.66667,-0.666667 13.86667,-0.533333 25.20001,3.733333 6.8,2.400001 12.53333,5.466667 13.46666,6.933334 1.46667,2.266667 0.93334,6 -2.8,22.533335 -3.06666,13.6 -4.13333,20.400001 -3.2,21.466667 1.6,2.000001 14.4,4.666671 22,4.666671 7.73334,0 20.4,-2.66667 22,-4.666671 0.93334,-1.2 0.13334,-7.466667 -3.2,-21.466667 -3.73333,-16.533335 -4.26666,-20.266668 -2.8,-22.533335 0.93334,-1.466667 6.66667,-4.533333 13.46667,-6.933334 11.33334,-4.266666 12.53334,-4.4 25.2,-3.733333 7.33334,0.533333 13.86667,1.333333 14.4,1.866667 0.53334,0.533333 -8.4,4.8 -20,9.333333 -11.6,4.533334 -22.13333,9.600001 -23.33333,11.066668 -3.46667,4 -2.93334,8.266667 2.53333,22.933334 l 4.93334,13.199998 -14.26667,13.46667 c -7.86667,7.46667 -14.26667,14.4 -14.26667,15.6 0,4.4 17.6,19.06667 30.8,25.73334 14.53334,7.33333 16.8,7.33333 24.53334,0.53333 9.86666,-8.53333 12.13333,-18.13334 7.33333,-30.66667 -1.46667,-3.86667 -2.66667,-8.4 -2.66667,-10 0,-1.86667 5.86667,-8.53333 18.53334,-20.666667 10.13333,-9.733334 19.46667,-19.333335 20.8,-21.333335 4.4,-7.066667 0.53333,-15.333334 -19.86667,-42.266669 -14.93333,-19.600001 -12.4,-18.400001 -32.53333,-14.933334 l -16.93334,2.933334 -15.86667,-4.8 c -8.8,-2.533334 -17.46666,-4.666667 -19.33333,-4.533334 -1.86667,0 -10.4,2.133333 -18.8,4.666667 z"
               inkscape:connector-curvature="0"
               style="fill:#ffffff;fill-opacity:1;stroke:none;stroke-width:0.13333334" />
            <path
               id="path699"
               d="m 666.97247,157.84193 c -14.66667,6.66667 -27.86667,14.26667 -27.86667,16.26667 0,0.93333 4.93333,5.33333 11.06667,9.73333 6,4.4 14.8,11.33334 19.46666,15.46667 4.66667,4.13333 9.73334,7.73333 11.06667,8.26667 3.06667,0.93333 6.66667,-1.33334 18.4,-11.33334 4.8,-4.13333 12.8,-10.53333 17.73334,-14.13333 5.06666,-3.73333 8.8,-7.46667 8.53333,-8.66667 -0.13333,-1.06666 -8,-5.86666 -17.6,-10.53333 -21.86667,-10.93333 -26.4,-11.46667 -40.8,-5.06667 z"
               inkscape:connector-curvature="0"
               style="fill:#ffffff;fill-opacity:1;stroke:none;stroke-width:0.13333334" />
          </g>
        </g>
        <g
           id="g1238">
          <path
             inkscape:connector-curvature="0"
             id="path4204"
             d="m -2.07723,129.87429 c 2.49699,0 4.5,-2.00301 4.5,-4.5 v -12 c 0,-2.49699 -2.00301,-4.5 -4.5,-4.5 h -12 c -2.49699,0 -4.5,2.00301 -4.5,4.5 v 12 c 0,2.49699 2.00301,4.5 4.5,4.5 z"
             style="color:#bebebe;display:inline;overflow:visible;visibility:visible;opacity:1;fill:url(#linearGradient3870);fill-opacity:1.0;fill-rule:nonzero;stroke:none;stroke-width:2;marker:none;enable-background:accumulate" />
          <g
             style="fill:#ffffff;fill-opacity:1"
             transform="matrix(0.07713628,0,0,0.07709193,-60.714912,110.89405)"
             id="g735">
            <path
               style="fill:#ffffff;fill-opacity:1;stroke:none;stroke-width:0.13333334"
               inkscape:connector-curvature="0"
               d="m 663.1058,16.908592 -15.33333,4.666667 -15.73334,-2.8 c -8.53333,-1.466667 -16.66667,-2.666667 -18.13333,-2.666667 -1.6,0 -6.8,6 -15.06667,16.933334 -21.6,28.933335 -24.8,35.733335 -20.4,42.666669 1.33333,2.133333 10.66667,11.733334 20.8,21.466668 20.4,19.599997 20.4,19.599997 15.86667,30.933337 -3.33334,8.53333 -3.33334,14.66666 0,21.2 2.8,5.73333 10.93333,13.06667 15.46666,14.26667 3.33334,0.8 20.00001,-6.4 28.80001,-12.53334 8.4,-5.86667 18.4,-16 18.4,-18.66667 0,-1.2 -6.26667,-8.26666 -14,-15.6 l -14.13334,-13.33333 1.86667,-6.000001 c 1.06667,-3.333333 3.2,-9.2 4.8,-13.066667 3.33333,-8.266667 3.6,-13.333334 0.93333,-17.066668 -1.2,-1.6 -10.26666,-6 -23.46667,-11.2 -11.86666,-4.533334 -21.06666,-8.800001 -20.4,-9.466667 0.53334,-0.533334 7.06667,-1.333334 14.4,-1.866667 12.66667,-0.666667 13.86667,-0.533333 25.20001,3.733333 6.8,2.400001 12.53333,5.466667 13.46666,6.933334 1.46667,2.266667 0.93334,6 -2.8,22.533335 -3.06666,13.6 -4.13333,20.400001 -3.2,21.466667 1.6,2.000001 14.4,4.666671 22,4.666671 7.73334,0 20.4,-2.66667 22,-4.666671 0.93334,-1.2 0.13334,-7.466667 -3.2,-21.466667 -3.73333,-16.533335 -4.26666,-20.266668 -2.8,-22.533335 0.93334,-1.466667 6.66667,-4.533333 13.46667,-6.933334 11.33334,-4.266666 12.53334,-4.4 25.2,-3.733333 7.33334,0.533333 13.86667,1.333333 14.4,1.866667 0.53334,0.533333 -8.4,4.8 -20,9.333333 -11.6,4.533334 -22.13333,9.600001 -23.33333,11.066668 -3.46667,4 -2.93334,8.266667 2.53333,22.933334 l 4.93334,13.199998 -14.26667,13.46667 c -7.86667,7.46667 -14.26667,14.4 -14.26667,15.6 0,4.4 17.6,19.06667 30.8,25.73334 14.53334,7.33333 16.8,7.33333 24.53334,0.53333 9.86666,-8.53333 12.13333,-18.13334 7.33333,-30.66667 -1.46667,-3.86667 -2.66667,-8.4 -2.66667,-10 0,-1.86667 5.86667,-8.53333 18.53334,-20.666667 10.13333,-9.733334 19.46667,-19.333335 20.8,-21.333335 4.4,-7.066667 0.53333,-15.333334 -19.86667,-42.266669 -14.93333,-19.600001 -12.4,-18.400001 -32.53333,-14.933334 l -16.93334,2.933334 -15.86667,-4.8 c -8.8,-2.533334 -17.46666,-4.666667 -19.33333,-4.533334 -1.86667,0 -10.4,2.133333 -18.8,4.666667 z"
               id="path731" />
            <path
               style="fill:#ffffff;fill-opacity:1;stroke:none;stroke-width:0.13333334"
               inkscape:connector-curvature="0"
               d="m 666.97247,157.84193 c -14.66667,6.66667 -27.86667,14.26667 -27.86667,16.26667 0,0.93333 4.93333,5.33333 11.06667,9.73333 6,4.4 14.8,11.33334 19.46666,15.46667 4.66667,4.13333 9.73334,7.73333 11.06667,8.26667 3.06667,0.93333 6.66667,-1.33334 18.4,-11.33334 4.8,-4.13333 12.8,-10.53333 17.73334,-14.13333 5.06666,-3.73333 8.8,-7.46667 8.53333,-8.66667 -0.13333,-1.06666 -8,-5.86666 -17.6,-10.53333 -21.86667,-10.93333 -26.4,-11.46667 -40.8,-5.06667 z"
               id="path733" />
          </g>
        </g>
        <g
           id="g1232">
          <path
             inkscape:connector-curvature="0"
             id="path4206"
             d="m 3.92277,89.874287 c 3.60654,0 6.5,-2.89346 6.5,-6.5 v -16 c 0,-3.60654 -2.89346,-6.5 -6.5,-6.5 h -16 c -3.60654,0 -6.5,2.89346 -6.5,6.5 v 16 c 0,3.60654 2.89346,6.5 6.5,6.5 z"
             style="color:#bebebe;display:inline;overflow:visible;visibility:visible;opacity:1;fill:url(#linearGradient4260);fill-opacity:1.0;fill-rule:nonzero;stroke:none;stroke-width:2;marker:none;enable-background:accumulate" />
          <g
             style="fill:#ffffff;fill-opacity:1"
             transform="matrix(0.10652153,0,0,0.10646028,-76.767362,63.663487)"
             id="g747">
            <path
               style="fill:#ffffff;fill-opacity:1;stroke:none;stroke-width:0.13333334"
               inkscape:connector-curvature="0"
               d="m 663.1058,16.908592 -15.33333,4.666667 -15.73334,-2.8 c -8.53333,-1.466667 -16.66667,-2.666667 -18.13333,-2.666667 -1.6,0 -6.8,6 -15.06667,16.933334 -21.6,28.933335 -24.8,35.733335 -20.4,42.666669 1.33333,2.133333 10.66667,11.733334 20.8,21.466668 20.4,19.599997 20.4,19.599997 15.86667,30.933337 -3.33334,8.53333 -3.33334,14.66666 0,21.2 2.8,5.73333 10.93333,13.06667 15.46666,14.26667 3.33334,0.8 20.00001,-6.4 28.80001,-12.53334 8.4,-5.86667 18.4,-16 18.4,-18.66667 0,-1.2 -6.26667,-8.26666 -14,-15.6 l -14.13334,-13.33333 1.86667,-6.000001 c 1.06667,-3.333333 3.2,-9.2 4.8,-13.066667 3.33333,-8.266667 3.6,-13.333334 0.93333,-17.066668 -1.2,-1.6 -10.26666,-6 -23.46667,-11.2 -11.86666,-4.533334 -21.06666,-8.800001 -20.4,-9.466667 0.53334,-0.533334 7.06667,-1.333334 14.4,-1.866667 12.66667,-0.666667 13.86667,-0.533333 25.20001,3.733333 6.8,2.400001 12.53333,5.466667 13.46666,6.933334 1.46667,2.266667 0.93334,6 -2.8,22.533335 -3.06666,13.6 -4.13333,20.400001 -3.2,21.466667 1.6,2.000001 14.4,4.666671 22,4.666671 7.73334,0 20.4,-2.66667 22,-4.666671 0.93334,-1.2 0.13334,-7.466667 -3.2,-21.466667 -3.73333,-16.533335 -4.26666,-20.266668 -2.8,-22.533335 0.93334,-1.466667 6.66667,-4.533333 13.46667,-6.933334 11.33334,-4.266666 12.53334,-4.4 25.2,-3.733333 7.33334,0.533333 13.86667,1.333333 14.4,1.866667 0.53334,0.533333 -8.4,4.8 -20,9.333333 -11.6,4.533334 -22.13333,9.600001 -23.33333,11.066668 -3.46667,4 -2.93334,8.266667 2.53333,22.933334 l 4.93334,13.199998 -14.26667,13.46667 c -7.86667,7.46667 -14.26667,14.4 -14.26667,15.6 0,4.4 17.6,19.06667 30.8,25.73334 14.53334,7.33333 16.8,7.33333 24.53334,0.53333 9.86666,-8.53333 12.13333,-18.13334 7.33333,-30.66667 -1.46667,-3.86667 -2.66667,-8.4 -2.66667,-10 0,-1.86667 5.86667,-8.53333 18.53334,-20.666667 10.13333,-9.733334 19.46667,-19.333335 20.8,-21.333335 4.4,-7.066667 0.53333,-15.333334 -19.86667,-42.266669 -14.93333,-19.600001 -12.4,-18.400001 -32.53333,-14.933334 l -16.93334,2.933334 -15.86667,-4.8 c -8.8,-2.533334 -17.46666,-4.666667 -19.33333,-4.533334 -1.86667,0 -10.4,2.133333 -18.8,4.666667 z"
               id="path743" />
            <path
               style="fill:#ffffff;fill-opacity:1;stroke:none;stroke-width:0.13333334"
               inkscape:connector-curvature="0"
               d="m 666.97247,157.84193 c -14.66667,6.66667 -27.86667,14.26667 -27.86667,16.26667 0,0.93333 4.93333,5.33333 11.06667,9.73333 6,4.4 14.8,11.33334 19.46666,15.46667 4.66667,4.13333 9.73334,7.73333 11.06667,8.26667 3.06667,0.93333 6.66667,-1.33334 18.4,-11.33334 4.8,-4.13333 12.8,-10.53333 17.73334,-14.13333 5.06666,-3.73333 8.8,-7.46667 8.53333,-8.66667 -0.13333,-1.06666 -8,-5.86666 -17.6,-10.53333 -21.86667,-10.93333 -26.4,-11.46667 -40.8,-5.06667 z"
               id="path745" />
          </g>
        </g>
        <g
           id="g1244">
          <path
             inkscape:connector-curvature="0"
             id="path4202"
             d="m -7.07723,162.87429 c 1.3844,0 2.5,-1.1156 2.5,-2.5 v -10 c 0,-1.3844 -1.1156,-2.5 -2.5,-2.5 h -10 c -1.3844,0 -2.5,1.1156 -2.5,2.5 v 10 c 0,1.3844 1.1156,2.5 2.5,2.5 z"
             style="color:#bebebe;display:inline;overflow:visible;visibility:visible;opacity:1;fill:url(#linearGradient4256);fill-opacity:1.0;fill-rule:nonzero;stroke:none;stroke-width:2;marker:none;enable-background:accumulate" />
          <g
             id="g759"
             transform="matrix(0.05509735,0,0,0.05506566,-49.675579,149.31698)"
             style="fill:#ffffff;fill-opacity:1">
            <path
               id="path755"
               d="m 663.1058,16.908592 -15.33333,4.666667 -15.73334,-2.8 c -8.53333,-1.466667 -16.66667,-2.666667 -18.13333,-2.666667 -1.6,0 -6.8,6 -15.06667,16.933334 -21.6,28.933335 -24.8,35.733335 -20.4,42.666669 1.33333,2.133333 10.66667,11.733334 20.8,21.466668 20.4,19.599997 20.4,19.599997 15.86667,30.933337 -3.33334,8.53333 -3.33334,14.66666 0,21.2 2.8,5.73333 10.93333,13.06667 15.46666,14.26667 3.33334,0.8 20.00001,-6.4 28.80001,-12.53334 8.4,-5.86667 18.4,-16 18.4,-18.66667 0,-1.2 -6.26667,-8.26666 -14,-15.6 l -14.13334,-13.33333 1.86667,-6.000001 c 1.06667,-3.333333 3.2,-9.2 4.8,-13.066667 3.33333,-8.266667 3.6,-13.333334 0.93333,-17.066668 -1.2,-1.6 -10.26666,-6 -23.46667,-11.2 -11.86666,-4.533334 -21.06666,-8.800001 -20.4,-9.466667 0.53334,-0.533334 7.06667,-1.333334 14.4,-1.866667 12.66667,-0.666667 13.86667,-0.533333 25.20001,3.733333 6.8,2.400001 12.53333,5.466667 13.46666,6.933334 1.46667,2.266667 0.93334,6 -2.8,22.533335 -3.06666,13.6 -4.13333,20.400001 -3.2,21.466667 1.6,2.000001 14.4,4.666671 22,4.666671 7.73334,0 20.4,-2.66667 22,-4.666671 0.93334,-1.2 0.13334,-7.466667 -3.2,-21.466667 -3.73333,-16.533335 -4.26666,-20.266668 -2.8,-22.533335 0.93334,-1.466667 6.66667,-4.533333 13.46667,-6.933334 11.33334,-4.266666 12.53334,-4.4 25.2,-3.733333 7.33334,0.533333 13.86667,1.333333 14.4,1.866667 0.53334,0.533333 -8.4,4.8 -20,9.333333 -11.6,4.533334 -22.13333,9.600001 -23.33333,11.066668 -3.46667,4 -2.93334,8.266667 2.53333,22.933334 l 4.93334,13.199998 -14.26667,13.46667 c -7.86667,7.46667 -14.26667,14.4 -14.26667,15.6 0,4.4 17.6,19.06667 30.8,25.73334 14.53334,7.33333 16.8,7.33333 24.53334,0.53333 9.86666,-8.53333 12.13333,-18.13334 7.33333,-30.66667 -1.46667,-3.86667 -2.66667,-8.4 -2.66667,-10 0,-1.86667 5.86667,-8.53333 18.53334,-20.666667 10.13333,-9.733334 19.46667,-19.333335 20.8,-21.333335 4.4,-7.066667 0.53333,-15.333334 -19.86667,-42.266669 -14.93333,-19.600001 -12.4,-18.400001 -32.53333,-14.933334 l -16.93334,2.933334 -15.86667,-4.8 c -8.8,-2.533334 -17.46666,-4.666667 -19.33333,-4.533334 -1.86667,0 -10.4,2.133333 -18.8,4.666667 z"
               inkscape:connector-curvature="0"
               style="fill:#ffffff;fill-opacity:1;stroke:none;stroke-width:0.13333334" />
            <path
               id="path757"
               d="m 666.97247,157.84193 c -14.66667,6.66667 -27.86667,14.26667 -27.86667,16.26667 0,0.93333 4.93333,5.33333 11.06667,9.73333 6,4.4 14.8,11.33334 19.46666,15.46667 4.66667,4.13333 9.73334,7.73333 11.06667,8.26667 3.06667,0.93333 6.66667,-1.33334 18.4,-11.33334 4.8,-4.13333 12.8,-10.53333 17.73334,-14.13333 5.06666,-3.73333 8.8,-7.46667 8.53333,-8.66667 -0.13333,-1.06666 -8,-5.86666 -17.6,-10.53333 -21.86667,-10.93333 -26.4,-11.46667 -40.8,-5.06667 z"
               inkscape:connector-curvature="0"
               style="fill:#ffffff;fill-opacity:1;stroke:none;stroke-width:0.13333334" />
          </g>
        </g>
      </g>
    </g>
    <g
       transform="translate(436.07723,-7.374287)"
       inkscape:groupmode="layer"
       id="layer6-6"
       inkscape:label="Symbols"
       style="display:inline" />
  </g>
  <g
     sodipodi:insensitive="true"
     style="display:inline"
     inkscape:label="Border"
     id="layer3"
     inkscape:groupmode="layer"
     transform="translate(-0.5,1)">
    <path
       inkscape:connector-curvature="0"
       id="rect4099"
       d="m 422,101 c -2.77,0 -5,2.23 -5,5 v 12 c 0,2.77 2.23,5 5,5 h 12 c 2.77,0 5,-2.23 5,-5 v -12 c 0,-2.77 -2.23,-5 -5,-5 z m 0,1 h 12 c 2.2333,0 4,1.7667 4,4 v 12 c 0,2.2333 -1.7667,4 -4,4 h -12 c -2.2333,0 -4,-1.7667 -4,-4 v -12 c 0,-2.2333 1.7667,-4 4,-4 z"
       style="color:#bebebe;display:inline;overflow:visible;visibility:visible;opacity:0.41000001;fill:#000000;fill-opacity:1;fill-rule:nonzero;stroke:none;stroke-width:0;marker:none;enable-background:accumulate" />
    <path
       inkscape:connector-curvature="0"
       id="rect4151"
       d="m 424,53 c -3.878,0 -7,3.122 -7,7 v 16 c 0,3.878 3.122,7 7,7 h 16 c 3.878,0 7,-3.122 7,-7 V 60 c 0,-3.878 -3.122,-7 -7,-7 z m 0,1 h 16 c 3.3413,0 6,2.658703 6,6 v 16 c 0,3.341297 -2.6587,6 -6,6 h -16 c -3.3413,0 -6,-2.658703 -6,-6 V 60 c 0,-3.341297 2.6587,-6 6,-6 z"
       style="color:#bebebe;display:inline;overflow:visible;visibility:visible;opacity:0.41000001;fill:#000000;fill-opacity:1;fill-rule:nonzero;stroke:none;stroke-width:0;marker:none;enable-background:accumulate" />
    <path
       inkscape:connector-curvature="0"
       id="rect4095"
       d="m 419,140 c -1.662,0 -3,1.338 -3,3 v 10 c 0,1.662 1.338,3 3,3 h 10 c 1.662,0 3,-1.338 3,-3 v -10 c 0,-1.662 -1.338,-3 -3,-3 z m 0,1 h 10 c 1.1253,0 2,0.8747 2,2 v 10 c 0,1.1253 -0.8747,2 -2,2 h -10 c -1.1253,0 -2,-0.8747 -2,-2 v -10 c 0,-1.1253 0.8747,-2 2,-2 z"
       style="color:#bebebe;display:inline;overflow:visible;visibility:visible;opacity:0.41000001;fill:#000000;fill-opacity:1;fill-rule:nonzero;stroke:none;stroke-width:0;marker:none;enable-background:accumulate" />
    <path
       inkscape:connector-curvature="0"
       id="rect4783"
       d="m 300,223 c -4.986,0 -9,4.014 -9,9 v 24 c 0,4.986 4.014,9 9,9 h 24 c 4.986,0 9,-4.014 9,-9 v -24 c 0,-4.986 -4.014,-9 -9,-9 z m 0,1 h 24 c 4.4493,0 8,3.5507 8,8 v 24 c 0,4.4493 -3.5507,8 -8,8 h -24 c -4.4493,0 -8,-3.5507 -8,-8 v -24 c 0,-4.4493 3.5507,-8 8,-8 z"
       style="color:#bebebe;display:inline;overflow:visible;visibility:visible;opacity:0.41000001;fill:#000000;fill-opacity:1;fill-rule:nonzero;stroke:none;stroke-width:0;marker:none;enable-background:accumulate" />
    <path
       inkscape:connector-curvature="0"
       id="rect4515"
       d="m 302.5,142 c -6.925,0 -12.5,5.575 -12.5,12.5 v 35 c 0,6.925 5.575,12.5 12.5,12.5 h 35 c 6.925,0 12.5,-5.575 12.5,-12.5 v -35 c 0,-6.925 -5.575,-12.5 -12.5,-12.5 z m 0,1 h 35 c 6.3883,0 11.5,5.1117 11.5,11.5 v 35 c 0,6.3883 -5.1117,11.5 -11.5,11.5 h -35 c -6.3883,0 -11.5,-5.1117 -11.5,-11.5 v -35 c 0,-6.3883 5.1117,-11.5 11.5,-11.5 z"
       style="color:#bebebe;display:inline;overflow:visible;visibility:visible;opacity:0.41000001;fill:#000000;fill-opacity:1;fill-rule:nonzero;stroke:none;stroke-width:0;marker:none;enable-background:accumulate" />
    <path
       inkscape:connector-curvature="0"
       id="rect4511"
       d="m 310,32 c -9.972,0 -18,8.028 -18,18 v 52 c 0,9.972 8.028,18 18,18 h 52 c 9.972,0 18,-8.028 18,-18 V 50 c 0,-9.972 -8.028,-18 -18,-18 z m 0,1 h 52 c 9.4353,0 17,7.564703 17,17 v 52 c 0,9.4353 -7.5647,17 -17,17 h -52 c -9.4353,0 -17,-7.5647 -17,-17 V 50 c 0,-9.435297 7.5647,-17 17,-17 z"
       style="color:#bebebe;display:inline;overflow:visible;visibility:visible;opacity:0.41000001;fill:#000000;fill-opacity:1;fill-rule:nonzero;stroke:none;stroke-width:0;marker:none;enable-background:accumulate" />
    <path
       inkscape:connector-curvature="0"
       id="rect4040"
       d="M 84,46 C 56.3,46 34,68.3 34,96 v 120 c 0,27.7 22.3,50 50,50 h 120 c 27.7,0 50,-22.3 50,-50 V 96 C 254,68.3 231.7,46 204,46 Z m 0,1 h 120 c 27.1633,0 49,21.836703 49,49 v 120 c 0,27.1633 -21.8367,49 -49,49 H 84 C 56.836703,265 35,243.1633 35,216 V 96 C 35,68.836703 56.836703,47 84,47 Z"
       style="color:#bebebe;display:inline;overflow:visible;visibility:visible;opacity:0.41000001;fill:#000000;fill-opacity:1;fill-rule:nonzero;stroke:none;stroke-width:0;marker:none;enable-background:accumulate" />
  </g>
</svg>
