<?xml version="1.0" encoding="UTF-8" standalone="no"?>
<!-- Created with Inkscape (http://www.inkscape.org/) -->

<svg
   xmlns:dc="http://purl.org/dc/elements/1.1/"
   xmlns:cc="http://creativecommons.org/ns#"
   xmlns:rdf="http://www.w3.org/1999/02/22-rdf-syntax-ns#"
   xmlns:svg="http://www.w3.org/2000/svg"
   xmlns="http://www.w3.org/2000/svg"
   xmlns:xlink="http://www.w3.org/1999/xlink"
   xmlns:sodipodi="http://sodipodi.sourceforge.net/DTD/sodipodi-0.dtd"
   xmlns:inkscape="http://www.inkscape.org/namespaces/inkscape"
   inkscape:export-ydpi="90.000000"
   inkscape:export-xdpi="90.000000"
   width="480"
   height="300"
   id="svg11300"
   sodipodi:version="0.32"
   inkscape:version="0.92.5 (2060ec1f9f, 2020-04-08)"
   sodipodi:docname="brave-nightly-assets.svg"
   inkscape:output_extension="org.inkscape.output.svg.inkscape"
   version="1.0"
   style="display:inline;enable-background:new"
   inkscape:export-filename="/home/sam/moka-next-template.png">
  <sodipodi:namedview
     stroke="#ef2929"
     fill="#f57900"
     id="base"
     pagecolor="#777777"
     bordercolor="#666666"
     borderopacity="0.25490196"
     inkscape:pageopacity="0"
     inkscape:pageshadow="2"
     inkscape:zoom="1.0277778"
     inkscape:cx="139.39825"
     inkscape:cy="162.37932"
     inkscape:current-layer="layer2-1"
     showgrid="false"
     inkscape:grid-bbox="true"
     inkscape:document-units="px"
     inkscape:showpageshadow="false"
     inkscape:window-width="1366"
     inkscape:window-height="741"
     inkscape:window-x="0"
     inkscape:window-y="0"
     width="400px"
     height="300px"
     inkscape:snap-nodes="true"
     inkscape:snap-bbox="true"
     gridtolerance="10000"
     inkscape:object-nodes="true"
     inkscape:snap-grids="true"
     showguides="true"
     inkscape:guide-bbox="true"
     inkscape:window-maximized="1"
     inkscape:bbox-nodes="true"
     inkscape:bbox-paths="true"
     inkscape:snap-bbox-edge-midpoints="true"
     inkscape:snap-bbox-midpoints="true">
    <inkscape:grid
       spacingy="1"
       spacingx="1"
       id="grid5883"
       type="xygrid"
       enabled="true"
       visible="true"
       empspacing="4"
       snapvisiblegridlinesonly="true"
       dotted="false"
       color="#000000"
       opacity="0.1254902"
       empcolor="#203ef3"
       empopacity="0.36470588"
       originx="0"
       originy="0" />
    <inkscape:grid
       type="xygrid"
       id="grid11592"
       empspacing="8"
       visible="true"
       enabled="false"
       spacingx="0.5"
       spacingy="0.5"
       color="#ff0000"
       opacity="0.1254902"
       empcolor="#ff0000"
       empopacity="0.25098039"
       snapvisiblegridlinesonly="true"
       dotted="true"
       originx="0"
       originy="0" />
  </sodipodi:namedview>
  <defs
     id="defs3">
    <linearGradient
       inkscape:collect="always"
       xlink:href="#linearGradient6464-1"
       id="linearGradient4254"
       x1="35"
       y1="156"
       x2="253"
       y2="156"
       gradientUnits="userSpaceOnUse"
       gradientTransform="rotate(90,144,156)" />
    <linearGradient
       inkscape:collect="always"
       xlink:href="#linearGradient6464-1"
       id="linearGradient4256"
       x1="417"
       y1="148"
       x2="431"
       y2="148"
       gradientUnits="userSpaceOnUse"
       gradientTransform="rotate(90,424,148)" />
    <linearGradient
       inkscape:collect="always"
       xlink:href="#linearGradient6464-1"
       id="linearGradient4260"
       x1="418"
       y1="68"
       x2="446"
       y2="68"
       gradientUnits="userSpaceOnUse"
       gradientTransform="rotate(90,432,68)" />
    <linearGradient
       inkscape:collect="always"
       xlink:href="#linearGradient6464-1"
       id="linearGradient4262"
       x1="292"
       y1="244"
       x2="332"
       y2="244"
       gradientUnits="userSpaceOnUse"
       gradientTransform="rotate(90,312,244)" />
    <linearGradient
       inkscape:collect="always"
       xlink:href="#linearGradient6464-1"
       id="linearGradient4264"
       x1="293"
       y1="76"
       x2="379"
       y2="76"
       gradientUnits="userSpaceOnUse"
       gradientTransform="rotate(90,336.25,75.75)" />
    <linearGradient
       inkscape:collect="always"
       xlink:href="#linearGradient6464-1"
       id="linearGradient4266"
       x1="291"
       y1="172"
       x2="349"
       y2="172"
       gradientUnits="userSpaceOnUse"
       gradientTransform="rotate(90,320,172)" />
    <linearGradient
       inkscape:collect="always"
       xlink:href="#linearGradient6464-1"
       id="linearGradient3870"
       gradientUnits="userSpaceOnUse"
       x1="418"
       y1="112"
       x2="438"
       y2="112"
       gradientTransform="rotate(90,428,112)" />
    <linearGradient
       id="linearGradient6464-1">
      <stop
         style="stop-color:#483164;stop-opacity:1"
         offset="0"
         id="stop6466-7" />
      <stop
         style="stop-color:#332b51;stop-opacity:1"
         offset="1"
         id="stop6468-6" />
    </linearGradient>
    <linearGradient
       id="outerBackgroundGradient">
      <stop
         id="stop3864-8-6"
         offset="0"
         style="stop-color:#fd5d38;stop-opacity:1" />
      <stop
         id="stop3866-9-1"
         offset="1"
         style="stop-color:#f69d31;stop-opacity:1" />
    </linearGradient>
    <linearGradient
       id="outerBackgroundGradient-5">
      <stop
         id="stop3864-8-6-7"
         offset="0"
         style="stop-color:#f2f2f2;stop-opacity:1;" />
      <stop
         id="stop3866-9-1-73"
         offset="1"
         style="stop-color:#ffffff;stop-opacity:1;" />
    </linearGradient>
  </defs>
  <metadata
     id="metadata4">
    <rdf:RDF>
      <cc:Work
         rdf:about="">
        <dc:format>image/svg+xml</dc:format>
        <dc:type
           rdf:resource="http://purl.org/dc/dcmitype/StillImage" />
        <dc:creator>
          <cc:Agent>
            <dc:title>Sam Hewitt</dc:title>
          </cc:Agent>
        </dc:creator>
        <dc:source />
        <cc:license
           rdf:resource="" />
        <dc:title />
        <dc:subject>
          <rdf:Bag />
        </dc:subject>
        <dc:date />
        <dc:rights>
          <cc:Agent>
            <dc:title />
          </cc:Agent>
        </dc:rights>
        <dc:publisher>
          <cc:Agent>
            <dc:title />
          </cc:Agent>
        </dc:publisher>
        <dc:identifier />
        <dc:relation />
        <dc:language />
        <dc:coverage />
        <dc:description />
        <dc:contributor>
          <cc:Agent>
            <dc:title />
          </cc:Agent>
        </dc:contributor>
      </cc:Work>
      <cc:Work
         rdf:about="">
        <dc:format>image/svg+xml</dc:format>
        <dc:type
           rdf:resource="http://purl.org/dc/dcmitype/StillImage" />
      </cc:Work>
    </rdf:RDF>
  </metadata>
  <g
     style="display:inline"
     inkscape:groupmode="layer"
     inkscape:label="Icon"
     id="layer1">
    <g
       inkscape:groupmode="layer"
       id="layer6"
       inkscape:label="Symbols"
       style="display:inline;opacity:1">
      <g
         style="display:inline;opacity:1"
         inkscape:label="Background"
         id="layer2-1"
         inkscape:groupmode="layer"
         transform="translate(436.07723,-7.374287)">
        <g
           id="g833">
          <g
             id="g646">
            <path
               style="display:inline;enable-background:accumulate;opacity:1;color:#bebebe;overflow:visible;visibility:visible;fill:url(#linearGradient4254);fill-opacity:1;fill-rule:nonzero;stroke:none;stroke-width:2;marker:none"
               d="m 204,265.5 c 27.43126,0 49.5,-22.06873 49.5,-49.5 V 96 C 253.5,68.56873 231.43126,46.5 204,46.5 H 84 C 56.56873,46.5 34.5,68.56873 34.5,96 v 120 c 0,27.43127 22.06873,49.5 49.5,49.5 z"
               id="path4200"
               inkscape:connector-curvature="0"
               transform="translate(-436.07723,7.374287)" />
            <g
               style="fill:#ffffff;fill-opacity:1"
               transform="matrix(0.80442127,0,0,0.80395867,-841.0131,74.937553)"
               id="g160">
              <path
                 style="fill:#ffffff;fill-opacity:1;stroke:none;stroke-width:0.13333334"
                 inkscape:connector-curvature="0"
                 d="m 663.1058,16.908592 -15.33333,4.666667 -15.73334,-2.8 c -8.53333,-1.466667 -16.66667,-2.666667 -18.13333,-2.666667 -1.6,0 -6.8,6 -15.06667,16.933334 -21.6,28.933335 -24.8,35.733335 -20.4,42.666669 1.33333,2.133333 10.66667,11.733334 20.8,21.466668 20.4,19.599997 20.4,19.599997 15.86667,30.933337 -3.33334,8.53333 -3.33334,14.66666 0,21.2 2.8,5.73333 10.93333,13.06667 15.46666,14.26667 3.33334,0.8 20.00001,-6.4 28.80001,-12.53334 8.4,-5.86667 18.4,-16 18.4,-18.66667 0,-1.2 -6.26667,-8.26666 -14,-15.6 l -14.13334,-13.33333 1.86667,-6.000001 c 1.06667,-3.333333 3.2,-9.2 4.8,-13.066667 3.33333,-8.266667 3.6,-13.333334 0.93333,-17.066668 -1.2,-1.6 -10.26666,-6 -23.46667,-11.2 -11.86666,-4.533334 -21.06666,-8.800001 -20.4,-9.466667 0.53334,-0.533334 7.06667,-1.333334 14.4,-1.866667 12.66667,-0.666667 13.86667,-0.533333 25.20001,3.733333 6.8,2.400001 12.53333,5.466667 13.46666,6.933334 1.46667,2.266667 0.93334,6 -2.8,22.533335 -3.06666,13.6 -4.13333,20.400001 -3.2,21.466667 1.6,2.000001 14.4,4.666671 22,4.666671 7.73334,0 20.4,-2.66667 22,-4.666671 0.93334,-1.2 0.13334,-7.466667 -3.2,-21.466667 -3.73333,-16.533335 -4.26666,-20.266668 -2.8,-22.533335 0.93334,-1.466667 6.66667,-4.533333 13.46667,-6.933334 11.33334,-4.266666 12.53334,-4.4 25.2,-3.733333 7.33334,0.533333 13.86667,1.333333 14.4,1.866667 0.53334,0.533333 -8.4,4.8 -20,9.333333 -11.6,4.533334 -22.13333,9.600001 -23.33333,11.066668 -3.46667,4 -2.93334,8.266667 2.53333,22.933334 l 4.93334,13.199998 -14.26667,13.46667 c -7.86667,7.46667 -14.26667,14.4 -14.26667,15.6 0,4.4 17.6,19.06667 30.8,25.73334 14.53334,7.33333 16.8,7.33333 24.53334,0.53333 9.86666,-8.53333 12.13333,-18.13334 7.33333,-30.66667 -1.46667,-3.86667 -2.66667,-8.4 -2.66667,-10 0,-1.86667 5.86667,-8.53333 18.53334,-20.666667 10.13333,-9.733334 19.46667,-19.333335 20.8,-21.333335 4.4,-7.066667 0.53333,-15.333334 -19.86667,-42.266669 -14.93333,-19.600001 -12.4,-18.400001 -32.53333,-14.933334 l -16.93334,2.933334 -15.86667,-4.8 c -8.8,-2.533334 -17.46666,-4.666667 -19.33333,-4.533334 -1.86667,0 -10.4,2.133333 -18.8,4.666667 z"
                 id="path133" />
              <path
                 style="fill:#ffffff;fill-opacity:1;stroke:none;stroke-width:0.13333334"
                 inkscape:connector-curvature="0"
                 d="m 666.97247,157.84193 c -14.66667,6.66667 -27.86667,14.26667 -27.86667,16.26667 0,0.93333 4.93333,5.33333 11.06667,9.73333 6,4.4 14.8,11.33334 19.46666,15.46667 4.66667,4.13333 9.73334,7.73333 11.06667,8.26667 3.06667,0.93333 6.66667,-1.33334 18.4,-11.33334 4.8,-4.13333 12.8,-10.53333 17.73334,-14.13333 5.06666,-3.73333 8.8,-7.46667 8.53333,-8.66667 -0.13333,-1.06666 -8,-5.86666 -17.6,-10.53333 -21.86667,-10.93333 -26.4,-11.46667 -40.8,-5.06667 z"
                 id="path135" />
            </g>
          </g>
          <g
             id="g681">
            <path
               style="display:inline;enable-background:accumulate;opacity:1;color:#bebebe;overflow:visible;visibility:visible;fill:url(#linearGradient4264);fill-opacity:1;fill-rule:nonzero;stroke:none;stroke-width:2;marker:none"
               d="m 362,119 c 9.70255,0 17.5,-7.79745 17.5,-17.5 v -52 C 379.5,39.79745 371.70255,32 362,32 h -52 c -9.70255,0 -17.5,7.79745 -17.5,17.5 v 52 c 0,9.70255 7.79745,17.5 17.5,17.5 z"
               id="path4210"
               inkscape:connector-curvature="0"
               transform="translate(-436.07723,7.374287)" />
            <g
               id="g666"
               transform="matrix(0.31956461,0,0,0.31938084,-318.14764,47.741886)"
               style="fill:#ffffff;fill-opacity:1">
              <path
                 id="path662"
                 d="m 663.1058,16.908592 -15.33333,4.666667 -15.73334,-2.8 c -8.53333,-1.466667 -16.66667,-2.666667 -18.13333,-2.666667 -1.6,0 -6.8,6 -15.06667,16.933334 -21.6,28.933335 -24.8,35.733335 -20.4,42.666669 1.33333,2.133333 10.66667,11.733334 20.8,21.466668 20.4,19.599997 20.4,19.599997 15.86667,30.933337 -3.33334,8.53333 -3.33334,14.66666 0,21.2 2.8,5.73333 10.93333,13.06667 15.46666,14.26667 3.33334,0.8 20.00001,-6.4 28.80001,-12.53334 8.4,-5.86667 18.4,-16 18.4,-18.66667 0,-1.2 -6.26667,-8.26666 -14,-15.6 l -14.13334,-13.33333 1.86667,-6.000001 c 1.06667,-3.333333 3.2,-9.2 4.8,-13.066667 3.33333,-8.266667 3.6,-13.333334 0.93333,-17.066668 -1.2,-1.6 -10.26666,-6 -23.46667,-11.2 -11.86666,-4.533334 -21.06666,-8.800001 -20.4,-9.466667 0.53334,-0.533334 7.06667,-1.333334 14.4,-1.866667 12.66667,-0.666667 13.86667,-0.533333 25.20001,3.733333 6.8,2.400001 12.53333,5.466667 13.46666,6.933334 1.46667,2.266667 0.93334,6 -2.8,22.533335 -3.06666,13.6 -4.13333,20.400001 -3.2,21.466667 1.6,2.000001 14.4,4.666671 22,4.666671 7.73334,0 20.4,-2.66667 22,-4.666671 0.93334,-1.2 0.13334,-7.466667 -3.2,-21.466667 -3.73333,-16.533335 -4.26666,-20.266668 -2.8,-22.533335 0.93334,-1.466667 6.66667,-4.533333 13.46667,-6.933334 11.33334,-4.266666 12.53334,-4.4 25.2,-3.733333 7.33334,0.533333 13.86667,1.333333 14.4,1.866667 0.53334,0.533333 -8.4,4.8 -20,9.333333 -11.6,4.533334 -22.13333,9.600001 -23.33333,11.066668 -3.46667,4 -2.93334,8.266667 2.53333,22.933334 l 4.93334,13.199998 -14.26667,13.46667 c -7.86667,7.46667 -14.26667,14.4 -14.26667,15.6 0,4.4 17.6,19.06667 30.8,25.73334 14.53334,7.33333 16.8,7.33333 24.53334,0.53333 9.86666,-8.53333 12.13333,-18.13334 7.33333,-30.66667 -1.46667,-3.86667 -2.66667,-8.4 -2.66667,-10 0,-1.86667 5.86667,-8.53333 18.53334,-20.666667 10.13333,-9.733334 19.46667,-19.333335 20.8,-21.333335 4.4,-7.066667 0.53333,-15.333334 -19.86667,-42.266669 -14.93333,-19.600001 -12.4,-18.400001 -32.53333,-14.933334 l -16.93334,2.933334 -15.86667,-4.8 c -8.8,-2.533334 -17.46666,-4.666667 -19.33333,-4.533334 -1.86667,0 -10.4,2.133333 -18.8,4.666667 z"
                 inkscape:connector-curvature="0"
                 style="fill:#ffffff;fill-opacity:1;stroke:none;stroke-width:0.13333334" />
              <path
                 id="path664"
                 d="m 666.97247,157.84193 c -14.66667,6.66667 -27.86667,14.26667 -27.86667,16.26667 0,0.93333 4.93333,5.33333 11.06667,9.73333 6,4.4 14.8,11.33334 19.46666,15.46667 4.66667,4.13333 9.73334,7.73333 11.06667,8.26667 3.06667,0.93333 6.66667,-1.33334 18.4,-11.33334 4.8,-4.13333 12.8,-10.53333 17.73334,-14.13333 5.06666,-3.73333 8.8,-7.46667 8.53333,-8.66667 -0.13333,-1.06666 -8,-5.86666 -17.6,-10.53333 -21.86667,-10.93333 -26.4,-11.46667 -40.8,-5.06667 z"
                 inkscape:connector-curvature="0"
                 style="fill:#ffffff;fill-opacity:1;stroke:none;stroke-width:0.13333334" />
            </g>
          </g>
          <g
             id="g720">
            <path
               style="display:inline;enable-background:accumulate;opacity:1;color:#bebebe;overflow:visible;visibility:visible;fill:url(#linearGradient4266);fill-opacity:1;fill-rule:nonzero;stroke:none;stroke-width:2;marker:none"
               d="m 337.5,201.5 c 6.65502,0 12,-5.34498 12,-12 v -35 c 0,-6.65502 -5.34498,-12 -12,-12 h -35 c -6.65502,0 -12,5.34498 -12,12 v 35 c 0,6.65502 5.34498,12 12,12 z"
               id="path4212"
               inkscape:connector-curvature="0"
               transform="translate(-436.07723,7.374287)" />
            <g
               style="fill:#ffffff;fill-opacity:1"
               transform="matrix(0.21671623,0,0,0.2165916,-263.96406,155.54887)"
               id="g689">
              <path
                 style="fill:#ffffff;fill-opacity:1;stroke:none;stroke-width:0.13333334"
                 inkscape:connector-curvature="0"
                 d="m 663.1058,16.908592 -15.33333,4.666667 -15.73334,-2.8 c -8.53333,-1.466667 -16.66667,-2.666667 -18.13333,-2.666667 -1.6,0 -6.8,6 -15.06667,16.933334 -21.6,28.933335 -24.8,35.733335 -20.4,42.666669 1.33333,2.133333 10.66667,11.733334 20.8,21.466668 20.4,19.599997 20.4,19.599997 15.86667,30.933337 -3.33334,8.53333 -3.33334,14.66666 0,21.2 2.8,5.73333 10.93333,13.06667 15.46666,14.26667 3.33334,0.8 20.00001,-6.4 28.80001,-12.53334 8.4,-5.86667 18.4,-16 18.4,-18.66667 0,-1.2 -6.26667,-8.26666 -14,-15.6 l -14.13334,-13.33333 1.86667,-6.000001 c 1.06667,-3.333333 3.2,-9.2 4.8,-13.066667 3.33333,-8.266667 3.6,-13.333334 0.93333,-17.066668 -1.2,-1.6 -10.26666,-6 -23.46667,-11.2 -11.86666,-4.533334 -21.06666,-8.800001 -20.4,-9.466667 0.53334,-0.533334 7.06667,-1.333334 14.4,-1.866667 12.66667,-0.666667 13.86667,-0.533333 25.20001,3.733333 6.8,2.400001 12.53333,5.466667 13.46666,6.933334 1.46667,2.266667 0.93334,6 -2.8,22.533335 -3.06666,13.6 -4.13333,20.400001 -3.2,21.466667 1.6,2.000001 14.4,4.666671 22,4.666671 7.73334,0 20.4,-2.66667 22,-4.666671 0.93334,-1.2 0.13334,-7.466667 -3.2,-21.466667 -3.73333,-16.533335 -4.26666,-20.266668 -2.8,-22.533335 0.93334,-1.466667 6.66667,-4.533333 13.46667,-6.933334 11.33334,-4.266666 12.53334,-4.4 25.2,-3.733333 7.33334,0.533333 13.86667,1.333333 14.4,1.866667 0.53334,0.533333 -8.4,4.8 -20,9.333333 -11.6,4.533334 -22.13333,9.600001 -23.33333,11.066668 -3.46667,4 -2.93334,8.266667 2.53333,22.933334 l 4.93334,13.199998 -14.26667,13.46667 c -7.86667,7.46667 -14.26667,14.4 -14.26667,15.6 0,4.4 17.6,19.06667 30.8,25.73334 14.53334,7.33333 16.8,7.33333 24.53334,0.53333 9.86666,-8.53333 12.13333,-18.13334 7.33333,-30.66667 -1.46667,-3.86667 -2.66667,-8.4 -2.66667,-10 0,-1.86667 5.86667,-8.53333 18.53334,-20.666667 10.13333,-9.733334 19.46667,-19.333335 20.8,-21.333335 4.4,-7.066667 0.53333,-15.333334 -19.86667,-42.266669 -14.93333,-19.600001 -12.4,-18.400001 -32.53333,-14.933334 l -16.93334,2.933334 -15.86667,-4.8 c -8.8,-2.533334 -17.46666,-4.666667 -19.33333,-4.533334 -1.86667,0 -10.4,2.133333 -18.8,4.666667 z"
                 id="path685" />
              <path
                 style="fill:#ffffff;fill-opacity:1;stroke:none;stroke-width:0.13333334"
                 inkscape:connector-curvature="0"
                 d="m 666.97247,157.84193 c -14.66667,6.66667 -27.86667,14.26667 -27.86667,16.26667 0,0.93333 4.93333,5.33333 11.06667,9.73333 6,4.4 14.8,11.33334 19.46666,15.46667 4.66667,4.13333 9.73334,7.73333 11.06667,8.26667 3.06667,0.93333 6.66667,-1.33334 18.4,-11.33334 4.8,-4.13333 12.8,-10.53333 17.73334,-14.13333 5.06666,-3.73333 8.8,-7.46667 8.53333,-8.66667 -0.13333,-1.06666 -8,-5.86666 -17.6,-10.53333 -21.86667,-10.93333 -26.4,-11.46667 -40.8,-5.06667 z"
                 id="path687" />
            </g>
          </g>
          <g
             id="g727">
            <path
               style="display:inline;enable-background:accumulate;opacity:1;color:#bebebe;overflow:visible;visibility:visible;fill:url(#linearGradient4262);fill-opacity:1;fill-rule:nonzero;stroke:none;stroke-width:2;marker:none"
               d="m 324,264.5 c 4.71531,0 8.5,-3.78469 8.5,-8.5 v -24 c 0,-4.71531 -3.78469,-8.5 -8.5,-8.5 h -24 c -4.71531,0 -8.5,3.78469 -8.5,8.5 v 24 c 0,4.71531 3.78469,8.5 8.5,8.5 z"
               id="path4208"
               inkscape:connector-curvature="0"
               transform="translate(-436.07723,7.374287)" />
            <g
               style="fill:#ffffff;fill-opacity:1"
               transform="matrix(0.15059941,0,0,0.15051281,-226.84604,234.81764)"
               id="g701">
              <path
                 style="fill:#ffffff;fill-opacity:1;stroke:none;stroke-width:0.13333334"
                 inkscape:connector-curvature="0"
                 d="m 663.1058,16.908592 -15.33333,4.666667 -15.73334,-2.8 c -8.53333,-1.466667 -16.66667,-2.666667 -18.13333,-2.666667 -1.6,0 -6.8,6 -15.06667,16.933334 -21.6,28.933335 -24.8,35.733335 -20.4,42.666669 1.33333,2.133333 10.66667,11.733334 20.8,21.466668 20.4,19.599997 20.4,19.599997 15.86667,30.933337 -3.33334,8.53333 -3.33334,14.66666 0,21.2 2.8,5.73333 10.93333,13.06667 15.46666,14.26667 3.33334,0.8 20.00001,-6.4 28.80001,-12.53334 8.4,-5.86667 18.4,-16 18.4,-18.66667 0,-1.2 -6.26667,-8.26666 -14,-15.6 l -14.13334,-13.33333 1.86667,-6.000001 c 1.06667,-3.333333 3.2,-9.2 4.8,-13.066667 3.33333,-8.266667 3.6,-13.333334 0.93333,-17.066668 -1.2,-1.6 -10.26666,-6 -23.46667,-11.2 -11.86666,-4.533334 -21.06666,-8.800001 -20.4,-9.466667 0.53334,-0.533334 7.06667,-1.333334 14.4,-1.866667 12.66667,-0.666667 13.86667,-0.533333 25.20001,3.733333 6.8,2.400001 12.53333,5.466667 13.46666,6.933334 1.46667,2.266667 0.93334,6 -2.8,22.533335 -3.06666,13.6 -4.13333,20.400001 -3.2,21.466667 1.6,2.000001 14.4,4.666671 22,4.666671 7.73334,0 20.4,-2.66667 22,-4.666671 0.93334,-1.2 0.13334,-7.466667 -3.2,-21.466667 -3.73333,-16.533335 -4.26666,-20.266668 -2.8,-22.533335 0.93334,-1.466667 6.66667,-4.533333 13.46667,-6.933334 11.33334,-4.266666 12.53334,-4.4 25.2,-3.733333 7.33334,0.533333 13.86667,1.333333 14.4,1.866667 0.53334,0.533333 -8.4,4.8 -20,9.333333 -11.6,4.533334 -22.13333,9.600001 -23.33333,11.066668 -3.46667,4 -2.93334,8.266667 2.53333,22.933334 l 4.93334,13.199998 -14.26667,13.46667 c -7.86667,7.46667 -14.26667,14.4 -14.26667,15.6 0,4.4 17.6,19.06667 30.8,25.73334 14.53334,7.33333 16.8,7.33333 24.53334,0.53333 9.86666,-8.53333 12.13333,-18.13334 7.33333,-30.66667 -1.46667,-3.86667 -2.66667,-8.4 -2.66667,-10 0,-1.86667 5.86667,-8.53333 18.53334,-20.666667 10.13333,-9.733334 19.46667,-19.333335 20.8,-21.333335 4.4,-7.066667 0.53333,-15.333334 -19.86667,-42.266669 -14.93333,-19.600001 -12.4,-18.400001 -32.53333,-14.933334 l -16.93334,2.933334 -15.86667,-4.8 c -8.8,-2.533334 -17.46666,-4.666667 -19.33333,-4.533334 -1.86667,0 -10.4,2.133333 -18.8,4.666667 z"
                 id="path697" />
              <path
                 style="fill:#ffffff;fill-opacity:1;stroke:none;stroke-width:0.13333334"
                 inkscape:connector-curvature="0"
                 d="m 666.97247,157.84193 c -14.66667,6.66667 -27.86667,14.26667 -27.86667,16.26667 0,0.93333 4.93333,5.33333 11.06667,9.73333 6,4.4 14.8,11.33334 19.46666,15.46667 4.66667,4.13333 9.73334,7.73333 11.06667,8.26667 3.06667,0.93333 6.66667,-1.33334 18.4,-11.33334 4.8,-4.13333 12.8,-10.53333 17.73334,-14.13333 5.06666,-3.73333 8.8,-7.46667 8.53333,-8.66667 -0.13333,-1.06666 -8,-5.86666 -17.6,-10.53333 -21.86667,-10.93333 -26.4,-11.46667 -40.8,-5.06667 z"
                 id="path699" />
            </g>
          </g>
          <g
             id="g789">
            <path
               style="display:inline;enable-background:accumulate;opacity:1;color:#bebebe;overflow:visible;visibility:visible;fill:url(#linearGradient3870);fill-opacity:1;fill-rule:nonzero;stroke:none;stroke-width:2;marker:none"
               d="m 434,122.5 c 2.49699,0 4.5,-2.00301 4.5,-4.5 v -12 c 0,-2.49699 -2.00301,-4.5 -4.5,-4.5 h -12 c -2.49699,0 -4.5,2.00301 -4.5,4.5 v 12 c 0,2.49699 2.00301,4.5 4.5,4.5 z"
               id="path4204"
               inkscape:connector-curvature="0"
               transform="translate(-436.07723,7.374287)" />
            <g
               id="g735"
               transform="matrix(0.07713628,0,0,0.07709193,-60.714912,110.89405)"
               style="fill:#ffffff;fill-opacity:1">
              <path
                 id="path731"
                 d="m 663.1058,16.908592 -15.33333,4.666667 -15.73334,-2.8 c -8.53333,-1.466667 -16.66667,-2.666667 -18.13333,-2.666667 -1.6,0 -6.8,6 -15.06667,16.933334 -21.6,28.933335 -24.8,35.733335 -20.4,42.666669 1.33333,2.133333 10.66667,11.733334 20.8,21.466668 20.4,19.599997 20.4,19.599997 15.86667,30.933337 -3.33334,8.53333 -3.33334,14.66666 0,21.2 2.8,5.73333 10.93333,13.06667 15.46666,14.26667 3.33334,0.8 20.00001,-6.4 28.80001,-12.53334 8.4,-5.86667 18.4,-16 18.4,-18.66667 0,-1.2 -6.26667,-8.26666 -14,-15.6 l -14.13334,-13.33333 1.86667,-6.000001 c 1.06667,-3.333333 3.2,-9.2 4.8,-13.066667 3.33333,-8.266667 3.6,-13.333334 0.93333,-17.066668 -1.2,-1.6 -10.26666,-6 -23.46667,-11.2 -11.86666,-4.533334 -21.06666,-8.800001 -20.4,-9.466667 0.53334,-0.533334 7.06667,-1.333334 14.4,-1.866667 12.66667,-0.666667 13.86667,-0.533333 25.20001,3.733333 6.8,2.400001 12.53333,5.466667 13.46666,6.933334 1.46667,2.266667 0.93334,6 -2.8,22.533335 -3.06666,13.6 -4.13333,20.400001 -3.2,21.466667 1.6,2.000001 14.4,4.666671 22,4.666671 7.73334,0 20.4,-2.66667 22,-4.666671 0.93334,-1.2 0.13334,-7.466667 -3.2,-21.466667 -3.73333,-16.533335 -4.26666,-20.266668 -2.8,-22.533335 0.93334,-1.466667 6.66667,-4.533333 13.46667,-6.933334 11.33334,-4.266666 12.53334,-4.4 25.2,-3.733333 7.33334,0.533333 13.86667,1.333333 14.4,1.866667 0.53334,0.533333 -8.4,4.8 -20,9.333333 -11.6,4.533334 -22.13333,9.600001 -23.33333,11.066668 -3.46667,4 -2.93334,8.266667 2.53333,22.933334 l 4.93334,13.199998 -14.26667,13.46667 c -7.86667,7.46667 -14.26667,14.4 -14.26667,15.6 0,4.4 17.6,19.06667 30.8,25.73334 14.53334,7.33333 16.8,7.33333 24.53334,0.53333 9.86666,-8.53333 12.13333,-18.13334 7.33333,-30.66667 -1.46667,-3.86667 -2.66667,-8.4 -2.66667,-10 0,-1.86667 5.86667,-8.53333 18.53334,-20.666667 10.13333,-9.733334 19.46667,-19.333335 20.8,-21.333335 4.4,-7.066667 0.53333,-15.333334 -19.86667,-42.266669 -14.93333,-19.600001 -12.4,-18.400001 -32.53333,-14.933334 l -16.93334,2.933334 -15.86667,-4.8 c -8.8,-2.533334 -17.46666,-4.666667 -19.33333,-4.533334 -1.86667,0 -10.4,2.133333 -18.8,4.666667 z"
                 inkscape:connector-curvature="0"
                 style="fill:#ffffff;fill-opacity:1;stroke:none;stroke-width:0.13333334" />
              <path
                 id="path733"
                 d="m 666.97247,157.84193 c -14.66667,6.66667 -27.86667,14.26667 -27.86667,16.26667 0,0.93333 4.93333,5.33333 11.06667,9.73333 6,4.4 14.8,11.33334 19.46666,15.46667 4.66667,4.13333 9.73334,7.73333 11.06667,8.26667 3.06667,0.93333 6.66667,-1.33334 18.4,-11.33334 4.8,-4.13333 12.8,-10.53333 17.73334,-14.13333 5.06666,-3.73333 8.8,-7.46667 8.53333,-8.66667 -0.13333,-1.06666 -8,-5.86666 -17.6,-10.53333 -21.86667,-10.93333 -26.4,-11.46667 -40.8,-5.06667 z"
                 inkscape:connector-curvature="0"
                 style="fill:#ffffff;fill-opacity:1;stroke:none;stroke-width:0.13333334" />
            </g>
          </g>
          <g
             id="g782">
            <path
               style="display:inline;enable-background:accumulate;opacity:1;color:#bebebe;overflow:visible;visibility:visible;fill:url(#linearGradient4260);fill-opacity:1;fill-rule:nonzero;stroke:none;stroke-width:2;marker:none"
               d="m 440,82.5 c 3.60654,0 6.5,-2.89346 6.5,-6.5 V 60 c 0,-3.60654 -2.89346,-6.5 -6.5,-6.5 h -16 c -3.60654,0 -6.5,2.89346 -6.5,6.5 v 16 c 0,3.60654 2.89346,6.5 6.5,6.5 z"
               id="path4206"
               inkscape:connector-curvature="0"
               transform="translate(-436.07723,7.374287)" />
            <g
               id="g747"
               transform="matrix(0.10652153,0,0,0.10646028,-76.767362,63.663487)"
               style="fill:#ffffff;fill-opacity:1">
              <path
                 id="path743"
                 d="m 663.1058,16.908592 -15.33333,4.666667 -15.73334,-2.8 c -8.53333,-1.466667 -16.66667,-2.666667 -18.13333,-2.666667 -1.6,0 -6.8,6 -15.06667,16.933334 -21.6,28.933335 -24.8,35.733335 -20.4,42.666669 1.33333,2.133333 10.66667,11.733334 20.8,21.466668 20.4,19.599997 20.4,19.599997 15.86667,30.933337 -3.33334,8.53333 -3.33334,14.66666 0,21.2 2.8,5.73333 10.93333,13.06667 15.46666,14.26667 3.33334,0.8 20.00001,-6.4 28.80001,-12.53334 8.4,-5.86667 18.4,-16 18.4,-18.66667 0,-1.2 -6.26667,-8.26666 -14,-15.6 l -14.13334,-13.33333 1.86667,-6.000001 c 1.06667,-3.333333 3.2,-9.2 4.8,-13.066667 3.33333,-8.266667 3.6,-13.333334 0.93333,-17.066668 -1.2,-1.6 -10.26666,-6 -23.46667,-11.2 -11.86666,-4.533334 -21.06666,-8.800001 -20.4,-9.466667 0.53334,-0.533334 7.06667,-1.333334 14.4,-1.866667 12.66667,-0.666667 13.86667,-0.533333 25.20001,3.733333 6.8,2.400001 12.53333,5.466667 13.46666,6.933334 1.46667,2.266667 0.93334,6 -2.8,22.533335 -3.06666,13.6 -4.13333,20.400001 -3.2,21.466667 1.6,2.000001 14.4,4.666671 22,4.666671 7.73334,0 20.4,-2.66667 22,-4.666671 0.93334,-1.2 0.13334,-7.466667 -3.2,-21.466667 -3.73333,-16.533335 -4.26666,-20.266668 -2.8,-22.533335 0.93334,-1.466667 6.66667,-4.533333 13.46667,-6.933334 11.33334,-4.266666 12.53334,-4.4 25.2,-3.733333 7.33334,0.533333 13.86667,1.333333 14.4,1.866667 0.53334,0.533333 -8.4,4.8 -20,9.333333 -11.6,4.533334 -22.13333,9.600001 -23.33333,11.066668 -3.46667,4 -2.93334,8.266667 2.53333,22.933334 l 4.93334,13.199998 -14.26667,13.46667 c -7.86667,7.46667 -14.26667,14.4 -14.26667,15.6 0,4.4 17.6,19.06667 30.8,25.73334 14.53334,7.33333 16.8,7.33333 24.53334,0.53333 9.86666,-8.53333 12.13333,-18.13334 7.33333,-30.66667 -1.46667,-3.86667 -2.66667,-8.4 -2.66667,-10 0,-1.86667 5.86667,-8.53333 18.53334,-20.666667 10.13333,-9.733334 19.46667,-19.333335 20.8,-21.333335 4.4,-7.066667 0.53333,-15.333334 -19.86667,-42.266669 -14.93333,-19.600001 -12.4,-18.400001 -32.53333,-14.933334 l -16.93334,2.933334 -15.86667,-4.8 c -8.8,-2.533334 -17.46666,-4.666667 -19.33333,-4.533334 -1.86667,0 -10.4,2.133333 -18.8,4.666667 z"
                 inkscape:connector-curvature="0"
                 style="fill:#ffffff;fill-opacity:1;stroke:none;stroke-width:0.13333334" />
              <path
                 id="path745"
                 d="m 666.97247,157.84193 c -14.66667,6.66667 -27.86667,14.26667 -27.86667,16.26667 0,0.93333 4.93333,5.33333 11.06667,9.73333 6,4.4 14.8,11.33334 19.46666,15.46667 4.66667,4.13333 9.73334,7.73333 11.06667,8.26667 3.06667,0.93333 6.66667,-1.33334 18.4,-11.33334 4.8,-4.13333 12.8,-10.53333 17.73334,-14.13333 5.06666,-3.73333 8.8,-7.46667 8.53333,-8.66667 -0.13333,-1.06666 -8,-5.86666 -17.6,-10.53333 -21.86667,-10.93333 -26.4,-11.46667 -40.8,-5.06667 z"
                 inkscape:connector-curvature="0"
                 style="fill:#ffffff;fill-opacity:1;stroke:none;stroke-width:0.13333334" />
            </g>
          </g>
          <g
             id="g796">
            <path
               style="display:inline;enable-background:accumulate;opacity:1;color:#bebebe;overflow:visible;visibility:visible;fill:url(#linearGradient4256);fill-opacity:1;fill-rule:nonzero;stroke:none;stroke-width:2;marker:none"
               d="m 429,155.5 c 1.3844,0 2.5,-1.1156 2.5,-2.5 v -10 c 0,-1.3844 -1.1156,-2.5 -2.5,-2.5 h -10 c -1.3844,0 -2.5,1.1156 -2.5,2.5 v 10 c 0,1.3844 1.1156,2.5 2.5,2.5 z"
               id="path4202"
               inkscape:connector-curvature="0"
               transform="translate(-436.07723,7.374287)" />
            <g
               style="fill:#ffffff;fill-opacity:1"
               transform="matrix(0.05509735,0,0,0.05506566,-49.675579,149.31698)"
               id="g759">
              <path
                 style="fill:#ffffff;fill-opacity:1;stroke:none;stroke-width:0.13333334"
                 inkscape:connector-curvature="0"
                 d="m 663.1058,16.908592 -15.33333,4.666667 -15.73334,-2.8 c -8.53333,-1.466667 -16.66667,-2.666667 -18.13333,-2.666667 -1.6,0 -6.8,6 -15.06667,16.933334 -21.6,28.933335 -24.8,35.733335 -20.4,42.666669 1.33333,2.133333 10.66667,11.733334 20.8,21.466668 20.4,19.599997 20.4,19.599997 15.86667,30.933337 -3.33334,8.53333 -3.33334,14.66666 0,21.2 2.8,5.73333 10.93333,13.06667 15.46666,14.26667 3.33334,0.8 20.00001,-6.4 28.80001,-12.53334 8.4,-5.86667 18.4,-16 18.4,-18.66667 0,-1.2 -6.26667,-8.26666 -14,-15.6 l -14.13334,-13.33333 1.86667,-6.000001 c 1.06667,-3.333333 3.2,-9.2 4.8,-13.066667 3.33333,-8.266667 3.6,-13.333334 0.93333,-17.066668 -1.2,-1.6 -10.26666,-6 -23.46667,-11.2 -11.86666,-4.533334 -21.06666,-8.800001 -20.4,-9.466667 0.53334,-0.533334 7.06667,-1.333334 14.4,-1.866667 12.66667,-0.666667 13.86667,-0.533333 25.20001,3.733333 6.8,2.400001 12.53333,5.466667 13.46666,6.933334 1.46667,2.266667 0.93334,6 -2.8,22.533335 -3.06666,13.6 -4.13333,20.400001 -3.2,21.466667 1.6,2.000001 14.4,4.666671 22,4.666671 7.73334,0 20.4,-2.66667 22,-4.666671 0.93334,-1.2 0.13334,-7.466667 -3.2,-21.466667 -3.73333,-16.533335 -4.26666,-20.266668 -2.8,-22.533335 0.93334,-1.466667 6.66667,-4.533333 13.46667,-6.933334 11.33334,-4.266666 12.53334,-4.4 25.2,-3.733333 7.33334,0.533333 13.86667,1.333333 14.4,1.866667 0.53334,0.533333 -8.4,4.8 -20,9.333333 -11.6,4.533334 -22.13333,9.600001 -23.33333,11.066668 -3.46667,4 -2.93334,8.266667 2.53333,22.933334 l 4.93334,13.199998 -14.26667,13.46667 c -7.86667,7.46667 -14.26667,14.4 -14.26667,15.6 0,4.4 17.6,19.06667 30.8,25.73334 14.53334,7.33333 16.8,7.33333 24.53334,0.53333 9.86666,-8.53333 12.13333,-18.13334 7.33333,-30.66667 -1.46667,-3.86667 -2.66667,-8.4 -2.66667,-10 0,-1.86667 5.86667,-8.53333 18.53334,-20.666667 10.13333,-9.733334 19.46667,-19.333335 20.8,-21.333335 4.4,-7.066667 0.53333,-15.333334 -19.86667,-42.266669 -14.93333,-19.600001 -12.4,-18.400001 -32.53333,-14.933334 l -16.93334,2.933334 -15.86667,-4.8 c -8.8,-2.533334 -17.46666,-4.666667 -19.33333,-4.533334 -1.86667,0 -10.4,2.133333 -18.8,4.666667 z"
                 id="path755" />
              <path
                 style="fill:#ffffff;fill-opacity:1;stroke:none;stroke-width:0.13333334"
                 inkscape:connector-curvature="0"
                 d="m 666.97247,157.84193 c -14.66667,6.66667 -27.86667,14.26667 -27.86667,16.26667 0,0.93333 4.93333,5.33333 11.06667,9.73333 6,4.4 14.8,11.33334 19.46666,15.46667 4.66667,4.13333 9.73334,7.73333 11.06667,8.26667 3.06667,0.93333 6.66667,-1.33334 18.4,-11.33334 4.8,-4.13333 12.8,-10.53333 17.73334,-14.13333 5.06666,-3.73333 8.8,-7.46667 8.53333,-8.66667 -0.13333,-1.06666 -8,-5.86666 -17.6,-10.53333 -21.86667,-10.93333 -26.4,-11.46667 -40.8,-5.06667 z"
                 id="path757" />
            </g>
          </g>
        </g>
      </g>
      <g
         style="display:inline"
         inkscape:label="Symbols"
         id="layer6-6"
         inkscape:groupmode="layer"
         transform="translate(436.07723,-7.374287)" />
    </g>
    <g
       inkscape:groupmode="layer"
       id="layer3"
       inkscape:label="Border"
       style="display:inline"
       sodipodi:insensitive="true">
      <path
         style="opacity:0.41;color:#bebebe;fill:#000000;fill-opacity:1;fill-rule:nonzero;stroke:none;stroke-width:0;marker:none;visibility:visible;display:inline;overflow:visible;enable-background:accumulate"
         d="m 422,101 c -2.77,0 -5,2.23 -5,5 l 0,12 c 0,2.77 2.23,5 5,5 l 12,0 c 2.77,0 5,-2.23 5,-5 l 0,-12 c 0,-2.77 -2.23,-5 -5,-5 l -12,0 z m 0,1 12,0 c 2.2333,0 4,1.7667 4,4 l 0,12 c 0,2.2333 -1.7667,4 -4,4 l -12,0 c -2.2333,0 -4,-1.7667 -4,-4 l 0,-12 c 0,-2.2333 1.7667,-4 4,-4 z"
         id="rect4099"
         inkscape:connector-curvature="0" />
      <path
         style="opacity:0.41;color:#bebebe;fill:#000000;fill-opacity:1;fill-rule:nonzero;stroke:none;stroke-width:0;marker:none;visibility:visible;display:inline;overflow:visible;enable-background:accumulate"
         d="m 424,53 c -3.878,0 -7,3.122 -7,7 l 0,16 c 0,3.878 3.122,7 7,7 l 16,0 c 3.878,0 7,-3.122 7,-7 l 0,-16 c 0,-3.878 -3.122,-7 -7,-7 l -16,0 z m 0,1 16,0 c 3.3413,0 6,2.658703 6,6 l 0,16 c 0,3.341297 -2.6587,6 -6,6 l -16,0 c -3.3413,0 -6,-2.658703 -6,-6 l 0,-16 c 0,-3.341297 2.6587,-6 6,-6 z"
         id="rect4151"
         inkscape:connector-curvature="0" />
      <path
         style="opacity:0.41;color:#bebebe;fill:#000000;fill-opacity:1;fill-rule:nonzero;stroke:none;stroke-width:0;marker:none;visibility:visible;display:inline;overflow:visible;enable-background:accumulate"
         d="m 419,140 c -1.662,0 -3,1.338 -3,3 l 0,10 c 0,1.662 1.338,3 3,3 l 10,0 c 1.662,0 3,-1.338 3,-3 l 0,-10 c 0,-1.662 -1.338,-3 -3,-3 l -10,0 z m 0,1 10,0 c 1.1253,0 2,0.8747 2,2 l 0,10 c 0,1.1253 -0.8747,2 -2,2 l -10,0 c -1.1253,0 -2,-0.8747 -2,-2 l 0,-10 c 0,-1.1253 0.8747,-2 2,-2 z"
         id="rect4095"
         inkscape:connector-curvature="0" />
      <path
         style="opacity:0.41;color:#bebebe;fill:#000000;fill-opacity:1;fill-rule:nonzero;stroke:none;stroke-width:0;marker:none;visibility:visible;display:inline;overflow:visible;enable-background:accumulate"
         d="m 300,223 c -4.986,0 -9,4.014 -9,9 l 0,24 c 0,4.986 4.014,9 9,9 l 24,0 c 4.986,0 9,-4.014 9,-9 l 0,-24 c 0,-4.986 -4.014,-9 -9,-9 l -24,0 z m 0,1 24,0 c 4.4493,0 8,3.5507 8,8 l 0,24 c 0,4.4493 -3.5507,8 -8,8 l -24,0 c -4.4493,0 -8,-3.5507 -8,-8 l 0,-24 c 0,-4.4493 3.5507,-8 8,-8 z"
         id="rect4783"
         inkscape:connector-curvature="0" />
      <path
         style="opacity:0.41;color:#bebebe;fill:#000000;fill-opacity:1;fill-rule:nonzero;stroke:none;stroke-width:0;marker:none;visibility:visible;display:inline;overflow:visible;enable-background:accumulate"
         d="m 302.5,142 c -6.925,0 -12.5,5.575 -12.5,12.5 l 0,35 c 0,6.925 5.575,12.5 12.5,12.5 l 35,0 c 6.925,0 12.5,-5.575 12.5,-12.5 l 0,-35 c 0,-6.925 -5.575,-12.5 -12.5,-12.5 l -35,0 z m 0,1 35,0 c 6.3883,0 11.5,5.1117 11.5,11.5 l 0,35 c 0,6.3883 -5.1117,11.5 -11.5,11.5 l -35,0 c -6.3883,0 -11.5,-5.1117 -11.5,-11.5 l 0,-35 c 0,-6.3883 5.1117,-11.5 11.5,-11.5 z"
         id="rect4515"
         inkscape:connector-curvature="0" />
      <path
         style="opacity:0.41;color:#bebebe;fill:#000000;fill-opacity:1;fill-rule:nonzero;stroke:none;stroke-width:0;marker:none;visibility:visible;display:inline;overflow:visible;enable-background:accumulate"
         d="m 310,32 c -9.972,0 -18,8.028 -18,18 l 0,52 c 0,9.972 8.028,18 18,18 l 52,0 c 9.972,0 18,-8.028 18,-18 l 0,-52 c 0,-9.972 -8.028,-18 -18,-18 l -52,0 z m 0,1 52,0 c 9.4353,0 17,7.564703 17,17 l 0,52 c 0,9.4353 -7.5647,17 -17,17 l -52,0 c -9.4353,0 -17,-7.5647 -17,-17 l 0,-52 c 0,-9.435297 7.5647,-17 17,-17 z"
         id="rect4511"
         inkscape:connector-curvature="0" />
      <path
         style="opacity:0.41;color:#bebebe;fill:#000000;fill-opacity:1;fill-rule:nonzero;stroke:none;stroke-width:0;marker:none;visibility:visible;display:inline;overflow:visible;enable-background:accumulate"
         d="M 84,46 C 56.3,46 34,68.3 34,96 l 0,120 c 0,27.7 22.3,50 50,50 l 120,0 c 27.7,0 50,-22.3 50,-50 L 254,96 C 254,68.3 231.7,46 204,46 L 84,46 z m 0,1 120,0 c 27.1633,0 49,21.836703 49,49 l 0,120 c 0,27.1633 -21.8367,49 -49,49 L 84,265 C 56.836703,265 35,243.1633 35,216 L 35,96 C 35,68.836703 56.836703,47 84,47 z"
         id="rect4040"
         inkscape:connector-curvature="0" />
    </g>
  </g>
</svg>
