<?xml version="1.0" encoding="UTF-8" standalone="no"?>
<!-- Created with Inkscape (http://www.inkscape.org/) -->

<svg
   inkscape:export-ydpi="90.000000"
   inkscape:export-xdpi="90.000000"
   width="480"
   height="300"
   id="svg11300"
   sodipodi:version="0.32"
   inkscape:version="1.1.2 (0a00cf5339, 2022-02-04)"
   sodipodi:docname="com.heroicgameslauncher.hgl.svg"
   inkscape:output_extension="org.inkscape.output.svg.inkscape"
   version="1.0"
   style="display:inline;enable-background:new"
   inkscape:export-filename="/home/sam/moka-next-template.png"
   xmlns:inkscape="http://www.inkscape.org/namespaces/inkscape"
   xmlns:sodipodi="http://sodipodi.sourceforge.net/DTD/sodipodi-0.dtd"
   xmlns:xlink="http://www.w3.org/1999/xlink"
   xmlns="http://www.w3.org/2000/svg"
   xmlns:svg="http://www.w3.org/2000/svg"
   xmlns:rdf="http://www.w3.org/1999/02/22-rdf-syntax-ns#"
   xmlns:cc="http://creativecommons.org/ns#"
   xmlns:dc="http://purl.org/dc/elements/1.1/">
  <sodipodi:namedview
     stroke="#ef2929"
     fill="#f57900"
     id="base"
     pagecolor="#777777"
     bordercolor="#666666"
     borderopacity="0.25490196"
     inkscape:pageopacity="0"
     inkscape:pageshadow="2"
     inkscape:zoom="2.8284271"
     inkscape:cx="237.23433"
     inkscape:cy="135.94128"
     inkscape:current-layer="layer7"
     showgrid="true"
     inkscape:grid-bbox="true"
     inkscape:document-units="px"
     inkscape:showpageshadow="false"
     inkscape:window-width="2560"
     inkscape:window-height="1412"
     inkscape:window-x="0"
     inkscape:window-y="0"
     width="400px"
     height="300px"
     inkscape:snap-nodes="true"
     inkscape:snap-bbox="true"
     gridtolerance="10000"
     inkscape:object-nodes="true"
     inkscape:snap-grids="true"
     showguides="true"
     inkscape:guide-bbox="true"
     inkscape:window-maximized="1"
     inkscape:bbox-nodes="true"
     inkscape:bbox-paths="true"
     inkscape:snap-bbox-edge-midpoints="true"
     inkscape:snap-bbox-midpoints="true"
     inkscape:pagecheckerboard="1"
     inkscape:snap-global="true">
    <inkscape:grid
       spacingy="1"
       spacingx="1"
       id="grid5883"
       type="xygrid"
       enabled="true"
       visible="true"
       empspacing="4"
       snapvisiblegridlinesonly="true"
       dotted="false"
       color="#000000"
       opacity="0.1254902"
       empcolor="#203ef3"
       empopacity="0.36470588"
       originx="0"
       originy="0" />
    <inkscape:grid
       type="xygrid"
       id="grid11592"
       empspacing="8"
       visible="true"
       enabled="false"
       spacingx="0.5"
       spacingy="0.5"
       color="#ff0000"
       opacity="0.1254902"
       empcolor="#ff0000"
       empopacity="0.25098039"
       snapvisiblegridlinesonly="true"
       dotted="true"
       originx="0"
       originy="0" />
  </sodipodi:namedview>
  <defs
     id="defs3">
    <linearGradient
       id="linearGradient6298">
      <stop
         style="stop-color:#4c94ff;stop-opacity:1"
         offset="0"
         id="stop6294" />
      <stop
         style="stop-color:#18dfec;stop-opacity:1"
         offset="1"
         id="stop6296" />
    </linearGradient>
    <linearGradient
       inkscape:collect="always"
       xlink:href="#linearGradient6298"
       id="linearGradient11208"
       gradientUnits="userSpaceOnUse"
       gradientTransform="matrix(0,-1,1,0,-12,300)"
       x1="35"
       y1="156"
       x2="253"
       y2="156" />
    <linearGradient
       inkscape:collect="always"
       xlink:href="#linearGradient6298"
       id="linearGradient11210"
       gradientUnits="userSpaceOnUse"
       gradientTransform="rotate(-90,424,148)"
       x1="417"
       y1="148"
       x2="431"
       y2="148" />
    <linearGradient
       inkscape:collect="always"
       xlink:href="#linearGradient6298"
       id="linearGradient11212"
       gradientUnits="userSpaceOnUse"
       gradientTransform="rotate(-90,428,112)"
       x1="418"
       y1="112"
       x2="438"
       y2="112" />
    <linearGradient
       inkscape:collect="always"
       xlink:href="#linearGradient6298"
       id="linearGradient11214"
       gradientUnits="userSpaceOnUse"
       gradientTransform="rotate(-90,432,68)"
       x1="418"
       y1="68"
       x2="446"
       y2="68" />
    <linearGradient
       inkscape:collect="always"
       xlink:href="#linearGradient6298"
       id="linearGradient11216"
       gradientUnits="userSpaceOnUse"
       gradientTransform="rotate(-90,312,244)"
       x1="292"
       y1="244"
       x2="332"
       y2="244" />
    <linearGradient
       inkscape:collect="always"
       xlink:href="#linearGradient6298"
       id="linearGradient11218"
       gradientUnits="userSpaceOnUse"
       gradientTransform="rotate(-90,336,76)"
       x1="293"
       y1="76"
       x2="379"
       y2="76" />
    <linearGradient
       inkscape:collect="always"
       xlink:href="#linearGradient6298"
       id="linearGradient11220"
       gradientUnits="userSpaceOnUse"
       gradientTransform="rotate(-90,320,172)"
       x1="291"
       y1="172"
       x2="349"
       y2="172" />
    <linearGradient
       id="outerBackgroundGradient-7">
      <stop
         style="stop-color:#555555;stop-opacity:1"
         offset="0"
         id="stop3864-8-6-58" />
      <stop
         style="stop-color:#686868;stop-opacity:1"
         offset="1"
         id="stop3866-9-1-2" />
    </linearGradient>
    <linearGradient
       inkscape:collect="always"
       xlink:href="#linearGradient6298"
       id="linearGradient15485"
       x1="143.71945"
       y1="60.104076"
       x2="144.16139"
       y2="251.0229"
       gradientUnits="userSpaceOnUse" />
    <filter
       inkscape:collect="always"
       style="color-interpolation-filters:sRGB"
       id="filter16331"
       x="-0.029380751"
       y="-0.021898445"
       width="1.0587615"
       height="1.0437969">
      <feGaussianBlur
         inkscape:collect="always"
         stdDeviation="1.8016786"
         id="feGaussianBlur16333" />
    </filter>
    <linearGradient
       inkscape:collect="always"
       xlink:href="#linearGradient6298"
       id="linearGradient17842"
       gradientUnits="userSpaceOnUse"
       x1="143.71945"
       y1="60.104076"
       x2="144.16139"
       y2="251.0229"
       gradientTransform="matrix(0.36683317,0,0,0.36683317,283.17602,17.765241)" />
    <linearGradient
       inkscape:collect="always"
       xlink:href="#linearGradient6298"
       id="linearGradient17850"
       gradientUnits="userSpaceOnUse"
       gradientTransform="matrix(0.26072938,0,0,0.26072938,282.45497,131.06549)"
       x1="143.71945"
       y1="60.104076"
       x2="144.16139"
       y2="251.0229" />
    <linearGradient
       inkscape:collect="always"
       xlink:href="#linearGradient6298"
       id="linearGradient17938"
       gradientUnits="userSpaceOnUse"
       gradientTransform="matrix(0.1791652,0,0,0.1791652,286.20022,215.55753)"
       x1="143.71945"
       y1="60.104076"
       x2="144.16139"
       y2="251.0229" />
    <linearGradient
       inkscape:collect="always"
       xlink:href="#linearGradient6298"
       id="linearGradient17954"
       gradientUnits="userSpaceOnUse"
       gradientTransform="matrix(0.13049622,0,0,0.13049622,413.18748,47.44956)"
       x1="143.71945"
       y1="60.104076"
       x2="144.16139"
       y2="251.0229" />
    <filter
       inkscape:collect="always"
       style="color-interpolation-filters:sRGB"
       id="filter37938"
       x="-0.081771884"
       y="-0.066799613"
       width="1.1635438"
       height="1.1390768">
      <feGaussianBlur
         inkscape:collect="always"
         stdDeviation="0.82428633"
         id="feGaussianBlur37940" />
    </filter>
    <filter
       inkscape:collect="always"
       style="color-interpolation-filters:sRGB"
       id="filter39987"
       x="-0.074578657"
       y="-0.05558594"
       width="1.1491573"
       height="1.1111719">
      <feGaussianBlur
         inkscape:collect="always"
         stdDeviation="4.5732927"
         id="feGaussianBlur39985" />
    </filter>
    <filter
       inkscape:collect="always"
       style="color-interpolation-filters:sRGB"
       id="filter973"
       x="-0.077785981"
       y="-0.057976464"
       width="1.155572"
       height="1.1159529">
      <feGaussianBlur
         inkscape:collect="always"
         stdDeviation="4.7699712"
         id="feGaussianBlur971" />
    </filter>
    <filter
       inkscape:collect="always"
       style="color-interpolation-filters:sRGB"
       id="filter5347"
       x="-0.14524553"
       y="-0.051903595"
       width="1.2904911"
       height="1.1038072">
      <feGaussianBlur
         inkscape:collect="always"
         stdDeviation="0.60554196"
         id="feGaussianBlur5349" />
    </filter>
    <filter
       inkscape:collect="always"
       style="color-interpolation-filters:sRGB"
       id="filter9403"
       x="-0.087949469"
       y="-0.067653438"
       width="1.1758989"
       height="1.1353069">
      <feGaussianBlur
         inkscape:collect="always"
         stdDeviation="0.73291222"
         id="feGaussianBlur9405" />
    </filter>
    <filter
       inkscape:collect="always"
       style="color-interpolation-filters:sRGB"
       id="filter9643"
       x="-0.12381421"
       y="-0.046707049"
       width="1.2476284"
       height="1.0934141">
      <feGaussianBlur
         inkscape:collect="always"
         stdDeviation="0.39842382"
         id="feGaussianBlur9645" />
    </filter>
  </defs>
  <metadata
     id="metadata4">
    <rdf:RDF>
      <cc:Work
         rdf:about="">
        <dc:format>image/svg+xml</dc:format>
        <dc:type
           rdf:resource="http://purl.org/dc/dcmitype/StillImage" />
        <dc:creator>
          <cc:Agent>
            <dc:title>Sam Hewitt</dc:title>
          </cc:Agent>
        </dc:creator>
        <dc:source />
        <cc:license
           rdf:resource="" />
        <dc:title />
        <dc:subject>
          <rdf:Bag />
        </dc:subject>
        <dc:date />
        <dc:rights>
          <cc:Agent>
            <dc:title />
          </cc:Agent>
        </dc:rights>
        <dc:publisher>
          <cc:Agent>
            <dc:title />
          </cc:Agent>
        </dc:publisher>
        <dc:identifier />
        <dc:relation />
        <dc:language />
        <dc:coverage />
        <dc:description />
        <dc:contributor>
          <cc:Agent>
            <dc:title />
          </cc:Agent>
        </dc:contributor>
      </cc:Work>
      <cc:Work
         rdf:about="">
        <dc:format>image/svg+xml</dc:format>
        <dc:type
           rdf:resource="http://purl.org/dc/dcmitype/StillImage" />
      </cc:Work>
    </rdf:RDF>
  </metadata>
  <g
     style="display:inline"
     inkscape:groupmode="layer"
     inkscape:label="Icon"
     id="layer1">
    <g
       style="display:none"
       inkscape:label="Baseplate"
       id="layer7"
       inkscape:groupmode="layer">
      <text
         y="19.745117"
         xml:space="preserve"
         x="15.006836"
         style="font-style:normal;font-variant:normal;font-weight:normal;font-stretch:normal;line-height:0%;font-family:'DejaVu Sans';-inkscape-font-specification:'DejaVu Sans';display:inline;fill:#000000;fill-opacity:1;stroke:none;enable-background:new"
         inkscape:label="context"
         id="context"><tspan
           style="font-style:normal;font-variant:normal;font-weight:normal;font-stretch:normal;font-size:18px;line-height:1.25;font-family:'DejaVu Sans';-inkscape-font-specification:'DejaVu Sans';fill:#000000;fill-opacity:1"
           y="19.745117"
           x="15.006836"
           sodipodi:role="line"
           id="tspan3933">apps</tspan></text>
      <text
         y="19.745117"
         xml:space="preserve"
         x="122.48828"
         style="font-style:normal;font-variant:normal;font-weight:bold;font-stretch:normal;line-height:0%;font-family:'DejaVu Sans';-inkscape-font-specification:'DejaVu Sans Bold';text-align:start;writing-mode:lr-tb;text-anchor:start;display:inline;fill:#000000;fill-opacity:1;stroke:none;enable-background:new"
         inkscape:label="icon-name"
         id="icon-name"
         inkscape:transform-center-y="-8.7802734"><tspan
           style="font-style:normal;font-variant:normal;font-weight:bold;font-stretch:normal;font-size:18px;line-height:1.25;font-family:'DejaVu Sans';-inkscape-font-specification:'DejaVu Sans Bold';fill:#000000;fill-opacity:1"
           y="19.745117"
           x="122.48828"
           sodipodi:role="line"
           id="tspan3937">com.heroicgameslauncher.hgl</tspan></text>
      <rect
         style="display:inline;overflow:visible;visibility:visible;fill:#e6e6e6;fill-opacity:1;fill-rule:nonzero;stroke:none;stroke-width:2;marker:none;enable-background:accumulate"
         id="rect16x16"
         width="16"
         height="16"
         x="416"
         y="140"
         inkscape:label="16x16"
         inkscape:export-filename="/home/luzz/Desktop/rect16x16.png"
         inkscape:export-xdpi="96"
         inkscape:export-ydpi="96" />
      <rect
         style="display:inline;overflow:visible;visibility:visible;fill:#e6e6e6;fill-opacity:1;fill-rule:nonzero;stroke:none;stroke-width:2;marker:none;enable-background:accumulate"
         id="rect24x24"
         width="24"
         height="24"
         x="416"
         y="100"
         inkscape:label="24x24"
         inkscape:export-filename="/home/luzz/Desktop/path4268.png"
         inkscape:export-xdpi="96"
         inkscape:export-ydpi="96" />
      <rect
         style="display:inline;overflow:visible;visibility:visible;fill:#e6e6e6;fill-opacity:1;fill-rule:nonzero;stroke:none;stroke-width:2;marker:none;enable-background:accumulate"
         id="rect32x32"
         width="32"
         height="32"
         x="416"
         y="52"
         inkscape:label="32x32"
         inkscape:export-filename="/home/luzz/Downloads/rect32x32.png"
         inkscape:export-xdpi="96"
         inkscape:export-ydpi="96" />
      <rect
         inkscape:label="22x22"
         y="101"
         x="417"
         height="22"
         width="22"
         id="rect22x22"
         style="display:inline;overflow:visible;visibility:visible;fill:#e6e6e6;fill-opacity:1;fill-rule:nonzero;stroke:none;stroke-width:2;marker:none;enable-background:accumulate"
         inkscape:export-filename="/home/luzz/Desktop/path4268.png"
         inkscape:export-xdpi="96"
         inkscape:export-ydpi="96" />
      <rect
         inkscape:label="48x48"
         y="220"
         x="288"
         height="48"
         width="48"
         id="rect48x48"
         style="display:inline;overflow:visible;visibility:visible;fill:#e6e6e6;fill-opacity:1;fill-rule:nonzero;stroke:none;stroke-width:2;marker:none;enable-background:accumulate"
         inkscape:export-filename="/home/luzz/Downloads/rect48x48.png"
         inkscape:export-xdpi="96"
         inkscape:export-ydpi="96" />
      <rect
         style="display:inline;overflow:visible;visibility:visible;fill:#e6e6e6;fill-opacity:1;fill-rule:nonzero;stroke:none;stroke-width:2;marker:none;enable-background:accumulate"
         id="rect256x256"
         width="256"
         height="256"
         x="16"
         y="28"
         inkscape:label="256x256"
         inkscape:export-filename="/home/luzz/Downloads/rect4040.png"
         inkscape:export-xdpi="96"
         inkscape:export-ydpi="96" />
      <rect
         style="display:inline;overflow:visible;visibility:visible;fill:#e6e6e6;fill-opacity:1;fill-rule:nonzero;stroke:none;stroke-width:2;marker:none;enable-background:accumulate"
         id="rect64x64"
         width="64"
         height="64"
         x="288"
         y="140"
         inkscape:label="64x64"
         inkscape:export-filename="/home/luzz/Downloads/rect64x64.png"
         inkscape:export-xdpi="96"
         inkscape:export-ydpi="96" />
      <rect
         style="display:inline;overflow:visible;visibility:visible;fill:#e6e6e6;fill-opacity:1;fill-rule:nonzero;stroke:none;stroke-width:2;marker:none;enable-background:accumulate"
         id="rect96x96"
         width="96"
         height="96"
         x="288"
         y="28"
         inkscape:label="96x96"
         inkscape:export-filename="/home/luzz/Downloads/rect96x96.png"
         inkscape:export-xdpi="96"
         inkscape:export-ydpi="96" />
    </g>
    <g
       inkscape:groupmode="layer"
       id="layer4"
       inkscape:label="Shadow"
       style="display:inline"
       sodipodi:insensitive="true">
      <rect
         ry="50"
         y="47"
         x="34"
         height="220"
         width="220"
         id="rect4114"
         style="color:#bebebe;display:inline;overflow:visible;visibility:visible;opacity:0.1;fill:#000000;fill-opacity:1;fill-rule:nonzero;stroke:none;stroke-width:0;marker:none;enable-background:accumulate"
         inkscape:export-filename="/home/luzz/Downloads/rect4040.png"
         inkscape:export-xdpi="96"
         inkscape:export-ydpi="96" />
      <rect
         style="color:#bebebe;display:inline;overflow:visible;visibility:visible;opacity:0.1;fill:#000000;fill-opacity:1;fill-rule:nonzero;stroke:none;stroke-width:0;marker:none;enable-background:accumulate"
         id="rect4120"
         width="30"
         height="30"
         x="417"
         y="54"
         ry="7"
         inkscape:export-filename="/home/luzz/Downloads/rect32x32.png"
         inkscape:export-xdpi="96"
         inkscape:export-ydpi="96" />
      <rect
         transform="scale(1,-1)"
         ry="9"
         y="-266"
         x="291"
         height="42"
         width="42"
         id="rect4122"
         style="color:#bebebe;display:inline;overflow:visible;visibility:visible;opacity:0.1;fill:#000000;fill-opacity:1;fill-rule:nonzero;stroke:none;stroke-width:0;marker:none;enable-background:accumulate"
         inkscape:export-filename="/home/luzz/Downloads/rect48x48.png"
         inkscape:export-xdpi="96"
         inkscape:export-ydpi="96" />
      <rect
         style="color:#bebebe;display:inline;overflow:visible;visibility:visible;opacity:0.1;fill:#000000;fill-opacity:1;fill-rule:nonzero;stroke:none;stroke-width:0;marker:none;enable-background:accumulate"
         id="rect4124"
         width="88"
         height="88"
         x="292"
         y="33"
         ry="18"
         inkscape:export-filename="/home/luzz/Downloads/rect96x96.png"
         inkscape:export-xdpi="96"
         inkscape:export-ydpi="96" />
      <rect
         ry="12.5"
         y="143"
         x="290"
         height="60"
         width="60"
         id="rect4126"
         style="color:#bebebe;display:inline;overflow:visible;visibility:visible;opacity:0.1;fill:#000000;fill-opacity:1;fill-rule:nonzero;stroke:none;stroke-width:0;marker:none;enable-background:accumulate"
         inkscape:export-filename="/home/luzz/Downloads/rect64x64.png"
         inkscape:export-xdpi="96"
         inkscape:export-ydpi="96" />
      <path
         id="path4268"
         d="m 422,101 c -2.77,0 -5,2.23 -5,5 v 12 c 0,2.77 2.23,5 5,5 h 12 c 2.77,0 5,-2.23 5,-5 v -12 c 0,-2.77 -2.23,-5 -5,-5 z"
         style="color:#bebebe;display:inline;overflow:visible;visibility:visible;opacity:0.1;fill:#000000;fill-opacity:1;fill-rule:nonzero;stroke:none;stroke-width:0;marker:none;enable-background:accumulate"
         inkscape:connector-curvature="0"
         sodipodi:nodetypes="sssssssss"
         inkscape:export-filename="/home/luzz/Desktop/path4268.png"
         inkscape:export-xdpi="96"
         inkscape:export-ydpi="96" />
      <path
         id="path4270"
         d="m 419,140 c -1.662,0 -3,1.338 -3,3 v 10 c 0,1.662 1.338,3 3,3 h 10 c 1.662,0 3,-1.338 3,-3 v -10 c 0,-1.662 -1.338,-3 -3,-3 z"
         style="color:#bebebe;display:inline;overflow:visible;visibility:visible;opacity:0.1;fill:#000000;fill-opacity:1;fill-rule:nonzero;stroke:none;stroke-width:0;marker:none;enable-background:accumulate"
         inkscape:connector-curvature="0"
         sodipodi:nodetypes="sssssssss"
         inkscape:export-filename="/home/luzz/Desktop/rect16x16.png"
         inkscape:export-xdpi="96"
         inkscape:export-ydpi="96" />
    </g>
    <g
       inkscape:groupmode="layer"
       id="layer2"
       inkscape:label="Background"
       style="display:inline">
      <path
         style="color:#bebebe;display:inline;overflow:visible;visibility:visible;fill:url(#linearGradient11208);fill-opacity:1;fill-rule:nonzero;stroke:none;stroke-width:2;marker:none;enable-background:accumulate"
         d="M 84,46.5 C 56.568735,46.5 34.5,68.568732 34.5,96 v 120 c 0,27.43127 22.068735,49.5 49.5,49.5 h 120 c 27.43127,0 49.5,-22.06873 49.5,-49.5 V 96 C 253.5,68.568732 231.43127,46.5 204,46.5 Z"
         id="path4200"
         inkscape:export-filename="/home/luzz/Downloads/rect4040.png"
         inkscape:export-xdpi="96"
         inkscape:export-ydpi="96" />
      <path
         style="color:#bebebe;display:inline;overflow:visible;visibility:visible;fill:url(#linearGradient11210);fill-opacity:1;fill-rule:nonzero;stroke:none;stroke-width:2;marker:none;enable-background:accumulate"
         d="m 419,140.5 c -1.3844,0 -2.5,1.1156 -2.5,2.5 v 10 c 0,1.3844 1.1156,2.5 2.5,2.5 h 10 c 1.3844,0 2.5,-1.1156 2.5,-2.5 v -10 c 0,-1.3844 -1.1156,-2.5 -2.5,-2.5 z"
         id="path4202"
         inkscape:export-filename="/home/luzz/Desktop/rect16x16.png"
         inkscape:export-xdpi="96"
         inkscape:export-ydpi="96" />
      <path
         style="color:#bebebe;display:inline;overflow:visible;visibility:visible;fill:url(#linearGradient11212);fill-opacity:1;fill-rule:nonzero;stroke:none;stroke-width:2;marker:none;enable-background:accumulate"
         d="m 422,101.5 c -2.49699,0 -4.5,2.00301 -4.5,4.5 v 12 c 0,2.49699 2.00301,4.5 4.5,4.5 h 12 c 2.49699,0 4.5,-2.00301 4.5,-4.5 v -12 c 0,-2.49699 -2.00301,-4.5 -4.5,-4.5 z"
         id="path4204"
         inkscape:export-filename="/home/luzz/Desktop/path4268.png"
         inkscape:export-xdpi="96"
         inkscape:export-ydpi="96" />
      <path
         style="color:#bebebe;display:inline;overflow:visible;visibility:visible;fill:url(#linearGradient11214);fill-opacity:1;fill-rule:nonzero;stroke:none;stroke-width:2;marker:none;enable-background:accumulate"
         d="m 424,53.5 c -3.60654,0 -6.5,2.893464 -6.5,6.5 v 16 c 0,3.606536 2.89346,6.5 6.5,6.5 h 16 c 3.60654,0 6.5,-2.893464 6.5,-6.5 V 60 c 0,-3.606536 -2.89346,-6.5 -6.5,-6.5 z"
         id="path4206"
         inkscape:export-filename="/home/luzz/Downloads/rect32x32.png"
         inkscape:export-xdpi="96"
         inkscape:export-ydpi="96" />
      <path
         style="color:#bebebe;display:inline;overflow:visible;visibility:visible;fill:url(#linearGradient11216);fill-opacity:1;fill-rule:nonzero;stroke:none;stroke-width:2;marker:none;enable-background:accumulate"
         d="m 300,223.5 c -4.71531,0 -8.5,3.78469 -8.5,8.5 v 24 c 0,4.71531 3.78469,8.5 8.5,8.5 h 24 c 4.71531,0 8.5,-3.78469 8.5,-8.5 v -24 c 0,-4.71531 -3.78469,-8.5 -8.5,-8.5 z"
         id="path4208"
         inkscape:export-filename="/home/luzz/Downloads/rect48x48.png"
         inkscape:export-xdpi="96"
         inkscape:export-ydpi="96" />
      <path
         style="color:#bebebe;display:inline;overflow:visible;visibility:visible;fill:url(#linearGradient11218);fill-opacity:1;fill-rule:nonzero;stroke:none;stroke-width:2;marker:none;enable-background:accumulate"
         d="m 310,32.5 c -9.70255,0 -17.5,7.797452 -17.5,17.5 v 52 c 0,9.70255 7.79745,17.5 17.5,17.5 h 52 c 9.70255,0 17.5,-7.79745 17.5,-17.5 V 50 c 0,-9.702548 -7.79745,-17.5 -17.5,-17.5 z"
         id="path4210"
         inkscape:export-filename="/home/luzz/Downloads/rect96x96.png"
         inkscape:export-xdpi="96"
         inkscape:export-ydpi="96" />
      <path
         style="color:#bebebe;display:inline;overflow:visible;visibility:visible;fill:url(#linearGradient11220);fill-opacity:1;fill-rule:nonzero;stroke:none;stroke-width:2;marker:none;enable-background:accumulate"
         d="m 302.5,142.5 c -6.65502,0 -12,5.34498 -12,12 v 35 c 0,6.65502 5.34498,12 12,12 h 35 c 6.65502,0 12,-5.34498 12,-12 v -35 c 0,-6.65502 -5.34498,-12 -12,-12 z"
         id="path4212"
         inkscape:export-filename="/home/luzz/Downloads/rect64x64.png"
         inkscape:export-xdpi="96"
         inkscape:export-ydpi="96" />
    </g>
    <g
       inkscape:groupmode="layer"
       id="layer6"
       inkscape:label="Symbols"
       style="display:inline">
      <path
         style="display:inline;fill:url(#linearGradient15485);fill-opacity:1;stroke:none;stroke-width:1px;stroke-linecap:butt;stroke-linejoin:miter;stroke-opacity:1;enable-background:new"
         d="m 143.71945,60.104076 -68.942908,30.052039 -1.767767,4.77297 26.162951,121.445595 44.194174,34.64823 45.96194,-35.35534 25.98617,-122.152698 -2.65165,-3.889087 z"
         id="path15307"
         inkscape:export-filename="/home/luzz/Downloads/rect4040.png"
         inkscape:export-xdpi="96"
         inkscape:export-ydpi="96" />
      <path
         style="display:inline;opacity:0.558824;mix-blend-mode:normal;fill:#57424a;fill-opacity:1;stroke:none;stroke-width:0.213378;filter:url(#filter16331);enable-background:new"
         d="m 142.03734,257.26767 c -0.55247,-0.15548 -1.37051,-0.5251 -1.81787,-0.82137 -0.44736,-0.29627 -10.05185,-8.12935 -21.34331,-17.40684 -13.73693,-11.28678 -20.76314,-17.19467 -21.234734,-17.85495 -0.387639,-0.54273 -0.842,-1.46758 -1.009689,-2.05522 C 96.464048,218.54165 90.446003,190.80554 83.258301,157.49348 68.80228,90.495717 69.817782,95.854737 71.087141,93.263637 c 1.285609,-2.62428 -0.901533,-1.54768 36.561339,-17.996911 21.8141,-9.578157 34.33461,-14.966814 35.12601,-15.117756 0.89551,-0.170797 1.56397,-0.170797 2.45948,0 0.7914,0.150942 13.31191,5.539599 35.12601,15.117756 37.46286,16.449231 35.27572,15.372631 36.56133,17.996911 1.25767,2.56725 2.22227,-2.73357 -11.83763,65.052333 -13.7287,66.18909 -12.82929,62.25073 -14.59924,63.9276 -0.45076,0.42706 -10.15487,8.27003 -21.56468,17.42884 -12.87768,10.33708 -21.16766,16.84916 -21.85927,17.17124 -1.37084,0.6384 -3.5945,0.8261 -5.02315,0.42402 z m 5.06796,-12.55468 c 0.58814,-0.31026 9.91478,-7.67933 20.72587,-16.3757 17.44556,-14.03309 19.72613,-15.93545 20.27522,-16.9128 0.54506,-0.97018 2.00654,-7.78458 12.28212,-57.26758 7.20185,-34.68115 11.67121,-56.654973 11.68376,-57.443703 0.0362,-2.27418 -0.79985,-4.00885 -2.62468,-5.44611 -0.41169,-0.32425 -14.89585,-6.796737 -32.18701,-14.383309 -30.38547,-13.331755 -31.48862,-13.796447 -32.93555,-13.873762 -1.12662,-0.0602 -1.77365,0.02478 -2.61477,0.343413 -0.61474,0.232874 -14.95453,6.49127 -31.86621,13.907547 l -30.748519,13.484131 -1.195492,1.17658 c -1.379895,1.35806 -1.98352,2.7978 -1.964264,4.68507 0.01608,1.57547 24.070835,113.025083 24.682825,114.359543 0.25104,0.54741 0.85239,1.37855 1.33632,1.84697 0.48393,0.46842 9.34902,7.80551 19.70019,16.30463 13.86934,11.38782 19.10162,15.56471 19.88965,15.87778 1.55949,0.61955 4.09452,0.49067 5.56054,-0.2827 z m -6.20214,-14.66608 c -1.64678,-1.16296 -3.10694,-2.18006 -3.24479,-2.26023 -0.18596,-0.10812 0.047,-2.39868 0.90241,-8.87426 0.63419,-4.80068 1.156,-8.82681 1.15959,-8.94695 0.009,-0.30187 3.99787,-3.72131 4.33326,-3.71467 0.14927,0.003 1.1523,0.84121 2.22896,1.86279 l 1.95756,1.85743 1.10908,8.40917 c 0.60999,4.62505 1.14825,8.60079 1.19613,8.83497 0.07,0.34268 -0.4611,0.79973 -2.7215,2.34179 -1.5447,1.05381 -3.0601,2.07091 -3.36756,2.26023 -0.55417,0.34123 -0.58492,0.32591 -3.55314,-1.77027 z m -24.0427,-22.81173 c -1.30344,-2.38257 -2.3699,-4.45492 -2.3699,-4.60521 0,-0.57424 4.60146,-8.71814 4.92987,-8.72514 0.2986,-0.006 16.80309,2.79827 18.21928,3.09603 0.45378,0.0954 1.02622,0.74716 2.53484,2.8861 l 1.94868,2.76287 -1.76431,2.59614 c -0.97037,1.42788 -1.87853,2.72051 -2.01813,2.87252 -0.15019,0.16354 -3.91404,0.88088 -9.21829,1.75689 -4.93045,0.81428 -9.17319,1.52803 -9.4283,1.58613 -0.4122,0.0939 -0.72766,-0.37664 -2.83374,-4.22633 z m 42.57003,2.71555 c -5.10148,-0.85274 -9.38417,-1.59315 -9.51709,-1.64536 -0.13293,-0.0522 -1.09261,-1.34754 -2.13262,-2.87851 l -1.89093,-2.78358 1.94786,-2.7617 1.94785,-2.76169 1.11935,-0.22208 c 2.27246,-0.45086 17.30119,-2.99983 17.65189,-2.99387 0.25026,0.004 1.10078,1.36624 2.7392,4.38643 l 2.37623,4.38026 -2.34677,4.28887 c -1.29072,2.35887 -2.40815,4.34574 -2.48317,4.41526 -0.075,0.0695 -4.31033,-0.57129 -9.4118,-1.42403 z m -17.1372,-12.04007 c -0.8822,-0.71163 -1.82162,-1.46522 -2.08759,-1.67466 -0.46948,-0.36967 -0.62681,-1.71543 -5.39163,-46.11976 -2.69942,-25.15644 -4.95767,-46.07669 -5.01833,-46.48945 -0.10004,-0.68071 0.52687,-1.84849 6.74292,-12.560543 3.76926,-6.495537 6.91881,-11.873607 6.99899,-11.951269 0.0802,-0.07766 3.25651,5.226742 7.05852,11.787559 l 6.91275,11.928763 -4.61945,46.53247 c -2.54069,25.59286 -4.6409,46.54598 -4.66713,46.56248 -0.0262,0.0165 -0.97298,0.76437 -2.10388,1.66191 -1.1309,0.89753 -2.0933,1.62839 -2.13867,1.62412 -0.0454,-0.004 -0.8043,-0.58999 -1.6865,-1.30162 z"
         id="path16095"
         inkscape:export-filename="/home/luzz/Downloads/rect4040.png"
         inkscape:export-xdpi="96"
         inkscape:export-ydpi="96" />
      <path
         style="display:inline;fill:#fbffff;fill-opacity:1;stroke-width:0.213378;enable-background:new"
         d="m 142.03734,255.51767 c -0.55247,-0.15548 -1.37051,-0.5251 -1.81787,-0.82137 -0.44736,-0.29627 -10.05185,-8.12935 -21.34331,-17.40684 -13.73693,-11.28678 -20.76314,-17.19467 -21.234734,-17.85495 -0.387639,-0.54273 -0.842,-1.46758 -1.009689,-2.05522 C 96.464048,216.79165 90.446003,189.05554 83.258301,155.74348 68.80228,88.745717 69.817782,94.104737 71.087141,91.513637 c 1.285609,-2.62428 -0.901533,-1.54768 36.561339,-17.996911 21.8141,-9.578157 34.33461,-14.966814 35.12601,-15.117756 0.89551,-0.170797 1.56397,-0.170797 2.45948,0 0.7914,0.150942 13.31191,5.539599 35.12601,15.117756 37.46286,16.449231 35.27572,15.372631 36.56133,17.996911 1.25767,2.56725 2.22227,-2.73357 -11.83763,65.052333 -13.7287,66.18909 -12.82929,62.25073 -14.59924,63.9276 -0.45076,0.42706 -10.15487,8.27003 -21.56468,17.42884 -12.87768,10.33708 -21.16766,16.84916 -21.85927,17.17124 -1.37084,0.6384 -3.5945,0.8261 -5.02315,0.42402 z m 5.06796,-12.55468 c 0.58814,-0.31026 9.91478,-7.67933 20.72587,-16.3757 17.44556,-14.03309 19.72613,-15.93545 20.27522,-16.9128 0.54506,-0.97018 2.00654,-7.78458 12.28212,-57.26758 7.20185,-34.68115 11.67121,-56.654973 11.68376,-57.443703 0.0362,-2.27418 -0.79985,-4.00885 -2.62468,-5.44611 -0.41169,-0.32425 -14.89585,-6.796737 -32.18701,-14.383309 -30.38547,-13.331755 -31.48862,-13.796447 -32.93555,-13.873762 -1.12662,-0.0602 -1.77365,0.02478 -2.61477,0.343413 -0.61474,0.232874 -14.95453,6.49127 -31.86621,13.907547 l -30.748519,13.484131 -1.195492,1.17658 c -1.379895,1.35806 -1.98352,2.7978 -1.964264,4.68507 0.01608,1.57547 24.070835,113.025083 24.682825,114.359543 0.25104,0.54741 0.85239,1.37855 1.33632,1.84697 0.48393,0.46842 9.34902,7.80551 19.70019,16.30463 13.86934,11.38782 19.10162,15.56471 19.88965,15.87778 1.55949,0.61955 4.09452,0.49067 5.56054,-0.2827 z m -6.20214,-14.66608 c -1.64678,-1.16296 -3.10694,-2.18006 -3.24479,-2.26023 -0.18596,-0.10812 0.047,-2.39868 0.90241,-8.87426 0.63419,-4.80068 1.156,-8.82681 1.15959,-8.94695 0.009,-0.30187 3.99787,-3.72131 4.33326,-3.71467 0.14927,0.003 1.1523,0.84121 2.22896,1.86279 l 1.95756,1.85743 1.10908,8.40917 c 0.60999,4.62505 1.14825,8.60079 1.19613,8.83497 0.07,0.34268 -0.4611,0.79973 -2.7215,2.34179 -1.5447,1.05381 -3.0601,2.07091 -3.36756,2.26023 -0.55417,0.34123 -0.58492,0.32591 -3.55314,-1.77027 z m -24.0427,-22.81173 c -1.30344,-2.38257 -2.3699,-4.45492 -2.3699,-4.60521 0,-0.57424 4.60146,-8.71814 4.92987,-8.72514 0.2986,-0.006 16.80309,2.79827 18.21928,3.09603 0.45378,0.0954 1.02622,0.74716 2.53484,2.8861 l 1.94868,2.76287 -1.76431,2.59614 c -0.97037,1.42788 -1.87853,2.72051 -2.01813,2.87252 -0.15019,0.16354 -3.91404,0.88088 -9.21829,1.75689 -4.93045,0.81428 -9.17319,1.52803 -9.4283,1.58613 -0.4122,0.0939 -0.72766,-0.37664 -2.83374,-4.22633 z m 42.57003,2.71555 c -5.10148,-0.85274 -9.38417,-1.59315 -9.51709,-1.64536 -0.13293,-0.0522 -1.09261,-1.34754 -2.13262,-2.87851 l -1.89093,-2.78358 1.94786,-2.7617 1.94785,-2.76169 1.11935,-0.22208 c 2.27246,-0.45086 17.30119,-2.99983 17.65189,-2.99387 0.25026,0.004 1.10078,1.36624 2.7392,4.38643 l 2.37623,4.38026 -2.34677,4.28887 c -1.29072,2.35887 -2.40815,4.34574 -2.48317,4.41526 -0.075,0.0695 -4.31033,-0.57129 -9.4118,-1.42403 z m -17.1372,-12.04007 c -0.8822,-0.71163 -1.82162,-1.46522 -2.08759,-1.67466 -0.46948,-0.36967 -0.62681,-1.71543 -5.39163,-46.11976 -2.69942,-25.15644 -4.95767,-46.07669 -5.01833,-46.48945 -0.10004,-0.68071 0.52687,-1.84849 6.74292,-12.560543 3.76926,-6.495537 6.91881,-11.873607 6.99899,-11.951269 0.0802,-0.07766 3.25651,5.226742 7.05852,11.787559 l 6.91275,11.928763 -4.61945,46.53247 c -2.54069,25.59286 -4.6409,46.54598 -4.66713,46.56248 -0.0262,0.0165 -0.97298,0.76437 -2.10388,1.66191 -1.1309,0.89753 -2.0933,1.62839 -2.13867,1.62412 -0.0454,-0.004 -0.8043,-0.58999 -1.6865,-1.30162 z"
         id="path15156"
         inkscape:export-filename="/home/luzz/Downloads/rect4040.png"
         inkscape:export-xdpi="96"
         inkscape:export-ydpi="96" />
      <path
         style="display:inline;fill:url(#linearGradient17842);fill-opacity:1;stroke:none;stroke-width:0.366833px;stroke-linecap:butt;stroke-linejoin:miter;stroke-opacity:1;enable-background:new"
         d="m 335.89708,39.81341 -25.29054,11.024078 -0.64849,1.750889 9.59744,44.550269 16.21189,12.710114 16.86037,-12.969505 9.53258,-44.809662 -0.97271,-1.426642 z"
         id="path17836"
         inkscape:export-filename="/home/luzz/Downloads/rect96x96.png"
         inkscape:export-xdpi="96"
         inkscape:export-ydpi="96" />
      <path
         style="display:inline;opacity:0.872549;mix-blend-mode:normal;fill:#57424a;fill-opacity:1;stroke:none;stroke-width:0.213378;filter:url(#filter39987);enable-background:new"
         d="m 338.03734,190.03854 c -0.55247,-0.15548 -1.37051,-0.5251 -1.81787,-0.82137 -0.44736,-0.29627 -10.05185,-8.12935 -21.34331,-17.40684 -13.73693,-11.28678 -20.76314,-17.19467 -21.23473,-17.85495 -0.38764,-0.54273 -0.842,-1.46758 -1.00969,-2.05522 C 292.46405,151.31252 286.446,123.57641 279.2583,90.264353 264.80228,23.26659 265.81778,28.62561 267.08714,26.03451 c 1.28561,-2.62428 -0.90153,-1.54768 36.56134,-17.9969114 21.8141,-9.578157 34.33461,-14.966814 35.12601,-15.117756 0.89551,-0.170797 1.56397,-0.170797 2.45948,0 0.7914,0.150942 13.31191,5.539599 35.12601,15.117756 37.46286,16.4492314 35.27572,15.3726314 36.56133,17.9969114 1.25767,2.56725 2.22227,-2.73357 -11.83763,65.052333 -13.7287,66.189087 -12.82929,62.250727 -14.59924,63.927597 -0.45076,0.42706 -10.15487,8.27003 -21.56468,17.42884 -12.87768,10.33708 -21.16766,16.84916 -21.85927,17.17124 -1.37084,0.6384 -3.5945,0.8261 -5.02315,0.42402 z m 5.06796,-12.55468 c 0.58814,-0.31026 9.91478,-7.67933 20.72587,-16.3757 17.44556,-14.03309 19.72613,-15.93545 20.27522,-16.9128 0.54506,-0.97018 2.00654,-7.78458 12.28212,-57.267577 7.20185,-34.68115 11.67121,-56.654973 11.68376,-57.443703 0.0362,-2.27418 -0.79985,-4.00885 -2.62468,-5.44611 -0.41169,-0.32425 -14.89585,-6.796737 -32.18701,-14.3833094 -30.38547,-13.331755 -31.48862,-13.796447 -32.93555,-13.873762 -1.12662,-0.0602 -1.77365,0.02478 -2.61477,0.343413 -0.61474,0.232874 -14.95453,6.49127 -31.86621,13.9075474 l -30.74852,13.484131 -1.19549,1.17658 c -1.3799,1.35806 -1.98352,2.7978 -1.96427,4.68507 0.0161,1.57547 24.07084,113.02508 24.68283,114.35954 0.25104,0.54741 0.85239,1.37855 1.33632,1.84697 0.48393,0.46842 9.34902,7.80551 19.70019,16.30463 13.86934,11.38782 19.10162,15.56471 19.88965,15.87778 1.55949,0.61955 4.09452,0.49067 5.56054,-0.2827 z m -6.20214,-14.66608 c -1.64678,-1.16296 -3.10694,-2.18006 -3.24479,-2.26023 -0.18596,-0.10812 0.047,-2.39868 0.90241,-8.87426 0.63419,-4.80068 1.156,-8.82681 1.15959,-8.94695 0.009,-0.30187 3.99787,-3.72131 4.33326,-3.71467 0.14927,0.003 1.1523,0.84121 2.22896,1.86279 l 1.95756,1.85743 1.10908,8.40917 c 0.60999,4.62505 1.14825,8.60079 1.19613,8.83497 0.07,0.34268 -0.4611,0.79973 -2.7215,2.34179 -1.5447,1.05381 -3.0601,2.07091 -3.36756,2.26023 -0.55417,0.34123 -0.58492,0.32591 -3.55314,-1.77027 z m -24.0427,-22.81173 c -1.30344,-2.38257 -2.3699,-4.45492 -2.3699,-4.60521 0,-0.57424 4.60146,-8.71814 4.92987,-8.72514 0.2986,-0.006 16.80309,2.79827 18.21928,3.09603 0.45378,0.0954 1.02622,0.74716 2.53484,2.8861 l 1.94868,2.76287 -1.76431,2.59614 c -0.97037,1.42788 -1.87853,2.72051 -2.01813,2.87252 -0.15019,0.16354 -3.91404,0.88088 -9.21829,1.75689 -4.93045,0.81428 -9.17319,1.52803 -9.4283,1.58613 -0.4122,0.0939 -0.72766,-0.37664 -2.83374,-4.22633 z m 42.57003,2.71555 c -5.10148,-0.85274 -9.38417,-1.59315 -9.51709,-1.64536 -0.13293,-0.0522 -1.09261,-1.34754 -2.13262,-2.87851 l -1.89093,-2.78358 1.94786,-2.7617 1.94785,-2.76169 1.11935,-0.22208 c 2.27246,-0.45086 17.30119,-2.99983 17.65189,-2.99387 0.25026,0.004 1.10078,1.36624 2.7392,4.38643 l 2.37623,4.38026 -2.34677,4.28887 c -1.29072,2.35887 -2.40815,4.34574 -2.48317,4.41526 -0.075,0.0695 -4.31033,-0.57129 -9.4118,-1.42403 z m -17.1372,-12.04007 c -0.8822,-0.71163 -1.82162,-1.46522 -2.08759,-1.67466 -0.46948,-0.36967 -0.62681,-1.71543 -5.39163,-46.119757 -2.69942,-25.15644 -4.95767,-46.07669 -5.01833,-46.48945 -0.10004,-0.68071 0.52687,-1.84849 6.74292,-12.560543 3.76926,-6.495537 6.91881,-11.873607 6.99899,-11.951269 0.0802,-0.07766 3.25651,5.226742 7.05852,11.787559 l 6.91275,11.928763 -4.61945,46.53247 c -2.54069,25.592857 -4.6409,46.545977 -4.66713,46.562477 -0.0262,0.0165 -0.97298,0.76437 -2.10388,1.66191 -1.1309,0.89753 -2.0933,1.62839 -2.13867,1.62412 -0.0454,-0.004 -0.8043,-0.58999 -1.6865,-1.30162 z"
         id="path17838"
         transform="matrix(0.36683317,0,0,0.36683317,211.27671,43.427572)"
         inkscape:export-filename="/home/luzz/Downloads/rect96x96.png"
         inkscape:export-xdpi="96"
         inkscape:export-ydpi="96" />
      <path
         style="display:inline;fill:#fbffff;fill-opacity:1;stroke-width:0.078274;enable-background:new"
         d="m 335.28003,111.49759 c -0.20266,-0.057 -0.50276,-0.19262 -0.66686,-0.30131 -0.1641,-0.10865 -3.68736,-2.98212 -7.82943,-6.3854 -5.03917,-4.14037 -7.61662,-6.307575 -7.78961,-6.54979 -0.14219,-0.199088 -0.30887,-0.538351 -0.37039,-0.753924 -0.0615,-0.215559 -2.26912,-10.390093 -4.90582,-22.610052 -5.30295,-24.577008 -4.93043,-22.611133 -4.46478,-23.561637 0.4716,-0.962676 -0.33072,-0.567742 13.41191,-6.601868 8.00213,-3.513591 12.59508,-5.490317 12.88539,-5.545694 0.3285,-0.0626 0.57372,-0.0626 0.90222,0 0.2903,0.05539 4.88324,2.032103 12.88538,5.545694 13.74262,6.034126 12.94029,5.639192 13.41191,6.601868 0.46136,0.941748 0.8152,-1.002771 -4.34244,23.863353 -5.03614,24.28035 -4.70621,22.835623 -5.35548,23.450761 -0.16535,0.156658 -3.72515,3.033709 -7.91064,6.393479 -4.72396,3.79198 -7.765,6.18083 -8.0187,6.29897 -0.50288,0.23419 -1.3186,0.30304 -1.84266,0.15555 z m 1.85909,-4.60547 c 0.21576,-0.11386 3.63708,-2.81704 7.60294,-6.00716 6.3996,-5.147796 7.23619,-5.845648 7.43762,-6.20417 0.19995,-0.355894 0.73606,-2.855634 4.50548,-21.00764 2.64188,-12.722205 4.2814,-20.782923 4.28599,-21.072266 0.0134,-0.834235 -0.29339,-1.470569 -0.96281,-1.997802 -0.15102,-0.118924 -5.4643,-2.49328 -11.80727,-5.276278 -11.14639,-4.890527 -11.55106,-5.061 -12.08185,-5.089363 -0.41328,-0.02203 -0.65063,0.0093 -0.95918,0.125999 -0.22551,0.08542 -5.48582,2.381203 -11.68958,5.101749 l -11.27958,4.946427 -0.43855,0.431598 c -0.5062,0.49819 -0.72761,1.02633 -0.72055,1.718643 0.005,0.577939 8.82998,41.46135 9.05448,41.950877 0.0921,0.20081 0.31268,0.50569 0.49021,0.677523 0.17752,0.171834 3.42952,2.863323 7.22668,5.981083 5.08774,4.17744 7.0071,5.70966 7.29618,5.8245 0.57207,0.22726 1.502,0.17998 2.03979,-0.10373 z m -2.27515,-5.38001 c -0.60409,-0.4266 -1.13974,-0.79972 -1.19029,-0.82912 -0.0682,-0.0396 0.0172,-0.879923 0.33103,-3.255373 0.23264,-1.761048 0.42406,-3.237969 0.42537,-3.282042 0.002,-0.110783 1.46655,-1.365098 1.58959,-1.362669 0.0547,0.0011 0.42269,0.30859 0.81765,0.683344 l 0.71809,0.681368 0.40686,3.084754 c 0.22376,1.696618 0.42121,3.155058 0.43878,3.240958 0.0256,0.12573 -0.16915,0.29337 -0.99835,0.85905 -0.56664,0.38657 -1.12254,0.75967 -1.23533,0.82913 -0.20328,0.1252 -0.21455,0.11959 -1.3034,-0.6494 z m -8.81966,-8.368092 c -0.47815,-0.87401 -0.86936,-1.634219 -0.86936,-1.689344 0,-0.210647 1.68797,-3.198113 1.80844,-3.200676 0.10958,-0.0026 6.16394,1.026503 6.68344,1.135725 0.16645,0.03497 0.37645,0.274086 0.92986,1.058723 l 0.71484,1.013515 -0.64721,0.952345 c -0.35597,0.52379 -0.6891,0.997967 -0.74031,1.053732 -0.0551,0.06006 -1.4358,0.323139 -3.38158,0.64449 -1.80865,0.2987 -3.36503,0.560534 -3.45861,0.58185 -0.15121,0.03443 -0.26693,-0.138172 -1.03951,-1.55036 z m 15.6161,0.996151 c -1.8714,-0.312821 -3.44244,-0.584425 -3.4912,-0.603579 -0.0487,-0.01908 -0.4008,-0.494319 -0.78231,-1.055934 l -0.69365,-1.021097 0.71454,-1.013089 0.71454,-1.013076 0.41062,-0.08142 c 0.83361,-0.165387 6.34664,-1.100434 6.47529,-1.098245 0.0918,0.0013 0.4038,0.501179 1.00483,1.609088 l 0.87169,1.606817 -0.86088,1.573303 c -0.47348,0.865307 -0.88339,1.594165 -0.91091,1.619659 -0.0275,0.02549 -1.58117,-0.209568 -3.45256,-0.522375 z m -6.28649,-4.416697 c -0.32362,-0.261047 -0.66824,-0.537497 -0.76581,-0.614324 -0.17222,-0.135609 -0.22994,-0.629273 -1.97782,-16.918259 -0.99024,-9.228208 -1.81864,-16.902454 -1.84088,-17.053866 -0.0367,-0.249702 0.19327,-0.678084 2.47352,-4.607631 1.38269,-2.382779 2.53805,-4.355633 2.56746,-4.384116 0.0293,-0.02843 1.19459,1.917343 2.58929,4.324066 l 2.53583,4.375868 -1.69456,17.069657 c -0.93202,9.38831 -1.70244,17.074609 -1.71206,17.080655 -0.01,0.0067 -0.35692,0.280401 -0.77178,0.609639 -0.41485,0.329253 -0.76789,0.59736 -0.78453,0.595785 -0.0166,-0.0013 -0.29505,-0.216427 -0.61866,-0.477474 z"
         id="path17840"
         inkscape:export-filename="/home/luzz/Downloads/rect96x96.png"
         inkscape:export-xdpi="96"
         inkscape:export-ydpi="96" />
      <g
         id="g2429"
         transform="translate(0.125,-0.2265625)"
         inkscape:export-filename="/home/luzz/Downloads/rect64x64.png"
         inkscape:export-xdpi="96"
         inkscape:export-ydpi="96">
        <path
           style="display:inline;fill:url(#linearGradient17850);fill-opacity:1;stroke:none;stroke-width:0.260729px;stroke-linecap:butt;stroke-linejoin:miter;stroke-opacity:1;enable-background:new"
           d="m 319.92686,146.73638 -17.97544,7.83545 -0.46092,1.24446 6.82145,31.66443 11.52272,9.03381 11.98363,-9.21817 6.77535,-31.8488 -0.69136,-1.01399 z"
           id="path17844" />
        <path
           style="display:inline;opacity:0.946078;mix-blend-mode:normal;fill:#57424a;fill-opacity:1;stroke:none;stroke-width:0.213378;filter:url(#filter973);enable-background:new"
           d="m 338.03734,190.03854 c -0.55247,-0.15548 -1.37051,-0.5251 -1.81787,-0.82137 -0.44736,-0.29627 -10.05185,-8.12935 -21.34331,-17.40684 -13.73693,-11.28678 -20.76314,-17.19467 -21.23473,-17.85495 -0.38764,-0.54273 -0.842,-1.46758 -1.00969,-2.05522 C 292.46405,151.31252 286.446,123.57641 279.2583,90.264353 264.80228,23.26659 265.81778,28.62561 267.08714,26.03451 c 1.28561,-2.62428 -0.90153,-1.54768 36.56134,-17.9969114 21.8141,-9.578157 34.33461,-14.966814 35.12601,-15.117756 0.89551,-0.170797 1.56397,-0.170797 2.45948,0 0.7914,0.150942 13.31191,5.539599 35.12601,15.117756 37.46286,16.4492314 35.27572,15.3726314 36.56133,17.9969114 1.25767,2.56725 2.22227,-2.73357 -11.83763,65.052333 -13.7287,66.189087 -12.82929,62.250727 -14.59924,63.927597 -0.45076,0.42706 -10.15487,8.27003 -21.56468,17.42884 -12.87768,10.33708 -21.16766,16.84916 -21.85927,17.17124 -1.37084,0.6384 -3.5945,0.8261 -5.02315,0.42402 z m 5.06796,-12.55468 c 0.58814,-0.31026 9.91478,-7.67933 20.72587,-16.3757 17.44556,-14.03309 19.72613,-15.93545 20.27522,-16.9128 0.54506,-0.97018 2.00654,-7.78458 12.28212,-57.267577 7.20185,-34.68115 11.67121,-56.654973 11.68376,-57.443703 0.0362,-2.27418 -0.79985,-4.00885 -2.62468,-5.44611 -0.41169,-0.32425 -14.89585,-6.796737 -32.18701,-14.3833094 -30.38547,-13.331755 -31.48862,-13.796447 -32.93555,-13.873762 -1.12662,-0.0602 -1.77365,0.02478 -2.61477,0.343413 -0.61474,0.232874 -14.95453,6.49127 -31.86621,13.9075474 l -30.74852,13.484131 -1.19549,1.17658 c -1.3799,1.35806 -1.98352,2.7978 -1.96427,4.68507 0.0161,1.57547 24.07084,113.02508 24.68283,114.35954 0.25104,0.54741 0.85239,1.37855 1.33632,1.84697 0.48393,0.46842 9.34902,7.80551 19.70019,16.30463 13.86934,11.38782 19.10162,15.56471 19.88965,15.87778 1.55949,0.61955 4.09452,0.49067 5.56054,-0.2827 z m -6.20214,-14.66608 c -1.64678,-1.16296 -3.10694,-2.18006 -3.24479,-2.26023 -0.18596,-0.10812 0.047,-2.39868 0.90241,-8.87426 0.63419,-4.80068 1.156,-8.82681 1.15959,-8.94695 0.009,-0.30187 3.99787,-3.72131 4.33326,-3.71467 0.14927,0.003 1.1523,0.84121 2.22896,1.86279 l 1.95756,1.85743 1.10908,8.40917 c 0.60999,4.62505 1.14825,8.60079 1.19613,8.83497 0.07,0.34268 -0.4611,0.79973 -2.7215,2.34179 -1.5447,1.05381 -3.0601,2.07091 -3.36756,2.26023 -0.55417,0.34123 -0.58492,0.32591 -3.55314,-1.77027 z m -24.0427,-22.81173 c -1.30344,-2.38257 -2.3699,-4.45492 -2.3699,-4.60521 0,-0.57424 4.60146,-8.71814 4.92987,-8.72514 0.2986,-0.006 16.80309,2.79827 18.21928,3.09603 0.45378,0.0954 1.02622,0.74716 2.53484,2.8861 l 1.94868,2.76287 -1.76431,2.59614 c -0.97037,1.42788 -1.87853,2.72051 -2.01813,2.87252 -0.15019,0.16354 -3.91404,0.88088 -9.21829,1.75689 -4.93045,0.81428 -9.17319,1.52803 -9.4283,1.58613 -0.4122,0.0939 -0.72766,-0.37664 -2.83374,-4.22633 z m 42.57003,2.71555 c -5.10148,-0.85274 -9.38417,-1.59315 -9.51709,-1.64536 -0.13293,-0.0522 -1.09261,-1.34754 -2.13262,-2.87851 l -1.89093,-2.78358 1.94786,-2.7617 1.94785,-2.76169 1.11935,-0.22208 c 2.27246,-0.45086 17.30119,-2.99983 17.65189,-2.99387 0.25026,0.004 1.10078,1.36624 2.7392,4.38643 l 2.37623,4.38026 -2.34677,4.28887 c -1.29072,2.35887 -2.40815,4.34574 -2.48317,4.41526 -0.075,0.0695 -4.31033,-0.57129 -9.4118,-1.42403 z m -17.1372,-12.04007 c -0.8822,-0.71163 -1.82162,-1.46522 -2.08759,-1.67466 -0.46948,-0.36967 -0.62681,-1.71543 -5.39163,-46.119757 -2.69942,-25.15644 -4.95767,-46.07669 -5.01833,-46.48945 -0.10004,-0.68071 0.52687,-1.84849 6.74292,-12.560543 3.76926,-6.495537 6.91881,-11.873607 6.99899,-11.951269 0.0802,-0.07766 3.25651,5.226742 7.05852,11.787559 l 6.91275,11.928763 -4.61945,46.53247 c -2.54069,25.592857 -4.6409,46.545977 -4.66713,46.562477 -0.0262,0.0165 -0.97298,0.76437 -2.10388,1.66191 -1.1309,0.89753 -2.0933,1.62839 -2.13867,1.62412 -0.0454,-0.004 -0.8043,-0.58999 -1.6865,-1.30162 z"
           id="path17846"
           transform="matrix(0.26072938,0,0,0.26072938,231.35201,148.77087)" />
        <path
           style="display:inline;fill:#fbffff;fill-opacity:1;stroke-width:0.0556338;enable-background:new"
           d="m 319.875,198.22656 -11.96204,-9.94806 -7.03676,-33.59881 18.9988,-8.45313 18.99962,8.43958 -6.99962,33.56042 z m 11,-12 7,-31 -18,-8 -18,8 7,31 10,8 h 2 z m -13,4 1,-5 1,-1 1,1 1,5 -2,1 z m -5,-7 1,-2 4,1 1,1 -1,2 -4,1 z m 9,2 -1,-2 1,-1 4,-1 1,2 -1,3 z m -3,-4 -3,-24 4.00446,-5.98975 3.99554,5.98975 -3,24 -1,1 z"
           id="path17848"
           sodipodi:nodetypes="ccccccccccccccccccccccccccccccccccccccccccc" />
      </g>
      <path
         style="display:inline;fill:url(#linearGradient17938);fill-opacity:1;stroke:none;stroke-width:0.179165px;stroke-linecap:butt;stroke-linejoin:miter;stroke-opacity:1;enable-background:new"
         d="m 311.94974,226.32608 -12.35217,5.38428 -0.31672,0.85516 4.68748,21.75882 7.91806,6.20775 8.23478,-6.33443 4.65582,-21.88552 -0.47508,-0.69679 z"
         id="path17932"
         inkscape:export-filename="/home/luzz/Downloads/rect48x48.png"
         inkscape:export-xdpi="96"
         inkscape:export-ydpi="96" />
      <path
         style="display:inline;opacity:0.848039;fill:#000000;fill-opacity:1;stroke:none;stroke-width:0.3;stroke-miterlimit:4;stroke-dasharray:none;stroke-opacity:1;filter:url(#filter5347);enable-background:new"
         d="m 311,256.6 v -3 l 1,-1 1,1 v 3 l -1,1 z M 307.00573,252.10404 308,250.6 l 3,1 0.49249,0.4855 L 311,252.6 l -3,1 z M 313,252.6 312.50985,252.08984 313,251.6 l 3,-1 1.01155,1.48519 L 316,253.6 Z m -2,-2 -2,-16 3,-5 3,5 -2,16 -1.00362,0.93589 z"
         id="path5327"
         sodipodi:nodetypes="cccccccccccccccccccccccccccc"
         inkscape:export-filename="/home/luzz/Downloads/rect48x48.png"
         inkscape:export-xdpi="96"
         inkscape:export-ydpi="96" />
      <path
         style="display:inline;fill:#fbffff;fill-opacity:1;stroke:none;stroke-width:0.3;stroke-miterlimit:4;stroke-dasharray:none;stroke-opacity:1;enable-background:new"
         d="m 311,256 v -3 l 1,-1 1,1 v 3 l -1,1 z M 307.00573,251.50404 308,250 l 3,1 0.49249,0.4855 L 311,252 l -3,1 z M 313,252 312.50985,251.48984 313,251 l 3,-1 1.01155,1.48519 L 316,253 Z m -2,-2 -2,-16 3,-5 3,5 -2,16 -1.00362,0.93589 z"
         id="path17936"
         sodipodi:nodetypes="cccccccccccccccccccccccccccc"
         inkscape:export-filename="/home/luzz/Downloads/rect48x48.png"
         inkscape:export-xdpi="96"
         inkscape:export-ydpi="96" />
      <path
         style="display:inline;fill:#fbffff;fill-opacity:1;stroke-width:0.0145144;enable-background:new"
         d="m 423,152 0.70893,-0.63525 0.29476,-0.25268 0.15162,0.12671 0.13315,0.12635 L 425,152 l -1,1 z m -1,-1 v -1 l 1.56736,0.48287 0.30497,0.38425 -0.25728,0.37199 -0.62705,0.11951 -0.64133,0.10789 z m 3.04966,0.36375 -0.64737,-0.11193 -0.27369,-0.38514 0.26499,-0.37572 L 426,150 v 1 l -0.31014,0.46062 -0.64022,-0.0969 z m -1.1657,-0.819 -0.14201,-0.11391 L 423,150 v -6 l 1,-1 1,1 v 6 l -0.71279,0.40977 -0.14311,0.11304 -0.14547,0.11048 -0.11472,-0.0885 z"
         id="path17944"
         sodipodi:nodetypes="ccccccccccccccccccccccccccccccccccccc"
         inkscape:export-filename="/home/luzz/Desktop/rect16x16.png"
         inkscape:export-xdpi="96"
         inkscape:export-ydpi="96" />
      <path
         style="display:inline;fill:url(#linearGradient17954);fill-opacity:1;stroke:none;stroke-width:0.130496px;stroke-linecap:butt;stroke-linejoin:miter;stroke-opacity:1;enable-background:new"
         d="m 431.94232,55.292908 -8.99679,3.921678 -0.23068,0.622861 3.41416,15.848188 5.76717,4.521458 5.99786,-4.613726 3.3911,-15.940472 -0.34602,-0.507512 z"
         id="path17948"
         inkscape:export-filename="/home/luzz/Downloads/rect32x32.png"
         inkscape:export-xdpi="96"
         inkscape:export-ydpi="96" />
      <path
         id="path9623"
         style="display:inline;opacity:0.710784;fill:#000000;fill-opacity:1;stroke-width:0.0278455;filter:url(#filter9643);enable-background:new"
         d="m 432.00018,57.4 -2.0001,4 1.00006,11 0.97663,1.216835 1.02346,-1.216835 1.00003,-11 z m -3.2287,15.525387 -0.6426,1.138671 0.67777,1.152344 2.43369,-0.4375 0.49418,-0.71289 -0.58597,-0.736328 z m 6.4124,0 -2.44932,0.419925 -0.5098,0.720704 0.52543,0.738281 2.4708,0.400391 0.63089,-1.136719 -0.668,-1.142578 z m -3.19741,1.611328 -0.56644,0.484375 -0.26758,2.326172 0.88676,0.52539 0.79496,-0.601562 -0.3008,-2.25 z"
         sodipodi:nodetypes="ccccccccccccccccccccccccccccc"
         inkscape:export-filename="/home/luzz/Downloads/rect32x32.png"
         inkscape:export-xdpi="96"
         inkscape:export-ydpi="96" />
      <path
         id="path17952"
         style="display:inline;fill:#fbffff;fill-opacity:1;stroke-width:0.0278449;enable-background:new"
         d="m 432,57 -2,4 1,11 0.97661,1.216835 L 433,72 434,61 Z m -3.22855,15.525387 -0.64257,1.138671 0.67773,1.152344 2.43359,-0.4375 0.49415,-0.71289 -0.58594,-0.736328 z m 6.41211,0 -2.44921,0.419925 -0.50977,0.720704 0.52539,0.738281 2.4707,0.400391 0.63086,-1.136719 -0.66797,-1.142578 z m -3.19726,1.611328 -0.56641,0.484375 -0.26758,2.326172 0.88672,0.52539 0.79492,-0.601562 -0.30078,-2.25 z"
         sodipodi:nodetypes="ccccccccccccccccccccccccccccc"
         inkscape:export-filename="/home/luzz/Downloads/rect32x32.png"
         inkscape:export-xdpi="96"
         inkscape:export-ydpi="96" />
      <g
         id="path20892"
         clip-path="none"
         inkscape:export-filename="/home/luzz/Desktop/rect16x16.png"
         inkscape:export-xdpi="96"
         inkscape:export-ydpi="96">
        <path
           style="color:#000000;fill:#000000;fill-opacity:0;stroke-width:0.6;-inkscape-stroke:none"
           d="m 424,141 -5,2 2,9 3,3 3,-3 2,-9 z"
           id="path25308" />
        <path
           style="color:#000000;fill:#ffffff;-inkscape-stroke:none"
           d="m 424,140.67773 -0.11133,0.043 -5.23633,2.09571 2.07422,9.33398 L 424,155 l 3.27344,-2.84958 2.07422,-9.33398 z m 0,1.32227 4,2 -1,8 -3,3 -3,-3 -1,-8 z"
           id="path25310"
           sodipodi:nodetypes="ccccccccccccccc" />
      </g>
      <path
         style="fill:none;stroke:#ffffff;stroke-width:1px;stroke-linecap:butt;stroke-linejoin:miter;stroke-opacity:1"
         d="m 428,122 5,-4 2,-13 -7,-3 -7,3 2,13 z"
         id="path28781"
         inkscape:export-filename="/home/luzz/Desktop/path4268.png"
         inkscape:export-xdpi="96"
         inkscape:export-ydpi="96" />
      <path
         id="path17960"
         style="display:inline;fill:#ffffff;fill-opacity:1;stroke:#b3b3b3;stroke-width:0.0207348;enable-background:new"
         d="m 427.95508,104.0918 c -0.008,0.008 -0.31341,0.52895 -0.67969,1.16015 -0.60402,1.04094 -0.66625,1.15461 -0.65625,1.22071 0.006,0.0401 0.22597,2.07302 0.48828,4.51757 0.46303,4.31497 0.47774,4.44653 0.52344,4.48243 l 0.20312,0.16211 0.16407,0.12695 0.20703,-0.1582 0.20508,-0.16016 c 0.003,-0.002 0.20622,-2.03841 0.45312,-4.52539 l 0.44922,-4.52149 -0.67188,-1.16015 c -0.36943,-0.63755 -0.67754,-1.15253 -0.68554,-1.14453 z M 425,115 v 1 1 l 2.44922,-0.37305 0.36914,-0.53125 -0.43555,-0.54882 z m 6,0 -2.32812,0.53711 -0.10938,0.0215 -0.37891,0.53711 0.39063,0.54883 L 431,117 v -1 z m -2.99414,1.44531 -0.42188,0.36133 L 427,119 h 1 0.92773 c 0.0166,-0.0284 0.0303,-0.0585 0.0488,-0.0859 l -0.56445,-2.10742 -0.18945,-0.17969 z"
         inkscape:export-filename="/home/luzz/Desktop/path4268.png"
         inkscape:export-xdpi="96"
         inkscape:export-ydpi="96" />
      <path
         style="opacity:0.585784;fill:#000000;fill-opacity:1;stroke:none;stroke-width:0;stroke-linecap:butt;stroke-linejoin:miter;stroke-miterlimit:4;stroke-dasharray:none;stroke-opacity:1;filter:url(#filter9403)"
         d="m 432,55.9 -9,4 -1,1 4,16 6,5 6,-5 4,-16 -1,-1 -9,-4 v 1 l 9,4 -4,15 -5,4 -5,-4 -4,-15 9,-4 z"
         id="path9383"
         sodipodi:nodetypes="ccccccccccccccccc"
         inkscape:export-filename="/home/luzz/Downloads/rect32x32.png"
         inkscape:export-xdpi="96"
         inkscape:export-ydpi="96" />
      <path
         style="fill:#ffffff;fill-opacity:1;stroke:none;stroke-width:0;stroke-linecap:butt;stroke-linejoin:miter;stroke-miterlimit:4;stroke-dasharray:none;stroke-opacity:1"
         d="m 432,55 -9,4 -1,1 4,16 6,5 6,-5 4,-16 -1,-1 -9,-4 v 1 l 9,4 -4,15 -5,4 -5,-4 -4,-15 9,-4 z"
         id="path31617"
         sodipodi:nodetypes="ccccccccccccccccc"
         inkscape:export-filename="/home/luzz/Downloads/rect32x32.png"
         inkscape:export-xdpi="96"
         inkscape:export-ydpi="96" />
      <path
         style="opacity:1;mix-blend-mode:normal;fill:none;stroke:#000000;stroke-width:0.3;stroke-linecap:butt;stroke-linejoin:miter;stroke-miterlimit:4;stroke-dasharray:none;stroke-opacity:1;filter:url(#filter37938)"
         d="m 299,232.70003 4,23 9,7 9,-7 4,-23"
         id="path36904"
         inkscape:export-filename="/home/luzz/Downloads/rect48x48.png"
         inkscape:export-xdpi="96"
         inkscape:export-ydpi="96" />
      <path
         style="display:inline;fill:#ffffff;fill-opacity:1;stroke:none;stroke-width:0;stroke-linecap:butt;stroke-linejoin:miter;stroke-miterlimit:4;stroke-dasharray:none;stroke-opacity:1;enable-background:new"
         d="m 312,226 -12,5 -1,1 4,23 9,7 9,-7 4,-23 -1,-1 -12,-5 v 1 l 12,5 -4,21 -8,6 -8,-6 -4,-21 12,-5 z"
         id="path31617-3"
         sodipodi:nodetypes="ccccccccccccccccc"
         inkscape:export-filename="/home/luzz/Downloads/rect48x48.png"
         inkscape:export-xdpi="96"
         inkscape:export-ydpi="96" />
    </g>
    <g
       inkscape:groupmode="layer"
       id="layer5"
       inkscape:label="Highlights"
       style="display:inline">
      <path
         style="color:#bebebe;display:inline;overflow:visible;visibility:visible;opacity:0.13;fill:#ffffff;fill-opacity:1;fill-rule:nonzero;stroke:none;stroke-width:0;marker:none;enable-background:accumulate"
         d="M 84,47 C 56.836703,47 35,68.836703 35,96 v 1 C 35,69.836703 56.836703,48 84,48 h 120 c 27.1633,0 49,21.836703 49,49 V 96 C 253,68.836703 231.1633,47 204,47 Z"
         id="rect3894"
         inkscape:connector-curvature="0"
         inkscape:export-filename="/home/luzz/Downloads/rect4040.png"
         inkscape:export-xdpi="96"
         inkscape:export-ydpi="96" />
      <path
         style="color:#bebebe;display:inline;overflow:visible;visibility:visible;opacity:0.13;fill:#ffffff;fill-opacity:1;fill-rule:nonzero;stroke:none;stroke-width:0;marker:none;enable-background:accumulate"
         d="m 419,141 c -1.1253,0 -2,0.8747 -2,2 v 1 c 0,-1.1253 0.8747,-2 2,-2 h 10 c 1.1253,0 2,0.8747 2,2 v -1 c 0,-1.1253 -0.8747,-2 -2,-2 z"
         id="rect3896"
         inkscape:connector-curvature="0"
         inkscape:export-filename="/home/luzz/Desktop/rect16x16.png"
         inkscape:export-xdpi="96"
         inkscape:export-ydpi="96" />
      <path
         style="color:#bebebe;display:inline;overflow:visible;visibility:visible;opacity:0.13;fill:#ffffff;fill-opacity:1;fill-rule:nonzero;stroke:none;stroke-width:0;marker:none;enable-background:accumulate"
         d="m 422,102 c -2.2333,0 -4,1.7667 -4,4 v 1 c 0,-2.2333 1.7667,-4 4,-4 h 12 c 2.2333,0 4,1.7667 4,4 v -1 c 0,-2.2333 -1.7667,-4 -4,-4 z"
         id="rect3898"
         inkscape:connector-curvature="0"
         inkscape:export-filename="/home/luzz/Desktop/path4268.png"
         inkscape:export-xdpi="96"
         inkscape:export-ydpi="96" />
      <path
         style="color:#bebebe;display:inline;overflow:visible;visibility:visible;opacity:0.13;fill:#ffffff;fill-opacity:1;fill-rule:nonzero;stroke:none;stroke-width:0;marker:none;enable-background:accumulate"
         d="m 424,54 c -3.3413,0 -6,2.658703 -6,6 v 1 c 0,-3.341297 2.6587,-6 6,-6 h 16 c 3.3413,0 6,2.658703 6,6 v -1 c 0,-3.341297 -2.6587,-6 -6,-6 z"
         id="rect3900"
         inkscape:connector-curvature="0"
         inkscape:export-filename="/home/luzz/Downloads/rect32x32.png"
         inkscape:export-xdpi="96"
         inkscape:export-ydpi="96" />
      <path
         style="color:#bebebe;display:inline;overflow:visible;visibility:visible;opacity:0.13;fill:#ffffff;fill-opacity:1;fill-rule:nonzero;stroke:none;stroke-width:0;marker:none;enable-background:accumulate"
         d="m 300,224 c -4.4493,0 -8,3.5507 -8,8 v 1 c 0,-4.4493 3.5507,-8 8,-8 h 24 c 4.4493,0 8,3.5507 8,8 v -1 c 0,-4.4493 -3.5507,-8 -8,-8 z"
         id="rect3902"
         inkscape:connector-curvature="0"
         inkscape:export-filename="/home/luzz/Downloads/rect48x48.png"
         inkscape:export-xdpi="96"
         inkscape:export-ydpi="96" />
      <path
         style="color:#bebebe;display:inline;overflow:visible;visibility:visible;opacity:0.13;fill:#ffffff;fill-opacity:1;fill-rule:nonzero;stroke:none;stroke-width:0;marker:none;enable-background:accumulate"
         d="m 310,33 c -9.4353,0 -17,7.564703 -17,17 v 1 c 0,-9.435297 7.5647,-17 17,-17 h 52 c 9.4353,0 17,7.564703 17,17 v -1 c 0,-9.435297 -7.5647,-17 -17,-17 z"
         id="rect3904"
         inkscape:connector-curvature="0"
         inkscape:export-filename="/home/luzz/Downloads/rect96x96.png"
         inkscape:export-xdpi="96"
         inkscape:export-ydpi="96" />
      <path
         style="color:#bebebe;display:inline;overflow:visible;visibility:visible;opacity:0.13;fill:#ffffff;fill-opacity:1;fill-rule:nonzero;stroke:none;stroke-width:0;marker:none;enable-background:accumulate"
         d="m 302.5,143 c -6.3883,0 -11.5,5.1117 -11.5,11.5 v 1 c 0,-6.3883 5.1117,-11.5 11.5,-11.5 h 35 c 6.3883,0 11.5,5.1117 11.5,11.5 v -1 c 0,-6.3883 -5.1117,-11.5 -11.5,-11.5 z"
         id="rect3906"
         inkscape:connector-curvature="0"
         inkscape:export-filename="/home/luzz/Downloads/rect64x64.png"
         inkscape:export-xdpi="96"
         inkscape:export-ydpi="96" />
      <path
         id="path4085"
         d="m 204,266 c 27.1633,0 49,-21.8367 49,-49 v -1 c 0,27.1633 -21.8367,49 -49,49 H 84 C 56.8367,265 35,243.1633 35,216 v 1 c 0,27.1633 21.8367,49 49,49 z"
         style="color:#bebebe;display:inline;overflow:visible;visibility:visible;opacity:0.41;fill:#000000;fill-opacity:1;fill-rule:nonzero;stroke:none;stroke-width:0;marker:none;enable-background:accumulate"
         inkscape:connector-curvature="0"
         inkscape:export-filename="/home/luzz/Downloads/rect4040.png"
         inkscape:export-xdpi="96"
         inkscape:export-ydpi="96" />
      <path
         id="path4087"
         d="m 429,156 c 1.1253,0 2,-0.8747 2,-2 v -1 c 0,1.1253 -0.8747,2 -2,2 h -10 c -1.1253,0 -2,-0.8747 -2,-2 v 1 c 0,1.1253 0.8747,2 2,2 z"
         style="color:#bebebe;display:inline;overflow:visible;visibility:visible;opacity:0.3;fill:#000000;fill-opacity:1;fill-rule:nonzero;stroke:none;stroke-width:0;marker:none;enable-background:accumulate"
         inkscape:connector-curvature="0"
         inkscape:export-filename="/home/luzz/Desktop/rect16x16.png"
         inkscape:export-xdpi="96"
         inkscape:export-ydpi="96" />
      <path
         id="path4089"
         d="m 434,123 c 2.2333,0 4,-1.7667 4,-4 v -1 c 0,2.2333 -1.7667,4 -4,4 h -12 c -2.2333,0 -4,-1.7667 -4,-4 v 1 c 0,2.2333 1.7667,4 4,4 z"
         style="color:#bebebe;display:inline;overflow:visible;visibility:visible;opacity:0.3;fill:#000000;fill-opacity:1;fill-rule:nonzero;stroke:none;stroke-width:0;marker:none;enable-background:accumulate"
         inkscape:connector-curvature="0"
         inkscape:export-filename="/home/luzz/Desktop/path4268.png"
         inkscape:export-xdpi="96"
         inkscape:export-ydpi="96" />
      <path
         id="path4091"
         d="m 440,83 c 3.3413,0 6,-2.6587 6,-6 v -1 c 0,3.3413 -2.6587,6 -6,6 h -16 c -3.3413,0 -6,-2.6587 -6,-6 v 1 c 0,3.3413 2.6587,6 6,6 z"
         style="color:#bebebe;display:inline;overflow:visible;visibility:visible;opacity:0.41;fill:#000000;fill-opacity:1;fill-rule:nonzero;stroke:none;stroke-width:0;marker:none;enable-background:accumulate"
         inkscape:connector-curvature="0"
         inkscape:export-filename="/home/luzz/Downloads/rect32x32.png"
         inkscape:export-xdpi="96"
         inkscape:export-ydpi="96" />
      <path
         id="path4093"
         d="m 324,265 c 4.4493,0 8,-3.5507 8,-8 v -1 c 0,4.4493 -3.5507,8 -8,8 h -24 c -4.4493,0 -8,-3.5507 -8,-8 v 1 c 0,4.4493 3.5507,8 8,8 z"
         style="color:#bebebe;display:inline;overflow:visible;visibility:visible;opacity:0.41;fill:#000000;fill-opacity:1;fill-rule:nonzero;stroke:none;stroke-width:0;marker:none;enable-background:accumulate"
         inkscape:connector-curvature="0"
         inkscape:export-filename="/home/luzz/Downloads/rect48x48.png"
         inkscape:export-xdpi="96"
         inkscape:export-ydpi="96" />
      <path
         id="path4095"
         d="m 362,120 c 9.4353,0 17,-7.5647 17,-17 v -1 c 0,9.4353 -7.5647,17 -17,17 h -52 c -9.4353,0 -17,-7.5647 -17,-17 v 1 c 0,9.4353 7.5647,17 17,17 z"
         style="color:#bebebe;display:inline;overflow:visible;visibility:visible;opacity:0.41;fill:#000000;fill-opacity:1;fill-rule:nonzero;stroke:none;stroke-width:0;marker:none;enable-background:accumulate"
         inkscape:connector-curvature="0"
         inkscape:export-filename="/home/luzz/Downloads/rect96x96.png"
         inkscape:export-xdpi="96"
         inkscape:export-ydpi="96" />
      <path
         id="path4097"
         d="m 337.5,202 c 6.3883,0 11.5,-5.1117 11.5,-11.5 v -1 c 0,6.3883 -5.1117,11.5 -11.5,11.5 h -35 c -6.3883,0 -11.5,-5.1117 -11.5,-11.5 v 1 c 0,6.3883 5.1117,11.5 11.5,11.5 z"
         style="color:#bebebe;display:inline;overflow:visible;visibility:visible;opacity:0.41;fill:#000000;fill-opacity:1;fill-rule:nonzero;stroke:none;stroke-width:0;marker:none;enable-background:accumulate"
         inkscape:connector-curvature="0"
         inkscape:export-filename="/home/luzz/Downloads/rect64x64.png"
         inkscape:export-xdpi="96"
         inkscape:export-ydpi="96" />
      <path
         inkscape:connector-curvature="0"
         id="path4280"
         d="M 84,265 C 56.836703,265 35,243.1633 35,216 v -1 c 0,27.1633 21.836703,49 49,49 h 120 c 27.1633,0 49,-21.8367 49,-49 v 1 c 0,27.1633 -21.8367,49 -49,49 z"
         style="color:#bebebe;display:inline;overflow:visible;visibility:visible;opacity:0.1;fill:#ffffff;fill-opacity:1;fill-rule:nonzero;stroke:none;stroke-width:0;marker:none;enable-background:accumulate"
         inkscape:export-filename="/home/luzz/Downloads/rect4040.png"
         inkscape:export-xdpi="96"
         inkscape:export-ydpi="96" />
      <path
         style="color:#bebebe;display:inline;overflow:visible;visibility:visible;opacity:0.1;fill:#ffffff;fill-opacity:1;fill-rule:nonzero;stroke:none;stroke-width:0;marker:none;enable-background:accumulate"
         d="m 300,264 c -4.4493,0 -8,-3.5507 -8,-8 v -1 c 0,4.4493 3.5507,8 8,8 h 24 c 4.4493,0 8,-3.5507 8,-8 v 1 c 0,4.4493 -3.5507,8 -8,8 z"
         id="path4294"
         inkscape:connector-curvature="0"
         inkscape:export-filename="/home/luzz/Downloads/rect48x48.png"
         inkscape:export-xdpi="96"
         inkscape:export-ydpi="96" />
      <path
         style="color:#bebebe;display:inline;overflow:visible;visibility:visible;opacity:0.1;fill:#ffffff;fill-opacity:1;fill-rule:nonzero;stroke:none;stroke-width:0;marker:none;enable-background:accumulate"
         d="m 302.5,201 c -6.3883,0 -11.5,-5.1117 -11.5,-11.5 v -1 c 0,6.3883 5.1117,11.5 11.5,11.5 h 35 c 6.3883,0 11.5,-5.1117 11.5,-11.5 v 1 c 0,6.3883 -5.1117,11.5 -11.5,11.5 z"
         id="path4296"
         inkscape:connector-curvature="0"
         inkscape:export-filename="/home/luzz/Downloads/rect64x64.png"
         inkscape:export-xdpi="96"
         inkscape:export-ydpi="96" />
      <path
         style="color:#bebebe;display:inline;overflow:visible;visibility:visible;opacity:0.1;fill:#ffffff;fill-opacity:1;fill-rule:nonzero;stroke:none;stroke-width:0;marker:none;enable-background:accumulate"
         d="m 310,119 c -9.4353,0 -17,-7.5647 -17,-17 v -1 c 0,9.4353 7.5647,17 17,17 h 52 c 9.4353,0 17,-7.5647 17,-17 v 1 c 0,9.4353 -7.5647,17 -17,17 z"
         id="path4298"
         inkscape:connector-curvature="0"
         inkscape:export-filename="/home/luzz/Downloads/rect96x96.png"
         inkscape:export-xdpi="96"
         inkscape:export-ydpi="96" />
      <path
         style="color:#bebebe;display:inline;overflow:visible;visibility:visible;opacity:0.1;fill:#ffffff;fill-opacity:1;fill-rule:nonzero;stroke:none;stroke-width:0;marker:none;enable-background:accumulate"
         d="m 424,82 c -3.3413,0 -6,-2.658703 -6,-6 v -1 c 0,3.341297 2.6587,6 6,6 h 16 c 3.3413,0 6,-2.658703 6,-6 v 1 c 0,3.341297 -2.6587,6 -6,6 z"
         id="path4300"
         inkscape:connector-curvature="0"
         inkscape:export-filename="/home/luzz/Downloads/rect32x32.png"
         inkscape:export-xdpi="96"
         inkscape:export-ydpi="96" />
      <path
         style="color:#bebebe;display:inline;overflow:visible;visibility:visible;opacity:0.1;fill:#ffffff;fill-opacity:1;fill-rule:nonzero;stroke:none;stroke-width:0;marker:none;enable-background:accumulate"
         d="m 422,122 c -2.2333,0 -4,-1.7667 -4,-4 v -1 c 0,2.2333 1.7667,4 4,4 h 12 c 2.2333,0 4,-1.7667 4,-4 v 1 c 0,2.2333 -1.7667,4 -4,4 z"
         id="path4302"
         inkscape:connector-curvature="0"
         inkscape:export-filename="/home/luzz/Desktop/path4268.png"
         inkscape:export-xdpi="96"
         inkscape:export-ydpi="96" />
      <path
         style="color:#bebebe;display:inline;overflow:visible;visibility:visible;opacity:0.1;fill:#ffffff;fill-opacity:1;fill-rule:nonzero;stroke:none;stroke-width:0;marker:none;enable-background:accumulate"
         d="m 419,154.5 c -1.1253,0 -2,-0.8747 -2,-2 v -1 c 0,1.1253 0.8747,2 2,2 h 10 c 1.1253,0 2,-0.8747 2,-2 v 1 c 0,1.1253 -0.8747,2 -2,2 z"
         id="path4304"
         inkscape:connector-curvature="0"
         inkscape:export-filename="/home/luzz/Desktop/rect16x16.png"
         inkscape:export-xdpi="96"
         inkscape:export-ydpi="96" />
    </g>
    <g
       inkscape:groupmode="layer"
       id="layer3"
       inkscape:label="Border"
       style="display:inline">
      <path
         style="color:#bebebe;display:inline;overflow:visible;visibility:visible;opacity:0.41;fill:#000000;fill-opacity:1;fill-rule:nonzero;stroke:none;stroke-width:0;marker:none;enable-background:accumulate"
         d="m 422,101 c -2.77,0 -5,2.23 -5,5 v 12 c 0,2.77 2.23,5 5,5 h 12 c 2.77,0 5,-2.23 5,-5 v -12 c 0,-2.77 -2.23,-5 -5,-5 z m 0,1 h 12 c 2.2333,0 4,1.7667 4,4 v 12 c 0,2.2333 -1.7667,4 -4,4 h -12 c -2.2333,0 -4,-1.7667 -4,-4 v -12 c 0,-2.2333 1.7667,-4 4,-4 z"
         id="rect4099"
         inkscape:connector-curvature="0"
         inkscape:export-filename="/home/luzz/Desktop/path4268.png"
         inkscape:export-xdpi="96"
         inkscape:export-ydpi="96" />
      <path
         style="color:#bebebe;display:inline;overflow:visible;visibility:visible;opacity:0.41;fill:#000000;fill-opacity:1;fill-rule:nonzero;stroke:none;stroke-width:0;marker:none;enable-background:accumulate"
         d="m 424,53 c -3.878,0 -7,3.122 -7,7 v 16 c 0,3.878 3.122,7 7,7 h 16 c 3.878,0 7,-3.122 7,-7 V 60 c 0,-3.878 -3.122,-7 -7,-7 z m 0,1 h 16 c 3.3413,0 6,2.658703 6,6 v 16 c 0,3.341297 -2.6587,6 -6,6 h -16 c -3.3413,0 -6,-2.658703 -6,-6 V 60 c 0,-3.341297 2.6587,-6 6,-6 z"
         id="rect4151"
         inkscape:connector-curvature="0"
         inkscape:export-filename="/home/luzz/Downloads/rect32x32.png"
         inkscape:export-xdpi="96"
         inkscape:export-ydpi="96" />
      <path
         style="color:#bebebe;display:inline;overflow:visible;visibility:visible;opacity:0.41;fill:#000000;fill-opacity:1;fill-rule:nonzero;stroke:none;stroke-width:0;marker:none;enable-background:accumulate"
         d="m 419,140 c -1.662,0 -3,1.338 -3,3 v 10 c 0,1.662 1.338,3 3,3 h 10 c 1.662,0 3,-1.338 3,-3 v -10 c 0,-1.662 -1.338,-3 -3,-3 z m 0,1 h 10 c 1.1253,0 2,0.8747 2,2 v 10 c 0,1.1253 -0.8747,2 -2,2 h -10 c -1.1253,0 -2,-0.8747 -2,-2 v -10 c 0,-1.1253 0.8747,-2 2,-2 z"
         id="rect4095"
         inkscape:connector-curvature="0"
         inkscape:export-filename="/home/luzz/Desktop/rect16x16.png"
         inkscape:export-xdpi="96"
         inkscape:export-ydpi="96" />
      <path
         style="color:#bebebe;display:inline;overflow:visible;visibility:visible;opacity:0.41;fill:#000000;fill-opacity:1;fill-rule:nonzero;stroke:none;stroke-width:0;marker:none;enable-background:accumulate"
         d="m 300,223 c -4.986,0 -9,4.014 -9,9 v 24 c 0,4.986 4.014,9 9,9 h 24 c 4.986,0 9,-4.014 9,-9 v -24 c 0,-4.986 -4.014,-9 -9,-9 z m 0,1 h 24 c 4.4493,0 8,3.5507 8,8 v 24 c 0,4.4493 -3.5507,8 -8,8 h -24 c -4.4493,0 -8,-3.5507 -8,-8 v -24 c 0,-4.4493 3.5507,-8 8,-8 z"
         id="rect4783"
         inkscape:connector-curvature="0"
         inkscape:export-filename="/home/luzz/Downloads/rect48x48.png"
         inkscape:export-xdpi="96"
         inkscape:export-ydpi="96" />
      <path
         style="color:#bebebe;display:inline;overflow:visible;visibility:visible;opacity:0.41;fill:#000000;fill-opacity:1;fill-rule:nonzero;stroke:none;stroke-width:0;marker:none;enable-background:accumulate"
         d="m 302.5,142 c -6.925,0 -12.5,5.575 -12.5,12.5 v 35 c 0,6.925 5.575,12.5 12.5,12.5 h 35 c 6.925,0 12.5,-5.575 12.5,-12.5 v -35 c 0,-6.925 -5.575,-12.5 -12.5,-12.5 z m 0,1 h 35 c 6.3883,0 11.5,5.1117 11.5,11.5 v 35 c 0,6.3883 -5.1117,11.5 -11.5,11.5 h -35 c -6.3883,0 -11.5,-5.1117 -11.5,-11.5 v -35 c 0,-6.3883 5.1117,-11.5 11.5,-11.5 z"
         id="rect4515"
         inkscape:connector-curvature="0"
         inkscape:export-filename="/home/luzz/Downloads/rect64x64.png"
         inkscape:export-xdpi="96"
         inkscape:export-ydpi="96" />
      <path
         style="color:#bebebe;display:inline;overflow:visible;visibility:visible;opacity:0.41;fill:#000000;fill-opacity:1;fill-rule:nonzero;stroke:none;stroke-width:0;marker:none;enable-background:accumulate"
         d="m 310,32 c -9.972,0 -18,8.028 -18,18 v 52 c 0,9.972 8.028,18 18,18 h 52 c 9.972,0 18,-8.028 18,-18 V 50 c 0,-9.972 -8.028,-18 -18,-18 z m 0,1 h 52 c 9.4353,0 17,7.564703 17,17 v 52 c 0,9.4353 -7.5647,17 -17,17 h -52 c -9.4353,0 -17,-7.5647 -17,-17 V 50 c 0,-9.435297 7.5647,-17 17,-17 z"
         id="rect4511"
         inkscape:connector-curvature="0"
         inkscape:export-filename="/home/luzz/Downloads/rect96x96.png"
         inkscape:export-xdpi="96"
         inkscape:export-ydpi="96" />
      <path
         style="color:#bebebe;display:inline;overflow:visible;visibility:visible;opacity:0.41;fill:#000000;fill-opacity:1;fill-rule:nonzero;stroke:none;stroke-width:0;marker:none;enable-background:accumulate"
         d="M 84,46 C 56.3,46 34,68.3 34,96 v 120 c 0,27.7 22.3,50 50,50 h 120 c 27.7,0 50,-22.3 50,-50 V 96 C 254,68.3 231.7,46 204,46 Z m 0,1 h 120 c 27.1633,0 49,21.836703 49,49 v 120 c 0,27.1633 -21.8367,49 -49,49 H 84 C 56.836703,265 35,243.1633 35,216 V 96 C 35,68.836703 56.836703,47 84,47 Z"
         id="rect4040"
         inkscape:connector-curvature="0"
         inkscape:export-filename="/home/luzz/Downloads/rect4040.png"
         inkscape:export-xdpi="96"
         inkscape:export-ydpi="96" />
    </g>
  </g>
</svg>
