<?xml version="1.0" encoding="UTF-8" standalone="no"?>
<!-- Created with Inkscape (http://www.inkscape.org/) -->

<svg
   xmlns:dc="http://purl.org/dc/elements/1.1/"
   xmlns:cc="http://creativecommons.org/ns#"
   xmlns:rdf="http://www.w3.org/1999/02/22-rdf-syntax-ns#"
   xmlns:svg="http://www.w3.org/2000/svg"
   xmlns="http://www.w3.org/2000/svg"
   xmlns:xlink="http://www.w3.org/1999/xlink"
   xmlns:sodipodi="http://sodipodi.sourceforge.net/DTD/sodipodi-0.dtd"
   xmlns:inkscape="http://www.inkscape.org/namespaces/inkscape"
   inkscape:export-ydpi="90.000000"
   inkscape:export-xdpi="90.000000"
   width="480"
   height="300"
   id="svg11300"
   sodipodi:version="0.32"
   inkscape:version="0.91 r13725"
   sodipodi:docname="evince.svg"
   inkscape:output_extension="org.inkscape.output.svg.inkscape"
   version="1.0"
   style="display:inline;enable-background:new"
   inkscape:export-filename="/home/sam/moka-next-template.png">
  <sodipodi:namedview
     stroke="#ef2929"
     fill="#f57900"
     id="base"
     pagecolor="#777777"
     bordercolor="#666666"
     borderopacity="0.25490196"
     inkscape:pageopacity="0"
     inkscape:pageshadow="2"
     inkscape:zoom="1"
     inkscape:cx="205.68608"
     inkscape:cy="-48.342497"
     inkscape:current-layer="layer2"
     showgrid="false"
     inkscape:grid-bbox="true"
     inkscape:document-units="px"
     inkscape:showpageshadow="false"
     inkscape:window-width="1920"
     inkscape:window-height="1026"
     inkscape:window-x="0"
     inkscape:window-y="0"
     width="400px"
     height="300px"
     inkscape:snap-nodes="true"
     inkscape:snap-bbox="true"
     gridtolerance="10000"
     inkscape:object-nodes="true"
     inkscape:snap-grids="true"
     showguides="true"
     inkscape:guide-bbox="true"
     inkscape:window-maximized="1"
     inkscape:bbox-nodes="true"
     inkscape:bbox-paths="true"
     inkscape:snap-bbox-edge-midpoints="true"
     inkscape:snap-bbox-midpoints="true">
    <inkscape:grid
       spacingy="1px"
       spacingx="1px"
       id="grid5883"
       type="xygrid"
       enabled="true"
       visible="true"
       empspacing="4"
       snapvisiblegridlinesonly="true"
       dotted="false"
       color="#000000"
       opacity="0.1254902"
       empcolor="#203ef3"
       empopacity="0.36470588" />
    <inkscape:grid
       type="xygrid"
       id="grid11592"
       empspacing="8"
       visible="true"
       enabled="false"
       spacingx="0.5px"
       spacingy="0.5px"
       color="#ff0000"
       opacity="0.1254902"
       empcolor="#ff0000"
       empopacity="0.25098039"
       snapvisiblegridlinesonly="true"
       dotted="true" />
  </sodipodi:namedview>
  <defs
     id="defs3">
    <linearGradient
       id="linearGradient4436">
      <stop
         id="stop4438"
         offset="0"
         style="stop-color:#cc0000;stop-opacity:1" />
      <stop
         id="stop4440"
         offset="1"
         style="stop-color:#ea6363;stop-opacity:1" />
    </linearGradient>
    <linearGradient
       inkscape:collect="always"
       xlink:href="#linearGradient4436"
       id="linearGradient4254"
       x1="35"
       y1="156"
       x2="253"
       y2="156"
       gradientUnits="userSpaceOnUse"
       gradientTransform="matrix(0,-1,1,0,-12,300)" />
    <linearGradient
       inkscape:collect="always"
       xlink:href="#linearGradient4436"
       id="linearGradient4256"
       x1="417"
       y1="148"
       x2="431"
       y2="148"
       gradientUnits="userSpaceOnUse"
       gradientTransform="matrix(0,-1,1,0,276,572)" />
    <linearGradient
       inkscape:collect="always"
       xlink:href="#linearGradient4436"
       id="linearGradient4260"
       x1="418"
       y1="68"
       x2="446"
       y2="68"
       gradientUnits="userSpaceOnUse"
       gradientTransform="matrix(0,-1,1,0,364,500)" />
    <linearGradient
       inkscape:collect="always"
       xlink:href="#linearGradient4436"
       id="linearGradient4262"
       x1="292"
       y1="244"
       x2="332"
       y2="244"
       gradientUnits="userSpaceOnUse"
       gradientTransform="matrix(0,-1,1,0,68,556)" />
    <linearGradient
       inkscape:collect="always"
       xlink:href="#linearGradient4436"
       id="linearGradient4264"
       x1="293"
       y1="76"
       x2="379"
       y2="76"
       gradientUnits="userSpaceOnUse"
       gradientTransform="matrix(0,-1,1,0,260,412)" />
    <linearGradient
       inkscape:collect="always"
       xlink:href="#linearGradient4436"
       id="linearGradient4266"
       x1="291"
       y1="172"
       x2="349"
       y2="172"
       gradientUnits="userSpaceOnUse"
       gradientTransform="matrix(0,-1,1,0,148,492)" />
    <linearGradient
       inkscape:collect="always"
       xlink:href="#linearGradient4436"
       id="linearGradient3870"
       gradientUnits="userSpaceOnUse"
       gradientTransform="matrix(0,-1,1,0,316,540)"
       x1="418"
       y1="112"
       x2="438"
       y2="112" />
    <linearGradient
       id="outerBackgroundGradient-5">
      <stop
         style="stop-color:#e51f38;stop-opacity:1"
         offset="0"
         id="stop3864-8-6-1" />
      <stop
         style="stop-color:#fb4158;stop-opacity:1"
         offset="1"
         id="stop3866-9-1-6" />
    </linearGradient>
  </defs>
  <metadata
     id="metadata4">
    <rdf:RDF>
      <cc:Work
         rdf:about="">
        <dc:format>image/svg+xml</dc:format>
        <dc:type
           rdf:resource="http://purl.org/dc/dcmitype/StillImage" />
        <dc:creator>
          <cc:Agent>
            <dc:title>Sam Hewitt</dc:title>
          </cc:Agent>
        </dc:creator>
        <dc:source />
        <cc:license
           rdf:resource="" />
        <dc:title />
        <dc:subject>
          <rdf:Bag />
        </dc:subject>
        <dc:date />
        <dc:rights>
          <cc:Agent>
            <dc:title />
          </cc:Agent>
        </dc:rights>
        <dc:publisher>
          <cc:Agent>
            <dc:title />
          </cc:Agent>
        </dc:publisher>
        <dc:identifier />
        <dc:relation />
        <dc:language />
        <dc:coverage />
        <dc:description />
        <dc:contributor>
          <cc:Agent>
            <dc:title />
          </cc:Agent>
        </dc:contributor>
      </cc:Work>
      <cc:Work
         rdf:about="">
        <dc:format>image/svg+xml</dc:format>
        <dc:type
           rdf:resource="http://purl.org/dc/dcmitype/StillImage" />
      </cc:Work>
    </rdf:RDF>
  </metadata>
  <g
     style="display:inline"
     inkscape:groupmode="layer"
     inkscape:label="Icon"
     id="layer1">
    <g
       style="display:none"
       inkscape:label="Baseplate"
       id="layer7"
       inkscape:groupmode="layer">
      <text
         y="19.745117"
         xml:space="preserve"
         x="15.006836"
         style="font-style:normal;font-variant:normal;font-weight:normal;font-stretch:normal;line-height:0%;font-family:'DejaVu Sans';-inkscape-font-specification:'DejaVu Sans';display:inline;fill:#000000;fill-opacity:1;stroke:none;enable-background:new"
         inkscape:label="context"
         id="context"><tspan
           style="font-style:normal;font-variant:normal;font-weight:normal;font-stretch:normal;font-size:18px;line-height:1.25;font-family:'DejaVu Sans';-inkscape-font-specification:'DejaVu Sans'"
           y="19.745117"
           x="15.006836"
           sodipodi:role="line"
           id="tspan3933">apps</tspan></text>
      <text
         y="19.745117"
         xml:space="preserve"
         x="122.48828"
         style="font-style:normal;font-variant:normal;font-weight:bold;font-stretch:normal;line-height:0%;font-family:'DejaVu Sans';-inkscape-font-specification:'DejaVu Sans Bold';text-align:start;writing-mode:lr-tb;text-anchor:start;display:inline;fill:#000000;fill-opacity:1;stroke:none;enable-background:new"
         inkscape:label="icon-name"
         id="icon-name"><tspan
           style="font-style:normal;font-variant:normal;font-weight:bold;font-stretch:normal;font-size:18px;line-height:1.25;font-family:'DejaVu Sans';-inkscape-font-specification:'DejaVu Sans Bold'"
           y="19.745117"
           x="122.48828"
           sodipodi:role="line"
           id="tspan3937">evince</tspan></text>
      <rect
         style="fill:#eeeeec;fill-opacity:1;fill-rule:nonzero;stroke:none;stroke-width:2;marker:none;visibility:visible;display:inline;overflow:visible;enable-background:accumulate"
         id="rect16x16"
         width="16"
         height="16"
         x="416"
         y="140"
         inkscape:label="16x16" />
      <rect
         style="fill:#d4d4d4;fill-opacity:1;fill-rule:nonzero;stroke:none;stroke-width:2;marker:none;visibility:visible;display:inline;overflow:visible;enable-background:accumulate"
         id="rect24x24"
         width="24"
         height="24"
         x="416"
         y="100"
         inkscape:label="24x24" />
      <rect
         style="fill:#eeeeec;fill-opacity:1;fill-rule:nonzero;stroke:none;stroke-width:2;marker:none;visibility:visible;display:inline;overflow:visible;enable-background:accumulate"
         id="rect32x32"
         width="32"
         height="32"
         x="416"
         y="52"
         inkscape:label="32x32" />
      <rect
         inkscape:label="22x22"
         y="101"
         x="417"
         height="22"
         width="22"
         id="rect22x22"
         style="fill:#eeeeec;fill-opacity:1;fill-rule:nonzero;stroke:none;stroke-width:2;marker:none;visibility:visible;display:inline;overflow:visible;enable-background:accumulate" />
      <rect
         inkscape:label="48x48"
         y="220"
         x="288"
         height="48"
         width="48"
         id="rect48x48"
         style="fill:#eeeeec;fill-opacity:1;fill-rule:nonzero;stroke:none;stroke-width:2;marker:none;visibility:visible;display:inline;overflow:visible;enable-background:accumulate" />
      <rect
         style="fill:#eeeeec;fill-opacity:1;fill-rule:nonzero;stroke:none;stroke-width:2;marker:none;visibility:visible;display:inline;overflow:visible;enable-background:accumulate"
         id="rect256x256"
         width="256"
         height="256"
         x="16"
         y="28"
         inkscape:label="256x256" />
      <rect
         style="fill:#eeeeec;fill-opacity:1;fill-rule:nonzero;stroke:none;stroke-width:2;marker:none;visibility:visible;display:inline;overflow:visible;enable-background:accumulate"
         id="rect64x64"
         width="64"
         height="64"
         x="288"
         y="140"
         inkscape:label="64x64" />
      <rect
         style="fill:#eeeeec;fill-opacity:1;fill-rule:nonzero;stroke:none;stroke-width:2;marker:none;visibility:visible;display:inline;overflow:visible;enable-background:accumulate"
         id="rect96x96"
         width="96"
         height="96"
         x="288"
         y="28"
         inkscape:label="96x96" />
    </g>
    <g
       inkscape:groupmode="layer"
       id="layer4"
       inkscape:label="Shadow"
       style="display:inline"
       sodipodi:insensitive="true">
      <rect
         ry="50"
         y="47"
         x="34"
         height="220"
         width="220"
         id="rect4114"
         style="opacity:0.1;color:#bebebe;fill:#000000;fill-opacity:1;fill-rule:nonzero;stroke:none;stroke-width:0;marker:none;visibility:visible;display:inline;overflow:visible;enable-background:accumulate" />
      <rect
         style="opacity:0.1;color:#bebebe;fill:#000000;fill-opacity:1;fill-rule:nonzero;stroke:none;stroke-width:0;marker:none;visibility:visible;display:inline;overflow:visible;enable-background:accumulate"
         id="rect4120"
         width="30"
         height="30"
         x="417"
         y="54"
         ry="7" />
      <rect
         transform="scale(1,-1)"
         ry="9"
         y="-266"
         x="291"
         height="42"
         width="42"
         id="rect4122"
         style="opacity:0.1;color:#bebebe;fill:#000000;fill-opacity:1;fill-rule:nonzero;stroke:none;stroke-width:0;marker:none;visibility:visible;display:inline;overflow:visible;enable-background:accumulate" />
      <rect
         style="opacity:0.1;color:#bebebe;fill:#000000;fill-opacity:1;fill-rule:nonzero;stroke:none;stroke-width:0;marker:none;visibility:visible;display:inline;overflow:visible;enable-background:accumulate"
         id="rect4124"
         width="88"
         height="88"
         x="292"
         y="33"
         ry="18" />
      <rect
         ry="12.5"
         y="143"
         x="290"
         height="60"
         width="60"
         id="rect4126"
         style="opacity:0.1;color:#bebebe;fill:#000000;fill-opacity:1;fill-rule:nonzero;stroke:none;stroke-width:0;marker:none;visibility:visible;display:inline;overflow:visible;enable-background:accumulate" />
      <path
         id="path4268"
         d="m 422,101 c -2.77,0 -5,2.23 -5,5 l 0,12 c 0,2.77 2.23,5 5,5 l 12,0 c 2.77,0 5,-2.23 5,-5 l 0,-12 c 0,-2.77 -2.23,-5 -5,-5 z"
         style="opacity:0.1;color:#bebebe;fill:#000000;fill-opacity:1;fill-rule:nonzero;stroke:none;stroke-width:0;marker:none;visibility:visible;display:inline;overflow:visible;enable-background:accumulate"
         inkscape:connector-curvature="0"
         sodipodi:nodetypes="sssssssss" />
      <path
         id="path4270"
         d="m 419,140 c -1.662,0 -3,1.338 -3,3 l 0,10 c 0,1.662 1.338,3 3,3 l 10,0 c 1.662,0 3,-1.338 3,-3 l 0,-10 c 0,-1.662 -1.338,-3 -3,-3 z"
         style="opacity:0.1;color:#bebebe;fill:#000000;fill-opacity:1;fill-rule:nonzero;stroke:none;stroke-width:0;marker:none;visibility:visible;display:inline;overflow:visible;enable-background:accumulate"
         inkscape:connector-curvature="0"
         sodipodi:nodetypes="sssssssss" />
    </g>
    <g
       inkscape:groupmode="layer"
       id="layer2"
       inkscape:label="Background"
       style="display:inline">
      <path
         style="color:#bebebe;fill:url(#linearGradient4254);fill-opacity:1.0;fill-rule:nonzero;stroke:none;stroke-width:2;marker:none;visibility:visible;display:inline;overflow:visible;enable-background:accumulate"
         d="M 84 46.5 C 56.568735 46.5 34.5 68.568732 34.5 96 L 34.5 216 C 34.5 243.43127 56.568735 265.5 84 265.5 L 204 265.5 C 231.43127 265.5 253.5 243.43127 253.5 216 L 253.5 96 C 253.5 68.568732 231.43127 46.5 204 46.5 L 84 46.5 z "
         id="path4200" />
      <path
         style="color:#bebebe;fill:url(#linearGradient4256);fill-opacity:1.0;fill-rule:nonzero;stroke:none;stroke-width:2;marker:none;visibility:visible;display:inline;overflow:visible;enable-background:accumulate"
         d="M 419 140.5 C 417.6156 140.5 416.5 141.6156 416.5 143 L 416.5 153 C 416.5 154.3844 417.6156 155.5 419 155.5 L 429 155.5 C 430.3844 155.5 431.5 154.3844 431.5 153 L 431.5 143 C 431.5 141.6156 430.3844 140.5 429 140.5 L 419 140.5 z "
         id="path4202" />
      <path
         style="color:#bebebe;fill:url(#linearGradient3870);fill-opacity:1.0;fill-rule:nonzero;stroke:none;stroke-width:2;marker:none;visibility:visible;display:inline;overflow:visible;enable-background:accumulate"
         d="M 422 101.5 C 419.50301 101.5 417.5 103.50301 417.5 106 L 417.5 118 C 417.5 120.49699 419.50301 122.5 422 122.5 L 434 122.5 C 436.49699 122.5 438.5 120.49699 438.5 118 L 438.5 106 C 438.5 103.50301 436.49699 101.5 434 101.5 L 422 101.5 z "
         id="path4204" />
      <path
         style="color:#bebebe;display:inline;overflow:visible;visibility:visible;fill:url(#linearGradient4260);fill-opacity:1.0;fill-rule:nonzero;stroke:none;stroke-width:2;marker:none;enable-background:accumulate"
         d="m 424,53.5 c -3.60654,0 -6.5,2.893464 -6.5,6.5 l 0,16 c 0,3.606536 2.89346,6.5 6.5,6.5 l 16,0 c 3.60654,0 6.5,-2.893464 6.5,-6.5 l 0,-16 c 0,-3.606536 -2.89346,-6.5 -6.5,-6.5 l -16,0 z"
         id="path4206"
         inkscape:connector-curvature="0" />
      <path
         style="color:#bebebe;fill:url(#linearGradient4262);fill-opacity:1.0;fill-rule:nonzero;stroke:none;stroke-width:2;marker:none;visibility:visible;display:inline;overflow:visible;enable-background:accumulate"
         d="M 300 223.5 C 295.28469 223.5 291.5 227.28469 291.5 232 L 291.5 256 C 291.5 260.71531 295.28469 264.5 300 264.5 L 324 264.5 C 328.71531 264.5 332.5 260.71531 332.5 256 L 332.5 232 C 332.5 227.28469 328.71531 223.5 324 223.5 L 300 223.5 z "
         id="path4208" />
      <path
         style="color:#bebebe;fill:url(#linearGradient4264);fill-opacity:1.0;fill-rule:nonzero;stroke:none;stroke-width:2;marker:none;visibility:visible;display:inline;overflow:visible;enable-background:accumulate"
         d="M 310 32.5 C 300.29745 32.5 292.5 40.297452 292.5 50 L 292.5 102 C 292.5 111.70255 300.29745 119.5 310 119.5 L 362 119.5 C 371.70255 119.5 379.5 111.70255 379.5 102 L 379.5 50 C 379.5 40.297452 371.70255 32.5 362 32.5 L 310 32.5 z "
         id="path4210" />
      <path
         style="color:#bebebe;fill:url(#linearGradient4266);fill-opacity:1.0;fill-rule:nonzero;stroke:none;stroke-width:2;marker:none;visibility:visible;display:inline;overflow:visible;enable-background:accumulate"
         d="M 302.5 142.5 C 295.84498 142.5 290.5 147.84498 290.5 154.5 L 290.5 189.5 C 290.5 196.15502 295.84498 201.5 302.5 201.5 L 337.5 201.5 C 344.15502 201.5 349.5 196.15502 349.5 189.5 L 349.5 154.5 C 349.5 147.84498 344.15502 142.5 337.5 142.5 L 302.5 142.5 z "
         id="path4212" />
      <path
         d="m 417.00005,153.35363 c 2.38762,-0.68277 4.64535,-1.81907 6.61786,-3.33074 0.67004,-0.51347 1.32101,-1.08622 1.72947,-1.82593 0.20423,-0.36984 0.34402,-0.77866 0.37999,-1.19986 0.036,-0.4212 -0.0347,-0.85491 -0.22843,-1.23039 -0.16389,-0.31761 -0.4129,-0.58843 -0.70675,-0.79113 -0.29388,-0.2027 -0.63167,-0.33821 -0.98105,-0.41033 -0.69873,-0.14426 -1.43024,-0.0355 -2.10683,0.19121 -0.91467,0.30652 -1.76533,0.83737 -2.38024,1.58217 -0.61489,0.74478 -0.98084,1.71024 -0.93205,2.67579 0.0532,1.05082 0.59269,2.04312 1.36081,2.76012 0.76813,0.71703 1.74969,1.17544 2.76529,1.44092 1.48429,0.388 3.06993,0.379 4.54974,-0.0258 1.47981,-0.40483 2.8502,-1.2045 3.93214,-2.29454 l -0.0111,-2.82891 c -0.95522,1.48 -2.40487,2.63314 -4.05968,3.22932 -1.24652,0.44908 -2.6354,0.58168 -3.90004,0.18686 -0.63233,-0.19743 -1.22656,-0.52538 -1.7145,-0.97428 -0.48796,-0.4489 -0.86745,-1.0199 -1.06923,-1.65225 -0.2337,-0.73235 -0.21785,-1.55999 0.13222,-2.24413 0.17503,-0.34207 0.43109,-0.64383 0.74723,-0.8615 0.31613,-0.21765 0.69244,-0.34954 1.07566,-0.36413 0.25642,-0.01 0.51574,0.0329 0.75196,0.13336 0.23624,0.10046 0.44874,0.25939 0.60458,0.46375 0.17953,0.23543 0.2804,0.5266 0.30577,0.82184 0.0254,0.29523 -0.0227,0.59432 -0.11953,0.87431 -0.19369,0.55995 -0.57321,1.03423 -0.96839,1.47505 -1.60141,1.78639 -3.58379,3.22788 -5.77494,4.19924 l -10e-6,0"
         id="path14726-25-3"
         style="color:#000000;display:inline;overflow:visible;visibility:visible;opacity:0.2;fill:#000000;fill-opacity:1;fill-rule:nonzero;stroke:none;stroke-width:1;marker:none;enable-background:accumulate"
         inkscape:connector-curvature="0" />
      <path
         d="m 417.00005,152.35362 c 2.38762,-0.68277 4.64535,-1.81907 6.61786,-3.33074 0.67004,-0.51347 1.32101,-1.08622 1.72947,-1.82593 0.20423,-0.36984 0.34402,-0.77866 0.37999,-1.19986 0.036,-0.4212 -0.0347,-0.85491 -0.22843,-1.23039 -0.16389,-0.31761 -0.4129,-0.58843 -0.70675,-0.79113 -0.29388,-0.2027 -0.63167,-0.33821 -0.98105,-0.41033 -0.69873,-0.14426 -1.43024,-0.0355 -2.10683,0.19121 -0.91467,0.30652 -1.76533,0.83737 -2.38024,1.58217 -0.61489,0.74478 -0.98084,1.71024 -0.93205,2.67579 0.0532,1.05082 0.59269,2.04312 1.36081,2.76012 0.76813,0.71703 1.74969,1.17544 2.76529,1.44092 1.48429,0.388 3.06993,0.379 4.54974,-0.0258 1.47981,-0.40483 2.8502,-1.2045 3.93214,-2.29454 l -0.0111,-2.82891 c -0.95522,1.48 -2.40487,2.63314 -4.05968,3.22932 -1.24652,0.44908 -2.6354,0.58168 -3.90004,0.18686 -0.63233,-0.19743 -1.22656,-0.52538 -1.7145,-0.97428 -0.48796,-0.4489 -0.86745,-1.0199 -1.06923,-1.65225 -0.2337,-0.73235 -0.21785,-1.55999 0.13222,-2.24413 0.17503,-0.34207 0.43109,-0.64383 0.74723,-0.8615 0.31613,-0.21765 0.69244,-0.34954 1.07566,-0.36413 0.25642,-0.01 0.51574,0.0329 0.75196,0.13336 0.23624,0.10046 0.44874,0.25939 0.60458,0.46375 0.17953,0.23543 0.2804,0.5266 0.30577,0.82184 0.0254,0.29523 -0.0227,0.59432 -0.11953,0.87431 -0.19369,0.55995 -0.57321,1.03423 -0.96839,1.47505 -1.60141,1.78639 -3.58379,3.22788 -5.77494,4.19924 l -10e-6,0"
         id="path14726-25"
         style="color:#000000;display:inline;overflow:visible;visibility:visible;fill:#ffffff;fill-opacity:1;fill-rule:nonzero;stroke:none;stroke-width:1;marker:none;enable-background:accumulate"
         inkscape:connector-curvature="0" />
      <path
         inkscape:connector-curvature="0"
         d="m 418.00004,119.28855 c 3.4109,-0.98623 6.63623,-2.62754 9.4541,-4.81105 0.95719,-0.7417 1.88716,-1.569 2.47067,-2.63746 0.29175,-0.53422 0.49146,-1.12475 0.54284,-1.73313 0.0514,-0.6084 -0.0496,-1.23488 -0.32635,-1.77724 -0.23411,-0.45876 -0.58985,-0.84994 -1.00964,-1.14274 -0.4198,-0.29279 -0.90238,-0.48851 -1.40148,-0.5927 -0.99819,-0.20837 -2.04319,-0.0513 -3.00976,0.2762 -1.30666,0.44275 -2.5219,1.20952 -3.40034,2.28534 -0.87843,1.07581 -1.40121,2.47035 -1.33151,3.86505 0.076,1.51783 0.84671,2.95116 1.94402,3.98684 1.09733,1.03569 2.49955,1.69784 3.95041,2.08131 2.12042,0.56046 4.38561,0.54746 6.49963,-0.0372 2.11402,-0.58475 4.07172,-1.73983 5.61735,-3.31432 l -0.0158,-4.08621 c -1.36461,2.13778 -3.43553,3.80342 -5.79955,4.66456 -1.78074,0.64868 -3.76485,0.84022 -5.57148,0.2699 -0.90333,-0.28516 -1.75223,-0.75886 -2.44929,-1.40727 -0.69708,-0.64841 -1.23921,-1.4732 -1.52748,-2.38659 -0.33385,-1.05782 -0.31122,-2.2533 0.18889,-3.24151 0.25005,-0.49411 0.61586,-0.92999 1.06747,-1.24439 0.45161,-0.31438 0.98919,-0.50488 1.53665,-0.52596 0.36632,-0.0141 0.73677,0.0475 1.07423,0.19263 0.33748,0.1451 0.64106,0.37467 0.86369,0.66986 0.25647,0.34006 0.40056,0.76064 0.43681,1.18709 0.0362,0.42646 -0.0325,0.85847 -0.17076,1.26288 -0.27669,0.80883 -0.81887,1.49391 -1.38341,2.13064 -2.28773,2.58035 -5.1197,4.6625 -8.24992,6.06557 l -10e-6,0"
         id="path14726-49"
         style="color:#000000;display:inline;overflow:visible;visibility:visible;opacity:0.2;fill:#000000;fill-opacity:1;fill-rule:nonzero;stroke:none;stroke-width:1;marker:none;enable-background:accumulate" />
      <path
         inkscape:connector-curvature="0"
         d="m 418.00004,118.28856 c 3.4109,-0.98623 6.63623,-2.62754 9.4541,-4.81105 0.95719,-0.7417 1.88716,-1.569 2.47067,-2.63746 0.29175,-0.53422 0.49146,-1.12475 0.54284,-1.73313 0.0514,-0.6084 -0.0496,-1.23488 -0.32635,-1.77724 -0.23411,-0.45876 -0.58985,-0.84994 -1.00964,-1.14274 -0.4198,-0.29279 -0.90238,-0.48851 -1.40148,-0.5927 -0.99819,-0.20837 -2.04319,-0.0513 -3.00976,0.2762 -1.30666,0.44275 -2.5219,1.20952 -3.40034,2.28534 -0.87843,1.07581 -1.40121,2.47035 -1.33151,3.86505 0.076,1.51783 0.84671,2.95116 1.94402,3.98684 1.09733,1.03569 2.49955,1.69784 3.95041,2.08131 2.12042,0.56046 4.38561,0.54746 6.49963,-0.0372 2.11402,-0.58475 4.07172,-1.73983 5.61735,-3.31432 l -0.0158,-4.08621 c -1.36461,2.13778 -3.43553,3.80342 -5.79955,4.66456 -1.78074,0.64868 -3.76485,0.84022 -5.57148,0.2699 -0.90333,-0.28516 -1.75223,-0.75886 -2.44929,-1.40727 -0.69708,-0.64841 -1.23921,-1.4732 -1.52748,-2.38659 -0.33385,-1.05782 -0.31122,-2.2533 0.18889,-3.24151 0.25005,-0.49411 0.61586,-0.92999 1.06747,-1.24439 0.45161,-0.31438 0.98919,-0.50488 1.53665,-0.52596 0.36632,-0.0141 0.73677,0.0475 1.07423,0.19263 0.33748,0.1451 0.64106,0.37467 0.86369,0.66986 0.25647,0.34006 0.40056,0.76064 0.43681,1.18709 0.0362,0.42646 -0.0325,0.85847 -0.17076,1.26288 -0.27669,0.80883 -0.81887,1.49391 -1.38341,2.13064 -2.28773,2.58035 -5.1197,4.6625 -8.24992,6.06557 l -10e-6,0"
         id="path14726"
         style="color:#000000;display:inline;overflow:visible;visibility:visible;fill:#ffffff;fill-opacity:1;fill-rule:nonzero;stroke:none;stroke-width:1;marker:none;enable-background:accumulate" />
      <path
         inkscape:connector-curvature="0"
         d="m 35.00071,224.72299 c 37.17873,-10.62091 72.33481,-28.29668 103.04963,-51.81137 10.43338,-7.98751 20.57,-16.89689 26.93032,-28.4034 3.1801,-5.75318 5.35686,-12.11264 5.91697,-18.66453 0.56039,-6.55191 -0.54058,-13.29868 -3.55723,-19.13944 -2.55177,-4.94058 -6.42938,-9.153285 -11.00508,-12.306512 -4.57585,-3.153077 -9.83591,-5.260846 -15.27611,-6.382834 -10.88028,-2.243956 -22.27085,-0.552697 -32.80639,2.974379 -14.24264,4.768105 -27.48874,13.025727 -37.06369,24.611457 -9.57495,11.58558 -15.27328,26.60372 -14.51349,41.62355 0.82785,16.34589 9.22909,31.78166 21.18982,42.93516 11.96087,11.15362 27.24505,18.28444 43.05947,22.41425 23.11257,6.03562 47.80316,5.89561 70.84596,-0.40106 23.0428,-6.29738 44.38177,-18.73668 61.22911,-35.69281 l -0.17265,-44.00526 c -14.87421,23.02222 -37.44732,40.95989 -63.21511,50.23377 -19.41001,6.98571 -41.03682,9.04841 -60.72915,2.90663 -9.84623,-3.07102 -19.09924,-8.17244 -26.69724,-15.15531 -7.59815,-6.98287 -13.50734,-15.86519 -16.6495,-25.70169 -3.63903,-11.392 -3.39237,-24.26636 2.05888,-34.90867 2.72555,-5.32109 6.71284,-10.01521 11.63539,-13.40099 4.92255,-3.38578 10.7822,-5.43729 16.74955,-5.66433 3.9928,-0.15164 8.03075,0.51161 11.70911,2.07461 3.67851,1.56259 6.98752,4.03485 9.4142,7.21388 2.79546,3.66213 4.36612,8.19143 4.76122,12.78408 0.39482,4.59251 -0.35378,9.24497 -1.86133,13.60025 -3.01593,8.71041 -8.92568,16.08811 -15.07912,22.94527 -24.93625,27.78834 -55.80476,50.21152 -89.92411,65.32149 l -1.4e-4,0"
         id="path14726-01-9"
         style="color:#000000;display:inline;overflow:visible;visibility:visible;opacity:0.2;fill:#000000;fill-opacity:1;fill-rule:nonzero;stroke:none;stroke-width:1;marker:none;enable-background:accumulate" />
      <path
         inkscape:connector-curvature="0"
         d="m 35.00071,223.72299 c 37.17873,-10.62091 72.33481,-28.29668 103.04963,-51.81137 10.43338,-7.98751 20.57,-16.89689 26.93032,-28.4034 3.1801,-5.75318 5.35686,-12.11264 5.91697,-18.66453 0.56039,-6.55191 -0.54058,-13.29868 -3.55723,-19.13944 -2.55177,-4.94058 -6.42938,-9.153284 -11.00508,-12.306511 -4.57585,-3.153077 -9.83591,-5.260846 -15.27611,-6.382834 -10.88028,-2.243956 -22.27085,-0.552697 -32.80639,2.974379 -14.24264,4.768105 -27.48874,13.025726 -37.06369,24.611456 -9.57495,11.58558 -15.27328,26.60372 -14.51349,41.62355 0.82785,16.34589 9.22909,31.78166 21.18982,42.93516 11.96087,11.15362 27.24505,18.28444 43.05947,22.41425 23.11257,6.03562 47.80316,5.89561 70.84596,-0.40106 23.0428,-6.29738 44.38177,-18.73668 61.22911,-35.69281 l -0.17265,-44.00526 c -14.87421,23.02222 -37.44732,40.95989 -63.21511,50.23377 -19.41001,6.98571 -41.03682,9.04841 -60.72915,2.90663 -9.84623,-3.07102 -19.09924,-8.17244 -26.69724,-15.15531 -7.59815,-6.98287 -13.50734,-15.86519 -16.6495,-25.70169 -3.63903,-11.392 -3.39237,-24.26636 2.05888,-34.90867 2.72555,-5.32109 6.71284,-10.01521 11.63539,-13.40099 4.92255,-3.38578 10.7822,-5.43729 16.74955,-5.664332 3.9928,-0.151639 8.03075,0.511612 11.70911,2.074612 3.67851,1.56259 6.98752,4.03485 9.4142,7.21388 2.79546,3.66213 4.36612,8.19143 4.76122,12.78408 0.39482,4.59251 -0.35378,9.24497 -1.86133,13.60025 -3.01593,8.71041 -8.92568,16.08811 -15.07912,22.94527 -24.93625,27.78834 -55.80476,50.21152 -89.92411,65.32149 l -1.4e-4,0"
         id="path14726-01"
         style="color:#000000;display:inline;overflow:visible;visibility:visible;fill:#ffffff;fill-opacity:1;fill-rule:nonzero;stroke:none;stroke-width:1;marker:none;enable-background:accumulate" />
      <path
         inkscape:connector-curvature="0"
         d="m 293.00027,103.60546 c 14.66683,-4.1725 28.53575,-11.116553 40.6526,-20.354468 4.11592,-3.137949 8.11478,-6.638064 10.62389,-11.158476 1.25453,-2.260179 2.11325,-4.758535 2.33421,-7.332496 0.22107,-2.573962 -0.21325,-5.224478 -1.4033,-7.519064 -1.00667,-1.940938 -2.53636,-3.595931 -4.34146,-4.834698 -1.80515,-1.238711 -3.88022,-2.066764 -6.02636,-2.507542 -4.29221,-0.881556 -8.78575,-0.217132 -12.94197,1.168505 -5.61865,1.873183 -10.84418,5.117248 -14.62145,9.668783 -3.77728,4.55148 -6.02524,10.45146 -5.72551,16.35211 0.32658,6.4216 3.64083,12.485655 8.35929,16.867382 4.71851,4.381782 10.74804,7.183174 16.98676,8.805594 9.1178,2.37114 18.85814,2.31614 27.94842,-0.15756 C 363.93565,100.12956 372.35379,95.2427 379,88.581364 L 378.9319,71.29358 c -5.86781,9.044446 -14.7728,16.091386 -24.93806,19.734696 -7.65715,2.744384 -16.18885,3.554732 -23.95738,1.141893 -3.88429,-1.206476 -7.53456,-3.210605 -10.53194,-5.953876 -2.99744,-2.743269 -5.32858,-6.232749 -6.56815,-10.09709 -1.43558,-4.475427 -1.33828,-9.533214 0.81222,-13.714121 1.07522,-2.090425 2.64819,-3.934545 4.5901,-5.264675 1.94193,-1.330129 4.25353,-2.13608 6.60762,-2.225271 1.57515,-0.05957 3.1681,0.200987 4.6192,0.815026 1.45115,0.613872 2.75654,1.58512 3.71385,2.83402 1.1028,1.438695 1.72242,3.218065 1.87828,5.022321 0.15576,1.804202 -0.13956,3.631953 -0.73428,5.342954 -1.18977,3.421947 -3.52114,6.320327 -5.94865,9.014214 -9.83723,10.916847 -22.01472,19.725954 -35.47464,25.662009 l -6e-5,0"
         id="path14726-6-2"
         style="color:#000000;display:inline;overflow:visible;visibility:visible;opacity:0.2;fill:#000000;fill-opacity:1;fill-rule:nonzero;stroke:none;stroke-width:1;marker:none;enable-background:accumulate" />
      <path
         inkscape:connector-curvature="0"
         d="m 293.00027,102.60546 c 14.66683,-4.1725 28.53575,-11.116553 40.6526,-20.354468 4.11592,-3.137949 8.11478,-6.638064 10.62389,-11.158476 1.25453,-2.260179 2.11325,-4.758535 2.33421,-7.332496 0.22107,-2.573962 -0.21325,-5.224478 -1.4033,-7.519064 -1.00667,-1.940938 -2.53636,-3.595931 -4.34146,-4.834698 -1.80515,-1.238711 -3.88022,-2.066764 -6.02636,-2.507542 -4.29221,-0.881556 -8.78575,-0.217132 -12.94197,1.168505 -5.61865,1.873183 -10.84418,5.117248 -14.62145,9.668783 -3.77728,4.55148 -6.02524,10.45146 -5.72551,16.35211 0.32658,6.4216 3.64083,12.485655 8.35929,16.867382 4.71851,4.381782 10.74804,7.183174 16.98676,8.805594 9.1178,2.37114 18.85814,2.31614 27.94842,-0.15756 C 363.93565,99.129565 372.35379,94.2427 379,87.581364 L 378.9319,70.29358 c -5.86781,9.044446 -14.7728,16.091386 -24.93806,19.734696 -7.65715,2.744384 -16.18885,3.554732 -23.95738,1.141893 -3.88429,-1.206476 -7.53456,-3.210605 -10.53194,-5.953876 -2.99744,-2.743269 -5.32858,-6.232749 -6.56815,-10.09709 -1.43558,-4.475427 -1.33828,-9.533214 0.81222,-13.714121 1.07522,-2.090425 2.64819,-3.934545 4.5901,-5.264675 1.94193,-1.330129 4.25353,-2.13608 6.60762,-2.225271 1.57515,-0.05957 3.1681,0.200987 4.6192,0.815026 1.45115,0.613872 2.75654,1.58512 3.71385,2.83402 1.1028,1.438695 1.72242,3.218065 1.87828,5.022321 0.15576,1.804202 -0.13956,3.631953 -0.73428,5.342954 -1.18977,3.421947 -3.52114,6.320327 -5.94865,9.014214 -9.83723,10.916847 -22.01472,19.725954 -35.47464,25.662009 l -6e-5,0"
         id="path14726-6"
         style="color:#000000;display:inline;overflow:visible;visibility:visible;fill:#ffffff;fill-opacity:1;fill-rule:nonzero;stroke:none;stroke-width:1;marker:none;enable-background:accumulate" />
      <path
         inkscape:connector-curvature="0"
         d="m 291.00018,190.89823 c 9.89159,-2.80697 19.24504,-7.47841 27.41687,-13.69302 2.77586,-2.11098 5.47275,-4.46561 7.16495,-7.50661 0.84608,-1.52048 1.42522,-3.2012 1.57424,-4.93277 0.1491,-1.73157 -0.14382,-3.51465 -0.94642,-5.05828 -0.67891,-1.30572 -1.71057,-2.41908 -2.92796,-3.25244 -1.21742,-0.83331 -2.61689,-1.39036 -4.06428,-1.68688 -2.89475,-0.59305 -5.92527,-0.14608 -8.72831,0.78608 -3.78932,1.26014 -7.31351,3.44252 -9.86098,6.50445 -2.54746,3.06191 -4.06353,7.03099 -3.86139,11.00052 0.22026,4.31999 2.45545,8.39944 5.63766,11.34714 3.18225,2.94775 7.24868,4.83233 11.45619,5.92377 6.14922,1.59513 12.71827,1.55812 18.84893,-0.10599 6.13065,-1.6643 11.80799,-4.95184 16.29031,-9.4331 l -0.0459,-11.62996 c -3.95736,6.08444 -9.96306,10.82511 -16.8187,13.27607 -5.16413,1.84622 -10.91806,2.39136 -16.1573,0.76818 -2.61964,-0.81163 -5.08146,-2.15987 -7.10294,-4.00534 -2.02152,-1.84547 -3.59369,-4.19294 -4.42968,-6.79259 -0.96819,-3.01074 -0.90256,-6.41325 0.54777,-9.22586 0.72514,-1.40629 1.78598,-2.64688 3.09564,-3.54169 1.30967,-0.89481 2.86866,-1.437 4.4563,-1.497 1.06232,-0.0401 2.13662,0.13521 3.11528,0.54829 0.97868,0.41297 1.85906,1.06635 2.5047,1.90652 0.74374,0.96785 1.16163,2.16488 1.26675,3.37866 0.10505,1.21373 -0.0941,2.44331 -0.49521,3.59434 -0.80241,2.30204 -2.37473,4.25186 -4.01188,6.06411 -6.63442,7.34406 -14.84715,13.27019 -23.92476,17.26354 l -4e-5,0"
         id="path14726-1-2"
         style="color:#000000;display:inline;overflow:visible;visibility:visible;opacity:0.2;fill:#000000;fill-opacity:1;fill-rule:nonzero;stroke:none;stroke-width:1;marker:none;enable-background:accumulate" />
      <path
         inkscape:connector-curvature="0"
         d="m 291.00018,189.89823 c 9.89159,-2.80697 19.24504,-7.47841 27.41687,-13.69302 2.77586,-2.11098 5.47275,-4.46561 7.16495,-7.50661 0.84608,-1.52048 1.42522,-3.2012 1.57424,-4.93277 0.1491,-1.73157 -0.14382,-3.51465 -0.94642,-5.05828 -0.67891,-1.30572 -1.71057,-2.41908 -2.92796,-3.25244 -1.21742,-0.83331 -2.61689,-1.39036 -4.06428,-1.68688 -2.89475,-0.59305 -5.92527,-0.14608 -8.72831,0.78608 -3.78932,1.26014 -7.31351,3.44252 -9.86098,6.50445 -2.54746,3.06191 -4.06353,7.03099 -3.86139,11.00052 0.22026,4.31999 2.45545,8.39944 5.63766,11.34714 3.18225,2.94775 7.24868,4.83233 11.45619,5.92377 6.14922,1.59513 12.71827,1.55812 18.84893,-0.10599 6.13065,-1.6643 11.80799,-4.95184 16.29031,-9.4331 l -0.0459,-11.62996 c -3.95736,6.08444 -9.96306,10.82511 -16.8187,13.27607 -5.16413,1.84622 -10.91806,2.39136 -16.1573,0.76818 -2.61964,-0.81163 -5.08146,-2.15987 -7.10294,-4.00534 -2.02152,-1.84547 -3.59369,-4.19294 -4.42968,-6.79259 -0.96819,-3.01074 -0.90256,-6.41325 0.54777,-9.22586 0.72514,-1.40629 1.78598,-2.64688 3.09564,-3.54169 1.30967,-0.89481 2.86866,-1.437 4.4563,-1.497 1.06232,-0.0401 2.13662,0.13521 3.11528,0.54829 0.97868,0.41297 1.85906,1.06635 2.5047,1.90652 0.74374,0.96785 1.16163,2.16488 1.26675,3.37866 0.10505,1.21373 -0.0941,2.44331 -0.49521,3.59434 -0.80241,2.30204 -2.37473,4.25186 -4.01188,6.06411 -6.63442,7.34406 -14.84715,13.27019 -23.92476,17.26354 l -4e-5,0"
         id="path14726-1"
         style="color:#000000;display:inline;overflow:visible;visibility:visible;fill:#ffffff;fill-opacity:1;fill-rule:nonzero;stroke:none;stroke-width:1;marker:none;enable-background:accumulate" />
      <path
         inkscape:connector-curvature="0"
         d="m 292.00014,257.57712 c 6.82179,-1.97245 13.27244,-5.25509 18.90819,-9.6221 1.91438,-1.4834 3.77431,-3.138 4.94134,-5.27492 0.58351,-1.06845 0.98291,-2.24949 1.08569,-3.46628 0.10282,-1.21678 -0.0992,-2.46975 -0.65271,-3.55446 -0.46821,-0.91753 -1.1797,-1.69989 -2.01928,-2.28549 -0.8396,-0.58558 -1.80475,-0.97702 -2.80296,-1.18539 -1.99638,-0.41673 -4.08639,-0.10264 -6.01952,0.55238 -2.61332,0.88551 -5.0438,2.41907 -6.80067,4.5707 -1.75687,2.15161 -2.80244,4.9407 -2.66303,7.73009 0.1519,3.03567 1.69341,5.90231 3.88804,7.97368 2.19466,2.07139 4.99909,3.39568 7.90082,4.16265 4.24084,1.12089 8.77122,1.09489 12.99926,-0.0745 4.22804,-1.16951 8.14345,-3.47967 11.2347,-6.62866 l -0.0317,-8.17241 c -2.72921,4.27555 -6.87107,7.60684 -11.5991,9.32913 -3.56147,1.29735 -7.52969,1.68042 -11.14296,0.53981 -1.80665,-0.57034 -3.50445,-1.51774 -4.89858,-2.81457 -1.39416,-1.29681 -2.47841,-2.94638 -3.05496,-4.77316 -0.66771,-2.11566 -0.62245,-4.50662 0.37778,-6.48305 0.5001,-0.9882 1.23171,-1.85996 2.13493,-2.48875 0.90322,-0.62879 1.97839,-1.00979 3.07332,-1.05195 0.73262,-0.0282 1.47353,0.095 2.14846,0.38529 0.67495,0.2902 1.28211,0.74933 1.72737,1.33971 0.51293,0.68012 0.80113,1.52127 0.87362,2.3742 0.0725,0.85289 -0.0649,1.71692 -0.34153,2.52576 -0.55338,1.61764 -1.63774,2.98779 -2.76681,4.26126 -4.57546,5.16069 -10.2394,9.32499 -16.49983,12.13114 l -3e-5,0"
         id="path14726-07-3"
         style="color:#000000;display:inline;overflow:visible;visibility:visible;fill:#000000;fill-opacity:1;fill-rule:nonzero;stroke:none;stroke-width:1;marker:none;enable-background:accumulate;opacity:0.2" />
      <path
         inkscape:connector-curvature="0"
         d="m 292.00014,256.57712 c 6.82179,-1.97245 13.27244,-5.25509 18.90819,-9.6221 1.91438,-1.4834 3.77431,-3.138 4.94134,-5.27492 0.58351,-1.06845 0.98291,-2.24949 1.08569,-3.46628 0.10282,-1.21678 -0.0992,-2.46975 -0.65271,-3.55446 -0.46821,-0.91753 -1.1797,-1.69989 -2.01928,-2.28549 -0.8396,-0.58558 -1.80475,-0.97702 -2.80296,-1.18539 -1.99638,-0.41673 -4.08639,-0.10264 -6.01952,0.55238 -2.61332,0.88551 -5.0438,2.41907 -6.80067,4.5707 -1.75687,2.15161 -2.80244,4.9407 -2.66303,7.73009 0.1519,3.03567 1.69341,5.90231 3.88804,7.97368 2.19466,2.07139 4.99909,3.39568 7.90082,4.16265 4.24084,1.12089 8.77122,1.09489 12.99926,-0.0745 4.22804,-1.16951 8.14345,-3.47967 11.2347,-6.62866 l -0.0317,-8.17241 c -2.72921,4.27555 -6.87107,7.60684 -11.5991,9.32913 -3.56147,1.29735 -7.52969,1.68042 -11.14296,0.53981 -1.80665,-0.57034 -3.50445,-1.51774 -4.89858,-2.81457 -1.39416,-1.29681 -2.47841,-2.94638 -3.05496,-4.77316 -0.66771,-2.11566 -0.62245,-4.50662 0.37778,-6.48305 0.5001,-0.9882 1.23171,-1.85996 2.13493,-2.48875 0.90322,-0.62879 1.97839,-1.00979 3.07332,-1.05195 0.73262,-0.0282 1.47353,0.095 2.14846,0.38529 0.67495,0.2902 1.28211,0.74933 1.72737,1.33971 0.51293,0.68012 0.80113,1.52127 0.87362,2.3742 0.0725,0.85289 -0.0649,1.71692 -0.34153,2.52576 -0.55338,1.61764 -1.63774,2.98779 -2.76681,4.26126 -4.57546,5.16069 -10.2394,9.32499 -16.49983,12.13114 l -3e-5,0"
         id="path14726-07"
         style="color:#000000;display:inline;overflow:visible;visibility:visible;fill:#ffffff;fill-opacity:1;fill-rule:nonzero;stroke:none;stroke-width:1;marker:none;enable-background:accumulate" />
    </g>
    <g
       inkscape:groupmode="layer"
       id="layer6"
       inkscape:label="Symbols"
       style="display:inline">
      <path
         inkscape:connector-curvature="0"
         d="m 418.00011,77.707241 c 4.77525,-1.365546 9.29071,-3.638145 13.23573,-6.661463 1.34007,-1.026965 2.64202,-2.172457 3.45894,-3.651865 0.40846,-0.739695 0.68804,-1.557338 0.75998,-2.399726 0.072,-0.842387 -0.0694,-1.709829 -0.45689,-2.460784 -0.32775,-0.635216 -0.82579,-1.17685 -1.4135,-1.582265 -0.58772,-0.405396 -1.26332,-0.676395 -1.96207,-0.82065 -1.39746,-0.288509 -2.86047,-0.07106 -4.21366,0.38242 -1.82933,0.613042 -3.53066,1.674736 -4.76047,3.164329 -1.22982,1.489575 -1.96171,3.420477 -1.86412,5.3516 0.10633,2.101614 1.18538,4.086214 2.72163,5.520233 1.53625,1.434038 3.49936,2.350858 5.53057,2.881832 2.96859,0.77601 6.13985,0.758008 9.09948,-0.05157 2.95963,-0.809662 5.70041,-2.409 7.86429,-4.589073 l -0.0222,-5.65782 c -1.91046,2.96 -4.80975,5.266271 -8.11938,6.458627 -2.49303,0.898162 -5.27078,1.163367 -7.80007,0.37371 -1.26465,-0.394846 -2.45311,-1.050744 -3.42901,-1.94854 -0.97591,-0.897797 -1.73488,-2.039809 -2.13846,-3.304502 -0.4674,-1.464686 -0.43572,-3.119962 0.26443,-4.488259 0.35008,-0.684139 0.8622,-1.287669 1.49445,-1.722984 0.63226,-0.435315 1.38487,-0.699081 2.15132,-0.72827 0.51284,-0.0195 1.03148,0.06578 1.50393,0.266735 0.47246,0.200904 0.89747,0.518767 1.20916,0.927497 0.35906,0.470846 0.56079,1.053186 0.61153,1.643669 0.0507,0.590467 -0.0454,1.188639 -0.23907,1.748604 -0.38737,1.119909 -1.14642,2.068471 -1.93677,2.950105 -3.20282,3.572787 -7.16758,6.455767 -11.54988,8.398477 l -2e-5,0"
         id="path14726-0-2"
         style="color:#000000;display:inline;overflow:visible;visibility:visible;fill:#000000;fill-opacity:1;fill-rule:nonzero;stroke:none;stroke-width:1;marker:none;enable-background:accumulate;opacity:0.2" />
      <path
         inkscape:connector-curvature="0"
         d="m 418.00011,76.707242 c 4.77525,-1.365546 9.29071,-3.638145 13.23573,-6.661463 1.34007,-1.026965 2.64202,-2.172457 3.45894,-3.651865 0.40846,-0.739695 0.68804,-1.557338 0.75998,-2.399726 0.072,-0.842387 -0.0694,-1.709829 -0.45689,-2.460784 -0.32775,-0.635216 -0.82579,-1.17685 -1.4135,-1.582265 -0.58772,-0.405396 -1.26332,-0.676395 -1.96207,-0.82065 -1.39746,-0.288509 -2.86047,-0.07106 -4.21366,0.38242 -1.82933,0.613042 -3.53066,1.674736 -4.76047,3.164329 -1.22982,1.489575 -1.96171,3.420477 -1.86412,5.3516 0.10633,2.101614 1.18538,4.086214 2.72163,5.520233 1.53625,1.434038 3.49936,2.350858 5.53057,2.881832 2.96859,0.77601 6.13985,0.758008 9.09948,-0.05157 2.95963,-0.809662 5.70041,-2.409 7.86429,-4.589073 l -0.0222,-5.65782 c -1.91046,2.96 -4.80975,5.266271 -8.11938,6.458627 -2.49303,0.898162 -5.27078,1.163367 -7.80007,0.37371 -1.26465,-0.394846 -2.45311,-1.050744 -3.42901,-1.94854 -0.97591,-0.897797 -1.73488,-2.039809 -2.13846,-3.304502 -0.4674,-1.464686 -0.43572,-3.119962 0.26443,-4.488259 0.35008,-0.684139 0.8622,-1.287669 1.49445,-1.722984 0.63226,-0.435315 1.38487,-0.699081 2.15132,-0.72827 0.51284,-0.0195 1.03148,0.06578 1.50393,0.266735 0.47246,0.200904 0.89747,0.518767 1.20916,0.927497 0.35906,0.470846 0.56079,1.053186 0.61153,1.643669 0.0507,0.590467 -0.0454,1.188639 -0.23907,1.748604 -0.38737,1.119909 -1.14642,2.068471 -1.93677,2.950105 -3.20282,3.572787 -7.16758,6.455767 -11.54988,8.398477 l -2e-5,0"
         id="path14726-0"
         style="color:#000000;display:inline;overflow:visible;visibility:visible;fill:#ffffff;fill-opacity:1;fill-rule:nonzero;stroke:none;stroke-width:1;marker:none;enable-background:accumulate" />
    </g>
    <g
       inkscape:groupmode="layer"
       id="layer5"
       inkscape:label="Highlights"
       style="display:inline"
       sodipodi:insensitive="true">
      <path
         style="opacity:0.12999998;color:#bebebe;fill:#ffffff;fill-opacity:1;fill-rule:nonzero;stroke:none;stroke-width:0;marker:none;visibility:visible;display:inline;overflow:visible;enable-background:accumulate"
         d="M 84,47 C 56.836703,47 35,68.836703 35,96 l 0,1 C 35,69.836703 56.836703,48 84,48 l 120,0 c 27.1633,0 49,21.836703 49,49 l 0,-1 C 253,68.836703 231.1633,47 204,47 L 84,47 z"
         id="rect3894"
         inkscape:connector-curvature="0" />
      <path
         style="opacity:0.12999998;color:#bebebe;fill:#ffffff;fill-opacity:1;fill-rule:nonzero;stroke:none;stroke-width:0;marker:none;visibility:visible;display:inline;overflow:visible;enable-background:accumulate"
         d="m 419,141 c -1.1253,0 -2,0.8747 -2,2 l 0,1 c 0,-1.1253 0.8747,-2 2,-2 l 10,0 c 1.1253,0 2,0.8747 2,2 l 0,-1 c 0,-1.1253 -0.8747,-2 -2,-2 l -10,0 z"
         id="rect3896"
         inkscape:connector-curvature="0" />
      <path
         style="opacity:0.12999998;color:#bebebe;fill:#ffffff;fill-opacity:1;fill-rule:nonzero;stroke:none;stroke-width:0;marker:none;visibility:visible;display:inline;overflow:visible;enable-background:accumulate"
         d="m 422,102 c -2.2333,0 -4,1.7667 -4,4 l 0,1 c 0,-2.2333 1.7667,-4 4,-4 l 12,0 c 2.2333,0 4,1.7667 4,4 l 0,-1 c 0,-2.2333 -1.7667,-4 -4,-4 l -12,0 z"
         id="rect3898"
         inkscape:connector-curvature="0" />
      <path
         style="opacity:0.12999998;color:#bebebe;fill:#ffffff;fill-opacity:1;fill-rule:nonzero;stroke:none;stroke-width:0;marker:none;visibility:visible;display:inline;overflow:visible;enable-background:accumulate"
         d="m 424,54 c -3.3413,0 -6,2.658703 -6,6 l 0,1 c 0,-3.341297 2.6587,-6 6,-6 l 16,0 c 3.3413,0 6,2.658703 6,6 l 0,-1 c 0,-3.341297 -2.6587,-6 -6,-6 l -16,0 z"
         id="rect3900"
         inkscape:connector-curvature="0" />
      <path
         style="opacity:0.12999998;color:#bebebe;fill:#ffffff;fill-opacity:1;fill-rule:nonzero;stroke:none;stroke-width:0;marker:none;visibility:visible;display:inline;overflow:visible;enable-background:accumulate"
         d="m 300,224 c -4.4493,0 -8,3.5507 -8,8 l 0,1 c 0,-4.4493 3.5507,-8 8,-8 l 24,0 c 4.4493,0 8,3.5507 8,8 l 0,-1 c 0,-4.4493 -3.5507,-8 -8,-8 l -24,0 z"
         id="rect3902"
         inkscape:connector-curvature="0" />
      <path
         style="opacity:0.12999998;color:#bebebe;fill:#ffffff;fill-opacity:1;fill-rule:nonzero;stroke:none;stroke-width:0;marker:none;visibility:visible;display:inline;overflow:visible;enable-background:accumulate"
         d="m 310,33 c -9.4353,0 -17,7.564703 -17,17 l 0,1 c 0,-9.435297 7.5647,-17 17,-17 l 52,0 c 9.4353,0 17,7.564703 17,17 l 0,-1 c 0,-9.435297 -7.5647,-17 -17,-17 l -52,0 z"
         id="rect3904"
         inkscape:connector-curvature="0" />
      <path
         style="opacity:0.12999998;color:#bebebe;fill:#ffffff;fill-opacity:1;fill-rule:nonzero;stroke:none;stroke-width:0;marker:none;visibility:visible;display:inline;overflow:visible;enable-background:accumulate"
         d="m 302.5,143 c -6.3883,0 -11.5,5.1117 -11.5,11.5 l 0,1 c 0,-6.3883 5.1117,-11.5 11.5,-11.5 l 35,0 c 6.3883,0 11.5,5.1117 11.5,11.5 l 0,-1 c 0,-6.3883 -5.1117,-11.5 -11.5,-11.5 l -35,0 z"
         id="rect3906"
         inkscape:connector-curvature="0" />
      <path
         id="path4085"
         d="m 204,266 c 27.1633,0 49,-21.8367 49,-49 l 0,-1 c 0,27.1633 -21.8367,49 -49,49 L 84,265 C 56.8367,265 35,243.1633 35,216 l 0,1 c 0,27.1633 21.8367,49 49,49 l 120,0 z"
         style="opacity:0.41;color:#bebebe;fill:#000000;fill-opacity:1;fill-rule:nonzero;stroke:none;stroke-width:0;marker:none;visibility:visible;display:inline;overflow:visible;enable-background:accumulate"
         inkscape:connector-curvature="0" />
      <path
         id="path4087"
         d="m 429,156 c 1.1253,0 2,-0.8747 2,-2 l 0,-1 c 0,1.1253 -0.8747,2 -2,2 l -10,0 c -1.1253,0 -2,-0.8747 -2,-2 l 0,1 c 0,1.1253 0.8747,2 2,2 l 10,0 z"
         style="opacity:0.3;color:#bebebe;fill:#000000;fill-opacity:1;fill-rule:nonzero;stroke:none;stroke-width:0;marker:none;visibility:visible;display:inline;overflow:visible;enable-background:accumulate"
         inkscape:connector-curvature="0" />
      <path
         id="path4089"
         d="m 434,123 c 2.2333,0 4,-1.7667 4,-4 l 0,-1 c 0,2.2333 -1.7667,4 -4,4 l -12,0 c -2.2333,0 -4,-1.7667 -4,-4 l 0,1 c 0,2.2333 1.7667,4 4,4 l 12,0 z"
         style="opacity:0.3;color:#bebebe;fill:#000000;fill-opacity:1;fill-rule:nonzero;stroke:none;stroke-width:0;marker:none;visibility:visible;display:inline;overflow:visible;enable-background:accumulate"
         inkscape:connector-curvature="0" />
      <path
         id="path4091"
         d="m 440,83 c 3.3413,0 6,-2.6587 6,-6 l 0,-1 c 0,3.3413 -2.6587,6 -6,6 l -16,0 c -3.3413,0 -6,-2.6587 -6,-6 l 0,1 c 0,3.3413 2.6587,6 6,6 l 16,0 z"
         style="opacity:0.41;color:#bebebe;fill:#000000;fill-opacity:1;fill-rule:nonzero;stroke:none;stroke-width:0;marker:none;visibility:visible;display:inline;overflow:visible;enable-background:accumulate"
         inkscape:connector-curvature="0" />
      <path
         id="path4093"
         d="m 324,265 c 4.4493,0 8,-3.5507 8,-8 l 0,-1 c 0,4.4493 -3.5507,8 -8,8 l -24,0 c -4.4493,0 -8,-3.5507 -8,-8 l 0,1 c 0,4.4493 3.5507,8 8,8 l 24,0 z"
         style="opacity:0.41;color:#bebebe;fill:#000000;fill-opacity:1;fill-rule:nonzero;stroke:none;stroke-width:0;marker:none;visibility:visible;display:inline;overflow:visible;enable-background:accumulate"
         inkscape:connector-curvature="0" />
      <path
         id="path4095"
         d="m 362,120 c 9.4353,0 17,-7.5647 17,-17 l 0,-1 c 0,9.4353 -7.5647,17 -17,17 l -52,0 c -9.4353,0 -17,-7.5647 -17,-17 l 0,1 c 0,9.4353 7.5647,17 17,17 l 52,0 z"
         style="opacity:0.41;color:#bebebe;fill:#000000;fill-opacity:1;fill-rule:nonzero;stroke:none;stroke-width:0;marker:none;visibility:visible;display:inline;overflow:visible;enable-background:accumulate"
         inkscape:connector-curvature="0" />
      <path
         id="path4097"
         d="m 337.5,202 c 6.3883,0 11.5,-5.1117 11.5,-11.5 l 0,-1 c 0,6.3883 -5.1117,11.5 -11.5,11.5 l -35,0 c -6.3883,0 -11.5,-5.1117 -11.5,-11.5 l 0,1 c 0,6.3883 5.1117,11.5 11.5,11.5 l 35,0 z"
         style="opacity:0.41;color:#bebebe;fill:#000000;fill-opacity:1;fill-rule:nonzero;stroke:none;stroke-width:0;marker:none;visibility:visible;display:inline;overflow:visible;enable-background:accumulate"
         inkscape:connector-curvature="0" />
      <path
         inkscape:connector-curvature="0"
         id="path4280"
         d="M 84,265 C 56.836703,265 35,243.1633 35,216 l 0,-1 c 0,27.1633 21.836703,49 49,49 l 120,0 c 27.1633,0 49,-21.8367 49,-49 l 0,1 c 0,27.1633 -21.8367,49 -49,49 l -120,0 z"
         style="opacity:0.1;color:#bebebe;fill:#ffffff;fill-opacity:1;fill-rule:nonzero;stroke:none;stroke-width:0;marker:none;visibility:visible;display:inline;overflow:visible;enable-background:accumulate" />
      <path
         style="opacity:0.1;color:#bebebe;fill:#ffffff;fill-opacity:1;fill-rule:nonzero;stroke:none;stroke-width:0;marker:none;visibility:visible;display:inline;overflow:visible;enable-background:accumulate"
         d="m 300,264 c -4.4493,0 -8,-3.5507 -8,-8 l 0,-1 c 0,4.4493 3.5507,8 8,8 l 24,0 c 4.4493,0 8,-3.5507 8,-8 l 0,1 c 0,4.4493 -3.5507,8 -8,8 l -24,0 z"
         id="path4294"
         inkscape:connector-curvature="0" />
      <path
         style="opacity:0.1;color:#bebebe;fill:#ffffff;fill-opacity:1;fill-rule:nonzero;stroke:none;stroke-width:0;marker:none;visibility:visible;display:inline;overflow:visible;enable-background:accumulate"
         d="m 302.5,201 c -6.3883,0 -11.5,-5.1117 -11.5,-11.5 l 0,-1 c 0,6.3883 5.1117,11.5 11.5,11.5 l 35,0 c 6.3883,0 11.5,-5.1117 11.5,-11.5 l 0,1 c 0,6.3883 -5.1117,11.5 -11.5,11.5 l -35,0 z"
         id="path4296"
         inkscape:connector-curvature="0" />
      <path
         style="opacity:0.1;color:#bebebe;fill:#ffffff;fill-opacity:1;fill-rule:nonzero;stroke:none;stroke-width:0;marker:none;visibility:visible;display:inline;overflow:visible;enable-background:accumulate"
         d="m 310,119 c -9.4353,0 -17,-7.5647 -17,-17 l 0,-1 c 0,9.4353 7.5647,17 17,17 l 52,0 c 9.4353,0 17,-7.5647 17,-17 l 0,1 c 0,9.4353 -7.5647,17 -17,17 l -52,0 z"
         id="path4298"
         inkscape:connector-curvature="0" />
      <path
         style="opacity:0.1;color:#bebebe;fill:#ffffff;fill-opacity:1;fill-rule:nonzero;stroke:none;stroke-width:0;marker:none;visibility:visible;display:inline;overflow:visible;enable-background:accumulate"
         d="m 424,82 c -3.3413,0 -6,-2.658703 -6,-6 l 0,-1 c 0,3.341297 2.6587,6 6,6 l 16,0 c 3.3413,0 6,-2.658703 6,-6 l 0,1 c 0,3.341297 -2.6587,6 -6,6 l -16,0 z"
         id="path4300"
         inkscape:connector-curvature="0" />
      <path
         style="opacity:0.1;color:#bebebe;fill:#ffffff;fill-opacity:1;fill-rule:nonzero;stroke:none;stroke-width:0;marker:none;visibility:visible;display:inline;overflow:visible;enable-background:accumulate"
         d="m 422,122 c -2.2333,0 -4,-1.7667 -4,-4 l 0,-1 c 0,2.2333 1.7667,4 4,4 l 12,0 c 2.2333,0 4,-1.7667 4,-4 l 0,1 c 0,2.2333 -1.7667,4 -4,4 l -12,0 z"
         id="path4302"
         inkscape:connector-curvature="0" />
      <path
         style="opacity:0.1;color:#bebebe;fill:#ffffff;fill-opacity:1;fill-rule:nonzero;stroke:none;stroke-width:0;marker:none;visibility:visible;display:inline;overflow:visible;enable-background:accumulate"
         d="m 419,154.5 c -1.1253,0 -2,-0.8747 -2,-2 l 0,-1 c 0,1.1253 0.8747,2 2,2 l 10,0 c 1.1253,0 2,-0.8747 2,-2 l 0,1 c 0,1.1253 -0.8747,2 -2,2 l -10,0 z"
         id="path4304"
         inkscape:connector-curvature="0" />
    </g>
    <g
       inkscape:groupmode="layer"
       id="layer3"
       inkscape:label="Border"
       style="display:inline"
       sodipodi:insensitive="true">
      <path
         style="opacity:0.41;color:#bebebe;fill:#000000;fill-opacity:1;fill-rule:nonzero;stroke:none;stroke-width:0;marker:none;visibility:visible;display:inline;overflow:visible;enable-background:accumulate"
         d="m 422,101 c -2.77,0 -5,2.23 -5,5 l 0,12 c 0,2.77 2.23,5 5,5 l 12,0 c 2.77,0 5,-2.23 5,-5 l 0,-12 c 0,-2.77 -2.23,-5 -5,-5 l -12,0 z m 0,1 12,0 c 2.2333,0 4,1.7667 4,4 l 0,12 c 0,2.2333 -1.7667,4 -4,4 l -12,0 c -2.2333,0 -4,-1.7667 -4,-4 l 0,-12 c 0,-2.2333 1.7667,-4 4,-4 z"
         id="rect4099"
         inkscape:connector-curvature="0" />
      <path
         style="opacity:0.41;color:#bebebe;fill:#000000;fill-opacity:1;fill-rule:nonzero;stroke:none;stroke-width:0;marker:none;visibility:visible;display:inline;overflow:visible;enable-background:accumulate"
         d="m 424,53 c -3.878,0 -7,3.122 -7,7 l 0,16 c 0,3.878 3.122,7 7,7 l 16,0 c 3.878,0 7,-3.122 7,-7 l 0,-16 c 0,-3.878 -3.122,-7 -7,-7 l -16,0 z m 0,1 16,0 c 3.3413,0 6,2.658703 6,6 l 0,16 c 0,3.341297 -2.6587,6 -6,6 l -16,0 c -3.3413,0 -6,-2.658703 -6,-6 l 0,-16 c 0,-3.341297 2.6587,-6 6,-6 z"
         id="rect4151"
         inkscape:connector-curvature="0" />
      <path
         style="opacity:0.41;color:#bebebe;fill:#000000;fill-opacity:1;fill-rule:nonzero;stroke:none;stroke-width:0;marker:none;visibility:visible;display:inline;overflow:visible;enable-background:accumulate"
         d="m 419,140 c -1.662,0 -3,1.338 -3,3 l 0,10 c 0,1.662 1.338,3 3,3 l 10,0 c 1.662,0 3,-1.338 3,-3 l 0,-10 c 0,-1.662 -1.338,-3 -3,-3 l -10,0 z m 0,1 10,0 c 1.1253,0 2,0.8747 2,2 l 0,10 c 0,1.1253 -0.8747,2 -2,2 l -10,0 c -1.1253,0 -2,-0.8747 -2,-2 l 0,-10 c 0,-1.1253 0.8747,-2 2,-2 z"
         id="rect4095"
         inkscape:connector-curvature="0" />
      <path
         style="opacity:0.41;color:#bebebe;fill:#000000;fill-opacity:1;fill-rule:nonzero;stroke:none;stroke-width:0;marker:none;visibility:visible;display:inline;overflow:visible;enable-background:accumulate"
         d="m 300,223 c -4.986,0 -9,4.014 -9,9 l 0,24 c 0,4.986 4.014,9 9,9 l 24,0 c 4.986,0 9,-4.014 9,-9 l 0,-24 c 0,-4.986 -4.014,-9 -9,-9 l -24,0 z m 0,1 24,0 c 4.4493,0 8,3.5507 8,8 l 0,24 c 0,4.4493 -3.5507,8 -8,8 l -24,0 c -4.4493,0 -8,-3.5507 -8,-8 l 0,-24 c 0,-4.4493 3.5507,-8 8,-8 z"
         id="rect4783"
         inkscape:connector-curvature="0" />
      <path
         style="opacity:0.41;color:#bebebe;fill:#000000;fill-opacity:1;fill-rule:nonzero;stroke:none;stroke-width:0;marker:none;visibility:visible;display:inline;overflow:visible;enable-background:accumulate"
         d="m 302.5,142 c -6.925,0 -12.5,5.575 -12.5,12.5 l 0,35 c 0,6.925 5.575,12.5 12.5,12.5 l 35,0 c 6.925,0 12.5,-5.575 12.5,-12.5 l 0,-35 c 0,-6.925 -5.575,-12.5 -12.5,-12.5 l -35,0 z m 0,1 35,0 c 6.3883,0 11.5,5.1117 11.5,11.5 l 0,35 c 0,6.3883 -5.1117,11.5 -11.5,11.5 l -35,0 c -6.3883,0 -11.5,-5.1117 -11.5,-11.5 l 0,-35 c 0,-6.3883 5.1117,-11.5 11.5,-11.5 z"
         id="rect4515"
         inkscape:connector-curvature="0" />
      <path
         style="opacity:0.41;color:#bebebe;fill:#000000;fill-opacity:1;fill-rule:nonzero;stroke:none;stroke-width:0;marker:none;visibility:visible;display:inline;overflow:visible;enable-background:accumulate"
         d="m 310,32 c -9.972,0 -18,8.028 -18,18 l 0,52 c 0,9.972 8.028,18 18,18 l 52,0 c 9.972,0 18,-8.028 18,-18 l 0,-52 c 0,-9.972 -8.028,-18 -18,-18 l -52,0 z m 0,1 52,0 c 9.4353,0 17,7.564703 17,17 l 0,52 c 0,9.4353 -7.5647,17 -17,17 l -52,0 c -9.4353,0 -17,-7.5647 -17,-17 l 0,-52 c 0,-9.435297 7.5647,-17 17,-17 z"
         id="rect4511"
         inkscape:connector-curvature="0" />
      <path
         style="opacity:0.41;color:#bebebe;fill:#000000;fill-opacity:1;fill-rule:nonzero;stroke:none;stroke-width:0;marker:none;visibility:visible;display:inline;overflow:visible;enable-background:accumulate"
         d="M 84,46 C 56.3,46 34,68.3 34,96 l 0,120 c 0,27.7 22.3,50 50,50 l 120,0 c 27.7,0 50,-22.3 50,-50 L 254,96 C 254,68.3 231.7,46 204,46 L 84,46 z m 0,1 120,0 c 27.1633,0 49,21.836703 49,49 l 0,120 c 0,27.1633 -21.8367,49 -49,49 L 84,265 C 56.836703,265 35,243.1633 35,216 L 35,96 C 35,68.836703 56.836703,47 84,47 z"
         id="rect4040"
         inkscape:connector-curvature="0" />
    </g>
  </g>
</svg>
