<?xml version="1.0" encoding="UTF-8" standalone="no"?>
<!-- Created with Inkscape (http://www.inkscape.org/) -->

<svg
   inkscape:export-ydpi="90.000000"
   inkscape:export-xdpi="90.000000"
   width="480"
   height="300"
   id="svg11300"
   sodipodi:version="0.32"
   inkscape:version="1.1.2 (0a00cf5339, 2022-02-04)"
   sodipodi:docname="gog.svg"
   inkscape:output_extension="org.inkscape.output.svg.inkscape"
   version="1.0"
   style="display:inline;enable-background:new"
   inkscape:export-filename="/home/sam/moka-next-template.png"
   xmlns:inkscape="http://www.inkscape.org/namespaces/inkscape"
   xmlns:sodipodi="http://sodipodi.sourceforge.net/DTD/sodipodi-0.dtd"
   xmlns:xlink="http://www.w3.org/1999/xlink"
   xmlns="http://www.w3.org/2000/svg"
   xmlns:svg="http://www.w3.org/2000/svg"
   xmlns:rdf="http://www.w3.org/1999/02/22-rdf-syntax-ns#"
   xmlns:cc="http://creativecommons.org/ns#"
   xmlns:dc="http://purl.org/dc/elements/1.1/">
  <sodipodi:namedview
     stroke="#ef2929"
     fill="#f57900"
     id="base"
     pagecolor="#ffffff"
     bordercolor="#000000"
     borderopacity="0.54509804"
     inkscape:pageopacity="0"
     inkscape:pageshadow="2"
     inkscape:zoom="1.4142137"
     inkscape:cx="439.11327"
     inkscape:cy="136.82515"
     inkscape:current-layer="layer2"
     showgrid="false"
     inkscape:grid-bbox="true"
     inkscape:document-units="px"
     inkscape:showpageshadow="false"
     inkscape:window-width="1920"
     inkscape:window-height="1048"
     inkscape:window-x="0"
     inkscape:window-y="0"
     width="400px"
     height="300px"
     inkscape:snap-nodes="true"
     inkscape:snap-bbox="true"
     gridtolerance="10000"
     inkscape:object-nodes="true"
     inkscape:snap-grids="true"
     showguides="true"
     inkscape:guide-bbox="true"
     inkscape:window-maximized="1"
     inkscape:bbox-nodes="true"
     inkscape:bbox-paths="true"
     inkscape:snap-bbox-edge-midpoints="true"
     inkscape:snap-bbox-midpoints="true"
     inkscape:pagecheckerboard="0">
    <inkscape:grid
       spacingy="1"
       spacingx="1"
       id="grid5883"
       type="xygrid"
       enabled="true"
       visible="true"
       empspacing="4"
       snapvisiblegridlinesonly="true"
       dotted="false"
       color="#000000"
       opacity="0.1254902"
       empcolor="#203ef3"
       empopacity="0.36470588"
       originx="0"
       originy="0" />
    <inkscape:grid
       type="xygrid"
       id="grid11592"
       empspacing="8"
       visible="true"
       enabled="false"
       spacingx="0.5"
       spacingy="0.5"
       color="#ff0000"
       opacity="0.1254902"
       empcolor="#ff0000"
       empopacity="0.25098039"
       snapvisiblegridlinesonly="true"
       dotted="true"
       originx="0"
       originy="0" />
  </sodipodi:namedview>
  <defs
     id="defs3">
    <linearGradient
       inkscape:collect="always"
       id="linearGradient1349">
      <stop
         style="stop-color:#7117cd;stop-opacity:1;"
         offset="0"
         id="stop1345" />
      <stop
         style="stop-color:#7117cd;stop-opacity:0;"
         offset="1"
         id="stop1347" />
    </linearGradient>
    <linearGradient
       id="linearGradient905">
      <stop
         style="stop-color:#ff7139;stop-opacity:1"
         offset="0"
         id="stop901" />
      <stop
         style="stop-color:#ff7139;stop-opacity:1"
         offset="1"
         id="stop903" />
    </linearGradient>
    <linearGradient
       id="linearGradient3984">
      <stop
         id="stop3986"
         offset="0"
         style="stop-color:#f57d33;stop-opacity:1" />
      <stop
         id="stop3988"
         offset="1"
         style="stop-color:#faa653;stop-opacity:1;" />
    </linearGradient>
    <linearGradient
       inkscape:collect="always"
       xlink:href="#linearGradient1349"
       id="linearGradient1351"
       x1="416.5"
       y1="148"
       x2="428"
       y2="148"
       gradientUnits="userSpaceOnUse"
       gradientTransform="rotate(-90,424,148)" />
    <linearGradient
       inkscape:collect="always"
       xlink:href="#linearGradient1349"
       id="linearGradient1353"
       x1="417.5"
       y1="112"
       x2="433"
       y2="112"
       gradientUnits="userSpaceOnUse"
       gradientTransform="rotate(-90,428,112)" />
    <linearGradient
       inkscape:collect="always"
       xlink:href="#linearGradient1349"
       id="linearGradient1355"
       x1="291.5"
       y1="244"
       x2="323"
       y2="244"
       gradientUnits="userSpaceOnUse"
       gradientTransform="rotate(-90,312,244)" />
    <linearGradient
       inkscape:collect="always"
       xlink:href="#linearGradient1349"
       id="linearGradient1357"
       x1="290.5"
       y1="172"
       x2="336.5"
       y2="172"
       gradientUnits="userSpaceOnUse"
       gradientTransform="rotate(-90,320,172)" />
    <linearGradient
       inkscape:collect="always"
       xlink:href="#linearGradient1349"
       id="linearGradient1359"
       x1="292.5"
       y1="76"
       x2="361"
       y2="76"
       gradientUnits="userSpaceOnUse"
       gradientTransform="rotate(-90,336,76)" />
    <linearGradient
       inkscape:collect="always"
       xlink:href="#linearGradient1349"
       id="linearGradient1361"
       x1="417.5"
       y1="68"
       x2="439"
       y2="68"
       gradientUnits="userSpaceOnUse"
       gradientTransform="rotate(-90,432,68)" />
    <linearGradient
       inkscape:collect="always"
       xlink:href="#linearGradient1349"
       id="linearGradient1363"
       x1="34.5"
       y1="156"
       x2="203"
       y2="156"
       gradientUnits="userSpaceOnUse"
       gradientTransform="rotate(-90,144,156)" />
  </defs>
  <metadata
     id="metadata4">
    <rdf:RDF>
      <cc:Work
         rdf:about="">
        <dc:format>image/svg+xml</dc:format>
        <dc:type
           rdf:resource="http://purl.org/dc/dcmitype/StillImage" />
        <dc:creator>
          <cc:Agent>
            <dc:title>Sam Hewitt</dc:title>
          </cc:Agent>
        </dc:creator>
        <dc:source />
        <cc:license
           rdf:resource="" />
        <dc:title />
        <dc:subject>
          <rdf:Bag />
        </dc:subject>
        <dc:date />
        <dc:rights>
          <cc:Agent>
            <dc:title />
          </cc:Agent>
        </dc:rights>
        <dc:publisher>
          <cc:Agent>
            <dc:title />
          </cc:Agent>
        </dc:publisher>
        <dc:identifier />
        <dc:relation />
        <dc:language />
        <dc:coverage />
        <dc:description />
        <dc:contributor>
          <cc:Agent>
            <dc:title />
          </cc:Agent>
        </dc:contributor>
      </cc:Work>
      <cc:Work
         rdf:about="">
        <dc:format>image/svg+xml</dc:format>
        <dc:type
           rdf:resource="http://purl.org/dc/dcmitype/StillImage" />
      </cc:Work>
    </rdf:RDF>
  </metadata>
  <g
     style="display:inline"
     inkscape:groupmode="layer"
     inkscape:label="Icon"
     id="layer1">
    <g
       style="display:none"
       inkscape:label="Baseplate"
       id="layer7"
       inkscape:groupmode="layer">
      <text
         y="19.745117"
         xml:space="preserve"
         x="15.006836"
         style="font-style:normal;font-variant:normal;font-weight:normal;font-stretch:normal;line-height:0%;font-family:'DejaVu Sans';-inkscape-font-specification:'DejaVu Sans';display:inline;fill:#000000;fill-opacity:1;stroke:none;enable-background:new"
         inkscape:label="context"
         id="context"><tspan
           style="font-style:normal;font-variant:normal;font-weight:normal;font-stretch:normal;font-size:18px;line-height:1.25;font-family:'DejaVu Sans';-inkscape-font-specification:'DejaVu Sans'"
           y="19.745117"
           x="15.006836"
           sodipodi:role="line"
           id="tspan3933">apps</tspan></text>
      <text
         y="19.745117"
         xml:space="preserve"
         x="122.48828"
         style="font-style:normal;font-variant:normal;font-weight:bold;font-stretch:normal;line-height:0%;font-family:'DejaVu Sans';-inkscape-font-specification:'DejaVu Sans Bold';text-align:start;writing-mode:lr-tb;text-anchor:start;display:inline;fill:#000000;fill-opacity:1;stroke:none;enable-background:new"
         inkscape:label="icon-name"
         id="icon-name"><tspan
           style="font-style:normal;font-variant:normal;font-weight:bold;font-stretch:normal;font-size:18px;line-height:1.25;font-family:'DejaVu Sans';-inkscape-font-specification:'DejaVu Sans Bold'"
           y="19.745117"
           x="122.48828"
           sodipodi:role="line"
           id="tspan3937">gog</tspan><tspan
           style="font-style:normal;font-variant:normal;font-weight:bold;font-stretch:normal;font-size:18px;line-height:1.25;font-family:'DejaVu Sans';-inkscape-font-specification:'DejaVu Sans Bold'"
           y="29.436523"
           x="122.48828"
           sodipodi:role="line"
           id="tspan2421" /></text>
      <rect
         style="display:inline;overflow:visible;visibility:visible;fill:#eeeeec;fill-opacity:1;fill-rule:nonzero;stroke:none;stroke-width:2;marker:none;enable-background:accumulate"
         id="rect16x16"
         width="16"
         height="16"
         x="416"
         y="140"
         inkscape:label="16x16" />
      <rect
         style="display:inline;overflow:visible;visibility:visible;fill:#d4d4d4;fill-opacity:1;fill-rule:nonzero;stroke:none;stroke-width:2;marker:none;enable-background:accumulate"
         id="rect24x24"
         width="24"
         height="24"
         x="416"
         y="100"
         inkscape:label="24x24" />
      <rect
         style="display:inline;overflow:visible;visibility:visible;fill:#eeeeec;fill-opacity:1;fill-rule:nonzero;stroke:none;stroke-width:2;marker:none;enable-background:accumulate"
         id="rect32x32"
         width="32"
         height="32"
         x="416"
         y="52"
         inkscape:label="32x32" />
      <rect
         inkscape:label="22x22"
         y="101"
         x="417"
         height="22"
         width="22"
         id="rect22x22"
         style="display:inline;overflow:visible;visibility:visible;fill:#eeeeec;fill-opacity:1;fill-rule:nonzero;stroke:none;stroke-width:2;marker:none;enable-background:accumulate" />
      <rect
         inkscape:label="48x48"
         y="220"
         x="288"
         height="48"
         width="48"
         id="rect48x48"
         style="display:inline;overflow:visible;visibility:visible;fill:#eeeeec;fill-opacity:1;fill-rule:nonzero;stroke:none;stroke-width:2;marker:none;enable-background:accumulate" />
      <rect
         style="display:inline;overflow:visible;visibility:visible;fill:#eeeeec;fill-opacity:1;fill-rule:nonzero;stroke:none;stroke-width:2;marker:none;enable-background:accumulate"
         id="rect256x256"
         width="256"
         height="256"
         x="16"
         y="28"
         inkscape:label="256x256" />
      <rect
         style="display:inline;overflow:visible;visibility:visible;fill:#eeeeec;fill-opacity:1;fill-rule:nonzero;stroke:none;stroke-width:2;marker:none;enable-background:accumulate"
         id="rect64x64"
         width="64"
         height="64"
         x="288"
         y="140"
         inkscape:label="64x64" />
      <rect
         style="display:inline;overflow:visible;visibility:visible;fill:#eeeeec;fill-opacity:1;fill-rule:nonzero;stroke:none;stroke-width:2;marker:none;enable-background:accumulate"
         id="rect96x96"
         width="96"
         height="96"
         x="288"
         y="28"
         inkscape:label="96x96" />
    </g>
    <g
       inkscape:groupmode="layer"
       id="layer4"
       inkscape:label="Shadow"
       style="display:inline"
       sodipodi:insensitive="true">
      <rect
         ry="50"
         y="47"
         x="34"
         height="220"
         width="220"
         id="rect4114"
         style="color:#bebebe;display:inline;overflow:visible;visibility:visible;opacity:0.1;fill:#000000;fill-opacity:1;fill-rule:nonzero;stroke:none;stroke-width:0;marker:none;enable-background:accumulate" />
      <rect
         style="color:#bebebe;display:inline;overflow:visible;visibility:visible;opacity:0.1;fill:#000000;fill-opacity:1;fill-rule:nonzero;stroke:none;stroke-width:0;marker:none;enable-background:accumulate"
         id="rect4120"
         width="30"
         height="30"
         x="417"
         y="54"
         ry="7" />
      <rect
         transform="scale(1,-1)"
         ry="9"
         y="-266"
         x="291"
         height="42"
         width="42"
         id="rect4122"
         style="color:#bebebe;display:inline;overflow:visible;visibility:visible;opacity:0.1;fill:#000000;fill-opacity:1;fill-rule:nonzero;stroke:none;stroke-width:0;marker:none;enable-background:accumulate" />
      <rect
         style="color:#bebebe;display:inline;overflow:visible;visibility:visible;opacity:0.1;fill:#000000;fill-opacity:1;fill-rule:nonzero;stroke:none;stroke-width:0;marker:none;enable-background:accumulate"
         id="rect4124"
         width="88"
         height="88"
         x="292"
         y="33"
         ry="18" />
      <rect
         ry="12.5"
         y="143"
         x="290"
         height="60"
         width="60"
         id="rect4126"
         style="color:#bebebe;display:inline;overflow:visible;visibility:visible;opacity:0.1;fill:#000000;fill-opacity:1;fill-rule:nonzero;stroke:none;stroke-width:0;marker:none;enable-background:accumulate" />
      <path
         id="path4268"
         d="m 422,101 c -2.77,0 -5,2.23 -5,5 v 12 c 0,2.77 2.23,5 5,5 h 12 c 2.77,0 5,-2.23 5,-5 v -12 c 0,-2.77 -2.23,-5 -5,-5 z"
         style="color:#bebebe;display:inline;overflow:visible;visibility:visible;opacity:0.1;fill:#000000;fill-opacity:1;fill-rule:nonzero;stroke:none;stroke-width:0;marker:none;enable-background:accumulate"
         inkscape:connector-curvature="0"
         sodipodi:nodetypes="sssssssss" />
      <path
         id="path4270"
         d="m 419,140 c -1.662,0 -3,1.338 -3,3 v 10 c 0,1.662 1.338,3 3,3 h 10 c 1.662,0 3,-1.338 3,-3 v -10 c 0,-1.662 -1.338,-3 -3,-3 z"
         style="color:#bebebe;display:inline;overflow:visible;visibility:visible;opacity:0.1;fill:#000000;fill-opacity:1;fill-rule:nonzero;stroke:none;stroke-width:0;marker:none;enable-background:accumulate"
         inkscape:connector-curvature="0"
         sodipodi:nodetypes="sssssssss" />
    </g>
    <g
       inkscape:groupmode="layer"
       id="layer2"
       inkscape:label="Background"
       style="display:inline">
      <g
         id="g565">
        <g
           id="g1936">
          <g
             id="g1251">
            <g
               id="g4368">
              <path
                 style="color:#bebebe;display:inline;overflow:visible;visibility:visible;fill:#1f1c24;fill-opacity:1;fill-rule:nonzero;stroke:none;stroke-width:2;marker:none;enable-background:accumulate"
                 d="M 84,46.5 C 56.568735,46.5 34.5,68.568732 34.5,96 v 120 c 0,27.43127 22.068735,49.5 49.5,49.5 h 120 c 27.43127,0 49.5,-22.06873 49.5,-49.5 V 96 C 253.5,68.568732 231.43127,46.5 204,46.5 Z"
                 id="path4200" />
              <rect
                 style="fill:#ff2a7f;fill-opacity:1;stroke-width:0.619091"
                 id="rect1061"
                 width="127.27922"
                 height="127.27922"
                 x="-275.77164"
                 y="-72.124893"
                 transform="rotate(-135)" />
              <path
                 id="rect1247"
                 style="fill:#1f1c24;fill-opacity:1;stroke-width:0.481516"
                 d="m 143.99978,85.999572 -50,49.999998 h 100 z m -70,69.999998 70,70 70,-70 z" />
            </g>
            <path
               style="color:#bebebe;display:inline;overflow:visible;visibility:visible;fill:#c02bf9;fill-opacity:1;fill-rule:nonzero;stroke:none;stroke-width:2;marker:none;enable-background:accumulate"
               d="M 84,46.5 C 56.568735,46.5 34.5,68.568732 34.5,96 v 120 c 0,27.43127 22.068735,49.5 49.5,49.5 h 120 c 27.43127,0 49.5,-22.06873 49.5,-49.5 V 96 C 253.5,68.568732 231.43127,46.5 204,46.5 Z"
               id="path4370" />
            <path
               style="color:#bebebe;display:inline;overflow:visible;visibility:visible;fill:url(#linearGradient1363);fill-opacity:1;fill-rule:nonzero;stroke:none;stroke-width:2;marker:none;enable-background:accumulate"
               d="m 34.5,216 c 0,27.43126 22.06873,49.5 49.5,49.5 h 120 c 27.43127,0 49.5,-22.06874 49.5,-49.5 V 96 C 253.5,68.56873 231.43127,46.5 204,46.5 H 84 C 56.56873,46.5 34.5,68.56873 34.5,96 Z"
               id="path1313" />
          </g>
          <g
             id="g2573"
             style="fill:#ffffff"
             transform="matrix(1.8819001,0,0,1.8819001,-583.71829,-266.23817)">
            <path
               d="m 371.46237,234.55301 h -8.77 a 1.241,1.241 0 0 0 -1.24,1.247 c 0,0 0.003,0 0.003,0.008 h -0.003 v 6.257 h 0.003 l -0.003,0.005 c 0,0.686 0.552,1.25 1.24,1.25 h 8.77 v 4.174 h -10.943 v -0.01 a 3.235,3.235 0 0 1 -3.239,-3.234 v -10.64 a 3.233,3.233 0 0 1 3.239,-3.223 h 10.943 z"
               style="fill:#ffffff;fill-opacity:1;fill-rule:evenodd;stroke:none;stroke-width:1.33333"
               id="path2436" />
            <path
               d="m 374.62837,222.93301 a 3.28,3.28 0 0 1 -3.282,3.284 h -14.076 v -4.23 h 11.867 c 0.698,0 1.258,-0.571 1.258,-1.266 v -13.984 c 0,-0.697 -0.56,-1.262 -1.258,-1.262 h -6.377 a 1.259,1.259 0 0 0 -1.258,1.262 v 6.364 a 1.26,1.26 0 0 0 1.258,1.266 h 5.095 v 4.23 h -7.303 a 3.277,3.277 0 0 1 -3.281,-3.281 v -10.792 a 3.28,3.28 0 0 1 3.281,-3.283 h 10.794 a 3.283,3.283 0 0 1 3.282,3.283 z"
               style="fill:#ffffff;fill-opacity:1;fill-rule:evenodd;stroke:none;stroke-width:1.33333"
               id="path2438" />
            <path
               d="m 416.10237,247.48501 h -4.172 v -12.93 h -2.93 a 1.241,1.241 0 0 0 -1.242,1.246 v 11.684 h -4.17 v -12.93 h -2.933 a 1.243,1.243 0 0 0 -1.242,1.246 v 11.695 h -4.17 v -13.884 a 3.23,3.23 0 0 1 3.235,-3.224 h 17.623 z"
               style="fill:#ffffff;fill-opacity:1;fill-rule:evenodd;stroke:none;stroke-width:1.33333"
               id="path2440" />
            <path
               d="m 416.11237,222.93301 a 3.28,3.28 0 0 1 -3.281,3.284 h -14.076 v -4.23 h 11.867 c 0.7,0 1.264,-0.571 1.264,-1.266 v -13.984 a 1.261,1.261 0 0 0 -1.264,-1.262 h -6.376 a 1.26,1.26 0 0 0 -1.255,1.262 v 6.364 c 0,0.699 0.564,1.266 1.255,1.266 h 5.092 v 4.23 h -7.3 a 3.28,3.28 0 0 1 -3.283,-3.281 v -10.792 a 3.281,3.281 0 0 1 3.284,-3.283 h 10.791 a 3.284,3.284 0 0 1 3.281,3.283 z"
               style="fill:#ffffff;fill-opacity:1;fill-rule:evenodd;stroke:none;stroke-width:1.33333"
               id="path2442" />
            <path
               d="m 391.13037,206.74801 v 6.353 a 1.25,1.25 0 0 1 -1.248,1.267 h -6.375 a 1.261,1.261 0 0 1 -1.26,-1.267 v -6.364 c 0,-0.697 0.56,-1.261 1.26,-1.261 h 6.375 a 1.248,1.248 0 0 1 1.248,1.261 z m 0.96,-5.505 h -10.795 a 3.28,3.28 0 0 0 -3.279,3.282 v 10.792 a 3.277,3.277 0 0 0 3.279,3.282 h 10.795 a 3.283,3.283 0 0 0 3.28,-3.282 v -10.792 a 3.284,3.284 0 0 0 -3.28,-3.282"
               style="fill:#ffffff;fill-opacity:1;fill-rule:evenodd;stroke:none;stroke-width:1.33333"
               id="path2444" />
            <path
               d="m 387.73437,235.80801 v 6.257 a 1.244,1.244 0 0 1 -1.238,1.25 c -0.006,0 -0.008,-0.007 -0.014,-0.007 v 0.007 h -6.256 v -0.007 c 0,0 -0.007,0.007 -0.014,0.007 a 1.244,1.244 0 0 1 -1.24,-1.25 v -6.265 c 0,-0.688 0.552,-1.247 1.24,-1.247 h 6.284 a 1.24,1.24 0 0 1 1.238,1.247 z m 0.937,-5.421 h -10.635 a 3.23,3.23 0 0 0 -3.236,3.223 v 10.64 a 3.233,3.233 0 0 0 3.236,3.233 h 10.635 a 3.233,3.233 0 0 0 3.232,-3.233 v -10.64 a 3.232,3.232 0 0 0 -3.232,-3.224"
               style="fill:#ffffff;fill-opacity:1;fill-rule:evenodd;stroke:none;stroke-width:1.33333"
               id="path2446" />
            <path
               d="m 422.78337,254.75201 c 0,1.075 -0.433,2.04 -1.137,2.745 a 3.864,3.864 0 0 1 -2.743,1.135 h -64.42 a 3.876,3.876 0 0 1 -3.88,-3.88 v -60.77 a 3.872,3.872 0 0 1 1.137,-2.744 3.868,3.868 0 0 1 2.743,-1.136 h 64.42 a 3.87,3.87 0 0 1 2.743,1.136 3.861,3.861 0 0 1 1.137,2.742 z m -0.005,-64.647 a 5.459,5.459 0 0 0 -3.875,-1.605 h -64.42 a 5.459,5.459 0 0 0 -3.875,1.605 5.461,5.461 0 0 0 -1.608,3.876 v 60.77 c 0,1.513 0.615,2.889 1.608,3.878 a 5.467,5.467 0 0 0 3.875,1.607 h 64.42 a 5.467,5.467 0 0 0 3.875,-1.607 5.467,5.467 0 0 0 1.608,-3.877 v -60.77 a 5.467,5.467 0 0 0 -1.608,-3.877"
               style="fill:#ffffff;fill-opacity:1;fill-rule:nonzero;stroke:none;stroke-width:1.33333"
               id="path2448" />
          </g>
        </g>
        <g
           id="g2109">
          <g
             id="g1255">
            <path
               style="color:#bebebe;display:inline;overflow:visible;visibility:visible;fill:#c02bf9;fill-opacity:1;fill-rule:nonzero;stroke:none;stroke-width:2;marker:none;enable-background:accumulate"
               d="m 310,32.5 c -9.70255,0 -17.5,7.797452 -17.5,17.5 v 52 c 0,9.70255 7.79745,17.5 17.5,17.5 h 52 c 9.70255,0 17.5,-7.79745 17.5,-17.5 V 50 c 0,-9.702548 -7.79745,-17.5 -17.5,-17.5 z"
               id="path4210" />
            <path
               style="color:#bebebe;display:inline;overflow:visible;visibility:visible;fill:url(#linearGradient1359);fill-opacity:1;fill-rule:nonzero;stroke:none;stroke-width:2;marker:none;enable-background:accumulate"
               d="m 292.5,102 c 0,9.70255 7.79745,17.5 17.5,17.5 h 52 c 9.70255,0 17.5,-7.79745 17.5,-17.5 V 50 c 0,-9.70255 -7.79745,-17.5 -17.5,-17.5 h -52 c -9.70255,0 -17.5,7.79745 -17.5,17.5 z"
               id="path1317" />
          </g>
          <g
             id="g2077"
             style="fill:#ffffff"
             transform="matrix(0.74760414,0,0,0.74760414,46.906436,-91.738451)">
            <path
               d="m 371.46237,234.55301 h -8.77 a 1.241,1.241 0 0 0 -1.24,1.247 c 0,0 0.003,0 0.003,0.008 h -0.003 v 6.257 h 0.003 l -0.003,0.005 c 0,0.686 0.552,1.25 1.24,1.25 h 8.77 v 4.174 h -10.943 v -0.01 a 3.235,3.235 0 0 1 -3.239,-3.234 v -10.64 a 3.233,3.233 0 0 1 3.239,-3.223 h 10.943 z"
               style="fill:#ffffff;fill-opacity:1;fill-rule:evenodd;stroke:none;stroke-width:1.33333"
               id="path2063" />
            <path
               d="m 374.62837,222.93301 a 3.28,3.28 0 0 1 -3.282,3.284 h -14.076 v -4.23 h 11.867 c 0.698,0 1.258,-0.571 1.258,-1.266 v -13.984 c 0,-0.697 -0.56,-1.262 -1.258,-1.262 h -6.377 a 1.259,1.259 0 0 0 -1.258,1.262 v 6.364 a 1.26,1.26 0 0 0 1.258,1.266 h 5.095 v 4.23 h -7.303 a 3.277,3.277 0 0 1 -3.281,-3.281 v -10.792 a 3.28,3.28 0 0 1 3.281,-3.283 h 10.794 a 3.283,3.283 0 0 1 3.282,3.283 z"
               style="fill:#ffffff;fill-opacity:1;fill-rule:evenodd;stroke:none;stroke-width:1.33333"
               id="path2065" />
            <path
               d="m 416.10237,247.48501 h -4.172 v -12.93 h -2.93 a 1.241,1.241 0 0 0 -1.242,1.246 v 11.684 h -4.17 v -12.93 h -2.933 a 1.243,1.243 0 0 0 -1.242,1.246 v 11.695 h -4.17 v -13.884 a 3.23,3.23 0 0 1 3.235,-3.224 h 17.623 z"
               style="fill:#ffffff;fill-opacity:1;fill-rule:evenodd;stroke:none;stroke-width:1.33333"
               id="path2067" />
            <path
               d="m 416.11237,222.93301 a 3.28,3.28 0 0 1 -3.281,3.284 h -14.076 v -4.23 h 11.867 c 0.7,0 1.264,-0.571 1.264,-1.266 v -13.984 a 1.261,1.261 0 0 0 -1.264,-1.262 h -6.376 a 1.26,1.26 0 0 0 -1.255,1.262 v 6.364 c 0,0.699 0.564,1.266 1.255,1.266 h 5.092 v 4.23 h -7.3 a 3.28,3.28 0 0 1 -3.283,-3.281 v -10.792 a 3.281,3.281 0 0 1 3.284,-3.283 h 10.791 a 3.284,3.284 0 0 1 3.281,3.283 z"
               style="fill:#ffffff;fill-opacity:1;fill-rule:evenodd;stroke:none;stroke-width:1.33333"
               id="path2069" />
            <path
               d="m 391.13037,206.74801 v 6.353 a 1.25,1.25 0 0 1 -1.248,1.267 h -6.375 a 1.261,1.261 0 0 1 -1.26,-1.267 v -6.364 c 0,-0.697 0.56,-1.261 1.26,-1.261 h 6.375 a 1.248,1.248 0 0 1 1.248,1.261 z m 0.96,-5.505 h -10.795 a 3.28,3.28 0 0 0 -3.279,3.282 v 10.792 a 3.277,3.277 0 0 0 3.279,3.282 h 10.795 a 3.283,3.283 0 0 0 3.28,-3.282 v -10.792 a 3.284,3.284 0 0 0 -3.28,-3.282"
               style="fill:#ffffff;fill-opacity:1;fill-rule:evenodd;stroke:none;stroke-width:1.33333"
               id="path2071" />
            <path
               d="m 387.73437,235.80801 v 6.257 a 1.244,1.244 0 0 1 -1.238,1.25 c -0.006,0 -0.008,-0.007 -0.014,-0.007 v 0.007 h -6.256 v -0.007 c 0,0 -0.007,0.007 -0.014,0.007 a 1.244,1.244 0 0 1 -1.24,-1.25 v -6.265 c 0,-0.688 0.552,-1.247 1.24,-1.247 h 6.284 a 1.24,1.24 0 0 1 1.238,1.247 z m 0.937,-5.421 h -10.635 a 3.23,3.23 0 0 0 -3.236,3.223 v 10.64 a 3.233,3.233 0 0 0 3.236,3.233 h 10.635 a 3.233,3.233 0 0 0 3.232,-3.233 v -10.64 a 3.232,3.232 0 0 0 -3.232,-3.224"
               style="fill:#ffffff;fill-opacity:1;fill-rule:evenodd;stroke:none;stroke-width:1.33333"
               id="path2073" />
            <path
               d="m 422.78337,254.75201 c 0,1.075 -0.433,2.04 -1.137,2.745 a 3.864,3.864 0 0 1 -2.743,1.135 h -64.42 a 3.876,3.876 0 0 1 -3.88,-3.88 v -60.77 a 3.872,3.872 0 0 1 1.137,-2.744 3.868,3.868 0 0 1 2.743,-1.136 h 64.42 a 3.87,3.87 0 0 1 2.743,1.136 3.861,3.861 0 0 1 1.137,2.742 z m -0.005,-64.647 a 5.459,5.459 0 0 0 -3.875,-1.605 h -64.42 a 5.459,5.459 0 0 0 -3.875,1.605 5.461,5.461 0 0 0 -1.608,3.876 v 60.77 c 0,1.513 0.615,2.889 1.608,3.878 a 5.467,5.467 0 0 0 3.875,1.607 h 64.42 a 5.467,5.467 0 0 0 3.875,-1.607 5.467,5.467 0 0 0 1.608,-3.877 v -60.77 a 5.467,5.467 0 0 0 -1.608,-3.877"
               style="fill:#ffffff;fill-opacity:1;fill-rule:nonzero;stroke:none;stroke-width:1.33333"
               id="path2075" />
          </g>
        </g>
        <g
           id="g1444">
          <path
             style="color:#bebebe;display:inline;overflow:visible;visibility:visible;fill:#c02bf9;fill-opacity:1;fill-rule:nonzero;stroke:none;stroke-width:2;marker:none;enable-background:accumulate"
             d="m 302.5,142.5 c -6.65502,0 -12,5.34498 -12,12 v 35 c 0,6.65502 5.34498,12 12,12 h 35 c 6.65502,0 12,-5.34498 12,-12 v -35 c 0,-6.65502 -5.34498,-12 -12,-12 z"
             id="path4212" />
          <path
             style="color:#bebebe;display:inline;overflow:visible;visibility:visible;fill:url(#linearGradient1357);fill-opacity:1;fill-rule:nonzero;stroke:none;stroke-width:2;marker:none;enable-background:accumulate"
             d="m 290.5,189.5 c 0,6.65502 5.34498,12 12,12 h 35 c 6.65502,0 12,-5.34498 12,-12 v -35 c 0,-6.65502 -5.34498,-12 -12,-12 h -35 c -6.65502,0 -12,5.34498 -12,12 z"
             id="path1319" />
        </g>
        <g
           id="g2219"
           style="fill:#ffffff"
           transform="matrix(0.50699591,0,0,0.50699591,123.94804,58.246338)">
          <path
             d="m 371.46237,234.55301 h -8.77 a 1.241,1.241 0 0 0 -1.24,1.247 c 0,0 0.003,0 0.003,0.008 h -0.003 v 6.257 h 0.003 l -0.003,0.005 c 0,0.686 0.552,1.25 1.24,1.25 h 8.77 v 4.174 h -10.943 v -0.01 a 3.235,3.235 0 0 1 -3.239,-3.234 v -10.64 a 3.233,3.233 0 0 1 3.239,-3.223 h 10.943 z"
             style="fill:#ffffff;fill-opacity:1;fill-rule:evenodd;stroke:none;stroke-width:1.33333"
             id="path2205" />
          <path
             d="m 374.62837,222.93301 a 3.28,3.28 0 0 1 -3.282,3.284 h -14.076 v -4.23 h 11.867 c 0.698,0 1.258,-0.571 1.258,-1.266 v -13.984 c 0,-0.697 -0.56,-1.262 -1.258,-1.262 h -6.377 a 1.259,1.259 0 0 0 -1.258,1.262 v 6.364 a 1.26,1.26 0 0 0 1.258,1.266 h 5.095 v 4.23 h -7.303 a 3.277,3.277 0 0 1 -3.281,-3.281 v -10.792 a 3.28,3.28 0 0 1 3.281,-3.283 h 10.794 a 3.283,3.283 0 0 1 3.282,3.283 z"
             style="fill:#ffffff;fill-opacity:1;fill-rule:evenodd;stroke:none;stroke-width:1.33333"
             id="path2207" />
          <path
             d="m 416.10237,247.48501 h -4.172 v -12.93 h -2.93 a 1.241,1.241 0 0 0 -1.242,1.246 v 11.684 h -4.17 v -12.93 h -2.933 a 1.243,1.243 0 0 0 -1.242,1.246 v 11.695 h -4.17 v -13.884 a 3.23,3.23 0 0 1 3.235,-3.224 h 17.623 z"
             style="fill:#ffffff;fill-opacity:1;fill-rule:evenodd;stroke:none;stroke-width:1.33333"
             id="path2209" />
          <path
             d="m 416.11237,222.93301 a 3.28,3.28 0 0 1 -3.281,3.284 h -14.076 v -4.23 h 11.867 c 0.7,0 1.264,-0.571 1.264,-1.266 v -13.984 a 1.261,1.261 0 0 0 -1.264,-1.262 h -6.376 a 1.26,1.26 0 0 0 -1.255,1.262 v 6.364 c 0,0.699 0.564,1.266 1.255,1.266 h 5.092 v 4.23 h -7.3 a 3.28,3.28 0 0 1 -3.283,-3.281 v -10.792 a 3.281,3.281 0 0 1 3.284,-3.283 h 10.791 a 3.284,3.284 0 0 1 3.281,3.283 z"
             style="fill:#ffffff;fill-opacity:1;fill-rule:evenodd;stroke:none;stroke-width:1.33333"
             id="path2211" />
          <path
             d="m 391.13037,206.74801 v 6.353 a 1.25,1.25 0 0 1 -1.248,1.267 h -6.375 a 1.261,1.261 0 0 1 -1.26,-1.267 v -6.364 c 0,-0.697 0.56,-1.261 1.26,-1.261 h 6.375 a 1.248,1.248 0 0 1 1.248,1.261 z m 0.96,-5.505 h -10.795 a 3.28,3.28 0 0 0 -3.279,3.282 v 10.792 a 3.277,3.277 0 0 0 3.279,3.282 h 10.795 a 3.283,3.283 0 0 0 3.28,-3.282 v -10.792 a 3.284,3.284 0 0 0 -3.28,-3.282"
             style="fill:#ffffff;fill-opacity:1;fill-rule:evenodd;stroke:none;stroke-width:1.33333"
             id="path2213" />
          <path
             d="m 387.73437,235.80801 v 6.257 a 1.244,1.244 0 0 1 -1.238,1.25 c -0.006,0 -0.008,-0.007 -0.014,-0.007 v 0.007 h -6.256 v -0.007 c 0,0 -0.007,0.007 -0.014,0.007 a 1.244,1.244 0 0 1 -1.24,-1.25 v -6.265 c 0,-0.688 0.552,-1.247 1.24,-1.247 h 6.284 a 1.24,1.24 0 0 1 1.238,1.247 z m 0.937,-5.421 h -10.635 a 3.23,3.23 0 0 0 -3.236,3.223 v 10.64 a 3.233,3.233 0 0 0 3.236,3.233 h 10.635 a 3.233,3.233 0 0 0 3.232,-3.233 v -10.64 a 3.232,3.232 0 0 0 -3.232,-3.224"
             style="fill:#ffffff;fill-opacity:1;fill-rule:evenodd;stroke:none;stroke-width:1.33333"
             id="path2215" />
          <path
             d="m 422.78337,254.75201 c 0,1.075 -0.433,2.04 -1.137,2.745 a 3.864,3.864 0 0 1 -2.743,1.135 h -64.42 a 3.876,3.876 0 0 1 -3.88,-3.88 v -60.77 a 3.872,3.872 0 0 1 1.137,-2.744 3.868,3.868 0 0 1 2.743,-1.136 h 64.42 a 3.87,3.87 0 0 1 2.743,1.136 3.861,3.861 0 0 1 1.137,2.742 z m -0.005,-64.647 a 5.459,5.459 0 0 0 -3.875,-1.605 h -64.42 a 5.459,5.459 0 0 0 -3.875,1.605 5.461,5.461 0 0 0 -1.608,3.876 v 60.77 c 0,1.513 0.615,2.889 1.608,3.878 a 5.467,5.467 0 0 0 3.875,1.607 h 64.42 a 5.467,5.467 0 0 0 3.875,-1.607 5.467,5.467 0 0 0 1.608,-3.877 v -60.77 a 5.467,5.467 0 0 0 -1.608,-3.877"
             style="fill:#ffffff;fill-opacity:1;fill-rule:nonzero;stroke:none;stroke-width:1.33333"
             id="path2217" />
        </g>
        <g
           id="g1673">
          <path
             style="color:#bebebe;display:inline;overflow:visible;visibility:visible;fill:#c02bf9;fill-opacity:1;fill-rule:nonzero;stroke:none;stroke-width:2;marker:none;enable-background:accumulate"
             d="m 424,53.5 c -3.60654,0 -6.5,2.893464 -6.5,6.5 v 16 c 0,3.606536 2.89346,6.5 6.5,6.5 h 16 c 3.60654,0 6.5,-2.893464 6.5,-6.5 V 60 c 0,-3.606536 -2.89346,-6.5 -6.5,-6.5 z"
             id="path4206" />
          <path
             style="color:#bebebe;display:inline;overflow:visible;visibility:visible;fill:url(#linearGradient1361);fill-opacity:1;fill-rule:nonzero;stroke:none;stroke-width:2;marker:none;enable-background:accumulate"
             d="m 417.5,76 c 0,3.60654 2.89346,6.5 6.5,6.5 h 16 c 3.60654,0 6.5,-2.89346 6.5,-6.5 V 60 c 0,-3.60654 -2.89346,-6.5 -6.5,-6.5 h -16 c -3.60654,0 -6.5,2.89346 -6.5,6.5 z"
             id="path1315" />
        </g>
        <g
           id="g810"
           transform="matrix(1.2811393,0,0,1.2811393,-121.45154,-19.117632)">
          <path
             d="m 428.20442,70.538117 h -2.1855 a 0.30925891,0.30925891 0 0 0 -0.30901,0.310754 c 0,0 7.5e-4,0 7.5e-4,0.002 h -7.5e-4 v 1.559253 h 7.5e-4 l -7.5e-4,0.0012 c 0,0.170952 0.13756,0.311501 0.30901,0.311501 h 2.1855 v 1.040167 h -2.72702 v -0.0025 a 0.80616646,0.80616646 0 0 1 -0.80716,-0.805917 V 70.30312 a 0.80566806,0.80566806 0 0 1 0.80716,-0.803176 h 2.72702 z"
             style="fill:#ffffff;fill-opacity:1;fill-rule:evenodd;stroke:none;stroke-width:0.332268"
             id="path2484" />
          <path
             d="m 428.99339,67.642397 a 0.81738053,0.81738053 0 0 1 -0.81788,0.818377 h -3.50776 v -1.054122 h 2.95727 c 0.17394,0 0.3135,-0.142294 0.3135,-0.315489 v -3.484832 c 0,-0.173693 -0.13956,-0.314492 -0.3135,-0.314492 h -1.58916 a 0.31374454,0.31374454 0 0 0 -0.31349,0.314492 v 1.585918 a 0.31399374,0.31399374 0 0 0 0.31349,0.315489 h 1.26969 v 1.054122 h -1.81992 A 0.81663292,0.81663292 0 0 1 424.668,65.74423 v -2.689381 a 0.81738053,0.81738053 0 0 1 0.81763,-0.818129 h 2.68988 a 0.81812813,0.81812813 0 0 1 0.81788,0.818129 z"
             style="fill:#ffffff;fill-opacity:1;fill-rule:evenodd;stroke:none;stroke-width:0.332268"
             id="path2486" />
          <path
             d="m 439.32876,73.760789 h -1.03966 v -3.222174 h -0.73016 a 0.30925891,0.30925891 0 0 0 -0.30951,0.310505 v 2.911669 h -1.03917 v -3.222174 h -0.73091 a 0.30975732,0.30975732 0 0 0 -0.30951,0.310505 v 2.91441 h -1.03917 v -3.459912 a 0.80492046,0.80492046 0 0 1 0.80617,-0.803425 h 4.39168 z"
             style="fill:#ffffff;fill-opacity:1;fill-rule:evenodd;stroke:none;stroke-width:0.332268"
             id="path2488" />
          <path
             d="m 439.33126,67.642397 a 0.81738053,0.81738053 0 0 1 -0.81763,0.818377 h -3.50776 v -1.054122 h 2.95727 c 0.17444,0 0.31499,-0.142294 0.31499,-0.315489 v -3.484832 a 0.31424294,0.31424294 0 0 0 -0.31499,-0.314492 h -1.58891 a 0.31399374,0.31399374 0 0 0 -0.31274,0.314492 v 1.585918 c 0,0.174192 0.14055,0.315489 0.31274,0.315489 h 1.26894 V 66.56186 H 435.824 a 0.81738053,0.81738053 0 0 1 -0.81813,-0.81763 v -2.689381 a 0.81762973,0.81762973 0 0 1 0.81838,-0.818129 h 2.68913 a 0.81837733,0.81837733 0 0 1 0.81763,0.818129 z"
             style="fill:#ffffff;fill-opacity:1;fill-rule:evenodd;stroke:none;stroke-width:0.332268"
             id="path2490" />
          <path
             d="m 433.10571,63.609072 v 1.583177 a 0.31150173,0.31150173 0 0 1 -0.31101,0.315738 h -1.58865 a 0.31424294,0.31424294 0 0 1 -0.314,-0.315738 v -1.585918 c 0,-0.173693 0.13955,-0.314243 0.314,-0.314243 h 1.58865 a 0.31100332,0.31100332 0 0 1 0.31101,0.314243 z m 0.23923,-1.371853 h -2.69013 a 0.81738053,0.81738053 0 0 0 -0.81713,0.817879 v 2.689381 a 0.81663292,0.81663292 0 0 0 0.81713,0.817879 h 2.69013 a 0.81812813,0.81812813 0 0 0 0.81738,-0.817879 v -2.689381 a 0.81837733,0.81837733 0 0 0 -0.81738,-0.817879"
             style="fill:#ffffff;fill-opacity:1;fill-rule:evenodd;stroke:none;stroke-width:0.332268"
             id="path2492" />
          <path
             d="m 432.25942,70.850865 v 1.559253 a 0.31000652,0.31000652 0 0 1 -0.30851,0.311501 c -0.002,0 -0.002,-0.0017 -0.003,-0.0017 v 0.0017 h -1.559 v -0.0017 c 0,0 -0.002,0.0017 -0.003,0.0017 a 0.31000652,0.31000652 0 0 1 -0.30901,-0.311501 v -1.561247 c 0,-0.171451 0.13756,-0.310754 0.30901,-0.310754 h 1.56598 a 0.30900971,0.30900971 0 0 1 0.30851,0.310754 z m 0.2335,-1.350921 h -2.65025 a 0.80492046,0.80492046 0 0 0 -0.80642,0.803176 v 2.651503 a 0.80566806,0.80566806 0 0 0 0.80642,0.805668 h 2.65025 a 0.80566806,0.80566806 0 0 0 0.80542,-0.805668 V 70.30312 a 0.80541886,0.80541886 0 0 0 -0.80542,-0.803425"
             style="fill:#ffffff;fill-opacity:1;fill-rule:evenodd;stroke:none;stroke-width:0.332268"
             id="path2494" />
        </g>
        <g
           id="g1562">
          <path
             style="color:#bebebe;display:inline;overflow:visible;visibility:visible;fill:#c02bf9;fill-opacity:1;fill-rule:nonzero;stroke:none;stroke-width:2;marker:none;enable-background:accumulate"
             d="m 300,223.5 c -4.71531,0 -8.5,3.78469 -8.5,8.5 v 24 c 0,4.71531 3.78469,8.5 8.5,8.5 h 24 c 4.71531,0 8.5,-3.78469 8.5,-8.5 v -24 c 0,-4.71531 -3.78469,-8.5 -8.5,-8.5 z"
             id="path4208" />
          <path
             style="color:#bebebe;display:inline;overflow:visible;visibility:visible;fill:url(#linearGradient1355);fill-opacity:1;fill-rule:nonzero;stroke:none;stroke-width:2;marker:none;enable-background:accumulate"
             d="m 291.5,256 c 0,4.71531 3.78469,8.5 8.5,8.5 h 24 c 4.71531,0 8.5,-3.78469 8.5,-8.5 v -24 c 0,-4.71531 -3.78469,-8.5 -8.5,-8.5 h -24 c -4.71531,0 -8.5,3.78469 -8.5,8.5 z"
             id="path1321" />
        </g>
        <g
           id="g292"
           transform="matrix(1.2811632,0,0,1.2811632,-87.722022,-68.604051)">
          <path
             d="m 306.63383,247.58838 h -3.08984 a 0.43722811,0.43722811 0 0 0 -0.43687,0.43934 c 0,0 10e-4,0 10e-4,0.003 h -10e-4 v 2.20446 h 10e-4 l -10e-4,0.002 c 0,0.24169 0.19448,0.4404 0.43687,0.4404 h 3.08984 v 1.47058 h -3.85543 v -0.004 a 1.1397526,1.1397526 0 0 1 -1.14116,-1.1394 v -3.74868 a 1.1390479,1.1390479 0 0 1 1.14116,-1.13553 h 3.85543 z"
             style="fill:#ffffff;fill-opacity:1;fill-rule:evenodd;stroke:none;stroke-width:0.469758"
             id="path2932" />
          <path
             d="m 307.74927,243.49443 a 1.1556069,1.1556069 0 0 1 -1.15631,1.15701 h -4.95924 v -1.49031 h 4.18097 c 0.24592,0 0.44322,-0.20117 0.44322,-0.44603 v -4.92683 c 0,-0.24557 -0.1973,-0.44463 -0.44322,-0.44463 h -2.24674 a 0.44356986,0.44356986 0 0 0 -0.44322,0.44463 v 2.24216 a 0.44392218,0.44392218 0 0 0 0.44322,0.44603 h 1.79507 v 1.49031 h -2.57299 a 1.15455,1.15455 0 0 1 -1.15596,-1.15596 v -3.80223 a 1.1556069,1.1556069 0 0 1 1.15596,-1.15666 h 3.80293 a 1.1566639,1.1566639 0 0 1 1.15631,1.15666 z"
             style="fill:#ffffff;fill-opacity:1;fill-rule:evenodd;stroke:none;stroke-width:0.469758"
             id="path2934" />
          <path
             d="m 322.36136,252.14457 h -1.46988 v -4.55549 h -1.03229 a 0.43722811,0.43722811 0 0 0 -0.43758,0.43899 v 4.1165 h -1.46917 v -4.55549 h -1.03335 a 0.43793275,0.43793275 0 0 0 -0.43759,0.43899 v 4.12037 h -1.46917 v -4.8916 a 1.137991,1.137991 0 0 1 1.13976,-1.13587 h 6.20892 z"
             style="fill:#ffffff;fill-opacity:1;fill-rule:evenodd;stroke:none;stroke-width:0.469758"
             id="path2936" />
          <path
             d="m 322.36488,243.49443 a 1.1556069,1.1556069 0 0 1 -1.15596,1.15701 h -4.95924 v -1.49031 h 4.18097 c 0.24662,0 0.44533,-0.20117 0.44533,-0.44603 v -4.92683 a 0.4442745,0.4442745 0 0 0 -0.44533,-0.44463 h -2.24639 a 0.44392218,0.44392218 0 0 0 -0.44216,0.44463 v 2.24216 c 0,0.24627 0.19871,0.44603 0.44216,0.44603 h 1.79401 v 1.49031 h -2.57193 a 1.1556069,1.1556069 0 0 1 -1.15666,-1.15596 v -3.80223 a 1.1559593,1.1559593 0 0 1 1.15702,-1.15666 h 3.80187 a 1.1570162,1.1570162 0 0 1 1.15596,1.15666 z"
             style="fill:#ffffff;fill-opacity:1;fill-rule:evenodd;stroke:none;stroke-width:0.469758"
             id="path2938" />
          <path
             d="m 313.56325,237.79214 v 2.23829 a 0.44039899,0.44039899 0 0 1 -0.4397,0.44638 h -2.24603 a 0.4442745,0.4442745 0 0 1 -0.44393,-0.44638 v -2.24216 c 0,-0.24557 0.1973,-0.44428 0.44393,-0.44428 h 2.24603 a 0.43969435,0.43969435 0 0 1 0.4397,0.44428 z m 0.33822,-1.93952 h -3.80328 a 1.1556069,1.1556069 0 0 0 -1.15526,1.15632 v 3.80222 a 1.15455,1.15455 0 0 0 1.15526,1.15632 h 3.80328 a 1.1566639,1.1566639 0 0 0 1.15561,-1.15632 v -3.80222 a 1.1570162,1.1570162 0 0 0 -1.15561,-1.15632"
             style="fill:#ffffff;fill-opacity:1;fill-rule:evenodd;stroke:none;stroke-width:0.469758"
             id="path2940" />
          <path
             d="m 312.36677,248.03054 v 2.20446 a 0.43828507,0.43828507 0 0 1 -0.43617,0.4404 c -0.002,0 -0.003,-0.002 -0.005,-0.002 v 0.002 h -2.20411 v -0.002 c 0,0 -0.002,0.002 -0.005,0.002 a 0.43828507,0.43828507 0 0 1 -0.43687,-0.4404 v -2.20728 c 0,-0.2424 0.19448,-0.43934 0.43687,-0.43934 h 2.21398 a 0.4368758,0.4368758 0 0 1 0.43617,0.43934 z m 0.33012,-1.90993 h -3.74691 a 1.137991,1.137991 0 0 0 -1.14011,1.13553 v 3.74868 a 1.1390479,1.1390479 0 0 0 1.14011,1.13904 h 3.74691 a 1.1390479,1.1390479 0 0 0 1.1387,-1.13904 v -3.74868 a 1.1386956,1.1386956 0 0 0 -1.1387,-1.13588"
             style="fill:#ffffff;fill-opacity:1;fill-rule:evenodd;stroke:none;stroke-width:0.469758"
             id="path2942" />
        </g>
        <g
           id="g1654">
          <g
             id="g1677">
            <path
               style="color:#bebebe;display:inline;overflow:visible;visibility:visible;fill:#c02bf9;fill-opacity:1;fill-rule:nonzero;stroke:none;stroke-width:2;marker:none;enable-background:accumulate"
               d="m 422,101.5 c -2.49699,0 -4.5,2.00301 -4.5,4.5 v 12 c 0,2.49699 2.00301,4.5 4.5,4.5 h 12 c 2.49699,0 4.5,-2.00301 4.5,-4.5 v -12 c 0,-2.49699 -2.00301,-4.5 -4.5,-4.5 z"
               id="path4204" />
            <path
               style="color:#bebebe;display:inline;overflow:visible;visibility:visible;fill:url(#linearGradient1353);fill-opacity:1;fill-rule:nonzero;stroke:none;stroke-width:2;marker:none;enable-background:accumulate"
               d="m 417.5,118 c 0,2.49699 2.00301,4.5 4.5,4.5 h 12 c 2.49699,0 4.5,-2.00301 4.5,-4.5 v -12 c 0,-2.49699 -2.00301,-4.5 -4.5,-4.5 h -12 c -2.49699,0 -4.5,2.00301 -4.5,4.5 z"
               id="path1323" />
          </g>
          <g
             id="g1241"
             transform="matrix(1.2811723,0,0,1.2811723,-120.34128,-31.491413)">
            <path
               d="m 425.25148,113.83795 h -1.5826 a 0.22394611,0.22394611 0 0 0 -0.22377,0.22503 c 0,0 5.4e-4,0 5.4e-4,0.001 h -5.4e-4 v 1.12911 h 5.4e-4 l -5.4e-4,9.1e-4 c 0,0.12379 0.0996,0.22557 0.22377,0.22557 h 1.5826 v 0.75322 h -1.97474 v -0.002 a 0.58377571,0.58377571 0 0 1 -0.58449,-0.5836 v -1.92005 a 0.5834148,0.5834148 0 0 1 0.58449,-0.58161 h 1.97474 z"
               style="fill:#ffffff;fill-opacity:1;fill-rule:evenodd;stroke:none;stroke-width:0.240608"
               id="path3213" />
            <path
               d="m 425.8228,111.74105 a 0.59189624,0.59189624 0 0 1 -0.59226,0.59261 h -2.5401 v -0.76333 h 2.14148 c 0.12595,0 0.22701,-0.10304 0.22701,-0.22845 v -2.5235 c 0,-0.12578 -0.10106,-0.22774 -0.22701,-0.22774 h -1.15077 a 0.22719432,0.22719432 0 0 0 -0.22702,0.22774 v 1.14842 a 0.22737477,0.22737477 0 0 0 0.22702,0.22846 h 0.91942 v 0.76333 h -1.31787 a 0.59135487,0.59135487 0 0 1 -0.59208,-0.59208 v -1.94748 a 0.59189624,0.59189624 0 0 1 0.59208,-0.59244 h 1.94784 a 0.59243761,0.59243761 0 0 1 0.59226,0.59244 z"
               style="fill:#ffffff;fill-opacity:1;fill-rule:evenodd;stroke:none;stroke-width:0.240608"
               id="path3215" />
            <path
               d="m 433.30704,116.17161 h -0.75286 v -2.3333 h -0.52874 a 0.22394611,0.22394611 0 0 0 -0.22413,0.22485 v 2.10845 h -0.7525 v -2.3333 h -0.52928 a 0.22430702,0.22430702 0 0 0 -0.22412,0.22485 v 2.11043 h -0.75251 v -2.50545 a 0.58287343,0.58287343 0 0 1 0.58378,-0.58179 h 3.18018 z"
               style="fill:#ffffff;fill-opacity:1;fill-rule:evenodd;stroke:none;stroke-width:0.240608"
               id="path3217" />
            <path
               d="m 433.30884,111.74105 a 0.59189624,0.59189624 0 0 1 -0.59207,0.59261 h -2.5401 v -0.76333 h 2.14147 c 0.12632,0 0.2281,-0.10304 0.2281,-0.22845 v -2.5235 a 0.22755523,0.22755523 0 0 0 -0.2281,-0.22774 h -1.15059 a 0.22737477,0.22737477 0 0 0 -0.22647,0.22774 v 1.14842 c 0,0.12614 0.10178,0.22846 0.22647,0.22846 h 0.91888 v 0.76333 h -1.31733 a 0.59189624,0.59189624 0 0 1 -0.59243,-0.59208 v -1.94748 a 0.59207669,0.59207669 0 0 1 0.59261,-0.59244 h 1.94731 a 0.59261806,0.59261806 0 0 1 0.59207,0.59244 z"
               style="fill:#ffffff;fill-opacity:1;fill-rule:evenodd;stroke:none;stroke-width:0.240608"
               id="path3219" />
            <path
               d="m 428.80069,108.82036 v 1.14644 a 0.22557021,0.22557021 0 0 1 -0.22521,0.22864 h -1.15041 a 0.22755523,0.22755523 0 0 1 -0.22737,-0.22864 v -1.14842 c 0,-0.12578 0.10105,-0.22756 0.22737,-0.22756 h 1.15041 a 0.2252093,0.2252093 0 0 1 0.22521,0.22756 z m 0.17324,-0.99341 h -1.94803 a 0.59189624,0.59189624 0 0 0 -0.59171,0.59226 v 1.94748 a 0.59135487,0.59135487 0 0 0 0.59171,0.59226 h 1.94803 a 0.59243761,0.59243761 0 0 0 0.59189,-0.59226 v -1.94748 a 0.59261806,0.59261806 0 0 0 -0.59189,-0.59226"
               style="fill:#ffffff;fill-opacity:1;fill-rule:evenodd;stroke:none;stroke-width:0.240608"
               id="path3221" />
            <path
               d="m 428.18786,114.06442 v 1.12911 a 0.22448748,0.22448748 0 0 1 -0.22341,0.22557 c -10e-4,0 -10e-4,-0.001 -0.003,-0.001 v 0.001 h -1.12894 v -0.001 c 0,0 -0.001,0.001 -0.003,0.001 a 0.22448748,0.22448748 0 0 1 -0.22377,-0.22557 v -1.13055 c 0,-0.12416 0.0996,-0.22503 0.22377,-0.22503 h 1.13398 a 0.22376565,0.22376565 0 0 1 0.22341,0.22503 z m 0.16909,-0.97825 h -1.91915 a 0.58287343,0.58287343 0 0 0 -0.58396,0.58161 v 1.92005 a 0.5834148,0.5834148 0 0 0 0.58396,0.58342 h 1.91915 a 0.5834148,0.5834148 0 0 0 0.58323,-0.58342 v -1.92005 a 0.58323434,0.58323434 0 0 0 -0.58323,-0.58179"
               style="fill:#ffffff;fill-opacity:1;fill-rule:evenodd;stroke:none;stroke-width:0.240608"
               id="path3223" />
          </g>
        </g>
        <g
           id="g2013">
          <g
             id="g1681">
            <path
               style="color:#bebebe;display:inline;overflow:visible;visibility:visible;fill:#c02bf9;fill-opacity:1;fill-rule:nonzero;stroke:none;stroke-width:2;marker:none;enable-background:accumulate"
               d="m 419,140.5 c -1.3844,0 -2.5,1.1156 -2.5,2.5 v 10 c 0,1.3844 1.1156,2.5 2.5,2.5 h 10 c 1.3844,0 2.5,-1.1156 2.5,-2.5 v -10 c 0,-1.3844 -1.1156,-2.5 -2.5,-2.5 z"
               id="path4202" />
            <path
               style="color:#bebebe;display:inline;overflow:visible;visibility:visible;fill:url(#linearGradient1351);fill-opacity:1;fill-rule:nonzero;stroke:none;stroke-width:2;marker:none;enable-background:accumulate"
               d="m 416.5,153 c 0,1.3844 1.1156,2.5 2.5,2.5 h 10 c 1.3844,0 2.5,-1.1156 2.5,-2.5 v -10 c 0,-1.3844 -1.1156,-2.5 -2.5,-2.5 h -10 c -1.3844,0 -2.5,1.1156 -2.5,2.5 z"
               id="path1325" />
          </g>
          <g
             id="g1921"
             transform="matrix(1.2811537,0,0,1.2811537,-119.20883,-41.610831)">
            <path
               d="m 422.03676,149.31282 h -1.13043 a 0.1599615,0.1599615 0 0 0 -0.15983,0.16074 c 0,0 3.9e-4,0 3.9e-4,0.001 h -3.9e-4 v 0.80651 h 3.9e-4 l -3.9e-4,6.4e-4 c 0,0.0884 0.0711,0.16112 0.15983,0.16112 h 1.13043 v 0.53802 h -1.41052 v -0.001 a 0.41698264,0.41698264 0 0 1 -0.4175,-0.41685 v -1.37147 a 0.41672484,0.41672484 0 0 1 0.4175,-0.41544 h 1.41052 z"
               style="fill:#ffffff;fill-opacity:1;fill-rule:evenodd;stroke:none;stroke-width:0.171863"
               id="path3343" />
            <path
               d="m 422.44485,147.81503 a 0.42278301,0.42278301 0 0 1 -0.42304,0.4233 h -1.81436 v -0.54523 h 1.52963 c 0.09,0 0.16215,-0.0736 0.16215,-0.16319 v -1.8025 c 0,-0.0898 -0.0722,-0.16266 -0.16215,-0.16266 h -0.82198 a 0.16228165,0.16228165 0 0 0 -0.16216,0.16266 v 0.82031 a 0.16241055,0.16241055 0 0 0 0.16216,0.16318 h 0.65673 v 0.54524 h -0.94134 a 0.42239632,0.42239632 0 0 1 -0.42291,-0.42292 v -1.39106 a 0.42278301,0.42278301 0 0 1 0.42291,-0.42317 h 1.39132 a 0.4231697,0.4231697 0 0 1 0.42304,0.42317 z"
               style="fill:#ffffff;fill-opacity:1;fill-rule:evenodd;stroke:none;stroke-width:0.171863"
               id="path3345" />
            <path
               d="m 427.79074,150.97972 h -0.53776 v -1.66664 h -0.37767 a 0.1599615,0.1599615 0 0 0 -0.16009,0.1606 v 1.50604 h -0.5375 v -1.66664 h -0.37806 a 0.16021929,0.16021929 0 0 0 -0.16009,0.1606 v 1.50746 h -0.5375 v -1.78961 a 0.41633815,0.41633815 0 0 1 0.41698,-0.41557 h 2.27156 z"
               style="fill:#ffffff;fill-opacity:1;fill-rule:evenodd;stroke:none;stroke-width:0.171863"
               id="path3347" />
            <path
               d="m 427.79202,147.81503 a 0.42278301,0.42278301 0 0 1 -0.42291,0.4233 h -1.81436 v -0.54523 h 1.52963 c 0.0902,0 0.16292,-0.0736 0.16292,-0.16319 v -1.8025 a 0.16253944,0.16253944 0 0 0 -0.16292,-0.16266 h -0.82185 a 0.16241055,0.16241055 0 0 0 -0.16177,0.16266 v 0.82031 c 0,0.0901 0.0727,0.16318 0.16177,0.16318 h 0.65634 v 0.54524 h -0.94095 a 0.42278301,0.42278301 0 0 1 -0.42317,-0.42292 v -1.39106 a 0.42291191,0.42291191 0 0 1 0.4233,-0.42317 h 1.39093 a 0.4232986,0.4232986 0 0 1 0.42292,0.42317 z"
               style="fill:#ffffff;fill-opacity:1;fill-rule:evenodd;stroke:none;stroke-width:0.171863"
               id="path3349" />
            <path
               d="m 424.57191,145.72883 v 0.81889 a 0.16112158,0.16112158 0 0 1 -0.16086,0.16331 h -0.82172 a 0.16253944,0.16253944 0 0 1 -0.16241,-0.16331 v -0.82031 c 0,-0.0898 0.0722,-0.16254 0.16241,-0.16254 h 0.82172 a 0.16086378,0.16086378 0 0 1 0.16086,0.16254 z m 0.12374,-0.70958 h -1.39144 a 0.42278301,0.42278301 0 0 0 -0.42266,0.42304 v 1.39106 a 0.42239632,0.42239632 0 0 0 0.42266,0.42304 h 1.39144 a 0.4231697,0.4231697 0 0 0 0.42279,-0.42304 v -1.39106 a 0.4232986,0.4232986 0 0 0 -0.42279,-0.42304"
               style="fill:#ffffff;fill-opacity:1;fill-rule:evenodd;stroke:none;stroke-width:0.171863"
               id="path3351" />
            <path
               d="m 424.13418,149.47459 v 0.80651 a 0.16034819,0.16034819 0 0 1 -0.15958,0.16112 c -7.7e-4,0 -0.001,-9e-4 -0.002,-9e-4 v 9e-4 h -0.80638 v -9e-4 c 0,0 -9.1e-4,9e-4 -0.002,9e-4 a 0.16034819,0.16034819 0 0 1 -0.15983,-0.16112 v -0.80754 c 0,-0.0887 0.0712,-0.16074 0.15983,-0.16074 h 0.80999 a 0.1598326,0.1598326 0 0 1 0.15958,0.16074 z m 0.12077,-0.69876 h -1.37082 a 0.41633815,0.41633815 0 0 0 -0.41711,0.41544 v 1.37147 a 0.41672484,0.41672484 0 0 0 0.41711,0.41672 h 1.37082 a 0.41672484,0.41672484 0 0 0 0.4166,-0.41672 v -1.37147 a 0.41659594,0.41659594 0 0 0 -0.4166,-0.41556"
               style="fill:#ffffff;fill-opacity:1;fill-rule:evenodd;stroke:none;stroke-width:0.171863"
               id="path3353" />
          </g>
        </g>
      </g>
    </g>
    <g
       inkscape:groupmode="layer"
       id="layer6"
       inkscape:label="Symbols"
       style="display:inline" />
    <g
       inkscape:groupmode="layer"
       id="layer5"
       inkscape:label="Highlights"
       style="display:inline"
       sodipodi:insensitive="true">
      <path
         style="color:#bebebe;display:inline;overflow:visible;visibility:visible;opacity:0.13;fill:#ffffff;fill-opacity:1;fill-rule:nonzero;stroke:none;stroke-width:0;marker:none;enable-background:accumulate"
         d="M 84,47 C 56.836703,47 35,68.836703 35,96 v 1 C 35,69.836703 56.836703,48 84,48 h 120 c 27.1633,0 49,21.836703 49,49 V 96 C 253,68.836703 231.1633,47 204,47 Z"
         id="rect3894"
         inkscape:connector-curvature="0" />
      <path
         style="color:#bebebe;display:inline;overflow:visible;visibility:visible;opacity:0.13;fill:#ffffff;fill-opacity:1;fill-rule:nonzero;stroke:none;stroke-width:0;marker:none;enable-background:accumulate"
         d="m 419,141 c -1.1253,0 -2,0.8747 -2,2 v 1 c 0,-1.1253 0.8747,-2 2,-2 h 10 c 1.1253,0 2,0.8747 2,2 v -1 c 0,-1.1253 -0.8747,-2 -2,-2 z"
         id="rect3896"
         inkscape:connector-curvature="0" />
      <path
         style="color:#bebebe;display:inline;overflow:visible;visibility:visible;opacity:0.13;fill:#ffffff;fill-opacity:1;fill-rule:nonzero;stroke:none;stroke-width:0;marker:none;enable-background:accumulate"
         d="m 422,102 c -2.2333,0 -4,1.7667 -4,4 v 1 c 0,-2.2333 1.7667,-4 4,-4 h 12 c 2.2333,0 4,1.7667 4,4 v -1 c 0,-2.2333 -1.7667,-4 -4,-4 z"
         id="rect3898"
         inkscape:connector-curvature="0" />
      <path
         style="color:#bebebe;display:inline;overflow:visible;visibility:visible;opacity:0.13;fill:#ffffff;fill-opacity:1;fill-rule:nonzero;stroke:none;stroke-width:0;marker:none;enable-background:accumulate"
         d="m 424,54 c -3.3413,0 -6,2.658703 -6,6 v 1 c 0,-3.341297 2.6587,-6 6,-6 h 16 c 3.3413,0 6,2.658703 6,6 v -1 c 0,-3.341297 -2.6587,-6 -6,-6 z"
         id="rect3900"
         inkscape:connector-curvature="0" />
      <path
         style="color:#bebebe;display:inline;overflow:visible;visibility:visible;opacity:0.13;fill:#ffffff;fill-opacity:1;fill-rule:nonzero;stroke:none;stroke-width:0;marker:none;enable-background:accumulate"
         d="m 300,224 c -4.4493,0 -8,3.5507 -8,8 v 1 c 0,-4.4493 3.5507,-8 8,-8 h 24 c 4.4493,0 8,3.5507 8,8 v -1 c 0,-4.4493 -3.5507,-8 -8,-8 z"
         id="rect3902"
         inkscape:connector-curvature="0" />
      <path
         style="color:#bebebe;display:inline;overflow:visible;visibility:visible;opacity:0.13;fill:#ffffff;fill-opacity:1;fill-rule:nonzero;stroke:none;stroke-width:0;marker:none;enable-background:accumulate"
         d="m 310,33 c -9.4353,0 -17,7.564703 -17,17 v 1 c 0,-9.435297 7.5647,-17 17,-17 h 52 c 9.4353,0 17,7.564703 17,17 v -1 c 0,-9.435297 -7.5647,-17 -17,-17 z"
         id="rect3904"
         inkscape:connector-curvature="0" />
      <path
         style="color:#bebebe;display:inline;overflow:visible;visibility:visible;opacity:0.13;fill:#ffffff;fill-opacity:1;fill-rule:nonzero;stroke:none;stroke-width:0;marker:none;enable-background:accumulate"
         d="m 302.5,143 c -6.3883,0 -11.5,5.1117 -11.5,11.5 v 1 c 0,-6.3883 5.1117,-11.5 11.5,-11.5 h 35 c 6.3883,0 11.5,5.1117 11.5,11.5 v -1 c 0,-6.3883 -5.1117,-11.5 -11.5,-11.5 z"
         id="rect3906"
         inkscape:connector-curvature="0" />
      <path
         id="path4085"
         d="m 204,266 c 27.1633,0 49,-21.8367 49,-49 v -1 c 0,27.1633 -21.8367,49 -49,49 H 84 C 56.8367,265 35,243.1633 35,216 v 1 c 0,27.1633 21.8367,49 49,49 z"
         style="color:#bebebe;display:inline;overflow:visible;visibility:visible;opacity:0.41;fill:#000000;fill-opacity:1;fill-rule:nonzero;stroke:none;stroke-width:0;marker:none;enable-background:accumulate"
         inkscape:connector-curvature="0" />
      <path
         id="path4087"
         d="m 429,156 c 1.1253,0 2,-0.8747 2,-2 v -1 c 0,1.1253 -0.8747,2 -2,2 h -10 c -1.1253,0 -2,-0.8747 -2,-2 v 1 c 0,1.1253 0.8747,2 2,2 z"
         style="color:#bebebe;display:inline;overflow:visible;visibility:visible;opacity:0.3;fill:#000000;fill-opacity:1;fill-rule:nonzero;stroke:none;stroke-width:0;marker:none;enable-background:accumulate"
         inkscape:connector-curvature="0" />
      <path
         id="path4089"
         d="m 434,123 c 2.2333,0 4,-1.7667 4,-4 v -1 c 0,2.2333 -1.7667,4 -4,4 h -12 c -2.2333,0 -4,-1.7667 -4,-4 v 1 c 0,2.2333 1.7667,4 4,4 z"
         style="color:#bebebe;display:inline;overflow:visible;visibility:visible;opacity:0.3;fill:#000000;fill-opacity:1;fill-rule:nonzero;stroke:none;stroke-width:0;marker:none;enable-background:accumulate"
         inkscape:connector-curvature="0" />
      <path
         id="path4091"
         d="m 440,83 c 3.3413,0 6,-2.6587 6,-6 v -1 c 0,3.3413 -2.6587,6 -6,6 h -16 c -3.3413,0 -6,-2.6587 -6,-6 v 1 c 0,3.3413 2.6587,6 6,6 z"
         style="color:#bebebe;display:inline;overflow:visible;visibility:visible;opacity:0.41;fill:#000000;fill-opacity:1;fill-rule:nonzero;stroke:none;stroke-width:0;marker:none;enable-background:accumulate"
         inkscape:connector-curvature="0" />
      <path
         id="path4093"
         d="m 324,265 c 4.4493,0 8,-3.5507 8,-8 v -1 c 0,4.4493 -3.5507,8 -8,8 h -24 c -4.4493,0 -8,-3.5507 -8,-8 v 1 c 0,4.4493 3.5507,8 8,8 z"
         style="color:#bebebe;display:inline;overflow:visible;visibility:visible;opacity:0.41;fill:#000000;fill-opacity:1;fill-rule:nonzero;stroke:none;stroke-width:0;marker:none;enable-background:accumulate"
         inkscape:connector-curvature="0" />
      <path
         id="path4095"
         d="m 362,120 c 9.4353,0 17,-7.5647 17,-17 v -1 c 0,9.4353 -7.5647,17 -17,17 h -52 c -9.4353,0 -17,-7.5647 -17,-17 v 1 c 0,9.4353 7.5647,17 17,17 z"
         style="color:#bebebe;display:inline;overflow:visible;visibility:visible;opacity:0.41;fill:#000000;fill-opacity:1;fill-rule:nonzero;stroke:none;stroke-width:0;marker:none;enable-background:accumulate"
         inkscape:connector-curvature="0" />
      <path
         id="path4097"
         d="m 337.5,202 c 6.3883,0 11.5,-5.1117 11.5,-11.5 v -1 c 0,6.3883 -5.1117,11.5 -11.5,11.5 h -35 c -6.3883,0 -11.5,-5.1117 -11.5,-11.5 v 1 c 0,6.3883 5.1117,11.5 11.5,11.5 z"
         style="color:#bebebe;display:inline;overflow:visible;visibility:visible;opacity:0.41;fill:#000000;fill-opacity:1;fill-rule:nonzero;stroke:none;stroke-width:0;marker:none;enable-background:accumulate"
         inkscape:connector-curvature="0" />
      <path
         inkscape:connector-curvature="0"
         id="path4280"
         d="M 84,265 C 56.836703,265 35,243.1633 35,216 v -1 c 0,27.1633 21.836703,49 49,49 h 120 c 27.1633,0 49,-21.8367 49,-49 v 1 c 0,27.1633 -21.8367,49 -49,49 z"
         style="color:#bebebe;display:inline;overflow:visible;visibility:visible;opacity:0.1;fill:#ffffff;fill-opacity:1;fill-rule:nonzero;stroke:none;stroke-width:0;marker:none;enable-background:accumulate" />
      <path
         style="color:#bebebe;display:inline;overflow:visible;visibility:visible;opacity:0.1;fill:#ffffff;fill-opacity:1;fill-rule:nonzero;stroke:none;stroke-width:0;marker:none;enable-background:accumulate"
         d="m 300,264 c -4.4493,0 -8,-3.5507 -8,-8 v -1 c 0,4.4493 3.5507,8 8,8 h 24 c 4.4493,0 8,-3.5507 8,-8 v 1 c 0,4.4493 -3.5507,8 -8,8 z"
         id="path4294"
         inkscape:connector-curvature="0" />
      <path
         style="color:#bebebe;display:inline;overflow:visible;visibility:visible;opacity:0.1;fill:#ffffff;fill-opacity:1;fill-rule:nonzero;stroke:none;stroke-width:0;marker:none;enable-background:accumulate"
         d="m 302.5,201 c -6.3883,0 -11.5,-5.1117 -11.5,-11.5 v -1 c 0,6.3883 5.1117,11.5 11.5,11.5 h 35 c 6.3883,0 11.5,-5.1117 11.5,-11.5 v 1 c 0,6.3883 -5.1117,11.5 -11.5,11.5 z"
         id="path4296"
         inkscape:connector-curvature="0" />
      <path
         style="color:#bebebe;display:inline;overflow:visible;visibility:visible;opacity:0.1;fill:#ffffff;fill-opacity:1;fill-rule:nonzero;stroke:none;stroke-width:0;marker:none;enable-background:accumulate"
         d="m 310,119 c -9.4353,0 -17,-7.5647 -17,-17 v -1 c 0,9.4353 7.5647,17 17,17 h 52 c 9.4353,0 17,-7.5647 17,-17 v 1 c 0,9.4353 -7.5647,17 -17,17 z"
         id="path4298"
         inkscape:connector-curvature="0" />
      <path
         style="color:#bebebe;display:inline;overflow:visible;visibility:visible;opacity:0.1;fill:#ffffff;fill-opacity:1;fill-rule:nonzero;stroke:none;stroke-width:0;marker:none;enable-background:accumulate"
         d="m 424,82 c -3.3413,0 -6,-2.658703 -6,-6 v -1 c 0,3.341297 2.6587,6 6,6 h 16 c 3.3413,0 6,-2.658703 6,-6 v 1 c 0,3.341297 -2.6587,6 -6,6 z"
         id="path4300"
         inkscape:connector-curvature="0" />
      <path
         style="color:#bebebe;display:inline;overflow:visible;visibility:visible;opacity:0.1;fill:#ffffff;fill-opacity:1;fill-rule:nonzero;stroke:none;stroke-width:0;marker:none;enable-background:accumulate"
         d="m 422,122 c -2.2333,0 -4,-1.7667 -4,-4 v -1 c 0,2.2333 1.7667,4 4,4 h 12 c 2.2333,0 4,-1.7667 4,-4 v 1 c 0,2.2333 -1.7667,4 -4,4 z"
         id="path4302"
         inkscape:connector-curvature="0" />
      <path
         style="color:#bebebe;display:inline;overflow:visible;visibility:visible;opacity:0.1;fill:#ffffff;fill-opacity:1;fill-rule:nonzero;stroke:none;stroke-width:0;marker:none;enable-background:accumulate"
         d="m 419,154.5 c -1.1253,0 -2,-0.8747 -2,-2 v -1 c 0,1.1253 0.8747,2 2,2 h 10 c 1.1253,0 2,-0.8747 2,-2 v 1 c 0,1.1253 -0.8747,2 -2,2 z"
         id="path4304"
         inkscape:connector-curvature="0" />
    </g>
    <g
       inkscape:groupmode="layer"
       id="layer3"
       inkscape:label="Border"
       style="display:inline"
       sodipodi:insensitive="true">
      <path
         style="color:#bebebe;display:inline;overflow:visible;visibility:visible;opacity:0.41;fill:#000000;fill-opacity:1;fill-rule:nonzero;stroke:none;stroke-width:0;marker:none;enable-background:accumulate"
         d="m 422,101 c -2.77,0 -5,2.23 -5,5 v 12 c 0,2.77 2.23,5 5,5 h 12 c 2.77,0 5,-2.23 5,-5 v -12 c 0,-2.77 -2.23,-5 -5,-5 z m 0,1 h 12 c 2.2333,0 4,1.7667 4,4 v 12 c 0,2.2333 -1.7667,4 -4,4 h -12 c -2.2333,0 -4,-1.7667 -4,-4 v -12 c 0,-2.2333 1.7667,-4 4,-4 z"
         id="rect4099"
         inkscape:connector-curvature="0" />
      <path
         style="color:#bebebe;display:inline;overflow:visible;visibility:visible;opacity:0.41;fill:#000000;fill-opacity:1;fill-rule:nonzero;stroke:none;stroke-width:0;marker:none;enable-background:accumulate"
         d="m 424,53 c -3.878,0 -7,3.122 -7,7 v 16 c 0,3.878 3.122,7 7,7 h 16 c 3.878,0 7,-3.122 7,-7 V 60 c 0,-3.878 -3.122,-7 -7,-7 z m 0,1 h 16 c 3.3413,0 6,2.658703 6,6 v 16 c 0,3.341297 -2.6587,6 -6,6 h -16 c -3.3413,0 -6,-2.658703 -6,-6 V 60 c 0,-3.341297 2.6587,-6 6,-6 z"
         id="rect4151"
         inkscape:connector-curvature="0" />
      <path
         style="color:#bebebe;display:inline;overflow:visible;visibility:visible;opacity:0.41;fill:#000000;fill-opacity:1;fill-rule:nonzero;stroke:none;stroke-width:0;marker:none;enable-background:accumulate"
         d="m 419,140 c -1.662,0 -3,1.338 -3,3 v 10 c 0,1.662 1.338,3 3,3 h 10 c 1.662,0 3,-1.338 3,-3 v -10 c 0,-1.662 -1.338,-3 -3,-3 z m 0,1 h 10 c 1.1253,0 2,0.8747 2,2 v 10 c 0,1.1253 -0.8747,2 -2,2 h -10 c -1.1253,0 -2,-0.8747 -2,-2 v -10 c 0,-1.1253 0.8747,-2 2,-2 z"
         id="rect4095"
         inkscape:connector-curvature="0" />
      <path
         style="color:#bebebe;display:inline;overflow:visible;visibility:visible;opacity:0.41;fill:#000000;fill-opacity:1;fill-rule:nonzero;stroke:none;stroke-width:0;marker:none;enable-background:accumulate"
         d="m 300,223 c -4.986,0 -9,4.014 -9,9 v 24 c 0,4.986 4.014,9 9,9 h 24 c 4.986,0 9,-4.014 9,-9 v -24 c 0,-4.986 -4.014,-9 -9,-9 z m 0,1 h 24 c 4.4493,0 8,3.5507 8,8 v 24 c 0,4.4493 -3.5507,8 -8,8 h -24 c -4.4493,0 -8,-3.5507 -8,-8 v -24 c 0,-4.4493 3.5507,-8 8,-8 z"
         id="rect4783"
         inkscape:connector-curvature="0" />
      <path
         style="color:#bebebe;display:inline;overflow:visible;visibility:visible;opacity:0.41;fill:#000000;fill-opacity:1;fill-rule:nonzero;stroke:none;stroke-width:0;marker:none;enable-background:accumulate"
         d="m 302.5,142 c -6.925,0 -12.5,5.575 -12.5,12.5 v 35 c 0,6.925 5.575,12.5 12.5,12.5 h 35 c 6.925,0 12.5,-5.575 12.5,-12.5 v -35 c 0,-6.925 -5.575,-12.5 -12.5,-12.5 z m 0,1 h 35 c 6.3883,0 11.5,5.1117 11.5,11.5 v 35 c 0,6.3883 -5.1117,11.5 -11.5,11.5 h -35 c -6.3883,0 -11.5,-5.1117 -11.5,-11.5 v -35 c 0,-6.3883 5.1117,-11.5 11.5,-11.5 z"
         id="rect4515"
         inkscape:connector-curvature="0" />
      <path
         style="color:#bebebe;display:inline;overflow:visible;visibility:visible;opacity:0.41;fill:#000000;fill-opacity:1;fill-rule:nonzero;stroke:none;stroke-width:0;marker:none;enable-background:accumulate"
         d="m 310,32 c -9.972,0 -18,8.028 -18,18 v 52 c 0,9.972 8.028,18 18,18 h 52 c 9.972,0 18,-8.028 18,-18 V 50 c 0,-9.972 -8.028,-18 -18,-18 z m 0,1 h 52 c 9.4353,0 17,7.564703 17,17 v 52 c 0,9.4353 -7.5647,17 -17,17 h -52 c -9.4353,0 -17,-7.5647 -17,-17 V 50 c 0,-9.435297 7.5647,-17 17,-17 z"
         id="rect4511"
         inkscape:connector-curvature="0" />
      <path
         style="color:#bebebe;display:inline;overflow:visible;visibility:visible;opacity:0.41;fill:#000000;fill-opacity:1;fill-rule:nonzero;stroke:none;stroke-width:0;marker:none;enable-background:accumulate"
         d="M 84,46 C 56.3,46 34,68.3 34,96 v 120 c 0,27.7 22.3,50 50,50 h 120 c 27.7,0 50,-22.3 50,-50 V 96 C 254,68.3 231.7,46 204,46 Z m 0,1 h 120 c 27.1633,0 49,21.836703 49,49 v 120 c 0,27.1633 -21.8367,49 -49,49 H 84 C 56.836703,265 35,243.1633 35,216 V 96 C 35,68.836703 56.836703,47 84,47 Z"
         id="rect4040"
         inkscape:connector-curvature="0" />
    </g>
  </g>
  <style
     type="text/css"
     id="style134">
	.st0{fill:#EF443B;}
</style>
</svg>
