<?xml version="1.0" encoding="UTF-8" standalone="no"?>
<!-- Created with Inkscape (http://www.inkscape.org/) -->

<svg
   inkscape:export-ydpi="90.000000"
   inkscape:export-xdpi="90.000000"
   width="480"
   height="300"
   id="svg11300"
   sodipodi:version="0.32"
   inkscape:version="1.3 (0e150ed6c4, 2023-07-21)"
   sodipodi:docname="io.gitlab.zehkira.Monophony.svg"
   inkscape:output_extension="org.inkscape.output.svg.inkscape"
   version="1.0"
   style="display:inline;enable-background:new"
   inkscape:export-filename="/home/sam/moka-next-template.png"
   xml:space="preserve"
   xmlns:inkscape="http://www.inkscape.org/namespaces/inkscape"
   xmlns:sodipodi="http://sodipodi.sourceforge.net/DTD/sodipodi-0.dtd"
   xmlns:xlink="http://www.w3.org/1999/xlink"
   xmlns="http://www.w3.org/2000/svg"
   xmlns:svg="http://www.w3.org/2000/svg"
   xmlns:rdf="http://www.w3.org/1999/02/22-rdf-syntax-ns#"
   xmlns:cc="http://creativecommons.org/ns#"
   xmlns:dc="http://purl.org/dc/elements/1.1/"><sodipodi:namedview
     stroke="#ef2929"
     fill="#f57900"
     id="base"
     pagecolor="#ffffff"
     bordercolor="#000505"
     borderopacity="1"
     inkscape:pageopacity="0"
     inkscape:pageshadow="2"
     inkscape:zoom="1"
     inkscape:cx="179.5"
     inkscape:cy="136.5"
     inkscape:current-layer="layer1"
     showgrid="false"
     inkscape:grid-bbox="true"
     inkscape:document-units="px"
     inkscape:showpageshadow="false"
     inkscape:window-width="1920"
     inkscape:window-height="1012"
     inkscape:window-x="0"
     inkscape:window-y="32"
     width="400px"
     height="300px"
     inkscape:snap-nodes="true"
     inkscape:snap-bbox="true"
     gridtolerance="10000"
     inkscape:object-nodes="true"
     inkscape:snap-grids="true"
     showguides="true"
     inkscape:guide-bbox="true"
     inkscape:window-maximized="1"
     inkscape:bbox-nodes="true"
     inkscape:bbox-paths="true"
     inkscape:snap-bbox-edge-midpoints="true"
     inkscape:snap-bbox-midpoints="true"
     inkscape:pagecheckerboard="true"
     inkscape:deskcolor="#505050"
     showborder="true"><inkscape:grid
       spacingy="1px"
       spacingx="1px"
       id="grid5883"
       type="xygrid"
       enabled="true"
       visible="false"
       empspacing="4"
       snapvisiblegridlinesonly="true"
       dotted="false"
       color="#000000"
       opacity="0.1254902"
       empcolor="#203ef3"
       empopacity="0.36470588"
       originx="0"
       originy="0"
       units="px" /><inkscape:grid
       type="xygrid"
       id="grid11592"
       empspacing="8"
       visible="false"
       enabled="false"
       spacingx="0.5px"
       spacingy="0.5px"
       color="#ff0000"
       opacity="0.1254902"
       empcolor="#ff0000"
       empopacity="0.25098039"
       snapvisiblegridlinesonly="true"
       dotted="true"
       originx="0"
       originy="0"
       units="px" /></sodipodi:namedview><defs
     id="defs3"><linearGradient
       id="linearGradient4"><stop
         style="stop-color:#c80710;stop-opacity:1;"
         offset="0"
         id="stop4" /><stop
         style="stop-color:#ea252e;stop-opacity:1;"
         offset="1"
         id="stop3" /></linearGradient><linearGradient
       inkscape:collect="always"
       xlink:href="#linearGradient4"
       id="linearGradient4256"
       x1="417"
       y1="148"
       x2="431"
       y2="148"
       gradientUnits="userSpaceOnUse"
       gradientTransform="rotate(-90,424,148)" /><linearGradient
       inkscape:collect="always"
       xlink:href="#linearGradient4"
       id="linearGradient4260"
       x1="418"
       y1="68"
       x2="446"
       y2="68"
       gradientUnits="userSpaceOnUse"
       gradientTransform="rotate(-90,432,68)" /><linearGradient
       inkscape:collect="always"
       xlink:href="#linearGradient4"
       id="linearGradient4262"
       x1="292"
       y1="244"
       x2="332"
       y2="244"
       gradientUnits="userSpaceOnUse"
       gradientTransform="rotate(-90,312,244)" /><linearGradient
       inkscape:collect="always"
       xlink:href="#linearGradient4"
       id="linearGradient4264"
       x1="293"
       y1="76"
       x2="379"
       y2="76"
       gradientUnits="userSpaceOnUse"
       gradientTransform="rotate(-90,335.75,76.25)" /><linearGradient
       inkscape:collect="always"
       xlink:href="#linearGradient4"
       id="linearGradient4266"
       x1="291"
       y1="172"
       x2="349"
       y2="172"
       gradientUnits="userSpaceOnUse"
       gradientTransform="rotate(-90,320,172)" /><linearGradient
       inkscape:collect="always"
       xlink:href="#linearGradient4"
       id="linearGradient3870"
       gradientUnits="userSpaceOnUse"
       gradientTransform="rotate(-90,428,112)"
       x1="418"
       y1="112"
       x2="438"
       y2="112" /><linearGradient
       id="outerBackgroundGradient-04"><stop
         style="stop-color:#407aa2;stop-opacity:1"
         offset="0"
         id="stop3864-8-6-0" /><stop
         style="stop-color:#639cc3;stop-opacity:1"
         offset="1"
         id="stop3866-9-1-7" /></linearGradient><linearGradient
       y2="248"
       x2="-24"
       y1="248"
       x1="-48"
       gradientTransform="matrix(0.83333333,0,0,0.95454545,-278.5,-124.97727)"
       gradientUnits="userSpaceOnUse"
       id="linearGradient2279"
       xlink:href="#linearGradient1029" /><linearGradient
       id="linearGradient1029"><stop
         id="stop1024"
         offset="0"
         style="stop-color:#e01b24;stop-opacity:1;" /><stop
         id="stop1027"
         offset="1"
         style="stop-color:#f66151;stop-opacity:1" /></linearGradient><linearGradient
       y2="194"
       x2="-30"
       y1="194"
       x1="-42"
       gradientTransform="rotate(-90,69.125,203.375)"
       gradientUnits="userSpaceOnUse"
       id="linearGradient2281"
       xlink:href="#linearGradient1029" /><linearGradient
       id="Gradient"
       x1="0"
       x2="0"
       y1="0"
       y2="256"
       gradientUnits="userSpaceOnUse"
       gradientTransform="translate(-269.9313,26.09093)"><stop
         offset="0%"
         style="stop-color:#E01B24;stop-opacity:1"
         id="stop1" /><stop
         offset="100%"
         style="stop-color:#E01B24;stop-opacity:1"
         id="stop2" /></linearGradient><filter
       id="alpha-to-white"
       x="0"
       y="0"
       width="1"
       height="1"><feColorMatrix
         in="SourceGraphic"
         type="matrix"
         values="0 0 0 0 1 0 0 0 0 1 0 0 0 0 1 0 0 0 1 0"
         id="feColorMatrix2" /></filter><g
       id="child-svg"><svg
         height="16"
         viewBox="0 0 16 16"
         width="16"
         version="1.1"
         id="svg860"
         sodipodi:docname="template.svg"
         inkscape:version="1.2.2 (b0a8486541, 2022-12-01)"
         inkscape:export-filename="symbolic.svg"
         inkscape:export-xdpi="384"
         inkscape:export-ydpi="384"
         xml:space="preserve"><defs
           id="defs864" /><sodipodi:namedview
           id="namedview862"
           pagecolor="#ffffff"
           bordercolor="#ff0505"
           borderopacity="1"
           inkscape:showpageshadow="0"
           inkscape:pageopacity="0"
           inkscape:pagecheckerboard="false"
           inkscape:deskcolor="#ffffff"
           showgrid="true"
           inkscape:zoom="5.6568543"
           inkscape:cx="114.90485"
           inkscape:cy="34.117902"
           inkscape:window-width="1920"
           inkscape:window-height="1001"
           inkscape:window-x="0"
           inkscape:window-y="32"
           inkscape:window-maximized="1"
           inkscape:current-layer="svg860"><inkscape:grid
             type="xygrid"
             id="grid3085"
             empspacing="8"
             empcolor="#737373"
             empopacity="0.17254902"
             color="#3e3e3e"
             opacity="0.14901961"
             visible="true"
             enabled="true"
             originx="0"
             originy="0"
             spacingy="1"
             spacingx="1"
             units="px" /></sodipodi:namedview><linearGradient
           id="a"
           gradientUnits="userSpaceOnUse"
           x1="4"
           x2="124"
           y1="66.000977"
           y2="66.000977"><stop
             offset="0"
             stop-color="#e6a50a"
             id="stop827" /><stop
             offset="0.0333333"
             stop-color="#f5c211"
             id="stop829" /><stop
             offset="0.0666667"
             stop-color="#e6a50a"
             id="stop831" /><stop
             offset="0.933333"
             stop-color="#e6a50a"
             id="stop833" /><stop
             offset="0.966667"
             stop-color="#f5c211"
             id="stop835" /><stop
             offset="1"
             stop-color="#e6a50a"
             id="stop837" /></linearGradient><path
           id="rect894"
           style="fill:#241f31;stroke-width:4;stroke-linecap:round;stroke-linejoin:round"
           d="M 2,2 C 0.892,2 0,2.8920022 0,4 v 8 c 0,1.107998 0.892,2 2,2 h 12 c 1.108,0 2,-0.892002 2,-2 V 4 C 16,2.8920022 15.108,2 14,2 Z M 5,4 A 4,4 0 0 1 9,8 4,4 0 0 1 5,12 4,4 0 0 1 1,8 4,4 0 0 1 5,4 Z m 6.5,0 C 11.777,4 12,4.2230003 12,4.5 v 5 c 0,0.019264 1.5e-4,0.037956 -0.002,0.056641 0.01,0.139478 -0.0394,0.281577 -0.14649,0.388671 l -0.86914,0.869141 A 1,1 0 0 1 11,11 a 1,1 0 0 1 -1,1 1,1 0 0 1 -1,-1 1,1 0 0 1 1,-1 1,1 0 0 1 0.32812,0.05469 L 11,9.382812 V 4.5 C 11,4.2230003 11.223,4 11.5,4 Z m 1.97461,0 c 0.009,-4.304e-4 0.0167,0 0.0254,0 h 1 c 0.277,0 0.5,0.2230003 0.5,0.5 0,0.2769997 -0.223,0.5 -0.5,0.5 h -1 C 13.223,5 13,4.7769997 13,4.5 13,4.2316565 13.2097,4.0133421 13.47461,4 Z m 0,2 c 0.009,-4.304e-4 0.0167,0 0.0254,0 h 1 c 0.277,0 0.5,0.2230003 0.5,0.5 0,0.2769997 -0.223,0.5 -0.5,0.5 h -1 C 13.223,7 13,6.7769997 13,6.5 13,6.2316565 13.2097,6.0133421 13.47461,6 Z M 5,7 A 1,1 0 0 0 4,8 1,1 0 0 0 5,9 1,1 0 0 0 6,8 1,1 0 0 0 5,7 Z m 8.5,1 h 1 C 14.777,8 15,8.223 15,8.5 v 3 c 0,0.277 -0.223,0.5 -0.5,0.5 h -1 C 13.223,12 13,11.777 13,11.5 v -3 C 13,8.223 13.223,8 13.5,8 Z" /></svg></g><linearGradient
       inkscape:collect="always"
       xlink:href="#linearGradient4"
       id="linearGradient1"
       gradientUnits="userSpaceOnUse"
       gradientTransform="rotate(-90,143.99999,156)"
       x1="35"
       y1="156"
       x2="253"
       y2="156" /></defs><metadata
     id="metadata4"><rdf:RDF><cc:Work
         rdf:about=""><dc:format>image/svg+xml</dc:format><dc:type
           rdf:resource="http://purl.org/dc/dcmitype/StillImage" /><dc:creator><cc:Agent><dc:title>Sam Hewitt</dc:title></cc:Agent></dc:creator><dc:source /><cc:license
           rdf:resource="" /><dc:subject><rdf:Bag /></dc:subject><dc:date /><dc:rights><cc:Agent><dc:title /></cc:Agent></dc:rights><dc:publisher><cc:Agent><dc:title /></cc:Agent></dc:publisher><dc:identifier /><dc:relation /><dc:language /><dc:coverage /><dc:description /><dc:contributor><cc:Agent><dc:title /></cc:Agent></dc:contributor></cc:Work><cc:Work
         rdf:about=""><dc:format>image/svg+xml</dc:format><dc:type
           rdf:resource="http://purl.org/dc/dcmitype/StillImage" /></cc:Work></rdf:RDF></metadata><g
     style="display:inline"
     inkscape:groupmode="layer"
     inkscape:label="Icon"
     id="layer1"><g
       style="display:none"
       inkscape:label="Baseplate"
       id="layer7"
       inkscape:groupmode="layer"><text
         y="19.745117"
         xml:space="preserve"
         x="15.006836"
         style="font-style:normal;font-variant:normal;font-weight:normal;font-stretch:normal;line-height:0%;font-family:'DejaVu Sans';-inkscape-font-specification:'DejaVu Sans';display:inline;fill:#000000;fill-opacity:1;stroke:none;enable-background:new"
         inkscape:label="context"
         id="context"><tspan
           style="font-style:normal;font-variant:normal;font-weight:normal;font-stretch:normal;font-size:18px;line-height:1.25;font-family:'DejaVu Sans';-inkscape-font-specification:'DejaVu Sans'"
           y="19.745117"
           x="15.006836"
           sodipodi:role="line"
           id="tspan3933">apps</tspan></text><text
         y="19.745117"
         xml:space="preserve"
         x="122.48828"
         style="font-style:normal;font-variant:normal;font-weight:bold;font-stretch:normal;line-height:0%;font-family:'DejaVu Sans';-inkscape-font-specification:'DejaVu Sans Bold';text-align:start;writing-mode:lr-tb;text-anchor:start;display:inline;fill:#000000;fill-opacity:1;stroke:none;enable-background:new"
         inkscape:label="icon-name"
         id="icon-name"><tspan
           style="font-style:normal;font-variant:normal;font-weight:bold;font-stretch:normal;font-size:18px;line-height:1.25;font-family:'DejaVu Sans';-inkscape-font-specification:'DejaVu Sans Bold'"
           y="19.745117"
           x="122.48828"
           sodipodi:role="line"
           id="tspan3937">io.gitlab.zehkira.Monophony</tspan></text><rect
         style="fill:#eeeeec;fill-opacity:1;fill-rule:nonzero;stroke:none;stroke-width:2;marker:none;visibility:visible;display:inline;overflow:visible;enable-background:accumulate"
         id="rect16x16"
         width="16"
         height="16"
         x="416"
         y="140"
         inkscape:label="16x16" /><rect
         style="fill:#d4d4d4;fill-opacity:1;fill-rule:nonzero;stroke:none;stroke-width:2;marker:none;visibility:visible;display:inline;overflow:visible;enable-background:accumulate"
         id="rect24x24"
         width="24"
         height="24"
         x="416"
         y="100"
         inkscape:label="24x24" /><rect
         style="fill:#eeeeec;fill-opacity:1;fill-rule:nonzero;stroke:none;stroke-width:2;marker:none;visibility:visible;display:inline;overflow:visible;enable-background:accumulate"
         id="rect32x32"
         width="32"
         height="32"
         x="416"
         y="52"
         inkscape:label="32x32" /><rect
         inkscape:label="22x22"
         y="101"
         x="417"
         height="22"
         width="22"
         id="rect22x22"
         style="fill:#eeeeec;fill-opacity:1;fill-rule:nonzero;stroke:none;stroke-width:2;marker:none;visibility:visible;display:inline;overflow:visible;enable-background:accumulate" /><rect
         inkscape:label="48x48"
         y="220"
         x="288"
         height="48"
         width="48"
         id="rect48x48"
         style="fill:#eeeeec;fill-opacity:1;fill-rule:nonzero;stroke:none;stroke-width:2;marker:none;visibility:visible;display:inline;overflow:visible;enable-background:accumulate" /><rect
         style="fill:#eeeeec;fill-opacity:1;fill-rule:nonzero;stroke:none;stroke-width:2;marker:none;visibility:visible;display:inline;overflow:visible;enable-background:accumulate"
         id="rect256x256"
         width="256"
         height="256"
         x="16"
         y="28"
         inkscape:label="256x256" /><rect
         style="fill:#eeeeec;fill-opacity:1;fill-rule:nonzero;stroke:none;stroke-width:2;marker:none;visibility:visible;display:inline;overflow:visible;enable-background:accumulate"
         id="rect64x64"
         width="64"
         height="64"
         x="288"
         y="140"
         inkscape:label="64x64" /><rect
         style="fill:#eeeeec;fill-opacity:1;fill-rule:nonzero;stroke:none;stroke-width:2;marker:none;visibility:visible;display:inline;overflow:visible;enable-background:accumulate"
         id="rect96x96"
         width="96"
         height="96"
         x="288"
         y="28"
         inkscape:label="96x96" /></g><g
       inkscape:groupmode="layer"
       id="layer4"
       inkscape:label="Shadow"
       style="display:inline"
       sodipodi:insensitive="true"><rect
         ry="50"
         y="47"
         x="34"
         height="220"
         width="220"
         id="rect4114"
         style="color:#bebebe;display:inline;overflow:visible;visibility:visible;opacity:0.1;fill:#000000;fill-opacity:1;fill-rule:nonzero;stroke:none;stroke-width:0;marker:none;enable-background:accumulate" /><rect
         style="opacity:0.1;color:#bebebe;fill:#000000;fill-opacity:1;fill-rule:nonzero;stroke:none;stroke-width:0;marker:none;visibility:visible;display:inline;overflow:visible;enable-background:accumulate"
         id="rect4120"
         width="30"
         height="30"
         x="417"
         y="54"
         ry="7" /><rect
         transform="scale(1,-1)"
         ry="9"
         y="-266"
         x="291"
         height="42"
         width="42"
         id="rect4122"
         style="opacity:0.1;color:#bebebe;fill:#000000;fill-opacity:1;fill-rule:nonzero;stroke:none;stroke-width:0;marker:none;visibility:visible;display:inline;overflow:visible;enable-background:accumulate" /><rect
         style="opacity:0.1;color:#bebebe;fill:#000000;fill-opacity:1;fill-rule:nonzero;stroke:none;stroke-width:0;marker:none;visibility:visible;display:inline;overflow:visible;enable-background:accumulate"
         id="rect4124"
         width="88"
         height="88"
         x="292"
         y="33"
         ry="18" /><rect
         ry="12.5"
         y="143"
         x="290"
         height="60"
         width="60"
         id="rect4126"
         style="opacity:0.1;color:#bebebe;fill:#000000;fill-opacity:1;fill-rule:nonzero;stroke:none;stroke-width:0;marker:none;visibility:visible;display:inline;overflow:visible;enable-background:accumulate" /><path
         id="path4268"
         d="m 422,101 c -2.77,0 -5,2.23 -5,5 l 0,12 c 0,2.77 2.23,5 5,5 l 12,0 c 2.77,0 5,-2.23 5,-5 l 0,-12 c 0,-2.77 -2.23,-5 -5,-5 z"
         style="opacity:0.1;color:#bebebe;fill:#000000;fill-opacity:1;fill-rule:nonzero;stroke:none;stroke-width:0;marker:none;visibility:visible;display:inline;overflow:visible;enable-background:accumulate"
         inkscape:connector-curvature="0"
         sodipodi:nodetypes="sssssssss" /><path
         id="path4270"
         d="m 419,140 c -1.662,0 -3,1.338 -3,3 l 0,10 c 0,1.662 1.338,3 3,3 l 10,0 c 1.662,0 3,-1.338 3,-3 l 0,-10 c 0,-1.662 -1.338,-3 -3,-3 z"
         style="opacity:0.1;color:#bebebe;fill:#000000;fill-opacity:1;fill-rule:nonzero;stroke:none;stroke-width:0;marker:none;visibility:visible;display:inline;overflow:visible;enable-background:accumulate"
         inkscape:connector-curvature="0"
         sodipodi:nodetypes="sssssssss" /></g><g
       inkscape:groupmode="layer"
       id="layer2"
       inkscape:label="Background"
       style="display:inline"><path
         style="color:#bebebe;fill:url(#linearGradient4256);fill-opacity:1.0;fill-rule:nonzero;stroke:none;stroke-width:2;marker:none;visibility:visible;display:inline;overflow:visible;enable-background:accumulate"
         d="M 419 140.5 C 417.6156 140.5 416.5 141.6156 416.5 143 L 416.5 153 C 416.5 154.3844 417.6156 155.5 419 155.5 L 429 155.5 C 430.3844 155.5 431.5 154.3844 431.5 153 L 431.5 143 C 431.5 141.6156 430.3844 140.5 429 140.5 L 419 140.5 z "
         id="path4202" /><path
         style="color:#bebebe;fill:url(#linearGradient3870);fill-opacity:1.0;fill-rule:nonzero;stroke:none;stroke-width:2;marker:none;visibility:visible;display:inline;overflow:visible;enable-background:accumulate"
         d="M 422 101.5 C 419.50301 101.5 417.5 103.50301 417.5 106 L 417.5 118 C 417.5 120.49699 419.50301 122.5 422 122.5 L 434 122.5 C 436.49699 122.5 438.5 120.49699 438.5 118 L 438.5 106 C 438.5 103.50301 436.49699 101.5 434 101.5 L 422 101.5 z "
         id="path4204" /><path
         style="color:#bebebe;fill:url(#linearGradient4260);fill-opacity:1.0;fill-rule:nonzero;stroke:none;stroke-width:2;marker:none;visibility:visible;display:inline;overflow:visible;enable-background:accumulate"
         d="M 424 53.5 C 420.39346 53.5 417.5 56.393464 417.5 60 L 417.5 76 C 417.5 79.606536 420.39346 82.5 424 82.5 L 440 82.5 C 443.60654 82.5 446.5 79.606536 446.5 76 L 446.5 60 C 446.5 56.393464 443.60654 53.5 440 53.5 L 424 53.5 z "
         id="path4206" /><path
         style="color:#bebebe;fill:url(#linearGradient4262);fill-opacity:1.0;fill-rule:nonzero;stroke:none;stroke-width:2;marker:none;visibility:visible;display:inline;overflow:visible;enable-background:accumulate"
         d="M 300 223.5 C 295.28469 223.5 291.5 227.28469 291.5 232 L 291.5 256 C 291.5 260.71531 295.28469 264.5 300 264.5 L 324 264.5 C 328.71531 264.5 332.5 260.71531 332.5 256 L 332.5 232 C 332.5 227.28469 328.71531 223.5 324 223.5 L 300 223.5 z "
         id="path4208" /><path
         style="color:#bebebe;fill:url(#linearGradient4266);fill-opacity:1.0;fill-rule:nonzero;stroke:none;stroke-width:2;marker:none;visibility:visible;display:inline;overflow:visible;enable-background:accumulate"
         d="M 302.5 142.5 C 295.84498 142.5 290.5 147.84498 290.5 154.5 L 290.5 189.5 C 290.5 196.15502 295.84498 201.5 302.5 201.5 L 337.5 201.5 C 344.15502 201.5 349.5 196.15502 349.5 189.5 L 349.5 154.5 C 349.5 147.84498 344.15502 142.5 337.5 142.5 L 302.5 142.5 z "
         id="path4212" /></g><g
       inkscape:groupmode="layer"
       id="layer6"
       inkscape:label="Symbols"
       style="display:inline"><path
         style="color:#bebebe;display:inline;overflow:visible;visibility:visible;fill:url(#linearGradient1);fill-opacity:1;fill-rule:nonzero;stroke:none;stroke-width:2;marker:none;enable-background:accumulate"
         d="M 84,46.5 C 56.56873,46.5 34.5,68.56873 34.5,96 v 120 c 0,27.43127 22.06873,49.5 49.5,49.5 h 120 c 27.43127,0 49.5,-22.06873 49.5,-49.5 V 96 C 253.5,68.56873 231.43127,46.5 204,46.5 Z"
         id="path1" /><path
         id="path4"
         style="opacity:0.2;fill:#000000;fill-opacity:1;stroke-width:37.8914;stroke-linecap:round;stroke-linejoin:round"
         d="m 87.16284,102.16315 c -10.49592,0 -18.94571,8.44979 -18.94571,18.94572 v 75.78287 c 0,10.49593 8.44979,18.94572 18.94571,18.94572 h 113.67431 c 10.49593,0 18.94572,-8.44979 18.94572,-18.94572 v -75.78287 c 0,-10.49593 -8.44979,-18.94572 -18.94572,-18.94572 z m 28.41858,18.94572 a 37.891436,37.891436 0 0 1 37.89144,37.89143 37.891436,37.891436 0 0 1 -37.89144,37.89144 37.891436,37.891436 0 0 1 -37.89143,-37.89144 37.891436,37.891436 0 0 1 37.89143,-37.89143 z m 61.57359,0 c 2.62398,0 4.73643,2.11245 4.73643,4.73643 v 47.36429 c 0,0.18283 0.001,0.35997 -0.019,0.53617 0.0947,1.32127 -0.37323,2.66736 -1.38768,3.68181 l -8.23324,8.23324 a 9.4728591,9.4728591 0 0 1 0.16701,1.75769 9.4728591,9.4728591 0 0 1 -9.47286,9.47286 9.4728591,9.4728591 0 0 1 -9.47286,-9.47286 9.4728591,9.4728591 0 0 1 9.47286,-9.47286 9.4728591,9.4728591 0 0 1 3.10823,0.51817 l 6.36463,-6.36463 v -46.25417 c 0,-2.62398 2.11244,-4.73643 4.73643,-4.73643 z m 18.7052,0 c 0.0853,-0.004 0.15819,0 0.24061,0 h 9.47286 c 2.62398,0 4.73643,2.11245 4.73643,4.73643 0,2.62398 -2.11245,4.73643 -4.73643,4.73643 h -9.47286 c -2.62408,0 -4.73653,-2.11245 -4.73653,-4.73643 0,-2.54195 1.98646,-4.61006 4.49592,-4.73643 z m 0,18.94572 c 0.0853,-0.004 0.15819,0 0.24061,0 h 9.47286 c 2.62398,0 4.73643,2.11244 4.73643,4.73643 0,2.62398 -2.11245,4.73643 -4.73643,4.73643 h -9.47286 c -2.62408,0 -4.73653,-2.11245 -4.73653,-4.73643 0,-2.54195 1.98646,-4.61007 4.49592,-4.73643 z m -80.27879,9.47286 a 9.4728591,9.4728591 0 0 0 -9.47286,9.47285 9.4728591,9.4728591 0 0 0 9.47286,9.47286 9.4728591,9.4728591 0 0 0 9.47286,-9.47286 9.4728591,9.4728591 0 0 0 -9.47286,-9.47285 z m 80.5193,9.47285 h 9.47286 c 2.62398,0 4.73643,2.11245 4.73643,4.73643 v 28.41858 c 0,2.62398 -2.11245,4.73643 -4.73643,4.73643 h -9.47286 c -2.62398,0 -4.73643,-2.11245 -4.73643,-4.73643 v -28.41858 c 0,-2.62398 2.11245,-4.73643 4.73643,-4.73643 z" /><path
         id="rect894-2"
         style="fill:#ffffff;fill-opacity:1;stroke-width:37.8914;stroke-linecap:round;stroke-linejoin:round"
         d="m 87.16284,98.163 c -10.49592,0 -18.94571,8.44979 -18.94571,18.94572 v 75.78287 c 0,10.49593 8.44979,18.94572 18.94571,18.94572 h 113.67431 c 10.49593,0 18.94572,-8.44979 18.94572,-18.94572 v -75.78287 c 0,-10.49593 -8.44979,-18.94572 -18.94572,-18.94572 z m 28.41858,18.94572 a 37.891436,37.891436 0 0 1 37.89144,37.89143 37.891436,37.891436 0 0 1 -37.89144,37.89144 37.891436,37.891436 0 0 1 -37.89143,-37.89144 37.891436,37.891436 0 0 1 37.89143,-37.89143 z m 61.57359,0 c 2.62398,0 4.73643,2.11245 4.73643,4.73643 v 47.36429 c 0,0.18283 0.001,0.35997 -0.019,0.53617 0.0947,1.32127 -0.37323,2.66736 -1.38768,3.68181 l -8.23324,8.23324 a 9.4728591,9.4728591 0 0 1 0.16701,1.75769 9.4728591,9.4728591 0 0 1 -9.47286,9.47286 9.4728591,9.4728591 0 0 1 -9.47286,-9.47286 9.4728591,9.4728591 0 0 1 9.47286,-9.47286 9.4728591,9.4728591 0 0 1 3.10823,0.51817 l 6.36463,-6.36463 v -46.25417 c 0,-2.62398 2.11244,-4.73643 4.73643,-4.73643 z m 18.7052,0 c 0.0853,-0.004 0.15819,0 0.24061,0 h 9.47286 c 2.62398,0 4.73643,2.11245 4.73643,4.73643 0,2.62398 -2.11245,4.73643 -4.73643,4.73643 h -9.47286 c -2.62408,0 -4.73653,-2.11245 -4.73653,-4.73643 0,-2.54195 1.98646,-4.61006 4.49592,-4.73643 z m 0,18.94572 c 0.0853,-0.004 0.15819,0 0.24061,0 h 9.47286 c 2.62398,0 4.73643,2.11244 4.73643,4.73643 0,2.62398 -2.11245,4.73643 -4.73643,4.73643 h -9.47286 c -2.62408,0 -4.73653,-2.11245 -4.73653,-4.73643 0,-2.54195 1.98646,-4.61007 4.49592,-4.73643 z m -80.27879,9.47286 a 9.4728591,9.4728591 0 0 0 -9.47286,9.47285 9.4728591,9.4728591 0 0 0 9.47286,9.47286 9.4728591,9.4728591 0 0 0 9.47286,-9.47286 9.4728591,9.4728591 0 0 0 -9.47286,-9.47285 z m 80.5193,9.47285 h 9.47286 c 2.62398,0 4.73643,2.11245 4.73643,4.73643 v 28.41858 c 0,2.62398 -2.11245,4.73643 -4.73643,4.73643 h -9.47286 c -2.62398,0 -4.73643,-2.11245 -4.73643,-4.73643 v -28.41858 c 0,-2.62398 2.11245,-4.73643 4.73643,-4.73643 z" /><path
         style="color:#bebebe;display:inline;overflow:visible;visibility:visible;fill:url(#linearGradient4264);fill-opacity:1;fill-rule:nonzero;stroke:none;stroke-width:2;marker:none;enable-background:accumulate"
         d="M 309.5,32.5 C 299.79745,32.5 292,40.297452 292,50 v 52 c 0,9.70255 7.79745,17.5 17.5,17.5 h 52 c 9.70255,0 17.5,-7.79745 17.5,-17.5 V 50 c 0,-9.702548 -7.79745,-17.5 -17.5,-17.5 z"
         id="path4210"
         inkscape:connector-curvature="0" /><path
         id="path3"
         style="opacity:0.2;fill:#000000;fill-opacity:1;stroke-width:15.0527;stroke-linecap:round;stroke-linejoin:round"
         d="m 312.92085,54.612758 c -4.16961,0 -7.52637,3.356766 -7.52637,7.526382 v 30.105523 c 0,4.169616 3.35676,7.526382 7.52637,7.526382 h 45.15829 c 4.16962,0 7.52638,-3.356766 7.52638,-7.526382 V 62.13914 c 0,-4.169616 -3.35676,-7.526382 -7.52638,-7.526382 z m 11.28958,7.526382 A 15.052762,15.052762 0 0 1 339.26319,77.1919 15.052762,15.052762 0 0 1 324.21043,92.244663 15.052762,15.052762 0 0 1 309.15767,77.1919 15.052762,15.052762 0 0 1 324.21043,62.13914 Z m 24.46074,0 c 1.0424,0 1.88159,0.839193 1.88159,1.881596 v 18.81595 c 0,0.07263 4e-4,0.143002 -0.008,0.212999 0.0376,0.524888 -0.14826,1.059636 -0.55127,1.462637 l -3.27073,3.270739 a 3.7631907,3.7631906 0 0 1 0.0663,0.698261 3.7631907,3.7631906 0 0 1 -3.76319,3.76319 3.7631907,3.7631906 0 0 1 -3.76319,-3.76319 3.7631907,3.7631906 0 0 1 3.76319,-3.763191 3.7631907,3.7631906 0 0 1 1.23478,0.205848 l 2.52841,-2.528415 V 64.02062 c 0,-1.042403 0.83919,-1.881595 1.8816,-1.881595 z m 7.43083,0 c 0.0339,-0.0016 0.0628,0 0.0956,0 h 3.7632 c 1.0424,0 1.88159,0.839193 1.88159,1.881596 0,1.042403 -0.83919,1.881595 -1.88159,1.881595 h -3.7632 c -1.04244,0 -1.88163,-0.839192 -1.88163,-1.881595 0,-1.009816 0.78914,-1.831394 1.78605,-1.881596 z m 0,7.526382 c 0.0339,-0.0016 0.0628,0 0.0956,0 h 3.7632 c 1.0424,0 1.88159,0.839188 1.88159,1.881595 0,1.042403 -0.83919,1.881596 -1.88159,1.881596 h -3.7632 c -1.04244,0 -1.88163,-0.839193 -1.88163,-1.881596 0,-1.009815 0.78914,-1.831397 1.78605,-1.881595 z m -31.89157,3.763191 a 3.7631907,3.7631906 0 0 0 -3.76319,3.763187 3.7631907,3.7631906 0 0 0 3.76319,3.763191 3.7631907,3.7631906 0 0 0 3.76319,-3.763191 3.7631907,3.7631906 0 0 0 -3.76319,-3.763187 z m 31.98712,3.763187 h 3.76319 c 1.0424,0 1.88159,0.839192 1.88159,1.881595 v 11.289573 c 0,1.042403 -0.83919,1.881595 -1.88159,1.881595 h -3.76319 c -1.04241,0 -1.8816,-0.839192 -1.8816,-1.881595 V 79.073495 c 0,-1.042403 0.83919,-1.881595 1.8816,-1.881595 z" /><path
         id="path5"
         style="fill:#ffffff;fill-opacity:1;stroke-width:15.0527;stroke-linecap:round;stroke-linejoin:round"
         d="m 312.92085,53.023658 c -4.16961,0 -7.52637,3.356765 -7.52637,7.526381 v 30.105524 c 0,4.169616 3.35676,7.526382 7.52637,7.526382 h 45.15829 c 4.16962,0 7.52638,-3.356766 7.52638,-7.526382 V 60.550039 c 0,-4.169616 -3.35676,-7.526381 -7.52638,-7.526381 z m 11.28958,7.526381 a 15.052762,15.052762 0 0 1 15.05276,15.05276 15.052762,15.052762 0 0 1 -15.05276,15.052764 15.052762,15.052762 0 0 1 -15.05276,-15.052764 15.052762,15.052762 0 0 1 15.05276,-15.05276 z m 24.46074,0 c 1.0424,0 1.88159,0.839193 1.88159,1.881596 v 18.81595 c 0,0.07263 4e-4,0.143002 -0.008,0.213 0.0376,0.524888 -0.14826,1.059636 -0.55127,1.462636 l -3.27073,3.270739 a 3.7631907,3.7631906 0 0 1 0.0663,0.698261 3.7631907,3.7631906 0 0 1 -3.76319,3.763191 3.7631907,3.7631906 0 0 1 -3.76319,-3.763191 3.7631907,3.7631906 0 0 1 3.76319,-3.763191 3.7631907,3.7631906 0 0 1 1.23478,0.205848 l 2.52841,-2.528414 V 62.43152 c 0,-1.042403 0.83919,-1.881596 1.8816,-1.881596 z m 7.43083,0 c 0.0339,-0.0016 0.0628,0 0.0956,0 h 3.7632 c 1.0424,0 1.88159,0.839193 1.88159,1.881596 0,1.042403 -0.83919,1.881595 -1.88159,1.881595 h -3.7632 c -1.04244,0 -1.88163,-0.839192 -1.88163,-1.881595 0,-1.009816 0.78914,-1.831394 1.78605,-1.881596 z m 0,7.526382 c 0.0339,-0.0016 0.0628,0 0.0956,0 h 3.7632 c 1.0424,0 1.88159,0.839189 1.88159,1.881596 0,1.042403 -0.83919,1.881595 -1.88159,1.881595 h -3.7632 c -1.04244,0 -1.88163,-0.839192 -1.88163,-1.881595 0,-1.009816 0.78914,-1.831398 1.78605,-1.881596 z m -31.89157,3.763191 a 3.7631907,3.7631906 0 0 0 -3.76319,3.763187 3.7631907,3.7631906 0 0 0 3.76319,3.763191 3.7631907,3.7631906 0 0 0 3.76319,-3.763191 3.7631907,3.7631906 0 0 0 -3.76319,-3.763187 z m 31.98712,3.763187 h 3.76319 c 1.0424,0 1.88159,0.839193 1.88159,1.881596 v 11.289572 c 0,1.042403 -0.83919,1.881596 -1.88159,1.881596 h -3.76319 c -1.04241,0 -1.8816,-0.839193 -1.8816,-1.881596 V 77.484395 c 0,-1.042403 0.83919,-1.881596 1.8816,-1.881596 z" /><path
         id="path7"
         style="opacity:0.2;fill:#000000;fill-opacity:1;stroke-width:3.63341;stroke-linecap:round;stroke-linejoin:round"
         d="m 422.54986,106.83756 c -1.00646,0 -1.81671,0.81026 -1.81671,1.81671 v 7.26686 c 0,1.00645 0.81025,1.81671 1.81671,1.81671 h 10.90028 c 1.00646,0 1.81671,-0.81026 1.81671,-1.81671 v -7.26686 c 0,-1.00645 -0.81025,-1.81671 -1.81671,-1.81671 z m 2.72507,1.81671 a 3.6334253,3.6334253 0 0 1 3.63342,3.63343 3.6334253,3.6334253 0 0 1 -3.63342,3.63343 3.6334253,3.6334253 0 0 1 -3.63342,-3.63343 3.6334253,3.6334253 0 0 1 3.63342,-3.63343 z m 5.90432,0 c 0.25161,0 0.45417,0.20257 0.45417,0.45418 v 4.54178 c 0,0.0175 10e-5,0.0345 -0.002,0.0514 0.009,0.12669 -0.0358,0.25577 -0.13306,0.35305 l -0.78949,0.78949 a 0.90835637,0.90835635 0 0 1 0.016,0.16854 0.90835637,0.90835635 0 0 1 -0.90835,0.90836 0.90835637,0.90835635 0 0 1 -0.90836,-0.90836 0.90835637,0.90835635 0 0 1 0.90836,-0.90835 0.90835637,0.90835635 0 0 1 0.29805,0.0497 l 0.6103,-0.6103 v -4.43533 c 0,-0.25162 0.20257,-0.45418 0.45418,-0.45418 z m 1.79365,0 c 0.008,-3.8e-4 0.0152,0 0.0231,0 h 0.90836 c 0.25161,0 0.45418,0.20257 0.45418,0.45418 0,0.25162 -0.20257,0.45418 -0.45418,0.45418 H 432.996 c -0.25162,0 -0.45419,-0.20256 -0.45419,-0.45418 0,-0.24375 0.19049,-0.44206 0.43112,-0.45418 z m 0,1.81672 c 0.008,-3.9e-4 0.0152,0 0.0231,0 h 0.90836 c 0.25161,0 0.45418,0.20256 0.45418,0.45418 0,0.25161 -0.20257,0.45417 -0.45418,0.45417 H 432.996 c -0.25162,0 -0.45419,-0.20256 -0.45419,-0.45417 0,-0.24375 0.19049,-0.44207 0.43112,-0.45418 z m -7.69797,0.90835 a 0.90835637,0.90835635 0 0 0 -0.90836,0.90836 0.90835637,0.90835635 0 0 0 0.90836,0.90836 0.90835637,0.90835635 0 0 0 0.90836,-0.90836 0.90835637,0.90835635 0 0 0 -0.90836,-0.90836 z m 7.72103,0.90836 h 0.90836 c 0.25161,0 0.45417,0.20256 0.45417,0.45418 v 2.72507 c 0,0.25161 -0.20256,0.45418 -0.45417,0.45418 h -0.90836 c -0.25162,0 -0.45418,-0.20257 -0.45418,-0.45418 v -2.72507 c 0,-0.25162 0.20256,-0.45418 0.45418,-0.45418 z" /><path
         id="path8"
         style="fill:#ffffff;fill-opacity:1;stroke-width:3.63341;stroke-linecap:round;stroke-linejoin:round"
         d="m 422.54986,106.45399 c -1.00646,0 -1.81671,0.81025 -1.81671,1.81671 v 7.26685 c 0,1.00646 0.81025,1.81671 1.81671,1.81671 h 10.90028 c 1.00646,0 1.81671,-0.81025 1.81671,-1.81671 v -7.26685 c 0,-1.00646 -0.81025,-1.81671 -1.81671,-1.81671 z m 2.72507,1.81671 a 3.6334253,3.6334253 0 0 1 3.63342,3.63342 3.6334253,3.6334253 0 0 1 -3.63342,3.63343 3.6334253,3.6334253 0 0 1 -3.63342,-3.63343 3.6334253,3.6334253 0 0 1 3.63342,-3.63342 z m 5.90432,0 c 0.25161,0 0.45417,0.20256 0.45417,0.45418 v 4.54178 c 0,0.0175 10e-5,0.0345 -0.002,0.0514 0.009,0.1267 -0.0358,0.25578 -0.13306,0.35305 l -0.78949,0.78949 a 0.90835637,0.90835635 0 0 1 0.016,0.16855 0.90835637,0.90835635 0 0 1 -0.90835,0.90835 0.90835637,0.90835635 0 0 1 -0.90836,-0.90835 0.90835637,0.90835635 0 0 1 0.90836,-0.90836 0.90835637,0.90835635 0 0 1 0.29805,0.0497 l 0.6103,-0.61031 v -4.43533 c 0,-0.25162 0.20257,-0.45418 0.45418,-0.45418 z m 1.79365,0 c 0.008,-3.9e-4 0.0152,0 0.0231,0 h 0.90836 c 0.25161,0 0.45418,0.20256 0.45418,0.45418 0,0.25161 -0.20257,0.45418 -0.45418,0.45418 H 432.996 c -0.25162,0 -0.45419,-0.20257 -0.45419,-0.45418 0,-0.24375 0.19049,-0.44206 0.43112,-0.45418 z m 0,1.81671 c 0.008,-3.8e-4 0.0152,0 0.0231,0 h 0.90836 c 0.25161,0 0.45418,0.20256 0.45418,0.45418 0,0.25161 -0.20257,0.45418 -0.45418,0.45418 H 432.996 c -0.25162,0 -0.45419,-0.20257 -0.45419,-0.45418 0,-0.24375 0.19049,-0.44206 0.43112,-0.45418 z m -7.69797,0.90836 a 0.90835637,0.90835635 0 0 0 -0.90836,0.90835 0.90835637,0.90835635 0 0 0 0.90836,0.90836 0.90835637,0.90835635 0 0 0 0.90836,-0.90836 0.90835637,0.90835635 0 0 0 -0.90836,-0.90835 z m 7.72103,0.90835 h 0.90836 c 0.25161,0 0.45417,0.20257 0.45417,0.45418 v 2.72507 c 0,0.25162 -0.20256,0.45418 -0.45417,0.45418 h -0.90836 c -0.25162,0 -0.45418,-0.20256 -0.45418,-0.45418 v -2.72507 c 0,-0.25161 0.20256,-0.45418 0.45418,-0.45418 z" /><path
         id="path10"
         style="opacity:0.2;fill:#000000;fill-opacity:1;stroke-width:10.2082;stroke-linecap:round;stroke-linejoin:round"
         d="m 304.6877,157.49601 c -2.82766,0 -5.10409,2.27643 -5.10409,5.1041 v 20.41639 c 0,2.82767 2.27643,5.10409 5.10409,5.10409 h 30.62459 c 2.82767,0 5.1041,-2.27642 5.1041,-5.10409 v -20.41639 c 0,-2.82767 -2.27643,-5.1041 -5.1041,-5.1041 z m 7.65615,5.1041 a 10.208195,10.208195 0 0 1 10.2082,10.20819 10.208195,10.208195 0 0 1 -10.2082,10.2082 10.208195,10.208195 0 0 1 -10.20819,-10.2082 10.208195,10.208195 0 0 1 10.20819,-10.20819 z m 16.58832,0 c 0.70692,0 1.27602,0.5691 1.27602,1.27602 v 12.76024 c 0,0.0493 2.7e-4,0.097 -0.005,0.14445 0.0255,0.35596 -0.10055,0.7186 -0.37385,0.9919 l -2.21808,2.21809 a 2.5520489,2.5520488 0 0 1 0.045,0.47353 2.5520489,2.5520488 0 0 1 -2.55205,2.55205 2.5520489,2.5520488 0 0 1 -2.55205,-2.55205 2.5520489,2.5520488 0 0 1 2.55205,-2.55204 2.5520489,2.5520488 0 0 1 0.83738,0.13959 l 1.71467,-1.71467 v -12.46117 c 0,-0.70691 0.5691,-1.27602 1.27603,-1.27602 z m 5.0393,0 c 0.023,-0.001 0.0426,0 0.0648,0 h 2.55206 c 0.70691,0 1.27602,0.5691 1.27602,1.27602 0,0.70692 -0.56911,1.27603 -1.27602,1.27603 h -2.55206 c -0.70694,0 -1.27604,-0.56911 -1.27604,-1.27603 0,-0.68482 0.53516,-1.24198 1.21122,-1.27602 z m 0,5.10409 c 0.023,-10e-4 0.0426,0 0.0648,0 h 2.55206 c 0.70691,0 1.27602,0.56911 1.27602,1.27603 0,0.70692 -0.56911,1.27602 -1.27602,1.27602 h -2.55206 c -0.70694,0 -1.27604,-0.5691 -1.27604,-1.27602 0,-0.68482 0.53516,-1.24198 1.21122,-1.27603 z m -21.62762,2.55205 a 2.5520489,2.5520488 0 0 0 -2.55204,2.55205 2.5520489,2.5520488 0 0 0 2.55204,2.55205 2.5520489,2.5520488 0 0 0 2.55205,-2.55205 2.5520489,2.5520488 0 0 0 -2.55205,-2.55205 z m 21.69242,2.55205 h 2.55205 c 0.70691,0 1.27602,0.56911 1.27602,1.27602 v 7.65615 c 0,0.70692 -0.56911,1.27603 -1.27602,1.27603 h -2.55205 c -0.70692,0 -1.27603,-0.56911 -1.27603,-1.27603 v -7.65615 c 0,-0.70691 0.56911,-1.27602 1.27603,-1.27602 z" /><path
         id="path11"
         style="fill:#ffffff;fill-opacity:1;stroke-width:10.2082;stroke-linecap:round;stroke-linejoin:round"
         d="m 304.6877,156.41834 c -2.82766,0 -5.10409,2.27643 -5.10409,5.1041 v 20.41639 c 0,2.82767 2.27643,5.1041 5.10409,5.1041 h 30.62459 c 2.82767,0 5.1041,-2.27643 5.1041,-5.1041 v -20.41639 c 0,-2.82767 -2.27643,-5.1041 -5.1041,-5.1041 z m 7.65615,5.1041 a 10.208195,10.208195 0 0 1 10.2082,10.20819 10.208195,10.208195 0 0 1 -10.2082,10.2082 10.208195,10.208195 0 0 1 -10.20819,-10.2082 10.208195,10.208195 0 0 1 10.20819,-10.20819 z m 16.58832,0 c 0.70692,0 1.27602,0.56911 1.27602,1.27603 v 12.76024 c 0,0.0493 2.7e-4,0.097 -0.005,0.14445 0.0255,0.35595 -0.10055,0.7186 -0.37385,0.9919 l -2.21808,2.21809 a 2.5520489,2.5520488 0 0 1 0.045,0.47353 2.5520489,2.5520488 0 0 1 -2.55205,2.55205 2.5520489,2.5520488 0 0 1 -2.55205,-2.55205 2.5520489,2.5520488 0 0 1 2.55205,-2.55205 2.5520489,2.5520488 0 0 1 0.83738,0.1396 l 1.71467,-1.71467 v -12.46117 c 0,-0.70692 0.5691,-1.27603 1.27603,-1.27603 z m 5.0393,0 c 0.023,-10e-4 0.0426,0 0.0648,0 h 2.55206 c 0.70691,0 1.27602,0.56911 1.27602,1.27603 0,0.70691 -0.56911,1.27602 -1.27602,1.27602 h -2.55206 c -0.70694,0 -1.27604,-0.56911 -1.27604,-1.27602 0,-0.68482 0.53516,-1.24198 1.21122,-1.27603 z m 0,5.1041 c 0.023,-0.001 0.0426,0 0.0648,0 h 2.55206 c 0.70691,0 1.27602,0.5691 1.27602,1.27602 0,0.70692 -0.56911,1.27603 -1.27602,1.27603 h -2.55206 c -0.70694,0 -1.27604,-0.56911 -1.27604,-1.27603 0,-0.68481 0.53516,-1.24198 1.21122,-1.27602 z m -21.62762,2.55205 a 2.5520489,2.5520488 0 0 0 -2.55204,2.55204 2.5520489,2.5520488 0 0 0 2.55204,2.55205 2.5520489,2.5520488 0 0 0 2.55205,-2.55205 2.5520489,2.5520488 0 0 0 -2.55205,-2.55204 z m 21.69242,2.55204 h 2.55205 c 0.70691,0 1.27602,0.56911 1.27602,1.27603 v 7.65615 c 0,0.70691 -0.56911,1.27602 -1.27602,1.27602 h -2.55205 c -0.70692,0 -1.27603,-0.56911 -1.27603,-1.27602 v -7.65615 c 0,-0.70692 0.56911,-1.27603 1.27603,-1.27603 z" /><path
         id="path13"
         style="opacity:0.2;fill:#000000;fill-opacity:1;stroke-width:7.0938;stroke-linecap:round;stroke-linejoin:round"
         d="m 301.35925,233.92096 c -1.96499,0 -3.54691,1.58192 -3.54691,3.54691 v 14.18766 c 0,1.96499 1.58192,3.54692 3.54691,3.54692 h 21.28149 c 1.96499,0 3.54692,-1.58193 3.54692,-3.54692 v -14.18766 c 0,-1.96499 -1.58193,-3.54691 -3.54692,-3.54691 z m 5.32037,3.54691 a 7.0938304,7.0938304 0 0 1 7.09383,7.09383 7.0938304,7.0938304 0 0 1 -7.09383,7.09383 7.0938304,7.0938304 0 0 1 -7.09383,-7.09383 7.0938304,7.0938304 0 0 1 7.09383,-7.09383 z m 11.52748,0 c 0.49125,0 0.88673,0.39548 0.88673,0.88673 v 8.86729 c 0,0.0342 1.8e-4,0.0674 -0.004,0.10038 0.0177,0.24736 -0.0699,0.49937 -0.2598,0.68929 l -1.54138,1.54138 a 1.7734577,1.7734576 0 0 1 0.0312,0.32906 1.7734577,1.7734576 0 0 1 -1.77346,1.77346 1.7734577,1.7734576 0 0 1 -1.77346,-1.77346 1.7734577,1.7734576 0 0 1 1.77346,-1.77345 1.7734577,1.7734576 0 0 1 0.58191,0.097 l 1.19155,-1.19156 v -8.65945 c 0,-0.49125 0.39548,-0.88673 0.88673,-0.88673 z m 3.50188,0 c 0.016,-7.5e-4 0.0296,0 0.0451,0 h 1.77346 c 0.49125,0 0.88673,0.39548 0.88673,0.88673 0,0.49125 -0.39548,0.88673 -0.88673,0.88673 h -1.77346 c -0.49127,0 -0.88675,-0.39548 -0.88675,-0.88673 0,-0.47589 0.3719,-0.86307 0.8417,-0.88673 z m 0,3.54692 c 0.016,-7.6e-4 0.0296,0 0.0451,0 h 1.77346 c 0.49125,0 0.88673,0.39548 0.88673,0.88673 0,0.49124 -0.39548,0.88673 -0.88673,0.88673 h -1.77346 c -0.49127,0 -0.88675,-0.39549 -0.88675,-0.88673 0,-0.47589 0.3719,-0.86308 0.8417,-0.88673 z m -15.02936,1.77346 a 1.7734577,1.7734576 0 0 0 -1.77345,1.77345 1.7734577,1.7734576 0 0 0 1.77345,1.77346 1.7734577,1.7734576 0 0 0 1.77346,-1.77346 1.7734577,1.7734576 0 0 0 -1.77346,-1.77345 z m 15.07439,1.77345 h 1.77346 c 0.49125,0 0.88673,0.39548 0.88673,0.88673 v 5.32037 c 0,0.49125 -0.39548,0.88673 -0.88673,0.88673 h -1.77346 c -0.49125,0 -0.88673,-0.39548 -0.88673,-0.88673 v -5.32037 c 0,-0.49125 0.39548,-0.88673 0.88673,-0.88673 z" /><path
         id="path14"
         style="fill:#ffffff;fill-opacity:1;stroke-width:7.0938;stroke-linecap:round;stroke-linejoin:round"
         d="m 301.35925,233.17207 c -1.96499,0 -3.54691,1.58192 -3.54691,3.54692 v 14.18766 c 0,1.96499 1.58192,3.54691 3.54691,3.54691 h 21.28149 c 1.96499,0 3.54692,-1.58192 3.54692,-3.54691 v -14.18766 c 0,-1.965 -1.58193,-3.54692 -3.54692,-3.54692 z m 5.32037,3.54692 a 7.0938304,7.0938304 0 0 1 7.09383,7.09383 7.0938304,7.0938304 0 0 1 -7.09383,7.09383 7.0938304,7.0938304 0 0 1 -7.09383,-7.09383 7.0938304,7.0938304 0 0 1 7.09383,-7.09383 z m 11.52748,0 c 0.49125,0 0.88673,0.39548 0.88673,0.88673 v 8.86728 c 0,0.0342 1.8e-4,0.0674 -0.004,0.10038 0.0177,0.24736 -0.0699,0.49937 -0.2598,0.68929 l -1.54138,1.54138 a 1.7734577,1.7734576 0 0 1 0.0312,0.32907 1.7734577,1.7734576 0 0 1 -1.77346,1.77346 1.7734577,1.7734576 0 0 1 -1.77346,-1.77346 1.7734577,1.7734576 0 0 1 1.77346,-1.77346 1.7734577,1.7734576 0 0 1 0.58191,0.097 l 1.19155,-1.19155 v -8.65946 c 0,-0.49125 0.39548,-0.88673 0.88673,-0.88673 z m 3.50188,0 c 0.016,-7.6e-4 0.0296,0 0.0451,0 h 1.77346 c 0.49125,0 0.88673,0.39548 0.88673,0.88673 0,0.49124 -0.39548,0.88672 -0.88673,0.88672 h -1.77346 c -0.49127,0 -0.88675,-0.39548 -0.88675,-0.88672 0,-0.4759 0.3719,-0.86308 0.8417,-0.88673 z m 0,3.54691 c 0.016,-7.5e-4 0.0296,0 0.0451,0 h 1.77346 c 0.49125,0 0.88673,0.39548 0.88673,0.88673 0,0.49125 -0.39548,0.88673 -0.88673,0.88673 h -1.77346 c -0.49127,0 -0.88675,-0.39548 -0.88675,-0.88673 0,-0.47589 0.3719,-0.86307 0.8417,-0.88673 z m -15.02936,1.77346 a 1.7734577,1.7734576 0 0 0 -1.77345,1.77346 1.7734577,1.7734576 0 0 0 1.77345,1.77345 1.7734577,1.7734576 0 0 0 1.77346,-1.77345 1.7734577,1.7734576 0 0 0 -1.77346,-1.77346 z m 15.07439,1.77346 h 1.77346 c 0.49125,0 0.88673,0.39548 0.88673,0.88672 v 5.32038 c 0,0.49125 -0.39548,0.88673 -0.88673,0.88673 h -1.77346 c -0.49125,0 -0.88673,-0.39548 -0.88673,-0.88673 v -5.32038 c 0,-0.49124 0.39548,-0.88672 0.88673,-0.88672 z" /><path
         id="path16"
         style="opacity:0.2;fill:#000000;fill-opacity:1;stroke-width:5.01757;stroke-linecap:round;stroke-linejoin:round"
         d="m 424.47362,60.870919 c -1.38987,0 -2.50879,1.118922 -2.50879,2.508794 v 10.035175 c 0,1.389872 1.11892,2.508794 2.50879,2.508794 h 15.05276 c 1.38988,0 2.5088,-1.118922 2.5088,-2.508794 V 63.379713 c 0,-1.389872 -1.11892,-2.508794 -2.5088,-2.508794 z m 3.76319,2.508794 a 5.0175873,5.0175873 0 0 1 5.01759,5.017587 5.0175873,5.0175873 0 0 1 -5.01759,5.017588 5.0175873,5.0175873 0 0 1 -5.01758,-5.017588 5.0175873,5.0175873 0 0 1 5.01758,-5.017587 z m 8.15358,0 c 0.34747,0 0.6272,0.279731 0.6272,0.627199 v 6.271983 c 0,0.02421 1.3e-4,0.04767 -0.003,0.071 0.0125,0.174963 -0.0494,0.353212 -0.18375,0.487546 l -1.09025,1.090246 a 1.2543969,1.2543969 0 0 1 0.0221,0.232754 1.2543969,1.2543969 0 0 1 -1.25439,1.254396 1.2543969,1.2543969 0 0 1 -1.2544,-1.254396 1.2543969,1.2543969 0 0 1 1.2544,-1.254397 1.2543969,1.2543969 0 0 1 0.41159,0.06862 l 0.8428,-0.842805 v -6.124982 c 0,-0.347467 0.27973,-0.627198 0.6272,-0.627198 z m 2.47695,0 c 0.0113,-5.33e-4 0.0209,0 0.0319,0 h 1.2544 c 0.34747,0 0.6272,0.279731 0.6272,0.627199 0,0.347468 -0.27973,0.627198 -0.6272,0.627198 h -1.2544 c -0.34748,0 -0.62721,-0.27973 -0.62721,-0.627198 0,-0.336605 0.26305,-0.610465 0.59535,-0.627199 z m 0,2.508794 c 0.0113,-5.33e-4 0.0209,0 0.0319,0 h 1.2544 c 0.34747,0 0.6272,0.27973 0.6272,0.627199 0,0.347467 -0.27973,0.627198 -0.6272,0.627198 h -1.2544 c -0.34748,0 -0.62721,-0.279731 -0.62721,-0.627198 0,-0.336605 0.26305,-0.610466 0.59535,-0.627199 z m -10.63053,1.254397 a 1.2543969,1.2543969 0 0 0 -1.25439,1.254396 1.2543969,1.2543969 0 0 0 1.25439,1.254397 1.2543969,1.2543969 0 0 0 1.2544,-1.254397 1.2543969,1.2543969 0 0 0 -1.2544,-1.254396 z m 10.66238,1.254396 h 1.25439 c 0.34747,0 0.6272,0.279731 0.6272,0.627198 v 3.763191 c 0,0.347468 -0.27973,0.627199 -0.6272,0.627199 h -1.25439 c -0.34747,0 -0.6272,-0.279731 -0.6272,-0.627199 v -3.763191 c 0,-0.347467 0.27973,-0.627198 0.6272,-0.627198 z" /><path
         id="path17"
         style="fill:#ffffff;fill-opacity:1;stroke-width:5.01757;stroke-linecap:round;stroke-linejoin:round"
         d="m 424.47362,60.341219 c -1.38987,0 -2.50879,1.118922 -2.50879,2.508794 v 10.035175 c 0,1.389872 1.11892,2.508794 2.50879,2.508794 h 15.05276 c 1.38988,0 2.5088,-1.118922 2.5088,-2.508794 V 62.850013 c 0,-1.389872 -1.11892,-2.508794 -2.5088,-2.508794 z m 3.76319,2.508794 a 5.0175873,5.0175873 0 0 1 5.01759,5.017587 5.0175873,5.0175873 0 0 1 -5.01759,5.017588 5.0175873,5.0175873 0 0 1 -5.01758,-5.017588 5.0175873,5.0175873 0 0 1 5.01758,-5.017587 z m 8.15358,0 c 0.34747,0 0.6272,0.279731 0.6272,0.627199 v 6.271983 c 0,0.02421 1.3e-4,0.04767 -0.003,0.071 0.0125,0.174963 -0.0494,0.353212 -0.18375,0.487545 l -1.09025,1.090247 a 1.2543969,1.2543969 0 0 1 0.0221,0.232753 1.2543969,1.2543969 0 0 1 -1.25439,1.254397 1.2543969,1.2543969 0 0 1 -1.2544,-1.254397 1.2543969,1.2543969 0 0 1 1.2544,-1.254397 1.2543969,1.2543969 0 0 1 0.41159,0.06862 l 0.8428,-0.842804 v -6.124982 c 0,-0.347467 0.27973,-0.627198 0.6272,-0.627198 z m 2.47695,0 c 0.0113,-5.33e-4 0.0209,0 0.0319,0 h 1.2544 c 0.34747,0 0.6272,0.279731 0.6272,0.627199 0,0.347467 -0.27973,0.627198 -0.6272,0.627198 h -1.2544 c -0.34748,0 -0.62721,-0.279731 -0.62721,-0.627198 0,-0.336606 0.26305,-0.610465 0.59535,-0.627199 z m 0,2.508794 c 0.0113,-5.33e-4 0.0209,0 0.0319,0 h 1.2544 c 0.34747,0 0.6272,0.27973 0.6272,0.627199 0,0.347467 -0.27973,0.627198 -0.6272,0.627198 h -1.2544 c -0.34748,0 -0.62721,-0.279731 -0.62721,-0.627198 0,-0.336606 0.26305,-0.610466 0.59535,-0.627199 z m -10.63053,1.254397 a 1.2543969,1.2543969 0 0 0 -1.25439,1.254396 1.2543969,1.2543969 0 0 0 1.25439,1.254397 1.2543969,1.2543969 0 0 0 1.2544,-1.254397 1.2543969,1.2543969 0 0 0 -1.2544,-1.254396 z m 10.66238,1.254396 h 1.25439 c 0.34747,0 0.6272,0.279731 0.6272,0.627198 v 3.763191 c 0,0.347468 -0.27973,0.627199 -0.6272,0.627199 h -1.25439 c -0.34747,0 -0.6272,-0.279731 -0.6272,-0.627199 v -3.763191 c 0,-0.347467 0.27973,-0.627198 0.6272,-0.627198 z" /><path
         id="path19"
         style="opacity:0.2;fill:#000000;fill-opacity:1;stroke-width:2.59529;stroke-linecap:round;stroke-linejoin:round"
         d="m 420.10704,144.31254 c -0.7189,0 -1.29765,0.57876 -1.29765,1.29765 v 5.19061 c 0,0.7189 0.57875,1.29765 1.29765,1.29765 h 7.78591 c 0.7189,0 1.29765,-0.57875 1.29765,-1.29765 v -5.19061 c 0,-0.71889 -0.57875,-1.29765 -1.29765,-1.29765 z m 1.94648,1.29765 a 2.5953037,2.5953037 0 0 1 2.5953,2.59531 2.5953037,2.5953037 0 0 1 -2.5953,2.5953 2.5953037,2.5953037 0 0 1 -2.5953,-2.5953 2.5953037,2.5953037 0 0 1 2.5953,-2.59531 z m 4.21737,0 c 0.17972,0 0.32441,0.14469 0.32441,0.32442 v 3.24413 c 0,0.0125 7e-5,0.0247 -0.001,0.0367 0.006,0.0905 -0.0256,0.1827 -0.0951,0.25218 l -0.56391,0.56392 a 0.64882597,0.64882595 0 0 1 0.0114,0.12039 0.64882597,0.64882595 0 0 1 -0.64883,0.64883 0.64882597,0.64882595 0 0 1 -0.64883,-0.64883 0.64882597,0.64882595 0 0 1 0.64883,-0.64883 0.64882597,0.64882595 0 0 1 0.21289,0.0355 l 0.43594,-0.43594 v -3.16809 c 0,-0.17973 0.14468,-0.32442 0.32441,-0.32442 z m 1.28118,0 c 0.006,-2.7e-4 0.0108,0 0.0165,0 h 0.64883 c 0.17972,0 0.32441,0.14469 0.32441,0.32442 0,0.17972 -0.14469,0.32441 -0.32441,0.32441 h -0.64883 c -0.17973,0 -0.32442,-0.14469 -0.32442,-0.32441 0,-0.17411 0.13606,-0.31576 0.30794,-0.32442 z m 0,1.29766 c 0.006,-2.8e-4 0.0108,0 0.0165,0 h 0.64883 c 0.17972,0 0.32441,0.14468 0.32441,0.32441 0,0.17972 -0.14469,0.32441 -0.32441,0.32441 h -0.64883 c -0.17973,0 -0.32442,-0.14469 -0.32442,-0.32441 0,-0.17411 0.13606,-0.31576 0.30794,-0.32441 z m -5.49855,0.64882 a 0.64882597,0.64882595 0 0 0 -0.64883,0.64883 0.64882597,0.64882595 0 0 0 0.64883,0.64882 0.64882597,0.64882595 0 0 0 0.64882,-0.64882 0.64882597,0.64882595 0 0 0 -0.64882,-0.64883 z m 5.51502,0.64883 h 0.64883 c 0.17972,0 0.32441,0.14469 0.32441,0.32441 v 1.94648 c 0,0.17972 -0.14469,0.32441 -0.32441,0.32441 h -0.64883 c -0.17973,0 -0.32441,-0.14469 -0.32441,-0.32441 v -1.94648 c 0,-0.17972 0.14468,-0.32441 0.32441,-0.32441 z" /><path
         id="path20"
         style="fill:#ffffff;fill-opacity:1;stroke-width:2.59529;stroke-linecap:round;stroke-linejoin:round"
         d="m 420.10704,144.03856 c -0.7189,0 -1.29765,0.57875 -1.29765,1.29765 v 5.19061 c 0,0.7189 0.57875,1.29765 1.29765,1.29765 h 7.78591 c 0.7189,0 1.29765,-0.57875 1.29765,-1.29765 v -5.19061 c 0,-0.7189 -0.57875,-1.29765 -1.29765,-1.29765 z m 1.94648,1.29765 a 2.5953037,2.5953037 0 0 1 2.5953,2.59531 2.5953037,2.5953037 0 0 1 -2.5953,2.5953 2.5953037,2.5953037 0 0 1 -2.5953,-2.5953 2.5953037,2.5953037 0 0 1 2.5953,-2.59531 z m 4.21737,0 c 0.17972,0 0.32441,0.14469 0.32441,0.32441 v 3.24413 c 0,0.0125 7e-5,0.0247 -0.001,0.0367 0.006,0.0905 -0.0256,0.18269 -0.0951,0.25218 l -0.56391,0.56392 a 0.64882597,0.64882595 0 0 1 0.0114,0.12039 0.64882597,0.64882595 0 0 1 -0.64883,0.64882 0.64882597,0.64882595 0 0 1 -0.64883,-0.64882 0.64882597,0.64882595 0 0 1 0.64883,-0.64883 0.64882597,0.64882595 0 0 1 0.21289,0.0355 l 0.43594,-0.43593 v -3.1681 c 0,-0.17972 0.14468,-0.32441 0.32441,-0.32441 z m 1.28118,0 c 0.006,-2.7e-4 0.0108,0 0.0165,0 h 0.64883 c 0.17972,0 0.32441,0.14469 0.32441,0.32441 0,0.17973 -0.14469,0.32442 -0.32441,0.32442 h -0.64883 c -0.17973,0 -0.32442,-0.14469 -0.32442,-0.32442 0,-0.1741 0.13606,-0.31575 0.30794,-0.32441 z m 0,1.29765 c 0.006,-2.7e-4 0.0108,0 0.0165,0 h 0.64883 c 0.17972,0 0.32441,0.14469 0.32441,0.32442 0,0.17972 -0.14469,0.32441 -0.32441,0.32441 h -0.64883 c -0.17973,0 -0.32442,-0.14469 -0.32442,-0.32441 0,-0.17411 0.13606,-0.31576 0.30794,-0.32442 z m -5.49855,0.64883 a 0.64882597,0.64882595 0 0 0 -0.64883,0.64883 0.64882597,0.64882595 0 0 0 0.64883,0.64882 0.64882597,0.64882595 0 0 0 0.64882,-0.64882 0.64882597,0.64882595 0 0 0 -0.64882,-0.64883 z m 5.51502,0.64883 h 0.64883 c 0.17972,0 0.32441,0.14468 0.32441,0.32441 v 1.94648 c 0,0.17972 -0.14469,0.32441 -0.32441,0.32441 h -0.64883 c -0.17973,0 -0.32441,-0.14469 -0.32441,-0.32441 v -1.94648 c 0,-0.17973 0.14468,-0.32441 0.32441,-0.32441 z" /></g><g
       inkscape:groupmode="layer"
       id="layer5"
       inkscape:label="Highlights"
       style="display:inline"
       sodipodi:insensitive="true"><path
         style="opacity:0.12999998;color:#bebebe;fill:#ffffff;fill-opacity:1;fill-rule:nonzero;stroke:none;stroke-width:0;marker:none;visibility:visible;display:inline;overflow:visible;enable-background:accumulate"
         d="M 84,47 C 56.836703,47 35,68.836703 35,96 l 0,1 C 35,69.836703 56.836703,48 84,48 l 120,0 c 27.1633,0 49,21.836703 49,49 l 0,-1 C 253,68.836703 231.1633,47 204,47 L 84,47 z"
         id="rect3894"
         inkscape:connector-curvature="0" /><path
         style="opacity:0.12999998;color:#bebebe;fill:#ffffff;fill-opacity:1;fill-rule:nonzero;stroke:none;stroke-width:0;marker:none;visibility:visible;display:inline;overflow:visible;enable-background:accumulate"
         d="m 419,141 c -1.1253,0 -2,0.8747 -2,2 l 0,1 c 0,-1.1253 0.8747,-2 2,-2 l 10,0 c 1.1253,0 2,0.8747 2,2 l 0,-1 c 0,-1.1253 -0.8747,-2 -2,-2 l -10,0 z"
         id="rect3896"
         inkscape:connector-curvature="0" /><path
         style="opacity:0.12999998;color:#bebebe;fill:#ffffff;fill-opacity:1;fill-rule:nonzero;stroke:none;stroke-width:0;marker:none;visibility:visible;display:inline;overflow:visible;enable-background:accumulate"
         d="m 422,102 c -2.2333,0 -4,1.7667 -4,4 l 0,1 c 0,-2.2333 1.7667,-4 4,-4 l 12,0 c 2.2333,0 4,1.7667 4,4 l 0,-1 c 0,-2.2333 -1.7667,-4 -4,-4 l -12,0 z"
         id="rect3898"
         inkscape:connector-curvature="0" /><path
         style="opacity:0.12999998;color:#bebebe;fill:#ffffff;fill-opacity:1;fill-rule:nonzero;stroke:none;stroke-width:0;marker:none;visibility:visible;display:inline;overflow:visible;enable-background:accumulate"
         d="m 424,54 c -3.3413,0 -6,2.658703 -6,6 l 0,1 c 0,-3.341297 2.6587,-6 6,-6 l 16,0 c 3.3413,0 6,2.658703 6,6 l 0,-1 c 0,-3.341297 -2.6587,-6 -6,-6 l -16,0 z"
         id="rect3900"
         inkscape:connector-curvature="0" /><path
         style="opacity:0.12999998;color:#bebebe;fill:#ffffff;fill-opacity:1;fill-rule:nonzero;stroke:none;stroke-width:0;marker:none;visibility:visible;display:inline;overflow:visible;enable-background:accumulate"
         d="m 300,224 c -4.4493,0 -8,3.5507 -8,8 l 0,1 c 0,-4.4493 3.5507,-8 8,-8 l 24,0 c 4.4493,0 8,3.5507 8,8 l 0,-1 c 0,-4.4493 -3.5507,-8 -8,-8 l -24,0 z"
         id="rect3902"
         inkscape:connector-curvature="0" /><path
         style="opacity:0.12999998;color:#bebebe;fill:#ffffff;fill-opacity:1;fill-rule:nonzero;stroke:none;stroke-width:0;marker:none;visibility:visible;display:inline;overflow:visible;enable-background:accumulate"
         d="m 310,33 c -9.4353,0 -17,7.564703 -17,17 l 0,1 c 0,-9.435297 7.5647,-17 17,-17 l 52,0 c 9.4353,0 17,7.564703 17,17 l 0,-1 c 0,-9.435297 -7.5647,-17 -17,-17 l -52,0 z"
         id="rect3904"
         inkscape:connector-curvature="0" /><path
         style="opacity:0.12999998;color:#bebebe;fill:#ffffff;fill-opacity:1;fill-rule:nonzero;stroke:none;stroke-width:0;marker:none;visibility:visible;display:inline;overflow:visible;enable-background:accumulate"
         d="m 302.5,143 c -6.3883,0 -11.5,5.1117 -11.5,11.5 l 0,1 c 0,-6.3883 5.1117,-11.5 11.5,-11.5 l 35,0 c 6.3883,0 11.5,5.1117 11.5,11.5 l 0,-1 c 0,-6.3883 -5.1117,-11.5 -11.5,-11.5 l -35,0 z"
         id="rect3906"
         inkscape:connector-curvature="0" /><path
         id="path4085"
         d="m 204,266 c 27.1633,0 49,-21.8367 49,-49 l 0,-1 c 0,27.1633 -21.8367,49 -49,49 L 84,265 C 56.8367,265 35,243.1633 35,216 l 0,1 c 0,27.1633 21.8367,49 49,49 l 120,0 z"
         style="opacity:0.5;color:#bebebe;fill:#000000;fill-opacity:1;fill-rule:nonzero;stroke:none;stroke-width:0;marker:none;visibility:visible;display:inline;overflow:visible;enable-background:accumulate"
         inkscape:connector-curvature="0" /><path
         id="path4087"
         d="m 429,156 c 1.1253,0 2,-0.8747 2,-2 l 0,-1 c 0,1.1253 -0.8747,2 -2,2 l -10,0 c -1.1253,0 -2,-0.8747 -2,-2 l 0,1 c 0,1.1253 0.8747,2 2,2 l 10,0 z"
         style="opacity:0.3;color:#bebebe;fill:#000000;fill-opacity:1;fill-rule:nonzero;stroke:none;stroke-width:0;marker:none;visibility:visible;display:inline;overflow:visible;enable-background:accumulate"
         inkscape:connector-curvature="0" /><path
         id="path4089"
         d="m 434,123 c 2.2333,0 4,-1.7667 4,-4 l 0,-1 c 0,2.2333 -1.7667,4 -4,4 l -12,0 c -2.2333,0 -4,-1.7667 -4,-4 l 0,1 c 0,2.2333 1.7667,4 4,4 l 12,0 z"
         style="opacity:0.3;color:#bebebe;fill:#000000;fill-opacity:1;fill-rule:nonzero;stroke:none;stroke-width:0;marker:none;visibility:visible;display:inline;overflow:visible;enable-background:accumulate"
         inkscape:connector-curvature="0" /><path
         id="path4091"
         d="m 440,83 c 3.3413,0 6,-2.6587 6,-6 l 0,-1 c 0,3.3413 -2.6587,6 -6,6 l -16,0 c -3.3413,0 -6,-2.6587 -6,-6 l 0,1 c 0,3.3413 2.6587,6 6,6 l 16,0 z"
         style="opacity:0.5;color:#bebebe;fill:#000000;fill-opacity:1;fill-rule:nonzero;stroke:none;stroke-width:0;marker:none;visibility:visible;display:inline;overflow:visible;enable-background:accumulate"
         inkscape:connector-curvature="0" /><path
         id="path4093"
         d="m 324,265 c 4.4493,0 8,-3.5507 8,-8 l 0,-1 c 0,4.4493 -3.5507,8 -8,8 l -24,0 c -4.4493,0 -8,-3.5507 -8,-8 l 0,1 c 0,4.4493 3.5507,8 8,8 l 24,0 z"
         style="opacity:0.5;color:#bebebe;fill:#000000;fill-opacity:1;fill-rule:nonzero;stroke:none;stroke-width:0;marker:none;visibility:visible;display:inline;overflow:visible;enable-background:accumulate"
         inkscape:connector-curvature="0" /><path
         id="path4095"
         d="m 362,120 c 9.4353,0 17,-7.5647 17,-17 l 0,-1 c 0,9.4353 -7.5647,17 -17,17 l -52,0 c -9.4353,0 -17,-7.5647 -17,-17 l 0,1 c 0,9.4353 7.5647,17 17,17 l 52,0 z"
         style="opacity:0.5;color:#bebebe;fill:#000000;fill-opacity:1;fill-rule:nonzero;stroke:none;stroke-width:0;marker:none;visibility:visible;display:inline;overflow:visible;enable-background:accumulate"
         inkscape:connector-curvature="0" /><path
         id="path4097"
         d="m 337.5,202 c 6.3883,0 11.5,-5.1117 11.5,-11.5 l 0,-1 c 0,6.3883 -5.1117,11.5 -11.5,11.5 l -35,0 c -6.3883,0 -11.5,-5.1117 -11.5,-11.5 l 0,1 c 0,6.3883 5.1117,11.5 11.5,11.5 l 35,0 z"
         style="opacity:0.5;color:#bebebe;fill:#000000;fill-opacity:1;fill-rule:nonzero;stroke:none;stroke-width:0;marker:none;visibility:visible;display:inline;overflow:visible;enable-background:accumulate"
         inkscape:connector-curvature="0" /><path
         inkscape:connector-curvature="0"
         id="path4280"
         d="M 84,265 C 56.836703,265 35,243.1633 35,216 l 0,-1 c 0,27.1633 21.836703,49 49,49 l 120,0 c 27.1633,0 49,-21.8367 49,-49 l 0,1 c 0,27.1633 -21.8367,49 -49,49 l -120,0 z"
         style="opacity:0.1;color:#bebebe;fill:#ffffff;fill-opacity:1;fill-rule:nonzero;stroke:none;stroke-width:0;marker:none;visibility:visible;display:inline;overflow:visible;enable-background:accumulate" /><path
         style="opacity:0.1;color:#bebebe;fill:#ffffff;fill-opacity:1;fill-rule:nonzero;stroke:none;stroke-width:0;marker:none;visibility:visible;display:inline;overflow:visible;enable-background:accumulate"
         d="m 300,264 c -4.4493,0 -8,-3.5507 -8,-8 l 0,-1 c 0,4.4493 3.5507,8 8,8 l 24,0 c 4.4493,0 8,-3.5507 8,-8 l 0,1 c 0,4.4493 -3.5507,8 -8,8 l -24,0 z"
         id="path4294"
         inkscape:connector-curvature="0" /><path
         style="opacity:0.1;color:#bebebe;fill:#ffffff;fill-opacity:1;fill-rule:nonzero;stroke:none;stroke-width:0;marker:none;visibility:visible;display:inline;overflow:visible;enable-background:accumulate"
         d="m 302.5,201 c -6.3883,0 -11.5,-5.1117 -11.5,-11.5 l 0,-1 c 0,6.3883 5.1117,11.5 11.5,11.5 l 35,0 c 6.3883,0 11.5,-5.1117 11.5,-11.5 l 0,1 c 0,6.3883 -5.1117,11.5 -11.5,11.5 l -35,0 z"
         id="path4296"
         inkscape:connector-curvature="0" /><path
         style="opacity:0.1;color:#bebebe;fill:#ffffff;fill-opacity:1;fill-rule:nonzero;stroke:none;stroke-width:0;marker:none;visibility:visible;display:inline;overflow:visible;enable-background:accumulate"
         d="m 310,119 c -9.4353,0 -17,-7.5647 -17,-17 l 0,-1 c 0,9.4353 7.5647,17 17,17 l 52,0 c 9.4353,0 17,-7.5647 17,-17 l 0,1 c 0,9.4353 -7.5647,17 -17,17 l -52,0 z"
         id="path4298"
         inkscape:connector-curvature="0" /><path
         style="opacity:0.1;color:#bebebe;fill:#ffffff;fill-opacity:1;fill-rule:nonzero;stroke:none;stroke-width:0;marker:none;visibility:visible;display:inline;overflow:visible;enable-background:accumulate"
         d="m 424,82 c -3.3413,0 -6,-2.658703 -6,-6 l 0,-1 c 0,3.341297 2.6587,6 6,6 l 16,0 c 3.3413,0 6,-2.658703 6,-6 l 0,1 c 0,3.341297 -2.6587,6 -6,6 l -16,0 z"
         id="path4300"
         inkscape:connector-curvature="0" /><path
         style="opacity:0.1;color:#bebebe;fill:#ffffff;fill-opacity:1;fill-rule:nonzero;stroke:none;stroke-width:0;marker:none;visibility:visible;display:inline;overflow:visible;enable-background:accumulate"
         d="m 422,122 c -2.2333,0 -4,-1.7667 -4,-4 l 0,-1 c 0,2.2333 1.7667,4 4,4 l 12,0 c 2.2333,0 4,-1.7667 4,-4 l 0,1 c 0,2.2333 -1.7667,4 -4,4 l -12,0 z"
         id="path4302"
         inkscape:connector-curvature="0" /><path
         style="opacity:0.1;color:#bebebe;fill:#ffffff;fill-opacity:1;fill-rule:nonzero;stroke:none;stroke-width:0;marker:none;visibility:visible;display:inline;overflow:visible;enable-background:accumulate"
         d="m 419,154.5 c -1.1253,0 -2,-0.8747 -2,-2 l 0,-1 c 0,1.1253 0.8747,2 2,2 l 10,0 c 1.1253,0 2,-0.8747 2,-2 l 0,1 c 0,1.1253 -0.8747,2 -2,2 l -10,0 z"
         id="path4304"
         inkscape:connector-curvature="0" /></g><g
       inkscape:groupmode="layer"
       id="layer3"
       inkscape:label="Border"
       style="display:inline"
       sodipodi:insensitive="true"><path
         style="opacity:0.41000001;color:#bebebe;fill:#000000;fill-opacity:1;fill-rule:nonzero;stroke:none;stroke-width:0;marker:none;visibility:visible;display:inline;overflow:visible;enable-background:accumulate"
         d="m 422,101 c -2.77,0 -5,2.23 -5,5 l 0,12 c 0,2.77 2.23,5 5,5 l 12,0 c 2.77,0 5,-2.23 5,-5 l 0,-12 c 0,-2.77 -2.23,-5 -5,-5 l -12,0 z m 0,1 12,0 c 2.2333,0 4,1.7667 4,4 l 0,12 c 0,2.2333 -1.7667,4 -4,4 l -12,0 c -2.2333,0 -4,-1.7667 -4,-4 l 0,-12 c 0,-2.2333 1.7667,-4 4,-4 z"
         id="rect4099"
         inkscape:connector-curvature="0" /><path
         style="opacity:0.41000001;color:#bebebe;fill:#000000;fill-opacity:1;fill-rule:nonzero;stroke:none;stroke-width:0;marker:none;visibility:visible;display:inline;overflow:visible;enable-background:accumulate"
         d="m 424,53 c -3.878,0 -7,3.122 -7,7 l 0,16 c 0,3.878 3.122,7 7,7 l 16,0 c 3.878,0 7,-3.122 7,-7 l 0,-16 c 0,-3.878 -3.122,-7 -7,-7 l -16,0 z m 0,1 16,0 c 3.3413,0 6,2.658703 6,6 l 0,16 c 0,3.341297 -2.6587,6 -6,6 l -16,0 c -3.3413,0 -6,-2.658703 -6,-6 l 0,-16 c 0,-3.341297 2.6587,-6 6,-6 z"
         id="rect4151"
         inkscape:connector-curvature="0" /><path
         style="opacity:0.41000001;color:#bebebe;fill:#000000;fill-opacity:1;fill-rule:nonzero;stroke:none;stroke-width:0;marker:none;visibility:visible;display:inline;overflow:visible;enable-background:accumulate"
         d="m 419,140 c -1.662,0 -3,1.338 -3,3 l 0,10 c 0,1.662 1.338,3 3,3 l 10,0 c 1.662,0 3,-1.338 3,-3 l 0,-10 c 0,-1.662 -1.338,-3 -3,-3 l -10,0 z m 0,1 10,0 c 1.1253,0 2,0.8747 2,2 l 0,10 c 0,1.1253 -0.8747,2 -2,2 l -10,0 c -1.1253,0 -2,-0.8747 -2,-2 l 0,-10 c 0,-1.1253 0.8747,-2 2,-2 z"
         id="rect4095"
         inkscape:connector-curvature="0" /><path
         style="opacity:0.41000001;color:#bebebe;fill:#000000;fill-opacity:1;fill-rule:nonzero;stroke:none;stroke-width:0;marker:none;visibility:visible;display:inline;overflow:visible;enable-background:accumulate"
         d="m 300,223 c -4.986,0 -9,4.014 -9,9 l 0,24 c 0,4.986 4.014,9 9,9 l 24,0 c 4.986,0 9,-4.014 9,-9 l 0,-24 c 0,-4.986 -4.014,-9 -9,-9 l -24,0 z m 0,1 24,0 c 4.4493,0 8,3.5507 8,8 l 0,24 c 0,4.4493 -3.5507,8 -8,8 l -24,0 c -4.4493,0 -8,-3.5507 -8,-8 l 0,-24 c 0,-4.4493 3.5507,-8 8,-8 z"
         id="rect4783"
         inkscape:connector-curvature="0" /><path
         style="opacity:0.41000001;color:#bebebe;fill:#000000;fill-opacity:1;fill-rule:nonzero;stroke:none;stroke-width:0;marker:none;visibility:visible;display:inline;overflow:visible;enable-background:accumulate"
         d="m 302.5,142 c -6.925,0 -12.5,5.575 -12.5,12.5 l 0,35 c 0,6.925 5.575,12.5 12.5,12.5 l 35,0 c 6.925,0 12.5,-5.575 12.5,-12.5 l 0,-35 c 0,-6.925 -5.575,-12.5 -12.5,-12.5 l -35,0 z m 0,1 35,0 c 6.3883,0 11.5,5.1117 11.5,11.5 l 0,35 c 0,6.3883 -5.1117,11.5 -11.5,11.5 l -35,0 c -6.3883,0 -11.5,-5.1117 -11.5,-11.5 l 0,-35 c 0,-6.3883 5.1117,-11.5 11.5,-11.5 z"
         id="rect4515"
         inkscape:connector-curvature="0" /><path
         style="opacity:0.41000001;color:#bebebe;fill:#000000;fill-opacity:1;fill-rule:nonzero;stroke:none;stroke-width:0;marker:none;visibility:visible;display:inline;overflow:visible;enable-background:accumulate"
         d="m 310,32 c -9.972,0 -18,8.028 -18,18 l 0,52 c 0,9.972 8.028,18 18,18 l 52,0 c 9.972,0 18,-8.028 18,-18 l 0,-52 c 0,-9.972 -8.028,-18 -18,-18 l -52,0 z m 0,1 52,0 c 9.4353,0 17,7.564703 17,17 l 0,52 c 0,9.4353 -7.5647,17 -17,17 l -52,0 c -9.4353,0 -17,-7.5647 -17,-17 l 0,-52 c 0,-9.435297 7.5647,-17 17,-17 z"
         id="rect4511"
         inkscape:connector-curvature="0" /><path
         style="color:#bebebe;display:inline;overflow:visible;visibility:visible;opacity:0.41;fill:#000000;fill-opacity:1;fill-rule:nonzero;stroke:none;stroke-width:0;marker:none;enable-background:accumulate"
         d="M 84,46 C 56.3,46 34,68.3 34,96 v 120 c 0,27.7 22.3,50 50,50 h 120 c 27.7,0 50,-22.3 50,-50 V 96 C 254,68.3 231.7,46 204,46 Z m 0,1 h 120 c 27.1633,0 49,21.836703 49,49 v 120 c 0,27.1633 -21.8367,49 -49,49 H 84 C 56.836703,265 35,243.1633 35,216 V 96 C 35,68.836703 56.836703,47 84,47 Z"
         id="rect4040"
         inkscape:connector-curvature="0" /></g></g></svg>
