<?xml version="1.0" encoding="UTF-8" standalone="no"?>
<!-- Created with Inkscape (http://www.inkscape.org/) -->

<svg
   inkscape:export-ydpi="90.000000"
   inkscape:export-xdpi="90.000000"
   width="480"
   height="300"
   id="svg11300"
   sodipodi:version="0.32"
   inkscape:version="1.1.2 (0a00cf5339, 2022-02-04)"
   sodipodi:docname="jetbrains-phpstorm.svg"
   inkscape:output_extension="org.inkscape.output.svg.inkscape"
   version="1.0"
   style="display:inline;enable-background:new"
   inkscape:export-filename="/home/sam/moka-next-template.png"
   xmlns:inkscape="http://www.inkscape.org/namespaces/inkscape"
   xmlns:sodipodi="http://sodipodi.sourceforge.net/DTD/sodipodi-0.dtd"
   xmlns:xlink="http://www.w3.org/1999/xlink"
   xmlns="http://www.w3.org/2000/svg"
   xmlns:svg="http://www.w3.org/2000/svg"
   xmlns:rdf="http://www.w3.org/1999/02/22-rdf-syntax-ns#"
   xmlns:cc="http://creativecommons.org/ns#"
   xmlns:dc="http://purl.org/dc/elements/1.1/">
  <sodipodi:namedview
     stroke="#ef2929"
     fill="#f57900"
     id="base"
     pagecolor="#777777"
     bordercolor="#666666"
     borderopacity="0.25490196"
     inkscape:pageopacity="0"
     inkscape:pageshadow="2"
     inkscape:zoom="2.3253608"
     inkscape:cx="291.78268"
     inkscape:cy="138.0431"
     inkscape:current-layer="g4293"
     showgrid="false"
     inkscape:grid-bbox="true"
     inkscape:document-units="px"
     inkscape:showpageshadow="false"
     inkscape:window-width="1536"
     inkscape:window-height="796"
     inkscape:window-x="0"
     inkscape:window-y="0"
     width="400px"
     height="300px"
     inkscape:snap-nodes="true"
     inkscape:snap-bbox="true"
     gridtolerance="10000"
     inkscape:object-nodes="true"
     inkscape:snap-grids="true"
     showguides="true"
     inkscape:guide-bbox="true"
     inkscape:window-maximized="1"
     inkscape:bbox-nodes="true"
     inkscape:bbox-paths="true"
     inkscape:snap-bbox-edge-midpoints="true"
     inkscape:snap-bbox-midpoints="true"
     inkscape:pagecheckerboard="0">
    <inkscape:grid
       spacingy="1"
       spacingx="1"
       id="grid5883"
       type="xygrid"
       enabled="true"
       visible="true"
       empspacing="4"
       snapvisiblegridlinesonly="true"
       dotted="false"
       color="#000000"
       opacity="0.1254902"
       empcolor="#203ef3"
       empopacity="0.36470588"
       originx="0"
       originy="0" />
    <inkscape:grid
       type="xygrid"
       id="grid11592"
       empspacing="8"
       visible="true"
       enabled="false"
       spacingx="0.5"
       spacingy="0.5"
       color="#ff0000"
       opacity="0.1254902"
       empcolor="#ff0000"
       empopacity="0.25098039"
       snapvisiblegridlinesonly="true"
       dotted="true"
       originx="0"
       originy="0" />
  </sodipodi:namedview>
  <defs
     id="defs3">
    <linearGradient
       id="PhpStorm">
      <stop
         style="stop-color:#6b57ff;stop-opacity:1"
         offset="0"
         id="stop1819" />
      <stop
         style="stop-color:#dc3dbf;stop-opacity:1"
         offset="1"
         id="stop1821" />
    </linearGradient>
    <linearGradient
       inkscape:collect="always"
       xlink:href="#PhpStorm"
       id="linearGradient4254"
       x1="35"
       y1="156"
       x2="253"
       y2="156"
       gradientUnits="userSpaceOnUse"
       gradientTransform="matrix(0,-1,1,0,-12,300)" />
    <linearGradient
       inkscape:collect="always"
       xlink:href="#PhpStorm"
       id="linearGradient4256"
       x1="417"
       y1="148"
       x2="431"
       y2="148"
       gradientUnits="userSpaceOnUse"
       gradientTransform="rotate(-90,424,148)" />
    <linearGradient
       inkscape:collect="always"
       xlink:href="#PhpStorm"
       id="linearGradient4260"
       x1="418"
       y1="68"
       x2="446"
       y2="68"
       gradientUnits="userSpaceOnUse"
       gradientTransform="rotate(-90,432,68)" />
    <linearGradient
       inkscape:collect="always"
       xlink:href="#PhpStorm"
       id="linearGradient4262"
       x1="292"
       y1="244"
       x2="332"
       y2="244"
       gradientUnits="userSpaceOnUse"
       gradientTransform="rotate(-90,312,244)" />
    <linearGradient
       inkscape:collect="always"
       xlink:href="#PhpStorm"
       id="linearGradient4264"
       x1="293"
       y1="76"
       x2="379"
       y2="76"
       gradientUnits="userSpaceOnUse"
       gradientTransform="rotate(-90,336,76)" />
    <linearGradient
       inkscape:collect="always"
       xlink:href="#PhpStorm"
       id="linearGradient4266"
       x1="291"
       y1="172"
       x2="349"
       y2="172"
       gradientUnits="userSpaceOnUse"
       gradientTransform="rotate(-90,320,172)" />
    <linearGradient
       inkscape:collect="always"
       xlink:href="#PhpStorm"
       id="linearGradient3870"
       gradientUnits="userSpaceOnUse"
       gradientTransform="rotate(-90,428,112)"
       x1="418"
       y1="112"
       x2="438"
       y2="112" />
    <linearGradient
       id="outerBackgroundGradient-29">
      <stop
         style="stop-color:#41a0f7;stop-opacity:1"
         offset="0"
         id="stop3864-8-6-0" />
      <stop
         style="stop-color:#b04cb3;stop-opacity:1"
         offset="1"
         id="stop3866-9-1-2" />
    </linearGradient>
    <linearGradient
       id="linearGradient1428"
       gradientUnits="userSpaceOnUse"
       x1="74.68"
       x2="58.599998"
       y1="93.589996"
       y2="70.029999"
       gradientTransform="translate(-140.5,127.5)">
      <stop
         offset=".02"
         stop-color="#6b57ff"
         id="stop1042-0" />
      <stop
         offset=".78"
         stop-color="#b74af7"
         id="stop1044-6" />
    </linearGradient>
    <linearGradient
       id="linearGradient1437"
       gradientUnits="userSpaceOnUse"
       x1="89.300003"
       x2="65.459999"
       y1="65.790001"
       y2="9.2299995"
       gradientTransform="translate(-140.5,127.5)">
      <stop
         offset="0"
         stop-color="#293896"
         id="stop1027-2" />
      <stop
         offset=".08"
         stop-color="#3b3aa2"
         id="stop1029-6" />
      <stop
         offset=".29"
         stop-color="#6740c0"
         id="stop1031-1" />
      <stop
         offset=".49"
         stop-color="#8a44d8"
         id="stop1033-8" />
      <stop
         offset=".68"
         stop-color="#a347e9"
         id="stop1035-7" />
      <stop
         offset=".86"
         stop-color="#b249f3"
         id="stop1037-9" />
      <stop
         offset="1"
         stop-color="#b74af7"
         id="stop1039-2" />
    </linearGradient>
    <linearGradient
       id="linearGradient1442"
       gradientUnits="userSpaceOnUse"
       x1="1.5599999"
       x2="35.950001"
       y1="67.230003"
       y2="21.799999"
       gradientTransform="translate(-140.5,127.5)">
      <stop
         offset=".02"
         stop-color="#6b57ff"
         id="stop1020-0" />
      <stop
         offset=".42"
         stop-color="#b74af7"
         id="stop1022-2" />
      <stop
         offset=".75"
         stop-color="#ff318c"
         id="stop1024-3" />
    </linearGradient>
    <linearGradient
       id="linearGradient1448"
       gradientUnits="userSpaceOnUse"
       x1="25.799999"
       x2="33.950001"
       y1="33.599998"
       y2="17.309999"
       gradientTransform="translate(-140.5,127.5)">
      <stop
         offset="0"
         stop-color="#af1df5"
         id="stop1011-7" />
      <stop
         offset=".21"
         stop-color="#bc20e4"
         id="stop1013-5" />
      <stop
         offset=".63"
         stop-color="#dd29b8"
         id="stop1015-9" />
      <stop
         offset="1"
         stop-color="#ff318c"
         id="stop1017-2" />
    </linearGradient>
  </defs>
  <metadata
     id="metadata4">
    <rdf:RDF>
      <cc:Work
         rdf:about="">
        <dc:format>image/svg+xml</dc:format>
        <dc:type
           rdf:resource="http://purl.org/dc/dcmitype/StillImage" />
        <dc:creator>
          <cc:Agent>
            <dc:title>Sam Hewitt</dc:title>
          </cc:Agent>
        </dc:creator>
        <dc:source />
        <cc:license
           rdf:resource="" />
        <dc:title />
        <dc:subject>
          <rdf:Bag />
        </dc:subject>
        <dc:date />
        <dc:rights>
          <cc:Agent>
            <dc:title />
          </cc:Agent>
        </dc:rights>
        <dc:publisher>
          <cc:Agent>
            <dc:title />
          </cc:Agent>
        </dc:publisher>
        <dc:identifier />
        <dc:relation />
        <dc:language />
        <dc:coverage />
        <dc:description />
        <dc:contributor>
          <cc:Agent>
            <dc:title />
          </cc:Agent>
        </dc:contributor>
      </cc:Work>
      <cc:Work
         rdf:about="">
        <dc:format>image/svg+xml</dc:format>
        <dc:type
           rdf:resource="http://purl.org/dc/dcmitype/StillImage" />
      </cc:Work>
    </rdf:RDF>
  </metadata>
  <g
     style="display:inline"
     inkscape:groupmode="layer"
     inkscape:label="Icon"
     id="layer1">
    <g
       style="display:none"
       inkscape:label="Baseplate"
       id="layer7"
       inkscape:groupmode="layer">
      <text
         y="19.745117"
         xml:space="preserve"
         x="15.006836"
         style="font-style:normal;font-variant:normal;font-weight:normal;font-stretch:normal;line-height:0%;font-family:'DejaVu Sans';-inkscape-font-specification:'DejaVu Sans';display:inline;fill:#000000;fill-opacity:1;stroke:none;enable-background:new"
         inkscape:label="context"
         id="context"><tspan
           style="font-style:normal;font-variant:normal;font-weight:normal;font-stretch:normal;font-size:18px;line-height:1.25;font-family:'DejaVu Sans';-inkscape-font-specification:'DejaVu Sans'"
           y="19.745117"
           x="15.006836"
           sodipodi:role="line"
           id="tspan3933">apps</tspan></text>
      <text
         y="19.745117"
         xml:space="preserve"
         x="122.48828"
         style="font-style:normal;font-variant:normal;font-weight:bold;font-stretch:normal;line-height:0%;font-family:'DejaVu Sans';-inkscape-font-specification:'DejaVu Sans Bold';text-align:start;writing-mode:lr-tb;text-anchor:start;display:inline;fill:#000000;fill-opacity:1;stroke:none;enable-background:new"
         inkscape:label="icon-name"
         id="icon-name"><tspan
           style="font-style:normal;font-variant:normal;font-weight:bold;font-stretch:normal;font-size:18px;line-height:1.25;font-family:'DejaVu Sans';-inkscape-font-specification:'DejaVu Sans Bold'"
           y="19.745117"
           x="122.48828"
           sodipodi:role="line"
           id="tspan3937">jetbrains-phpstorm</tspan></text>
      <rect
         style="display:inline;overflow:visible;visibility:visible;fill:#eeeeec;fill-opacity:1;fill-rule:nonzero;stroke:none;stroke-width:2;marker:none;enable-background:accumulate"
         id="rect16x16"
         width="16"
         height="16"
         x="416"
         y="140"
         inkscape:label="16x16" />
      <rect
         style="display:inline;overflow:visible;visibility:visible;fill:#d4d4d4;fill-opacity:1;fill-rule:nonzero;stroke:none;stroke-width:2;marker:none;enable-background:accumulate"
         id="rect24x24"
         width="24"
         height="24"
         x="416"
         y="100"
         inkscape:label="24x24" />
      <rect
         style="display:inline;overflow:visible;visibility:visible;fill:#eeeeec;fill-opacity:1;fill-rule:nonzero;stroke:none;stroke-width:2;marker:none;enable-background:accumulate"
         id="rect32x32"
         width="32"
         height="32"
         x="416"
         y="52"
         inkscape:label="32x32" />
      <rect
         inkscape:label="22x22"
         y="101"
         x="417"
         height="22"
         width="22"
         id="rect22x22"
         style="display:inline;overflow:visible;visibility:visible;fill:#eeeeec;fill-opacity:1;fill-rule:nonzero;stroke:none;stroke-width:2;marker:none;enable-background:accumulate" />
      <rect
         inkscape:label="48x48"
         y="220"
         x="288"
         height="48"
         width="48"
         id="rect48x48"
         style="display:inline;overflow:visible;visibility:visible;fill:#eeeeec;fill-opacity:1;fill-rule:nonzero;stroke:none;stroke-width:2;marker:none;enable-background:accumulate" />
      <rect
         style="display:inline;overflow:visible;visibility:visible;fill:#eeeeec;fill-opacity:1;fill-rule:nonzero;stroke:none;stroke-width:2;marker:none;enable-background:accumulate"
         id="rect256x256"
         width="256"
         height="256"
         x="16"
         y="28"
         inkscape:label="256x256" />
      <rect
         style="display:inline;overflow:visible;visibility:visible;fill:#eeeeec;fill-opacity:1;fill-rule:nonzero;stroke:none;stroke-width:2;marker:none;enable-background:accumulate"
         id="rect64x64"
         width="64"
         height="64"
         x="288"
         y="140"
         inkscape:label="64x64" />
      <rect
         style="display:inline;overflow:visible;visibility:visible;fill:#eeeeec;fill-opacity:1;fill-rule:nonzero;stroke:none;stroke-width:2;marker:none;enable-background:accumulate"
         id="rect96x96"
         width="96"
         height="96"
         x="288"
         y="28"
         inkscape:label="96x96" />
    </g>
    <g
       inkscape:groupmode="layer"
       id="layer4"
       inkscape:label="Shadow"
       style="display:inline"
       sodipodi:insensitive="true">
      <rect
         ry="50"
         y="47"
         x="34"
         height="220"
         width="220"
         id="rect4114"
         style="color:#bebebe;display:inline;overflow:visible;visibility:visible;opacity:0.1;fill:#000000;fill-opacity:1;fill-rule:nonzero;stroke:none;stroke-width:0;marker:none;enable-background:accumulate" />
      <rect
         style="color:#bebebe;display:inline;overflow:visible;visibility:visible;opacity:0.1;fill:#000000;fill-opacity:1;fill-rule:nonzero;stroke:none;stroke-width:0;marker:none;enable-background:accumulate"
         id="rect4120"
         width="30"
         height="30"
         x="417"
         y="54"
         ry="7" />
      <rect
         transform="scale(1,-1)"
         ry="9"
         y="-266"
         x="291"
         height="42"
         width="42"
         id="rect4122"
         style="color:#bebebe;display:inline;overflow:visible;visibility:visible;opacity:0.1;fill:#000000;fill-opacity:1;fill-rule:nonzero;stroke:none;stroke-width:0;marker:none;enable-background:accumulate" />
      <rect
         style="color:#bebebe;display:inline;overflow:visible;visibility:visible;opacity:0.1;fill:#000000;fill-opacity:1;fill-rule:nonzero;stroke:none;stroke-width:0;marker:none;enable-background:accumulate"
         id="rect4124"
         width="88"
         height="88"
         x="292"
         y="33"
         ry="18" />
      <rect
         ry="12.5"
         y="143"
         x="290"
         height="60"
         width="60"
         id="rect4126"
         style="color:#bebebe;display:inline;overflow:visible;visibility:visible;opacity:0.1;fill:#000000;fill-opacity:1;fill-rule:nonzero;stroke:none;stroke-width:0;marker:none;enable-background:accumulate" />
      <path
         id="path4268"
         d="m 422,101 c -2.77,0 -5,2.23 -5,5 v 12 c 0,2.77 2.23,5 5,5 h 12 c 2.77,0 5,-2.23 5,-5 v -12 c 0,-2.77 -2.23,-5 -5,-5 z"
         style="color:#bebebe;display:inline;overflow:visible;visibility:visible;opacity:0.1;fill:#000000;fill-opacity:1;fill-rule:nonzero;stroke:none;stroke-width:0;marker:none;enable-background:accumulate"
         inkscape:connector-curvature="0"
         sodipodi:nodetypes="sssssssss" />
      <path
         id="path4270"
         d="m 419,140 c -1.662,0 -3,1.338 -3,3 v 10 c 0,1.662 1.338,3 3,3 h 10 c 1.662,0 3,-1.338 3,-3 v -10 c 0,-1.662 -1.338,-3 -3,-3 z"
         style="color:#bebebe;display:inline;overflow:visible;visibility:visible;opacity:0.1;fill:#000000;fill-opacity:1;fill-rule:nonzero;stroke:none;stroke-width:0;marker:none;enable-background:accumulate"
         inkscape:connector-curvature="0"
         sodipodi:nodetypes="sssssssss" />
    </g>
    <g
       inkscape:groupmode="layer"
       id="layer2"
       inkscape:label="Background"
       style="display:inline">
      <path
         style="color:#bebebe;display:inline;overflow:visible;visibility:visible;fill:url(#linearGradient4254);fill-opacity:1;fill-rule:nonzero;stroke:none;stroke-width:2;marker:none;enable-background:accumulate"
         d="M 84,46.5 C 56.568735,46.5 34.5,68.568732 34.5,96 v 120 c 0,27.43127 22.068735,49.5 49.5,49.5 h 120 c 27.43127,0 49.5,-22.06873 49.5,-49.5 V 96 C 253.5,68.568732 231.43127,46.5 204,46.5 Z"
         id="path4200" />
      <path
         style="color:#bebebe;display:inline;overflow:visible;visibility:visible;fill:url(#linearGradient4256);fill-opacity:1;fill-rule:nonzero;stroke:none;stroke-width:2;marker:none;enable-background:accumulate"
         d="m 419,140.5 c -1.3844,0 -2.5,1.1156 -2.5,2.5 v 10 c 0,1.3844 1.1156,2.5 2.5,2.5 h 10 c 1.3844,0 2.5,-1.1156 2.5,-2.5 v -10 c 0,-1.3844 -1.1156,-2.5 -2.5,-2.5 z"
         id="path4202" />
      <path
         style="color:#bebebe;display:inline;overflow:visible;visibility:visible;fill:url(#linearGradient3870);fill-opacity:1;fill-rule:nonzero;stroke:none;stroke-width:2;marker:none;enable-background:accumulate"
         d="m 422,101.5 c -2.49699,0 -4.5,2.00301 -4.5,4.5 v 12 c 0,2.49699 2.00301,4.5 4.5,4.5 h 12 c 2.49699,0 4.5,-2.00301 4.5,-4.5 v -12 c 0,-2.49699 -2.00301,-4.5 -4.5,-4.5 z"
         id="path4204" />
      <path
         style="color:#bebebe;display:inline;overflow:visible;visibility:visible;fill:url(#linearGradient4260);fill-opacity:1;fill-rule:nonzero;stroke:none;stroke-width:2;marker:none;enable-background:accumulate"
         d="m 424,53.5 c -3.60654,0 -6.5,2.893464 -6.5,6.5 v 16 c 0,3.606536 2.89346,6.5 6.5,6.5 h 16 c 3.60654,0 6.5,-2.893464 6.5,-6.5 V 60 c 0,-3.606536 -2.89346,-6.5 -6.5,-6.5 z"
         id="path4206" />
      <path
         style="color:#bebebe;display:inline;overflow:visible;visibility:visible;fill:url(#linearGradient4262);fill-opacity:1;fill-rule:nonzero;stroke:none;stroke-width:2;marker:none;enable-background:accumulate"
         d="m 300,223.5 c -4.71531,0 -8.5,3.78469 -8.5,8.5 v 24 c 0,4.71531 3.78469,8.5 8.5,8.5 h 24 c 4.71531,0 8.5,-3.78469 8.5,-8.5 v -24 c 0,-4.71531 -3.78469,-8.5 -8.5,-8.5 z"
         id="path4208" />
      <path
         style="color:#bebebe;display:inline;overflow:visible;visibility:visible;fill:url(#linearGradient4264);fill-opacity:1;fill-rule:nonzero;stroke:none;stroke-width:2;marker:none;enable-background:accumulate"
         d="m 310,32.5 c -9.70255,0 -17.5,7.797452 -17.5,17.5 v 52 c 0,9.70255 7.79745,17.5 17.5,17.5 h 52 c 9.70255,0 17.5,-7.79745 17.5,-17.5 V 50 c 0,-9.702548 -7.79745,-17.5 -17.5,-17.5 z"
         id="path4210" />
      <path
         style="color:#bebebe;display:inline;overflow:visible;visibility:visible;fill:url(#linearGradient4266);fill-opacity:1;fill-rule:nonzero;stroke:none;stroke-width:2;marker:none;enable-background:accumulate"
         d="m 302.5,142.5 c -6.65502,0 -12,5.34498 -12,12 v 35 c 0,6.65502 5.34498,12 12,12 h 35 c 6.65502,0 12,-5.34498 12,-12 v -35 c 0,-6.65502 -5.34498,-12 -12,-12 z"
         id="path4212" />
    </g>
    <g
       inkscape:groupmode="layer"
       id="layer6"
       inkscape:label="Symbols"
       style="display:inline">
      <g
         style="display:inline;enable-background:new"
         transform="translate(288,220)"
         id="g25">
        <path
           inkscape:connector-curvature="0"
           d="M 11,11 H 37 V 37 H 11 Z"
           style="fill:#000000;fill-opacity:1"
           id="path29" />
        <path
           id="path1059-2-7-3"
           d="m 27.406251,14.000939 c -2.176127,0 -3.729337,1.279609 -3.729337,3.210272 v 0.03229 c 0,2.114757 1.383311,2.70972 3.531114,3.25729 1.779609,0.453162 2.147251,0.760511 2.147251,1.355288 v 0.02767 c 0,0.623097 -0.594667,1.00586 -1.538755,1.00586 a 4.8809408,4.8809408 0 0 1 -3.18169,-1.293518 l -1.382944,1.656764 v 0.04239 a 6.7738393,6.7738393 0 0 0 4.517613,1.704705 c 2.298856,0 3.91373,-1.189552 3.91373,-3.304313 v -0.03318 c 0,-1.855134 -1.217949,-2.629065 -3.379914,-3.195519 -1.826812,-0.472047 -2.299373,-0.71751 -2.299373,-1.416136 v -0.03318 c 0,-0.53341 0.472229,-0.944089 1.369115,-0.944089 a 4.9753496,4.9753496 0 0 1 2.770496,1.047349 l 1.217913,-1.76556 A 6.1365795,6.1365795 0 0 0 27.406251,14.00096 Z M 14,14.156754 v 10.607169 h 2.360222 v -3.181689 h 1.756337 c 2.379104,0 4.290813,-1.274702 4.290813,-3.729335 v -0.02857 c 0,-2.166683 -1.534773,-3.667564 -4.064929,-3.667564 z m 2.360222,2.10576 h 1.783998 c 1.161231,0 1.888178,0.560884 1.888178,1.608824 v 0.02857 c 0,0.911047 -0.684432,1.605136 -1.850376,1.605136 h -1.8218 z"
           style="display:inline;fill:#f9f9f9;fill-opacity:1;stroke-width:0.472043;enable-background:new" />
        <path
           inkscape:connector-curvature="0"
           style="opacity:1;fill:#f9f9f9;fill-opacity:1"
           d="m 14,32 h 10 v 2 H 14 Z"
           id="path33" />
      </g>
      <g
         id="g4276"
         transform="matrix(2,0,0,2,288,28)"
         style="display:inline;enable-background:new">
        <path
           id="path4278"
           style="fill:#000000;fill-opacity:1"
           d="M 11,11 H 37 V 37 H 11 Z"
           inkscape:connector-curvature="0" />
        <path
           id="path1059-2-8"
           d="m 27.320045,13.999866 c -2.176342,0 -3.729704,1.279734 -3.729704,3.210588 v 0.03229 c 0,2.114966 1.383447,2.709985 3.531462,3.25761 1.779784,0.453206 2.147462,0.760587 2.147462,1.355421 v 0.02767 c 0,0.623158 -0.594726,1.005958 -1.538907,1.005958 a 4.8814211,4.8814211 0 0 1 -3.182002,-1.293642 l -1.383081,1.656927 v 0.04239 a 6.7745059,6.7745059 0 0 0 4.518057,1.704872 c 2.299083,0 3.914115,-1.189669 3.914115,-3.304637 v -0.03318 c 0,-1.855317 -1.218068,-2.629325 -3.380245,-3.195835 -1.826992,-0.472091 -2.2996,-0.717578 -2.2996,-1.416272 v -0.03318 c 0,-0.533463 0.472276,-0.944183 1.36925,-0.944183 a 4.9758392,4.9758392 0 0 1 2.770768,1.047452 l 1.218033,-1.765733 A 6.1371831,6.1371831 0 0 0 27.320045,13.99988 Z m -13.40757,0.15583 V 24.76391 h 2.360454 v -3.182003 h 1.75651 c 2.379339,0 4.291236,-1.274828 4.291236,-3.729702 v -0.02856 c 0,-2.166898 -1.534925,-3.667925 -4.065329,-3.667925 z m 2.360454,2.105968 h 1.784174 c 1.161345,0 1.888364,0.560938 1.888364,1.608982 v 0.02856 c 0,0.911136 -0.6845,1.605293 -1.850559,1.605293 h -1.821979 z"
           style="display:inline;fill:#f9f9f9;fill-opacity:1;stroke-width:0.47209;enable-background:new" />
        <path
           id="path4283"
           d="m 14,32 h 10 v 2 H 14 Z"
           style="opacity:1;fill:#f9f9f9;fill-opacity:1"
           inkscape:connector-curvature="0" />
      </g>
      <g
         style="display:inline;enable-background:new"
         transform="matrix(0.5,0,0,0.5,416,100)"
         id="g4285">
        <path
           inkscape:connector-curvature="0"
           d="M 10,10 H 38 V 38 H 10 Z"
           style="fill:#000000;fill-opacity:1"
           id="path4287" />
        <path
           id="path1059-2-7-3-6-1"
           d="m 26.311581,13.899073 c -1.998438,0 -3.424822,1.175124 -3.424822,2.948142 v 0.02964 c 0,1.94208 1.270358,2.488462 3.242786,2.991321 1.634296,0.416159 1.971919,0.698413 1.971919,1.244624 v 0.0254 c 0,0.572219 -0.546109,0.923727 -1.413109,0.923727 A 4.4823943,4.4823943 0 0 1 23.766461,20.87403 l -1.270021,1.521483 v 0.03893 a 6.2207308,6.2207308 0 0 0 4.148733,1.56551 c 2.111145,0 3.59416,-1.092421 3.59416,-3.034504 v -0.03046 c 0,-1.703656 -1.1185,-2.414393 -3.103932,-2.934593 -1.677647,-0.433503 -2.11162,-0.658923 -2.11162,-1.300504 v -0.03046 c 0,-0.489855 0.433669,-0.867001 1.257321,-0.867001 a 4.5690942,4.5690942 0 0 1 2.544274,0.961829 l 1.118468,-1.621394 A 5.6355055,5.6355055 0 0 0 26.311581,13.899093 Z M 14,14.042166 v 9.741054 h 2.167502 v -2.921892 h 1.612925 c 2.184842,0 3.940452,-1.170618 3.940452,-3.424822 v -0.02623 c 0,-1.989764 -1.409452,-3.368093 -3.733012,-3.368093 z m 2.167502,1.933816 h 1.638326 c 1.066414,0 1.734002,0.515086 1.734002,1.477458 v 0.02623 c 0,0.836657 -0.628544,1.474071 -1.699285,1.474071 h -1.673043 z"
           style="display:inline;fill:#f9f9f9;fill-opacity:1;stroke-width:0.433498;enable-background:new" />
        <path
           inkscape:connector-curvature="0"
           style="opacity:1;fill:#f9f9f9;fill-opacity:1"
           d="m 14,32 h 10 v 2 H 14 Z"
           id="path4291" />
      </g>
      <g
         id="g4293"
         transform="matrix(0.35714286,0,0,0.35714286,415.42857,139.42857)"
         style="display:inline;enable-background:new">
        <path
           id="path4295"
           style="fill:#000000;fill-opacity:1"
           d="M 10,10 H 38 V 38 H 10 Z"
           inkscape:connector-curvature="0" />
        <path
           id="path1059-2-7-3-6-2"
           d="m 26.187523,14.000841 c -1.9783,0 -3.390311,1.163283 -3.390311,2.918434 v 0.02936 c 0,1.922511 1.257557,2.463387 3.21011,2.961179 1.617828,0.411966 1.952049,0.691374 1.952049,1.232082 v 0.02514 c 0,0.566452 -0.540607,0.91442 -1.398871,0.91442 a 4.4372274,4.4372274 0 0 1 -2.892451,-1.175929 l -1.257224,1.506153 v 0.03854 a 6.1580475,6.1580475 0 0 0 4.106929,1.549736 c 2.089872,0 3.557943,-1.081414 3.557943,-3.003928 v -0.03016 c 0,-1.686488 -1.107229,-2.390063 -3.072655,-2.905021 C 25.3423,17.631721 24.9127,17.40857 24.9127,16.773455 v -0.03016 c 0,-0.48492 0.429299,-0.858265 1.244652,-0.858265 a 4.5230537,4.5230537 0 0 1 2.518636,0.952137 l 1.107197,-1.605056 A 5.5787192,5.5787192 0 0 0 26.187523,14.000872 Z M 14,14.142491 v 9.642899 h 2.145661 v -2.892449 h 1.596672 c 2.162827,0 3.900747,-1.158822 3.900747,-3.390312 v -0.02597 c 0,-1.969715 -1.39525,-3.334154 -3.695397,-3.334154 z m 2.145661,1.914331 h 1.621818 c 1.055668,0 1.716529,0.509895 1.716529,1.462571 v 0.02597 c 0,0.828227 -0.622211,1.459217 -1.682162,1.459217 h -1.656185 z"
           style="display:inline;fill:#f9f9f9;fill-opacity:1;stroke-width:0.42913;enable-background:new" />
        <path
           id="path4299"
           d="m 14,32 h 10 v 2 H 14 Z"
           style="opacity:1;fill:#f9f9f9;fill-opacity:1"
           inkscape:connector-curvature="0" />
      </g>
      <g
         style="display:inline;enable-background:new"
         transform="matrix(0.71428571,0,0,0.71428571,414.85714,50.85714)"
         id="g4301">
        <path
           inkscape:connector-curvature="0"
           d="M 10,10 H 38 V 38 H 10 Z"
           style="fill:#000000;fill-opacity:1"
           id="path4303" />
        <path
           id="path1059-2-7-3-6"
           d="m 26.187509,14.000853 c -1.978298,0 -3.390308,1.163281 -3.390308,2.918431 v 0.02935 c 0,1.922508 1.257556,2.463384 3.210106,2.961175 1.617827,0.411966 1.952047,0.691374 1.952047,1.232081 v 0.02515 c 0,0.566452 -0.540606,0.914418 -1.398869,0.914418 a 4.437222,4.437222 0 0 1 -2.892447,-1.175926 l -1.257223,1.50615 v 0.03854 a 6.15804,6.15804 0 0 0 4.106924,1.549733 c 2.08987,0 3.557939,-1.081412 3.557939,-3.003923 v -0.03016 c 0,-1.686487 -1.107228,-2.390061 -3.072652,-2.905019 -1.660739,-0.429134 -2.09034,-0.652283 -2.09034,-1.287398 v -0.03016 c 0,-0.484919 0.429299,-0.858264 1.244651,-0.858264 a 4.5230482,4.5230482 0 0 1 2.518634,0.952136 l 1.107195,-1.605055 a 5.5787125,5.5787125 0 0 0 -3.595657,-1.23124 z M 14,14.142503 v 9.642887 h 2.145658 v -2.892446 h 1.596671 c 2.162823,0 3.900742,-1.158821 3.900742,-3.390307 v -0.02597 c 0,-1.969713 -1.395249,-3.334151 -3.695393,-3.334151 z m 2.145658,1.914328 h 1.621817 c 1.055666,0 1.716527,0.509895 1.716527,1.462569 v 0.02597 c 0,0.828226 -0.622211,1.459216 -1.682161,1.459216 h -1.656183 z"
           style="display:inline;fill:#f9f9f9;fill-opacity:1;stroke-width:0.42913;enable-background:new" />
        <path
           inkscape:connector-curvature="0"
           style="opacity:1;fill:#f9f9f9;fill-opacity:1"
           d="m 14,32 h 10 v 2 H 14 Z"
           id="path4307" />
      </g>
      <g
         id="g4309"
         transform="matrix(1.4285714,0,0,1.4285714,285.71429,137.71429)"
         style="display:inline;enable-background:new">
        <path
           id="path4311"
           style="fill:#000000;fill-opacity:1"
           d="M 10,10 H 38 V 38 H 10 Z"
           inkscape:connector-curvature="0" />
        <path
           id="path1059-2-7"
           d="m 26.387499,14.000849 c -1.978298,0 -3.390307,1.163281 -3.390307,2.91843 v 0.02935 c 0,1.922507 1.257556,2.463382 3.210105,2.961174 1.617826,0.411965 1.952046,0.691374 1.952046,1.23208 v 0.02516 c 0,0.566452 -0.540607,0.914418 -1.398869,0.914418 a 4.4372192,4.4372192 0 0 1 -2.892445,-1.175926 l -1.257222,1.50615 v 0.03854 a 6.1580363,6.1580363 0 0 0 4.106921,1.549731 c 2.089869,0 3.557936,-1.08141 3.557936,-3.00392 v -0.03016 c 0,-1.686485 -1.107226,-2.390058 -3.072648,-2.905017 -1.660739,-0.429134 -2.09034,-0.652282 -2.09034,-1.287396 v -0.03016 c 0,-0.484918 0.4293,-0.858263 1.24465,-0.858263 a 4.5230455,4.5230455 0 0 1 2.518633,0.952136 l 1.107193,-1.605054 A 5.5787089,5.5787089 0 0 0 26.387499,14.000869 Z M 14.199997,14.1425 v 9.642881 h 2.145657 v -2.892444 h 1.596669 c 2.162823,0 3.900741,-1.158821 3.900741,-3.390305 v -0.02597 c 0,-1.969712 -1.395249,-3.334149 -3.695391,-3.334149 z m 2.145657,1.914327 h 1.621817 c 1.055663,0 1.716525,0.509895 1.716525,1.462567 v 0.02597 c 0,0.828225 -0.622211,1.459214 -1.682161,1.459214 h -1.656181 z"
           style="display:inline;fill:#f9f9f9;fill-opacity:1;stroke-width:0.42913;enable-background:new" />
        <path
           id="path4315"
           d="m 14.199997,31.799998 h 10 v 2 h -10 z"
           style="opacity:1;fill:#f9f9f9;fill-opacity:1"
           inkscape:connector-curvature="0" />
      </g>
      <g
         style="display:inline;enable-background:new"
         transform="matrix(5.1428571,0,0,5.1428571,20.57143,32.57143)"
         id="g4317">
        <path
           inkscape:connector-curvature="0"
           d="M 10,10 H 38 V 38 H 10 Z"
           style="fill:#000000;fill-opacity:1"
           id="path4319" />
        <path
           id="path1059-2"
           d="m 26.884339,13.912298 c -2.04632,0 -3.50688,1.203279 -3.50688,3.018778 v 0.03036 c 0,1.988612 1.300796,2.548084 3.320482,3.062992 1.673454,0.42613 2.019166,0.715146 2.019166,1.274444 v 0.02602 c 0,0.585929 -0.559196,0.94586 -1.446968,0.94586 a 4.5897901,4.5897901 0 0 1 -2.9919,-1.216357 l -1.300451,1.557938 v 0.03986 a 6.3697765,6.3697765 0 0 0 4.248135,1.603018 c 2.161728,0 3.680273,-1.118594 3.680273,-3.107208 v -0.0312 c 0,-1.744474 -1.145297,-2.47224 -3.178299,-3.004905 -1.717842,-0.443887 -2.162214,-0.674708 -2.162214,-1.33166 v -0.0312 c 0,-0.501592 0.44406,-0.887774 1.287446,-0.887774 a 4.6785674,4.6785674 0 0 1 2.605234,0.984874 l 1.145264,-1.660243 a 5.7705291,5.7705291 0 0 0 -3.719288,-1.273581 z m -12.606561,0.14652 v 9.974447 h 2.219434 v -2.9919 h 1.65157 c 2.23719,0 4.034865,-1.198666 4.034865,-3.506878 v -0.02686 c 0,-2.03744 -1.443224,-3.448792 -3.822455,-3.448792 z m 2.219434,1.980151 h 1.677582 c 1.091962,0 1.775547,0.527426 1.775547,1.512857 v 0.02686 c 0,0.856702 -0.643606,1.509388 -1.740001,1.509388 h -1.713128 z"
           style="display:inline;fill:#f9f9f9;fill-opacity:1;stroke-width:0.443886;enable-background:new" />
        <path
           inkscape:connector-curvature="0"
           style="opacity:1;fill:#f9f9f9;fill-opacity:1"
           d="m 14.277778,31.777778 h 9.916666 v 1.944444 h -9.916666 z"
           id="path4323"
           sodipodi:nodetypes="ccccc" />
      </g>
    </g>
    <g
       inkscape:groupmode="layer"
       id="layer5"
       inkscape:label="Highlights"
       style="display:inline"
       sodipodi:insensitive="true">
      <path
         style="color:#bebebe;display:inline;overflow:visible;visibility:visible;opacity:0.13;fill:#ffffff;fill-opacity:1;fill-rule:nonzero;stroke:none;stroke-width:0;marker:none;enable-background:accumulate"
         d="M 84,47 C 56.836703,47 35,68.836703 35,96 v 1 C 35,69.836703 56.836703,48 84,48 h 120 c 27.1633,0 49,21.836703 49,49 V 96 C 253,68.836703 231.1633,47 204,47 Z"
         id="rect3894"
         inkscape:connector-curvature="0" />
      <path
         style="color:#bebebe;display:inline;overflow:visible;visibility:visible;opacity:0.13;fill:#ffffff;fill-opacity:1;fill-rule:nonzero;stroke:none;stroke-width:0;marker:none;enable-background:accumulate"
         d="m 419,141 c -1.1253,0 -2,0.8747 -2,2 v 1 c 0,-1.1253 0.8747,-2 2,-2 h 10 c 1.1253,0 2,0.8747 2,2 v -1 c 0,-1.1253 -0.8747,-2 -2,-2 z"
         id="rect3896"
         inkscape:connector-curvature="0" />
      <path
         style="color:#bebebe;display:inline;overflow:visible;visibility:visible;opacity:0.13;fill:#ffffff;fill-opacity:1;fill-rule:nonzero;stroke:none;stroke-width:0;marker:none;enable-background:accumulate"
         d="m 422,102 c -2.2333,0 -4,1.7667 -4,4 v 1 c 0,-2.2333 1.7667,-4 4,-4 h 12 c 2.2333,0 4,1.7667 4,4 v -1 c 0,-2.2333 -1.7667,-4 -4,-4 z"
         id="rect3898"
         inkscape:connector-curvature="0" />
      <path
         style="color:#bebebe;display:inline;overflow:visible;visibility:visible;opacity:0.13;fill:#ffffff;fill-opacity:1;fill-rule:nonzero;stroke:none;stroke-width:0;marker:none;enable-background:accumulate"
         d="m 424,54 c -3.3413,0 -6,2.658703 -6,6 v 1 c 0,-3.341297 2.6587,-6 6,-6 h 16 c 3.3413,0 6,2.658703 6,6 v -1 c 0,-3.341297 -2.6587,-6 -6,-6 z"
         id="rect3900"
         inkscape:connector-curvature="0" />
      <path
         style="color:#bebebe;display:inline;overflow:visible;visibility:visible;opacity:0.13;fill:#ffffff;fill-opacity:1;fill-rule:nonzero;stroke:none;stroke-width:0;marker:none;enable-background:accumulate"
         d="m 300,224 c -4.4493,0 -8,3.5507 -8,8 v 1 c 0,-4.4493 3.5507,-8 8,-8 h 24 c 4.4493,0 8,3.5507 8,8 v -1 c 0,-4.4493 -3.5507,-8 -8,-8 z"
         id="rect3902"
         inkscape:connector-curvature="0" />
      <path
         style="color:#bebebe;display:inline;overflow:visible;visibility:visible;opacity:0.13;fill:#ffffff;fill-opacity:1;fill-rule:nonzero;stroke:none;stroke-width:0;marker:none;enable-background:accumulate"
         d="m 310,33 c -9.4353,0 -17,7.564703 -17,17 v 1 c 0,-9.435297 7.5647,-17 17,-17 h 52 c 9.4353,0 17,7.564703 17,17 v -1 c 0,-9.435297 -7.5647,-17 -17,-17 z"
         id="rect3904"
         inkscape:connector-curvature="0" />
      <path
         style="color:#bebebe;display:inline;overflow:visible;visibility:visible;opacity:0.13;fill:#ffffff;fill-opacity:1;fill-rule:nonzero;stroke:none;stroke-width:0;marker:none;enable-background:accumulate"
         d="m 302.5,143 c -6.3883,0 -11.5,5.1117 -11.5,11.5 v 1 c 0,-6.3883 5.1117,-11.5 11.5,-11.5 h 35 c 6.3883,0 11.5,5.1117 11.5,11.5 v -1 c 0,-6.3883 -5.1117,-11.5 -11.5,-11.5 z"
         id="rect3906"
         inkscape:connector-curvature="0" />
      <path
         id="path4085"
         d="m 204,266 c 27.1633,0 49,-21.8367 49,-49 v -1 c 0,27.1633 -21.8367,49 -49,49 H 84 C 56.8367,265 35,243.1633 35,216 v 1 c 0,27.1633 21.8367,49 49,49 z"
         style="color:#bebebe;display:inline;overflow:visible;visibility:visible;opacity:0.41;fill:#000000;fill-opacity:1;fill-rule:nonzero;stroke:none;stroke-width:0;marker:none;enable-background:accumulate"
         inkscape:connector-curvature="0" />
      <path
         id="path4087"
         d="m 429,156 c 1.1253,0 2,-0.8747 2,-2 v -1 c 0,1.1253 -0.8747,2 -2,2 h -10 c -1.1253,0 -2,-0.8747 -2,-2 v 1 c 0,1.1253 0.8747,2 2,2 z"
         style="color:#bebebe;display:inline;overflow:visible;visibility:visible;opacity:0.3;fill:#000000;fill-opacity:1;fill-rule:nonzero;stroke:none;stroke-width:0;marker:none;enable-background:accumulate"
         inkscape:connector-curvature="0" />
      <path
         id="path4089"
         d="m 434,123 c 2.2333,0 4,-1.7667 4,-4 v -1 c 0,2.2333 -1.7667,4 -4,4 h -12 c -2.2333,0 -4,-1.7667 -4,-4 v 1 c 0,2.2333 1.7667,4 4,4 z"
         style="color:#bebebe;display:inline;overflow:visible;visibility:visible;opacity:0.3;fill:#000000;fill-opacity:1;fill-rule:nonzero;stroke:none;stroke-width:0;marker:none;enable-background:accumulate"
         inkscape:connector-curvature="0" />
      <path
         id="path4091"
         d="m 440,83 c 3.3413,0 6,-2.6587 6,-6 v -1 c 0,3.3413 -2.6587,6 -6,6 h -16 c -3.3413,0 -6,-2.6587 -6,-6 v 1 c 0,3.3413 2.6587,6 6,6 z"
         style="color:#bebebe;display:inline;overflow:visible;visibility:visible;opacity:0.41;fill:#000000;fill-opacity:1;fill-rule:nonzero;stroke:none;stroke-width:0;marker:none;enable-background:accumulate"
         inkscape:connector-curvature="0" />
      <path
         id="path4093"
         d="m 324,265 c 4.4493,0 8,-3.5507 8,-8 v -1 c 0,4.4493 -3.5507,8 -8,8 h -24 c -4.4493,0 -8,-3.5507 -8,-8 v 1 c 0,4.4493 3.5507,8 8,8 z"
         style="color:#bebebe;display:inline;overflow:visible;visibility:visible;opacity:0.41;fill:#000000;fill-opacity:1;fill-rule:nonzero;stroke:none;stroke-width:0;marker:none;enable-background:accumulate"
         inkscape:connector-curvature="0" />
      <path
         id="path4095"
         d="m 362,120 c 9.4353,0 17,-7.5647 17,-17 v -1 c 0,9.4353 -7.5647,17 -17,17 h -52 c -9.4353,0 -17,-7.5647 -17,-17 v 1 c 0,9.4353 7.5647,17 17,17 z"
         style="color:#bebebe;display:inline;overflow:visible;visibility:visible;opacity:0.41;fill:#000000;fill-opacity:1;fill-rule:nonzero;stroke:none;stroke-width:0;marker:none;enable-background:accumulate"
         inkscape:connector-curvature="0" />
      <path
         id="path4097"
         d="m 337.5,202 c 6.3883,0 11.5,-5.1117 11.5,-11.5 v -1 c 0,6.3883 -5.1117,11.5 -11.5,11.5 h -35 c -6.3883,0 -11.5,-5.1117 -11.5,-11.5 v 1 c 0,6.3883 5.1117,11.5 11.5,11.5 z"
         style="color:#bebebe;display:inline;overflow:visible;visibility:visible;opacity:0.41;fill:#000000;fill-opacity:1;fill-rule:nonzero;stroke:none;stroke-width:0;marker:none;enable-background:accumulate"
         inkscape:connector-curvature="0" />
      <path
         inkscape:connector-curvature="0"
         id="path4280"
         d="M 84,265 C 56.836703,265 35,243.1633 35,216 v -1 c 0,27.1633 21.836703,49 49,49 h 120 c 27.1633,0 49,-21.8367 49,-49 v 1 c 0,27.1633 -21.8367,49 -49,49 z"
         style="color:#bebebe;display:inline;overflow:visible;visibility:visible;opacity:0.1;fill:#ffffff;fill-opacity:1;fill-rule:nonzero;stroke:none;stroke-width:0;marker:none;enable-background:accumulate" />
      <path
         style="color:#bebebe;display:inline;overflow:visible;visibility:visible;opacity:0.1;fill:#ffffff;fill-opacity:1;fill-rule:nonzero;stroke:none;stroke-width:0;marker:none;enable-background:accumulate"
         d="m 300,264 c -4.4493,0 -8,-3.5507 -8,-8 v -1 c 0,4.4493 3.5507,8 8,8 h 24 c 4.4493,0 8,-3.5507 8,-8 v 1 c 0,4.4493 -3.5507,8 -8,8 z"
         id="path4294"
         inkscape:connector-curvature="0" />
      <path
         style="color:#bebebe;display:inline;overflow:visible;visibility:visible;opacity:0.1;fill:#ffffff;fill-opacity:1;fill-rule:nonzero;stroke:none;stroke-width:0;marker:none;enable-background:accumulate"
         d="m 302.5,201 c -6.3883,0 -11.5,-5.1117 -11.5,-11.5 v -1 c 0,6.3883 5.1117,11.5 11.5,11.5 h 35 c 6.3883,0 11.5,-5.1117 11.5,-11.5 v 1 c 0,6.3883 -5.1117,11.5 -11.5,11.5 z"
         id="path4296"
         inkscape:connector-curvature="0" />
      <path
         style="color:#bebebe;display:inline;overflow:visible;visibility:visible;opacity:0.1;fill:#ffffff;fill-opacity:1;fill-rule:nonzero;stroke:none;stroke-width:0;marker:none;enable-background:accumulate"
         d="m 310,119 c -9.4353,0 -17,-7.5647 -17,-17 v -1 c 0,9.4353 7.5647,17 17,17 h 52 c 9.4353,0 17,-7.5647 17,-17 v 1 c 0,9.4353 -7.5647,17 -17,17 z"
         id="path4298"
         inkscape:connector-curvature="0" />
      <path
         style="color:#bebebe;display:inline;overflow:visible;visibility:visible;opacity:0.1;fill:#ffffff;fill-opacity:1;fill-rule:nonzero;stroke:none;stroke-width:0;marker:none;enable-background:accumulate"
         d="m 424,82 c -3.3413,0 -6,-2.658703 -6,-6 v -1 c 0,3.341297 2.6587,6 6,6 h 16 c 3.3413,0 6,-2.658703 6,-6 v 1 c 0,3.341297 -2.6587,6 -6,6 z"
         id="path4300"
         inkscape:connector-curvature="0" />
      <path
         style="color:#bebebe;display:inline;overflow:visible;visibility:visible;opacity:0.1;fill:#ffffff;fill-opacity:1;fill-rule:nonzero;stroke:none;stroke-width:0;marker:none;enable-background:accumulate"
         d="m 422,122 c -2.2333,0 -4,-1.7667 -4,-4 v -1 c 0,2.2333 1.7667,4 4,4 h 12 c 2.2333,0 4,-1.7667 4,-4 v 1 c 0,2.2333 -1.7667,4 -4,4 z"
         id="path4302"
         inkscape:connector-curvature="0" />
      <path
         style="color:#bebebe;display:inline;overflow:visible;visibility:visible;opacity:0.1;fill:#ffffff;fill-opacity:1;fill-rule:nonzero;stroke:none;stroke-width:0;marker:none;enable-background:accumulate"
         d="m 419,154.5 c -1.1253,0 -2,-0.8747 -2,-2 v -1 c 0,1.1253 0.8747,2 2,2 h 10 c 1.1253,0 2,-0.8747 2,-2 v 1 c 0,1.1253 -0.8747,2 -2,2 z"
         id="path4304"
         inkscape:connector-curvature="0" />
    </g>
    <g
       inkscape:groupmode="layer"
       id="layer3"
       inkscape:label="Border"
       style="display:inline"
       sodipodi:insensitive="true">
      <path
         style="color:#bebebe;display:inline;overflow:visible;visibility:visible;opacity:0.41;fill:#000000;fill-opacity:1;fill-rule:nonzero;stroke:none;stroke-width:0;marker:none;enable-background:accumulate"
         d="m 422,101 c -2.77,0 -5,2.23 -5,5 v 12 c 0,2.77 2.23,5 5,5 h 12 c 2.77,0 5,-2.23 5,-5 v -12 c 0,-2.77 -2.23,-5 -5,-5 z m 0,1 h 12 c 2.2333,0 4,1.7667 4,4 v 12 c 0,2.2333 -1.7667,4 -4,4 h -12 c -2.2333,0 -4,-1.7667 -4,-4 v -12 c 0,-2.2333 1.7667,-4 4,-4 z"
         id="rect4099"
         inkscape:connector-curvature="0" />
      <path
         style="color:#bebebe;display:inline;overflow:visible;visibility:visible;opacity:0.41;fill:#000000;fill-opacity:1;fill-rule:nonzero;stroke:none;stroke-width:0;marker:none;enable-background:accumulate"
         d="m 424,53 c -3.878,0 -7,3.122 -7,7 v 16 c 0,3.878 3.122,7 7,7 h 16 c 3.878,0 7,-3.122 7,-7 V 60 c 0,-3.878 -3.122,-7 -7,-7 z m 0,1 h 16 c 3.3413,0 6,2.658703 6,6 v 16 c 0,3.341297 -2.6587,6 -6,6 h -16 c -3.3413,0 -6,-2.658703 -6,-6 V 60 c 0,-3.341297 2.6587,-6 6,-6 z"
         id="rect4151"
         inkscape:connector-curvature="0" />
      <path
         style="color:#bebebe;display:inline;overflow:visible;visibility:visible;opacity:0.41;fill:#000000;fill-opacity:1;fill-rule:nonzero;stroke:none;stroke-width:0;marker:none;enable-background:accumulate"
         d="m 419,140 c -1.662,0 -3,1.338 -3,3 v 10 c 0,1.662 1.338,3 3,3 h 10 c 1.662,0 3,-1.338 3,-3 v -10 c 0,-1.662 -1.338,-3 -3,-3 z m 0,1 h 10 c 1.1253,0 2,0.8747 2,2 v 10 c 0,1.1253 -0.8747,2 -2,2 h -10 c -1.1253,0 -2,-0.8747 -2,-2 v -10 c 0,-1.1253 0.8747,-2 2,-2 z"
         id="rect4095"
         inkscape:connector-curvature="0" />
      <path
         style="color:#bebebe;display:inline;overflow:visible;visibility:visible;opacity:0.41;fill:#000000;fill-opacity:1;fill-rule:nonzero;stroke:none;stroke-width:0;marker:none;enable-background:accumulate"
         d="m 300,223 c -4.986,0 -9,4.014 -9,9 v 24 c 0,4.986 4.014,9 9,9 h 24 c 4.986,0 9,-4.014 9,-9 v -24 c 0,-4.986 -4.014,-9 -9,-9 z m 0,1 h 24 c 4.4493,0 8,3.5507 8,8 v 24 c 0,4.4493 -3.5507,8 -8,8 h -24 c -4.4493,0 -8,-3.5507 -8,-8 v -24 c 0,-4.4493 3.5507,-8 8,-8 z"
         id="rect4783"
         inkscape:connector-curvature="0" />
      <path
         style="color:#bebebe;display:inline;overflow:visible;visibility:visible;opacity:0.41;fill:#000000;fill-opacity:1;fill-rule:nonzero;stroke:none;stroke-width:0;marker:none;enable-background:accumulate"
         d="m 302.5,142 c -6.925,0 -12.5,5.575 -12.5,12.5 v 35 c 0,6.925 5.575,12.5 12.5,12.5 h 35 c 6.925,0 12.5,-5.575 12.5,-12.5 v -35 c 0,-6.925 -5.575,-12.5 -12.5,-12.5 z m 0,1 h 35 c 6.3883,0 11.5,5.1117 11.5,11.5 v 35 c 0,6.3883 -5.1117,11.5 -11.5,11.5 h -35 c -6.3883,0 -11.5,-5.1117 -11.5,-11.5 v -35 c 0,-6.3883 5.1117,-11.5 11.5,-11.5 z"
         id="rect4515"
         inkscape:connector-curvature="0" />
      <path
         style="color:#bebebe;display:inline;overflow:visible;visibility:visible;opacity:0.41;fill:#000000;fill-opacity:1;fill-rule:nonzero;stroke:none;stroke-width:0;marker:none;enable-background:accumulate"
         d="m 310,32 c -9.972,0 -18,8.028 -18,18 v 52 c 0,9.972 8.028,18 18,18 h 52 c 9.972,0 18,-8.028 18,-18 V 50 c 0,-9.972 -8.028,-18 -18,-18 z m 0,1 h 52 c 9.4353,0 17,7.564703 17,17 v 52 c 0,9.4353 -7.5647,17 -17,17 h -52 c -9.4353,0 -17,-7.5647 -17,-17 V 50 c 0,-9.435297 7.5647,-17 17,-17 z"
         id="rect4511"
         inkscape:connector-curvature="0" />
      <path
         style="color:#bebebe;display:inline;overflow:visible;visibility:visible;opacity:0.41;fill:#000000;fill-opacity:1;fill-rule:nonzero;stroke:none;stroke-width:0;marker:none;enable-background:accumulate"
         d="M 84,46 C 56.3,46 34,68.3 34,96 v 120 c 0,27.7 22.3,50 50,50 h 120 c 27.7,0 50,-22.3 50,-50 V 96 C 254,68.3 231.7,46 204,46 Z m 0,1 h 120 c 27.1633,0 49,21.836703 49,49 v 120 c 0,27.1633 -21.8367,49 -49,49 H 84 C 56.836703,265 35,243.1633 35,216 V 96 C 35,68.836703 56.836703,47 84,47 Z"
         id="rect4040"
         inkscape:connector-curvature="0" />
    </g>
    <linearGradient
       id="a"
       gradientUnits="userSpaceOnUse"
       x1="25.799999"
       x2="33.950001"
       y1="33.599998"
       y2="17.309999"
       gradientTransform="translate(-237.5,87.5)">
      <stop
         offset="0"
         stop-color="#af1df5"
         id="stop1011" />
      <stop
         offset=".21"
         stop-color="#bc20e4"
         id="stop1013" />
      <stop
         offset=".63"
         stop-color="#dd29b8"
         id="stop1015" />
      <stop
         offset="1"
         stop-color="#ff318c"
         id="stop1017" />
    </linearGradient>
    <linearGradient
       id="b"
       gradientUnits="userSpaceOnUse"
       x1="1.5599999"
       x2="35.950001"
       y1="67.230003"
       y2="21.799999"
       gradientTransform="translate(-237.5,87.5)">
      <stop
         offset=".02"
         stop-color="#6b57ff"
         id="stop1020" />
      <stop
         offset=".42"
         stop-color="#b74af7"
         id="stop1022" />
      <stop
         offset=".75"
         stop-color="#ff318c"
         id="stop1024" />
    </linearGradient>
    <linearGradient
       id="c"
       gradientUnits="userSpaceOnUse"
       x1="89.300003"
       x2="65.459999"
       y1="65.790001"
       y2="9.2299995"
       gradientTransform="translate(-237.5,87.5)">
      <stop
         offset="0"
         stop-color="#293896"
         id="stop1027" />
      <stop
         offset=".08"
         stop-color="#3b3aa2"
         id="stop1029" />
      <stop
         offset=".29"
         stop-color="#6740c0"
         id="stop1031" />
      <stop
         offset=".49"
         stop-color="#8a44d8"
         id="stop1033" />
      <stop
         offset=".68"
         stop-color="#a347e9"
         id="stop1035" />
      <stop
         offset=".86"
         stop-color="#b249f3"
         id="stop1037" />
      <stop
         offset="1"
         stop-color="#b74af7"
         id="stop1039" />
    </linearGradient>
    <linearGradient
       id="d"
       gradientUnits="userSpaceOnUse"
       x1="74.68"
       x2="58.599998"
       y1="93.589996"
       y2="70.029999"
       gradientTransform="translate(-237.5,87.5)">
      <stop
         offset=".02"
         stop-color="#6b57ff"
         id="stop1042" />
      <stop
         offset=".78"
         stop-color="#b74af7"
         id="stop1044" />
    </linearGradient>
  </g>
</svg>
