<?xml version="1.0" encoding="UTF-8" standalone="no"?>
<svg
   xmlns:serif="http://www.serif.com/"
   xmlns:dc="http://purl.org/dc/elements/1.1/"
   xmlns:cc="http://creativecommons.org/ns#"
   xmlns:rdf="http://www.w3.org/1999/02/22-rdf-syntax-ns#"
   xmlns:svg="http://www.w3.org/2000/svg"
   xmlns="http://www.w3.org/2000/svg"
   xmlns:sodipodi="http://sodipodi.sourceforge.net/DTD/sodipodi-0.dtd"
   xmlns:inkscape="http://www.inkscape.org/namespaces/inkscape"
   width="100%"
   height="100%"
   viewBox="0 0 480 300"
   version="1.1"
   xml:space="preserve"
   style="fill-rule:evenodd;clip-rule:evenodd;stroke-linejoin:round;stroke-miterlimit:2;"
   id="svg386"
   sodipodi:docname="joplin-desktop.svg"
   inkscape:version="1.0.2 (e86c8708, 2021-01-15)"><metadata
   id="metadata390"><rdf:RDF><cc:Work
       rdf:about=""><dc:format>image/svg+xml</dc:format><dc:type
         rdf:resource="http://purl.org/dc/dcmitype/StillImage" /></cc:Work></rdf:RDF></metadata><sodipodi:namedview
   pagecolor="#ffffff"
   bordercolor="#666666"
   borderopacity="1"
   objecttolerance="10"
   gridtolerance="10"
   guidetolerance="10"
   inkscape:pageopacity="0"
   inkscape:pageshadow="2"
   inkscape:window-width="1024"
   inkscape:window-height="640"
   id="namedview388"
   showgrid="false"
   inkscape:zoom="1.1833333"
   inkscape:cx="250.14085"
   inkscape:cy="121.95016"
   inkscape:window-x="0"
   inkscape:window-y="0"
   inkscape:window-maximized="0"
   inkscape:current-layer="svg386" />
    <g
   id="Icon">
        <g
   style="display:none"
   id="Baseplate">
            <g
   transform="translate(15.0068,19.7451)"
   id="g235">
                <g
   id="context">
                    <text
   x="0"
   y="0"
   style="font-weight:500;font-size:18px;font-family:LucidaGrande, 'Lucida Grande', sans-serif"
   id="text232">apps</text>
                </g>
            </g>
            <g
   transform="translate(122.488,19.7451)"
   id="g240">
                <g
   id="icon-name">
                    <text
   x="0"
   y="0"
   style="font-weight:600;font-size:18px;font-family:LucidaGrande-Bold, 'Lucida Grande', sans-serif"
   id="text237">joplin-desktop</text>
                </g>
            </g>
            <rect
   id="_16x16"
   serif:id="16x16"
   x="416"
   y="140"
   width="16"
   height="16"
   style="fill:#eeeeec" />
            <rect
   id="_24x24"
   serif:id="24x24"
   x="416"
   y="100"
   width="24"
   height="24"
   style="fill:#d4d4d4" />
            <rect
   id="_32x32"
   serif:id="32x32"
   x="416"
   y="52"
   width="32"
   height="32"
   style="fill:#eeeeec" />
            <rect
   id="_22x22"
   serif:id="22x22"
   x="417"
   y="101"
   width="22"
   height="22"
   style="fill:#eeeeec" />
            <rect
   id="_48x48"
   serif:id="48x48"
   x="288"
   y="220"
   width="48"
   height="48"
   style="fill:#eeeeec" />
            <rect
   id="_256x256"
   serif:id="256x256"
   x="16"
   y="28"
   width="256"
   height="256"
   style="fill:#eeeeec" />
            <rect
   id="_64x64"
   serif:id="64x64"
   x="288"
   y="140"
   width="64"
   height="64"
   style="fill:#eeeeec" />
            <rect
   id="_96x96"
   serif:id="96x96"
   x="288"
   y="28"
   width="96"
   height="96"
   style="fill:#eeeeec" />
        </g>
        <g
   id="Shadow">
            <path
   id="rect4114"
   d="M 254,97.5 C 254,84.107 248.679,71.262 239.209,61.791 229.738,52.321 216.893,47 203.5,47 H 84.5 C 71.107,47 58.262,52.321 48.791,61.791 39.321,71.262 34,84.107 34,97.5 v 119 c 0,13.393 5.321,26.238 14.791,35.709 C 58.262,261.679 71.107,267 84.5,267 h 119 c 13.393,0 26.238,-5.321 35.709,-14.791 C 248.679,242.738 254,229.893 254,216.5 Z"
   style="fill-opacity:0.1" />
            <path
   id="rect4120"
   d="m 447,61.5 c 0,-4.142 -3.358,-7.5 -7.5,-7.5 h -15 c -4.142,0 -7.5,3.358 -7.5,7.5 v 15 c 0,4.142 3.358,7.5 7.5,7.5 h 15 c 4.142,0 7.5,-3.358 7.5,-7.5 z"
   style="fill-opacity:0.1" />
            <g
   id="rect4122"
   transform="scale(1,-1)">
                <path
   d="m 333,-256.5 c 0,-5.247 -4.253,-9.5 -9.5,-9.5 h -23 c -5.247,0 -9.5,4.253 -9.5,9.5 v 23 c 0,5.247 4.253,9.5 9.5,9.5 h 23 c 5.247,0 9.5,-4.253 9.5,-9.5 z"
   style="fill-opacity:0.1"
   id="path253" />
            </g>
            <path
   id="rect4124"
   d="M 380,51.5 C 380,41.283 371.717,33 361.5,33 h -51 C 300.283,33 292,41.283 292,51.5 v 51 c 0,10.217 8.283,18.5 18.5,18.5 h 50.7 c 4.986,0 9.768,-1.981 13.294,-5.506 3.525,-3.526 5.506,-8.308 5.506,-13.294 z"
   style="fill-opacity:0.1" />
            <path
   id="rect4126"
   d="m 350,156 c 0,-3.448 -1.37,-6.754 -3.808,-9.192 C 343.754,144.37 340.448,143 337,143 h -34 c -3.448,0 -6.754,1.37 -9.192,3.808 C 291.37,149.246 290,152.552 290,156 v 34 c 0,3.448 1.37,6.754 3.808,9.192 2.438,2.438 5.744,3.808 9.192,3.808 h 34 c 3.448,0 6.754,-1.37 9.192,-3.808 C 348.63,196.754 350,193.448 350,190 Z"
   style="fill-opacity:0.1" />
            <g
   id="path4268"
   transform="translate(0,1)">
                <path
   d="m 422,101 c -2.77,0 -5,2.23 -5,5 v 12 c 0,2.77 2.23,5 5,5 h 12 c 2.77,0 5,-2.23 5,-5 v -12 c 0,-2.77 -2.23,-5 -5,-5 z"
   style="fill-opacity:0.1;fill-rule:nonzero"
   id="path258" />
            </g>
            <g
   id="path4270"
   transform="translate(0,1)">
                <path
   d="m 419,140 c -1.662,0 -3,1.338 -3,3 v 10 c 0,1.662 1.338,3 3,3 h 10 c 1.662,0 3,-1.338 3,-3 v -10 c 0,-1.662 -1.338,-3 -3,-3 z"
   style="fill-opacity:0.1;fill-rule:nonzero"
   id="path261" />
            </g>
        </g>
        <g
   id="Background">
            <path
   id="path4200"
   d="M 84,46.5 C 56.569,46.5 34.5,68.569 34.5,96 v 120 c 0,27.431 22.069,49.5 49.5,49.5 h 120 c 27.431,0 49.5,-22.069 49.5,-49.5 V 96 C 253.5,68.569 231.431,46.5 204,46.5 Z"
   style="fill:url(#_Linear1);fill-rule:nonzero" />
            <path
   id="path4202"
   d="m 419,140.5 c -1.384,0 -2.5,1.116 -2.5,2.5 v 10 c 0,1.384 1.116,2.5 2.5,2.5 h 10 c 1.384,0 2.5,-1.116 2.5,-2.5 v -10 c 0,-1.384 -1.116,-2.5 -2.5,-2.5 z"
   style="fill:url(#_Linear2);fill-rule:nonzero" />
            <path
   id="path4204"
   d="m 422,101.5 c -2.497,0 -4.5,2.003 -4.5,4.5 v 12 c 0,2.497 2.003,4.5 4.5,4.5 h 12 c 2.497,0 4.5,-2.003 4.5,-4.5 v -12 c 0,-2.497 -2.003,-4.5 -4.5,-4.5 z"
   style="fill:url(#_Linear3);fill-rule:nonzero" />
            <path
   id="path4206"
   d="m 424,53.5 c -3.607,0 -6.5,2.893 -6.5,6.5 v 16 c 0,3.607 2.893,6.5 6.5,6.5 h 16 c 3.607,0 6.5,-2.893 6.5,-6.5 V 60 c 0,-3.607 -2.893,-6.5 -6.5,-6.5 z"
   style="fill:url(#_Linear4);fill-rule:nonzero" />
            <path
   id="path4208"
   d="m 300,223.5 c -4.715,0 -8.5,3.785 -8.5,8.5 v 24 c 0,4.715 3.785,8.5 8.5,8.5 h 24 c 4.715,0 8.5,-3.785 8.5,-8.5 v -24 c 0,-4.715 -3.785,-8.5 -8.5,-8.5 z"
   style="fill:url(#_Linear5);fill-rule:nonzero" />
            <g
   id="path4210">
                <path
   d="m 310,32.5 c -9.703,0 -17.5,7.797 -17.5,17.5 v 52 c 0,9.703 7.797,17.5 17.5,17.5 h 52 c 9.703,0 17.5,-7.797 17.5,-17.5 V 50 c 0,-9.703 -7.797,-17.5 -17.5,-17.5 z"
   style="fill:url(#_Linear6);fill-rule:nonzero"
   id="path270" />
            </g>
            <path
   id="path4212"
   d="m 302.5,142.5 c -6.655,0 -12,5.345 -12,12 v 35 c 0,6.655 5.345,12 12,12 h 35 c 6.655,0 12,-5.345 12,-12 v -35 c 0,-6.655 -5.345,-12 -12,-12 z"
   style="fill:url(#_Linear7);fill-rule:nonzero" />
        </g>
        <g
   id="Symbols">
            <g
   id="Glyph"
   transform="matrix(0.0728982,0,0,0.0728982,282.676,135.677)">
                <path
   d="M 737.565,210.195 H 513.637 c -2.115,0 -3.827,1.719 -3.827,3.826 v 71.109 c 0,2.393 1.934,4.334 4.334,4.334 h 30.702 c 12.415,0 22.485,9.555 23.563,21.685 v 336.45 h -0.008 c 0.079,2.71 -0.032,5.38 -0.293,8.002 -0.032,0.381 -0.079,0.761 -0.127,1.141 -0.182,1.537 -0.372,3.058 -0.674,4.556 -0.158,0.848 -0.396,1.68 -0.594,2.512 -0.277,1.117 -0.499,2.25 -0.84,3.343 -2.028,6.481 -5.229,12.495 -9.658,17.779 -0.158,0.19 -0.364,0.365 -0.523,0.555 -1.347,1.561 -2.765,3.082 -4.333,4.516 -1.585,1.442 -3.265,2.781 -5.024,4.025 -12.526,8.874 -29.394,12.772 -48.227,10.973 -24.022,-2.258 -47.855,-13.152 -67.116,-30.678 -19.26,-17.525 -31.232,-39.211 -33.712,-61.062 -2.234,-19.546 3.629,-36.755 16.48,-48.449 0.032,-0.024 0.063,-0.048 0.087,-0.079 0.499,-0.444 1.046,-0.832 1.561,-1.268 9.199,-7.701 21.186,-12.376 34.877,-13.659 0.15,-0.016 0.301,-0.04 0.444,-0.056 1.442,-0.127 2.907,-0.182 4.389,-0.238 0.776,-0.023 1.537,-0.079 2.329,-0.087 0.254,0 0.507,-0.031 0.769,-0.031 0.467,0 0.951,0.063 1.418,0.071 2.155,0.032 4.326,0.119 6.544,0.309 0.278,0.024 0.547,0.016 0.832,0.04 0.206,0.023 0.404,0.063 0.61,0.087 12.558,1.259 24.982,5.007 36.779,10.688 0.246,0.008 0.531,0.079 0.887,0.277 3.597,1.989 4.287,-0.142 4.39,-1.553 V 452.281 c 0,-3.066 -2.132,-5.775 -5.127,-6.433 -63.526,-13.984 -125.856,0.571 -169.845,40.613 -38.418,34.949 -57.006,85.386 -50.984,138.367 5.372,47.19 29.592,92.533 68.217,127.679 37.642,34.244 85.568,55.659 135.008,60.318 6.805,0.626 13.651,0.951 20.33,0.951 47.221,0 91.027,-16.187 123.369,-45.605 30.63,-27.889 48.98,-66.189 51.674,-107.848 l 0.245,-273.256 h 0.024 V 314.01 h 0.016 v -1.276 c 0.277,-12.899 10.791,-23.27 23.753,-23.27 h 30.702 c 2.392,0 4.333,-1.941 4.333,-4.334 v -71.109 c 0,-2.107 -1.711,-3.826 -3.826,-3.826"
   style="fill-opacity:0.2"
   id="path275" />
            </g>
            <g
   id="Glyph1"
   serif:id="Glyph"
   transform="matrix(0.0728982,0,0,0.0728982,282.676,134.677)">
                <path
   d="M 737.565,210.195 H 513.637 c -2.115,0 -3.827,1.719 -3.827,3.826 v 71.109 c 0,2.393 1.934,4.334 4.334,4.334 h 30.702 c 12.415,0 22.485,9.555 23.563,21.685 v 336.45 h -0.008 c 0.079,2.71 -0.032,5.38 -0.293,8.002 -0.032,0.381 -0.079,0.761 -0.127,1.141 -0.182,1.537 -0.372,3.058 -0.674,4.556 -0.158,0.848 -0.396,1.68 -0.594,2.512 -0.277,1.117 -0.499,2.25 -0.84,3.343 -2.028,6.481 -5.229,12.495 -9.658,17.779 -0.158,0.19 -0.364,0.365 -0.523,0.555 -1.347,1.561 -2.765,3.082 -4.333,4.516 -1.585,1.442 -3.265,2.781 -5.024,4.025 -12.526,8.874 -29.394,12.772 -48.227,10.973 -24.022,-2.258 -47.855,-13.152 -67.116,-30.678 -19.26,-17.525 -31.232,-39.211 -33.712,-61.062 -2.234,-19.546 3.629,-36.755 16.48,-48.449 0.032,-0.024 0.063,-0.048 0.087,-0.079 0.499,-0.444 1.046,-0.832 1.561,-1.268 9.199,-7.701 21.186,-12.376 34.877,-13.659 0.15,-0.016 0.301,-0.04 0.444,-0.056 1.442,-0.127 2.907,-0.182 4.389,-0.238 0.776,-0.023 1.537,-0.079 2.329,-0.087 0.254,0 0.507,-0.031 0.769,-0.031 0.467,0 0.951,0.063 1.418,0.071 2.155,0.032 4.326,0.119 6.544,0.309 0.278,0.024 0.547,0.016 0.832,0.04 0.206,0.023 0.404,0.063 0.61,0.087 12.558,1.259 24.982,5.007 36.779,10.688 0.246,0.008 0.531,0.079 0.887,0.277 3.597,1.989 4.287,-0.142 4.39,-1.553 V 452.281 c 0,-3.066 -2.132,-5.775 -5.127,-6.433 -63.526,-13.984 -125.856,0.571 -169.845,40.613 -38.418,34.949 -57.006,85.386 -50.984,138.367 5.372,47.19 29.592,92.533 68.217,127.679 37.642,34.244 85.568,55.659 135.008,60.318 6.805,0.626 13.651,0.951 20.33,0.951 47.221,0 91.027,-16.187 123.369,-45.605 30.63,-27.889 48.98,-66.189 51.674,-107.848 l 0.245,-273.256 h 0.024 V 314.01 h 0.016 v -1.276 c 0.277,-12.899 10.791,-23.27 23.753,-23.27 h 30.702 c 2.392,0 4.333,-1.941 4.333,-4.334 v -71.109 c 0,-2.107 -1.711,-3.826 -3.826,-3.826"
   style="fill:#ffffff"
   id="path278" />
            </g>
            <g
   id="Glyph2"
   serif:id="Glyph"
   transform="matrix(0.0463898,0,0,0.0463898,288.248,221.249)">
                <path
   d="M 737.565,210.195 H 513.637 c -2.115,0 -3.827,1.719 -3.827,3.826 v 71.109 c 0,2.393 1.934,4.334 4.334,4.334 h 30.702 c 12.415,0 22.485,9.555 23.563,21.685 v 336.45 h -0.008 c 0.079,2.71 -0.032,5.38 -0.293,8.002 -0.032,0.381 -0.079,0.761 -0.127,1.141 -0.182,1.537 -0.372,3.058 -0.674,4.556 -0.158,0.848 -0.396,1.68 -0.594,2.512 -0.277,1.117 -0.499,2.25 -0.84,3.343 -2.028,6.481 -5.229,12.495 -9.658,17.779 -0.158,0.19 -0.364,0.365 -0.523,0.555 -1.347,1.561 -2.765,3.082 -4.333,4.516 -1.585,1.442 -3.265,2.781 -5.024,4.025 -12.526,8.874 -29.394,12.772 -48.227,10.973 -24.022,-2.258 -47.855,-13.152 -67.116,-30.678 -19.26,-17.525 -31.232,-39.211 -33.712,-61.062 -2.234,-19.546 3.629,-36.755 16.48,-48.449 0.032,-0.024 0.063,-0.048 0.087,-0.079 0.499,-0.444 1.046,-0.832 1.561,-1.268 9.199,-7.701 21.186,-12.376 34.877,-13.659 0.15,-0.016 0.301,-0.04 0.444,-0.056 1.442,-0.127 2.907,-0.182 4.389,-0.238 0.776,-0.023 1.537,-0.079 2.329,-0.087 0.254,0 0.507,-0.031 0.769,-0.031 0.467,0 0.951,0.063 1.418,0.071 2.155,0.032 4.326,0.119 6.544,0.309 0.278,0.024 0.547,0.016 0.832,0.04 0.206,0.023 0.404,0.063 0.61,0.087 12.558,1.259 24.982,5.007 36.779,10.688 0.246,0.008 0.531,0.079 0.887,0.277 3.597,1.989 4.287,-0.142 4.39,-1.553 V 452.281 c 0,-3.066 -2.132,-5.775 -5.127,-6.433 -63.526,-13.984 -125.856,0.571 -169.845,40.613 -38.418,34.949 -57.006,85.386 -50.984,138.367 5.372,47.19 29.592,92.533 68.217,127.679 37.642,34.244 85.568,55.659 135.008,60.318 6.805,0.626 13.651,0.951 20.33,0.951 47.221,0 91.027,-16.187 123.369,-45.605 30.63,-27.889 48.98,-66.189 51.674,-107.848 l 0.245,-273.256 h 0.024 V 314.01 h 0.016 v -1.276 c 0.277,-12.899 10.791,-23.27 23.753,-23.27 h 30.702 c 2.392,0 4.333,-1.941 4.333,-4.334 v -71.109 c 0,-2.107 -1.711,-3.826 -3.826,-3.826"
   style="fill-opacity:0.2"
   id="path281" />
            </g>
            <g
   id="Glyph3"
   serif:id="Glyph"
   transform="matrix(0.0463898,0,0,0.0463898,288.248,220.249)">
                <path
   d="M 737.565,210.195 H 513.637 c -2.115,0 -3.827,1.719 -3.827,3.826 v 71.109 c 0,2.393 1.934,4.334 4.334,4.334 h 30.702 c 12.415,0 22.485,9.555 23.563,21.685 v 336.45 h -0.008 c 0.079,2.71 -0.032,5.38 -0.293,8.002 -0.032,0.381 -0.079,0.761 -0.127,1.141 -0.182,1.537 -0.372,3.058 -0.674,4.556 -0.158,0.848 -0.396,1.68 -0.594,2.512 -0.277,1.117 -0.499,2.25 -0.84,3.343 -2.028,6.481 -5.229,12.495 -9.658,17.779 -0.158,0.19 -0.364,0.365 -0.523,0.555 -1.347,1.561 -2.765,3.082 -4.333,4.516 -1.585,1.442 -3.265,2.781 -5.024,4.025 -12.526,8.874 -29.394,12.772 -48.227,10.973 -24.022,-2.258 -47.855,-13.152 -67.116,-30.678 -19.26,-17.525 -31.232,-39.211 -33.712,-61.062 -2.234,-19.546 3.629,-36.755 16.48,-48.449 0.032,-0.024 0.063,-0.048 0.087,-0.079 0.499,-0.444 1.046,-0.832 1.561,-1.268 9.199,-7.701 21.186,-12.376 34.877,-13.659 0.15,-0.016 0.301,-0.04 0.444,-0.056 1.442,-0.127 2.907,-0.182 4.389,-0.238 0.776,-0.023 1.537,-0.079 2.329,-0.087 0.254,0 0.507,-0.031 0.769,-0.031 0.467,0 0.951,0.063 1.418,0.071 2.155,0.032 4.326,0.119 6.544,0.309 0.278,0.024 0.547,0.016 0.832,0.04 0.206,0.023 0.404,0.063 0.61,0.087 12.558,1.259 24.982,5.007 36.779,10.688 0.246,0.008 0.531,0.079 0.887,0.277 3.597,1.989 4.287,-0.142 4.39,-1.553 V 452.281 c 0,-3.066 -2.132,-5.775 -5.127,-6.433 -63.526,-13.984 -125.856,0.571 -169.845,40.613 -38.418,34.949 -57.006,85.386 -50.984,138.367 5.372,47.19 29.592,92.533 68.217,127.679 37.642,34.244 85.568,55.659 135.008,60.318 6.805,0.626 13.651,0.951 20.33,0.951 47.221,0 91.027,-16.187 123.369,-45.605 30.63,-27.889 48.98,-66.189 51.674,-107.848 l 0.245,-273.256 h 0.024 V 314.01 h 0.016 v -1.276 c 0.277,-12.899 10.791,-23.27 23.753,-23.27 h 30.702 c 2.392,0 4.333,-1.941 4.333,-4.334 v -71.109 c 0,-2.107 -1.711,-3.826 -3.826,-3.826"
   style="fill:#ffffff"
   id="path284" />
            </g>
            <g
   id="Glyph4"
   serif:id="Glyph"
   transform="matrix(0.0331356,0,0,0.0331356,415.035,52.0351)">
                <path
   d="M 737.565,210.195 H 513.637 c -2.115,0 -3.827,1.719 -3.827,3.826 v 71.109 c 0,2.393 1.934,4.334 4.334,4.334 h 30.702 c 12.415,0 22.485,9.555 23.563,21.685 v 336.45 h -0.008 c 0.079,2.71 -0.032,5.38 -0.293,8.002 -0.032,0.381 -0.079,0.761 -0.127,1.141 -0.182,1.537 -0.372,3.058 -0.674,4.556 -0.158,0.848 -0.396,1.68 -0.594,2.512 -0.277,1.117 -0.499,2.25 -0.84,3.343 -2.028,6.481 -5.229,12.495 -9.658,17.779 -0.158,0.19 -0.364,0.365 -0.523,0.555 -1.347,1.561 -2.765,3.082 -4.333,4.516 -1.585,1.442 -3.265,2.781 -5.024,4.025 -12.526,8.874 -29.394,12.772 -48.227,10.973 -24.022,-2.258 -47.855,-13.152 -67.116,-30.678 -19.26,-17.525 -31.232,-39.211 -33.712,-61.062 -2.234,-19.546 3.629,-36.755 16.48,-48.449 0.032,-0.024 0.063,-0.048 0.087,-0.079 0.499,-0.444 1.046,-0.832 1.561,-1.268 9.199,-7.701 21.186,-12.376 34.877,-13.659 0.15,-0.016 0.301,-0.04 0.444,-0.056 1.442,-0.127 2.907,-0.182 4.389,-0.238 0.776,-0.023 1.537,-0.079 2.329,-0.087 0.254,0 0.507,-0.031 0.769,-0.031 0.467,0 0.951,0.063 1.418,0.071 2.155,0.032 4.326,0.119 6.544,0.309 0.278,0.024 0.547,0.016 0.832,0.04 0.206,0.023 0.404,0.063 0.61,0.087 12.558,1.259 24.982,5.007 36.779,10.688 0.246,0.008 0.531,0.079 0.887,0.277 3.597,1.989 4.287,-0.142 4.39,-1.553 V 452.281 c 0,-3.066 -2.132,-5.775 -5.127,-6.433 -63.526,-13.984 -125.856,0.571 -169.845,40.613 -38.418,34.949 -57.006,85.386 -50.984,138.367 5.372,47.19 29.592,92.533 68.217,127.679 37.642,34.244 85.568,55.659 135.008,60.318 6.805,0.626 13.651,0.951 20.33,0.951 47.221,0 91.027,-16.187 123.369,-45.605 30.63,-27.889 48.98,-66.189 51.674,-107.848 l 0.245,-273.256 h 0.024 V 314.01 h 0.016 v -1.276 c 0.277,-12.899 10.791,-23.27 23.753,-23.27 h 30.702 c 2.392,0 4.333,-1.941 4.333,-4.334 v -71.109 c 0,-2.107 -1.711,-3.826 -3.826,-3.826"
   style="fill-opacity:0.2"
   id="path287" />
            </g>
            <g
   id="Glyph5"
   serif:id="Glyph"
   transform="matrix(0.0331356,0,0,0.0331356,415.035,51.0351)">
                <path
   d="M 737.565,210.195 H 513.637 c -2.115,0 -3.827,1.719 -3.827,3.826 v 71.109 c 0,2.393 1.934,4.334 4.334,4.334 h 30.702 c 12.415,0 22.485,9.555 23.563,21.685 v 336.45 h -0.008 c 0.079,2.71 -0.032,5.38 -0.293,8.002 -0.032,0.381 -0.079,0.761 -0.127,1.141 -0.182,1.537 -0.372,3.058 -0.674,4.556 -0.158,0.848 -0.396,1.68 -0.594,2.512 -0.277,1.117 -0.499,2.25 -0.84,3.343 -2.028,6.481 -5.229,12.495 -9.658,17.779 -0.158,0.19 -0.364,0.365 -0.523,0.555 -1.347,1.561 -2.765,3.082 -4.333,4.516 -1.585,1.442 -3.265,2.781 -5.024,4.025 -12.526,8.874 -29.394,12.772 -48.227,10.973 -24.022,-2.258 -47.855,-13.152 -67.116,-30.678 -19.26,-17.525 -31.232,-39.211 -33.712,-61.062 -2.234,-19.546 3.629,-36.755 16.48,-48.449 0.032,-0.024 0.063,-0.048 0.087,-0.079 0.499,-0.444 1.046,-0.832 1.561,-1.268 9.199,-7.701 21.186,-12.376 34.877,-13.659 0.15,-0.016 0.301,-0.04 0.444,-0.056 1.442,-0.127 2.907,-0.182 4.389,-0.238 0.776,-0.023 1.537,-0.079 2.329,-0.087 0.254,0 0.507,-0.031 0.769,-0.031 0.467,0 0.951,0.063 1.418,0.071 2.155,0.032 4.326,0.119 6.544,0.309 0.278,0.024 0.547,0.016 0.832,0.04 0.206,0.023 0.404,0.063 0.61,0.087 12.558,1.259 24.982,5.007 36.779,10.688 0.246,0.008 0.531,0.079 0.887,0.277 3.597,1.989 4.287,-0.142 4.39,-1.553 V 452.281 c 0,-3.066 -2.132,-5.775 -5.127,-6.433 -63.526,-13.984 -125.856,0.571 -169.845,40.613 -38.418,34.949 -57.006,85.386 -50.984,138.367 5.372,47.19 29.592,92.533 68.217,127.679 37.642,34.244 85.568,55.659 135.008,60.318 6.805,0.626 13.651,0.951 20.33,0.951 47.221,0 91.027,-16.187 123.369,-45.605 30.63,-27.889 48.98,-66.189 51.674,-107.848 l 0.245,-273.256 h 0.024 V 314.01 h 0.016 v -1.276 c 0.277,-12.899 10.791,-23.27 23.753,-23.27 h 30.702 c 2.392,0 4.333,-1.941 4.333,-4.334 v -71.109 c 0,-2.107 -1.711,-3.826 -3.826,-3.826"
   style="fill:#ffffff"
   id="path290" />
            </g>
            <g
   id="Glyph6"
   serif:id="Glyph"
   transform="matrix(0.0231949,0,0,0.0231949,416.124,101.125)">
                <path
   d="M 737.565,210.195 H 513.637 c -2.115,0 -3.827,1.719 -3.827,3.826 v 71.109 c 0,2.393 1.934,4.334 4.334,4.334 h 30.702 c 12.415,0 22.485,9.555 23.563,21.685 v 336.45 h -0.008 c 0.079,2.71 -0.032,5.38 -0.293,8.002 -0.032,0.381 -0.079,0.761 -0.127,1.141 -0.182,1.537 -0.372,3.058 -0.674,4.556 -0.158,0.848 -0.396,1.68 -0.594,2.512 -0.277,1.117 -0.499,2.25 -0.84,3.343 -2.028,6.481 -5.229,12.495 -9.658,17.779 -0.158,0.19 -0.364,0.365 -0.523,0.555 -1.347,1.561 -2.765,3.082 -4.333,4.516 -1.585,1.442 -3.265,2.781 -5.024,4.025 -12.526,8.874 -29.394,12.772 -48.227,10.973 -24.022,-2.258 -47.855,-13.152 -67.116,-30.678 -19.26,-17.525 -31.232,-39.211 -33.712,-61.062 -2.234,-19.546 3.629,-36.755 16.48,-48.449 0.032,-0.024 0.063,-0.048 0.087,-0.079 0.499,-0.444 1.046,-0.832 1.561,-1.268 9.199,-7.701 21.186,-12.376 34.877,-13.659 0.15,-0.016 0.301,-0.04 0.444,-0.056 1.442,-0.127 2.907,-0.182 4.389,-0.238 0.776,-0.023 1.537,-0.079 2.329,-0.087 0.254,0 0.507,-0.031 0.769,-0.031 0.467,0 0.951,0.063 1.418,0.071 2.155,0.032 4.326,0.119 6.544,0.309 0.278,0.024 0.547,0.016 0.832,0.04 0.206,0.023 0.404,0.063 0.61,0.087 12.558,1.259 24.982,5.007 36.779,10.688 0.246,0.008 0.531,0.079 0.887,0.277 3.597,1.989 4.287,-0.142 4.39,-1.553 V 452.281 c 0,-3.066 -2.132,-5.775 -5.127,-6.433 -63.526,-13.984 -125.856,0.571 -169.845,40.613 -38.418,34.949 -57.006,85.386 -50.984,138.367 5.372,47.19 29.592,92.533 68.217,127.679 37.642,34.244 85.568,55.659 135.008,60.318 6.805,0.626 13.651,0.951 20.33,0.951 47.221,0 91.027,-16.187 123.369,-45.605 30.63,-27.889 48.98,-66.189 51.674,-107.848 l 0.245,-273.256 h 0.024 V 314.01 h 0.016 v -1.276 c 0.277,-12.899 10.791,-23.27 23.753,-23.27 h 30.702 c 2.392,0 4.333,-1.941 4.333,-4.334 v -71.109 c 0,-2.107 -1.711,-3.826 -3.826,-3.826"
   style="fill-opacity:0.2"
   id="path293" />
            </g>
            <g
   id="Glyph7"
   serif:id="Glyph"
   transform="matrix(0.0231949,0,0,0.0231949,416.124,100.125)">
                <path
   d="M 737.565,210.195 H 513.637 c -2.115,0 -3.827,1.719 -3.827,3.826 v 71.109 c 0,2.393 1.934,4.334 4.334,4.334 h 30.702 c 12.415,0 22.485,9.555 23.563,21.685 v 336.45 h -0.008 c 0.079,2.71 -0.032,5.38 -0.293,8.002 -0.032,0.381 -0.079,0.761 -0.127,1.141 -0.182,1.537 -0.372,3.058 -0.674,4.556 -0.158,0.848 -0.396,1.68 -0.594,2.512 -0.277,1.117 -0.499,2.25 -0.84,3.343 -2.028,6.481 -5.229,12.495 -9.658,17.779 -0.158,0.19 -0.364,0.365 -0.523,0.555 -1.347,1.561 -2.765,3.082 -4.333,4.516 -1.585,1.442 -3.265,2.781 -5.024,4.025 -12.526,8.874 -29.394,12.772 -48.227,10.973 -24.022,-2.258 -47.855,-13.152 -67.116,-30.678 -19.26,-17.525 -31.232,-39.211 -33.712,-61.062 -2.234,-19.546 3.629,-36.755 16.48,-48.449 0.032,-0.024 0.063,-0.048 0.087,-0.079 0.499,-0.444 1.046,-0.832 1.561,-1.268 9.199,-7.701 21.186,-12.376 34.877,-13.659 0.15,-0.016 0.301,-0.04 0.444,-0.056 1.442,-0.127 2.907,-0.182 4.389,-0.238 0.776,-0.023 1.537,-0.079 2.329,-0.087 0.254,0 0.507,-0.031 0.769,-0.031 0.467,0 0.951,0.063 1.418,0.071 2.155,0.032 4.326,0.119 6.544,0.309 0.278,0.024 0.547,0.016 0.832,0.04 0.206,0.023 0.404,0.063 0.61,0.087 12.558,1.259 24.982,5.007 36.779,10.688 0.246,0.008 0.531,0.079 0.887,0.277 3.597,1.989 4.287,-0.142 4.39,-1.553 V 452.281 c 0,-3.066 -2.132,-5.775 -5.127,-6.433 -63.526,-13.984 -125.856,0.571 -169.845,40.613 -38.418,34.949 -57.006,85.386 -50.984,138.367 5.372,47.19 29.592,92.533 68.217,127.679 37.642,34.244 85.568,55.659 135.008,60.318 6.805,0.626 13.651,0.951 20.33,0.951 47.221,0 91.027,-16.187 123.369,-45.605 30.63,-27.889 48.98,-66.189 51.674,-107.848 l 0.245,-273.256 h 0.024 V 314.01 h 0.016 v -1.276 c 0.277,-12.899 10.791,-23.27 23.753,-23.27 h 30.702 c 2.392,0 4.333,-1.941 4.333,-4.334 v -71.109 c 0,-2.107 -1.711,-3.826 -3.826,-3.826"
   style="fill:#ffffff"
   id="path296" />
            </g>
            <g
   id="Glyph8"
   serif:id="Glyph"
   transform="matrix(0.0165678,0,0,0.0165678,415.517,140.518)">
                <path
   d="M 737.565,210.195 H 513.637 c -2.115,0 -3.827,1.719 -3.827,3.826 v 71.109 c 0,2.393 1.934,4.334 4.334,4.334 h 30.702 c 12.415,0 22.485,9.555 23.563,21.685 v 336.45 h -0.008 c 0.079,2.71 -0.032,5.38 -0.293,8.002 -0.032,0.381 -0.079,0.761 -0.127,1.141 -0.182,1.537 -0.372,3.058 -0.674,4.556 -0.158,0.848 -0.396,1.68 -0.594,2.512 -0.277,1.117 -0.499,2.25 -0.84,3.343 -2.028,6.481 -5.229,12.495 -9.658,17.779 -0.158,0.19 -0.364,0.365 -0.523,0.555 -1.347,1.561 -2.765,3.082 -4.333,4.516 -1.585,1.442 -3.265,2.781 -5.024,4.025 -12.526,8.874 -29.394,12.772 -48.227,10.973 -24.022,-2.258 -47.855,-13.152 -67.116,-30.678 -19.26,-17.525 -31.232,-39.211 -33.712,-61.062 -2.234,-19.546 3.629,-36.755 16.48,-48.449 0.032,-0.024 0.063,-0.048 0.087,-0.079 0.499,-0.444 1.046,-0.832 1.561,-1.268 9.199,-7.701 21.186,-12.376 34.877,-13.659 0.15,-0.016 0.301,-0.04 0.444,-0.056 1.442,-0.127 2.907,-0.182 4.389,-0.238 0.776,-0.023 1.537,-0.079 2.329,-0.087 0.254,0 0.507,-0.031 0.769,-0.031 0.467,0 0.951,0.063 1.418,0.071 2.155,0.032 4.326,0.119 6.544,0.309 0.278,0.024 0.547,0.016 0.832,0.04 0.206,0.023 0.404,0.063 0.61,0.087 12.558,1.259 24.982,5.007 36.779,10.688 0.246,0.008 0.531,0.079 0.887,0.277 3.597,1.989 4.287,-0.142 4.39,-1.553 V 452.281 c 0,-3.066 -2.132,-5.775 -5.127,-6.433 -63.526,-13.984 -125.856,0.571 -169.845,40.613 -38.418,34.949 -57.006,85.386 -50.984,138.367 5.372,47.19 29.592,92.533 68.217,127.679 37.642,34.244 85.568,55.659 135.008,60.318 6.805,0.626 13.651,0.951 20.33,0.951 47.221,0 91.027,-16.187 123.369,-45.605 30.63,-27.889 48.98,-66.189 51.674,-107.848 l 0.245,-273.256 h 0.024 V 314.01 h 0.016 v -1.276 c 0.277,-12.899 10.791,-23.27 23.753,-23.27 h 30.702 c 2.392,0 4.333,-1.941 4.333,-4.334 v -71.109 c 0,-2.107 -1.711,-3.826 -3.826,-3.826"
   style="fill-opacity:0.2"
   id="path299" />
            </g>
            <g
   id="Glyph9"
   serif:id="Glyph"
   transform="matrix(0.0165678,0,0,0.0165678,415.517,139.518)">
                <path
   d="M 737.565,210.195 H 513.637 c -2.115,0 -3.827,1.719 -3.827,3.826 v 71.109 c 0,2.393 1.934,4.334 4.334,4.334 h 30.702 c 12.415,0 22.485,9.555 23.563,21.685 v 336.45 h -0.008 c 0.079,2.71 -0.032,5.38 -0.293,8.002 -0.032,0.381 -0.079,0.761 -0.127,1.141 -0.182,1.537 -0.372,3.058 -0.674,4.556 -0.158,0.848 -0.396,1.68 -0.594,2.512 -0.277,1.117 -0.499,2.25 -0.84,3.343 -2.028,6.481 -5.229,12.495 -9.658,17.779 -0.158,0.19 -0.364,0.365 -0.523,0.555 -1.347,1.561 -2.765,3.082 -4.333,4.516 -1.585,1.442 -3.265,2.781 -5.024,4.025 -12.526,8.874 -29.394,12.772 -48.227,10.973 -24.022,-2.258 -47.855,-13.152 -67.116,-30.678 -19.26,-17.525 -31.232,-39.211 -33.712,-61.062 -2.234,-19.546 3.629,-36.755 16.48,-48.449 0.032,-0.024 0.063,-0.048 0.087,-0.079 0.499,-0.444 1.046,-0.832 1.561,-1.268 9.199,-7.701 21.186,-12.376 34.877,-13.659 0.15,-0.016 0.301,-0.04 0.444,-0.056 1.442,-0.127 2.907,-0.182 4.389,-0.238 0.776,-0.023 1.537,-0.079 2.329,-0.087 0.254,0 0.507,-0.031 0.769,-0.031 0.467,0 0.951,0.063 1.418,0.071 2.155,0.032 4.326,0.119 6.544,0.309 0.278,0.024 0.547,0.016 0.832,0.04 0.206,0.023 0.404,0.063 0.61,0.087 12.558,1.259 24.982,5.007 36.779,10.688 0.246,0.008 0.531,0.079 0.887,0.277 3.597,1.989 4.287,-0.142 4.39,-1.553 V 452.281 c 0,-3.066 -2.132,-5.775 -5.127,-6.433 -63.526,-13.984 -125.856,0.571 -169.845,40.613 -38.418,34.949 -57.006,85.386 -50.984,138.367 5.372,47.19 29.592,92.533 68.217,127.679 37.642,34.244 85.568,55.659 135.008,60.318 6.805,0.626 13.651,0.951 20.33,0.951 47.221,0 91.027,-16.187 123.369,-45.605 30.63,-27.889 48.98,-66.189 51.674,-107.848 l 0.245,-273.256 h 0.024 V 314.01 h 0.016 v -1.276 c 0.277,-12.899 10.791,-23.27 23.753,-23.27 h 30.702 c 2.392,0 4.333,-1.941 4.333,-4.334 v -71.109 c 0,-2.107 -1.711,-3.826 -3.826,-3.826"
   style="fill:#ffffff"
   id="path302" />
            </g>
            <g
   id="Glyph10"
   serif:id="Glyph"
   transform="matrix(0.0960931,0,0,0.0960931,286.8,27.8018)">
                <path
   d="M 737.565,210.195 H 513.637 c -2.115,0 -3.827,1.719 -3.827,3.826 v 71.109 c 0,2.393 1.934,4.334 4.334,4.334 h 30.702 c 12.415,0 22.485,9.555 23.563,21.685 v 336.45 h -0.008 c 0.079,2.71 -0.032,5.38 -0.293,8.002 -0.032,0.381 -0.079,0.761 -0.127,1.141 -0.182,1.537 -0.372,3.058 -0.674,4.556 -0.158,0.848 -0.396,1.68 -0.594,2.512 -0.277,1.117 -0.499,2.25 -0.84,3.343 -2.028,6.481 -5.229,12.495 -9.658,17.779 -0.158,0.19 -0.364,0.365 -0.523,0.555 -1.347,1.561 -2.765,3.082 -4.333,4.516 -1.585,1.442 -3.265,2.781 -5.024,4.025 -12.526,8.874 -29.394,12.772 -48.227,10.973 -24.022,-2.258 -47.855,-13.152 -67.116,-30.678 -19.26,-17.525 -31.232,-39.211 -33.712,-61.062 -2.234,-19.546 3.629,-36.755 16.48,-48.449 0.032,-0.024 0.063,-0.048 0.087,-0.079 0.499,-0.444 1.046,-0.832 1.561,-1.268 9.199,-7.701 21.186,-12.376 34.877,-13.659 0.15,-0.016 0.301,-0.04 0.444,-0.056 1.442,-0.127 2.907,-0.182 4.389,-0.238 0.776,-0.023 1.537,-0.079 2.329,-0.087 0.254,0 0.507,-0.031 0.769,-0.031 0.467,0 0.951,0.063 1.418,0.071 2.155,0.032 4.326,0.119 6.544,0.309 0.278,0.024 0.547,0.016 0.832,0.04 0.206,0.023 0.404,0.063 0.61,0.087 12.558,1.259 24.982,5.007 36.779,10.688 0.246,0.008 0.531,0.079 0.887,0.277 3.597,1.989 4.287,-0.142 4.39,-1.553 V 452.281 c 0,-3.066 -2.132,-5.775 -5.127,-6.433 -63.526,-13.984 -125.856,0.571 -169.845,40.613 -38.418,34.949 -57.006,85.386 -50.984,138.367 5.372,47.19 29.592,92.533 68.217,127.679 37.642,34.244 85.568,55.659 135.008,60.318 6.805,0.626 13.651,0.951 20.33,0.951 47.221,0 91.027,-16.187 123.369,-45.605 30.63,-27.889 48.98,-66.189 51.674,-107.848 l 0.245,-273.256 h 0.024 V 314.01 h 0.016 v -1.276 c 0.277,-12.899 10.791,-23.27 23.753,-23.27 h 30.702 c 2.392,0 4.333,-1.941 4.333,-4.334 v -71.109 c 0,-2.107 -1.711,-3.826 -3.826,-3.826"
   style="fill-opacity:0.2"
   id="path305" />
            </g>
            <g
   id="Glyph11"
   serif:id="Glyph"
   transform="matrix(0.0960931,0,0,0.0960931,286.8,26.8018)">
                <path
   d="M 737.565,210.195 H 513.637 c -2.115,0 -3.827,1.719 -3.827,3.826 v 71.109 c 0,2.393 1.934,4.334 4.334,4.334 h 30.702 c 12.415,0 22.485,9.555 23.563,21.685 v 336.45 h -0.008 c 0.079,2.71 -0.032,5.38 -0.293,8.002 -0.032,0.381 -0.079,0.761 -0.127,1.141 -0.182,1.537 -0.372,3.058 -0.674,4.556 -0.158,0.848 -0.396,1.68 -0.594,2.512 -0.277,1.117 -0.499,2.25 -0.84,3.343 -2.028,6.481 -5.229,12.495 -9.658,17.779 -0.158,0.19 -0.364,0.365 -0.523,0.555 -1.347,1.561 -2.765,3.082 -4.333,4.516 -1.585,1.442 -3.265,2.781 -5.024,4.025 -12.526,8.874 -29.394,12.772 -48.227,10.973 -24.022,-2.258 -47.855,-13.152 -67.116,-30.678 -19.26,-17.525 -31.232,-39.211 -33.712,-61.062 -2.234,-19.546 3.629,-36.755 16.48,-48.449 0.032,-0.024 0.063,-0.048 0.087,-0.079 0.499,-0.444 1.046,-0.832 1.561,-1.268 9.199,-7.701 21.186,-12.376 34.877,-13.659 0.15,-0.016 0.301,-0.04 0.444,-0.056 1.442,-0.127 2.907,-0.182 4.389,-0.238 0.776,-0.023 1.537,-0.079 2.329,-0.087 0.254,0 0.507,-0.031 0.769,-0.031 0.467,0 0.951,0.063 1.418,0.071 2.155,0.032 4.326,0.119 6.544,0.309 0.278,0.024 0.547,0.016 0.832,0.04 0.206,0.023 0.404,0.063 0.61,0.087 12.558,1.259 24.982,5.007 36.779,10.688 0.246,0.008 0.531,0.079 0.887,0.277 3.597,1.989 4.287,-0.142 4.39,-1.553 V 452.281 c 0,-3.066 -2.132,-5.775 -5.127,-6.433 -63.526,-13.984 -125.856,0.571 -169.845,40.613 -38.418,34.949 -57.006,85.386 -50.984,138.367 5.372,47.19 29.592,92.533 68.217,127.679 37.642,34.244 85.568,55.659 135.008,60.318 6.805,0.626 13.651,0.951 20.33,0.951 47.221,0 91.027,-16.187 123.369,-45.605 30.63,-27.889 48.98,-66.189 51.674,-107.848 l 0.245,-273.256 h 0.024 V 314.01 h 0.016 v -1.276 c 0.277,-12.899 10.791,-23.27 23.753,-23.27 h 30.702 c 2.392,0 4.333,-1.941 4.333,-4.334 v -71.109 c 0,-2.107 -1.711,-3.826 -3.826,-3.826"
   style="fill:#ffffff"
   id="path308" />
            </g>
            <g
   id="Glyph12"
   serif:id="Glyph"
   transform="matrix(0.265084,0,0,0.265084,8.27712,21.2807)">
                <path
   d="M 737.565,210.195 H 513.637 c -2.115,0 -3.827,1.719 -3.827,3.826 v 71.109 c 0,2.393 1.934,4.334 4.334,4.334 h 30.702 c 12.415,0 22.485,9.555 23.563,21.685 v 336.45 h -0.008 c 0.079,2.71 -0.032,5.38 -0.293,8.002 -0.032,0.381 -0.079,0.761 -0.127,1.141 -0.182,1.537 -0.372,3.058 -0.674,4.556 -0.158,0.848 -0.396,1.68 -0.594,2.512 -0.277,1.117 -0.499,2.25 -0.84,3.343 -2.028,6.481 -5.229,12.495 -9.658,17.779 -0.158,0.19 -0.364,0.365 -0.523,0.555 -1.347,1.561 -2.765,3.082 -4.333,4.516 -1.585,1.442 -3.265,2.781 -5.024,4.025 -12.526,8.874 -29.394,12.772 -48.227,10.973 -24.022,-2.258 -47.855,-13.152 -67.116,-30.678 -19.26,-17.525 -31.232,-39.211 -33.712,-61.062 -2.234,-19.546 3.629,-36.755 16.48,-48.449 0.032,-0.024 0.063,-0.048 0.087,-0.079 0.499,-0.444 1.046,-0.832 1.561,-1.268 9.199,-7.701 21.186,-12.376 34.877,-13.659 0.15,-0.016 0.301,-0.04 0.444,-0.056 1.442,-0.127 2.907,-0.182 4.389,-0.238 0.776,-0.023 1.537,-0.079 2.329,-0.087 0.254,0 0.507,-0.031 0.769,-0.031 0.467,0 0.951,0.063 1.418,0.071 2.155,0.032 4.326,0.119 6.544,0.309 0.278,0.024 0.547,0.016 0.832,0.04 0.206,0.023 0.404,0.063 0.61,0.087 12.558,1.259 24.982,5.007 36.779,10.688 0.246,0.008 0.531,0.079 0.887,0.277 3.597,1.989 4.287,-0.142 4.39,-1.553 V 452.281 c 0,-3.066 -2.132,-5.775 -5.127,-6.433 -63.526,-13.984 -125.856,0.571 -169.845,40.613 -38.418,34.949 -57.006,85.386 -50.984,138.367 5.372,47.19 29.592,92.533 68.217,127.679 37.642,34.244 85.568,55.659 135.008,60.318 6.805,0.626 13.651,0.951 20.33,0.951 47.221,0 91.027,-16.187 123.369,-45.605 30.63,-27.889 48.98,-66.189 51.674,-107.848 l 0.245,-273.256 h 0.024 V 314.01 h 0.016 v -1.276 c 0.277,-12.899 10.791,-23.27 23.753,-23.27 h 30.702 c 2.392,0 4.333,-1.941 4.333,-4.334 v -71.109 c 0,-2.107 -1.711,-3.826 -3.826,-3.826"
   style="fill-opacity:0.2"
   id="path311" />
            </g>
            <g
   id="Glyph13"
   serif:id="Glyph"
   transform="matrix(0.265084,0,0,0.265084,8.27712,20.2807)">
                <path
   d="M 737.565,210.195 H 513.637 c -2.115,0 -3.827,1.719 -3.827,3.826 v 71.109 c 0,2.393 1.934,4.334 4.334,4.334 h 30.702 c 12.415,0 22.485,9.555 23.563,21.685 v 336.45 h -0.008 c 0.079,2.71 -0.032,5.38 -0.293,8.002 -0.032,0.381 -0.079,0.761 -0.127,1.141 -0.182,1.537 -0.372,3.058 -0.674,4.556 -0.158,0.848 -0.396,1.68 -0.594,2.512 -0.277,1.117 -0.499,2.25 -0.84,3.343 -2.028,6.481 -5.229,12.495 -9.658,17.779 -0.158,0.19 -0.364,0.365 -0.523,0.555 -1.347,1.561 -2.765,3.082 -4.333,4.516 -1.585,1.442 -3.265,2.781 -5.024,4.025 -12.526,8.874 -29.394,12.772 -48.227,10.973 -24.022,-2.258 -47.855,-13.152 -67.116,-30.678 -19.26,-17.525 -31.232,-39.211 -33.712,-61.062 -2.234,-19.546 3.629,-36.755 16.48,-48.449 0.032,-0.024 0.063,-0.048 0.087,-0.079 0.499,-0.444 1.046,-0.832 1.561,-1.268 9.199,-7.701 21.186,-12.376 34.877,-13.659 0.15,-0.016 0.301,-0.04 0.444,-0.056 1.442,-0.127 2.907,-0.182 4.389,-0.238 0.776,-0.023 1.537,-0.079 2.329,-0.087 0.254,0 0.507,-0.031 0.769,-0.031 0.467,0 0.951,0.063 1.418,0.071 2.155,0.032 4.326,0.119 6.544,0.309 0.278,0.024 0.547,0.016 0.832,0.04 0.206,0.023 0.404,0.063 0.61,0.087 12.558,1.259 24.982,5.007 36.779,10.688 0.246,0.008 0.531,0.079 0.887,0.277 3.597,1.989 4.287,-0.142 4.39,-1.553 V 452.281 c 0,-3.066 -2.132,-5.775 -5.127,-6.433 -63.526,-13.984 -125.856,0.571 -169.845,40.613 -38.418,34.949 -57.006,85.386 -50.984,138.367 5.372,47.19 29.592,92.533 68.217,127.679 37.642,34.244 85.568,55.659 135.008,60.318 6.805,0.626 13.651,0.951 20.33,0.951 47.221,0 91.027,-16.187 123.369,-45.605 30.63,-27.889 48.98,-66.189 51.674,-107.848 l 0.245,-273.256 h 0.024 V 314.01 h 0.016 v -1.276 c 0.277,-12.899 10.791,-23.27 23.753,-23.27 h 30.702 c 2.392,0 4.333,-1.941 4.333,-4.334 v -71.109 c 0,-2.107 -1.711,-3.826 -3.826,-3.826"
   style="fill:#ffffff"
   id="path314" />
            </g>
        </g>
        <g
   id="Highlights">
            <path
   id="rect3894"
   d="M 84,47 C 56.837,47 35,68.837 35,96 v 1 C 35,69.837 56.837,48 84,48 h 120 c 27.163,0 49,21.837 49,49 V 96 C 253,68.837 231.163,47 204,47 Z"
   style="fill:#ffffff;fill-opacity:0.13;fill-rule:nonzero" />
            <path
   id="rect3896"
   d="m 419,141 c -1.125,0 -2,0.875 -2,2 v 1 c 0,-1.125 0.875,-2 2,-2 h 10 c 1.125,0 2,0.875 2,2 v -1 c 0,-1.125 -0.875,-2 -2,-2 z"
   style="fill:#ffffff;fill-opacity:0.13;fill-rule:nonzero" />
            <path
   id="rect3898"
   d="m 422,102 c -2.233,0 -4,1.767 -4,4 v 1 c 0,-2.233 1.767,-4 4,-4 h 12 c 2.233,0 4,1.767 4,4 v -1 c 0,-2.233 -1.767,-4 -4,-4 z"
   style="fill:#ffffff;fill-opacity:0.13;fill-rule:nonzero" />
            <path
   id="rect3900"
   d="m 424,54 c -3.341,0 -6,2.659 -6,6 v 1 c 0,-3.341 2.659,-6 6,-6 h 16 c 3.341,0 6,2.659 6,6 v -1 c 0,-3.341 -2.659,-6 -6,-6 z"
   style="fill:#ffffff;fill-opacity:0.13;fill-rule:nonzero" />
            <path
   id="rect3902"
   d="m 300,224 c -4.449,0 -8,3.551 -8,8 v 1 c 0,-4.449 3.551,-8 8,-8 h 24 c 4.449,0 8,3.551 8,8 v -1 c 0,-4.449 -3.551,-8 -8,-8 z"
   style="fill:#ffffff;fill-opacity:0.13;fill-rule:nonzero" />
            <path
   id="rect3904"
   d="m 310,33 c -9.435,0 -17,7.565 -17,17 v 1 c 0,-9.435 7.565,-17 17,-17 h 52 c 9.435,0 17,7.565 17,17 v -1 c 0,-9.435 -7.565,-17 -17,-17 z"
   style="fill:#ffffff;fill-opacity:0.13;fill-rule:nonzero" />
            <path
   id="rect3906"
   d="m 302.5,143 c -6.388,0 -11.5,5.112 -11.5,11.5 v 1 c 0,-6.388 5.112,-11.5 11.5,-11.5 h 35 c 6.388,0 11.5,5.112 11.5,11.5 v -1 c 0,-6.388 -5.112,-11.5 -11.5,-11.5 z"
   style="fill:#ffffff;fill-opacity:0.13;fill-rule:nonzero" />
            <path
   id="path4085"
   d="m 204,266 c 27.163,0 49,-21.837 49,-49 v -1 c 0,27.163 -21.837,49 -49,49 H 84 C 56.837,265 35,243.163 35,216 v 1 c 0,27.163 21.837,49 49,49 z"
   style="fill-opacity:0.5;fill-rule:nonzero" />
            <path
   id="path4087"
   d="m 429,156 c 1.125,0 2,-0.875 2,-2 v -1 c 0,1.125 -0.875,2 -2,2 h -10 c -1.125,0 -2,-0.875 -2,-2 v 1 c 0,1.125 0.875,2 2,2 z"
   style="fill-opacity:0.3;fill-rule:nonzero" />
            <path
   id="path4089"
   d="m 434,123 c 2.233,0 4,-1.767 4,-4 v -1 c 0,2.233 -1.767,4 -4,4 h -12 c -2.233,0 -4,-1.767 -4,-4 v 1 c 0,2.233 1.767,4 4,4 z"
   style="fill-opacity:0.3;fill-rule:nonzero" />
            <path
   id="path4091"
   d="m 440,83 c 3.341,0 6,-2.659 6,-6 v -1 c 0,3.341 -2.659,6 -6,6 h -16 c -3.341,0 -6,-2.659 -6,-6 v 1 c 0,3.341 2.659,6 6,6 z"
   style="fill-opacity:0.5;fill-rule:nonzero" />
            <path
   id="path4093"
   d="m 324,265 c 4.449,0 8,-3.551 8,-8 v -1 c 0,4.449 -3.551,8 -8,8 h -24 c -4.449,0 -8,-3.551 -8,-8 v 1 c 0,4.449 3.551,8 8,8 z"
   style="fill-opacity:0.5;fill-rule:nonzero" />
            <path
   id="path4095"
   d="m 362,120 c 9.435,0 17,-7.565 17,-17 v -1 c 0,9.435 -7.565,17 -17,17 h -52 c -9.435,0 -17,-7.565 -17,-17 v 1 c 0,9.435 7.565,17 17,17 z"
   style="fill-opacity:0.5;fill-rule:nonzero" />
            <path
   id="path4097"
   d="m 337.5,202 c 6.388,0 11.5,-5.112 11.5,-11.5 v -1 c 0,6.388 -5.112,11.5 -11.5,11.5 h -35 c -6.388,0 -11.5,-5.112 -11.5,-11.5 v 1 c 0,6.388 5.112,11.5 11.5,11.5 z"
   style="fill-opacity:0.5;fill-rule:nonzero" />
            <path
   id="path4280"
   d="M 84,265 C 56.837,265 35,243.163 35,216 v -1 c 0,27.163 21.837,49 49,49 h 120 c 27.163,0 49,-21.837 49,-49 v 1 c 0,27.163 -21.837,49 -49,49 z"
   style="fill:#ffffff;fill-opacity:0.1;fill-rule:nonzero" />
            <path
   id="path4294"
   d="m 300,264 c -4.449,0 -8,-3.551 -8,-8 v -1 c 0,4.449 3.551,8 8,8 h 24 c 4.449,0 8,-3.551 8,-8 v 1 c 0,4.449 -3.551,8 -8,8 z"
   style="fill:#ffffff;fill-opacity:0.1;fill-rule:nonzero" />
            <path
   id="path4296"
   d="m 302.5,201 c -6.388,0 -11.5,-5.112 -11.5,-11.5 v -1 c 0,6.388 5.112,11.5 11.5,11.5 h 35 c 6.388,0 11.5,-5.112 11.5,-11.5 v 1 c 0,6.388 -5.112,11.5 -11.5,11.5 z"
   style="fill:#ffffff;fill-opacity:0.1;fill-rule:nonzero" />
            <path
   id="path4298"
   d="m 310,119 c -9.435,0 -17,-7.565 -17,-17 v -1 c 0,9.435 7.565,17 17,17 h 52 c 9.435,0 17,-7.565 17,-17 v 1 c 0,9.435 -7.565,17 -17,17 z"
   style="fill:#ffffff;fill-opacity:0.1;fill-rule:nonzero" />
            <path
   id="path4300"
   d="m 424,82 c -3.341,0 -6,-2.659 -6,-6 v -1 c 0,3.341 2.659,6 6,6 h 16 c 3.341,0 6,-2.659 6,-6 v 1 c 0,3.341 -2.659,6 -6,6 z"
   style="fill:#ffffff;fill-opacity:0.1;fill-rule:nonzero" />
            <path
   id="path4302"
   d="m 422,122 c -2.233,0 -4,-1.767 -4,-4 v -1 c 0,2.233 1.767,4 4,4 h 12 c 2.233,0 4,-1.767 4,-4 v 1 c 0,2.233 -1.767,4 -4,4 z"
   style="fill:#ffffff;fill-opacity:0.1;fill-rule:nonzero" />
            <path
   id="path4304"
   d="m 419,154.5 c -1.125,0 -2,-0.875 -2,-2 v -1 c 0,1.125 0.875,2 2,2 h 10 c 1.125,0 2,-0.875 2,-2 v 1 c 0,1.125 -0.875,2 -2,2 z"
   style="fill:#ffffff;fill-opacity:0.1;fill-rule:nonzero" />
        </g>
        <g
   id="Border">
            <path
   id="rect4099"
   d="m 422,101 c -2.77,0 -5,2.23 -5,5 v 12 c 0,2.77 2.23,5 5,5 h 12 c 2.77,0 5,-2.23 5,-5 v -12 c 0,-2.77 -2.23,-5 -5,-5 z m 0,1 h 12 c 2.233,0 4,1.767 4,4 v 12 c 0,2.233 -1.767,4 -4,4 h -12 c -2.233,0 -4,-1.767 -4,-4 v -12 c 0,-2.233 1.767,-4 4,-4 z"
   style="fill-opacity:0.41;fill-rule:nonzero" />
            <path
   id="rect4151"
   d="m 424,53 c -3.878,0 -7,3.122 -7,7 v 16 c 0,3.878 3.122,7 7,7 h 16 c 3.878,0 7,-3.122 7,-7 V 60 c 0,-3.878 -3.122,-7 -7,-7 z m 0,1 h 16 c 3.341,0 6,2.659 6,6 v 16 c 0,3.341 -2.659,6 -6,6 h -16 c -3.341,0 -6,-2.659 -6,-6 V 60 c 0,-3.341 2.659,-6 6,-6 z"
   style="fill-opacity:0.41;fill-rule:nonzero" />
            <path
   id="rect4095"
   d="m 419,140 c -1.662,0 -3,1.338 -3,3 v 10 c 0,1.662 1.338,3 3,3 h 10 c 1.662,0 3,-1.338 3,-3 v -10 c 0,-1.662 -1.338,-3 -3,-3 z m 0,1 h 10 c 1.125,0 2,0.875 2,2 v 10 c 0,1.125 -0.875,2 -2,2 h -10 c -1.125,0 -2,-0.875 -2,-2 v -10 c 0,-1.125 0.875,-2 2,-2 z"
   style="fill-opacity:0.41;fill-rule:nonzero" />
            <path
   id="rect4783"
   d="m 300,223 c -4.986,0 -9,4.014 -9,9 v 24 c 0,4.986 4.014,9 9,9 h 24 c 4.986,0 9,-4.014 9,-9 v -24 c 0,-4.986 -4.014,-9 -9,-9 z m 0,1 h 24 c 4.449,0 8,3.551 8,8 v 24 c 0,4.449 -3.551,8 -8,8 h -24 c -4.449,0 -8,-3.551 -8,-8 v -24 c 0,-4.449 3.551,-8 8,-8 z"
   style="fill-opacity:0.41;fill-rule:nonzero" />
            <path
   id="rect4515"
   d="m 302.5,142 c -6.925,0 -12.5,5.575 -12.5,12.5 v 35 c 0,6.925 5.575,12.5 12.5,12.5 h 35 c 6.925,0 12.5,-5.575 12.5,-12.5 v -35 c 0,-6.925 -5.575,-12.5 -12.5,-12.5 z m 0,1 h 35 c 6.388,0 11.5,5.112 11.5,11.5 v 35 c 0,6.388 -5.112,11.5 -11.5,11.5 h -35 c -6.388,0 -11.5,-5.112 -11.5,-11.5 v -35 c 0,-6.388 5.112,-11.5 11.5,-11.5 z"
   style="fill-opacity:0.41;fill-rule:nonzero" />
            <path
   id="rect4511"
   d="m 310,32 c -9.972,0 -18,8.028 -18,18 v 52 c 0,9.972 8.028,18 18,18 h 52 c 9.972,0 18,-8.028 18,-18 V 50 c 0,-9.972 -8.028,-18 -18,-18 z m 0,1 h 52 c 9.435,0 17,7.565 17,17 v 52 c 0,9.435 -7.565,17 -17,17 h -52 c -9.435,0 -17,-7.565 -17,-17 V 50 c 0,-9.435 7.565,-17 17,-17 z"
   style="fill-opacity:0.41;fill-rule:nonzero" />
            <path
   id="rect4040"
   d="M 84,46 C 56.3,46 34,68.3 34,96 v 120 c 0,27.7 22.3,50 50,50 h 120 c 27.7,0 50,-22.3 50,-50 V 96 C 254,68.3 231.7,46 204,46 Z m 0,1 h 120 c 27.163,0 49,21.837 49,49 v 120 c 0,27.163 -21.837,49 -49,49 H 84 C 56.837,265 35,243.163 35,216 V 96 C 35,68.837 56.837,47 84,47 Z"
   style="fill-opacity:0.41;fill-rule:nonzero" />
        </g>
    </g>
    <defs
   id="defs384"><linearGradient
     id="_Linear1"
     x1="0"
     y1="0"
     x2="1"
     y2="0"
     gradientUnits="userSpaceOnUse"
     gradientTransform="matrix(-218.156,-218.781,218.781,-218.156,253.414,266.008)"><stop
       offset="0"
       style="stop-color:rgb(0,76,175);stop-opacity:1"
       id="stop349" /><stop
       offset="1"
       style="stop-color:rgb(21,149,255);stop-opacity:1"
       id="stop351" /></linearGradient><linearGradient
     id="_Linear2"
     x1="0"
     y1="0"
     x2="1"
     y2="0"
     gradientUnits="userSpaceOnUse"
     gradientTransform="matrix(-14.3892,-14.049,14.049,-14.3892,431.414,155.021)"><stop
       offset="0"
       style="stop-color:rgb(0,76,175);stop-opacity:1"
       id="stop354" /><stop
       offset="1"
       style="stop-color:rgb(21,149,255);stop-opacity:1"
       id="stop356" /></linearGradient><linearGradient
     id="_Linear3"
     x1="0"
     y1="0"
     x2="1"
     y2="0"
     gradientUnits="userSpaceOnUse"
     gradientTransform="matrix(-20.0911,-19.9176,19.9176,-20.0911,438.13,122)"><stop
       offset="0"
       style="stop-color:rgb(0,76,175);stop-opacity:1"
       id="stop359" /><stop
       offset="1"
       style="stop-color:rgb(21,149,255);stop-opacity:1"
       id="stop361" /></linearGradient><linearGradient
     id="_Linear4"
     x1="0"
     y1="0"
     x2="1"
     y2="0"
     gradientUnits="userSpaceOnUse"
     gradientTransform="matrix(-28.8491,-28.9871,28.9871,-28.8491,446.131,82.8541)"><stop
       offset="0"
       style="stop-color:rgb(0,76,175);stop-opacity:1"
       id="stop364" /><stop
       offset="1"
       style="stop-color:rgb(21,149,255);stop-opacity:1"
       id="stop366" /></linearGradient><linearGradient
     id="_Linear5"
     x1="0"
     y1="0"
     x2="1"
     y2="0"
     gradientUnits="userSpaceOnUse"
     gradientTransform="matrix(-41.9829,-41.3127,41.3127,-41.9829,332.947,265.467)"><stop
       offset="0"
       style="stop-color:rgb(0,76,175);stop-opacity:1"
       id="stop369" /><stop
       offset="1"
       style="stop-color:rgb(21,149,255);stop-opacity:1"
       id="stop371" /></linearGradient><linearGradient
     id="_Linear6"
     x1="0"
     y1="0"
     x2="1"
     y2="0"
     gradientUnits="userSpaceOnUse"
     gradientTransform="matrix(-87.4742,-85.2649,85.2649,-87.4742,379.171,118.666)"><stop
       offset="0"
       style="stop-color:rgb(0,76,175);stop-opacity:1"
       id="stop374" /><stop
       offset="1"
       style="stop-color:rgb(21,149,255);stop-opacity:1"
       id="stop376" /></linearGradient><linearGradient
     id="_Linear7"
     x1="0"
     y1="0"
     x2="1"
     y2="0"
     gradientUnits="userSpaceOnUse"
     gradientTransform="matrix(-59.2403,-57.4367,57.4367,-59.2403,349.298,200.712)"><stop
       offset="0"
       style="stop-color:rgb(0,76,175);stop-opacity:1"
       id="stop379" /><stop
       offset="1"
       style="stop-color:rgb(21,149,255);stop-opacity:1"
       id="stop381" /></linearGradient></defs>
</svg>
