<?xml version="1.0" encoding="UTF-8" standalone="no"?>
<!-- Created with Inkscape (http://www.inkscape.org/) -->

<svg
   xmlns:dc="http://purl.org/dc/elements/1.1/"
   xmlns:cc="http://creativecommons.org/ns#"
   xmlns:rdf="http://www.w3.org/1999/02/22-rdf-syntax-ns#"
   xmlns:svg="http://www.w3.org/2000/svg"
   xmlns="http://www.w3.org/2000/svg"
   xmlns:xlink="http://www.w3.org/1999/xlink"
   xmlns:sodipodi="http://sodipodi.sourceforge.net/DTD/sodipodi-0.dtd"
   xmlns:inkscape="http://www.inkscape.org/namespaces/inkscape"
   inkscape:export-ydpi="90.000000"
   inkscape:export-xdpi="90.000000"
   width="480"
   height="300"
   id="svg11300"
   sodipodi:version="0.32"
   inkscape:version="0.91 r13725"
   sodipodi:docname="kompozer.svg"
   inkscape:output_extension="org.inkscape.output.svg.inkscape"
   version="1.0"
   style="display:inline;enable-background:new"
   inkscape:export-filename="/home/sam/moka2-thunderbird.png">
  <sodipodi:namedview
     stroke="#ef2929"
     fill="#f57900"
     id="base"
     pagecolor="#ffffff"
     bordercolor="#666666"
     borderopacity="0.25490196"
     inkscape:pageopacity="0"
     inkscape:pageshadow="2"
     inkscape:zoom="1"
     inkscape:cx="526.83187"
     inkscape:cy="179.35517"
     inkscape:current-layer="layer6"
     showgrid="false"
     inkscape:grid-bbox="true"
     inkscape:document-units="px"
     inkscape:showpageshadow="false"
     inkscape:window-width="1920"
     inkscape:window-height="1026"
     inkscape:window-x="0"
     inkscape:window-y="0"
     width="400px"
     height="300px"
     inkscape:snap-nodes="true"
     inkscape:snap-bbox="true"
     gridtolerance="10000"
     inkscape:object-nodes="true"
     inkscape:snap-grids="true"
     showguides="true"
     inkscape:guide-bbox="true"
     inkscape:window-maximized="1"
     inkscape:bbox-nodes="true"
     inkscape:bbox-paths="true"
     inkscape:snap-bbox-edge-midpoints="true"
     inkscape:snap-bbox-midpoints="true">
    <inkscape:grid
       spacingy="1px"
       spacingx="1px"
       id="grid5883"
       type="xygrid"
       enabled="true"
       visible="true"
       empspacing="4"
       snapvisiblegridlinesonly="true"
       dotted="false"
       color="#000000"
       opacity="0.1254902"
       empcolor="#203ef3"
       empopacity="0.36470588" />
    <inkscape:grid
       type="xygrid"
       id="grid11592"
       empspacing="8"
       visible="true"
       enabled="false"
       spacingx="0.5px"
       spacingy="0.5px"
       color="#ff0000"
       opacity="0.1254902"
       empcolor="#ff0000"
       empopacity="0.25098039"
       snapvisiblegridlinesonly="true"
       dotted="true" />
  </sodipodi:namedview>
  <defs
     id="defs3">
    <linearGradient
       id="linearGradient4270">
      <stop
         id="stop4272"
         offset="0"
         style="stop-color:#1b48b8;stop-opacity:1" />
      <stop
         id="stop4274"
         offset="1"
         style="stop-color:#95b3ff;stop-opacity:1" />
    </linearGradient>
    <linearGradient
       id="linearGradient4264"
       inkscape:collect="always">
      <stop
         id="stop4266"
         offset="0"
         style="stop-color:#ffd700;stop-opacity:1" />
      <stop
         id="stop4268"
         offset="1"
         style="stop-color:#fdd603;stop-opacity:1" />
    </linearGradient>
    <linearGradient
       inkscape:collect="always"
       id="linearGradient3952">
      <stop
         style="stop-color:#58a4d6;stop-opacity:1;"
         offset="0"
         id="stop3954" />
      <stop
         style="stop-color:#424999;stop-opacity:1"
         offset="1"
         id="stop3956" />
    </linearGradient>
    <linearGradient
       id="linearGradient3853">
      <stop
         style="stop-color:#000000;stop-opacity:0;"
         offset="0"
         id="stop3855" />
      <stop
         id="stop3862"
         offset="0.5"
         style="stop-color:#000000;stop-opacity:0.49803922;" />
      <stop
         style="stop-color:#000000;stop-opacity:0;"
         offset="1"
         id="stop3857" />
    </linearGradient>
    <linearGradient
       id="outerBackgroundGradient">
      <stop
         style="stop-color:#ced2df;stop-opacity:1"
         offset="0"
         id="stop3864-8-6" />
      <stop
         style="stop-color:#f0f2f8;stop-opacity:1"
         offset="1"
         id="stop3866-9-1" />
    </linearGradient>
    <linearGradient
       inkscape:collect="always"
       xlink:href="#linearGradient3952"
       id="linearGradient4097"
       gradientUnits="userSpaceOnUse"
       x1="264"
       y1="280.00003"
       x2="264"
       y2="40.00005"
       gradientTransform="matrix(0.06666667,0,0,0.06666667,414.4,137.33333)" />
    <linearGradient
       inkscape:collect="always"
       xlink:href="#linearGradient3952"
       id="linearGradient4101"
       gradientUnits="userSpaceOnUse"
       gradientTransform="matrix(0.0875,0,0,0.0875,414.9,97.5)"
       x1="286.85715"
       y1="302.85715"
       x2="286.85715"
       y2="28.571428" />
    <linearGradient
       inkscape:collect="always"
       xlink:href="#linearGradient3952"
       id="linearGradient4153"
       gradientUnits="userSpaceOnUse"
       gradientTransform="matrix(0.11931818,0,0,0.11931818,414.13636,48.22727)"
       x1="283.80957"
       y1="299.80954"
       x2="283.80957"
       y2="31.61907" />
    <linearGradient
       inkscape:collect="always"
       xlink:href="#linearGradient3952"
       id="linearGradient4869"
       gradientUnits="userSpaceOnUse"
       gradientTransform="matrix(0.175,0,0,-0.175,286.79999,-215.99997)"
       x1="281.14291"
       y1="297.14304"
       x2="281.14291"
       y2="22.857315" />
    <clipPath
       clipPathUnits="userSpaceOnUse"
       id="clipPath4891">
      <rect
         ry="9"
         y="223"
         x="307"
         height="42"
         width="42"
         id="rect4893"
         style="color:#bebebe;fill:url(#linearGradient4895);fill-opacity:1;fill-rule:nonzero;stroke:none;stroke-width:0;marker:none;visibility:visible;display:inline;overflow:visible;enable-background:accumulate"
         transform="matrix(0,1,-1,0,0,0)" />
    </clipPath>
    <linearGradient
       inkscape:collect="always"
       xlink:href="#outerBackgroundGradient"
       id="linearGradient4895"
       gradientUnits="userSpaceOnUse"
       gradientTransform="matrix(0.175,0,0,0.175,302.79999,215.99997)"
       x1="144.00006"
       y1="280.00018"
       x2="144.00006"
       y2="40.000172" />
    <clipPath
       clipPathUnits="userSpaceOnUse"
       id="clipPath4044">
      <rect
         ry="4"
         y="85"
         x="433"
         height="22"
         width="22"
         id="rect4046"
         style="color:#bebebe;fill:url(#linearGradient4048);fill-opacity:1;fill-rule:nonzero;stroke:none;stroke-width:0;marker:none;visibility:visible;display:inline;overflow:visible;enable-background:accumulate" />
    </clipPath>
    <linearGradient
       inkscape:collect="always"
       xlink:href="#outerBackgroundGradient"
       id="linearGradient4048"
       gradientUnits="userSpaceOnUse"
       gradientTransform="matrix(0.0875,0,0,0.0875,430.9,81.499996)"
       x1="149.71428"
       y1="291.42862"
       x2="149.71428"
       y2="40.000046" />
    <clipPath
       clipPathUnits="userSpaceOnUse"
       id="clipPath4089">
      <rect
         style="color:#bebebe;fill:url(#linearGradient4093);fill-opacity:1;fill-rule:nonzero;stroke:none;stroke-width:0;marker:none;visibility:visible;display:inline;overflow:visible;enable-background:accumulate"
         id="rect4091"
         width="30"
         height="30"
         x="433"
         y="37"
         ry="6" />
    </clipPath>
    <linearGradient
       inkscape:collect="always"
       xlink:href="#outerBackgroundGradient"
       id="linearGradient4093"
       gradientUnits="userSpaceOnUse"
       gradientTransform="matrix(0.11931818,0,0,0.11931818,430.13636,32.227267)"
       x1="149.71432"
       y1="291.42862"
       x2="149.71432"
       y2="40.00005" />
    <clipPath
       clipPathUnits="userSpaceOnUse"
       id="clipPath3855">
      <rect
         style="color:#bebebe;fill:url(#linearGradient3859);fill-opacity:1;fill-rule:nonzero;stroke:none;stroke-width:0;marker:none;visibility:visible;display:inline;overflow:visible;enable-background:accumulate"
         id="rect3857"
         width="16"
         height="16"
         x="304"
         y="212"
         ry="3"
         transform="matrix(0,1,-1,0,0,0)" />
    </clipPath>
    <linearGradient
       inkscape:collect="always"
       xlink:href="#outerBackgroundGradient"
       id="linearGradient3859"
       gradientUnits="userSpaceOnUse"
       gradientTransform="matrix(0.06666667,0,0,0.06666667,302.4,209.33333)"
       x1="144"
       y1="280.00003"
       x2="144"
       y2="40.00005" />
    <clipPath
       clipPathUnits="userSpaceOnUse"
       id="clipPath3862">
      <rect
         ry="50"
         y="46"
         x="34"
         height="220"
         width="220"
         id="rect3864"
         style="color:#bebebe;fill:url(#linearGradient3866);fill-opacity:1;fill-rule:nonzero;stroke:none;stroke-width:0;marker:none;visibility:visible;display:inline;overflow:visible;enable-background:accumulate" />
    </clipPath>
    <linearGradient
       inkscape:collect="always"
       xlink:href="#outerBackgroundGradient"
       id="linearGradient3866"
       gradientUnits="userSpaceOnUse"
       gradientTransform="translate(0,-4)"
       x1="144"
       y1="280"
       x2="144"
       y2="40" />
    <linearGradient
       inkscape:collect="always"
       xlink:href="#linearGradient3952"
       id="linearGradient3876"
       gradientUnits="userSpaceOnUse"
       gradientTransform="translate(0,-4)"
       x1="272"
       y1="288"
       x2="272"
       y2="32" />
    <clipPath
       clipPathUnits="userSpaceOnUse"
       id="clipPath4187">
      <rect
         ry="12.5"
         y="142"
         x="290"
         height="60"
         width="60"
         id="rect4189"
         style="color:#bebebe;fill:url(#linearGradient4191);fill-opacity:1;fill-rule:nonzero;stroke:none;stroke-width:0;marker:none;visibility:visible;display:inline;overflow:visible;enable-background:accumulate" />
    </clipPath>
    <linearGradient
       inkscape:collect="always"
       xlink:href="#outerBackgroundGradient"
       id="linearGradient4191"
       gradientUnits="userSpaceOnUse"
       x1="352"
       y1="204"
       x2="352"
       y2="140" />
    <linearGradient
       inkscape:collect="always"
       xlink:href="#linearGradient3952"
       id="linearGradient4197"
       gradientUnits="userSpaceOnUse"
       x1="384"
       y1="124"
       x2="384"
       y2="28" />
    <linearGradient
       inkscape:collect="always"
       xlink:href="#linearGradient3952"
       id="linearGradient4199"
       gradientUnits="userSpaceOnUse"
       x1="352"
       y1="204"
       x2="352"
       y2="140" />
    <clipPath
       clipPathUnits="userSpaceOnUse"
       id="clipPath4346">
      <rect
         style="color:#bebebe;fill:url(#linearGradient4350);fill-opacity:1;fill-rule:nonzero;stroke:none;stroke-width:0;marker:none;visibility:visible;display:inline;overflow:visible;enable-background:accumulate"
         id="rect4348"
         width="88"
         height="88"
         x="292"
         y="32"
         ry="18" />
    </clipPath>
    <linearGradient
       inkscape:collect="always"
       xlink:href="#outerBackgroundGradient"
       id="linearGradient4350"
       gradientUnits="userSpaceOnUse"
       x1="384"
       y1="124"
       x2="384"
       y2="28" />
    <clipPath
       clipPathUnits="userSpaceOnUse"
       id="clipPath3871">
      <rect
         ry="5"
         y="101"
         x="417"
         height="22"
         width="22"
         id="rect3873"
         style="color:#bebebe;fill:url(#linearGradient3875);fill-opacity:1;fill-rule:nonzero;stroke:none;stroke-width:0;marker:none;visibility:visible;display:inline;overflow:visible;enable-background:accumulate" />
    </clipPath>
    <linearGradient
       inkscape:collect="always"
       xlink:href="#outerBackgroundGradient"
       id="linearGradient3875"
       gradientUnits="userSpaceOnUse"
       gradientTransform="matrix(0.0875,0,0,0.0875,414.9,97.5)"
       x1="286.85715"
       y1="302.85715"
       x2="286.85715"
       y2="28.571428" />
    <clipPath
       clipPathUnits="userSpaceOnUse"
       id="clipPath3881">
      <rect
         style="color:#bebebe;fill:url(#linearGradient3885);fill-opacity:1;fill-rule:nonzero;stroke:none;stroke-width:0;marker:none;visibility:visible;display:inline;overflow:visible;enable-background:accumulate"
         id="rect3883"
         width="30"
         height="30"
         x="417"
         y="53"
         ry="7" />
    </clipPath>
    <linearGradient
       inkscape:collect="always"
       xlink:href="#outerBackgroundGradient"
       id="linearGradient3885"
       gradientUnits="userSpaceOnUse"
       gradientTransform="matrix(0.11931818,0,0,0.11931818,414.13636,48.22727)"
       x1="283.80957"
       y1="299.80954"
       x2="283.80957"
       y2="31.61907" />
    <linearGradient
       inkscape:collect="always"
       xlink:href="#linearGradient3853"
       id="linearGradient3860"
       x1="295.5"
       y1="240"
       x2="328.5"
       y2="240"
       gradientUnits="userSpaceOnUse" />
    <linearGradient
       inkscape:collect="always"
       xlink:href="#linearGradient3853"
       id="linearGradient3867"
       gradientUnits="userSpaceOnUse"
       x1="295.5"
       y1="240"
       x2="328.5"
       y2="240"
       gradientTransform="matrix(1,0,0,-1,0,488)" />
    <linearGradient
       inkscape:collect="always"
       xlink:href="#linearGradient3853"
       id="linearGradient3873"
       gradientUnits="userSpaceOnUse"
       gradientTransform="matrix(1,0,0,-1,0,488)"
       x1="295.5"
       y1="240"
       x2="328.5"
       y2="240" />
    <linearGradient
       inkscape:collect="always"
       xlink:href="#linearGradient3853"
       id="linearGradient3879"
       gradientUnits="userSpaceOnUse"
       x1="295.5"
       y1="240"
       x2="328.5"
       y2="240" />
    <linearGradient
       inkscape:collect="always"
       xlink:href="#linearGradient3853"
       id="linearGradient3937"
       gradientUnits="userSpaceOnUse"
       x1="295.5"
       y1="240"
       x2="328.5"
       y2="240"
       gradientTransform="matrix(0.42911877,0,0,0.42911877,290.11494,43.295015)" />
    <linearGradient
       inkscape:collect="always"
       xlink:href="#linearGradient3853"
       id="linearGradient3951"
       gradientUnits="userSpaceOnUse"
       gradientTransform="matrix(0.42911877,0,0,0.42911877,290.11494,43.295015)"
       x1="295.5"
       y1="240"
       x2="328.5"
       y2="240" />
    <linearGradient
       inkscape:collect="always"
       xlink:href="#linearGradient4264"
       id="linearGradient3958"
       x1="380"
       y1="33.5"
       x2="380.5"
       y2="122"
       gradientUnits="userSpaceOnUse"
       gradientTransform="translate(4.2925683e-6,-1.4457312e-6)" />
    <linearGradient
       inkscape:collect="always"
       xlink:href="#linearGradient4264"
       id="linearGradient3962"
       gradientUnits="userSpaceOnUse"
       x1="380"
       y1="33.5"
       x2="380.5"
       y2="122"
       gradientTransform="matrix(0.66666634,0,0,0.66666634,96.000123,121.33339)" />
    <linearGradient
       inkscape:collect="always"
       xlink:href="#linearGradient4264"
       id="linearGradient3966"
       gradientUnits="userSpaceOnUse"
       gradientTransform="matrix(0.46666711,0,0,0.46666711,155.19985,208.53326)"
       x1="380"
       y1="33.5"
       x2="380.5"
       y2="122" />
    <linearGradient
       inkscape:collect="always"
       xlink:href="#linearGradient4264"
       id="linearGradient3970"
       gradientUnits="userSpaceOnUse"
       x1="380"
       y1="33.5"
       x2="380.5"
       y2="122"
       gradientTransform="matrix(2.4999988,0,0,2.4999988,-695.99958,-33.999931)" />
    <linearGradient
       inkscape:collect="always"
       xlink:href="#linearGradient4264"
       id="linearGradient3974"
       gradientUnits="userSpaceOnUse"
       x1="380"
       y1="33.5"
       x2="380.5"
       y2="122"
       gradientTransform="matrix(0.33333317,0,0,0.33333317,320.00006,42.666751)" />
    <linearGradient
       inkscape:collect="always"
       xlink:href="#linearGradient4264"
       id="linearGradient3978"
       gradientUnits="userSpaceOnUse"
       gradientTransform="matrix(0.2666684,0,0,0.2666684,338.39942,91.73327)"
       x1="380"
       y1="33.5"
       x2="380.5"
       y2="122" />
    <linearGradient
       inkscape:collect="always"
       xlink:href="#linearGradient4264"
       id="linearGradient3982"
       gradientUnits="userSpaceOnUse"
       gradientTransform="matrix(0.19999953,0,0,0.19999953,356.80017,132.79989)"
       x1="380"
       y1="33.5"
       x2="380.5"
       y2="122" />
  </defs>
  <metadata
     id="metadata4">
    <rdf:RDF>
      <cc:Work
         rdf:about="">
        <dc:format>image/svg+xml</dc:format>
        <dc:type
           rdf:resource="http://purl.org/dc/dcmitype/StillImage" />
        <dc:creator>
          <cc:Agent>
            <dc:title>Sam Hewitt</dc:title>
          </cc:Agent>
        </dc:creator>
        <dc:source />
        <cc:license
           rdf:resource="" />
        <dc:title />
        <dc:subject>
          <rdf:Bag />
        </dc:subject>
        <dc:date />
        <dc:rights>
          <cc:Agent>
            <dc:title />
          </cc:Agent>
        </dc:rights>
        <dc:publisher>
          <cc:Agent>
            <dc:title />
          </cc:Agent>
        </dc:publisher>
        <dc:identifier />
        <dc:relation />
        <dc:language />
        <dc:coverage />
        <dc:description />
        <dc:contributor>
          <cc:Agent>
            <dc:title />
          </cc:Agent>
        </dc:contributor>
      </cc:Work>
      <cc:Work
         rdf:about="">
        <dc:format>image/svg+xml</dc:format>
        <dc:type
           rdf:resource="http://purl.org/dc/dcmitype/StillImage" />
      </cc:Work>
    </rdf:RDF>
  </metadata>
  <g
     style="display:inline"
     inkscape:groupmode="layer"
     inkscape:label="Icon"
     id="layer1">
    <g
       style="display:none"
       inkscape:label="Baseplate"
       id="layer7"
       inkscape:groupmode="layer">
      <text
         y="19.745117"
         xml:space="preserve"
         x="15.006836"
         style="font-size:18px;font-style:normal;font-variant:normal;font-weight:normal;font-stretch:normal;fill:#000000;fill-opacity:1;stroke:none;display:inline;enable-background:new;font-family:DejaVu Sans;-inkscape-font-specification:DejaVu Sans"
         inkscape:label="context"
         id="context"><tspan
           style="font-style:normal;font-variant:normal;font-weight:normal;font-stretch:normal;font-family:DejaVu Sans;-inkscape-font-specification:DejaVu Sans"
           y="19.745117"
           x="15.006836"
           sodipodi:role="line"
           id="tspan3933">apps</tspan></text>
      <text
         y="19.745117"
         xml:space="preserve"
         x="122.48828"
         style="font-size:18px;font-style:normal;font-variant:normal;font-weight:bold;font-stretch:normal;text-align:start;line-height:125%;writing-mode:lr-tb;text-anchor:start;fill:#000000;fill-opacity:1;stroke:none;display:inline;enable-background:new;font-family:DejaVu Sans;-inkscape-font-specification:DejaVu Sans Bold"
         sodipodi:linespacing="125%"
         inkscape:label="icon-name"
         id="icon-name"><tspan
           style="font-size:18px;font-style:normal;font-variant:normal;font-weight:bold;font-stretch:normal;font-family:DejaVu Sans;-inkscape-font-specification:DejaVu Sans Bold"
           y="19.745117"
           x="122.48828"
           sodipodi:role="line"
           id="tspan3937">kompozer</tspan></text>
      <rect
         style="fill:#eeeeec;fill-opacity:1;fill-rule:nonzero;stroke:none;stroke-width:2;marker:none;visibility:visible;display:inline;overflow:visible;enable-background:accumulate"
         id="rect16x16"
         width="16"
         height="16"
         x="416"
         y="140"
         inkscape:label="16x16" />
      <rect
         style="fill:#d4d4d4;fill-opacity:1;fill-rule:nonzero;stroke:none;stroke-width:2;marker:none;visibility:visible;display:inline;overflow:visible;enable-background:accumulate"
         id="rect24x24"
         width="24"
         height="24"
         x="416"
         y="100"
         inkscape:label="24x24" />
      <rect
         style="fill:#eeeeec;fill-opacity:1;fill-rule:nonzero;stroke:none;stroke-width:2;marker:none;visibility:visible;display:inline;overflow:visible;enable-background:accumulate"
         id="rect32x32"
         width="32"
         height="32"
         x="416"
         y="52"
         inkscape:label="32x32" />
      <rect
         inkscape:label="22x22"
         y="101"
         x="417"
         height="22"
         width="22"
         id="rect22x22"
         style="fill:#eeeeec;fill-opacity:1;fill-rule:nonzero;stroke:none;stroke-width:2;marker:none;visibility:visible;display:inline;overflow:visible;enable-background:accumulate" />
      <rect
         inkscape:label="48x48"
         y="220"
         x="288"
         height="48"
         width="48"
         id="rect48x48"
         style="fill:#eeeeec;fill-opacity:1;fill-rule:nonzero;stroke:none;stroke-width:2;marker:none;visibility:visible;display:inline;overflow:visible;enable-background:accumulate" />
      <rect
         style="fill:#eeeeec;fill-opacity:1;fill-rule:nonzero;stroke:none;stroke-width:2;marker:none;visibility:visible;display:inline;overflow:visible;enable-background:accumulate"
         id="rect256x256"
         width="256"
         height="256"
         x="16"
         y="28"
         inkscape:label="256x256" />
      <rect
         style="fill:#eeeeec;fill-opacity:1;fill-rule:nonzero;stroke:none;stroke-width:2;marker:none;visibility:visible;display:inline;overflow:visible;enable-background:accumulate"
         id="rect64x64"
         width="64"
         height="64"
         x="288"
         y="140"
         inkscape:label="64x64" />
      <rect
         style="fill:#eeeeec;fill-opacity:1;fill-rule:nonzero;stroke:none;stroke-width:2;marker:none;visibility:visible;display:inline;overflow:visible;enable-background:accumulate"
         id="rect96x96"
         width="96"
         height="96"
         x="288"
         y="28"
         inkscape:label="96x96" />
    </g>
    <g
       inkscape:groupmode="layer"
       id="layer4"
       inkscape:label="Shadow"
       style="display:inline">
      <rect
         style="opacity:0.0;color:#bebebe;fill:#000000;fill-opacity:1;stroke:#000000;stroke-width:1;stroke-miterlimit:4;stroke-opacity:1;stroke-dasharray:none;marker:none;visibility:visible;display:inline;overflow:visible;enable-background:accumulate"
         id="rect4156"
         width="42"
         height="42"
         x="-266.5"
         y="291"
         ry="9"
         transform="matrix(0,-1,1,0,0,0)" />
      <rect
         transform="matrix(0,-1,1,0,0,0)"
         ry="9"
         y="291"
         x="-266.5"
         height="42"
         width="40"
         id="rect4183"
         style="opacity:0.1;color:#bebebe;fill:#000000;fill-opacity:1;stroke:none;stroke-width:1;marker:none;visibility:visible;display:inline;overflow:visible;enable-background:accumulate" />
      <rect
         ry="9"
         y="237"
         x="291"
         height="29"
         width="42"
         id="rect4144"
         style="opacity:0.1;color:#bebebe;fill:#000000;fill-opacity:1;fill-rule:nonzero;stroke:none;stroke-width:0;marker:none;visibility:visible;display:inline;overflow:visible;enable-background:accumulate" />
      <rect
         style="opacity:0.0;color:#bebebe;fill:#000000;fill-opacity:1;fill-rule:nonzero;stroke:#000000;stroke-width:1;stroke-miterlimit:4;stroke-opacity:1;stroke-dasharray:none;marker:none;visibility:visible;display:inline;overflow:visible;enable-background:accumulate"
         id="rect4340"
         width="88"
         height="88"
         x="292"
         y="33.5"
         ry="18" />
      <rect
         ry="18"
         y="52.5"
         x="292"
         height="69"
         width="88"
         id="rect4338"
         style="opacity:0.1;color:#bebebe;fill:#000000;fill-opacity:1;fill-rule:nonzero;stroke:none;stroke-width:0;marker:none;visibility:visible;display:inline;overflow:visible;enable-background:accumulate" />
      <rect
         style="opacity:0.1;color:#bebebe;fill:#000000;fill-opacity:1;fill-rule:nonzero;stroke:none;stroke-width:0;marker:none;visibility:visible;display:inline;overflow:visible;enable-background:accumulate"
         id="rect4335"
         width="88"
         height="76.5"
         x="292"
         y="44.5"
         ry="18" />
      <rect
         style="opacity:0.0;color:#bebebe;fill:#000000;fill-opacity:1;fill-rule:nonzero;stroke:#000000;stroke-width:1;stroke-miterlimit:4;stroke-opacity:1;stroke-dasharray:none;marker:none;visibility:visible;display:inline;overflow:visible;enable-background:accumulate"
         id="rect4214"
         width="60"
         height="60"
         x="290"
         y="143.5"
         ry="12.5" />
      <rect
         ry="12.5"
         y="151.5"
         x="290"
         height="52"
         width="60"
         id="rect4206"
         style="opacity:0.1;color:#bebebe;fill:#000000;fill-opacity:1;fill-rule:nonzero;stroke:none;stroke-width:0;marker:none;visibility:visible;display:inline;overflow:visible;enable-background:accumulate" />
      <rect
         style="opacity:0.1;color:#bebebe;fill:#000000;fill-opacity:1;fill-rule:nonzero;stroke:none;stroke-width:0;marker:none;visibility:visible;display:inline;overflow:visible;enable-background:accumulate"
         id="rect4212"
         width="60"
         height="54.5"
         x="290"
         y="148.5"
         ry="12.5" />
      <rect
         style="opacity:0.2;color:#bebebe;fill:#000000;fill-opacity:1;fill-rule:nonzero;stroke:none;stroke-width:0;marker:none;visibility:visible;display:inline;overflow:visible;enable-background:accumulate"
         id="rect4058"
         width="30"
         height="30"
         x="417"
         y="54"
         ry="7" />
      <rect
         ry="50"
         y="48"
         x="34"
         height="220"
         width="220"
         id="rect3872"
         style="opacity:0.0;color:#bebebe;fill:#000000;fill-opacity:1;fill-rule:nonzero;stroke:#000000;stroke-width:2;stroke-miterlimit:4;stroke-opacity:1;stroke-dasharray:none;marker:none;visibility:visible;display:inline;overflow:visible;enable-background:accumulate" />
      <rect
         style="opacity:0.1;color:#bebebe;fill:#000000;fill-opacity:1;fill-rule:nonzero;stroke:none;stroke-width:0;marker:none;visibility:visible;display:inline;overflow:visible;enable-background:accumulate"
         id="rect3870"
         width="220"
         height="220"
         x="34"
         y="48"
         ry="50" />
      <rect
         ry="50"
         y="47"
         x="34"
         height="220"
         width="220"
         id="rect3868"
         style="opacity:0.1;color:#bebebe;fill:#000000;fill-opacity:1;fill-rule:nonzero;stroke:none;stroke-width:0;marker:none;visibility:visible;display:inline;overflow:visible;enable-background:accumulate" />
    </g>
    <g
       inkscape:groupmode="layer"
       id="layer2"
       inkscape:label="Background"
       style="display:inline">
      <rect
         style="color:#bebebe;fill:url(#linearGradient3876);fill-opacity:1.0;fill-rule:nonzero;stroke:none;stroke-width:0;marker:none;visibility:visible;display:inline;overflow:visible;enable-background:accumulate"
         id="rect4040"
         width="220"
         height="220"
         x="34"
         y="46"
         ry="50" />
      <rect
         ry="3"
         y="140"
         x="416"
         height="16"
         width="16"
         id="rect4095"
         style="color:#bebebe;fill:url(#linearGradient4097);fill-opacity:1.0;fill-rule:nonzero;stroke:none;stroke-width:0;marker:none;visibility:visible;display:inline;overflow:visible;enable-background:accumulate" />
      <rect
         style="color:#bebebe;fill:url(#linearGradient4101);fill-opacity:1.0;fill-rule:nonzero;stroke:none;stroke-width:0;marker:none;visibility:visible;display:inline;overflow:visible;enable-background:accumulate"
         id="rect4099"
         width="22"
         height="22"
         x="417"
         y="101"
         ry="5" />
      <rect
         ry="7"
         y="53"
         x="417"
         height="30"
         width="30"
         id="rect4151"
         style="color:#bebebe;fill:url(#linearGradient4153);fill-opacity:1.0;fill-rule:nonzero;stroke:none;stroke-width:0;marker:none;visibility:visible;display:inline;overflow:visible;enable-background:accumulate" />
      <rect
         style="color:#bebebe;fill:url(#linearGradient4869);fill-opacity:1.0;fill-rule:nonzero;stroke:none;stroke-width:0;marker:none;visibility:visible;display:inline;overflow:visible;enable-background:accumulate"
         id="rect4783"
         width="42"
         height="42"
         x="291"
         y="-265"
         ry="9"
         transform="scale(1,-1)" />
      <rect
         ry="18"
         y="32"
         x="292"
         height="88"
         width="88"
         id="rect4511"
         style="color:#bebebe;fill:url(#linearGradient4197);fill-opacity:1.0;fill-rule:nonzero;stroke:none;stroke-width:0;marker:none;visibility:visible;display:inline;overflow:visible;enable-background:accumulate" />
      <rect
         style="color:#bebebe;fill:url(#linearGradient4199);fill-opacity:1.0;fill-rule:nonzero;stroke:none;stroke-width:0;marker:none;visibility:visible;display:inline;overflow:visible;enable-background:accumulate"
         id="rect4515"
         width="60"
         height="60"
         x="290"
         y="142"
         ry="12.5" />
      <rect
         ry="5"
         y="101"
         x="417"
         height="22"
         width="22"
         id="rect3866"
         style="color:#bebebe;fill:none;fill-opacity:1;fill-rule:nonzero;stroke:#000000;stroke-width:2;marker:none;visibility:visible;display:inline;overflow:visible;enable-background:accumulate;stroke-opacity:1;stroke-miterlimit:4;stroke-dasharray:none;opacity:0.1"
         clip-path="url(#clipPath3871)" />
      <rect
         style="color:#bebebe;fill:none;fill-opacity:1;fill-rule:nonzero;stroke:#000000;stroke-width:2;marker:none;visibility:visible;display:inline;overflow:visible;enable-background:accumulate;stroke-opacity:1;stroke-miterlimit:4;stroke-dasharray:none;opacity:0.1"
         id="rect3877"
         width="30"
         height="30"
         x="417"
         y="53"
         ry="7"
         clip-path="url(#clipPath3881)" />
    </g>
    <g
       inkscape:groupmode="layer"
       id="layer6"
       inkscape:label="Symbols"
       style="display:inline">
      <path
         inkscape:connector-curvature="0"
         id="path3984"
         d="m 306.04461,102.13702 c 0.40849,0 9.79999,-5.21399 10.61818,-5.89502 0.0246,-0.0204 -0.12237,-0.17767 -0.32648,-0.34942 -0.25434,-0.21401 -0.43188,-0.52403 -0.56424,-0.9853 -0.10623,-0.37017 -0.20849,-0.69047 -0.22724,-0.71178 -0.0188,-0.0213 -1.28229,0.70914 -2.80786,1.62322 -1.52558,0.91408 -3.65616,2.16637 -4.73462,2.78288 l -1.96084,1.12091 -0.0339,1.20726 c -0.0186,0.66399 -0.002,1.20725 0.037,1.20725 z m 9.89022,-8.28055 c 3.32789,-2.08746 9.52045,-6.33651 13.39907,-9.19382 10.86727,-8.00572 21.35953,-17.70478 27.39057,-25.31987 1.21448,-1.53346 1.40082,-1.71668 0.65223,-0.64132 -7.20212,10.34594 -17.99894,21.30151 -29.5877,30.02275 -2.7846,2.09557 -7.23367,5.20631 -9.4892,6.63472 -1.56814,0.99309 -1.56367,0.97518 -0.35617,1.42697 3.53506,1.32263 9.96088,-0.16359 17.48249,-4.04351 3.46043,-1.78502 7.21959,-4.17424 10.17701,-6.46824 1.98263,-1.53788 2.1621,-1.69254 2.0709,-1.78459 -0.1208,-0.12193 -0.88787,-0.27558 -2.68774,-0.53836 -1.76169,-0.25721 -2.87722,-0.53182 -2.87722,-0.70828 0,-0.19335 0.82486,-0.34544 4.22927,-0.77979 4.30096,-0.54875 4.15976,-0.51359 4.77542,-1.18898 1.87935,-2.06165 5.1688,-7.36344 6.8281,-11.00522 l 0.3066,-0.67291 -0.61256,0.47052 c -1.56909,1.20525 -4.17107,2.10712 -6.16558,2.13704 -1.99443,0.0299 -1.41866,-0.49277 4.66172,-4.23197 4.71437,-2.89915 4.51746,-2.74821 5.47666,-4.19801 1.01226,-1.53003 2.62998,-4.77969 3.35319,-6.73588 0.95837,-2.5923 1.28054,-4.43039 0.85169,-4.85924 -1.07829,-1.07828 -7.3509,0.68488 -14.55393,4.09096 -3.5283,1.66841 -5.41561,2.72981 -5.80363,3.26389 -0.18995,0.26144 -1.02884,1.75881 -1.86419,3.32748 -1.72063,3.23107 -2.4932,4.49567 -2.70416,4.42631 -0.22503,-0.074 -0.23589,-0.90647 -0.0334,-2.56323 0.19352,-1.58355 0.23478,-2.54641 0.1143,-2.6669 -0.16732,-0.16732 -5.50239,3.52733 -8.74849,6.05851 -2.02609,1.57987 -1.91478,1.39339 -2.64448,4.43067 -0.9363,3.89724 -1.18884,4.63471 -1.58708,4.63471 -0.31929,0 -0.46317,-0.20266 -1.20962,-1.70389 -0.35949,-0.72298 -0.74525,-1.36918 -0.85726,-1.43601 -0.16026,-0.0956 -0.28333,-0.0463 -0.57773,0.23169 -0.64059,0.6048 -2.5876,2.90681 -3.62534,4.28636 -3.64233,4.84204 -6.1077,10.77243 -6.11003,14.69753 l -4.8e-4,0.8049 0.32681,-0.20499 z"
         style="opacity:0.3;fill:#000000;fill-opacity:1" />
      <path
         style="opacity:0.3;fill:#000000;fill-opacity:1"
         d="m 300.02972,189.75798 c 0.27233,0 6.53333,-3.47599 7.07879,-3.93001 0.0164,-0.0136 -0.0816,-0.11845 -0.21765,-0.23295 -0.16956,-0.14267 -0.28792,-0.34935 -0.37616,-0.65686 -0.0708,-0.24678 -0.139,-0.46032 -0.1515,-0.47452 -0.0125,-0.0142 -0.85485,0.47276 -1.87191,1.08214 -1.01705,0.60939 -2.43743,1.44425 -3.15641,1.85525 l -1.30722,0.74728 -0.0226,0.80484 c -0.0124,0.44266 -0.001,0.80483 0.0247,0.80483 z m 6.59348,-5.52036 c 2.2186,-1.39164 6.34697,-4.22434 8.93271,-6.12921 7.24485,-5.33715 14.23968,-11.80319 18.26037,-16.87991 0.80966,-1.02231 0.93388,-1.14445 0.43482,-0.42755 -4.80141,6.89729 -11.99928,14.201 -19.72512,20.01516 -1.8564,1.39705 -4.82244,3.47087 -6.32613,4.42315 -1.04543,0.66206 -1.04245,0.65012 -0.23745,0.95131 2.35671,0.88175 6.64059,-0.10906 11.65499,-2.69567 2.30695,-1.19002 4.81306,-2.78283 6.78467,-4.31216 1.32175,-1.02525 1.4414,-1.12836 1.3806,-1.18973 -0.0805,-0.0813 -0.59191,-0.18372 -1.79183,-0.3589 -1.17446,-0.17148 -1.91814,-0.35455 -1.91814,-0.47219 0,-0.1289 0.5499,-0.23029 2.81951,-0.51986 2.86731,-0.36583 2.77317,-0.34239 3.18361,-0.79265 1.2529,-1.37444 3.44587,-4.90896 4.55207,-7.33681 l 0.2044,-0.44861 -0.40838,0.31368 c -1.04606,0.8035 -2.78071,1.40475 -4.11038,1.42469 -1.32962,0.0199 -0.94577,-0.32851 3.10781,-2.82131 3.14291,-1.93276 3.01164,-1.83214 3.65111,-2.79867 0.67483,-1.02002 1.75331,-3.18646 2.23545,-4.49059 0.63892,-1.72819 0.8537,-2.95359 0.5678,-3.23949 -0.71886,-0.71885 -4.9006,0.45659 -9.70262,2.72731 -2.3522,1.11227 -3.6104,1.81987 -3.86908,2.17592 -0.12664,0.1743 -0.6859,1.17254 -1.2428,2.21832 -1.14708,2.15405 -1.66213,2.99711 -1.80277,2.95087 -0.15002,-0.0493 -0.15726,-0.60431 -0.0223,-1.70881 0.12901,-1.0557 0.15652,-1.69761 0.0762,-1.77794 -0.11155,-0.11154 -3.66826,2.35156 -5.83232,4.03901 -1.35073,1.05324 -1.27652,0.92892 -1.76299,2.95378 -0.6242,2.59816 -0.79256,3.0898 -1.05805,3.0898 -0.21286,0 -0.30878,-0.13511 -0.80641,-1.13592 -0.23966,-0.48199 -0.49684,-0.91279 -0.57151,-0.95734 -0.10684,-0.0637 -0.18889,-0.0309 -0.38515,0.15446 -0.42706,0.4032 -1.72507,1.93787 -2.4169,2.85757 -2.42821,3.22802 -4.07179,7.18161 -4.07335,9.79835 l -3.2e-4,0.5366 0.21788,-0.13666 z"
         id="path3986"
         inkscape:connector-curvature="0" />
      <path
         inkscape:connector-curvature="0"
         id="path3988"
         d="m 298.02084,256.73059 c 0.19063,0 4.57334,-2.4332 4.95516,-2.75101 0.0115,-0.01 -0.0571,-0.0829 -0.15235,-0.16307 -0.11869,-0.0999 -0.20155,-0.24454 -0.26331,-0.4598 -0.0496,-0.17275 -0.0973,-0.32222 -0.10605,-0.33216 -0.009,-0.01 -0.5984,0.33093 -1.31034,0.7575 -0.71194,0.42657 -1.70621,1.01097 -2.20949,1.29867 l -0.91506,0.5231 -0.0158,0.56339 c -0.009,0.30986 -7e-4,0.56338 0.0173,0.56338 z m 4.61545,-3.86426 c 1.55302,-0.97415 4.44288,-2.95704 6.2529,-4.29045 5.0714,-3.73601 9.96779,-8.26225 12.78228,-11.81595 0.56676,-0.71562 0.65372,-0.80112 0.30437,-0.29929 -3.36099,4.82811 -8.3995,9.94071 -13.8076,14.01063 -1.29948,0.97794 -3.37571,2.42961 -4.4283,3.09621 -0.7318,0.46344 -0.72971,0.45509 -0.16621,0.66592 1.6497,0.61723 4.64842,-0.0763 8.1585,-1.88697 1.61487,-0.83302 3.36915,-1.94799 4.74928,-3.01852 0.92522,-0.71767 1.00898,-0.78985 0.96642,-0.83281 -0.0564,-0.0569 -0.41434,-0.12861 -1.25428,-0.25123 -0.82213,-0.12004 -1.3427,-0.24819 -1.3427,-0.33053 0,-0.0902 0.38493,-0.16121 1.97366,-0.36391 2.00712,-0.25608 1.94122,-0.23967 2.22853,-0.55485 0.87703,-0.96211 2.41211,-3.43628 3.18645,-5.13578 l 0.14308,-0.31402 -0.28587,0.21957 c -0.73224,0.56245 -1.9465,0.98333 -2.87727,0.99729 -0.93073,0.0139 -0.66204,-0.22996 2.17547,-1.97492 2.20004,-1.35294 2.10816,-1.2825 2.55579,-1.95908 0.47238,-0.71401 1.22731,-2.23052 1.56481,-3.14341 0.44725,-1.20974 0.59759,-2.06752 0.39746,-2.26765 -0.5032,-0.5032 -3.43042,0.31961 -6.79184,1.90912 -1.64654,0.77859 -2.52728,1.27391 -2.70836,1.52315 -0.0887,0.12201 -0.48013,0.82078 -0.86996,1.55282 -0.80296,1.50784 -1.16349,2.09798 -1.26194,2.06561 -0.10502,-0.0345 -0.11008,-0.42301 -0.0156,-1.19616 0.0903,-0.739 0.10956,-1.18833 0.0533,-1.24456 -0.0781,-0.0781 -2.56779,1.64609 -4.08263,2.82731 -0.94552,0.73727 -0.89357,0.65024 -1.2341,2.06765 -0.43694,1.81871 -0.55479,2.16286 -0.74063,2.16286 -0.14901,0 -0.21615,-0.0946 -0.56449,-0.79515 -0.16776,-0.33739 -0.34779,-0.63895 -0.40006,-0.67013 -0.0748,-0.0446 -0.13222,-0.0216 -0.2696,0.10812 -0.29895,0.28224 -1.20756,1.35651 -1.69184,2.0003 -1.69975,2.25962 -2.85025,5.02713 -2.85135,6.85885 l -2.2e-4,0.37562 0.15252,-0.0957 z"
         style="opacity:0.3;fill:#000000;fill-opacity:1" />
      <path
         style="opacity:0.3;fill:#000000;fill-opacity:1"
         d="m 69.111595,219.84261 c 1.02122,0 24.49998,-13.03497 26.54545,-14.73754 0.0615,-0.051 -0.30592,-0.44418 -0.8162,-0.87355 -0.63585,-0.53503 -1.07969,-1.31008 -1.41059,-2.46325 -0.26558,-0.92544 -0.52123,-1.72619 -0.5681,-1.77946 -0.047,-0.0533 -3.20573,1.77286 -7.01968,4.05806 -3.81394,2.2852 -9.14038,5.41592 -11.83653,6.95719 l -4.9021,2.80228 -0.0848,3.01815 c -0.0465,1.65997 -0.005,3.01812 0.0925,3.01812 z m 24.72556,-20.70137 c 8.319715,-5.21865 23.801105,-15.84127 33.497645,-22.98454 27.16817,-20.01429 53.3988,-44.26193 68.47639,-63.29965 3.0362,-3.83365 3.50205,-4.2917 1.63058,-1.6033 -18.00529,25.86484 -44.99733,53.25375 -73.96921,75.05684 -6.9615,5.23892 -18.08417,13.01577 -23.722985,16.5868 -3.92035,2.48273 -3.90918,2.43795 -0.89043,3.56743 8.837645,3.30657 24.902185,-0.40898 43.706205,-10.10878 8.65107,-4.46255 18.04896,-10.4356 25.44251,-16.1706 4.95657,-3.84469 5.40525,-4.23134 5.17725,-4.46147 -0.302,-0.30482 -2.21968,-0.68895 -6.71935,-1.3459 -4.40422,-0.64302 -7.19305,-1.32955 -7.19305,-1.7707 0,-0.48337 2.06215,-0.8636 10.57317,-1.94947 10.7524,-1.37188 10.3994,-1.28398 11.93855,-2.97245 4.69837,-5.15412 12.92199,-18.40859 17.07024,-27.51304 l 0.7665,-1.68227 -1.5314,1.1763 c -3.92272,3.01312 -10.42767,5.2678 -15.41394,5.3426 -4.98608,0.0747 -3.54665,-1.23193 11.65429,-10.57992 11.78592,-7.24787 11.29365,-6.87052 13.69165,-10.49502 2.53065,-3.82508 6.57494,-11.94922 8.38297,-16.83969 2.39592,-6.48075 3.20135,-11.075969 2.12922,-12.148099 -2.69572,-2.6957 -18.37724,1.7122 -36.38481,10.227399 -8.82074,4.17102 -13.53902,6.82452 -14.50907,8.15972 -0.47487,0.6536 -2.57209,4.39702 -4.66047,8.31869 -4.30157,8.07767 -6.233,11.23917 -6.7604,11.06577 -0.56257,-0.185 -0.58972,-2.26617 -0.0835,-6.40807 0.4838,-3.95887 0.58695,-6.36602 0.28575,-6.66725 -0.4183,-0.4183 -13.75596,8.81833 -21.87121,15.14627 -5.06522,3.94968 -4.78695,3.48348 -6.6112,11.07667 -2.34075,9.7431 -2.9721,11.58677 -3.96769,11.58677 -0.79823,0 -1.15793,-0.50665 -3.02405,-4.25972 -0.89873,-1.80745 -1.86313,-3.42295 -2.14315,-3.59003 -0.40065,-0.239 -0.70833,-0.11575 -1.44433,0.57923 -1.60147,1.512 -6.46899,7.26702 -9.06334,10.71589 -9.105815,12.1051 -15.269235,26.93107 -15.275065,36.74381 l -10e-4,2.01225 0.81703,-0.51247 z"
         id="path3990"
         inkscape:connector-curvature="0" />
      <path
         style="opacity:0.3;fill:#000000;fill-opacity:1"
         d="m 422.0148,77.378963 c 0.13616,0 3.26666,-1.738 3.53939,-1.96501 0.008,-0.007 -0.0408,-0.0592 -0.10882,-0.11647 -0.0848,-0.0713 -0.14396,-0.17468 -0.18808,-0.32843 -0.0354,-0.12339 -0.0695,-0.23016 -0.0757,-0.23726 -0.006,-0.007 -0.42743,0.23638 -0.93596,0.54107 -0.50852,0.30469 -1.21871,0.72212 -1.5782,0.92763 l -0.65361,0.37363 -0.0113,0.40242 c -0.006,0.22133 -6.7e-4,0.40242 0.0123,0.40242 z m 3.29674,-2.76018 c 1.1093,-0.69582 3.17349,-2.11217 4.46636,-3.06461 3.62242,-2.66857 7.11984,-5.90159 9.13018,-8.43995 0.40483,-0.51115 0.46694,-0.57223 0.21741,-0.21377 -2.4007,3.44864 -5.99964,7.1005 -9.86256,10.00758 -0.9282,0.69852 -2.41122,1.73543 -3.16307,2.21157 -0.52271,0.33103 -0.52122,0.32506 -0.11872,0.47565 1.17835,0.44088 3.3203,-0.0545 5.8275,-1.34783 1.15347,-0.59501 2.40653,-1.39141 3.39233,-2.15608 0.66088,-0.51263 0.7207,-0.56418 0.6903,-0.59486 -0.0403,-0.0406 -0.29595,-0.0919 -0.89591,-0.17946 -0.58723,-0.0857 -0.95907,-0.17727 -0.95907,-0.23609 0,-0.0644 0.27495,-0.11515 1.40975,-0.25993 1.43366,-0.18292 1.38659,-0.1712 1.59181,-0.39633 0.62645,-0.68721 1.72293,-2.45448 2.27603,-3.6684 l 0.1022,-0.2243 -0.20419,0.15684 c -0.52303,0.40175 -1.39035,0.70237 -2.05519,0.71234 -0.66481,0.01 -0.47288,-0.16425 1.55391,-1.41065 1.57145,-0.96639 1.50582,-0.91607 1.82555,-1.39934 0.33742,-0.51001 0.87666,-1.59323 1.11773,-2.24529 0.31946,-0.8641 0.42685,-1.4768 0.2839,-1.61975 -0.35943,-0.35942 -2.4503,0.22829 -4.85131,1.36365 -1.1761,0.55614 -1.8052,0.90994 -1.93454,1.08797 -0.0633,0.0871 -0.34295,0.58627 -0.6214,1.10916 -0.57354,1.07702 -0.83107,1.49855 -0.90139,1.47543 -0.075,-0.0247 -0.0786,-0.30215 -0.0111,-0.85441 0.0645,-0.52785 0.0783,-0.8488 0.0381,-0.88896 -0.0558,-0.0558 -1.83413,1.17577 -2.91616,2.0195 -0.67536,0.52662 -0.63826,0.46446 -0.88149,1.47689 -0.3121,1.29908 -0.39628,1.5449 -0.52903,1.5449 -0.10643,0 -0.15439,-0.0676 -0.4032,-0.56796 -0.11983,-0.241 -0.24842,-0.4564 -0.28576,-0.47867 -0.0534,-0.0319 -0.0944,-0.0154 -0.19257,0.0772 -0.21353,0.2016 -0.86253,0.96893 -1.20845,1.42878 -1.21411,1.61402 -2.0359,3.59081 -2.03667,4.89918 l -1.6e-4,0.2683 0.10893,-0.0683 z"
         id="path3992"
         inkscape:connector-curvature="0" />
      <path
         inkscape:connector-curvature="0"
         id="path3994"
         d="m 420.01183,119.70327 c 0.10893,0 2.61335,-1.39041 2.83153,-1.57202 0.006,-0.006 -0.0326,-0.0474 -0.0871,-0.0932 -0.0678,-0.057 -0.11516,-0.13974 -0.15046,-0.26274 -0.0283,-0.0987 -0.0556,-0.18413 -0.0606,-0.18981 -0.005,-0.006 -0.34195,0.1891 -0.74877,0.43286 -0.40682,0.24375 -0.97498,0.5777 -1.26257,0.74211 l -0.52289,0.2989 -0.009,0.32194 c -0.005,0.17707 -5.4e-4,0.32194 0.01,0.32194 z m 2.63741,-2.20816 c 0.88745,-0.55666 2.53881,-1.68975 3.57311,-2.4517 2.89796,-2.13488 5.69591,-4.72131 7.3042,-6.75201 0.32386,-0.40892 0.37356,-0.45779 0.17393,-0.17102 -1.92058,2.75893 -4.79975,5.68044 -7.8901,8.00612 -0.74257,0.55882 -1.92899,1.38835 -2.53048,1.76927 -0.41817,0.26483 -0.41698,0.26005 -0.095,0.38052 0.94269,0.35271 2.65625,-0.0436 4.66203,-1.07827 0.92279,-0.47601 1.92524,-1.11314 2.71389,-1.72488 0.5287,-0.4101 0.57656,-0.45134 0.55224,-0.47589 -0.0322,-0.0325 -0.23677,-0.0735 -0.71673,-0.14357 -0.46979,-0.0686 -0.76727,-0.14181 -0.76727,-0.18887 0,-0.0515 0.21997,-0.0921 1.12781,-0.20794 1.14694,-0.14634 1.10928,-0.13697 1.27346,-0.31707 0.50116,-0.54977 1.37835,-1.9636 1.82084,-2.93474 l 0.0818,-0.17944 -0.16335,0.12547 c -0.41843,0.3214 -1.1123,0.5619 -1.64417,0.56988 -0.53185,0.008 -0.37831,-0.1314 1.24313,-1.12853 1.25718,-0.77312 1.20467,-0.73286 1.46046,-1.11948 0.26993,-0.40801 0.70133,-1.27459 0.89419,-1.79625 0.25556,-0.69128 0.34148,-1.18144 0.22712,-1.2958 -0.28755,-0.28754 -1.96026,0.18263 -3.88108,1.09092 -0.94088,0.44492 -1.44417,0.72796 -1.54764,0.87038 -0.0507,0.0697 -0.27436,0.46902 -0.49712,0.88734 -0.45884,0.86162 -0.66486,1.19885 -0.72112,1.18035 -0.06,-0.0198 -0.0629,-0.24172 -0.009,-0.68353 0.0516,-0.42228 0.0626,-0.67905 0.0305,-0.71117 -0.0446,-0.0446 -1.46731,0.94062 -2.33294,1.61561 -0.5403,0.4213 -0.51061,0.37157 -0.7052,1.18152 -0.24968,1.03927 -0.31703,1.23593 -0.42323,1.23593 -0.0851,0 -0.12351,-0.0541 -0.32256,-0.45438 -0.0959,-0.1928 -0.19874,-0.36512 -0.22861,-0.38293 -0.0427,-0.0255 -0.0755,-0.0123 -0.15406,0.0618 -0.17083,0.16128 -0.69003,0.77515 -0.96677,1.14303 -0.97129,1.29122 -1.62873,2.87267 -1.62934,3.91937 l -1.3e-4,0.21464 0.0871,-0.0546 z"
         style="opacity:0.3;fill:#000000;fill-opacity:1" />
      <path
         style="opacity:0.3;fill:#000000;fill-opacity:1"
         d="m 418.00908,154.02734 c 0.0817,0 1.96,-1.0428 2.12363,-1.179 0.005,-0.005 -0.0245,-0.0356 -0.0653,-0.0699 -0.0508,-0.0427 -0.0864,-0.10481 -0.11285,-0.19706 -0.0212,-0.074 -0.0417,-0.13809 -0.0455,-0.14235 -0.004,-0.005 -0.25646,0.14182 -0.56157,0.32464 -0.30511,0.18281 -0.73123,0.43327 -0.94692,0.55658 l -0.39216,0.22417 -0.007,0.24145 c -0.004,0.1328 -4.1e-4,0.24146 0.007,0.24146 z m 1.97804,-1.65611 c 0.66558,-0.41749 1.90409,-1.2673 2.67981,-1.83875 2.17345,-1.60115 4.2719,-3.54096 5.4781,-5.06397 0.2429,-0.30668 0.28017,-0.34334 0.13045,-0.12826 -1.44042,2.06918 -3.59978,4.26029 -5.91752,6.00454 -0.55693,0.41911 -1.44673,1.04125 -1.89785,1.32694 -0.31362,0.19862 -0.31273,0.19503 -0.0712,0.28538 0.70702,0.26453 1.99217,-0.0327 3.4965,-0.80869 0.69208,-0.35701 1.44391,-0.83485 2.0354,-1.29365 0.39652,-0.30757 0.43241,-0.3385 0.41417,-0.35691 -0.0241,-0.0244 -0.17757,-0.0551 -0.53754,-0.10768 -0.35234,-0.0514 -0.57545,-0.10636 -0.57545,-0.14165 0,-0.0386 0.16498,-0.0691 0.84585,-0.15596 0.8602,-0.10975 0.83195,-0.10272 0.95509,-0.2378 0.37586,-0.41232 1.03375,-1.47268 1.36562,-2.20103 l 0.0614,-0.13458 -0.12252,0.0941 c -0.31382,0.24105 -0.83421,0.42142 -1.23311,0.42741 -0.39889,0.006 -0.28373,-0.0986 0.93234,-0.84639 0.94287,-0.57984 0.90349,-0.54964 1.09533,-0.8396 0.20245,-0.30601 0.52599,-0.95594 0.67064,-1.34718 0.19167,-0.51846 0.25611,-0.88607 0.17034,-0.97184 -0.21566,-0.21565 -1.47019,0.13697 -2.91079,0.81818 -0.70565,0.33369 -1.08312,0.54597 -1.16072,0.65278 -0.038,0.0523 -0.20577,0.35176 -0.37283,0.6655 -0.34413,0.64621 -0.49864,0.89913 -0.54084,0.88525 -0.045,-0.0148 -0.0472,-0.18128 -0.007,-0.51264 0.0387,-0.31671 0.0469,-0.50928 0.0229,-0.53337 -0.0335,-0.0335 -1.10048,0.70546 -1.74969,1.2117 -0.40523,0.31597 -0.38296,0.27867 -0.5289,0.88613 -0.18726,0.77944 -0.23777,0.92694 -0.31742,0.92694 -0.0638,0 -0.0926,-0.0406 -0.24192,-0.34079 -0.0719,-0.14459 -0.14905,-0.27383 -0.17145,-0.28719 -0.032,-0.0191 -0.0566,-0.009 -0.11555,0.0464 -0.12812,0.12096 -0.51751,0.58136 -0.72507,0.85726 -0.72846,0.96841 -1.22153,2.15449 -1.22199,2.93951 l -10e-5,0.16097 0.0653,-0.041 z"
         id="path3996"
         inkscape:connector-curvature="0" />
      <path
         style="fill:url(#linearGradient3958);fill-opacity:1"
         d="m 306.0446,101.13708 c 0.40849,0 9.8,-5.213991 10.61819,-5.895021 0.0246,-0.0204 -0.12237,-0.17767 -0.32648,-0.34942 -0.25434,-0.21401 -0.43188,-0.52403 -0.56424,-0.9853 -0.10623,-0.37017 -0.20849,-0.69047 -0.22724,-0.71178 -0.0188,-0.0213 -1.28229,0.70914 -2.80787,1.62322 -1.52558,0.91408 -3.65616,2.16637 -4.73462,2.78288 l -1.96084,1.12091 -0.0339,1.20726 c -0.0186,0.663991 -0.002,1.207251 0.037,1.207251 z m 9.89023,-8.280551 c 3.32789,-2.08746 9.52045,-6.33651 13.39907,-9.19382 10.86727,-8.00572 21.35953,-17.70478 27.39057,-25.31987 1.21448,-1.53346 1.40082,-1.71668 0.65223,-0.64132 -7.20212,10.34594 -17.99894,21.30151 -29.5877,30.02275 -2.7846,2.09557 -7.23367,5.20631 -9.4892,6.63472 -1.56814,0.99309 -1.56367,0.97518 -0.35617,1.42697 3.53506,1.32263 9.96088,-0.16359 17.48249,-4.04351 3.46043,-1.78502 7.21959,-4.17424 10.17701,-6.46824 1.98263,-1.53788 2.1621,-1.69254 2.0709,-1.78459 -0.1208,-0.12193 -0.88787,-0.27558 -2.68774,-0.53836 -1.76169,-0.25721 -2.87722,-0.53182 -2.87722,-0.70828 0,-0.19335 0.82486,-0.34544 4.22927,-0.77979 4.30096,-0.54875 4.15976,-0.51359 4.77542,-1.18898 1.87935,-2.06165 5.1688,-7.36344 6.8281,-11.00522 l 0.3066,-0.67291 -0.61256,0.47052 c -1.56909,1.20525 -4.17107,2.10712 -6.16558,2.13704 -1.99443,0.0299 -1.41866,-0.49277 4.66172,-4.23197 4.71437,-2.89915 4.51746,-2.74821 5.47666,-4.19801 1.01226,-1.53003 2.62998,-4.77969 3.35319,-6.73588 0.95837,-2.5923 1.28054,-4.43039 0.85169,-4.85924 -1.07829,-1.07828 -7.3509,0.68488 -14.55393,4.09096 -3.5283,1.66841 -5.41561,2.72981 -5.80363,3.26389 -0.18995,0.26144 -1.02884,1.75881 -1.86419,3.32748 -1.72063,3.23107 -2.4932,4.49567 -2.70416,4.42631 -0.22503,-0.074 -0.23589,-0.90647 -0.0334,-2.56323 0.19352,-1.58355 0.23478,-2.54641 0.1143,-2.6669 -0.16732,-0.16732 -5.50239,3.52733 -8.74849,6.05851 -2.02609,1.57987 -1.91478,1.39339 -2.64448,4.43067 -0.9363,3.89724 -1.18884,4.63471 -1.58708,4.63471 -0.31929,0 -0.46317,-0.20266 -1.20962,-1.70389 -0.35949,-0.72298 -0.74525,-1.36918 -0.85726,-1.43601 -0.16026,-0.0956 -0.28333,-0.0463 -0.57773,0.23169 -0.64059,0.6048 -2.5876,2.90681 -3.62534,4.28636 -3.64233,4.84204 -6.1077,10.77243 -6.11003,14.69753 l -4.8e-4,0.8049 0.32681,-0.20499 z"
         id="path3151"
         inkscape:connector-curvature="0" />
      <path
         inkscape:connector-curvature="0"
         id="path3960"
         d="m 300.02972,188.75804 c 0.27233,0 6.53333,-3.47599 7.07879,-3.93001 0.0164,-0.0136 -0.0816,-0.11845 -0.21765,-0.23295 -0.16956,-0.14267 -0.28792,-0.34935 -0.37616,-0.65686 -0.0708,-0.24678 -0.139,-0.46032 -0.1515,-0.47452 -0.0125,-0.0142 -0.85485,0.47276 -1.87191,1.08214 -1.01705,0.60939 -2.43743,1.44425 -3.15641,1.85525 l -1.30722,0.74728 -0.0226,0.80484 c -0.0124,0.44266 -0.001,0.80483 0.0247,0.80483 z m 6.59348,-5.52036 c 2.2186,-1.39164 6.34697,-4.22434 8.93271,-6.12921 7.24485,-5.33715 14.23968,-11.80319 18.26037,-16.87991 0.80966,-1.02231 0.93388,-1.14445 0.43482,-0.42755 -4.80141,6.89729 -11.99928,14.201 -19.72512,20.01516 -1.8564,1.39705 -4.82244,3.47087 -6.32613,4.42315 -1.04543,0.66206 -1.04245,0.65012 -0.23745,0.95131 2.35671,0.88175 6.64059,-0.10906 11.65499,-2.69567 2.30695,-1.19002 4.81306,-2.78283 6.78467,-4.31216 1.32175,-1.02525 1.4414,-1.12836 1.3806,-1.18973 -0.0805,-0.0813 -0.59191,-0.18372 -1.79183,-0.3589 -1.17446,-0.17148 -1.91814,-0.35455 -1.91814,-0.47219 0,-0.1289 0.5499,-0.23029 2.81951,-0.51986 2.86731,-0.36583 2.77317,-0.34239 3.18361,-0.79265 1.2529,-1.37444 3.44587,-4.90896 4.55207,-7.33681 l 0.2044,-0.44861 -0.40838,0.31368 c -1.04606,0.8035 -2.78071,1.40475 -4.11038,1.42469 -1.32962,0.0199 -0.94577,-0.32851 3.10781,-2.82131 3.14291,-1.93276 3.01164,-1.83214 3.65111,-2.79867 0.67483,-1.02002 1.75331,-3.18646 2.23545,-4.49059 0.63892,-1.72819 0.8537,-2.95359 0.5678,-3.23949 -0.71886,-0.71885 -4.9006,0.45659 -9.70262,2.72731 -2.3522,1.11227 -3.6104,1.81987 -3.86908,2.17592 -0.12664,0.1743 -0.6859,1.17254 -1.2428,2.21832 -1.14708,2.15405 -1.66213,2.99711 -1.80277,2.95087 -0.15002,-0.0493 -0.15726,-0.60431 -0.0223,-1.70881 0.12901,-1.0557 0.15652,-1.69761 0.0762,-1.77794 -0.11155,-0.11154 -3.66826,2.35156 -5.83232,4.03901 -1.35073,1.05324 -1.27652,0.92892 -1.76299,2.95378 -0.6242,2.59816 -0.79256,3.0898 -1.05805,3.0898 -0.21286,0 -0.30878,-0.13511 -0.80641,-1.13592 -0.23966,-0.48199 -0.49684,-0.91279 -0.57151,-0.95734 -0.10684,-0.0637 -0.18889,-0.0309 -0.38515,0.15446 -0.42706,0.4032 -1.72507,1.93787 -2.4169,2.85757 -2.42821,3.22802 -4.07179,7.18161 -4.07335,9.79835 l -3.2e-4,0.5366 0.21788,-0.13666 z"
         style="fill:url(#linearGradient3962);fill-opacity:1" />
      <path
         style="fill:url(#linearGradient3966);fill-opacity:1"
         d="m 298.02084,255.73065 c 0.19063,0 4.57334,-2.4332 4.95516,-2.75101 0.0115,-0.01 -0.0571,-0.0829 -0.15235,-0.16307 -0.11869,-0.0999 -0.20155,-0.24454 -0.26331,-0.4598 -0.0496,-0.17275 -0.0973,-0.32222 -0.10605,-0.33216 -0.009,-0.01 -0.5984,0.33093 -1.31034,0.7575 -0.71194,0.42657 -1.70621,1.01097 -2.20949,1.29867 l -0.91506,0.5231 -0.0158,0.56339 c -0.009,0.30986 -7e-4,0.56338 0.0173,0.56338 z m 4.61545,-3.86426 c 1.55302,-0.97415 4.44288,-2.95704 6.2529,-4.29045 5.0714,-3.73601 9.96779,-8.26225 12.78228,-11.81595 0.56676,-0.71562 0.65372,-0.80112 0.30437,-0.29929 -3.36099,4.82811 -8.3995,9.94071 -13.8076,14.01063 -1.29948,0.97794 -3.37571,2.42961 -4.4283,3.09621 -0.7318,0.46344 -0.72971,0.45509 -0.16621,0.66592 1.6497,0.61723 4.64842,-0.0763 8.1585,-1.88697 1.61487,-0.83302 3.36915,-1.94799 4.74928,-3.01852 0.92522,-0.71767 1.00898,-0.78985 0.96642,-0.83281 -0.0564,-0.0569 -0.41434,-0.12861 -1.25428,-0.25123 -0.82213,-0.12004 -1.3427,-0.24819 -1.3427,-0.33053 0,-0.0902 0.38493,-0.16121 1.97366,-0.36391 2.00712,-0.25608 1.94122,-0.23967 2.22853,-0.55485 0.87703,-0.96211 2.41211,-3.43628 3.18645,-5.13578 l 0.14308,-0.31402 -0.28587,0.21957 c -0.73224,0.56245 -1.9465,0.98333 -2.87727,0.99729 -0.93073,0.0139 -0.66204,-0.22996 2.17547,-1.97492 2.20004,-1.35294 2.10816,-1.2825 2.55579,-1.95908 0.47238,-0.71401 1.22731,-2.23052 1.56481,-3.14341 0.44725,-1.20974 0.59759,-2.06752 0.39746,-2.26765 -0.5032,-0.5032 -3.43042,0.31961 -6.79184,1.90912 -1.64654,0.77859 -2.52728,1.27391 -2.70836,1.52315 -0.0887,0.12201 -0.48013,0.82078 -0.86996,1.55282 -0.80296,1.50784 -1.16349,2.09798 -1.26194,2.06561 -0.10502,-0.0345 -0.11008,-0.42301 -0.0156,-1.19616 0.0903,-0.739 0.10956,-1.18833 0.0533,-1.24456 -0.0781,-0.0781 -2.56779,1.64609 -4.08263,2.82731 -0.94552,0.73727 -0.89357,0.65024 -1.2341,2.06765 -0.43694,1.81871 -0.55479,2.16286 -0.74063,2.16286 -0.14901,0 -0.21615,-0.0946 -0.56449,-0.79515 -0.16776,-0.33739 -0.34779,-0.63895 -0.40006,-0.67013 -0.0748,-0.0446 -0.13222,-0.0216 -0.2696,0.10812 -0.29895,0.28224 -1.20756,1.35651 -1.69184,2.0003 -1.69975,2.25962 -2.85025,5.02713 -2.85135,6.85885 l -2.2e-4,0.37562 0.15252,-0.0957 z"
         id="path3964"
         inkscape:connector-curvature="0" />
      <path
         inkscape:connector-curvature="0"
         id="path3968"
         d="m 69.111594,218.84267 c 1.02122,0 24.49998,-13.03497 26.54545,-14.73754 0.0615,-0.051 -0.30592,-0.44418 -0.8162,-0.87355 -0.63585,-0.53503 -1.07969,-1.31008 -1.41059,-2.46325 -0.26558,-0.92544 -0.52123,-1.72619 -0.5681,-1.77946 -0.047,-0.0533 -3.20573,1.77286 -7.01968,4.05806 -3.81394,2.2852 -9.14038,5.41592 -11.83653,6.95719 l -4.9021,2.80228 -0.0848,3.01815 c -0.0465,1.65997 -0.005,3.01812 0.0925,3.01812 z m 24.72556,-20.70137 c 8.319716,-5.21865 23.801106,-15.84127 33.497646,-22.98454 27.16817,-20.01429 53.3988,-44.26193 68.47639,-63.29965 3.0362,-3.83365 3.50205,-4.2917 1.63058,-1.6033 -18.00529,25.86484 -44.99733,53.25375 -73.96921,75.05684 -6.9615,5.23892 -18.08417,13.01577 -23.722986,16.5868 -3.92035,2.48273 -3.90918,2.43795 -0.89043,3.56743 8.837646,3.30657 24.902186,-0.40898 43.706206,-10.10878 8.65107,-4.46255 18.04896,-10.4356 25.44251,-16.1706 4.95657,-3.84469 5.40525,-4.23134 5.17725,-4.46147 -0.302,-0.30482 -2.21968,-0.68895 -6.71935,-1.3459 -4.40422,-0.64302 -7.19305,-1.32955 -7.19305,-1.7707 0,-0.48337 2.06215,-0.8636 10.57317,-1.94947 10.7524,-1.37188 10.3994,-1.28398 11.93855,-2.97245 4.69837,-5.15412 12.92199,-18.40859 17.07024,-27.51304 l 0.7665,-1.68227 -1.5314,1.1763 c -3.92272,3.01312 -10.42767,5.2678 -15.41394,5.3426 -4.98608,0.0747 -3.54665,-1.23193 11.65429,-10.57992 11.78592,-7.24787 11.29365,-6.87052 13.69165,-10.49502 2.53065,-3.82508 6.57494,-11.94922 8.38297,-16.83969 2.39592,-6.48075 3.20135,-11.07597 2.12922,-12.1481 -2.69572,-2.6957 -18.37724,1.7122 -36.38481,10.2274 -8.82074,4.17102 -13.53902,6.82452 -14.50907,8.15972 -0.47487,0.6536 -2.57209,4.39702 -4.66047,8.31869 -4.30157,8.07767 -6.233,11.23917 -6.7604,11.06577 -0.56257,-0.185 -0.58972,-2.26617 -0.0835,-6.40807 0.4838,-3.95887 0.58695,-6.36602 0.28575,-6.66725 -0.4183,-0.4183 -13.75596,8.81833 -21.87121,15.14627 -5.06522,3.94968 -4.78695,3.48348 -6.6112,11.07667 -2.34075,9.7431 -2.9721,11.58677 -3.96769,11.58677 -0.79823,0 -1.15793,-0.50665 -3.02405,-4.25972 -0.89873,-1.80745 -1.86313,-3.42295 -2.14315,-3.59003 -0.40065,-0.239 -0.70833,-0.11575 -1.44433,0.57923 -1.60147,1.512 -6.46899,7.26702 -9.06334,10.71589 -9.105816,12.1051 -15.269236,26.93107 -15.275066,36.74381 l -10e-4,2.01225 0.81703,-0.51247 z"
         style="fill:url(#linearGradient3970);fill-opacity:1" />
      <path
         inkscape:connector-curvature="0"
         id="path3972"
         d="m 422.0148,76.379021 c 0.13616,0 3.26666,-1.738 3.53939,-1.96501 0.008,-0.007 -0.0408,-0.0592 -0.10882,-0.11647 -0.0848,-0.0713 -0.14396,-0.17468 -0.18808,-0.32843 -0.0354,-0.12339 -0.0695,-0.23016 -0.0757,-0.23726 -0.006,-0.007 -0.42743,0.23638 -0.93596,0.54107 -0.50852,0.30469 -1.21871,0.72212 -1.5782,0.92763 l -0.65361,0.37363 -0.0113,0.40242 c -0.006,0.22133 -6.7e-4,0.40242 0.0123,0.40242 z m 3.29674,-2.76018 c 1.1093,-0.69582 3.17349,-2.11217 4.46636,-3.06461 3.62242,-2.66857 7.11984,-5.90159 9.13018,-8.43995 0.40483,-0.51115 0.46694,-0.57223 0.21741,-0.21377 -2.4007,3.44864 -5.99964,7.1005 -9.86256,10.00758 -0.9282,0.69852 -2.41122,1.73543 -3.16307,2.21157 -0.52271,0.33103 -0.52122,0.32506 -0.11872,0.47565 1.17835,0.44088 3.3203,-0.0545 5.8275,-1.34783 1.15347,-0.59501 2.40653,-1.39141 3.39233,-2.15608 0.66088,-0.51263 0.7207,-0.56418 0.6903,-0.59486 -0.0403,-0.0406 -0.29595,-0.0919 -0.89591,-0.17946 -0.58723,-0.0857 -0.95907,-0.17727 -0.95907,-0.23609 0,-0.0644 0.27495,-0.11515 1.40975,-0.25993 1.43366,-0.18292 1.38659,-0.1712 1.59181,-0.39633 0.62645,-0.68721 1.72293,-2.45448 2.27603,-3.6684 l 0.1022,-0.2243 -0.20419,0.15684 c -0.52303,0.40175 -1.39035,0.70237 -2.05519,0.71234 -0.66481,0.01 -0.47288,-0.16425 1.55391,-1.41065 1.57145,-0.96639 1.50582,-0.91607 1.82555,-1.39934 0.33742,-0.51001 0.87666,-1.59323 1.11773,-2.24529 0.31946,-0.8641 0.42685,-1.4768 0.2839,-1.61975 -0.35943,-0.35942 -2.4503,0.22829 -4.85131,1.36365 -1.1761,0.55614 -1.8052,0.90994 -1.93454,1.08797 -0.0633,0.0871 -0.34295,0.58627 -0.6214,1.10916 -0.57354,1.07702 -0.83107,1.49855 -0.90139,1.47543 -0.075,-0.0247 -0.0786,-0.30215 -0.0111,-0.85441 0.0645,-0.52785 0.0783,-0.8488 0.0381,-0.88896 -0.0558,-0.0558 -1.83413,1.17577 -2.91616,2.0195 -0.67536,0.52662 -0.63826,0.46446 -0.88149,1.47689 -0.3121,1.29908 -0.39628,1.5449 -0.52903,1.5449 -0.10643,0 -0.15439,-0.0676 -0.4032,-0.56796 -0.11983,-0.241 -0.24842,-0.4564 -0.28576,-0.47867 -0.0534,-0.0319 -0.0944,-0.0154 -0.19257,0.0772 -0.21353,0.2016 -0.86253,0.96893 -1.20845,1.42878 -1.21411,1.61402 -2.0359,3.59081 -2.03667,4.89918 l -1.6e-4,0.2683 0.10893,-0.0683 z"
         style="fill:url(#linearGradient3974);fill-opacity:1" />
      <path
         style="fill:url(#linearGradient3978);fill-opacity:1"
         d="m 420.01183,118.70333 c 0.10893,0 2.61335,-1.39041 2.83153,-1.57202 0.006,-0.006 -0.0326,-0.0474 -0.0871,-0.0932 -0.0678,-0.057 -0.11516,-0.13974 -0.15046,-0.26274 -0.0283,-0.0987 -0.0556,-0.18413 -0.0606,-0.18981 -0.005,-0.006 -0.34195,0.1891 -0.74877,0.43286 -0.40682,0.24375 -0.97498,0.5777 -1.26257,0.74211 l -0.52289,0.2989 -0.009,0.32194 c -0.005,0.17707 -5.4e-4,0.32194 0.01,0.32194 z m 2.63741,-2.20816 c 0.88745,-0.55666 2.53881,-1.68975 3.57311,-2.4517 2.89796,-2.13488 5.69591,-4.72131 7.3042,-6.75201 0.32386,-0.40892 0.37356,-0.45779 0.17393,-0.17102 -1.92058,2.75893 -4.79975,5.68044 -7.8901,8.00612 -0.74257,0.55882 -1.92899,1.38835 -2.53048,1.76927 -0.41817,0.26483 -0.41698,0.26005 -0.095,0.38052 0.94269,0.35271 2.65625,-0.0436 4.66203,-1.07827 0.92279,-0.47601 1.92524,-1.11314 2.71389,-1.72488 0.5287,-0.4101 0.57656,-0.45134 0.55224,-0.47589 -0.0322,-0.0325 -0.23677,-0.0735 -0.71673,-0.14357 -0.46979,-0.0686 -0.76727,-0.14181 -0.76727,-0.18887 0,-0.0515 0.21997,-0.0921 1.12781,-0.20794 1.14694,-0.14634 1.10928,-0.13697 1.27346,-0.31707 0.50116,-0.54977 1.37835,-1.9636 1.82084,-2.93474 l 0.0818,-0.17944 -0.16335,0.12547 c -0.41843,0.3214 -1.1123,0.5619 -1.64417,0.56988 -0.53185,0.008 -0.37831,-0.1314 1.24313,-1.12853 1.25718,-0.77312 1.20467,-0.73286 1.46046,-1.11948 0.26993,-0.40801 0.70133,-1.27459 0.89419,-1.79625 0.25556,-0.69128 0.34148,-1.18144 0.22712,-1.2958 -0.28755,-0.28754 -1.96026,0.18263 -3.88108,1.09092 -0.94088,0.44492 -1.44417,0.72796 -1.54764,0.87038 -0.0507,0.0697 -0.27436,0.46902 -0.49712,0.88734 -0.45884,0.86162 -0.66486,1.19885 -0.72112,1.18035 -0.06,-0.0198 -0.0629,-0.24172 -0.009,-0.68353 0.0516,-0.42228 0.0626,-0.67905 0.0305,-0.71117 -0.0446,-0.0446 -1.46731,0.94062 -2.33294,1.61561 -0.5403,0.4213 -0.51061,0.37157 -0.7052,1.18152 -0.24968,1.03927 -0.31703,1.23593 -0.42323,1.23593 -0.0851,0 -0.12351,-0.0541 -0.32256,-0.45438 -0.0959,-0.1928 -0.19874,-0.36512 -0.22861,-0.38293 -0.0427,-0.0255 -0.0755,-0.0123 -0.15406,0.0618 -0.17083,0.16128 -0.69003,0.77515 -0.96677,1.14303 -0.97129,1.29122 -1.62873,2.87267 -1.62934,3.91937 l -1.3e-4,0.21464 0.0871,-0.0546 z"
         id="path3976"
         inkscape:connector-curvature="0" />
      <path
         inkscape:connector-curvature="0"
         id="path3980"
         d="m 418.00908,153.0274 c 0.0817,0 1.96,-1.0428 2.12363,-1.179 0.005,-0.005 -0.0245,-0.0356 -0.0653,-0.0699 -0.0508,-0.0427 -0.0864,-0.10481 -0.11285,-0.19706 -0.0212,-0.074 -0.0417,-0.13809 -0.0455,-0.14235 -0.004,-0.005 -0.25646,0.14182 -0.56157,0.32464 -0.30511,0.18281 -0.73123,0.43327 -0.94692,0.55658 l -0.39216,0.22417 -0.007,0.24145 c -0.004,0.1328 -4.1e-4,0.24146 0.007,0.24146 z m 1.97804,-1.65611 c 0.66558,-0.41749 1.90409,-1.2673 2.67981,-1.83875 2.17345,-1.60115 4.2719,-3.54096 5.4781,-5.06397 0.2429,-0.30668 0.28017,-0.34334 0.13045,-0.12826 -1.44042,2.06918 -3.59978,4.26029 -5.91752,6.00454 -0.55693,0.41911 -1.44673,1.04125 -1.89785,1.32694 -0.31362,0.19862 -0.31273,0.19503 -0.0712,0.28538 0.70702,0.26453 1.99217,-0.0327 3.4965,-0.80869 0.69208,-0.35701 1.44391,-0.83485 2.0354,-1.29365 0.39652,-0.30757 0.43241,-0.3385 0.41417,-0.35691 -0.0241,-0.0244 -0.17757,-0.0551 -0.53754,-0.10768 -0.35234,-0.0514 -0.57545,-0.10636 -0.57545,-0.14165 0,-0.0386 0.16498,-0.0691 0.84585,-0.15596 0.8602,-0.10975 0.83195,-0.10272 0.95509,-0.2378 0.37586,-0.41232 1.03375,-1.47268 1.36562,-2.20103 l 0.0614,-0.13458 -0.12252,0.0941 c -0.31382,0.24105 -0.83421,0.42142 -1.23311,0.42741 -0.39889,0.006 -0.28373,-0.0986 0.93234,-0.84639 0.94287,-0.57984 0.90349,-0.54964 1.09533,-0.8396 0.20245,-0.30601 0.52599,-0.95594 0.67064,-1.34718 0.19167,-0.51846 0.25611,-0.88607 0.17034,-0.97184 -0.21566,-0.21565 -1.47019,0.13697 -2.91079,0.81818 -0.70565,0.33369 -1.08312,0.54597 -1.16072,0.65278 -0.038,0.0523 -0.20577,0.35176 -0.37283,0.6655 -0.34413,0.64621 -0.49864,0.89913 -0.54084,0.88525 -0.045,-0.0148 -0.0472,-0.18128 -0.007,-0.51264 0.0387,-0.31671 0.0469,-0.50928 0.0229,-0.53337 -0.0335,-0.0335 -1.10048,0.70546 -1.74969,1.2117 -0.40523,0.31597 -0.38296,0.27867 -0.5289,0.88613 -0.18726,0.77944 -0.23777,0.92694 -0.31742,0.92694 -0.0638,0 -0.0926,-0.0406 -0.24192,-0.34079 -0.0719,-0.14459 -0.14905,-0.27383 -0.17145,-0.28719 -0.032,-0.0191 -0.0566,-0.009 -0.11555,0.0464 -0.12812,0.12096 -0.51751,0.58136 -0.72507,0.85726 -0.72846,0.96841 -1.22153,2.15449 -1.22199,2.93951 l -10e-5,0.16097 0.0653,-0.041 z"
         style="fill:url(#linearGradient3982);fill-opacity:1" />
    </g>
    <g
       inkscape:groupmode="layer"
       id="layer5"
       inkscape:label="Highlights"
       style="display:inline">
      <rect
         ry="9"
         y="307"
         x="-265"
         height="42"
         width="42"
         id="rect4884"
         style="opacity:0.20;color:#bebebe;fill:none;stroke:#000000;stroke-width:2;stroke-miterlimit:4;stroke-opacity:1;stroke-dasharray:none;marker:none;visibility:visible;display:inline;overflow:visible;enable-background:accumulate"
         transform="matrix(0,1,-1,0,640,488)"
         clip-path="url(#clipPath4891)" />
      <rect
         style="opacity:0.20;color:#bebebe;fill:none;stroke:#000000;stroke-width:2;stroke-miterlimit:4;stroke-opacity:1;stroke-dasharray:none;marker:none;visibility:visible;display:inline;overflow:visible;enable-background:accumulate"
         id="rect5311"
         width="16"
         height="16"
         x="-228"
         y="304"
         ry="3"
         clip-path="url(#clipPath3855)"
         transform="matrix(0,1,-1,0,736,368)" />
      <rect
         ry="50"
         y="46"
         x="34"
         height="220"
         width="220"
         id="rect3858"
         style="opacity:0.20;color:#bebebe;fill:none;stroke:#000000;stroke-width:2;stroke-miterlimit:4;stroke-opacity:1;stroke-dasharray:none;marker:none;visibility:visible;display:inline;overflow:visible;enable-background:accumulate"
         clip-path="url(#clipPath3862)" />
      <rect
         ry="12.5"
         y="142"
         x="290"
         height="60"
         width="60"
         id="rect4175"
         style="opacity:0.20;color:#bebebe;fill:none;stroke:#000000;stroke-width:2;stroke-miterlimit:4;stroke-opacity:1;stroke-dasharray:none;marker:none;visibility:visible;display:inline;overflow:visible;enable-background:accumulate"
         clip-path="url(#clipPath4187)" />
      <rect
         style="opacity:0.20;color:#bebebe;fill:none;stroke:#000000;stroke-width:2;stroke-miterlimit:4;stroke-opacity:1;stroke-dasharray:none;marker:none;visibility:visible;display:inline;overflow:visible;enable-background:accumulate"
         id="rect4342"
         width="88"
         height="88"
         x="292"
         y="32"
         ry="18"
         clip-path="url(#clipPath4346)" />
    </g>
  </g>
</svg>
