<?xml version="1.0" encoding="UTF-8" standalone="no"?>
<!-- Created with Inkscape (http://www.inkscape.org/) -->

<svg
   xmlns:dc="http://purl.org/dc/elements/1.1/"
   xmlns:cc="http://creativecommons.org/ns#"
   xmlns:rdf="http://www.w3.org/1999/02/22-rdf-syntax-ns#"
   xmlns:svg="http://www.w3.org/2000/svg"
   xmlns="http://www.w3.org/2000/svg"
   xmlns:xlink="http://www.w3.org/1999/xlink"
   xmlns:sodipodi="http://sodipodi.sourceforge.net/DTD/sodipodi-0.dtd"
   xmlns:inkscape="http://www.inkscape.org/namespaces/inkscape"
   inkscape:export-ydpi="90.000000"
   inkscape:export-xdpi="90.000000"
   width="480"
   height="300"
   id="svg11300"
   sodipodi:version="0.32"
   inkscape:version="0.92.3 (2405546, 2018-03-11)"
   sodipodi:docname="kpat.svg"
   inkscape:output_extension="org.inkscape.output.svg.inkscape"
   version="1.0"
   style="display:inline;enable-background:new"
   inkscape:export-filename="/home/sam/moka-next-template.png">
  <sodipodi:namedview
     stroke="#ef2929"
     fill="#f57900"
     id="base"
     pagecolor="#777777"
     bordercolor="#666666"
     borderopacity="0.25490196"
     inkscape:pageopacity="0"
     inkscape:pageshadow="2"
     inkscape:zoom="2"
     inkscape:cx="205.63957"
     inkscape:cy="110.05355"
     inkscape:current-layer="layer6"
     showgrid="false"
     inkscape:grid-bbox="true"
     inkscape:document-units="px"
     inkscape:showpageshadow="false"
     inkscape:window-width="1920"
     inkscape:window-height="1012"
     inkscape:window-x="0"
     inkscape:window-y="0"
     width="400px"
     height="300px"
     inkscape:snap-nodes="true"
     inkscape:snap-bbox="true"
     gridtolerance="10000"
     inkscape:object-nodes="true"
     inkscape:snap-grids="true"
     showguides="true"
     inkscape:guide-bbox="true"
     inkscape:window-maximized="1"
     inkscape:bbox-nodes="true"
     inkscape:bbox-paths="true"
     inkscape:snap-bbox-edge-midpoints="true"
     inkscape:snap-bbox-midpoints="true">
    <inkscape:grid
       spacingy="1"
       spacingx="1"
       id="grid5883"
       type="xygrid"
       enabled="true"
       visible="true"
       empspacing="4"
       snapvisiblegridlinesonly="true"
       dotted="false"
       color="#000000"
       opacity="0.1254902"
       empcolor="#203ef3"
       empopacity="0.36470588"
       originx="0"
       originy="0" />
    <inkscape:grid
       type="xygrid"
       id="grid11592"
       empspacing="8"
       visible="true"
       enabled="false"
       spacingx="0.5"
       spacingy="0.5"
       color="#ff0000"
       opacity="0.1254902"
       empcolor="#ff0000"
       empopacity="0.25098039"
       snapvisiblegridlinesonly="true"
       dotted="true"
       originx="0"
       originy="0" />
  </sodipodi:namedview>
  <defs
     id="defs3">
    <linearGradient
       id="linearGradient939">
      <stop
         id="stop935"
         offset="0"
         style="stop-color:#e9e9e9;stop-opacity:1" />
      <stop
         id="stop937"
         offset="1"
         style="stop-color:#f4f4f4;stop-opacity:1" />
    </linearGradient>
    <linearGradient
       inkscape:collect="always"
       xlink:href="#linearGradient939"
       id="linearGradient4254"
       x1="35"
       y1="156"
       x2="253"
       y2="156"
       gradientUnits="userSpaceOnUse"
       gradientTransform="matrix(0,-1,1,0,-12,300)" />
    <linearGradient
       inkscape:collect="always"
       xlink:href="#linearGradient939"
       id="linearGradient4256"
       x1="417"
       y1="148"
       x2="431"
       y2="148"
       gradientUnits="userSpaceOnUse"
       gradientTransform="rotate(-90,424,148)" />
    <linearGradient
       inkscape:collect="always"
       xlink:href="#linearGradient939"
       id="linearGradient4260"
       x1="418"
       y1="68"
       x2="446"
       y2="68"
       gradientUnits="userSpaceOnUse"
       gradientTransform="rotate(-90,432,68)" />
    <linearGradient
       inkscape:collect="always"
       xlink:href="#linearGradient939"
       id="linearGradient4262"
       x1="292"
       y1="244"
       x2="332"
       y2="244"
       gradientUnits="userSpaceOnUse"
       gradientTransform="rotate(-90,312,244)" />
    <linearGradient
       inkscape:collect="always"
       xlink:href="#linearGradient939"
       id="linearGradient4264"
       x1="293"
       y1="76"
       x2="379"
       y2="76"
       gradientUnits="userSpaceOnUse"
       gradientTransform="rotate(-90,336,76)" />
    <linearGradient
       inkscape:collect="always"
       xlink:href="#linearGradient939"
       id="linearGradient4266"
       x1="291"
       y1="172"
       x2="349"
       y2="172"
       gradientUnits="userSpaceOnUse"
       gradientTransform="rotate(-90,320,172)" />
    <linearGradient
       inkscape:collect="always"
       xlink:href="#linearGradient939"
       id="linearGradient3870"
       gradientUnits="userSpaceOnUse"
       gradientTransform="rotate(-90,428,112)"
       x1="418"
       y1="112"
       x2="438"
       y2="112" />
    <linearGradient
       id="outerBackgroundGradient-62">
      <stop
         style="stop-color:#d43f3f;stop-opacity:1"
         offset="0"
         id="stop3864-8-6-62" />
      <stop
         style="stop-color:#ee5656;stop-opacity:1"
         offset="1"
         id="stop3866-9-1-54" />
    </linearGradient>
  </defs>
  <metadata
     id="metadata4">
    <rdf:RDF>
      <cc:Work
         rdf:about="">
        <dc:format>image/svg+xml</dc:format>
        <dc:type
           rdf:resource="http://purl.org/dc/dcmitype/StillImage" />
        <dc:creator>
          <cc:Agent>
            <dc:title>Sam Hewitt</dc:title>
          </cc:Agent>
        </dc:creator>
        <dc:source />
        <cc:license
           rdf:resource="" />
        <dc:title />
        <dc:subject>
          <rdf:Bag />
        </dc:subject>
        <dc:date />
        <dc:rights>
          <cc:Agent>
            <dc:title />
          </cc:Agent>
        </dc:rights>
        <dc:publisher>
          <cc:Agent>
            <dc:title />
          </cc:Agent>
        </dc:publisher>
        <dc:identifier />
        <dc:relation />
        <dc:language />
        <dc:coverage />
        <dc:description />
        <dc:contributor>
          <cc:Agent>
            <dc:title />
          </cc:Agent>
        </dc:contributor>
      </cc:Work>
      <cc:Work
         rdf:about="">
        <dc:format>image/svg+xml</dc:format>
        <dc:type
           rdf:resource="http://purl.org/dc/dcmitype/StillImage" />
      </cc:Work>
    </rdf:RDF>
  </metadata>
  <g
     style="display:inline"
     inkscape:groupmode="layer"
     inkscape:label="Icon"
     id="layer1">
    <g
       style="display:none"
       inkscape:label="Baseplate"
       id="layer7"
       inkscape:groupmode="layer">
      <text
         y="19.745117"
         xml:space="preserve"
         x="15.006836"
         style="font-style:normal;font-variant:normal;font-weight:normal;font-stretch:normal;line-height:0%;font-family:'DejaVu Sans';-inkscape-font-specification:'DejaVu Sans';display:inline;fill:#000000;fill-opacity:1;stroke:none;enable-background:new"
         inkscape:label="context"
         id="context"><tspan
           style="font-style:normal;font-variant:normal;font-weight:normal;font-stretch:normal;font-size:18px;line-height:1.25;font-family:'DejaVu Sans';-inkscape-font-specification:'DejaVu Sans'"
           y="19.745117"
           x="15.006836"
           sodipodi:role="line"
           id="tspan3933">apps</tspan></text>
      <text
         y="19.745117"
         xml:space="preserve"
         x="122.48828"
         style="font-style:normal;font-variant:normal;font-weight:bold;font-stretch:normal;line-height:0%;font-family:'DejaVu Sans';-inkscape-font-specification:'DejaVu Sans Bold';text-align:start;writing-mode:lr-tb;text-anchor:start;display:inline;fill:#000000;fill-opacity:1;stroke:none;enable-background:new"
         inkscape:label="icon-name"
         id="icon-name"><tspan
           style="font-style:normal;font-variant:normal;font-weight:bold;font-stretch:normal;font-size:18px;line-height:1.25;font-family:'DejaVu Sans';-inkscape-font-specification:'DejaVu Sans Bold'"
           y="19.745117"
           x="122.48828"
           sodipodi:role="line"
           id="tspan3937">kpat</tspan></text>
      <rect
         style="fill:#eeeeec;fill-opacity:1;fill-rule:nonzero;stroke:none;stroke-width:2;marker:none;visibility:visible;display:inline;overflow:visible;enable-background:accumulate"
         id="rect16x16"
         width="16"
         height="16"
         x="416"
         y="140"
         inkscape:label="16x16" />
      <rect
         style="fill:#d4d4d4;fill-opacity:1;fill-rule:nonzero;stroke:none;stroke-width:2;marker:none;visibility:visible;display:inline;overflow:visible;enable-background:accumulate"
         id="rect24x24"
         width="24"
         height="24"
         x="416"
         y="100"
         inkscape:label="24x24" />
      <rect
         style="fill:#eeeeec;fill-opacity:1;fill-rule:nonzero;stroke:none;stroke-width:2;marker:none;visibility:visible;display:inline;overflow:visible;enable-background:accumulate"
         id="rect32x32"
         width="32"
         height="32"
         x="416"
         y="52"
         inkscape:label="32x32" />
      <rect
         inkscape:label="22x22"
         y="101"
         x="417"
         height="22"
         width="22"
         id="rect22x22"
         style="fill:#eeeeec;fill-opacity:1;fill-rule:nonzero;stroke:none;stroke-width:2;marker:none;visibility:visible;display:inline;overflow:visible;enable-background:accumulate" />
      <rect
         inkscape:label="48x48"
         y="220"
         x="288"
         height="48"
         width="48"
         id="rect48x48"
         style="fill:#eeeeec;fill-opacity:1;fill-rule:nonzero;stroke:none;stroke-width:2;marker:none;visibility:visible;display:inline;overflow:visible;enable-background:accumulate" />
      <rect
         style="fill:#eeeeec;fill-opacity:1;fill-rule:nonzero;stroke:none;stroke-width:2;marker:none;visibility:visible;display:inline;overflow:visible;enable-background:accumulate"
         id="rect256x256"
         width="256"
         height="256"
         x="16"
         y="28"
         inkscape:label="256x256" />
      <rect
         style="fill:#eeeeec;fill-opacity:1;fill-rule:nonzero;stroke:none;stroke-width:2;marker:none;visibility:visible;display:inline;overflow:visible;enable-background:accumulate"
         id="rect64x64"
         width="64"
         height="64"
         x="288"
         y="140"
         inkscape:label="64x64" />
      <rect
         style="fill:#eeeeec;fill-opacity:1;fill-rule:nonzero;stroke:none;stroke-width:2;marker:none;visibility:visible;display:inline;overflow:visible;enable-background:accumulate"
         id="rect96x96"
         width="96"
         height="96"
         x="288"
         y="28"
         inkscape:label="96x96" />
    </g>
    <g
       inkscape:groupmode="layer"
       id="layer4"
       inkscape:label="Shadow"
       style="display:inline"
       sodipodi:insensitive="true">
      <rect
         ry="50"
         y="47"
         x="34"
         height="220"
         width="220"
         id="rect4114"
         style="opacity:0.1;color:#bebebe;fill:#000000;fill-opacity:1;fill-rule:nonzero;stroke:none;stroke-width:0;marker:none;visibility:visible;display:inline;overflow:visible;enable-background:accumulate" />
      <rect
         style="opacity:0.1;color:#bebebe;fill:#000000;fill-opacity:1;fill-rule:nonzero;stroke:none;stroke-width:0;marker:none;visibility:visible;display:inline;overflow:visible;enable-background:accumulate"
         id="rect4120"
         width="30"
         height="30"
         x="417"
         y="54"
         ry="7" />
      <rect
         transform="scale(1,-1)"
         ry="9"
         y="-266"
         x="291"
         height="42"
         width="42"
         id="rect4122"
         style="opacity:0.1;color:#bebebe;fill:#000000;fill-opacity:1;fill-rule:nonzero;stroke:none;stroke-width:0;marker:none;visibility:visible;display:inline;overflow:visible;enable-background:accumulate" />
      <rect
         style="opacity:0.1;color:#bebebe;fill:#000000;fill-opacity:1;fill-rule:nonzero;stroke:none;stroke-width:0;marker:none;visibility:visible;display:inline;overflow:visible;enable-background:accumulate"
         id="rect4124"
         width="88"
         height="88"
         x="292"
         y="33"
         ry="18" />
      <rect
         ry="12.5"
         y="143"
         x="290"
         height="60"
         width="60"
         id="rect4126"
         style="opacity:0.1;color:#bebebe;fill:#000000;fill-opacity:1;fill-rule:nonzero;stroke:none;stroke-width:0;marker:none;visibility:visible;display:inline;overflow:visible;enable-background:accumulate" />
      <path
         id="path4268"
         d="m 422,101 c -2.77,0 -5,2.23 -5,5 l 0,12 c 0,2.77 2.23,5 5,5 l 12,0 c 2.77,0 5,-2.23 5,-5 l 0,-12 c 0,-2.77 -2.23,-5 -5,-5 z"
         style="opacity:0.1;color:#bebebe;fill:#000000;fill-opacity:1;fill-rule:nonzero;stroke:none;stroke-width:0;marker:none;visibility:visible;display:inline;overflow:visible;enable-background:accumulate"
         inkscape:connector-curvature="0"
         sodipodi:nodetypes="sssssssss" />
      <path
         id="path4270"
         d="m 419,140 c -1.662,0 -3,1.338 -3,3 l 0,10 c 0,1.662 1.338,3 3,3 l 10,0 c 1.662,0 3,-1.338 3,-3 l 0,-10 c 0,-1.662 -1.338,-3 -3,-3 z"
         style="opacity:0.1;color:#bebebe;fill:#000000;fill-opacity:1;fill-rule:nonzero;stroke:none;stroke-width:0;marker:none;visibility:visible;display:inline;overflow:visible;enable-background:accumulate"
         inkscape:connector-curvature="0"
         sodipodi:nodetypes="sssssssss" />
    </g>
    <g
       inkscape:groupmode="layer"
       id="layer2"
       inkscape:label="Background"
       style="display:inline">
      <path
         style="color:#bebebe;fill:url(#linearGradient4254);fill-opacity:1.0;fill-rule:nonzero;stroke:none;stroke-width:2;marker:none;visibility:visible;display:inline;overflow:visible;enable-background:accumulate"
         d="M 84 46.5 C 56.568735 46.5 34.5 68.568732 34.5 96 L 34.5 216 C 34.5 243.43127 56.568735 265.5 84 265.5 L 204 265.5 C 231.43127 265.5 253.5 243.43127 253.5 216 L 253.5 96 C 253.5 68.568732 231.43127 46.5 204 46.5 L 84 46.5 z "
         id="path4200" />
      <path
         style="color:#bebebe;fill:url(#linearGradient4256);fill-opacity:1.0;fill-rule:nonzero;stroke:none;stroke-width:2;marker:none;visibility:visible;display:inline;overflow:visible;enable-background:accumulate"
         d="M 419 140.5 C 417.6156 140.5 416.5 141.6156 416.5 143 L 416.5 153 C 416.5 154.3844 417.6156 155.5 419 155.5 L 429 155.5 C 430.3844 155.5 431.5 154.3844 431.5 153 L 431.5 143 C 431.5 141.6156 430.3844 140.5 429 140.5 L 419 140.5 z "
         id="path4202" />
      <path
         style="color:#bebebe;fill:url(#linearGradient3870);fill-opacity:1.0;fill-rule:nonzero;stroke:none;stroke-width:2;marker:none;visibility:visible;display:inline;overflow:visible;enable-background:accumulate"
         d="M 422 101.5 C 419.50301 101.5 417.5 103.50301 417.5 106 L 417.5 118 C 417.5 120.49699 419.50301 122.5 422 122.5 L 434 122.5 C 436.49699 122.5 438.5 120.49699 438.5 118 L 438.5 106 C 438.5 103.50301 436.49699 101.5 434 101.5 L 422 101.5 z "
         id="path4204" />
      <path
         style="color:#bebebe;fill:url(#linearGradient4260);fill-opacity:1.0;fill-rule:nonzero;stroke:none;stroke-width:2;marker:none;visibility:visible;display:inline;overflow:visible;enable-background:accumulate"
         d="M 424 53.5 C 420.39346 53.5 417.5 56.393464 417.5 60 L 417.5 76 C 417.5 79.606536 420.39346 82.5 424 82.5 L 440 82.5 C 443.60654 82.5 446.5 79.606536 446.5 76 L 446.5 60 C 446.5 56.393464 443.60654 53.5 440 53.5 L 424 53.5 z "
         id="path4206" />
      <path
         style="color:#bebebe;fill:url(#linearGradient4262);fill-opacity:1.0;fill-rule:nonzero;stroke:none;stroke-width:2;marker:none;visibility:visible;display:inline;overflow:visible;enable-background:accumulate"
         d="M 300 223.5 C 295.28469 223.5 291.5 227.28469 291.5 232 L 291.5 256 C 291.5 260.71531 295.28469 264.5 300 264.5 L 324 264.5 C 328.71531 264.5 332.5 260.71531 332.5 256 L 332.5 232 C 332.5 227.28469 328.71531 223.5 324 223.5 L 300 223.5 z "
         id="path4208" />
      <path
         style="color:#bebebe;fill:url(#linearGradient4264);fill-opacity:1.0;fill-rule:nonzero;stroke:none;stroke-width:2;marker:none;visibility:visible;display:inline;overflow:visible;enable-background:accumulate"
         d="M 310 32.5 C 300.29745 32.5 292.5 40.297452 292.5 50 L 292.5 102 C 292.5 111.70255 300.29745 119.5 310 119.5 L 362 119.5 C 371.70255 119.5 379.5 111.70255 379.5 102 L 379.5 50 C 379.5 40.297452 371.70255 32.5 362 32.5 L 310 32.5 z "
         id="path4210" />
      <path
         style="color:#bebebe;fill:url(#linearGradient4266);fill-opacity:1.0;fill-rule:nonzero;stroke:none;stroke-width:2;marker:none;visibility:visible;display:inline;overflow:visible;enable-background:accumulate"
         d="M 302.5 142.5 C 295.84498 142.5 290.5 147.84498 290.5 154.5 L 290.5 189.5 C 290.5 196.15502 295.84498 201.5 302.5 201.5 L 337.5 201.5 C 344.15502 201.5 349.5 196.15502 349.5 189.5 L 349.5 154.5 C 349.5 147.84498 344.15502 142.5 337.5 142.5 L 302.5 142.5 z "
         id="path4212" />
    </g>
    <g
       inkscape:groupmode="layer"
       id="layer6"
       inkscape:label="Symbols"
       style="display:inline">
      <path
         style="display:inline;opacity:0.1;fill:#000000;stroke:none;stroke-width:0.04447137px;stroke-linecap:butt;stroke-linejoin:miter;stroke-opacity:1;enable-background:new"
         d="m 428.44597,78.808412 c 1.54047,-0.949765 2.26987,-2.016792 2.54686,-3.725794 0.13101,-0.808274 0.16158,-1.215319 0.0879,-1.1698 -0.0324,0.01989 -0.24463,0.162281 -0.47184,0.316307 -0.79325,0.537738 -1.7679,0.934915 -2.61095,1.063961 -0.59548,0.09116 -1.57227,0.06033 -1.97935,-0.06243 -1.26189,-0.380638 -2.18998,-1.157188 -2.69044,-2.251169 -0.20227,-0.442168 -0.289,-0.833437 -0.3192,-1.440202 -0.0458,-0.919914 0.0859,-1.853909 0.35275,-2.50093 0.38596,-0.936059 0.71941,-1.3147 2.73645,-3.107219 2.34733,-2.086045 3.71315,-3.633734 5.34764,-6.059719 l 0.55824,-0.828549 0.22052,0.338486 c 0.41801,0.641614 1.27912,1.853667 1.71086,2.40816 1.09718,1.409099 2.35528,2.7095 4.22423,4.366296 1.62544,1.440905 1.94668,1.796222 2.34475,2.593482 0.32509,0.651098 0.45052,1.216974 0.48873,2.205047 0.0384,0.991005 -0.0798,1.590392 -0.45384,2.302145 -0.53431,1.016778 -1.73679,1.858237 -2.93302,2.052409 -0.40188,0.06526 -1.20618,0.05348 -1.65324,-0.02423 -0.50035,-0.08694 -1.32164,-0.360038 -1.78825,-0.594649 -0.19825,-0.09967 -0.55247,-0.311418 -0.78714,-0.470523 -0.23467,-0.159106 -0.44613,-0.289281 -0.4699,-0.289281 -0.0457,0 -0.0354,0.130659 0.0753,0.956133 0.25308,1.887202 0.96164,2.929385 2.73073,4.016452 l 0.15565,0.09565 -3.86696,7.78e-4 -3.86698,7.77e-4 0.31059,-0.191488 z"
         id="path106-6-7-3-3"
         inkscape:connector-curvature="0" />
      <path
         style="display:inline;opacity:0.1;fill:#000000;stroke:none;stroke-width:0.35577127px;stroke-linecap:butt;stroke-linejoin:miter;stroke-opacity:1;enable-background:new"
         d="m 115.56822,235.46605 c 12.32372,-7.59809 18.15892,-16.13435 20.3749,-29.80632 1.04806,-6.4662 1.29256,-9.72263 0.70264,-9.35844 -0.25841,0.15953 -1.95699,1.2982 -3.77464,2.53038 -6.34599,4.30194 -14.14322,7.47934 -20.88765,8.51177 -4.76376,0.72925 -12.578136,0.48263 -15.83483,-0.49973 -10.095115,-3.04512 -17.519841,-9.25762 -21.523486,-18.00938 -1.618236,-3.53737 -2.311977,-6.6675 -2.553559,-11.52166 -0.366266,-7.35931 0.687585,-14.83126 2.821897,-20.00746 3.087743,-7.4885 5.755403,-10.51759 21.891687,-24.85773 18.778671,-16.68839 29.705261,-29.06993 42.781151,-48.477797 l 4.46584,-6.628403 1.76422,2.707868 c 3.34416,5.132925 10.23296,14.829365 13.68697,19.265335 8.77741,11.272767 18.84222,21.676047 33.79384,34.930347 13.0035,11.52733 15.57338,14.36984 18.75793,20.74787 2.60078,5.20884 3.60417,9.73583 3.90992,17.64043 0.30664,7.92807 -0.63866,12.7231 -3.63079,18.41715 -4.27444,8.13426 -13.89433,14.86591 -23.46414,16.41932 -3.21504,0.52188 -9.64947,0.42756 -13.22593,-0.19387 -4.00282,-0.69551 -10.57309,-2.88032 -14.30598,-4.75719 -1.58606,-0.79745 -4.41977,-2.49133 -6.29715,-3.7642 -1.87737,-1.27285 -3.56905,-2.31428 -3.75927,-2.31428 -0.36582,0 -0.28355,1.0453 0.60207,7.64908 2.0247,15.09769 7.69321,23.43514 21.84593,32.13171 l 1.2452,0.76515 -30.93576,0.007 -30.93572,0.007 2.48471,-1.53193 z"
         id="path106-2"
         inkscape:connector-curvature="0" />
      <path
         style="display:inline;opacity:0.1;fill:#000000;stroke:none;stroke-width:0.12353171px;stroke-linecap:butt;stroke-linejoin:miter;stroke-opacity:1;enable-background:new"
         d="m 326.12784,104.46823 c 4.27908,-2.63823 6.30518,-5.602218 7.07463,-10.349428 0.36391,-2.24521 0.4488,-3.375919 0.24397,-3.249459 -0.0897,0.0553 -0.67951,0.45076 -1.31063,0.8786 -2.20347,1.49373 -4.91085,2.597 -7.25266,2.95547 -1.65409,0.25322 -4.36742,0.16759 -5.49821,-0.17351 -3.50526,-1.05733 -6.08328,-3.21445 -7.47344,-6.253259 -0.56188,-1.228255 -0.80277,-2.315101 -0.88664,-4.000571 -0.12718,-2.555322 0.23874,-5.14975 0.97982,-6.947038 1.07214,-2.600173 1.9984,-3.651942 7.60127,-8.631157 6.52038,-5.794584 10.31434,-10.09373 14.85457,-16.832564 l 1.55065,-2.301534 0.61257,0.940235 c 1.16117,1.782263 3.55311,5.149081 4.75242,6.68935 3.04772,3.914157 6.54244,7.5264 11.73398,12.128592 4.5151,4.002543 5.40742,4.989529 6.51317,7.204122 0.90304,1.808628 1.25144,3.380493 1.35761,6.125148 0.10647,2.752799 -0.22177,4.417748 -1.26069,6.394846 -1.48419,2.82439 -4.82443,5.16177 -8.14728,5.70115 -1.11633,0.181209 -3.35051,0.14846 -4.59233,-0.0673 -1.38987,-0.24149 -3.67121,-1.000111 -4.96736,-1.6518 -0.55071,-0.27689 -1.53464,-0.86504 -2.18651,-1.30701 -0.65186,-0.44197 -1.23925,-0.80357 -1.3053,-0.80357 -0.12702,0 -0.0985,0.36295 0.20905,2.65593 0.70302,5.24225 2.67126,8.137207 7.58539,11.156847 l 0.43237,0.26568 -10.74158,0.002 -10.74158,0.002 0.86274,-0.53192 z"
         id="path106-6-6"
         inkscape:connector-curvature="0" />
      <path
         style="display:inline;opacity:0.1;fill:#000000;stroke:none;stroke-width:0.08894283px;stroke-linecap:butt;stroke-linejoin:miter;stroke-opacity:1;enable-background:new"
         d="m 312.89206,192.61604 c 3.08093,-1.89953 4.53973,-4.03357 5.09373,-7.45158 0.26201,-1.61655 0.32313,-2.43066 0.17566,-2.33961 -0.0647,0.0398 -0.48926,0.32456 -0.94366,0.6326 -1.5865,1.07548 -3.53581,1.86984 -5.22192,2.12794 -1.19094,0.18231 -3.14453,0.12067 -3.95871,-0.12494 -2.52378,-0.76127 -4.37995,-2.31439 -5.38086,-4.50234 -0.40457,-0.88435 -0.578,-1.66688 -0.63839,-2.88041 -0.0916,-1.83984 0.17188,-3.70782 0.70547,-5.00187 0.77194,-1.87212 1.43885,-2.62941 5.47292,-6.21443 4.69466,-4.1721 7.42631,-7.26748 10.69529,-12.11945 l 1.11646,-1.65711 0.44106,0.67697 c 0.83603,1.28324 2.55823,3.70733 3.42174,4.81634 2.19434,2.81818 4.71055,5.41901 8.44846,8.73258 3.25087,2.88183 3.89335,3.59247 4.68948,5.18697 0.65019,1.30222 0.90105,2.43396 0.97748,4.41011 0.0766,1.98201 -0.15967,3.18078 -0.9077,4.60429 -1.0686,2.03357 -3.47358,3.71646 -5.86604,4.10483 -0.80374,0.13047 -2.41236,0.10688 -3.30648,-0.0485 -1.0007,-0.17388 -2.64326,-0.72008 -3.57649,-1.18929 -0.39651,-0.19937 -1.10494,-0.62284 -1.57429,-0.94105 -0.46934,-0.31822 -0.89226,-0.57857 -0.93981,-0.57857 -0.0915,0 -0.071,0.26132 0.15052,1.91227 0.50617,3.77442 1.9233,5.85878 5.46148,8.03292 l 0.3113,0.19129 -7.73395,0.002 -7.73393,0.002 0.62118,-0.38299 z"
         id="path106-6-7-35"
         inkscape:connector-curvature="0" />
      <path
         style="display:inline;opacity:0.1;fill:#000000;stroke:none;stroke-width:0.06176592px;stroke-linecap:butt;stroke-linejoin:miter;stroke-opacity:1;enable-background:new"
         d="m 307.06391,258.73461 c 2.13953,-1.31913 3.1526,-2.80111 3.53732,-5.17472 0.18196,-1.12261 0.22439,-1.68796 0.12198,-1.62474 -0.0448,0.0276 -0.33975,0.2254 -0.65531,0.43932 -1.10175,0.74686 -2.45543,1.2985 -3.62635,1.47774 -0.82703,0.12661 -2.18369,0.0838 -2.74908,-0.0867 -1.75266,-0.52867 -3.04165,-1.60722 -3.73675,-3.12662 -0.28092,-0.61416 -0.40137,-1.15757 -0.44332,-2.0003 -0.0635,-1.27766 0.11936,-2.57489 0.48992,-3.47353 0.53607,-1.30009 0.9992,-1.82599 3.80064,-4.3156 3.2602,-2.89728 5.15717,-5.04685 7.42731,-8.41627 l 0.77532,-1.15077 0.30627,0.47011 c 0.58059,0.89114 1.77655,2.57456 2.37623,3.34468 1.52385,1.95709 3.27122,3.76322 5.867,6.06431 2.25755,2.00126 2.70369,2.49477 3.25657,3.60206 0.45153,0.90432 0.62574,1.69027 0.67881,3.06258 0.0532,1.37641 -0.11089,2.20888 -0.63034,3.19745 -0.74209,1.41217 -2.41223,2.58088 -4.07364,2.85057 -0.55818,0.0907 -1.67527,0.0742 -2.29617,-0.0337 -0.69493,-0.12073 -1.83562,-0.50005 -2.48369,-0.82589 -0.27536,-0.13845 -0.76732,-0.43253 -1.09326,-0.65352 -0.32592,-0.22098 -0.61964,-0.40177 -0.65265,-0.40177 -0.0636,0 -0.0494,0.18148 0.10453,1.32795 0.3515,2.62114 1.33563,4.0686 3.7927,5.57843 l 0.21619,0.13285 -5.3708,7.3e-4 -5.3708,7.4e-4 0.43137,-0.26597 z"
         id="path106-6-7-5-5"
         inkscape:connector-curvature="0" />
      <path
         style="display:inline;opacity:0.1;fill:#000000;stroke:none;stroke-width:0.02470636px;stroke-linecap:butt;stroke-linejoin:miter;stroke-opacity:1;enable-background:new"
         d="m 422.02564,153.89392 c 0.85582,-0.52765 1.26105,-1.12042 1.41492,-2.06989 0.0729,-0.44905 0.0897,-0.67518 0.0487,-0.64987 -0.018,0.0112 -0.13596,0.0901 -0.26213,0.1757 -0.44069,0.29876 -0.98215,0.51941 -1.45052,0.5911 -0.33082,0.0508 -0.87348,0.0335 -1.09966,-0.0346 -0.70103,-0.21146 -1.21665,-0.64288 -1.49466,-1.25063 -0.11238,-0.24565 -0.16057,-0.46302 -0.17734,-0.80012 -0.0254,-0.51107 0.0479,-1.02995 0.19596,-1.38941 0.21443,-0.52004 0.39968,-0.7304 1.52027,-1.72625 1.30406,-1.1589 2.06285,-2.01872 2.9709,-3.3665 l 0.31015,-0.4603 0.1225,0.18805 c 0.23223,0.35646 0.71061,1.02981 0.95048,1.33787 0.60955,0.78284 1.30849,1.50528 2.34679,2.42573 0.90304,0.80048 1.0815,0.99789 1.30265,1.44081 0.18061,0.36173 0.25029,0.67609 0.27151,1.22504 0.0214,0.55054 -0.0444,0.88355 -0.25213,1.27896 -0.29684,0.56489 -0.96489,1.03236 -1.62947,1.14024 -0.22326,0.0364 -0.67007,0.0296 -0.91846,-0.0139 -0.27796,-0.0484 -0.73424,-0.20002 -0.99347,-0.33035 -0.11,-0.0555 -0.30692,-0.17301 -0.4373,-0.26142 -0.13042,-0.0884 -0.24784,-0.16069 -0.26107,-0.16069 -0.0254,0 -0.0196,0.0726 0.0419,0.53119 0.1406,1.04844 0.53422,1.62744 1.51707,2.23136 l 0.0865,0.0531 -2.14832,4.5e-4 -2.14831,4.1e-4 0.17256,-0.10639 z"
         id="path106-6-7-2-3"
         inkscape:connector-curvature="0" />
      <path
         style="display:inline;fill:#000000;stroke:none;stroke-width:0.06176592px;stroke-linecap:butt;stroke-linejoin:miter;stroke-opacity:1;enable-background:new"
         d="m 307.06391,257.73461 c 2.13953,-1.31913 3.1526,-2.80111 3.53732,-5.17472 0.18196,-1.12261 0.22439,-1.68796 0.12198,-1.62474 -0.0448,0.0276 -0.33975,0.2254 -0.65531,0.43932 -1.10175,0.74686 -2.45543,1.2985 -3.62635,1.47774 -0.82703,0.12661 -2.18369,0.0838 -2.74908,-0.0867 -1.75266,-0.52867 -3.04165,-1.60722 -3.73675,-3.12662 -0.28092,-0.61416 -0.40137,-1.15757 -0.44332,-2.0003 -0.0635,-1.27766 0.11936,-2.57489 0.48992,-3.47353 0.53607,-1.30009 0.9992,-1.82599 3.80064,-4.3156 3.2602,-2.89728 5.15717,-5.04685 7.42731,-8.41627 l 0.77532,-1.15077 0.30627,0.47011 c 0.58059,0.89114 1.77655,2.57456 2.37623,3.34468 1.52385,1.95709 3.27122,3.76322 5.867,6.06431 2.25755,2.00126 2.70369,2.49477 3.25657,3.60206 0.45153,0.90432 0.62574,1.69027 0.67881,3.06258 0.0532,1.37641 -0.11089,2.20888 -0.63034,3.19745 -0.74209,1.41217 -2.41223,2.58088 -4.07364,2.85057 -0.55818,0.0907 -1.67527,0.0742 -2.29617,-0.0337 -0.69493,-0.12073 -1.83562,-0.50005 -2.48369,-0.82589 -0.27536,-0.13845 -0.76732,-0.43253 -1.09326,-0.65352 -0.32592,-0.22098 -0.61964,-0.40177 -0.65265,-0.40177 -0.0636,0 -0.0494,0.18148 0.10453,1.32795 0.3515,2.62114 1.33563,4.0686 3.7927,5.57843 l 0.21619,0.13285 -5.3708,7.3e-4 -5.3708,7.4e-4 0.43137,-0.26597 z"
         id="path106-6-7-5"
         inkscape:connector-curvature="0" />
      <path
         style="fill:#000000;stroke:none;stroke-width:0.35577127px;stroke-linecap:butt;stroke-linejoin:miter;stroke-opacity:1"
         d="m 115.56822,234.46605 c 12.32372,-7.59809 18.15892,-16.13435 20.3749,-29.80632 1.04806,-6.4662 1.29256,-9.72263 0.70264,-9.35844 -0.25841,0.15953 -1.95699,1.2982 -3.77464,2.53038 -6.34599,4.30194 -14.14322,7.47934 -20.88765,8.51177 -4.76376,0.72925 -12.578136,0.48263 -15.83483,-0.49973 -10.095115,-3.04512 -17.519841,-9.25762 -21.523486,-18.00938 -1.618236,-3.53737 -2.311977,-6.6675 -2.553559,-11.52166 -0.366266,-7.35931 0.687585,-14.83126 2.821897,-20.00746 3.087743,-7.4885 5.755403,-10.51759 21.891687,-24.85773 18.778671,-16.68839 29.705261,-29.06993 42.781151,-48.477794 l 4.46584,-6.628403 1.76422,2.707868 c 3.34416,5.132925 10.23296,14.829365 13.68697,19.265335 8.77741,11.272764 18.84222,21.676044 33.79384,34.930344 13.0035,11.52733 15.57338,14.36984 18.75793,20.74787 2.60078,5.20884 3.60417,9.73583 3.90992,17.64043 0.30664,7.92807 -0.63866,12.7231 -3.63079,18.41715 -4.27444,8.13426 -13.89433,14.86591 -23.46414,16.41932 -3.21504,0.52188 -9.64947,0.42756 -13.22593,-0.19387 -4.00282,-0.69551 -10.57309,-2.88032 -14.30598,-4.75719 -1.58606,-0.79745 -4.41977,-2.49133 -6.29715,-3.7642 -1.87737,-1.27285 -3.56905,-2.31428 -3.75927,-2.31428 -0.36582,0 -0.28355,1.0453 0.60207,7.64908 2.0247,15.09769 7.69321,23.43514 21.84593,32.13171 l 1.2452,0.76515 -30.93576,0.007 -30.93572,0.007 2.48471,-1.53193 z"
         id="path106"
         inkscape:connector-curvature="0" />
      <path
         style="display:inline;fill:#000000;stroke:none;stroke-width:0.12353171px;stroke-linecap:butt;stroke-linejoin:miter;stroke-opacity:1;enable-background:new"
         d="m 326.12784,103.46823 c 4.27908,-2.63823 6.30518,-5.602214 7.07463,-10.349424 0.36391,-2.24521 0.4488,-3.375919 0.24397,-3.249459 -0.0897,0.0553 -0.67951,0.45076 -1.31063,0.8786 -2.20347,1.49373 -4.91085,2.597 -7.25266,2.95547 -1.65409,0.25322 -4.36742,0.16759 -5.49821,-0.17351 -3.50526,-1.05733 -6.08328,-3.21445 -7.47344,-6.253259 -0.56188,-1.228255 -0.80277,-2.315101 -0.88664,-4.000571 -0.12718,-2.555322 0.23874,-5.14975 0.97982,-6.947038 1.07214,-2.600173 1.9984,-3.651942 7.60127,-8.631157 6.52038,-5.794584 10.31434,-10.09373 14.85457,-16.832564 l 1.55065,-2.301534 0.61257,0.940235 c 1.16117,1.782263 3.55311,5.149081 4.75242,6.68935 3.04772,3.914157 6.54244,7.5264 11.73398,12.128592 4.5151,4.002543 5.40742,4.989529 6.51317,7.204122 0.90304,1.808628 1.25144,3.380493 1.35761,6.125148 0.10647,2.752799 -0.22177,4.417748 -1.26069,6.394846 -1.48419,2.82439 -4.82443,5.16177 -8.14728,5.70115 -1.11633,0.181209 -3.35051,0.14846 -4.59233,-0.0673 -1.38987,-0.24149 -3.67121,-1.000111 -4.96736,-1.6518 -0.55071,-0.27689 -1.53464,-0.86504 -2.18651,-1.30701 -0.65186,-0.44197 -1.23925,-0.80357 -1.3053,-0.80357 -0.12702,0 -0.0985,0.36295 0.20905,2.65593 0.70302,5.24225 2.67126,8.137203 7.58539,11.156843 l 0.43237,0.26568 -10.74158,0.002 -10.74158,0.002 0.86274,-0.53192 z"
         id="path106-6"
         inkscape:connector-curvature="0" />
      <path
         style="display:inline;fill:#000000;stroke:none;stroke-width:0.08894283px;stroke-linecap:butt;stroke-linejoin:miter;stroke-opacity:1;enable-background:new"
         d="m 312.89206,191.61604 c 3.08093,-1.89953 4.53973,-4.03357 5.09373,-7.45158 0.26201,-1.61655 0.32313,-2.43066 0.17566,-2.33961 -0.0647,0.0398 -0.48926,0.32456 -0.94366,0.6326 -1.5865,1.07548 -3.53581,1.86984 -5.22192,2.12794 -1.19094,0.18231 -3.14453,0.12067 -3.95871,-0.12494 -2.52378,-0.76127 -4.37995,-2.31439 -5.38086,-4.50234 -0.40457,-0.88435 -0.578,-1.66688 -0.63839,-2.88041 -0.0916,-1.83984 0.17188,-3.70782 0.70547,-5.00187 0.77194,-1.87212 1.43885,-2.62941 5.47292,-6.21443 4.69466,-4.1721 7.42631,-7.26748 10.69529,-12.11945 l 1.11646,-1.65711 0.44106,0.67697 c 0.83603,1.28324 2.55823,3.70733 3.42174,4.81634 2.19434,2.81818 4.71055,5.41901 8.44846,8.73258 3.25087,2.88183 3.89335,3.59247 4.68948,5.18697 0.65019,1.30222 0.90105,2.43396 0.97748,4.41011 0.0766,1.98201 -0.15967,3.18078 -0.9077,4.60429 -1.0686,2.03357 -3.47358,3.71646 -5.86604,4.10483 -0.80374,0.13047 -2.41236,0.10688 -3.30648,-0.0485 -1.0007,-0.17388 -2.64326,-0.72008 -3.57649,-1.18929 -0.39651,-0.19937 -1.10494,-0.62284 -1.57429,-0.94105 -0.46934,-0.31822 -0.89226,-0.57857 -0.93981,-0.57857 -0.0915,0 -0.071,0.26132 0.15052,1.91227 0.50617,3.77442 1.9233,5.85878 5.46148,8.03292 l 0.3113,0.19129 -7.73395,0.002 -7.73393,0.002 0.62118,-0.38299 z"
         id="path106-6-7"
         inkscape:connector-curvature="0" />
      <path
         style="display:inline;fill:#000000;stroke:none;stroke-width:0.04447137px;stroke-linecap:butt;stroke-linejoin:miter;stroke-opacity:1;enable-background:new"
         d="m 428.44597,77.808412 c 1.54047,-0.949765 2.26987,-2.016792 2.54686,-3.725794 0.13101,-0.808274 0.16158,-1.215319 0.0879,-1.1698 -0.0324,0.01989 -0.24463,0.162281 -0.47184,0.316307 -0.79325,0.537738 -1.7679,0.934915 -2.61095,1.063961 -0.59548,0.09116 -1.57227,0.06033 -1.97935,-0.06243 -1.26189,-0.380638 -2.18998,-1.157188 -2.69044,-2.251169 -0.20227,-0.442168 -0.289,-0.833437 -0.3192,-1.440202 -0.0458,-0.919914 0.0859,-1.853909 0.35275,-2.50093 0.38596,-0.936059 0.71941,-1.3147 2.73645,-3.107219 2.34733,-2.086045 3.71315,-3.633734 5.34764,-6.059719 l 0.55824,-0.828549 0.22052,0.338486 c 0.41801,0.641614 1.27912,1.853667 1.71086,2.40816 1.09718,1.409099 2.35528,2.7095 4.22423,4.366296 1.62544,1.440905 1.94668,1.796222 2.34475,2.593482 0.32509,0.651098 0.45052,1.216974 0.48873,2.205047 0.0384,0.991005 -0.0798,1.590392 -0.45384,2.302145 -0.53431,1.016778 -1.73679,1.858237 -2.93302,2.052409 -0.40188,0.06526 -1.20618,0.05348 -1.65324,-0.02423 -0.50035,-0.08694 -1.32164,-0.360038 -1.78825,-0.594649 -0.19825,-0.09967 -0.55247,-0.311418 -0.78714,-0.470523 -0.23467,-0.159106 -0.44613,-0.289281 -0.4699,-0.289281 -0.0457,0 -0.0354,0.130659 0.0753,0.956133 0.25308,1.887202 0.96164,2.929385 2.73073,4.016452 l 0.15565,0.09565 -3.86696,7.78e-4 -3.86698,7.77e-4 0.31059,-0.191488 z"
         id="path106-6-7-3"
         inkscape:connector-curvature="0" />
      <path
         style="display:inline;opacity:0.1;fill:#000000;stroke:none;stroke-width:0.02964765px;stroke-linecap:butt;stroke-linejoin:miter;stroke-opacity:1;enable-background:new"
         d="m 425.63062,118.87235 c 1.02698,-0.63317 1.51326,-1.34453 1.69791,-2.48386 0.0874,-0.53885 0.10776,-0.81023 0.0586,-0.77988 -0.0215,0.0133 -0.16308,0.10824 -0.31454,0.21088 -0.52884,0.35849 -1.1786,0.62328 -1.74064,0.70932 -0.39699,0.0607 -1.04818,0.0402 -1.31958,-0.0416 -0.84127,-0.25377 -1.45998,-0.77146 -1.79362,-1.50077 -0.13486,-0.29479 -0.19266,-0.55563 -0.21279,-0.96014 -0.0305,-0.61329 0.0572,-1.23594 0.23514,-1.66729 0.25732,-0.62405 0.47963,-0.87648 1.82433,-2.07149 1.56488,-1.39071 2.47543,-2.4225 3.56509,-4.03982 l 0.37215,-0.55236 0.14703,0.22564 c 0.27867,0.42776 0.85274,1.23579 1.14057,1.60546 0.73145,0.93938 1.57019,1.80633 2.81616,2.91085 1.08364,0.96061 1.29779,1.19749 1.56317,1.729 0.21673,0.43407 0.30035,0.81132 0.32582,1.47003 0.0256,0.66067 -0.0532,1.06026 -0.30256,1.53478 -0.3562,0.67784 -1.15787,1.23882 -1.95536,1.36826 -0.26791,0.0434 -0.80412,0.0355 -1.10216,-0.0162 -0.33356,-0.058 -0.88109,-0.24001 -1.19216,-0.39643 -0.13217,-0.0665 -0.36832,-0.20761 -0.52476,-0.31368 -0.15645,-0.10608 -0.29742,-0.19285 -0.31328,-0.19285 -0.0305,0 -0.0236,0.0871 0.0502,0.6374 0.16874,1.25816 0.64112,1.95294 1.82051,2.67766 l 0.1038,0.0637 -2.57798,5.2e-4 -2.57798,5.2e-4 0.20704,-0.12767 z"
         id="path106-6-7-56-6"
         inkscape:connector-curvature="0" />
      <path
         style="display:inline;fill:#000000;stroke:none;stroke-width:0.02964765px;stroke-linecap:butt;stroke-linejoin:miter;stroke-opacity:1;enable-background:new"
         d="m 425.63062,117.87235 c 1.02698,-0.63317 1.51326,-1.34453 1.69791,-2.48386 0.0874,-0.53885 0.10776,-0.81023 0.0586,-0.77988 -0.0215,0.0133 -0.16308,0.10824 -0.31454,0.21088 -0.52884,0.35849 -1.1786,0.62328 -1.74064,0.70932 -0.39699,0.0607 -1.04818,0.0402 -1.31958,-0.0416 -0.84127,-0.25377 -1.45998,-0.77146 -1.79362,-1.50077 -0.13486,-0.29479 -0.19266,-0.55563 -0.21279,-0.96014 -0.0305,-0.61329 0.0572,-1.23594 0.23514,-1.66729 0.25732,-0.62405 0.47963,-0.87648 1.82433,-2.07149 1.56488,-1.39071 2.47543,-2.4225 3.56509,-4.03982 l 0.37215,-0.55236 0.14703,0.22564 c 0.27867,0.42776 0.85274,1.23579 1.14057,1.60546 0.73145,0.93938 1.57019,1.80633 2.81616,2.91085 1.08364,0.96061 1.29779,1.19749 1.56317,1.729 0.21673,0.43407 0.30035,0.81132 0.32582,1.47003 0.0256,0.66067 -0.0532,1.06026 -0.30256,1.53478 -0.3562,0.67784 -1.15787,1.23882 -1.95536,1.36826 -0.26791,0.0434 -0.80412,0.0355 -1.10216,-0.0162 -0.33356,-0.058 -0.88109,-0.24001 -1.19216,-0.39643 -0.13217,-0.0665 -0.36832,-0.20761 -0.52476,-0.31368 -0.15645,-0.10608 -0.29742,-0.19285 -0.31328,-0.19285 -0.0305,0 -0.0236,0.0871 0.0502,0.6374 0.16874,1.25816 0.64112,1.95294 1.82051,2.67766 l 0.1038,0.0637 -2.57798,5.2e-4 -2.57798,5.2e-4 0.20704,-0.12767 z"
         id="path106-6-7-56"
         inkscape:connector-curvature="0" />
      <path
         style="display:inline;fill:#000000;stroke:none;stroke-width:0.02470636px;stroke-linecap:butt;stroke-linejoin:miter;stroke-opacity:1;enable-background:new"
         d="m 422.02564,152.89392 c 0.85582,-0.52765 1.26105,-1.12042 1.41492,-2.06989 0.0729,-0.44905 0.0897,-0.67518 0.0487,-0.64987 -0.018,0.0112 -0.13596,0.0901 -0.26213,0.1757 -0.44069,0.29876 -0.98215,0.51941 -1.45052,0.5911 -0.33082,0.0508 -0.87348,0.0335 -1.09966,-0.0346 -0.70103,-0.21146 -1.21665,-0.64288 -1.49466,-1.25063 -0.11238,-0.24565 -0.16057,-0.46302 -0.17734,-0.80012 -0.0254,-0.51107 0.0479,-1.02995 0.19596,-1.38941 0.21443,-0.52004 0.39968,-0.7304 1.52027,-1.72625 1.30406,-1.1589 2.06285,-2.01872 2.9709,-3.3665 l 0.31015,-0.4603 0.1225,0.18805 c 0.23223,0.35646 0.71061,1.02981 0.95048,1.33787 0.60955,0.78284 1.30849,1.50528 2.34679,2.42573 0.90304,0.80048 1.0815,0.99789 1.30265,1.44081 0.18061,0.36173 0.25029,0.67609 0.27151,1.22504 0.0214,0.55054 -0.0444,0.88355 -0.25213,1.27896 -0.29684,0.56489 -0.96489,1.03236 -1.62947,1.14024 -0.22326,0.0364 -0.67007,0.0296 -0.91846,-0.0139 -0.27796,-0.0484 -0.73424,-0.20002 -0.99347,-0.33035 -0.11,-0.0555 -0.30692,-0.17301 -0.4373,-0.26142 -0.13042,-0.0884 -0.24784,-0.16069 -0.26107,-0.16069 -0.0254,0 -0.0196,0.0726 0.0419,0.53119 0.1406,1.04844 0.53422,1.62744 1.51707,2.23136 l 0.0865,0.0531 -2.14832,4.5e-4 -2.14831,4.1e-4 0.17256,-0.10639 z"
         id="path106-6-7-2"
         inkscape:connector-curvature="0" />
    </g>
    <g
       inkscape:groupmode="layer"
       id="layer5"
       inkscape:label="Highlights"
       style="display:inline"
       sodipodi:insensitive="true">
      <path
         style="opacity:0.12999998;color:#bebebe;fill:#ffffff;fill-opacity:1;fill-rule:nonzero;stroke:none;stroke-width:0;marker:none;visibility:visible;display:inline;overflow:visible;enable-background:accumulate"
         d="M 84,47 C 56.836703,47 35,68.836703 35,96 l 0,1 C 35,69.836703 56.836703,48 84,48 l 120,0 c 27.1633,0 49,21.836703 49,49 l 0,-1 C 253,68.836703 231.1633,47 204,47 L 84,47 z"
         id="rect3894"
         inkscape:connector-curvature="0" />
      <path
         style="opacity:0.12999998;color:#bebebe;fill:#ffffff;fill-opacity:1;fill-rule:nonzero;stroke:none;stroke-width:0;marker:none;visibility:visible;display:inline;overflow:visible;enable-background:accumulate"
         d="m 419,141 c -1.1253,0 -2,0.8747 -2,2 l 0,1 c 0,-1.1253 0.8747,-2 2,-2 l 10,0 c 1.1253,0 2,0.8747 2,2 l 0,-1 c 0,-1.1253 -0.8747,-2 -2,-2 l -10,0 z"
         id="rect3896"
         inkscape:connector-curvature="0" />
      <path
         style="opacity:0.12999998;color:#bebebe;fill:#ffffff;fill-opacity:1;fill-rule:nonzero;stroke:none;stroke-width:0;marker:none;visibility:visible;display:inline;overflow:visible;enable-background:accumulate"
         d="m 422,102 c -2.2333,0 -4,1.7667 -4,4 l 0,1 c 0,-2.2333 1.7667,-4 4,-4 l 12,0 c 2.2333,0 4,1.7667 4,4 l 0,-1 c 0,-2.2333 -1.7667,-4 -4,-4 l -12,0 z"
         id="rect3898"
         inkscape:connector-curvature="0" />
      <path
         style="opacity:0.12999998;color:#bebebe;fill:#ffffff;fill-opacity:1;fill-rule:nonzero;stroke:none;stroke-width:0;marker:none;visibility:visible;display:inline;overflow:visible;enable-background:accumulate"
         d="m 424,54 c -3.3413,0 -6,2.658703 -6,6 l 0,1 c 0,-3.341297 2.6587,-6 6,-6 l 16,0 c 3.3413,0 6,2.658703 6,6 l 0,-1 c 0,-3.341297 -2.6587,-6 -6,-6 l -16,0 z"
         id="rect3900"
         inkscape:connector-curvature="0" />
      <path
         style="opacity:0.12999998;color:#bebebe;fill:#ffffff;fill-opacity:1;fill-rule:nonzero;stroke:none;stroke-width:0;marker:none;visibility:visible;display:inline;overflow:visible;enable-background:accumulate"
         d="m 300,224 c -4.4493,0 -8,3.5507 -8,8 l 0,1 c 0,-4.4493 3.5507,-8 8,-8 l 24,0 c 4.4493,0 8,3.5507 8,8 l 0,-1 c 0,-4.4493 -3.5507,-8 -8,-8 l -24,0 z"
         id="rect3902"
         inkscape:connector-curvature="0" />
      <path
         style="opacity:0.12999998;color:#bebebe;fill:#ffffff;fill-opacity:1;fill-rule:nonzero;stroke:none;stroke-width:0;marker:none;visibility:visible;display:inline;overflow:visible;enable-background:accumulate"
         d="m 310,33 c -9.4353,0 -17,7.564703 -17,17 l 0,1 c 0,-9.435297 7.5647,-17 17,-17 l 52,0 c 9.4353,0 17,7.564703 17,17 l 0,-1 c 0,-9.435297 -7.5647,-17 -17,-17 l -52,0 z"
         id="rect3904"
         inkscape:connector-curvature="0" />
      <path
         style="opacity:0.12999998;color:#bebebe;fill:#ffffff;fill-opacity:1;fill-rule:nonzero;stroke:none;stroke-width:0;marker:none;visibility:visible;display:inline;overflow:visible;enable-background:accumulate"
         d="m 302.5,143 c -6.3883,0 -11.5,5.1117 -11.5,11.5 l 0,1 c 0,-6.3883 5.1117,-11.5 11.5,-11.5 l 35,0 c 6.3883,0 11.5,5.1117 11.5,11.5 l 0,-1 c 0,-6.3883 -5.1117,-11.5 -11.5,-11.5 l -35,0 z"
         id="rect3906"
         inkscape:connector-curvature="0" />
      <path
         id="path4085"
         d="m 204,266 c 27.1633,0 49,-21.8367 49,-49 l 0,-1 c 0,27.1633 -21.8367,49 -49,49 L 84,265 C 56.8367,265 35,243.1633 35,216 l 0,1 c 0,27.1633 21.8367,49 49,49 l 120,0 z"
         style="opacity:0.5;color:#bebebe;fill:#000000;fill-opacity:1;fill-rule:nonzero;stroke:none;stroke-width:0;marker:none;visibility:visible;display:inline;overflow:visible;enable-background:accumulate"
         inkscape:connector-curvature="0" />
      <path
         id="path4087"
         d="m 429,156 c 1.1253,0 2,-0.8747 2,-2 l 0,-1 c 0,1.1253 -0.8747,2 -2,2 l -10,0 c -1.1253,0 -2,-0.8747 -2,-2 l 0,1 c 0,1.1253 0.8747,2 2,2 l 10,0 z"
         style="opacity:0.3;color:#bebebe;fill:#000000;fill-opacity:1;fill-rule:nonzero;stroke:none;stroke-width:0;marker:none;visibility:visible;display:inline;overflow:visible;enable-background:accumulate"
         inkscape:connector-curvature="0" />
      <path
         id="path4089"
         d="m 434,123 c 2.2333,0 4,-1.7667 4,-4 l 0,-1 c 0,2.2333 -1.7667,4 -4,4 l -12,0 c -2.2333,0 -4,-1.7667 -4,-4 l 0,1 c 0,2.2333 1.7667,4 4,4 l 12,0 z"
         style="opacity:0.3;color:#bebebe;fill:#000000;fill-opacity:1;fill-rule:nonzero;stroke:none;stroke-width:0;marker:none;visibility:visible;display:inline;overflow:visible;enable-background:accumulate"
         inkscape:connector-curvature="0" />
      <path
         id="path4091"
         d="m 440,83 c 3.3413,0 6,-2.6587 6,-6 l 0,-1 c 0,3.3413 -2.6587,6 -6,6 l -16,0 c -3.3413,0 -6,-2.6587 -6,-6 l 0,1 c 0,3.3413 2.6587,6 6,6 l 16,0 z"
         style="opacity:0.5;color:#bebebe;fill:#000000;fill-opacity:1;fill-rule:nonzero;stroke:none;stroke-width:0;marker:none;visibility:visible;display:inline;overflow:visible;enable-background:accumulate"
         inkscape:connector-curvature="0" />
      <path
         id="path4093"
         d="m 324,265 c 4.4493,0 8,-3.5507 8,-8 l 0,-1 c 0,4.4493 -3.5507,8 -8,8 l -24,0 c -4.4493,0 -8,-3.5507 -8,-8 l 0,1 c 0,4.4493 3.5507,8 8,8 l 24,0 z"
         style="opacity:0.5;color:#bebebe;fill:#000000;fill-opacity:1;fill-rule:nonzero;stroke:none;stroke-width:0;marker:none;visibility:visible;display:inline;overflow:visible;enable-background:accumulate"
         inkscape:connector-curvature="0" />
      <path
         id="path4095"
         d="m 362,120 c 9.4353,0 17,-7.5647 17,-17 l 0,-1 c 0,9.4353 -7.5647,17 -17,17 l -52,0 c -9.4353,0 -17,-7.5647 -17,-17 l 0,1 c 0,9.4353 7.5647,17 17,17 l 52,0 z"
         style="opacity:0.5;color:#bebebe;fill:#000000;fill-opacity:1;fill-rule:nonzero;stroke:none;stroke-width:0;marker:none;visibility:visible;display:inline;overflow:visible;enable-background:accumulate"
         inkscape:connector-curvature="0" />
      <path
         id="path4097"
         d="m 337.5,202 c 6.3883,0 11.5,-5.1117 11.5,-11.5 l 0,-1 c 0,6.3883 -5.1117,11.5 -11.5,11.5 l -35,0 c -6.3883,0 -11.5,-5.1117 -11.5,-11.5 l 0,1 c 0,6.3883 5.1117,11.5 11.5,11.5 l 35,0 z"
         style="opacity:0.5;color:#bebebe;fill:#000000;fill-opacity:1;fill-rule:nonzero;stroke:none;stroke-width:0;marker:none;visibility:visible;display:inline;overflow:visible;enable-background:accumulate"
         inkscape:connector-curvature="0" />
      <path
         inkscape:connector-curvature="0"
         id="path4280"
         d="M 84,265 C 56.836703,265 35,243.1633 35,216 l 0,-1 c 0,27.1633 21.836703,49 49,49 l 120,0 c 27.1633,0 49,-21.8367 49,-49 l 0,1 c 0,27.1633 -21.8367,49 -49,49 l -120,0 z"
         style="opacity:0.1;color:#bebebe;fill:#ffffff;fill-opacity:1;fill-rule:nonzero;stroke:none;stroke-width:0;marker:none;visibility:visible;display:inline;overflow:visible;enable-background:accumulate" />
      <path
         style="opacity:0.1;color:#bebebe;fill:#ffffff;fill-opacity:1;fill-rule:nonzero;stroke:none;stroke-width:0;marker:none;visibility:visible;display:inline;overflow:visible;enable-background:accumulate"
         d="m 300,264 c -4.4493,0 -8,-3.5507 -8,-8 l 0,-1 c 0,4.4493 3.5507,8 8,8 l 24,0 c 4.4493,0 8,-3.5507 8,-8 l 0,1 c 0,4.4493 -3.5507,8 -8,8 l -24,0 z"
         id="path4294"
         inkscape:connector-curvature="0" />
      <path
         style="opacity:0.1;color:#bebebe;fill:#ffffff;fill-opacity:1;fill-rule:nonzero;stroke:none;stroke-width:0;marker:none;visibility:visible;display:inline;overflow:visible;enable-background:accumulate"
         d="m 302.5,201 c -6.3883,0 -11.5,-5.1117 -11.5,-11.5 l 0,-1 c 0,6.3883 5.1117,11.5 11.5,11.5 l 35,0 c 6.3883,0 11.5,-5.1117 11.5,-11.5 l 0,1 c 0,6.3883 -5.1117,11.5 -11.5,11.5 l -35,0 z"
         id="path4296"
         inkscape:connector-curvature="0" />
      <path
         style="opacity:0.1;color:#bebebe;fill:#ffffff;fill-opacity:1;fill-rule:nonzero;stroke:none;stroke-width:0;marker:none;visibility:visible;display:inline;overflow:visible;enable-background:accumulate"
         d="m 310,119 c -9.4353,0 -17,-7.5647 -17,-17 l 0,-1 c 0,9.4353 7.5647,17 17,17 l 52,0 c 9.4353,0 17,-7.5647 17,-17 l 0,1 c 0,9.4353 -7.5647,17 -17,17 l -52,0 z"
         id="path4298"
         inkscape:connector-curvature="0" />
      <path
         style="opacity:0.1;color:#bebebe;fill:#ffffff;fill-opacity:1;fill-rule:nonzero;stroke:none;stroke-width:0;marker:none;visibility:visible;display:inline;overflow:visible;enable-background:accumulate"
         d="m 424,82 c -3.3413,0 -6,-2.658703 -6,-6 l 0,-1 c 0,3.341297 2.6587,6 6,6 l 16,0 c 3.3413,0 6,-2.658703 6,-6 l 0,1 c 0,3.341297 -2.6587,6 -6,6 l -16,0 z"
         id="path4300"
         inkscape:connector-curvature="0" />
      <path
         style="opacity:0.1;color:#bebebe;fill:#ffffff;fill-opacity:1;fill-rule:nonzero;stroke:none;stroke-width:0;marker:none;visibility:visible;display:inline;overflow:visible;enable-background:accumulate"
         d="m 422,122 c -2.2333,0 -4,-1.7667 -4,-4 l 0,-1 c 0,2.2333 1.7667,4 4,4 l 12,0 c 2.2333,0 4,-1.7667 4,-4 l 0,1 c 0,2.2333 -1.7667,4 -4,4 l -12,0 z"
         id="path4302"
         inkscape:connector-curvature="0" />
      <path
         style="opacity:0.1;color:#bebebe;fill:#ffffff;fill-opacity:1;fill-rule:nonzero;stroke:none;stroke-width:0;marker:none;visibility:visible;display:inline;overflow:visible;enable-background:accumulate"
         d="m 419,154.5 c -1.1253,0 -2,-0.8747 -2,-2 l 0,-1 c 0,1.1253 0.8747,2 2,2 l 10,0 c 1.1253,0 2,-0.8747 2,-2 l 0,1 c 0,1.1253 -0.8747,2 -2,2 l -10,0 z"
         id="path4304"
         inkscape:connector-curvature="0" />
    </g>
    <g
       inkscape:groupmode="layer"
       id="layer3"
       inkscape:label="Border"
       style="display:inline"
       sodipodi:insensitive="true">
      <path
         style="opacity:0.41000001;color:#bebebe;fill:#000000;fill-opacity:1;fill-rule:nonzero;stroke:none;stroke-width:0;marker:none;visibility:visible;display:inline;overflow:visible;enable-background:accumulate"
         d="m 422,101 c -2.77,0 -5,2.23 -5,5 l 0,12 c 0,2.77 2.23,5 5,5 l 12,0 c 2.77,0 5,-2.23 5,-5 l 0,-12 c 0,-2.77 -2.23,-5 -5,-5 l -12,0 z m 0,1 12,0 c 2.2333,0 4,1.7667 4,4 l 0,12 c 0,2.2333 -1.7667,4 -4,4 l -12,0 c -2.2333,0 -4,-1.7667 -4,-4 l 0,-12 c 0,-2.2333 1.7667,-4 4,-4 z"
         id="rect4099"
         inkscape:connector-curvature="0" />
      <path
         style="opacity:0.41000001;color:#bebebe;fill:#000000;fill-opacity:1;fill-rule:nonzero;stroke:none;stroke-width:0;marker:none;visibility:visible;display:inline;overflow:visible;enable-background:accumulate"
         d="m 424,53 c -3.878,0 -7,3.122 -7,7 l 0,16 c 0,3.878 3.122,7 7,7 l 16,0 c 3.878,0 7,-3.122 7,-7 l 0,-16 c 0,-3.878 -3.122,-7 -7,-7 l -16,0 z m 0,1 16,0 c 3.3413,0 6,2.658703 6,6 l 0,16 c 0,3.341297 -2.6587,6 -6,6 l -16,0 c -3.3413,0 -6,-2.658703 -6,-6 l 0,-16 c 0,-3.341297 2.6587,-6 6,-6 z"
         id="rect4151"
         inkscape:connector-curvature="0" />
      <path
         style="opacity:0.41000001;color:#bebebe;fill:#000000;fill-opacity:1;fill-rule:nonzero;stroke:none;stroke-width:0;marker:none;visibility:visible;display:inline;overflow:visible;enable-background:accumulate"
         d="m 419,140 c -1.662,0 -3,1.338 -3,3 l 0,10 c 0,1.662 1.338,3 3,3 l 10,0 c 1.662,0 3,-1.338 3,-3 l 0,-10 c 0,-1.662 -1.338,-3 -3,-3 l -10,0 z m 0,1 10,0 c 1.1253,0 2,0.8747 2,2 l 0,10 c 0,1.1253 -0.8747,2 -2,2 l -10,0 c -1.1253,0 -2,-0.8747 -2,-2 l 0,-10 c 0,-1.1253 0.8747,-2 2,-2 z"
         id="rect4095"
         inkscape:connector-curvature="0" />
      <path
         style="opacity:0.41000001;color:#bebebe;fill:#000000;fill-opacity:1;fill-rule:nonzero;stroke:none;stroke-width:0;marker:none;visibility:visible;display:inline;overflow:visible;enable-background:accumulate"
         d="m 300,223 c -4.986,0 -9,4.014 -9,9 l 0,24 c 0,4.986 4.014,9 9,9 l 24,0 c 4.986,0 9,-4.014 9,-9 l 0,-24 c 0,-4.986 -4.014,-9 -9,-9 l -24,0 z m 0,1 24,0 c 4.4493,0 8,3.5507 8,8 l 0,24 c 0,4.4493 -3.5507,8 -8,8 l -24,0 c -4.4493,0 -8,-3.5507 -8,-8 l 0,-24 c 0,-4.4493 3.5507,-8 8,-8 z"
         id="rect4783"
         inkscape:connector-curvature="0" />
      <path
         style="opacity:0.41000001;color:#bebebe;fill:#000000;fill-opacity:1;fill-rule:nonzero;stroke:none;stroke-width:0;marker:none;visibility:visible;display:inline;overflow:visible;enable-background:accumulate"
         d="m 302.5,142 c -6.925,0 -12.5,5.575 -12.5,12.5 l 0,35 c 0,6.925 5.575,12.5 12.5,12.5 l 35,0 c 6.925,0 12.5,-5.575 12.5,-12.5 l 0,-35 c 0,-6.925 -5.575,-12.5 -12.5,-12.5 l -35,0 z m 0,1 35,0 c 6.3883,0 11.5,5.1117 11.5,11.5 l 0,35 c 0,6.3883 -5.1117,11.5 -11.5,11.5 l -35,0 c -6.3883,0 -11.5,-5.1117 -11.5,-11.5 l 0,-35 c 0,-6.3883 5.1117,-11.5 11.5,-11.5 z"
         id="rect4515"
         inkscape:connector-curvature="0" />
      <path
         style="opacity:0.41000001;color:#bebebe;fill:#000000;fill-opacity:1;fill-rule:nonzero;stroke:none;stroke-width:0;marker:none;visibility:visible;display:inline;overflow:visible;enable-background:accumulate"
         d="m 310,32 c -9.972,0 -18,8.028 -18,18 l 0,52 c 0,9.972 8.028,18 18,18 l 52,0 c 9.972,0 18,-8.028 18,-18 l 0,-52 c 0,-9.972 -8.028,-18 -18,-18 l -52,0 z m 0,1 52,0 c 9.4353,0 17,7.564703 17,17 l 0,52 c 0,9.4353 -7.5647,17 -17,17 l -52,0 c -9.4353,0 -17,-7.5647 -17,-17 l 0,-52 c 0,-9.435297 7.5647,-17 17,-17 z"
         id="rect4511"
         inkscape:connector-curvature="0" />
      <path
         style="opacity:0.41000001;color:#bebebe;fill:#000000;fill-opacity:1;fill-rule:nonzero;stroke:none;stroke-width:0;marker:none;visibility:visible;display:inline;overflow:visible;enable-background:accumulate"
         d="M 84,46 C 56.3,46 34,68.3 34,96 l 0,120 c 0,27.7 22.3,50 50,50 l 120,0 c 27.7,0 50,-22.3 50,-50 L 254,96 C 254,68.3 231.7,46 204,46 L 84,46 z m 0,1 120,0 c 27.1633,0 49,21.836703 49,49 l 0,120 c 0,27.1633 -21.8367,49 -49,49 L 84,265 C 56.836703,265 35,243.1633 35,216 L 35,96 C 35,68.836703 56.836703,47 84,47 z"
         id="rect4040"
         inkscape:connector-curvature="0" />
    </g>
  </g>
</svg>
