<?xml version="1.0" encoding="UTF-8" standalone="no"?>
<!-- Created with Inkscape (http://www.inkscape.org/) -->

<svg
   inkscape:export-ydpi="90.000000"
   inkscape:export-xdpi="90.000000"
   width="480"
   height="300"
   id="svg11300"
   sodipodi:version="0.32"
   inkscape:version="1.1.2 (0a00cf5339, 2022-02-04)"
   sodipodi:docname="librewolf (copy).svg"
   inkscape:output_extension="org.inkscape.output.svg.inkscape"
   version="1.0"
   style="display:inline;enable-background:new"
   inkscape:export-filename="/home/sam/moka-next-template.png"
   xmlns:inkscape="http://www.inkscape.org/namespaces/inkscape"
   xmlns:sodipodi="http://sodipodi.sourceforge.net/DTD/sodipodi-0.dtd"
   xmlns="http://www.w3.org/2000/svg"
   xmlns:svg="http://www.w3.org/2000/svg"
   xmlns:rdf="http://www.w3.org/1999/02/22-rdf-syntax-ns#"
   xmlns:cc="http://creativecommons.org/ns#"
   xmlns:dc="http://purl.org/dc/elements/1.1/">
  <sodipodi:namedview
     stroke="#ef2929"
     fill="#f57900"
     id="base"
     pagecolor="#ffffff"
     bordercolor="#000000"
     borderopacity="0.54509804"
     inkscape:pageopacity="0"
     inkscape:pageshadow="2"
     inkscape:zoom="1"
     inkscape:cx="398.49999"
     inkscape:cy="102.5"
     inkscape:current-layer="layer2"
     showgrid="false"
     inkscape:grid-bbox="true"
     inkscape:document-units="px"
     inkscape:showpageshadow="false"
     inkscape:window-width="1920"
     inkscape:window-height="1008"
     inkscape:window-x="0"
     inkscape:window-y="40"
     width="400px"
     height="300px"
     inkscape:snap-nodes="true"
     inkscape:snap-bbox="true"
     gridtolerance="10000"
     inkscape:object-nodes="true"
     inkscape:snap-grids="true"
     showguides="true"
     inkscape:guide-bbox="true"
     inkscape:window-maximized="1"
     inkscape:bbox-nodes="true"
     inkscape:bbox-paths="true"
     inkscape:snap-bbox-edge-midpoints="true"
     inkscape:snap-bbox-midpoints="true"
     inkscape:pagecheckerboard="0">
    <inkscape:grid
       spacingy="1"
       spacingx="1"
       id="grid5883"
       type="xygrid"
       enabled="true"
       visible="true"
       empspacing="4"
       snapvisiblegridlinesonly="true"
       dotted="false"
       color="#000000"
       opacity="0.1254902"
       empcolor="#203ef3"
       empopacity="0.36470588"
       originx="0"
       originy="0" />
    <inkscape:grid
       type="xygrid"
       id="grid11592"
       empspacing="8"
       visible="true"
       enabled="false"
       spacingx="0.5"
       spacingy="0.5"
       color="#ff0000"
       opacity="0.1254902"
       empcolor="#ff0000"
       empopacity="0.25098039"
       snapvisiblegridlinesonly="true"
       dotted="true"
       originx="0"
       originy="0" />
  </sodipodi:namedview>
  <defs
     id="defs3">
    <linearGradient
       id="linearGradient905">
      <stop
         style="stop-color:#ff7139;stop-opacity:1"
         offset="0"
         id="stop901" />
      <stop
         style="stop-color:#ff7139;stop-opacity:1"
         offset="1"
         id="stop903" />
    </linearGradient>
    <linearGradient
       id="linearGradient3984">
      <stop
         id="stop3986"
         offset="0"
         style="stop-color:#f57d33;stop-opacity:1" />
      <stop
         id="stop3988"
         offset="1"
         style="stop-color:#faa653;stop-opacity:1;" />
    </linearGradient>
  </defs>
  <metadata
     id="metadata4">
    <rdf:RDF>
      <cc:Work
         rdf:about="">
        <dc:format>image/svg+xml</dc:format>
        <dc:type
           rdf:resource="http://purl.org/dc/dcmitype/StillImage" />
        <dc:creator>
          <cc:Agent>
            <dc:title>Sam Hewitt</dc:title>
          </cc:Agent>
        </dc:creator>
        <dc:source />
        <cc:license
           rdf:resource="" />
        <dc:title />
        <dc:subject>
          <rdf:Bag />
        </dc:subject>
        <dc:date />
        <dc:rights>
          <cc:Agent>
            <dc:title />
          </cc:Agent>
        </dc:rights>
        <dc:publisher>
          <cc:Agent>
            <dc:title />
          </cc:Agent>
        </dc:publisher>
        <dc:identifier />
        <dc:relation />
        <dc:language />
        <dc:coverage />
        <dc:description />
        <dc:contributor>
          <cc:Agent>
            <dc:title />
          </cc:Agent>
        </dc:contributor>
      </cc:Work>
      <cc:Work
         rdf:about="">
        <dc:format>image/svg+xml</dc:format>
        <dc:type
           rdf:resource="http://purl.org/dc/dcmitype/StillImage" />
      </cc:Work>
    </rdf:RDF>
  </metadata>
  <g
     style="display:inline"
     inkscape:groupmode="layer"
     inkscape:label="Icon"
     id="layer1">
    <g
       style="display:none"
       inkscape:label="Baseplate"
       id="layer7"
       inkscape:groupmode="layer">
      <text
         y="19.745117"
         xml:space="preserve"
         x="15.006836"
         style="font-style:normal;font-variant:normal;font-weight:normal;font-stretch:normal;line-height:0%;font-family:'DejaVu Sans';-inkscape-font-specification:'DejaVu Sans';display:inline;fill:#000000;fill-opacity:1;stroke:none;enable-background:new"
         inkscape:label="context"
         id="context"><tspan
           style="font-style:normal;font-variant:normal;font-weight:normal;font-stretch:normal;font-size:18px;line-height:1.25;font-family:'DejaVu Sans';-inkscape-font-specification:'DejaVu Sans'"
           y="19.745117"
           x="15.006836"
           sodipodi:role="line"
           id="tspan3933">apps</tspan></text>
      <text
         y="19.745117"
         xml:space="preserve"
         x="122.48828"
         style="font-style:normal;font-variant:normal;font-weight:bold;font-stretch:normal;line-height:0%;font-family:'DejaVu Sans';-inkscape-font-specification:'DejaVu Sans Bold';text-align:start;writing-mode:lr-tb;text-anchor:start;display:inline;fill:#000000;fill-opacity:1;stroke:none;enable-background:new"
         inkscape:label="icon-name"
         id="icon-name"><tspan
           style="font-style:normal;font-variant:normal;font-weight:bold;font-stretch:normal;font-size:18px;line-height:1.25;font-family:'DejaVu Sans';-inkscape-font-specification:'DejaVu Sans Bold'"
           y="19.745117"
           x="122.48828"
           sodipodi:role="line"
           id="tspan3937">librewolf</tspan></text>
      <rect
         style="fill:#eeeeec;fill-opacity:1;fill-rule:nonzero;stroke:none;stroke-width:2;marker:none;visibility:visible;display:inline;overflow:visible;enable-background:accumulate"
         id="rect16x16"
         width="16"
         height="16"
         x="416"
         y="140"
         inkscape:label="16x16" />
      <rect
         style="fill:#d4d4d4;fill-opacity:1;fill-rule:nonzero;stroke:none;stroke-width:2;marker:none;visibility:visible;display:inline;overflow:visible;enable-background:accumulate"
         id="rect24x24"
         width="24"
         height="24"
         x="416"
         y="100"
         inkscape:label="24x24" />
      <rect
         style="fill:#eeeeec;fill-opacity:1;fill-rule:nonzero;stroke:none;stroke-width:2;marker:none;visibility:visible;display:inline;overflow:visible;enable-background:accumulate"
         id="rect32x32"
         width="32"
         height="32"
         x="416"
         y="52"
         inkscape:label="32x32" />
      <rect
         inkscape:label="22x22"
         y="101"
         x="417"
         height="22"
         width="22"
         id="rect22x22"
         style="fill:#eeeeec;fill-opacity:1;fill-rule:nonzero;stroke:none;stroke-width:2;marker:none;visibility:visible;display:inline;overflow:visible;enable-background:accumulate" />
      <rect
         inkscape:label="48x48"
         y="220"
         x="288"
         height="48"
         width="48"
         id="rect48x48"
         style="fill:#eeeeec;fill-opacity:1;fill-rule:nonzero;stroke:none;stroke-width:2;marker:none;visibility:visible;display:inline;overflow:visible;enable-background:accumulate" />
      <rect
         style="fill:#eeeeec;fill-opacity:1;fill-rule:nonzero;stroke:none;stroke-width:2;marker:none;visibility:visible;display:inline;overflow:visible;enable-background:accumulate"
         id="rect256x256"
         width="256"
         height="256"
         x="16"
         y="28"
         inkscape:label="256x256" />
      <rect
         style="fill:#eeeeec;fill-opacity:1;fill-rule:nonzero;stroke:none;stroke-width:2;marker:none;visibility:visible;display:inline;overflow:visible;enable-background:accumulate"
         id="rect64x64"
         width="64"
         height="64"
         x="288"
         y="140"
         inkscape:label="64x64" />
      <rect
         style="fill:#eeeeec;fill-opacity:1;fill-rule:nonzero;stroke:none;stroke-width:2;marker:none;visibility:visible;display:inline;overflow:visible;enable-background:accumulate"
         id="rect96x96"
         width="96"
         height="96"
         x="288"
         y="28"
         inkscape:label="96x96" />
    </g>
    <g
       inkscape:groupmode="layer"
       id="layer4"
       inkscape:label="Shadow"
       style="display:inline"
       sodipodi:insensitive="true">
      <rect
         ry="50"
         y="47"
         x="34"
         height="220"
         width="220"
         id="rect4114"
         style="opacity:0.1;color:#bebebe;fill:#000000;fill-opacity:1;fill-rule:nonzero;stroke:none;stroke-width:0;marker:none;visibility:visible;display:inline;overflow:visible;enable-background:accumulate" />
      <rect
         style="opacity:0.1;color:#bebebe;fill:#000000;fill-opacity:1;fill-rule:nonzero;stroke:none;stroke-width:0;marker:none;visibility:visible;display:inline;overflow:visible;enable-background:accumulate"
         id="rect4120"
         width="30"
         height="30"
         x="417"
         y="54"
         ry="7" />
      <rect
         transform="scale(1,-1)"
         ry="9"
         y="-266"
         x="291"
         height="42"
         width="42"
         id="rect4122"
         style="opacity:0.1;color:#bebebe;fill:#000000;fill-opacity:1;fill-rule:nonzero;stroke:none;stroke-width:0;marker:none;visibility:visible;display:inline;overflow:visible;enable-background:accumulate" />
      <rect
         style="opacity:0.1;color:#bebebe;fill:#000000;fill-opacity:1;fill-rule:nonzero;stroke:none;stroke-width:0;marker:none;visibility:visible;display:inline;overflow:visible;enable-background:accumulate"
         id="rect4124"
         width="88"
         height="88"
         x="292"
         y="33"
         ry="18" />
      <rect
         ry="12.5"
         y="143"
         x="290"
         height="60"
         width="60"
         id="rect4126"
         style="opacity:0.1;color:#bebebe;fill:#000000;fill-opacity:1;fill-rule:nonzero;stroke:none;stroke-width:0;marker:none;visibility:visible;display:inline;overflow:visible;enable-background:accumulate" />
      <path
         id="path4268"
         d="m 422,101 c -2.77,0 -5,2.23 -5,5 l 0,12 c 0,2.77 2.23,5 5,5 l 12,0 c 2.77,0 5,-2.23 5,-5 l 0,-12 c 0,-2.77 -2.23,-5 -5,-5 z"
         style="opacity:0.1;color:#bebebe;fill:#000000;fill-opacity:1;fill-rule:nonzero;stroke:none;stroke-width:0;marker:none;visibility:visible;display:inline;overflow:visible;enable-background:accumulate"
         inkscape:connector-curvature="0"
         sodipodi:nodetypes="sssssssss" />
      <path
         id="path4270"
         d="m 419,140 c -1.662,0 -3,1.338 -3,3 l 0,10 c 0,1.662 1.338,3 3,3 l 10,0 c 1.662,0 3,-1.338 3,-3 l 0,-10 c 0,-1.662 -1.338,-3 -3,-3 z"
         style="opacity:0.1;color:#bebebe;fill:#000000;fill-opacity:1;fill-rule:nonzero;stroke:none;stroke-width:0;marker:none;visibility:visible;display:inline;overflow:visible;enable-background:accumulate"
         inkscape:connector-curvature="0"
         sodipodi:nodetypes="sssssssss" />
    </g>
    <g
       inkscape:groupmode="layer"
       id="layer2"
       inkscape:label="Background"
       style="display:inline">
      <g
         id="g1479">
        <g
           id="g1442">
          <path
             style="color:#bebebe;display:inline;overflow:visible;visibility:visible;fill:#00acff;fill-opacity:1;fill-rule:nonzero;stroke:none;stroke-width:2;marker:none;enable-background:accumulate"
             d="M 84,46.5 C 56.568735,46.5 34.5,68.568732 34.5,96 v 120 c 0,27.43127 22.068735,49.5 49.5,49.5 h 120 c 27.43127,0 49.5,-22.06873 49.5,-49.5 V 96 C 253.5,68.568732 231.43127,46.5 204,46.5 Z"
             id="path4200" />
          <g
             id="g1281">
            <path
               style="fill:#ffffff;fill-opacity:1;stroke-width:0.375001"
               d="m 134.2784,232.28692 c -13.44782,-1.72559 -26.31112,-7.08636 -37.53624,-15.64322 -3.66114,-2.79085 -10.53055,-9.70477 -13.52929,-13.61693 -8.39738,-10.95522 -13.619,-23.38809 -15.34161,-36.52897 -0.73748,-5.62575 -0.73338,-15.96894 0.008,-21.11068 3.70793,-25.70371 19.88399,-47.750736 43.11254,-58.759876 10.80429,-5.120702 20.69367,-7.28827 33.25233,-7.28827 20.3128,0 38.34283,7.277924 52.95368,21.375016 7.03858,6.7911 11.75851,13.23235 15.80022,21.56249 5.46713,11.268 7.6813,21.06924 7.6813,34.00231 0,17.02542 -4.91669,31.87295 -15.12838,45.68519 -3.03457,4.10448 -8.96244,10.33934 -12.89613,13.56398 -10.79026,8.84525 -24.54418,14.83038 -38.19167,16.61941 -4.71552,0.61815 -15.85508,0.69517 -20.1851,0.13947 z m 28.46376,-13.79188 c 8.21591,-2.5899 14.91126,-6.07028 21.37499,-11.11122 3.43699,-2.68044 9.37764,-8.67809 11.86843,-11.98236 6.75575,-8.96207 11.35254,-20.18823 12.70507,-31.02794 0.65144,-5.22091 0.27309,-16.26596 -0.72142,-21.06028 -2.63452,-12.70052 -8.31018,-23.42832 -17.25167,-32.60812 -5.57455,-5.72309 -10.64943,-9.49527 -17.17853,-12.768887 -9.90709,-4.96732 -18.39638,-6.974447 -29.54687,-6.985758 -11.80367,-0.01134 -22.15368,2.693594 -32.39732,8.468957 -9.32529,5.257588 -18.96556,14.908878 -24.24537,24.273068 -3.88853,6.89667 -6.73463,15.08114 -7.84515,22.56007 -0.72813,4.90368 -0.74249,14.64117 -0.0285,19.33639 1.42886,9.39654 4.99316,18.68346 10.16026,26.47287 2.82164,4.25361 2.73304,4.20641 5.22212,2.78229 4.45259,-2.5475 5.61372,-3.77978 8.0393,-8.53183 2.83642,-5.55693 5.86902,-10.41307 8.60909,-13.78579 3.16296,-3.8933 3.59781,-4.58626 5.18453,-8.26214 0.79839,-1.84958 2.2308,-4.56588 3.18313,-6.03618 l 1.73152,-2.67333 -2.24002,-2.20169 c -2.97538,-2.92445 -5.45032,-6.24076 -5.91594,-7.92712 -0.47555,-1.72227 0.0856,-2.68328 2.32085,-3.97437 2.26021,-1.30555 3.87661,-1.68066 9.91745,-2.30153 2.94131,-0.30232 6.13461,-0.85604 7.14036,-1.23821 1.0007,-0.38024 3.99069,-2.00761 6.64441,-3.61641 7.6619,-4.64493 8.31011,-4.88534 12.90363,-4.78576 3.87974,0.0842 3.88704,0.0825 6.1875,-1.30799 4.8208,-2.91407 11.74407,-8.17197 20.85461,-15.8381 1.74705,-1.47005 3.42998,-2.624 3.73986,-2.56433 1.28869,0.24831 3.65546,6.05582 4.01501,9.85215 0.21807,2.30244 -0.22742,4.57937 -1.59311,8.14283 -0.37264,0.97231 -0.54448,1.90043 -0.38184,2.06249 0.39044,0.38908 1.73113,-1.28552 1.73113,-2.16224 0,-1.11785 0.7402,-1.24543 1.74707,-0.30113 0.73201,0.6865 1.36302,0.88302 2.83522,0.88302 1.60745,0 2.00536,0.14911 2.63274,0.98618 1.06462,1.42049 1.31428,5.29194 0.49947,7.74513 -0.79268,2.38651 -3.18841,5.13884 -5.36267,6.16084 -1.94551,0.91452 -5.88427,4.76017 -7.72747,7.54481 -0.70556,1.06594 -2.02843,3.28805 -2.93971,4.93807 -0.91131,1.64999 -2.4399,4.14294 -3.39687,5.53991 -1.88304,2.74882 -3.49554,6.58318 -5.05195,12.01317 -0.91432,3.18983 -0.99105,4.02027 -1.02884,11.13441 -0.0457,8.59379 -0.49009,10.70251 -2.81339,13.34863 -2.64133,3.00829 -5.27793,9.61472 -5.49957,13.78006 -0.13989,2.62916 -0.54495,5.19205 -1.12055,7.09007 -0.25347,0.83577 0.21975,0.82602 3.03903,-0.0626 z"
               id="path847"
               inkscape:connector-curvature="0" />
            <path
               sodipodi:type="star"
               style="fill:#00acff;fill-opacity:1;stroke:none;stroke-width:1.5;stroke-miterlimit:4;stroke-dasharray:none"
               id="path814"
               sodipodi:sides="4"
               sodipodi:cx="18.854025"
               sodipodi:cy="172.98837"
               sodipodi:r1="1.6036172"
               sodipodi:r2="1.1339285"
               sodipodi:arg1="1.5707963"
               sodipodi:arg2="2.3561945"
               inkscape:flatsided="true"
               inkscape:rounded="0"
               inkscape:randomized="0"
               transform="matrix(0.65772634,1.1392154,-2.8174381,1.6266486,626.58719,-166.80029)"
               d="m 18.854025,174.59199 -1.603617,-1.60362 1.603617,-1.60361 1.603617,1.60361 z" />
          </g>
        </g>
        <g
           id="g1424">
          <path
             style="color:#bebebe;display:inline;overflow:visible;visibility:visible;fill:#00acff;fill-opacity:1;fill-rule:nonzero;stroke:none;stroke-width:2;marker:none;enable-background:accumulate"
             d="m 310,32.5 c -9.70255,0 -17.5,7.797452 -17.5,17.5 v 52 c 0,9.70255 7.79745,17.5 17.5,17.5 h 52 c 9.70255,0 17.5,-7.79745 17.5,-17.5 V 50 c 0,-9.702548 -7.79745,-17.5 -17.5,-17.5 z"
             id="path4210" />
          <g
             id="g1285">
            <path
               style="fill:#ffffff;fill-opacity:1;stroke-width:0.148973"
               d="m 332.13799,106.30576 c -5.34228,-0.68551 -10.45236,-2.81513 -14.91165,-6.21443 -1.45443,-1.108692 -4.18337,-3.855318 -5.37465,-5.409464 -3.33595,-4.352073 -5.41029,-9.291158 -6.09461,-14.511508 -0.29298,-2.234887 -0.29135,-6.343825 0.003,-8.386434 1.47302,-10.211063 7.89912,-18.969471 17.1269,-23.342965 4.29212,-2.034251 8.22078,-2.89534 13.20983,-2.89534 8.06947,0 15.23209,2.89123 21.0364,8.491445 2.79614,2.697834 4.67118,5.256687 6.27679,8.56592 2.17188,4.476329 3.05148,8.369972 3.05148,13.507767 0,6.763523 -1.95321,12.661857 -6.0099,18.148911 -1.20552,1.630547 -3.56043,4.107409 -5.12312,5.388431 -4.28655,3.513867 -9.75043,5.891517 -15.17204,6.602227 -1.87329,0.24557 -6.29859,0.27617 -8.01874,0.0554 z m 11.30752,-5.47896 c 3.26386,-1.028869 5.92366,-2.411485 8.49144,-4.414051 1.36538,-1.064832 3.72536,-3.44746 4.71485,-4.760115 2.6838,-3.560275 4.50992,-8.019982 5.04722,-12.326168 0.2588,-2.07406 0.10849,-6.46182 -0.28659,-8.366413 -1.04659,-5.045412 -3.3013,-9.30714 -6.8534,-12.95391 -2.21455,-2.273556 -4.2306,-3.772094 -6.82435,-5.072572 -3.93569,-1.973319 -7.30815,-2.77067 -11.7378,-2.775164 -4.68912,-0.0045 -8.80077,1.070058 -12.87016,3.36438 -3.70457,2.088631 -7.53427,5.922705 -9.63173,9.642726 -1.54475,2.739773 -2.6754,5.991138 -3.11656,8.962219 -0.28926,1.948038 -0.29496,5.816356 -0.0113,7.68158 0.56763,3.732872 1.98358,7.422196 4.03626,10.516619 1.12093,1.689791 1.08573,1.67104 2.07454,1.105294 1.76884,-1.012021 2.23011,-1.501557 3.1937,-3.389357 1.1268,-2.207548 2.33153,-4.136699 3.42005,-5.476547 1.25652,-1.546653 1.42927,-1.821939 2.05961,-3.28222 0.31716,-0.734765 0.8862,-1.813843 1.26453,-2.397934 l 0.68786,-1.062008 -0.88987,-0.874644 c -1.182,-1.161768 -2.1652,-2.479206 -2.35017,-3.14913 -0.18891,-0.68419 0.034,-1.065961 0.92198,-1.578859 0.8979,-0.518644 1.54003,-0.66766 3.93981,-0.914307 1.16847,-0.1201 2.43704,-0.34007 2.83658,-0.491891 0.39754,-0.151055 1.58535,-0.797544 2.63956,-1.436656 3.04377,-1.845247 3.30128,-1.940752 5.1261,-1.901193 1.54127,0.03345 1.54417,0.03277 2.45805,-0.519612 1.91511,-1.157644 4.66545,-3.246399 8.28471,-6.291848 0.69403,-0.583993 1.36259,-1.042411 1.4857,-1.018707 0.51194,0.09864 1.45217,2.405737 1.595,3.913868 0.0866,0.914668 -0.0903,1.819202 -0.63288,3.234823 -0.14803,0.38626 -0.2163,0.754965 -0.15169,0.819345 0.15511,0.154566 0.68771,-0.510686 0.68771,-0.858972 0,-0.444077 0.29405,-0.49476 0.69404,-0.119627 0.2908,0.27272 0.54148,0.350789 1.12632,0.350789 0.63858,0 0.79665,0.05924 1.04589,0.39177 0.42293,0.564305 0.52211,2.102278 0.19842,3.076833 -0.3149,0.948065 -1.26663,2.041457 -2.13038,2.447457 -0.77287,0.363302 -2.33759,1.891026 -3.06982,2.997253 -0.28029,0.423456 -0.80581,1.306212 -1.16783,1.961699 -0.36202,0.655475 -0.96927,1.645825 -1.34944,2.200786 -0.74806,1.091997 -1.38864,2.615236 -2.00694,4.772355 -0.36322,1.267193 -0.3937,1.597094 -0.40871,4.423259 -0.0182,3.413971 -0.1947,4.251682 -1.11765,5.30288 -1.0493,1.195074 -2.09671,3.819547 -2.18476,5.474271 -0.0556,1.04446 -0.21649,2.062599 -0.44515,2.816599 -0.1007,0.33202 0.0873,0.32815 1.20728,-0.0249 z"
               id="path1973"
               inkscape:connector-curvature="0" />
            <path
               sodipodi:type="star"
               style="fill:#00acff;fill-opacity:1;stroke:none;stroke-width:1.5;stroke-miterlimit:4;stroke-dasharray:none"
               id="path1975"
               sodipodi:sides="4"
               sodipodi:cx="18.854025"
               sodipodi:cy="172.98837"
               sodipodi:r1="1.6036172"
               sodipodi:r2="1.1339285"
               sodipodi:arg1="1.5707963"
               sodipodi:arg2="2.3561945"
               inkscape:flatsided="true"
               inkscape:rounded="0"
               inkscape:randomized="0"
               transform="matrix(0.26128854,0.45256502,-1.1192562,0.64620286,527.71272,-52.235731)"
               d="m 18.854025,174.59199 -1.603617,-1.60362 1.603617,-1.60361 1.603617,1.60361 z" />
          </g>
        </g>
        <g
           id="g1412">
          <path
             style="color:#bebebe;display:inline;overflow:visible;visibility:visible;fill:#00acff;fill-opacity:1;fill-rule:nonzero;stroke:none;stroke-width:2;marker:none;enable-background:accumulate"
             d="m 422,101.5 c -2.49699,0 -4.5,2.00301 -4.5,4.5 v 12 c 0,2.49699 2.00301,4.5 4.5,4.5 h 12 c 2.49699,0 4.5,-2.00301 4.5,-4.5 v -12 c 0,-2.49699 -2.00301,-4.5 -4.5,-4.5 z"
             id="path4204" />
          <g
             id="g1301">
            <path
               style="fill:#ffffff;fill-opacity:1;stroke-width:0.035959"
               d="m 427.06779,119.31518 c -1.28952,-0.16546 -2.52298,-0.67951 -3.59936,-1.50003 -0.35107,-0.26762 -1.00978,-0.9306 -1.29733,-1.30573 -0.80523,-1.0505 -1.30594,-2.2427 -1.47112,-3.50278 -0.0707,-0.53946 -0.0703,-1.53127 7.7e-4,-2.02431 0.35555,-2.46474 1.90668,-4.57884 4.13408,-5.63451 1.03603,-0.49103 1.98432,-0.69888 3.18858,-0.69888 1.9478,0 3.67671,0.69789 5.07775,2.04966 0.67493,0.6512 1.12753,1.26886 1.51509,2.06764 0.52424,1.08049 0.73656,2.02034 0.73656,3.26049 0,1.63258 -0.47146,3.05631 -1.45067,4.38077 -0.29098,0.39359 -0.85941,0.99145 -1.23661,1.30066 -1.03468,0.84818 -2.35355,1.42209 -3.66222,1.59364 -0.45217,0.0593 -1.52035,0.0667 -1.93555,0.0134 z m 2.7294,-1.32251 c 0.78783,-0.24834 1.42985,-0.58208 2.04966,-1.06545 0.32957,-0.25703 0.89922,-0.83215 1.13807,-1.149 0.64781,-0.85937 1.0886,-1.93586 1.21829,-2.97528 0.0625,-0.50063 0.0262,-1.55975 -0.0692,-2.01948 -0.25262,-1.21786 -0.79686,-2.24655 -1.65426,-3.1268 -0.53455,-0.54879 -1.02118,-0.91051 -1.64726,-1.22442 -0.95,-0.47632 -1.76404,-0.66878 -2.83326,-0.66987 -1.13186,-0.001 -2.12433,0.25829 -3.1066,0.8121 -0.8942,0.50415 -1.81861,1.42961 -2.32489,2.32755 -0.37288,0.66133 -0.64579,1.44614 -0.75228,2.16329 -0.0698,0.47022 -0.0712,1.40395 -0.003,1.85418 0.13701,0.90104 0.4788,1.79156 0.97427,2.53849 0.27057,0.40788 0.26207,0.40336 0.50075,0.2668 0.42696,-0.24428 0.5383,-0.36245 0.77089,-0.81812 0.27199,-0.53286 0.56279,-0.99852 0.82553,-1.32193 0.3033,-0.37333 0.345,-0.43978 0.49715,-0.79226 0.0766,-0.17735 0.21391,-0.43782 0.30523,-0.57881 l 0.16604,-0.25635 -0.2148,-0.21112 c -0.28531,-0.28042 -0.52263,-0.59843 -0.56728,-0.76013 -0.0456,-0.16515 0.008,-0.2573 0.22255,-0.38111 0.21673,-0.12519 0.37173,-0.16115 0.95098,-0.22069 0.28205,-0.029 0.58825,-0.0821 0.6847,-0.11873 0.096,-0.0365 0.38267,-0.19251 0.63713,-0.34678 0.7347,-0.44541 0.79686,-0.46846 1.23734,-0.45891 0.37203,0.008 0.37273,0.008 0.59332,-0.12542 0.46227,-0.27944 1.12614,-0.78362 1.99976,-1.51873 0.16752,-0.14096 0.3289,-0.25161 0.35861,-0.24589 0.12357,0.0238 0.35053,0.58069 0.385,0.94473 0.0209,0.22078 -0.0218,0.43911 -0.15276,0.78082 -0.0357,0.0932 -0.0522,0.18223 -0.0366,0.19777 0.0374,0.0373 0.166,-0.12327 0.166,-0.20734 0,-0.10719 0.071,-0.11942 0.16753,-0.0289 0.0702,0.0658 0.1307,0.0847 0.27187,0.0847 0.15414,0 0.1923,0.0143 0.25245,0.0946 0.10209,0.13621 0.12603,0.50745 0.0479,0.74269 -0.076,0.22884 -0.30574,0.49276 -0.51423,0.59076 -0.18656,0.0877 -0.56424,0.45646 -0.74099,0.72348 -0.0677,0.10221 -0.19451,0.31529 -0.28189,0.47351 -0.0874,0.15822 -0.23396,0.39727 -0.32573,0.53123 -0.18056,0.26358 -0.33519,0.63126 -0.48443,1.15194 -0.0877,0.30588 -0.095,0.38551 -0.0987,1.06769 -0.004,0.82406 -0.047,1.02626 -0.26977,1.28 -0.25328,0.28847 -0.50611,0.92196 -0.52736,1.32138 -0.0134,0.25211 -0.0523,0.49787 -0.10745,0.67987 -0.0243,0.0801 0.0211,0.0792 0.29141,-0.006 z"
               id="path2155"
               inkscape:connector-curvature="0" />
            <path
               sodipodi:type="star"
               style="fill:#00acff;fill-opacity:1;stroke:none;stroke-width:1.5;stroke-miterlimit:4;stroke-dasharray:none"
               id="path2157"
               sodipodi:sides="4"
               sodipodi:cx="18.854025"
               sodipodi:cy="172.98837"
               sodipodi:r1="1.6036172"
               sodipodi:r2="1.1339285"
               sodipodi:arg1="1.5707963"
               sodipodi:arg2="2.3561945"
               inkscape:flatsided="true"
               inkscape:rounded="0"
               inkscape:randomized="0"
               transform="matrix(0.06306965,0.10923983,-0.27016529,0.15598,474.27548,81.046548)"
               d="m 18.854025,174.59199 -1.603617,-1.60362 1.603617,-1.60361 1.603617,1.60361 z" />
          </g>
        </g>
        <g
           id="g1430">
          <path
             style="color:#bebebe;display:inline;overflow:visible;visibility:visible;fill:#00acff;fill-opacity:1;fill-rule:nonzero;stroke:none;stroke-width:2;marker:none;enable-background:accumulate"
             d="m 302.5,142.5 c -6.65502,0 -12,5.34498 -12,12 v 35 c 0,6.65502 5.34498,12 12,12 h 35 c 6.65502,0 12,-5.34498 12,-12 v -35 c 0,-6.65502 -5.34498,-12 -12,-12 z"
             id="path4212" />
          <g
             id="g1289">
            <path
               style="fill:#ffffff;fill-opacity:1;stroke-width:0.101028"
               d="m 317.38094,192.55218 c -3.62293,-0.46488 -7.08838,-1.90911 -10.1125,-4.21438 -0.98634,-0.75188 -2.837,-2.61453 -3.64488,-3.66849 -2.26231,-2.95141 -3.66905,-6.3009 -4.13313,-9.84114 -0.19868,-1.51561 -0.19758,-4.30213 0.002,-5.68735 0.99894,-6.92474 5.35687,-12.86435 11.61479,-15.83029 2.91074,-1.37955 5.57501,-1.9635 8.95839,-1.9635 5.4724,0 10.3298,1.96072 14.26606,5.75856 1.89624,1.82957 3.16782,3.56488 4.25668,5.80908 1.47288,3.03567 2.06939,5.67618 2.06939,9.16043 0,4.58676 -1.32459,8.58678 -4.07568,12.30789 -0.81753,1.10577 -2.41454,2.78548 -3.4743,3.65422 -2.90697,2.38297 -6.61236,3.9954 -10.28908,4.47737 -1.27039,0.16654 -4.27146,0.18729 -5.438,0.0376 z m 7.66832,-3.71562 c 2.21342,-0.69774 4.01719,-1.63537 5.75856,-2.99343 0.92594,-0.72213 2.52639,-2.33794 3.19743,-3.22813 1.82004,-2.41444 3.05844,-5.43884 3.42282,-8.35912 0.17551,-1.40655 0.0736,-4.38216 -0.19435,-5.67378 -0.70976,-3.4216 -2.23882,-6.31174 -4.64771,-8.78483 -1.50182,-1.54184 -2.86903,-2.55809 -4.62801,-3.44002 -2.66903,-1.33823 -4.9561,-1.87896 -7.96011,-1.88201 -3.17999,-0.003 -5.96834,0.72567 -8.72805,2.28159 -2.51229,1.41643 -5.10944,4.01655 -6.53185,6.53932 -1.0476,1.85801 -1.81436,4.06296 -2.11354,6.07783 -0.19616,1.32108 -0.20003,3.94442 -0.008,5.20934 0.38495,2.53149 1.34519,5.03345 2.73724,7.13196 0.76017,1.14595 0.7363,1.13324 1.40688,0.74957 1.19955,-0.68631 1.51237,-1.0183 2.16583,-2.29853 0.76415,-1.49707 1.58116,-2.80535 2.31935,-3.71398 0.85212,-1.04888 0.96927,-1.23557 1.39674,-2.22587 0.21509,-0.49829 0.601,-1.23008 0.85756,-1.62619 l 0.46648,-0.72021 -0.60347,-0.59315 c -0.80159,-0.78786 -1.46836,-1.6813 -1.5938,-2.13562 -0.12811,-0.46399 0.0231,-0.72289 0.62526,-1.07072 0.60891,-0.35172 1.04438,-0.45278 2.67182,-0.62004 0.79241,-0.0815 1.6527,-0.23063 1.92366,-0.33358 0.26959,-0.10244 1.07512,-0.54087 1.79005,-0.97429 2.06416,-1.25137 2.23879,-1.31614 3.47632,-1.28931 1.04522,0.0227 1.04719,0.0222 1.66695,-0.35238 1.29875,-0.78507 3.16393,-2.20158 5.61836,-4.26689 0.47067,-0.39604 0.92406,-0.70692 1.00754,-0.69085 0.34719,0.0669 0.98481,1.63148 1.08167,2.65424 0.0587,0.62029 -0.0613,1.23371 -0.42919,2.19373 -0.10039,0.26194 -0.14669,0.51198 -0.10287,0.55564 0.10519,0.10483 0.46638,-0.34632 0.46638,-0.58252 0,-0.30115 0.19941,-0.33552 0.47067,-0.0811 0.19721,0.18494 0.36721,0.23789 0.76383,0.23789 0.43305,0 0.54025,0.0402 0.70927,0.26568 0.28682,0.38269 0.35408,1.42568 0.13456,2.08659 -0.21355,0.64294 -0.85897,1.38444 -1.44473,1.65977 -0.52414,0.24638 -1.58526,1.28242 -2.08183,2.03262 -0.19009,0.28717 -0.54648,0.88582 -0.79198,1.33035 -0.24551,0.44451 -0.65733,1.11613 -0.91514,1.49248 -0.5073,0.74055 -0.94172,1.77355 -1.36103,3.23643 -0.24632,0.85936 -0.26699,1.08308 -0.27717,2.99968 -0.0123,2.31522 -0.13204,2.88332 -0.75795,3.59621 -0.71159,0.81045 -1.42191,2.59026 -1.48162,3.71243 -0.0377,0.70831 -0.14681,1.39877 -0.30188,1.91011 -0.0683,0.22516 0.0592,0.22254 0.81873,-0.0169 z"
               id="path2261"
               inkscape:connector-curvature="0" />
            <path
               sodipodi:type="star"
               style="fill:#00acff;fill-opacity:1;stroke:none;stroke-width:1.5;stroke-miterlimit:4;stroke-dasharray:none"
               id="path2263"
               sodipodi:sides="4"
               sodipodi:cx="18.854025"
               sodipodi:cy="172.98837"
               sodipodi:r1="1.6036172"
               sodipodi:r2="1.1339285"
               sodipodi:arg1="1.5707963"
               sodipodi:arg2="2.3561945"
               inkscape:flatsided="true"
               inkscape:rounded="0"
               inkscape:randomized="0"
               transform="matrix(0.17719568,0.30691191,-0.75903583,0.43822953,450.01207,85.035536)"
               d="m 18.854025,174.59199 -1.603617,-1.60362 1.603617,-1.60361 1.603617,1.60361 z" />
          </g>
        </g>
        <g
           id="g1436">
          <path
             style="color:#bebebe;display:inline;overflow:visible;visibility:visible;fill:#00acff;fill-opacity:1;fill-rule:nonzero;stroke:none;stroke-width:2;marker:none;enable-background:accumulate"
             d="m 300,223.5 c -4.71531,0 -8.5,3.78469 -8.5,8.5 v 24 c 0,4.71531 3.78469,8.5 8.5,8.5 h 24 c 4.71531,0 8.5,-3.78469 8.5,-8.5 v -24 c 0,-4.71531 -3.78469,-8.5 -8.5,-8.5 z"
             id="path4208" />
          <g
             id="g1293">
            <path
               style="fill:#ffffff;fill-opacity:1;stroke-width:0.0702057"
               d="m 310.17998,258.28203 c -2.51763,-0.32306 -4.92583,-1.32667 -7.02733,-2.92864 -0.68542,-0.52249 -1.97148,-1.81688 -2.53288,-2.54929 -1.57212,-2.05098 -2.54968,-4.37859 -2.87218,-6.83876 -0.13807,-1.05322 -0.1373,-2.98962 0.002,-3.95223 0.69418,-4.81211 3.72257,-8.93963 8.0713,-11.0007 2.02272,-0.95867 3.87415,-1.36447 6.22532,-1.36447 3.80285,0 7.17834,1.36253 9.9137,4.00171 1.31773,1.27139 2.20137,2.47729 2.95803,4.03681 1.02353,2.10954 1.43805,3.94447 1.43805,6.36573 0,3.18741 -0.92047,5.96708 -2.83225,8.55294 -0.56811,0.76842 -1.6779,1.93567 -2.41434,2.53937 -2.0201,1.65596 -4.59503,2.77647 -7.15004,3.1114 -0.88282,0.11573 -2.9683,0.13015 -3.77895,0.0261 z m 5.32883,-2.58205 c 1.53814,-0.48486 2.79161,-1.13644 4.00171,-2.08018 0.64346,-0.50182 1.75563,-1.62466 2.22194,-2.24327 1.26478,-1.67783 2.12537,-3.77953 2.37858,-5.80889 0.12196,-0.97743 0.0511,-3.04522 -0.13506,-3.94279 -0.49322,-2.37772 -1.55579,-4.38612 -3.22977,-6.10471 -1.04363,-1.07145 -1.99373,-1.77766 -3.21607,-2.39053 -1.85475,-0.92995 -3.44407,-1.30571 -5.5316,-1.30783 -2.20982,-0.002 -4.1475,0.50428 -6.06526,1.58551 -1.74583,0.9843 -3.55063,2.79116 -4.53908,4.54427 -0.72799,1.29116 -1.26082,2.82341 -1.46873,4.22358 -0.13632,0.91804 -0.139,2.74104 -0.005,3.62005 0.26751,1.75917 0.9348,3.49782 1.90215,4.95611 0.52826,0.79634 0.51167,0.7875 0.97766,0.52089 0.83359,-0.47693 1.05097,-0.70763 1.50508,-1.59729 0.53101,-1.04034 1.09876,-1.94948 1.61174,-2.5809 0.59216,-0.72888 0.67357,-0.85861 0.97062,-1.54679 0.14947,-0.34627 0.41764,-0.8548 0.59593,-1.13006 l 0.32417,-0.50049 -0.41937,-0.41219 c -0.55703,-0.5475 -1.02038,-1.16836 -1.10755,-1.48407 -0.089,-0.32243 0.016,-0.50235 0.4345,-0.74406 0.42314,-0.24442 0.72576,-0.31464 1.85669,-0.43088 0.55066,-0.0566 1.14849,-0.16026 1.33678,-0.23181 0.18735,-0.0712 0.74712,-0.37586 1.24393,-0.67705 1.43442,-0.8696 1.55577,-0.9146 2.41575,-0.89596 0.72634,0.0158 0.72771,0.0154 1.15839,-0.24488 0.90252,-0.54555 2.19866,-1.52991 3.90429,-2.96512 0.32707,-0.27521 0.64214,-0.49125 0.70015,-0.48008 0.24126,0.0465 0.68436,1.13374 0.75167,1.84447 0.0408,0.43105 -0.0426,0.85732 -0.29825,1.52445 -0.0698,0.18203 -0.10194,0.35579 -0.0715,0.38613 0.0731,0.0728 0.3241,-0.24067 0.3241,-0.4048 0,-0.20928 0.13857,-0.23316 0.32707,-0.0564 0.13705,0.12853 0.25518,0.16532 0.5308,0.16532 0.30094,0 0.37543,0.0279 0.49288,0.18462 0.19932,0.26594 0.24606,0.99073 0.0935,1.45001 -0.1484,0.44679 -0.59691,0.96206 -1.00397,1.1534 -0.36423,0.17121 -1.10162,0.89117 -1.44669,1.41249 -0.13209,0.19956 -0.37975,0.61558 -0.55036,0.92448 -0.17061,0.30891 -0.45678,0.77562 -0.63594,1.03716 -0.35254,0.51461 -0.65442,1.23246 -0.9458,2.24904 -0.17118,0.59718 -0.18554,0.75265 -0.19262,2.08452 -0.009,1.60888 -0.0917,2.00367 -0.5267,2.49906 -0.4945,0.56319 -0.98811,1.80001 -1.0296,2.57983 -0.0262,0.49221 -0.10203,0.97202 -0.20979,1.32736 -0.0475,0.15647 0.0411,0.15465 0.56895,-0.0117 z"
               id="path2464"
               inkscape:connector-curvature="0" />
            <path
               sodipodi:type="star"
               style="fill:#00acff;fill-opacity:1;stroke:none;stroke-width:1.5;stroke-miterlimit:4;stroke-dasharray:none"
               id="path2466"
               sodipodi:sides="4"
               sodipodi:cx="18.854025"
               sodipodi:cy="172.98837"
               sodipodi:r1="1.6036172"
               sodipodi:r2="1.1339285"
               sodipodi:arg1="1.5707963"
               sodipodi:arg2="2.3561945"
               inkscape:flatsided="true"
               inkscape:rounded="0"
               inkscape:randomized="0"
               transform="matrix(0.12313598,0.21327777,-0.52746558,0.30453238,402.34738,183.56707)"
               d="m 18.854025,174.59199 -1.603617,-1.60362 1.603617,-1.60361 1.603617,1.60361 z" />
          </g>
        </g>
        <g
           id="g1418">
          <path
             style="color:#bebebe;display:inline;overflow:visible;visibility:visible;fill:#00acff;fill-opacity:1;fill-rule:nonzero;stroke:none;stroke-width:2;marker:none;enable-background:accumulate"
             d="m 424,53.5 c -3.60654,0 -6.5,2.893464 -6.5,6.5 v 16 c 0,3.606536 2.89346,6.5 6.5,6.5 h 16 c 3.60654,0 6.5,-2.893464 6.5,-6.5 V 60 c 0,-3.606536 -2.89346,-6.5 -6.5,-6.5 z"
             id="path4206" />
          <g
             id="g1297">
            <path
               style="fill:#ffffff;fill-opacity:1;stroke-width:0.0496577"
               d="m 430.71267,78.101921 c -1.78076,-0.228503 -3.48412,-0.938377 -4.97055,-2.071477 -0.48481,-0.369564 -1.39446,-1.285106 -1.79155,-1.803155 -1.11199,-1.450691 -1.80343,-3.097053 -2.03154,-4.837169 -0.0977,-0.744963 -0.0971,-2.114609 10e-4,-2.795478 0.491,-3.403688 2.63304,-6.323157 5.70896,-7.780989 1.43071,-0.678083 2.74026,-0.965113 4.40328,-0.965113 2.68982,0 5.07736,0.963743 7.01213,2.830482 0.93205,0.899278 1.55706,1.752229 2.09227,2.855306 0.72396,1.49211 1.01716,2.789991 1.01716,4.502589 0,2.254508 -0.65107,4.220619 -2.0033,6.049637 -0.40184,0.543516 -1.18681,1.369137 -1.70771,1.796144 -1.42885,1.171289 -3.25014,1.96384 -5.05735,2.200744 -0.62443,0.08185 -2.09953,0.09205 -2.67291,0.01847 z m 3.76917,-1.826322 c 1.08795,-0.342955 1.97455,-0.803827 2.83048,-1.471349 0.45513,-0.354944 1.24179,-1.149153 1.57162,-1.586705 0.8946,-1.186758 1.5033,-2.673327 1.6824,-4.108723 0.0863,-0.691353 0.0362,-2.15394 -0.0955,-2.788804 -0.34886,-1.681804 -1.10043,-3.10238 -2.28446,-4.31797 -0.73819,-0.757852 -1.4102,-1.257365 -2.27479,-1.690857 -1.31189,-0.657773 -2.43605,-0.923557 -3.9126,-0.925055 -1.56304,-0.0015 -2.93359,0.356686 -4.29005,1.12146 -1.23486,0.69621 -2.51142,1.974235 -3.21058,3.214242 -0.51491,0.913258 -0.8918,1.997046 -1.03885,2.987406 -0.0964,0.649346 -0.0983,1.938786 -0.004,2.560527 0.18921,1.244291 0.66119,2.474065 1.34542,3.50554 0.37364,0.563263 0.36191,0.557013 0.69151,0.368431 0.58961,-0.33734 0.74337,-0.500519 1.06457,-1.129786 0.3756,-0.735849 0.77717,-1.378899 1.14001,-1.825515 0.41884,-0.515551 0.47643,-0.607313 0.68654,-1.094074 0.10572,-0.244921 0.2954,-0.604614 0.42151,-0.799311 l 0.22929,-0.354003 -0.29663,-0.291548 c -0.394,-0.387256 -0.72173,-0.826402 -0.78339,-1.04971 -0.063,-0.228063 0.0113,-0.35532 0.30733,-0.526286 0.2993,-0.172881 0.51334,-0.222553 1.31327,-0.304769 0.38949,-0.04003 0.81235,-0.113357 0.94553,-0.163964 0.13251,-0.05035 0.52845,-0.265848 0.87985,-0.478885 1.01459,-0.615082 1.10043,-0.646917 1.7087,-0.633731 0.51376,0.01115 0.51472,0.01093 0.81935,-0.173204 0.63837,-0.385881 1.55515,-1.082133 2.76157,-2.097283 0.23134,-0.194664 0.4542,-0.34747 0.49523,-0.339569 0.17065,0.03288 0.48406,0.801913 0.53167,1.304623 0.0289,0.304889 -0.0301,0.606401 -0.21096,1.078274 -0.0493,0.128754 -0.0721,0.251655 -0.0506,0.273115 0.0517,0.05152 0.22923,-0.170228 0.22923,-0.286324 0,-0.148025 0.098,-0.16492 0.23135,-0.03987 0.0969,0.09091 0.18049,0.116929 0.37544,0.116929 0.21286,0 0.26555,0.01975 0.34863,0.13059 0.14098,0.188102 0.17404,0.70076 0.0661,1.025611 -0.10497,0.316022 -0.42221,0.680486 -0.71013,0.815819 -0.25762,0.121101 -0.77919,0.630342 -1.02327,0.999085 -0.0934,0.141152 -0.2686,0.435404 -0.38928,0.653899 -0.12067,0.218492 -0.32309,0.548609 -0.44981,0.733596 -0.24935,0.363999 -0.46288,0.871745 -0.66898,1.590785 -0.12107,0.422397 -0.13123,0.532364 -0.13624,1.474419 -0.006,1.137991 -0.0649,1.417228 -0.37255,1.767627 -0.34976,0.398358 -0.6989,1.273182 -0.72825,1.824757 -0.0185,0.348153 -0.0722,0.687532 -0.14838,0.938868 -0.0336,0.110672 0.0291,0.109381 0.40242,-0.0083 z"
               id="path2738"
               inkscape:connector-curvature="0" />
            <path
               sodipodi:type="star"
               style="fill:#00acff;fill-opacity:1;stroke:none;stroke-width:1.5;stroke-miterlimit:4;stroke-dasharray:none"
               id="path2740"
               sodipodi:sides="4"
               sodipodi:cx="18.854025"
               sodipodi:cy="172.98837"
               sodipodi:r1="1.6036172"
               sodipodi:r2="1.1339285"
               sodipodi:arg1="1.5707963"
               sodipodi:arg2="2.3561945"
               inkscape:flatsided="true"
               inkscape:rounded="0"
               inkscape:randomized="0"
               transform="matrix(0.08709618,0.15085501,-0.37308541,0.21540095,495.90424,25.254757)"
               d="m 18.854025,174.59199 -1.603617,-1.60362 1.603617,-1.60361 1.603617,1.60361 z" />
          </g>
        </g>
        <g
           id="g1406">
          <path
             style="color:#bebebe;display:inline;overflow:visible;visibility:visible;fill:#00acff;fill-opacity:1;fill-rule:nonzero;stroke:none;stroke-width:2;marker:none;enable-background:accumulate"
             d="m 419,140.5 c -1.3844,0 -2.5,1.1156 -2.5,2.5 v 10 c 0,1.3844 1.1156,2.5 2.5,2.5 h 10 c 1.3844,0 2.5,-1.1156 2.5,-2.5 v -10 c 0,-1.3844 -1.1156,-2.5 -2.5,-2.5 z"
             id="path4202" />
          <g
             id="g1305">
            <path
               style="fill:#ffffff;fill-opacity:1;stroke-width:0.025685"
               d="m 423.33414,153.22513 c -0.92108,-0.11819 -1.80213,-0.48536 -2.57097,-1.07145 -0.25077,-0.19115 -0.72128,-0.66471 -0.92667,-0.93267 -0.57516,-0.75035 -0.93281,-1.60192 -1.05079,-2.50198 -0.0505,-0.38533 -0.0502,-1.09376 5.4e-4,-1.44594 0.25397,-1.76053 1.36192,-3.2706 2.95292,-4.02465 0.74002,-0.35073 1.41737,-0.49919 2.27755,-0.49919 1.39129,0 2.62623,0.49848 3.62697,1.46404 0.48209,0.46514 0.80538,0.90632 1.08221,1.47688 0.37446,0.77178 0.52611,1.4431 0.52611,2.32893 0,1.16612 -0.33676,2.18308 -1.03619,3.12912 -0.20785,0.28113 -0.61386,0.70817 -0.88329,0.92904 -0.73906,0.60584 -1.68111,1.01578 -2.61587,1.13831 -0.32298,0.0423 -1.08597,0.0476 -1.38254,0.01 z m 1.94957,-0.94465 c 0.56274,-0.17739 1.02132,-0.41577 1.46404,-0.76104 0.23541,-0.18359 0.64231,-0.59439 0.81291,-0.82071 0.46272,-0.61384 0.77757,-1.38275 0.87021,-2.1252 0.0446,-0.3576 0.0187,-1.11411 -0.0494,-1.44248 -0.18045,-0.8699 -0.56919,-1.60468 -1.18162,-2.23344 -0.38182,-0.39199 -0.72942,-0.65036 -1.17662,-0.87458 -0.67856,-0.34023 -1.26002,-0.4777 -2.02375,-0.47848 -0.80847,-7.7e-4 -1.51738,0.1845 -2.219,0.58007 -0.63872,0.36011 -1.29901,1.02116 -1.66064,1.66254 -0.26634,0.47237 -0.46128,1.03295 -0.53734,1.54521 -0.0499,0.33587 -0.0509,1.00282 -0.002,1.32441 0.0979,0.6436 0.342,1.27969 0.69591,1.81321 0.19326,0.29134 0.18719,0.28811 0.35768,0.19057 0.30497,-0.17449 0.3845,-0.25889 0.55063,-0.58437 0.19428,-0.38062 0.40199,-0.71323 0.58967,-0.94424 0.21664,-0.26666 0.24642,-0.31412 0.3551,-0.5659 0.0547,-0.12668 0.1528,-0.31273 0.21802,-0.41343 l 0.1186,-0.18311 -0.15342,-0.1508 c -0.2038,-0.2003 -0.37331,-0.42745 -0.40521,-0.54295 -0.0326,-0.11797 0.006,-0.18379 0.15897,-0.27222 0.15481,-0.0894 0.26552,-0.11511 0.67927,-0.15764 0.20146,-0.0207 0.42018,-0.0586 0.48907,-0.0848 0.0685,-0.026 0.27334,-0.13751 0.4551,-0.2477 0.52478,-0.31814 0.56918,-0.33461 0.88381,-0.32779 0.26573,0.006 0.26623,0.006 0.4238,-0.0896 0.33019,-0.19959 0.80439,-0.55972 1.4284,-1.0848 0.11966,-0.10069 0.23493,-0.17972 0.25615,-0.17564 0.0883,0.017 0.25038,0.41478 0.275,0.67481 0.0149,0.1577 -0.0156,0.31365 -0.10912,0.55773 -0.0255,0.0666 -0.0373,0.13016 -0.0261,0.14126 0.0267,0.0266 0.11857,-0.0881 0.11857,-0.1481 0,-0.0766 0.0507,-0.0853 0.11966,-0.0206 0.0501,0.047 0.0934,0.0605 0.1942,0.0605 0.1101,0 0.13735,0.0102 0.18032,0.0675 0.0729,0.0973 0.09,0.36246 0.0342,0.53048 -0.0543,0.16346 -0.21838,0.35198 -0.3673,0.42198 -0.13326,0.0626 -0.40304,0.32604 -0.52928,0.51677 -0.0483,0.073 -0.13894,0.22521 -0.20135,0.33822 -0.0624,0.11301 -0.16712,0.28376 -0.23266,0.37945 -0.12898,0.18827 -0.23943,0.4509 -0.34603,0.82282 -0.0626,0.21848 -0.0679,0.27536 -0.0705,0.76263 -0.003,0.58861 -0.0336,0.73305 -0.1927,0.91429 -0.18091,0.20604 -0.3615,0.65854 -0.37668,0.94384 -0.01,0.18008 -0.0373,0.35562 -0.0768,0.48562 -0.0174,0.0572 0.0151,0.0566 0.20815,-0.004 z"
               id="path2936"
               inkscape:connector-curvature="0" />
            <path
               sodipodi:type="star"
               style="fill:#00acff;fill-opacity:1;stroke:none;stroke-width:1.5;stroke-miterlimit:4;stroke-dasharray:none"
               id="path2938"
               sodipodi:sides="4"
               sodipodi:cx="18.854025"
               sodipodi:cy="172.98837"
               sodipodi:r1="1.6036172"
               sodipodi:r2="1.1339285"
               sodipodi:arg1="1.5707963"
               sodipodi:arg2="2.3561945"
               inkscape:flatsided="true"
               inkscape:rounded="0"
               inkscape:randomized="0"
               transform="matrix(0.04504975,0.07802845,-0.19297521,0.11141429,457.05392,125.89039)"
               d="m 18.854025,174.59199 -1.603617,-1.60362 1.603617,-1.60361 1.603617,1.60361 z" />
          </g>
        </g>
      </g>
    </g>
    <g
       inkscape:groupmode="layer"
       id="layer6"
       inkscape:label="Symbols"
       style="display:inline" />
    <g
       inkscape:groupmode="layer"
       id="layer5"
       inkscape:label="Highlights"
       style="display:inline"
       sodipodi:insensitive="true">
      <path
         style="opacity:0.12999998;color:#bebebe;fill:#ffffff;fill-opacity:1;fill-rule:nonzero;stroke:none;stroke-width:0;marker:none;visibility:visible;display:inline;overflow:visible;enable-background:accumulate"
         d="M 84,47 C 56.836703,47 35,68.836703 35,96 l 0,1 C 35,69.836703 56.836703,48 84,48 l 120,0 c 27.1633,0 49,21.836703 49,49 l 0,-1 C 253,68.836703 231.1633,47 204,47 L 84,47 z"
         id="rect3894"
         inkscape:connector-curvature="0" />
      <path
         style="opacity:0.12999998;color:#bebebe;fill:#ffffff;fill-opacity:1;fill-rule:nonzero;stroke:none;stroke-width:0;marker:none;visibility:visible;display:inline;overflow:visible;enable-background:accumulate"
         d="m 419,141 c -1.1253,0 -2,0.8747 -2,2 l 0,1 c 0,-1.1253 0.8747,-2 2,-2 l 10,0 c 1.1253,0 2,0.8747 2,2 l 0,-1 c 0,-1.1253 -0.8747,-2 -2,-2 l -10,0 z"
         id="rect3896"
         inkscape:connector-curvature="0" />
      <path
         style="opacity:0.12999998;color:#bebebe;fill:#ffffff;fill-opacity:1;fill-rule:nonzero;stroke:none;stroke-width:0;marker:none;visibility:visible;display:inline;overflow:visible;enable-background:accumulate"
         d="m 422,102 c -2.2333,0 -4,1.7667 -4,4 l 0,1 c 0,-2.2333 1.7667,-4 4,-4 l 12,0 c 2.2333,0 4,1.7667 4,4 l 0,-1 c 0,-2.2333 -1.7667,-4 -4,-4 l -12,0 z"
         id="rect3898"
         inkscape:connector-curvature="0" />
      <path
         style="opacity:0.12999998;color:#bebebe;fill:#ffffff;fill-opacity:1;fill-rule:nonzero;stroke:none;stroke-width:0;marker:none;visibility:visible;display:inline;overflow:visible;enable-background:accumulate"
         d="m 424,54 c -3.3413,0 -6,2.658703 -6,6 l 0,1 c 0,-3.341297 2.6587,-6 6,-6 l 16,0 c 3.3413,0 6,2.658703 6,6 l 0,-1 c 0,-3.341297 -2.6587,-6 -6,-6 l -16,0 z"
         id="rect3900"
         inkscape:connector-curvature="0" />
      <path
         style="opacity:0.12999998;color:#bebebe;fill:#ffffff;fill-opacity:1;fill-rule:nonzero;stroke:none;stroke-width:0;marker:none;visibility:visible;display:inline;overflow:visible;enable-background:accumulate"
         d="m 300,224 c -4.4493,0 -8,3.5507 -8,8 l 0,1 c 0,-4.4493 3.5507,-8 8,-8 l 24,0 c 4.4493,0 8,3.5507 8,8 l 0,-1 c 0,-4.4493 -3.5507,-8 -8,-8 l -24,0 z"
         id="rect3902"
         inkscape:connector-curvature="0" />
      <path
         style="opacity:0.12999998;color:#bebebe;fill:#ffffff;fill-opacity:1;fill-rule:nonzero;stroke:none;stroke-width:0;marker:none;visibility:visible;display:inline;overflow:visible;enable-background:accumulate"
         d="m 310,33 c -9.4353,0 -17,7.564703 -17,17 l 0,1 c 0,-9.435297 7.5647,-17 17,-17 l 52,0 c 9.4353,0 17,7.564703 17,17 l 0,-1 c 0,-9.435297 -7.5647,-17 -17,-17 l -52,0 z"
         id="rect3904"
         inkscape:connector-curvature="0" />
      <path
         style="opacity:0.12999998;color:#bebebe;fill:#ffffff;fill-opacity:1;fill-rule:nonzero;stroke:none;stroke-width:0;marker:none;visibility:visible;display:inline;overflow:visible;enable-background:accumulate"
         d="m 302.5,143 c -6.3883,0 -11.5,5.1117 -11.5,11.5 l 0,1 c 0,-6.3883 5.1117,-11.5 11.5,-11.5 l 35,0 c 6.3883,0 11.5,5.1117 11.5,11.5 l 0,-1 c 0,-6.3883 -5.1117,-11.5 -11.5,-11.5 l -35,0 z"
         id="rect3906"
         inkscape:connector-curvature="0" />
      <path
         id="path4085"
         d="m 204,266 c 27.1633,0 49,-21.8367 49,-49 l 0,-1 c 0,27.1633 -21.8367,49 -49,49 L 84,265 C 56.8367,265 35,243.1633 35,216 l 0,1 c 0,27.1633 21.8367,49 49,49 l 120,0 z"
         style="opacity:0.41;color:#bebebe;fill:#000000;fill-opacity:1;fill-rule:nonzero;stroke:none;stroke-width:0;marker:none;visibility:visible;display:inline;overflow:visible;enable-background:accumulate"
         inkscape:connector-curvature="0" />
      <path
         id="path4087"
         d="m 429,156 c 1.1253,0 2,-0.8747 2,-2 l 0,-1 c 0,1.1253 -0.8747,2 -2,2 l -10,0 c -1.1253,0 -2,-0.8747 -2,-2 l 0,1 c 0,1.1253 0.8747,2 2,2 l 10,0 z"
         style="opacity:0.3;color:#bebebe;fill:#000000;fill-opacity:1;fill-rule:nonzero;stroke:none;stroke-width:0;marker:none;visibility:visible;display:inline;overflow:visible;enable-background:accumulate"
         inkscape:connector-curvature="0" />
      <path
         id="path4089"
         d="m 434,123 c 2.2333,0 4,-1.7667 4,-4 l 0,-1 c 0,2.2333 -1.7667,4 -4,4 l -12,0 c -2.2333,0 -4,-1.7667 -4,-4 l 0,1 c 0,2.2333 1.7667,4 4,4 l 12,0 z"
         style="opacity:0.3;color:#bebebe;fill:#000000;fill-opacity:1;fill-rule:nonzero;stroke:none;stroke-width:0;marker:none;visibility:visible;display:inline;overflow:visible;enable-background:accumulate"
         inkscape:connector-curvature="0" />
      <path
         id="path4091"
         d="m 440,83 c 3.3413,0 6,-2.6587 6,-6 l 0,-1 c 0,3.3413 -2.6587,6 -6,6 l -16,0 c -3.3413,0 -6,-2.6587 -6,-6 l 0,1 c 0,3.3413 2.6587,6 6,6 l 16,0 z"
         style="opacity:0.41;color:#bebebe;fill:#000000;fill-opacity:1;fill-rule:nonzero;stroke:none;stroke-width:0;marker:none;visibility:visible;display:inline;overflow:visible;enable-background:accumulate"
         inkscape:connector-curvature="0" />
      <path
         id="path4093"
         d="m 324,265 c 4.4493,0 8,-3.5507 8,-8 l 0,-1 c 0,4.4493 -3.5507,8 -8,8 l -24,0 c -4.4493,0 -8,-3.5507 -8,-8 l 0,1 c 0,4.4493 3.5507,8 8,8 l 24,0 z"
         style="opacity:0.41;color:#bebebe;fill:#000000;fill-opacity:1;fill-rule:nonzero;stroke:none;stroke-width:0;marker:none;visibility:visible;display:inline;overflow:visible;enable-background:accumulate"
         inkscape:connector-curvature="0" />
      <path
         id="path4095"
         d="m 362,120 c 9.4353,0 17,-7.5647 17,-17 l 0,-1 c 0,9.4353 -7.5647,17 -17,17 l -52,0 c -9.4353,0 -17,-7.5647 -17,-17 l 0,1 c 0,9.4353 7.5647,17 17,17 l 52,0 z"
         style="opacity:0.41;color:#bebebe;fill:#000000;fill-opacity:1;fill-rule:nonzero;stroke:none;stroke-width:0;marker:none;visibility:visible;display:inline;overflow:visible;enable-background:accumulate"
         inkscape:connector-curvature="0" />
      <path
         id="path4097"
         d="m 337.5,202 c 6.3883,0 11.5,-5.1117 11.5,-11.5 l 0,-1 c 0,6.3883 -5.1117,11.5 -11.5,11.5 l -35,0 c -6.3883,0 -11.5,-5.1117 -11.5,-11.5 l 0,1 c 0,6.3883 5.1117,11.5 11.5,11.5 l 35,0 z"
         style="opacity:0.41;color:#bebebe;fill:#000000;fill-opacity:1;fill-rule:nonzero;stroke:none;stroke-width:0;marker:none;visibility:visible;display:inline;overflow:visible;enable-background:accumulate"
         inkscape:connector-curvature="0" />
      <path
         inkscape:connector-curvature="0"
         id="path4280"
         d="M 84,265 C 56.836703,265 35,243.1633 35,216 l 0,-1 c 0,27.1633 21.836703,49 49,49 l 120,0 c 27.1633,0 49,-21.8367 49,-49 l 0,1 c 0,27.1633 -21.8367,49 -49,49 l -120,0 z"
         style="opacity:0.1;color:#bebebe;fill:#ffffff;fill-opacity:1;fill-rule:nonzero;stroke:none;stroke-width:0;marker:none;visibility:visible;display:inline;overflow:visible;enable-background:accumulate" />
      <path
         style="opacity:0.1;color:#bebebe;fill:#ffffff;fill-opacity:1;fill-rule:nonzero;stroke:none;stroke-width:0;marker:none;visibility:visible;display:inline;overflow:visible;enable-background:accumulate"
         d="m 300,264 c -4.4493,0 -8,-3.5507 -8,-8 l 0,-1 c 0,4.4493 3.5507,8 8,8 l 24,0 c 4.4493,0 8,-3.5507 8,-8 l 0,1 c 0,4.4493 -3.5507,8 -8,8 l -24,0 z"
         id="path4294"
         inkscape:connector-curvature="0" />
      <path
         style="opacity:0.1;color:#bebebe;fill:#ffffff;fill-opacity:1;fill-rule:nonzero;stroke:none;stroke-width:0;marker:none;visibility:visible;display:inline;overflow:visible;enable-background:accumulate"
         d="m 302.5,201 c -6.3883,0 -11.5,-5.1117 -11.5,-11.5 l 0,-1 c 0,6.3883 5.1117,11.5 11.5,11.5 l 35,0 c 6.3883,0 11.5,-5.1117 11.5,-11.5 l 0,1 c 0,6.3883 -5.1117,11.5 -11.5,11.5 l -35,0 z"
         id="path4296"
         inkscape:connector-curvature="0" />
      <path
         style="opacity:0.1;color:#bebebe;fill:#ffffff;fill-opacity:1;fill-rule:nonzero;stroke:none;stroke-width:0;marker:none;visibility:visible;display:inline;overflow:visible;enable-background:accumulate"
         d="m 310,119 c -9.4353,0 -17,-7.5647 -17,-17 l 0,-1 c 0,9.4353 7.5647,17 17,17 l 52,0 c 9.4353,0 17,-7.5647 17,-17 l 0,1 c 0,9.4353 -7.5647,17 -17,17 l -52,0 z"
         id="path4298"
         inkscape:connector-curvature="0" />
      <path
         style="opacity:0.1;color:#bebebe;fill:#ffffff;fill-opacity:1;fill-rule:nonzero;stroke:none;stroke-width:0;marker:none;visibility:visible;display:inline;overflow:visible;enable-background:accumulate"
         d="m 424,82 c -3.3413,0 -6,-2.658703 -6,-6 l 0,-1 c 0,3.341297 2.6587,6 6,6 l 16,0 c 3.3413,0 6,-2.658703 6,-6 l 0,1 c 0,3.341297 -2.6587,6 -6,6 l -16,0 z"
         id="path4300"
         inkscape:connector-curvature="0" />
      <path
         style="opacity:0.1;color:#bebebe;fill:#ffffff;fill-opacity:1;fill-rule:nonzero;stroke:none;stroke-width:0;marker:none;visibility:visible;display:inline;overflow:visible;enable-background:accumulate"
         d="m 422,122 c -2.2333,0 -4,-1.7667 -4,-4 l 0,-1 c 0,2.2333 1.7667,4 4,4 l 12,0 c 2.2333,0 4,-1.7667 4,-4 l 0,1 c 0,2.2333 -1.7667,4 -4,4 l -12,0 z"
         id="path4302"
         inkscape:connector-curvature="0" />
      <path
         style="opacity:0.1;color:#bebebe;fill:#ffffff;fill-opacity:1;fill-rule:nonzero;stroke:none;stroke-width:0;marker:none;visibility:visible;display:inline;overflow:visible;enable-background:accumulate"
         d="m 419,154.5 c -1.1253,0 -2,-0.8747 -2,-2 l 0,-1 c 0,1.1253 0.8747,2 2,2 l 10,0 c 1.1253,0 2,-0.8747 2,-2 l 0,1 c 0,1.1253 -0.8747,2 -2,2 l -10,0 z"
         id="path4304"
         inkscape:connector-curvature="0" />
    </g>
    <g
       inkscape:groupmode="layer"
       id="layer3"
       inkscape:label="Border"
       style="display:inline"
       sodipodi:insensitive="true">
      <path
         style="opacity:0.41;color:#bebebe;fill:#000000;fill-opacity:1;fill-rule:nonzero;stroke:none;stroke-width:0;marker:none;visibility:visible;display:inline;overflow:visible;enable-background:accumulate"
         d="m 422,101 c -2.77,0 -5,2.23 -5,5 l 0,12 c 0,2.77 2.23,5 5,5 l 12,0 c 2.77,0 5,-2.23 5,-5 l 0,-12 c 0,-2.77 -2.23,-5 -5,-5 l -12,0 z m 0,1 12,0 c 2.2333,0 4,1.7667 4,4 l 0,12 c 0,2.2333 -1.7667,4 -4,4 l -12,0 c -2.2333,0 -4,-1.7667 -4,-4 l 0,-12 c 0,-2.2333 1.7667,-4 4,-4 z"
         id="rect4099"
         inkscape:connector-curvature="0" />
      <path
         style="opacity:0.41;color:#bebebe;fill:#000000;fill-opacity:1;fill-rule:nonzero;stroke:none;stroke-width:0;marker:none;visibility:visible;display:inline;overflow:visible;enable-background:accumulate"
         d="m 424,53 c -3.878,0 -7,3.122 -7,7 l 0,16 c 0,3.878 3.122,7 7,7 l 16,0 c 3.878,0 7,-3.122 7,-7 l 0,-16 c 0,-3.878 -3.122,-7 -7,-7 l -16,0 z m 0,1 16,0 c 3.3413,0 6,2.658703 6,6 l 0,16 c 0,3.341297 -2.6587,6 -6,6 l -16,0 c -3.3413,0 -6,-2.658703 -6,-6 l 0,-16 c 0,-3.341297 2.6587,-6 6,-6 z"
         id="rect4151"
         inkscape:connector-curvature="0" />
      <path
         style="opacity:0.41;color:#bebebe;fill:#000000;fill-opacity:1;fill-rule:nonzero;stroke:none;stroke-width:0;marker:none;visibility:visible;display:inline;overflow:visible;enable-background:accumulate"
         d="m 419,140 c -1.662,0 -3,1.338 -3,3 l 0,10 c 0,1.662 1.338,3 3,3 l 10,0 c 1.662,0 3,-1.338 3,-3 l 0,-10 c 0,-1.662 -1.338,-3 -3,-3 l -10,0 z m 0,1 10,0 c 1.1253,0 2,0.8747 2,2 l 0,10 c 0,1.1253 -0.8747,2 -2,2 l -10,0 c -1.1253,0 -2,-0.8747 -2,-2 l 0,-10 c 0,-1.1253 0.8747,-2 2,-2 z"
         id="rect4095"
         inkscape:connector-curvature="0" />
      <path
         style="opacity:0.41;color:#bebebe;fill:#000000;fill-opacity:1;fill-rule:nonzero;stroke:none;stroke-width:0;marker:none;visibility:visible;display:inline;overflow:visible;enable-background:accumulate"
         d="m 300,223 c -4.986,0 -9,4.014 -9,9 l 0,24 c 0,4.986 4.014,9 9,9 l 24,0 c 4.986,0 9,-4.014 9,-9 l 0,-24 c 0,-4.986 -4.014,-9 -9,-9 l -24,0 z m 0,1 24,0 c 4.4493,0 8,3.5507 8,8 l 0,24 c 0,4.4493 -3.5507,8 -8,8 l -24,0 c -4.4493,0 -8,-3.5507 -8,-8 l 0,-24 c 0,-4.4493 3.5507,-8 8,-8 z"
         id="rect4783"
         inkscape:connector-curvature="0" />
      <path
         style="opacity:0.41;color:#bebebe;fill:#000000;fill-opacity:1;fill-rule:nonzero;stroke:none;stroke-width:0;marker:none;visibility:visible;display:inline;overflow:visible;enable-background:accumulate"
         d="m 302.5,142 c -6.925,0 -12.5,5.575 -12.5,12.5 l 0,35 c 0,6.925 5.575,12.5 12.5,12.5 l 35,0 c 6.925,0 12.5,-5.575 12.5,-12.5 l 0,-35 c 0,-6.925 -5.575,-12.5 -12.5,-12.5 l -35,0 z m 0,1 35,0 c 6.3883,0 11.5,5.1117 11.5,11.5 l 0,35 c 0,6.3883 -5.1117,11.5 -11.5,11.5 l -35,0 c -6.3883,0 -11.5,-5.1117 -11.5,-11.5 l 0,-35 c 0,-6.3883 5.1117,-11.5 11.5,-11.5 z"
         id="rect4515"
         inkscape:connector-curvature="0" />
      <path
         style="opacity:0.41;color:#bebebe;fill:#000000;fill-opacity:1;fill-rule:nonzero;stroke:none;stroke-width:0;marker:none;visibility:visible;display:inline;overflow:visible;enable-background:accumulate"
         d="m 310,32 c -9.972,0 -18,8.028 -18,18 l 0,52 c 0,9.972 8.028,18 18,18 l 52,0 c 9.972,0 18,-8.028 18,-18 l 0,-52 c 0,-9.972 -8.028,-18 -18,-18 l -52,0 z m 0,1 52,0 c 9.4353,0 17,7.564703 17,17 l 0,52 c 0,9.4353 -7.5647,17 -17,17 l -52,0 c -9.4353,0 -17,-7.5647 -17,-17 l 0,-52 c 0,-9.435297 7.5647,-17 17,-17 z"
         id="rect4511"
         inkscape:connector-curvature="0" />
      <path
         style="opacity:0.41;color:#bebebe;fill:#000000;fill-opacity:1;fill-rule:nonzero;stroke:none;stroke-width:0;marker:none;visibility:visible;display:inline;overflow:visible;enable-background:accumulate"
         d="M 84,46 C 56.3,46 34,68.3 34,96 l 0,120 c 0,27.7 22.3,50 50,50 l 120,0 c 27.7,0 50,-22.3 50,-50 L 254,96 C 254,68.3 231.7,46 204,46 L 84,46 z m 0,1 120,0 c 27.1633,0 49,21.836703 49,49 l 0,120 c 0,27.1633 -21.8367,49 -49,49 L 84,265 C 56.836703,265 35,243.1633 35,216 L 35,96 C 35,68.836703 56.836703,47 84,47 z"
         id="rect4040"
         inkscape:connector-curvature="0" />
    </g>
  </g>
  <style
     type="text/css"
     id="style134">
	.st0{fill:#EF443B;}
</style>
</svg>
