<?xml version="1.0" encoding="UTF-8" standalone="no"?>
<!-- Created with Inkscape (http://www.inkscape.org/) -->

<svg
   inkscape:export-ydpi="90.000000"
   inkscape:export-xdpi="90.000000"
   width="480"
   height="300"
   id="svg11300"
   sodipodi:version="0.32"
   inkscape:version="1.1.2 (0a00cf5339, 2022-02-04)"
   sodipodi:docname="librewolf.svg"
   inkscape:output_extension="org.inkscape.output.svg.inkscape"
   version="1.0"
   style="display:inline;enable-background:new"
   inkscape:export-filename="/home/sam/moka-next-template.png"
   xmlns:inkscape="http://www.inkscape.org/namespaces/inkscape"
   xmlns:sodipodi="http://sodipodi.sourceforge.net/DTD/sodipodi-0.dtd"
   xmlns="http://www.w3.org/2000/svg"
   xmlns:svg="http://www.w3.org/2000/svg"
   xmlns:rdf="http://www.w3.org/1999/02/22-rdf-syntax-ns#"
   xmlns:cc="http://creativecommons.org/ns#"
   xmlns:dc="http://purl.org/dc/elements/1.1/">
  <sodipodi:namedview
     stroke="#ef2929"
     fill="#f57900"
     id="base"
     pagecolor="#ffffff"
     bordercolor="#000000"
     borderopacity="0.54509804"
     inkscape:pageopacity="0"
     inkscape:pageshadow="2"
     inkscape:zoom="5.6568544"
     inkscape:cx="432.3074"
     inkscape:cy="93.603258"
     inkscape:current-layer="layer2"
     showgrid="false"
     inkscape:grid-bbox="true"
     inkscape:document-units="px"
     inkscape:showpageshadow="false"
     inkscape:window-width="1920"
     inkscape:window-height="1008"
     inkscape:window-x="0"
     inkscape:window-y="40"
     width="400px"
     height="300px"
     inkscape:snap-nodes="true"
     inkscape:snap-bbox="true"
     gridtolerance="10000"
     inkscape:object-nodes="true"
     inkscape:snap-grids="true"
     showguides="true"
     inkscape:guide-bbox="true"
     inkscape:window-maximized="1"
     inkscape:bbox-nodes="true"
     inkscape:bbox-paths="true"
     inkscape:snap-bbox-edge-midpoints="true"
     inkscape:snap-bbox-midpoints="true"
     inkscape:pagecheckerboard="0">
    <inkscape:grid
       spacingy="1"
       spacingx="1"
       id="grid5883"
       type="xygrid"
       enabled="true"
       visible="true"
       empspacing="4"
       snapvisiblegridlinesonly="true"
       dotted="false"
       color="#000000"
       opacity="0.1254902"
       empcolor="#203ef3"
       empopacity="0.36470588"
       originx="0"
       originy="0" />
    <inkscape:grid
       type="xygrid"
       id="grid11592"
       empspacing="8"
       visible="true"
       enabled="false"
       spacingx="0.5"
       spacingy="0.5"
       color="#ff0000"
       opacity="0.1254902"
       empcolor="#ff0000"
       empopacity="0.25098039"
       snapvisiblegridlinesonly="true"
       dotted="true"
       originx="0"
       originy="0" />
  </sodipodi:namedview>
  <defs
     id="defs3">
    <linearGradient
       id="linearGradient905">
      <stop
         style="stop-color:#ff7139;stop-opacity:1"
         offset="0"
         id="stop901" />
      <stop
         style="stop-color:#ff7139;stop-opacity:1"
         offset="1"
         id="stop903" />
    </linearGradient>
    <linearGradient
       id="linearGradient3984">
      <stop
         id="stop3986"
         offset="0"
         style="stop-color:#f57d33;stop-opacity:1" />
      <stop
         id="stop3988"
         offset="1"
         style="stop-color:#faa653;stop-opacity:1;" />
    </linearGradient>
  </defs>
  <metadata
     id="metadata4">
    <rdf:RDF>
      <cc:Work
         rdf:about="">
        <dc:format>image/svg+xml</dc:format>
        <dc:type
           rdf:resource="http://purl.org/dc/dcmitype/StillImage" />
        <dc:creator>
          <cc:Agent>
            <dc:title>Sam Hewitt</dc:title>
          </cc:Agent>
        </dc:creator>
        <dc:source />
        <cc:license
           rdf:resource="" />
        <dc:title />
        <dc:subject>
          <rdf:Bag />
        </dc:subject>
        <dc:date />
        <dc:rights>
          <cc:Agent>
            <dc:title />
          </cc:Agent>
        </dc:rights>
        <dc:publisher>
          <cc:Agent>
            <dc:title />
          </cc:Agent>
        </dc:publisher>
        <dc:identifier />
        <dc:relation />
        <dc:language />
        <dc:coverage />
        <dc:description />
        <dc:contributor>
          <cc:Agent>
            <dc:title />
          </cc:Agent>
        </dc:contributor>
      </cc:Work>
      <cc:Work
         rdf:about="">
        <dc:format>image/svg+xml</dc:format>
        <dc:type
           rdf:resource="http://purl.org/dc/dcmitype/StillImage" />
      </cc:Work>
    </rdf:RDF>
  </metadata>
  <g
     style="display:inline"
     inkscape:groupmode="layer"
     inkscape:label="Icon"
     id="layer1">
    <g
       style="display:none"
       inkscape:label="Baseplate"
       id="layer7"
       inkscape:groupmode="layer">
      <text
         y="19.745117"
         xml:space="preserve"
         x="15.006836"
         style="font-style:normal;font-variant:normal;font-weight:normal;font-stretch:normal;line-height:0%;font-family:'DejaVu Sans';-inkscape-font-specification:'DejaVu Sans';display:inline;fill:#000000;fill-opacity:1;stroke:none;enable-background:new"
         inkscape:label="context"
         id="context"><tspan
           style="font-style:normal;font-variant:normal;font-weight:normal;font-stretch:normal;font-size:18px;line-height:1.25;font-family:'DejaVu Sans';-inkscape-font-specification:'DejaVu Sans'"
           y="19.745117"
           x="15.006836"
           sodipodi:role="line"
           id="tspan3933">apps</tspan></text>
      <text
         y="19.745117"
         xml:space="preserve"
         x="122.48828"
         style="font-style:normal;font-variant:normal;font-weight:bold;font-stretch:normal;line-height:0%;font-family:'DejaVu Sans';-inkscape-font-specification:'DejaVu Sans Bold';text-align:start;writing-mode:lr-tb;text-anchor:start;display:inline;fill:#000000;fill-opacity:1;stroke:none;enable-background:new"
         inkscape:label="icon-name"
         id="icon-name"><tspan
           style="font-style:normal;font-variant:normal;font-weight:bold;font-stretch:normal;font-size:18px;line-height:1.25;font-family:'DejaVu Sans';-inkscape-font-specification:'DejaVu Sans Bold'"
           y="19.745117"
           x="122.48828"
           sodipodi:role="line"
           id="tspan3937">librewolf-beta</tspan></text>
      <rect
         style="fill:#eeeeec;fill-opacity:1;fill-rule:nonzero;stroke:none;stroke-width:2;marker:none;visibility:visible;display:inline;overflow:visible;enable-background:accumulate"
         id="rect16x16"
         width="16"
         height="16"
         x="416"
         y="140"
         inkscape:label="16x16" />
      <rect
         style="fill:#d4d4d4;fill-opacity:1;fill-rule:nonzero;stroke:none;stroke-width:2;marker:none;visibility:visible;display:inline;overflow:visible;enable-background:accumulate"
         id="rect24x24"
         width="24"
         height="24"
         x="416"
         y="100"
         inkscape:label="24x24" />
      <rect
         style="fill:#eeeeec;fill-opacity:1;fill-rule:nonzero;stroke:none;stroke-width:2;marker:none;visibility:visible;display:inline;overflow:visible;enable-background:accumulate"
         id="rect32x32"
         width="32"
         height="32"
         x="416"
         y="52"
         inkscape:label="32x32" />
      <rect
         inkscape:label="22x22"
         y="101"
         x="417"
         height="22"
         width="22"
         id="rect22x22"
         style="fill:#eeeeec;fill-opacity:1;fill-rule:nonzero;stroke:none;stroke-width:2;marker:none;visibility:visible;display:inline;overflow:visible;enable-background:accumulate" />
      <rect
         inkscape:label="48x48"
         y="220"
         x="288"
         height="48"
         width="48"
         id="rect48x48"
         style="fill:#eeeeec;fill-opacity:1;fill-rule:nonzero;stroke:none;stroke-width:2;marker:none;visibility:visible;display:inline;overflow:visible;enable-background:accumulate" />
      <rect
         style="fill:#eeeeec;fill-opacity:1;fill-rule:nonzero;stroke:none;stroke-width:2;marker:none;visibility:visible;display:inline;overflow:visible;enable-background:accumulate"
         id="rect256x256"
         width="256"
         height="256"
         x="16"
         y="28"
         inkscape:label="256x256" />
      <rect
         style="fill:#eeeeec;fill-opacity:1;fill-rule:nonzero;stroke:none;stroke-width:2;marker:none;visibility:visible;display:inline;overflow:visible;enable-background:accumulate"
         id="rect64x64"
         width="64"
         height="64"
         x="288"
         y="140"
         inkscape:label="64x64" />
      <rect
         style="fill:#eeeeec;fill-opacity:1;fill-rule:nonzero;stroke:none;stroke-width:2;marker:none;visibility:visible;display:inline;overflow:visible;enable-background:accumulate"
         id="rect96x96"
         width="96"
         height="96"
         x="288"
         y="28"
         inkscape:label="96x96" />
    </g>
    <g
       inkscape:groupmode="layer"
       id="layer4"
       inkscape:label="Shadow"
       style="display:inline"
       sodipodi:insensitive="true">
      <rect
         ry="50"
         y="47"
         x="34"
         height="220"
         width="220"
         id="rect4114"
         style="opacity:0.1;color:#bebebe;fill:#000000;fill-opacity:1;fill-rule:nonzero;stroke:none;stroke-width:0;marker:none;visibility:visible;display:inline;overflow:visible;enable-background:accumulate" />
      <rect
         style="opacity:0.1;color:#bebebe;fill:#000000;fill-opacity:1;fill-rule:nonzero;stroke:none;stroke-width:0;marker:none;visibility:visible;display:inline;overflow:visible;enable-background:accumulate"
         id="rect4120"
         width="30"
         height="30"
         x="417"
         y="54"
         ry="7" />
      <rect
         transform="scale(1,-1)"
         ry="9"
         y="-266"
         x="291"
         height="42"
         width="42"
         id="rect4122"
         style="opacity:0.1;color:#bebebe;fill:#000000;fill-opacity:1;fill-rule:nonzero;stroke:none;stroke-width:0;marker:none;visibility:visible;display:inline;overflow:visible;enable-background:accumulate" />
      <rect
         style="opacity:0.1;color:#bebebe;fill:#000000;fill-opacity:1;fill-rule:nonzero;stroke:none;stroke-width:0;marker:none;visibility:visible;display:inline;overflow:visible;enable-background:accumulate"
         id="rect4124"
         width="88"
         height="88"
         x="292"
         y="33"
         ry="18" />
      <rect
         ry="12.5"
         y="143"
         x="290"
         height="60"
         width="60"
         id="rect4126"
         style="opacity:0.1;color:#bebebe;fill:#000000;fill-opacity:1;fill-rule:nonzero;stroke:none;stroke-width:0;marker:none;visibility:visible;display:inline;overflow:visible;enable-background:accumulate" />
      <path
         id="path4268"
         d="m 422,101 c -2.77,0 -5,2.23 -5,5 l 0,12 c 0,2.77 2.23,5 5,5 l 12,0 c 2.77,0 5,-2.23 5,-5 l 0,-12 c 0,-2.77 -2.23,-5 -5,-5 z"
         style="opacity:0.1;color:#bebebe;fill:#000000;fill-opacity:1;fill-rule:nonzero;stroke:none;stroke-width:0;marker:none;visibility:visible;display:inline;overflow:visible;enable-background:accumulate"
         inkscape:connector-curvature="0"
         sodipodi:nodetypes="sssssssss" />
      <path
         id="path4270"
         d="m 419,140 c -1.662,0 -3,1.338 -3,3 l 0,10 c 0,1.662 1.338,3 3,3 l 10,0 c 1.662,0 3,-1.338 3,-3 l 0,-10 c 0,-1.662 -1.338,-3 -3,-3 z"
         style="opacity:0.1;color:#bebebe;fill:#000000;fill-opacity:1;fill-rule:nonzero;stroke:none;stroke-width:0;marker:none;visibility:visible;display:inline;overflow:visible;enable-background:accumulate"
         inkscape:connector-curvature="0"
         sodipodi:nodetypes="sssssssss" />
    </g>
    <g
       inkscape:groupmode="layer"
       id="layer2"
       inkscape:label="Background"
       style="display:inline">
      <g
         id="g1969">
        <path
           style="color:#bebebe;display:inline;overflow:visible;visibility:visible;fill:#ffffff;fill-opacity:1;fill-rule:nonzero;stroke:none;stroke-width:2;marker:none;enable-background:accumulate"
           d="M 84,46.5 C 56.568735,46.5 34.5,68.568732 34.5,96 v 120 c 0,27.43127 22.068735,49.5 49.5,49.5 h 120 c 27.43127,0 49.5,-22.06873 49.5,-49.5 V 96 C 253.5,68.568732 231.43127,46.5 204,46.5 Z"
           id="path4200" />
        <g
           id="g1791">
          <path
             style="fill:#00acff;stroke-width:0.375001;fill-opacity:1"
             d="m 134.2784,232.28692 c -13.44782,-1.72559 -26.31112,-7.08636 -37.53624,-15.64322 -3.66114,-2.79085 -10.53055,-9.70477 -13.52929,-13.61693 -8.39738,-10.95522 -13.619,-23.38809 -15.34161,-36.52897 -0.73748,-5.62575 -0.73338,-15.96894 0.008,-21.11068 3.70793,-25.70371 19.88399,-47.750736 43.11254,-58.759876 10.80429,-5.120702 20.69367,-7.28827 33.25233,-7.28827 20.3128,0 38.34283,7.277924 52.95368,21.375016 7.03858,6.7911 11.75851,13.23235 15.80022,21.56249 5.46713,11.268 7.6813,21.06924 7.6813,34.00231 0,17.02542 -4.91669,31.87295 -15.12838,45.68519 -3.03457,4.10448 -8.96244,10.33934 -12.89613,13.56398 -10.79026,8.84525 -24.54418,14.83038 -38.19167,16.61941 -4.71552,0.61815 -15.85508,0.69517 -20.1851,0.13947 z m 28.46376,-13.79188 c 8.21591,-2.5899 14.91126,-6.07028 21.37499,-11.11122 3.43699,-2.68044 9.37764,-8.67809 11.86843,-11.98236 6.75575,-8.96207 11.35254,-20.18823 12.70507,-31.02794 0.65144,-5.22091 0.27309,-16.26596 -0.72142,-21.06028 -2.63452,-12.70052 -8.31018,-23.42832 -17.25167,-32.60812 -5.57455,-5.72309 -10.64943,-9.49527 -17.17853,-12.768887 -9.90709,-4.96732 -18.39638,-6.974447 -29.54687,-6.985758 -11.80367,-0.01134 -22.15368,2.693594 -32.39732,8.468957 -9.32529,5.257588 -18.96556,14.908878 -24.24537,24.273068 -3.88853,6.89667 -6.73463,15.08114 -7.84515,22.56007 -0.72813,4.90368 -0.74249,14.64117 -0.0285,19.33639 1.42886,9.39654 4.99316,18.68346 10.16026,26.47287 2.82164,4.25361 2.73304,4.20641 5.22212,2.78229 4.45259,-2.5475 5.61372,-3.77978 8.0393,-8.53183 2.83642,-5.55693 5.86902,-10.41307 8.60909,-13.78579 3.16296,-3.8933 3.59781,-4.58626 5.18453,-8.26214 0.79839,-1.84958 2.2308,-4.56588 3.18313,-6.03618 l 1.73152,-2.67333 -2.24002,-2.20169 c -2.97538,-2.92445 -5.45032,-6.24076 -5.91594,-7.92712 -0.47555,-1.72227 0.0856,-2.68328 2.32085,-3.97437 2.26021,-1.30555 3.87661,-1.68066 9.91745,-2.30153 2.94131,-0.30232 6.13461,-0.85604 7.14036,-1.23821 1.0007,-0.38024 3.99069,-2.00761 6.64441,-3.61641 7.6619,-4.64493 8.31011,-4.88534 12.90363,-4.78576 3.87974,0.0842 3.88704,0.0825 6.1875,-1.30799 4.8208,-2.91407 11.74407,-8.17197 20.85461,-15.8381 1.74705,-1.47005 3.42998,-2.624 3.73986,-2.56433 1.28869,0.24831 3.65546,6.05582 4.01501,9.85215 0.21807,2.30244 -0.22742,4.57937 -1.59311,8.14283 -0.37264,0.97231 -0.54448,1.90043 -0.38184,2.06249 0.39044,0.38908 1.73113,-1.28552 1.73113,-2.16224 0,-1.11785 0.7402,-1.24543 1.74707,-0.30113 0.73201,0.6865 1.36302,0.88302 2.83522,0.88302 1.60745,0 2.00536,0.14911 2.63274,0.98618 1.06462,1.42049 1.31428,5.29194 0.49947,7.74513 -0.79268,2.38651 -3.18841,5.13884 -5.36267,6.16084 -1.94551,0.91452 -5.88427,4.76017 -7.72747,7.54481 -0.70556,1.06594 -2.02843,3.28805 -2.93971,4.93807 -0.91131,1.64999 -2.4399,4.14294 -3.39687,5.53991 -1.88304,2.74882 -3.49554,6.58318 -5.05195,12.01317 -0.91432,3.18983 -0.99105,4.02027 -1.02884,11.13441 -0.0457,8.59379 -0.49009,10.70251 -2.81339,13.34863 -2.64133,3.00829 -5.27793,9.61472 -5.49957,13.78006 -0.13989,2.62916 -0.54495,5.19205 -1.12055,7.09007 -0.25347,0.83577 0.21975,0.82602 3.03903,-0.0626 z"
             id="path847"
             inkscape:connector-curvature="0" />
          <path
             sodipodi:type="star"
             style="fill:#ffffff;fill-opacity:1;stroke:none;stroke-width:1.5;stroke-miterlimit:4;stroke-dasharray:none"
             id="path814"
             sodipodi:sides="4"
             sodipodi:cx="18.854025"
             sodipodi:cy="172.98837"
             sodipodi:r1="1.6036172"
             sodipodi:r2="1.1339285"
             sodipodi:arg1="1.5707963"
             sodipodi:arg2="2.3561945"
             inkscape:flatsided="true"
             inkscape:rounded="0"
             inkscape:randomized="0"
             transform="matrix(0.65772634,1.1392154,-2.8174381,1.6266486,626.58719,-166.80029)"
             d="m 18.854025,174.59199 -1.603617,-1.60362 1.603617,-1.60361 1.603617,1.60361 z" />
        </g>
      </g>
      <g
         id="g2151">
        <path
           style="color:#bebebe;display:inline;overflow:visible;visibility:visible;fill:#ffffff;fill-opacity:1;fill-rule:nonzero;stroke:none;stroke-width:2;marker:none;enable-background:accumulate"
           d="m 310,32.5 c -9.70255,0 -17.5,7.797452 -17.5,17.5 v 52 c 0,9.70255 7.79745,17.5 17.5,17.5 h 52 c 9.70255,0 17.5,-7.79745 17.5,-17.5 V 50 c 0,-9.702548 -7.79745,-17.5 -17.5,-17.5 z"
           id="path4210" />
        <g
           id="g1977"
           transform="matrix(0.39726027,0,0,0.39726027,278.79452,14.027397)">
          <path
             style="fill:#00acff;fill-opacity:1;stroke-width:0.375001"
             d="m 134.2784,232.28692 c -13.44782,-1.72559 -26.31112,-7.08636 -37.53624,-15.64322 -3.66114,-2.79085 -10.53055,-9.70477 -13.52929,-13.61693 -8.39738,-10.95522 -13.619,-23.38809 -15.34161,-36.52897 -0.73748,-5.62575 -0.73338,-15.96894 0.008,-21.11068 3.70793,-25.70371 19.88399,-47.750736 43.11254,-58.759876 10.80429,-5.120702 20.69367,-7.28827 33.25233,-7.28827 20.3128,0 38.34283,7.277924 52.95368,21.375016 7.03858,6.7911 11.75851,13.23235 15.80022,21.56249 5.46713,11.268 7.6813,21.06924 7.6813,34.00231 0,17.02542 -4.91669,31.87295 -15.12838,45.68519 -3.03457,4.10448 -8.96244,10.33934 -12.89613,13.56398 -10.79026,8.84525 -24.54418,14.83038 -38.19167,16.61941 -4.71552,0.61815 -15.85508,0.69517 -20.1851,0.13947 z m 28.46376,-13.79188 c 8.21591,-2.5899 14.91126,-6.07028 21.37499,-11.11122 3.43699,-2.68044 9.37764,-8.67809 11.86843,-11.98236 6.75575,-8.96207 11.35254,-20.18823 12.70507,-31.02794 0.65144,-5.22091 0.27309,-16.26596 -0.72142,-21.06028 -2.63452,-12.70052 -8.31018,-23.42832 -17.25167,-32.60812 -5.57455,-5.72309 -10.64943,-9.49527 -17.17853,-12.768887 -9.90709,-4.96732 -18.39638,-6.974447 -29.54687,-6.985758 -11.80367,-0.01134 -22.15368,2.693594 -32.39732,8.468957 -9.32529,5.257588 -18.96556,14.908878 -24.24537,24.273068 -3.88853,6.89667 -6.73463,15.08114 -7.84515,22.56007 -0.72813,4.90368 -0.74249,14.64117 -0.0285,19.33639 1.42886,9.39654 4.99316,18.68346 10.16026,26.47287 2.82164,4.25361 2.73304,4.20641 5.22212,2.78229 4.45259,-2.5475 5.61372,-3.77978 8.0393,-8.53183 2.83642,-5.55693 5.86902,-10.41307 8.60909,-13.78579 3.16296,-3.8933 3.59781,-4.58626 5.18453,-8.26214 0.79839,-1.84958 2.2308,-4.56588 3.18313,-6.03618 l 1.73152,-2.67333 -2.24002,-2.20169 c -2.97538,-2.92445 -5.45032,-6.24076 -5.91594,-7.92712 -0.47555,-1.72227 0.0856,-2.68328 2.32085,-3.97437 2.26021,-1.30555 3.87661,-1.68066 9.91745,-2.30153 2.94131,-0.30232 6.13461,-0.85604 7.14036,-1.23821 1.0007,-0.38024 3.99069,-2.00761 6.64441,-3.61641 7.6619,-4.64493 8.31011,-4.88534 12.90363,-4.78576 3.87974,0.0842 3.88704,0.0825 6.1875,-1.30799 4.8208,-2.91407 11.74407,-8.17197 20.85461,-15.8381 1.74705,-1.47005 3.42998,-2.624 3.73986,-2.56433 1.28869,0.24831 3.65546,6.05582 4.01501,9.85215 0.21807,2.30244 -0.22742,4.57937 -1.59311,8.14283 -0.37264,0.97231 -0.54448,1.90043 -0.38184,2.06249 0.39044,0.38908 1.73113,-1.28552 1.73113,-2.16224 0,-1.11785 0.7402,-1.24543 1.74707,-0.30113 0.73201,0.6865 1.36302,0.88302 2.83522,0.88302 1.60745,0 2.00536,0.14911 2.63274,0.98618 1.06462,1.42049 1.31428,5.29194 0.49947,7.74513 -0.79268,2.38651 -3.18841,5.13884 -5.36267,6.16084 -1.94551,0.91452 -5.88427,4.76017 -7.72747,7.54481 -0.70556,1.06594 -2.02843,3.28805 -2.93971,4.93807 -0.91131,1.64999 -2.4399,4.14294 -3.39687,5.53991 -1.88304,2.74882 -3.49554,6.58318 -5.05195,12.01317 -0.91432,3.18983 -0.99105,4.02027 -1.02884,11.13441 -0.0457,8.59379 -0.49009,10.70251 -2.81339,13.34863 -2.64133,3.00829 -5.27793,9.61472 -5.49957,13.78006 -0.13989,2.62916 -0.54495,5.19205 -1.12055,7.09007 -0.25347,0.83577 0.21975,0.82602 3.03903,-0.0626 z"
             id="path1973"
             inkscape:connector-curvature="0" />
          <path
             sodipodi:type="star"
             style="fill:#ffffff;fill-opacity:1;stroke:none;stroke-width:1.5;stroke-miterlimit:4;stroke-dasharray:none"
             id="path1975"
             sodipodi:sides="4"
             sodipodi:cx="18.854025"
             sodipodi:cy="172.98837"
             sodipodi:r1="1.6036172"
             sodipodi:r2="1.1339285"
             sodipodi:arg1="1.5707963"
             sodipodi:arg2="2.3561945"
             inkscape:flatsided="true"
             inkscape:rounded="0"
             inkscape:randomized="0"
             transform="matrix(0.65772634,1.1392154,-2.8174381,1.6266486,626.58719,-166.80029)"
             d="m 18.854025,174.59199 -1.603617,-1.60362 1.603617,-1.60361 1.603617,1.60361 z" />
        </g>
      </g>
      <g
         id="g2257">
        <path
           style="color:#bebebe;display:inline;overflow:visible;visibility:visible;fill:#ffffff;fill-opacity:1;fill-rule:nonzero;stroke:none;stroke-width:2;marker:none;enable-background:accumulate"
           d="m 422,101.5 c -2.49699,0 -4.5,2.00301 -4.5,4.5 v 12 c 0,2.49699 2.00301,4.5 4.5,4.5 h 12 c 2.49699,0 4.5,-2.00301 4.5,-4.5 v -12 c 0,-2.49699 -2.00301,-4.5 -4.5,-4.5 z"
           id="path4204" />
        <g
           id="g2159"
           transform="matrix(0.09589041,0,0,0.09589041,414.19178,97.041096)">
          <path
             style="fill:#00acff;fill-opacity:1;stroke-width:0.375001"
             d="m 134.2784,232.28692 c -13.44782,-1.72559 -26.31112,-7.08636 -37.53624,-15.64322 -3.66114,-2.79085 -10.53055,-9.70477 -13.52929,-13.61693 -8.39738,-10.95522 -13.619,-23.38809 -15.34161,-36.52897 -0.73748,-5.62575 -0.73338,-15.96894 0.008,-21.11068 3.70793,-25.70371 19.88399,-47.750736 43.11254,-58.759876 10.80429,-5.120702 20.69367,-7.28827 33.25233,-7.28827 20.3128,0 38.34283,7.277924 52.95368,21.375016 7.03858,6.7911 11.75851,13.23235 15.80022,21.56249 5.46713,11.268 7.6813,21.06924 7.6813,34.00231 0,17.02542 -4.91669,31.87295 -15.12838,45.68519 -3.03457,4.10448 -8.96244,10.33934 -12.89613,13.56398 -10.79026,8.84525 -24.54418,14.83038 -38.19167,16.61941 -4.71552,0.61815 -15.85508,0.69517 -20.1851,0.13947 z m 28.46376,-13.79188 c 8.21591,-2.5899 14.91126,-6.07028 21.37499,-11.11122 3.43699,-2.68044 9.37764,-8.67809 11.86843,-11.98236 6.75575,-8.96207 11.35254,-20.18823 12.70507,-31.02794 0.65144,-5.22091 0.27309,-16.26596 -0.72142,-21.06028 -2.63452,-12.70052 -8.31018,-23.42832 -17.25167,-32.60812 -5.57455,-5.72309 -10.64943,-9.49527 -17.17853,-12.768887 -9.90709,-4.96732 -18.39638,-6.974447 -29.54687,-6.985758 -11.80367,-0.01134 -22.15368,2.693594 -32.39732,8.468957 -9.32529,5.257588 -18.96556,14.908878 -24.24537,24.273068 -3.88853,6.89667 -6.73463,15.08114 -7.84515,22.56007 -0.72813,4.90368 -0.74249,14.64117 -0.0285,19.33639 1.42886,9.39654 4.99316,18.68346 10.16026,26.47287 2.82164,4.25361 2.73304,4.20641 5.22212,2.78229 4.45259,-2.5475 5.61372,-3.77978 8.0393,-8.53183 2.83642,-5.55693 5.86902,-10.41307 8.60909,-13.78579 3.16296,-3.8933 3.59781,-4.58626 5.18453,-8.26214 0.79839,-1.84958 2.2308,-4.56588 3.18313,-6.03618 l 1.73152,-2.67333 -2.24002,-2.20169 c -2.97538,-2.92445 -5.45032,-6.24076 -5.91594,-7.92712 -0.47555,-1.72227 0.0856,-2.68328 2.32085,-3.97437 2.26021,-1.30555 3.87661,-1.68066 9.91745,-2.30153 2.94131,-0.30232 6.13461,-0.85604 7.14036,-1.23821 1.0007,-0.38024 3.99069,-2.00761 6.64441,-3.61641 7.6619,-4.64493 8.31011,-4.88534 12.90363,-4.78576 3.87974,0.0842 3.88704,0.0825 6.1875,-1.30799 4.8208,-2.91407 11.74407,-8.17197 20.85461,-15.8381 1.74705,-1.47005 3.42998,-2.624 3.73986,-2.56433 1.28869,0.24831 3.65546,6.05582 4.01501,9.85215 0.21807,2.30244 -0.22742,4.57937 -1.59311,8.14283 -0.37264,0.97231 -0.54448,1.90043 -0.38184,2.06249 0.39044,0.38908 1.73113,-1.28552 1.73113,-2.16224 0,-1.11785 0.7402,-1.24543 1.74707,-0.30113 0.73201,0.6865 1.36302,0.88302 2.83522,0.88302 1.60745,0 2.00536,0.14911 2.63274,0.98618 1.06462,1.42049 1.31428,5.29194 0.49947,7.74513 -0.79268,2.38651 -3.18841,5.13884 -5.36267,6.16084 -1.94551,0.91452 -5.88427,4.76017 -7.72747,7.54481 -0.70556,1.06594 -2.02843,3.28805 -2.93971,4.93807 -0.91131,1.64999 -2.4399,4.14294 -3.39687,5.53991 -1.88304,2.74882 -3.49554,6.58318 -5.05195,12.01317 -0.91432,3.18983 -0.99105,4.02027 -1.02884,11.13441 -0.0457,8.59379 -0.49009,10.70251 -2.81339,13.34863 -2.64133,3.00829 -5.27793,9.61472 -5.49957,13.78006 -0.13989,2.62916 -0.54495,5.19205 -1.12055,7.09007 -0.25347,0.83577 0.21975,0.82602 3.03903,-0.0626 z"
             id="path2155"
             inkscape:connector-curvature="0" />
          <path
             sodipodi:type="star"
             style="fill:#ffffff;fill-opacity:1;stroke:none;stroke-width:1.5;stroke-miterlimit:4;stroke-dasharray:none"
             id="path2157"
             sodipodi:sides="4"
             sodipodi:cx="18.854025"
             sodipodi:cy="172.98837"
             sodipodi:r1="1.6036172"
             sodipodi:r2="1.1339285"
             sodipodi:arg1="1.5707963"
             sodipodi:arg2="2.3561945"
             inkscape:flatsided="true"
             inkscape:rounded="0"
             inkscape:randomized="0"
             transform="matrix(0.65772634,1.1392154,-2.8174381,1.6266486,626.58719,-166.80029)"
             d="m 18.854025,174.59199 -1.603617,-1.60362 1.603617,-1.60361 1.603617,1.60361 z" />
        </g>
      </g>
      <g
         id="g2368">
        <path
           style="color:#bebebe;display:inline;overflow:visible;visibility:visible;fill:#ffffff;fill-opacity:1;fill-rule:nonzero;stroke:none;stroke-width:2;marker:none;enable-background:accumulate"
           d="m 302.5,142.5 c -6.65502,0 -12,5.34498 -12,12 v 35 c 0,6.65502 5.34498,12 12,12 h 35 c 6.65502,0 12,-5.34498 12,-12 v -35 c 0,-6.65502 -5.34498,-12 -12,-12 z"
           id="path4212" />
        <g
           id="g2265"
           transform="matrix(0.26940639,0,0,0.26940639,281.20548,129.9726)">
          <path
             style="fill:#00acff;fill-opacity:1;stroke-width:0.375001"
             d="m 134.2784,232.28692 c -13.44782,-1.72559 -26.31112,-7.08636 -37.53624,-15.64322 -3.66114,-2.79085 -10.53055,-9.70477 -13.52929,-13.61693 -8.39738,-10.95522 -13.619,-23.38809 -15.34161,-36.52897 -0.73748,-5.62575 -0.73338,-15.96894 0.008,-21.11068 3.70793,-25.70371 19.88399,-47.750736 43.11254,-58.759876 10.80429,-5.120702 20.69367,-7.28827 33.25233,-7.28827 20.3128,0 38.34283,7.277924 52.95368,21.375016 7.03858,6.7911 11.75851,13.23235 15.80022,21.56249 5.46713,11.268 7.6813,21.06924 7.6813,34.00231 0,17.02542 -4.91669,31.87295 -15.12838,45.68519 -3.03457,4.10448 -8.96244,10.33934 -12.89613,13.56398 -10.79026,8.84525 -24.54418,14.83038 -38.19167,16.61941 -4.71552,0.61815 -15.85508,0.69517 -20.1851,0.13947 z m 28.46376,-13.79188 c 8.21591,-2.5899 14.91126,-6.07028 21.37499,-11.11122 3.43699,-2.68044 9.37764,-8.67809 11.86843,-11.98236 6.75575,-8.96207 11.35254,-20.18823 12.70507,-31.02794 0.65144,-5.22091 0.27309,-16.26596 -0.72142,-21.06028 -2.63452,-12.70052 -8.31018,-23.42832 -17.25167,-32.60812 -5.57455,-5.72309 -10.64943,-9.49527 -17.17853,-12.768887 -9.90709,-4.96732 -18.39638,-6.974447 -29.54687,-6.985758 -11.80367,-0.01134 -22.15368,2.693594 -32.39732,8.468957 -9.32529,5.257588 -18.96556,14.908878 -24.24537,24.273068 -3.88853,6.89667 -6.73463,15.08114 -7.84515,22.56007 -0.72813,4.90368 -0.74249,14.64117 -0.0285,19.33639 1.42886,9.39654 4.99316,18.68346 10.16026,26.47287 2.82164,4.25361 2.73304,4.20641 5.22212,2.78229 4.45259,-2.5475 5.61372,-3.77978 8.0393,-8.53183 2.83642,-5.55693 5.86902,-10.41307 8.60909,-13.78579 3.16296,-3.8933 3.59781,-4.58626 5.18453,-8.26214 0.79839,-1.84958 2.2308,-4.56588 3.18313,-6.03618 l 1.73152,-2.67333 -2.24002,-2.20169 c -2.97538,-2.92445 -5.45032,-6.24076 -5.91594,-7.92712 -0.47555,-1.72227 0.0856,-2.68328 2.32085,-3.97437 2.26021,-1.30555 3.87661,-1.68066 9.91745,-2.30153 2.94131,-0.30232 6.13461,-0.85604 7.14036,-1.23821 1.0007,-0.38024 3.99069,-2.00761 6.64441,-3.61641 7.6619,-4.64493 8.31011,-4.88534 12.90363,-4.78576 3.87974,0.0842 3.88704,0.0825 6.1875,-1.30799 4.8208,-2.91407 11.74407,-8.17197 20.85461,-15.8381 1.74705,-1.47005 3.42998,-2.624 3.73986,-2.56433 1.28869,0.24831 3.65546,6.05582 4.01501,9.85215 0.21807,2.30244 -0.22742,4.57937 -1.59311,8.14283 -0.37264,0.97231 -0.54448,1.90043 -0.38184,2.06249 0.39044,0.38908 1.73113,-1.28552 1.73113,-2.16224 0,-1.11785 0.7402,-1.24543 1.74707,-0.30113 0.73201,0.6865 1.36302,0.88302 2.83522,0.88302 1.60745,0 2.00536,0.14911 2.63274,0.98618 1.06462,1.42049 1.31428,5.29194 0.49947,7.74513 -0.79268,2.38651 -3.18841,5.13884 -5.36267,6.16084 -1.94551,0.91452 -5.88427,4.76017 -7.72747,7.54481 -0.70556,1.06594 -2.02843,3.28805 -2.93971,4.93807 -0.91131,1.64999 -2.4399,4.14294 -3.39687,5.53991 -1.88304,2.74882 -3.49554,6.58318 -5.05195,12.01317 -0.91432,3.18983 -0.99105,4.02027 -1.02884,11.13441 -0.0457,8.59379 -0.49009,10.70251 -2.81339,13.34863 -2.64133,3.00829 -5.27793,9.61472 -5.49957,13.78006 -0.13989,2.62916 -0.54495,5.19205 -1.12055,7.09007 -0.25347,0.83577 0.21975,0.82602 3.03903,-0.0626 z"
             id="path2261"
             inkscape:connector-curvature="0" />
          <path
             sodipodi:type="star"
             style="fill:#ffffff;fill-opacity:1;stroke:none;stroke-width:1.5;stroke-miterlimit:4;stroke-dasharray:none"
             id="path2263"
             sodipodi:sides="4"
             sodipodi:cx="18.854025"
             sodipodi:cy="172.98837"
             sodipodi:r1="1.6036172"
             sodipodi:r2="1.1339285"
             sodipodi:arg1="1.5707963"
             sodipodi:arg2="2.3561945"
             inkscape:flatsided="true"
             inkscape:rounded="0"
             inkscape:randomized="0"
             transform="matrix(0.65772634,1.1392154,-2.8174381,1.6266486,626.58719,-166.80029)"
             d="m 18.854025,174.59199 -1.603617,-1.60362 1.603617,-1.60361 1.603617,1.60361 z" />
        </g>
      </g>
      <g
         id="g2480">
        <path
           style="color:#bebebe;display:inline;overflow:visible;visibility:visible;fill:#ffffff;fill-opacity:1;fill-rule:nonzero;stroke:none;stroke-width:2;marker:none;enable-background:accumulate"
           d="m 300,223.5 c -4.71531,0 -8.5,3.78469 -8.5,8.5 v 24 c 0,4.71531 3.78469,8.5 8.5,8.5 h 24 c 4.71531,0 8.5,-3.78469 8.5,-8.5 v -24 c 0,-4.71531 -3.78469,-8.5 -8.5,-8.5 z"
           id="path4208" />
        <g
           id="g2468"
           transform="matrix(0.18721461,0,0,0.18721461,285.0411,214.79452)">
          <path
             style="fill:#00acff;fill-opacity:1;stroke-width:0.375001"
             d="m 134.2784,232.28692 c -13.44782,-1.72559 -26.31112,-7.08636 -37.53624,-15.64322 -3.66114,-2.79085 -10.53055,-9.70477 -13.52929,-13.61693 -8.39738,-10.95522 -13.619,-23.38809 -15.34161,-36.52897 -0.73748,-5.62575 -0.73338,-15.96894 0.008,-21.11068 3.70793,-25.70371 19.88399,-47.750736 43.11254,-58.759876 10.80429,-5.120702 20.69367,-7.28827 33.25233,-7.28827 20.3128,0 38.34283,7.277924 52.95368,21.375016 7.03858,6.7911 11.75851,13.23235 15.80022,21.56249 5.46713,11.268 7.6813,21.06924 7.6813,34.00231 0,17.02542 -4.91669,31.87295 -15.12838,45.68519 -3.03457,4.10448 -8.96244,10.33934 -12.89613,13.56398 -10.79026,8.84525 -24.54418,14.83038 -38.19167,16.61941 -4.71552,0.61815 -15.85508,0.69517 -20.1851,0.13947 z m 28.46376,-13.79188 c 8.21591,-2.5899 14.91126,-6.07028 21.37499,-11.11122 3.43699,-2.68044 9.37764,-8.67809 11.86843,-11.98236 6.75575,-8.96207 11.35254,-20.18823 12.70507,-31.02794 0.65144,-5.22091 0.27309,-16.26596 -0.72142,-21.06028 -2.63452,-12.70052 -8.31018,-23.42832 -17.25167,-32.60812 -5.57455,-5.72309 -10.64943,-9.49527 -17.17853,-12.768887 -9.90709,-4.96732 -18.39638,-6.974447 -29.54687,-6.985758 -11.80367,-0.01134 -22.15368,2.693594 -32.39732,8.468957 -9.32529,5.257588 -18.96556,14.908878 -24.24537,24.273068 -3.88853,6.89667 -6.73463,15.08114 -7.84515,22.56007 -0.72813,4.90368 -0.74249,14.64117 -0.0285,19.33639 1.42886,9.39654 4.99316,18.68346 10.16026,26.47287 2.82164,4.25361 2.73304,4.20641 5.22212,2.78229 4.45259,-2.5475 5.61372,-3.77978 8.0393,-8.53183 2.83642,-5.55693 5.86902,-10.41307 8.60909,-13.78579 3.16296,-3.8933 3.59781,-4.58626 5.18453,-8.26214 0.79839,-1.84958 2.2308,-4.56588 3.18313,-6.03618 l 1.73152,-2.67333 -2.24002,-2.20169 c -2.97538,-2.92445 -5.45032,-6.24076 -5.91594,-7.92712 -0.47555,-1.72227 0.0856,-2.68328 2.32085,-3.97437 2.26021,-1.30555 3.87661,-1.68066 9.91745,-2.30153 2.94131,-0.30232 6.13461,-0.85604 7.14036,-1.23821 1.0007,-0.38024 3.99069,-2.00761 6.64441,-3.61641 7.6619,-4.64493 8.31011,-4.88534 12.90363,-4.78576 3.87974,0.0842 3.88704,0.0825 6.1875,-1.30799 4.8208,-2.91407 11.74407,-8.17197 20.85461,-15.8381 1.74705,-1.47005 3.42998,-2.624 3.73986,-2.56433 1.28869,0.24831 3.65546,6.05582 4.01501,9.85215 0.21807,2.30244 -0.22742,4.57937 -1.59311,8.14283 -0.37264,0.97231 -0.54448,1.90043 -0.38184,2.06249 0.39044,0.38908 1.73113,-1.28552 1.73113,-2.16224 0,-1.11785 0.7402,-1.24543 1.74707,-0.30113 0.73201,0.6865 1.36302,0.88302 2.83522,0.88302 1.60745,0 2.00536,0.14911 2.63274,0.98618 1.06462,1.42049 1.31428,5.29194 0.49947,7.74513 -0.79268,2.38651 -3.18841,5.13884 -5.36267,6.16084 -1.94551,0.91452 -5.88427,4.76017 -7.72747,7.54481 -0.70556,1.06594 -2.02843,3.28805 -2.93971,4.93807 -0.91131,1.64999 -2.4399,4.14294 -3.39687,5.53991 -1.88304,2.74882 -3.49554,6.58318 -5.05195,12.01317 -0.91432,3.18983 -0.99105,4.02027 -1.02884,11.13441 -0.0457,8.59379 -0.49009,10.70251 -2.81339,13.34863 -2.64133,3.00829 -5.27793,9.61472 -5.49957,13.78006 -0.13989,2.62916 -0.54495,5.19205 -1.12055,7.09007 -0.25347,0.83577 0.21975,0.82602 3.03903,-0.0626 z"
             id="path2464"
             inkscape:connector-curvature="0" />
          <path
             sodipodi:type="star"
             style="fill:#ffffff;fill-opacity:1;stroke:none;stroke-width:1.5;stroke-miterlimit:4;stroke-dasharray:none"
             id="path2466"
             sodipodi:sides="4"
             sodipodi:cx="18.854025"
             sodipodi:cy="172.98837"
             sodipodi:r1="1.6036172"
             sodipodi:r2="1.1339285"
             sodipodi:arg1="1.5707963"
             sodipodi:arg2="2.3561945"
             inkscape:flatsided="true"
             inkscape:rounded="0"
             inkscape:randomized="0"
             transform="matrix(0.65772634,1.1392154,-2.8174381,1.6266486,626.58719,-166.80029)"
             d="m 18.854025,174.59199 -1.603617,-1.60362 1.603617,-1.60361 1.603617,1.60361 z" />
        </g>
      </g>
      <g
         id="g2754">
        <path
           style="color:#bebebe;display:inline;overflow:visible;visibility:visible;fill:#ffffff;fill-opacity:1;fill-rule:nonzero;stroke:none;stroke-width:2;marker:none;enable-background:accumulate"
           d="m 424,53.5 c -3.60654,0 -6.5,2.893464 -6.5,6.5 v 16 c 0,3.606536 2.89346,6.5 6.5,6.5 h 16 c 3.60654,0 6.5,-2.893464 6.5,-6.5 V 60 c 0,-3.606536 -2.89346,-6.5 -6.5,-6.5 z"
           id="path4206" />
        <g
           id="g2742"
           transform="matrix(0.13242009,0,0,0.13242009,412.93151,47.342466)">
          <path
             style="fill:#00acff;fill-opacity:1;stroke-width:0.375001"
             d="m 134.2784,232.28692 c -13.44782,-1.72559 -26.31112,-7.08636 -37.53624,-15.64322 -3.66114,-2.79085 -10.53055,-9.70477 -13.52929,-13.61693 -8.39738,-10.95522 -13.619,-23.38809 -15.34161,-36.52897 -0.73748,-5.62575 -0.73338,-15.96894 0.008,-21.11068 3.70793,-25.70371 19.88399,-47.750736 43.11254,-58.759876 10.80429,-5.120702 20.69367,-7.28827 33.25233,-7.28827 20.3128,0 38.34283,7.277924 52.95368,21.375016 7.03858,6.7911 11.75851,13.23235 15.80022,21.56249 5.46713,11.268 7.6813,21.06924 7.6813,34.00231 0,17.02542 -4.91669,31.87295 -15.12838,45.68519 -3.03457,4.10448 -8.96244,10.33934 -12.89613,13.56398 -10.79026,8.84525 -24.54418,14.83038 -38.19167,16.61941 -4.71552,0.61815 -15.85508,0.69517 -20.1851,0.13947 z m 28.46376,-13.79188 c 8.21591,-2.5899 14.91126,-6.07028 21.37499,-11.11122 3.43699,-2.68044 9.37764,-8.67809 11.86843,-11.98236 6.75575,-8.96207 11.35254,-20.18823 12.70507,-31.02794 0.65144,-5.22091 0.27309,-16.26596 -0.72142,-21.06028 -2.63452,-12.70052 -8.31018,-23.42832 -17.25167,-32.60812 -5.57455,-5.72309 -10.64943,-9.49527 -17.17853,-12.768887 -9.90709,-4.96732 -18.39638,-6.974447 -29.54687,-6.985758 -11.80367,-0.01134 -22.15368,2.693594 -32.39732,8.468957 -9.32529,5.257588 -18.96556,14.908878 -24.24537,24.273068 -3.88853,6.89667 -6.73463,15.08114 -7.84515,22.56007 -0.72813,4.90368 -0.74249,14.64117 -0.0285,19.33639 1.42886,9.39654 4.99316,18.68346 10.16026,26.47287 2.82164,4.25361 2.73304,4.20641 5.22212,2.78229 4.45259,-2.5475 5.61372,-3.77978 8.0393,-8.53183 2.83642,-5.55693 5.86902,-10.41307 8.60909,-13.78579 3.16296,-3.8933 3.59781,-4.58626 5.18453,-8.26214 0.79839,-1.84958 2.2308,-4.56588 3.18313,-6.03618 l 1.73152,-2.67333 -2.24002,-2.20169 c -2.97538,-2.92445 -5.45032,-6.24076 -5.91594,-7.92712 -0.47555,-1.72227 0.0856,-2.68328 2.32085,-3.97437 2.26021,-1.30555 3.87661,-1.68066 9.91745,-2.30153 2.94131,-0.30232 6.13461,-0.85604 7.14036,-1.23821 1.0007,-0.38024 3.99069,-2.00761 6.64441,-3.61641 7.6619,-4.64493 8.31011,-4.88534 12.90363,-4.78576 3.87974,0.0842 3.88704,0.0825 6.1875,-1.30799 4.8208,-2.91407 11.74407,-8.17197 20.85461,-15.8381 1.74705,-1.47005 3.42998,-2.624 3.73986,-2.56433 1.28869,0.24831 3.65546,6.05582 4.01501,9.85215 0.21807,2.30244 -0.22742,4.57937 -1.59311,8.14283 -0.37264,0.97231 -0.54448,1.90043 -0.38184,2.06249 0.39044,0.38908 1.73113,-1.28552 1.73113,-2.16224 0,-1.11785 0.7402,-1.24543 1.74707,-0.30113 0.73201,0.6865 1.36302,0.88302 2.83522,0.88302 1.60745,0 2.00536,0.14911 2.63274,0.98618 1.06462,1.42049 1.31428,5.29194 0.49947,7.74513 -0.79268,2.38651 -3.18841,5.13884 -5.36267,6.16084 -1.94551,0.91452 -5.88427,4.76017 -7.72747,7.54481 -0.70556,1.06594 -2.02843,3.28805 -2.93971,4.93807 -0.91131,1.64999 -2.4399,4.14294 -3.39687,5.53991 -1.88304,2.74882 -3.49554,6.58318 -5.05195,12.01317 -0.91432,3.18983 -0.99105,4.02027 -1.02884,11.13441 -0.0457,8.59379 -0.49009,10.70251 -2.81339,13.34863 -2.64133,3.00829 -5.27793,9.61472 -5.49957,13.78006 -0.13989,2.62916 -0.54495,5.19205 -1.12055,7.09007 -0.25347,0.83577 0.21975,0.82602 3.03903,-0.0626 z"
             id="path2738"
             inkscape:connector-curvature="0" />
          <path
             sodipodi:type="star"
             style="fill:#ffffff;fill-opacity:1;stroke:none;stroke-width:1.5;stroke-miterlimit:4;stroke-dasharray:none"
             id="path2740"
             sodipodi:sides="4"
             sodipodi:cx="18.854025"
             sodipodi:cy="172.98837"
             sodipodi:r1="1.6036172"
             sodipodi:r2="1.1339285"
             sodipodi:arg1="1.5707963"
             sodipodi:arg2="2.3561945"
             inkscape:flatsided="true"
             inkscape:rounded="0"
             inkscape:randomized="0"
             transform="matrix(0.65772634,1.1392154,-2.8174381,1.6266486,626.58719,-166.80029)"
             d="m 18.854025,174.59199 -1.603617,-1.60362 1.603617,-1.60361 1.603617,1.60361 z" />
        </g>
      </g>
      <g
         id="g2952">
        <path
           style="color:#bebebe;display:inline;overflow:visible;visibility:visible;fill:#ffffff;fill-opacity:1;fill-rule:nonzero;stroke:none;stroke-width:2;marker:none;enable-background:accumulate"
           d="m 419,140.5 c -1.3844,0 -2.5,1.1156 -2.5,2.5 v 10 c 0,1.3844 1.1156,2.5 2.5,2.5 h 10 c 1.3844,0 2.5,-1.1156 2.5,-2.5 v -10 c 0,-1.3844 -1.1156,-2.5 -2.5,-2.5 z"
           id="path4202" />
        <g
           id="g2940"
           transform="matrix(0.06849315,0,0,0.06849315,414.13699,137.31507)">
          <path
             style="fill:#00acff;fill-opacity:1;stroke-width:0.375001"
             d="m 134.2784,232.28692 c -13.44782,-1.72559 -26.31112,-7.08636 -37.53624,-15.64322 -3.66114,-2.79085 -10.53055,-9.70477 -13.52929,-13.61693 -8.39738,-10.95522 -13.619,-23.38809 -15.34161,-36.52897 -0.73748,-5.62575 -0.73338,-15.96894 0.008,-21.11068 3.70793,-25.70371 19.88399,-47.750736 43.11254,-58.759876 10.80429,-5.120702 20.69367,-7.28827 33.25233,-7.28827 20.3128,0 38.34283,7.277924 52.95368,21.375016 7.03858,6.7911 11.75851,13.23235 15.80022,21.56249 5.46713,11.268 7.6813,21.06924 7.6813,34.00231 0,17.02542 -4.91669,31.87295 -15.12838,45.68519 -3.03457,4.10448 -8.96244,10.33934 -12.89613,13.56398 -10.79026,8.84525 -24.54418,14.83038 -38.19167,16.61941 -4.71552,0.61815 -15.85508,0.69517 -20.1851,0.13947 z m 28.46376,-13.79188 c 8.21591,-2.5899 14.91126,-6.07028 21.37499,-11.11122 3.43699,-2.68044 9.37764,-8.67809 11.86843,-11.98236 6.75575,-8.96207 11.35254,-20.18823 12.70507,-31.02794 0.65144,-5.22091 0.27309,-16.26596 -0.72142,-21.06028 -2.63452,-12.70052 -8.31018,-23.42832 -17.25167,-32.60812 -5.57455,-5.72309 -10.64943,-9.49527 -17.17853,-12.768887 -9.90709,-4.96732 -18.39638,-6.974447 -29.54687,-6.985758 -11.80367,-0.01134 -22.15368,2.693594 -32.39732,8.468957 -9.32529,5.257588 -18.96556,14.908878 -24.24537,24.273068 -3.88853,6.89667 -6.73463,15.08114 -7.84515,22.56007 -0.72813,4.90368 -0.74249,14.64117 -0.0285,19.33639 1.42886,9.39654 4.99316,18.68346 10.16026,26.47287 2.82164,4.25361 2.73304,4.20641 5.22212,2.78229 4.45259,-2.5475 5.61372,-3.77978 8.0393,-8.53183 2.83642,-5.55693 5.86902,-10.41307 8.60909,-13.78579 3.16296,-3.8933 3.59781,-4.58626 5.18453,-8.26214 0.79839,-1.84958 2.2308,-4.56588 3.18313,-6.03618 l 1.73152,-2.67333 -2.24002,-2.20169 c -2.97538,-2.92445 -5.45032,-6.24076 -5.91594,-7.92712 -0.47555,-1.72227 0.0856,-2.68328 2.32085,-3.97437 2.26021,-1.30555 3.87661,-1.68066 9.91745,-2.30153 2.94131,-0.30232 6.13461,-0.85604 7.14036,-1.23821 1.0007,-0.38024 3.99069,-2.00761 6.64441,-3.61641 7.6619,-4.64493 8.31011,-4.88534 12.90363,-4.78576 3.87974,0.0842 3.88704,0.0825 6.1875,-1.30799 4.8208,-2.91407 11.74407,-8.17197 20.85461,-15.8381 1.74705,-1.47005 3.42998,-2.624 3.73986,-2.56433 1.28869,0.24831 3.65546,6.05582 4.01501,9.85215 0.21807,2.30244 -0.22742,4.57937 -1.59311,8.14283 -0.37264,0.97231 -0.54448,1.90043 -0.38184,2.06249 0.39044,0.38908 1.73113,-1.28552 1.73113,-2.16224 0,-1.11785 0.7402,-1.24543 1.74707,-0.30113 0.73201,0.6865 1.36302,0.88302 2.83522,0.88302 1.60745,0 2.00536,0.14911 2.63274,0.98618 1.06462,1.42049 1.31428,5.29194 0.49947,7.74513 -0.79268,2.38651 -3.18841,5.13884 -5.36267,6.16084 -1.94551,0.91452 -5.88427,4.76017 -7.72747,7.54481 -0.70556,1.06594 -2.02843,3.28805 -2.93971,4.93807 -0.91131,1.64999 -2.4399,4.14294 -3.39687,5.53991 -1.88304,2.74882 -3.49554,6.58318 -5.05195,12.01317 -0.91432,3.18983 -0.99105,4.02027 -1.02884,11.13441 -0.0457,8.59379 -0.49009,10.70251 -2.81339,13.34863 -2.64133,3.00829 -5.27793,9.61472 -5.49957,13.78006 -0.13989,2.62916 -0.54495,5.19205 -1.12055,7.09007 -0.25347,0.83577 0.21975,0.82602 3.03903,-0.0626 z"
             id="path2936"
             inkscape:connector-curvature="0" />
          <path
             sodipodi:type="star"
             style="fill:#ffffff;fill-opacity:1;stroke:none;stroke-width:1.5;stroke-miterlimit:4;stroke-dasharray:none"
             id="path2938"
             sodipodi:sides="4"
             sodipodi:cx="18.854025"
             sodipodi:cy="172.98837"
             sodipodi:r1="1.6036172"
             sodipodi:r2="1.1339285"
             sodipodi:arg1="1.5707963"
             sodipodi:arg2="2.3561945"
             inkscape:flatsided="true"
             inkscape:rounded="0"
             inkscape:randomized="0"
             transform="matrix(0.65772634,1.1392154,-2.8174381,1.6266486,626.58719,-166.80029)"
             d="m 18.854025,174.59199 -1.603617,-1.60362 1.603617,-1.60361 1.603617,1.60361 z" />
        </g>
      </g>
    </g>
    <g
       inkscape:groupmode="layer"
       id="layer6"
       inkscape:label="Symbols"
       style="display:inline" />
    <g
       inkscape:groupmode="layer"
       id="layer5"
       inkscape:label="Highlights"
       style="display:inline"
       sodipodi:insensitive="true">
      <path
         style="opacity:0.12999998;color:#bebebe;fill:#ffffff;fill-opacity:1;fill-rule:nonzero;stroke:none;stroke-width:0;marker:none;visibility:visible;display:inline;overflow:visible;enable-background:accumulate"
         d="M 84,47 C 56.836703,47 35,68.836703 35,96 l 0,1 C 35,69.836703 56.836703,48 84,48 l 120,0 c 27.1633,0 49,21.836703 49,49 l 0,-1 C 253,68.836703 231.1633,47 204,47 L 84,47 z"
         id="rect3894"
         inkscape:connector-curvature="0" />
      <path
         style="opacity:0.12999998;color:#bebebe;fill:#ffffff;fill-opacity:1;fill-rule:nonzero;stroke:none;stroke-width:0;marker:none;visibility:visible;display:inline;overflow:visible;enable-background:accumulate"
         d="m 419,141 c -1.1253,0 -2,0.8747 -2,2 l 0,1 c 0,-1.1253 0.8747,-2 2,-2 l 10,0 c 1.1253,0 2,0.8747 2,2 l 0,-1 c 0,-1.1253 -0.8747,-2 -2,-2 l -10,0 z"
         id="rect3896"
         inkscape:connector-curvature="0" />
      <path
         style="opacity:0.12999998;color:#bebebe;fill:#ffffff;fill-opacity:1;fill-rule:nonzero;stroke:none;stroke-width:0;marker:none;visibility:visible;display:inline;overflow:visible;enable-background:accumulate"
         d="m 422,102 c -2.2333,0 -4,1.7667 -4,4 l 0,1 c 0,-2.2333 1.7667,-4 4,-4 l 12,0 c 2.2333,0 4,1.7667 4,4 l 0,-1 c 0,-2.2333 -1.7667,-4 -4,-4 l -12,0 z"
         id="rect3898"
         inkscape:connector-curvature="0" />
      <path
         style="opacity:0.12999998;color:#bebebe;fill:#ffffff;fill-opacity:1;fill-rule:nonzero;stroke:none;stroke-width:0;marker:none;visibility:visible;display:inline;overflow:visible;enable-background:accumulate"
         d="m 424,54 c -3.3413,0 -6,2.658703 -6,6 l 0,1 c 0,-3.341297 2.6587,-6 6,-6 l 16,0 c 3.3413,0 6,2.658703 6,6 l 0,-1 c 0,-3.341297 -2.6587,-6 -6,-6 l -16,0 z"
         id="rect3900"
         inkscape:connector-curvature="0" />
      <path
         style="opacity:0.12999998;color:#bebebe;fill:#ffffff;fill-opacity:1;fill-rule:nonzero;stroke:none;stroke-width:0;marker:none;visibility:visible;display:inline;overflow:visible;enable-background:accumulate"
         d="m 300,224 c -4.4493,0 -8,3.5507 -8,8 l 0,1 c 0,-4.4493 3.5507,-8 8,-8 l 24,0 c 4.4493,0 8,3.5507 8,8 l 0,-1 c 0,-4.4493 -3.5507,-8 -8,-8 l -24,0 z"
         id="rect3902"
         inkscape:connector-curvature="0" />
      <path
         style="opacity:0.12999998;color:#bebebe;fill:#ffffff;fill-opacity:1;fill-rule:nonzero;stroke:none;stroke-width:0;marker:none;visibility:visible;display:inline;overflow:visible;enable-background:accumulate"
         d="m 310,33 c -9.4353,0 -17,7.564703 -17,17 l 0,1 c 0,-9.435297 7.5647,-17 17,-17 l 52,0 c 9.4353,0 17,7.564703 17,17 l 0,-1 c 0,-9.435297 -7.5647,-17 -17,-17 l -52,0 z"
         id="rect3904"
         inkscape:connector-curvature="0" />
      <path
         style="opacity:0.12999998;color:#bebebe;fill:#ffffff;fill-opacity:1;fill-rule:nonzero;stroke:none;stroke-width:0;marker:none;visibility:visible;display:inline;overflow:visible;enable-background:accumulate"
         d="m 302.5,143 c -6.3883,0 -11.5,5.1117 -11.5,11.5 l 0,1 c 0,-6.3883 5.1117,-11.5 11.5,-11.5 l 35,0 c 6.3883,0 11.5,5.1117 11.5,11.5 l 0,-1 c 0,-6.3883 -5.1117,-11.5 -11.5,-11.5 l -35,0 z"
         id="rect3906"
         inkscape:connector-curvature="0" />
      <path
         id="path4085"
         d="m 204,266 c 27.1633,0 49,-21.8367 49,-49 l 0,-1 c 0,27.1633 -21.8367,49 -49,49 L 84,265 C 56.8367,265 35,243.1633 35,216 l 0,1 c 0,27.1633 21.8367,49 49,49 l 120,0 z"
         style="opacity:0.41;color:#bebebe;fill:#000000;fill-opacity:1;fill-rule:nonzero;stroke:none;stroke-width:0;marker:none;visibility:visible;display:inline;overflow:visible;enable-background:accumulate"
         inkscape:connector-curvature="0" />
      <path
         id="path4087"
         d="m 429,156 c 1.1253,0 2,-0.8747 2,-2 l 0,-1 c 0,1.1253 -0.8747,2 -2,2 l -10,0 c -1.1253,0 -2,-0.8747 -2,-2 l 0,1 c 0,1.1253 0.8747,2 2,2 l 10,0 z"
         style="opacity:0.3;color:#bebebe;fill:#000000;fill-opacity:1;fill-rule:nonzero;stroke:none;stroke-width:0;marker:none;visibility:visible;display:inline;overflow:visible;enable-background:accumulate"
         inkscape:connector-curvature="0" />
      <path
         id="path4089"
         d="m 434,123 c 2.2333,0 4,-1.7667 4,-4 l 0,-1 c 0,2.2333 -1.7667,4 -4,4 l -12,0 c -2.2333,0 -4,-1.7667 -4,-4 l 0,1 c 0,2.2333 1.7667,4 4,4 l 12,0 z"
         style="opacity:0.3;color:#bebebe;fill:#000000;fill-opacity:1;fill-rule:nonzero;stroke:none;stroke-width:0;marker:none;visibility:visible;display:inline;overflow:visible;enable-background:accumulate"
         inkscape:connector-curvature="0" />
      <path
         id="path4091"
         d="m 440,83 c 3.3413,0 6,-2.6587 6,-6 l 0,-1 c 0,3.3413 -2.6587,6 -6,6 l -16,0 c -3.3413,0 -6,-2.6587 -6,-6 l 0,1 c 0,3.3413 2.6587,6 6,6 l 16,0 z"
         style="opacity:0.41;color:#bebebe;fill:#000000;fill-opacity:1;fill-rule:nonzero;stroke:none;stroke-width:0;marker:none;visibility:visible;display:inline;overflow:visible;enable-background:accumulate"
         inkscape:connector-curvature="0" />
      <path
         id="path4093"
         d="m 324,265 c 4.4493,0 8,-3.5507 8,-8 l 0,-1 c 0,4.4493 -3.5507,8 -8,8 l -24,0 c -4.4493,0 -8,-3.5507 -8,-8 l 0,1 c 0,4.4493 3.5507,8 8,8 l 24,0 z"
         style="opacity:0.41;color:#bebebe;fill:#000000;fill-opacity:1;fill-rule:nonzero;stroke:none;stroke-width:0;marker:none;visibility:visible;display:inline;overflow:visible;enable-background:accumulate"
         inkscape:connector-curvature="0" />
      <path
         id="path4095"
         d="m 362,120 c 9.4353,0 17,-7.5647 17,-17 l 0,-1 c 0,9.4353 -7.5647,17 -17,17 l -52,0 c -9.4353,0 -17,-7.5647 -17,-17 l 0,1 c 0,9.4353 7.5647,17 17,17 l 52,0 z"
         style="opacity:0.41;color:#bebebe;fill:#000000;fill-opacity:1;fill-rule:nonzero;stroke:none;stroke-width:0;marker:none;visibility:visible;display:inline;overflow:visible;enable-background:accumulate"
         inkscape:connector-curvature="0" />
      <path
         id="path4097"
         d="m 337.5,202 c 6.3883,0 11.5,-5.1117 11.5,-11.5 l 0,-1 c 0,6.3883 -5.1117,11.5 -11.5,11.5 l -35,0 c -6.3883,0 -11.5,-5.1117 -11.5,-11.5 l 0,1 c 0,6.3883 5.1117,11.5 11.5,11.5 l 35,0 z"
         style="opacity:0.41;color:#bebebe;fill:#000000;fill-opacity:1;fill-rule:nonzero;stroke:none;stroke-width:0;marker:none;visibility:visible;display:inline;overflow:visible;enable-background:accumulate"
         inkscape:connector-curvature="0" />
      <path
         inkscape:connector-curvature="0"
         id="path4280"
         d="M 84,265 C 56.836703,265 35,243.1633 35,216 l 0,-1 c 0,27.1633 21.836703,49 49,49 l 120,0 c 27.1633,0 49,-21.8367 49,-49 l 0,1 c 0,27.1633 -21.8367,49 -49,49 l -120,0 z"
         style="opacity:0.1;color:#bebebe;fill:#ffffff;fill-opacity:1;fill-rule:nonzero;stroke:none;stroke-width:0;marker:none;visibility:visible;display:inline;overflow:visible;enable-background:accumulate" />
      <path
         style="opacity:0.1;color:#bebebe;fill:#ffffff;fill-opacity:1;fill-rule:nonzero;stroke:none;stroke-width:0;marker:none;visibility:visible;display:inline;overflow:visible;enable-background:accumulate"
         d="m 300,264 c -4.4493,0 -8,-3.5507 -8,-8 l 0,-1 c 0,4.4493 3.5507,8 8,8 l 24,0 c 4.4493,0 8,-3.5507 8,-8 l 0,1 c 0,4.4493 -3.5507,8 -8,8 l -24,0 z"
         id="path4294"
         inkscape:connector-curvature="0" />
      <path
         style="opacity:0.1;color:#bebebe;fill:#ffffff;fill-opacity:1;fill-rule:nonzero;stroke:none;stroke-width:0;marker:none;visibility:visible;display:inline;overflow:visible;enable-background:accumulate"
         d="m 302.5,201 c -6.3883,0 -11.5,-5.1117 -11.5,-11.5 l 0,-1 c 0,6.3883 5.1117,11.5 11.5,11.5 l 35,0 c 6.3883,0 11.5,-5.1117 11.5,-11.5 l 0,1 c 0,6.3883 -5.1117,11.5 -11.5,11.5 l -35,0 z"
         id="path4296"
         inkscape:connector-curvature="0" />
      <path
         style="opacity:0.1;color:#bebebe;fill:#ffffff;fill-opacity:1;fill-rule:nonzero;stroke:none;stroke-width:0;marker:none;visibility:visible;display:inline;overflow:visible;enable-background:accumulate"
         d="m 310,119 c -9.4353,0 -17,-7.5647 -17,-17 l 0,-1 c 0,9.4353 7.5647,17 17,17 l 52,0 c 9.4353,0 17,-7.5647 17,-17 l 0,1 c 0,9.4353 -7.5647,17 -17,17 l -52,0 z"
         id="path4298"
         inkscape:connector-curvature="0" />
      <path
         style="opacity:0.1;color:#bebebe;fill:#ffffff;fill-opacity:1;fill-rule:nonzero;stroke:none;stroke-width:0;marker:none;visibility:visible;display:inline;overflow:visible;enable-background:accumulate"
         d="m 424,82 c -3.3413,0 -6,-2.658703 -6,-6 l 0,-1 c 0,3.341297 2.6587,6 6,6 l 16,0 c 3.3413,0 6,-2.658703 6,-6 l 0,1 c 0,3.341297 -2.6587,6 -6,6 l -16,0 z"
         id="path4300"
         inkscape:connector-curvature="0" />
      <path
         style="opacity:0.1;color:#bebebe;fill:#ffffff;fill-opacity:1;fill-rule:nonzero;stroke:none;stroke-width:0;marker:none;visibility:visible;display:inline;overflow:visible;enable-background:accumulate"
         d="m 422,122 c -2.2333,0 -4,-1.7667 -4,-4 l 0,-1 c 0,2.2333 1.7667,4 4,4 l 12,0 c 2.2333,0 4,-1.7667 4,-4 l 0,1 c 0,2.2333 -1.7667,4 -4,4 l -12,0 z"
         id="path4302"
         inkscape:connector-curvature="0" />
      <path
         style="opacity:0.1;color:#bebebe;fill:#ffffff;fill-opacity:1;fill-rule:nonzero;stroke:none;stroke-width:0;marker:none;visibility:visible;display:inline;overflow:visible;enable-background:accumulate"
         d="m 419,154.5 c -1.1253,0 -2,-0.8747 -2,-2 l 0,-1 c 0,1.1253 0.8747,2 2,2 l 10,0 c 1.1253,0 2,-0.8747 2,-2 l 0,1 c 0,1.1253 -0.8747,2 -2,2 l -10,0 z"
         id="path4304"
         inkscape:connector-curvature="0" />
    </g>
    <g
       inkscape:groupmode="layer"
       id="layer3"
       inkscape:label="Border"
       style="display:inline"
       sodipodi:insensitive="true">
      <path
         style="opacity:0.41;color:#bebebe;fill:#000000;fill-opacity:1;fill-rule:nonzero;stroke:none;stroke-width:0;marker:none;visibility:visible;display:inline;overflow:visible;enable-background:accumulate"
         d="m 422,101 c -2.77,0 -5,2.23 -5,5 l 0,12 c 0,2.77 2.23,5 5,5 l 12,0 c 2.77,0 5,-2.23 5,-5 l 0,-12 c 0,-2.77 -2.23,-5 -5,-5 l -12,0 z m 0,1 12,0 c 2.2333,0 4,1.7667 4,4 l 0,12 c 0,2.2333 -1.7667,4 -4,4 l -12,0 c -2.2333,0 -4,-1.7667 -4,-4 l 0,-12 c 0,-2.2333 1.7667,-4 4,-4 z"
         id="rect4099"
         inkscape:connector-curvature="0" />
      <path
         style="opacity:0.41;color:#bebebe;fill:#000000;fill-opacity:1;fill-rule:nonzero;stroke:none;stroke-width:0;marker:none;visibility:visible;display:inline;overflow:visible;enable-background:accumulate"
         d="m 424,53 c -3.878,0 -7,3.122 -7,7 l 0,16 c 0,3.878 3.122,7 7,7 l 16,0 c 3.878,0 7,-3.122 7,-7 l 0,-16 c 0,-3.878 -3.122,-7 -7,-7 l -16,0 z m 0,1 16,0 c 3.3413,0 6,2.658703 6,6 l 0,16 c 0,3.341297 -2.6587,6 -6,6 l -16,0 c -3.3413,0 -6,-2.658703 -6,-6 l 0,-16 c 0,-3.341297 2.6587,-6 6,-6 z"
         id="rect4151"
         inkscape:connector-curvature="0" />
      <path
         style="opacity:0.41;color:#bebebe;fill:#000000;fill-opacity:1;fill-rule:nonzero;stroke:none;stroke-width:0;marker:none;visibility:visible;display:inline;overflow:visible;enable-background:accumulate"
         d="m 419,140 c -1.662,0 -3,1.338 -3,3 l 0,10 c 0,1.662 1.338,3 3,3 l 10,0 c 1.662,0 3,-1.338 3,-3 l 0,-10 c 0,-1.662 -1.338,-3 -3,-3 l -10,0 z m 0,1 10,0 c 1.1253,0 2,0.8747 2,2 l 0,10 c 0,1.1253 -0.8747,2 -2,2 l -10,0 c -1.1253,0 -2,-0.8747 -2,-2 l 0,-10 c 0,-1.1253 0.8747,-2 2,-2 z"
         id="rect4095"
         inkscape:connector-curvature="0" />
      <path
         style="opacity:0.41;color:#bebebe;fill:#000000;fill-opacity:1;fill-rule:nonzero;stroke:none;stroke-width:0;marker:none;visibility:visible;display:inline;overflow:visible;enable-background:accumulate"
         d="m 300,223 c -4.986,0 -9,4.014 -9,9 l 0,24 c 0,4.986 4.014,9 9,9 l 24,0 c 4.986,0 9,-4.014 9,-9 l 0,-24 c 0,-4.986 -4.014,-9 -9,-9 l -24,0 z m 0,1 24,0 c 4.4493,0 8,3.5507 8,8 l 0,24 c 0,4.4493 -3.5507,8 -8,8 l -24,0 c -4.4493,0 -8,-3.5507 -8,-8 l 0,-24 c 0,-4.4493 3.5507,-8 8,-8 z"
         id="rect4783"
         inkscape:connector-curvature="0" />
      <path
         style="opacity:0.41;color:#bebebe;fill:#000000;fill-opacity:1;fill-rule:nonzero;stroke:none;stroke-width:0;marker:none;visibility:visible;display:inline;overflow:visible;enable-background:accumulate"
         d="m 302.5,142 c -6.925,0 -12.5,5.575 -12.5,12.5 l 0,35 c 0,6.925 5.575,12.5 12.5,12.5 l 35,0 c 6.925,0 12.5,-5.575 12.5,-12.5 l 0,-35 c 0,-6.925 -5.575,-12.5 -12.5,-12.5 l -35,0 z m 0,1 35,0 c 6.3883,0 11.5,5.1117 11.5,11.5 l 0,35 c 0,6.3883 -5.1117,11.5 -11.5,11.5 l -35,0 c -6.3883,0 -11.5,-5.1117 -11.5,-11.5 l 0,-35 c 0,-6.3883 5.1117,-11.5 11.5,-11.5 z"
         id="rect4515"
         inkscape:connector-curvature="0" />
      <path
         style="opacity:0.41;color:#bebebe;fill:#000000;fill-opacity:1;fill-rule:nonzero;stroke:none;stroke-width:0;marker:none;visibility:visible;display:inline;overflow:visible;enable-background:accumulate"
         d="m 310,32 c -9.972,0 -18,8.028 -18,18 l 0,52 c 0,9.972 8.028,18 18,18 l 52,0 c 9.972,0 18,-8.028 18,-18 l 0,-52 c 0,-9.972 -8.028,-18 -18,-18 l -52,0 z m 0,1 52,0 c 9.4353,0 17,7.564703 17,17 l 0,52 c 0,9.4353 -7.5647,17 -17,17 l -52,0 c -9.4353,0 -17,-7.5647 -17,-17 l 0,-52 c 0,-9.435297 7.5647,-17 17,-17 z"
         id="rect4511"
         inkscape:connector-curvature="0" />
      <path
         style="opacity:0.41;color:#bebebe;fill:#000000;fill-opacity:1;fill-rule:nonzero;stroke:none;stroke-width:0;marker:none;visibility:visible;display:inline;overflow:visible;enable-background:accumulate"
         d="M 84,46 C 56.3,46 34,68.3 34,96 l 0,120 c 0,27.7 22.3,50 50,50 l 120,0 c 27.7,0 50,-22.3 50,-50 L 254,96 C 254,68.3 231.7,46 204,46 L 84,46 z m 0,1 120,0 c 27.1633,0 49,21.836703 49,49 l 0,120 c 0,27.1633 -21.8367,49 -49,49 L 84,265 C 56.836703,265 35,243.1633 35,216 L 35,96 C 35,68.836703 56.836703,47 84,47 z"
         id="rect4040"
         inkscape:connector-curvature="0" />
    </g>
  </g>
  <style
     type="text/css"
     id="style134">
	.st0{fill:#EF443B;}
</style>
</svg>
