<?xml version="1.0" encoding="UTF-8" standalone="no"?>
<!-- Created with Inkscape (http://www.inkscape.org/) -->

<svg
   inkscape:export-ydpi="90.000000"
   inkscape:export-xdpi="90.000000"
   width="480"
   height="300"
   id="svg11300"
   sodipodi:version="0.32"
   inkscape:version="1.1.1 (3bf5ae0d25, 2021-09-20)"
   sodipodi:docname="sheet (copy).svg"
   inkscape:output_extension="org.inkscape.output.svg.inkscape"
   version="1.0"
   style="display:inline;enable-background:new"
   inkscape:export-filename="/home/sam/moka-next-template.png"
   xmlns:inkscape="http://www.inkscape.org/namespaces/inkscape"
   xmlns:sodipodi="http://sodipodi.sourceforge.net/DTD/sodipodi-0.dtd"
   xmlns="http://www.w3.org/2000/svg"
   xmlns:svg="http://www.w3.org/2000/svg"
   xmlns:rdf="http://www.w3.org/1999/02/22-rdf-syntax-ns#"
   xmlns:cc="http://creativecommons.org/ns#"
   xmlns:dc="http://purl.org/dc/elements/1.1/">
  <sodipodi:namedview
     stroke="#ef2929"
     fill="#f57900"
     id="base"
     pagecolor="#ffffff"
     bordercolor="#000000"
     borderopacity="0.61176471"
     inkscape:pageopacity="0"
     inkscape:pageshadow="2"
     inkscape:zoom="1"
     inkscape:cx="466"
     inkscape:cy="163"
     inkscape:current-layer="layer6"
     showgrid="false"
     inkscape:grid-bbox="true"
     inkscape:document-units="px"
     inkscape:showpageshadow="true"
     inkscape:window-width="1366"
     inkscape:window-height="702"
     inkscape:window-x="0"
     inkscape:window-y="40"
     width="400px"
     height="300px"
     inkscape:snap-nodes="true"
     inkscape:snap-bbox="true"
     gridtolerance="10000"
     inkscape:object-nodes="true"
     inkscape:snap-grids="true"
     showguides="true"
     inkscape:guide-bbox="true"
     inkscape:window-maximized="1"
     inkscape:bbox-nodes="true"
     inkscape:bbox-paths="true"
     inkscape:snap-bbox-edge-midpoints="true"
     inkscape:snap-bbox-midpoints="true"
     inkscape:object-paths="true"
     inkscape:snap-intersection-paths="true"
     inkscape:snap-smooth-nodes="true"
     inkscape:snap-midpoints="true"
     inkscape:pagecheckerboard="false"
     showborder="true"
     borderlayer="true">
    <inkscape:grid
       spacingy="1"
       spacingx="1"
       id="grid5883"
       type="xygrid"
       enabled="true"
       visible="true"
       empspacing="4"
       snapvisiblegridlinesonly="true"
       dotted="false"
       color="#000000"
       opacity="0.1254902"
       empcolor="#203ef3"
       empopacity="0.36470588"
       originx="0"
       originy="0" />
    <inkscape:grid
       type="xygrid"
       id="grid11592"
       empspacing="8"
       visible="true"
       enabled="false"
       spacingx="0.5"
       spacingy="0.5"
       color="#ff0000"
       opacity="0.1254902"
       empcolor="#ff0000"
       empopacity="0.25098039"
       snapvisiblegridlinesonly="true"
       dotted="true"
       originx="0"
       originy="0" />
  </sodipodi:namedview>
  <defs
     id="defs3">
    <linearGradient
       id="linearGradient905">
      <stop
         style="stop-color:#ff7139;stop-opacity:1"
         offset="0"
         id="stop901" />
      <stop
         style="stop-color:#ff7139;stop-opacity:1"
         offset="1"
         id="stop903" />
    </linearGradient>
    <linearGradient
       id="linearGradient3984">
      <stop
         id="stop3986"
         offset="0"
         style="stop-color:#f57d33;stop-opacity:1" />
      <stop
         id="stop3988"
         offset="1"
         style="stop-color:#faa653;stop-opacity:1;" />
    </linearGradient>
  </defs>
  <metadata
     id="metadata4">
    <rdf:RDF>
      <cc:Work
         rdf:about="">
        <dc:format>image/svg+xml</dc:format>
        <dc:type
           rdf:resource="http://purl.org/dc/dcmitype/StillImage" />
        <dc:creator>
          <cc:Agent>
            <dc:title />
          </cc:Agent>
        </dc:creator>
        <dc:source />
        <cc:license
           rdf:resource="" />
        <dc:title />
        <dc:subject>
          <rdf:Bag />
        </dc:subject>
        <dc:date />
        <dc:rights>
          <cc:Agent>
            <dc:title />
          </cc:Agent>
        </dc:rights>
        <dc:publisher>
          <cc:Agent>
            <dc:title />
          </cc:Agent>
        </dc:publisher>
        <dc:identifier />
        <dc:relation />
        <dc:language />
        <dc:coverage />
        <dc:description />
        <dc:contributor>
          <cc:Agent>
            <dc:title />
          </cc:Agent>
        </dc:contributor>
      </cc:Work>
      <cc:Work
         rdf:about="">
        <dc:format>image/svg+xml</dc:format>
        <dc:type
           rdf:resource="http://purl.org/dc/dcmitype/StillImage" />
      </cc:Work>
    </rdf:RDF>
  </metadata>
  <g
     style="display:inline"
     inkscape:groupmode="layer"
     inkscape:label="Icon"
     id="layer1">
    <g
       style="display:none"
       inkscape:label="Baseplate"
       id="layer7"
       inkscape:groupmode="layer">
      <text
         y="19.745117"
         xml:space="preserve"
         x="15.006836"
         style="font-style:normal;font-variant:normal;font-weight:normal;font-stretch:normal;line-height:0%;font-family:'DejaVu Sans';-inkscape-font-specification:'DejaVu Sans';display:inline;fill:#000000;fill-opacity:1;stroke:none;enable-background:new"
         inkscape:label="context"
         id="context"><tspan
           style="font-style:normal;font-variant:normal;font-weight:normal;font-stretch:normal;font-size:18px;line-height:1.25;font-family:'DejaVu Sans';-inkscape-font-specification:'DejaVu Sans'"
           y="19.745117"
           x="15.006836"
           sodipodi:role="line"
           id="tspan3933">apps</tspan></text>
      <text
         y="19.745117"
         xml:space="preserve"
         x="122.48828"
         style="font-style:normal;font-variant:normal;font-weight:bold;font-stretch:normal;line-height:0%;font-family:'DejaVu Sans';-inkscape-font-specification:'DejaVu Sans Bold';text-align:start;writing-mode:lr-tb;text-anchor:start;display:inline;fill:#000000;fill-opacity:1;stroke:none;enable-background:new"
         inkscape:label="icon-name"
         id="icon-name"><tspan
           style="font-style:normal;font-variant:normal;font-weight:bold;font-stretch:normal;font-size:18px;line-height:1.25;font-family:'DejaVu Sans';-inkscape-font-specification:'DejaVu Sans Bold'"
           y="19.745117"
           x="122.48828"
           sodipodi:role="line"
           id="tspan3937">ms-edge</tspan></text>
      <rect
         style="fill:#eeeeec;fill-opacity:1;fill-rule:nonzero;stroke:none;stroke-width:2;marker:none;visibility:visible;display:inline;overflow:visible;enable-background:accumulate"
         id="rect16x16"
         width="16"
         height="16"
         x="416"
         y="140"
         inkscape:label="16x16" />
      <rect
         style="fill:#d4d4d4;fill-opacity:1;fill-rule:nonzero;stroke:none;stroke-width:2;marker:none;visibility:visible;display:inline;overflow:visible;enable-background:accumulate"
         id="rect24x24"
         width="24"
         height="24"
         x="416"
         y="100"
         inkscape:label="24x24" />
      <rect
         style="fill:#eeeeec;fill-opacity:1;fill-rule:nonzero;stroke:none;stroke-width:2;marker:none;visibility:visible;display:inline;overflow:visible;enable-background:accumulate"
         id="rect32x32"
         width="32"
         height="32"
         x="416"
         y="52"
         inkscape:label="32x32" />
      <rect
         inkscape:label="22x22"
         y="101"
         x="417"
         height="22"
         width="22"
         id="rect22x22"
         style="fill:#eeeeec;fill-opacity:1;fill-rule:nonzero;stroke:none;stroke-width:2;marker:none;visibility:visible;display:inline;overflow:visible;enable-background:accumulate" />
      <rect
         inkscape:label="48x48"
         y="220"
         x="288"
         height="48"
         width="48"
         id="rect48x48"
         style="fill:#eeeeec;fill-opacity:1;fill-rule:nonzero;stroke:none;stroke-width:2;marker:none;visibility:visible;display:inline;overflow:visible;enable-background:accumulate" />
      <rect
         style="fill:#eeeeec;fill-opacity:1;fill-rule:nonzero;stroke:none;stroke-width:2;marker:none;visibility:visible;display:inline;overflow:visible;enable-background:accumulate"
         id="rect256x256"
         width="256"
         height="256"
         x="16"
         y="28"
         inkscape:label="256x256" />
      <rect
         style="fill:#eeeeec;fill-opacity:1;fill-rule:nonzero;stroke:none;stroke-width:2;marker:none;visibility:visible;display:inline;overflow:visible;enable-background:accumulate"
         id="rect64x64"
         width="64"
         height="64"
         x="288"
         y="140"
         inkscape:label="64x64" />
      <rect
         style="fill:#eeeeec;fill-opacity:1;fill-rule:nonzero;stroke:none;stroke-width:2;marker:none;visibility:visible;display:inline;overflow:visible;enable-background:accumulate"
         id="rect96x96"
         width="96"
         height="96"
         x="288"
         y="28"
         inkscape:label="96x96" />
    </g>
    <g
       inkscape:groupmode="layer"
       id="layer4"
       inkscape:label="Shadow"
       style="display:inline"
       sodipodi:insensitive="true">
      <rect
         ry="50"
         y="47"
         x="34"
         height="220"
         width="220"
         id="rect4114"
         style="opacity:0.1;color:#bebebe;fill:#000000;fill-opacity:1;fill-rule:nonzero;stroke:none;stroke-width:0;marker:none;visibility:visible;display:inline;overflow:visible;enable-background:accumulate" />
      <rect
         style="opacity:0.1;color:#bebebe;fill:#000000;fill-opacity:1;fill-rule:nonzero;stroke:none;stroke-width:0;marker:none;visibility:visible;display:inline;overflow:visible;enable-background:accumulate"
         id="rect4120"
         width="30"
         height="30"
         x="417"
         y="54"
         ry="7" />
      <rect
         transform="scale(1,-1)"
         ry="9"
         y="-266"
         x="291"
         height="42"
         width="42"
         id="rect4122"
         style="opacity:0.1;color:#bebebe;fill:#000000;fill-opacity:1;fill-rule:nonzero;stroke:none;stroke-width:0;marker:none;visibility:visible;display:inline;overflow:visible;enable-background:accumulate" />
      <rect
         style="opacity:0.1;color:#bebebe;fill:#000000;fill-opacity:1;fill-rule:nonzero;stroke:none;stroke-width:0;marker:none;visibility:visible;display:inline;overflow:visible;enable-background:accumulate"
         id="rect4124"
         width="88"
         height="88"
         x="292"
         y="33"
         ry="18" />
      <rect
         ry="12.5"
         y="143"
         x="290"
         height="60"
         width="60"
         id="rect4126"
         style="opacity:0.1;color:#bebebe;fill:#000000;fill-opacity:1;fill-rule:nonzero;stroke:none;stroke-width:0;marker:none;visibility:visible;display:inline;overflow:visible;enable-background:accumulate" />
      <path
         id="path4268"
         d="m 422,101 c -2.77,0 -5,2.23 -5,5 l 0,12 c 0,2.77 2.23,5 5,5 l 12,0 c 2.77,0 5,-2.23 5,-5 l 0,-12 c 0,-2.77 -2.23,-5 -5,-5 z"
         style="opacity:0.1;color:#bebebe;fill:#000000;fill-opacity:1;fill-rule:nonzero;stroke:none;stroke-width:0;marker:none;visibility:visible;display:inline;overflow:visible;enable-background:accumulate"
         inkscape:connector-curvature="0"
         sodipodi:nodetypes="sssssssss" />
      <path
         id="path4270"
         d="m 419,140 c -1.662,0 -3,1.338 -3,3 l 0,10 c 0,1.662 1.338,3 3,3 l 10,0 c 1.662,0 3,-1.338 3,-3 l 0,-10 c 0,-1.662 -1.338,-3 -3,-3 z"
         style="opacity:0.1;color:#bebebe;fill:#000000;fill-opacity:1;fill-rule:nonzero;stroke:none;stroke-width:0;marker:none;visibility:visible;display:inline;overflow:visible;enable-background:accumulate"
         inkscape:connector-curvature="0"
         sodipodi:nodetypes="sssssssss" />
    </g>
    <g
       inkscape:groupmode="layer"
       id="layer2"
       inkscape:label="Background"
       style="display:inline" />
    <g
       inkscape:groupmode="layer"
       id="layer6"
       inkscape:label="Symbols"
       style="display:inline">
      <g
         id="g2120">
        <g
           id="g1129">
          <path
             style="color:#bebebe;display:inline;overflow:visible;visibility:visible;fill:#0078d7;fill-opacity:1;fill-rule:nonzero;stroke:none;stroke-width:2;marker:none;enable-background:accumulate"
             d="M 84,46.5 C 56.568735,46.5 34.5,68.568732 34.5,96 v 120 c 0,27.43127 22.068735,49.5 49.5,49.5 h 120 c 27.43127,0 49.5,-22.06873 49.5,-49.5 V 96 C 253.5,68.568732 231.43127,46.5 204,46.5 Z"
             id="path4200" />
          <path
             fill="#0078d7"
             d="m 120.78515,168.46875 c 0,3.20031 0.47909,6.10969 1.45809,8.72813 1.04149,2.57687 2.39543,4.88359 4.1243,6.89937 1.72888,2.01578 3.74937,3.74063 6.12398,5.19532 2.29128,1.45468 4.79086,2.66 7.45708,3.59515 2.64539,0.95594 5.41575,1.6625 8.22778,2.11969 2.85369,0.45719 5.62406,0.68578 8.43608,0.68578 3.54108,0 6.83219,-0.27016 9.95667,-0.83125 3.12447,-0.58187 6.16563,-1.35078 9.16512,-2.3275 2.9995,-0.97672 5.89485,-2.14047 8.79019,-3.47047 2.91618,-1.33 5.87402,-2.78469 8.91517,-4.40562 v 28.17937 c -3.39526,1.6625 -6.72803,3.05485 -10.06081,4.26016 -3.33277,1.16375 -6.66554,2.18203 -10.06081,2.9925 -3.39526,0.83125 -6.83218,1.45468 -10.35243,1.82875 -3.52024,0.37406 -7.1238,0.58187 -10.87317,0.58187 -4.99916,0 -9.83168,-0.58187 -14.47674,-1.72484 -4.64505,-1.14297 -8.99848,-2.78469 -13.08113,-4.94594 -4.08265,-2.16125 -7.81119,-4.77969 -11.20645,-7.85531 -3.41609,-3.07563 -6.31144,-6.54609 -8.74853,-10.39063 -2.43709,-3.84453 -4.31178,-8.06312 -5.66572,-12.59343 -1.31228,-4.53032 -1.97883,-9.35157 -1.97883,-14.46375 0,-5.46547 0.74987,-10.66078 2.24962,-15.6275 1.52058,-4.9875 3.66605,-9.51782 6.49891,-13.67407 2.81203,-4.15625 6.24895,-7.85531 10.31077,-11.0764 4.06181,-3.22109 8.62355,-5.86031 13.70603,-7.89688 -2.77037,2.76391 -4.93667,6.02657 -6.45725,9.82953 -1.56224,3.78219 -2.54124,7.58516 -2.97867,11.38813 h 47.45037 c 0,-4.77969 -0.47909,-8.93594 -1.45809,-12.51031 -0.979,-3.57438 -2.54124,-6.5461 -4.72837,-8.89438 -2.16631,-2.36906 -4.9575,-4.15625 -8.39443,-5.32 -3.43692,-1.18453 -7.58206,-1.78718 -12.43541,-1.78718 -5.7282,0 -11.45641,0.83124 -17.18461,2.55609 -5.72821,1.6625 -11.16479,4.05234 -16.33059,7.06562 -5.1658,3.05485 -9.915,6.65 -14.24761,10.76469 -4.33261,4.15625 -7.97783,8.62422 -10.93566,13.46625 0.62489,-5.61094 1.87468,-11.01406 3.60356,-16.14703 1.72888,-5.13297 4.02016,-9.91265 6.76969,-14.33906 2.74954,-4.36406 5.97817,-8.35406 9.66505,-11.92844 3.68688,-3.57438 7.76953,-6.650001 12.2896,-9.143751 4.52007,-2.49375 9.31094,-4.50953 14.5184,-5.86031 C 134.05375,90.206564 139.59449,89.5 145.42684,89.5 c 3.4161,0 6.81136,0.311719 10.20662,0.914376 3.39527,0.623434 6.70721,1.454694 9.93583,2.535314 6.41559,2.20281 12.1438,5.27844 17.18462,9.18531 5.04082,3.94844 9.26927,8.43719 12.7062,13.57016 3.43694,5.13297 6.04064,10.80625 7.83201,16.97828 C 205.0835,138.85547 206,145.27688 206,151.94766 v 16.52109 z"
             id="path1007"
             style="stroke-width:2.08056;fill:#ffffff" />
        </g>
        <g
           id="g1298">
          <path
             style="color:#bebebe;display:inline;overflow:visible;visibility:visible;fill:#0078d7;fill-opacity:1;fill-rule:nonzero;stroke:none;stroke-width:2;marker:none;enable-background:accumulate"
             d="m 310,32.5 c -9.70255,0 -17.5,7.797452 -17.5,17.5 v 52 c 0,9.70255 7.79745,17.5 17.5,17.5 h 52 c 9.70255,0 17.5,-7.79745 17.5,-17.5 V 50 c 0,-9.702548 -7.79745,-17.5 -17.5,-17.5 z"
             id="path4210" />
          <path
             fill="#0078d7"
             d="m 326.77766,80.95334 c 0,1.27136 0.19032,2.42714 0.57924,3.46734 0.41375,1.02369 0.95161,1.94006 1.63842,2.74085 0.68682,0.80079 1.48948,1.486 2.43282,2.06389 0.91023,0.57789 1.90322,1.05671 2.9624,1.42821 1.05091,0.37976 2.15146,0.66045 3.26857,0.84207 1.13366,0.18162 2.23421,0.27243 3.35132,0.27243 1.40673,0 2.71416,-0.10732 3.95539,-0.33022 1.24123,-0.23115 2.44936,-0.53661 3.64094,-0.92462 1.19158,-0.38802 2.34179,-0.85033 3.49199,-1.37868 1.15848,-0.52836 2.33351,-1.10625 3.54164,-1.75018 v 11.19454 c -1.3488,0.66045 -2.67278,1.21357 -3.99676,1.6924 -1.32398,0.46231 -2.64795,0.86683 -3.99676,1.1888 -1.3488,0.33022 -2.71415,0.57788 -4.11261,0.72649 -1.39845,0.1486 -2.83,0.23115 -4.31948,0.23115 -1.98596,0 -3.90573,-0.23115 -5.75103,-0.68521 -1.84529,-0.45406 -3.57474,-1.10625 -5.19661,-1.96483 -1.62188,-0.85857 -3.10308,-1.89878 -4.45188,-3.1206 -1.35708,-1.22182 -2.50728,-2.6005 -3.47544,-4.12778 -0.96816,-1.52728 -1.7129,-3.20316 -2.25077,-5.00287 -0.52132,-1.79972 -0.78611,-3.71501 -0.78611,-5.74588 0,-2.17121 0.29789,-4.2351 0.89368,-6.20818 0.60407,-1.98134 1.45638,-3.78105 2.58176,-5.43217 1.11711,-1.65111 2.48246,-3.1206 4.09606,-4.40021 1.6136,-1.27961 3.4258,-2.32807 5.44486,-3.13712 -1.10055,1.098 -1.96114,2.39412 -2.5652,3.90489 -0.62062,1.50251 -1.00954,3.01328 -1.18331,4.52405 h 18.85014 c 0,-1.89878 -0.19032,-3.5499 -0.57924,-4.96985 -0.38891,-1.41996 -1.00953,-2.60051 -1.87839,-3.53339 -0.86059,-0.94113 -1.96942,-1.65111 -3.33477,-2.11342 -1.36536,-0.47057 -3.01205,-0.70998 -4.9401,-0.70998 -2.27558,0 -4.55117,0.33022 -6.82676,1.01544 -2.27559,0.66044 -4.43533,1.60983 -6.4875,2.80689 -2.05216,1.21357 -3.93883,2.64178 -5.66,4.27638 -1.72118,1.65111 -3.16928,3.42606 -4.34431,5.34961 0.24825,-2.22901 0.74474,-4.37545 1.43155,-6.41458 0.68682,-2.03912 1.59705,-3.9379 2.68933,-5.69633 1.09229,-1.73367 2.37489,-3.31874 3.83954,-4.7387 1.46465,-1.41996 3.08653,-2.64178 4.88217,-3.63245 1.79565,-0.99067 3.69887,-1.79146 5.76759,-2.32807 2.06871,-0.47057 4.26982,-0.75126 6.58679,-0.75126 1.35708,0 2.70588,0.12384 4.05468,0.36325 1.34881,0.24766 2.66451,0.57789 3.94711,1.00718 2.54866,0.87509 4.82425,2.09691 6.82677,3.64896 2.00252,1.56856 3.68231,3.35176 5.04767,5.39088 1.36536,2.03913 2.3997,4.2929 3.11134,6.7448 0.71165,2.4519 1.07574,5.00287 1.07574,7.65291 v 6.56317 z"
             id="path1133"
             style="fill:#ffffff;stroke-width:0.826524" />
        </g>
        <g
           id="g1390">
          <path
             style="color:#bebebe;display:inline;overflow:visible;visibility:visible;fill:#0078d7;fill-opacity:1;fill-rule:nonzero;stroke:none;stroke-width:2;marker:none;enable-background:accumulate"
             d="m 302.5,142.5 c -6.65502,0 -12,5.34498 -12,12 v 35 c 0,6.65502 5.34498,12 12,12 h 35 c 6.65502,0 12,-5.34498 12,-12 v -35 c 0,-6.65502 -5.34498,-12 -12,-12 z"
             id="path4212" />
          <path
             fill="#0078d7"
             d="m 313.74577,175.35917 c 0,0.86218 0.12907,1.64599 0.39282,2.3514 0.28058,0.69423 0.64534,1.31568 1.11111,1.85875 0.46577,0.54306 1.01011,1.00774 1.64984,1.39965 0.61729,0.3919 1.29069,0.71662 2.00899,0.96855 0.71268,0.25754 1.45903,0.44789 2.21661,0.57105 0.76881,0.12317 1.51516,0.18477 2.27274,0.18477 0.95399,0 1.84063,-0.0728 2.68239,-0.22395 0.84175,-0.15676 1.66106,-0.36391 2.46914,-0.62704 0.80808,-0.26314 1.58811,-0.57666 2.36813,-0.93497 0.78564,-0.35831 1.5825,-0.75021 2.40181,-1.1869 v 7.5917 c -0.91471,0.44788 -1.81258,0.82299 -2.71045,1.14772 -0.89787,0.31351 -1.79574,0.58785 -2.71045,0.80619 -0.9147,0.22395 -1.84063,0.39191 -2.78901,0.49267 -0.94837,0.10078 -1.91919,0.15676 -2.9293,0.15676 -1.3468,0 -2.64872,-0.15676 -3.90012,-0.46467 -1.25141,-0.30793 -2.42425,-0.75021 -3.52414,-1.33247 -1.0999,-0.58225 -2.10439,-1.28769 -3.01909,-2.11627 -0.92032,-0.82859 -1.70035,-1.76356 -2.35691,-2.7993 -0.65657,-1.03574 -1.16162,-2.17226 -1.52638,-3.39275 -0.35354,-1.2205 -0.53311,-2.51938 -0.53311,-3.89663 0,-1.47243 0.20202,-2.87208 0.60606,-4.21015 0.40965,-1.34366 0.98766,-2.56416 1.75085,-3.68388 0.75757,-1.11972 1.6835,-2.11627 2.77778,-2.98405 1.09428,-0.86778 2.32324,-1.57881 3.69249,-2.12747 -0.74635,0.74461 -1.32997,1.62359 -1.73962,2.64814 -0.42088,1.01894 -0.68463,2.04349 -0.80247,3.06803 h 12.78343 c 0,-1.28768 -0.12907,-2.4074 -0.39282,-3.37036 -0.26375,-0.96296 -0.68462,-1.76356 -1.27385,-2.3962 -0.58362,-0.63824 -1.33558,-1.11972 -2.26151,-1.43324 -0.92593,-0.31912 -2.04266,-0.48148 -3.35018,-0.48148 -1.54322,0 -3.08643,0.22394 -4.62965,0.68863 -1.54321,0.44789 -3.00786,1.09172 -4.39956,1.90352 -1.3917,0.823 -2.67117,1.79155 -3.8384,2.90008 -1.16723,1.11972 -2.14928,2.32342 -2.94614,3.62789 0.16835,-1.51162 0.50505,-2.96726 0.97083,-4.35011 0.46577,-1.38286 1.08305,-2.67053 1.82379,-3.86304 0.74075,-1.1757 1.61056,-2.25063 2.60383,-3.21359 0.99327,-0.96296 2.09316,-1.79156 3.3109,-2.46339 1.21773,-0.67183 2.50842,-1.2149 3.91135,-1.5788 1.40292,-0.31913 2.89563,-0.50948 4.4669,-0.50948 0.92032,0 1.83502,0.084 2.74973,0.24634 0.91471,0.16796 1.80696,0.3919 2.67677,0.68303 1.72841,0.59345 3.27162,1.42205 4.62965,2.47458 1.35803,1.06374 2.4972,2.27303 3.42313,3.65589 0.92594,1.38285 1.62739,2.91127 2.11,4.57406 0.48261,1.66278 0.72952,3.39275 0.72952,5.1899 v 4.45089 z"
             id="path1302"
             style="fill:#ffffff;stroke-width:0.560516" />
        </g>
        <g
           id="g1482">
          <path
             style="color:#bebebe;display:inline;overflow:visible;visibility:visible;fill:#0078d7;fill-opacity:1;fill-rule:nonzero;stroke:none;stroke-width:2;marker:none;enable-background:accumulate"
             d="m 300,223.5 c -4.71531,0 -8.5,3.78469 -8.5,8.5 v 24 c 0,4.71531 3.78469,8.5 8.5,8.5 h 24 c 4.71531,0 8.5,-3.78469 8.5,-8.5 v -24 c 0,-4.71531 -3.78469,-8.5 -8.5,-8.5 z"
             id="path4208" />
          <path
             fill="#0078d7"
             d="m 307.65383,246.33433 c 0,0.59915 0.0897,1.14382 0.27298,1.63403 0.19498,0.48243 0.44846,0.91428 0.77213,1.29167 0.32367,0.37738 0.70194,0.7003 1.1465,0.97264 0.42896,0.27233 0.89692,0.49799 1.39607,0.67306 0.49526,0.17897 1.01391,0.31125 1.54036,0.39684 0.53426,0.0856 1.05291,0.12839 1.57936,0.12839 0.66294,0 1.27909,-0.0506 1.86403,-0.15563 0.58495,-0.10893 1.1543,-0.25288 1.71585,-0.43574 0.56155,-0.18285 1.1036,-0.40072 1.64565,-0.64972 0.54595,-0.249 1.0997,-0.52133 1.66905,-0.8248 v 5.27559 c -0.63564,0.31125 -1.25958,0.57192 -1.88353,0.79757 -0.62394,0.21787 -1.24789,0.40851 -1.88353,0.56024 -0.63564,0.15562 -1.27908,0.27233 -1.93813,0.34237 -0.65904,0.07 -1.33368,0.10893 -2.03561,0.10893 -0.93592,0 -1.84064,-0.10893 -2.71026,-0.32291 -0.86962,-0.21399 -1.68465,-0.52134 -2.44898,-0.92596 -0.76433,-0.40461 -1.46237,-0.89482 -2.09801,-1.47063 -0.63954,-0.5758 -1.18159,-1.22552 -1.63785,-1.94527 -0.45626,-0.71976 -0.80723,-1.50954 -1.06071,-2.35768 -0.24568,-0.84814 -0.37046,-1.75075 -0.37046,-2.70782 0,-1.02322 0.14038,-1.99586 0.42116,-2.9257 0.28467,-0.93373 0.68634,-1.78187 1.21669,-2.55998 0.52645,-0.77812 1.16989,-1.47063 1.93033,-2.07367 0.76043,-0.60303 1.61445,-1.09713 2.56596,-1.47841 -0.51865,0.51744 -0.92421,1.12826 -1.20889,1.84023 -0.29247,0.70808 -0.47575,1.42005 -0.55765,2.13203 h 8.88341 c 0,-0.89483 -0.0897,-1.67294 -0.27298,-2.34212 -0.18328,-0.66917 -0.47576,-1.22552 -0.88522,-1.66515 -0.40557,-0.44353 -0.92812,-0.77812 -1.57156,-0.99599 -0.64344,-0.22176 -1.41947,-0.33458 -2.32809,-0.33458 -1.0724,0 -2.14481,0.15562 -3.21721,0.47853 -1.07241,0.31125 -2.09021,0.75866 -3.05733,1.32279 -0.96711,0.57191 -1.85623,1.24498 -2.66736,2.01531 -0.81112,0.77811 -1.49356,1.61458 -2.04731,2.52108 0.11699,-1.05045 0.35098,-2.06199 0.67465,-3.02296 0.32366,-0.96097 0.75263,-1.85579 1.26738,-2.68448 0.51476,-0.81702 1.11919,-1.56401 1.80943,-2.23318 0.69025,-0.66918 1.45457,-1.24498 2.3008,-1.71185 0.84622,-0.46686 1.74315,-0.84425 2.71805,-1.09713 0.97492,-0.22176 2.01222,-0.35404 3.10413,-0.35404 0.63954,0 1.27519,0.0584 1.91082,0.17118 0.63565,0.11672 1.2557,0.27234 1.86014,0.47465 1.20109,0.4124 2.2735,0.9882 3.21721,1.71962 0.94372,0.73921 1.73534,1.57957 2.37879,2.54054 0.64344,0.96096 1.13089,2.02308 1.46625,3.17858 0.33538,1.15549 0.50696,2.35767 0.50696,3.60654 v 3.09299 z"
             id="path1474"
             style="fill:#ffffff;stroke-width:0.389511" />
        </g>
        <g
           id="g1574">
          <path
             style="color:#bebebe;display:inline;overflow:visible;visibility:visible;fill:#0078d7;fill-opacity:1;fill-rule:nonzero;stroke:none;stroke-width:2;marker:none;enable-background:accumulate"
             d="m 424,53.5 c -3.60654,0 -6.5,2.893464 -6.5,6.5 v 16 c 0,3.606536 2.89346,6.5 6.5,6.5 h 16 c 3.60654,0 6.5,-2.893464 6.5,-6.5 V 60 c 0,-3.606536 -2.89346,-6.5 -6.5,-6.5 z"
             id="path4206" />
          <path
             fill="#0078d7"
             d="m 428.92589,69.651175 c 0,0.42378 0.0634,0.80904 0.19308,1.15578 0.13792,0.34123 0.3172,0.64668 0.54614,0.91361 0.22894,0.26693 0.49649,0.49534 0.81094,0.68797 0.30341,0.19263 0.63441,0.35223 0.98747,0.47607 0.3503,0.12658 0.71715,0.22015 1.08952,0.28069 0.37788,0.0605 0.74473,0.0908 1.11711,0.0908 0.46891,0 0.90472,-0.0358 1.31846,-0.11008 0.41374,-0.0771 0.81645,-0.17887 1.21365,-0.3082 0.39719,-0.12934 0.78059,-0.28345 1.16399,-0.45956 0.38616,-0.17612 0.77784,-0.36875 1.18055,-0.5834 v 3.73152 c -0.4496,0.22015 -0.89094,0.40452 -1.33225,0.56413 -0.44133,0.1541 -0.88265,0.28894 -1.33226,0.39627 -0.4496,0.11007 -0.90472,0.19262 -1.37088,0.24216 -0.46615,0.0495 -0.94333,0.077 -1.43982,0.077 -0.66199,0 -1.30191,-0.077 -1.91701,-0.2284 -0.61509,-0.15136 -1.19158,-0.36875 -1.73221,-0.65495 -0.54062,-0.28619 -1.03436,-0.63292 -1.48396,-1.0402 -0.45236,-0.40727 -0.83576,-0.86683 -1.15848,-1.37592 -0.32272,-0.5091 -0.57096,-1.06772 -0.75025,-1.66763 -0.17378,-0.5999 -0.26204,-1.23833 -0.26204,-1.91529 0,-0.72374 0.0993,-1.4117 0.29789,-2.06939 0.20136,-0.66045 0.48546,-1.26035 0.86059,-1.81073 0.37237,-0.55037 0.82749,-1.0402 1.36535,-1.46673 0.53787,-0.42654 1.14194,-0.77603 1.81496,-1.04571 -0.36685,0.366 -0.65372,0.79804 -0.85507,1.30163 -0.20687,0.50084 -0.33651,1.00443 -0.39444,1.50802 h 6.28338 c 0,-0.63293 -0.0634,-1.1833 -0.19308,-1.65662 -0.12963,-0.47332 -0.33651,-0.86684 -0.62613,-1.1778 -0.28686,-0.31371 -0.65647,-0.55037 -1.11159,-0.70447 -0.45512,-0.15686 -1.00401,-0.23666 -1.6467,-0.23666 -0.75852,0 -1.51705,0.11007 -2.27558,0.33848 -0.75853,0.22015 -1.47845,0.53661 -2.1625,0.93563 -0.68406,0.40452 -1.31295,0.88059 -1.88667,1.42546 -0.57373,0.55037 -1.05643,1.14202 -1.4481,1.7832 0.0827,-0.743 0.24824,-1.45848 0.47718,-2.13819 0.22894,-0.67971 0.53235,-1.31263 0.89644,-1.89878 0.3641,-0.57789 0.79163,-1.10624 1.27985,-1.57956 0.48822,-0.47332 1.02884,-0.8806 1.62739,-1.21082 0.59855,-0.33022 1.23296,-0.59715 1.92253,-0.77602 0.68957,-0.15686 1.42327,-0.25042 2.1956,-0.25042 0.45236,0 0.90196,0.0413 1.35156,0.12108 0.4496,0.0826 0.88817,0.19263 1.3157,0.33573 0.84955,0.29169 1.60808,0.69897 2.27559,1.21632 0.66751,0.52285 1.22744,1.11725 1.68256,1.79696 0.45512,0.67971 0.7999,1.43096 1.03711,2.24826 0.23722,0.8173 0.35858,1.66763 0.35858,2.55097 v 2.18773 z"
             id="path1566"
             style="fill:#ffffff;stroke-width:0.275508" />
        </g>
        <g
           id="g1750">
          <path
             style="color:#bebebe;display:inline;overflow:visible;visibility:visible;fill:#0078d7;fill-opacity:1;fill-rule:nonzero;stroke:none;stroke-width:2;marker:none;enable-background:accumulate"
             d="m 422,101.5 c -2.49699,0 -4.5,2.00301 -4.5,4.5 v 12 c 0,2.49699 2.00301,4.5 4.5,4.5 h 12 c 2.49699,0 4.5,-2.00301 4.5,-4.5 v -12 c 0,-2.49699 -2.00301,-4.5 -4.5,-4.5 z"
             id="path4204" />
          <path
             fill="#0078d7"
             d="m 425.77392,113.1956 c 0,0.30688 0.0459,0.58586 0.13981,0.83694 0.0999,0.2471 0.2297,0.46829 0.39549,0.66158 0.16578,0.1933 0.35952,0.3587 0.58723,0.49819 0.21971,0.13949 0.45939,0.25506 0.71506,0.34474 0.25367,0.0917 0.51932,0.15941 0.78896,0.20325 0.27365,0.0438 0.5393,0.0658 0.80894,0.0658 0.33956,0 0.65514,-0.0259 0.95475,-0.0797 0.29961,-0.0558 0.59123,-0.12953 0.87885,-0.22319 0.28762,-0.0937 0.56526,-0.20525 0.84289,-0.33278 0.27964,-0.12754 0.56327,-0.26703 0.85488,-0.42246 v 2.70213 c -0.32557,0.15942 -0.64515,0.29293 -0.96473,0.40851 -0.31958,0.11158 -0.63916,0.20923 -0.96474,0.28695 -0.32557,0.0797 -0.65514,0.13949 -0.9927,0.17536 -0.33755,0.0359 -0.6831,0.0558 -1.04263,0.0558 -0.47937,0 -0.94276,-0.0558 -1.38818,-0.16539 -0.44541,-0.1096 -0.86287,-0.26702 -1.25435,-0.47427 -0.39149,-0.20724 -0.74902,-0.45832 -1.07459,-0.75325 -0.32758,-0.29492 -0.60521,-0.6277 -0.83891,-0.99636 -0.23369,-0.36865 -0.41345,-0.77317 -0.54328,-1.20759 -0.12584,-0.43441 -0.18975,-0.89672 -0.18975,-1.38693 0,-0.52409 0.0719,-1.02227 0.21571,-1.49853 0.14581,-0.47825 0.35154,-0.91267 0.62319,-1.31121 0.26964,-0.39855 0.59922,-0.75325 0.9887,-1.06212 0.3895,-0.30887 0.82692,-0.56195 1.31428,-0.75724 -0.26566,0.26503 -0.47338,0.57789 -0.61919,0.94256 -0.14981,0.36268 -0.24367,0.72734 -0.28563,1.09201 h 4.55004 c 0,-0.45832 -0.0459,-0.85687 -0.13982,-1.19962 -0.0939,-0.34274 -0.24367,-0.6277 -0.45339,-0.85288 -0.20774,-0.22717 -0.47538,-0.39855 -0.80496,-0.51014 -0.32957,-0.11359 -0.72705,-0.17137 -1.19243,-0.17137 -0.54928,0 -1.09857,0.0797 -1.64784,0.2451 -0.54928,0.15942 -1.07059,0.38858 -1.56594,0.67753 -0.49535,0.29293 -0.95076,0.63767 -1.36621,1.03223 -0.41546,0.39854 -0.765,0.82698 -1.04863,1.29128 0.0599,-0.53803 0.17977,-1.05614 0.34555,-1.54834 0.16577,-0.49221 0.38549,-0.95053 0.64915,-1.37498 0.26365,-0.41847 0.57324,-0.80108 0.92678,-1.14382 0.35354,-0.34275 0.74503,-0.63768 1.17846,-0.8768 0.43342,-0.23913 0.89283,-0.43242 1.39217,-0.56195 0.49935,-0.11359 1.03065,-0.18134 1.58992,-0.18134 0.32757,0 0.65314,0.0299 0.97872,0.0877 0.32557,0.0598 0.64315,0.13949 0.95275,0.24311 0.61519,0.21123 1.16447,0.50616 1.64783,0.88079 0.48337,0.37861 0.88883,0.80904 1.2184,1.30125 0.32957,0.4922 0.57924,1.03621 0.75101,1.62805 0.17178,0.59184 0.25966,1.20759 0.25966,1.84725 v 1.58422 z"
             id="path1742"
             style="fill:#ffffff;stroke-width:0.199506" />
        </g>
        <g
           id="g2009">
          <path
             style="color:#bebebe;display:inline;overflow:visible;visibility:visible;fill:#0078d7;fill-opacity:1;fill-rule:nonzero;stroke:none;stroke-width:2;marker:none;enable-background:accumulate"
             d="m 419,140.5 c -1.3844,0 -2.5,1.1156 -2.5,2.5 v 10 c 0,1.3844 1.1156,2.5 2.5,2.5 h 10 c 1.3844,0 2.5,-1.1156 2.5,-2.5 v -10 c 0,-1.3844 -1.1156,-2.5 -2.5,-2.5 z"
             id="path4202" />
          <path
             fill="#0078d7"
             d="m 422.40993,148.85393 c 0,0.21919 0.0328,0.41847 0.0999,0.59781 0.0713,0.1765 0.16408,0.33449 0.28249,0.47256 0.11842,0.13807 0.25681,0.25621 0.41945,0.35585 0.15694,0.0996 0.32814,0.18219 0.51076,0.24624 0.18119,0.0655 0.37094,0.11387 0.56355,0.14518 0.19546,0.0313 0.38521,0.047 0.57781,0.047 0.24254,0 0.46796,-0.0185 0.68196,-0.0569 0.21401,-0.0399 0.42231,-0.0925 0.62775,-0.15942 0.20545,-0.0669 0.40376,-0.14662 0.60207,-0.2377 0.19974,-0.0911 0.40233,-0.19073 0.61063,-0.30176 v 1.9301 c -0.23255,0.11387 -0.46083,0.20923 -0.6891,0.29179 -0.22827,0.0797 -0.45654,0.14945 -0.68909,0.20496 -0.23256,0.0569 -0.46796,0.0996 -0.70908,0.12526 -0.24111,0.0256 -0.48793,0.0399 -0.74473,0.0399 -0.34241,0 -0.67341,-0.0399 -0.99156,-0.11815 -0.31815,-0.0783 -0.61633,-0.19074 -0.89597,-0.33877 -0.27963,-0.14803 -0.53501,-0.32737 -0.76756,-0.53803 -0.23398,-0.21066 -0.43229,-0.44836 -0.59922,-0.71169 -0.16692,-0.26332 -0.29533,-0.55227 -0.38806,-0.86256 -0.0899,-0.3103 -0.13554,-0.64052 -0.13554,-0.99067 0,-0.37435 0.0514,-0.73019 0.15409,-1.07038 0.10415,-0.34161 0.2511,-0.6519 0.44513,-0.93658 0.1926,-0.28467 0.42801,-0.53802 0.70621,-0.75864 0.27821,-0.22063 0.59066,-0.4014 0.93877,-0.54089 -0.18975,0.18931 -0.33812,0.41278 -0.44227,0.67326 -0.10701,0.25905 -0.17406,0.51953 -0.20402,0.78001 h 3.25002 c 0,-0.32738 -0.0328,-0.61205 -0.0999,-0.85687 -0.067,-0.24482 -0.17405,-0.44837 -0.32386,-0.60921 -0.14837,-0.16226 -0.33955,-0.28467 -0.57496,-0.36438 -0.2354,-0.0811 -0.51932,-0.12241 -0.85174,-0.12241 -0.39234,0 -0.78468,0.0569 -1.17703,0.17507 -0.39234,0.11387 -0.76471,0.27756 -1.11853,0.48395 -0.35382,0.20924 -0.67911,0.45548 -0.97586,0.73731 -0.29676,0.28467 -0.54643,0.5907 -0.74902,0.92234 0.0428,-0.38431 0.1284,-0.75438 0.24682,-1.10596 0.11841,-0.35157 0.27535,-0.67895 0.46367,-0.98212 0.18833,-0.29892 0.40947,-0.57221 0.66199,-0.81703 0.25253,-0.24482 0.53216,-0.45548 0.84176,-0.62628 0.30959,-0.17081 0.63773,-0.30888 0.99441,-0.4014 0.35667,-0.0811 0.73618,-0.12952 1.13565,-0.12952 0.23398,0 0.46653,0.0213 0.69909,0.0626 0.23255,0.0427 0.45939,0.0996 0.68053,0.17365 0.43943,0.15087 0.83177,0.36153 1.17703,0.62913 0.34526,0.27044 0.63488,0.57789 0.87029,0.92946 0.23541,0.35158 0.41374,0.74015 0.53644,1.16291 0.12269,0.42274 0.18547,0.86256 0.18547,1.31945 v 1.13159 z"
             id="path1921"
             style="fill:#ffffff;stroke-width:0.142504" />
        </g>
      </g>
    </g>
    <g
       inkscape:groupmode="layer"
       id="layer5"
       inkscape:label="Highlights"
       style="display:inline"
       sodipodi:insensitive="true">
      <path
         style="opacity:0.12999998;color:#bebebe;fill:#ffffff;fill-opacity:1;fill-rule:nonzero;stroke:none;stroke-width:0;marker:none;visibility:visible;display:inline;overflow:visible;enable-background:accumulate"
         d="M 84,47 C 56.836703,47 35,68.836703 35,96 l 0,1 C 35,69.836703 56.836703,48 84,48 l 120,0 c 27.1633,0 49,21.836703 49,49 l 0,-1 C 253,68.836703 231.1633,47 204,47 L 84,47 z"
         id="rect3894"
         inkscape:connector-curvature="0" />
      <path
         style="opacity:0.12999998;color:#bebebe;fill:#ffffff;fill-opacity:1;fill-rule:nonzero;stroke:none;stroke-width:0;marker:none;visibility:visible;display:inline;overflow:visible;enable-background:accumulate"
         d="m 419,141 c -1.1253,0 -2,0.8747 -2,2 l 0,1 c 0,-1.1253 0.8747,-2 2,-2 l 10,0 c 1.1253,0 2,0.8747 2,2 l 0,-1 c 0,-1.1253 -0.8747,-2 -2,-2 l -10,0 z"
         id="rect3896"
         inkscape:connector-curvature="0" />
      <path
         style="opacity:0.12999998;color:#bebebe;fill:#ffffff;fill-opacity:1;fill-rule:nonzero;stroke:none;stroke-width:0;marker:none;visibility:visible;display:inline;overflow:visible;enable-background:accumulate"
         d="m 422,102 c -2.2333,0 -4,1.7667 -4,4 l 0,1 c 0,-2.2333 1.7667,-4 4,-4 l 12,0 c 2.2333,0 4,1.7667 4,4 l 0,-1 c 0,-2.2333 -1.7667,-4 -4,-4 l -12,0 z"
         id="rect3898"
         inkscape:connector-curvature="0" />
      <path
         style="opacity:0.12999998;color:#bebebe;fill:#ffffff;fill-opacity:1;fill-rule:nonzero;stroke:none;stroke-width:0;marker:none;visibility:visible;display:inline;overflow:visible;enable-background:accumulate"
         d="m 424,54 c -3.3413,0 -6,2.658703 -6,6 l 0,1 c 0,-3.341297 2.6587,-6 6,-6 l 16,0 c 3.3413,0 6,2.658703 6,6 l 0,-1 c 0,-3.341297 -2.6587,-6 -6,-6 l -16,0 z"
         id="rect3900"
         inkscape:connector-curvature="0" />
      <path
         style="opacity:0.12999998;color:#bebebe;fill:#ffffff;fill-opacity:1;fill-rule:nonzero;stroke:none;stroke-width:0;marker:none;visibility:visible;display:inline;overflow:visible;enable-background:accumulate"
         d="m 300,224 c -4.4493,0 -8,3.5507 -8,8 l 0,1 c 0,-4.4493 3.5507,-8 8,-8 l 24,0 c 4.4493,0 8,3.5507 8,8 l 0,-1 c 0,-4.4493 -3.5507,-8 -8,-8 l -24,0 z"
         id="rect3902"
         inkscape:connector-curvature="0" />
      <path
         style="opacity:0.12999998;color:#bebebe;fill:#ffffff;fill-opacity:1;fill-rule:nonzero;stroke:none;stroke-width:0;marker:none;visibility:visible;display:inline;overflow:visible;enable-background:accumulate"
         d="m 310,33 c -9.4353,0 -17,7.564703 -17,17 l 0,1 c 0,-9.435297 7.5647,-17 17,-17 l 52,0 c 9.4353,0 17,7.564703 17,17 l 0,-1 c 0,-9.435297 -7.5647,-17 -17,-17 l -52,0 z"
         id="rect3904"
         inkscape:connector-curvature="0" />
      <path
         style="opacity:0.12999998;color:#bebebe;fill:#ffffff;fill-opacity:1;fill-rule:nonzero;stroke:none;stroke-width:0;marker:none;visibility:visible;display:inline;overflow:visible;enable-background:accumulate"
         d="m 302.5,143 c -6.3883,0 -11.5,5.1117 -11.5,11.5 l 0,1 c 0,-6.3883 5.1117,-11.5 11.5,-11.5 l 35,0 c 6.3883,0 11.5,5.1117 11.5,11.5 l 0,-1 c 0,-6.3883 -5.1117,-11.5 -11.5,-11.5 l -35,0 z"
         id="rect3906"
         inkscape:connector-curvature="0" />
      <path
         id="path4085"
         d="m 204,266 c 27.1633,0 49,-21.8367 49,-49 l 0,-1 c 0,27.1633 -21.8367,49 -49,49 L 84,265 C 56.8367,265 35,243.1633 35,216 l 0,1 c 0,27.1633 21.8367,49 49,49 l 120,0 z"
         style="opacity:0.41;color:#bebebe;fill:#000000;fill-opacity:1;fill-rule:nonzero;stroke:none;stroke-width:0;marker:none;visibility:visible;display:inline;overflow:visible;enable-background:accumulate"
         inkscape:connector-curvature="0" />
      <path
         id="path4087"
         d="m 429,156 c 1.1253,0 2,-0.8747 2,-2 l 0,-1 c 0,1.1253 -0.8747,2 -2,2 l -10,0 c -1.1253,0 -2,-0.8747 -2,-2 l 0,1 c 0,1.1253 0.8747,2 2,2 l 10,0 z"
         style="opacity:0.3;color:#bebebe;fill:#000000;fill-opacity:1;fill-rule:nonzero;stroke:none;stroke-width:0;marker:none;visibility:visible;display:inline;overflow:visible;enable-background:accumulate"
         inkscape:connector-curvature="0" />
      <path
         id="path4089"
         d="m 434,123 c 2.2333,0 4,-1.7667 4,-4 l 0,-1 c 0,2.2333 -1.7667,4 -4,4 l -12,0 c -2.2333,0 -4,-1.7667 -4,-4 l 0,1 c 0,2.2333 1.7667,4 4,4 l 12,0 z"
         style="opacity:0.3;color:#bebebe;fill:#000000;fill-opacity:1;fill-rule:nonzero;stroke:none;stroke-width:0;marker:none;visibility:visible;display:inline;overflow:visible;enable-background:accumulate"
         inkscape:connector-curvature="0" />
      <path
         id="path4091"
         d="m 440,83 c 3.3413,0 6,-2.6587 6,-6 l 0,-1 c 0,3.3413 -2.6587,6 -6,6 l -16,0 c -3.3413,0 -6,-2.6587 -6,-6 l 0,1 c 0,3.3413 2.6587,6 6,6 l 16,0 z"
         style="opacity:0.41;color:#bebebe;fill:#000000;fill-opacity:1;fill-rule:nonzero;stroke:none;stroke-width:0;marker:none;visibility:visible;display:inline;overflow:visible;enable-background:accumulate"
         inkscape:connector-curvature="0" />
      <path
         id="path4093"
         d="m 324,265 c 4.4493,0 8,-3.5507 8,-8 l 0,-1 c 0,4.4493 -3.5507,8 -8,8 l -24,0 c -4.4493,0 -8,-3.5507 -8,-8 l 0,1 c 0,4.4493 3.5507,8 8,8 l 24,0 z"
         style="opacity:0.41;color:#bebebe;fill:#000000;fill-opacity:1;fill-rule:nonzero;stroke:none;stroke-width:0;marker:none;visibility:visible;display:inline;overflow:visible;enable-background:accumulate"
         inkscape:connector-curvature="0" />
      <path
         id="path4095"
         d="m 362,120 c 9.4353,0 17,-7.5647 17,-17 l 0,-1 c 0,9.4353 -7.5647,17 -17,17 l -52,0 c -9.4353,0 -17,-7.5647 -17,-17 l 0,1 c 0,9.4353 7.5647,17 17,17 l 52,0 z"
         style="opacity:0.41;color:#bebebe;fill:#000000;fill-opacity:1;fill-rule:nonzero;stroke:none;stroke-width:0;marker:none;visibility:visible;display:inline;overflow:visible;enable-background:accumulate"
         inkscape:connector-curvature="0" />
      <path
         id="path4097"
         d="m 337.5,202 c 6.3883,0 11.5,-5.1117 11.5,-11.5 l 0,-1 c 0,6.3883 -5.1117,11.5 -11.5,11.5 l -35,0 c -6.3883,0 -11.5,-5.1117 -11.5,-11.5 l 0,1 c 0,6.3883 5.1117,11.5 11.5,11.5 l 35,0 z"
         style="opacity:0.41;color:#bebebe;fill:#000000;fill-opacity:1;fill-rule:nonzero;stroke:none;stroke-width:0;marker:none;visibility:visible;display:inline;overflow:visible;enable-background:accumulate"
         inkscape:connector-curvature="0" />
      <path
         inkscape:connector-curvature="0"
         id="path4280"
         d="M 84,265 C 56.836703,265 35,243.1633 35,216 l 0,-1 c 0,27.1633 21.836703,49 49,49 l 120,0 c 27.1633,0 49,-21.8367 49,-49 l 0,1 c 0,27.1633 -21.8367,49 -49,49 l -120,0 z"
         style="opacity:0.1;color:#bebebe;fill:#ffffff;fill-opacity:1;fill-rule:nonzero;stroke:none;stroke-width:0;marker:none;visibility:visible;display:inline;overflow:visible;enable-background:accumulate" />
      <path
         style="opacity:0.1;color:#bebebe;fill:#ffffff;fill-opacity:1;fill-rule:nonzero;stroke:none;stroke-width:0;marker:none;visibility:visible;display:inline;overflow:visible;enable-background:accumulate"
         d="m 300,264 c -4.4493,0 -8,-3.5507 -8,-8 l 0,-1 c 0,4.4493 3.5507,8 8,8 l 24,0 c 4.4493,0 8,-3.5507 8,-8 l 0,1 c 0,4.4493 -3.5507,8 -8,8 l -24,0 z"
         id="path4294"
         inkscape:connector-curvature="0" />
      <path
         style="opacity:0.1;color:#bebebe;fill:#ffffff;fill-opacity:1;fill-rule:nonzero;stroke:none;stroke-width:0;marker:none;visibility:visible;display:inline;overflow:visible;enable-background:accumulate"
         d="m 302.5,201 c -6.3883,0 -11.5,-5.1117 -11.5,-11.5 l 0,-1 c 0,6.3883 5.1117,11.5 11.5,11.5 l 35,0 c 6.3883,0 11.5,-5.1117 11.5,-11.5 l 0,1 c 0,6.3883 -5.1117,11.5 -11.5,11.5 l -35,0 z"
         id="path4296"
         inkscape:connector-curvature="0" />
      <path
         style="opacity:0.1;color:#bebebe;fill:#ffffff;fill-opacity:1;fill-rule:nonzero;stroke:none;stroke-width:0;marker:none;visibility:visible;display:inline;overflow:visible;enable-background:accumulate"
         d="m 310,119 c -9.4353,0 -17,-7.5647 -17,-17 l 0,-1 c 0,9.4353 7.5647,17 17,17 l 52,0 c 9.4353,0 17,-7.5647 17,-17 l 0,1 c 0,9.4353 -7.5647,17 -17,17 l -52,0 z"
         id="path4298"
         inkscape:connector-curvature="0" />
      <path
         style="opacity:0.1;color:#bebebe;fill:#ffffff;fill-opacity:1;fill-rule:nonzero;stroke:none;stroke-width:0;marker:none;visibility:visible;display:inline;overflow:visible;enable-background:accumulate"
         d="m 424,82 c -3.3413,0 -6,-2.658703 -6,-6 l 0,-1 c 0,3.341297 2.6587,6 6,6 l 16,0 c 3.3413,0 6,-2.658703 6,-6 l 0,1 c 0,3.341297 -2.6587,6 -6,6 l -16,0 z"
         id="path4300"
         inkscape:connector-curvature="0" />
      <path
         style="opacity:0.1;color:#bebebe;fill:#ffffff;fill-opacity:1;fill-rule:nonzero;stroke:none;stroke-width:0;marker:none;visibility:visible;display:inline;overflow:visible;enable-background:accumulate"
         d="m 422,122 c -2.2333,0 -4,-1.7667 -4,-4 l 0,-1 c 0,2.2333 1.7667,4 4,4 l 12,0 c 2.2333,0 4,-1.7667 4,-4 l 0,1 c 0,2.2333 -1.7667,4 -4,4 l -12,0 z"
         id="path4302"
         inkscape:connector-curvature="0" />
      <path
         style="opacity:0.1;color:#bebebe;fill:#ffffff;fill-opacity:1;fill-rule:nonzero;stroke:none;stroke-width:0;marker:none;visibility:visible;display:inline;overflow:visible;enable-background:accumulate"
         d="m 419,154.5 c -1.1253,0 -2,-0.8747 -2,-2 l 0,-1 c 0,1.1253 0.8747,2 2,2 l 10,0 c 1.1253,0 2,-0.8747 2,-2 l 0,1 c 0,1.1253 -0.8747,2 -2,2 l -10,0 z"
         id="path4304"
         inkscape:connector-curvature="0" />
    </g>
    <g
       inkscape:groupmode="layer"
       id="layer3"
       inkscape:label="Border"
       style="display:inline"
       sodipodi:insensitive="true">
      <path
         style="opacity:0.41;color:#bebebe;fill:#000000;fill-opacity:1;fill-rule:nonzero;stroke:none;stroke-width:0;marker:none;visibility:visible;display:inline;overflow:visible;enable-background:accumulate"
         d="m 422,101 c -2.77,0 -5,2.23 -5,5 l 0,12 c 0,2.77 2.23,5 5,5 l 12,0 c 2.77,0 5,-2.23 5,-5 l 0,-12 c 0,-2.77 -2.23,-5 -5,-5 l -12,0 z m 0,1 12,0 c 2.2333,0 4,1.7667 4,4 l 0,12 c 0,2.2333 -1.7667,4 -4,4 l -12,0 c -2.2333,0 -4,-1.7667 -4,-4 l 0,-12 c 0,-2.2333 1.7667,-4 4,-4 z"
         id="rect4099"
         inkscape:connector-curvature="0" />
      <path
         style="opacity:0.41;color:#bebebe;fill:#000000;fill-opacity:1;fill-rule:nonzero;stroke:none;stroke-width:0;marker:none;visibility:visible;display:inline;overflow:visible;enable-background:accumulate"
         d="m 424,53 c -3.878,0 -7,3.122 -7,7 l 0,16 c 0,3.878 3.122,7 7,7 l 16,0 c 3.878,0 7,-3.122 7,-7 l 0,-16 c 0,-3.878 -3.122,-7 -7,-7 l -16,0 z m 0,1 16,0 c 3.3413,0 6,2.658703 6,6 l 0,16 c 0,3.341297 -2.6587,6 -6,6 l -16,0 c -3.3413,0 -6,-2.658703 -6,-6 l 0,-16 c 0,-3.341297 2.6587,-6 6,-6 z"
         id="rect4151"
         inkscape:connector-curvature="0" />
      <path
         style="opacity:0.41;color:#bebebe;fill:#000000;fill-opacity:1;fill-rule:nonzero;stroke:none;stroke-width:0;marker:none;visibility:visible;display:inline;overflow:visible;enable-background:accumulate"
         d="m 419,140 c -1.662,0 -3,1.338 -3,3 l 0,10 c 0,1.662 1.338,3 3,3 l 10,0 c 1.662,0 3,-1.338 3,-3 l 0,-10 c 0,-1.662 -1.338,-3 -3,-3 l -10,0 z m 0,1 10,0 c 1.1253,0 2,0.8747 2,2 l 0,10 c 0,1.1253 -0.8747,2 -2,2 l -10,0 c -1.1253,0 -2,-0.8747 -2,-2 l 0,-10 c 0,-1.1253 0.8747,-2 2,-2 z"
         id="rect4095"
         inkscape:connector-curvature="0" />
      <path
         style="opacity:0.41;color:#bebebe;fill:#000000;fill-opacity:1;fill-rule:nonzero;stroke:none;stroke-width:0;marker:none;visibility:visible;display:inline;overflow:visible;enable-background:accumulate"
         d="m 300,223 c -4.986,0 -9,4.014 -9,9 l 0,24 c 0,4.986 4.014,9 9,9 l 24,0 c 4.986,0 9,-4.014 9,-9 l 0,-24 c 0,-4.986 -4.014,-9 -9,-9 l -24,0 z m 0,1 24,0 c 4.4493,0 8,3.5507 8,8 l 0,24 c 0,4.4493 -3.5507,8 -8,8 l -24,0 c -4.4493,0 -8,-3.5507 -8,-8 l 0,-24 c 0,-4.4493 3.5507,-8 8,-8 z"
         id="rect4783"
         inkscape:connector-curvature="0" />
      <path
         style="opacity:0.41;color:#bebebe;fill:#000000;fill-opacity:1;fill-rule:nonzero;stroke:none;stroke-width:0;marker:none;visibility:visible;display:inline;overflow:visible;enable-background:accumulate"
         d="m 302.5,142 c -6.925,0 -12.5,5.575 -12.5,12.5 l 0,35 c 0,6.925 5.575,12.5 12.5,12.5 l 35,0 c 6.925,0 12.5,-5.575 12.5,-12.5 l 0,-35 c 0,-6.925 -5.575,-12.5 -12.5,-12.5 l -35,0 z m 0,1 35,0 c 6.3883,0 11.5,5.1117 11.5,11.5 l 0,35 c 0,6.3883 -5.1117,11.5 -11.5,11.5 l -35,0 c -6.3883,0 -11.5,-5.1117 -11.5,-11.5 l 0,-35 c 0,-6.3883 5.1117,-11.5 11.5,-11.5 z"
         id="rect4515"
         inkscape:connector-curvature="0" />
      <path
         style="opacity:0.41;color:#bebebe;fill:#000000;fill-opacity:1;fill-rule:nonzero;stroke:none;stroke-width:0;marker:none;visibility:visible;display:inline;overflow:visible;enable-background:accumulate"
         d="m 310,32 c -9.972,0 -18,8.028 -18,18 l 0,52 c 0,9.972 8.028,18 18,18 l 52,0 c 9.972,0 18,-8.028 18,-18 l 0,-52 c 0,-9.972 -8.028,-18 -18,-18 l -52,0 z m 0,1 52,0 c 9.4353,0 17,7.564703 17,17 l 0,52 c 0,9.4353 -7.5647,17 -17,17 l -52,0 c -9.4353,0 -17,-7.5647 -17,-17 l 0,-52 c 0,-9.435297 7.5647,-17 17,-17 z"
         id="rect4511"
         inkscape:connector-curvature="0" />
      <path
         style="opacity:0.41;color:#bebebe;fill:#000000;fill-opacity:1;fill-rule:nonzero;stroke:none;stroke-width:0;marker:none;visibility:visible;display:inline;overflow:visible;enable-background:accumulate"
         d="M 84,46 C 56.3,46 34,68.3 34,96 l 0,120 c 0,27.7 22.3,50 50,50 l 120,0 c 27.7,0 50,-22.3 50,-50 L 254,96 C 254,68.3 231.7,46 204,46 L 84,46 z m 0,1 120,0 c 27.1633,0 49,21.836703 49,49 l 0,120 c 0,27.1633 -21.8367,49 -49,49 L 84,265 C 56.836703,265 35,243.1633 35,216 L 35,96 C 35,68.836703 56.836703,47 84,47 z"
         id="rect4040"
         inkscape:connector-curvature="0" />
    </g>
  </g>
  <style
     id="style2"
     type="text/css">
	.st0{fill:#175ddc;}
</style>
</svg>
