<?xml version="1.0" encoding="UTF-8" standalone="no"?>
<svg
   inkscape:export-ydpi="96"
   inkscape:export-xdpi="96"
   width="480"
   height="300"
   id="svg11300"
   sodipodi:version="0.32"
   inkscape:version="1.2.2 (b0a8486541, 2022-12-01)"
   sodipodi:docname="mscore.svg"
   inkscape:output_extension="org.inkscape.output.svg.inkscape"
   version="1.0"
   style="display:inline;enable-background:new"
   inkscape:export-filename="/home/user/Downloads/aa.png"
   xmlns:inkscape="http://www.inkscape.org/namespaces/inkscape"
   xmlns:sodipodi="http://sodipodi.sourceforge.net/DTD/sodipodi-0.dtd"
   xmlns:xlink="http://www.w3.org/1999/xlink"
   xmlns="http://www.w3.org/2000/svg"
   xmlns:svg="http://www.w3.org/2000/svg"
   xmlns:rdf="http://www.w3.org/1999/02/22-rdf-syntax-ns#"
   xmlns:cc="http://creativecommons.org/ns#"
   xmlns:dc="http://purl.org/dc/elements/1.1/">
  <sodipodi:namedview
     stroke="#ef2929"
     fill="#f57900"
     id="base"
     pagecolor="#777777"
     bordercolor="#666666"
     borderopacity="0.25490196"
     inkscape:pageopacity="0"
     inkscape:pageshadow="2"
     inkscape:zoom="1"
     inkscape:cx="132.5"
     inkscape:cy="121"
     inkscape:current-layer="layer6"
     showgrid="false"
     inkscape:grid-bbox="true"
     inkscape:document-units="px"
     inkscape:showpageshadow="false"
     inkscape:window-width="1920"
     inkscape:window-height="1008"
     inkscape:window-x="0"
     inkscape:window-y="0"
     width="400px"
     height="300px"
     inkscape:snap-nodes="true"
     inkscape:snap-bbox="true"
     gridtolerance="10000"
     inkscape:object-nodes="true"
     inkscape:snap-grids="true"
     showguides="true"
     inkscape:guide-bbox="true"
     inkscape:window-maximized="1"
     inkscape:bbox-nodes="true"
     inkscape:bbox-paths="true"
     inkscape:snap-bbox-edge-midpoints="true"
     inkscape:snap-bbox-midpoints="true"
     inkscape:document-rotation="0"
     inkscape:pagecheckerboard="0"
     inkscape:deskcolor="#d1d1d1">
    <inkscape:grid
       spacingy="1"
       spacingx="1"
       id="grid5883"
       type="xygrid"
       enabled="true"
       visible="true"
       empspacing="4"
       snapvisiblegridlinesonly="true"
       dotted="false"
       color="#000000"
       opacity="0.1254902"
       empcolor="#203ef3"
       empopacity="0.36470588"
       originx="0"
       originy="0" />
    <inkscape:grid
       type="xygrid"
       id="grid11592"
       empspacing="8"
       visible="true"
       enabled="false"
       spacingx="0.5"
       spacingy="0.5"
       color="#ff0000"
       opacity="0.1254902"
       empcolor="#ff0000"
       empopacity="0.25098039"
       snapvisiblegridlinesonly="true"
       dotted="true"
       originx="0"
       originy="0" />
  </sodipodi:namedview>
  <defs
     id="defs3">
    <linearGradient
       inkscape:collect="always"
       id="linearGradient8469">
      <stop
         style="stop-color:#19f3ff;stop-opacity:1;"
         offset="0"
         id="stop8467" />
      <stop
         style="stop-color:#19cdff;stop-opacity:1;"
         offset="1"
         id="stop8465" />
    </linearGradient>
    <linearGradient
       inkscape:collect="always"
       xlink:href="#outerBackgroundGradient-2"
       id="linearGradient4256"
       x1="417"
       y1="148"
       x2="431"
       y2="148"
       gradientUnits="userSpaceOnUse"
       gradientTransform="matrix(0,-1,1,0,276,572)" />
    <linearGradient
       inkscape:collect="always"
       xlink:href="#outerBackgroundGradient-2"
       id="linearGradient4260"
       x1="418"
       y1="68"
       x2="446"
       y2="68"
       gradientUnits="userSpaceOnUse"
       gradientTransform="matrix(0,-1,1,0,364,500)" />
    <linearGradient
       inkscape:collect="always"
       xlink:href="#outerBackgroundGradient-2"
       id="linearGradient4262"
       x1="292"
       y1="244"
       x2="332"
       y2="244"
       gradientUnits="userSpaceOnUse"
       gradientTransform="matrix(0,-1,1,0,68,556)" />
    <linearGradient
       inkscape:collect="always"
       xlink:href="#outerBackgroundGradient-2"
       id="linearGradient4264"
       x1="293"
       y1="76"
       x2="379"
       y2="76"
       gradientUnits="userSpaceOnUse"
       gradientTransform="matrix(0,-1,1,0,260,412)" />
    <linearGradient
       inkscape:collect="always"
       xlink:href="#outerBackgroundGradient-2"
       id="linearGradient4266"
       x1="291"
       y1="172"
       x2="349"
       y2="172"
       gradientUnits="userSpaceOnUse"
       gradientTransform="matrix(0,-1,1,0,148,492)" />
    <linearGradient
       inkscape:collect="always"
       xlink:href="#outerBackgroundGradient-2"
       id="linearGradient3870"
       gradientUnits="userSpaceOnUse"
       gradientTransform="matrix(0,-1,1,0,316,540)"
       x1="418"
       y1="112"
       x2="438"
       y2="112" />
    <linearGradient
       inkscape:collect="always"
       xlink:href="#outerBackgroundGradient-2"
       id="linearGradient4312"
       gradientUnits="userSpaceOnUse"
       gradientTransform="matrix(0,-1,1,0,-12,300)"
       x1="35"
       y1="156"
       x2="253"
       y2="156" />
    <linearGradient
       id="outerBackgroundGradient-2">
      <stop
         style="stop-color:#00005c;stop-opacity:1;"
         offset="0"
         id="stop3864-8-6-3" />
      <stop
         style="stop-color:#00008f;stop-opacity:1;"
         offset="1"
         id="stop3866-9-1-2" />
    </linearGradient>
    <linearGradient
       inkscape:collect="always"
       xlink:href="#linearGradient8469"
       id="linearGradient8471"
       x1="144"
       y1="76"
       x2="144"
       y2="236"
       gradientUnits="userSpaceOnUse" />
    <linearGradient
       inkscape:collect="always"
       xlink:href="#linearGradient8469"
       id="linearGradient12607"
       x1="336"
       y1="46"
       x2="336"
       y2="106"
       gradientUnits="userSpaceOnUse" />
    <linearGradient
       inkscape:collect="always"
       xlink:href="#linearGradient8469"
       id="linearGradient12615"
       x1="320"
       y1="152"
       x2="320"
       y2="192"
       gradientUnits="userSpaceOnUse" />
    <linearGradient
       inkscape:collect="always"
       xlink:href="#linearGradient8469"
       id="linearGradient12623"
       x1="312"
       y1="230"
       x2="312"
       y2="258"
       gradientUnits="userSpaceOnUse" />
    <linearGradient
       inkscape:collect="always"
       xlink:href="#linearGradient8469"
       id="linearGradient12631"
       x1="432"
       y1="58"
       x2="432"
       y2="78"
       gradientUnits="userSpaceOnUse" />
    <linearGradient
       inkscape:collect="always"
       xlink:href="#linearGradient8469"
       id="linearGradient12639"
       x1="428"
       y1="105"
       x2="428"
       y2="119"
       gradientUnits="userSpaceOnUse" />
    <linearGradient
       inkscape:collect="always"
       xlink:href="#linearGradient8469"
       id="linearGradient12647"
       x1="424"
       y1="142"
       x2="424"
       y2="154"
       gradientUnits="userSpaceOnUse" />
  </defs>
  <metadata
     id="metadata4">
    <rdf:RDF>
      <cc:Work
         rdf:about="">
        <dc:format>image/svg+xml</dc:format>
        <dc:type
           rdf:resource="http://purl.org/dc/dcmitype/StillImage" />
        <dc:creator>
          <cc:Agent>
            <dc:title>Sam Hewitt</dc:title>
          </cc:Agent>
        </dc:creator>
        <dc:source />
        <cc:license
           rdf:resource="" />
        <dc:title />
        <dc:subject>
          <rdf:Bag />
        </dc:subject>
        <dc:date />
        <dc:rights>
          <cc:Agent>
            <dc:title />
          </cc:Agent>
        </dc:rights>
        <dc:publisher>
          <cc:Agent>
            <dc:title />
          </cc:Agent>
        </dc:publisher>
        <dc:identifier />
        <dc:relation />
        <dc:language />
        <dc:coverage />
        <dc:description />
        <dc:contributor>
          <cc:Agent>
            <dc:title />
          </cc:Agent>
        </dc:contributor>
      </cc:Work>
      <cc:Work
         rdf:about="">
        <dc:format>image/svg+xml</dc:format>
        <dc:type
           rdf:resource="http://purl.org/dc/dcmitype/StillImage" />
      </cc:Work>
    </rdf:RDF>
  </metadata>
  <g
     style="display:inline"
     inkscape:groupmode="layer"
     inkscape:label="Icon"
     id="layer1">
    <g
       style="display:none"
       inkscape:label="Baseplate"
       id="layer7"
       inkscape:groupmode="layer">
      <text
         y="19.745117"
         xml:space="preserve"
         x="15.006836"
         style="font-style:normal;font-variant:normal;font-weight:normal;font-stretch:normal;line-height:0%;font-family:'DejaVu Sans';-inkscape-font-specification:'DejaVu Sans';display:inline;fill:#000000;fill-opacity:1;stroke:none;enable-background:new"
         inkscape:label="context"
         id="context"><tspan
           style="font-style:normal;font-variant:normal;font-weight:normal;font-stretch:normal;font-size:18px;line-height:1.25;font-family:'DejaVu Sans';-inkscape-font-specification:'DejaVu Sans'"
           y="19.745117"
           x="15.006836"
           sodipodi:role="line"
           id="tspan3933">apps</tspan></text>
      <text
         y="19.745117"
         xml:space="preserve"
         x="122.48828"
         style="font-style:normal;font-variant:normal;font-weight:bold;font-stretch:normal;line-height:0%;font-family:'DejaVu Sans';-inkscape-font-specification:'DejaVu Sans Bold';text-align:start;writing-mode:lr-tb;text-anchor:start;display:inline;fill:#000000;fill-opacity:1;stroke:none;enable-background:new"
         inkscape:label="icon-name"
         id="icon-name"><tspan
           style="font-style:normal;font-variant:normal;font-weight:bold;font-stretch:normal;font-size:18px;line-height:1.25;font-family:'DejaVu Sans';-inkscape-font-specification:'DejaVu Sans Bold'"
           y="19.745117"
           x="122.48828"
           sodipodi:role="line"
           id="tspan3937">mscore</tspan></text>
      <rect
         style="display:inline;overflow:visible;visibility:visible;fill:#eeeeec;fill-opacity:1;fill-rule:nonzero;stroke:none;stroke-width:2;marker:none;enable-background:accumulate"
         id="rect16x16"
         width="16"
         height="16"
         x="416"
         y="140"
         inkscape:label="16x16" />
      <rect
         style="display:inline;overflow:visible;visibility:visible;fill:#d4d4d4;fill-opacity:1;fill-rule:nonzero;stroke:none;stroke-width:2;marker:none;enable-background:accumulate"
         id="rect24x24"
         width="24"
         height="24"
         x="416"
         y="100"
         inkscape:label="24x24" />
      <rect
         style="display:inline;overflow:visible;visibility:visible;fill:#eeeeec;fill-opacity:1;fill-rule:nonzero;stroke:none;stroke-width:2;marker:none;enable-background:accumulate"
         id="rect32x32"
         width="32"
         height="32"
         x="416"
         y="52"
         inkscape:label="32x32" />
      <rect
         inkscape:label="22x22"
         y="101"
         x="417"
         height="22"
         width="22"
         id="rect22x22"
         style="display:inline;overflow:visible;visibility:visible;fill:#eeeeec;fill-opacity:1;fill-rule:nonzero;stroke:none;stroke-width:2;marker:none;enable-background:accumulate" />
      <rect
         inkscape:label="48x48"
         y="220"
         x="288"
         height="48"
         width="48"
         id="rect48x48"
         style="display:inline;overflow:visible;visibility:visible;fill:#eeeeec;fill-opacity:1;fill-rule:nonzero;stroke:none;stroke-width:2;marker:none;enable-background:accumulate" />
      <rect
         style="display:inline;overflow:visible;visibility:visible;fill:#eeeeec;fill-opacity:1;fill-rule:nonzero;stroke:none;stroke-width:2;marker:none;enable-background:accumulate"
         id="rect256x256"
         width="256"
         height="256"
         x="16"
         y="28"
         inkscape:label="256x256" />
      <rect
         style="display:inline;overflow:visible;visibility:visible;fill:#eeeeec;fill-opacity:1;fill-rule:nonzero;stroke:none;stroke-width:2;marker:none;enable-background:accumulate"
         id="rect64x64"
         width="64"
         height="64"
         x="288"
         y="140"
         inkscape:label="64x64" />
      <rect
         style="display:inline;overflow:visible;visibility:visible;fill:#eeeeec;fill-opacity:1;fill-rule:nonzero;stroke:none;stroke-width:2;marker:none;enable-background:accumulate"
         id="rect96x96"
         width="96"
         height="96"
         x="288"
         y="28"
         inkscape:label="96x96" />
    </g>
    <g
       inkscape:groupmode="layer"
       id="layer4"
       inkscape:label="Shadow"
       style="display:inline"
       sodipodi:insensitive="true">
      <rect
         ry="50"
         y="47"
         x="34"
         height="220"
         width="220"
         id="rect4114"
         style="color:#bebebe;display:inline;overflow:visible;visibility:visible;opacity:0.1;fill:#000000;fill-opacity:1;fill-rule:nonzero;stroke:none;stroke-width:0;marker:none;enable-background:accumulate" />
      <rect
         style="color:#bebebe;display:inline;overflow:visible;visibility:visible;opacity:0.1;fill:#000000;fill-opacity:1;fill-rule:nonzero;stroke:none;stroke-width:0;marker:none;enable-background:accumulate"
         id="rect4120"
         width="30"
         height="30"
         x="417"
         y="54"
         ry="7" />
      <rect
         transform="scale(1,-1)"
         ry="9"
         y="-266"
         x="291"
         height="42"
         width="42"
         id="rect4122"
         style="color:#bebebe;display:inline;overflow:visible;visibility:visible;opacity:0.1;fill:#000000;fill-opacity:1;fill-rule:nonzero;stroke:none;stroke-width:0;marker:none;enable-background:accumulate" />
      <rect
         style="color:#bebebe;display:inline;overflow:visible;visibility:visible;opacity:0.1;fill:#000000;fill-opacity:1;fill-rule:nonzero;stroke:none;stroke-width:0;marker:none;enable-background:accumulate"
         id="rect4124"
         width="88"
         height="88"
         x="292"
         y="33"
         ry="18" />
      <rect
         ry="12.5"
         y="143"
         x="290"
         height="60"
         width="60"
         id="rect4126"
         style="color:#bebebe;display:inline;overflow:visible;visibility:visible;opacity:0.1;fill:#000000;fill-opacity:1;fill-rule:nonzero;stroke:none;stroke-width:0;marker:none;enable-background:accumulate" />
      <path
         id="path4268"
         d="m 422,101 c -2.77,0 -5,2.23 -5,5 v 12 c 0,2.77 2.23,5 5,5 h 12 c 2.77,0 5,-2.23 5,-5 v -12 c 0,-2.77 -2.23,-5 -5,-5 z"
         style="color:#bebebe;display:inline;overflow:visible;visibility:visible;opacity:0.1;fill:#000000;fill-opacity:1;fill-rule:nonzero;stroke:none;stroke-width:0;marker:none;enable-background:accumulate"
         inkscape:connector-curvature="0"
         sodipodi:nodetypes="sssssssss" />
      <path
         id="path4270"
         d="m 419,140 c -1.662,0 -3,1.338 -3,3 v 10 c 0,1.662 1.338,3 3,3 h 10 c 1.662,0 3,-1.338 3,-3 v -10 c 0,-1.662 -1.338,-3 -3,-3 z"
         style="color:#bebebe;display:inline;overflow:visible;visibility:visible;opacity:0.1;fill:#000000;fill-opacity:1;fill-rule:nonzero;stroke:none;stroke-width:0;marker:none;enable-background:accumulate"
         inkscape:connector-curvature="0"
         sodipodi:nodetypes="sssssssss" />
    </g>
    <g
       inkscape:groupmode="layer"
       id="layer2"
       inkscape:label="Background"
       style="display:inline">
      <path
         style="color:#bebebe;display:inline;overflow:visible;visibility:visible;fill:url(#linearGradient4312);fill-opacity:1;fill-rule:nonzero;stroke:none;stroke-width:2;marker:none;enable-background:accumulate"
         d="M 84,46.5 C 56.568735,46.5 34.5,68.568732 34.5,96 v 120 c 0,27.43127 22.068735,49.5 49.5,49.5 h 120 c 27.43127,0 49.5,-22.06873 49.5,-49.5 V 96 C 253.5,68.568732 231.43127,46.5 204,46.5 Z"
         id="path4200" />
      <path
         style="color:#bebebe;display:inline;overflow:visible;visibility:visible;fill:url(#linearGradient4256);fill-opacity:1;fill-rule:nonzero;stroke:none;stroke-width:2;marker:none;enable-background:accumulate"
         d="m 419,140.5 c -1.3844,0 -2.5,1.1156 -2.5,2.5 v 10 c 0,1.3844 1.1156,2.5 2.5,2.5 h 10 c 1.3844,0 2.5,-1.1156 2.5,-2.5 v -10 c 0,-1.3844 -1.1156,-2.5 -2.5,-2.5 z"
         id="path4202" />
      <path
         style="color:#bebebe;display:inline;overflow:visible;visibility:visible;fill:url(#linearGradient3870);fill-opacity:1;fill-rule:nonzero;stroke:none;stroke-width:2;marker:none;enable-background:accumulate"
         d="m 422,101.5 c -2.49699,0 -4.5,2.00301 -4.5,4.5 v 12 c 0,2.49699 2.00301,4.5 4.5,4.5 h 12 c 2.49699,0 4.5,-2.00301 4.5,-4.5 v -12 c 0,-2.49699 -2.00301,-4.5 -4.5,-4.5 z"
         id="path4204"
         sodipodi:nodetypes="sssssssss" />
      <path
         style="color:#bebebe;display:inline;overflow:visible;visibility:visible;fill:url(#linearGradient4260);fill-opacity:1;fill-rule:nonzero;stroke:none;stroke-width:2;marker:none;enable-background:accumulate"
         d="m 424,53.5 c -3.60654,0 -6.5,2.893464 -6.5,6.5 v 16 c 0,3.606536 2.89346,6.5 6.5,6.5 h 16 c 3.60654,0 6.5,-2.893464 6.5,-6.5 V 60 c 0,-3.606536 -2.89346,-6.5 -6.5,-6.5 z"
         id="path4206" />
      <path
         style="color:#bebebe;display:inline;overflow:visible;visibility:visible;fill:url(#linearGradient4262);fill-opacity:1;fill-rule:nonzero;stroke:none;stroke-width:2;marker:none;enable-background:accumulate"
         d="m 300,223.5 c -4.71531,0 -8.5,3.78469 -8.5,8.5 v 24 c 0,4.71531 3.78469,8.5 8.5,8.5 h 24 c 4.71531,0 8.5,-3.78469 8.5,-8.5 v -24 c 0,-4.71531 -3.78469,-8.5 -8.5,-8.5 z"
         id="path4208" />
      <path
         style="color:#bebebe;display:inline;overflow:visible;visibility:visible;fill:url(#linearGradient4264);fill-opacity:1;fill-rule:nonzero;stroke:none;stroke-width:2;marker:none;enable-background:accumulate"
         d="m 310,32.5 c -9.70255,0 -17.5,7.797452 -17.5,17.5 v 52 c 0,9.70255 7.79745,17.5 17.5,17.5 h 52 c 9.70255,0 17.5,-7.79745 17.5,-17.5 V 50 c 0,-9.702548 -7.79745,-17.5 -17.5,-17.5 z"
         id="path4210" />
      <path
         style="color:#bebebe;display:inline;overflow:visible;visibility:visible;fill:url(#linearGradient4266);fill-opacity:1;fill-rule:nonzero;stroke:none;stroke-width:2;marker:none;enable-background:accumulate"
         d="m 302.5,142.5 c -6.65502,0 -12,5.34498 -12,12 v 35 c 0,6.65502 5.34498,12 12,12 h 35 c 6.65502,0 12,-5.34498 12,-12 v -35 c 0,-6.65502 -5.34498,-12 -12,-12 z"
         id="path4212" />
    </g>
    <g
       inkscape:groupmode="layer"
       id="layer6"
       inkscape:label="Symbols"
       style="display:inline">
      <path
         id="path3900"
         style="display:inline;opacity:0.2;fill:#000000;fill-opacity:1;stroke-width:0.999991;enable-background:new"
         d="m 147.48438,77 c -29.77796,0 -53.919927,22.864614 -53.919927,51.1543 0,5.16898 0.801633,10.12377 2.300781,14.82812 l 37.466796,0.002 c -6.64152,-6.238 -10.77344,-15.05243 -10.77344,-24.88282 0,-18.887618 15.3116,-34.154294 34.19922,-34.154294 7.77223,0 14.93853,2.601124 20.68164,6.96875 -0.13189,-0.003 -0.26399,-0.0039 -0.39648,-0.0039 -9.60535,0 -17.39063,7.785886 -17.39063,17.390621 0,9.60534 7.78528,17.39063 17.39063,17.39063 9.60473,0 17.39258,-7.78529 17.39258,-17.39063 0,-4.53073 -1.73503,-8.656668 -4.57422,-11.751949 C 179.98858,84.644662 164.67743,77.000001 147.48438,77 Z m -6.86524,66 -31.5,28 h 38.25977 l 31.50195,-28 z m 13.75,28 c 5.45152,6.2749 8.76172,14.50607 8.76172,23.55664 0,19.63054 -15.57312,35.49609 -34.7832,35.49609 -7.7426,0 -14.89246,-2.59322 -20.67188,-6.96484 9.51459,-0.10527 17.19336,-7.85318 17.19336,-17.39258 0,-9.60473 -7.78784,-17.38867 -17.39258,-17.38867 -9.604726,0 -17.390623,7.78394 -17.390622,17.38867 0,4.43939 1.664788,8.48918 4.402343,11.5625 C 105.24551,229.33209 121.3142,237 139.26953,237 c 32.38724,0 58.64453,-24.87037 58.64453,-55.63867 0,-3.54582 -0.34697,-6.98575 -1.01367,-10.34766 z"
         sodipodi:nodetypes="ssccsscsssscsccccccsscssscsscc" />
      <path
         id="path3902"
         style="display:inline;opacity:0.2;fill:#000000;fill-opacity:1;enable-background:new"
         d="m 337.30664,47 c -11.16665,0 -20.21875,8.768401 -20.21875,19.376953 0,1.938356 0.3011,3.858924 0.86328,5.623047 h 14.05469 c -2.49055,-2.339234 -4.04688,-5.74527 -4.04688,-9.431641 0,-7.082805 5.74336,-12.935546 12.82618,-12.935547 2.91456,0 5.60025,0.948091 7.7539,2.585938 -0.0495,-0.0011 -0.0987,-0.002 -0.14844,-0.002 -3.60197,0 -6.52148,2.919735 -6.52148,6.521484 0,3.601976 2.91951,6.521485 6.52148,6.521485 3.60176,0 6.52149,-2.919509 6.52149,-6.521485 0,-1.69901 -0.65016,-3.245528 -1.71484,-4.40625 C 349.49502,49.867184 343.75399,47 337.30664,47 Z m -2.85547,25 -11.25,10 h 14.34766 l 11.25,-10 z m 5.4375,10 c 2.04431,2.353071 3.28516,5.527938 3.28516,8.921875 0,7.3614 -5.83925,13.445315 -13.04297,13.445315 -2.90346,0 -5.58469,-0.94464 -7.75195,-2.58399 3.56794,-0.0395 6.44726,-2.944232 6.44726,-6.521481 0,-3.601748 -2.91973,-6.521485 -6.52148,-6.521485 -3.60176,0 -6.52149,2.919737 -6.52149,6.521485 0,1.664757 0.62381,3.183449 1.65039,4.335937 C 321.46752,104.12548 327.49337,107 334.22656,107 c 12.14514,0 21.99024,-9.536188 21.99024,-21.074219 0,-1.329668 -0.13084,-2.665075 -0.38086,-3.925781 z"
         sodipodi:nodetypes="ssccsscsssscsccccccsscssscsscc" />
      <path
         id="path3904"
         style="display:inline;opacity:0.2;fill:#000000;fill-opacity:1;enable-background:new"
         d="m 320.87109,153 c -7.44443,0 -13.48047,6.10341 -13.48047,13.17578 0,1.29224 0.20139,2.64815 0.57618,3.82422 h 9.37109 c -1.66037,-1.55948 -2.69727,-3.95452 -2.69727,-6.41211 0,-4.72186 3.82697,-8.79687 8.54883,-8.79687 1.94305,0 3.73416,0.5956 5.16993,1.6875 -0.033,-7.4e-4 -0.0645,0 -0.0977,0 -2.40132,0 -4.34961,1.94648 -4.34961,4.34765 0,2.40132 1.94829,4.34766 4.34961,4.34766 2.40117,0 4.34765,-1.94634 4.34766,-4.34766 0,-1.13268 -0.43475,-2.16369 -1.14454,-2.9375 C 328.99672,154.91209 325.16933,153 320.87109,153 Z m -2.27929,17 -6.74805,6 h 9.56445 l 6.74805,-6 z m 4,6 c 1.36287,1.56871 2.1914,3.80378 2.1914,6.06641 0,4.9076 -3.89282,9.14257 -8.69531,9.14257 -1.93564,0 -3.72508,-0.59461 -5.16992,-1.6875 2.37863,-0.0263 4.29883,-1.96281 4.29883,-4.34765 0,-2.40117 -1.94647,-4.34766 -4.34766,-4.34766 -2.40116,0 -4.34766,1.94649 -4.34766,4.34766 0,1.10984 0.41718,2.12229 1.10157,2.89062 2.68928,3.01855 6.7065,4.93555 11.19531,4.93555 8.09675,0 14.66016,-6.64002 14.66016,-14.33203 0,-0.88645 -0.0873,-1.82751 -0.25391,-2.66797 z"
         sodipodi:nodetypes="ssccsscsssscsccccccsscssscsscc" />
      <path
         id="path3906"
         style="display:inline;opacity:0.2;fill:#000000;fill-opacity:1;enable-background:new"
         d="m 312.60938,231 c -5.21111,0 -9.43555,4.35013 -9.43555,9.30078 0,0.90458 0.14195,1.87597 0.40429,2.69922 h 6.5586 c -1.16226,-1.09165 -1.88867,-2.80704 -1.88867,-4.52734 0,-3.30531 2.67907,-6.20899 5.98437,-6.20899 1.36013,0 2.6141,0.40755 3.61914,1.17188 -0.0231,-5.3e-4 -0.0452,0 -0.0684,0 -1.68092,0 -3.04492,1.36215 -3.04492,3.04297 0,1.6809 1.364,3.04296 3.04492,3.04296 1.68082,0 3.04297,-1.36206 3.04297,-3.04296 0,-0.79287 -0.30392,-1.51499 -0.80078,-2.05664 C 318.29767,232.33828 315.61813,231 312.60938,231 Z m -1.70704,12 -4.5,4 h 6.69532 l 4.5,-4 z m 2.91211,4 c 0.95401,1.0981 1.53321,2.69936 1.53321,4.2832 0,3.43532 -2.7242,6.45313 -6.08594,6.45313 -1.35495,0 -2.60775,-0.40686 -3.61914,-1.17188 1.66505,-0.0184 3.00976,-1.37359 3.00976,-3.04297 0,-1.68081 -1.36215,-3.04296 -3.04296,-3.04296 -1.68082,0 -3.04493,1.36215 -3.04493,3.04296 0,0.77689 0.29242,1.48561 0.77149,2.02344 1.8825,2.11298 4.69377,3.45508 7.83594,3.45508 5.66771,0 10.26367,-4.73082 10.26367,-10.11523 0,-0.62051 -0.0611,-1.29644 -0.17774,-1.88477 z"
         sodipodi:nodetypes="ssccsscsssscsccccccsscssscsscc" />
      <path
         id="path3908"
         style="color:#000000;font-style:normal;font-variant:normal;font-weight:normal;font-stretch:normal;font-size:medium;line-height:normal;font-family:Sans;-inkscape-font-specification:Sans;text-indent:0;text-align:start;text-decoration:none;text-decoration-line:none;letter-spacing:normal;word-spacing:normal;text-transform:none;writing-mode:lr-tb;direction:ltr;baseline-shift:baseline;text-anchor:start;display:inline;overflow:visible;visibility:visible;opacity:0.2;fill:#000000;fill-opacity:1;fill-rule:nonzero;stroke:none;stroke-width:0.540503;marker:none;enable-background:accumulate"
         d="m 432.43555,59 c -3.72223,0 -6.74024,2.663034 -6.74024,6.199219 0,0.646118 0.0841,1.160005 0.27149,1.748047 l 4.65039,0.0059 c -0.83018,-0.779744 -1.29688,-1.741913 -1.29688,-2.970703 0,-2.360935 1.9125,-4.140625 4.27344,-4.140625 0.97152,0 1.86806,0.352488 2.58594,0.898437 -0.0165,-3.71e-4 -0.0322,-0.002 -0.0488,-0.002 -1.20066,0 -2.17383,0.973247 -2.17383,2.173828 0,1.200659 0.97317,2.173829 2.17383,2.173829 1.20059,0 2.17383,-0.97317 2.17383,-2.173829 0,-0.566336 -0.21737,-1.081842 -0.57227,-1.46875 C 436.4983,59.955114 434.58465,59 432.43555,59 Z m -0.57617,8 -4.50196,4 h 4.7832 l 4.50196,-4 z m 1.4375,4 c 0.68141,0.784357 1.09375,1.724156 1.09374,2.855469 0,2.453799 -1.9464,4.302734 -4.34765,4.302734 -0.96782,0 -1.86156,-0.350037 -2.58399,-0.896484 1.18932,-0.01316 2.1504,-0.981414 2.1504,-2.173828 0,-1.200583 -0.97325,-2.173828 -2.17383,-2.173829 -1.20059,0 -2.17383,0.973246 -2.17383,2.173829 0,0.554917 0.20664,1.061151 0.54883,1.445312 C 427.1552,78.042478 429.16381,79 431.4082,79 c 4.04838,0 7.33008,-2.898132 7.33008,-6.744141 0,-0.443222 -0.0358,-0.796561 -0.11914,-1.216797 z"
         sodipodi:nodetypes="ssccsscsssscsccccccsscssscsscc" />
      <path
         id="path3910"
         style="color:#000000;font-style:normal;font-variant:normal;font-weight:normal;font-stretch:normal;font-size:medium;line-height:normal;font-family:Sans;-inkscape-font-specification:Sans;text-indent:0;text-align:start;text-decoration:none;text-decoration-line:none;letter-spacing:normal;word-spacing:normal;text-transform:none;writing-mode:lr-tb;direction:ltr;baseline-shift:baseline;text-anchor:start;display:inline;overflow:visible;visibility:visible;opacity:0.2;fill:#000000;fill-opacity:1;fill-rule:nonzero;stroke:none;stroke-width:0.5;marker:none;enable-background:accumulate"
         d="m 428.30469,106 c -2.60555,0 -4.7168,2.17506 -4.7168,4.65039 0,0.45228 0.07,0.93798 0.20117,1.34961 h 3.2793 c -0.58113,-0.54582 -0.94531,-1.40351 -0.94531,-2.26367 0,-1.65265 1.34149,-3.10547 2.99414,-3.10547 0.68007,0 1.30607,0.20378 1.80859,0.58594 -0.0115,-2.6e-4 -0.0237,0 -0.0352,0 -0.84044,0 -1.52148,0.68107 -1.52148,1.52148 0,0.84046 0.68104,1.52344 1.52148,1.52344 0.84041,0 1.52149,-0.68298 1.52149,-1.52344 0,-0.39643 -0.15001,-0.7565 -0.39844,-1.02734 C 431.14984,106.66914 429.80907,106 428.30469,106 Z m -0.85352,6 -2.25,2 h 3.34766 l 2.25,-2 z m 1.45703,2 c 0.47699,0.54905 0.76563,1.34872 0.76563,2.14062 0,1.71766 -1.3621,3.25 -3.04297,3.25 -0.67748,0 -1.3029,-0.22491 -1.80859,-0.60742 0.8325,-0.009 1.5039,-0.68679 1.5039,-1.52148 0,-0.84041 -0.68107,-1.52344 -1.52148,-1.52344 -0.84041,0 -1.52149,0.68303 -1.52149,1.52344 0,0.38844 0.14524,0.74281 0.38477,1.01172 0.94125,1.0565 2.34689,1.72656 3.91797,1.72656 2.83385,0 5.13086,-2.3664 5.13086,-5.05859 0,-0.31025 -0.0296,-0.64724 -0.0879,-0.94141 z"
         sodipodi:nodetypes="ssccsscsssscsccccccsscssscsscc" />
      <path
         id="path3912"
         style="color:#000000;font-style:normal;font-variant:normal;font-weight:normal;font-stretch:normal;font-size:medium;line-height:normal;font-family:Sans;-inkscape-font-specification:Sans;text-indent:0;text-align:start;text-decoration:none;text-decoration-line:none;letter-spacing:normal;word-spacing:normal;text-transform:none;writing-mode:lr-tb;direction:ltr;baseline-shift:baseline;text-anchor:start;display:inline;overflow:visible;visibility:visible;opacity:0.2;fill:#000000;fill-opacity:1;fill-rule:nonzero;stroke:none;stroke-width:0.416677;marker:none;enable-background:accumulate"
         d="m 424.26172,143 c -2.23335,0 -4.04492,1.75327 -4.04492,3.875 0,0.38767 0.0614,0.77218 0.17382,1.125 h 2.81055 c -0.49811,-0.46785 -0.80859,-1.14944 -0.80859,-1.88672 0,-1.41658 1.14788,-2.58594 2.56445,-2.58594 0.58292,0 1.12004,0.18805 1.55078,0.51563 -0.01,-2.3e-4 -0.0193,0 -0.0293,0 -0.7204,0 -1.30469,0.58433 -1.30469,1.30469 0,0.7204 0.58429,1.30468 1.30469,1.30468 0.72032,0 1.30468,-0.58428 1.30468,-1.30468 0,-0.33981 -0.13081,-0.64871 -0.34375,-0.88086 C 426.69901,143.57383 425.5512,143 424.26172,143 Z m -0.57227,5 -2.25,2 h 2.8711 l 2.25,-2 z m 1.08789,2 c 0.40886,0.47062 0.65821,1.10636 0.65821,1.78516 0,1.47226 -1.16863,2.6875 -2.60938,2.6875 -0.5807,0 -1.11732,-0.18776 -1.55078,-0.51563 0.7136,-0.008 1.28906,-0.58923 1.28906,-1.30469 0,-0.72035 -0.58237,-1.30468 -1.30273,-1.30468 -0.72035,0 -1.30469,0.58433 -1.30469,1.30468 0,0.33295 0.12476,0.63669 0.33008,0.86719 0.80679,0.90557 2.01077,1.48047 3.35742,1.48047 2.42905,0 4.39844,-1.90724 4.39844,-4.21484 0,-0.26593 -0.0262,-0.53302 -0.0762,-0.78516 z"
         sodipodi:nodetypes="ssccsscsssscsccccccsscssscsscc" />
      <path
         id="path6"
         style="display:inline;fill:url(#linearGradient8471);fill-opacity:1;stroke-width:1;enable-background:new"
         d="m 147.4834,76.000001 c -29.77798,0 -53.918229,22.865309 -53.918229,51.155019 0,5.16899 0.800477,10.12275 2.299627,14.82711 l 37.466342,0.002 c -6.64153,-6.238 -10.7727,-15.05181 -10.7727,-24.88221 0,-18.887638 15.31181,-34.154084 34.19945,-34.154084 7.77224,0 14.93867,2.601304 20.68179,6.968934 -0.13189,-0.003 -0.26335,-0.0047 -0.39584,-0.0047 -9.60536,0 -17.39218,7.786252 -17.39218,17.391 0,9.60535 7.78682,17.39099 17.39218,17.39099 9.60474,0 17.39099,-7.78564 17.39099,-17.39099 0,-4.53074 -1.73365,-8.657053 -4.57284,-11.752337 C 179.98923,83.644602 164.67647,76.000002 147.4834,76.000001 Z M 140.61996,142 109.11818,170 h 38.26066 l 31.50178,-28 z m 13.7487,28 c 5.45152,6.27491 8.76286,14.50552 8.76286,23.5561 0,19.63056 -15.57308,35.49579 -34.78318,35.49579 -7.7426,0 -14.8941,-2.59259 -20.67352,-6.96421 9.5146,-0.10527 17.19485,-7.85277 17.19485,-17.39218 0,-9.60474 -7.78743,-17.38982 -17.39218,-17.38982 -9.604738,0 -17.390991,7.78508 -17.390991,17.38982 0,4.43939 1.663954,8.48995 4.401512,11.56328 C 105.24525,228.33307 121.31465,236 139.27,236 c 32.38727,0 58.6435,-24.86968 58.6435,-55.63801 0,-3.54582 -0.34688,-6.98691 -1.01358,-10.34882 z"
         sodipodi:nodetypes="ssccsscsssscsccccccsscssscsscc" />
      <path
         id="path3875"
         style="display:inline;fill:url(#linearGradient12607);fill-opacity:1;stroke-width:1;enable-background:new"
         d="m 337.30627,45.999998 c -11.16666,0 -20.21919,8.768339 -20.21919,19.376902 0,1.938358 0.30232,3.858975 0.8645,5.6231 h 14.05386 c -2.49055,-2.339236 -4.04596,-5.744612 -4.04596,-9.430986 0,-7.082812 5.74188,-12.937155 12.8247,-12.937155 2.91457,0 5.60196,0.949145 7.75561,2.586994 -0.0495,-0.0011 -0.0987,-0.0013 -0.14844,-0.0013 -3.60198,0 -6.52201,2.919822 -6.52201,6.521575 0,3.601979 2.92003,6.521575 6.52201,6.521575 3.60176,0 6.52158,-2.919596 6.52158,-6.521575 0,-1.699012 -0.65012,-3.24637 -1.71481,-4.407093 -3.70225,-4.464852 -9.44449,-7.331999 -15.89185,-7.331999 z M 334.45104,71 323.20088,81 h 14.34765 l 11.25016,-10 z m 5.43718,10 c 2.04431,2.353073 3.28605,5.52882 3.28605,8.92276 0,7.361407 -5.83986,13.44537 -13.04359,13.44537 -2.90346,0 -5.58525,-0.94631 -7.75252,-2.58566 3.56795,-0.0395 6.44802,-2.944321 6.44802,-6.521574 0,-3.601751 -2.92026,-6.521575 -6.52202,-6.521575 -3.60176,0 -6.52157,2.919824 -6.52157,6.521575 0,1.664759 0.62398,3.183709 1.65056,4.336198 C 321.46708,103.12492 327.49306,106 334.22626,106 c 12.14515,0 21.99116,-9.536963 21.99116,-21.075005 0,-1.32967 -0.13106,-2.664288 -0.38108,-3.924995 z"
         sodipodi:nodetypes="csccsscsssscscccccccscssscssccc" />
      <path
         id="path3877"
         style="display:inline;fill:url(#linearGradient12615);fill-opacity:1;enable-background:new"
         d="m 320.87109,152 c -7.44444,0 -13.48047,6.10318 -13.48047,13.17556 0,1.29224 0.20139,2.64837 0.57618,3.82444 h 9.37109 c -1.66037,-1.55948 -2.69727,-3.95534 -2.69727,-6.41293 0,-4.72187 3.82696,-8.79644 8.54883,-8.79644 1.94305,0 3.73416,0.59599 5.16993,1.68789 -0.033,-7.4e-4 -0.0645,0 -0.0977,0 -2.40132,0 -4.34961,1.94648 -4.34961,4.34765 0,2.40132 1.94829,4.34766 4.34961,4.34766 2.40117,0 4.34766,-1.94634 4.34766,-4.34766 0,-1.13268 -0.43475,-2.16369 -1.14454,-2.9375 C 328.99667,153.91209 325.16933,152 320.87109,152 Z m -2.27853,17 -6.74957,6 h 9.56445 l 6.74957,-6 z m 3.99924,6 c 1.36287,1.56871 2.1914,3.80463 2.1914,6.06726 0,4.90761 -3.89282,9.14211 -8.69531,9.14211 -1.93564,0 -3.72508,-0.595 -5.16992,-1.68789 2.37863,-0.0263 4.29883,-1.96281 4.29883,-4.34765 0,-2.40117 -1.94647,-4.34766 -4.34766,-4.34766 -2.40116,0 -4.34766,1.94649 -4.34766,4.34766 0,1.10984 0.41718,2.12229 1.10157,2.89062 2.68929,3.01855 6.7065,4.93555 11.19531,4.93555 8.09676,0 14.66016,-6.63911 14.66016,-14.33113 0,-0.88645 -0.0873,-1.82841 -0.25391,-2.66887 z"
         sodipodi:nodetypes="ssccsscsssscsccccccsscssscsscc" />
      <path
         id="path3879"
         style="display:inline;fill:url(#linearGradient12623);fill-opacity:1;stroke-width:1;enable-background:new"
         d="m 312.60959,230.00001 v 2.1e-4 c -5.21111,0 -9.43562,4.35009 -9.43562,9.30075 0,0.90458 0.14108,1.87579 0.40343,2.69904 h 6.55847 c -1.16226,-1.09165 -1.88812,-2.80647 -1.88812,-4.52678 0,-3.30531 2.67955,-6.20971 5.98486,-6.20971 1.36013,0 2.61425,0.40785 3.61929,1.17218 -0.0231,-5.3e-4 -0.0461,-8.5e-4 -0.0693,-8.5e-4 -1.68092,0 -3.0436,1.36258 -3.0436,3.0434 0,1.68091 1.36268,3.04339 3.0436,3.04339 1.68082,0 3.0434,-1.36248 3.0434,-3.04339 0,-0.79287 -0.30338,-1.51498 -0.80024,-2.05664 -1.72772,-2.0836 -4.40743,-3.4216 -7.41619,-3.4216 z M 310.90237,242 l -4.50027,4 h 6.69557 l 4.50026,-4 z m 2.91213,4.00001 c 0.95401,1.0981 1.53349,2.69908 1.53349,4.28292 0,3.43532 -2.72527,6.45378 -6.08701,6.45378 -1.35495,0 -2.60645,-0.40633 -3.61784,-1.17135 1.66505,-0.0184 3.00908,-1.37423 3.00908,-3.04361 0,-1.68082 -1.36279,-3.04319 -3.04361,-3.04319 -1.68082,0 -3.0434,1.36237 -3.0434,3.04319 0,0.77689 0.29119,1.48573 0.77026,2.02356 1.8825,2.11298 4.69462,3.45469 7.83679,3.45469 5.66772,0 10.26253,-4.73158 10.26253,-10.116 0,-0.62051 -0.0612,-1.29566 -0.17783,-1.88399 z"
         sodipodi:nodetypes="ccsccsscsssscccccccccscssscssccc" />
      <path
         id="path3881"
         style="color:#000000;font-style:normal;font-variant:normal;font-weight:normal;font-stretch:normal;font-size:medium;line-height:normal;font-family:Sans;-inkscape-font-specification:Sans;text-indent:0;text-align:start;text-decoration:none;text-decoration-line:none;letter-spacing:normal;word-spacing:normal;text-transform:none;writing-mode:lr-tb;direction:ltr;baseline-shift:baseline;text-anchor:start;display:inline;overflow:visible;visibility:visible;fill:url(#linearGradient12631);fill-opacity:1;fill-rule:nonzero;stroke:none;stroke-width:0.540537;marker:none;enable-background:accumulate"
         d="m 432.43555,58 c -3.72223,0 -6.74024,2.663339 -6.74024,6.199527 0,0.646119 0.0848,1.160247 0.27217,1.748289 l 4.65062,0.0061 c -0.83018,-0.779745 -1.29779,-1.743557 -1.29779,-2.972348 0,-2.360937 1.9125,-4.139952 4.27344,-4.139952 0.97152,0 1.86806,0.352676 2.58594,0.898626 -0.0165,-3.71e-4 -0.0322,-0.002 -0.0488,-0.002 -1.20066,0 -2.17383,0.973245 -2.17383,2.173828 0,1.20066 0.97317,2.173829 2.17383,2.173829 1.20059,0 2.17383,-0.973169 2.17383,-2.173829 0,-0.566337 -0.21737,-1.081842 -0.57227,-1.46875 C 436.49833,58.955073 434.58466,58 432.43555,58 Z m -0.57659,8 -4.50113,4 h 4.78321 l 4.50113,-4 z m 1.43792,4 c 0.68142,0.784358 1.09374,1.724478 1.09374,2.855792 0,2.453802 -1.9464,4.3026 -4.34765,4.3026 -0.96782,0 -1.86156,-0.350225 -2.58399,-0.896673 1.18932,-0.01316 2.1504,-0.981412 2.1504,-2.173828 0,-1.200584 -0.97325,-2.173829 -2.17383,-2.173829 -1.20059,0 -2.17383,0.973245 -2.17383,2.173829 0,0.554918 0.20664,1.06115 0.54883,1.445312 C 427.1552,77.042479 429.1638,78 431.4082,78 c 4.04838,0 7.33008,-2.898196 7.33008,-6.744208 0,-0.443223 -0.0359,-0.797445 -0.11927,-1.217681 z"
         sodipodi:nodetypes="ssccsscsssscsccccccsscssscsscc" />
      <path
         id="path3889"
         style="color:#000000;font-style:normal;font-variant:normal;font-weight:normal;font-stretch:normal;font-size:medium;line-height:normal;font-family:Sans;-inkscape-font-specification:Sans;text-indent:0;text-align:start;text-decoration:none;text-decoration-line:none;letter-spacing:normal;word-spacing:normal;text-transform:none;writing-mode:lr-tb;direction:ltr;baseline-shift:baseline;text-anchor:start;display:inline;overflow:visible;visibility:visible;fill:url(#linearGradient12639);fill-opacity:1;fill-rule:nonzero;stroke:none;stroke-width:0.5;marker:none;enable-background:accumulate"
         d="M 428.30469 105 C 425.69914 105 423.58789 107.17506 423.58789 109.65039 C 423.58789 110.10267 423.65784 110.58837 423.78906 111 L 427.06836 111 C 426.48723 110.45418 426.12305 109.59649 426.12305 108.73633 C 426.12305 107.08368 427.46454 105.63086 429.11719 105.63086 C 429.79726 105.63086 430.42326 105.83464 430.92578 106.2168 C 430.91428 106.21654 430.90212 106.2168 430.89062 106.2168 C 430.05017 106.2168 429.36914 106.89787 429.36914 107.73828 C 429.36914 108.57874 430.05017 109.26172 430.89062 109.26172 C 431.73103 109.26172 432.41211 108.57874 432.41211 107.73828 C 432.41211 107.34185 432.2621 106.98178 432.01367 106.71094 C 431.1498 105.66914 429.80907 105 428.30469 105 z M 427.45117 111 L 425.20117 113 L 428.54883 113 L 430.79883 111 L 427.45117 111 z M 428.9082 113 C 429.38519 113.54905 429.67383 114.34871 429.67383 115.14062 C 429.67383 116.85828 428.31173 118.39062 426.63086 118.39062 C 425.95338 118.39062 425.32796 118.16571 424.82227 117.7832 C 425.65478 117.7742 426.32617 117.09641 426.32617 116.26172 C 426.32617 115.42131 425.6451 114.73828 424.80469 114.73828 C 423.96428 114.73828 423.2832 115.42131 423.2832 116.26172 C 423.2832 116.65016 423.42844 117.00453 423.66797 117.27344 C 424.60922 118.32994 426.01486 119 427.58594 119 C 430.4198 119 432.7168 116.63361 432.7168 113.94141 C 432.7168 113.63116 432.68721 113.29417 432.62891 113 L 428.9082 113 z " />
      <path
         id="path12766"
         style="color:#000000;font-style:normal;font-variant:normal;font-weight:normal;font-stretch:normal;font-size:medium;line-height:normal;font-family:Sans;-inkscape-font-specification:Sans;text-indent:0;text-align:start;text-decoration:none;text-decoration-line:none;letter-spacing:normal;word-spacing:normal;text-transform:none;writing-mode:lr-tb;direction:ltr;baseline-shift:baseline;text-anchor:start;display:inline;overflow:visible;visibility:visible;fill:url(#linearGradient12647);fill-opacity:1;fill-rule:nonzero;stroke:none;stroke-width:0.416635;marker:none;enable-background:accumulate"
         d="M 424.26172 142 C 422.02837 142 420.2168 143.75327 420.2168 145.875 C 420.2168 146.26267 420.27821 146.64718 420.39062 147 L 423.20117 147 C 422.70306 146.53215 422.39258 145.85056 422.39258 145.11328 C 422.39258 143.6967 423.54046 142.52734 424.95703 142.52734 C 425.53995 142.52734 426.07707 142.71539 426.50781 143.04297 C 426.49781 143.04274 426.48852 143.04297 426.47852 143.04297 C 425.75812 143.04297 425.17383 143.6273 425.17383 144.34766 C 425.17383 145.06806 425.75812 145.65234 426.47852 145.65234 C 427.19885 145.65234 427.7832 145.06806 427.7832 144.34766 C 427.7832 144.00785 427.65239 143.69895 427.43945 143.4668 C 426.699 142.57383 425.5512 142 424.26172 142 z M 423.68945 147 L 421.43945 149 L 424.31055 149 L 426.56055 147 L 423.68945 147 z M 424.77734 149 C 425.1862 149.47062 425.43555 150.10636 425.43555 150.78516 C 425.43555 152.25743 424.26692 153.47266 422.82617 153.47266 C 422.24547 153.47266 421.70885 153.2849 421.27539 152.95703 C 421.98899 152.94903 422.56445 152.3678 422.56445 151.65234 C 422.56445 150.93199 421.98208 150.34766 421.26172 150.34766 C 420.54137 150.34766 419.95703 150.93199 419.95703 151.65234 C 419.95703 151.98529 420.08179 152.28903 420.28711 152.51953 C 421.0939 153.4251 422.29788 154 423.64453 154 C 426.07358 154 428.04297 152.09277 428.04297 149.78516 C 428.04297 149.51923 428.0168 149.25214 427.9668 149 L 424.77734 149 z " />
    </g>
    <g
       inkscape:groupmode="layer"
       id="layer5"
       inkscape:label="Highlights"
       style="display:inline"
       sodipodi:insensitive="true">
      <path
         style="color:#bebebe;display:inline;overflow:visible;visibility:visible;opacity:0.13;fill:#ffffff;fill-opacity:1;fill-rule:nonzero;stroke:none;stroke-width:0;marker:none;enable-background:accumulate"
         d="M 84,47 C 56.836703,47 35,68.836703 35,96 v 1 C 35,69.836703 56.836703,48 84,48 h 120 c 27.1633,0 49,21.836703 49,49 V 96 C 253,68.836703 231.1633,47 204,47 Z"
         id="rect3894"
         inkscape:connector-curvature="0" />
      <path
         style="color:#bebebe;display:inline;overflow:visible;visibility:visible;opacity:0.13;fill:#ffffff;fill-opacity:1;fill-rule:nonzero;stroke:none;stroke-width:0;marker:none;enable-background:accumulate"
         d="m 419,141 c -1.1253,0 -2,0.8747 -2,2 v 1 c 0,-1.1253 0.8747,-2 2,-2 h 10 c 1.1253,0 2,0.8747 2,2 v -1 c 0,-1.1253 -0.8747,-2 -2,-2 z"
         id="rect3896"
         inkscape:connector-curvature="0" />
      <path
         style="color:#bebebe;display:inline;overflow:visible;visibility:visible;opacity:0.13;fill:#ffffff;fill-opacity:1;fill-rule:nonzero;stroke:none;stroke-width:0;marker:none;enable-background:accumulate"
         d="m 422,102 c -2.2333,0 -4,1.7667 -4,4 v 1 c 0,-2.2333 1.7667,-4 4,-4 h 12 c 2.2333,0 4,1.7667 4,4 v -1 c 0,-2.2333 -1.7667,-4 -4,-4 z"
         id="rect3898"
         inkscape:connector-curvature="0" />
      <path
         style="color:#bebebe;display:inline;overflow:visible;visibility:visible;opacity:0.13;fill:#ffffff;fill-opacity:1;fill-rule:nonzero;stroke:none;stroke-width:0;marker:none;enable-background:accumulate"
         d="m 424,54 c -3.3413,0 -6,2.658703 -6,6 v 1 c 0,-3.341297 2.6587,-6 6,-6 h 16 c 3.3413,0 6,2.658703 6,6 v -1 c 0,-3.341297 -2.6587,-6 -6,-6 z"
         id="rect3900"
         inkscape:connector-curvature="0" />
      <path
         style="color:#bebebe;display:inline;overflow:visible;visibility:visible;opacity:0.13;fill:#ffffff;fill-opacity:1;fill-rule:nonzero;stroke:none;stroke-width:0;marker:none;enable-background:accumulate"
         d="m 300,224 c -4.4493,0 -8,3.5507 -8,8 v 1 c 0,-4.4493 3.5507,-8 8,-8 h 24 c 4.4493,0 8,3.5507 8,8 v -1 c 0,-4.4493 -3.5507,-8 -8,-8 z"
         id="rect3902"
         inkscape:connector-curvature="0" />
      <path
         style="color:#bebebe;display:inline;overflow:visible;visibility:visible;opacity:0.13;fill:#ffffff;fill-opacity:1;fill-rule:nonzero;stroke:none;stroke-width:0;marker:none;enable-background:accumulate"
         d="m 310,33 c -9.4353,0 -17,7.564703 -17,17 v 1 c 0,-9.435297 7.5647,-17 17,-17 h 52 c 9.4353,0 17,7.564703 17,17 v -1 c 0,-9.435297 -7.5647,-17 -17,-17 z"
         id="rect3904"
         inkscape:connector-curvature="0" />
      <path
         style="color:#bebebe;display:inline;overflow:visible;visibility:visible;opacity:0.13;fill:#ffffff;fill-opacity:1;fill-rule:nonzero;stroke:none;stroke-width:0;marker:none;enable-background:accumulate"
         d="m 302.5,143 c -6.3883,0 -11.5,5.1117 -11.5,11.5 v 1 c 0,-6.3883 5.1117,-11.5 11.5,-11.5 h 35 c 6.3883,0 11.5,5.1117 11.5,11.5 v -1 c 0,-6.3883 -5.1117,-11.5 -11.5,-11.5 z"
         id="rect3906"
         inkscape:connector-curvature="0" />
      <path
         id="path4085"
         d="m 204,266 c 27.1633,0 49,-21.8367 49,-49 v -1 c 0,27.1633 -21.8367,49 -49,49 H 84 C 56.8367,265 35,243.1633 35,216 v 1 c 0,27.1633 21.8367,49 49,49 z"
         style="color:#bebebe;display:inline;overflow:visible;visibility:visible;opacity:0.5;fill:#000000;fill-opacity:1;fill-rule:nonzero;stroke:none;stroke-width:0;marker:none;enable-background:accumulate"
         inkscape:connector-curvature="0" />
      <path
         id="path4087"
         d="m 429,156 c 1.1253,0 2,-0.8747 2,-2 v -1 c 0,1.1253 -0.8747,2 -2,2 h -10 c -1.1253,0 -2,-0.8747 -2,-2 v 1 c 0,1.1253 0.8747,2 2,2 z"
         style="color:#bebebe;display:inline;overflow:visible;visibility:visible;opacity:0.3;fill:#000000;fill-opacity:1;fill-rule:nonzero;stroke:none;stroke-width:0;marker:none;enable-background:accumulate"
         inkscape:connector-curvature="0" />
      <path
         id="path4089"
         d="m 434,123 c 2.2333,0 4,-1.7667 4,-4 v -1 c 0,2.2333 -1.7667,4 -4,4 h -12 c -2.2333,0 -4,-1.7667 -4,-4 v 1 c 0,2.2333 1.7667,4 4,4 z"
         style="color:#bebebe;display:inline;overflow:visible;visibility:visible;opacity:0.3;fill:#000000;fill-opacity:1;fill-rule:nonzero;stroke:none;stroke-width:0;marker:none;enable-background:accumulate"
         inkscape:connector-curvature="0" />
      <path
         id="path4091"
         d="m 440,83 c 3.3413,0 6,-2.6587 6,-6 v -1 c 0,3.3413 -2.6587,6 -6,6 h -16 c -3.3413,0 -6,-2.6587 -6,-6 v 1 c 0,3.3413 2.6587,6 6,6 z"
         style="color:#bebebe;display:inline;overflow:visible;visibility:visible;opacity:0.5;fill:#000000;fill-opacity:1;fill-rule:nonzero;stroke:none;stroke-width:0;marker:none;enable-background:accumulate"
         inkscape:connector-curvature="0" />
      <path
         id="path4093"
         d="m 324,265 c 4.4493,0 8,-3.5507 8,-8 v -1 c 0,4.4493 -3.5507,8 -8,8 h -24 c -4.4493,0 -8,-3.5507 -8,-8 v 1 c 0,4.4493 3.5507,8 8,8 z"
         style="color:#bebebe;display:inline;overflow:visible;visibility:visible;opacity:0.5;fill:#000000;fill-opacity:1;fill-rule:nonzero;stroke:none;stroke-width:0;marker:none;enable-background:accumulate"
         inkscape:connector-curvature="0" />
      <path
         id="path4095"
         d="m 362,120 c 9.4353,0 17,-7.5647 17,-17 v -1 c 0,9.4353 -7.5647,17 -17,17 h -52 c -9.4353,0 -17,-7.5647 -17,-17 v 1 c 0,9.4353 7.5647,17 17,17 z"
         style="color:#bebebe;display:inline;overflow:visible;visibility:visible;opacity:0.5;fill:#000000;fill-opacity:1;fill-rule:nonzero;stroke:none;stroke-width:0;marker:none;enable-background:accumulate"
         inkscape:connector-curvature="0" />
      <path
         id="path4097"
         d="m 337.5,202 c 6.3883,0 11.5,-5.1117 11.5,-11.5 v -1 c 0,6.3883 -5.1117,11.5 -11.5,11.5 h -35 c -6.3883,0 -11.5,-5.1117 -11.5,-11.5 v 1 c 0,6.3883 5.1117,11.5 11.5,11.5 z"
         style="color:#bebebe;display:inline;overflow:visible;visibility:visible;opacity:0.5;fill:#000000;fill-opacity:1;fill-rule:nonzero;stroke:none;stroke-width:0;marker:none;enable-background:accumulate"
         inkscape:connector-curvature="0" />
      <path
         inkscape:connector-curvature="0"
         id="path4280"
         d="M 84,265 C 56.836703,265 35,243.1633 35,216 v -1 c 0,27.1633 21.836703,49 49,49 h 120 c 27.1633,0 49,-21.8367 49,-49 v 1 c 0,27.1633 -21.8367,49 -49,49 z"
         style="color:#bebebe;display:inline;overflow:visible;visibility:visible;opacity:0.1;fill:#ffffff;fill-opacity:1;fill-rule:nonzero;stroke:none;stroke-width:0;marker:none;enable-background:accumulate" />
      <path
         style="color:#bebebe;display:inline;overflow:visible;visibility:visible;opacity:0.1;fill:#ffffff;fill-opacity:1;fill-rule:nonzero;stroke:none;stroke-width:0;marker:none;enable-background:accumulate"
         d="m 300,264 c -4.4493,0 -8,-3.5507 -8,-8 v -1 c 0,4.4493 3.5507,8 8,8 h 24 c 4.4493,0 8,-3.5507 8,-8 v 1 c 0,4.4493 -3.5507,8 -8,8 z"
         id="path4294"
         inkscape:connector-curvature="0" />
      <path
         style="color:#bebebe;display:inline;overflow:visible;visibility:visible;opacity:0.1;fill:#ffffff;fill-opacity:1;fill-rule:nonzero;stroke:none;stroke-width:0;marker:none;enable-background:accumulate"
         d="m 302.5,201 c -6.3883,0 -11.5,-5.1117 -11.5,-11.5 v -1 c 0,6.3883 5.1117,11.5 11.5,11.5 h 35 c 6.3883,0 11.5,-5.1117 11.5,-11.5 v 1 c 0,6.3883 -5.1117,11.5 -11.5,11.5 z"
         id="path4296"
         inkscape:connector-curvature="0" />
      <path
         style="color:#bebebe;display:inline;overflow:visible;visibility:visible;opacity:0.1;fill:#ffffff;fill-opacity:1;fill-rule:nonzero;stroke:none;stroke-width:0;marker:none;enable-background:accumulate"
         d="m 310,119 c -9.4353,0 -17,-7.5647 -17,-17 v -1 c 0,9.4353 7.5647,17 17,17 h 52 c 9.4353,0 17,-7.5647 17,-17 v 1 c 0,9.4353 -7.5647,17 -17,17 z"
         id="path4298"
         inkscape:connector-curvature="0" />
      <path
         style="color:#bebebe;display:inline;overflow:visible;visibility:visible;opacity:0.1;fill:#ffffff;fill-opacity:1;fill-rule:nonzero;stroke:none;stroke-width:0;marker:none;enable-background:accumulate"
         d="m 424,82 c -3.3413,0 -6,-2.658703 -6,-6 v -1 c 0,3.341297 2.6587,6 6,6 h 16 c 3.3413,0 6,-2.658703 6,-6 v 1 c 0,3.341297 -2.6587,6 -6,6 z"
         id="path4300"
         inkscape:connector-curvature="0" />
      <path
         style="color:#bebebe;display:inline;overflow:visible;visibility:visible;opacity:0.1;fill:#ffffff;fill-opacity:1;fill-rule:nonzero;stroke:none;stroke-width:0;marker:none;enable-background:accumulate"
         d="m 422,122 c -2.2333,0 -4,-1.7667 -4,-4 v -1 c 0,2.2333 1.7667,4 4,4 h 12 c 2.2333,0 4,-1.7667 4,-4 v 1 c 0,2.2333 -1.7667,4 -4,4 z"
         id="path4302"
         inkscape:connector-curvature="0" />
      <path
         style="color:#bebebe;display:inline;overflow:visible;visibility:visible;opacity:0.1;fill:#ffffff;fill-opacity:1;fill-rule:nonzero;stroke:none;stroke-width:0;marker:none;enable-background:accumulate"
         d="m 419,154.5 c -1.1253,0 -2,-0.8747 -2,-2 v -1 c 0,1.1253 0.8747,2 2,2 h 10 c 1.1253,0 2,-0.8747 2,-2 v 1 c 0,1.1253 -0.8747,2 -2,2 z"
         id="path4304"
         inkscape:connector-curvature="0" />
    </g>
    <g
       inkscape:groupmode="layer"
       id="layer3"
       inkscape:label="Border"
       style="display:inline"
       sodipodi:insensitive="true">
      <path
         style="color:#bebebe;display:inline;overflow:visible;visibility:visible;opacity:0.41;fill:#000000;fill-opacity:1;fill-rule:nonzero;stroke:none;stroke-width:0;marker:none;enable-background:accumulate"
         d="m 422,101 c -2.77,0 -5,2.23 -5,5 v 12 c 0,2.77 2.23,5 5,5 h 12 c 2.77,0 5,-2.23 5,-5 v -12 c 0,-2.77 -2.23,-5 -5,-5 z m 0,1 h 12 c 2.2333,0 4,1.7667 4,4 v 12 c 0,2.2333 -1.7667,4 -4,4 h -12 c -2.2333,0 -4,-1.7667 -4,-4 v -12 c 0,-2.2333 1.7667,-4 4,-4 z"
         id="rect4099"
         inkscape:connector-curvature="0" />
      <path
         style="color:#bebebe;display:inline;overflow:visible;visibility:visible;opacity:0.41;fill:#000000;fill-opacity:1;fill-rule:nonzero;stroke:none;stroke-width:0;marker:none;enable-background:accumulate"
         d="m 424,53 c -3.878,0 -7,3.122 -7,7 v 16 c 0,3.878 3.122,7 7,7 h 16 c 3.878,0 7,-3.122 7,-7 V 60 c 0,-3.878 -3.122,-7 -7,-7 z m 0,1 h 16 c 3.3413,0 6,2.658703 6,6 v 16 c 0,3.341297 -2.6587,6 -6,6 h -16 c -3.3413,0 -6,-2.658703 -6,-6 V 60 c 0,-3.341297 2.6587,-6 6,-6 z"
         id="rect4151"
         inkscape:connector-curvature="0" />
      <path
         style="color:#bebebe;display:inline;overflow:visible;visibility:visible;opacity:0.41;fill:#000000;fill-opacity:1;fill-rule:nonzero;stroke:none;stroke-width:0;marker:none;enable-background:accumulate"
         d="m 419,140 c -1.662,0 -3,1.338 -3,3 v 10 c 0,1.662 1.338,3 3,3 h 10 c 1.662,0 3,-1.338 3,-3 v -10 c 0,-1.662 -1.338,-3 -3,-3 z m 0,1 h 10 c 1.1253,0 2,0.8747 2,2 v 10 c 0,1.1253 -0.8747,2 -2,2 h -10 c -1.1253,0 -2,-0.8747 -2,-2 v -10 c 0,-1.1253 0.8747,-2 2,-2 z"
         id="rect4095"
         inkscape:connector-curvature="0" />
      <path
         style="color:#bebebe;display:inline;overflow:visible;visibility:visible;opacity:0.41;fill:#000000;fill-opacity:1;fill-rule:nonzero;stroke:none;stroke-width:0;marker:none;enable-background:accumulate"
         d="m 300,223 c -4.986,0 -9,4.014 -9,9 v 24 c 0,4.986 4.014,9 9,9 h 24 c 4.986,0 9,-4.014 9,-9 v -24 c 0,-4.986 -4.014,-9 -9,-9 z m 0,1 h 24 c 4.4493,0 8,3.5507 8,8 v 24 c 0,4.4493 -3.5507,8 -8,8 h -24 c -4.4493,0 -8,-3.5507 -8,-8 v -24 c 0,-4.4493 3.5507,-8 8,-8 z"
         id="rect4783"
         inkscape:connector-curvature="0" />
      <path
         style="color:#bebebe;display:inline;overflow:visible;visibility:visible;opacity:0.41;fill:#000000;fill-opacity:1;fill-rule:nonzero;stroke:none;stroke-width:0;marker:none;enable-background:accumulate"
         d="m 302.5,142 c -6.925,0 -12.5,5.575 -12.5,12.5 v 35 c 0,6.925 5.575,12.5 12.5,12.5 h 35 c 6.925,0 12.5,-5.575 12.5,-12.5 v -35 c 0,-6.925 -5.575,-12.5 -12.5,-12.5 z m 0,1 h 35 c 6.3883,0 11.5,5.1117 11.5,11.5 v 35 c 0,6.3883 -5.1117,11.5 -11.5,11.5 h -35 c -6.3883,0 -11.5,-5.1117 -11.5,-11.5 v -35 c 0,-6.3883 5.1117,-11.5 11.5,-11.5 z"
         id="rect4515"
         inkscape:connector-curvature="0" />
      <path
         style="color:#bebebe;display:inline;overflow:visible;visibility:visible;opacity:0.41;fill:#000000;fill-opacity:1;fill-rule:nonzero;stroke:none;stroke-width:0;marker:none;enable-background:accumulate"
         d="m 310,32 c -9.972,0 -18,8.028 -18,18 v 52 c 0,9.972 8.028,18 18,18 h 52 c 9.972,0 18,-8.028 18,-18 V 50 c 0,-9.972 -8.028,-18 -18,-18 z m 0,1 h 52 c 9.4353,0 17,7.564703 17,17 v 52 c 0,9.4353 -7.5647,17 -17,17 h -52 c -9.4353,0 -17,-7.5647 -17,-17 V 50 c 0,-9.435297 7.5647,-17 17,-17 z"
         id="rect4511"
         inkscape:connector-curvature="0" />
      <path
         style="color:#bebebe;display:inline;overflow:visible;visibility:visible;opacity:0.41;fill:#000000;fill-opacity:1;fill-rule:nonzero;stroke:none;stroke-width:0;marker:none;enable-background:accumulate"
         d="M 84,46 C 56.3,46 34,68.3 34,96 v 120 c 0,27.7 22.3,50 50,50 h 120 c 27.7,0 50,-22.3 50,-50 V 96 C 254,68.3 231.7,46 204,46 Z m 0,1 h 120 c 27.1633,0 49,21.836703 49,49 v 120 c 0,27.1633 -21.8367,49 -49,49 H 84 C 56.836703,265 35,243.1633 35,216 V 96 C 35,68.836703 56.836703,47 84,47 Z"
         id="rect4040"
         inkscape:connector-curvature="0" />
    </g>
  </g>
</svg>
