<?xml version="1.0" encoding="UTF-8" standalone="no"?>
<svg
   xmlns:dc="http://purl.org/dc/elements/1.1/"
   xmlns:cc="http://creativecommons.org/ns#"
   xmlns:rdf="http://www.w3.org/1999/02/22-rdf-syntax-ns#"
   xmlns:svg="http://www.w3.org/2000/svg"
   xmlns="http://www.w3.org/2000/svg"
   xmlns:xlink="http://www.w3.org/1999/xlink"
   xmlns:sodipodi="http://sodipodi.sourceforge.net/DTD/sodipodi-0.dtd"
   xmlns:inkscape="http://www.inkscape.org/namespaces/inkscape"
   inkscape:export-ydpi="90.000000"
   inkscape:export-xdpi="90.000000"
   width="480"
   height="300"
   id="svg11300"
   sodipodi:version="0.32"
   inkscape:version="1.0.2 (e86c870, 2021-01-15)"
   sodipodi:docname="retroarch.svg"
   inkscape:output_extension="org.inkscape.output.svg.inkscape"
   version="1.0"
   style="display:inline;enable-background:new"
   inkscape:export-filename="/home/sam/moka-next-template.png">
  <sodipodi:namedview
     stroke="#ef2929"
     fill="#f57900"
     id="base"
     pagecolor="#777777"
     bordercolor="#666666"
     borderopacity="0.25490196"
     inkscape:pageopacity="0"
     inkscape:pageshadow="2"
     inkscape:zoom="1.4142136"
     inkscape:cx="421.21136"
     inkscape:cy="133.39132"
     inkscape:current-layer="layer6"
     showgrid="false"
     inkscape:grid-bbox="true"
     inkscape:document-units="px"
     inkscape:showpageshadow="false"
     inkscape:window-width="1366"
     inkscape:window-height="703"
     inkscape:window-x="0"
     inkscape:window-y="0"
     width="400px"
     height="300px"
     inkscape:snap-nodes="true"
     inkscape:snap-bbox="true"
     gridtolerance="10000"
     inkscape:object-nodes="true"
     inkscape:snap-grids="true"
     showguides="true"
     inkscape:guide-bbox="true"
     inkscape:window-maximized="1"
     inkscape:bbox-nodes="true"
     inkscape:bbox-paths="true"
     inkscape:snap-bbox-edge-midpoints="true"
     inkscape:snap-bbox-midpoints="true"
     inkscape:document-rotation="0">
    <inkscape:grid
       spacingy="1px"
       spacingx="1px"
       id="grid5883"
       type="xygrid"
       enabled="true"
       visible="true"
       empspacing="4"
       snapvisiblegridlinesonly="true"
       dotted="false"
       color="#000000"
       opacity="0.1254902"
       empcolor="#203ef3"
       empopacity="0.36470588" />
    <inkscape:grid
       type="xygrid"
       id="grid11592"
       empspacing="8"
       visible="true"
       enabled="false"
       spacingx="0.5px"
       spacingy="0.5px"
       color="#ff0000"
       opacity="0.1254902"
       empcolor="#ff0000"
       empopacity="0.25098039"
       snapvisiblegridlinesonly="true"
       dotted="true" />
  </sodipodi:namedview>
  <defs
     id="defs3">
    <linearGradient
       inkscape:collect="always"
       xlink:href="#outerBackgroundGradient-16"
       id="linearGradient4254"
       x1="35"
       y1="156"
       x2="253"
       y2="156"
       gradientUnits="userSpaceOnUse"
       gradientTransform="matrix(0,-1,1,0,-12,300)" />
    <linearGradient
       inkscape:collect="always"
       xlink:href="#outerBackgroundGradient-16"
       id="linearGradient4256"
       x1="417"
       y1="148"
       x2="431"
       y2="148"
       gradientUnits="userSpaceOnUse"
       gradientTransform="matrix(0,-1,1,0,276,572)" />
    <linearGradient
       inkscape:collect="always"
       xlink:href="#outerBackgroundGradient-16"
       id="linearGradient4260"
       x1="418"
       y1="68"
       x2="446"
       y2="68"
       gradientUnits="userSpaceOnUse"
       gradientTransform="matrix(0,-1,1,0,364,500)" />
    <linearGradient
       inkscape:collect="always"
       xlink:href="#outerBackgroundGradient-16"
       id="linearGradient4262"
       x1="292"
       y1="244"
       x2="332"
       y2="244"
       gradientUnits="userSpaceOnUse"
       gradientTransform="matrix(0,-1,1,0,68,556)" />
    <linearGradient
       inkscape:collect="always"
       xlink:href="#outerBackgroundGradient-16"
       id="linearGradient4264"
       x1="293"
       y1="76"
       x2="379"
       y2="76"
       gradientUnits="userSpaceOnUse"
       gradientTransform="matrix(0,-1,1,0,260,412)" />
    <linearGradient
       inkscape:collect="always"
       xlink:href="#outerBackgroundGradient-16"
       id="linearGradient4266"
       x1="291"
       y1="172"
       x2="349"
       y2="172"
       gradientUnits="userSpaceOnUse"
       gradientTransform="matrix(0,-1,1,0,148,492)" />
    <linearGradient
       inkscape:collect="always"
       xlink:href="#outerBackgroundGradient-16"
       id="linearGradient3870"
       gradientUnits="userSpaceOnUse"
       gradientTransform="matrix(0,-1,1,0,316,540)"
       x1="418"
       y1="112"
       x2="438"
       y2="112" />
    <linearGradient
       id="outerBackgroundGradient-16">
      <stop
         style="stop-color:#333333;stop-opacity:1;"
         offset="0"
         id="stop3864-8-6-5" />
      <stop
         style="stop-color:#595959;stop-opacity:1;"
         offset="1"
         id="stop3866-9-1-1" />
    </linearGradient>
  </defs>
  <metadata
     id="metadata4">
    <rdf:RDF>
      <cc:Work
         rdf:about="">
        <dc:format>image/svg+xml</dc:format>
        <dc:type
           rdf:resource="http://purl.org/dc/dcmitype/StillImage" />
        <dc:creator>
          <cc:Agent>
            <dc:title>Sam Hewitt</dc:title>
          </cc:Agent>
        </dc:creator>
        <dc:source />
        <cc:license
           rdf:resource="" />
        <dc:title />
        <dc:subject>
          <rdf:Bag />
        </dc:subject>
        <dc:date />
        <dc:rights>
          <cc:Agent>
            <dc:title />
          </cc:Agent>
        </dc:rights>
        <dc:publisher>
          <cc:Agent>
            <dc:title />
          </cc:Agent>
        </dc:publisher>
        <dc:identifier />
        <dc:relation />
        <dc:language />
        <dc:coverage />
        <dc:description />
        <dc:contributor>
          <cc:Agent>
            <dc:title />
          </cc:Agent>
        </dc:contributor>
      </cc:Work>
      <cc:Work
         rdf:about="">
        <dc:format>image/svg+xml</dc:format>
        <dc:type
           rdf:resource="http://purl.org/dc/dcmitype/StillImage" />
      </cc:Work>
    </rdf:RDF>
  </metadata>
  <g
     style="display:inline"
     inkscape:groupmode="layer"
     inkscape:label="Icon"
     id="layer1">
    <g
       style="display:none"
       inkscape:label="Baseplate"
       id="layer7"
       inkscape:groupmode="layer">
      <text
         y="19.745117"
         xml:space="preserve"
         x="15.006836"
         style="font-style:normal;font-variant:normal;font-weight:normal;font-stretch:normal;line-height:0%;font-family:'DejaVu Sans';-inkscape-font-specification:'DejaVu Sans';display:inline;fill:#000000;fill-opacity:1;stroke:none;enable-background:new"
         inkscape:label="context"
         id="context"><tspan
           style="font-style:normal;font-variant:normal;font-weight:normal;font-stretch:normal;font-size:18px;line-height:1.25;font-family:'DejaVu Sans';-inkscape-font-specification:'DejaVu Sans'"
           y="19.745117"
           x="15.006836"
           sodipodi:role="line"
           id="tspan3933">apps</tspan></text>
      <text
         y="19.745117"
         xml:space="preserve"
         x="122.48828"
         style="font-style:normal;font-variant:normal;font-weight:bold;font-stretch:normal;line-height:0%;font-family:'DejaVu Sans';-inkscape-font-specification:'DejaVu Sans Bold';text-align:start;writing-mode:lr-tb;text-anchor:start;display:inline;fill:#000000;fill-opacity:1;stroke:none;enable-background:new"
         inkscape:label="icon-name"
         id="icon-name"><tspan
           style="font-style:normal;font-variant:normal;font-weight:bold;font-stretch:normal;font-size:18px;line-height:1.25;font-family:'DejaVu Sans';-inkscape-font-specification:'DejaVu Sans Bold'"
           y="19.745117"
           x="122.48828"
           sodipodi:role="line"
           id="tspan3937">retroarch</tspan></text>
      <rect
         style="display:inline;overflow:visible;visibility:visible;fill:#eeeeec;fill-opacity:1;fill-rule:nonzero;stroke:none;stroke-width:2;marker:none;enable-background:accumulate"
         id="rect16x16"
         width="16"
         height="16"
         x="416"
         y="140"
         inkscape:label="16x16" />
      <rect
         style="display:inline;overflow:visible;visibility:visible;fill:#d4d4d4;fill-opacity:1;fill-rule:nonzero;stroke:none;stroke-width:2;marker:none;enable-background:accumulate"
         id="rect24x24"
         width="24"
         height="24"
         x="416"
         y="100"
         inkscape:label="24x24" />
      <rect
         style="display:inline;overflow:visible;visibility:visible;fill:#eeeeec;fill-opacity:1;fill-rule:nonzero;stroke:none;stroke-width:2;marker:none;enable-background:accumulate"
         id="rect32x32"
         width="32"
         height="32"
         x="416"
         y="52"
         inkscape:label="32x32" />
      <rect
         inkscape:label="22x22"
         y="101"
         x="417"
         height="22"
         width="22"
         id="rect22x22"
         style="display:inline;overflow:visible;visibility:visible;fill:#eeeeec;fill-opacity:1;fill-rule:nonzero;stroke:none;stroke-width:2;marker:none;enable-background:accumulate" />
      <rect
         inkscape:label="48x48"
         y="220"
         x="288"
         height="48"
         width="48"
         id="rect48x48"
         style="display:inline;overflow:visible;visibility:visible;fill:#eeeeec;fill-opacity:1;fill-rule:nonzero;stroke:none;stroke-width:2;marker:none;enable-background:accumulate" />
      <rect
         style="display:inline;overflow:visible;visibility:visible;fill:#eeeeec;fill-opacity:1;fill-rule:nonzero;stroke:none;stroke-width:2;marker:none;enable-background:accumulate"
         id="rect256x256"
         width="256"
         height="256"
         x="16"
         y="28"
         inkscape:label="256x256" />
      <rect
         style="display:inline;overflow:visible;visibility:visible;fill:#eeeeec;fill-opacity:1;fill-rule:nonzero;stroke:none;stroke-width:2;marker:none;enable-background:accumulate"
         id="rect64x64"
         width="64"
         height="64"
         x="288"
         y="140"
         inkscape:label="64x64" />
      <rect
         style="display:inline;overflow:visible;visibility:visible;fill:#eeeeec;fill-opacity:1;fill-rule:nonzero;stroke:none;stroke-width:2;marker:none;enable-background:accumulate"
         id="rect96x96"
         width="96"
         height="96"
         x="288"
         y="28"
         inkscape:label="96x96" />
    </g>
    <g
       inkscape:groupmode="layer"
       id="layer4"
       inkscape:label="Shadow"
       style="display:inline"
       sodipodi:insensitive="true">
      <rect
         ry="50"
         y="47"
         x="34"
         height="220"
         width="220"
         id="rect4114"
         style="color:#bebebe;display:inline;overflow:visible;visibility:visible;opacity:0.1;fill:#000000;fill-opacity:1;fill-rule:nonzero;stroke:none;stroke-width:0;marker:none;enable-background:accumulate" />
      <rect
         style="color:#bebebe;display:inline;overflow:visible;visibility:visible;opacity:0.1;fill:#000000;fill-opacity:1;fill-rule:nonzero;stroke:none;stroke-width:0;marker:none;enable-background:accumulate"
         id="rect4120"
         width="30"
         height="30"
         x="417"
         y="54"
         ry="7" />
      <rect
         transform="scale(1,-1)"
         ry="9"
         y="-266"
         x="291"
         height="42"
         width="42"
         id="rect4122"
         style="color:#bebebe;display:inline;overflow:visible;visibility:visible;opacity:0.1;fill:#000000;fill-opacity:1;fill-rule:nonzero;stroke:none;stroke-width:0;marker:none;enable-background:accumulate" />
      <rect
         style="color:#bebebe;display:inline;overflow:visible;visibility:visible;opacity:0.1;fill:#000000;fill-opacity:1;fill-rule:nonzero;stroke:none;stroke-width:0;marker:none;enable-background:accumulate"
         id="rect4124"
         width="88"
         height="88"
         x="292"
         y="33"
         ry="18" />
      <rect
         ry="12.5"
         y="143"
         x="290"
         height="60"
         width="60"
         id="rect4126"
         style="color:#bebebe;display:inline;overflow:visible;visibility:visible;opacity:0.1;fill:#000000;fill-opacity:1;fill-rule:nonzero;stroke:none;stroke-width:0;marker:none;enable-background:accumulate" />
      <path
         id="path4268"
         d="m 422,101 c -2.77,0 -5,2.23 -5,5 v 12 c 0,2.77 2.23,5 5,5 h 12 c 2.77,0 5,-2.23 5,-5 v -12 c 0,-2.77 -2.23,-5 -5,-5 z"
         style="color:#bebebe;display:inline;overflow:visible;visibility:visible;opacity:0.1;fill:#000000;fill-opacity:1;fill-rule:nonzero;stroke:none;stroke-width:0;marker:none;enable-background:accumulate"
         inkscape:connector-curvature="0"
         sodipodi:nodetypes="sssssssss" />
      <path
         id="path4270"
         d="m 419,140 c -1.662,0 -3,1.338 -3,3 v 10 c 0,1.662 1.338,3 3,3 h 10 c 1.662,0 3,-1.338 3,-3 v -10 c 0,-1.662 -1.338,-3 -3,-3 z"
         style="color:#bebebe;display:inline;overflow:visible;visibility:visible;opacity:0.1;fill:#000000;fill-opacity:1;fill-rule:nonzero;stroke:none;stroke-width:0;marker:none;enable-background:accumulate"
         inkscape:connector-curvature="0"
         sodipodi:nodetypes="sssssssss" />
    </g>
    <g
       inkscape:groupmode="layer"
       id="layer2"
       inkscape:label="Background"
       style="display:inline">
      <path
         style="color:#bebebe;display:inline;overflow:visible;visibility:visible;fill:url(#linearGradient4254);fill-opacity:1;fill-rule:nonzero;stroke:none;stroke-width:2;marker:none;enable-background:accumulate"
         d="M 84,46.5 C 56.568735,46.5 34.5,68.568732 34.5,96 v 120 c 0,27.43127 22.068735,49.5 49.5,49.5 h 120 c 27.43127,0 49.5,-22.06873 49.5,-49.5 V 96 C 253.5,68.568732 231.43127,46.5 204,46.5 Z"
         id="path4200" />
      <path
         style="color:#bebebe;display:inline;overflow:visible;visibility:visible;fill:url(#linearGradient4256);fill-opacity:1;fill-rule:nonzero;stroke:none;stroke-width:2;marker:none;enable-background:accumulate"
         d="m 419,140.5 c -1.3844,0 -2.5,1.1156 -2.5,2.5 v 10 c 0,1.3844 1.1156,2.5 2.5,2.5 h 10 c 1.3844,0 2.5,-1.1156 2.5,-2.5 v -10 c 0,-1.3844 -1.1156,-2.5 -2.5,-2.5 z"
         id="path4202" />
      <path
         style="color:#bebebe;display:inline;overflow:visible;visibility:visible;fill:url(#linearGradient3870);fill-opacity:1;fill-rule:nonzero;stroke:none;stroke-width:2;marker:none;enable-background:accumulate"
         d="m 422,101.5 c -2.49699,0 -4.5,2.00301 -4.5,4.5 v 12 c 0,2.49699 2.00301,4.5 4.5,4.5 h 12 c 2.49699,0 4.5,-2.00301 4.5,-4.5 v -12 c 0,-2.49699 -2.00301,-4.5 -4.5,-4.5 z"
         id="path4204" />
      <path
         style="color:#bebebe;display:inline;overflow:visible;visibility:visible;fill:url(#linearGradient4260);fill-opacity:1;fill-rule:nonzero;stroke:none;stroke-width:2;marker:none;enable-background:accumulate"
         d="m 424,53.5 c -3.60654,0 -6.5,2.893464 -6.5,6.5 v 16 c 0,3.606536 2.89346,6.5 6.5,6.5 h 16 c 3.60654,0 6.5,-2.893464 6.5,-6.5 V 60 c 0,-3.606536 -2.89346,-6.5 -6.5,-6.5 z"
         id="path4206" />
      <path
         style="color:#bebebe;display:inline;overflow:visible;visibility:visible;fill:url(#linearGradient4262);fill-opacity:1;fill-rule:nonzero;stroke:none;stroke-width:2;marker:none;enable-background:accumulate"
         d="m 300,223.5 c -4.71531,0 -8.5,3.78469 -8.5,8.5 v 24 c 0,4.71531 3.78469,8.5 8.5,8.5 h 24 c 4.71531,0 8.5,-3.78469 8.5,-8.5 v -24 c 0,-4.71531 -3.78469,-8.5 -8.5,-8.5 z"
         id="path4208" />
      <path
         style="color:#bebebe;display:inline;overflow:visible;visibility:visible;fill:url(#linearGradient4264);fill-opacity:1;fill-rule:nonzero;stroke:none;stroke-width:2;marker:none;enable-background:accumulate"
         d="m 310,32.5 c -9.70255,0 -17.5,7.797452 -17.5,17.5 v 52 c 0,9.70255 7.79745,17.5 17.5,17.5 h 52 c 9.70255,0 17.5,-7.79745 17.5,-17.5 V 50 c 0,-9.702548 -7.79745,-17.5 -17.5,-17.5 z"
         id="path4210" />
      <path
         style="color:#bebebe;display:inline;overflow:visible;visibility:visible;fill:url(#linearGradient4266);fill-opacity:1;fill-rule:nonzero;stroke:none;stroke-width:2;marker:none;enable-background:accumulate"
         d="m 302.5,142.5 c -6.65502,0 -12,5.34498 -12,12 v 35 c 0,6.65502 5.34498,12 12,12 h 35 c 6.65502,0 12,-5.34498 12,-12 v -35 c 0,-6.65502 -5.34498,-12 -12,-12 z"
         id="path4212" />
    </g>
    <g
       inkscape:groupmode="layer"
       id="layer6"
       inkscape:label="Symbols"
       style="display:inline">
      <path
         id="path4301"
         style="color:#000000;display:inline;overflow:visible;visibility:visible;opacity:0.2;fill:#000000;fill-opacity:1;fill-rule:nonzero;stroke:none;stroke-width:1.00139;marker:none;enable-background:accumulate"
         d="m 311.25589,161.716 0.0625,0.084 c 0.0334,0.0458 0.68544,0.85358 1.45117,1.79492 l 1.39258,1.71094 -3.22851,0.0156 -3.22852,0.0156 -0.6543,2.61914 c -0.36044,1.44117 -0.66613,2.65732 -0.67773,2.70312 l -0.0215,0.084 h -2.27147 c -1.24925,0 -2.26985,-0.004 -2.26953,-0.008 4.9e-4,-0.004 0.30539,-1.22396 0.67773,-2.71094 l 0.67774,-2.70313 h -1.3418 -1.33984 l -1.24219,4.9668 -1.24219,4.96875 h 3.61328 3.61133 l -0.44922,1.79492 c -0.24741,0.98716 -0.45086,1.79874 -0.45117,1.80274 -4.8e-4,0.004 1.51427,0.01 3.36524,0.0137 l 3.36523,0.008 -2.36523,2.70508 -2.36719,2.70312 2.05273,-0.002 2.05274,-0.002 2.19531,-2.70899 2.19726,-2.70898 h 5.17969 5.17969 l 2.19727,2.70898 2.19531,2.70899 2.05273,0.002 2.05274,0.002 -2.36524,-2.70312 -2.36719,-2.70508 3.36524,-0.008 c 1.85097,-0.004 3.36555,-0.01 3.36523,-0.0137 -4.8e-4,-0.004 -0.20376,-0.81558 -0.45117,-1.80274 l -0.44922,-1.79492 h 3.61328 3.61133 l -1.24219,-4.96875 -1.24218,-4.9668 h -1.33985 -1.33984 l 0.67578,2.70313 c 0.37233,1.48698 0.67741,2.70694 0.67774,2.71094 4.7e-4,0.005 -1.02029,0.008 -2.26954,0.008 h -2.27148 l -0.0215,-0.084 c -0.0116,-0.0458 -0.31535,-1.26195 -0.67579,-2.70312 l -0.65625,-2.61914 -3.22851,-0.0156 -3.22852,-0.0156 1.39258,-1.71094 c 0.76573,-0.94134 1.41983,-1.74913 1.45313,-1.79492 l 0.0605,-0.084 h -1.33398 -1.33594 l -1.57812,1.80274 -1.57618,1.80273 h -2.91992 -2.91797 l -1.57812,-1.80273 -1.57813,-1.80274 h -1.33398 z m 13.93945,6.30078 2.26368,0.008 2.26562,0.008 v 2.25586 2.25586 l -2.26562,0.008 -2.26368,0.01 v -2.27344 z m -14.91796,0.0156 h 2.27148 2.27148 v 2.25586 2.25781 l -2.26562,0.008 c -1.79614,0.006 -2.2678,-10e-4 -2.2793,-0.0312 -0.008,-0.0209 -0.0116,-1.0391 -0.008,-2.26367 z"
         sodipodi:nodetypes="cccccccccsccccccccccccccccccccccccccccccccccccccssccccccccccccccccccccccccccccccccccscc" />
      <path
         id="path4303"
         style="color:#000000;display:inline;overflow:visible;visibility:visible;opacity:0.2;fill:#000000;fill-opacity:1;fill-rule:nonzero;stroke:none;stroke-width:1.00139;marker:none;enable-background:accumulate"
         d="m 427.62881,63.358 0.0293,0.04102 c 0.0167,0.0229 0.34369,0.427767 0.72656,0.898438 l 0.69727,0.855469 -1.61524,0.0078 -1.61328,0.0078 -0.32812,1.308594 c -0.18022,0.720583 -0.33208,1.330607 -0.33789,1.353515 l -0.0117,0.04102 h -1.13477 c -0.62462,0 -1.13493,-0.0019 -1.13477,-0.0039 3.2e-4,-0.0021 0.15173,-0.611975 0.3379,-1.355468 l 0.33984,-1.351563 h -0.67188 -0.66992 l -0.62109,2.484375 -0.62109,2.482422 h 1.80664 1.80664 l -0.22461,0.898438 c -0.1237,0.493577 -0.22641,0.898341 -0.22657,0.90039 -3.2e-4,0.002 0.75812,0.0056 1.6836,0.0078 l 1.68164,0.0039 -1.1836,1.351563 -1.18164,1.351562 h 1.0254 l 1.02734,-0.002 1.09766,-1.353516 1.09765,-1.355469 h 2.58985 2.58984 l 1.09766,1.355469 1.0996,1.353516 1.0254,0.002 h 1.02734 l -1.1836,-1.351562 -1.18359,-1.351563 1.68359,-0.0039 c 0.92548,-0.0021 1.68181,-0.0057 1.68165,-0.0078 -3.2e-4,-0.002 -0.10091,-0.406812 -0.22461,-0.90039 l -0.22657,-0.898438 h 1.80664 1.80665 l -0.6211,-2.482422 -0.62109,-2.484375 h -0.66992 -0.66993 l 0.33789,1.351563 c 0.18617,0.743493 0.33969,1.353387 0.33985,1.355468 3.1e-4,0.0022 -0.51014,0.0039 -1.13477,0.0039 h -1.13672 l -0.01,-0.04102 c -0.006,-0.02291 -0.15963,-0.632932 -0.33985,-1.353515 l -0.32617,-1.308594 -1.61523,-0.0078 -1.61328,-0.0078 0.69531,-0.855469 c 0.38286,-0.470671 0.70989,-0.875532 0.72656,-0.898438 l 0.0293,-0.04102 h -0.66602 -0.66797 l -0.78906,0.900391 -0.78906,0.902343 h -1.45898 -1.45899 L 429.75164,64.258391 428.96258,63.358 h -0.66797 z m 6.96875,3.150391 1.13281,0.0039 1.13086,0.0039 v 1.128906 1.126953 l -1.13086,0.0039 -1.13281,0.0039 v -1.134766 z m -7.45898,0.0078 h 1.13672 1.13476 v 1.128906 1.126953 l -1.13281,0.0039 c -0.89807,0.0031 -1.13291,0.0014 -1.13867,-0.01367 -0.004,-0.01046 -0.007,-0.520526 -0.004,-1.132813 z"
         sodipodi:nodetypes="cccccccccscccccccccccccccccccccccccccscccccccccccscccccccccccccccccccccccccccccccccsscc" />
      <path
         id="path4305"
         style="color:#000000;display:inline;overflow:visible;visibility:visible;opacity:0.2;fill:#000000;fill-opacity:1;fill-rule:nonzero;stroke:none;stroke-width:1.00139;marker:none;enable-background:accumulate"
         d="m 421.6154,145.922 0.0156,0.0234 c 0.009,0.0125 0.18767,0.2335 0.39649,0.49024 l 0.38086,0.46679 -0.88086,0.004 -0.88086,0.004 -0.17969,0.71485 c -0.0983,0.39304 -0.18059,0.72383 -0.18359,0.73633 l -0.006,0.0234 h -0.61914 c -0.34071,0 -0.61923,-9e-4 -0.61914,-0.002 1.3e-4,-0.001 0.0821,-0.33469 0.18359,-0.74023 l 0.18555,-0.73633 h -0.36524 -0.36719 l -0.33789,1.35351 L 418,149.61543 h 0.98438 0.98437 l -0.12109,0.49024 c -0.0675,0.26923 -0.12297,0.48923 -0.12305,0.49023 -1.3e-4,0.001 0.41316,0.003 0.91797,0.004 l 0.91602,0.002 -0.64453,0.73828 -0.64454,0.73828 0.56055,-0.002 h 0.55859 l 0.59961,-0.73828 0.59961,-0.74024 H 424 h 1.41211 l 0.59961,0.74024 0.59961,0.73828 h 0.55859 l 0.56055,0.002 -0.64648,-0.73828 -0.64453,-0.73828 0.91796,-0.002 c 0.50481,-0.001 0.91806,-0.003 0.91797,-0.004 -1.3e-4,-0.001 -0.0555,-0.221 -0.12304,-0.49023 l -0.12305,-0.49024 H 429.01367 430 l -0.33984,-1.35547 -0.33789,-1.35351 h -0.36524 -0.36523 l 0.18359,0.73633 c 0.10157,0.40554 0.18546,0.73922 0.18555,0.74023 1.3e-4,10e-4 -0.27844,0.002 -0.61914,0.002 h -0.61914 l -0.006,-0.0234 c -0.003,-0.0125 -0.0872,-0.34329 -0.18555,-0.73633 l -0.17773,-0.71485 -0.88086,-0.004 -0.88086,-0.004 0.37891,-0.46679 c 0.20884,-0.25674 0.38748,-0.47775 0.39648,-0.49024 l 0.0176,-0.0234 h -0.36524 -0.36328 l -0.42968,0.49219 -0.43165,0.49219 h -0.79492 -0.79687 l -0.42969,-0.49219 -0.42969,-0.49219 h -0.36523 z m 3.80078,1.71875 0.61719,0.002 0.61718,0.002 v 0.61523 0.61719 l -0.61718,0.002 -0.61719,0.002 v -0.6211 z m -4.06836,0.004 h 0.61914 0.61914 v 0.61523 0.61524 l -0.61719,0.002 c -0.48986,0.002 -0.61809,3.7e-4 -0.62109,-0.008 -0.002,-0.006 -0.003,-0.28321 -0.002,-0.61719 z"
         sodipodi:nodetypes="cccccccccsscccccccccscccccccccccccccccssccccccccssccccccccccccccccccccccccccccccccccccc" />
      <path
         id="path4307"
         style="color:#000000;display:inline;overflow:visible;visibility:visible;opacity:0.2;fill:#000000;fill-opacity:1;fill-rule:nonzero;stroke:none;stroke-width:1.00139;marker:none;enable-background:accumulate"
         d="m 424.82056,108.897 0.0234,0.0293 c 0.0121,0.0167 0.2489,0.31005 0.52735,0.65235 l 0.50586,0.62305 -1.17383,0.006 -1.17383,0.004 -0.23828,0.95313 c -0.13106,0.52406 -0.24209,0.96572 -0.2461,0.98242 l -0.008,0.0312 h -0.82617 c -0.45427,0 -0.82628,-0.002 -0.82617,-0.004 1.8e-4,-0.002 0.11266,-0.4456 0.24805,-0.98633 l 0.24609,-0.98242 h -0.48828 -0.48633 l -0.45312,1.80664 -0.45118,1.80664 h 1.31446 1.3125 l -0.16407,0.65235 c -0.09,0.35897 -0.16199,0.65524 -0.16211,0.65625 -1.7e-4,9.9e-4 0.54958,0.002 1.22266,0.004 l 1.22461,0.004 -0.86133,0.98242 -0.85937,0.98438 0.74609,-0.002 h 0.74609 l 0.79883,-0.98437 0.79883,-0.98633 h 1.88281 1.88477 l 0.79883,0.98633 0.79882,0.98437 h 0.7461 l 0.74609,0.002 -0.86133,-0.98438 -0.85937,-0.98242 1.22266,-0.004 c 0.67308,-0.001 1.22471,-0.003 1.22461,-0.004 -1.9e-4,-10e-4 -0.0741,-0.29729 -0.16407,-0.65625 l -0.16406,-0.65235 h 1.31445 1.3125 l -0.45117,-1.80664 -0.45117,-1.80664 h -0.48828 -0.48633 l 0.24609,0.98242 c 0.1354,0.54073 0.24598,0.98433 0.2461,0.98633 1.7e-4,0.002 -0.3719,0.004 -0.82617,0.004 h -0.82618 l -0.008,-0.0312 c -0.004,-0.0167 -0.11502,-0.45836 -0.24609,-0.98242 l -0.23828,-0.95313 -1.17383,-0.004 -1.17383,-0.006 0.50586,-0.62305 c 0.27844,-0.3423 0.5172,-0.63565 0.5293,-0.65235 l 0.0215,-0.0293 h -0.48437 -0.48633 l -0.57422,0.65429 -0.57227,0.65625 h -1.0625 -1.06054 l -0.57422,-0.65625 -0.57422,-0.65429 h -0.48438 z m 5.06836,2.28906 0.82421,0.002 0.82227,0.004 v 0.82031 0.82031 l -0.82227,0.002 -0.82421,0.004 v -0.82617 z m -5.42383,0.006 h 0.82617 0.82617 v 0.82031 l -0.002,0.82031 -0.82227,0.004 c -0.65315,0.002 -0.82608,-7.4e-4 -0.83008,-0.0117 -0.002,-0.008 -0.004,-0.37892 -0.002,-0.82422 z"
         sodipodi:nodetypes="ccccccsccsscccccccccscccccccccccccccccsccccccccsssccccccccccccccccccccccccccccccccccccc" />
      <path
         id="path4309"
         style="color:#000000;display:inline;overflow:visible;visibility:visible;opacity:0.2;fill:#000000;fill-opacity:1;fill-rule:nonzero;stroke:none;stroke-width:1.00139;marker:none;enable-background:accumulate"
         d="m 306.0371,237.30642 0.041,0.0566 c 0.0227,0.0312 0.4701,0.58279 0.99219,1.22461 l 0.94921,1.16602 -2.20117,0.0117 -2.20117,0.01 -0.44727,1.78711 c -0.24575,0.98261 -0.453,1.81056 -0.46093,1.8418 l -0.0156,0.0566 h -1.54883 c -0.85176,0 -1.54709,-9.1e-4 -1.54687,-0.004 4.3e-4,-0.003 0.20708,-0.83576 0.46094,-1.84961 l 0.46289,-1.8418 h -0.91407 -0.91406 l -0.84765,3.38672 L 297,246.5389 h 2.46289 2.46289 l -0.30664,1.2246 c -0.16869,0.67307 -0.30838,1.22573 -0.30859,1.22852 -4.4e-4,0.003 1.0329,0.007 2.29492,0.01 l 2.29492,0.006 -1.61328,1.8418 -1.61328,1.84375 h 1.39844 l 1.40039,-0.002 1.49805,-1.84571 1.49609,-1.84765 H 312 h 3.53125 l 1.49805,1.84765 1.49609,1.84571 1.40039,0.002 h 1.39844 l -1.61328,-1.84375 -1.61328,-1.8418 2.29492,-0.006 c 1.26202,-0.003 2.29514,-0.007 2.29492,-0.01 -4.3e-4,-0.003 -0.13795,-0.55545 -0.30664,-1.22852 l -0.30664,-1.2246 H 324.53516 327 l -0.84765,-3.38673 -0.84766,-3.38672 h -0.91211 -0.91602 l 0.4629,1.8418 c 0.25386,1.01385 0.46267,1.84677 0.46289,1.84961 4.3e-4,0.003 -0.69707,0.004 -1.54883,0.004 h -1.54883 l -0.0137,-0.0566 c -0.008,-0.0312 -0.21714,-0.85919 -0.46289,-1.8418 l -0.44531,-1.78711 -2.20118,-0.01 -2.20117,-0.0117 0.94922,-1.16602 c 0.52208,-0.64182 0.96749,-1.19338 0.99023,-1.22461 l 0.041,-0.0566 h -0.91016 -0.91015 l -1.07617,1.22852 -1.07422,1.23046 h -1.99024 -1.99023 l -1.07617,-1.23046 -1.07618,-1.22852 h -0.91015 z m 9.50391,4.29688 1.54492,0.004 1.54297,0.006 v 1.53906 1.53711 l -1.54297,0.006 -1.54492,0.006 v -1.54883 z m -10.17188,0.01 h 1.54883 1.54883 v 1.53906 1.53907 l -1.54297,0.004 c -1.22464,0.004 -1.54683,0.001 -1.55469,-0.0195 -0.005,-0.0143 -0.009,-0.70998 -0.006,-1.54492 z"
         sodipodi:nodetypes="cccccccccscccccccccccccccccccccccccccccccccccccccsccccccccccccccccccccccccccccccccccccc" />
      <path
         id="path4311"
         style="color:#000000;display:inline;overflow:visible;visibility:visible;opacity:0.2;fill:#000000;fill-opacity:1;fill-rule:nonzero;stroke:none;stroke-width:1.00139;marker:none;enable-background:accumulate"
         d="m 322.88276,60.073 0.0918,0.125 c 0.05,0.0687 1.03109,1.281349 2.17969,2.693359 l 2.08789,2.566406 -4.8418,0.02344 -4.84375,0.02148 -0.98242,3.931641 c -0.54065,2.16175 -0.99819,3.985957 -1.01563,4.054687 l -0.0312,0.125 h -3.40625 c -1.87388,0 -3.40673,-0.0056 -3.40625,-0.01172 9.5e-4,-0.006 0.45908,-1.835926 1.01758,-4.066406 l 1.01563,-4.054688 h -2.01172 -2.01172 L 304.86328,72.932374 303,80.385499 h 5.41797 5.41797 l -0.67383,2.691407 c -0.37111,1.48073 -0.67531,2.696975 -0.67578,2.703125 -9.6e-4,0.006 2.27043,0.01714 5.04687,0.02344 l 5.04883,0.01172 -3.55078,4.054688 -3.54883,4.05664 3.08008,-0.0039 3.07812,-0.0039 3.29493,-4.0625 3.29296,-4.064454 H 336 h 7.76953 l 3.29492,4.064454 3.29297,4.0625 3.08008,0.0039 3.07812,0.0039 -3.54882,-4.05664 -3.54883,-4.054688 5.04883,-0.01172 c 2.77645,-0.006 5.04735,-0.01734 5.04687,-0.02344 -4.7e-4,-0.006 -0.30662,-1.222395 -0.67773,-2.703125 l -0.67383,-2.691407 H 363.58008 369 l -1.86328,-7.453125 -1.86328,-7.451172 h -2.00977 -2.01172 l 1.01563,4.054688 c 0.5585,2.23048 1.0171,4.060166 1.01758,4.066406 9.4e-4,0.007 -1.53238,0.01172 -3.40626,0.01172 h -3.4082 l -0.0312,-0.125 c -0.0174,-0.0687 -0.47302,-1.892937 -1.01367,-4.054687 l -0.98448,-3.931641 -4.84179,-0.02148 -4.84375,-0.02344 2.08789,-2.566406 c 1.14859,-1.412011 2.12966,-2.624638 2.17969,-2.693359 l 0.0918,-0.125 h -2.00195 -2.00195 l -2.36719,2.703125 -2.36719,2.705078 h -4.37695 -4.37891 l -2.36719,-2.705078 -2.36523,-2.703125 h -2.00195 z m 20.9082,9.451171 3.39649,0.01172 3.39648,0.01172 v 3.384766 3.384766 l -3.39648,0.01172 -3.39649,0.01172 v -3.408206 z m -22.37695,0.02344 h 3.4082 3.40625 v 3.384766 3.384766 l -3.39648,0.01172 c -2.69421,0.009 -3.40262,3.48e-4 -3.41992,-0.04492 -0.0119,-0.0314 -0.0163,-1.559615 -0.01,-3.396485 z"
         sodipodi:nodetypes="cccccccccsccccccccccccccccccccccccccccsccccccccccsccccccccccccccccccccccccccccccccccccc" />
      <path
         id="path4313"
         style="color:#000000;display:inline;overflow:visible;visibility:visible;opacity:0.2;fill:#000000;fill-opacity:1;fill-rule:nonzero;stroke:none;stroke-width:1.00139;marker:none;enable-background:accumulate"
         d="m 112.20511,115.967 0.21875,0.30274 c 0.12131,0.16658 2.50069,3.10232 5.28516,6.52539 l 5.0625,6.22656 -11.74219,0.0547 -11.74024,0.0527 -2.382811,9.5293 c -1.31067,5.2406 -2.41667,9.66542 -2.45898,9.83203 l -0.0762,0.30274 H 86.11328 c -4.542731,0 -8.25908,-0.0122 -8.257811,-0.0274 0.002,-0.0151 1.110901,-4.45215 2.464841,-9.85937 l 2.46094,-9.83008 H 77.9082 73.03125 L 68.51758,147.14076 64,165.20521 h 13.13672 13.13672 l -1.63672,6.5293 c -0.89965,3.58965 -1.63935,6.53784 -1.64062,6.55274 -0.002,0.0148 5.5036,0.0373 12.23437,0.0527 l 12.24023,0.0293 -8.60351,9.83203 -8.60547,9.83203 7.46484,-0.008 7.46485,-0.008 7.98633,-9.85156 7.98437,-9.84765 H 144 162.83594 l 7.98633,9.84765 7.98633,9.85156 7.46289,0.008 7.46484,0.008 -8.60352,-9.83203 -8.60546,-9.83203 12.24023,-0.0293 c 6.73079,-0.0154 12.23554,-0.0379 12.23438,-0.0527 -0.002,-0.0149 -0.73903,-2.96309 -1.63868,-6.55274 l -1.63672,-6.5293 H 210.86133 224 l -4.51562,-18.06445 -4.51758,-18.06445 h -4.875 -4.875 l 2.46094,9.83008 c 1.35394,5.40722 2.46563,9.84423 2.46679,9.85937 0.002,0.0158 -3.71313,0.0274 -8.25586,0.0274 h -8.26171 l -0.0762,-0.30274 c -0.0423,-0.1666 -1.14831,-4.59143 -2.45898,-9.83203 l -2.38281,-9.5293 -11.74024,-0.0527 -11.74023,-0.0547 5.0625,-6.22656 c 2.78445,-3.42306 5.16193,-6.35881 5.2832,-6.52539 l 0.2207,-0.30274 h -4.85351 -4.85352 l -5.73633,6.55274 -5.73828,6.55664 h -10.61328 -10.61523 l -5.73633,-6.55664 -5.73828,-6.55274 h -4.85352 z m 50.68555,22.91016 8.23633,0.0293 8.23242,0.0273 v 8.20703 8.20703 l -8.23242,0.0274 -8.23633,0.0293 v -8.26367 z m -54.25,0.0566 h 8.26172 8.25976 v 8.20703 8.20703 l -8.23633,0.0274 c -6.53142,0.0224 -8.24712,-1.3e-4 -8.28906,-0.10938 -0.0289,-0.0761 -0.041,-3.78333 -0.0254,-8.23633 z"
         sodipodi:nodetypes="cccccccccscccccccccccccccccccccccccccccccccccccccsccccccccccccccccccccccccccccccccccccc" />
      <path
         id="path3979"
         style="color:#000000;display:inline;overflow:visible;visibility:visible;fill:#ffffff;fill-opacity:1;fill-rule:nonzero;stroke:none;stroke-width:1.00139;marker:none;enable-background:accumulate"
         d="m 311.25588,160.71582 0.0625,0.084 c 0.0334,0.0458 0.68544,0.85359 1.45117,1.79493 l 1.39258,1.71092 -3.22851,0.0156 -3.22852,0.0156 -0.6543,2.61913 c -0.36044,1.44117 -0.66613,2.65733 -0.67773,2.70313 l -0.0215,0.084 h -2.27149 c -1.24925,0 -2.26985,-0.004 -2.26953,-0.008 4.9e-4,-0.004 0.30539,-1.22396 0.67773,-2.71094 l 0.67774,-2.70312 h -1.3418 -1.33984 l -1.24219,4.96679 L 298,174.25663 h 3.61328 3.61133 l -0.44922,1.79492 c -0.24741,0.98716 -0.45086,1.79873 -0.45117,1.80273 -4.8e-4,0.004 1.51427,0.01 3.36524,0.0137 l 3.36523,0.008 -2.36523,2.70507 -2.36719,2.70313 2.05273,-0.002 2.05274,-0.002 2.19531,-2.70898 2.19727,-2.70899 H 320 h 5.17969 l 2.19727,2.70899 2.19531,2.70898 2.05273,0.002 2.05274,0.002 -2.36524,-2.70313 -2.36718,-2.70507 3.36523,-0.008 c 1.85097,-0.004 3.36555,-0.01 3.36523,-0.0137 -4.8e-4,-0.004 -0.20376,-0.81557 -0.45117,-1.80273 l -0.44922,-1.79492 H 338.38867 342 l -1.24218,-4.96876 -1.24219,-4.96679 h -1.33985 -1.33984 l 0.67578,2.70312 c 0.37233,1.48698 0.67742,2.70694 0.67774,2.71094 4.8e-4,0.005 -1.02028,0.008 -2.26953,0.008 h -2.27149 l -0.0215,-0.084 c -0.0116,-0.0458 -0.31535,-1.26196 -0.67579,-2.70313 l -0.65624,-2.61913 -3.22852,-0.0156 -3.22852,-0.0156 1.39258,-1.71092 c 0.76573,-0.94134 1.41983,-1.74914 1.45313,-1.79493 l 0.0605,-0.084 h -1.33398 -1.33594 l -1.57812,1.80273 -1.57617,1.80274 h -2.91993 -2.91797 l -1.57812,-1.80274 -1.57813,-1.80273 h -1.33398 z m 13.93946,6.30078 2.26367,0.008 2.26562,0.008 v 2.25585 2.25586 l -2.26562,0.008 -2.26367,0.01 v -2.27344 z m -14.91797,0.0156 h 2.27148 2.27149 v 2.25585 2.25782 l -2.26563,0.008 c -1.79614,0.006 -2.2678,-10e-4 -2.2793,-0.0312 -0.008,-0.0209 -0.0118,-1.0391 -0.008,-2.26367 z"
         sodipodi:nodetypes="cccccccccsccccccccccccccccccccccccccccccccccccccssccccccccccccccccccccccccccccccccccscc" />
      <path
         id="path3104"
         style="color:#000000;display:inline;overflow:visible;visibility:visible;fill:#ffffff;fill-opacity:1;fill-rule:nonzero;stroke:none;stroke-width:0.159075;marker:none;enable-background:accumulate"
         d="m 427.62811,62.358066 0.0304,0.04158 c 0.0167,0.0229 0.34345,0.426915 0.72632,0.897586 l 0.69622,0.8557 -1.61429,0.0074 -1.61428,0.0078 -0.32764,1.309922 c -0.18022,0.720583 -0.33237,1.3289 -0.33819,1.351808 l -0.0105,0.04189 h -1.13587 c -0.62462,0 -1.1354,-0.002 -1.13524,-0.004 3.1e-4,-0.0021 0.15294,-0.612038 0.33911,-1.355531 l 0.33849,-1.351808 h -0.67047 -0.67016 L 421.62117,66.644364 421,69.128275 h 1.80634 1.80603 l -0.22494,0.897586 c -0.1237,0.493577 -0.22509,0.898949 -0.22525,0.900998 -3.2e-4,0.002 0.75676,0.0056 1.68224,0.0078 l 1.68285,0.0037 -1.18302,1.351808 -1.18303,1.351807 1.02635,-9.37e-4 1.02634,-9.37e-4 1.09802,-1.3546 1.09801,-1.354291 H 432 h 2.59006 l 1.09801,1.354291 1.09802,1.3546 1.02634,9.37e-4 1.02635,9.37e-4 -1.18303,-1.351808 -1.18303,-1.351808 1.68286,-0.0037 c 0.92548,-0.0021 1.6824,-0.0057 1.68224,-0.0078 -3.2e-4,-0.002 -0.10186,-0.40742 -0.22556,-0.900998 l -0.22494,-0.897585 H 441.19366 443 l -0.62114,-2.483951 -0.62084,-2.483951 h -0.67047 -0.67016 l 0.33849,1.351808 c 0.18617,0.743493 0.33896,1.35345 0.33912,1.355531 3.1e-4,0.0022 -0.51062,0.004 -1.13525,0.004 h -1.13587 l -0.0105,-0.04189 c -0.006,-0.02291 -0.15797,-0.631225 -0.33819,-1.351808 l -0.32764,-1.309922 -1.61428,-0.0078 -1.61429,-0.0074 0.69591,-0.8557 c 0.38286,-0.470671 0.70996,-0.874681 0.72663,-0.897586 l 0.0301,-0.04158 h -0.66706 -0.66737 l -0.789,0.901309 -0.78868,0.900998 H 432 430.54053 l -0.78899,-0.900998 -0.78869,-0.901309 h -0.66737 z m 6.9694,3.150082 1.13214,0.004 1.13214,0.0037 v 1.12842 1.12842 l -1.13214,0.004 -1.13214,0.0037 v -1.136177 z m -7.45961,0.0078 h 1.13617 1.13587 v 1.12842 1.12842 l -1.13276,0.004 c -0.89807,0.0031 -1.13383,-1.11e-4 -1.13959,-0.0152 -0.004,-0.01046 -0.006,-0.520166 -0.003,-1.132453 z"
         sodipodi:nodetypes="cccccccccscscccccccccccccccccccccccccccscccccccscsccccccccccccccccccccccccccccccccccccc" />
      <path
         id="path3981"
         style="color:#000000;display:inline;overflow:visible;visibility:visible;fill:#ffffff;fill-opacity:1;fill-rule:nonzero;stroke:none;stroke-width:1.00139;marker:none;enable-background:accumulate"
         d="m 421.6154,144.92177 0.0156,0.0234 c 0.009,0.0125 0.18766,0.2335 0.39648,0.49023 l 0.38086,0.4668 -0.88086,0.004 -0.88085,0.004 -0.17969,0.71484 c -0.0983,0.39304 -0.1806,0.72383 -0.1836,0.73633 l -0.006,0.0234 h -0.61914 c -0.34071,0 -0.61923,-9.5e-4 -0.61914,-0.002 1.3e-4,-0.001 0.0821,-0.3347 0.1836,-0.74024 l 0.18554,-0.73633 h -0.36523 -0.36719 l -0.33789,1.35352 L 418,148.61519 h 0.98438 0.98437 l -0.12109,0.49023 c -0.0675,0.26923 -0.12297,0.48924 -0.12305,0.49024 -1.3e-4,0.001 0.41316,0.003 0.91797,0.004 l 0.91602,0.002 -0.64454,0.73829 -0.64453,0.73828 0.56055,-0.002 h 0.55859 l 0.59961,-0.73828 0.59961,-0.74023 H 424 h 1.41211 l 0.59961,0.74023 0.59961,0.73828 h 0.55859 l 0.56055,0.002 -0.64648,-0.73828 -0.64454,-0.73829 0.91797,-0.002 c 0.50481,-0.001 0.91806,-0.003 0.91797,-0.004 -1.3e-4,-0.001 -0.0555,-0.22101 -0.12305,-0.49024 l -0.12304,-0.49023 H 429.01367 430 l -0.33984,-1.35547 -0.33789,-1.35352 h -0.36524 -0.36523 l 0.18359,0.73633 c 0.10157,0.40554 0.18546,0.73923 0.18555,0.74024 1.3e-4,0.001 -0.27844,0.002 -0.61914,0.002 h -0.61914 l -0.006,-0.0234 c -0.003,-0.0125 -0.0872,-0.34329 -0.18555,-0.73633 l -0.17773,-0.71484 -0.88086,-0.004 -0.88086,-0.004 0.3789,-0.4668 c 0.20884,-0.25673 0.38749,-0.47774 0.39649,-0.49023 l 0.0176,-0.0234 h -0.36524 -0.36328 l -0.42969,0.49218 -0.43164,0.49219 h -0.79492 -0.79687 l -0.42969,-0.49219 -0.42969,-0.49218 h -0.36523 z m 3.80078,1.71875 0.61718,0.002 0.61719,0.002 v 0.61524 0.61719 l -0.61719,0.002 -0.61718,0.002 v -0.62109 z m -4.06836,0.004 h 0.61914 0.61914 v 0.61524 0.61523 l -0.61719,0.002 c -0.48986,0.002 -0.61809,1.8e-4 -0.62109,-0.008 -0.002,-0.006 -0.003,-0.2832 -0.002,-0.61718 z"
         sodipodi:nodetypes="cccccccccsscccccccccscccccccccccccccccssccccccccssccccccccccccccccccccccccccccccccccccc" />
      <path
         id="path3985"
         style="color:#000000;display:inline;overflow:visible;visibility:visible;fill:#ffffff;fill-opacity:1;fill-rule:nonzero;stroke:none;stroke-width:1.00139;marker:none;enable-background:accumulate"
         d="m 424.82054,107.89732 0.0234,0.0293 c 0.0121,0.0167 0.24889,0.31005 0.52734,0.65235 l 0.50586,0.62304 -1.17383,0.006 -1.17382,0.004 -0.23828,0.95312 c -0.13106,0.52406 -0.2421,0.96573 -0.2461,0.98243 l -0.008,0.0312 h -0.82617 c -0.45427,0 -0.82629,-0.002 -0.82618,-0.004 1.8e-4,-0.002 0.11266,-0.4456 0.24805,-0.98633 l 0.2461,-0.98242 h -0.48829 -0.48632 l -0.45313,1.80664 L 420,112.81929 h 1.31445 1.3125 l -0.16406,0.65234 c -0.09,0.35897 -0.16199,0.65525 -0.16211,0.65626 -1.7e-4,9.9e-4 0.54958,0.002 1.22266,0.004 l 1.22461,0.004 -0.86133,0.98242 -0.85938,0.98437 0.7461,-0.002 h 0.74609 l 0.79883,-0.98437 0.79883,-0.98633 H 428 h 1.88476 l 0.79883,0.98633 0.79883,0.98437 h 0.7461 l 0.74609,0.002 -0.86133,-0.98437 -0.85937,-0.98242 1.22265,-0.004 c 0.67308,-0.001 1.22472,-0.003 1.22461,-0.004 -1.8e-4,-10e-4 -0.0741,-0.2973 -0.16406,-0.65626 l -0.16406,-0.65234 H 434.6875 436 l -0.45117,-1.80664 -0.45117,-1.80664 h -0.48829 -0.48632 l 0.24609,0.98242 c 0.1354,0.54073 0.24597,0.98433 0.24609,0.98633 1.7e-4,0.002 -0.3719,0.004 -0.82617,0.004 h -0.82617 l -0.008,-0.0312 c -0.004,-0.0167 -0.11503,-0.45837 -0.2461,-0.98243 l -0.23828,-0.95312 -1.17383,-0.004 -1.17382,-0.006 0.50586,-0.62304 c 0.27844,-0.3423 0.51719,-0.63565 0.52929,-0.65235 l 0.0215,-0.0293 h -0.48438 -0.48633 l -0.57422,0.65429 -0.57226,0.65625 h -1.0625 -1.06055 l -0.57422,-0.65625 -0.57421,-0.65429 h -0.48397 z m 5.06836,2.28906 0.82422,0.002 0.82227,0.004 v 0.82031 0.82031 l -0.82227,0.002 -0.82422,0.004 v -0.82617 z m -5.42383,0.006 h 0.82618 0.82617 v 0.82031 l -0.002,0.82031 -0.82226,0.004 c -0.65315,0.002 -0.82608,-7.2e-4 -0.83008,-0.0117 -0.002,-0.008 -0.004,-0.37892 -0.002,-0.82422 z"
         sodipodi:nodetypes="ccccccsccsscccccccccscccccccccccccccccsccccccccsssccccccccccccccccccccccccccccccccccccc" />
      <path
         id="path3993"
         style="color:#000000;display:inline;overflow:visible;visibility:visible;fill:#ffffff;fill-opacity:1;fill-rule:nonzero;stroke:none;stroke-width:0.21692;marker:none;enable-background:accumulate"
         d="m 306.0388,236.30644 0.041,0.0571 c 0.0227,0.0312 0.46878,0.58173 0.99087,1.22355 l 0.94897,1.16687 -2.2013,0.0106 -2.2013,0.0102 -0.44678,1.78668 c -0.24575,0.98261 -0.45323,1.81213 -0.46116,1.84337 l -0.0144,0.0567 h -1.54848 c -0.85176,0 -1.54828,-0.002 -1.54806,-0.005 4.3e-4,-0.003 0.20814,-0.8346 0.462,-1.84845 l 0.46159,-1.84338 h -0.91386 -0.91429 l -0.84659,3.38721 -0.84701,3.3872 h 2.46319 2.46319 l -0.30673,1.22356 c -0.16869,0.67306 -0.30737,1.22626 -0.30758,1.22906 -4.4e-4,0.003 1.03194,0.007 2.29396,0.0101 l 2.2948,0.005 -1.61322,1.84338 -1.61321,1.84337 1.39955,-0.001 1.39957,-10e-4 1.49729,-1.84676 1.49729,-1.84718 H 312 h 3.5319 l 1.49729,1.84718 1.49772,1.84676 1.39914,10e-4 1.39956,0.001 -1.61322,-1.84337 -1.61322,-1.84338 2.29481,-0.005 c 1.26202,-0.003 2.29417,-0.007 2.29395,-0.0101 -4.3e-4,-0.003 -0.13847,-0.556 -0.30716,-1.22906 l -0.30673,-1.22356 H 324.53681 327 l -0.84659,-3.3872 -0.84701,-3.38721 h -0.91386 -0.91429 l 0.46159,1.84338 c 0.25386,1.01385 0.46221,1.84561 0.46243,1.84845 4.3e-4,0.003 -0.6963,0.005 -1.54806,0.005 h -1.54891 l -0.0144,-0.0567 c -0.008,-0.0312 -0.21541,-0.86076 -0.46116,-1.84337 l -0.44677,-1.78668 -2.2013,-0.0102 -2.20131,-0.0106 0.9494,-1.16687 c 0.52208,-0.64182 0.9677,-1.19232 0.99044,-1.22355 l 0.0415,-0.0571 h -0.91005 -0.91005 l -1.07548,1.22906 -1.0759,1.22905 h -1.99019 -1.99018 l -1.07548,-1.22905 -1.0759,-1.22906 h -0.91005 z m 9.50329,4.29599 1.54426,0.005 1.54383,0.005 v 1.53876 1.53833 l -1.54383,0.005 -1.54426,0.006 v -1.54933 z m -10.17177,0.0106 h 1.54891 1.54891 v 1.53876 1.53875 l -1.54426,0.005 c -1.22464,0.004 -1.54654,-1.5e-4 -1.5544,-0.0207 -0.005,-0.0143 -0.008,-0.70889 -0.005,-1.54383 z"
         sodipodi:nodetypes="cccccccscscscccccccccccccccccccccccccccccccccccscscsccccccccccccccccccccccccccccccccccc" />
      <path
         id="path3995"
         style="color:#000000;display:inline;overflow:visible;visibility:visible;fill:#ffffff;fill-opacity:1;fill-rule:nonzero;stroke:none;stroke-width:0.477224;marker:none;enable-background:accumulate"
         d="m 322.8843,59.07369 0.0912,0.12565 c 0.05,0.0687 1.0313,1.27982 2.1799,2.69183 l 2.08774,2.5671 -4.84286,0.0233 -4.84287,0.0223 -0.98291,3.9307 c -0.54065,2.16175 -0.99711,3.9867 -1.01455,4.05543 l -0.0316,0.12472 h -3.4076 c -1.87388,0 -3.40622,-0.005 -3.40574,-0.0111 9.5e-4,-0.006 0.45885,-1.83612 1.01735,-4.0666 l 1.01548,-4.05542 h -2.01142 -2.01049 l -1.8625,7.45185 L 303,79.38531 h 5.41902 5.41809 l -0.67388,2.69182 c -0.37111,1.48073 -0.67621,2.69778 -0.67668,2.70393 -9.6e-4,0.006 2.27026,0.016 5.0467,0.0223 l 5.04858,0.0121 -3.54909,4.05543 -3.54907,4.05542 3.07903,-0.004 3.07903,-0.003 3.29405,-4.06287 3.29404,-4.0638 H 336 h 7.77018 l 3.29404,4.0638 3.29405,4.06287 3.07903,0.003 3.07903,0.004 -3.54907,-4.05542 -3.54909,-4.05543 5.04858,-0.0121 c 2.77645,-0.006 5.04718,-0.0162 5.0467,-0.0223 -4.7e-4,-0.006 -0.30557,-1.2232 -0.67668,-2.70393 l -0.67388,-2.69182 H 363.58098 369 l -1.86343,-7.45186 -1.8625,-7.45185 h -2.01049 -2.01142 l 1.01548,4.05542 c 0.5585,2.23048 1.01688,4.06036 1.01735,4.0666 9.5e-4,0.007 -1.53186,0.0111 -3.40574,0.0111 h -3.4076 L 356.44005,72.49 c -0.0174,-0.0687 -0.4739,-1.89368 -1.01455,-4.05543 l -0.98291,-3.9307 -4.84287,-0.0223 -4.84286,-0.0233 2.08774,-2.5671 c 1.14859,-1.41201 2.12987,-2.62311 2.1799,-2.69183 l 0.0912,-0.12565 h -2.00211 -2.00212 l -2.36605,2.70393 -2.36698,2.70392 h -4.37841 -4.37841 l -2.36698,-2.70392 -2.36605,-2.70393 h -2.00212 z m 20.90819,9.45118 3.39643,0.0111 3.39643,0.0121 v 3.38527 3.38525 l -3.39643,0.0111 -3.39643,0.0121 v -3.40853 z m -22.3779,0.0232 h 3.4076 3.40759 v 3.38527 3.38525 l -3.39735,0.0111 c -2.69421,0.009 -3.40241,-3.3e-4 -3.41971,-0.0456 -0.0119,-0.0314 -0.0167,-1.55957 -0.0102,-3.39644 z"
         sodipodi:nodetypes="cccccccscscsccccccccccccccccccccccccccsccccccccscscsccccccccccccccccccccccccccccccccccc" />
      <path
         id="path3997"
         style="color:#000000;display:inline;overflow:visible;visibility:visible;fill:#ffffff;fill-opacity:1;fill-rule:nonzero;stroke:none;stroke-width:1.15691;marker:none;enable-background:accumulate"
         d="m 112.20669,114.96759 0.21887,0.30237 c 0.12131,0.16658 2.50013,3.10256 5.2846,6.52563 l 5.0612,6.22552 -11.74028,0.0542 -11.740284,0.0542 -2.382805,9.52896 c -1.31067,5.2406 -2.417218,9.66473 -2.459525,9.83134 l -0.07672,0.30236 h -8.258588 c -4.542724,0 -8.257602,-0.0119 -8.256333,-0.027 0.0017,-0.0151 1.110092,-4.45119 2.464039,-9.85841 l 2.461784,-9.83142 H 77.908727 73.03255 l -4.515146,18.0651 -4.517403,18.06511 h 13.137023 13.137022 l -1.635922,6.52789 c -0.899653,3.58965 -1.639165,6.53781 -1.640436,6.55271 -0.0017,0.0148 5.503668,0.0388 12.234445,0.0542 l 12.238957,0.0294 -8.60382,9.83132 -8.60383,9.83134 7.46432,-0.007 7.46432,-0.007 7.98556,-9.85163 7.98556,-9.84938 H 144 162.8368 l 7.98556,9.84938 7.98782,9.85163 7.46206,0.007 7.46432,0.007 -8.60382,-9.83134 -8.60383,-9.83132 12.23896,-0.0294 c 6.73079,-0.0154 12.2356,-0.0394 12.23444,-0.0542 -0.002,-0.0149 -0.73852,-2.96306 -1.63817,-6.55271 l -1.63593,-6.52789 H 210.86298 224 l -4.51515,-18.06511 -4.5174,-18.0651 h -4.87392 -4.87618 l 2.46178,9.83133 c 1.35394,5.40722 2.46514,9.84327 2.4663,9.85841 0.002,0.0158 -3.71361,0.027 -8.25634,0.027 h -8.26084 l -0.0767,-0.30237 c -0.0423,-0.1666 -1.14886,-4.59073 -2.45953,-9.83133 l -2.38281,-9.52899 -11.74027,-0.0541 -11.74029,-0.0542 5.06346,-6.22553 c 2.78445,-3.42306 5.16107,-6.35905 5.28234,-6.52563 l 0.22113,-0.30234 h -4.85361 -4.85361 l -5.73589,6.55271 -5.73813,6.55498 H 144 133.38568 l -5.73588,-6.55498 -5.73814,-6.55271 h -4.85362 z m 50.68427,22.90969 8.23602,0.0293 8.23377,0.027 v 8.20669 8.20669 l -8.23377,0.027 -8.23602,0.0293 v -8.26309 z m -54.24946,0.0564 h 8.26085 8.26085 v 8.20669 8.20669 l -8.23603,0.027 c -6.53142,0.0224 -8.24824,0.001 -8.29018,-0.10825 -0.0289,-0.0761 -0.0404,-3.78302 -0.0248,-8.23602 z"
         sodipodi:nodetypes="cccccccscscscccccccccccccccccccccccccccccccccccscscsccccccccccccccccccccccccccccccccccc" />
    </g>
    <g
       inkscape:groupmode="layer"
       id="layer5"
       inkscape:label="Highlights"
       style="display:inline"
       sodipodi:insensitive="true">
      <path
         style="color:#bebebe;display:inline;overflow:visible;visibility:visible;opacity:0.13;fill:#ffffff;fill-opacity:1;fill-rule:nonzero;stroke:none;stroke-width:0;marker:none;enable-background:accumulate"
         d="M 84,47 C 56.836703,47 35,68.836703 35,96 v 1 C 35,69.836703 56.836703,48 84,48 h 120 c 27.1633,0 49,21.836703 49,49 V 96 C 253,68.836703 231.1633,47 204,47 Z"
         id="rect3894"
         inkscape:connector-curvature="0" />
      <path
         style="color:#bebebe;display:inline;overflow:visible;visibility:visible;opacity:0.13;fill:#ffffff;fill-opacity:1;fill-rule:nonzero;stroke:none;stroke-width:0;marker:none;enable-background:accumulate"
         d="m 419,141 c -1.1253,0 -2,0.8747 -2,2 v 1 c 0,-1.1253 0.8747,-2 2,-2 h 10 c 1.1253,0 2,0.8747 2,2 v -1 c 0,-1.1253 -0.8747,-2 -2,-2 z"
         id="rect3896"
         inkscape:connector-curvature="0" />
      <path
         style="color:#bebebe;display:inline;overflow:visible;visibility:visible;opacity:0.13;fill:#ffffff;fill-opacity:1;fill-rule:nonzero;stroke:none;stroke-width:0;marker:none;enable-background:accumulate"
         d="m 422,102 c -2.2333,0 -4,1.7667 -4,4 v 1 c 0,-2.2333 1.7667,-4 4,-4 h 12 c 2.2333,0 4,1.7667 4,4 v -1 c 0,-2.2333 -1.7667,-4 -4,-4 z"
         id="rect3898"
         inkscape:connector-curvature="0" />
      <path
         style="color:#bebebe;display:inline;overflow:visible;visibility:visible;opacity:0.13;fill:#ffffff;fill-opacity:1;fill-rule:nonzero;stroke:none;stroke-width:0;marker:none;enable-background:accumulate"
         d="m 424,54 c -3.3413,0 -6,2.658703 -6,6 v 1 c 0,-3.341297 2.6587,-6 6,-6 h 16 c 3.3413,0 6,2.658703 6,6 v -1 c 0,-3.341297 -2.6587,-6 -6,-6 z"
         id="rect3900"
         inkscape:connector-curvature="0" />
      <path
         style="color:#bebebe;display:inline;overflow:visible;visibility:visible;opacity:0.13;fill:#ffffff;fill-opacity:1;fill-rule:nonzero;stroke:none;stroke-width:0;marker:none;enable-background:accumulate"
         d="m 300,224 c -4.4493,0 -8,3.5507 -8,8 v 1 c 0,-4.4493 3.5507,-8 8,-8 h 24 c 4.4493,0 8,3.5507 8,8 v -1 c 0,-4.4493 -3.5507,-8 -8,-8 z"
         id="rect3902"
         inkscape:connector-curvature="0" />
      <path
         style="color:#bebebe;display:inline;overflow:visible;visibility:visible;opacity:0.13;fill:#ffffff;fill-opacity:1;fill-rule:nonzero;stroke:none;stroke-width:0;marker:none;enable-background:accumulate"
         d="m 310,33 c -9.4353,0 -17,7.564703 -17,17 v 1 c 0,-9.435297 7.5647,-17 17,-17 h 52 c 9.4353,0 17,7.564703 17,17 v -1 c 0,-9.435297 -7.5647,-17 -17,-17 z"
         id="rect3904"
         inkscape:connector-curvature="0" />
      <path
         style="color:#bebebe;display:inline;overflow:visible;visibility:visible;opacity:0.13;fill:#ffffff;fill-opacity:1;fill-rule:nonzero;stroke:none;stroke-width:0;marker:none;enable-background:accumulate"
         d="m 302.5,143 c -6.3883,0 -11.5,5.1117 -11.5,11.5 v 1 c 0,-6.3883 5.1117,-11.5 11.5,-11.5 h 35 c 6.3883,0 11.5,5.1117 11.5,11.5 v -1 c 0,-6.3883 -5.1117,-11.5 -11.5,-11.5 z"
         id="rect3906"
         inkscape:connector-curvature="0" />
      <path
         id="path4085"
         d="m 204,266 c 27.1633,0 49,-21.8367 49,-49 v -1 c 0,27.1633 -21.8367,49 -49,49 H 84 C 56.8367,265 35,243.1633 35,216 v 1 c 0,27.1633 21.8367,49 49,49 z"
         style="color:#bebebe;display:inline;overflow:visible;visibility:visible;opacity:0.5;fill:#000000;fill-opacity:1;fill-rule:nonzero;stroke:none;stroke-width:0;marker:none;enable-background:accumulate"
         inkscape:connector-curvature="0" />
      <path
         id="path4087"
         d="m 429,156 c 1.1253,0 2,-0.8747 2,-2 v -1 c 0,1.1253 -0.8747,2 -2,2 h -10 c -1.1253,0 -2,-0.8747 -2,-2 v 1 c 0,1.1253 0.8747,2 2,2 z"
         style="color:#bebebe;display:inline;overflow:visible;visibility:visible;opacity:0.3;fill:#000000;fill-opacity:1;fill-rule:nonzero;stroke:none;stroke-width:0;marker:none;enable-background:accumulate"
         inkscape:connector-curvature="0" />
      <path
         id="path4089"
         d="m 434,123 c 2.2333,0 4,-1.7667 4,-4 v -1 c 0,2.2333 -1.7667,4 -4,4 h -12 c -2.2333,0 -4,-1.7667 -4,-4 v 1 c 0,2.2333 1.7667,4 4,4 z"
         style="color:#bebebe;display:inline;overflow:visible;visibility:visible;opacity:0.3;fill:#000000;fill-opacity:1;fill-rule:nonzero;stroke:none;stroke-width:0;marker:none;enable-background:accumulate"
         inkscape:connector-curvature="0" />
      <path
         id="path4091"
         d="m 440,83 c 3.3413,0 6,-2.6587 6,-6 v -1 c 0,3.3413 -2.6587,6 -6,6 h -16 c -3.3413,0 -6,-2.6587 -6,-6 v 1 c 0,3.3413 2.6587,6 6,6 z"
         style="color:#bebebe;display:inline;overflow:visible;visibility:visible;opacity:0.5;fill:#000000;fill-opacity:1;fill-rule:nonzero;stroke:none;stroke-width:0;marker:none;enable-background:accumulate"
         inkscape:connector-curvature="0" />
      <path
         id="path4093"
         d="m 324,265 c 4.4493,0 8,-3.5507 8,-8 v -1 c 0,4.4493 -3.5507,8 -8,8 h -24 c -4.4493,0 -8,-3.5507 -8,-8 v 1 c 0,4.4493 3.5507,8 8,8 z"
         style="color:#bebebe;display:inline;overflow:visible;visibility:visible;opacity:0.5;fill:#000000;fill-opacity:1;fill-rule:nonzero;stroke:none;stroke-width:0;marker:none;enable-background:accumulate"
         inkscape:connector-curvature="0" />
      <path
         id="path4095"
         d="m 362,120 c 9.4353,0 17,-7.5647 17,-17 v -1 c 0,9.4353 -7.5647,17 -17,17 h -52 c -9.4353,0 -17,-7.5647 -17,-17 v 1 c 0,9.4353 7.5647,17 17,17 z"
         style="color:#bebebe;display:inline;overflow:visible;visibility:visible;opacity:0.5;fill:#000000;fill-opacity:1;fill-rule:nonzero;stroke:none;stroke-width:0;marker:none;enable-background:accumulate"
         inkscape:connector-curvature="0" />
      <path
         id="path4097"
         d="m 337.5,202 c 6.3883,0 11.5,-5.1117 11.5,-11.5 v -1 c 0,6.3883 -5.1117,11.5 -11.5,11.5 h -35 c -6.3883,0 -11.5,-5.1117 -11.5,-11.5 v 1 c 0,6.3883 5.1117,11.5 11.5,11.5 z"
         style="color:#bebebe;display:inline;overflow:visible;visibility:visible;opacity:0.5;fill:#000000;fill-opacity:1;fill-rule:nonzero;stroke:none;stroke-width:0;marker:none;enable-background:accumulate"
         inkscape:connector-curvature="0" />
      <path
         inkscape:connector-curvature="0"
         id="path4280"
         d="M 84,265 C 56.836703,265 35,243.1633 35,216 v -1 c 0,27.1633 21.836703,49 49,49 h 120 c 27.1633,0 49,-21.8367 49,-49 v 1 c 0,27.1633 -21.8367,49 -49,49 z"
         style="color:#bebebe;display:inline;overflow:visible;visibility:visible;opacity:0.1;fill:#ffffff;fill-opacity:1;fill-rule:nonzero;stroke:none;stroke-width:0;marker:none;enable-background:accumulate" />
      <path
         style="color:#bebebe;display:inline;overflow:visible;visibility:visible;opacity:0.1;fill:#ffffff;fill-opacity:1;fill-rule:nonzero;stroke:none;stroke-width:0;marker:none;enable-background:accumulate"
         d="m 300,264 c -4.4493,0 -8,-3.5507 -8,-8 v -1 c 0,4.4493 3.5507,8 8,8 h 24 c 4.4493,0 8,-3.5507 8,-8 v 1 c 0,4.4493 -3.5507,8 -8,8 z"
         id="path4294"
         inkscape:connector-curvature="0" />
      <path
         style="color:#bebebe;display:inline;overflow:visible;visibility:visible;opacity:0.1;fill:#ffffff;fill-opacity:1;fill-rule:nonzero;stroke:none;stroke-width:0;marker:none;enable-background:accumulate"
         d="m 302.5,201 c -6.3883,0 -11.5,-5.1117 -11.5,-11.5 v -1 c 0,6.3883 5.1117,11.5 11.5,11.5 h 35 c 6.3883,0 11.5,-5.1117 11.5,-11.5 v 1 c 0,6.3883 -5.1117,11.5 -11.5,11.5 z"
         id="path4296"
         inkscape:connector-curvature="0" />
      <path
         style="color:#bebebe;display:inline;overflow:visible;visibility:visible;opacity:0.1;fill:#ffffff;fill-opacity:1;fill-rule:nonzero;stroke:none;stroke-width:0;marker:none;enable-background:accumulate"
         d="m 310,119 c -9.4353,0 -17,-7.5647 -17,-17 v -1 c 0,9.4353 7.5647,17 17,17 h 52 c 9.4353,0 17,-7.5647 17,-17 v 1 c 0,9.4353 -7.5647,17 -17,17 z"
         id="path4298"
         inkscape:connector-curvature="0" />
      <path
         style="color:#bebebe;display:inline;overflow:visible;visibility:visible;opacity:0.1;fill:#ffffff;fill-opacity:1;fill-rule:nonzero;stroke:none;stroke-width:0;marker:none;enable-background:accumulate"
         d="m 424,82 c -3.3413,0 -6,-2.658703 -6,-6 v -1 c 0,3.341297 2.6587,6 6,6 h 16 c 3.3413,0 6,-2.658703 6,-6 v 1 c 0,3.341297 -2.6587,6 -6,6 z"
         id="path4300"
         inkscape:connector-curvature="0" />
      <path
         style="color:#bebebe;display:inline;overflow:visible;visibility:visible;opacity:0.1;fill:#ffffff;fill-opacity:1;fill-rule:nonzero;stroke:none;stroke-width:0;marker:none;enable-background:accumulate"
         d="m 422,122 c -2.2333,0 -4,-1.7667 -4,-4 v -1 c 0,2.2333 1.7667,4 4,4 h 12 c 2.2333,0 4,-1.7667 4,-4 v 1 c 0,2.2333 -1.7667,4 -4,4 z"
         id="path4302"
         inkscape:connector-curvature="0" />
      <path
         style="color:#bebebe;display:inline;overflow:visible;visibility:visible;opacity:0.1;fill:#ffffff;fill-opacity:1;fill-rule:nonzero;stroke:none;stroke-width:0;marker:none;enable-background:accumulate"
         d="m 419,154.5 c -1.1253,0 -2,-0.8747 -2,-2 v -1 c 0,1.1253 0.8747,2 2,2 h 10 c 1.1253,0 2,-0.8747 2,-2 v 1 c 0,1.1253 -0.8747,2 -2,2 z"
         id="path4304"
         inkscape:connector-curvature="0" />
    </g>
    <g
       inkscape:groupmode="layer"
       id="layer3"
       inkscape:label="Border"
       style="display:inline"
       sodipodi:insensitive="true">
      <path
         style="color:#bebebe;display:inline;overflow:visible;visibility:visible;opacity:0.41;fill:#000000;fill-opacity:1;fill-rule:nonzero;stroke:none;stroke-width:0;marker:none;enable-background:accumulate"
         d="m 422,101 c -2.77,0 -5,2.23 -5,5 v 12 c 0,2.77 2.23,5 5,5 h 12 c 2.77,0 5,-2.23 5,-5 v -12 c 0,-2.77 -2.23,-5 -5,-5 z m 0,1 h 12 c 2.2333,0 4,1.7667 4,4 v 12 c 0,2.2333 -1.7667,4 -4,4 h -12 c -2.2333,0 -4,-1.7667 -4,-4 v -12 c 0,-2.2333 1.7667,-4 4,-4 z"
         id="rect4099"
         inkscape:connector-curvature="0" />
      <path
         style="color:#bebebe;display:inline;overflow:visible;visibility:visible;opacity:0.41;fill:#000000;fill-opacity:1;fill-rule:nonzero;stroke:none;stroke-width:0;marker:none;enable-background:accumulate"
         d="m 424,53 c -3.878,0 -7,3.122 -7,7 v 16 c 0,3.878 3.122,7 7,7 h 16 c 3.878,0 7,-3.122 7,-7 V 60 c 0,-3.878 -3.122,-7 -7,-7 z m 0,1 h 16 c 3.3413,0 6,2.658703 6,6 v 16 c 0,3.341297 -2.6587,6 -6,6 h -16 c -3.3413,0 -6,-2.658703 -6,-6 V 60 c 0,-3.341297 2.6587,-6 6,-6 z"
         id="rect4151"
         inkscape:connector-curvature="0" />
      <path
         style="color:#bebebe;display:inline;overflow:visible;visibility:visible;opacity:0.41;fill:#000000;fill-opacity:1;fill-rule:nonzero;stroke:none;stroke-width:0;marker:none;enable-background:accumulate"
         d="m 419,140 c -1.662,0 -3,1.338 -3,3 v 10 c 0,1.662 1.338,3 3,3 h 10 c 1.662,0 3,-1.338 3,-3 v -10 c 0,-1.662 -1.338,-3 -3,-3 z m 0,1 h 10 c 1.1253,0 2,0.8747 2,2 v 10 c 0,1.1253 -0.8747,2 -2,2 h -10 c -1.1253,0 -2,-0.8747 -2,-2 v -10 c 0,-1.1253 0.8747,-2 2,-2 z"
         id="rect4095"
         inkscape:connector-curvature="0" />
      <path
         style="color:#bebebe;display:inline;overflow:visible;visibility:visible;opacity:0.41;fill:#000000;fill-opacity:1;fill-rule:nonzero;stroke:none;stroke-width:0;marker:none;enable-background:accumulate"
         d="m 300,223 c -4.986,0 -9,4.014 -9,9 v 24 c 0,4.986 4.014,9 9,9 h 24 c 4.986,0 9,-4.014 9,-9 v -24 c 0,-4.986 -4.014,-9 -9,-9 z m 0,1 h 24 c 4.4493,0 8,3.5507 8,8 v 24 c 0,4.4493 -3.5507,8 -8,8 h -24 c -4.4493,0 -8,-3.5507 -8,-8 v -24 c 0,-4.4493 3.5507,-8 8,-8 z"
         id="rect4783"
         inkscape:connector-curvature="0" />
      <path
         style="color:#bebebe;display:inline;overflow:visible;visibility:visible;opacity:0.41;fill:#000000;fill-opacity:1;fill-rule:nonzero;stroke:none;stroke-width:0;marker:none;enable-background:accumulate"
         d="m 302.5,142 c -6.925,0 -12.5,5.575 -12.5,12.5 v 35 c 0,6.925 5.575,12.5 12.5,12.5 h 35 c 6.925,0 12.5,-5.575 12.5,-12.5 v -35 c 0,-6.925 -5.575,-12.5 -12.5,-12.5 z m 0,1 h 35 c 6.3883,0 11.5,5.1117 11.5,11.5 v 35 c 0,6.3883 -5.1117,11.5 -11.5,11.5 h -35 c -6.3883,0 -11.5,-5.1117 -11.5,-11.5 v -35 c 0,-6.3883 5.1117,-11.5 11.5,-11.5 z"
         id="rect4515"
         inkscape:connector-curvature="0" />
      <path
         style="color:#bebebe;display:inline;overflow:visible;visibility:visible;opacity:0.41;fill:#000000;fill-opacity:1;fill-rule:nonzero;stroke:none;stroke-width:0;marker:none;enable-background:accumulate"
         d="m 310,32 c -9.972,0 -18,8.028 -18,18 v 52 c 0,9.972 8.028,18 18,18 h 52 c 9.972,0 18,-8.028 18,-18 V 50 c 0,-9.972 -8.028,-18 -18,-18 z m 0,1 h 52 c 9.4353,0 17,7.564703 17,17 v 52 c 0,9.4353 -7.5647,17 -17,17 h -52 c -9.4353,0 -17,-7.5647 -17,-17 V 50 c 0,-9.435297 7.5647,-17 17,-17 z"
         id="rect4511"
         inkscape:connector-curvature="0" />
      <path
         style="color:#bebebe;display:inline;overflow:visible;visibility:visible;opacity:0.41;fill:#000000;fill-opacity:1;fill-rule:nonzero;stroke:none;stroke-width:0;marker:none;enable-background:accumulate"
         d="M 84,46 C 56.3,46 34,68.3 34,96 v 120 c 0,27.7 22.3,50 50,50 h 120 c 27.7,0 50,-22.3 50,-50 V 96 C 254,68.3 231.7,46 204,46 Z m 0,1 h 120 c 27.1633,0 49,21.836703 49,49 v 120 c 0,27.1633 -21.8367,49 -49,49 H 84 C 56.836703,265 35,243.1633 35,216 V 96 C 35,68.836703 56.836703,47 84,47 Z"
         id="rect4040"
         inkscape:connector-curvature="0" />
    </g>
  </g>
</svg>
