<?xml version="1.0" encoding="UTF-8" standalone="no"?>
<svg
   xmlns:dc="http://purl.org/dc/elements/1.1/"
   xmlns:cc="http://creativecommons.org/ns#"
   xmlns:rdf="http://www.w3.org/1999/02/22-rdf-syntax-ns#"
   xmlns:svg="http://www.w3.org/2000/svg"
   xmlns="http://www.w3.org/2000/svg"
   xmlns:xlink="http://www.w3.org/1999/xlink"
   xmlns:sodipodi="http://sodipodi.sourceforge.net/DTD/sodipodi-0.dtd"
   xmlns:inkscape="http://www.inkscape.org/namespaces/inkscape"
   inkscape:export-ydpi="90.000000"
   inkscape:export-xdpi="90.000000"
   width="480"
   height="300"
   id="svg11300"
   sodipodi:version="0.32"
   inkscape:version="1.0.2 (e86c870, 2021-01-15)"
   sodipodi:docname="signal.svg"
   inkscape:output_extension="org.inkscape.output.svg.inkscape"
   version="1.0"
   style="display:inline;enable-background:new"
   inkscape:export-filename="/home/sam/moka-next-template.png">
  <sodipodi:namedview
     stroke="#ef2929"
     fill="#f57900"
     id="base"
     pagecolor="#777777"
     bordercolor="#666666"
     borderopacity="0.25490196"
     inkscape:pageopacity="0"
     inkscape:pageshadow="2"
     inkscape:zoom="32"
     inkscape:cx="430.0694"
     inkscape:cy="78.06375"
     inkscape:current-layer="layer6"
     showgrid="false"
     inkscape:grid-bbox="true"
     inkscape:document-units="px"
     inkscape:showpageshadow="false"
     inkscape:window-width="1366"
     inkscape:window-height="703"
     inkscape:window-x="0"
     inkscape:window-y="0"
     width="400px"
     height="300px"
     inkscape:snap-nodes="true"
     inkscape:snap-bbox="false"
     gridtolerance="10000"
     inkscape:object-nodes="false"
     inkscape:snap-grids="true"
     showguides="true"
     inkscape:guide-bbox="true"
     inkscape:window-maximized="1"
     inkscape:bbox-nodes="true"
     inkscape:bbox-paths="true"
     inkscape:snap-bbox-edge-midpoints="true"
     inkscape:snap-bbox-midpoints="true"
     inkscape:snap-object-midpoints="true"
     inkscape:object-paths="true"
     inkscape:document-rotation="0">
    <inkscape:grid
       spacingy="1px"
       spacingx="1px"
       id="grid5883"
       type="xygrid"
       enabled="true"
       visible="true"
       empspacing="4"
       snapvisiblegridlinesonly="true"
       dotted="false"
       color="#000000"
       opacity="0.1254902"
       empcolor="#203ef3"
       empopacity="0.36470588" />
    <inkscape:grid
       type="xygrid"
       id="grid11592"
       empspacing="8"
       visible="true"
       enabled="false"
       spacingx="0.5px"
       spacingy="0.5px"
       color="#ff0000"
       opacity="0.1254902"
       empcolor="#ff0000"
       empopacity="0.25098039"
       snapvisiblegridlinesonly="true"
       dotted="true" />
  </sodipodi:namedview>
  <defs
     id="defs3">
    <linearGradient
       inkscape:collect="always"
       xlink:href="#outerBackgroundGradient-0"
       id="linearGradient5744"
       gradientUnits="userSpaceOnUse"
       gradientTransform="matrix(0,-1,1,0,-12,300)"
       x1="35"
       y1="156"
       x2="253"
       y2="156" />
    <linearGradient
       inkscape:collect="always"
       xlink:href="#outerBackgroundGradient-0"
       id="linearGradient5746"
       gradientUnits="userSpaceOnUse"
       gradientTransform="matrix(0,-1,1,0,276,572)"
       x1="417"
       y1="148"
       x2="431"
       y2="148" />
    <linearGradient
       inkscape:collect="always"
       xlink:href="#outerBackgroundGradient-0"
       id="linearGradient5748"
       gradientUnits="userSpaceOnUse"
       gradientTransform="matrix(0,-1,1,0,316,540)"
       x1="418"
       y1="112"
       x2="438"
       y2="112" />
    <linearGradient
       inkscape:collect="always"
       xlink:href="#outerBackgroundGradient-0"
       id="linearGradient5750"
       gradientUnits="userSpaceOnUse"
       gradientTransform="matrix(0,-1,1,0,364,500)"
       x1="418"
       y1="68"
       x2="446"
       y2="68" />
    <linearGradient
       inkscape:collect="always"
       xlink:href="#outerBackgroundGradient-0"
       id="linearGradient5752"
       gradientUnits="userSpaceOnUse"
       gradientTransform="matrix(0,-1,1,0,68,556)"
       x1="292"
       y1="244"
       x2="332"
       y2="244" />
    <linearGradient
       inkscape:collect="always"
       xlink:href="#outerBackgroundGradient-0"
       id="linearGradient5754"
       gradientUnits="userSpaceOnUse"
       gradientTransform="matrix(0,-1,1,0,260,412)"
       x1="293"
       y1="76"
       x2="379"
       y2="76" />
    <linearGradient
       inkscape:collect="always"
       xlink:href="#outerBackgroundGradient-0"
       id="linearGradient5756"
       gradientUnits="userSpaceOnUse"
       gradientTransform="matrix(0,-1,1,0,148,492)"
       x1="291"
       y1="172"
       x2="349"
       y2="172" />
    <linearGradient
       id="outerBackgroundGradient-0">
      <stop
         style="stop-color:#2468f0;stop-opacity:1;"
         offset="0"
         id="stop3864-8-6-9" />
      <stop
         style="stop-color:#4c83f0;stop-opacity:1;"
         offset="1"
         id="stop3866-9-1-2" />
    </linearGradient>
  </defs>
  <metadata
     id="metadata4">
    <rdf:RDF>
      <cc:Work
         rdf:about="">
        <dc:format>image/svg+xml</dc:format>
        <dc:type
           rdf:resource="http://purl.org/dc/dcmitype/StillImage" />
        <dc:creator>
          <cc:Agent>
            <dc:title>Sam Hewitt</dc:title>
          </cc:Agent>
        </dc:creator>
        <dc:source />
        <cc:license
           rdf:resource="" />
        <dc:title />
        <dc:subject>
          <rdf:Bag />
        </dc:subject>
        <dc:date />
        <dc:rights>
          <cc:Agent>
            <dc:title />
          </cc:Agent>
        </dc:rights>
        <dc:publisher>
          <cc:Agent>
            <dc:title />
          </cc:Agent>
        </dc:publisher>
        <dc:identifier />
        <dc:relation />
        <dc:language />
        <dc:coverage />
        <dc:description />
        <dc:contributor>
          <cc:Agent>
            <dc:title />
          </cc:Agent>
        </dc:contributor>
      </cc:Work>
      <cc:Work
         rdf:about="">
        <dc:format>image/svg+xml</dc:format>
        <dc:type
           rdf:resource="http://purl.org/dc/dcmitype/StillImage" />
      </cc:Work>
    </rdf:RDF>
  </metadata>
  <g
     style="display:inline"
     inkscape:groupmode="layer"
     inkscape:label="Icon"
     id="layer1">
    <g
       style="display:none"
       inkscape:label="Baseplate"
       id="layer7"
       inkscape:groupmode="layer">
      <text
         y="19.745117"
         xml:space="preserve"
         x="15.006836"
         style="font-style:normal;font-variant:normal;font-weight:normal;font-stretch:normal;line-height:0%;font-family:'DejaVu Sans';-inkscape-font-specification:'DejaVu Sans';display:inline;fill:#000000;fill-opacity:1;stroke:none;enable-background:new"
         inkscape:label="context"
         id="context"><tspan
           style="font-style:normal;font-variant:normal;font-weight:normal;font-stretch:normal;font-size:18px;line-height:1.25;font-family:'DejaVu Sans';-inkscape-font-specification:'DejaVu Sans'"
           y="19.745117"
           x="15.006836"
           sodipodi:role="line"
           id="tspan3933">apps</tspan></text>
      <text
         y="19.745117"
         xml:space="preserve"
         x="122.48828"
         style="font-style:normal;font-variant:normal;font-weight:bold;font-stretch:normal;line-height:0%;font-family:'DejaVu Sans';-inkscape-font-specification:'DejaVu Sans Bold';text-align:start;writing-mode:lr-tb;text-anchor:start;display:inline;fill:#000000;fill-opacity:1;stroke:none;enable-background:new"
         inkscape:label="icon-name"
         id="icon-name"><tspan
           style="font-style:normal;font-variant:normal;font-weight:bold;font-stretch:normal;font-size:18px;line-height:1.25;font-family:'DejaVu Sans';-inkscape-font-specification:'DejaVu Sans Bold'"
           y="19.745117"
           x="122.48828"
           sodipodi:role="line"
           id="tspan3937">signal</tspan></text>
      <rect
         style="display:inline;overflow:visible;visibility:visible;fill:#eeeeec;fill-opacity:1;fill-rule:nonzero;stroke:none;stroke-width:2;marker:none;enable-background:accumulate"
         id="rect16x16"
         width="16"
         height="16"
         x="416"
         y="140"
         inkscape:label="16x16" />
      <rect
         style="display:inline;overflow:visible;visibility:visible;fill:#d4d4d4;fill-opacity:1;fill-rule:nonzero;stroke:none;stroke-width:2;marker:none;enable-background:accumulate"
         id="rect24x24"
         width="24"
         height="24"
         x="416"
         y="100"
         inkscape:label="24x24" />
      <rect
         style="display:inline;overflow:visible;visibility:visible;fill:#eeeeec;fill-opacity:1;fill-rule:nonzero;stroke:none;stroke-width:2;marker:none;enable-background:accumulate"
         id="rect32x32"
         width="32"
         height="32"
         x="416"
         y="52"
         inkscape:label="32x32" />
      <rect
         inkscape:label="22x22"
         y="101"
         x="417"
         height="22"
         width="22"
         id="rect22x22"
         style="display:inline;overflow:visible;visibility:visible;fill:#eeeeec;fill-opacity:1;fill-rule:nonzero;stroke:none;stroke-width:2;marker:none;enable-background:accumulate" />
      <rect
         inkscape:label="48x48"
         y="220"
         x="288"
         height="48"
         width="48"
         id="rect48x48"
         style="display:inline;overflow:visible;visibility:visible;fill:#eeeeec;fill-opacity:1;fill-rule:nonzero;stroke:none;stroke-width:2;marker:none;enable-background:accumulate" />
      <rect
         style="display:inline;overflow:visible;visibility:visible;fill:#eeeeec;fill-opacity:1;fill-rule:nonzero;stroke:none;stroke-width:2;marker:none;enable-background:accumulate"
         id="rect256x256"
         width="256"
         height="256"
         x="16"
         y="28"
         inkscape:label="256x256" />
      <rect
         style="display:inline;overflow:visible;visibility:visible;fill:#eeeeec;fill-opacity:1;fill-rule:nonzero;stroke:none;stroke-width:2;marker:none;enable-background:accumulate"
         id="rect64x64"
         width="64"
         height="64"
         x="288"
         y="140"
         inkscape:label="64x64" />
      <rect
         style="display:inline;overflow:visible;visibility:visible;fill:#eeeeec;fill-opacity:1;fill-rule:nonzero;stroke:none;stroke-width:2;marker:none;enable-background:accumulate"
         id="rect96x96"
         width="96"
         height="96"
         x="288"
         y="28"
         inkscape:label="96x96" />
    </g>
    <g
       inkscape:groupmode="layer"
       id="layer4"
       inkscape:label="Shadow"
       style="display:inline"
       sodipodi:insensitive="true">
      <rect
         ry="50"
         y="47"
         x="34"
         height="220"
         width="220"
         id="rect4114"
         style="color:#bebebe;display:inline;overflow:visible;visibility:visible;opacity:0.15;fill:#000000;fill-opacity:1;fill-rule:nonzero;stroke:none;stroke-width:0;marker:none;enable-background:accumulate" />
      <rect
         style="color:#bebebe;display:inline;overflow:visible;visibility:visible;opacity:0.15;fill:#000000;fill-opacity:1;fill-rule:nonzero;stroke:none;stroke-width:0;marker:none;enable-background:accumulate"
         id="rect4120"
         width="30"
         height="30"
         x="417"
         y="54"
         ry="7" />
      <rect
         transform="scale(1,-1)"
         ry="9"
         y="-266"
         x="291"
         height="42"
         width="42"
         id="rect4122"
         style="color:#bebebe;display:inline;overflow:visible;visibility:visible;opacity:0.15;fill:#000000;fill-opacity:1;fill-rule:nonzero;stroke:none;stroke-width:0;marker:none;enable-background:accumulate" />
      <rect
         style="color:#bebebe;display:inline;overflow:visible;visibility:visible;opacity:0.15;fill:#000000;fill-opacity:1;fill-rule:nonzero;stroke:none;stroke-width:0;marker:none;enable-background:accumulate"
         id="rect4124"
         width="88"
         height="88"
         x="292"
         y="33"
         ry="18" />
      <rect
         ry="12.5"
         y="143"
         x="290"
         height="60"
         width="60"
         id="rect4126"
         style="color:#bebebe;display:inline;overflow:visible;visibility:visible;opacity:0.15;fill:#000000;fill-opacity:1;fill-rule:nonzero;stroke:none;stroke-width:0;marker:none;enable-background:accumulate" />
      <path
         id="path4268"
         d="m 422,101 c -2.77,0 -5,2.23 -5,5 v 12 c 0,2.77 2.23,5 5,5 h 12 c 2.77,0 5,-2.23 5,-5 v -12 c 0,-2.77 -2.23,-5 -5,-5 z"
         style="color:#bebebe;display:inline;overflow:visible;visibility:visible;opacity:0.15;fill:#000000;fill-opacity:1;fill-rule:nonzero;stroke:none;stroke-width:0;marker:none;enable-background:accumulate"
         inkscape:connector-curvature="0"
         sodipodi:nodetypes="sssssssss" />
      <path
         id="path4270"
         d="m 419,140 c -1.662,0 -3,1.338 -3,3 v 10 c 0,1.662 1.338,3 3,3 h 10 c 1.662,0 3,-1.338 3,-3 v -10 c 0,-1.662 -1.338,-3 -3,-3 z"
         style="color:#bebebe;display:inline;overflow:visible;visibility:visible;opacity:0.15;fill:#000000;fill-opacity:1;fill-rule:nonzero;stroke:none;stroke-width:0;marker:none;enable-background:accumulate"
         inkscape:connector-curvature="0"
         sodipodi:nodetypes="sssssssss" />
    </g>
    <g
       inkscape:groupmode="layer"
       id="layer2"
       inkscape:label="Background"
       style="display:inline">
      <path
         style="color:#bebebe;display:inline;overflow:visible;visibility:visible;fill:url(#linearGradient5744);fill-opacity:1;fill-rule:nonzero;stroke:none;stroke-width:2;marker:none;enable-background:accumulate"
         d="M 84,46.5 C 56.568735,46.5 34.5,68.568732 34.5,96 v 120 c 0,27.43127 22.068735,49.5 49.5,49.5 h 120 c 27.43127,0 49.5,-22.06873 49.5,-49.5 V 96 C 253.5,68.568732 231.43127,46.5 204,46.5 Z"
         id="path4200" />
      <path
         style="color:#bebebe;display:inline;overflow:visible;visibility:visible;fill:url(#linearGradient5746);fill-opacity:1;fill-rule:nonzero;stroke:none;stroke-width:2;marker:none;enable-background:accumulate"
         d="m 419,140.5 c -1.3844,0 -2.5,1.1156 -2.5,2.5 v 10 c 0,1.3844 1.1156,2.5 2.5,2.5 h 10 c 1.3844,0 2.5,-1.1156 2.5,-2.5 v -10 c 0,-1.3844 -1.1156,-2.5 -2.5,-2.5 z"
         id="path4202" />
      <path
         style="color:#bebebe;display:inline;overflow:visible;visibility:visible;fill:url(#linearGradient5748);fill-opacity:1;fill-rule:nonzero;stroke:none;stroke-width:2;marker:none;enable-background:accumulate"
         d="m 422,101.5 c -2.49699,0 -4.5,2.00301 -4.5,4.5 v 12 c 0,2.49699 2.00301,4.5 4.5,4.5 h 12 c 2.49699,0 4.5,-2.00301 4.5,-4.5 v -12 c 0,-2.49699 -2.00301,-4.5 -4.5,-4.5 z"
         id="path4204" />
      <path
         style="color:#bebebe;display:inline;overflow:visible;visibility:visible;fill:url(#linearGradient5750);fill-opacity:1;fill-rule:nonzero;stroke:none;stroke-width:2;marker:none;enable-background:accumulate"
         d="m 424,53.5 c -3.60654,0 -6.5,2.893464 -6.5,6.5 v 16 c 0,3.606536 2.89346,6.5 6.5,6.5 h 16 c 3.60654,0 6.5,-2.893464 6.5,-6.5 V 60 c 0,-3.606536 -2.89346,-6.5 -6.5,-6.5 z"
         id="path4206" />
      <path
         style="color:#bebebe;display:inline;overflow:visible;visibility:visible;fill:url(#linearGradient5752);fill-opacity:1;fill-rule:nonzero;stroke:none;stroke-width:2;marker:none;enable-background:accumulate"
         d="m 300,223.5 c -4.71531,0 -8.5,3.78469 -8.5,8.5 v 24 c 0,4.71531 3.78469,8.5 8.5,8.5 h 24 c 4.71531,0 8.5,-3.78469 8.5,-8.5 v -24 c 0,-4.71531 -3.78469,-8.5 -8.5,-8.5 z"
         id="path4208" />
      <path
         style="color:#bebebe;display:inline;overflow:visible;visibility:visible;fill:url(#linearGradient5754);fill-opacity:1;fill-rule:nonzero;stroke:none;stroke-width:2;marker:none;enable-background:accumulate"
         d="m 310,32.5 c -9.70255,0 -17.5,7.797452 -17.5,17.5 v 52 c 0,9.70255 7.79745,17.5 17.5,17.5 h 52 c 9.70255,0 17.5,-7.79745 17.5,-17.5 V 50 c 0,-9.702548 -7.79745,-17.5 -17.5,-17.5 z"
         id="path4210" />
      <path
         style="color:#bebebe;display:inline;overflow:visible;visibility:visible;fill:url(#linearGradient5756);fill-opacity:1;fill-rule:nonzero;stroke:none;stroke-width:2;marker:none;enable-background:accumulate"
         d="m 302.5,142.5 c -6.65502,0 -12,5.34498 -12,12 v 35 c 0,6.65502 5.34498,12 12,12 h 35 c 6.65502,0 12,-5.34498 12,-12 v -35 c 0,-6.65502 -5.34498,-12 -12,-12 z"
         id="path4212" />
    </g>
    <g
       inkscape:groupmode="layer"
       id="layer6"
       inkscape:label="Symbols"
       style="display:inline">
      <path
         id="path7387"
         style="color:#000000;display:inline;overflow:visible;visibility:visible;opacity:0.2;fill:#000000;fill-opacity:1;fill-rule:nonzero;stroke:none;stroke-width:0;marker:none;enable-background:accumulate"
         d="m 144.22314,82.000213 c -3.83642,-0.0105 -7.66763,0.270551 -11.46101,0.843751 l 1.0547,6.94922 c 6.75085,-1.01572 13.61449,-1.01572 20.36536,0 l 1.05273,-6.94922 c -3.64533,-0.55085 -7.32507,-0.832361 -11.01178,-0.843751 z m -18.22277,2.189454 c -7.31503,1.79985 -14.31483,4.696317 -20.76381,8.589847 l 3.60941,6.02343 c 5.85185,-3.53289 12.20408,-6.16042 18.84191,-7.79296 z m 35.99827,0 -1.68947,6.820317 c 6.63782,1.63254 12.99007,4.26007 18.84193,7.79296 l 3.63478,-6.02343 c -6.45608,-3.89565 -13.46429,-6.792187 -20.78724,-8.589847 z M 143.99853,96.060764 C 96.085832,96.085564 66.944575,148.8501 92.439608,189.41623 l -5.857457,24.99414 24.994299,-5.85938 c 34.32195,21.61705 79.78823,4.29354 91.02206,-34.68164 11.23382,-38.97516 -18.03771,-77.842016 -58.59998,-77.808586 z m -44.527627,0.56445 C 93.427984,101.08416 88.08797,106.42413 83.629002,112.46701 l 5.660196,4.21679 c 4.053086,-5.4937 8.908047,-10.3482 14.402432,-14.40039 z m 89.055257,0 -4.21878,5.658196 c 5.49438,4.05219 10.34936,8.90669 14.40243,14.40039 l 5.6602,-4.21679 c -4.45967,-6.04305 -9.80013,-11.38303 -15.84385,-15.841796 z M 79.787177,118.23068 c -3.893545,6.44895 -6.790043,13.45063 -8.589895,20.76562 l 6.820354,1.68555 c 1.63183,-6.63765 4.258947,-12.98983 7.79107,-18.8418 z m 128.426603,0 -6.02348,3.60937 c 3.53082,5.84472 6.15635,12.19047 7.79107,18.82032 l 6.82036,-1.68946 c -1.80225,-7.30627 -4.69672,-14.29909 -8.58795,-20.74023 z M 69.849613,145.75607 c -1.124817,7.44919 -1.124817,15.02542 0,22.47461 l 6.947315,-1.05469 c -0.509433,-3.37007 -0.763805,-6.7733 -0.761725,-10.18164 -0.002,-3.40835 0.252292,-6.81354 0.761725,-10.18359 z m 148.299777,0 -6.94731,1.05469 c 0.50867,3.37011 0.7626,6.7753 0.75977,10.18359 0.002,3.40829 -0.2511,6.81151 -0.75977,10.18164 l 6.94731,1.05469 c 1.12481,-7.44919 1.12481,-15.02542 0,-22.47461 z m -140.131754,27.54883 -6.820354,1.68554 c 1.52888,6.21375 3.852835,12.20488 6.914104,17.82422 l -1.722661,7.40625 6.841834,1.59375 2.343765,-10.0664 C 82.158702,186.00698 79.612436,179.7922 78.017636,173.3049 Z m 131.963734,0 c -1.63254,6.63777 -4.25815,12.98997 -7.79107,18.84179 l 6.02348,3.63282 c 3.89568,-6.45603 6.79028,-13.46618 8.58795,-20.78907 z m -11.27156,24.00976 c -4.05396,5.48965 -8.90888,10.33996 -14.40243,14.38867 l 4.17386,5.66016 c 6.05997,-4.45523 11.41517,-9.7954 15.88877,-15.8418 z m -123.785944,9.17578 -3.388692,14.51758 c -1.188427,5.07818 3.373332,9.63706 8.451224,8.44727 l 14.504003,-3.32617 -1.59181,-6.9043 -14.519623,3.38867 3.386742,-14.51953 z M 179.1511,215.1838 c -5.84406,3.53057 -12.18743,6.15803 -18.81653,7.79297 l 1.68751,6.82031 c 7.30631,-1.80225 14.29723,-4.69864 20.73841,-8.58984 z m -69.90669,0.22266 -0.0469,0.0469 -10.064519,2.34375 1.591799,6.84375 7.4063,-1.72461 c 5.61938,3.06125 11.61055,5.38519 17.82433,6.91406 l 1.68557,-6.81836 c -6.47417,-1.61413 -12.67231,-4.17726 -18.3966,-7.60547 z m 24.57242,8.79883 -1.0547,6.95117 c 7.44925,1.12481 15.02355,1.12481 22.47279,0 l -1.05273,-6.95117 c -6.75087,1.01571 -13.61451,1.01571 -20.36536,0 z"
         sodipodi:nodetypes="ccccccccccccccccccccsccccccccccccccccccccccccccccccccccccccccccccccccccccccccccccccccccccccccccccc" />
      <path
         id="path7389"
         style="color:#000000;display:inline;overflow:visible;visibility:visible;opacity:0.2;fill:#000000;fill-opacity:1;fill-rule:nonzero;stroke:none;stroke-width:0;marker:none;enable-background:accumulate"
         d="m 336.09082,47.000275 c -1.53455,-0.004 -3.06851,0.108601 -4.58585,0.337891 l 0.42187,2.779296 c 2.70002,-0.4062 5.4463,-0.4062 8.14632,0 l 0.42187,-2.779296 c -1.45812,-0.220341 -2.92954,-0.333331 -4.40421,-0.337891 z m -7.29088,0.876953 c -2.92566,0.72003 -5.72524,1.878197 -8.30452,3.435547 l 1.44332,2.408203 c 2.34072,-1.41318 4.88187,-2.464167 7.53697,-3.117188 z m 14.40011,0 -0.67576,2.726562 c 2.65509,0.65302 5.19625,1.704008 7.53696,3.117188 l 1.4531,-2.408203 c -2.58241,-1.55828 -5.38515,-2.716477 -8.3143,-3.435547 z m -7.19908,4.748047 c -19.16488,0.01 -30.8225,21.1151 -20.6246,37.341797 l -2.34175,9.998046 9.9959,-2.34375 c 13.72864,8.646952 31.91598,1.717259 36.40946,-13.873046 4.49348,-15.590305 -7.21426,-31.136427 -23.43901,-31.123047 z m -17.81216,0.224609 c -2.41714,1.7836 -4.55224,3.9207 -6.3358,6.337891 l 2.26362,1.685547 c 1.62094,-2.197449 3.56224,-4.138796 5.75965,-5.759766 z m 35.62237,0 -1.68747,2.263672 c 2.19741,1.62097 4.13872,3.562317 5.75966,5.759766 l 2.26363,-1.685547 c -1.78358,-2.417191 -3.91868,-4.554291 -6.33582,-6.337891 z m -43.49721,8.642578 c -1.55741,2.579616 -2.71553,5.380603 -3.43548,8.306641 l 2.72846,0.673828 c 0.65301,-2.655148 1.70398,-5.196345 3.11713,-7.537109 z m 51.37011,0 -2.40817,1.44336 c 1.41231,2.337925 2.46324,4.877318 3.11713,7.529297 l 2.72847,-0.675782 c -0.7209,-2.922551 -1.88095,-5.720382 -3.43743,-8.296875 z m -55.34465,11.009766 c -0.44991,2.979721 -0.44991,6.010513 0,8.990234 l 2.78121,-0.421875 c -0.20378,-1.348044 -0.30551,-2.708907 -0.30468,-4.072265 -9.3e-4,-1.363359 0.1009,-2.724222 0.30468,-4.072266 z m 59.32113,0 -2.77925,0.423828 c 0.20377,1.348044 0.30552,2.708907 0.30469,4.072266 9.3e-4,1.363358 -0.10092,2.724221 -0.30469,4.072265 l 2.77925,0.421875 c 0.44992,-2.979721 0.44992,-6.010513 0,-8.990234 z m -56.05361,11.019531 -2.72846,0.675781 c 0.61155,2.48554 1.54108,4.881135 2.76557,7.128907 l -0.68944,2.96289 2.73823,0.636719 0.93748,-4.025391 c -1.36623,-2.296542 -2.38547,-4.783944 -3.02338,-7.378906 z m 52.78609,0 c -0.65302,2.655148 -1.70398,5.196345 -3.11713,7.53711 l 2.40817,1.453124 c 1.55826,-2.582456 2.71836,-5.385248 3.43743,-8.314453 z m -4.50967,9.605469 c -1.62129,2.195825 -3.56259,4.136281 -5.75966,5.755859 l 1.66794,2.263673 c 2.42396,-1.782119 4.56592,-3.919291 6.35535,-6.337892 z m -49.51468,3.669922 -1.35348,5.80664 c -0.47591,2.03118 1.34757,3.85428 3.37884,3.37891 l 5.80262,-1.33008 -0.6367,-2.76172 -5.80653,1.35547 1.35348,-5.808595 z m 41.69256,3.47656 c -2.33787,1.41234 -4.87527,2.46329 -7.52719,3.11719 l 0.67381,2.72852 c 2.92282,-0.72083 5.71998,-1.87896 8.29671,-3.43555 z m -27.96235,0.0898 -0.0195,0.0195 -4.02531,0.9375 0.63671,2.73633 2.96087,-0.68945 c 2.24773,1.22451 4.64523,2.15406 7.13072,2.76562 l 0.67382,-2.72851 c -2.58933,-0.64575 -5.06787,-1.6698 -7.35728,-3.04102 z m 9.82794,3.51953 -0.42187,2.7793 c 2.97967,0.44993 6.0104,0.44993 8.99006,0 l -0.42187,-2.77929 c -2.70002,0.4062 -5.4463,0.4062 -8.14632,0 z"
         sodipodi:nodetypes="ccccccccccccccccccccsccccccccccccccccccccccccccccccccccccccccccccccccccccccccccccccccccccccscccccc" />
      <path
         id="path7534"
         style="color:#000000;display:inline;overflow:visible;visibility:visible;opacity:0.2;fill:#000000;fill-opacity:1;fill-rule:nonzero;stroke:none;stroke-width:0;marker:none;enable-background:accumulate"
         d="m 319.84961,153.0001 c -0.95274,0.007 -1.90363,0.0823 -2.84571,0.2246 l 0.28125,1.85348 c 1.80022,-0.27084 3.63141,-0.27084 5.43164,0 l 0.28125,-1.85348 c -1.04179,-0.15736 -2.09486,-0.23248 -3.14843,-0.2246 z m -4.64844,0.58398 c -1.95047,0.48001 -3.81759,1.25275 -5.53711,2.29095 l 0.96289,1.60544 c 1.56049,-0.94209 3.25336,-1.64275 5.02344,-2.07808 z m 9.59961,0 -0.44922,1.81831 c 1.76987,0.43539 3.46314,1.13605 5.02344,2.07808 l 0.96875,-1.60544 c -1.72161,-1.03882 -3.59019,-1.81158 -5.54297,-2.29095 z M 320,156.75001 c -12.77666,0.007 -20.54669,14.07655 -13.74805,24.89396 l -1.5625,6.66586 6.66407,-1.56246 c 9.15248,5.76443 21.27776,1.14337 24.27343,-9.24979 C 338.62263,167.10442 330.81657,156.7411 320,156.75001 Z m -11.87305,0.15039 c -1.61147,1.1892 -3.03559,2.61289 -4.2246,4.22451 l 1.50977,1.12498 c 1.08076,-1.46518 2.37463,-2.76097 3.83983,-3.84172 z m 23.74805,0 -1.125,1.50777 c 1.46522,1.08075 2.75908,2.37654 3.83984,3.84172 l 1.50977,-1.12498 c -1.18919,-1.61166 -2.6129,-3.03535 -4.22461,-4.22451 z m -28.99805,5.76159 c -1.03823,1.71949 -1.80903,3.58656 -2.28906,5.53698 l 1.81836,0.44921 c 0.43541,-1.76983 1.13606,-3.46307 2.07812,-5.02333 z m 34.24805,0 -1.60743,0.96286 c 0.94149,1.55837 1.64215,3.24975 2.07813,5.01747 l 1.81836,-0.44921 c -0.4806,-1.94831 -1.25141,-3.81352 -2.28906,-5.53112 z m -36.89844,7.33967 c -0.30001,1.98661 -0.30001,4.00739 0,5.994 l 1.85351,-0.28124 c -0.13585,-0.89867 -0.20368,-1.80785 -0.20312,-2.71673 -6.3e-4,-0.90907 0.0672,-1.81592 0.20312,-2.71479 z m 39.54687,0 -1.85156,0.28124 c 0.13567,0.89888 0.20392,1.80573 0.20313,2.71479 6.3e-4,0.90886 -0.0675,1.81805 -0.20313,2.71673 l 1.85156,0.28124 c 0.30001,-1.9866 0.30001,-4.00739 0,-5.994 z m -37.36718,7.34554 -1.81836,0.45116 c 0.40776,1.65675 1.02747,3.25357 1.84375,4.75184 l -0.46094,1.97456 1.82617,0.42577 0.62305,-2.68548 c -0.91078,-1.53078 -1.58834,-3.18815 -2.01367,-4.91785 z m 35.18945,0 c -0.43533,1.77003 -1.13601,3.46482 -2.07812,5.02527 l 1.60743,0.96873 c 1.03884,-1.72158 1.80968,-3.59011 2.28906,-5.54284 z m -3.00585,6.40219 c -1.08101,1.46408 -2.37485,2.75798 -3.83984,3.8378 l 1.11328,1.50973 c 1.61599,-1.18803 3.04336,-2.61217 4.23633,-4.22451 z m -33.00977,2.44721 -0.90234,3.871 c -0.31747,1.35439 0.89753,2.57132 2.25195,2.25386 l 3.86914,-0.8867 -0.42578,-1.84176 -3.87109,0.90428 0.9043,-3.87296 z m 27.79493,2.31831 c -1.55841,0.94147 -3.24983,1.6421 -5.01758,2.07807 l 0.44922,1.81832 c 1.94834,-0.48059 3.81361,-1.25333 5.53125,-2.29097 z m -18.64258,0.0605 -0.0117,0.0117 -2.68359,0.62498 0.42382,1.82418 1.9746,-0.45897 c 1.49851,0.8161 3.09695,1.43622 4.75392,1.84371 l 0.44922,-1.81832 c -1.72623,-0.43048 -3.37996,-1.11319 -4.90625,-2.0273 z m 6.55273,2.34565 -0.28125,1.85347 c 1.98665,0.30001 4.00749,0.30001 5.99414,0 l -0.28125,-1.85347 c -1.80022,0.27086 -3.63142,0.27086 -5.43164,0 z"
         sodipodi:nodetypes="ccccccccccccccccccccsccccccccccccccccccccccccccccccccccccccccccccccccccccccccccccccccccccccscccccc" />
      <path
         id="path7536"
         style="color:#000000;display:inline;overflow:visible;visibility:visible;opacity:0.2;fill:#000000;fill-opacity:1;fill-rule:nonzero;stroke:none;stroke-width:0;marker:none;enable-background:accumulate"
         d="m 312.04199,231.00005 c -0.71616,-0.002 -1.4326,0.0512 -2.14073,0.1582 l 0.19727,1.29681 c 1.26022,-0.18959 2.54271,-0.18959 3.80294,0 l 0.19532,-1.29681 c -0.6805,-0.10281 -1.36658,-0.15607 -2.0548,-0.1582 z m -3.40251,0.41014 c -1.36539,0.336 -2.67147,0.87672 -3.8752,1.60344 l 0.67387,1.123 c 1.09239,-0.65945 2.27668,-1.14833 3.5158,-1.45306 z m 6.71909,0 -0.31447,1.27338 c 1.23912,0.30473 2.42536,0.79361 3.51775,1.45306 l 0.67778,-1.123 c -1.20519,-0.72716 -2.51404,-1.26789 -3.88106,-1.60344 z m -3.35955,2.21474 c -8.9441,0.005 -14.38281,9.85496 -9.62353,17.42696 l -1.0938,4.66385 4.66624,-1.0937 c 6.40705,4.035 14.89403,0.80267 16.9911,-6.47237 2.09707,-7.27504 -3.36806,-14.53098 -10.94001,-14.52474 z m -8.31096,0.10547 c -1.12821,0.83227 -2.12664,1.82891 -2.95914,2.95689 l 1.05669,0.78708 c 0.75661,-1.02545 1.66394,-1.931 2.6896,-2.68738 z m 16.62388,0 -0.78715,1.05659 c 1.02551,0.75641 1.93116,1.66196 2.68764,2.68738 l 1.05669,-0.78708 c -0.83238,-1.12795 -1.82912,-2.12459 -2.95718,-2.95689 z m -20.29986,4.03302 c -0.72681,1.20375 -1.2676,2.51137 -1.60359,3.87678 l 1.27351,0.31444 c 0.30475,-1.239 0.79563,-2.42513 1.45514,-3.51743 z m 23.97388,0 -1.12311,0.67379 c 0.65896,1.091 1.14818,2.27603 1.4532,3.51352 l 1.27351,-0.31444 c -0.33639,-1.36392 -0.87717,-2.67045 -1.6036,-3.87287 z m -25.82748,5.13844 c -0.20997,1.39046 -0.20997,2.80467 0,4.19512 l 1.29693,-0.19726 c -0.0951,-0.62905 -0.14296,-1.2641 -0.14257,-1.9003 -4.4e-4,-0.63619 0.0475,-1.27125 0.14257,-1.90031 z m 27.68304,0 -1.29693,0.19725 c 0.0951,0.62906 0.14296,1.26412 0.14257,1.90031 4.4e-4,0.6362 -0.0475,1.27125 -0.14257,1.9003 l 1.29693,0.19726 c 0.20997,-1.39045 0.20997,-2.80466 0,-4.19512 z m -26.15952,5.14235 -1.27351,0.31444 c 0.28541,1.15986 0.71961,2.27712 1.29108,3.32602 l -0.32228,1.38275 1.2774,0.29686 0.43753,-1.87882 c -0.63761,-1.07166 -1.11251,-2.23035 -1.41022,-3.44125 z m 24.63405,0 c -0.30462,1.23898 -0.79384,2.42509 -1.4532,3.51741 l 1.12311,0.67771 c 0.72722,-1.20507 1.26802,-2.51379 1.6036,-3.88068 z m -2.10362,4.48026 c -0.75665,1.02465 -1.66229,1.93162 -2.68764,2.68738 l 0.77739,1.05464 c 1.13124,-0.83161 2.13183,-1.82829 2.96694,-2.9569 z m -23.10859,1.71281 -0.6309,2.71082 c -0.22171,0.94766 0.62851,1.79779 1.57625,1.5761 l 2.70913,-0.62106 -0.29884,-1.28705 -2.70912,0.63083 0.63089,-2.70886 z m 19.45801,1.62298 c -1.09106,0.65905 -2.2762,1.14988 -3.51385,1.45501 l 0.31643,1.27339 c 1.36405,-0.33637 2.66875,-0.87709 3.87129,-1.60345 z m -13.04949,0.041 -0.01,0.01 -1.879,0.43748 0.29884,1.27729 1.38093,-0.32226 c 1.049,0.57141 2.16834,1.00559 3.3283,1.29097 l 0.31447,-1.27339 c -1.20843,-0.30132 -2.36532,-0.77999 -3.43378,-1.41985 z m 4.58617,1.6425 -0.19727,1.29877 c 1.39058,0.20996 2.80495,0.20996 4.19553,0 l -0.19532,-1.29877 c -1.26023,0.18959 -2.54272,0.18959 -3.80294,0 z"
         sodipodi:nodetypes="ccccccccccccccccccccsccccccccccccccccccccccccccccccccccccccccccccccccccccccccccccccccccccccccccccc" />
      <path
         id="path7538"
         style="color:#000000;display:inline;overflow:visible;visibility:visible;opacity:0.2;fill:#000000;fill-opacity:1;fill-rule:nonzero;stroke:none;stroke-width:0;marker:none;enable-background:accumulate"
         d="m 431.90742,59.000592 c -0.47013,0.0042 -0.93939,0.04137 -1.4043,0.111328 l 0.14062,0.927734 c 0.90054,-0.135555 1.81627,-0.135555 2.7168,0 l 0.14063,-0.927734 c -0.52745,-0.07941 -1.06039,-0.116633 -1.59375,-0.111328 z m -2.30469,0.291015 c -0.97572,0.240289 -1.90946,0.626825 -2.76953,1.146485 l 0.48242,0.802734 c 0.78006,-0.471009 1.62688,-0.821326 2.51172,-1.039063 z m 4.79883,0 -0.22461,0.910156 c 0.88484,0.217737 1.73166,0.568054 2.51172,1.039063 l 0.48437,-0.802734 c -0.86068,-0.519841 -1.79508,-0.906383 -2.77148,-1.146485 z m -2.40039,1.583985 c -6.38759,0.0045 -10.27182,7.038971 -6.87305,12.447265 l -0.78125,3.332031 3.33203,-0.78125 c 4.57638,2.883531 10.63886,0.572506 12.13672,-4.625 1.49786,-5.197506 -2.40539,-10.378885 -7.81445,-10.373046 z m -5.93555,0.07422 c -0.80616,0.594763 -1.51852,1.30712 -2.11328,2.113282 l 0.75586,0.5625 c 0.54015,-0.733132 1.18734,-1.380983 1.91992,-1.921876 z m 11.87305,0 -0.5625,0.753906 c 0.73258,0.540893 1.37977,1.188744 1.91992,1.921876 l 0.75586,-0.5625 c -0.59476,-0.806162 -1.30712,-1.518519 -2.11328,-2.113282 z m -14.49805,2.880858 c -0.51966,0.860069 -0.90619,1.793813 -1.14648,2.769531 l 0.91015,0.224609 c 0.21755,-0.885514 0.56787,-1.733003 1.03906,-2.513672 z m 17.12305,0 -0.80274,0.480468 c 0.47083,0.779458 0.82114,1.625604 1.03907,2.509766 l 0.9082,-0.224609 c -0.24005,-0.974255 -0.62591,-1.906652 -1.14453,-2.765625 z m -18.44922,3.669922 c -0.14993,0.99307 -0.14993,2.003022 0,2.996093 l 0.92773,-0.140625 c -0.0679,-0.449281 -0.10184,-0.903039 -0.10156,-1.357422 -2.8e-4,-0.454382 0.0337,-0.908141 0.10156,-1.357422 z m 19.77344,0 -0.92579,0.140624 c 0.0679,0.449281 0.10186,0.90304 0.10157,1.357422 2.9e-4,0.454383 -0.0337,0.908141 -0.10157,1.357422 l 0.92579,0.140625 c 0.14993,-0.993071 0.14993,-2.003022 0,-2.996093 z m -18.6836,3.673828 -0.91015,0.224609 c 0.20382,0.828657 0.51366,1.627565 0.92187,2.376953 l -0.22851,0.986328 0.9121,0.212891 0.3125,-1.341797 c -0.45547,-0.765425 -0.79509,-1.594072 -1.00781,-2.458984 z m 17.59571,0 c -0.21774,0.884838 -0.56806,1.731655 -1.03907,2.511718 l 0.80274,0.484375 c 0.51916,-0.86079 0.90504,-1.7952 1.14453,-2.771484 z m -1.50391,3.201172 c -0.54045,0.731745 -1.18763,1.378264 -1.91992,1.917968 l 0.55664,0.75586 c 0.80824,-0.59431 1.52259,-1.30669 2.11914,-2.113282 z m -16.50391,1.222656 -0.45117,1.935547 c -0.15853,0.676489 0.44824,1.284307 1.125,1.126953 l 1.93555,-0.44336 -0.21289,-0.919922 -1.93555,0.451172 0.45117,-1.935546 z m 13.89649,1.160156 c -0.77885,0.470648 -1.62433,0.820953 -2.50782,1.039062 l 0.22461,0.908204 c 0.97425,-0.24005 1.90666,-0.625916 2.76563,-1.144532 z m -9.32032,0.0293 -0.006,0.0059 -1.34376,0.3125 0.2129,0.91211 0.98828,-0.228516 c 0.74939,0.408207 1.54829,0.718055 2.37695,0.921875 l 0.22461,-0.910156 c -0.86321,-0.215109 -1.68987,-0.556695 -2.45313,-1.013672 z m 3.27539,1.173828 -0.14062,0.925781 c 0.99371,0.150122 2.00434,0.150122 2.99805,0 l -0.14063,-0.925781 c -0.90053,0.135555 -1.81626,0.135555 -2.7168,0 z"
         sodipodi:nodetypes="ccccccccccccccccccccsccccccccccccccccccccccccccccccccccccccccccccccccccccccccccccccccccccccccccccc" />
      <path
         id="path3899"
         style="color:#000000;display:inline;overflow:visible;visibility:visible;opacity:0.2;fill:#000000;fill-opacity:1;fill-rule:nonzero;stroke:none;stroke-width:0;marker:none;enable-background:accumulate"
         d="m 427.9993,106.007 c -5.49734,0.003 -8.84123,6.05649 -5.91601,10.71094 l -0.67188,2.86718 2.86719,-0.67187 c 3.93798,2.48027 9.15443,0.49142 10.44336,-3.98047 1.28893,-4.4719 -2.0687,-8.92961 -6.72266,-8.92578 z"
         sodipodi:nodetypes="ccccsc" />
      <path
         id="path3901"
         style="color:#000000;display:inline;overflow:visible;visibility:visible;opacity:0.2;fill:#000000;fill-opacity:1;fill-rule:nonzero;stroke:none;stroke-width:0;marker:none;enable-background:accumulate"
         d="m 423.99864,144.005 c -3.92667,0.002 -6.31405,4.32579 -4.22461,7.65039 l -0.48047,2.04883 2.04883,-0.48047 c 2.81283,1.77163 6.53832,0.35242 7.45898,-2.8418 0.92067,-3.1942 -1.47847,-6.37968 -4.80273,-6.37695 z"
         sodipodi:nodetypes="ccccsc" />
      <path
         id="path3118"
         style="color:#000000;display:inline;overflow:visible;visibility:visible;fill:#ffffff;fill-opacity:1;fill-rule:nonzero;stroke:none;stroke-width:0;marker:none;enable-background:accumulate"
         d="m 144.22313,81.000285 c -3.8364,-0.0105 -7.66804,0.2713 -11.4614,0.8445 l 1.05506,6.94825 c 6.75081,-1.01572 13.61559,-1.01572 20.36641,0 l 1.05277,-6.94825 c -3.64531,-0.55085 -7.32616,-0.83311 -11.01284,-0.8445 z m -18.22197,2.19021 c -7.31498,1.79985 -14.31569,4.69565 -20.76463,8.58918 l 3.60914,6.02365 c 5.85182,-3.53289 12.20442,-6.1602 18.8422,-7.79274 z m 35.99767,0 -1.689,6.82009 c 6.63777,1.63254 12.99037,4.25985 18.84219,7.79274 l 3.63433,-6.02365 c -6.45604,-3.89565 -13.46461,-6.79152 -20.78752,-8.58918 z m -17.99999,11.87106 c -47.912387,0.0248 -77.052847,52.788895 -51.557977,93.355015 l -5.85887,24.994 24.993997,-5.85886 c 34.32173,21.61705 79.78785,4.2925 91.0216,-34.68268 11.23376,-38.97516 -18.03673,-77.840905 -58.59875,-77.807475 z m -44.527347,0.563 c -6.04288,4.458945 -11.38287,9.798935 -15.84181,15.841815 l 5.65975,4.21792 c 4.05306,-5.4937 8.90793,-10.34779 14.402277,-14.39998 z m 89.054707,0 -4.21793,5.659755 c 5.49435,4.05219 10.34923,8.90628 14.40228,14.39998 l 5.65976,-4.21792 c -4.45964,-6.04305 -9.80042,-11.38305 -15.84411,-15.841815 z M 79.787092,117.23139 c -3.893519,6.44895 -6.789339,13.44965 -8.58918,20.76464 l 6.820081,1.68671 c 1.63182,-6.63765 4.25836,-12.99023 7.79046,-18.8422 z m 128.425798,0 -6.02364,3.60915 c 3.53079,5.84472 6.15803,12.18946 7.79274,18.81931 l 6.82009,-1.689 c -1.80224,-7.30627 -4.69799,-14.29832 -8.58919,-20.73946 z M 69.849923,144.75661 c -1.12481,7.44919 -1.12481,15.02504 0,22.47423 l 6.948229,-1.05505 c -0.509429,-3.37007 -0.76419,-6.77373 -0.76211,-10.18207 -0.002,-3.40835 0.25268,-6.81201 0.76211,-10.18206 z m 148.300157,0 -6.94825,1.05505 c 0.50867,3.37011 0.76265,6.77377 0.75982,10.18206 0.002,3.40829 -0.25115,6.81194 -0.75982,10.18207 l 6.94825,1.05505 c 1.12481,-7.44919 1.12481,-15.02504 0,-22.47423 z m -140.132087,27.54809 -6.82008,1.68672 c 1.52887,6.21375 3.85267,12.2044 6.91392,17.82374 l -1.72334,7.40598 6.84297,1.59287 2.34355,-10.06533 c -3.4156,-5.74128 -5.96223,-11.95668 -7.55702,-18.44398 z m 131.963997,0 c -1.63253,6.63777 -4.25985,12.99037 -7.79274,18.84219 l 6.02364,3.63204 c 3.89565,-6.45603 6.79153,-13.46462 8.58919,-20.78751 z m -11.27144,24.00989 c -4.05394,5.48965 -8.90876,10.33984 -14.40228,14.38855 l 4.17216,5.65974 c 6.05994,-4.45523 11.41631,-9.79541 15.88988,-15.84181 z m -123.786777,9.17508 -3.38715,14.51898 c -1.18842,5.07818 3.37172,9.63709 8.44958,8.4473 l 14.50526,-3.32766 -1.59287,-6.90246 -14.519001,3.38714 3.38716,-14.51898 z m 104.228247,8.69445 c -5.84402,3.53057 -12.18796,6.15781 -18.81702,7.79275 l 1.68671,6.82008 c 7.30627,-1.80225 14.29832,-4.69799 20.73946,-8.58919 z m -69.90812,0.222 -0.0458,0.048 -10.065338,2.34354 1.592888,6.84297 7.40596,-1.72333 c 5.61934,3.06125 11.61001,5.38505 17.82376,6.91392 l 1.68671,-6.82008 c -6.47412,-1.61413 -12.67394,-4.17688 -18.3982,-7.60509 z m 24.57289,8.79974 -1.05506,6.95053 c 7.4492,1.12481 15.02504,1.12481 22.47424,0 l -1.05277,-6.95053 c -6.75082,1.01571 -13.6156,1.01571 -20.36641,0 z"
         sodipodi:nodetypes="ccccccccccccccccccccsccccccccccccccccccccccccccccccccccccccccccccccccccccccccccccccccccccccscccccc" />
      <path
         id="path3915"
         style="color:#000000;display:inline;overflow:visible;visibility:visible;fill:#ffffff;fill-opacity:1;fill-rule:nonzero;stroke:none;stroke-width:0;marker:none;enable-background:accumulate"
         d="m 336.09017,46.000106 c -1.53459,-0.004 -3.06726,0.10852 -4.58464,0.33781 l 0.42204,2.77934 c 2.70006,-0.4062 5.44571,-0.4062 8.14578,0 l 0.42201,-2.77934 c -1.45814,-0.22034 -2.9305,-0.33325 -4.40519,-0.33781 z m -7.28981,0.8761 c -2.92573,0.72003 -5.72573,1.87837 -8.30507,3.43572 l 1.44369,2.4095 c 2.34076,-1.41318 4.88185,-2.46413 7.53699,-3.11715 z m 14.39929,0 -0.67469,2.72807 c 2.65515,0.65302 5.19624,1.70397 7.53699,3.11715 l 1.45284,-2.4095 c -2.58247,-1.55828 -5.38592,-2.71665 -8.31514,-3.43572 z m -7.19918,4.7485 c -19.16526,0.01 -30.82162,21.115877 -20.62352,37.342574 l -2.34357,9.997751 9.99775,-2.34358 c 13.72891,8.646959 31.91564,1.717027 36.4092,-13.873279 4.49356,-15.590305 -7.21481,-31.136846 -23.43986,-31.123466 z m -17.81122,0.2252 c -2.41719,1.7836 -4.55322,3.91963 -6.33681,6.336821 l 2.26393,1.687195 c 1.62097,-2.197449 3.56264,-4.139116 5.76009,-5.760086 z m 35.62241,0 -1.68718,2.26393 c 2.19745,1.62097 4.13911,3.562637 5.76008,5.760086 l 2.26394,-1.687195 c -1.78361,-2.417191 -3.91965,-4.553221 -6.33684,-6.336821 z m -43.49722,8.642868 c -1.55744,2.579616 -2.71577,5.379942 -3.43573,8.30598 l 2.72808,0.674694 c 0.65302,-2.655148 1.70397,-5.196228 3.11714,-7.536992 z m 51.3711,0 -2.40857,1.443682 c 1.41233,2.337925 2.46325,4.875859 3.11714,7.527838 l 2.72717,-0.675611 c -0.72091,-2.922551 -1.87921,-5.719416 -3.43574,-8.295909 z m -55.34603,11.010252 c -0.44993,2.979721 -0.44993,6.010108 0,8.989829 l 2.78026,-0.422028 c -0.20378,-1.348044 -0.30569,-2.709528 -0.30486,-4.072886 -9.3e-4,-1.363359 0.10108,-2.724843 0.30486,-4.072887 z m 59.32097,0 -2.77934,0.422028 c 0.20378,1.348044 0.30568,2.709528 0.30485,4.072887 9.3e-4,1.363358 -0.10108,2.724842 -0.30485,4.072886 l 2.77934,0.422028 c 0.44993,-2.979721 0.44993,-6.010108 0,-8.989829 z m -56.05369,11.019407 -2.72808,0.674695 c 0.61156,2.48554 1.5411,4.881839 2.76561,7.129611 l -0.68934,2.962433 2.73723,0.637161 0.93743,-4.026199 c -1.36626,-2.296542 -2.38493,-4.782739 -3.02285,-7.377701 z m 52.78732,0 c -0.65303,2.655148 -1.70397,5.196228 -3.11714,7.536992 l 2.40857,1.452837 c 1.55829,-2.582456 2.71665,-5.385929 3.43573,-8.315134 z m -4.50956,9.604103 c -1.62132,2.195825 -3.56297,4.135927 -5.76008,5.755505 l 1.66797,2.263939 c 2.42401,-1.782122 4.56659,-3.918225 6.35605,-6.336826 z m -49.51547,3.670084 -1.35397,5.80677 c -0.47592,2.03118 1.34767,3.85526 3.37897,3.37989 l 5.80311,-1.33108 -0.63807,-2.76104 -5.80677,1.35489 1.35396,-5.807692 z m 41.69285,3.477837 c -2.33792,1.412333 -4.87585,2.463253 -7.52783,3.117153 l 0.67469,2.72715 c 2.92287,-0.72082 5.72006,-1.87913 8.29683,-3.43572 z m -27.96366,0.0888 -0.0192,0.01922 -4.02621,0.937433 0.63808,2.73723 2.96152,-0.68934 c 2.24777,1.22451 4.64407,2.15405 7.12962,2.76561 l 0.67469,-2.72808 c -2.58938,-0.64574 -5.06903,-1.67086 -7.35848,-3.042078 z m 9.8293,3.519953 -0.42204,2.77934 c 2.97974,0.44993 6.01011,0.44993 8.98983,0 l -0.42201,-2.77934 c -2.70007,0.4062 -5.44572,0.4062 -8.14578,0 z"
         sodipodi:nodetypes="ccccccccccccccccccccscccccccccccccccccccccccccccccccccccccccccccccccccccccccccccccccccccccccccccc" />
      <path
         id="path7528"
         style="color:#000000;display:inline;overflow:visible;visibility:visible;fill:#ffffff;fill-opacity:1;fill-rule:nonzero;stroke:none;stroke-width:0;marker:none;enable-background:accumulate"
         d="m 319.84895,152.00057 c -0.95274,0.007 -1.90375,0.0823 -2.84583,0.22459 l 0.28135,1.85287 c 1.80022,-0.27085 3.63083,-0.27085 5.43105,0 l 0.28135,-1.85287 c -1.04179,-0.15737 -2.09435,-0.23247 -3.14792,-0.22459 z m -4.64865,0.58406 c -1.95046,0.48002 -3.81711,1.25223 -5.53664,2.29046 l 0.96183,1.6063 c 1.5605,-0.94211 3.25453,-1.64272 5.02461,-2.07807 z m 9.59939,0 -0.44979,1.81869 c 1.76987,0.43541 3.46369,1.13602 5.02399,2.07807 l 0.96915,-1.6063 c -1.72161,-1.03885 -3.59057,-1.81108 -5.54335,-2.29046 z m -4.8,3.16562 c -12.77666,0.007 -20.54747,14.07707 -13.74883,24.89473 l -1.56236,6.66508 6.66508,-1.56237 c 9.15248,5.76456 21.2768,1.14467 24.27247,-9.24873 2.99567,-10.3934 -4.8098,-20.75762 -15.62636,-20.74871 z m -11.87399,0.14953 c -1.61148,1.18923 -3.03548,2.61344 -4.22449,4.2251 l 1.50927,1.12478 c 1.08077,-1.46521 2.37541,-2.75984 3.84062,-3.84061 z m 23.74797,0 -1.12478,1.50927 c 1.46521,1.08077 2.75985,2.3754 3.84062,3.84061 l 1.50927,-1.12478 c -1.18919,-1.6117 -2.61341,-3.03591 -4.22511,-4.2251 z m -28.99715,5.76244 c -1.03822,1.71953 -1.81043,3.58618 -2.29045,5.53664 l 1.81869,0.44979 c 0.4354,-1.76987 1.13602,-3.46369 2.07807,-5.02398 z m 34.24695,0 -1.60631,0.96245 c 0.94149,1.5584 1.64209,3.25012 2.07807,5.01788 l 1.81869,-0.44979 c -0.48059,-1.94835 -1.25279,-3.8129 -2.29045,-5.53054 z m -36.89687,7.33946 c -0.3,1.98666 -0.3,4.0071 0,5.99375 l 1.85287,-0.28134 c -0.13585,-0.89869 -0.20379,-1.80633 -0.20323,-2.71523 -6.3e-4,-0.90909 0.0673,-1.81694 0.20323,-2.71583 z m 39.54679,0 -1.85287,0.28135 c 0.13567,0.8989 0.20342,1.80675 0.20263,2.71583 6.2e-4,0.90888 -0.067,1.81653 -0.20263,2.71523 l 1.85287,0.28134 c 0.30001,-1.98665 0.30001,-4.00709 0,-5.99375 z m -37.36863,7.34679 -1.81869,0.44979 c 0.40776,1.65679 1.02743,3.2541 1.84371,4.7524 l -0.45956,1.97493 1.8248,0.42538 0.62495,-2.68471 c -0.91078,-1.53082 -1.58988,-3.18805 -2.01521,-4.91779 z m 35.19047,0 c -0.43534,1.77007 -1.13596,3.4641 -2.07807,5.02459 l 1.60631,0.96855 c 1.03884,-1.72162 1.81107,-3.59057 2.29045,-5.54335 z m -3.00572,6.40204 c -1.081,1.46412 -2.37563,2.75772 -3.84062,3.83756 l 1.11258,1.50927 c 1.61599,-1.18806 3.04435,-2.61211 4.23731,-4.22449 z m -33.00988,2.44669 -0.90323,3.87174 c -0.31748,1.35442 0.89881,2.57069 2.25322,2.25322 l 3.86807,-0.88737 -0.42476,-1.84067 -3.87174,0.90325 0.90324,-3.87174 z m 27.79426,2.31852 c -1.5584,0.94149 -3.25013,1.64209 -5.01787,2.07807 l 0.44979,1.8187 c 1.94833,-0.4806 3.81288,-1.2528 5.53053,-2.29046 z m -18.64159,0.0598 -0.0128,0.0122 -2.68409,0.62495 0.42476,1.82479 1.97494,-0.45894 c 1.49852,0.81612 3.09603,1.4356 4.753,1.8431 l 0.4498,-1.81808 c -1.72623,-0.43049 -3.37931,-1.11389 -4.90559,-2.02802 z m 6.55218,2.34659 -0.28135,1.85287 c 1.98666,0.30002 4.0071,0.30002 5.99375,0 l -0.28135,-1.85287 c -1.80022,0.27086 -3.63083,0.27086 -5.43105,0 z"
         sodipodi:nodetypes="ccccccccccccccccccccsccccccccccccccccccccccccccccccccccccccccccccccccccccccccccccccccccccccscccccc" />
      <path
         id="path7530"
         style="color:#000000;display:inline;overflow:visible;visibility:visible;fill:#ffffff;fill-opacity:1;fill-rule:nonzero;stroke:none;stroke-width:0;marker:none;enable-background:accumulate"
         d="m 312.04208,230.00007 c -0.71613,-0.002 -1.43137,0.0506 -2.13946,0.15764 l 0.19652,1.29701 c 1.26015,-0.1896 2.54157,-0.1896 3.80173,0 l 0.19694,-1.29701 c -0.68046,-0.10282 -1.36755,-0.15551 -2.05573,-0.15764 z m -3.40186,0.40927 c -1.36532,0.33601 -2.67197,0.87656 -3.87564,1.60331 l 0.67371,1.12399 c 1.09234,-0.65948 2.27816,-1.14991 3.51721,-1.45465 z m 6.71956,0 -0.31485,1.27265 c 1.23905,0.30474 2.42487,0.79517 3.51721,1.45465 l 0.67798,-1.12399 c -1.20513,-0.72719 -2.51339,-1.26775 -3.88034,-1.60331 z m -3.35956,2.2155 c -8.94365,0.005 -14.3832,9.85393 -9.62416,17.42627 l -1.09366,4.66555 4.66555,-1.09366 c 6.40672,4.03519 14.89373,0.80127 16.9907,-6.4741 2.09696,-7.27536 -3.36686,-14.5303 -10.93843,-14.52406 z m -8.31178,0.10509 c -1.12815,0.83231 -2.1251,1.82911 -2.95756,2.95714 l 1.05648,0.78735 c 0.75657,-1.02549 1.66282,-1.93159 2.68843,-2.688 z m 16.62355,0 -0.78735,1.05649 c 1.02546,0.75644 1.93156,1.66254 2.688,2.688 l 1.05649,-0.78735 c -0.83234,-1.128 -1.82914,-2.1248 -2.95714,-2.95714 z m -20.2984,4.03328 c -0.72679,1.2038 -1.26734,2.5106 -1.60331,3.87607 l 1.27308,0.31485 c 0.30474,-1.23905 0.79517,-2.42487 1.45465,-3.51721 z m 23.97282,0 -1.12399,0.67371 c 0.65893,1.09104 1.14921,2.27539 1.45422,3.51294 l 1.27308,-0.31486 c -0.33637,-1.36398 -0.87691,-2.66931 -1.60331,-3.87179 z m -25.82776,5.13804 c -0.20996,1.39052 -0.20996,2.80467 0,4.19519 l 1.29744,-0.19694 c -0.0951,-0.62908 -0.14265,-1.26443 -0.14226,-1.90066 -4.4e-4,-0.63622 0.0472,-1.27157 0.14226,-1.90065 z m 27.6827,0 -1.29701,0.19694 c 0.0951,0.62908 0.14265,1.26443 0.14226,1.90065 4.4e-4,0.63623 -0.0472,1.27158 -0.14226,1.90066 l 1.29701,0.19694 c 0.20996,-1.39052 0.20996,-2.80467 0,-4.19519 z m -26.15799,5.14231 -1.27308,0.31485 c 0.28539,1.15991 0.71916,2.27816 1.2906,3.32711 l -0.32169,1.38244 1.27735,0.29734 0.43746,-1.87886 c -0.63757,-1.07171 -1.11294,-2.23192 -1.41064,-3.44288 z m 24.63328,0 c -0.30461,1.23903 -0.79489,2.42484 -1.45422,3.51721 l 1.12399,0.67798 c 0.72719,-1.20513 1.26775,-2.51339 1.60331,-3.88034 z m -2.104,4.48185 c -0.75661,1.0247 -1.6627,1.93007 -2.688,2.68586 l 0.77838,1.05649 c 1.13118,-0.83165 2.13104,-1.82848 2.96611,-2.95714 z m -23.10686,1.71268 -0.63185,2.71021 c -0.2217,0.9477 0.62913,1.79853 1.57683,1.57683 l 2.70808,-0.62117 -0.29777,-1.28846 -2.70978,0.63227 0.63184,-2.71021 z m 19.45636,1.62296 c -1.09101,0.65908 -2.27536,1.1495 -3.51294,1.45465 l 0.31486,1.27308 c 1.36398,-0.33638 2.66931,-0.87692 3.87179,-1.60331 z m -13.04952,0.0414 -0.009,0.009 -1.87886,0.43746 0.29776,1.27736 1.38202,-0.32169 c 1.04895,0.57143 2.16721,1.00521 3.32711,1.2906 l 0.31485,-1.27309 c -1.20836,-0.30134 -2.36551,-0.77972 -3.4339,-1.41961 z m 4.58652,1.64262 -0.19652,1.29743 c 1.39051,0.20997 2.80468,0.20997 4.19519,0 l -0.19694,-1.29743 c -1.26016,0.1896 -2.54158,0.1896 -3.80173,0 z"
         sodipodi:nodetypes="ccccccccccccccccccccsccccccccccccccccccccccccccccccccccccccccccccccccccccccccccccccccccccccscccccc" />
      <path
         id="path7532"
         style="color:#000000;display:inline;overflow:visible;visibility:visible;fill:#ffffff;fill-opacity:1;fill-rule:nonzero;stroke:none;stroke-width:0;marker:none;enable-background:accumulate"
         d="m 431.90742,58.000591 c -0.47013,0.0042 -0.93939,0.04137 -1.4043,0.111328 l 0.14063,0.927734 c 0.90053,-0.135555 1.81627,-0.135555 2.7168,0 l 0.14062,-0.927734 c -0.52745,-0.07941 -1.06039,-0.116633 -1.59375,-0.111328 z m -2.30469,0.291015 c -0.97572,0.240289 -1.90946,0.626825 -2.76953,1.146485 l 0.48242,0.802734 c 0.78006,-0.471009 1.62688,-0.821325 2.51172,-1.039062 z m 4.79883,0 -0.22461,0.910157 c 0.88484,0.217737 1.73166,0.568053 2.51172,1.039062 l 0.48438,-0.802734 c -0.86068,-0.519841 -1.79509,-0.906383 -2.77149,-1.146485 z m -2.40039,1.583985 c -6.38759,0.0045 -10.27182,7.038971 -6.87305,12.447265 l -0.78125,3.332031 3.33203,-0.78125 c 4.57638,2.883531 10.63981,0.573609 12.13767,-4.623897 1.49786,-5.197506 -2.40634,-10.379987 -7.8154,-10.374149 z m -5.93555,0.07422 c -0.80616,0.594763 -1.51852,1.307121 -2.11328,2.113282 l 0.75586,0.5625 c 0.54015,-0.733131 1.18734,-1.380982 1.91992,-1.921875 z m 11.87305,0 -0.5625,0.753907 c 0.73258,0.540893 1.37977,1.188744 1.91992,1.921875 l 0.75586,-0.5625 c -0.59476,-0.806161 -1.30712,-1.518519 -2.11328,-2.113282 z m -14.49805,2.88086 c -0.51966,0.860069 -0.90619,1.793813 -1.14648,2.769531 l 0.91016,0.224609 c 0.21755,-0.885514 0.56787,-1.733003 1.03906,-2.513672 z m 17.12305,0 -0.80273,0.480468 c 0.47083,0.779458 0.82114,1.625604 1.03906,2.509766 l 0.9082,-0.224609 c -0.24005,-0.974255 -0.62591,-1.906652 -1.14453,-2.765625 z m -18.44922,3.669922 c -0.14993,0.993071 -0.14993,2.003022 0,2.996093 l 0.92774,-0.140625 c -0.0679,-0.449281 -0.10185,-0.903039 -0.10157,-1.357422 -2.8e-4,-0.454382 0.0337,-0.90814 0.10157,-1.357421 z m 19.77344,0 -0.92578,0.140625 c 0.0679,0.449281 0.10185,0.903039 0.10156,1.357421 2.9e-4,0.454383 -0.0337,0.908141 -0.10156,1.357422 l 0.92578,0.140625 c 0.14993,-0.993071 0.14993,-2.003022 0,-2.996093 z m -18.68359,3.673828 -0.91016,0.224609 c 0.20382,0.828657 0.51366,1.627565 0.92187,2.376953 l -0.22851,0.986328 0.91211,0.212891 0.3125,-1.341797 c -0.45547,-0.765425 -0.79509,-1.594072 -1.00781,-2.458984 z m 17.5957,0 c -0.21774,0.884838 -0.56805,1.731655 -1.03906,2.511718 l 0.80273,0.484376 c 0.51916,-0.86079 0.90504,-1.795201 1.14453,-2.771485 z m -1.50391,3.201172 c -0.54045,0.731745 -1.18763,1.378264 -1.91992,1.917968 l 0.55664,0.75586 c 0.80824,-0.59431 1.52259,-1.30669 2.11914,-2.113282 z m -16.5039,1.222656 -0.45118,1.935547 c -0.15853,0.676489 0.44824,1.284307 1.125,1.126953 l 1.93555,-0.44336 -0.21289,-0.919921 -1.93555,0.451171 0.45118,-1.935546 z m 13.89648,1.160156 c -0.77885,0.470648 -1.62432,0.820953 -2.50781,1.039063 l 0.22461,0.908203 c 0.97425,-0.24005 1.90665,-0.625916 2.76562,-1.144532 z m -9.32031,0.0293 -0.006,0.0059 -1.34375,0.3125 0.21289,0.91211 0.98828,-0.228516 c 0.74939,0.408207 1.54829,0.718055 2.37695,0.921875 l 0.22461,-0.910156 c -0.86321,-0.215109 -1.68986,-0.556695 -2.45312,-1.013672 z m 3.27539,1.173828 -0.14063,0.925781 c 0.99371,0.150122 2.00434,0.150122 2.99805,0 l -0.14062,-0.925781 c -0.90053,0.135555 -1.81627,0.135555 -2.7168,0 z"
         sodipodi:nodetypes="ccccccccccccccccccccsccccccccccccccccccccccccccccccccccccccccccccccccccccccccccccccccccccccccccccc" />
      <path
         id="path3895"
         style="color:#000000;display:inline;overflow:visible;visibility:visible;fill:#ffffff;fill-opacity:1;fill-rule:nonzero;stroke:none;stroke-width:0;marker:none;enable-background:accumulate"
         d="m 427.9993,105.00723 c -5.49734,0.003 -8.84123,6.0565 -5.91601,10.71094 l -0.67188,2.86719 2.86719,-0.67188 c 3.93798,2.48027 9.15443,0.49142 10.44336,-3.98047 1.28893,-4.4719 -2.0687,-8.92961 -6.72266,-8.92578 z"
         sodipodi:nodetypes="ccccsc" />
      <path
         id="path3897"
         style="color:#000000;display:inline;overflow:visible;visibility:visible;fill:#ffffff;fill-opacity:1;fill-rule:nonzero;stroke:none;stroke-width:0;marker:none;enable-background:accumulate"
         inkscape:label="path3897"
         d="m 423.99864,143.00501 c -3.92667,0.002 -6.31405,4.32579 -4.22461,7.65039 l -0.48047,2.04883 2.04883,-0.48047 c 2.81283,1.77163 6.53833,0.35242 7.45899,-2.8418 0.92067,-3.1942 -1.47848,-6.37968 -4.80274,-6.37695 z"
         sodipodi:nodetypes="ccccsc" />
    </g>
    <g
       inkscape:groupmode="layer"
       id="layer5"
       inkscape:label="Highlights"
       style="display:inline">
      <path
         style="color:#bebebe;display:inline;overflow:visible;visibility:visible;opacity:0.13;fill:#ffffff;fill-opacity:1;fill-rule:nonzero;stroke:none;stroke-width:0;marker:none;enable-background:accumulate"
         d="M 84,47 C 56.836703,47 35,68.836703 35,96 v 1 C 35,69.836703 56.836703,48 84,48 h 120 c 27.1633,0 49,21.836703 49,49 V 96 C 253,68.836703 231.1633,47 204,47 Z"
         id="rect3894"
         inkscape:connector-curvature="0" />
      <path
         style="color:#bebebe;display:inline;overflow:visible;visibility:visible;opacity:0.13;fill:#ffffff;fill-opacity:1;fill-rule:nonzero;stroke:none;stroke-width:0;marker:none;enable-background:accumulate"
         d="m 419,141 c -1.1253,0 -2,0.8747 -2,2 v 1 c 0,-1.1253 0.8747,-2 2,-2 h 10 c 1.1253,0 2,0.8747 2,2 v -1 c 0,-1.1253 -0.8747,-2 -2,-2 z"
         id="rect3896"
         inkscape:connector-curvature="0" />
      <path
         style="color:#bebebe;display:inline;overflow:visible;visibility:visible;opacity:0.13;fill:#ffffff;fill-opacity:1;fill-rule:nonzero;stroke:none;stroke-width:0;marker:none;enable-background:accumulate"
         d="m 422,102 c -2.2333,0 -4,1.7667 -4,4 v 1 c 0,-2.2333 1.7667,-4 4,-4 h 12 c 2.2333,0 4,1.7667 4,4 v -1 c 0,-2.2333 -1.7667,-4 -4,-4 z"
         id="rect3898"
         inkscape:connector-curvature="0" />
      <path
         style="color:#bebebe;display:inline;overflow:visible;visibility:visible;opacity:0.13;fill:#ffffff;fill-opacity:1;fill-rule:nonzero;stroke:none;stroke-width:0;marker:none;enable-background:accumulate"
         d="m 424,54 c -3.3413,0 -6,2.658703 -6,6 v 1 c 0,-3.341297 2.6587,-6 6,-6 h 16 c 3.3413,0 6,2.658703 6,6 v -1 c 0,-3.341297 -2.6587,-6 -6,-6 z"
         id="rect3900"
         inkscape:connector-curvature="0" />
      <path
         style="color:#bebebe;display:inline;overflow:visible;visibility:visible;opacity:0.13;fill:#ffffff;fill-opacity:1;fill-rule:nonzero;stroke:none;stroke-width:0;marker:none;enable-background:accumulate"
         d="m 300,224 c -4.4493,0 -8,3.5507 -8,8 v 1 c 0,-4.4493 3.5507,-8 8,-8 h 24 c 4.4493,0 8,3.5507 8,8 v -1 c 0,-4.4493 -3.5507,-8 -8,-8 z"
         id="rect3902"
         inkscape:connector-curvature="0" />
      <path
         style="color:#bebebe;display:inline;overflow:visible;visibility:visible;opacity:0.13;fill:#ffffff;fill-opacity:1;fill-rule:nonzero;stroke:none;stroke-width:0;marker:none;enable-background:accumulate"
         d="m 310,33 c -9.4353,0 -17,7.564703 -17,17 v 1 c 0,-9.435297 7.5647,-17 17,-17 h 52 c 9.4353,0 17,7.564703 17,17 v -1 c 0,-9.435297 -7.5647,-17 -17,-17 z"
         id="rect3904"
         inkscape:connector-curvature="0" />
      <path
         style="color:#bebebe;display:inline;overflow:visible;visibility:visible;opacity:0.13;fill:#ffffff;fill-opacity:1;fill-rule:nonzero;stroke:none;stroke-width:0;marker:none;enable-background:accumulate"
         d="m 302.5,143 c -6.3883,0 -11.5,5.1117 -11.5,11.5 v 1 c 0,-6.3883 5.1117,-11.5 11.5,-11.5 h 35 c 6.3883,0 11.5,5.1117 11.5,11.5 v -1 c 0,-6.3883 -5.1117,-11.5 -11.5,-11.5 z"
         id="rect3906"
         inkscape:connector-curvature="0" />
      <path
         id="path4085"
         d="m 204,266 c 27.1633,0 49,-21.8367 49,-49 v -1 c 0,27.1633 -21.8367,49 -49,49 H 84 C 56.8367,265 35,243.1633 35,216 v 1 c 0,27.1633 21.8367,49 49,49 z"
         style="color:#bebebe;display:inline;overflow:visible;visibility:visible;opacity:0.13;fill:#000000;fill-opacity:1;fill-rule:nonzero;stroke:none;stroke-width:0;marker:none;enable-background:accumulate"
         inkscape:connector-curvature="0" />
      <path
         id="path4087"
         d="m 429,156 c 1.1253,0 2,-0.8747 2,-2 v -1 c 0,1.1253 -0.8747,2 -2,2 h -10 c -1.1253,0 -2,-0.8747 -2,-2 v 1 c 0,1.1253 0.8747,2 2,2 z"
         style="color:#bebebe;display:inline;overflow:visible;visibility:visible;opacity:0.15;fill:#000000;fill-opacity:1;fill-rule:nonzero;stroke:none;stroke-width:0;marker:none;enable-background:accumulate"
         inkscape:connector-curvature="0" />
      <path
         id="path4089"
         d="m 434,123 c 2.2333,0 4,-1.7667 4,-4 v -1 c 0,2.2333 -1.7667,4 -4,4 h -12 c -2.2333,0 -4,-1.7667 -4,-4 v 1 c 0,2.2333 1.7667,4 4,4 z"
         style="color:#bebebe;display:inline;overflow:visible;visibility:visible;opacity:0.15;fill:#000000;fill-opacity:1;fill-rule:nonzero;stroke:none;stroke-width:0;marker:none;enable-background:accumulate"
         inkscape:connector-curvature="0" />
      <path
         id="path4091"
         d="m 440,83 c 3.3413,0 6,-2.6587 6,-6 v -1 c 0,3.3413 -2.6587,6 -6,6 h -16 c -3.3413,0 -6,-2.6587 -6,-6 v 1 c 0,3.3413 2.6587,6 6,6 z"
         style="color:#bebebe;display:inline;overflow:visible;visibility:visible;opacity:0.13;fill:#000000;fill-opacity:1;fill-rule:nonzero;stroke:none;stroke-width:0;marker:none;enable-background:accumulate"
         inkscape:connector-curvature="0" />
      <path
         id="path4093"
         d="m 324,265 c 4.4493,0 8,-3.5507 8,-8 v -1 c 0,4.4493 -3.5507,8 -8,8 h -24 c -4.4493,0 -8,-3.5507 -8,-8 v 1 c 0,4.4493 3.5507,8 8,8 z"
         style="color:#bebebe;display:inline;overflow:visible;visibility:visible;opacity:0.13;fill:#000000;fill-opacity:1;fill-rule:nonzero;stroke:none;stroke-width:0;marker:none;enable-background:accumulate"
         inkscape:connector-curvature="0" />
      <path
         id="path4095"
         d="m 362,120 c 9.4353,0 17,-7.5647 17,-17 v -1 c 0,9.4353 -7.5647,17 -17,17 h -52 c -9.4353,0 -17,-7.5647 -17,-17 v 1 c 0,9.4353 7.5647,17 17,17 z"
         style="color:#bebebe;display:inline;overflow:visible;visibility:visible;opacity:0.13;fill:#000000;fill-opacity:1;fill-rule:nonzero;stroke:none;stroke-width:0;marker:none;enable-background:accumulate"
         inkscape:connector-curvature="0" />
      <path
         id="path4097"
         d="m 337.5,202 c 6.3883,0 11.5,-5.1117 11.5,-11.5 v -1 c 0,6.3883 -5.1117,11.5 -11.5,11.5 h -35 c -6.3883,0 -11.5,-5.1117 -11.5,-11.5 v 1 c 0,6.3883 5.1117,11.5 11.5,11.5 z"
         style="color:#bebebe;display:inline;overflow:visible;visibility:visible;opacity:0.13;fill:#000000;fill-opacity:1;fill-rule:nonzero;stroke:none;stroke-width:0;marker:none;enable-background:accumulate"
         inkscape:connector-curvature="0" />
      <path
         inkscape:connector-curvature="0"
         id="path4280"
         d="M 84,265 C 56.836703,265 35,243.1633 35,216 v -1 c 0,27.1633 21.836703,49 49,49 h 120 c 27.1633,0 49,-21.8367 49,-49 v 1 c 0,27.1633 -21.8367,49 -49,49 z"
         style="color:#bebebe;display:inline;overflow:visible;visibility:visible;opacity:0.1;fill:#ffffff;fill-opacity:1;fill-rule:nonzero;stroke:none;stroke-width:0;marker:none;enable-background:accumulate" />
      <path
         style="color:#bebebe;display:inline;overflow:visible;visibility:visible;opacity:0.1;fill:#ffffff;fill-opacity:1;fill-rule:nonzero;stroke:none;stroke-width:0;marker:none;enable-background:accumulate"
         d="m 300,264 c -4.4493,0 -8,-3.5507 -8,-8 v -1 c 0,4.4493 3.5507,8 8,8 h 24 c 4.4493,0 8,-3.5507 8,-8 v 1 c 0,4.4493 -3.5507,8 -8,8 z"
         id="path4294"
         inkscape:connector-curvature="0" />
      <path
         style="color:#bebebe;display:inline;overflow:visible;visibility:visible;opacity:0.1;fill:#ffffff;fill-opacity:1;fill-rule:nonzero;stroke:none;stroke-width:0;marker:none;enable-background:accumulate"
         d="m 302.5,201 c -6.3883,0 -11.5,-5.1117 -11.5,-11.5 v -1 c 0,6.3883 5.1117,11.5 11.5,11.5 h 35 c 6.3883,0 11.5,-5.1117 11.5,-11.5 v 1 c 0,6.3883 -5.1117,11.5 -11.5,11.5 z"
         id="path4296"
         inkscape:connector-curvature="0" />
      <path
         style="color:#bebebe;display:inline;overflow:visible;visibility:visible;opacity:0.1;fill:#ffffff;fill-opacity:1;fill-rule:nonzero;stroke:none;stroke-width:0;marker:none;enable-background:accumulate"
         d="m 310,119 c -9.4353,0 -17,-7.5647 -17,-17 v -1 c 0,9.4353 7.5647,17 17,17 h 52 c 9.4353,0 17,-7.5647 17,-17 v 1 c 0,9.4353 -7.5647,17 -17,17 z"
         id="path4298"
         inkscape:connector-curvature="0" />
      <path
         style="color:#bebebe;display:inline;overflow:visible;visibility:visible;opacity:0.1;fill:#ffffff;fill-opacity:1;fill-rule:nonzero;stroke:none;stroke-width:0;marker:none;enable-background:accumulate"
         d="m 424,82 c -3.3413,0 -6,-2.658703 -6,-6 v -1 c 0,3.341297 2.6587,6 6,6 h 16 c 3.3413,0 6,-2.658703 6,-6 v 1 c 0,3.341297 -2.6587,6 -6,6 z"
         id="path4300"
         inkscape:connector-curvature="0" />
      <path
         style="color:#bebebe;display:inline;overflow:visible;visibility:visible;opacity:0.1;fill:#ffffff;fill-opacity:1;fill-rule:nonzero;stroke:none;stroke-width:0;marker:none;enable-background:accumulate"
         d="m 422,122 c -2.2333,0 -4,-1.7667 -4,-4 v -1 c 0,2.2333 1.7667,4 4,4 h 12 c 2.2333,0 4,-1.7667 4,-4 v 1 c 0,2.2333 -1.7667,4 -4,4 z"
         id="path4302"
         inkscape:connector-curvature="0" />
      <path
         style="color:#bebebe;display:inline;overflow:visible;visibility:visible;opacity:0.1;fill:#ffffff;fill-opacity:1;fill-rule:nonzero;stroke:none;stroke-width:0;marker:none;enable-background:accumulate"
         d="m 419,154.5 c -1.1253,0 -2,-0.8747 -2,-2 v -1 c 0,1.1253 0.8747,2 2,2 h 10 c 1.1253,0 2,-0.8747 2,-2 v 1 c 0,1.1253 -0.8747,2 -2,2 z"
         id="path4304"
         inkscape:connector-curvature="0" />
    </g>
    <g
       inkscape:groupmode="layer"
       id="layer3"
       inkscape:label="Border"
       style="display:inline"
       sodipodi:insensitive="true">
      <path
         style="color:#bebebe;display:inline;overflow:visible;visibility:visible;opacity:0.41;fill:#000000;fill-opacity:1;fill-rule:nonzero;stroke:none;stroke-width:0;marker:none;enable-background:accumulate"
         d="m 422,101 c -2.77,0 -5,2.23 -5,5 v 12 c 0,2.77 2.23,5 5,5 h 12 c 2.77,0 5,-2.23 5,-5 v -12 c 0,-2.77 -2.23,-5 -5,-5 z m 0,1 h 12 c 2.2333,0 4,1.7667 4,4 v 12 c 0,2.2333 -1.7667,4 -4,4 h -12 c -2.2333,0 -4,-1.7667 -4,-4 v -12 c 0,-2.2333 1.7667,-4 4,-4 z"
         id="rect4099"
         inkscape:connector-curvature="0" />
      <path
         style="color:#bebebe;display:inline;overflow:visible;visibility:visible;opacity:0.41;fill:#000000;fill-opacity:1;fill-rule:nonzero;stroke:none;stroke-width:0;marker:none;enable-background:accumulate"
         d="m 424,53 c -3.878,0 -7,3.122 -7,7 v 16 c 0,3.878 3.122,7 7,7 h 16 c 3.878,0 7,-3.122 7,-7 V 60 c 0,-3.878 -3.122,-7 -7,-7 z m 0,1 h 16 c 3.3413,0 6,2.658703 6,6 v 16 c 0,3.341297 -2.6587,6 -6,6 h -16 c -3.3413,0 -6,-2.658703 -6,-6 V 60 c 0,-3.341297 2.6587,-6 6,-6 z"
         id="rect4151"
         inkscape:connector-curvature="0" />
      <path
         style="color:#bebebe;display:inline;overflow:visible;visibility:visible;opacity:0.41;fill:#000000;fill-opacity:1;fill-rule:nonzero;stroke:none;stroke-width:0;marker:none;enable-background:accumulate"
         d="m 419,140 c -1.662,0 -3,1.338 -3,3 v 10 c 0,1.662 1.338,3 3,3 h 10 c 1.662,0 3,-1.338 3,-3 v -10 c 0,-1.662 -1.338,-3 -3,-3 z m 0,1 h 10 c 1.1253,0 2,0.8747 2,2 v 10 c 0,1.1253 -0.8747,2 -2,2 h -10 c -1.1253,0 -2,-0.8747 -2,-2 v -10 c 0,-1.1253 0.8747,-2 2,-2 z"
         id="rect4095"
         inkscape:connector-curvature="0" />
      <path
         style="color:#bebebe;display:inline;overflow:visible;visibility:visible;opacity:0.41;fill:#000000;fill-opacity:1;fill-rule:nonzero;stroke:none;stroke-width:0;marker:none;enable-background:accumulate"
         d="m 300,223 c -4.986,0 -9,4.014 -9,9 v 24 c 0,4.986 4.014,9 9,9 h 24 c 4.986,0 9,-4.014 9,-9 v -24 c 0,-4.986 -4.014,-9 -9,-9 z m 0,1 h 24 c 4.4493,0 8,3.5507 8,8 v 24 c 0,4.4493 -3.5507,8 -8,8 h -24 c -4.4493,0 -8,-3.5507 -8,-8 v -24 c 0,-4.4493 3.5507,-8 8,-8 z"
         id="rect4783"
         inkscape:connector-curvature="0" />
      <path
         style="color:#bebebe;display:inline;overflow:visible;visibility:visible;opacity:0.41;fill:#000000;fill-opacity:1;fill-rule:nonzero;stroke:none;stroke-width:0;marker:none;enable-background:accumulate"
         d="m 302.5,142 c -6.925,0 -12.5,5.575 -12.5,12.5 v 35 c 0,6.925 5.575,12.5 12.5,12.5 h 35 c 6.925,0 12.5,-5.575 12.5,-12.5 v -35 c 0,-6.925 -5.575,-12.5 -12.5,-12.5 z m 0,1 h 35 c 6.3883,0 11.5,5.1117 11.5,11.5 v 35 c 0,6.3883 -5.1117,11.5 -11.5,11.5 h -35 c -6.3883,0 -11.5,-5.1117 -11.5,-11.5 v -35 c 0,-6.3883 5.1117,-11.5 11.5,-11.5 z"
         id="rect4515"
         inkscape:connector-curvature="0" />
      <path
         style="color:#bebebe;display:inline;overflow:visible;visibility:visible;opacity:0.41;fill:#000000;fill-opacity:1;fill-rule:nonzero;stroke:none;stroke-width:0;marker:none;enable-background:accumulate"
         d="m 310,32 c -9.972,0 -18,8.028 -18,18 v 52 c 0,9.972 8.028,18 18,18 h 52 c 9.972,0 18,-8.028 18,-18 V 50 c 0,-9.972 -8.028,-18 -18,-18 z m 0,1 h 52 c 9.4353,0 17,7.564703 17,17 v 52 c 0,9.4353 -7.5647,17 -17,17 h -52 c -9.4353,0 -17,-7.5647 -17,-17 V 50 c 0,-9.435297 7.5647,-17 17,-17 z"
         id="rect4511"
         inkscape:connector-curvature="0" />
      <path
         style="color:#bebebe;display:inline;overflow:visible;visibility:visible;opacity:0.41;fill:#000000;fill-opacity:1;fill-rule:nonzero;stroke:none;stroke-width:0;marker:none;enable-background:accumulate"
         d="M 84,46 C 56.3,46 34,68.3 34,96 v 120 c 0,27.7 22.3,50 50,50 h 120 c 27.7,0 50,-22.3 50,-50 V 96 C 254,68.3 231.7,46 204,46 Z m 0,1 h 120 c 27.1633,0 49,21.836703 49,49 v 120 c 0,27.1633 -21.8367,49 -49,49 H 84 C 56.836703,265 35,243.1633 35,216 V 96 C 35,68.836703 56.836703,47 84,47 Z"
         id="rect4040"
         inkscape:connector-curvature="0" />
    </g>
  </g>
</svg>
