<?xml version="1.0" encoding="UTF-8" standalone="no"?>
<svg
   xmlns:dc="http://purl.org/dc/elements/1.1/"
   xmlns:cc="http://creativecommons.org/ns#"
   xmlns:rdf="http://www.w3.org/1999/02/22-rdf-syntax-ns#"
   xmlns:svg="http://www.w3.org/2000/svg"
   xmlns="http://www.w3.org/2000/svg"
   xmlns:xlink="http://www.w3.org/1999/xlink"
   xmlns:sodipodi="http://sodipodi.sourceforge.net/DTD/sodipodi-0.dtd"
   xmlns:inkscape="http://www.inkscape.org/namespaces/inkscape"
   inkscape:export-ydpi="90.000000"
   inkscape:export-xdpi="90.000000"
   width="480"
   height="300"
   id="svg11300"
   sodipodi:version="0.32"
   inkscape:version="1.0.2 (e86c870, 2021-01-15)"
   sodipodi:docname="system76.svg"
   inkscape:output_extension="org.inkscape.output.svg.inkscape"
   version="1.0"
   style="display:inline;enable-background:new"
   inkscape:export-filename="/home/sam/moka-next-template.png">
  <sodipodi:namedview
     stroke="#ef2929"
     fill="#f57900"
     id="base"
     pagecolor="#777777"
     bordercolor="#666666"
     borderopacity="0.25490196"
     inkscape:pageopacity="0"
     inkscape:pageshadow="2"
     inkscape:zoom="90.50967"
     inkscape:cx="425.42783"
     inkscape:cy="152.27469"
     inkscape:current-layer="layer6"
     showgrid="false"
     inkscape:grid-bbox="true"
     inkscape:document-units="px"
     inkscape:showpageshadow="false"
     inkscape:window-width="1366"
     inkscape:window-height="703"
     inkscape:window-x="0"
     inkscape:window-y="0"
     width="400px"
     height="300px"
     inkscape:snap-nodes="true"
     inkscape:snap-bbox="true"
     gridtolerance="10000"
     inkscape:object-nodes="true"
     inkscape:snap-grids="true"
     showguides="true"
     inkscape:guide-bbox="true"
     inkscape:window-maximized="1"
     inkscape:bbox-nodes="true"
     inkscape:bbox-paths="true"
     inkscape:snap-bbox-edge-midpoints="true"
     inkscape:snap-bbox-midpoints="true"
     inkscape:document-rotation="0">
    <inkscape:grid
       spacingy="1px"
       spacingx="1px"
       id="grid5883"
       type="xygrid"
       enabled="true"
       visible="true"
       empspacing="4"
       snapvisiblegridlinesonly="true"
       dotted="false"
       color="#000000"
       opacity="0.1254902"
       empcolor="#203ef3"
       empopacity="0.36470588" />
    <inkscape:grid
       type="xygrid"
       id="grid11592"
       empspacing="8"
       visible="true"
       enabled="false"
       spacingx="0.5px"
       spacingy="0.5px"
       color="#ff0000"
       opacity="0.1254902"
       empcolor="#ff0000"
       empopacity="0.25098039"
       snapvisiblegridlinesonly="true"
       dotted="true" />
    <sodipodi:guide
       orientation="0,1"
       position="348,489"
       id="guide10607" />
  </sodipodi:namedview>
  <defs
     id="defs3">
    <linearGradient
       inkscape:collect="always"
       xlink:href="#outerBackgroundGradient"
       id="linearGradient10085"
       gradientUnits="userSpaceOnUse"
       gradientTransform="matrix(0,-1,1,0,-12,300)"
       x1="35"
       y1="156"
       x2="253"
       y2="156" />
    <linearGradient
       inkscape:collect="always"
       xlink:href="#outerBackgroundGradient"
       id="linearGradient10087"
       gradientUnits="userSpaceOnUse"
       gradientTransform="matrix(0,-1,1,0,276,572)"
       x1="417"
       y1="148"
       x2="431"
       y2="148" />
    <linearGradient
       inkscape:collect="always"
       xlink:href="#outerBackgroundGradient"
       id="linearGradient10089"
       gradientUnits="userSpaceOnUse"
       gradientTransform="matrix(0,-1,1,0,316,540)"
       x1="418"
       y1="112"
       x2="438"
       y2="112" />
    <linearGradient
       inkscape:collect="always"
       xlink:href="#outerBackgroundGradient"
       id="linearGradient10091"
       gradientUnits="userSpaceOnUse"
       gradientTransform="matrix(0,-1,1,0,364,500)"
       x1="418"
       y1="68"
       x2="446"
       y2="68" />
    <linearGradient
       inkscape:collect="always"
       xlink:href="#outerBackgroundGradient"
       id="linearGradient10093"
       gradientUnits="userSpaceOnUse"
       gradientTransform="matrix(0,-1,1,0,68,556)"
       x1="292"
       y1="244"
       x2="332"
       y2="244" />
    <linearGradient
       inkscape:collect="always"
       xlink:href="#outerBackgroundGradient"
       id="linearGradient10095"
       gradientUnits="userSpaceOnUse"
       gradientTransform="matrix(0,-1,1,0,260,412)"
       x1="293"
       y1="76"
       x2="379"
       y2="76" />
    <linearGradient
       inkscape:collect="always"
       xlink:href="#outerBackgroundGradient"
       id="linearGradient10097"
       gradientUnits="userSpaceOnUse"
       gradientTransform="matrix(0,-1,1,0,148,492)"
       x1="291"
       y1="172"
       x2="349"
       y2="172" />
    <linearGradient
       id="outerBackgroundGradient">
      <stop
         style="stop-color:#4e4540;stop-opacity:1;"
         offset="0"
         id="stop3864-8-6" />
      <stop
         style="stop-color:#736359;stop-opacity:1;"
         offset="1"
         id="stop3866-9-1" />
    </linearGradient>
  </defs>
  <metadata
     id="metadata4">
    <rdf:RDF>
      <cc:Work
         rdf:about="">
        <dc:format>image/svg+xml</dc:format>
        <dc:type
           rdf:resource="http://purl.org/dc/dcmitype/StillImage" />
        <dc:creator>
          <cc:Agent>
            <dc:title>Sam Hewitt</dc:title>
          </cc:Agent>
        </dc:creator>
        <dc:source />
        <cc:license
           rdf:resource="" />
        <dc:title />
        <dc:subject>
          <rdf:Bag />
        </dc:subject>
        <dc:date />
        <dc:rights>
          <cc:Agent>
            <dc:title />
          </cc:Agent>
        </dc:rights>
        <dc:publisher>
          <cc:Agent>
            <dc:title />
          </cc:Agent>
        </dc:publisher>
        <dc:identifier />
        <dc:relation />
        <dc:language />
        <dc:coverage />
        <dc:description />
        <dc:contributor>
          <cc:Agent>
            <dc:title />
          </cc:Agent>
        </dc:contributor>
      </cc:Work>
      <cc:Work
         rdf:about="">
        <dc:format>image/svg+xml</dc:format>
        <dc:type
           rdf:resource="http://purl.org/dc/dcmitype/StillImage" />
      </cc:Work>
    </rdf:RDF>
  </metadata>
  <g
     style="display:inline"
     inkscape:groupmode="layer"
     inkscape:label="Icon"
     id="layer1">
    <g
       style="display:none"
       inkscape:label="Baseplate"
       id="layer7"
       inkscape:groupmode="layer">
      <text
         y="19.745117"
         xml:space="preserve"
         x="15.006836"
         style="font-style:normal;font-variant:normal;font-weight:normal;font-stretch:normal;line-height:0%;font-family:'DejaVu Sans';-inkscape-font-specification:'DejaVu Sans';display:inline;fill:#000000;fill-opacity:1;stroke:none;enable-background:new"
         inkscape:label="context"
         id="context"><tspan
           style="font-style:normal;font-variant:normal;font-weight:normal;font-stretch:normal;font-size:18px;line-height:1.25;font-family:'DejaVu Sans';-inkscape-font-specification:'DejaVu Sans'"
           y="19.745117"
           x="15.006836"
           sodipodi:role="line"
           id="tspan3933">apps</tspan></text>
      <text
         y="19.745117"
         xml:space="preserve"
         x="122.48828"
         style="font-style:normal;font-variant:normal;font-weight:bold;font-stretch:normal;line-height:0%;font-family:'DejaVu Sans';-inkscape-font-specification:'DejaVu Sans Bold';text-align:start;writing-mode:lr-tb;text-anchor:start;display:inline;fill:#000000;fill-opacity:1;stroke:none;enable-background:new"
         inkscape:label="icon-name"
         id="icon-name"><tspan
           style="font-style:normal;font-variant:normal;font-weight:bold;font-stretch:normal;font-size:18px;line-height:1.25;font-family:'DejaVu Sans';-inkscape-font-specification:'DejaVu Sans Bold'"
           y="19.745117"
           x="122.48828"
           sodipodi:role="line"
           id="tspan3937">system76</tspan></text>
      <rect
         style="display:inline;overflow:visible;visibility:visible;fill:#eeeeec;fill-opacity:1;fill-rule:nonzero;stroke:none;stroke-width:2;marker:none;enable-background:accumulate"
         id="rect16x16"
         width="16"
         height="16"
         x="416"
         y="140"
         inkscape:label="16x16" />
      <rect
         style="display:inline;overflow:visible;visibility:visible;fill:#d4d4d4;fill-opacity:1;fill-rule:nonzero;stroke:none;stroke-width:2;marker:none;enable-background:accumulate"
         id="rect24x24"
         width="24"
         height="24"
         x="416"
         y="100"
         inkscape:label="24x24" />
      <rect
         style="display:inline;overflow:visible;visibility:visible;fill:#eeeeec;fill-opacity:1;fill-rule:nonzero;stroke:none;stroke-width:2;marker:none;enable-background:accumulate"
         id="rect32x32"
         width="32"
         height="32"
         x="416"
         y="52"
         inkscape:label="32x32" />
      <rect
         inkscape:label="22x22"
         y="101"
         x="417"
         height="22"
         width="22"
         id="rect22x22"
         style="display:inline;overflow:visible;visibility:visible;fill:#eeeeec;fill-opacity:1;fill-rule:nonzero;stroke:none;stroke-width:2;marker:none;enable-background:accumulate" />
      <rect
         inkscape:label="48x48"
         y="220"
         x="288"
         height="48"
         width="48"
         id="rect48x48"
         style="display:inline;overflow:visible;visibility:visible;fill:#eeeeec;fill-opacity:1;fill-rule:nonzero;stroke:none;stroke-width:2;marker:none;enable-background:accumulate" />
      <rect
         style="display:inline;overflow:visible;visibility:visible;fill:#eeeeec;fill-opacity:1;fill-rule:nonzero;stroke:none;stroke-width:2;marker:none;enable-background:accumulate"
         id="rect256x256"
         width="256"
         height="256"
         x="16"
         y="28"
         inkscape:label="256x256" />
      <rect
         style="display:inline;overflow:visible;visibility:visible;fill:#eeeeec;fill-opacity:1;fill-rule:nonzero;stroke:none;stroke-width:2;marker:none;enable-background:accumulate"
         id="rect64x64"
         width="64"
         height="64"
         x="288"
         y="140"
         inkscape:label="64x64" />
      <rect
         style="display:inline;overflow:visible;visibility:visible;fill:#eeeeec;fill-opacity:1;fill-rule:nonzero;stroke:none;stroke-width:2;marker:none;enable-background:accumulate"
         id="rect96x96"
         width="96"
         height="96"
         x="288"
         y="28"
         inkscape:label="96x96" />
    </g>
    <g
       inkscape:groupmode="layer"
       id="layer4"
       inkscape:label="Shadow"
       style="display:inline"
       sodipodi:insensitive="true">
      <rect
         ry="50"
         y="47"
         x="34"
         height="220"
         width="220"
         id="rect4114"
         style="color:#bebebe;display:inline;overflow:visible;visibility:visible;opacity:0.1;fill:#000000;fill-opacity:1;fill-rule:nonzero;stroke:none;stroke-width:0;marker:none;enable-background:accumulate" />
      <rect
         style="color:#bebebe;display:inline;overflow:visible;visibility:visible;opacity:0.1;fill:#000000;fill-opacity:1;fill-rule:nonzero;stroke:none;stroke-width:0;marker:none;enable-background:accumulate"
         id="rect4120"
         width="30"
         height="30"
         x="417"
         y="54"
         ry="7" />
      <rect
         transform="scale(1,-1)"
         ry="9"
         y="-266"
         x="291"
         height="42"
         width="42"
         id="rect4122"
         style="color:#bebebe;display:inline;overflow:visible;visibility:visible;opacity:0.1;fill:#000000;fill-opacity:1;fill-rule:nonzero;stroke:none;stroke-width:0;marker:none;enable-background:accumulate" />
      <rect
         style="color:#bebebe;display:inline;overflow:visible;visibility:visible;opacity:0.1;fill:#000000;fill-opacity:1;fill-rule:nonzero;stroke:none;stroke-width:0;marker:none;enable-background:accumulate"
         id="rect4124"
         width="88"
         height="88"
         x="292"
         y="33"
         ry="18" />
      <rect
         ry="12.5"
         y="143"
         x="290"
         height="60"
         width="60"
         id="rect4126"
         style="color:#bebebe;display:inline;overflow:visible;visibility:visible;opacity:0.1;fill:#000000;fill-opacity:1;fill-rule:nonzero;stroke:none;stroke-width:0;marker:none;enable-background:accumulate" />
      <path
         id="path4268"
         d="m 422,101 c -2.77,0 -5,2.23 -5,5 v 12 c 0,2.77 2.23,5 5,5 h 12 c 2.77,0 5,-2.23 5,-5 v -12 c 0,-2.77 -2.23,-5 -5,-5 z"
         style="color:#bebebe;display:inline;overflow:visible;visibility:visible;opacity:0.1;fill:#000000;fill-opacity:1;fill-rule:nonzero;stroke:none;stroke-width:0;marker:none;enable-background:accumulate"
         inkscape:connector-curvature="0"
         sodipodi:nodetypes="sssssssss" />
      <path
         id="path4270"
         d="m 419,140 c -1.662,0 -3,1.338 -3,3 v 10 c 0,1.662 1.338,3 3,3 h 10 c 1.662,0 3,-1.338 3,-3 v -10 c 0,-1.662 -1.338,-3 -3,-3 z"
         style="color:#bebebe;display:inline;overflow:visible;visibility:visible;opacity:0.1;fill:#000000;fill-opacity:1;fill-rule:nonzero;stroke:none;stroke-width:0;marker:none;enable-background:accumulate"
         inkscape:connector-curvature="0"
         sodipodi:nodetypes="sssssssss" />
    </g>
    <g
       inkscape:groupmode="layer"
       id="layer2"
       inkscape:label="Background"
       style="display:inline">
      <path
         style="color:#bebebe;display:inline;overflow:visible;visibility:visible;fill:url(#linearGradient10085);fill-opacity:1;fill-rule:nonzero;stroke:none;stroke-width:2;marker:none;enable-background:accumulate"
         d="M 84,46.5 C 56.568735,46.5 34.5,68.568732 34.5,96 v 120 c 0,27.43127 22.068735,49.5 49.5,49.5 h 120 c 27.43127,0 49.5,-22.06873 49.5,-49.5 V 96 C 253.5,68.568732 231.43127,46.5 204,46.5 Z"
         id="path4200" />
      <path
         style="color:#bebebe;display:inline;overflow:visible;visibility:visible;fill:url(#linearGradient10087);fill-opacity:1;fill-rule:nonzero;stroke:none;stroke-width:2;marker:none;enable-background:accumulate"
         d="m 419,140.5 c -1.3844,0 -2.5,1.1156 -2.5,2.5 v 10 c 0,1.3844 1.1156,2.5 2.5,2.5 h 10 c 1.3844,0 2.5,-1.1156 2.5,-2.5 v -10 c 0,-1.3844 -1.1156,-2.5 -2.5,-2.5 z"
         id="path4202" />
      <path
         style="color:#bebebe;display:inline;overflow:visible;visibility:visible;fill:url(#linearGradient10089);fill-opacity:1;fill-rule:nonzero;stroke:none;stroke-width:2;marker:none;enable-background:accumulate"
         d="m 422,101.5 c -2.49699,0 -4.5,2.00301 -4.5,4.5 v 12 c 0,2.49699 2.00301,4.5 4.5,4.5 h 12 c 2.49699,0 4.5,-2.00301 4.5,-4.5 v -12 c 0,-2.49699 -2.00301,-4.5 -4.5,-4.5 z"
         id="path4204" />
      <path
         style="color:#bebebe;display:inline;overflow:visible;visibility:visible;fill:url(#linearGradient10091);fill-opacity:1;fill-rule:nonzero;stroke:none;stroke-width:2;marker:none;enable-background:accumulate"
         d="m 424,53.5 c -3.60654,0 -6.5,2.893464 -6.5,6.5 v 16 c 0,3.606536 2.89346,6.5 6.5,6.5 h 16 c 3.60654,0 6.5,-2.893464 6.5,-6.5 V 60 c 0,-3.606536 -2.89346,-6.5 -6.5,-6.5 z"
         id="path4206" />
      <path
         style="color:#bebebe;display:inline;overflow:visible;visibility:visible;fill:url(#linearGradient10093);fill-opacity:1;fill-rule:nonzero;stroke:none;stroke-width:2;marker:none;enable-background:accumulate"
         d="m 300,223.5 c -4.71531,0 -8.5,3.78469 -8.5,8.5 v 24 c 0,4.71531 3.78469,8.5 8.5,8.5 h 24 c 4.71531,0 8.5,-3.78469 8.5,-8.5 v -24 c 0,-4.71531 -3.78469,-8.5 -8.5,-8.5 z"
         id="path4208" />
      <path
         style="color:#bebebe;display:inline;overflow:visible;visibility:visible;fill:url(#linearGradient10095);fill-opacity:1;fill-rule:nonzero;stroke:none;stroke-width:2;marker:none;enable-background:accumulate"
         d="m 310,32.5 c -9.70255,0 -17.5,7.797452 -17.5,17.5 v 52 c 0,9.70255 7.79745,17.5 17.5,17.5 h 52 c 9.70255,0 17.5,-7.79745 17.5,-17.5 V 50 c 0,-9.702548 -7.79745,-17.5 -17.5,-17.5 z"
         id="path4210" />
      <path
         style="color:#bebebe;display:inline;overflow:visible;visibility:visible;fill:url(#linearGradient10097);fill-opacity:1;fill-rule:nonzero;stroke:none;stroke-width:2;marker:none;enable-background:accumulate"
         d="m 302.5,142.5 c -6.65502,0 -12,5.34498 -12,12 v 35 c 0,6.65502 5.34498,12 12,12 h 35 c 6.65502,0 12,-5.34498 12,-12 v -35 c 0,-6.65502 -5.34498,-12 -12,-12 z"
         id="path4212" />
    </g>
    <g
       inkscape:groupmode="layer"
       id="layer6"
       inkscape:label="Symbols"
       style="display:inline">
      <path
         id="path3855"
         style="color:#000000;font-style:normal;font-variant:normal;font-weight:normal;font-stretch:normal;font-size:medium;line-height:normal;font-family:Sans;-inkscape-font-specification:Sans;text-indent:0;text-align:start;text-decoration:none;text-decoration-line:none;letter-spacing:normal;word-spacing:normal;text-transform:none;writing-mode:lr-tb;direction:ltr;baseline-shift:baseline;text-anchor:start;display:inline;overflow:visible;visibility:visible;opacity:0.2;fill:#000000;fill-opacity:1;stroke:none;stroke-width:0.164597;stroke-miterlimit:4;stroke-dasharray:none;stroke-opacity:1;marker:none;enable-background:accumulate"
         d="m 183.19401,90.05805 c -1.36616,0 -2.63335,0.59094 -3.50572,1.64436 l -0.83777,1.02166 -26.45127,48.32597 c -1.67889,3.37423 -3.45763,7.06121 -4.90608,10.8634 -4.21368,11.12676 -3.99809,21.84074 0.66,31.02526 0.80653,1.58013 1.72679,3.12779 2.76375,4.57624 5.34941,7.55502 13.34927,12.55831 22.51732,14.10552 0.93821,0.1646 1.8928,0.28098 2.81455,0.36327 1.0205,0.0988 2.07432,0.13085 3.11128,0.13085 7.20935,0 14.13875,-2.15629 20.03133,-6.23829 7.60438,-5.26711 12.62432,-13.1499 14.13861,-22.16982 1.5143,-9.01992 -0.65927,-18.10767 -6.10744,-25.58038 -5.43169,-7.43978 -13.4794,-12.37633 -22.66392,-13.92356 -0.52671,-0.0823 -1.05439,-0.16465 -1.56464,-0.2305 -1.28386,-0.14813 -2.59993,0.26317 -3.55459,1.11907 -0.9382,0.83945 -1.4806,2.00885 -1.51352,3.2598 -0.0658,2.38666 1.66135,4.36196 3.98217,4.65823 0.37857,0.0494 0.77391,0.0981 1.15249,0.16395 6.7814,1.13571 12.72317,4.78926 16.7558,10.25389 4.04909,5.49753 5.66238,12.14693 4.54312,18.76374 -1.05342,6.23822 -4.45967,11.78514 -9.61156,15.63672 -4.52642,3.39071 -9.90925,5.17001 -15.58785,5.17001 -0.77361,0 -1.5642,-0.0339 -2.33781,-0.0997 -0.69131,-0.0658 -1.39861,-0.14839 -2.08992,-0.26362 -6.6991,-1.13572 -12.57619,-4.80573 -16.54298,-10.33618 -2.2056,-3.09443 -3.68542,-6.73298 -4.26151,-10.53518 -1.13572,-7.4727 1.11926,-16.97003 6.00779,-25.41385 0.0329,-0.0658 0.83816,-1.51436 2.13848,-3.85164 5.81028,-10.51776 23.37265,-42.26729 24.88694,-45.08191 l 0.44525,-1.34957 c 0.69131,-2.07392 -0.19726,-4.34517 -2.12305,-5.39859 l -0.0996,-0.0508 c -0.67485,-0.37857 -1.43245,-0.5584 -2.1896,-0.5584 z M 78.165016,129.38003 c -2.23852,0 -4.09827,1.82594 -4.16413,4.06446 v 0.1662 c -0.0165,0.7736 0.19701,1.54593 0.62496,2.22078 l 11.81853,19.90017 c 0.74067,1.20155 2.07495,1.92597 3.5234,1.92597 0.79007,0 1.57994,-0.23043 2.27124,-0.65837 0.98759,-0.62547 1.67805,-1.5485 1.94143,-2.63484 0.27979,-1.1028 0.0984,-2.22091 -0.49413,-3.17557 l -7.94919,-13.39859 H 131.04955 L 88.403136,216.8801 c -0.59255,1.11926 -0.72344,2.40311 -0.36134,3.62112 0.36213,1.21803 1.18543,2.22201 2.30469,2.81455 l 0.11541,0.0643 c 0.69131,0.37858 1.46452,0.56067 2.23813,0.56067 1.76118,0 3.35779,-0.95486 4.19722,-2.50207 l 45.822284,-84.99799 c 1.13572,-2.10683 0.51193,-4.72483 -1.41386,-6.10744 l -0.0666,-0.0485 c -0.65838,-0.52672 -1.9587,-0.90433 -3.04504,-0.90433 z m 73.558494,84.70126 c -2.66647,0 -4.82218,2.15573 -4.82218,4.82218 v 0.0997 c 0,2.66647 2.15571,4.82218 4.82218,4.82218 h 55.15608 c 2.66647,0 4.82443,-2.15571 4.82443,-4.82218 v -0.0997 c 0,-2.66645 -2.15796,-4.82218 -4.82443,-4.82218 z"
         sodipodi:nodetypes="sccccccccscsccccccccccsccccccccccscccccsccccccsccsccccccsssssssss" />
      <path
         id="path3857"
         style="color:#000000;font-style:normal;font-variant:normal;font-weight:normal;font-stretch:normal;font-size:medium;line-height:normal;font-family:Sans;-inkscape-font-specification:Sans;text-indent:0;text-align:start;text-decoration:none;text-decoration-line:none;letter-spacing:normal;word-spacing:normal;text-transform:none;writing-mode:lr-tb;direction:ltr;baseline-shift:baseline;text-anchor:start;display:inline;overflow:visible;visibility:visible;opacity:0.2;fill:#000000;fill-opacity:1;stroke:none;stroke-width:0.0705412;stroke-miterlimit:4;stroke-dasharray:none;stroke-opacity:1;marker:none;enable-background:accumulate"
         d="m 352.79683,48.31104 c -0.58549,0 -1.12816,0.253672 -1.50202,0.705137 l -0.35932,0.437444 -11.33587,20.710982 c -0.71952,1.446104 -1.48073,3.02679 -2.10149,4.656296 -1.80584,4.768606 -1.71511,9.360601 0.2812,13.29682 0.34565,0.677196 0.74115,1.340213 1.18556,1.960969 2.29259,3.237861 5.7212,5.381722 9.65033,6.044809 0.40208,0.0705 0.80996,0.120971 1.20498,0.156241 0.43735,0.0423 0.88966,0.0566 1.33407,0.0566 3.0897,0 6.05845,-0.924409 8.58382,-2.673836 3.25899,-2.257332 5.41146,-5.636205 6.06045,-9.501893 0.64897,-3.865678 -0.28214,-7.760296 -2.61704,-10.962887 -2.32784,-3.188471 -5.7767,-5.303732 -9.71288,-5.966818 -0.22572,-0.0353 -0.45312,-0.0714 -0.67179,-0.0996 -0.55022,-0.0635 -1.11438,0.113751 -1.52352,0.480564 -0.40208,0.359764 -0.63426,0.860249 -0.64837,1.396374 -0.0282,1.02284 0.71241,1.869128 1.70704,1.996099 0.16225,0.0212 0.33182,0.0422 0.49406,0.0704 2.90629,0.486725 5.45342,2.05253 7.18167,4.394513 1.73531,2.356093 2.42493,5.207211 1.94525,8.042989 -0.45146,2.673516 -1.91113,5.050359 -4.11907,6.701035 -1.93987,1.453154 -4.24596,2.214892 -6.67962,2.214892 -0.33154,0 -0.67049,-0.0147 -1.00204,-0.043 -0.29626,-0.0282 -0.6001,-0.0639 -0.89636,-0.113251 -2.87102,-0.486745 -5.38782,-2.0596 -7.08784,-4.429793 -0.94525,-1.326183 -1.58125,-2.884048 -1.82814,-4.513564 -0.48673,-3.202581 0.47913,-7.273821 2.57419,-10.892617 0.0141,-0.0282 0.36072,-0.648736 0.91799,-1.650416 2.4901,-4.507614 10.01689,-18.114016 10.66587,-19.320268 l 0.18945,-0.580046 c 0.29626,-0.888819 -0.0848,-1.861108 -0.91015,-2.312572 l -0.0411,-0.0215 C 353.44693,48.388901 353.12127,48.311 352.79679,48.311 Z m -45.0113,16.853514 c -0.95936,0 -1.75693,0.782818 -1.78515,1.742187 v 0.0704 c -0.007,0.331553 0.0842,0.661857 0.26756,0.951079 l 5.06641,8.529334 c 0.31743,0.514945 0.88898,0.826108 1.50974,0.826108 0.33859,0 0.67641,-0.0997 0.97269,-0.283133 0.42325,-0.268063 0.71916,-0.663366 0.83202,-1.128941 0.11992,-0.472635 0.043,-0.952229 -0.21093,-1.361373 L 311.02959,68.7681 h 19.41983 l -18.27726,33.89648 c -0.25395,0.47968 -0.30936,1.0288 -0.15417,1.55082 0.15519,0.522 0.50858,0.95296 0.98826,1.20692 l 0.0488,0.0274 c 0.29627,0.16224 0.62738,0.24028 0.95892,0.24028 0.75479,0 1.43903,-0.40921 1.79879,-1.07231 l 19.63847,-36.427706 c 0.48674,-0.902929 0.21995,-2.02466 -0.60538,-2.617206 l -0.0293,-0.0215 c -0.28217,-0.225742 -0.83903,-0.386744 -1.30459,-0.386744 z m 31.52504,36.300816 c -1.14277,0 -2.06636,0.9236 -2.06636,2.06638 v 0.0411 c 0,1.14278 0.92359,2.0683 2.06636,2.0683 h 23.6385 c 1.14276,0 2.06636,-0.92552 2.06636,-2.0683 v -0.0411 c 0,-1.14278 -0.9236,-2.06638 -2.06636,-2.06638 z"
         sodipodi:nodetypes="sccccccccscsccccccccccsccccccccccssccccsccccccsccsccccsssssssssss" />
      <path
         id="path3859"
         style="color:#000000;font-style:normal;font-variant:normal;font-weight:normal;font-stretch:normal;font-size:medium;line-height:normal;font-family:Sans;-inkscape-font-specification:Sans;text-indent:0;text-align:start;text-decoration:none;text-decoration-line:none;letter-spacing:normal;word-spacing:normal;text-transform:none;writing-mode:lr-tb;direction:ltr;baseline-shift:baseline;text-anchor:start;display:inline;overflow:visible;visibility:visible;opacity:0.2;fill:#000000;fill-opacity:1;stroke:none;stroke-width:1;stroke-miterlimit:4;stroke-dasharray:none;stroke-opacity:1;marker:none;enable-background:accumulate"
         d="m 331.1995,153.874 c -0.39033,0 -0.7527,0.16973 -1.00195,0.47071 l -0.24024,0.29101 -7.55664,13.80664 c -0.47968,0.96407 -0.9885,2.01717 -1.40234,3.10352 -1.20391,3.17908 -1.14339,6.24108 0.1875,8.86523 0.23044,0.45146 0.49474,0.89475 0.79101,1.3086 1.52841,2.15857 3.81415,3.58723 6.4336,4.02929 0.26806,0.047 0.54132,0.08 0.80468,0.10352 0.29157,0.0282 0.59241,0.0371 0.88868,0.0371 2.05982,0 4.03906,-0.61497 5.72265,-1.78125 2.17269,-1.50489 3.6064,-3.75881 4.03906,-6.33594 0.43266,-2.57712 -0.18752,-5.17158 -1.74414,-7.30664 -1.55192,-2.12566 -3.85241,-3.53646 -6.47656,-3.97852 -0.15049,-0.0235 -0.29952,-0.0476 -0.44531,-0.0664 -0.36682,-0.0423 -0.74287,0.0758 -1.01563,0.32031 -0.26806,0.23984 -0.42419,0.57228 -0.43359,0.92969 -0.0188,0.6819 0.47558,1.24738 1.13867,1.33203 0.10817,0.0141 0.21996,0.0281 0.32813,0.0469 1.93754,0.32449 3.63492,1.36836 4.78711,2.92969 1.15688,1.57072 1.61861,3.47081 1.29882,5.36133 -0.30097,1.78235 -1.27412,3.36635 -2.74609,4.4668 -1.29326,0.96877 -2.83066,1.47656 -4.45312,1.47656 -0.22103,0 -0.44694,-0.008 -0.66797,-0.0273 -0.19752,-0.0188 -0.40015,-0.0433 -0.59766,-0.0762 -1.91403,-0.32449 -3.59319,-1.37298 -4.72656,-2.95312 -0.63017,-0.88412 -1.05416,-1.92343 -1.21875,-3.00977 -0.3245,-2.13506 0.32007,-4.84723 1.7168,-7.25976 0.009,-0.0188 0.2398,-0.43377 0.61132,-1.10157 1.66008,-3.00508 6.67868,-12.07669 7.11133,-12.88085 l 0.12695,-0.38477 c 0.19752,-0.59255 -0.0572,-1.242 -0.60742,-1.54297 l -0.0273,-0.0137 c -0.19281,-0.10816 -0.40867,-0.16016 -0.625,-0.16016 z m -30.00977,11.23438 c -0.63957,0 -1.17064,0.52253 -1.18945,1.16211 v 0.0469 c -0.005,0.22103 0.0574,0.44196 0.17969,0.63477 l 3.375,5.68554 c 0.21162,0.3433 0.59397,0.55079 1.00781,0.55079 0.22573,0 0.45092,-0.0671 0.64844,-0.18946 0.28217,-0.1787 0.47944,-0.44157 0.55468,-0.75195 0.0799,-0.31509 0.0287,-0.63544 -0.14062,-0.9082 l -2.27148,-3.82813 h 12.94726 l -12.18555,22.59766 c -0.1693,0.31979 -0.20697,0.68714 -0.10351,1.03515 0.10346,0.348 0.33841,0.63539 0.6582,0.80469 l 0.0332,0.0176 c 0.19752,0.10817 0.41765,0.16016 0.63868,0.16016 0.5032,0 0.95938,-0.27279 1.19922,-0.71485 l 13.09375,-24.28515 c 0.32449,-0.60195 0.14593,-1.34911 -0.4043,-1.74415 l -0.0195,-0.0156 c -0.18811,-0.15048 -0.55876,-0.25781 -0.86914,-0.25781 z m 21.01758,24.20117 c -0.76185,0 -1.37891,0.6151 -1.37891,1.37695 v 0.0293 c 0,0.76185 0.61706,1.37695 1.37891,1.37695 h 15.75977 c 0.76185,0 1.37695,-0.6151 1.37695,-1.37695 v -0.0293 c 0,-0.76185 -0.6151,-1.37695 -1.37695,-1.37695 z"
         sodipodi:nodetypes="sccccccccscsccccccccccsccccccccccsssccccsccccccsscscccssssssssssss" />
      <path
         id="path3861"
         style="color:#000000;font-style:normal;font-variant:normal;font-weight:normal;font-stretch:normal;font-size:medium;line-height:normal;font-family:Sans;-inkscape-font-specification:Sans;text-indent:0;text-align:start;text-decoration:none;text-decoration-line:none;letter-spacing:normal;word-spacing:normal;text-transform:none;writing-mode:lr-tb;direction:ltr;baseline-shift:baseline;text-anchor:start;display:inline;overflow:visible;visibility:visible;opacity:0.2;fill:#000000;fill-opacity:1;stroke:none;stroke-width:1.00003;stroke-miterlimit:4;stroke-dasharray:none;stroke-opacity:1;marker:none;enable-background:accumulate"
         d="m 319.83975,231.61216 c -0.27323,0 -0.52669,0.11746 -0.70117,0.32815 l -0.16797,0.20509 -5.29101,9.66458 c -0.33577,0.67488 -0.69078,1.41346 -0.98047,2.17395 -0.84274,2.22547 -0.80076,4.3684 0.13086,6.20541 0.1613,0.31604 0.34534,0.62635 0.55273,0.91606 1.06988,1.51109 2.6703,2.511 4.50391,2.82046 0.18765,0.0329 0.37816,0.0558 0.5625,0.0723 0.20411,0.0197 0.41565,0.0273 0.62305,0.0273 1.44187,0 2.82734,-0.43166 4.00586,-1.24811 1.52088,-1.05348 2.52526,-2.63171 2.82812,-4.43579 0.30286,-1.80409 -0.13106,-3.6209 -1.2207,-5.11551 -1.08634,-1.48804 -2.6963,-2.47584 -4.53321,-2.78531 -0.10534,-0.0165 -0.21045,-0.0317 -0.3125,-0.0449 -0.25677,-0.0296 -0.51999,0.0515 -0.71093,0.22266 -0.18764,0.1679 -0.29811,0.40219 -0.30469,0.65239 -0.0132,0.47736 0.3327,0.87243 0.79688,0.93169 0.0757,0.01 0.15475,0.02 0.23046,0.0332 1.35628,0.22715 2.54504,0.95791 3.35157,2.05089 0.80982,1.09957 1.13205,2.42872 0.9082,3.75216 -0.21068,1.24771 -0.8915,2.35872 -1.92188,3.12907 -0.90528,0.67818 -1.98146,1.03326 -3.11718,1.03326 -0.15473,0 -0.31208,-0.007 -0.4668,-0.0195 -0.13826,-0.0132 -0.28166,-0.0296 -0.41992,-0.0527 -1.33982,-0.22715 -2.51328,-0.96232 -3.30664,-2.06847 -0.44112,-0.61892 -0.7383,-1.3451 -0.85352,-2.10558 -0.22715,-1.49462 0.22346,-3.39539 1.20117,-5.08425 0.007,-0.0132 0.16768,-0.3021 0.42774,-0.76958 1.16206,-2.10367 4.67565,-8.4551 4.97851,-9.01806 l 0.0879,-0.26955 c 0.13826,-0.4148 -0.0387,-0.86944 -0.42382,-1.08013 l -0.0195,-0.01 c -0.13497,-0.0757 -0.28606,-0.11134 -0.4375,-0.11134 z m -21.00585,7.86371 c -0.44771,0 -0.82082,0.36676 -0.83399,0.8145 v 0.0332 c -0.003,0.15473 0.0394,0.30841 0.125,0.44338 l 2.36328,3.98069 c 0.14813,0.24032 0.41538,0.38478 0.70508,0.38478 0.15801,0 0.31682,-0.0453 0.45508,-0.13086 0.19752,-0.1251 0.336,-0.3101 0.38867,-0.52738 0.056,-0.22057 0.0189,-0.44385 -0.0996,-0.63479 l -1.58984,-2.67984 h 9.0625 l -8.5293,15.81726 c -0.11851,0.22386 -0.14468,0.48102 -0.0723,0.72464 0.0724,0.24362 0.23707,0.44402 0.46093,0.56253 l 0.0234,0.0137 c 0.13827,0.0757 0.29254,0.11132 0.44727,0.11132 0.35223,0 0.67195,-0.19057 0.83984,-0.50003 l 9.16406,-16.99895 c 0.22715,-0.42139 0.10196,-0.94619 -0.2832,-1.22272 l -0.0137,-0.01 c -0.13168,-0.10535 -0.39211,-0.18166 -0.60938,-0.18165 z m 14.71093,16.94231 c -0.53329,0 -0.96484,0.43158 -0.96484,0.9649 v 0.0195 c 0,0.53333 0.43155,0.96489 0.96484,0.96489 h 11.03125 c 0.53329,0 0.96485,-0.43157 0.96485,-0.96489 v -0.0195 c 0,-0.53333 -0.43156,-0.9649 -0.96485,-0.9649 z"
         sodipodi:nodetypes="cccccccccscsccccccccccscccccccccccccccccsccccccsccsccccccsssssssss" />
      <path
         id="path3863"
         style="color:#000000;font-style:normal;font-variant:normal;font-weight:normal;font-stretch:normal;font-size:medium;line-height:normal;font-family:Sans;-inkscape-font-specification:Sans;text-indent:0;text-align:start;text-decoration:none;text-decoration-line:none;letter-spacing:normal;word-spacing:normal;text-transform:none;writing-mode:lr-tb;direction:ltr;baseline-shift:baseline;text-anchor:start;display:inline;overflow:visible;visibility:visible;opacity:0.2;fill:#000000;fill-opacity:1;stroke:none;stroke-width:1.00006;stroke-miterlimit:4;stroke-dasharray:none;stroke-opacity:1;marker:none;enable-background:accumulate"
         d="m 437.59871,59.437 c -0.19517,0 -0.3754,0.08394 -0.50003,0.234388 l -0.1211,0.146494 -3.77757,6.90277 c -0.23985,0.48206 -0.49429,1.009626 -0.70122,1.55283 -0.602,1.589638 -0.57178,3.119753 0.0937,4.431914 0.11523,0.225744 0.24643,0.447403 0.39457,0.654336 0.76424,1.079358 1.90717,1.794706 3.21699,2.01575 0.13403,0.0235 0.27068,0.03908 0.40237,0.05078 0.14579,0.0141 0.29719,0.01953 0.44534,0.01953 1.02997,0 2.01965,-0.309447 2.8615,-0.892633 1.08641,-0.752487 1.80332,-1.877572 2.01966,-3.166211 0.21633,-1.28864 -0.0947,-2.586927 -0.87311,-3.654523 -0.776,-1.062895 -1.92436,-1.769313 -3.23652,-1.990356 -0.0752,-0.0118 -0.15173,-0.02185 -0.22463,-0.03125 -0.18342,-0.0212 -0.37145,0.03589 -0.50784,0.158212 -0.13404,0.119938 -0.2121,0.288115 -0.21681,0.466826 -0.009,0.340971 0.23878,0.621781 0.57035,0.664104 0.0541,0.007 0.10999,0.01599 0.16407,0.02539 0.96884,0.16225 1.81855,0.684226 2.39468,1.464934 0.57849,0.785418 0.80838,1.734534 0.64848,2.679852 -0.1505,0.891225 -0.6371,1.684249 -1.37313,2.234513 -0.64667,0.48442 -1.41542,0.738328 -2.2267,0.738328 -0.11053,0 -0.22349,-0.0046 -0.33401,-0.01367 -0.0988,-0.009 -0.20008,-0.02256 -0.29884,-0.03906 -0.95707,-0.16226 -1.79672,-0.686534 -2.36344,-1.476653 -0.3151,-0.442087 -0.5271,-0.960796 -0.6094,-1.503999 -0.16225,-1.067606 0.16103,-2.424749 0.85942,-3.631083 0.005,-0.009 0.11894,-0.216895 0.30471,-0.550815 0.83009,-1.502633 3.33856,-6.037735 3.55491,-6.43985 l 0.0645,-0.193372 c 0.0987,-0.296298 -0.0276,-0.621032 -0.30275,-0.771532 l -0.0156,-0.0078 c -0.0964,-0.0541 -0.20434,-0.07813 -0.31252,-0.07813 z m -6.42812,5.61558 -8.5767,0.002 c -0.31981,0 -0.58439,0.260304 -0.59379,0.580114 v 0.02344 c -0.002,0.110527 0.0267,0.221963 0.0879,0.318379 l 1.68955,2.841972 c 0.10582,0.171661 0.29504,0.275407 0.50198,0.275408 0.11287,0 0.22547,-0.03255 0.32424,-0.09376 0.14109,-0.0894 0.2417,-0.221767 0.27932,-0.376977 0.04,-0.157549 0.0123,-0.316764 -0.0723,-0.453153 l -1.13483,-1.91418 h 6.47306 l -6.09217,11.299525 c -0.0847,0.15991 -0.10253,0.341646 -0.0508,0.515657 0.0517,0.17401 0.16823,0.317713 0.32814,0.402368 l 0.0156,0.0098 c 0.0988,0.0541 0.20981,0.08008 0.32033,0.08008 0.25162,0 0.47972,-0.1364 0.59965,-0.357444 l 6.54728,-12.143327 c 0.16226,-0.300999 0.072,-0.675568 -0.20314,-0.8731 l -0.008,-0.0059 c -0.0941,-0.0752 -0.28038,-0.130867 -0.43557,-0.130867 z m 1.93175,12.102308 c -0.38094,0 -0.68754,0.308543 -0.68754,0.689497 v 0.01367 c 0,0.380943 0.3066,0.689495 0.68754,0.689495 h 7.88135 c 0.38094,0 0.68754,-0.308552 0.68754,-0.689495 v -0.01367 c 0,-0.380954 -0.3066,-0.689497 -0.68754,-0.689497 z"
         sodipodi:nodetypes="sccccccccsssccccssccccscccccccsccssccccccsccccccsccsccccccsssssssss" />
      <path
         id="path3865"
         style="color:#000000;font-style:normal;font-variant:normal;font-weight:normal;font-stretch:normal;font-size:medium;line-height:normal;font-family:Sans;-inkscape-font-specification:Sans;text-indent:0;text-align:start;text-decoration:none;text-decoration-line:none;letter-spacing:normal;word-spacing:normal;text-transform:none;writing-mode:lr-tb;direction:ltr;baseline-shift:baseline;text-anchor:start;display:inline;overflow:visible;visibility:visible;opacity:0.2;fill:#000000;fill-opacity:1;stroke:none;stroke-width:0.999964;stroke-miterlimit:4;stroke-dasharray:none;stroke-opacity:1;marker:none;enable-background:accumulate"
         d="m 431.91972,106.30626 c -0.1366,0 -0.26436,0.0587 -0.35156,0.16405 l -0.084,0.10351 -2.64453,4.83168 c -0.1679,0.3374 -0.34543,0.70567 -0.49023,1.08586 -0.4214,1.11259 -0.39959,2.1849 0.0664,3.1033 0.081,0.158 0.1717,0.31215 0.2754,0.45699 0.5349,0.75545 1.33515,1.25534 2.25195,1.41006 0.094,0.0165 0.18905,0.0289 0.28125,0.0371 0.1021,0.01 0.20685,0.0117 0.31055,0.0117 0.7209,0 1.4147,-0.21484 2.0039,-0.62301 0.7605,-0.52667 1.26266,-1.31471 1.41406,-2.21664 0.1515,-0.90193 -0.0667,-1.81119 -0.61132,-2.55841 -0.5432,-0.74392 -1.34723,-1.23776 -2.26563,-1.39248 -0.053,-0.008 -0.10525,-0.0149 -0.15625,-0.0215 -0.1284,-0.0148 -0.26007,0.0257 -0.35547,0.11132 -0.094,0.0839 -0.14904,0.20107 -0.15234,0.32615 -0.01,0.23865 0.16634,0.43519 0.39844,0.46482 0.038,0.005 0.077,0.011 0.11523,0.0176 0.6781,0.11356 1.27248,0.47889 1.67578,1.02531 0.4049,0.54971 0.56698,1.21323 0.45508,1.87486 -0.1054,0.62378 -0.44574,1.17922 -0.96094,1.56435 -0.4526,0.33905 -0.99274,0.51754 -1.56054,0.51754 -0.077,0 -0.15513,-0.003 -0.23243,-0.01 -0.069,-0.007 -0.13978,-0.0158 -0.20898,-0.0273 -0.6699,-0.11357 -1.2576,-0.48013 -1.6543,-1.03314 -0.2205,-0.30943 -0.36818,-0.67442 -0.42578,-1.05461 -0.1135,-0.74722 0.11071,-1.69651 0.59961,-2.54084 0,-0.007 0.0848,-0.15102 0.21484,-0.38473 0.581,-1.0517 2.33679,-4.22604 2.48829,-4.50748 l 0.043,-0.13476 c 0.069,-0.20738 -0.0186,-0.43564 -0.21093,-0.54097 l -0.01,-0.004 c -0.068,-0.0379 -0.14305,-0.0566 -0.21875,-0.0566 z m -10.50391,3.93136 c -0.2239,0 -0.40941,0.18433 -0.41601,0.40817 v 0.0156 c 0,0.0774 0.0195,0.15517 0.0625,0.22265 l 1.18164,1.99008 c 0.074,0.12016 0.20872,0.1914 0.35352,0.1914 0.079,0 0.15736,-0.0217 0.22656,-0.0645 0.099,-0.0626 0.16696,-0.15502 0.19336,-0.26365 0.028,-0.11027 0.0102,-0.22287 -0.0488,-0.31833 l -0.79492,-1.33975 h 4.53125 l -4.26367,7.90763 c -0.059,0.11192 -0.0741,0.24146 -0.0371,0.36326 0.036,0.1218 0.11856,0.22198 0.23047,0.28123 l 0.0137,0.006 c 0.069,0.0379 0.14535,0.0566 0.22265,0.0566 0.1762,0 0.33592,-0.0953 0.41992,-0.24998 l 4.58204,-8.4994 c 0.1135,-0.21066 0.052,-0.47303 -0.14063,-0.61128 l -0.01,-0.004 c -0.066,-0.0527 -0.19609,-0.0918 -0.30469,-0.0918 z m 7.35547,8.47009 c -0.2666,0 -0.48047,0.21576 -0.48047,0.48239 v 0.01 c 0,0.26663 0.21387,0.48238 0.48047,0.48238 h 5.51758 c 0.2666,0 0.48047,-0.21575 0.48047,-0.48238 v -0.01 c 0,-0.26663 -0.21387,-0.48239 -0.48047,-0.48239 z"
         sodipodi:nodetypes="cccccccccscccccccsccscsccccccccccccscsccscccccccccsccccsssssssssss" />
      <path
         id="path3867"
         style="color:#000000;font-style:normal;font-variant:normal;font-weight:normal;font-stretch:normal;font-size:medium;line-height:normal;font-family:Sans;-inkscape-font-specification:Sans;text-indent:0;text-align:start;text-decoration:none;text-decoration-line:none;letter-spacing:normal;word-spacing:normal;text-transform:none;writing-mode:lr-tb;direction:ltr;baseline-shift:baseline;text-anchor:start;display:inline;overflow:visible;visibility:visible;opacity:0.2;fill:#000000;fill-opacity:1;stroke:none;stroke-width:0.0117562;stroke-miterlimit:4;stroke-dasharray:none;stroke-opacity:1;marker:none;enable-background:accumulate"
         d="m 426.79966,144.21873 c -0.0976,0 -0.18812,0.0423 -0.25043,0.11755 l -0.06,0.0729 -1.88933,3.45141 c -0.11992,0.24099 -0.24691,0.50432 -0.35037,0.77586 -0.30097,0.79467 -0.28569,1.55995 0.047,2.21591 0.0576,0.11284 0.12346,0.22334 0.19753,0.32678 0.3821,0.53958 0.95347,0.89696 1.60833,1.00746 0.067,0.0118 0.1352,0.02 0.20104,0.0259 0.0729,0.007 0.14815,0.009 0.22221,0.009 0.51496,0 1.00994,-0.154 1.43084,-0.44553 0.54317,-0.37617 0.90174,-0.93928 1.0099,-1.58348 0.10817,-0.6442 -0.047,-1.29307 -0.43617,-1.82677 -0.38798,-0.53135 -0.96289,-0.88403 -1.61893,-0.99453 -0.0376,-0.006 -0.0752,-0.0117 -0.11169,-0.0164 -0.0917,-0.0106 -0.18576,0.0188 -0.25395,0.0799 -0.067,0.06 -0.10582,0.14342 -0.10817,0.23276 -0.005,0.17045 0.11876,0.31151 0.28453,0.33266 0.027,0.004 0.0553,0.007 0.0823,0.0118 0.48438,0.0811 0.9088,0.3421 1.19684,0.73238 0.28922,0.39263 0.40444,0.86755 0.32449,1.34012 -0.0752,0.44553 -0.3186,0.84169 -0.68659,1.11676 -0.32332,0.24216 -0.70778,0.36912 -1.1134,0.36912 -0.0553,0 -0.11168,-0.002 -0.16694,-0.007 -0.0494,-0.005 -0.0999,-0.0106 -0.14932,-0.0188 -0.47851,-0.0811 -0.89823,-0.34325 -1.18158,-0.73823 -0.15754,-0.221 -0.26333,-0.4808 -0.30448,-0.75234 -0.0811,-0.5337 0.0799,-1.21199 0.42913,-1.81505 0.002,-0.005 0.06,-0.10815 0.15284,-0.27508 0.41502,-0.75118 1.66948,-3.0188 1.77764,-3.21982 l 0.0317,-0.0964 c 0.0494,-0.14812 -0.0141,-0.31035 -0.15164,-0.38559 l -0.007,-0.004 c -0.0482,-0.027 -0.10227,-0.04 -0.15635,-0.04 z m -7.50211,2.80838 c -0.15989,0 -0.29275,0.13047 -0.29746,0.29035 v 0.0118 c -10e-4,0.0553 0.0141,0.11051 0.0447,0.1587 l 0.84414,1.42124 c 0.0529,0.0858 0.14814,0.13753 0.2516,0.13753 0.0564,0 0.11287,-0.0165 0.16225,-0.047 0.0705,-0.0447 0.11991,-0.11049 0.13872,-0.18808 0.02,-0.0788 0.007,-0.15868 -0.0353,-0.22686 l -0.56785,-0.9569 h 3.23668 l -3.04622,5.64848 c -0.0423,0.0799 -0.0517,0.17163 -0.0259,0.25862 0.0259,0.087 0.0847,0.1587 0.1646,0.20102 l 0.008,0.005 c 0.0494,0.027 0.10463,0.04 0.15989,0.04 0.1258,0 0.23984,-0.0682 0.2998,-0.1787 l 3.27314,-6.07049 c 0.0811,-0.15047 0.0365,-0.33739 -0.1011,-0.43614 l -0.005,-0.004 c -0.047,-0.0376 -0.13991,-0.0647 -0.2175,-0.0647 z m 5.25417,6.04934 c -0.19046,0 -0.34447,0.15401 -0.34447,0.34445 v 0.007 c 0,0.19043 0.15401,0.34442 0.34447,0.34442 h 3.93977 c 0.19046,0 0.34447,-0.15399 0.34447,-0.34442 v -0.007 c 0,-0.19044 -0.15401,-0.34445 -0.34447,-0.34445 z"
         sodipodi:nodetypes="sccccccccscsccccccccccsccccccccccssccccsccccccsccsccccsssssssssss" />
      <g
         id="g4195"
         transform="matrix(0.01175694,0,0,0.01175694,393.1877,142.97273)">
        <path
           d="m 2642,396.7 c -25.6,67.6 -24.3,132.7 4,188.5 4.9,9.6 10.5,19 16.8,27.8 32.5,45.9 81.1,76.3 136.8,85.7 5.7,1 11.5,1.7 17.1,2.2 6.2,0.6 12.6,0.8 18.9,0.8 43.8,0 85.9,-13.1 121.7,-37.9 46.2,-32 76.7,-79.9 85.9,-134.7 9.2,-54.8 -4,-110 -37.1,-155.4 -33,-45.2 -81.9,-75.2 -137.7,-84.6 -3.2,-0.5 -6.4,-1 -9.5,-1.4 -7.8,-0.9 -15.8,1.6 -21.6,6.8 -5.7,5.1 -9,12.2 -9.2,19.8 -0.4,14.5 10.1,26.5 24.2,28.3 2.3,0.3 4.7,0.6 7,1 41.2,6.9 77.3,29.1 101.8,62.3 24.6,33.4 34.4,73.8 27.6,114 -6.4,37.9 -27.1,71.6 -58.4,95 -27.5,20.6 -60.2,31.4 -94.7,31.4 -4.7,0 -9.5,-0.2 -14.2,-0.6 -4.2,-0.4 -8.5,-0.9 -12.7,-1.6 -40.7,-6.9 -76.4,-29.2 -100.5,-62.8 -13.4,-18.8 -22.4,-40.9 -25.9,-64 -6.9,-45.4 6.8,-103.1 36.5,-154.4 0.2,-0.4 5.1,-9.2 13,-23.4 35.3,-63.9 142,-256.8 151.2,-273.9 l 2.7,-8.2 c 4.2,-12.6 -1.2,-26.4 -12.9,-32.8 l -0.6,-0.3 c -4.1,-2.3 -8.7,-3.4 -13.3,-3.4 -8.3,0 -16,3.6 -21.3,10 l -5.1,6.2 -160.7,293.6 c -10.2,20.5 -21,42.9 -29.8,66 z m -347.2,433.8 0.7,0.4 c 4.2,2.3 8.9,3.4 13.6,3.4 10.7,0 20.4,-5.8 25.5,-15.2 L 2613,302.7 c 6.9,-12.8 3.1,-28.7 -8.6,-37.1 l -0.4,-0.3 c -4,-3.2 -11.9,-5.5 -18.5,-5.5 h -364.7 c -13.6,0 -24.9,11.1 -25.3,24.7 v 1 c -0.1,4.7 1.2,9.4 3.8,13.5 l 71.8,120.9 c 4.5,7.3 12.6,11.7 21.4,11.7 4.8,0 9.6,-1.4 13.8,-4 6,-3.8 10.2,-9.4 11.8,-16 1.7,-6.7 0.6,-13.5 -3,-19.3 l -48.3,-81.4 h 275.3 L 2283,791.4 c -3.6,6.8 -4.4,14.6 -2.2,22 2.2,7.4 7.2,13.5 14,17.1 z"
           class="sys-foreground-3QnF"
           id="path191"
           style="fill:#fffffb;fill-opacity:1" />
        <path
           d="m 3002.8,833.6 h -335.1 c -16.2,0 -29.3,-13.1 -29.3,-29.3 v -0.6 c 0,-16.2 13.1,-29.3 29.3,-29.3 h 335.1 c 16.2,0 29.3,13.1 29.3,29.3 v 0.6 c 0,16.2 -13.1,29.3 -29.3,29.3 z"
           class="sys-accent-3bPa"
           id="path193"
           style="fill:#faa41a;fill-opacity:1" />
      </g>
      <g
         id="g4205"
         transform="matrix(0.01645972,0,0,0.01645972,384.86277,104.96182)">
        <path
           d="m 2642,396.7 c -25.6,67.6 -24.3,132.7 4,188.5 4.9,9.6 10.5,19 16.8,27.8 32.5,45.9 81.1,76.3 136.8,85.7 5.7,1 11.5,1.7 17.1,2.2 6.2,0.6 12.6,0.8 18.9,0.8 43.8,0 85.9,-13.1 121.7,-37.9 46.2,-32 76.7,-79.9 85.9,-134.7 9.2,-54.8 -4,-110 -37.1,-155.4 -33,-45.2 -81.9,-75.2 -137.7,-84.6 -3.2,-0.5 -6.4,-1 -9.5,-1.4 -7.8,-0.9 -15.8,1.6 -21.6,6.8 -5.7,5.1 -9,12.2 -9.2,19.8 -0.4,14.5 10.1,26.5 24.2,28.3 2.3,0.3 4.7,0.6 7,1 41.2,6.9 77.3,29.1 101.8,62.3 24.6,33.4 34.4,73.8 27.6,114 -6.4,37.9 -27.1,71.6 -58.4,95 -27.5,20.6 -60.2,31.4 -94.7,31.4 -4.7,0 -9.5,-0.2 -14.2,-0.6 -4.2,-0.4 -8.5,-0.9 -12.7,-1.6 -40.7,-6.9 -76.4,-29.2 -100.5,-62.8 -13.4,-18.8 -22.4,-40.9 -25.9,-64 -6.9,-45.4 6.8,-103.1 36.5,-154.4 0.2,-0.4 5.1,-9.2 13,-23.4 35.3,-63.9 142,-256.8 151.2,-273.9 l 2.7,-8.2 c 4.2,-12.6 -1.2,-26.4 -12.9,-32.8 l -0.6,-0.3 c -4.1,-2.3 -8.7,-3.4 -13.3,-3.4 -8.3,0 -16,3.6 -21.3,10 l -5.1,6.2 -160.7,293.6 c -10.2,20.5 -21,42.9 -29.8,66 z m -347.2,433.8 0.7,0.4 c 4.2,2.3 8.9,3.4 13.6,3.4 10.7,0 20.4,-5.8 25.5,-15.2 L 2613,302.7 c 6.9,-12.8 3.1,-28.7 -8.6,-37.1 l -0.4,-0.3 c -4,-3.2 -11.9,-5.5 -18.5,-5.5 h -364.7 c -13.6,0 -24.9,11.1 -25.3,24.7 v 1 c -0.1,4.7 1.2,9.4 3.8,13.5 l 71.8,120.9 c 4.5,7.3 12.6,11.7 21.4,11.7 4.8,0 9.6,-1.4 13.8,-4 6,-3.8 10.2,-9.4 11.8,-16 1.7,-6.7 0.6,-13.5 -3,-19.3 l -48.3,-81.4 h 275.3 L 2283,791.4 c -3.6,6.8 -4.4,14.6 -2.2,22 2.2,7.4 7.2,13.5 14,17.1 z"
           class="sys-foreground-3QnF"
           id="path191-7"
           style="fill:#fffffb;fill-opacity:1" />
        <path
           d="m 3002.8,833.6 h -335.1 c -16.2,0 -29.3,-13.1 -29.3,-29.3 v -0.6 c 0,-16.2 13.1,-29.3 29.3,-29.3 h 335.1 c 16.2,0 29.3,13.1 29.3,29.3 v 0.6 c 0,16.2 -13.1,29.3 -29.3,29.3 z"
           class="sys-accent-3bPa"
           id="path193-8"
           style="fill:#faa41a;fill-opacity:1" />
      </g>
      <g
         id="g4215"
         transform="matrix(0.02351388,0,0,0.02351388,370.3754,57.945465)">
        <path
           d="m 2642,396.7 c -25.6,67.6 -24.3,132.7 4,188.5 4.9,9.6 10.5,19 16.8,27.8 32.5,45.9 81.1,76.3 136.8,85.7 5.7,1 11.5,1.7 17.1,2.2 6.2,0.6 12.6,0.8 18.9,0.8 43.8,0 85.9,-13.1 121.7,-37.9 46.2,-32 76.7,-79.9 85.9,-134.7 9.2,-54.8 -4,-110 -37.1,-155.4 -33,-45.2 -81.9,-75.2 -137.7,-84.6 -3.2,-0.5 -6.4,-1 -9.5,-1.4 -7.8,-0.9 -15.8,1.6 -21.6,6.8 -5.7,5.1 -9,12.2 -9.2,19.8 -0.4,14.5 10.1,26.5 24.2,28.3 2.3,0.3 4.7,0.6 7,1 41.2,6.9 77.3,29.1 101.8,62.3 24.6,33.4 34.4,73.8 27.6,114 -6.4,37.9 -27.1,71.6 -58.4,95 -27.5,20.6 -60.2,31.4 -94.7,31.4 -4.7,0 -9.5,-0.2 -14.2,-0.6 -4.2,-0.4 -8.5,-0.9 -12.7,-1.6 -40.7,-6.9 -76.4,-29.2 -100.5,-62.8 -13.4,-18.8 -22.4,-40.9 -25.9,-64 -6.9,-45.4 6.8,-103.1 36.5,-154.4 0.2,-0.4 5.1,-9.2 13,-23.4 35.3,-63.9 142,-256.8 151.2,-273.9 l 2.7,-8.2 c 4.2,-12.6 -1.2,-26.4 -12.9,-32.8 l -0.6,-0.3 c -4.1,-2.3 -8.7,-3.4 -13.3,-3.4 -8.3,0 -16,3.6 -21.3,10 l -5.1,6.2 -160.7,293.6 c -10.2,20.5 -21,42.9 -29.8,66 z m -347.2,433.8 0.7,0.4 c 4.2,2.3 8.9,3.4 13.6,3.4 10.7,0 20.4,-5.8 25.5,-15.2 L 2613,302.7 c 6.9,-12.8 3.1,-28.7 -8.6,-37.1 l -0.4,-0.3 c -4,-3.2 -11.9,-5.5 -18.5,-5.5 h -364.7 c -13.6,0 -24.9,11.1 -25.3,24.7 v 1 c -0.1,4.7 1.2,9.4 3.8,13.5 l 71.8,120.9 c 4.5,7.3 12.6,11.7 21.4,11.7 4.8,0 9.6,-1.4 13.8,-4 6,-3.8 10.2,-9.4 11.8,-16 1.7,-6.7 0.6,-13.5 -3,-19.3 l -48.3,-81.4 h 275.3 L 2283,791.4 c -3.6,6.8 -4.4,14.6 -2.2,22 2.2,7.4 7.2,13.5 14,17.1 z"
           class="sys-foreground-3QnF"
           id="path191-4"
           style="fill:#fffffb;fill-opacity:1" />
        <path
           d="m 3002.8,833.6 h -335.1 c -16.2,0 -29.3,-13.1 -29.3,-29.3 v -0.6 c 0,-16.2 13.1,-29.3 29.3,-29.3 h 335.1 c 16.2,0 29.3,13.1 29.3,29.3 v 0.6 c 0,16.2 -13.1,29.3 -29.3,29.3 z"
           class="sys-accent-3bPa"
           id="path193-5"
           style="fill:#faa41a;fill-opacity:1" />
      </g>
      <g
         id="g4225"
         transform="matrix(0.03291944,0,0,0.03291944,225.72554,229.92365)">
        <path
           d="m 2642,396.7 c -25.6,67.6 -24.3,132.7 4,188.5 4.9,9.6 10.5,19 16.8,27.8 32.5,45.9 81.1,76.3 136.8,85.7 5.7,1 11.5,1.7 17.1,2.2 6.2,0.6 12.6,0.8 18.9,0.8 43.8,0 85.9,-13.1 121.7,-37.9 46.2,-32 76.7,-79.9 85.9,-134.7 9.2,-54.8 -4,-110 -37.1,-155.4 -33,-45.2 -81.9,-75.2 -137.7,-84.6 -3.2,-0.5 -6.4,-1 -9.5,-1.4 -7.8,-0.9 -15.8,1.6 -21.6,6.8 -5.7,5.1 -9,12.2 -9.2,19.8 -0.4,14.5 10.1,26.5 24.2,28.3 2.3,0.3 4.7,0.6 7,1 41.2,6.9 77.3,29.1 101.8,62.3 24.6,33.4 34.4,73.8 27.6,114 -6.4,37.9 -27.1,71.6 -58.4,95 -27.5,20.6 -60.2,31.4 -94.7,31.4 -4.7,0 -9.5,-0.2 -14.2,-0.6 -4.2,-0.4 -8.5,-0.9 -12.7,-1.6 -40.7,-6.9 -76.4,-29.2 -100.5,-62.8 -13.4,-18.8 -22.4,-40.9 -25.9,-64 -6.9,-45.4 6.8,-103.1 36.5,-154.4 0.2,-0.4 5.1,-9.2 13,-23.4 35.3,-63.9 142,-256.8 151.2,-273.9 l 2.7,-8.2 c 4.2,-12.6 -1.2,-26.4 -12.9,-32.8 l -0.6,-0.3 c -4.1,-2.3 -8.7,-3.4 -13.3,-3.4 -8.3,0 -16,3.6 -21.3,10 l -5.1,6.2 -160.7,293.6 c -10.2,20.5 -21,42.9 -29.8,66 z m -347.2,433.8 0.7,0.4 c 4.2,2.3 8.9,3.4 13.6,3.4 10.7,0 20.4,-5.8 25.5,-15.2 L 2613,302.7 c 6.9,-12.8 3.1,-28.7 -8.6,-37.1 l -0.4,-0.3 c -4,-3.2 -11.9,-5.5 -18.5,-5.5 h -364.7 c -13.6,0 -24.9,11.1 -25.3,24.7 v 1 c -0.1,4.7 1.2,9.4 3.8,13.5 l 71.8,120.9 c 4.5,7.3 12.6,11.7 21.4,11.7 4.8,0 9.6,-1.4 13.8,-4 6,-3.8 10.2,-9.4 11.8,-16 1.7,-6.7 0.6,-13.5 -3,-19.3 l -48.3,-81.4 h 275.3 L 2283,791.4 c -3.6,6.8 -4.4,14.6 -2.2,22 2.2,7.4 7.2,13.5 14,17.1 z"
           class="sys-foreground-3QnF"
           id="path191-0"
           style="fill:#fffffb;fill-opacity:1" />
        <path
           d="m 3002.8,833.6 h -335.1 c -16.2,0 -29.3,-13.1 -29.3,-29.3 v -0.6 c 0,-16.2 13.1,-29.3 29.3,-29.3 h 335.1 c 16.2,0 29.3,13.1 29.3,29.3 v 0.6 c 0,16.2 -13.1,29.3 -29.3,29.3 z"
           class="sys-accent-3bPa"
           id="path193-3"
           style="fill:#faa41a;fill-opacity:1" />
      </g>
      <g
         id="g4235"
         transform="matrix(0.04702777,0,0,0.04702777,196.75078,151.89093)">
        <path
           d="m 2642,396.7 c -25.6,67.6 -24.3,132.7 4,188.5 4.9,9.6 10.5,19 16.8,27.8 32.5,45.9 81.1,76.3 136.8,85.7 5.7,1 11.5,1.7 17.1,2.2 6.2,0.6 12.6,0.8 18.9,0.8 43.8,0 85.9,-13.1 121.7,-37.9 46.2,-32 76.7,-79.9 85.9,-134.7 9.2,-54.8 -4,-110 -37.1,-155.4 -33,-45.2 -81.9,-75.2 -137.7,-84.6 -3.2,-0.5 -6.4,-1 -9.5,-1.4 -7.8,-0.9 -15.8,1.6 -21.6,6.8 -5.7,5.1 -9,12.2 -9.2,19.8 -0.4,14.5 10.1,26.5 24.2,28.3 2.3,0.3 4.7,0.6 7,1 41.2,6.9 77.3,29.1 101.8,62.3 24.6,33.4 34.4,73.8 27.6,114 -6.4,37.9 -27.1,71.6 -58.4,95 -27.5,20.6 -60.2,31.4 -94.7,31.4 -4.7,0 -9.5,-0.2 -14.2,-0.6 -4.2,-0.4 -8.5,-0.9 -12.7,-1.6 -40.7,-6.9 -76.4,-29.2 -100.5,-62.8 -13.4,-18.8 -22.4,-40.9 -25.9,-64 -6.9,-45.4 6.8,-103.1 36.5,-154.4 0.2,-0.4 5.1,-9.2 13,-23.4 35.3,-63.9 142,-256.8 151.2,-273.9 l 2.7,-8.2 c 4.2,-12.6 -1.2,-26.4 -12.9,-32.8 l -0.6,-0.3 c -4.1,-2.3 -8.7,-3.4 -13.3,-3.4 -8.3,0 -16,3.6 -21.3,10 l -5.1,6.2 -160.7,293.6 c -10.2,20.5 -21,42.9 -29.8,66 z m -347.2,433.8 0.7,0.4 c 4.2,2.3 8.9,3.4 13.6,3.4 10.7,0 20.4,-5.8 25.5,-15.2 L 2613,302.7 c 6.9,-12.8 3.1,-28.7 -8.6,-37.1 l -0.4,-0.3 c -4,-3.2 -11.9,-5.5 -18.5,-5.5 h -364.7 c -13.6,0 -24.9,11.1 -25.3,24.7 v 1 c -0.1,4.7 1.2,9.4 3.8,13.5 l 71.8,120.9 c 4.5,7.3 12.6,11.7 21.4,11.7 4.8,0 9.6,-1.4 13.8,-4 6,-3.8 10.2,-9.4 11.8,-16 1.7,-6.7 0.6,-13.5 -3,-19.3 l -48.3,-81.4 h 275.3 L 2283,791.4 c -3.6,6.8 -4.4,14.6 -2.2,22 2.2,7.4 7.2,13.5 14,17.1 z"
           class="sys-foreground-3QnF"
           id="path191-6"
           style="fill:#fffffb;fill-opacity:1" />
        <path
           d="m 3002.8,833.6 h -335.1 c -16.2,0 -29.3,-13.1 -29.3,-29.3 v -0.6 c 0,-16.2 13.1,-29.3 29.3,-29.3 h 335.1 c 16.2,0 29.3,13.1 29.3,29.3 v 0.6 c 0,16.2 -13.1,29.3 -29.3,29.3 z"
           class="sys-accent-3bPa"
           id="path193-1"
           style="fill:#faa41a;fill-opacity:1" />
      </g>
      <g
         id="g4245"
         transform="matrix(0.07054165,0,0,0.07054165,151.12619,45.83639)">
        <path
           d="m 2642,396.7 c -25.6,67.6 -24.3,132.7 4,188.5 4.9,9.6 10.5,19 16.8,27.8 32.5,45.9 81.1,76.3 136.8,85.7 5.7,1 11.5,1.7 17.1,2.2 6.2,0.6 12.6,0.8 18.9,0.8 43.8,0 85.9,-13.1 121.7,-37.9 46.2,-32 76.7,-79.9 85.9,-134.7 9.2,-54.8 -4,-110 -37.1,-155.4 -33,-45.2 -81.9,-75.2 -137.7,-84.6 -3.2,-0.5 -6.4,-1 -9.5,-1.4 -7.8,-0.9 -15.8,1.6 -21.6,6.8 -5.7,5.1 -9,12.2 -9.2,19.8 -0.4,14.5 10.1,26.5 24.2,28.3 2.3,0.3 4.7,0.6 7,1 41.2,6.9 77.3,29.1 101.8,62.3 24.6,33.4 34.4,73.8 27.6,114 -6.4,37.9 -27.1,71.6 -58.4,95 -27.5,20.6 -60.2,31.4 -94.7,31.4 -4.7,0 -9.5,-0.2 -14.2,-0.6 -4.2,-0.4 -8.5,-0.9 -12.7,-1.6 -40.7,-6.9 -76.4,-29.2 -100.5,-62.8 -13.4,-18.8 -22.4,-40.9 -25.9,-64 -6.9,-45.4 6.8,-103.1 36.5,-154.4 0.2,-0.4 5.1,-9.2 13,-23.4 35.3,-63.9 142,-256.8 151.2,-273.9 l 2.7,-8.2 c 4.2,-12.6 -1.2,-26.4 -12.9,-32.8 l -0.6,-0.3 c -4.1,-2.3 -8.7,-3.4 -13.3,-3.4 -8.3,0 -16,3.6 -21.3,10 l -5.1,6.2 -160.7,293.6 c -10.2,20.5 -21,42.9 -29.8,66 z m -347.2,433.8 0.7,0.4 c 4.2,2.3 8.9,3.4 13.6,3.4 10.7,0 20.4,-5.8 25.5,-15.2 L 2613,302.7 c 6.9,-12.8 3.1,-28.7 -8.6,-37.1 l -0.4,-0.3 c -4,-3.2 -11.9,-5.5 -18.5,-5.5 h -364.7 c -13.6,0 -24.9,11.1 -25.3,24.7 v 1 c -0.1,4.7 1.2,9.4 3.8,13.5 l 71.8,120.9 c 4.5,7.3 12.6,11.7 21.4,11.7 4.8,0 9.6,-1.4 13.8,-4 6,-3.8 10.2,-9.4 11.8,-16 1.7,-6.7 0.6,-13.5 -3,-19.3 l -48.3,-81.4 h 275.3 L 2283,791.4 c -3.6,6.8 -4.4,14.6 -2.2,22 2.2,7.4 7.2,13.5 14,17.1 z"
           class="sys-foreground-3QnF"
           id="path191-06"
           style="fill:#fffffb;fill-opacity:1" />
        <path
           d="m 3002.8,833.6 h -335.1 c -16.2,0 -29.3,-13.1 -29.3,-29.3 v -0.6 c 0,-16.2 13.1,-29.3 29.3,-29.3 h 335.1 c 16.2,0 29.3,13.1 29.3,29.3 v 0.6 c 0,16.2 -13.1,29.3 -29.3,29.3 z"
           class="sys-accent-3bPa"
           id="path193-32"
           style="fill:#faa41a;fill-opacity:1" />
      </g>
      <g
         id="g4255"
         transform="matrix(0.16459719,0,0,0.16459719,-287.37225,85.618242)">
        <path
           d="m 2642,396.7 c -25.6,67.6 -24.3,132.7 4,188.5 4.9,9.6 10.5,19 16.8,27.8 32.5,45.9 81.1,76.3 136.8,85.7 5.7,1 11.5,1.7 17.1,2.2 6.2,0.6 12.6,0.8 18.9,0.8 43.8,0 85.9,-13.1 121.7,-37.9 46.2,-32 76.7,-79.9 85.9,-134.7 9.2,-54.8 -4,-110 -37.1,-155.4 -33,-45.2 -81.9,-75.2 -137.7,-84.6 -3.2,-0.5 -6.4,-1 -9.5,-1.4 -7.8,-0.9 -15.8,1.6 -21.6,6.8 -5.7,5.1 -9,12.2 -9.2,19.8 -0.4,14.5 10.1,26.5 24.2,28.3 2.3,0.3 4.7,0.6 7,1 41.2,6.9 77.3,29.1 101.8,62.3 24.6,33.4 34.4,73.8 27.6,114 -6.4,37.9 -27.1,71.6 -58.4,95 -27.5,20.6 -60.2,31.4 -94.7,31.4 -4.7,0 -9.5,-0.2 -14.2,-0.6 -4.2,-0.4 -8.5,-0.9 -12.7,-1.6 -40.7,-6.9 -76.4,-29.2 -100.5,-62.8 -13.4,-18.8 -22.4,-40.9 -25.9,-64 -6.9,-45.4 6.8,-103.1 36.5,-154.4 0.2,-0.4 5.1,-9.2 13,-23.4 35.3,-63.9 142,-256.8 151.2,-273.9 l 2.7,-8.2 c 4.2,-12.6 -1.2,-26.4 -12.9,-32.8 l -0.6,-0.3 c -4.1,-2.3 -8.7,-3.4 -13.3,-3.4 -8.3,0 -16,3.6 -21.3,10 l -5.1,6.2 -160.7,293.6 c -10.2,20.5 -21,42.9 -29.8,66 z m -347.2,433.8 0.7,0.4 c 4.2,2.3 8.9,3.4 13.6,3.4 10.7,0 20.4,-5.8 25.5,-15.2 L 2613,302.7 c 6.9,-12.8 3.1,-28.7 -8.6,-37.1 l -0.4,-0.3 c -4,-3.2 -11.9,-5.5 -18.5,-5.5 h -364.7 c -13.6,0 -24.9,11.1 -25.3,24.7 v 1 c -0.1,4.7 1.2,9.4 3.8,13.5 l 71.8,120.9 c 4.5,7.3 12.6,11.7 21.4,11.7 4.8,0 9.6,-1.4 13.8,-4 6,-3.8 10.2,-9.4 11.8,-16 1.7,-6.7 0.6,-13.5 -3,-19.3 l -48.3,-81.4 h 275.3 L 2283,791.4 c -3.6,6.8 -4.4,14.6 -2.2,22 2.2,7.4 7.2,13.5 14,17.1 z"
           class="sys-foreground-3QnF"
           id="path191-061"
           style="fill:#fffffb;fill-opacity:1" />
        <path
           d="m 3002.8,833.6 h -335.1 c -16.2,0 -29.3,-13.1 -29.3,-29.3 v -0.6 c 0,-16.2 13.1,-29.3 29.3,-29.3 h 335.1 c 16.2,0 29.3,13.1 29.3,29.3 v 0.6 c 0,16.2 -13.1,29.3 -29.3,29.3 z"
           class="sys-accent-3bPa"
           id="path193-55"
           style="fill:#faa41a;fill-opacity:1" />
      </g>
    </g>
    <g
       inkscape:groupmode="layer"
       id="layer5"
       inkscape:label="Highlights"
       style="display:inline"
       sodipodi:insensitive="true">
      <path
         style="color:#bebebe;display:inline;overflow:visible;visibility:visible;opacity:0.13;fill:#ffffff;fill-opacity:1;fill-rule:nonzero;stroke:none;stroke-width:0;marker:none;enable-background:accumulate"
         d="M 84,47 C 56.836703,47 35,68.836703 35,96 v 1 C 35,69.836703 56.836703,48 84,48 h 120 c 27.1633,0 49,21.836703 49,49 V 96 C 253,68.836703 231.1633,47 204,47 Z"
         id="rect3894"
         inkscape:connector-curvature="0" />
      <path
         style="color:#bebebe;display:inline;overflow:visible;visibility:visible;opacity:0.13;fill:#ffffff;fill-opacity:1;fill-rule:nonzero;stroke:none;stroke-width:0;marker:none;enable-background:accumulate"
         d="m 419,141 c -1.1253,0 -2,0.8747 -2,2 v 1 c 0,-1.1253 0.8747,-2 2,-2 h 10 c 1.1253,0 2,0.8747 2,2 v -1 c 0,-1.1253 -0.8747,-2 -2,-2 z"
         id="rect3896"
         inkscape:connector-curvature="0" />
      <path
         style="color:#bebebe;display:inline;overflow:visible;visibility:visible;opacity:0.13;fill:#ffffff;fill-opacity:1;fill-rule:nonzero;stroke:none;stroke-width:0;marker:none;enable-background:accumulate"
         d="m 422,102 c -2.2333,0 -4,1.7667 -4,4 v 1 c 0,-2.2333 1.7667,-4 4,-4 h 12 c 2.2333,0 4,1.7667 4,4 v -1 c 0,-2.2333 -1.7667,-4 -4,-4 z"
         id="rect3898"
         inkscape:connector-curvature="0" />
      <path
         style="color:#bebebe;display:inline;overflow:visible;visibility:visible;opacity:0.13;fill:#ffffff;fill-opacity:1;fill-rule:nonzero;stroke:none;stroke-width:0;marker:none;enable-background:accumulate"
         d="m 424,54 c -3.3413,0 -6,2.658703 -6,6 v 1 c 0,-3.341297 2.6587,-6 6,-6 h 16 c 3.3413,0 6,2.658703 6,6 v -1 c 0,-3.341297 -2.6587,-6 -6,-6 z"
         id="rect3900"
         inkscape:connector-curvature="0" />
      <path
         style="color:#bebebe;display:inline;overflow:visible;visibility:visible;opacity:0.13;fill:#ffffff;fill-opacity:1;fill-rule:nonzero;stroke:none;stroke-width:0;marker:none;enable-background:accumulate"
         d="m 300,224 c -4.4493,0 -8,3.5507 -8,8 v 1 c 0,-4.4493 3.5507,-8 8,-8 h 24 c 4.4493,0 8,3.5507 8,8 v -1 c 0,-4.4493 -3.5507,-8 -8,-8 z"
         id="rect3902"
         inkscape:connector-curvature="0" />
      <path
         style="color:#bebebe;display:inline;overflow:visible;visibility:visible;opacity:0.13;fill:#ffffff;fill-opacity:1;fill-rule:nonzero;stroke:none;stroke-width:0;marker:none;enable-background:accumulate"
         d="m 310,33 c -9.4353,0 -17,7.564703 -17,17 v 1 c 0,-9.435297 7.5647,-17 17,-17 h 52 c 9.4353,0 17,7.564703 17,17 v -1 c 0,-9.435297 -7.5647,-17 -17,-17 z"
         id="rect3904"
         inkscape:connector-curvature="0" />
      <path
         style="color:#bebebe;display:inline;overflow:visible;visibility:visible;opacity:0.13;fill:#ffffff;fill-opacity:1;fill-rule:nonzero;stroke:none;stroke-width:0;marker:none;enable-background:accumulate"
         d="m 302.5,143 c -6.3883,0 -11.5,5.1117 -11.5,11.5 v 1 c 0,-6.3883 5.1117,-11.5 11.5,-11.5 h 35 c 6.3883,0 11.5,5.1117 11.5,11.5 v -1 c 0,-6.3883 -5.1117,-11.5 -11.5,-11.5 z"
         id="rect3906"
         inkscape:connector-curvature="0" />
      <path
         id="path4085"
         d="m 204,266 c 27.1633,0 49,-21.8367 49,-49 v -1 c 0,27.1633 -21.8367,49 -49,49 H 84 C 56.8367,265 35,243.1633 35,216 v 1 c 0,27.1633 21.8367,49 49,49 z"
         style="color:#bebebe;display:inline;overflow:visible;visibility:visible;opacity:0.5;fill:#000000;fill-opacity:1;fill-rule:nonzero;stroke:none;stroke-width:0;marker:none;enable-background:accumulate"
         inkscape:connector-curvature="0" />
      <path
         id="path4087"
         d="m 429,156 c 1.1253,0 2,-0.8747 2,-2 v -1 c 0,1.1253 -0.8747,2 -2,2 h -10 c -1.1253,0 -2,-0.8747 -2,-2 v 1 c 0,1.1253 0.8747,2 2,2 z"
         style="color:#bebebe;display:inline;overflow:visible;visibility:visible;opacity:0.3;fill:#000000;fill-opacity:1;fill-rule:nonzero;stroke:none;stroke-width:0;marker:none;enable-background:accumulate"
         inkscape:connector-curvature="0" />
      <path
         id="path4089"
         d="m 434,123 c 2.2333,0 4,-1.7667 4,-4 v -1 c 0,2.2333 -1.7667,4 -4,4 h -12 c -2.2333,0 -4,-1.7667 -4,-4 v 1 c 0,2.2333 1.7667,4 4,4 z"
         style="color:#bebebe;display:inline;overflow:visible;visibility:visible;opacity:0.3;fill:#000000;fill-opacity:1;fill-rule:nonzero;stroke:none;stroke-width:0;marker:none;enable-background:accumulate"
         inkscape:connector-curvature="0" />
      <path
         id="path4091"
         d="m 440,83 c 3.3413,0 6,-2.6587 6,-6 v -1 c 0,3.3413 -2.6587,6 -6,6 h -16 c -3.3413,0 -6,-2.6587 -6,-6 v 1 c 0,3.3413 2.6587,6 6,6 z"
         style="color:#bebebe;display:inline;overflow:visible;visibility:visible;opacity:0.5;fill:#000000;fill-opacity:1;fill-rule:nonzero;stroke:none;stroke-width:0;marker:none;enable-background:accumulate"
         inkscape:connector-curvature="0" />
      <path
         id="path4093"
         d="m 324,265 c 4.4493,0 8,-3.5507 8,-8 v -1 c 0,4.4493 -3.5507,8 -8,8 h -24 c -4.4493,0 -8,-3.5507 -8,-8 v 1 c 0,4.4493 3.5507,8 8,8 z"
         style="color:#bebebe;display:inline;overflow:visible;visibility:visible;opacity:0.5;fill:#000000;fill-opacity:1;fill-rule:nonzero;stroke:none;stroke-width:0;marker:none;enable-background:accumulate"
         inkscape:connector-curvature="0" />
      <path
         id="path4095"
         d="m 362,120 c 9.4353,0 17,-7.5647 17,-17 v -1 c 0,9.4353 -7.5647,17 -17,17 h -52 c -9.4353,0 -17,-7.5647 -17,-17 v 1 c 0,9.4353 7.5647,17 17,17 z"
         style="color:#bebebe;display:inline;overflow:visible;visibility:visible;opacity:0.5;fill:#000000;fill-opacity:1;fill-rule:nonzero;stroke:none;stroke-width:0;marker:none;enable-background:accumulate"
         inkscape:connector-curvature="0" />
      <path
         id="path4097"
         d="m 337.5,202 c 6.3883,0 11.5,-5.1117 11.5,-11.5 v -1 c 0,6.3883 -5.1117,11.5 -11.5,11.5 h -35 c -6.3883,0 -11.5,-5.1117 -11.5,-11.5 v 1 c 0,6.3883 5.1117,11.5 11.5,11.5 z"
         style="color:#bebebe;display:inline;overflow:visible;visibility:visible;opacity:0.5;fill:#000000;fill-opacity:1;fill-rule:nonzero;stroke:none;stroke-width:0;marker:none;enable-background:accumulate"
         inkscape:connector-curvature="0" />
      <path
         inkscape:connector-curvature="0"
         id="path4280"
         d="M 84,265 C 56.836703,265 35,243.1633 35,216 v -1 c 0,27.1633 21.836703,49 49,49 h 120 c 27.1633,0 49,-21.8367 49,-49 v 1 c 0,27.1633 -21.8367,49 -49,49 z"
         style="color:#bebebe;display:inline;overflow:visible;visibility:visible;opacity:0.1;fill:#ffffff;fill-opacity:1;fill-rule:nonzero;stroke:none;stroke-width:0;marker:none;enable-background:accumulate" />
      <path
         style="color:#bebebe;display:inline;overflow:visible;visibility:visible;opacity:0.1;fill:#ffffff;fill-opacity:1;fill-rule:nonzero;stroke:none;stroke-width:0;marker:none;enable-background:accumulate"
         d="m 300,264 c -4.4493,0 -8,-3.5507 -8,-8 v -1 c 0,4.4493 3.5507,8 8,8 h 24 c 4.4493,0 8,-3.5507 8,-8 v 1 c 0,4.4493 -3.5507,8 -8,8 z"
         id="path4294"
         inkscape:connector-curvature="0" />
      <path
         style="color:#bebebe;display:inline;overflow:visible;visibility:visible;opacity:0.1;fill:#ffffff;fill-opacity:1;fill-rule:nonzero;stroke:none;stroke-width:0;marker:none;enable-background:accumulate"
         d="m 302.5,201 c -6.3883,0 -11.5,-5.1117 -11.5,-11.5 v -1 c 0,6.3883 5.1117,11.5 11.5,11.5 h 35 c 6.3883,0 11.5,-5.1117 11.5,-11.5 v 1 c 0,6.3883 -5.1117,11.5 -11.5,11.5 z"
         id="path4296"
         inkscape:connector-curvature="0" />
      <path
         style="color:#bebebe;display:inline;overflow:visible;visibility:visible;opacity:0.1;fill:#ffffff;fill-opacity:1;fill-rule:nonzero;stroke:none;stroke-width:0;marker:none;enable-background:accumulate"
         d="m 310,119 c -9.4353,0 -17,-7.5647 -17,-17 v -1 c 0,9.4353 7.5647,17 17,17 h 52 c 9.4353,0 17,-7.5647 17,-17 v 1 c 0,9.4353 -7.5647,17 -17,17 z"
         id="path4298"
         inkscape:connector-curvature="0" />
      <path
         style="color:#bebebe;display:inline;overflow:visible;visibility:visible;opacity:0.1;fill:#ffffff;fill-opacity:1;fill-rule:nonzero;stroke:none;stroke-width:0;marker:none;enable-background:accumulate"
         d="m 424,82 c -3.3413,0 -6,-2.658703 -6,-6 v -1 c 0,3.341297 2.6587,6 6,6 h 16 c 3.3413,0 6,-2.658703 6,-6 v 1 c 0,3.341297 -2.6587,6 -6,6 z"
         id="path4300"
         inkscape:connector-curvature="0" />
      <path
         style="color:#bebebe;display:inline;overflow:visible;visibility:visible;opacity:0.1;fill:#ffffff;fill-opacity:1;fill-rule:nonzero;stroke:none;stroke-width:0;marker:none;enable-background:accumulate"
         d="m 422,122 c -2.2333,0 -4,-1.7667 -4,-4 v -1 c 0,2.2333 1.7667,4 4,4 h 12 c 2.2333,0 4,-1.7667 4,-4 v 1 c 0,2.2333 -1.7667,4 -4,4 z"
         id="path4302"
         inkscape:connector-curvature="0" />
      <path
         style="color:#bebebe;display:inline;overflow:visible;visibility:visible;opacity:0.1;fill:#ffffff;fill-opacity:1;fill-rule:nonzero;stroke:none;stroke-width:0;marker:none;enable-background:accumulate"
         d="m 419,154.5 c -1.1253,0 -2,-0.8747 -2,-2 v -1 c 0,1.1253 0.8747,2 2,2 h 10 c 1.1253,0 2,-0.8747 2,-2 v 1 c 0,1.1253 -0.8747,2 -2,2 z"
         id="path4304"
         inkscape:connector-curvature="0" />
    </g>
    <g
       inkscape:groupmode="layer"
       id="layer3"
       inkscape:label="Border"
       style="display:inline"
       sodipodi:insensitive="true">
      <path
         style="color:#bebebe;display:inline;overflow:visible;visibility:visible;opacity:0.41;fill:#000000;fill-opacity:1;fill-rule:nonzero;stroke:none;stroke-width:0;marker:none;enable-background:accumulate"
         d="m 422,101 c -2.77,0 -5,2.23 -5,5 v 12 c 0,2.77 2.23,5 5,5 h 12 c 2.77,0 5,-2.23 5,-5 v -12 c 0,-2.77 -2.23,-5 -5,-5 z m 0,1 h 12 c 2.2333,0 4,1.7667 4,4 v 12 c 0,2.2333 -1.7667,4 -4,4 h -12 c -2.2333,0 -4,-1.7667 -4,-4 v -12 c 0,-2.2333 1.7667,-4 4,-4 z"
         id="rect4099"
         inkscape:connector-curvature="0" />
      <path
         style="color:#bebebe;display:inline;overflow:visible;visibility:visible;opacity:0.41;fill:#000000;fill-opacity:1;fill-rule:nonzero;stroke:none;stroke-width:0;marker:none;enable-background:accumulate"
         d="m 424,53 c -3.878,0 -7,3.122 -7,7 v 16 c 0,3.878 3.122,7 7,7 h 16 c 3.878,0 7,-3.122 7,-7 V 60 c 0,-3.878 -3.122,-7 -7,-7 z m 0,1 h 16 c 3.3413,0 6,2.658703 6,6 v 16 c 0,3.341297 -2.6587,6 -6,6 h -16 c -3.3413,0 -6,-2.658703 -6,-6 V 60 c 0,-3.341297 2.6587,-6 6,-6 z"
         id="rect4151"
         inkscape:connector-curvature="0" />
      <path
         style="color:#bebebe;display:inline;overflow:visible;visibility:visible;opacity:0.41;fill:#000000;fill-opacity:1;fill-rule:nonzero;stroke:none;stroke-width:0;marker:none;enable-background:accumulate"
         d="m 419,140 c -1.662,0 -3,1.338 -3,3 v 10 c 0,1.662 1.338,3 3,3 h 10 c 1.662,0 3,-1.338 3,-3 v -10 c 0,-1.662 -1.338,-3 -3,-3 z m 0,1 h 10 c 1.1253,0 2,0.8747 2,2 v 10 c 0,1.1253 -0.8747,2 -2,2 h -10 c -1.1253,0 -2,-0.8747 -2,-2 v -10 c 0,-1.1253 0.8747,-2 2,-2 z"
         id="rect4095"
         inkscape:connector-curvature="0" />
      <path
         style="color:#bebebe;display:inline;overflow:visible;visibility:visible;opacity:0.41;fill:#000000;fill-opacity:1;fill-rule:nonzero;stroke:none;stroke-width:0;marker:none;enable-background:accumulate"
         d="m 300,223 c -4.986,0 -9,4.014 -9,9 v 24 c 0,4.986 4.014,9 9,9 h 24 c 4.986,0 9,-4.014 9,-9 v -24 c 0,-4.986 -4.014,-9 -9,-9 z m 0,1 h 24 c 4.4493,0 8,3.5507 8,8 v 24 c 0,4.4493 -3.5507,8 -8,8 h -24 c -4.4493,0 -8,-3.5507 -8,-8 v -24 c 0,-4.4493 3.5507,-8 8,-8 z"
         id="rect4783"
         inkscape:connector-curvature="0" />
      <path
         style="color:#bebebe;display:inline;overflow:visible;visibility:visible;opacity:0.41;fill:#000000;fill-opacity:1;fill-rule:nonzero;stroke:none;stroke-width:0;marker:none;enable-background:accumulate"
         d="m 302.5,142 c -6.925,0 -12.5,5.575 -12.5,12.5 v 35 c 0,6.925 5.575,12.5 12.5,12.5 h 35 c 6.925,0 12.5,-5.575 12.5,-12.5 v -35 c 0,-6.925 -5.575,-12.5 -12.5,-12.5 z m 0,1 h 35 c 6.3883,0 11.5,5.1117 11.5,11.5 v 35 c 0,6.3883 -5.1117,11.5 -11.5,11.5 h -35 c -6.3883,0 -11.5,-5.1117 -11.5,-11.5 v -35 c 0,-6.3883 5.1117,-11.5 11.5,-11.5 z"
         id="rect4515"
         inkscape:connector-curvature="0" />
      <path
         style="color:#bebebe;display:inline;overflow:visible;visibility:visible;opacity:0.41;fill:#000000;fill-opacity:1;fill-rule:nonzero;stroke:none;stroke-width:0;marker:none;enable-background:accumulate"
         d="m 310,32 c -9.972,0 -18,8.028 -18,18 v 52 c 0,9.972 8.028,18 18,18 h 52 c 9.972,0 18,-8.028 18,-18 V 50 c 0,-9.972 -8.028,-18 -18,-18 z m 0,1 h 52 c 9.4353,0 17,7.564703 17,17 v 52 c 0,9.4353 -7.5647,17 -17,17 h -52 c -9.4353,0 -17,-7.5647 -17,-17 V 50 c 0,-9.435297 7.5647,-17 17,-17 z"
         id="rect4511"
         inkscape:connector-curvature="0" />
      <path
         style="color:#bebebe;display:inline;overflow:visible;visibility:visible;opacity:0.41;fill:#000000;fill-opacity:1;fill-rule:nonzero;stroke:none;stroke-width:0;marker:none;enable-background:accumulate"
         d="M 84,46 C 56.3,46 34,68.3 34,96 v 120 c 0,27.7 22.3,50 50,50 h 120 c 27.7,0 50,-22.3 50,-50 V 96 C 254,68.3 231.7,46 204,46 Z m 0,1 h 120 c 27.1633,0 49,21.836703 49,49 v 120 c 0,27.1633 -21.8367,49 -49,49 H 84 C 56.836703,265 35,243.1633 35,216 V 96 C 35,68.836703 56.836703,47 84,47 Z"
         id="rect4040"
         inkscape:connector-curvature="0" />
    </g>
  </g>
</svg>
