<?xml version="1.0" encoding="UTF-8" standalone="no"?>
<!-- Created with Inkscape (http://www.inkscape.org/) -->

<svg
   inkscape:export-ydpi="90.000000"
   inkscape:export-xdpi="90.000000"
   width="480"
   height="300"
   id="svg11300"
   sodipodi:version="0.32"
   inkscape:version="1.1.2 (0a00cf5339, 2022-02-04)"
   sodipodi:docname="anydesk (copy).svg"
   inkscape:output_extension="org.inkscape.output.svg.inkscape"
   version="1.0"
   style="display:inline;enable-background:new"
   inkscape:export-filename="/home/sam/moka-next-template.png"
   xmlns:inkscape="http://www.inkscape.org/namespaces/inkscape"
   xmlns:sodipodi="http://sodipodi.sourceforge.net/DTD/sodipodi-0.dtd"
   xmlns="http://www.w3.org/2000/svg"
   xmlns:svg="http://www.w3.org/2000/svg"
   xmlns:rdf="http://www.w3.org/1999/02/22-rdf-syntax-ns#"
   xmlns:cc="http://creativecommons.org/ns#"
   xmlns:dc="http://purl.org/dc/elements/1.1/">
  <sodipodi:namedview
     stroke="#ef2929"
     fill="#f57900"
     id="base"
     pagecolor="#ffffff"
     bordercolor="#000000"
     borderopacity="0.54509804"
     inkscape:pageopacity="0"
     inkscape:pageshadow="2"
     inkscape:zoom="1.4142136"
     inkscape:cx="426.03181"
     inkscape:cy="124.45079"
     inkscape:current-layer="layer2"
     showgrid="false"
     inkscape:grid-bbox="true"
     inkscape:document-units="px"
     inkscape:showpageshadow="false"
     inkscape:window-width="1920"
     inkscape:window-height="1008"
     inkscape:window-x="0"
     inkscape:window-y="40"
     width="400px"
     height="300px"
     inkscape:snap-nodes="true"
     inkscape:snap-bbox="true"
     gridtolerance="10000"
     inkscape:object-nodes="true"
     inkscape:snap-grids="true"
     showguides="true"
     inkscape:guide-bbox="true"
     inkscape:window-maximized="1"
     inkscape:bbox-nodes="true"
     inkscape:bbox-paths="true"
     inkscape:snap-bbox-edge-midpoints="true"
     inkscape:snap-bbox-midpoints="true"
     inkscape:pagecheckerboard="0">
    <inkscape:grid
       spacingy="1"
       spacingx="1"
       id="grid5883"
       type="xygrid"
       enabled="true"
       visible="true"
       empspacing="4"
       snapvisiblegridlinesonly="true"
       dotted="false"
       color="#000000"
       opacity="0.1254902"
       empcolor="#203ef3"
       empopacity="0.36470588"
       originx="0"
       originy="0" />
    <inkscape:grid
       type="xygrid"
       id="grid11592"
       empspacing="8"
       visible="true"
       enabled="false"
       spacingx="0.5"
       spacingy="0.5"
       color="#ff0000"
       opacity="0.1254902"
       empcolor="#ff0000"
       empopacity="0.25098039"
       snapvisiblegridlinesonly="true"
       dotted="true"
       originx="0"
       originy="0" />
  </sodipodi:namedview>
  <defs
     id="defs3">
    <linearGradient
       id="linearGradient905">
      <stop
         style="stop-color:#ff7139;stop-opacity:1"
         offset="0"
         id="stop901" />
      <stop
         style="stop-color:#ff7139;stop-opacity:1"
         offset="1"
         id="stop903" />
    </linearGradient>
    <linearGradient
       id="linearGradient3984">
      <stop
         id="stop3986"
         offset="0"
         style="stop-color:#f57d33;stop-opacity:1" />
      <stop
         id="stop3988"
         offset="1"
         style="stop-color:#faa653;stop-opacity:1;" />
    </linearGradient>
  </defs>
  <metadata
     id="metadata4">
    <rdf:RDF>
      <cc:Work
         rdf:about="">
        <dc:format>image/svg+xml</dc:format>
        <dc:type
           rdf:resource="http://purl.org/dc/dcmitype/StillImage" />
        <dc:creator>
          <cc:Agent>
            <dc:title>Sam Hewitt</dc:title>
          </cc:Agent>
        </dc:creator>
        <dc:source />
        <cc:license
           rdf:resource="" />
        <dc:title />
        <dc:subject>
          <rdf:Bag />
        </dc:subject>
        <dc:date />
        <dc:rights>
          <cc:Agent>
            <dc:title />
          </cc:Agent>
        </dc:rights>
        <dc:publisher>
          <cc:Agent>
            <dc:title />
          </cc:Agent>
        </dc:publisher>
        <dc:identifier />
        <dc:relation />
        <dc:language />
        <dc:coverage />
        <dc:description />
        <dc:contributor>
          <cc:Agent>
            <dc:title />
          </cc:Agent>
        </dc:contributor>
      </cc:Work>
      <cc:Work
         rdf:about="">
        <dc:format>image/svg+xml</dc:format>
        <dc:type
           rdf:resource="http://purl.org/dc/dcmitype/StillImage" />
      </cc:Work>
    </rdf:RDF>
  </metadata>
  <g
     style="display:inline"
     inkscape:groupmode="layer"
     inkscape:label="Icon"
     id="layer1">
    <g
       style="display:none"
       inkscape:label="Baseplate"
       id="layer7"
       inkscape:groupmode="layer">
      <text
         y="19.745117"
         xml:space="preserve"
         x="15.006836"
         style="font-style:normal;font-variant:normal;font-weight:normal;font-stretch:normal;line-height:0%;font-family:'DejaVu Sans';-inkscape-font-specification:'DejaVu Sans';display:inline;fill:#000000;fill-opacity:1;stroke:none;enable-background:new"
         inkscape:label="context"
         id="context"><tspan
           style="font-style:normal;font-variant:normal;font-weight:normal;font-stretch:normal;font-size:18px;line-height:1.25;font-family:'DejaVu Sans';-inkscape-font-specification:'DejaVu Sans'"
           y="19.745117"
           x="15.006836"
           sodipodi:role="line"
           id="tspan3933">apps</tspan></text>
      <text
         y="19.745117"
         xml:space="preserve"
         x="122.48828"
         style="font-style:normal;font-variant:normal;font-weight:bold;font-stretch:normal;line-height:0%;font-family:'DejaVu Sans';-inkscape-font-specification:'DejaVu Sans Bold';text-align:start;writing-mode:lr-tb;text-anchor:start;display:inline;fill:#000000;fill-opacity:1;stroke:none;enable-background:new"
         inkscape:label="icon-name"
         id="icon-name"><tspan
           style="font-style:normal;font-variant:normal;font-weight:bold;font-stretch:normal;font-size:18px;line-height:1.25;font-family:'DejaVu Sans';-inkscape-font-specification:'DejaVu Sans Bold'"
           y="19.745117"
           x="122.48828"
           sodipodi:role="line"
           id="tspan3937">ulauncher</tspan></text>
      <rect
         style="fill:#eeeeec;fill-opacity:1;fill-rule:nonzero;stroke:none;stroke-width:2;marker:none;visibility:visible;display:inline;overflow:visible;enable-background:accumulate"
         id="rect16x16"
         width="16"
         height="16"
         x="416"
         y="140"
         inkscape:label="16x16" />
      <rect
         style="fill:#d4d4d4;fill-opacity:1;fill-rule:nonzero;stroke:none;stroke-width:2;marker:none;visibility:visible;display:inline;overflow:visible;enable-background:accumulate"
         id="rect24x24"
         width="24"
         height="24"
         x="416"
         y="100"
         inkscape:label="24x24" />
      <rect
         style="fill:#eeeeec;fill-opacity:1;fill-rule:nonzero;stroke:none;stroke-width:2;marker:none;visibility:visible;display:inline;overflow:visible;enable-background:accumulate"
         id="rect32x32"
         width="32"
         height="32"
         x="416"
         y="52"
         inkscape:label="32x32" />
      <rect
         inkscape:label="22x22"
         y="101"
         x="417"
         height="22"
         width="22"
         id="rect22x22"
         style="fill:#eeeeec;fill-opacity:1;fill-rule:nonzero;stroke:none;stroke-width:2;marker:none;visibility:visible;display:inline;overflow:visible;enable-background:accumulate" />
      <rect
         inkscape:label="48x48"
         y="220"
         x="288"
         height="48"
         width="48"
         id="rect48x48"
         style="fill:#eeeeec;fill-opacity:1;fill-rule:nonzero;stroke:none;stroke-width:2;marker:none;visibility:visible;display:inline;overflow:visible;enable-background:accumulate" />
      <rect
         style="fill:#eeeeec;fill-opacity:1;fill-rule:nonzero;stroke:none;stroke-width:2;marker:none;visibility:visible;display:inline;overflow:visible;enable-background:accumulate"
         id="rect256x256"
         width="256"
         height="256"
         x="16"
         y="28"
         inkscape:label="256x256" />
      <rect
         style="fill:#eeeeec;fill-opacity:1;fill-rule:nonzero;stroke:none;stroke-width:2;marker:none;visibility:visible;display:inline;overflow:visible;enable-background:accumulate"
         id="rect64x64"
         width="64"
         height="64"
         x="288"
         y="140"
         inkscape:label="64x64" />
      <rect
         style="fill:#eeeeec;fill-opacity:1;fill-rule:nonzero;stroke:none;stroke-width:2;marker:none;visibility:visible;display:inline;overflow:visible;enable-background:accumulate"
         id="rect96x96"
         width="96"
         height="96"
         x="288"
         y="28"
         inkscape:label="96x96" />
    </g>
    <g
       inkscape:groupmode="layer"
       id="layer4"
       inkscape:label="Shadow"
       style="display:inline"
       sodipodi:insensitive="true">
      <rect
         ry="50"
         y="47"
         x="34"
         height="220"
         width="220"
         id="rect4114"
         style="opacity:0.1;color:#bebebe;fill:#000000;fill-opacity:1;fill-rule:nonzero;stroke:none;stroke-width:0;marker:none;visibility:visible;display:inline;overflow:visible;enable-background:accumulate" />
      <rect
         style="opacity:0.1;color:#bebebe;fill:#000000;fill-opacity:1;fill-rule:nonzero;stroke:none;stroke-width:0;marker:none;visibility:visible;display:inline;overflow:visible;enable-background:accumulate"
         id="rect4120"
         width="30"
         height="30"
         x="417"
         y="54"
         ry="7" />
      <rect
         transform="scale(1,-1)"
         ry="9"
         y="-266"
         x="291"
         height="42"
         width="42"
         id="rect4122"
         style="opacity:0.1;color:#bebebe;fill:#000000;fill-opacity:1;fill-rule:nonzero;stroke:none;stroke-width:0;marker:none;visibility:visible;display:inline;overflow:visible;enable-background:accumulate" />
      <rect
         style="opacity:0.1;color:#bebebe;fill:#000000;fill-opacity:1;fill-rule:nonzero;stroke:none;stroke-width:0;marker:none;visibility:visible;display:inline;overflow:visible;enable-background:accumulate"
         id="rect4124"
         width="88"
         height="88"
         x="292"
         y="33"
         ry="18" />
      <rect
         ry="12.5"
         y="143"
         x="290"
         height="60"
         width="60"
         id="rect4126"
         style="opacity:0.1;color:#bebebe;fill:#000000;fill-opacity:1;fill-rule:nonzero;stroke:none;stroke-width:0;marker:none;visibility:visible;display:inline;overflow:visible;enable-background:accumulate" />
      <path
         id="path4268"
         d="m 422,101 c -2.77,0 -5,2.23 -5,5 l 0,12 c 0,2.77 2.23,5 5,5 l 12,0 c 2.77,0 5,-2.23 5,-5 l 0,-12 c 0,-2.77 -2.23,-5 -5,-5 z"
         style="opacity:0.1;color:#bebebe;fill:#000000;fill-opacity:1;fill-rule:nonzero;stroke:none;stroke-width:0;marker:none;visibility:visible;display:inline;overflow:visible;enable-background:accumulate"
         inkscape:connector-curvature="0"
         sodipodi:nodetypes="sssssssss" />
      <path
         id="path4270"
         d="m 419,140 c -1.662,0 -3,1.338 -3,3 l 0,10 c 0,1.662 1.338,3 3,3 l 10,0 c 1.662,0 3,-1.338 3,-3 l 0,-10 c 0,-1.662 -1.338,-3 -3,-3 z"
         style="opacity:0.1;color:#bebebe;fill:#000000;fill-opacity:1;fill-rule:nonzero;stroke:none;stroke-width:0;marker:none;visibility:visible;display:inline;overflow:visible;enable-background:accumulate"
         inkscape:connector-curvature="0"
         sodipodi:nodetypes="sssssssss" />
    </g>
    <g
       inkscape:groupmode="layer"
       id="layer2"
       inkscape:label="Background"
       style="display:inline">
      <g
         id="g8458">
        <g
           id="g4852">
          <g
             id="g4834">
            <path
               style="color:#bebebe;display:inline;overflow:visible;visibility:visible;fill:#7ec183;fill-opacity:1;fill-rule:nonzero;stroke:none;stroke-width:2;marker:none;enable-background:accumulate"
               d="m 204,46.5 c 27.43126,0 49.5,22.068732 49.5,49.5 v 120 c 0,27.43127 -22.06874,49.5 -49.5,49.5 H 84 C 56.56873,265.5 34.5,243.43127 34.5,216 V 96 C 34.5,68.568732 56.56873,46.5 84,46.5 Z"
               id="path4200" />
            <path
               id="path3563"
               style="color:#bebebe;display:inline;overflow:visible;visibility:visible;fill:#2165b0;fill-opacity:1;fill-rule:nonzero;stroke:none;stroke-width:2;marker:none;enable-background:accumulate"
               d="m 204,46.5 c 27.43126,0 49.5,22.068732 49.5,49.5 v 120 c 0,27.43127 -22.06874,49.5 -49.5,49.5 H 122.45117 A -125,125 0 0 1 58.62109,156.84375 -125,125 0 0 1 124.90039,46.5 Z" />
          </g>
          <path
             id="path4"
             style="fill:#ffffff;stroke-width:2.50001"
             d="m 206.5,86 -34.99414,14.95117 v 6.15821 c -0.004,-0.002 -0.008,-0.004 -0.0117,-0.006 v 3.25976 c 2.1e-4,0.0461 0.006,0.0905 0.006,0.13672 v 58.00195 c 0,7.95205 -3.00302,15.08334 -8.25391,20.16602 0.20881,-0.20255 0.4362,-0.38672 0.63868,-0.5957 l -0.83399,2.04492 h -0.002 l 0.83594,-2.04492 C 158.84698,193.2728 151.81399,196 144,196 c -15.38889,0 -27.5,-11.98605 -27.5,-27.49805 v -8.63476 -32.9668 l -35,15.55859 v 21.32813 c 0,9.16109 1.2162,17.55243 3.648438,25.14258 2.413311,7.59015 6.157786,14.12172 11.230468,19.60547 4.296634,4.65473 9.597684,8.43236 15.869144,11.36132 l 1.01757,0.3125 c 0.74292,0.41576 1.52126,0.81469 2.4004,1.16211 7.79515,3.08057 17.06413,4.62891 27.77734,4.62891 l -0.0195,-0.041 c 10.89301,0 20.29215,-1.47875 28.23242,-4.49804 7.94341,-2.9967 14.46713,-7.24154 19.625,-12.72852 5.13577,-5.46762 8.96561,-12.04651 11.46094,-19.70117 2.49533,-7.65466 3.74414,-16.08255 3.74414,-25.25977 v -1.43164 c 0.005,-0.0761 0.0137,-0.15121 0.0137,-0.22851 z" />
        </g>
        <g
           id="g4846">
          <g
             id="g4840">
            <path
               style="color:#bebebe;display:inline;overflow:visible;visibility:visible;fill:#7ec183;fill-opacity:1;fill-rule:nonzero;stroke:none;stroke-width:2;marker:none;enable-background:accumulate"
               d="m 362,32.5 c 9.70255,0 17.5,7.797452 17.5,17.5 v 52 c 0,9.70255 -7.79745,17.5 -17.5,17.5 h -52 c -9.70255,0 -17.5,-7.79745 -17.5,-17.5 V 50 c 0,-9.702548 7.79745,-17.5 17.5,-17.5 z"
               id="path4210" />
            <path
               id="path4079"
               style="color:#bebebe;display:inline;overflow:visible;visibility:visible;fill:#2165b0;fill-opacity:1;fill-rule:nonzero;stroke:none;stroke-width:0.794521;marker:none;enable-background:accumulate"
               d="M 328.41211,32.5 A 49.657534,49.657534 0 0 0 302.08203,76.335938 49.657534,49.657534 0 0 0 327.43945,119.5 h 27.79297 4.60352 H 362 c 9.70255,0 17.5,-7.79745 17.5,-17.5 V 99.835938 52.164062 50 c 0,-9.702548 -7.79745,-17.5 -17.5,-17.5 h -2.16406 -4.60352 z" />
          </g>
          <path
             id="path4081"
             style="fill:#ffffff;stroke-width:0.993155"
             d="m 360.82877,48.191781 -13.90179,5.939506 v 2.446412 c -0.002,-7.94e-4 -0.003,-0.0016 -0.005,-0.0024 v 1.294973 c 8e-5,0.01831 0.002,0.03595 0.002,0.05431 v 23.041871 c 0,3.159033 -1.19298,5.992011 -3.27895,8.011158 0.0829,-0.08047 0.17328,-0.153628 0.25372,-0.236648 l -0.33131,0.812366 h -7.9e-4 l 0.33208,-0.812366 c -2.00136,2.06602 -4.79528,3.149428 -7.89947,3.149428 -6.1134,0 -10.92466,-4.761582 -10.92466,-10.923883 v -3.430247 -13.0964 l -13.90411,6.18081 v 8.472819 c 0,3.639337 0.48315,6.972883 1.44938,9.988148 0.95871,3.015265 2.44625,5.609998 4.46142,7.788474 1.70688,1.849139 3.81278,3.349838 6.30418,4.513398 l 0.40424,0.12415 c 0.29513,0.16516 0.60434,0.32364 0.95358,0.46166 3.09671,1.22379 6.77891,1.83888 11.03484,1.83888 l -0.008,-0.0163 c 4.32736,0 8.06127,-0.58745 11.21562,-1.78689 3.1556,-1.19047 5.74722,-2.876777 7.79623,-5.056537 2.04024,-2.172068 3.56168,-4.785599 4.55298,-7.826492 0.99129,-3.040892 1.4874,-6.388958 1.4874,-10.034703 v -0.568733 c 0.002,-0.03023 0.005,-0.06007 0.005,-0.09078 z" />
        </g>
        <g
           id="g5764">
          <g
             id="g5673">
            <path
               style="color:#bebebe;display:inline;overflow:visible;visibility:visible;fill:#7ec183;fill-opacity:1;fill-rule:nonzero;stroke:none;stroke-width:2;marker:none;enable-background:accumulate"
               d="m 302.5,142.5 c -6.65502,0 -12,5.34498 -12,12 v 35 c 0,6.65502 5.34498,12 12,12 h 35 c 6.65502,0 12,-5.34498 12,-12 v -35 c 0,-6.65502 -5.34498,-12 -12,-12 z"
               id="path4212" />
            <path
               id="path4938"
               style="color:#bebebe;display:inline;overflow:visible;visibility:visible;fill:#2165b0;fill-opacity:1;fill-rule:nonzero;stroke:none;stroke-width:0.538813;marker:none;enable-background:accumulate"
               d="M 314.85352 142.5 A 33.675799 33.675799 0 0 0 296.99805 172.22656 A 33.675799 33.675799 0 0 0 314.19531 201.5 L 323.25 201.5 L 336.16406 201.5 L 337.5 201.5 C 344.15502 201.5 349.5 196.15502 349.5 189.5 L 349.5 188.16406 L 349.5 155.83594 L 349.5 154.5 C 349.5 147.84498 344.15502 142.5 337.5 142.5 L 336.16406 142.5 L 323.25 142.5 L 314.85352 142.5 z " />
          </g>
          <path
             id="path4942"
             style="fill:#ffffff;stroke-width:0.673519"
             d="m 336.8379,153.14155 -9.42765,4.02794 v 1.65906 c -0.001,-5.4e-4 -0.002,-0.001 -0.003,-0.002 v 0.87821 c 6e-5,0.0124 0.002,0.0244 0.002,0.0368 v 15.62609 c 0,2.14234 -0.80903,4.06355 -2.22366,5.43286 0.0563,-0.0546 0.11752,-0.10419 0.17207,-0.16049 l -0.22468,0.55092 h -5.4e-4 l 0.2252,-0.55092 c -1.35724,1.4011 -3.25197,2.13582 -5.35711,2.13582 -4.14587,0 -7.40868,-3.22912 -7.40868,-7.40815 v -2.32626 -8.88146 l -9.42922,4.19158 v 5.74593 c 0,2.46806 0.32765,4.72874 0.98291,6.77358 0.65016,2.04483 1.65895,3.80448 3.02556,5.28183 1.15754,1.25402 2.58568,2.27174 4.27525,3.06082 l 0.27414,0.0842 c 0.20015,0.112 0.40984,0.21948 0.64668,0.31308 2.10007,0.82992 4.59719,1.24705 7.4834,1.24705 l -0.005,-0.011 c 2.93465,0 5.46684,-0.39839 7.606,-1.2118 2.14,-0.80733 3.89754,-1.95092 5.2871,-3.42915 1.38361,-1.47301 2.41539,-3.2454 3.08765,-5.30762 0.67226,-2.06221 1.00869,-4.33274 1.00869,-6.80514 V 173.708 c 10e-4,-0.0205 0.004,-0.0407 0.004,-0.0616 z" />
        </g>
        <g
           id="g6288">
          <g
             id="g6282">
            <path
               style="color:#bebebe;display:inline;overflow:visible;visibility:visible;fill:#7ec183;fill-opacity:1;fill-rule:nonzero;stroke:none;stroke-width:2;marker:none;enable-background:accumulate"
               d="m 300,223.5 c -4.71531,0 -8.5,3.78469 -8.5,8.5 v 24 c 0,4.71531 3.78469,8.5 8.5,8.5 h 24 c 4.71531,0 8.5,-3.78469 8.5,-8.5 v -24 c 0,-4.71531 -3.78469,-8.5 -8.5,-8.5 z"
               id="path4208" />
            <path
               id="path5854"
               style="color:#bebebe;display:inline;overflow:visible;visibility:visible;fill:#2165b0;fill-opacity:1;fill-rule:nonzero;stroke:none;stroke-width:0.374429;marker:none;enable-background:accumulate"
               d="M 308.42383 223.5 A 23.401826 23.401826 0 0 0 296.01562 244.1582 A 23.401826 23.401826 0 0 0 307.96484 264.5 L 314.91602 264.5 L 323.23242 264.5 L 324 264.5 C 328.71531 264.5 332.5 260.71531 332.5 256 L 332.5 255.23242 L 332.5 232.76758 L 332.5 232 C 332.5 227.28469 328.71531 223.5 324 223.5 L 323.23242 223.5 L 314.91602 223.5 L 308.42383 223.5 z " />
          </g>
          <path
             id="path5858"
             style="fill:#ffffff;stroke-width:0.468038"
             d="m 323.70092,230.89498 -6.55142,2.79907 v 1.15291 c -7.5e-4,-3.7e-4 -0.002,-7.5e-4 -0.002,-0.001 v 0.61027 c 4e-5,0.009 0.001,0.0169 0.001,0.0256 v 10.85881 c 0,1.48874 -0.56221,2.82382 -1.54526,3.77537 0.0391,-0.0379 0.0817,-0.0724 0.11957,-0.11152 l -0.15613,0.38284 h -3.8e-4 l 0.1565,-0.38284 c -0.94316,0.97364 -2.25984,1.48421 -3.72274,1.48421 -2.88102,0 -5.1484,-2.24396 -5.1484,-5.14803 v -1.61656 -6.17186 l -6.55251,2.91279 v 3.99294 c 0,1.71509 0.22769,3.28607 0.68304,4.70706 0.45181,1.42099 1.15283,2.64379 2.10251,3.67043 0.80439,0.87143 1.79683,1.57866 2.97093,2.127 l 0.19051,0.0585 c 0.13908,0.0778 0.2848,0.15252 0.44939,0.21756 1.45936,0.57673 3.19465,0.8666 5.20032,0.8666 l -0.004,-0.008 c 2.03933,0 3.79899,-0.27685 5.28552,-0.8421 1.48713,-0.56103 2.70846,-1.35572 3.67409,-2.38297 0.96149,-1.02362 1.67849,-2.25528 2.14566,-3.68834 0.46716,-1.43307 0.70095,-3.01089 0.70095,-4.729 v -0.26803 c 9.4e-4,-0.0142 0.003,-0.0283 0.003,-0.0428 z" />
        </g>
        <g
           id="g7196">
          <path
             style="color:#bebebe;display:inline;overflow:visible;visibility:visible;fill:#7ec183;fill-opacity:1;fill-rule:nonzero;stroke:none;stroke-width:2;marker:none;enable-background:accumulate"
             d="m 424,53.5 c -3.60654,0 -6.5,2.893464 -6.5,6.5 v 16 c 0,3.606536 2.89346,6.5 6.5,6.5 h 16 c 3.60654,0 6.5,-2.893464 6.5,-6.5 V 60 c 0,-3.606536 -2.89346,-6.5 -6.5,-6.5 z"
             id="path4206" />
          <path
             id="path6382"
             style="color:#bebebe;display:inline;overflow:visible;visibility:visible;fill:#2165b0;fill-opacity:1;fill-rule:nonzero;stroke:none;stroke-width:0.26484;marker:none;enable-background:accumulate"
             d="M 429.4707 53.5 A 16.552511 16.552511 0 0 0 420.69336 68.111328 A 16.552511 16.552511 0 0 0 429.14648 82.5 L 431.66992 82.5 L 439.94531 82.5 L 440 82.5 C 443.60654 82.5 446.5 79.606536 446.5 76 L 446.5 75.945312 L 446.5 60.054688 L 446.5 60 C 446.5 56.393464 443.60654 53.5 440 53.5 L 439.94531 53.5 L 431.66992 53.5 L 429.4707 53.5 z " />
          <path
             id="path6386"
             style="fill:#ffffff;stroke-width:0.331052"
             d="m 440.27625,58.730594 -4.63392,1.979835 V 61.5259 c -5.3e-4,-2.65e-4 -0.001,-5.3e-4 -0.002,-7.95e-4 v 0.431658 c 3e-5,0.0061 7.9e-4,0.01198 7.9e-4,0.0181 v 7.680624 c 0,1.053011 -0.39766,1.997337 -1.09298,2.670386 0.0276,-0.02682 0.0578,-0.05121 0.0846,-0.07888 l -0.11043,0.270789 h -2.7e-4 l 0.1107,-0.270789 c -0.66712,0.688674 -1.59843,1.04981 -2.63316,1.04981 -2.0378,0 -3.64155,-1.587194 -3.64155,-3.641295 v -1.143415 -4.365467 l -4.63471,2.06027 v 2.824273 c 0,1.213112 0.16105,2.324294 0.48313,3.329383 0.31957,1.005088 0.81541,1.869999 1.48714,2.596158 0.56896,0.616379 1.27093,1.116613 2.10139,1.504467 l 0.13475,0.04138 c 0.0984,0.05505 0.20144,0.107881 0.31786,0.153887 1.03224,0.407929 2.25963,0.61296 3.67828,0.61296 l -0.003,-0.0054 c 1.44245,0 2.68708,-0.195816 3.73854,-0.595631 1.05186,-0.396823 1.91573,-0.958925 2.59874,-1.685512 0.68008,-0.724022 1.18723,-1.595199 1.51766,-2.60883 0.33043,-1.013631 0.4958,-2.129653 0.4958,-3.344901 v -0.189578 c 6.6e-4,-0.01008 0.002,-0.02002 0.002,-0.03026 z" />
        </g>
        <g
           id="g8014">
          <g
             id="g8008">
            <path
               style="color:#bebebe;display:inline;overflow:visible;visibility:visible;fill:#7ec183;fill-opacity:1;fill-rule:nonzero;stroke:none;stroke-width:2;marker:none;enable-background:accumulate"
               d="m 422,101.5 c -2.49699,0 -4.5,2.00301 -4.5,4.5 v 12 c 0,2.49699 2.00301,4.5 4.5,4.5 h 12 c 2.49699,0 4.5,-2.00301 4.5,-4.5 v -12 c 0,-2.49699 -2.00301,-4.5 -4.5,-4.5 z"
               id="path4204" />
            <path
               id="path7293"
               style="color:#bebebe;display:inline;overflow:visible;visibility:visible;fill:#2165b0;fill-opacity:1;fill-rule:nonzero;stroke:none;stroke-width:0.191781;marker:none;enable-background:accumulate"
               d="M 426.16797 101.5 A 11.986301 11.986301 0 0 0 419.8125 112.08008 A 11.986301 11.986301 0 0 0 425.93359 122.5 L 427.03516 122.5 L 433.75391 122.5 L 434 122.5 C 436.49699 122.5 438.5 120.49699 438.5 118 L 438.5 117.75391 L 438.5 106.24609 L 438.5 106 C 438.5 103.50301 436.49699 101.5 434 101.5 L 433.75391 101.5 L 427.03516 101.5 L 426.16797 101.5 z " />
          </g>
          <path
             id="path7297"
             style="fill:#ffffff;stroke-width:0.239727"
             d="m 433.99315,105.28767 -3.3556,1.43368 v 0.59051 c -3.9e-4,-1.9e-4 -7.7e-4,-3.9e-4 -10e-4,-5.8e-4 v 0.31258 c 2e-5,0.004 5.7e-4,0.009 5.7e-4,0.0131 v 5.56183 c 0,0.76253 -0.28796,1.44635 -0.79147,1.93373 0.02,-0.0194 0.0418,-0.0371 0.0612,-0.0571 l -0.08,0.19609 h -1.9e-4 l 0.0802,-0.19609 c -0.48309,0.49869 -1.15748,0.76021 -1.90677,0.76021 -1.47565,0 -2.63699,-1.14935 -2.63699,-2.6368 v -0.82799 -3.1612 l -3.35616,1.49192 v 2.04516 c 0,0.87846 0.11662,1.68311 0.34985,2.41093 0.23141,0.72782 0.59047,1.35414 1.07689,1.87998 0.41201,0.44634 0.92033,0.80858 1.5217,1.08944 l 0.0976,0.03 c 0.0712,0.0399 0.14587,0.0781 0.23017,0.11143 0.74748,0.2954 1.63629,0.44387 2.66358,0.44387 l -0.002,-0.004 c 1.04454,0 1.94583,-0.1418 2.70722,-0.43132 0.7617,-0.28736 1.38726,-0.6944 1.88185,-1.22054 0.49247,-0.5243 0.85972,-1.15515 1.09899,-1.88916 0.23928,-0.73401 0.35903,-1.54216 0.35903,-2.42217 v -0.13728 c 4.8e-4,-0.007 10e-4,-0.0145 10e-4,-0.0219 z" />
        </g>
        <g
           id="g8321">
          <g
             id="g8315">
            <path
               style="color:#bebebe;display:inline;overflow:visible;visibility:visible;fill:#7ec183;fill-opacity:1;fill-rule:nonzero;stroke:none;stroke-width:2;marker:none;enable-background:accumulate"
               d="m 419,140.5 c -1.3844,0 -2.5,1.1156 -2.5,2.5 v 10 c 0,1.3844 1.1156,2.5 2.5,2.5 h 10 c 1.3844,0 2.5,-1.1156 2.5,-2.5 v -10 c 0,-1.3844 -1.1156,-2.5 -2.5,-2.5 z"
               id="path4202" />
            <path
               id="path7303"
               style="color:#bebebe;display:inline;overflow:visible;visibility:visible;fill:#2165b0;fill-opacity:1;fill-rule:nonzero;stroke:none;stroke-width:0.136986;marker:none;enable-background:accumulate"
               d="M 422.69141 140.5 A 8.5616438 8.5616438 0 0 0 418.15234 148.05859 A 8.5616438 8.5616438 0 0 0 422.52344 155.5 L 423.83398 155.5 L 428.10938 155.5 L 429 155.5 C 430.3844 155.5 431.5 154.3844 431.5 153 L 431.5 152.10938 L 431.5 143.89062 L 431.5 143 C 431.5 141.6156 430.3844 140.5 429 140.5 L 428.10938 140.5 L 423.83398 140.5 L 422.69141 140.5 z " />
          </g>
          <path
             id="path7307"
             style="fill:#ffffff;stroke-width:0.171234"
             d="m 428.28083,143.20548 -2.39686,1.02405 v 0.4218 c -2.8e-4,-1.4e-4 -5.5e-4,-2.8e-4 -8e-4,-4.1e-4 v 0.22327 c 10e-6,0.003 4.1e-4,0.006 4.1e-4,0.009 v 3.97274 c 0,0.54466 -0.20569,1.03311 -0.56534,1.38123 0.0143,-0.0139 0.0299,-0.0265 0.0437,-0.0408 l -0.0571,0.14007 h -1.3e-4 l 0.0573,-0.14007 c -0.34506,0.35621 -0.82677,0.54301 -1.36198,0.54301 -1.05403,0 -1.88356,-0.82096 -1.88356,-1.88343 v -0.59142 -2.258 l -2.39726,1.06565 v 1.46084 c 0,0.62747 0.0833,1.20222 0.24989,1.72209 0.1653,0.51987 0.42177,0.96724 0.76921,1.34284 0.29429,0.31882 0.65738,0.57756 1.08693,0.77817 l 0.0697,0.0214 c 0.0509,0.0285 0.10419,0.0558 0.16441,0.0796 0.53391,0.211 1.16878,0.31705 1.90256,0.31705 l -10e-4,-0.003 c 0.7461,0 1.38988,-0.10128 1.93373,-0.30808 0.54407,-0.20525 0.9909,-0.496 1.34418,-0.87182 0.35176,-0.37449 0.61408,-0.8251 0.78499,-1.34939 0.17092,-0.52429 0.25645,-1.10155 0.25645,-1.73012 v -0.0981 c 3.4e-4,-0.005 9.4e-4,-0.0104 9.4e-4,-0.0156 z" />
        </g>
      </g>
    </g>
    <g
       inkscape:groupmode="layer"
       id="layer6"
       inkscape:label="Symbols"
       style="display:inline" />
    <g
       inkscape:groupmode="layer"
       id="layer5"
       inkscape:label="Highlights"
       style="display:inline"
       sodipodi:insensitive="true">
      <path
         style="opacity:0.12999998;color:#bebebe;fill:#ffffff;fill-opacity:1;fill-rule:nonzero;stroke:none;stroke-width:0;marker:none;visibility:visible;display:inline;overflow:visible;enable-background:accumulate"
         d="M 84,47 C 56.836703,47 35,68.836703 35,96 l 0,1 C 35,69.836703 56.836703,48 84,48 l 120,0 c 27.1633,0 49,21.836703 49,49 l 0,-1 C 253,68.836703 231.1633,47 204,47 L 84,47 z"
         id="rect3894"
         inkscape:connector-curvature="0" />
      <path
         style="opacity:0.12999998;color:#bebebe;fill:#ffffff;fill-opacity:1;fill-rule:nonzero;stroke:none;stroke-width:0;marker:none;visibility:visible;display:inline;overflow:visible;enable-background:accumulate"
         d="m 419,141 c -1.1253,0 -2,0.8747 -2,2 l 0,1 c 0,-1.1253 0.8747,-2 2,-2 l 10,0 c 1.1253,0 2,0.8747 2,2 l 0,-1 c 0,-1.1253 -0.8747,-2 -2,-2 l -10,0 z"
         id="rect3896"
         inkscape:connector-curvature="0" />
      <path
         style="opacity:0.12999998;color:#bebebe;fill:#ffffff;fill-opacity:1;fill-rule:nonzero;stroke:none;stroke-width:0;marker:none;visibility:visible;display:inline;overflow:visible;enable-background:accumulate"
         d="m 422,102 c -2.2333,0 -4,1.7667 -4,4 l 0,1 c 0,-2.2333 1.7667,-4 4,-4 l 12,0 c 2.2333,0 4,1.7667 4,4 l 0,-1 c 0,-2.2333 -1.7667,-4 -4,-4 l -12,0 z"
         id="rect3898"
         inkscape:connector-curvature="0" />
      <path
         style="opacity:0.12999998;color:#bebebe;fill:#ffffff;fill-opacity:1;fill-rule:nonzero;stroke:none;stroke-width:0;marker:none;visibility:visible;display:inline;overflow:visible;enable-background:accumulate"
         d="m 424,54 c -3.3413,0 -6,2.658703 -6,6 l 0,1 c 0,-3.341297 2.6587,-6 6,-6 l 16,0 c 3.3413,0 6,2.658703 6,6 l 0,-1 c 0,-3.341297 -2.6587,-6 -6,-6 l -16,0 z"
         id="rect3900"
         inkscape:connector-curvature="0" />
      <path
         style="opacity:0.12999998;color:#bebebe;fill:#ffffff;fill-opacity:1;fill-rule:nonzero;stroke:none;stroke-width:0;marker:none;visibility:visible;display:inline;overflow:visible;enable-background:accumulate"
         d="m 300,224 c -4.4493,0 -8,3.5507 -8,8 l 0,1 c 0,-4.4493 3.5507,-8 8,-8 l 24,0 c 4.4493,0 8,3.5507 8,8 l 0,-1 c 0,-4.4493 -3.5507,-8 -8,-8 l -24,0 z"
         id="rect3902"
         inkscape:connector-curvature="0" />
      <path
         style="opacity:0.12999998;color:#bebebe;fill:#ffffff;fill-opacity:1;fill-rule:nonzero;stroke:none;stroke-width:0;marker:none;visibility:visible;display:inline;overflow:visible;enable-background:accumulate"
         d="m 310,33 c -9.4353,0 -17,7.564703 -17,17 l 0,1 c 0,-9.435297 7.5647,-17 17,-17 l 52,0 c 9.4353,0 17,7.564703 17,17 l 0,-1 c 0,-9.435297 -7.5647,-17 -17,-17 l -52,0 z"
         id="rect3904"
         inkscape:connector-curvature="0" />
      <path
         style="opacity:0.12999998;color:#bebebe;fill:#ffffff;fill-opacity:1;fill-rule:nonzero;stroke:none;stroke-width:0;marker:none;visibility:visible;display:inline;overflow:visible;enable-background:accumulate"
         d="m 302.5,143 c -6.3883,0 -11.5,5.1117 -11.5,11.5 l 0,1 c 0,-6.3883 5.1117,-11.5 11.5,-11.5 l 35,0 c 6.3883,0 11.5,5.1117 11.5,11.5 l 0,-1 c 0,-6.3883 -5.1117,-11.5 -11.5,-11.5 l -35,0 z"
         id="rect3906"
         inkscape:connector-curvature="0" />
      <path
         id="path4085"
         d="m 204,266 c 27.1633,0 49,-21.8367 49,-49 l 0,-1 c 0,27.1633 -21.8367,49 -49,49 L 84,265 C 56.8367,265 35,243.1633 35,216 l 0,1 c 0,27.1633 21.8367,49 49,49 l 120,0 z"
         style="opacity:0.41;color:#bebebe;fill:#000000;fill-opacity:1;fill-rule:nonzero;stroke:none;stroke-width:0;marker:none;visibility:visible;display:inline;overflow:visible;enable-background:accumulate"
         inkscape:connector-curvature="0" />
      <path
         id="path4087"
         d="m 429,156 c 1.1253,0 2,-0.8747 2,-2 l 0,-1 c 0,1.1253 -0.8747,2 -2,2 l -10,0 c -1.1253,0 -2,-0.8747 -2,-2 l 0,1 c 0,1.1253 0.8747,2 2,2 l 10,0 z"
         style="opacity:0.3;color:#bebebe;fill:#000000;fill-opacity:1;fill-rule:nonzero;stroke:none;stroke-width:0;marker:none;visibility:visible;display:inline;overflow:visible;enable-background:accumulate"
         inkscape:connector-curvature="0" />
      <path
         id="path4089"
         d="m 434,123 c 2.2333,0 4,-1.7667 4,-4 l 0,-1 c 0,2.2333 -1.7667,4 -4,4 l -12,0 c -2.2333,0 -4,-1.7667 -4,-4 l 0,1 c 0,2.2333 1.7667,4 4,4 l 12,0 z"
         style="opacity:0.3;color:#bebebe;fill:#000000;fill-opacity:1;fill-rule:nonzero;stroke:none;stroke-width:0;marker:none;visibility:visible;display:inline;overflow:visible;enable-background:accumulate"
         inkscape:connector-curvature="0" />
      <path
         id="path4091"
         d="m 440,83 c 3.3413,0 6,-2.6587 6,-6 l 0,-1 c 0,3.3413 -2.6587,6 -6,6 l -16,0 c -3.3413,0 -6,-2.6587 -6,-6 l 0,1 c 0,3.3413 2.6587,6 6,6 l 16,0 z"
         style="opacity:0.41;color:#bebebe;fill:#000000;fill-opacity:1;fill-rule:nonzero;stroke:none;stroke-width:0;marker:none;visibility:visible;display:inline;overflow:visible;enable-background:accumulate"
         inkscape:connector-curvature="0" />
      <path
         id="path4093"
         d="m 324,265 c 4.4493,0 8,-3.5507 8,-8 l 0,-1 c 0,4.4493 -3.5507,8 -8,8 l -24,0 c -4.4493,0 -8,-3.5507 -8,-8 l 0,1 c 0,4.4493 3.5507,8 8,8 l 24,0 z"
         style="opacity:0.41;color:#bebebe;fill:#000000;fill-opacity:1;fill-rule:nonzero;stroke:none;stroke-width:0;marker:none;visibility:visible;display:inline;overflow:visible;enable-background:accumulate"
         inkscape:connector-curvature="0" />
      <path
         id="path4095"
         d="m 362,120 c 9.4353,0 17,-7.5647 17,-17 l 0,-1 c 0,9.4353 -7.5647,17 -17,17 l -52,0 c -9.4353,0 -17,-7.5647 -17,-17 l 0,1 c 0,9.4353 7.5647,17 17,17 l 52,0 z"
         style="opacity:0.41;color:#bebebe;fill:#000000;fill-opacity:1;fill-rule:nonzero;stroke:none;stroke-width:0;marker:none;visibility:visible;display:inline;overflow:visible;enable-background:accumulate"
         inkscape:connector-curvature="0" />
      <path
         id="path4097"
         d="m 337.5,202 c 6.3883,0 11.5,-5.1117 11.5,-11.5 l 0,-1 c 0,6.3883 -5.1117,11.5 -11.5,11.5 l -35,0 c -6.3883,0 -11.5,-5.1117 -11.5,-11.5 l 0,1 c 0,6.3883 5.1117,11.5 11.5,11.5 l 35,0 z"
         style="opacity:0.41;color:#bebebe;fill:#000000;fill-opacity:1;fill-rule:nonzero;stroke:none;stroke-width:0;marker:none;visibility:visible;display:inline;overflow:visible;enable-background:accumulate"
         inkscape:connector-curvature="0" />
      <path
         inkscape:connector-curvature="0"
         id="path4280"
         d="M 84,265 C 56.836703,265 35,243.1633 35,216 l 0,-1 c 0,27.1633 21.836703,49 49,49 l 120,0 c 27.1633,0 49,-21.8367 49,-49 l 0,1 c 0,27.1633 -21.8367,49 -49,49 l -120,0 z"
         style="opacity:0.1;color:#bebebe;fill:#ffffff;fill-opacity:1;fill-rule:nonzero;stroke:none;stroke-width:0;marker:none;visibility:visible;display:inline;overflow:visible;enable-background:accumulate" />
      <path
         style="opacity:0.1;color:#bebebe;fill:#ffffff;fill-opacity:1;fill-rule:nonzero;stroke:none;stroke-width:0;marker:none;visibility:visible;display:inline;overflow:visible;enable-background:accumulate"
         d="m 300,264 c -4.4493,0 -8,-3.5507 -8,-8 l 0,-1 c 0,4.4493 3.5507,8 8,8 l 24,0 c 4.4493,0 8,-3.5507 8,-8 l 0,1 c 0,4.4493 -3.5507,8 -8,8 l -24,0 z"
         id="path4294"
         inkscape:connector-curvature="0" />
      <path
         style="opacity:0.1;color:#bebebe;fill:#ffffff;fill-opacity:1;fill-rule:nonzero;stroke:none;stroke-width:0;marker:none;visibility:visible;display:inline;overflow:visible;enable-background:accumulate"
         d="m 302.5,201 c -6.3883,0 -11.5,-5.1117 -11.5,-11.5 l 0,-1 c 0,6.3883 5.1117,11.5 11.5,11.5 l 35,0 c 6.3883,0 11.5,-5.1117 11.5,-11.5 l 0,1 c 0,6.3883 -5.1117,11.5 -11.5,11.5 l -35,0 z"
         id="path4296"
         inkscape:connector-curvature="0" />
      <path
         style="opacity:0.1;color:#bebebe;fill:#ffffff;fill-opacity:1;fill-rule:nonzero;stroke:none;stroke-width:0;marker:none;visibility:visible;display:inline;overflow:visible;enable-background:accumulate"
         d="m 310,119 c -9.4353,0 -17,-7.5647 -17,-17 l 0,-1 c 0,9.4353 7.5647,17 17,17 l 52,0 c 9.4353,0 17,-7.5647 17,-17 l 0,1 c 0,9.4353 -7.5647,17 -17,17 l -52,0 z"
         id="path4298"
         inkscape:connector-curvature="0" />
      <path
         style="opacity:0.1;color:#bebebe;fill:#ffffff;fill-opacity:1;fill-rule:nonzero;stroke:none;stroke-width:0;marker:none;visibility:visible;display:inline;overflow:visible;enable-background:accumulate"
         d="m 424,82 c -3.3413,0 -6,-2.658703 -6,-6 l 0,-1 c 0,3.341297 2.6587,6 6,6 l 16,0 c 3.3413,0 6,-2.658703 6,-6 l 0,1 c 0,3.341297 -2.6587,6 -6,6 l -16,0 z"
         id="path4300"
         inkscape:connector-curvature="0" />
      <path
         style="opacity:0.1;color:#bebebe;fill:#ffffff;fill-opacity:1;fill-rule:nonzero;stroke:none;stroke-width:0;marker:none;visibility:visible;display:inline;overflow:visible;enable-background:accumulate"
         d="m 422,122 c -2.2333,0 -4,-1.7667 -4,-4 l 0,-1 c 0,2.2333 1.7667,4 4,4 l 12,0 c 2.2333,0 4,-1.7667 4,-4 l 0,1 c 0,2.2333 -1.7667,4 -4,4 l -12,0 z"
         id="path4302"
         inkscape:connector-curvature="0" />
      <path
         style="opacity:0.1;color:#bebebe;fill:#ffffff;fill-opacity:1;fill-rule:nonzero;stroke:none;stroke-width:0;marker:none;visibility:visible;display:inline;overflow:visible;enable-background:accumulate"
         d="m 419,154.5 c -1.1253,0 -2,-0.8747 -2,-2 l 0,-1 c 0,1.1253 0.8747,2 2,2 l 10,0 c 1.1253,0 2,-0.8747 2,-2 l 0,1 c 0,1.1253 -0.8747,2 -2,2 l -10,0 z"
         id="path4304"
         inkscape:connector-curvature="0" />
    </g>
    <g
       inkscape:groupmode="layer"
       id="layer3"
       inkscape:label="Border"
       style="display:inline"
       sodipodi:insensitive="true">
      <path
         style="opacity:0.41;color:#bebebe;fill:#000000;fill-opacity:1;fill-rule:nonzero;stroke:none;stroke-width:0;marker:none;visibility:visible;display:inline;overflow:visible;enable-background:accumulate"
         d="m 422,101 c -2.77,0 -5,2.23 -5,5 l 0,12 c 0,2.77 2.23,5 5,5 l 12,0 c 2.77,0 5,-2.23 5,-5 l 0,-12 c 0,-2.77 -2.23,-5 -5,-5 l -12,0 z m 0,1 12,0 c 2.2333,0 4,1.7667 4,4 l 0,12 c 0,2.2333 -1.7667,4 -4,4 l -12,0 c -2.2333,0 -4,-1.7667 -4,-4 l 0,-12 c 0,-2.2333 1.7667,-4 4,-4 z"
         id="rect4099"
         inkscape:connector-curvature="0" />
      <path
         style="opacity:0.41;color:#bebebe;fill:#000000;fill-opacity:1;fill-rule:nonzero;stroke:none;stroke-width:0;marker:none;visibility:visible;display:inline;overflow:visible;enable-background:accumulate"
         d="m 424,53 c -3.878,0 -7,3.122 -7,7 l 0,16 c 0,3.878 3.122,7 7,7 l 16,0 c 3.878,0 7,-3.122 7,-7 l 0,-16 c 0,-3.878 -3.122,-7 -7,-7 l -16,0 z m 0,1 16,0 c 3.3413,0 6,2.658703 6,6 l 0,16 c 0,3.341297 -2.6587,6 -6,6 l -16,0 c -3.3413,0 -6,-2.658703 -6,-6 l 0,-16 c 0,-3.341297 2.6587,-6 6,-6 z"
         id="rect4151"
         inkscape:connector-curvature="0" />
      <path
         style="opacity:0.41;color:#bebebe;fill:#000000;fill-opacity:1;fill-rule:nonzero;stroke:none;stroke-width:0;marker:none;visibility:visible;display:inline;overflow:visible;enable-background:accumulate"
         d="m 419,140 c -1.662,0 -3,1.338 -3,3 l 0,10 c 0,1.662 1.338,3 3,3 l 10,0 c 1.662,0 3,-1.338 3,-3 l 0,-10 c 0,-1.662 -1.338,-3 -3,-3 l -10,0 z m 0,1 10,0 c 1.1253,0 2,0.8747 2,2 l 0,10 c 0,1.1253 -0.8747,2 -2,2 l -10,0 c -1.1253,0 -2,-0.8747 -2,-2 l 0,-10 c 0,-1.1253 0.8747,-2 2,-2 z"
         id="rect4095"
         inkscape:connector-curvature="0" />
      <path
         style="opacity:0.41;color:#bebebe;fill:#000000;fill-opacity:1;fill-rule:nonzero;stroke:none;stroke-width:0;marker:none;visibility:visible;display:inline;overflow:visible;enable-background:accumulate"
         d="m 300,223 c -4.986,0 -9,4.014 -9,9 l 0,24 c 0,4.986 4.014,9 9,9 l 24,0 c 4.986,0 9,-4.014 9,-9 l 0,-24 c 0,-4.986 -4.014,-9 -9,-9 l -24,0 z m 0,1 24,0 c 4.4493,0 8,3.5507 8,8 l 0,24 c 0,4.4493 -3.5507,8 -8,8 l -24,0 c -4.4493,0 -8,-3.5507 -8,-8 l 0,-24 c 0,-4.4493 3.5507,-8 8,-8 z"
         id="rect4783"
         inkscape:connector-curvature="0" />
      <path
         style="opacity:0.41;color:#bebebe;fill:#000000;fill-opacity:1;fill-rule:nonzero;stroke:none;stroke-width:0;marker:none;visibility:visible;display:inline;overflow:visible;enable-background:accumulate"
         d="m 302.5,142 c -6.925,0 -12.5,5.575 -12.5,12.5 l 0,35 c 0,6.925 5.575,12.5 12.5,12.5 l 35,0 c 6.925,0 12.5,-5.575 12.5,-12.5 l 0,-35 c 0,-6.925 -5.575,-12.5 -12.5,-12.5 l -35,0 z m 0,1 35,0 c 6.3883,0 11.5,5.1117 11.5,11.5 l 0,35 c 0,6.3883 -5.1117,11.5 -11.5,11.5 l -35,0 c -6.3883,0 -11.5,-5.1117 -11.5,-11.5 l 0,-35 c 0,-6.3883 5.1117,-11.5 11.5,-11.5 z"
         id="rect4515"
         inkscape:connector-curvature="0" />
      <path
         style="opacity:0.41;color:#bebebe;fill:#000000;fill-opacity:1;fill-rule:nonzero;stroke:none;stroke-width:0;marker:none;visibility:visible;display:inline;overflow:visible;enable-background:accumulate"
         d="m 310,32 c -9.972,0 -18,8.028 -18,18 l 0,52 c 0,9.972 8.028,18 18,18 l 52,0 c 9.972,0 18,-8.028 18,-18 l 0,-52 c 0,-9.972 -8.028,-18 -18,-18 l -52,0 z m 0,1 52,0 c 9.4353,0 17,7.564703 17,17 l 0,52 c 0,9.4353 -7.5647,17 -17,17 l -52,0 c -9.4353,0 -17,-7.5647 -17,-17 l 0,-52 c 0,-9.435297 7.5647,-17 17,-17 z"
         id="rect4511"
         inkscape:connector-curvature="0" />
      <path
         style="opacity:0.41;color:#bebebe;fill:#000000;fill-opacity:1;fill-rule:nonzero;stroke:none;stroke-width:0;marker:none;visibility:visible;display:inline;overflow:visible;enable-background:accumulate"
         d="M 84,46 C 56.3,46 34,68.3 34,96 l 0,120 c 0,27.7 22.3,50 50,50 l 120,0 c 27.7,0 50,-22.3 50,-50 L 254,96 C 254,68.3 231.7,46 204,46 L 84,46 z m 0,1 120,0 c 27.1633,0 49,21.836703 49,49 l 0,120 c 0,27.1633 -21.8367,49 -49,49 L 84,265 C 56.836703,265 35,243.1633 35,216 L 35,96 C 35,68.836703 56.836703,47 84,47 z"
         id="rect4040"
         inkscape:connector-curvature="0" />
    </g>
  </g>
  <style
     type="text/css"
     id="style134">
	.st0{fill:#EF443B;}
</style>
</svg>
