<?xml version="1.0" encoding="UTF-8" standalone="no"?>
<!-- Created with Inkscape (http://www.inkscape.org/) -->

<svg
   inkscape:export-ydpi="90.000000"
   inkscape:export-xdpi="90.000000"
   width="480"
   height="300"
   id="svg11300"
   sodipodi:version="0.32"
   inkscape:version="1.3 (1:1.3+202307231459+0e150ed6c4)"
   sodipodi:docname="vlc.svg"
   inkscape:output_extension="org.inkscape.output.svg.inkscape"
   version="1.0"
   style="display:inline;enable-background:new"
   inkscape:export-filename="/home/sam/moka-next-template.png"
   xmlns:inkscape="http://www.inkscape.org/namespaces/inkscape"
   xmlns:sodipodi="http://sodipodi.sourceforge.net/DTD/sodipodi-0.dtd"
   xmlns:xlink="http://www.w3.org/1999/xlink"
   xmlns="http://www.w3.org/2000/svg"
   xmlns:svg="http://www.w3.org/2000/svg"
   xmlns:rdf="http://www.w3.org/1999/02/22-rdf-syntax-ns#"
   xmlns:cc="http://creativecommons.org/ns#"
   xmlns:dc="http://purl.org/dc/elements/1.1/">
  <sodipodi:namedview
     stroke="#ef2929"
     fill="#f57900"
     id="base"
     pagecolor="#777777"
     bordercolor="#666666"
     borderopacity="0.25490196"
     inkscape:pageopacity="0"
     inkscape:pageshadow="2"
     inkscape:zoom="1"
     inkscape:cx="256.5"
     inkscape:cy="146.5"
     inkscape:current-layer="layer6"
     showgrid="false"
     inkscape:grid-bbox="true"
     inkscape:document-units="px"
     inkscape:showpageshadow="false"
     inkscape:window-width="1440"
     inkscape:window-height="742"
     inkscape:window-x="0"
     inkscape:window-y="0"
     width="400px"
     height="300px"
     inkscape:snap-nodes="true"
     inkscape:snap-bbox="true"
     gridtolerance="10000"
     inkscape:object-nodes="true"
     inkscape:snap-grids="true"
     showguides="true"
     inkscape:guide-bbox="true"
     inkscape:window-maximized="1"
     inkscape:bbox-nodes="true"
     inkscape:bbox-paths="true"
     inkscape:snap-bbox-edge-midpoints="true"
     inkscape:snap-bbox-midpoints="true"
     inkscape:pagecheckerboard="1"
     inkscape:deskcolor="#505050">
    <inkscape:grid
       spacingy="1px"
       spacingx="1px"
       id="grid5883"
       type="xygrid"
       enabled="true"
       visible="false"
       empspacing="4"
       snapvisiblegridlinesonly="true"
       dotted="false"
       color="#000000"
       opacity="0.1254902"
       empcolor="#203ef3"
       empopacity="0.36470588"
       originx="0"
       originy="0"
       units="px" />
    <inkscape:grid
       type="xygrid"
       id="grid11592"
       empspacing="8"
       visible="false"
       enabled="false"
       spacingx="0.5px"
       spacingy="0.5px"
       color="#ff0000"
       opacity="0.1254902"
       empcolor="#ff0000"
       empopacity="0.25098039"
       snapvisiblegridlinesonly="true"
       dotted="true"
       originx="0"
       originy="0"
       units="px" />
  </sodipodi:namedview>
  <defs
     id="defs3">
    <linearGradient
       inkscape:collect="always"
       xlink:href="#outerBackgroundGradient-1"
       id="linearGradient4254"
       x1="35"
       y1="156"
       x2="253"
       y2="156"
       gradientUnits="userSpaceOnUse"
       gradientTransform="matrix(0,-1,1,0,-12,300)" />
    <linearGradient
       inkscape:collect="always"
       xlink:href="#outerBackgroundGradient-1"
       id="linearGradient4256"
       x1="417"
       y1="148"
       x2="431"
       y2="148"
       gradientUnits="userSpaceOnUse"
       gradientTransform="matrix(0,-1,1,0,276,572)" />
    <linearGradient
       inkscape:collect="always"
       xlink:href="#outerBackgroundGradient-1"
       id="linearGradient4258"
       x1="418"
       y1="112"
       x2="438"
       y2="112"
       gradientUnits="userSpaceOnUse"
       gradientTransform="matrix(0,-1,1,0,316,540)" />
    <linearGradient
       inkscape:collect="always"
       xlink:href="#outerBackgroundGradient-1"
       id="linearGradient4260"
       x1="418"
       y1="68"
       x2="446"
       y2="68"
       gradientUnits="userSpaceOnUse"
       gradientTransform="matrix(0,-1,1,0,364,500)" />
    <linearGradient
       inkscape:collect="always"
       xlink:href="#outerBackgroundGradient-1"
       id="linearGradient4262"
       x1="292"
       y1="244"
       x2="332"
       y2="244"
       gradientUnits="userSpaceOnUse"
       gradientTransform="matrix(0,-1,1,0,68,556)" />
    <linearGradient
       inkscape:collect="always"
       xlink:href="#outerBackgroundGradient-1"
       id="linearGradient4264"
       x1="293"
       y1="76"
       x2="379"
       y2="76"
       gradientUnits="userSpaceOnUse"
       gradientTransform="matrix(0,-1,1,0,260,412)" />
    <linearGradient
       inkscape:collect="always"
       xlink:href="#outerBackgroundGradient-1"
       id="linearGradient4266"
       x1="291"
       y1="172"
       x2="349"
       y2="172"
       gradientUnits="userSpaceOnUse"
       gradientTransform="matrix(0,-1,1,0,148,492)" />
    <linearGradient
       id="outerBackgroundGradient-1">
      <stop
         style="stop-color:#e85e00;stop-opacity:1"
         offset="0"
         id="stop3864-8-6-9" />
      <stop
         style="stop-color:#f48b00;stop-opacity:1"
         offset="1"
         id="stop3866-9-1-9" />
    </linearGradient>
  </defs>
  <metadata
     id="metadata4">
    <rdf:RDF>
      <cc:Work
         rdf:about="">
        <dc:format>image/svg+xml</dc:format>
        <dc:type
           rdf:resource="http://purl.org/dc/dcmitype/StillImage" />
        <dc:creator>
          <cc:Agent>
            <dc:title>Sam Hewitt</dc:title>
          </cc:Agent>
        </dc:creator>
        <dc:source />
        <cc:license
           rdf:resource="" />
        <dc:title />
        <dc:subject>
          <rdf:Bag />
        </dc:subject>
        <dc:date />
        <dc:rights>
          <cc:Agent>
            <dc:title />
          </cc:Agent>
        </dc:rights>
        <dc:publisher>
          <cc:Agent>
            <dc:title />
          </cc:Agent>
        </dc:publisher>
        <dc:identifier />
        <dc:relation />
        <dc:language />
        <dc:coverage />
        <dc:description />
        <dc:contributor>
          <cc:Agent>
            <dc:title />
          </cc:Agent>
        </dc:contributor>
      </cc:Work>
      <cc:Work
         rdf:about="">
        <dc:format>image/svg+xml</dc:format>
        <dc:type
           rdf:resource="http://purl.org/dc/dcmitype/StillImage" />
      </cc:Work>
    </rdf:RDF>
  </metadata>
  <g
     style="display:inline"
     inkscape:groupmode="layer"
     inkscape:label="Icon"
     id="layer1">
    <g
       style="display:none"
       inkscape:label="Baseplate"
       id="layer7"
       inkscape:groupmode="layer">
      <text
         y="19.745117"
         xml:space="preserve"
         x="15.006836"
         style="font-style:normal;font-variant:normal;font-weight:normal;font-stretch:normal;line-height:0%;font-family:'DejaVu Sans';-inkscape-font-specification:'DejaVu Sans';display:inline;fill:#000000;fill-opacity:1;stroke:none;enable-background:new"
         inkscape:label="context"
         id="context"><tspan
           style="font-style:normal;font-variant:normal;font-weight:normal;font-stretch:normal;font-size:18px;line-height:1.25;font-family:'DejaVu Sans';-inkscape-font-specification:'DejaVu Sans'"
           y="19.745117"
           x="15.006836"
           sodipodi:role="line"
           id="tspan3933">apps</tspan></text>
      <text
         y="19.745117"
         xml:space="preserve"
         x="122.48828"
         style="font-style:normal;font-variant:normal;font-weight:bold;font-stretch:normal;line-height:0%;font-family:'DejaVu Sans';-inkscape-font-specification:'DejaVu Sans Bold';text-align:start;writing-mode:lr-tb;text-anchor:start;display:inline;fill:#000000;fill-opacity:1;stroke:none;enable-background:new"
         inkscape:label="icon-name"
         id="icon-name"><tspan
           style="font-style:normal;font-variant:normal;font-weight:bold;font-stretch:normal;font-size:18px;line-height:1.25;font-family:'DejaVu Sans';-inkscape-font-specification:'DejaVu Sans Bold'"
           y="19.745117"
           x="122.48828"
           sodipodi:role="line"
           id="tspan3937">vlc</tspan></text>
      <rect
         style="fill:#eeeeec;fill-opacity:1;fill-rule:nonzero;stroke:none;stroke-width:2;marker:none;visibility:visible;display:inline;overflow:visible;enable-background:accumulate"
         id="rect16x16"
         width="16"
         height="16"
         x="416"
         y="140"
         inkscape:label="16x16" />
      <rect
         style="fill:#d4d4d4;fill-opacity:1;fill-rule:nonzero;stroke:none;stroke-width:2;marker:none;visibility:visible;display:inline;overflow:visible;enable-background:accumulate"
         id="rect24x24"
         width="24"
         height="24"
         x="416"
         y="100"
         inkscape:label="24x24" />
      <rect
         style="fill:#eeeeec;fill-opacity:1;fill-rule:nonzero;stroke:none;stroke-width:2;marker:none;visibility:visible;display:inline;overflow:visible;enable-background:accumulate"
         id="rect32x32"
         width="32"
         height="32"
         x="416"
         y="52"
         inkscape:label="32x32" />
      <rect
         inkscape:label="22x22"
         y="101"
         x="417"
         height="22"
         width="22"
         id="rect22x22"
         style="fill:#eeeeec;fill-opacity:1;fill-rule:nonzero;stroke:none;stroke-width:2;marker:none;visibility:visible;display:inline;overflow:visible;enable-background:accumulate" />
      <rect
         inkscape:label="48x48"
         y="220"
         x="288"
         height="48"
         width="48"
         id="rect48x48"
         style="fill:#eeeeec;fill-opacity:1;fill-rule:nonzero;stroke:none;stroke-width:2;marker:none;visibility:visible;display:inline;overflow:visible;enable-background:accumulate" />
      <rect
         style="fill:#eeeeec;fill-opacity:1;fill-rule:nonzero;stroke:none;stroke-width:2;marker:none;visibility:visible;display:inline;overflow:visible;enable-background:accumulate"
         id="rect256x256"
         width="256"
         height="256"
         x="16"
         y="28"
         inkscape:label="256x256" />
      <rect
         style="fill:#eeeeec;fill-opacity:1;fill-rule:nonzero;stroke:none;stroke-width:2;marker:none;visibility:visible;display:inline;overflow:visible;enable-background:accumulate"
         id="rect64x64"
         width="64"
         height="64"
         x="288"
         y="140"
         inkscape:label="64x64" />
      <rect
         style="fill:#eeeeec;fill-opacity:1;fill-rule:nonzero;stroke:none;stroke-width:2;marker:none;visibility:visible;display:inline;overflow:visible;enable-background:accumulate"
         id="rect96x96"
         width="96"
         height="96"
         x="288"
         y="28"
         inkscape:label="96x96" />
    </g>
    <g
       inkscape:groupmode="layer"
       id="layer4"
       inkscape:label="Shadow"
       style="display:inline"
       sodipodi:insensitive="true">
      <rect
         ry="50"
         y="47"
         x="34"
         height="220"
         width="220"
         id="rect4114"
         style="opacity:0.15;color:#bebebe;fill:#000000;fill-opacity:1;fill-rule:nonzero;stroke:none;stroke-width:0;marker:none;visibility:visible;display:inline;overflow:visible;enable-background:accumulate" />
      <rect
         style="opacity:0.15;color:#bebebe;fill:#000000;fill-opacity:1;fill-rule:nonzero;stroke:none;stroke-width:0;marker:none;visibility:visible;display:inline;overflow:visible;enable-background:accumulate"
         id="rect4120"
         width="30"
         height="30"
         x="417"
         y="54"
         ry="7" />
      <rect
         transform="scale(1,-1)"
         ry="9"
         y="-266"
         x="291"
         height="42"
         width="42"
         id="rect4122"
         style="opacity:0.15;color:#bebebe;fill:#000000;fill-opacity:1;fill-rule:nonzero;stroke:none;stroke-width:0;marker:none;visibility:visible;display:inline;overflow:visible;enable-background:accumulate" />
      <rect
         style="opacity:0.15;color:#bebebe;fill:#000000;fill-opacity:1;fill-rule:nonzero;stroke:none;stroke-width:0;marker:none;visibility:visible;display:inline;overflow:visible;enable-background:accumulate"
         id="rect4124"
         width="88"
         height="88"
         x="292"
         y="33"
         ry="18" />
      <rect
         ry="12.5"
         y="143"
         x="290"
         height="60"
         width="60"
         id="rect4126"
         style="opacity:0.15;color:#bebebe;fill:#000000;fill-opacity:1;fill-rule:nonzero;stroke:none;stroke-width:0;marker:none;visibility:visible;display:inline;overflow:visible;enable-background:accumulate" />
      <path
         id="path4268"
         d="m 422,101 c -2.77,0 -5,2.23 -5,5 l 0,12 c 0,2.77 2.23,5 5,5 l 12,0 c 2.77,0 5,-2.23 5,-5 l 0,-12 c 0,-2.77 -2.23,-5 -5,-5 z"
         style="opacity:0.15;color:#bebebe;fill:#000000;fill-opacity:1;fill-rule:nonzero;stroke:none;stroke-width:0;marker:none;visibility:visible;display:inline;overflow:visible;enable-background:accumulate"
         inkscape:connector-curvature="0"
         sodipodi:nodetypes="sssssssss" />
      <path
         id="path4270"
         d="m 419,140 c -1.662,0 -3,1.338 -3,3 l 0,10 c 0,1.662 1.338,3 3,3 l 10,0 c 1.662,0 3,-1.338 3,-3 l 0,-10 c 0,-1.662 -1.338,-3 -3,-3 z"
         style="opacity:0.15;color:#bebebe;fill:#000000;fill-opacity:1;fill-rule:nonzero;stroke:none;stroke-width:0;marker:none;visibility:visible;display:inline;overflow:visible;enable-background:accumulate"
         inkscape:connector-curvature="0"
         sodipodi:nodetypes="sssssssss" />
    </g>
    <g
       inkscape:groupmode="layer"
       id="layer2"
       inkscape:label="Background"
       style="display:inline">
      <path
         style="color:#bebebe;fill:url(#linearGradient4254);fill-opacity:1;fill-rule:nonzero;stroke:none;stroke-width:2;marker:none;visibility:visible;display:inline;overflow:visible;enable-background:accumulate"
         d="M 84 46.5 C 56.568735 46.5 34.5 68.568732 34.5 96 L 34.5 216 C 34.5 243.43127 56.568735 265.5 84 265.5 L 204 265.5 C 231.43127 265.5 253.5 243.43127 253.5 216 L 253.5 96 C 253.5 68.568732 231.43127 46.5 204 46.5 L 84 46.5 z "
         id="path4200" />
      <path
         style="color:#bebebe;fill:url(#linearGradient4256);fill-opacity:1;fill-rule:nonzero;stroke:none;stroke-width:2;marker:none;visibility:visible;display:inline;overflow:visible;enable-background:accumulate"
         d="M 419 140.5 C 417.6156 140.5 416.5 141.6156 416.5 143 L 416.5 153 C 416.5 154.3844 417.6156 155.5 419 155.5 L 429 155.5 C 430.3844 155.5 431.5 154.3844 431.5 153 L 431.5 143 C 431.5 141.6156 430.3844 140.5 429 140.5 L 419 140.5 z "
         id="path4202" />
      <path
         style="color:#bebebe;fill:url(#linearGradient4258);fill-opacity:1;fill-rule:nonzero;stroke:none;stroke-width:2;marker:none;visibility:visible;display:inline;overflow:visible;enable-background:accumulate"
         d="M 422 101.5 C 419.50301 101.5 417.5 103.50301 417.5 106 L 417.5 118 C 417.5 120.49699 419.50301 122.5 422 122.5 L 434 122.5 C 436.49699 122.5 438.5 120.49699 438.5 118 L 438.5 106 C 438.5 103.50301 436.49699 101.5 434 101.5 L 422 101.5 z "
         id="path4204" />
      <path
         style="color:#bebebe;fill:url(#linearGradient4260);fill-opacity:1;fill-rule:nonzero;stroke:none;stroke-width:2;marker:none;visibility:visible;display:inline;overflow:visible;enable-background:accumulate"
         d="M 424 53.5 C 420.39346 53.5 417.5 56.393464 417.5 60 L 417.5 76 C 417.5 79.606536 420.39346 82.5 424 82.5 L 440 82.5 C 443.60654 82.5 446.5 79.606536 446.5 76 L 446.5 60 C 446.5 56.393464 443.60654 53.5 440 53.5 L 424 53.5 z "
         id="path4206" />
      <path
         style="color:#bebebe;fill:url(#linearGradient4262);fill-opacity:1;fill-rule:nonzero;stroke:none;stroke-width:2;marker:none;visibility:visible;display:inline;overflow:visible;enable-background:accumulate"
         d="M 300 223.5 C 295.28469 223.5 291.5 227.28469 291.5 232 L 291.5 256 C 291.5 260.71531 295.28469 264.5 300 264.5 L 324 264.5 C 328.71531 264.5 332.5 260.71531 332.5 256 L 332.5 232 C 332.5 227.28469 328.71531 223.5 324 223.5 L 300 223.5 z "
         id="path4208" />
      <path
         style="color:#bebebe;fill:url(#linearGradient4264);fill-opacity:1;fill-rule:nonzero;stroke:none;stroke-width:2;marker:none;visibility:visible;display:inline;overflow:visible;enable-background:accumulate"
         d="M 310 32.5 C 300.29745 32.5 292.5 40.297452 292.5 50 L 292.5 102 C 292.5 111.70255 300.29745 119.5 310 119.5 L 362 119.5 C 371.70255 119.5 379.5 111.70255 379.5 102 L 379.5 50 C 379.5 40.297452 371.70255 32.5 362 32.5 L 310 32.5 z "
         id="path4210" />
      <path
         style="color:#bebebe;fill:url(#linearGradient4266);fill-opacity:1;fill-rule:nonzero;stroke:none;stroke-width:2;marker:none;visibility:visible;display:inline;overflow:visible;enable-background:accumulate"
         d="M 302.5 142.5 C 295.84498 142.5 290.5 147.84498 290.5 154.5 L 290.5 189.5 C 290.5 196.15502 295.84498 201.5 302.5 201.5 L 337.5 201.5 C 344.15502 201.5 349.5 196.15502 349.5 189.5 L 349.5 154.5 C 349.5 147.84498 344.15502 142.5 337.5 142.5 L 302.5 142.5 z "
         id="path4212" />
    </g>
    <g
       inkscape:groupmode="layer"
       id="layer6"
       inkscape:label="Symbols"
       style="display:inline">
      <path
         id="path3954"
         style="display:inline;opacity:0.2;fill:#000000;fill-opacity:1;enable-background:new"
         d="m 144.00217,77 c -3.44827,0 -5.71054,1.535438 -7.58594,3.451172 -2.59304,2.648816 -4.82617,10.345703 -4.82617,10.345703 l -2.76172,8.269531 c 11.03469,5.517114 18.91048,6.032894 30.34766,0 l -2.75781,-8.269531 c 0,0 -2.23508,-7.696887 -4.82813,-10.345703 C 149.71465,78.535438 147.45042,77 144.00217,77 Z m -24.82812,51.03125 -11.03125,33.10742 c 11.03343,11.03137 23.05309,13.78906 35.85937,13.78906 12.80762,0 24.825,-2.75468 35.85938,-13.78906 L 168.8303,128.03125 c -8.27583,6.20684 -15.9896,9.3125 -24.82813,9.3125 -8.83859,0 -16.55232,-3.10566 -24.82812,-9.3125 z M 90.894747,177.6875 c -3.66765,0 -7.13861,3.20731 -8.27148,6.89453 l -12.07227,41.38086 C 68.938357,231.49195 69.519527,237 77.105687,237 h 66.896483 66.89844 c 7.58616,0 8.15954,-5.50805 6.54687,-11.03711 l -12.06445,-41.38086 c -1.13293,-3.68722 -4.61161,-6.89453 -8.2793,-6.89453 h -11.72461 c 0,0 1.84308,5.51992 2.76172,8.2793 1.33244,4.00402 1.97343,6.01659 -0.0195,8.31054 -11.01476,10.99924 -28.57164,15.13719 -44.11914,15.13282 -15.55752,-0.003 -33.02809,-4.29975 -44.138669,-15.17188 -2.080622,-2.03591 -1.379852,-4.13324 0,-8.27148 0.919789,-2.75847 2.759769,-8.2793 2.759769,-8.2793 z"
         sodipodi:nodetypes="ssccccssccsccscsccscsccsccccsscs" />
      <path
         id="path3170"
         style="display:inline;opacity:0.2;fill:#000000;fill-opacity:1;enable-background:new"
         d="m 336.00157,47 c -1.29309,0 -2.14242,0.576514 -2.8457,1.294922 -0.9724,0.993298 -1.81055,3.878906 -1.81055,3.878906 l -1.0332,3.101563 c 4.13801,2.068915 7.08995,2.262344 11.37891,0 l -1.03516,-3.101563 c 0,0 -0.83621,-2.885608 -1.80859,-3.878906 C 338.144,47.576514 337.29466,47 336.00157,47 Z m -9.31054,19.136719 -4.13672,12.416015 c 4.13753,4.136762 8.64492,5.169922 13.44726,5.169922 4.80286,0 9.30936,-1.03203 13.44727,-5.169922 l -4.13672,-12.416015 c -3.10343,2.327564 -5.99609,3.492187 -9.31055,3.492187 -3.31446,0 -6.20713,-1.164623 -9.31054,-3.492187 z m -10.60547,18.621093 c -1.37538,0 -2.67674,1.20323 -3.10157,2.585938 l -4.52734,15.51758 C 307.85191,104.93472 308.07082,107 310.91564,107 h 25.08593 25.08594 c 2.84481,0 3.05983,-2.06528 2.45508,-4.13867 l -4.52344,-15.51758 c -0.42485,-1.382708 -1.73008,-2.585937 -3.10547,-2.585938 h -4.39648 c 0,0 0.69066,2.070701 1.03515,3.105469 0.49966,1.501498 0.74014,2.255005 -0.008,3.115235 -4.13052,4.124721 -10.71264,5.677431 -16.54297,5.675781 -5.83406,-0.001 -12.38626,-1.612401 -16.55273,-5.689453 -0.78023,-0.763469 -0.51744,-1.549725 0,-3.101563 0.34492,-1.034428 1.03515,-3.105469 1.03515,-3.105469 z"
         sodipodi:nodetypes="ssccccssccsccscsccscsccsccccsscs" />
      <path
         id="path3174"
         style="display:inline;opacity:0.2;fill:#000000;fill-opacity:1;enable-background:new"
         d="m 312.00177,230 c -0.64655,0 -1.07219,0.28728 -1.42383,0.64648 -0.48619,0.49665 -0.9043,1.94141 -0.9043,1.94141 l -0.51758,1.55078 c 2.069,1.03446 3.54499,1.13117 5.68946,0 l -0.51758,-1.55078 c 0,0 -0.4181,-1.44476 -0.9043,-1.94141 C 313.072,230.28728 312.64832,230 312.00177,230 Z m -4.65625,9.56836 -2.06836,6.20703 c 2.06876,2.06838 4.32343,2.58594 6.72461,2.58594 2.40142,0 4.65369,-0.517 6.72265,-2.58594 l -2.06836,-6.20703 c -1.55172,1.16379 -2.99707,1.74609 -4.65429,1.74609 -1.65723,0 -3.10454,-0.5823 -4.65625,-1.74609 z m -5.30274,9.31055 c -0.68769,0 -1.33837,0.60162 -1.55078,1.29297 l -2.26367,7.75781 C 297.92596,258.96638 298.03444,260 299.45684,260 h 12.54493 12.54296 c 1.4224,0 1.52895,-1.03362 1.22657,-2.07031 l -2.26172,-7.75781 c -0.21242,-0.69135 -0.86505,-1.29297 -1.55274,-1.29297 h -2.19726 c 0,0 0.34533,1.03534 0.51758,1.55273 0.24983,0.75075 0.37006,1.12847 -0.004,1.55859 -2.06527,2.06236 -5.35633,2.83871 -8.27148,2.83789 -2.91704,-6.2e-4 -6.19411,-0.80717 -8.27735,-2.8457 -0.39011,-0.38173 -0.25872,-0.77486 0,-1.55078 0.17246,-0.51722 0.51758,-1.55273 0.51758,-1.55273 z"
         sodipodi:nodetypes="ssccccssccsccscsccscsccsccccsscs" />
      <path
         id="path3176"
         style="display:inline;opacity:0.2;fill:#000000;fill-opacity:1;enable-background:new"
         d="m 432.00098,59 c -0.43103,0 -0.71479,0.192176 -0.94922,0.431641 -0.32413,0.3311 -0.60352,1.292968 -0.60352,1.292968 l -0.34375,1.033203 c 1.37933,0.68964 2.36332,0.754111 3.79297,0 l -0.3457,-1.033203 c 0,0 -0.27939,-0.961868 -0.60352,-1.292968 C 432.71381,59.192176 432.43202,59 432.00098,59 Z m -3.10352,6.378906 -1.3789,4.138672 c 1.37917,1.378925 2.88164,1.722656 4.48242,1.722656 1.60096,0 3.10311,-0.343355 4.48242,-1.722656 l -1.37891,-4.138672 c -1.03448,0.775856 -1.99869,1.164063 -3.10351,1.164063 -1.10482,0 -2.06904,-0.388207 -3.10352,-1.164063 z m -3.53515,6.207032 c -0.45846,0 -0.8916,0.400425 -1.03321,0.861328 l -1.50976,5.173828 C 422.61776,78.312224 422.68943,79 423.6377,79 h 8.36328 8.36133 c 0.94826,0 1.01994,-0.687776 0.81835,-1.378906 l -1.50781,-5.173828 c -0.14161,-0.460903 -0.57668,-0.861328 -1.03515,-0.861328 h -1.46485 c 0,0 0.23088,0.690233 0.34571,1.035156 0.16655,0.500501 0.24574,0.752318 -0.004,1.039062 -1.37685,1.374905 -3.57218,1.891173 -5.51563,1.890625 -1.94468,-4.22e-4 -4.1268,-0.537469 -5.51562,-1.896484 -0.26008,-0.254492 -0.17248,-0.515922 0,-1.033203 0.11497,-0.344809 0.34375,-1.035156 0.34375,-1.035156 z"
         sodipodi:nodetypes="ssccccssccsccscsccscsccscsccsscs" />
      <path
         id="path3180"
         style="display:inline;opacity:0.2;fill:#000000;fill-opacity:1;enable-background:new"
         d="m 424.00115,144 c -0.21552,0 -0.3574,0.0952 -0.47461,0.21484 -0.16207,0.16555 -0.30078,0.64844 -0.30078,0.64844 l -0.17383,0.51563 c 0.68967,0.34482 1.18167,0.37705 1.89648,0 l -0.17187,-0.51563 c 0,0 -0.13871,-0.48289 -0.30078,-0.64844 C 424.35855,144.09511 424.21667,144 424.00115,144 Z m -1.55274,3.18945 -0.68945,2.06836 c 0.68959,0.68947 1.4418,0.86328 2.24219,0.86328 0.80048,0 1.55058,-0.17362 2.24023,-0.86328 l -0.68945,-2.06836 c -0.51724,0.38792 -0.99837,0.58203 -1.55078,0.58203 -0.55241,0 -1.0355,-0.19411 -1.55274,-0.58203 z m -1.76757,3.10352 c -0.22923,0 -0.44483,0.20119 -0.51563,0.43164 l -0.75586,2.58594 c -0.10079,0.34556 -0.064,0.68945 0.41016,0.68945 h 4.18164 4.18164 c 0.47413,0 0.50899,-0.34389 0.4082,-0.68945 l -0.7539,-2.58594 c -0.0708,-0.23045 -0.28835,-0.43164 -0.51758,-0.43164 h -0.73242 c 0,0 0.11446,0.34511 0.17187,0.51758 0.0833,0.25025 0.12433,0.37616 0,0.51953 -0.68842,0.68746 -1.78609,0.94558 -2.75781,0.94531 -0.97235,-2.1e-4 -2.0634,-0.26776 -2.75781,-0.94727 -0.13004,-0.12723 -0.0862,-0.25893 0,-0.51757 0.0575,-0.17241 0.17187,-0.51758 0.17187,-0.51758 z"
         sodipodi:nodetypes="ssccccssccsccscsccscsccscscssscs" />
      <path
         id="path4226"
         style="display:inline;fill:#ffffff;fill-opacity:1;stroke-width:1.14286;enable-background:new"
         d="m 144.0027,75.999999 c -3.44827,0 -5.71166,1.535158 -7.58706,3.450894 -2.59305,2.648819 -4.82589,10.345981 -4.82589,10.345981 l -2.76117,8.270087 c 11.0347,5.517119 18.91103,6.032899 30.34822,0 l -2.75893,-8.270087 c 0,0 -2.23507,-7.697162 -4.82812,-10.345981 -1.87541,-1.915736 -4.1388,-3.450894 -7.58705,-3.450894 z m -24.82813,51.031251 -11.03126,33.10714 c 11.03344,11.03138 23.0531,13.79018 35.85939,13.79018 12.80763,0 24.82498,-2.75579 35.85937,-13.79018 l -11.03125,-33.10714 c -8.27583,6.20685 -15.98958,9.3125 -24.82812,9.3125 -8.8386,0 -16.55232,-3.10565 -24.82813,-9.3125 z M 90.895551,176.6875 c -3.667666,0 -7.139448,3.20786 -8.272317,6.89508 L 70.551806,224.96204 C 68.939168,230.4911 69.519202,236 77.105371,236 h 66.897329 66.89731 c 7.58617,0 8.15955,-5.5089 6.54688,-11.03796 l -12.06473,-41.37946 c -1.13293,-3.68722 -4.61133,-6.89508 -8.27902,-6.89508 h -11.72322 c 0,0 1.84252,5.51963 2.76116,8.27901 1.33244,4.00403 1.97286,6.01631 -0.0201,8.31027 -11.01477,10.99925 -28.57079,15.1383 -44.1183,15.13393 -15.55754,-0.003 -33.02781,-4.29974 -44.138399,-15.17188 -2.08062,-2.03591 -1.37985,-4.13407 0,-8.27232 0.919789,-2.75847 2.758939,-8.27901 2.758939,-8.27901 z"
         sodipodi:nodetypes="ssccccssccsccscsccscsccsccccsscs" />
      <path
         id="path933"
         style="fill:#fafafa;fill-opacity:1;stroke-width:0.12931"
         d="m 336.00157,46 c -1.29309,0 -2.14242,0.576513 -2.8457,1.294922 -0.9724,0.993299 -1.81055,3.878906 -1.81055,3.878906 l -1.0332,3.101563 c 4.13801,2.068917 7.08995,2.262347 11.37891,0 l -1.03516,-3.101563 c 0,0 -0.8362,-2.885607 -1.80859,-3.878906 C 338.144,46.576513 337.29466,46 336.00157,46 Z m -9.31054,19.136719 -4.13672,12.416015 c 4.13754,4.136766 8.64491,5.169922 13.44726,5.169922 4.80286,0 9.30936,-1.032026 13.44727,-5.169922 l -4.13672,-12.416015 c -3.10343,2.327567 -5.99609,3.492187 -9.31055,3.492187 -3.31447,0 -6.20712,-1.16462 -9.31054,-3.492187 z m -10.60547,18.621093 c -1.37538,0 -2.67673,1.203229 -3.10156,2.585938 l -4.52735,15.51758 C 307.85191,103.93472 308.07082,106 310.91564,106 h 25.08593 25.08594 c 2.84481,0 3.05983,-2.06528 2.45508,-4.13867 l -4.52344,-15.51758 c -0.42485,-1.382709 -1.73008,-2.585938 -3.10547,-2.585938 h -4.39648 c 0,0 0.69067,2.0707 1.03516,3.105469 0.49966,1.501499 0.73995,2.255005 -0.008,3.115235 -4.13053,4.124725 -10.71264,5.677431 -16.54297,5.675781 -5.83407,-0.001 -12.38625,-1.612397 -16.55273,-5.689453 -0.78023,-0.76347 -0.51744,-1.549724 0,-3.101563 0.34492,-1.034429 1.03516,-3.105469 1.03516,-3.105469 z"
         sodipodi:nodetypes="ssccccssccsccscsccscsccsccccsscs" />
      <path
         id="path3950"
         style="display:inline;opacity:0.2;fill:#000000;fill-opacity:1;enable-background:new"
         d="m 320.00177,153 c -0.86207,0 -1.42958,0.38435 -1.89844,0.86328 -0.64826,0.66221 -1.20508,2.58594 -1.20508,2.58594 l -0.69141,2.06836 c 2.75867,1.37928 4.72861,1.50823 7.58789,0 l -0.68945,-2.06836 c 0,0 -0.55877,-1.92373 -1.20703,-2.58594 C 321.42939,153.38435 320.86383,153 320.00177,153 Z m -6.20704,12.75781 -2.75781,8.27735 c 2.75835,2.75784 5.76329,3.44726 8.96485,3.44726 3.2019,0 6.20623,-0.68867 8.96484,-3.44726 l -2.75781,-8.27735 c -2.06896,1.55171 -3.9974,2.32813 -6.20703,2.32813 -2.20964,0 -4.13808,-0.77642 -6.20704,-2.32813 z m -7.07031,12.41407 c -0.91691,0 -1.78514,0.8028 -2.06836,1.7246 l -3.01758,10.34375 C 301.23532,191.6225 301.38062,193 303.27716,193 h 16.72461 16.72265 c 1.89655,0 2.03989,-1.3775 1.63672,-2.75977 l -3.01563,-10.34375 c -0.28322,-0.9218 -1.15338,-1.72461 -2.07031,-1.7246 h -2.92969 c 0,0 0.45981,1.38046 0.68946,2.07031 0.33311,1.001 0.49439,1.50463 -0.004,2.07812 -2.7537,2.74981 -7.14241,3.7843 -11.02929,3.78321 -3.88938,-8.5e-4 -8.25751,-1.07495 -11.03516,-3.79297 -0.52016,-0.50897 -0.34497,-1.0338 0,-2.06836 0.22994,-0.68962 0.68945,-2.07031 0.68945,-2.07031 z"
         sodipodi:nodetypes="ssccccssccsccscsccscsccsccccsscs" />
      <path
         id="path3870"
         style="display:inline;fill:#ffffff;fill-opacity:1;stroke-width:0.842972;enable-background:new"
         d="m 320.00066,152 c -0.86207,0 -1.42783,0.38379 -1.89669,0.86272 -0.64826,0.66221 -1.20683,2.58654 -1.20683,2.58654 l -0.68985,2.06792 c 2.75867,1.37928 4.72745,1.50823 7.58674,0 l -0.68985,-2.06792 c 0,0 -0.55857,-1.92433 -1.20683,-2.58654 C 321.42849,152.38379 320.86273,152 320.00066,152 Z m -6.20704,12.75818 -2.75776,8.2766 c 2.75835,2.75785 5.76324,3.44763 8.9648,3.44763 3.20191,0 6.2062,-0.68903 8.96481,-3.44763 l -2.75776,-8.2766 c -2.06896,1.55171 -3.99741,2.32805 -6.20705,2.32805 -2.20964,0 -4.13808,-0.77634 -6.20704,-2.32805 z m -7.06977,12.41408 c -0.91691,0 -1.78469,0.802 -2.06791,1.72381 l -3.0179,10.34451 C 301.23488,190.62285 301.37969,192 303.27623,192 h 16.72443 16.72443 c 1.89655,0 2.03972,-1.37715 1.63655,-2.75942 l -3.01625,-10.34451 c -0.28323,-0.92181 -1.15264,-1.72382 -2.06957,-1.72381 h -2.93064 c 0,0 0.4602,1.37971 0.68985,2.06956 0.33311,1.001 0.4933,1.5043 -0.005,2.07779 -2.7537,2.74981 -7.14255,3.78459 -11.02944,3.7835 -3.88938,-8.5e-4 -8.25671,-1.07535 -11.03436,-3.79338 -0.52016,-0.50897 -0.34497,-1.03335 0,-2.06791 0.22994,-0.68962 0.68985,-2.06956 0.68985,-2.06956 z"
         sodipodi:nodetypes="ssccccssccsccscsccscsccsccccsscs" />
      <path
         id="path933-9"
         style="fill:#fafafa;fill-opacity:1;stroke-width:0.0646549"
         d="m 312.0005,229 c -0.64655,0 -1.07088,0.28785 -1.42252,0.64705 -0.48619,0.49665 -0.90512,1.9399 -0.90512,1.9399 l -0.51739,1.55094 c 2.069,1.03446 3.54559,1.13117 5.69006,0 l -0.51739,-1.55094 c 0,0 -0.41893,-1.44325 -0.90513,-1.9399 C 313.07137,229.28785 312.64705,229 312.0005,229 Z m -4.65528,9.56864 -2.06833,6.20745 c 2.06877,2.06838 4.32243,2.58571 6.72361,2.58571 2.40143,0 4.65465,-0.51677 6.72361,-2.58571 l -2.06833,-6.20745 c -1.55172,1.16379 -2.99805,1.74604 -4.65528,1.74604 -1.65723,0 -3.10356,-0.58225 -4.65528,-1.74604 z m -5.30233,9.31056 c -0.68769,0 -1.33852,0.6015 -1.55093,1.29285 l -2.26343,7.75839 C 297.92616,257.96713 298.03477,259 299.45718,259 h 12.54332 12.54332 c 1.4224,0 1.52979,-1.03287 1.22741,-2.06956 l -2.26219,-7.75839 c -0.21242,-0.69135 -0.86448,-1.29285 -1.55217,-1.29285 h -2.19798 c 0,0 0.34514,1.03478 0.51739,1.55217 0.24983,0.75075 0.36997,1.12822 -0.004,1.55834 -2.06527,2.06236 -5.35691,2.83844 -8.27207,2.83762 -2.91704,-6.3e-4 -6.19254,-0.8065 -8.27578,-2.84503 -0.39011,-0.38173 -0.25872,-0.77501 0,-1.55093 0.17246,-0.51722 0.51739,-1.55217 0.51739,-1.55217 z"
         sodipodi:nodetypes="ssccccssccsccscsccscsccsccccsscs" />
      <path
         id="path3882"
         style="display:inline;fill:#ffffff;fill-opacity:1;stroke-width:0.421486;enable-background:new"
         d="m 432.00033,58 c -0.43103,0 -0.71391,0.191899 -0.94834,0.431364 -0.32413,0.331101 -0.60342,1.29327 -0.60342,1.29327 l -0.34492,1.033958 c 1.37933,0.68964 2.36372,0.754111 3.79337,0 l -0.34493,-1.033958 c 0,0 -0.27928,-0.962169 -0.60341,-1.29327 C 432.71425,58.191899 432.43137,58 432.00033,58 Z m -3.10352,6.37909 -1.37888,4.1383 c 1.37918,1.378926 2.88162,1.723812 4.4824,1.723812 1.60096,0 3.1031,-0.34451 4.48241,-1.723812 l -1.37889,-4.1383 c -1.03448,0.775857 -1.9987,1.164026 -3.10352,1.164026 -1.10482,0 -2.06904,-0.388169 -3.10352,-1.164026 z m -3.53488,6.207039 c -0.45846,0 -0.89235,0.401003 -1.03396,0.861906 l -1.50895,5.172257 C 422.61744,77.311423 422.68985,78 423.63812,78 h 8.36221 8.36222 c 0.94827,0 1.01986,-0.688577 0.81827,-1.379708 l -1.50813,-5.172257 c -0.14161,-0.460903 -0.57631,-0.861906 -1.03478,-0.861906 h -1.46532 c 0,0 0.2301,0.689858 0.34493,1.034781 0.16655,0.500502 0.24665,0.752152 -0.003,1.038897 -1.37685,1.374906 -3.57127,1.892295 -5.51472,1.891747 -1.94469,-4.22e-4 -4.12836,-0.537671 -5.51718,-1.896687 -0.26008,-0.254492 -0.17248,-0.516675 0,-1.033957 0.11497,-0.344809 0.34493,-1.034781 0.34493,-1.034781 z"
         sodipodi:nodetypes="ssccccssccsccscsccscsccsccccsscs" />
      <path
         id="path3952"
         style="display:inline;opacity:0.2;fill:#000000;fill-opacity:1;enable-background:new"
         d="m 428.00079,106 c -0.30173,0 -0.49997,0.1351 -0.66407,0.30273 -0.22688,0.23177 -0.42187,0.9043 -0.42187,0.9043 l -0.24219,0.72461 c 0.96553,0.48275 1.65549,0.52788 2.65625,0 l -0.24219,-0.72461 c 0,0 -0.19498,-0.67253 -0.42187,-0.9043 C 428.50075,106.1351 428.30251,106 428.00079,106 Z m -2.17188,4.46484 -0.96484,2.89649 c 0.96542,0.96525 2.01618,1.20703 3.13672,1.20703 1.12067,0 2.17316,-0.24152 3.13867,-1.20703 l -0.9668,-2.89649 c -0.72413,0.5431 -1.3985,0.81446 -2.17187,0.81446 -0.77337,0 -1.44774,-0.27136 -2.17188,-0.81446 z m -2.47461,4.34571 c -0.32093,0 -0.62549,0.28088 -0.72461,0.60351 l -1.05664,3.61914 c -0.14111,0.4838 -0.0895,0.9668 0.57422,0.9668 h 5.85352 5.85351 c 0.66379,0 0.71338,-0.483 0.57227,-0.9668 l -1.05469,-3.61914 c -0.0991,-0.32263 -0.40368,-0.60351 -0.72461,-0.60351 h -1.02539 c 0,0 0.15986,0.48316 0.24024,0.72461 0.11659,0.35035 0.1727,0.52584 -0.002,0.72656 -0.9638,0.96243 -2.49896,1.3246 -3.85937,1.32422 -1.36128,-3e-4 -2.88915,-0.37681 -3.86133,-1.32813 -0.18206,-0.17814 -0.12074,-0.36056 0,-0.72265 0.0805,-0.24137 0.24023,-0.72461 0.24023,-0.72461 z"
         sodipodi:nodetypes="ssccccssccsccscsccscsccscscssscs" />
      <path
         id="path3888"
         style="display:inline;fill:#ffffff;fill-opacity:1;enable-background:new"
         d="m 428.00078,105 c -0.30173,0 -0.49996,0.13511 -0.66406,0.30274 -0.22689,0.23177 -0.42187,0.90429 -0.42187,0.90429 l -0.24219,0.72461 c 0.96553,0.48275 1.65549,0.52788 2.65625,0 l -0.24219,-0.72461 c 0,0 -0.19498,-0.67252 -0.42187,-0.90429 C 428.50075,105.13511 428.3025,105 428.00078,105 Z m -2.17187,4.46484 -0.96484,2.89649 c 0.96542,0.96525 2.01617,1.20703 3.13671,1.20703 1.12067,0 2.17317,-0.24152 3.13868,-1.20703 l -0.9668,-2.89649 c -0.72413,0.5431 -1.39851,0.81446 -2.17188,0.81446 -0.77337,0 -1.44773,-0.27136 -2.17187,-0.81446 z m -2.47461,4.34571 c -0.32093,0 -0.62549,0.28088 -0.72461,0.60351 l -1.05664,3.61915 c -0.14111,0.4838 -0.0895,0.96679 0.57422,0.96679 h 5.85351 5.85352 c 0.66379,0 0.71338,-0.48299 0.57227,-0.96679 l -1.05469,-3.61915 c -0.0991,-0.32263 -0.40368,-0.60351 -0.72461,-0.60351 h -1.02539 c 0,0 0.15985,0.48316 0.24023,0.72461 0.11659,0.35035 0.17266,0.52584 -0.002,0.72656 -0.9638,0.96243 -2.49897,1.3246 -3.85938,1.32422 -1.36128,-3e-4 -2.88914,-0.37681 -3.86132,-1.32813 -0.18206,-0.17814 -0.12074,-0.36056 0,-0.72265 0.0805,-0.24137 0.24023,-0.72461 0.24023,-0.72461 z"
         sodipodi:nodetypes="ssccccssccsccscsccscsccscscssscs" />
      <path
         id="path3894"
         style="display:inline;fill:#ffffff;fill-opacity:1;stroke-width:0.210743;enable-background:new"
         d="m 424.00017,143 c -0.21552,0 -0.35696,0.096 -0.47417,0.21568 -0.16207,0.16555 -0.30171,0.64664 -0.30171,0.64664 l -0.17246,0.51698 c 0.68967,0.34482 1.18186,0.37705 1.89668,0 l -0.17246,-0.51698 c 0,0 -0.13964,-0.48109 -0.30171,-0.64664 C 424.35713,143.09595 424.21569,143 424.00017,143 Z m -1.55176,3.18955 -0.68944,2.06914 c 0.68959,0.68947 1.44081,0.86191 2.2412,0.86191 0.80048,0 1.55155,-0.17225 2.2412,-0.86191 l -0.68944,-2.06914 c -0.51724,0.38792 -0.99935,0.58201 -1.55176,0.58201 -0.55241,0 -1.03452,-0.19409 -1.55176,-0.58201 z m -1.76744,3.10352 c -0.22923,0 -0.44618,0.2005 -0.51698,0.43095 l -0.75448,2.58613 C 419.30872,152.65571 419.34493,153 419.81906,153 h 4.18111 4.18111 c 0.47413,0 0.50993,-0.34429 0.40914,-0.68985 l -0.75407,-2.58613 c -0.0708,-0.23045 -0.28816,-0.43095 -0.51739,-0.43095 h -0.73266 c 0,0 0.11505,0.34492 0.17246,0.51739 0.0833,0.25025 0.12333,0.37607 -10e-4,0.51944 -0.68842,0.68746 -1.78564,0.94615 -2.75736,0.94588 -0.97235,-2.1e-4 -2.06418,-0.26884 -2.75859,-0.94835 -0.13004,-0.12724 -0.0862,-0.25833 0,-0.51697 0.0575,-0.17241 0.17246,-0.51739 0.17246,-0.51739 z"
         sodipodi:nodetypes="ssccccssccsccscsccscsccsccccsscs" />
    </g>
    <g
       inkscape:groupmode="layer"
       id="layer5"
       inkscape:label="Highlights"
       style="display:inline">
      <path
         style="opacity:0.13;color:#bebebe;fill:#ffffff;fill-opacity:1;fill-rule:nonzero;stroke:none;stroke-width:0;marker:none;visibility:visible;display:inline;overflow:visible;enable-background:accumulate"
         d="M 84,47 C 56.836703,47 35,68.836703 35,96 l 0,1 C 35,69.836703 56.836703,48 84,48 l 120,0 c 27.1633,0 49,21.836703 49,49 l 0,-1 C 253,68.836703 231.1633,47 204,47 L 84,47 z"
         id="rect3894"
         inkscape:connector-curvature="0" />
      <path
         style="opacity:0.13;color:#bebebe;fill:#ffffff;fill-opacity:1;fill-rule:nonzero;stroke:none;stroke-width:0;marker:none;visibility:visible;display:inline;overflow:visible;enable-background:accumulate"
         d="m 419,141 c -1.1253,0 -2,0.8747 -2,2 l 0,1 c 0,-1.1253 0.8747,-2 2,-2 l 10,0 c 1.1253,0 2,0.8747 2,2 l 0,-1 c 0,-1.1253 -0.8747,-2 -2,-2 l -10,0 z"
         id="rect3896"
         inkscape:connector-curvature="0" />
      <path
         style="opacity:0.13;color:#bebebe;fill:#ffffff;fill-opacity:1;fill-rule:nonzero;stroke:none;stroke-width:0;marker:none;visibility:visible;display:inline;overflow:visible;enable-background:accumulate"
         d="m 422,102 c -2.2333,0 -4,1.7667 -4,4 l 0,1 c 0,-2.2333 1.7667,-4 4,-4 l 12,0 c 2.2333,0 4,1.7667 4,4 l 0,-1 c 0,-2.2333 -1.7667,-4 -4,-4 l -12,0 z"
         id="rect3898"
         inkscape:connector-curvature="0" />
      <path
         style="opacity:0.13;color:#bebebe;fill:#ffffff;fill-opacity:1;fill-rule:nonzero;stroke:none;stroke-width:0;marker:none;visibility:visible;display:inline;overflow:visible;enable-background:accumulate"
         d="m 424,54 c -3.3413,0 -6,2.658703 -6,6 l 0,1 c 0,-3.341297 2.6587,-6 6,-6 l 16,0 c 3.3413,0 6,2.658703 6,6 l 0,-1 c 0,-3.341297 -2.6587,-6 -6,-6 l -16,0 z"
         id="rect3900"
         inkscape:connector-curvature="0" />
      <path
         style="opacity:0.13;color:#bebebe;fill:#ffffff;fill-opacity:1;fill-rule:nonzero;stroke:none;stroke-width:0;marker:none;visibility:visible;display:inline;overflow:visible;enable-background:accumulate"
         d="m 300,224 c -4.4493,0 -8,3.5507 -8,8 l 0,1 c 0,-4.4493 3.5507,-8 8,-8 l 24,0 c 4.4493,0 8,3.5507 8,8 l 0,-1 c 0,-4.4493 -3.5507,-8 -8,-8 l -24,0 z"
         id="rect3902"
         inkscape:connector-curvature="0" />
      <path
         style="opacity:0.13;color:#bebebe;fill:#ffffff;fill-opacity:1;fill-rule:nonzero;stroke:none;stroke-width:0;marker:none;visibility:visible;display:inline;overflow:visible;enable-background:accumulate"
         d="m 310,33 c -9.4353,0 -17,7.564703 -17,17 l 0,1 c 0,-9.435297 7.5647,-17 17,-17 l 52,0 c 9.4353,0 17,7.564703 17,17 l 0,-1 c 0,-9.435297 -7.5647,-17 -17,-17 l -52,0 z"
         id="rect3904"
         inkscape:connector-curvature="0" />
      <path
         style="opacity:0.13;color:#bebebe;fill:#ffffff;fill-opacity:1;fill-rule:nonzero;stroke:none;stroke-width:0;marker:none;visibility:visible;display:inline;overflow:visible;enable-background:accumulate"
         d="m 302.5,143 c -6.3883,0 -11.5,5.1117 -11.5,11.5 l 0,1 c 0,-6.3883 5.1117,-11.5 11.5,-11.5 l 35,0 c 6.3883,0 11.5,5.1117 11.5,11.5 l 0,-1 c 0,-6.3883 -5.1117,-11.5 -11.5,-11.5 l -35,0 z"
         id="rect3906"
         inkscape:connector-curvature="0" />
      <path
         id="path4085"
         d="m 204,266 c 27.1633,0 49,-21.8367 49,-49 l 0,-1 c 0,27.1633 -21.8367,49 -49,49 L 84,265 C 56.8367,265 35,243.1633 35,216 l 0,1 c 0,27.1633 21.8367,49 49,49 l 120,0 z"
         style="opacity:0.13;color:#bebebe;fill:#000000;fill-opacity:1;fill-rule:nonzero;stroke:none;stroke-width:0;marker:none;visibility:visible;display:inline;overflow:visible;enable-background:accumulate"
         inkscape:connector-curvature="0" />
      <path
         id="path4087"
         d="m 429,156 c 1.1253,0 2,-0.8747 2,-2 l 0,-1 c 0,1.1253 -0.8747,2 -2,2 l -10,0 c -1.1253,0 -2,-0.8747 -2,-2 l 0,1 c 0,1.1253 0.8747,2 2,2 l 10,0 z"
         style="opacity:0.15;color:#bebebe;fill:#000000;fill-opacity:1;fill-rule:nonzero;stroke:none;stroke-width:0;marker:none;visibility:visible;display:inline;overflow:visible;enable-background:accumulate"
         inkscape:connector-curvature="0" />
      <path
         id="path4089"
         d="m 434,123 c 2.2333,0 4,-1.7667 4,-4 l 0,-1 c 0,2.2333 -1.7667,4 -4,4 l -12,0 c -2.2333,0 -4,-1.7667 -4,-4 l 0,1 c 0,2.2333 1.7667,4 4,4 l 12,0 z"
         style="opacity:0.15;color:#bebebe;fill:#000000;fill-opacity:1;fill-rule:nonzero;stroke:none;stroke-width:0;marker:none;visibility:visible;display:inline;overflow:visible;enable-background:accumulate"
         inkscape:connector-curvature="0" />
      <path
         id="path4091"
         d="m 440,83 c 3.3413,0 6,-2.6587 6,-6 l 0,-1 c 0,3.3413 -2.6587,6 -6,6 l -16,0 c -3.3413,0 -6,-2.6587 -6,-6 l 0,1 c 0,3.3413 2.6587,6 6,6 l 16,0 z"
         style="opacity:0.13;color:#bebebe;fill:#000000;fill-opacity:1;fill-rule:nonzero;stroke:none;stroke-width:0;marker:none;visibility:visible;display:inline;overflow:visible;enable-background:accumulate"
         inkscape:connector-curvature="0" />
      <path
         id="path4093"
         d="m 324,265 c 4.4493,0 8,-3.5507 8,-8 l 0,-1 c 0,4.4493 -3.5507,8 -8,8 l -24,0 c -4.4493,0 -8,-3.5507 -8,-8 l 0,1 c 0,4.4493 3.5507,8 8,8 l 24,0 z"
         style="opacity:0.13;color:#bebebe;fill:#000000;fill-opacity:1;fill-rule:nonzero;stroke:none;stroke-width:0;marker:none;visibility:visible;display:inline;overflow:visible;enable-background:accumulate"
         inkscape:connector-curvature="0" />
      <path
         id="path4095"
         d="m 362,120 c 9.4353,0 17,-7.5647 17,-17 l 0,-1 c 0,9.4353 -7.5647,17 -17,17 l -52,0 c -9.4353,0 -17,-7.5647 -17,-17 l 0,1 c 0,9.4353 7.5647,17 17,17 l 52,0 z"
         style="opacity:0.13;color:#bebebe;fill:#000000;fill-opacity:1;fill-rule:nonzero;stroke:none;stroke-width:0;marker:none;visibility:visible;display:inline;overflow:visible;enable-background:accumulate"
         inkscape:connector-curvature="0" />
      <path
         id="path4097"
         d="m 337.5,202 c 6.3883,0 11.5,-5.1117 11.5,-11.5 l 0,-1 c 0,6.3883 -5.1117,11.5 -11.5,11.5 l -35,0 c -6.3883,0 -11.5,-5.1117 -11.5,-11.5 l 0,1 c 0,6.3883 5.1117,11.5 11.5,11.5 l 35,0 z"
         style="opacity:0.13;color:#bebebe;fill:#000000;fill-opacity:1;fill-rule:nonzero;stroke:none;stroke-width:0;marker:none;visibility:visible;display:inline;overflow:visible;enable-background:accumulate"
         inkscape:connector-curvature="0" />
      <path
         inkscape:connector-curvature="0"
         id="path4280"
         d="M 84,265 C 56.836703,265 35,243.1633 35,216 l 0,-1 c 0,27.1633 21.836703,49 49,49 l 120,0 c 27.1633,0 49,-21.8367 49,-49 l 0,1 c 0,27.1633 -21.8367,49 -49,49 l -120,0 z"
         style="opacity:0.1;color:#bebebe;fill:#ffffff;fill-opacity:1;fill-rule:nonzero;stroke:none;stroke-width:0;marker:none;visibility:visible;display:inline;overflow:visible;enable-background:accumulate" />
      <path
         style="opacity:0.1;color:#bebebe;fill:#ffffff;fill-opacity:1;fill-rule:nonzero;stroke:none;stroke-width:0;marker:none;visibility:visible;display:inline;overflow:visible;enable-background:accumulate"
         d="m 300,264 c -4.4493,0 -8,-3.5507 -8,-8 l 0,-1 c 0,4.4493 3.5507,8 8,8 l 24,0 c 4.4493,0 8,-3.5507 8,-8 l 0,1 c 0,4.4493 -3.5507,8 -8,8 l -24,0 z"
         id="path4294"
         inkscape:connector-curvature="0" />
      <path
         style="opacity:0.1;color:#bebebe;fill:#ffffff;fill-opacity:1;fill-rule:nonzero;stroke:none;stroke-width:0;marker:none;visibility:visible;display:inline;overflow:visible;enable-background:accumulate"
         d="m 302.5,201 c -6.3883,0 -11.5,-5.1117 -11.5,-11.5 l 0,-1 c 0,6.3883 5.1117,11.5 11.5,11.5 l 35,0 c 6.3883,0 11.5,-5.1117 11.5,-11.5 l 0,1 c 0,6.3883 -5.1117,11.5 -11.5,11.5 l -35,0 z"
         id="path4296"
         inkscape:connector-curvature="0" />
      <path
         style="opacity:0.1;color:#bebebe;fill:#ffffff;fill-opacity:1;fill-rule:nonzero;stroke:none;stroke-width:0;marker:none;visibility:visible;display:inline;overflow:visible;enable-background:accumulate"
         d="m 310,119 c -9.4353,0 -17,-7.5647 -17,-17 l 0,-1 c 0,9.4353 7.5647,17 17,17 l 52,0 c 9.4353,0 17,-7.5647 17,-17 l 0,1 c 0,9.4353 -7.5647,17 -17,17 l -52,0 z"
         id="path4298"
         inkscape:connector-curvature="0" />
      <path
         style="opacity:0.1;color:#bebebe;fill:#ffffff;fill-opacity:1;fill-rule:nonzero;stroke:none;stroke-width:0;marker:none;visibility:visible;display:inline;overflow:visible;enable-background:accumulate"
         d="m 424,82 c -3.3413,0 -6,-2.658703 -6,-6 l 0,-1 c 0,3.341297 2.6587,6 6,6 l 16,0 c 3.3413,0 6,-2.658703 6,-6 l 0,1 c 0,3.341297 -2.6587,6 -6,6 l -16,0 z"
         id="path4300"
         inkscape:connector-curvature="0" />
      <path
         style="opacity:0.1;color:#bebebe;fill:#ffffff;fill-opacity:1;fill-rule:nonzero;stroke:none;stroke-width:0;marker:none;visibility:visible;display:inline;overflow:visible;enable-background:accumulate"
         d="m 422,122 c -2.2333,0 -4,-1.7667 -4,-4 l 0,-1 c 0,2.2333 1.7667,4 4,4 l 12,0 c 2.2333,0 4,-1.7667 4,-4 l 0,1 c 0,2.2333 -1.7667,4 -4,4 l -12,0 z"
         id="path4302"
         inkscape:connector-curvature="0" />
      <path
         style="opacity:0.1;color:#bebebe;fill:#ffffff;fill-opacity:1;fill-rule:nonzero;stroke:none;stroke-width:0;marker:none;visibility:visible;display:inline;overflow:visible;enable-background:accumulate"
         d="m 419,154.5 c -1.1253,0 -2,-0.8747 -2,-2 l 0,-1 c 0,1.1253 0.8747,2 2,2 l 10,0 c 1.1253,0 2,-0.8747 2,-2 l 0,1 c 0,1.1253 -0.8747,2 -2,2 l -10,0 z"
         id="path4304"
         inkscape:connector-curvature="0" />
    </g>
    <g
       inkscape:groupmode="layer"
       id="layer3"
       inkscape:label="Border"
       style="display:inline"
       sodipodi:insensitive="true">
      <path
         style="opacity:0.41000001;color:#bebebe;fill:#000000;fill-opacity:1;fill-rule:nonzero;stroke:none;stroke-width:0;marker:none;visibility:visible;display:inline;overflow:visible;enable-background:accumulate"
         d="m 422,101 c -2.77,0 -5,2.23 -5,5 l 0,12 c 0,2.77 2.23,5 5,5 l 12,0 c 2.77,0 5,-2.23 5,-5 l 0,-12 c 0,-2.77 -2.23,-5 -5,-5 l -12,0 z m 0,1 12,0 c 2.2333,0 4,1.7667 4,4 l 0,12 c 0,2.2333 -1.7667,4 -4,4 l -12,0 c -2.2333,0 -4,-1.7667 -4,-4 l 0,-12 c 0,-2.2333 1.7667,-4 4,-4 z"
         id="rect4099"
         inkscape:connector-curvature="0" />
      <path
         style="opacity:0.41000001;color:#bebebe;fill:#000000;fill-opacity:1;fill-rule:nonzero;stroke:none;stroke-width:0;marker:none;visibility:visible;display:inline;overflow:visible;enable-background:accumulate"
         d="m 424,53 c -3.878,0 -7,3.122 -7,7 l 0,16 c 0,3.878 3.122,7 7,7 l 16,0 c 3.878,0 7,-3.122 7,-7 l 0,-16 c 0,-3.878 -3.122,-7 -7,-7 l -16,0 z m 0,1 16,0 c 3.3413,0 6,2.658703 6,6 l 0,16 c 0,3.341297 -2.6587,6 -6,6 l -16,0 c -3.3413,0 -6,-2.658703 -6,-6 l 0,-16 c 0,-3.341297 2.6587,-6 6,-6 z"
         id="rect4151"
         inkscape:connector-curvature="0" />
      <path
         style="opacity:0.41000001;color:#bebebe;fill:#000000;fill-opacity:1;fill-rule:nonzero;stroke:none;stroke-width:0;marker:none;visibility:visible;display:inline;overflow:visible;enable-background:accumulate"
         d="m 419,140 c -1.662,0 -3,1.338 -3,3 l 0,10 c 0,1.662 1.338,3 3,3 l 10,0 c 1.662,0 3,-1.338 3,-3 l 0,-10 c 0,-1.662 -1.338,-3 -3,-3 l -10,0 z m 0,1 10,0 c 1.1253,0 2,0.8747 2,2 l 0,10 c 0,1.1253 -0.8747,2 -2,2 l -10,0 c -1.1253,0 -2,-0.8747 -2,-2 l 0,-10 c 0,-1.1253 0.8747,-2 2,-2 z"
         id="rect4095"
         inkscape:connector-curvature="0" />
      <path
         style="opacity:0.41000001;color:#bebebe;fill:#000000;fill-opacity:1;fill-rule:nonzero;stroke:none;stroke-width:0;marker:none;visibility:visible;display:inline;overflow:visible;enable-background:accumulate"
         d="m 300,223 c -4.986,0 -9,4.014 -9,9 l 0,24 c 0,4.986 4.014,9 9,9 l 24,0 c 4.986,0 9,-4.014 9,-9 l 0,-24 c 0,-4.986 -4.014,-9 -9,-9 l -24,0 z m 0,1 24,0 c 4.4493,0 8,3.5507 8,8 l 0,24 c 0,4.4493 -3.5507,8 -8,8 l -24,0 c -4.4493,0 -8,-3.5507 -8,-8 l 0,-24 c 0,-4.4493 3.5507,-8 8,-8 z"
         id="rect4783"
         inkscape:connector-curvature="0" />
      <path
         style="opacity:0.41000001;color:#bebebe;fill:#000000;fill-opacity:1;fill-rule:nonzero;stroke:none;stroke-width:0;marker:none;visibility:visible;display:inline;overflow:visible;enable-background:accumulate"
         d="m 302.5,142 c -6.925,0 -12.5,5.575 -12.5,12.5 l 0,35 c 0,6.925 5.575,12.5 12.5,12.5 l 35,0 c 6.925,0 12.5,-5.575 12.5,-12.5 l 0,-35 c 0,-6.925 -5.575,-12.5 -12.5,-12.5 l -35,0 z m 0,1 35,0 c 6.3883,0 11.5,5.1117 11.5,11.5 l 0,35 c 0,6.3883 -5.1117,11.5 -11.5,11.5 l -35,0 c -6.3883,0 -11.5,-5.1117 -11.5,-11.5 l 0,-35 c 0,-6.3883 5.1117,-11.5 11.5,-11.5 z"
         id="rect4515"
         inkscape:connector-curvature="0" />
      <path
         style="opacity:0.41000001;color:#bebebe;fill:#000000;fill-opacity:1;fill-rule:nonzero;stroke:none;stroke-width:0;marker:none;visibility:visible;display:inline;overflow:visible;enable-background:accumulate"
         d="m 310,32 c -9.972,0 -18,8.028 -18,18 l 0,52 c 0,9.972 8.028,18 18,18 l 52,0 c 9.972,0 18,-8.028 18,-18 l 0,-52 c 0,-9.972 -8.028,-18 -18,-18 l -52,0 z m 0,1 52,0 c 9.4353,0 17,7.564703 17,17 l 0,52 c 0,9.4353 -7.5647,17 -17,17 l -52,0 c -9.4353,0 -17,-7.5647 -17,-17 l 0,-52 c 0,-9.435297 7.5647,-17 17,-17 z"
         id="rect4511"
         inkscape:connector-curvature="0" />
      <path
         style="opacity:0.41000001;color:#bebebe;fill:#000000;fill-opacity:1;fill-rule:nonzero;stroke:none;stroke-width:0;marker:none;visibility:visible;display:inline;overflow:visible;enable-background:accumulate"
         d="M 84,46 C 56.3,46 34,68.3 34,96 l 0,120 c 0,27.7 22.3,50 50,50 l 120,0 c 27.7,0 50,-22.3 50,-50 L 254,96 C 254,68.3 231.7,46 204,46 L 84,46 z m 0,1 120,0 c 27.1633,0 49,21.836703 49,49 l 0,120 c 0,27.1633 -21.8367,49 -49,49 L 84,265 C 56.836703,265 35,243.1633 35,216 L 35,96 C 35,68.836703 56.836703,47 84,47 z"
         id="rect4040"
         inkscape:connector-curvature="0" />
    </g>
  </g>
</svg>
