<?xml version="1.0" encoding="UTF-8" standalone="no"?>
<!-- Created with Inkscape (http://www.inkscape.org/) -->

<svg
   inkscape:export-ydpi="90.000000"
   inkscape:export-xdpi="90.000000"
   width="480"
   height="300"
   id="svg11300"
   sodipodi:version="0.32"
   inkscape:version="1.1.2 (0a00cf5339, 2022-02-04)"
   sodipodi:docname="vscodium-insiders.svg"
   inkscape:output_extension="org.inkscape.output.svg.inkscape"
   version="1.0"
   style="display:inline;enable-background:new"
   inkscape:export-filename="/home/sam/moka-next-template.png"
   xmlns:inkscape="http://www.inkscape.org/namespaces/inkscape"
   xmlns:sodipodi="http://sodipodi.sourceforge.net/DTD/sodipodi-0.dtd"
   xmlns:xlink="http://www.w3.org/1999/xlink"
   xmlns="http://www.w3.org/2000/svg"
   xmlns:svg="http://www.w3.org/2000/svg"
   xmlns:rdf="http://www.w3.org/1999/02/22-rdf-syntax-ns#"
   xmlns:cc="http://creativecommons.org/ns#"
   xmlns:dc="http://purl.org/dc/elements/1.1/">
  <sodipodi:namedview
     stroke="#ef2929"
     fill="#f57900"
     id="base"
     pagecolor="#b2b2b2"
     bordercolor="#666666"
     borderopacity="0.25490196"
     inkscape:pageopacity="0"
     inkscape:pageshadow="2"
     inkscape:zoom="2.46"
     inkscape:cx="279.26829"
     inkscape:cy="145.93496"
     inkscape:current-layer="layer2"
     showgrid="false"
     inkscape:grid-bbox="true"
     inkscape:document-units="px"
     inkscape:showpageshadow="false"
     inkscape:window-width="1920"
     inkscape:window-height="1008"
     inkscape:window-x="0"
     inkscape:window-y="0"
     width="400px"
     height="300px"
     inkscape:snap-nodes="true"
     inkscape:snap-bbox="true"
     gridtolerance="10000"
     inkscape:object-nodes="true"
     inkscape:snap-grids="true"
     showguides="true"
     inkscape:guide-bbox="true"
     inkscape:window-maximized="1"
     inkscape:bbox-nodes="true"
     inkscape:bbox-paths="true"
     inkscape:snap-bbox-edge-midpoints="true"
     inkscape:snap-bbox-midpoints="true"
     inkscape:pagecheckerboard="0">
    <inkscape:grid
       spacingy="1"
       spacingx="1"
       id="grid5883"
       type="xygrid"
       enabled="true"
       visible="true"
       empspacing="4"
       snapvisiblegridlinesonly="true"
       dotted="false"
       color="#000000"
       opacity="0.1254902"
       empcolor="#203ef3"
       empopacity="0.36470588"
       originx="0"
       originy="0" />
    <inkscape:grid
       type="xygrid"
       id="grid11592"
       empspacing="8"
       visible="true"
       enabled="false"
       spacingx="0.5"
       spacingy="0.5"
       color="#ff0000"
       opacity="0.1254902"
       empcolor="#ff0000"
       empopacity="0.25098039"
       snapvisiblegridlinesonly="true"
       dotted="true"
       originx="0"
       originy="0" />
  </sodipodi:namedview>
  <defs
     id="defs3">
    <linearGradient
       inkscape:collect="always"
       xlink:href="#outerBackgroundGradient"
       id="linearGradient4260"
       x1="446.5"
       y1="53.5"
       x2="417.5"
       y2="82.5"
       gradientUnits="userSpaceOnUse"
       gradientTransform="rotate(-90,432,68)" />
    <linearGradient
       inkscape:collect="always"
       xlink:href="#outerBackgroundGradient"
       id="linearGradient4262"
       x1="332.5"
       y1="223.5"
       x2="291.5"
       y2="264.5"
       gradientUnits="userSpaceOnUse"
       gradientTransform="rotate(-90,312,244)" />
    <linearGradient
       inkscape:collect="always"
       xlink:href="#outerBackgroundGradient"
       id="linearGradient4264"
       x1="379.5"
       y1="32.5"
       x2="292.5"
       y2="119.5"
       gradientUnits="userSpaceOnUse"
       gradientTransform="rotate(-90,336,76)" />
    <linearGradient
       inkscape:collect="always"
       xlink:href="#outerBackgroundGradient"
       id="linearGradient4266"
       x1="349.5"
       y1="142.5"
       x2="290.5"
       y2="201.5"
       gradientUnits="userSpaceOnUse"
       gradientTransform="rotate(-90,320,172)" />
    <linearGradient
       inkscape:collect="always"
       xlink:href="#outerBackgroundGradient"
       id="linearGradient3870"
       gradientUnits="userSpaceOnUse"
       gradientTransform="rotate(-90,428,112)"
       x1="438.5"
       y1="101.5"
       x2="417.5"
       y2="122.5" />
    <linearGradient
       id="outerBackgroundGradient"
       gradientUnits="userSpaceOnUse"
       x1="199.997"
       y1="214.302"
       x2="296.665"
       y2="307.573"
       gradientTransform="translate(-213.22745,-253.8304)">
      <stop
         offset="0"
         stop-color="#FFA348"
         id="stop908" />
      <stop
         offset="1"
         stop-color="#C64600"
         id="stop910" />
    </linearGradient>
    <linearGradient
       inkscape:collect="always"
       xlink:href="#outerBackgroundGradient"
       id="linearGradient1346"
       gradientUnits="userSpaceOnUse"
       gradientTransform="rotate(-90,144,156)"
       x1="253.5"
       y1="46.5"
       x2="34.5"
       y2="265.5" />
    <linearGradient
       inkscape:collect="always"
       xlink:href="#outerBackgroundGradient"
       id="linearGradient7202"
       gradientUnits="userSpaceOnUse"
       gradientTransform="rotate(-90,424,148)"
       x1="431.5"
       y1="140.5"
       x2="416.5"
       y2="155.5" />
  </defs>
  <metadata
     id="metadata4">
    <rdf:RDF>
      <cc:Work
         rdf:about="">
        <dc:format>image/svg+xml</dc:format>
        <dc:type
           rdf:resource="http://purl.org/dc/dcmitype/StillImage" />
        <dc:creator>
          <cc:Agent>
            <dc:title>Sam Hewitt</dc:title>
          </cc:Agent>
        </dc:creator>
        <dc:source />
        <cc:license
           rdf:resource="" />
        <dc:subject>
          <rdf:Bag />
        </dc:subject>
        <dc:date />
        <dc:rights>
          <cc:Agent>
            <dc:title />
          </cc:Agent>
        </dc:rights>
        <dc:publisher>
          <cc:Agent>
            <dc:title />
          </cc:Agent>
        </dc:publisher>
        <dc:identifier />
        <dc:relation />
        <dc:language />
        <dc:coverage />
        <dc:description />
        <dc:contributor>
          <cc:Agent>
            <dc:title />
          </cc:Agent>
        </dc:contributor>
      </cc:Work>
      <cc:Work
         rdf:about="">
        <dc:format>image/svg+xml</dc:format>
        <dc:type
           rdf:resource="http://purl.org/dc/dcmitype/StillImage" />
      </cc:Work>
    </rdf:RDF>
  </metadata>
  <g
     style="display:inline"
     inkscape:groupmode="layer"
     inkscape:label="Icon"
     id="layer1">
    <g
       style="display:none"
       inkscape:label="Baseplate"
       id="layer7"
       inkscape:groupmode="layer">
      <text
         y="19.745117"
         xml:space="preserve"
         x="15.006836"
         style="font-style:normal;font-variant:normal;font-weight:normal;font-stretch:normal;line-height:0%;font-family:'DejaVu Sans';-inkscape-font-specification:'DejaVu Sans';display:inline;fill:#000000;fill-opacity:1;stroke:none;enable-background:new"
         inkscape:label="context"
         id="context"><tspan
           style="font-style:normal;font-variant:normal;font-weight:normal;font-stretch:normal;font-size:18px;line-height:1.25;font-family:'DejaVu Sans';-inkscape-font-specification:'DejaVu Sans'"
           y="19.745117"
           x="15.006836"
           sodipodi:role="line"
           id="tspan3933">apps</tspan></text>
      <text
         y="19.745117"
         xml:space="preserve"
         x="122.48828"
         style="font-style:normal;font-variant:normal;font-weight:bold;font-stretch:normal;line-height:0%;font-family:'DejaVu Sans';-inkscape-font-specification:'DejaVu Sans Bold';text-align:start;writing-mode:lr-tb;text-anchor:start;display:inline;fill:#000000;fill-opacity:1;stroke:none;enable-background:new"
         inkscape:label="icon-name"
         id="icon-name"><tspan
           style="font-style:normal;font-variant:normal;font-weight:bold;font-stretch:normal;font-size:18px;line-height:1.25;font-family:'DejaVu Sans';-inkscape-font-specification:'DejaVu Sans Bold'"
           y="19.745117"
           x="122.48828"
           sodipodi:role="line"
           id="tspan3937">vscodium-insiders</tspan></text>
      <rect
         style="display:inline;overflow:visible;visibility:visible;fill:#eeeeec;fill-opacity:1;fill-rule:nonzero;stroke:none;stroke-width:2;marker:none;enable-background:accumulate"
         id="rect16x16"
         width="16"
         height="16"
         x="416"
         y="140"
         inkscape:label="16x16" />
      <rect
         style="display:inline;overflow:visible;visibility:visible;fill:#d4d4d4;fill-opacity:1;fill-rule:nonzero;stroke:none;stroke-width:2;marker:none;enable-background:accumulate"
         id="rect24x24"
         width="24"
         height="24"
         x="416"
         y="100"
         inkscape:label="24x24" />
      <rect
         style="display:inline;overflow:visible;visibility:visible;fill:#eeeeec;fill-opacity:1;fill-rule:nonzero;stroke:none;stroke-width:2;marker:none;enable-background:accumulate"
         id="rect32x32"
         width="32"
         height="32"
         x="416"
         y="52"
         inkscape:label="32x32" />
      <rect
         inkscape:label="22x22"
         y="101"
         x="417"
         height="22"
         width="22"
         id="rect22x22"
         style="display:inline;overflow:visible;visibility:visible;fill:#eeeeec;fill-opacity:1;fill-rule:nonzero;stroke:none;stroke-width:2;marker:none;enable-background:accumulate" />
      <rect
         inkscape:label="48x48"
         y="220"
         x="288"
         height="48"
         width="48"
         id="rect48x48"
         style="display:inline;overflow:visible;visibility:visible;fill:#eeeeec;fill-opacity:1;fill-rule:nonzero;stroke:none;stroke-width:2;marker:none;enable-background:accumulate" />
      <rect
         style="display:inline;overflow:visible;visibility:visible;fill:#eeeeec;fill-opacity:1;fill-rule:nonzero;stroke:none;stroke-width:2;marker:none;enable-background:accumulate"
         id="rect256x256"
         width="256"
         height="256"
         x="16"
         y="28"
         inkscape:label="256x256" />
      <rect
         style="display:inline;overflow:visible;visibility:visible;fill:#eeeeec;fill-opacity:1;fill-rule:nonzero;stroke:none;stroke-width:2;marker:none;enable-background:accumulate"
         id="rect64x64"
         width="64"
         height="64"
         x="288"
         y="140"
         inkscape:label="64x64" />
      <rect
         style="display:inline;overflow:visible;visibility:visible;fill:#eeeeec;fill-opacity:1;fill-rule:nonzero;stroke:none;stroke-width:2;marker:none;enable-background:accumulate"
         id="rect96x96"
         width="96"
         height="96"
         x="288"
         y="28"
         inkscape:label="96x96" />
    </g>
    <g
       inkscape:groupmode="layer"
       id="layer4"
       inkscape:label="Shadow"
       style="display:inline"
       sodipodi:insensitive="true">
      <rect
         ry="50"
         y="47"
         x="34"
         height="220"
         width="220"
         id="rect4114"
         style="color:#bebebe;display:inline;overflow:visible;visibility:visible;opacity:0.1;fill:#000000;fill-opacity:1;fill-rule:nonzero;stroke:none;stroke-width:0;marker:none;enable-background:accumulate" />
      <rect
         style="color:#bebebe;display:inline;overflow:visible;visibility:visible;opacity:0.1;fill:#000000;fill-opacity:1;fill-rule:nonzero;stroke:none;stroke-width:0;marker:none;enable-background:accumulate"
         id="rect4120"
         width="30"
         height="30"
         x="417"
         y="54"
         ry="7" />
      <rect
         transform="scale(1,-1)"
         ry="9"
         y="-266"
         x="291"
         height="42"
         width="42"
         id="rect4122"
         style="color:#bebebe;display:inline;overflow:visible;visibility:visible;opacity:0.1;fill:#000000;fill-opacity:1;fill-rule:nonzero;stroke:none;stroke-width:0;marker:none;enable-background:accumulate" />
      <rect
         style="color:#bebebe;display:inline;overflow:visible;visibility:visible;opacity:0.1;fill:#000000;fill-opacity:1;fill-rule:nonzero;stroke:none;stroke-width:0;marker:none;enable-background:accumulate"
         id="rect4124"
         width="88"
         height="88"
         x="292"
         y="33"
         ry="18" />
      <rect
         ry="12.5"
         y="143"
         x="290"
         height="60"
         width="60"
         id="rect4126"
         style="color:#bebebe;display:inline;overflow:visible;visibility:visible;opacity:0.1;fill:#000000;fill-opacity:1;fill-rule:nonzero;stroke:none;stroke-width:0;marker:none;enable-background:accumulate" />
      <path
         id="path4268"
         d="m 422,101 c -2.77,0 -5,2.23 -5,5 v 12 c 0,2.77 2.23,5 5,5 h 12 c 2.77,0 5,-2.23 5,-5 v -12 c 0,-2.77 -2.23,-5 -5,-5 z"
         style="color:#bebebe;display:inline;overflow:visible;visibility:visible;opacity:0.1;fill:#000000;fill-opacity:1;fill-rule:nonzero;stroke:none;stroke-width:0;marker:none;enable-background:accumulate"
         inkscape:connector-curvature="0"
         sodipodi:nodetypes="sssssssss" />
      <path
         id="path4270"
         d="m 419,140 c -1.662,0 -3,1.338 -3,3 v 10 c 0,1.662 1.338,3 3,3 h 10 c 1.662,0 3,-1.338 3,-3 v -10 c 0,-1.662 -1.338,-3 -3,-3 z"
         style="color:#bebebe;display:inline;overflow:visible;visibility:visible;opacity:0.1;fill:#000000;fill-opacity:1;fill-rule:nonzero;stroke:none;stroke-width:0;marker:none;enable-background:accumulate"
         inkscape:connector-curvature="0"
         sodipodi:nodetypes="sssssssss" />
    </g>
    <g
       inkscape:groupmode="layer"
       id="layer2"
       inkscape:label="Background"
       style="display:inline">
      <path
         style="color:#bebebe;display:inline;overflow:visible;visibility:visible;fill:url(#linearGradient1346);fill-opacity:1;fill-rule:nonzero;stroke:none;stroke-width:2;marker:none;enable-background:accumulate"
         d="M 84,46.5 C 56.568735,46.5 34.5,68.568732 34.5,96 v 120 c 0,27.43127 22.068735,49.5 49.5,49.5 h 120 c 27.43127,0 49.5,-22.06873 49.5,-49.5 V 96 C 253.5,68.568732 231.43127,46.5 204,46.5 Z"
         id="path4200" />
      <path
         style="color:#bebebe;display:inline;overflow:visible;visibility:visible;fill:url(#linearGradient7202);fill-opacity:1;fill-rule:nonzero;stroke:none;stroke-width:2;marker:none;enable-background:accumulate"
         d="m 419,140.5 c -1.3844,0 -2.5,1.1156 -2.5,2.5 v 10 c 0,1.3844 1.1156,2.5 2.5,2.5 h 10 c 1.3844,0 2.5,-1.1156 2.5,-2.5 v -10 c 0,-1.3844 -1.1156,-2.5 -2.5,-2.5 z"
         id="path4202" />
      <path
         style="color:#bebebe;display:inline;overflow:visible;visibility:visible;fill:url(#linearGradient3870);fill-opacity:1;fill-rule:nonzero;stroke:none;stroke-width:2;marker:none;enable-background:accumulate"
         d="m 422,101.5 c -2.49699,0 -4.5,2.00301 -4.5,4.5 v 12 c 0,2.49699 2.00301,4.5 4.5,4.5 h 12 c 2.49699,0 4.5,-2.00301 4.5,-4.5 v -12 c 0,-2.49699 -2.00301,-4.5 -4.5,-4.5 z"
         id="path4204" />
      <path
         style="color:#bebebe;display:inline;overflow:visible;visibility:visible;fill:url(#linearGradient4260);fill-opacity:1;fill-rule:nonzero;stroke:none;stroke-width:2;marker:none;enable-background:accumulate"
         d="m 424,53.5 c -3.60654,0 -6.5,2.893464 -6.5,6.5 v 16 c 0,3.606536 2.89346,6.5 6.5,6.5 h 16 c 3.60654,0 6.5,-2.893464 6.5,-6.5 V 60 c 0,-3.606536 -2.89346,-6.5 -6.5,-6.5 z"
         id="path4206" />
      <path
         style="color:#bebebe;display:inline;overflow:visible;visibility:visible;fill:url(#linearGradient4262);fill-opacity:1;fill-rule:nonzero;stroke:none;stroke-width:2;marker:none;enable-background:accumulate"
         d="m 300,223.5 c -4.71531,0 -8.5,3.78469 -8.5,8.5 v 24 c 0,4.71531 3.78469,8.5 8.5,8.5 h 24 c 4.71531,0 8.5,-3.78469 8.5,-8.5 v -24 c 0,-4.71531 -3.78469,-8.5 -8.5,-8.5 z"
         id="path4208" />
      <path
         style="color:#bebebe;display:inline;overflow:visible;visibility:visible;fill:url(#linearGradient4264);fill-opacity:1;fill-rule:nonzero;stroke:none;stroke-width:2;marker:none;enable-background:accumulate"
         d="m 310,32.5 c -9.70255,0 -17.5,7.797452 -17.5,17.5 v 52 c 0,9.70255 7.79745,17.5 17.5,17.5 h 52 c 9.70255,0 17.5,-7.79745 17.5,-17.5 V 50 c 0,-9.702548 -7.79745,-17.5 -17.5,-17.5 z"
         id="path4210" />
      <path
         style="color:#bebebe;display:inline;overflow:visible;visibility:visible;fill:url(#linearGradient4266);fill-opacity:1;fill-rule:nonzero;stroke:none;stroke-width:2;marker:none;enable-background:accumulate"
         d="m 302.5,142.5 c -6.65502,0 -12,5.34498 -12,12 v 35 c 0,6.65502 5.34498,12 12,12 h 35 c 6.65502,0 12,-5.34498 12,-12 v -35 c 0,-6.65502 -5.34498,-12 -12,-12 z"
         id="path4212" />
      <path
         d="m 141.36168,84.475452 c -4.33487,2.78107 -5.58491,8.54217 -2.79169,12.86185 15.35432,23.778018 18.97836,41.712918 17.40633,57.430248 -6.35499,30.09807 -20.16917,36.20395 -32.2412,36.20395 -11.78649,0 -8.63026,-19.39757 0.22935,-25.07513 5.28873,-3.30204 12.06292,-5.44821 17.26203,-5.44821 5.15203,0 9.32894,-4.16325 9.32894,-9.30009 0,-5.13836 -4.17691,-9.3016 -9.32894,-9.3016 -6.07247,0 -12.0295,1.27586 -17.59011,3.44785 1.13612,-5.36012 1.55533,-11.15311 0.0866,-17.31064 -2.22971,-9.3502 -8.64848,-18.2812 -19.794,-26.9388 -1.95176,-1.518878 -4.42754,-2.200848 -6.88356,-1.897078 -2.45603,0.30378 -4.69029,1.567478 -6.21069,3.514678 -3.1623,4.05541 -2.4302,9.90004 1.63735,13.05475 9.07985,7.05215 12.07812,12.27253 13.10336,16.56943 1.02524,4.2969 0.20049,8.90669 -1.85911,15.24041 -2.63221,8.53609 -5.6882,16.15629 -7.02785,23.46361 -0.65919,3.5967 -0.71539,7.51084 -0.8855,10.63821 -6.53877,-6.37321 -9.09808,-14.78778 -9.09808,-27.08309 -0.001,-5.13684 -4.17843,-9.3016 -9.32894,-9.30008 -5.147468,0.005 -9.318308,4.16628 -9.319828,9.30008 0,16.7927 4.91053,32.77129 18.071598,43.43076 11.91407,11.35058 42.21112,7.15543 42.21112,25.3774 0,5.14292 7.52755,7.64603 12.67806,7.64603 5.28265,0 11.93078,-3.53139 11.93078,-7.64603 0,-20.67495 21.78829,-33.24062 57.65656,-33.18594 5.15203,0.008 9.33198,-4.15261 9.33958,-9.28945 0.009,-5.13836 -4.15869,-9.31072 -9.31072,-9.31983 -2.45298,-0.003 -4.8437,0.0805 -7.20099,0.22024 4.00983,-9.43071 5.78844,-19.81375 5.42087,-31.02914 -0.17012,-5.13532 -4.48069,-9.16035 -9.62816,-8.99327 -5.15355,0.16708 -9.19073,4.47006 -9.02213,9.60842 0.48604,14.6845 -0.0638,27.79696 -11.00426,34.70937 -3.11066,1.96391 -6.72711,3.66809 -10.15673,3.66809 2.66259,-7.24201 4.67358,-14.88652 5.49681,-23.12642 0.52553,-5.25835 0.58173,-11.50549 -0.0182,-16.35831 -0.93107,-7.51844 -2.05504,-16.04541 0.79893,-22.46874 2.56387,-5.53175 8.30826,-7.84804 16.74258,-7.84804 5.14748,-0.005 9.31831,-4.1678 9.31983,-9.30008 0.003,-5.138358 -4.16932,-9.306158 -9.31983,-9.310718 -12.53377,0 -22.03434,6.59649 -27.42028,14.566028 -2.816,-6.014748 -6.24562,-12.213288 -10.38912,-18.629018 -1.33813,-2.07327 -3.44633,-3.52987 -5.86286,-4.05388 -1.19688,-0.25973 -2.43325,-0.28251 -3.63923,-0.0668 -1.20599,0.2172 -2.3573,0.6683 -3.38862,1.32901 z"
         fill="url(#Gradient_1)"
         id="path6008-9"
         style="display:inline;fill:#000000;fill-opacity:0.4;stroke-width:1.51888;enable-background:new" />
      <path
         d="m 335.00167,50.55829 c -1.64022,1.052294 -2.11321,3.232169 -1.05632,4.866645 5.80975,8.997088 7.181,15.783266 6.58618,21.730364 -2.40459,11.388459 -7.63158,13.69879 -12.19937,13.69879 -4.45975,0 -3.2655,-7.339619 0.0868,-9.487885 2.00114,-1.249421 4.56435,-2.061485 6.53158,-2.061485 1.94942,0 3.52987,-1.575284 3.52987,-3.518953 0,-1.944244 -1.58045,-3.519524 -3.52987,-3.519524 -2.29769,0 -4.5517,0.482758 -6.65572,1.304592 0.42988,-2.028154 0.5885,-4.220096 0.0328,-6.549972 -0.84367,-3.537914 -3.2724,-6.917211 -7.48962,-10.19306 -0.73851,-0.574711 -1.67528,-0.832754 -2.60459,-0.717814 -0.92931,0.114944 -1.77471,0.593101 -2.34999,1.329879 -1.19655,1.53448 -0.91954,3.745961 0.61953,4.939635 3.43562,2.668381 4.5701,4.64366 4.95803,6.269514 0.38793,1.625854 0.0759,3.370099 -0.70344,5.766642 -0.99598,3.229872 -2.15229,6.113191 -2.65919,8.878123 -0.24942,1.360913 -0.27069,2.841939 -0.33506,4.025268 -2.47412,-2.411485 -3.44251,-5.595376 -3.44251,-10.247655 -7.5e-4,-1.94367 -1.58103,-3.519525 -3.52987,-3.51895 -1.94769,0.0019 -3.52584,1.576431 -3.52642,3.51895 0,6.353994 1.85804,12.399947 6.8379,16.433265 4.50803,4.29481 15.97177,2.70746 15.97177,9.602251 0,1.94597 2.84827,2.89309 4.79711,2.89309 1.99884,0 4.51435,-1.3362 4.51435,-2.89309 0,-7.822951 8.24422,-12.577531 21.81599,-12.556841 1.94942,0.003 3.53102,-1.571255 3.5339,-3.514925 0.003,-1.944244 -1.57356,-3.522975 -3.52298,-3.526422 -0.92815,-0.0011 -1.83275,0.03046 -2.7247,0.08333 1.51724,-3.568376 2.19022,-7.497094 2.05114,-11.740755 -0.0644,-1.943094 -1.69539,-3.466079 -3.64308,-3.402859 -1.95,0.06322 -3.47758,1.691374 -3.41378,3.635618 0.1839,5.556297 -0.0241,10.517769 -4.16378,13.133275 -1.177,0.743101 -2.54539,1.387926 -3.84308,1.387926 1.00746,-2.74022 1.76838,-5.632737 2.07987,-8.750537 0.19885,-1.989646 0.22011,-4.353429 -0.007,-6.189631 -0.35229,-2.844815 -0.77758,-6.071236 0.3023,-8.501685 0.97012,-2.093095 3.14367,-2.969529 6.33503,-2.969529 1.9477,-0.0019 3.52585,-1.577005 3.52642,-3.518949 0.001,-1.944245 -1.57758,-3.521249 -3.52642,-3.522973 -4.74251,0 -8.33732,2.495966 -10.37524,5.511468 -1.06551,-2.275851 -2.36321,-4.621243 -3.93102,-7.048818 -0.50632,-0.784479 -1.30401,-1.335626 -2.21838,-1.533902 -0.45287,-0.09828 -0.92069,-0.106896 -1.377,-0.02529 -0.45632,0.08218 -0.89195,0.252873 -1.28218,0.502872 z"
         fill="url(#Gradient_1)"
         id="path6008-5-0"
         style="display:inline;fill:#000000;fill-opacity:0.4;stroke-width:0.574711;enable-background:new" />
      <path
         d="m 319.34041,154.86891 c -1.08372,0.69527 -1.39623,2.13554 -0.69792,3.21546 3.83858,5.94449 4.74458,10.42822 4.35158,14.35755 -1.58875,7.52451 -5.0423,9.05098 -8.0603,9.05098 -2.94662,0 -2.15756,-4.84939 0.0573,-6.26878 1.32218,-0.82551 3.01573,-1.36205 4.31551,-1.36205 1.28801,0 2.33223,-1.04081 2.33223,-2.32502 0,-1.28459 -1.04422,-2.3254 -2.33223,-2.3254 -1.51812,0 -3.00737,0.31897 -4.39753,0.86196 0.28403,-1.34003 0.38883,-2.78827 0.0217,-4.32766 -0.55742,-2.33754 -2.16212,-4.57029 -4.94849,-6.73469 -0.48795,-0.37972 -1.10688,-0.55021 -1.72089,-0.47427 -0.61401,0.0759 -1.17258,0.39187 -1.55267,0.87867 -0.79058,1.01385 -0.60756,2.47501 0.40933,3.26368 2.26996,1.76304 3.01953,3.06813 3.27584,4.14236 0.25631,1.07422 0.0501,2.22667 -0.46477,3.8101 -0.65806,2.13402 -1.42205,4.03907 -1.75697,5.8659 -0.16479,0.89917 -0.17885,1.87771 -0.22138,2.65955 -1.63468,-1.59331 -2.27451,-3.69695 -2.27451,-6.77077 -5e-4,-1.28421 -1.04461,-2.3254 -2.33223,-2.32502 -1.28687,10e-4 -2.32958,1.04157 -2.32996,2.32502 0,4.19817 1.22763,8.19282 4.5179,10.85768 2.97851,2.83765 10.55277,1.78886 10.55277,6.34435 0,1.28573 1.88189,1.9115 3.16951,1.9115 1.32066,0 2.9827,-0.88284 2.9827,-1.9115 0,-5.16873 5.44707,-8.31015 14.41412,-8.29648 1.28801,0.002 2.333,-1.03815 2.3349,-2.32236 0.002,-1.28459 -1.03967,-2.32768 -2.32768,-2.32996 -0.61324,-6.6e-4 -1.21092,0.0202 -1.80025,0.055 1.00246,-2.35767 1.44711,-4.95343 1.35522,-7.75728 -0.0426,-1.28383 -1.12017,-2.29008 -2.40704,-2.24831 -1.28839,0.0418 -2.29768,1.11751 -2.25553,2.4021 0.12151,3.67112 -0.0159,6.94924 -2.75106,8.67733 -0.77766,0.49098 -1.68178,0.91703 -2.53918,0.91703 0.66564,-1.8105 1.16839,-3.72163 1.3742,-5.7816 0.13138,-1.31459 0.14543,-2.87638 -0.005,-4.08958 -0.23276,-1.87961 -0.51375,-4.01135 0.19974,-5.61718 0.64097,-1.38294 2.07706,-1.96201 4.18564,-1.96201 1.28687,-0.001 2.32958,-1.04195 2.32995,-2.32502 6.6e-4,-1.28459 -1.04233,-2.32653 -2.32995,-2.32768 -3.13344,0 -5.50858,1.64913 -6.85507,3.64151 -0.70399,-1.50369 -1.5614,-3.05332 -2.59727,-4.65726 -0.33454,-0.51831 -0.86158,-0.88246 -1.46572,-1.01346 -0.29922,-0.0649 -0.60831,-0.0706 -0.9098,-0.0167 -0.3015,0.0543 -0.58933,0.16707 -0.84716,0.33225 z"
         fill="url(#Gradient_1)"
         id="path6008-5-06-1"
         style="display:inline;fill:#000000;fill-opacity:0.4;stroke-width:0.37972;enable-background:new" />
      <path
         d="m 311.50083,231.27917 c -0.82011,0.52615 -1.05661,1.61609 -0.52815,2.43332 2.90487,4.49854 3.59049,7.89163 3.29308,10.86517 -1.2023,5.69422 -3.81579,6.84939 -6.09968,6.84939 -2.22988,0 -1.63275,-3.66981 0.0434,-4.74394 1.00057,-0.62471 2.28217,-1.03074 3.26579,-1.03074 0.97471,0 1.76493,-0.78765 1.76493,-1.75947 0,-0.97213 -0.79022,-1.75977 -1.76493,-1.75977 -1.14885,0 -2.27585,0.24139 -3.32786,0.65229 0.21494,-1.01407 0.29425,-2.11003 0.0164,-3.27497 -0.42183,-1.76895 -1.6362,-3.45861 -3.7448,-5.09653 -0.36926,-0.28735 -0.83763,-0.41637 -1.3023,-0.3589 -0.46465,0.0574 -0.88735,0.29655 -1.17498,0.66494 -0.59828,0.76723 -0.45978,1.87298 0.30976,2.4698 1.7178,1.3342 2.28504,2.32184 2.47901,3.13477 0.19397,0.81292 0.0379,1.68504 -0.35171,2.88331 -0.498,1.61493 -1.07615,3.05659 -1.32961,4.43905 -0.1247,0.68046 -0.13534,1.42097 -0.16753,2.01264 -1.23705,-1.20575 -1.72125,-2.79769 -1.72125,-5.12383 -3.7e-4,-0.97183 -0.79051,-1.75976 -1.76492,-1.75947 -0.97385,7.4e-4 -1.76293,0.78822 -1.76322,1.75947 0,3.177 0.92902,6.19997 3.41895,8.21662 2.25401,2.14741 7.98588,1.35374 7.98588,4.80113 0,0.97299 1.42413,1.44654 2.39855,1.44654 0.99941,0 2.25717,-0.6681 2.25717,-1.44654 0,-3.91147 4.12211,-6.28876 10.90797,-6.27842 0.97472,0.001 1.76552,-0.78562 1.76696,-1.75746 10e-4,-0.97211 -0.78678,-1.76148 -1.76149,-1.7632 -0.46408,-5e-4 -0.91637,0.0153 -1.36235,0.0416 0.75862,-1.78419 1.09511,-3.74855 1.02557,-5.87037 -0.0322,-0.97155 -0.84769,-1.73303 -1.82154,-1.70143 -0.975,0.0316 -1.73878,0.84569 -1.70689,1.81781 0.092,2.77814 -0.012,5.25888 -2.08188,6.56662 -0.5885,0.37155 -1.27269,0.69397 -1.92154,0.69397 0.50373,-1.37011 0.88419,-2.81637 1.03993,-4.37526 0.0994,-0.99483 0.11006,-2.17672 -0.004,-3.09482 -0.17614,-1.4224 -0.38879,-3.03561 0.15115,-4.25083 0.48506,-1.04655 1.57183,-1.48477 3.16751,-1.48477 0.97385,-7.3e-4 1.76292,-0.7885 1.7632,-1.75947 5e-4,-0.97213 -0.78879,-1.76062 -1.7632,-1.76149 -2.37125,0 -4.16866,1.24799 -5.18762,2.75573 -0.53274,-1.13792 -1.1816,-2.31061 -1.9655,-3.5244 -0.25316,-0.39224 -0.652,-0.66781 -1.10919,-0.76695 -0.22643,-0.0491 -0.46034,-0.0534 -0.68849,-0.0126 -0.22817,0.0411 -0.44599,0.12643 -0.6411,0.25144 z"
         fill="url(#Gradient_1)"
         id="path6008-5-06-9-2"
         style="display:inline;fill:#000000;fill-opacity:0.4;stroke-width:0.287355;enable-background:new" />
      <path
         d="m 431.66091,59.689442 c -0.55651,0.357032 -0.71699,1.096633 -0.35839,1.651182 1.97116,3.052581 2.4364,5.355036 2.23459,7.372795 -0.81585,3.863935 -2.58928,4.6478 -4.13908,4.6478 -1.51313,0 -1.10792,-2.490228 0.0295,-3.219102 0.67896,-0.42391 1.54862,-0.69943 2.21607,-0.69943 0.66141,0 1.19763,-0.534478 1.19763,-1.193927 0,-0.659659 -0.53622,-1.194129 -1.19763,-1.194129 -0.77957,0 -1.54432,0.1638 -2.25819,0.442625 0.14586,-0.688119 0.19968,-1.431807 0.0114,-2.222302 -0.28624,-1.200358 -1.11028,-2.346913 -2.54112,-3.45836 -0.25056,-0.194986 -0.56839,-0.282536 -0.8837,-0.243539 -0.3153,0.03895 -0.60213,0.201231 -0.79731,0.451209 -0.40598,0.520622 -0.31199,1.270952 0.21019,1.675937 1.16565,0.905349 1.55057,1.575534 1.68219,2.127166 0.13163,0.551624 0.0257,1.143419 -0.23866,1.956532 -0.33793,1.095845 -0.73024,2.074114 -0.90223,3.012212 -0.0846,0.46174 -0.0918,0.96423 -0.11362,1.36572 -0.83943,-0.818187 -1.16799,-1.898433 -1.16799,-3.476885 -2.6e-4,-0.659456 -0.53642,-1.194123 -1.19762,-1.193926 -0.66084,5.02e-4 -1.19628,0.534864 -1.19648,1.193926 0,2.155821 0.6304,4.207123 2.32,5.575565 1.52951,1.45717 5.419,0.918609 5.419,3.257908 0,0.660244 0.96636,0.981582 1.62758,0.981582 0.67817,0 1.53165,-0.453354 1.53165,-0.981582 0,-2.654211 2.79715,-4.267372 7.40184,-4.260356 0.66141,6.79e-4 1.19804,-0.533099 1.19901,-1.192562 6.7e-4,-0.659646 -0.53388,-1.19529 -1.1953,-1.196458 -0.3149,-3.38e-4 -0.62182,0.01039 -0.92445,0.02823 0.51477,-1.2107 0.74312,-2.543658 0.69592,-3.983465 -0.0218,-0.659266 -0.57522,-1.175985 -1.23604,-1.154543 -0.6616,0.02144 -1.17989,0.573862 -1.15825,1.233514 0.0625,1.885167 -0.008,3.568527 -1.4127,4.455922 -0.39934,0.252124 -0.86362,0.470909 -1.30391,0.470909 0.34182,-0.929718 0.6,-1.91111 0.70567,-2.968927 0.0674,-0.675063 0.0747,-1.477061 -0.003,-2.100057 -0.11957,-0.965201 -0.26382,-2.059879 0.1026,-2.884491 0.32914,-0.710159 1.0666,-1.007523 2.14938,-1.007523 0.66082,-4.96e-4 1.19627,-0.535054 1.19646,-1.193927 3.4e-4,-0.65966 -0.53526,-1.194706 -1.19646,-1.195296 -1.60906,0 -2.82873,0.84685 -3.52017,1.869959 -0.3615,-0.77216 -0.8018,-1.567914 -1.33373,-2.391557 -0.17179,-0.266163 -0.44244,-0.453158 -0.75267,-0.52043 -0.15364,-0.03331 -0.31237,-0.03624 -0.46718,-0.0086 -0.15484,0.02789 -0.30265,0.08579 -0.43504,0.17062 z"
         fill="url(#Gradient_1)"
         id="path6008-5-06-9-5-3"
         style="display:inline;fill:#000000;fill-opacity:0.4;stroke-width:0.194991;enable-background:new" />
      <path
         d="m 427.76351,106.50709 c -0.38809,0.24898 -0.5,0.76475 -0.24993,1.15148 1.37463,2.12877 1.69907,3.73443 1.55834,5.14155 -0.56895,2.69458 -1.80569,3.24124 -2.88647,3.24124 -1.05521,0 -0.77263,-1.73661 0.0206,-2.24491 0.47348,-0.29562 1.07997,-0.48776 1.54541,-0.48776 0.46126,0 0.8352,-0.37273 0.8352,-0.83261 0,-0.46001 -0.37394,-0.83275 -0.8352,-0.83275 -0.54364,0 -1.07696,0.11425 -1.57478,0.30868 0.10176,-0.47987 0.13925,-0.99849 0.008,-1.54976 -0.19961,-0.83709 -0.77427,-1.63666 -1.77209,-2.41175 -0.17474,-0.13597 -0.39639,-0.19703 -0.61626,-0.16983 -0.21988,0.0271 -0.41991,0.14032 -0.55602,0.31465 -0.28312,0.36306 -0.21757,0.88633 0.14657,1.16875 0.81289,0.63136 1.08132,1.09872 1.17311,1.48342 0.0917,0.38467 0.0179,0.79738 -0.16644,1.36442 -0.23566,0.7642 -0.50924,1.44642 -0.62918,2.10062 -0.059,0.322 -0.0641,0.67241 -0.0793,0.95241 -0.58539,-0.57058 -0.81452,-1.32391 -0.81452,-2.42467 -1.8e-4,-0.45988 -0.37408,-0.83275 -0.83518,-0.83261 -0.46085,3.5e-4 -0.83425,0.373 -0.83439,0.83261 0,1.5034 0.43963,2.9339 1.61789,3.88822 1.06664,1.01618 3.77904,0.64061 3.77904,2.27196 0,0.46043 0.67392,0.68452 1.13503,0.68452 0.47292,0 1.06811,-0.31615 1.06811,-0.68452 0,-1.85096 1.95065,-2.97593 5.16182,-2.97103 0.46124,4.6e-4 0.83547,-0.37178 0.83615,-0.83167 4.7e-4,-0.46 -0.37232,-0.83354 -0.83356,-0.83436 -0.21961,-2.4e-4 -0.43365,0.007 -0.64469,0.0197 0.35898,-0.8443 0.51823,-1.77386 0.48531,-2.77794 -0.0152,-0.45976 -0.40114,-0.82009 -0.86197,-0.80514 -0.46138,0.015 -0.82282,0.40018 -0.80773,0.86021 0.0436,1.31465 -0.006,2.48858 -0.98518,3.10743 -0.27848,0.17581 -0.60225,0.32839 -0.9093,0.32839 0.23838,-0.64836 0.41842,-1.33275 0.49212,-2.07043 0.047,-0.47077 0.0521,-1.03006 -0.002,-1.46452 -0.0834,-0.6731 -0.18398,-1.4365 0.0716,-2.01155 0.22952,-0.49525 0.7438,-0.70262 1.4989,-0.70262 0.46084,-3.4e-4 0.83424,-0.37313 0.83437,-0.83261 2.4e-4,-0.46002 -0.37327,-0.83314 -0.83437,-0.83356 -1.12211,0 -1.97266,0.59058 -2.45485,1.30406 -0.2521,-0.53848 -0.55915,-1.09342 -0.9301,-1.6678 -0.1198,-0.18561 -0.30854,-0.31601 -0.52489,-0.36293 -0.10718,-0.0232 -0.21784,-0.0253 -0.3258,-0.006 -0.108,0.0194 -0.21105,0.0598 -0.30338,0.11899 z"
         fill="url(#Gradient_1)"
         id="path6008-5-06-9-5-7-6"
         style="display:inline;fill:#000000;fill-opacity:0.4;stroke-width:0.13598;enable-background:new" />
      <path
         d="m 423.8473,144.83457 c -0.24896,0.15972 -0.32076,0.4906 -0.16032,0.73868 0.88183,1.36564 1.08997,2.39568 0.99968,3.29838 -0.36499,1.72861 -1.15837,2.07929 -1.85171,2.07929 -0.67692,0 -0.49565,-1.11406 0.0133,-1.44013 0.30375,-0.18964 0.69282,-0.31291 0.99141,-0.31291 0.2959,0 0.53578,-0.23911 0.53578,-0.53413 0,-0.29511 -0.23988,-0.53422 -0.53578,-0.53422 -0.34876,0 -0.69089,0.0733 -1.01025,0.19802 0.0653,-0.30784 0.0893,-0.64055 0.006,-0.99419 -0.12805,-0.537 -0.49671,-1.04994 -1.13682,-1.54717 -0.11208,-0.0873 -0.25428,-0.12639 -0.39534,-0.10892 -0.14106,0.0173 -0.26937,0.09 -0.3567,0.20186 -0.18161,0.2329 -0.13957,0.56859 0.0941,0.74976 0.52148,0.40503 0.69368,0.70485 0.75256,0.95164 0.0588,0.24677 0.0115,0.51153 -0.10676,0.8753 -0.15118,0.49024 -0.32668,0.92789 -0.40363,1.34756 -0.0378,0.20658 -0.0411,0.43138 -0.0509,0.61099 -0.37555,-0.36603 -0.52253,-0.8493 -0.52253,-1.55546 -1.1e-4,-0.29502 -0.23999,-0.53422 -0.53579,-0.53413 -0.29563,2.3e-4 -0.53517,0.2393 -0.53526,0.53413 0,0.96445 0.28203,1.88214 1.0379,2.49435 0.68426,0.6519 2.42431,0.41096 2.42431,1.4575 0,0.29537 0.43232,0.43913 0.72812,0.43913 0.3034,0 0.68522,-0.20282 0.68522,-0.43913 0,-1.18742 1.25137,-1.9091 3.31137,-1.90596 0.2959,2.9e-4 0.53597,-0.2385 0.5364,-0.53352 3.1e-4,-0.2951 -0.23884,-0.53473 -0.53474,-0.53526 -0.14087,-1.5e-4 -0.27819,0.005 -0.41358,0.0126 0.2303,-0.54163 0.33245,-1.13795 0.31134,-1.78208 -0.0102,-0.29494 -0.25734,-0.5261 -0.55297,-0.51651 -0.29598,0.009 -0.52784,0.25672 -0.51816,0.55183 0.028,0.84337 -0.003,1.59646 -0.63201,1.99346 -0.17865,0.11277 -0.38636,0.21066 -0.58333,0.21066 0.15292,-0.41592 0.26842,-0.85497 0.3157,-1.3282 0.0301,-0.30201 0.0334,-0.6608 -0.001,-0.93951 -0.0535,-0.4318 -0.11803,-0.92153 0.0459,-1.29043 0.14724,-0.31771 0.47716,-0.45074 0.96156,-0.45074 0.29564,-2.2e-4 0.53519,-0.23938 0.53527,-0.53414 1.4e-4,-0.29511 -0.23947,-0.53447 -0.53527,-0.53473 -0.71984,0 -1.26549,0.37885 -1.57481,0.83656 -0.16173,-0.34544 -0.3587,-0.70144 -0.59667,-1.06991 -0.0768,-0.11907 -0.19794,-0.20273 -0.33673,-0.23283 -0.0688,-0.0148 -0.13975,-0.0162 -0.209,-0.003 -0.0692,0.0125 -0.1354,0.0384 -0.19463,0.0764 z"
         fill="url(#Gradient_1)"
         id="path6008-5-06-9-5-7-3-7"
         style="display:inline;fill:#000000;fill-opacity:0.4;stroke-width:0.0872333;enable-background:new" />
    </g>
    <g
       inkscape:groupmode="layer"
       id="layer6"
       inkscape:label="Symbols"
       style="display:inline">
      <path
         d="m 141.36168,83.475456 c -4.33487,2.78107 -5.58491,8.54217 -2.79169,12.86185 15.35432,23.778024 18.97836,41.712924 17.40633,57.430254 -6.35499,30.09807 -20.16917,36.20395 -32.2412,36.20395 -11.78649,0 -8.63026,-19.39757 0.22935,-25.07513 5.28873,-3.30204 12.06292,-5.44821 17.26203,-5.44821 5.15203,0 9.32894,-4.16325 9.32894,-9.30009 0,-5.13836 -4.17691,-9.3016 -9.32894,-9.3016 -6.07247,0 -12.0295,1.27586 -17.59011,3.44785 1.13612,-5.36012 1.55533,-11.15311 0.0866,-17.31064 -2.22971,-9.3502 -8.64848,-18.2812 -19.794,-26.9388 -1.95176,-1.518884 -4.427537,-2.200854 -6.883557,-1.897084 -2.45603,0.30378 -4.69029,1.56748 -6.21069,3.514684 -3.1623,4.05541 -2.4302,9.90004 1.63735,13.05475 9.079847,7.05215 12.078117,12.27253 13.103357,16.56943 1.02524,4.2969 0.20049,8.90669 -1.85911,15.24041 -2.63221,8.53609 -5.688197,16.15629 -7.027847,23.46361 -0.65919,3.5967 -0.71539,7.51084 -0.8855,10.63821 -6.53877,-6.37321 -9.09808,-14.78778 -9.09808,-27.08309 -0.001,-5.13684 -4.17843,-9.3016 -9.32894,-9.30008 -5.14747,0.005 -9.31831,4.16628 -9.31983,9.30008 0,16.7927 4.91053,32.77129 18.0716,43.43076 11.91407,11.35058 42.211117,7.15543 42.211117,25.3774 0,5.14292 7.52755,7.64603 12.67806,7.64603 5.28265,0 11.93078,-3.53139 11.93078,-7.64603 0,-20.67495 21.78829,-33.24062 57.65656,-33.18594 5.15203,0.008 9.33198,-4.15261 9.33958,-9.28945 0.009,-5.13836 -4.15869,-9.31072 -9.31072,-9.31983 -2.45298,-0.003 -4.8437,0.0805 -7.20099,0.22024 4.00983,-9.43071 5.78844,-19.81375 5.42087,-31.02914 -0.17012,-5.13532 -4.48069,-9.16035 -9.62816,-8.99327 -5.15355,0.16708 -9.19073,4.47006 -9.02213,9.60842 0.48604,14.6845 -0.0638,27.79696 -11.00426,34.70937 -3.11066,1.96391 -6.72711,3.66809 -10.15673,3.66809 2.66259,-7.24201 4.67358,-14.88652 5.49681,-23.12642 0.52553,-5.25835 0.58173,-11.50549 -0.0182,-16.35831 -0.93107,-7.51844 -2.05504,-16.04541 0.79893,-22.46874 2.56387,-5.53175 8.30826,-7.84804 16.74258,-7.84804 5.14748,-0.005 9.31831,-4.1678 9.31983,-9.300084 0.003,-5.13836 -4.16932,-9.30616 -9.31983,-9.31072 -12.53377,0 -22.03434,6.59649 -27.42028,14.566034 -2.816,-6.014754 -6.24562,-12.213294 -10.38912,-18.629024 -1.33813,-2.07327 -3.44633,-3.52987 -5.86286,-4.05388 -1.19688,-0.25973 -2.43325,-0.28251 -3.63923,-0.0668 -1.20599,0.2172 -2.3573,0.6683 -3.38862,1.32901 z"
         fill="url(#Gradient_1)"
         id="path6008"
         style="fill:#ffffff;fill-opacity:1;stroke-width:1.51888" />
      <path
         d="m 335.00167,49.55829 c -1.64022,1.052294 -2.11321,3.232169 -1.05632,4.866645 5.80975,8.997088 7.181,15.783266 6.58618,21.730364 -2.40459,11.388459 -7.63158,13.698792 -12.19937,13.698792 -4.45975,0 -3.2655,-7.339621 0.0868,-9.487887 2.00114,-1.249421 4.56435,-2.061485 6.53158,-2.061485 1.94942,0 3.52987,-1.575284 3.52987,-3.518953 0,-1.944244 -1.58045,-3.519524 -3.52987,-3.519524 -2.29769,0 -4.5517,0.482758 -6.65572,1.304592 0.42988,-2.028154 0.5885,-4.220096 0.0328,-6.549972 -0.84367,-3.537914 -3.2724,-6.917211 -7.48962,-10.19306 -0.73851,-0.574711 -1.67528,-0.832754 -2.60459,-0.717814 -0.92931,0.114944 -1.77471,0.593101 -2.34999,1.329879 -1.19655,1.53448 -0.91954,3.745961 0.61953,4.939635 3.43562,2.668381 4.5701,4.64366 4.95803,6.269514 0.38793,1.625854 0.0759,3.370099 -0.70344,5.766642 -0.99598,3.229872 -2.15229,6.113191 -2.65919,8.878123 -0.24942,1.360913 -0.27069,2.841939 -0.33506,4.025268 -2.47412,-2.411485 -3.44251,-5.595376 -3.44251,-10.247655 -7.5e-4,-1.94367 -1.58103,-3.519525 -3.52987,-3.51895 -1.94769,0.0019 -3.52584,1.576431 -3.52642,3.51895 0,6.353994 1.85804,12.399947 6.8379,16.43326 4.50803,4.294814 15.97177,2.70746 15.97177,9.602256 0,1.94597 2.84827,2.89309 4.79711,2.89309 1.99884,0 4.51435,-1.3362 4.51435,-2.89309 0,-7.82295 8.24422,-12.577528 21.81599,-12.556839 1.94942,0.003 3.53102,-1.571257 3.5339,-3.514927 0.003,-1.944244 -1.57356,-3.522975 -3.52298,-3.526422 -0.92815,-0.0011 -1.83275,0.03046 -2.7247,0.08333 1.51724,-3.568376 2.19022,-7.497094 2.05114,-11.740755 -0.0644,-1.943094 -1.69539,-3.466079 -3.64308,-3.402859 -1.95,0.06322 -3.47758,1.691374 -3.41378,3.635618 0.1839,5.556297 -0.0241,10.517769 -4.16378,13.133275 -1.177,0.743101 -2.54539,1.387926 -3.84308,1.387926 1.00746,-2.74022 1.76838,-5.632737 2.07987,-8.750537 0.19885,-1.989646 0.22011,-4.353429 -0.007,-6.189631 -0.35229,-2.844815 -0.77758,-6.071236 0.3023,-8.501685 0.97012,-2.093095 3.14367,-2.969529 6.33503,-2.969529 1.9477,-0.0019 3.52585,-1.577005 3.52642,-3.518949 0.001,-1.944245 -1.57758,-3.521249 -3.52642,-3.522973 -4.74251,0 -8.33732,2.495966 -10.37524,5.511468 -1.06551,-2.275851 -2.36321,-4.621243 -3.93102,-7.048818 -0.50632,-0.784479 -1.30401,-1.335626 -2.21838,-1.533902 -0.45287,-0.09828 -0.92069,-0.106896 -1.377,-0.02529 -0.45632,0.08218 -0.89195,0.252873 -1.28218,0.502872 z"
         fill="url(#Gradient_1)"
         id="path6008-5"
         style="display:inline;fill:#fffff2;fill-opacity:1;stroke-width:0.574711;enable-background:new" />
      <path
         d="m 319.34041,153.8689 c -1.08372,0.69527 -1.39623,2.13554 -0.69792,3.21546 3.83858,5.94449 4.74458,10.42822 4.35158,14.35755 -1.58875,7.52451 -5.0423,9.05098 -8.0603,9.05098 -2.94662,0 -2.15756,-4.84939 0.0573,-6.26878 1.32218,-0.82551 3.01573,-1.36205 4.31551,-1.36205 1.28801,0 2.33223,-1.04081 2.33223,-2.32502 0,-1.28459 -1.04422,-2.3254 -2.33223,-2.3254 -1.51812,0 -3.00737,0.31897 -4.39753,0.86196 0.28403,-1.34003 0.38883,-2.78827 0.0217,-4.32766 -0.55742,-2.33754 -2.16212,-4.57029 -4.94849,-6.73469 -0.48795,-0.37972 -1.10688,-0.55021 -1.72089,-0.47427 -0.61401,0.0759 -1.17258,0.39187 -1.55267,0.87867 -0.79058,1.01385 -0.60756,2.47501 0.40933,3.26368 2.26996,1.76304 3.01953,3.06813 3.27584,4.14236 0.25631,1.07422 0.0501,2.22667 -0.46477,3.8101 -0.65806,2.13402 -1.42205,4.03907 -1.75697,5.8659 -0.16479,0.89917 -0.17885,1.87771 -0.22138,2.65955 -1.63468,-1.59331 -2.27451,-3.69695 -2.27451,-6.77077 -5e-4,-1.28421 -1.04461,-2.3254 -2.33223,-2.32502 -1.28687,0.001 -2.32958,1.04157 -2.32996,2.32502 0,4.19817 1.22763,8.19282 4.5179,10.85768 2.97851,2.83765 10.55277,1.78886 10.55277,6.34435 0,1.28573 1.88189,1.9115 3.16951,1.9115 1.32066,0 2.9827,-0.88284 2.9827,-1.9115 0,-5.16873 5.44707,-8.31015 14.41412,-8.29648 1.28801,0.002 2.333,-1.03815 2.3349,-2.32236 0.002,-1.28459 -1.03967,-2.32768 -2.32768,-2.32996 -0.61324,-6.6e-4 -1.21092,0.0202 -1.80025,0.055 1.00246,-2.35767 1.44711,-4.95343 1.35522,-7.75728 -0.0426,-1.28383 -1.12017,-2.29008 -2.40704,-2.24831 -1.28839,0.0418 -2.29768,1.11751 -2.25553,2.4021 0.12151,3.67112 -0.0159,6.94924 -2.75106,8.67733 -0.77766,0.49098 -1.68178,0.91703 -2.53918,0.91703 0.66564,-1.8105 1.16839,-3.72163 1.3742,-5.7816 0.13138,-1.31459 0.14543,-2.87638 -0.005,-4.08958 -0.23276,-1.87961 -0.51375,-4.01135 0.19974,-5.61718 0.64097,-1.38294 2.07706,-1.96201 4.18564,-1.96201 1.28687,-0.001 2.32958,-1.04195 2.32995,-2.32502 6.6e-4,-1.28459 -1.04233,-2.32653 -2.32995,-2.32768 -3.13344,0 -5.50858,1.64913 -6.85507,3.64151 -0.70399,-1.50369 -1.5614,-3.05332 -2.59727,-4.65726 -0.33454,-0.51831 -0.86158,-0.88246 -1.46572,-1.01346 -0.29922,-0.0649 -0.60831,-0.0706 -0.9098,-0.0167 -0.3015,0.0543 -0.58933,0.16707 -0.84716,0.33225 z"
         fill="url(#Gradient_1)"
         id="path6008-5-06"
         style="display:inline;fill:#ffffff;fill-opacity:1;stroke-width:0.37972;enable-background:new" />
      <path
         d="m 311.50083,230.27918 c -0.82011,0.52615 -1.05661,1.61609 -0.52815,2.43332 2.90487,4.49854 3.59049,7.89163 3.29308,10.86517 -1.2023,5.69422 -3.81579,6.84939 -6.09968,6.84939 -2.22988,0 -1.63275,-3.66981 0.0434,-4.74394 1.00057,-0.62471 2.28217,-1.03074 3.26579,-1.03074 0.97471,0 1.76493,-0.78765 1.76493,-1.75947 0,-0.97213 -0.79022,-1.75977 -1.76493,-1.75977 -1.14885,0 -2.27585,0.24139 -3.32786,0.65229 0.21494,-1.01407 0.29425,-2.11003 0.0164,-3.27497 -0.42183,-1.76895 -1.6362,-3.45861 -3.7448,-5.09653 -0.36926,-0.28735 -0.83763,-0.41637 -1.3023,-0.3589 -0.46465,0.0574 -0.88735,0.29655 -1.17498,0.66494 -0.59828,0.76723 -0.45978,1.87298 0.30976,2.4698 1.7178,1.3342 2.28504,2.32184 2.47901,3.13477 0.19397,0.81292 0.0379,1.68504 -0.35171,2.88331 -0.498,1.61493 -1.07615,3.05659 -1.32961,4.43905 -0.1247,0.68046 -0.13534,1.42097 -0.16753,2.01264 -1.23705,-1.20575 -1.72125,-2.79769 -1.72125,-5.12383 -3.7e-4,-0.97183 -0.79051,-1.75976 -1.76492,-1.75947 -0.97385,7.4e-4 -1.76293,0.78822 -1.76322,1.75947 0,3.177 0.92902,6.19997 3.41895,8.21662 2.25401,2.14741 7.98588,1.35374 7.98588,4.80113 0,0.97299 1.42413,1.44654 2.39855,1.44654 0.99941,0 2.25717,-0.6681 2.25717,-1.44654 0,-3.91147 4.12211,-6.28876 10.90797,-6.27842 0.97472,0.001 1.76552,-0.78562 1.76696,-1.75746 10e-4,-0.97211 -0.78678,-1.76148 -1.76149,-1.7632 -0.46408,-5e-4 -0.91637,0.0153 -1.36235,0.0416 0.75862,-1.78419 1.09511,-3.74855 1.02557,-5.87037 -0.0322,-0.97155 -0.84769,-1.73303 -1.82154,-1.70143 -0.975,0.0316 -1.73878,0.84569 -1.70689,1.81781 0.092,2.77814 -0.012,5.25888 -2.08188,6.56662 -0.5885,0.37155 -1.27269,0.69397 -1.92154,0.69397 0.50373,-1.37011 0.88419,-2.81637 1.03993,-4.37526 0.0994,-0.99483 0.11006,-2.17672 -0.004,-3.09482 -0.17614,-1.4224 -0.38879,-3.03561 0.15115,-4.25083 0.48506,-1.04655 1.57183,-1.48477 3.16751,-1.48477 0.97385,-7.3e-4 1.76292,-0.7885 1.7632,-1.75947 5e-4,-0.97213 -0.78879,-1.76062 -1.7632,-1.76149 -2.37125,0 -4.16866,1.24799 -5.18762,2.75573 -0.53274,-1.13792 -1.1816,-2.31061 -1.9655,-3.5244 -0.25316,-0.39224 -0.652,-0.66781 -1.10919,-0.76695 -0.22643,-0.0491 -0.46034,-0.0534 -0.68849,-0.0126 -0.22817,0.0411 -0.44599,0.12643 -0.6411,0.25144 z"
         fill="url(#Gradient_1)"
         id="path6008-5-06-9"
         style="display:inline;fill:#ffffff;fill-opacity:0.999972;stroke-width:0.287355;enable-background:new" />
      <path
         d="m 431.66091,58.689441 c -0.55651,0.357032 -0.71699,1.096633 -0.35839,1.651182 1.97116,3.052581 2.4364,5.355036 2.23459,7.372795 -0.81585,3.863935 -2.58928,4.6478 -4.13908,4.6478 -1.51313,0 -1.10792,-2.490228 0.0295,-3.219102 0.67896,-0.42391 1.54862,-0.69943 2.21607,-0.69943 0.66141,0 1.19763,-0.534478 1.19763,-1.193927 0,-0.659659 -0.53622,-1.194129 -1.19763,-1.194129 -0.77957,0 -1.54432,0.1638 -2.25819,0.442625 0.14586,-0.688119 0.19968,-1.431807 0.0114,-2.222302 -0.28624,-1.200358 -1.11028,-2.346913 -2.54112,-3.45836 -0.25056,-0.194986 -0.56839,-0.282536 -0.8837,-0.243539 -0.3153,0.03895 -0.60213,0.201231 -0.79731,0.451209 -0.40598,0.520622 -0.31199,1.270952 0.21019,1.675937 1.16565,0.905349 1.55057,1.575534 1.68219,2.127166 0.13163,0.551624 0.0257,1.143419 -0.23866,1.956532 -0.33793,1.095845 -0.73024,2.074114 -0.90223,3.012212 -0.0846,0.46174 -0.0918,0.96423 -0.11362,1.36572 -0.83943,-0.818187 -1.16799,-1.898433 -1.16799,-3.476885 -2.6e-4,-0.659456 -0.53642,-1.194123 -1.19762,-1.193926 -0.66084,5.02e-4 -1.19628,0.534864 -1.19648,1.193926 0,2.155821 0.6304,4.207123 2.32,5.575565 1.52951,1.45717 5.419,0.918609 5.419,3.257908 0,0.660244 0.96636,0.981582 1.62758,0.981582 0.67817,0 1.53165,-0.453354 1.53165,-0.981582 0,-2.654211 2.79715,-4.267372 7.40184,-4.260356 0.66141,6.79e-4 1.19804,-0.533099 1.19901,-1.192562 6.7e-4,-0.659646 -0.53388,-1.19529 -1.1953,-1.196458 -0.3149,-3.38e-4 -0.62182,0.01039 -0.92445,0.02823 0.51477,-1.2107 0.74312,-2.543658 0.69592,-3.983465 -0.0218,-0.659266 -0.57522,-1.175985 -1.23604,-1.154543 -0.6616,0.02144 -1.17989,0.573862 -1.15825,1.233514 0.0625,1.885167 -0.008,3.568527 -1.4127,4.455922 -0.39934,0.252124 -0.86362,0.470909 -1.30391,0.470909 0.34182,-0.929718 0.6,-1.91111 0.70567,-2.968927 0.0674,-0.675063 0.0747,-1.477061 -0.003,-2.100057 -0.11957,-0.965201 -0.26382,-2.059879 0.1026,-2.884491 0.32914,-0.710159 1.0666,-1.007523 2.14938,-1.007523 0.66082,-4.96e-4 1.19627,-0.535054 1.19646,-1.193927 3.4e-4,-0.65966 -0.53526,-1.194706 -1.19646,-1.195296 -1.60906,0 -2.82873,0.84685 -3.52017,1.869959 -0.3615,-0.77216 -0.8018,-1.567914 -1.33373,-2.391557 -0.17179,-0.266163 -0.44244,-0.453158 -0.75267,-0.52043 -0.15364,-0.03331 -0.31237,-0.03624 -0.46718,-0.0086 -0.15484,0.02789 -0.30265,0.08579 -0.43504,0.17062 z"
         fill="url(#Gradient_1)"
         id="path6008-5-06-9-5"
         style="display:inline;fill:#ffffff;fill-opacity:0.921268;stroke-width:0.194991;enable-background:new" />
      <path
         d="m 427.76351,105.50711 c -0.38809,0.24898 -0.5,0.76475 -0.24993,1.15148 1.37463,2.12877 1.69907,3.73443 1.55834,5.14155 -0.56895,2.69458 -1.80569,3.24124 -2.88647,3.24124 -1.05521,0 -0.77263,-1.73661 0.0206,-2.24491 0.47348,-0.29562 1.07997,-0.48776 1.54541,-0.48776 0.46126,0 0.8352,-0.37273 0.8352,-0.83261 0,-0.46001 -0.37394,-0.83275 -0.8352,-0.83275 -0.54364,0 -1.07696,0.11425 -1.57478,0.30868 0.10176,-0.47987 0.13925,-0.99849 0.008,-1.54976 -0.19961,-0.83709 -0.77427,-1.63666 -1.77209,-2.41175 -0.17474,-0.13597 -0.39639,-0.19703 -0.61626,-0.16983 -0.21988,0.0271 -0.41991,0.14032 -0.55602,0.31465 -0.28312,0.36306 -0.21757,0.88633 0.14657,1.16875 0.81289,0.63136 1.08132,1.09872 1.17311,1.48342 0.0917,0.38467 0.0179,0.79738 -0.16644,1.36442 -0.23566,0.7642 -0.50924,1.44642 -0.62918,2.10062 -0.059,0.322 -0.0641,0.67241 -0.0793,0.95241 -0.58539,-0.57058 -0.81452,-1.32391 -0.81452,-2.42467 -1.8e-4,-0.45988 -0.37408,-0.83275 -0.83518,-0.83261 -0.46085,3.5e-4 -0.83425,0.373 -0.83439,0.83261 0,1.5034 0.43963,2.9339 1.61789,3.88822 1.06664,1.01618 3.77904,0.64061 3.77904,2.27196 0,0.46043 0.67392,0.68452 1.13503,0.68452 0.47292,0 1.06811,-0.31615 1.06811,-0.68452 0,-1.85096 1.95065,-2.97593 5.16182,-2.97103 0.46124,4.6e-4 0.83547,-0.37178 0.83615,-0.83167 4.7e-4,-0.46 -0.37232,-0.83354 -0.83356,-0.83436 -0.21961,-2.4e-4 -0.43365,0.007 -0.64469,0.0197 0.35898,-0.8443 0.51823,-1.77386 0.48531,-2.77794 -0.0152,-0.45976 -0.40114,-0.82009 -0.86197,-0.80514 -0.46138,0.015 -0.82282,0.40018 -0.80773,0.86021 0.0436,1.31465 -0.006,2.48858 -0.98518,3.10743 -0.27848,0.17581 -0.60225,0.32839 -0.9093,0.32839 0.23838,-0.64836 0.41842,-1.33275 0.49212,-2.07043 0.047,-0.47077 0.0521,-1.03006 -0.002,-1.46452 -0.0834,-0.6731 -0.18398,-1.4365 0.0716,-2.01155 0.22952,-0.49525 0.7438,-0.70262 1.4989,-0.70262 0.46084,-3.4e-4 0.83424,-0.37313 0.83437,-0.83261 2.4e-4,-0.46002 -0.37327,-0.83314 -0.83437,-0.83356 -1.12211,0 -1.97266,0.59058 -2.45485,1.30406 -0.2521,-0.53848 -0.55915,-1.09342 -0.9301,-1.6678 -0.1198,-0.18561 -0.30854,-0.31601 -0.52489,-0.36293 -0.10718,-0.0232 -0.21784,-0.0253 -0.3258,-0.006 -0.108,0.0194 -0.21105,0.0598 -0.30338,0.11899 z"
         fill="url(#Gradient_1)"
         id="path6008-5-06-9-5-7"
         style="display:inline;fill:#ffffff;fill-opacity:1;stroke-width:0.13598;enable-background:new" />
      <path
         d="m 423.8473,143.83462 c -0.24896,0.15972 -0.32076,0.4906 -0.16032,0.73868 0.88183,1.36564 1.08997,2.39568 0.99968,3.29838 -0.36499,1.72861 -1.15837,2.07929 -1.85171,2.07929 -0.67692,0 -0.49565,-1.11406 0.0133,-1.44013 0.30375,-0.18964 0.69282,-0.31291 0.99141,-0.31291 0.2959,0 0.53578,-0.23911 0.53578,-0.53413 0,-0.29511 -0.23988,-0.53422 -0.53578,-0.53422 -0.34876,0 -0.69089,0.0733 -1.01025,0.19802 0.0653,-0.30784 0.0893,-0.64055 0.006,-0.99419 -0.12805,-0.537 -0.49671,-1.04994 -1.13682,-1.54717 -0.11208,-0.0873 -0.25428,-0.12639 -0.39534,-0.10892 -0.14106,0.0173 -0.26937,0.09 -0.3567,0.20186 -0.18161,0.2329 -0.13957,0.56859 0.0941,0.74976 0.52148,0.40503 0.69368,0.70485 0.75256,0.95164 0.0588,0.24677 0.0115,0.51153 -0.10676,0.8753 -0.15118,0.49024 -0.32668,0.92789 -0.40363,1.34756 -0.0378,0.20658 -0.0411,0.43138 -0.0509,0.61099 -0.37555,-0.36603 -0.52253,-0.8493 -0.52253,-1.55546 -1.1e-4,-0.29502 -0.23999,-0.53422 -0.53579,-0.53413 -0.29563,2.3e-4 -0.53517,0.2393 -0.53526,0.53413 0,0.96445 0.28203,1.88214 1.0379,2.49435 0.68426,0.6519 2.42431,0.41096 2.42431,1.4575 0,0.29537 0.43232,0.43913 0.72812,0.43913 0.3034,0 0.68522,-0.20282 0.68522,-0.43913 0,-1.18742 1.25137,-1.9091 3.31137,-1.90596 0.2959,2.9e-4 0.53597,-0.2385 0.5364,-0.53352 3.1e-4,-0.2951 -0.23884,-0.53473 -0.53474,-0.53526 -0.14087,-1.5e-4 -0.27819,0.005 -0.41358,0.0126 0.2303,-0.54163 0.33245,-1.13795 0.31134,-1.78208 -0.0102,-0.29494 -0.25734,-0.5261 -0.55297,-0.51651 -0.29598,0.009 -0.52784,0.25672 -0.51816,0.55183 0.028,0.84337 -0.003,1.59646 -0.63201,1.99346 -0.17865,0.11277 -0.38636,0.21066 -0.58333,0.21066 0.15292,-0.41592 0.26842,-0.85497 0.3157,-1.3282 0.0301,-0.30201 0.0334,-0.6608 -0.001,-0.93951 -0.0535,-0.4318 -0.11803,-0.92153 0.0459,-1.29043 0.14724,-0.31771 0.47716,-0.45074 0.96156,-0.45074 0.29564,-2.2e-4 0.53519,-0.23938 0.53527,-0.53414 1.4e-4,-0.29511 -0.23947,-0.53447 -0.53527,-0.53473 -0.71984,0 -1.26549,0.37885 -1.57481,0.83656 -0.16173,-0.34544 -0.3587,-0.70144 -0.59667,-1.06991 -0.0768,-0.11907 -0.19794,-0.20273 -0.33673,-0.23283 -0.0688,-0.0148 -0.13975,-0.0162 -0.209,-0.003 -0.0692,0.0125 -0.1354,0.0384 -0.19463,0.0764 z"
         fill="url(#Gradient_1)"
         id="path6008-5-06-9-5-7-3"
         style="display:inline;fill:#ffffff;fill-opacity:0.983797;stroke-width:0.0872333;enable-background:new" />
    </g>
    <g
       inkscape:groupmode="layer"
       id="layer5"
       inkscape:label="Highlights"
       style="display:inline"
       sodipodi:insensitive="true">
      <path
         style="color:#bebebe;display:inline;overflow:visible;visibility:visible;opacity:0.13;fill:#ffffff;fill-opacity:1;fill-rule:nonzero;stroke:none;stroke-width:0;marker:none;enable-background:accumulate"
         d="M 84,47 C 56.836703,47 35,68.836703 35,96 v 1 C 35,69.836703 56.836703,48 84,48 h 120 c 27.1633,0 49,21.836703 49,49 V 96 C 253,68.836703 231.1633,47 204,47 Z"
         id="rect3894"
         inkscape:connector-curvature="0" />
      <path
         style="color:#bebebe;display:inline;overflow:visible;visibility:visible;opacity:0.13;fill:#ffffff;fill-opacity:1;fill-rule:nonzero;stroke:none;stroke-width:0;marker:none;enable-background:accumulate"
         d="m 419,141 c -1.1253,0 -2,0.8747 -2,2 v 1 c 0,-1.1253 0.8747,-2 2,-2 h 10 c 1.1253,0 2,0.8747 2,2 v -1 c 0,-1.1253 -0.8747,-2 -2,-2 z"
         id="rect3896"
         inkscape:connector-curvature="0" />
      <path
         style="color:#bebebe;display:inline;overflow:visible;visibility:visible;opacity:0.13;fill:#ffffff;fill-opacity:1;fill-rule:nonzero;stroke:none;stroke-width:0;marker:none;enable-background:accumulate"
         d="m 422,102 c -2.2333,0 -4,1.7667 -4,4 v 1 c 0,-2.2333 1.7667,-4 4,-4 h 12 c 2.2333,0 4,1.7667 4,4 v -1 c 0,-2.2333 -1.7667,-4 -4,-4 z"
         id="rect3898"
         inkscape:connector-curvature="0" />
      <path
         style="color:#bebebe;display:inline;overflow:visible;visibility:visible;opacity:0.13;fill:#ffffff;fill-opacity:1;fill-rule:nonzero;stroke:none;stroke-width:0;marker:none;enable-background:accumulate"
         d="m 424,54 c -3.3413,0 -6,2.658703 -6,6 v 1 c 0,-3.341297 2.6587,-6 6,-6 h 16 c 3.3413,0 6,2.658703 6,6 v -1 c 0,-3.341297 -2.6587,-6 -6,-6 z"
         id="rect3900"
         inkscape:connector-curvature="0" />
      <path
         style="color:#bebebe;display:inline;overflow:visible;visibility:visible;opacity:0.13;fill:#ffffff;fill-opacity:1;fill-rule:nonzero;stroke:none;stroke-width:0;marker:none;enable-background:accumulate"
         d="m 300,224 c -4.4493,0 -8,3.5507 -8,8 v 1 c 0,-4.4493 3.5507,-8 8,-8 h 24 c 4.4493,0 8,3.5507 8,8 v -1 c 0,-4.4493 -3.5507,-8 -8,-8 z"
         id="rect3902"
         inkscape:connector-curvature="0" />
      <path
         style="color:#bebebe;display:inline;overflow:visible;visibility:visible;opacity:0.13;fill:#ffffff;fill-opacity:1;fill-rule:nonzero;stroke:none;stroke-width:0;marker:none;enable-background:accumulate"
         d="m 310,33 c -9.4353,0 -17,7.564703 -17,17 v 1 c 0,-9.435297 7.5647,-17 17,-17 h 52 c 9.4353,0 17,7.564703 17,17 v -1 c 0,-9.435297 -7.5647,-17 -17,-17 z"
         id="rect3904"
         inkscape:connector-curvature="0" />
      <path
         style="color:#bebebe;display:inline;overflow:visible;visibility:visible;opacity:0.13;fill:#ffffff;fill-opacity:1;fill-rule:nonzero;stroke:none;stroke-width:0;marker:none;enable-background:accumulate"
         d="m 302.5,143 c -6.3883,0 -11.5,5.1117 -11.5,11.5 v 1 c 0,-6.3883 5.1117,-11.5 11.5,-11.5 h 35 c 6.3883,0 11.5,5.1117 11.5,11.5 v -1 c 0,-6.3883 -5.1117,-11.5 -11.5,-11.5 z"
         id="rect3906"
         inkscape:connector-curvature="0" />
      <path
         id="path4085"
         d="m 204,266 c 27.1633,0 49,-21.8367 49,-49 v -1 c 0,27.1633 -21.8367,49 -49,49 H 84 C 56.8367,265 35,243.1633 35,216 v 1 c 0,27.1633 21.8367,49 49,49 z"
         style="color:#bebebe;display:inline;overflow:visible;visibility:visible;opacity:0.5;fill:#000000;fill-opacity:1;fill-rule:nonzero;stroke:none;stroke-width:0;marker:none;enable-background:accumulate"
         inkscape:connector-curvature="0" />
      <path
         id="path4087"
         d="m 429,156 c 1.1253,0 2,-0.8747 2,-2 v -1 c 0,1.1253 -0.8747,2 -2,2 h -10 c -1.1253,0 -2,-0.8747 -2,-2 v 1 c 0,1.1253 0.8747,2 2,2 z"
         style="color:#bebebe;display:inline;overflow:visible;visibility:visible;opacity:0.3;fill:#000000;fill-opacity:1;fill-rule:nonzero;stroke:none;stroke-width:0;marker:none;enable-background:accumulate"
         inkscape:connector-curvature="0" />
      <path
         id="path4089"
         d="m 434,123 c 2.2333,0 4,-1.7667 4,-4 v -1 c 0,2.2333 -1.7667,4 -4,4 h -12 c -2.2333,0 -4,-1.7667 -4,-4 v 1 c 0,2.2333 1.7667,4 4,4 z"
         style="color:#bebebe;display:inline;overflow:visible;visibility:visible;opacity:0.3;fill:#000000;fill-opacity:1;fill-rule:nonzero;stroke:none;stroke-width:0;marker:none;enable-background:accumulate"
         inkscape:connector-curvature="0" />
      <path
         id="path4091"
         d="m 440,83 c 3.3413,0 6,-2.6587 6,-6 v -1 c 0,3.3413 -2.6587,6 -6,6 h -16 c -3.3413,0 -6,-2.6587 -6,-6 v 1 c 0,3.3413 2.6587,6 6,6 z"
         style="color:#bebebe;display:inline;overflow:visible;visibility:visible;opacity:0.5;fill:#000000;fill-opacity:1;fill-rule:nonzero;stroke:none;stroke-width:0;marker:none;enable-background:accumulate"
         inkscape:connector-curvature="0" />
      <path
         id="path4093"
         d="m 324,265 c 4.4493,0 8,-3.5507 8,-8 v -1 c 0,4.4493 -3.5507,8 -8,8 h -24 c -4.4493,0 -8,-3.5507 -8,-8 v 1 c 0,4.4493 3.5507,8 8,8 z"
         style="color:#bebebe;display:inline;overflow:visible;visibility:visible;opacity:0.5;fill:#000000;fill-opacity:1;fill-rule:nonzero;stroke:none;stroke-width:0;marker:none;enable-background:accumulate"
         inkscape:connector-curvature="0" />
      <path
         id="path4095"
         d="m 362,120 c 9.4353,0 17,-7.5647 17,-17 v -1 c 0,9.4353 -7.5647,17 -17,17 h -52 c -9.4353,0 -17,-7.5647 -17,-17 v 1 c 0,9.4353 7.5647,17 17,17 z"
         style="color:#bebebe;display:inline;overflow:visible;visibility:visible;opacity:0.5;fill:#000000;fill-opacity:1;fill-rule:nonzero;stroke:none;stroke-width:0;marker:none;enable-background:accumulate"
         inkscape:connector-curvature="0" />
      <path
         id="path4097"
         d="m 337.5,202 c 6.3883,0 11.5,-5.1117 11.5,-11.5 v -1 c 0,6.3883 -5.1117,11.5 -11.5,11.5 h -35 c -6.3883,0 -11.5,-5.1117 -11.5,-11.5 v 1 c 0,6.3883 5.1117,11.5 11.5,11.5 z"
         style="color:#bebebe;display:inline;overflow:visible;visibility:visible;opacity:0.5;fill:#000000;fill-opacity:1;fill-rule:nonzero;stroke:none;stroke-width:0;marker:none;enable-background:accumulate"
         inkscape:connector-curvature="0" />
      <path
         inkscape:connector-curvature="0"
         id="path4280"
         d="M 84,265 C 56.836703,265 35,243.1633 35,216 v -1 c 0,27.1633 21.836703,49 49,49 h 120 c 27.1633,0 49,-21.8367 49,-49 v 1 c 0,27.1633 -21.8367,49 -49,49 z"
         style="color:#bebebe;display:inline;overflow:visible;visibility:visible;opacity:0.1;fill:#ffffff;fill-opacity:1;fill-rule:nonzero;stroke:none;stroke-width:0;marker:none;enable-background:accumulate" />
      <path
         style="color:#bebebe;display:inline;overflow:visible;visibility:visible;opacity:0.1;fill:#ffffff;fill-opacity:1;fill-rule:nonzero;stroke:none;stroke-width:0;marker:none;enable-background:accumulate"
         d="m 300,264 c -4.4493,0 -8,-3.5507 -8,-8 v -1 c 0,4.4493 3.5507,8 8,8 h 24 c 4.4493,0 8,-3.5507 8,-8 v 1 c 0,4.4493 -3.5507,8 -8,8 z"
         id="path4294"
         inkscape:connector-curvature="0" />
      <path
         style="color:#bebebe;display:inline;overflow:visible;visibility:visible;opacity:0.1;fill:#ffffff;fill-opacity:1;fill-rule:nonzero;stroke:none;stroke-width:0;marker:none;enable-background:accumulate"
         d="m 302.5,201 c -6.3883,0 -11.5,-5.1117 -11.5,-11.5 v -1 c 0,6.3883 5.1117,11.5 11.5,11.5 h 35 c 6.3883,0 11.5,-5.1117 11.5,-11.5 v 1 c 0,6.3883 -5.1117,11.5 -11.5,11.5 z"
         id="path4296"
         inkscape:connector-curvature="0" />
      <path
         style="color:#bebebe;display:inline;overflow:visible;visibility:visible;opacity:0.1;fill:#ffffff;fill-opacity:1;fill-rule:nonzero;stroke:none;stroke-width:0;marker:none;enable-background:accumulate"
         d="m 310,119 c -9.4353,0 -17,-7.5647 -17,-17 v -1 c 0,9.4353 7.5647,17 17,17 h 52 c 9.4353,0 17,-7.5647 17,-17 v 1 c 0,9.4353 -7.5647,17 -17,17 z"
         id="path4298"
         inkscape:connector-curvature="0" />
      <path
         style="color:#bebebe;display:inline;overflow:visible;visibility:visible;opacity:0.1;fill:#ffffff;fill-opacity:1;fill-rule:nonzero;stroke:none;stroke-width:0;marker:none;enable-background:accumulate"
         d="m 424,82 c -3.3413,0 -6,-2.658703 -6,-6 v -1 c 0,3.341297 2.6587,6 6,6 h 16 c 3.3413,0 6,-2.658703 6,-6 v 1 c 0,3.341297 -2.6587,6 -6,6 z"
         id="path4300"
         inkscape:connector-curvature="0" />
      <path
         style="color:#bebebe;display:inline;overflow:visible;visibility:visible;opacity:0.1;fill:#ffffff;fill-opacity:1;fill-rule:nonzero;stroke:none;stroke-width:0;marker:none;enable-background:accumulate"
         d="m 422,122 c -2.2333,0 -4,-1.7667 -4,-4 v -1 c 0,2.2333 1.7667,4 4,4 h 12 c 2.2333,0 4,-1.7667 4,-4 v 1 c 0,2.2333 -1.7667,4 -4,4 z"
         id="path4302"
         inkscape:connector-curvature="0" />
      <path
         style="color:#bebebe;display:inline;overflow:visible;visibility:visible;opacity:0.1;fill:#ffffff;fill-opacity:1;fill-rule:nonzero;stroke:none;stroke-width:0;marker:none;enable-background:accumulate"
         d="m 419,154.5 c -1.1253,0 -2,-0.8747 -2,-2 v -1 c 0,1.1253 0.8747,2 2,2 h 10 c 1.1253,0 2,-0.8747 2,-2 v 1 c 0,1.1253 -0.8747,2 -2,2 z"
         id="path4304"
         inkscape:connector-curvature="0" />
    </g>
    <g
       inkscape:groupmode="layer"
       id="layer3"
       inkscape:label="Border"
       style="display:inline"
       sodipodi:insensitive="true">
      <path
         style="color:#bebebe;display:inline;overflow:visible;visibility:visible;opacity:0.41;fill:#000000;fill-opacity:1;fill-rule:nonzero;stroke:none;stroke-width:0;marker:none;enable-background:accumulate"
         d="m 422,101 c -2.77,0 -5,2.23 -5,5 v 12 c 0,2.77 2.23,5 5,5 h 12 c 2.77,0 5,-2.23 5,-5 v -12 c 0,-2.77 -2.23,-5 -5,-5 z m 0,1 h 12 c 2.2333,0 4,1.7667 4,4 v 12 c 0,2.2333 -1.7667,4 -4,4 h -12 c -2.2333,0 -4,-1.7667 -4,-4 v -12 c 0,-2.2333 1.7667,-4 4,-4 z"
         id="rect4099"
         inkscape:connector-curvature="0" />
      <path
         style="color:#bebebe;display:inline;overflow:visible;visibility:visible;opacity:0.41;fill:#000000;fill-opacity:1;fill-rule:nonzero;stroke:none;stroke-width:0;marker:none;enable-background:accumulate"
         d="m 424,53 c -3.878,0 -7,3.122 -7,7 v 16 c 0,3.878 3.122,7 7,7 h 16 c 3.878,0 7,-3.122 7,-7 V 60 c 0,-3.878 -3.122,-7 -7,-7 z m 0,1 h 16 c 3.3413,0 6,2.658703 6,6 v 16 c 0,3.341297 -2.6587,6 -6,6 h -16 c -3.3413,0 -6,-2.658703 -6,-6 V 60 c 0,-3.341297 2.6587,-6 6,-6 z"
         id="rect4151"
         inkscape:connector-curvature="0" />
      <path
         style="color:#bebebe;display:inline;overflow:visible;visibility:visible;opacity:0.41;fill:#000000;fill-opacity:1;fill-rule:nonzero;stroke:none;stroke-width:0;marker:none;enable-background:accumulate"
         d="m 419,140 c -1.662,0 -3,1.338 -3,3 v 10 c 0,1.662 1.338,3 3,3 h 10 c 1.662,0 3,-1.338 3,-3 v -10 c 0,-1.662 -1.338,-3 -3,-3 z m 0,1 h 10 c 1.1253,0 2,0.8747 2,2 v 10 c 0,1.1253 -0.8747,2 -2,2 h -10 c -1.1253,0 -2,-0.8747 -2,-2 v -10 c 0,-1.1253 0.8747,-2 2,-2 z"
         id="rect4095"
         inkscape:connector-curvature="0" />
      <path
         style="color:#bebebe;display:inline;overflow:visible;visibility:visible;opacity:0.41;fill:#000000;fill-opacity:1;fill-rule:nonzero;stroke:none;stroke-width:0;marker:none;enable-background:accumulate"
         d="m 300,223 c -4.986,0 -9,4.014 -9,9 v 24 c 0,4.986 4.014,9 9,9 h 24 c 4.986,0 9,-4.014 9,-9 v -24 c 0,-4.986 -4.014,-9 -9,-9 z m 0,1 h 24 c 4.4493,0 8,3.5507 8,8 v 24 c 0,4.4493 -3.5507,8 -8,8 h -24 c -4.4493,0 -8,-3.5507 -8,-8 v -24 c 0,-4.4493 3.5507,-8 8,-8 z"
         id="rect4783"
         inkscape:connector-curvature="0" />
      <path
         style="color:#bebebe;display:inline;overflow:visible;visibility:visible;opacity:0.41;fill:#000000;fill-opacity:1;fill-rule:nonzero;stroke:none;stroke-width:0;marker:none;enable-background:accumulate"
         d="m 302.5,142 c -6.925,0 -12.5,5.575 -12.5,12.5 v 35 c 0,6.925 5.575,12.5 12.5,12.5 h 35 c 6.925,0 12.5,-5.575 12.5,-12.5 v -35 c 0,-6.925 -5.575,-12.5 -12.5,-12.5 z m 0,1 h 35 c 6.3883,0 11.5,5.1117 11.5,11.5 v 35 c 0,6.3883 -5.1117,11.5 -11.5,11.5 h -35 c -6.3883,0 -11.5,-5.1117 -11.5,-11.5 v -35 c 0,-6.3883 5.1117,-11.5 11.5,-11.5 z"
         id="rect4515"
         inkscape:connector-curvature="0" />
      <path
         style="color:#bebebe;display:inline;overflow:visible;visibility:visible;opacity:0.41;fill:#000000;fill-opacity:1;fill-rule:nonzero;stroke:none;stroke-width:0;marker:none;enable-background:accumulate"
         d="m 310,32 c -9.972,0 -18,8.028 -18,18 v 52 c 0,9.972 8.028,18 18,18 h 52 c 9.972,0 18,-8.028 18,-18 V 50 c 0,-9.972 -8.028,-18 -18,-18 z m 0,1 h 52 c 9.4353,0 17,7.564703 17,17 v 52 c 0,9.4353 -7.5647,17 -17,17 h -52 c -9.4353,0 -17,-7.5647 -17,-17 V 50 c 0,-9.435297 7.5647,-17 17,-17 z"
         id="rect4511"
         inkscape:connector-curvature="0" />
      <path
         style="color:#bebebe;display:inline;overflow:visible;visibility:visible;opacity:0.41;fill:#000000;fill-opacity:1;fill-rule:nonzero;stroke:none;stroke-width:0;marker:none;enable-background:accumulate"
         d="M 84,46 C 56.3,46 34,68.3 34,96 v 120 c 0,27.7 22.3,50 50,50 h 120 c 27.7,0 50,-22.3 50,-50 V 96 C 254,68.3 231.7,46 204,46 Z m 0,1 h 120 c 27.1633,0 49,21.836703 49,49 v 120 c 0,27.1633 -21.8367,49 -49,49 H 84 C 56.836703,265 35,243.1633 35,216 V 96 C 35,68.836703 56.836703,47 84,47 Z"
         id="rect4040"
         inkscape:connector-curvature="0" />
    </g>
  </g>
</svg>
