<?xml version="1.0" encoding="UTF-8" standalone="no"?>
<!-- Created with Inkscape (http://www.inkscape.org/) -->

<svg
   inkscape:export-ydpi="90.000000"
   inkscape:export-xdpi="90.000000"
   width="480"
   height="300"
   id="svg11300"
   sodipodi:version="0.32"
   inkscape:version="1.2.2 (b0a8486541, 2022-12-01)"
   sodipodi:docname="web-google-maps.svg"
   inkscape:output_extension="org.inkscape.output.svg.inkscape"
   version="1.0"
   style="display:inline;enable-background:new"
   inkscape:export-filename="/home/sam/moka-next-template.png"
   xmlns:inkscape="http://www.inkscape.org/namespaces/inkscape"
   xmlns:sodipodi="http://sodipodi.sourceforge.net/DTD/sodipodi-0.dtd"
   xmlns:xlink="http://www.w3.org/1999/xlink"
   xmlns="http://www.w3.org/2000/svg"
   xmlns:svg="http://www.w3.org/2000/svg"
   xmlns:rdf="http://www.w3.org/1999/02/22-rdf-syntax-ns#"
   xmlns:cc="http://creativecommons.org/ns#"
   xmlns:dc="http://purl.org/dc/elements/1.1/">
  <sodipodi:namedview
     stroke="#ef2929"
     fill="#f57900"
     id="base"
     pagecolor="#777777"
     bordercolor="#666666"
     borderopacity="0.25490196"
     inkscape:pageopacity="0"
     inkscape:pageshadow="2"
     inkscape:zoom="1"
     inkscape:cx="136.5"
     inkscape:cy="135"
     inkscape:current-layer="layer6"
     showgrid="false"
     inkscape:grid-bbox="true"
     inkscape:document-units="px"
     inkscape:showpageshadow="false"
     inkscape:window-width="1920"
     inkscape:window-height="1008"
     inkscape:window-x="0"
     inkscape:window-y="0"
     width="400px"
     height="300px"
     inkscape:snap-nodes="true"
     inkscape:snap-bbox="true"
     gridtolerance="10000"
     inkscape:object-nodes="true"
     inkscape:snap-grids="true"
     showguides="true"
     inkscape:guide-bbox="true"
     inkscape:window-maximized="1"
     inkscape:bbox-nodes="true"
     inkscape:bbox-paths="true"
     inkscape:snap-bbox-edge-midpoints="true"
     inkscape:snap-bbox-midpoints="true"
     inkscape:pagecheckerboard="0"
     inkscape:deskcolor="#d1d1d1">
    <inkscape:grid
       spacingy="1"
       spacingx="1"
       id="grid5883"
       type="xygrid"
       enabled="true"
       visible="true"
       empspacing="4"
       snapvisiblegridlinesonly="true"
       dotted="false"
       color="#000000"
       opacity="0.1254902"
       empcolor="#203ef3"
       empopacity="0.36470588"
       originx="0"
       originy="0" />
    <inkscape:grid
       type="xygrid"
       id="grid11592"
       empspacing="8"
       visible="true"
       enabled="false"
       spacingx="0.5"
       spacingy="0.5"
       color="#ff0000"
       opacity="0.1254902"
       empcolor="#ff0000"
       empopacity="0.25098039"
       snapvisiblegridlinesonly="true"
       dotted="true"
       originx="0"
       originy="0" />
  </sodipodi:namedview>
  <defs
     id="defs3">
    <linearGradient
       inkscape:collect="always"
       xlink:href="#outerBackgroundGradient-5"
       id="linearGradient4254"
       x1="35"
       y1="156"
       x2="253"
       y2="156"
       gradientUnits="userSpaceOnUse"
       gradientTransform="matrix(0,-1,1,0,-12,300)" />
    <linearGradient
       inkscape:collect="always"
       xlink:href="#outerBackgroundGradient-5"
       id="linearGradient4256"
       x1="417"
       y1="148"
       x2="431"
       y2="148"
       gradientUnits="userSpaceOnUse"
       gradientTransform="matrix(0,-1,1,0,276,572)" />
    <linearGradient
       inkscape:collect="always"
       xlink:href="#outerBackgroundGradient-5"
       id="linearGradient4260"
       x1="418"
       y1="68"
       x2="446"
       y2="68"
       gradientUnits="userSpaceOnUse"
       gradientTransform="matrix(0,-1,1,0,364,500)" />
    <linearGradient
       inkscape:collect="always"
       xlink:href="#outerBackgroundGradient-5"
       id="linearGradient4262"
       x1="292"
       y1="244"
       x2="332"
       y2="244"
       gradientUnits="userSpaceOnUse"
       gradientTransform="matrix(0,-1,1,0,68,556)" />
    <linearGradient
       inkscape:collect="always"
       xlink:href="#outerBackgroundGradient-5"
       id="linearGradient4264"
       x1="293"
       y1="76"
       x2="379"
       y2="76"
       gradientUnits="userSpaceOnUse"
       gradientTransform="matrix(0,-1,1,0,260,412)" />
    <linearGradient
       inkscape:collect="always"
       xlink:href="#outerBackgroundGradient-5"
       id="linearGradient4266"
       x1="291"
       y1="172"
       x2="349"
       y2="172"
       gradientUnits="userSpaceOnUse"
       gradientTransform="matrix(0,-1,1,0,148,492)" />
    <linearGradient
       inkscape:collect="always"
       xlink:href="#outerBackgroundGradient-5"
       id="linearGradient3870"
       gradientUnits="userSpaceOnUse"
       gradientTransform="matrix(0,-1,1,0,316,540)"
       x1="418"
       y1="112"
       x2="438"
       y2="112" />
    <linearGradient
       id="outerBackgroundGradient-5">
      <stop
         style="stop-color:#eeeeee;stop-opacity:1;"
         offset="0"
         id="stop3864-8-6-0" />
      <stop
         style="stop-color:#ffffff;stop-opacity:1;"
         offset="1"
         id="stop3866-9-1-1" />
    </linearGradient>
  </defs>
  <metadata
     id="metadata4">
    <rdf:RDF>
      <cc:Work
         rdf:about="">
        <dc:format>image/svg+xml</dc:format>
        <dc:type
           rdf:resource="http://purl.org/dc/dcmitype/StillImage" />
        <dc:creator>
          <cc:Agent>
            <dc:title>Sam Hewitt</dc:title>
          </cc:Agent>
        </dc:creator>
        <dc:source />
        <cc:license
           rdf:resource="" />
        <dc:subject>
          <rdf:Bag />
        </dc:subject>
        <dc:date />
        <dc:rights>
          <cc:Agent>
            <dc:title />
          </cc:Agent>
        </dc:rights>
        <dc:publisher>
          <cc:Agent>
            <dc:title />
          </cc:Agent>
        </dc:publisher>
        <dc:identifier />
        <dc:relation />
        <dc:language />
        <dc:coverage />
        <dc:description />
        <dc:contributor>
          <cc:Agent>
            <dc:title />
          </cc:Agent>
        </dc:contributor>
      </cc:Work>
      <cc:Work
         rdf:about="">
        <dc:format>image/svg+xml</dc:format>
        <dc:type
           rdf:resource="http://purl.org/dc/dcmitype/StillImage" />
      </cc:Work>
    </rdf:RDF>
  </metadata>
  <g
     style="display:inline"
     inkscape:groupmode="layer"
     inkscape:label="Icon"
     id="layer1">
    <g
       style="display:none"
       inkscape:label="Baseplate"
       id="layer7"
       inkscape:groupmode="layer">
      <text
         y="19.745117"
         xml:space="preserve"
         x="15.006836"
         style="font-style:normal;font-variant:normal;font-weight:normal;font-stretch:normal;line-height:0%;font-family:'DejaVu Sans';-inkscape-font-specification:'DejaVu Sans';display:inline;fill:#000000;fill-opacity:1;stroke:none;enable-background:new"
         inkscape:label="context"
         id="context"><tspan
           style="font-style:normal;font-variant:normal;font-weight:normal;font-stretch:normal;font-size:18px;line-height:1.25;font-family:'DejaVu Sans';-inkscape-font-specification:'DejaVu Sans'"
           y="19.745117"
           x="15.006836"
           sodipodi:role="line"
           id="tspan3933">apps</tspan></text>
      <text
         y="19.745117"
         xml:space="preserve"
         x="122.48828"
         style="font-style:normal;font-variant:normal;font-weight:bold;font-stretch:normal;line-height:0%;font-family:'DejaVu Sans';-inkscape-font-specification:'DejaVu Sans Bold';text-align:start;writing-mode:lr-tb;text-anchor:start;display:inline;fill:#000000;fill-opacity:1;stroke:none;enable-background:new"
         inkscape:label="icon-name"
         id="icon-name"><tspan
           style="font-style:normal;font-variant:normal;font-weight:bold;font-stretch:normal;font-size:18px;line-height:1.25;font-family:'DejaVu Sans';-inkscape-font-specification:'DejaVu Sans Bold'"
           y="19.745117"
           x="122.48828"
           sodipodi:role="line"
           id="tspan3937">web-google-maps</tspan></text>
      <rect
         style="fill:#eeeeec;fill-opacity:1;fill-rule:nonzero;stroke:none;stroke-width:2;marker:none;visibility:visible;display:inline;overflow:visible;enable-background:accumulate"
         id="rect16x16"
         width="16"
         height="16"
         x="416"
         y="140"
         inkscape:label="16x16" />
      <rect
         style="fill:#d4d4d4;fill-opacity:1;fill-rule:nonzero;stroke:none;stroke-width:2;marker:none;visibility:visible;display:inline;overflow:visible;enable-background:accumulate"
         id="rect24x24"
         width="24"
         height="24"
         x="416"
         y="100"
         inkscape:label="24x24" />
      <rect
         style="fill:#eeeeec;fill-opacity:1;fill-rule:nonzero;stroke:none;stroke-width:2;marker:none;visibility:visible;display:inline;overflow:visible;enable-background:accumulate"
         id="rect32x32"
         width="32"
         height="32"
         x="416"
         y="52"
         inkscape:label="32x32" />
      <rect
         inkscape:label="22x22"
         y="101"
         x="417"
         height="22"
         width="22"
         id="rect22x22"
         style="fill:#eeeeec;fill-opacity:1;fill-rule:nonzero;stroke:none;stroke-width:2;marker:none;visibility:visible;display:inline;overflow:visible;enable-background:accumulate" />
      <rect
         inkscape:label="48x48"
         y="220"
         x="288"
         height="48"
         width="48"
         id="rect48x48"
         style="fill:#eeeeec;fill-opacity:1;fill-rule:nonzero;stroke:none;stroke-width:2;marker:none;visibility:visible;display:inline;overflow:visible;enable-background:accumulate" />
      <rect
         style="fill:#eeeeec;fill-opacity:1;fill-rule:nonzero;stroke:none;stroke-width:2;marker:none;visibility:visible;display:inline;overflow:visible;enable-background:accumulate"
         id="rect256x256"
         width="256"
         height="256"
         x="16"
         y="28"
         inkscape:label="256x256" />
      <rect
         style="fill:#eeeeec;fill-opacity:1;fill-rule:nonzero;stroke:none;stroke-width:2;marker:none;visibility:visible;display:inline;overflow:visible;enable-background:accumulate"
         id="rect64x64"
         width="64"
         height="64"
         x="288"
         y="140"
         inkscape:label="64x64" />
      <rect
         style="fill:#eeeeec;fill-opacity:1;fill-rule:nonzero;stroke:none;stroke-width:2;marker:none;visibility:visible;display:inline;overflow:visible;enable-background:accumulate"
         id="rect96x96"
         width="96"
         height="96"
         x="288"
         y="28"
         inkscape:label="96x96" />
    </g>
    <g
       inkscape:groupmode="layer"
       id="layer4"
       inkscape:label="Shadow"
       style="display:inline"
       sodipodi:insensitive="true">
      <rect
         ry="50"
         y="47"
         x="34"
         height="220"
         width="220"
         id="rect4114"
         style="opacity:0.1;color:#bebebe;fill:#000000;fill-opacity:1;fill-rule:nonzero;stroke:none;stroke-width:0;marker:none;visibility:visible;display:inline;overflow:visible;enable-background:accumulate" />
      <rect
         style="opacity:0.1;color:#bebebe;fill:#000000;fill-opacity:1;fill-rule:nonzero;stroke:none;stroke-width:0;marker:none;visibility:visible;display:inline;overflow:visible;enable-background:accumulate"
         id="rect4120"
         width="30"
         height="30"
         x="417"
         y="54"
         ry="7" />
      <rect
         transform="scale(1,-1)"
         ry="9"
         y="-266"
         x="291"
         height="42"
         width="42"
         id="rect4122"
         style="opacity:0.1;color:#bebebe;fill:#000000;fill-opacity:1;fill-rule:nonzero;stroke:none;stroke-width:0;marker:none;visibility:visible;display:inline;overflow:visible;enable-background:accumulate" />
      <rect
         style="opacity:0.1;color:#bebebe;fill:#000000;fill-opacity:1;fill-rule:nonzero;stroke:none;stroke-width:0;marker:none;visibility:visible;display:inline;overflow:visible;enable-background:accumulate"
         id="rect4124"
         width="88"
         height="88"
         x="292"
         y="33"
         ry="18" />
      <rect
         ry="12.5"
         y="143"
         x="290"
         height="60"
         width="60"
         id="rect4126"
         style="opacity:0.1;color:#bebebe;fill:#000000;fill-opacity:1;fill-rule:nonzero;stroke:none;stroke-width:0;marker:none;visibility:visible;display:inline;overflow:visible;enable-background:accumulate" />
      <path
         id="path4268"
         d="m 422,101 c -2.77,0 -5,2.23 -5,5 l 0,12 c 0,2.77 2.23,5 5,5 l 12,0 c 2.77,0 5,-2.23 5,-5 l 0,-12 c 0,-2.77 -2.23,-5 -5,-5 z"
         style="opacity:0.1;color:#bebebe;fill:#000000;fill-opacity:1;fill-rule:nonzero;stroke:none;stroke-width:0;marker:none;visibility:visible;display:inline;overflow:visible;enable-background:accumulate"
         inkscape:connector-curvature="0"
         sodipodi:nodetypes="sssssssss" />
      <path
         id="path4270"
         d="m 419,140 c -1.662,0 -3,1.338 -3,3 l 0,10 c 0,1.662 1.338,3 3,3 l 10,0 c 1.662,0 3,-1.338 3,-3 l 0,-10 c 0,-1.662 -1.338,-3 -3,-3 z"
         style="opacity:0.1;color:#bebebe;fill:#000000;fill-opacity:1;fill-rule:nonzero;stroke:none;stroke-width:0;marker:none;visibility:visible;display:inline;overflow:visible;enable-background:accumulate"
         inkscape:connector-curvature="0"
         sodipodi:nodetypes="sssssssss" />
    </g>
    <g
       inkscape:groupmode="layer"
       id="layer2"
       inkscape:label="Background"
       style="display:inline">
      <path
         style="color:#bebebe;fill:url(#linearGradient4254);fill-opacity:1.0;fill-rule:nonzero;stroke:none;stroke-width:2;marker:none;visibility:visible;display:inline;overflow:visible;enable-background:accumulate"
         d="M 84 46.5 C 56.568735 46.5 34.5 68.568732 34.5 96 L 34.5 216 C 34.5 243.43127 56.568735 265.5 84 265.5 L 204 265.5 C 231.43127 265.5 253.5 243.43127 253.5 216 L 253.5 96 C 253.5 68.568732 231.43127 46.5 204 46.5 L 84 46.5 z "
         id="path4200" />
      <path
         style="color:#bebebe;fill:url(#linearGradient4256);fill-opacity:1.0;fill-rule:nonzero;stroke:none;stroke-width:2;marker:none;visibility:visible;display:inline;overflow:visible;enable-background:accumulate"
         d="M 419 140.5 C 417.6156 140.5 416.5 141.6156 416.5 143 L 416.5 153 C 416.5 154.3844 417.6156 155.5 419 155.5 L 429 155.5 C 430.3844 155.5 431.5 154.3844 431.5 153 L 431.5 143 C 431.5 141.6156 430.3844 140.5 429 140.5 L 419 140.5 z "
         id="path4202" />
      <path
         style="color:#bebebe;fill:url(#linearGradient3870);fill-opacity:1.0;fill-rule:nonzero;stroke:none;stroke-width:2;marker:none;visibility:visible;display:inline;overflow:visible;enable-background:accumulate"
         d="M 422 101.5 C 419.50301 101.5 417.5 103.50301 417.5 106 L 417.5 118 C 417.5 120.49699 419.50301 122.5 422 122.5 L 434 122.5 C 436.49699 122.5 438.5 120.49699 438.5 118 L 438.5 106 C 438.5 103.50301 436.49699 101.5 434 101.5 L 422 101.5 z "
         id="path4204" />
      <path
         style="color:#bebebe;fill:url(#linearGradient4260);fill-opacity:1.0;fill-rule:nonzero;stroke:none;stroke-width:2;marker:none;visibility:visible;display:inline;overflow:visible;enable-background:accumulate"
         d="M 424 53.5 C 420.39346 53.5 417.5 56.393464 417.5 60 L 417.5 76 C 417.5 79.606536 420.39346 82.5 424 82.5 L 440 82.5 C 443.60654 82.5 446.5 79.606536 446.5 76 L 446.5 60 C 446.5 56.393464 443.60654 53.5 440 53.5 L 424 53.5 z "
         id="path4206" />
      <path
         style="color:#bebebe;fill:url(#linearGradient4262);fill-opacity:1.0;fill-rule:nonzero;stroke:none;stroke-width:2;marker:none;visibility:visible;display:inline;overflow:visible;enable-background:accumulate"
         d="M 300 223.5 C 295.28469 223.5 291.5 227.28469 291.5 232 L 291.5 256 C 291.5 260.71531 295.28469 264.5 300 264.5 L 324 264.5 C 328.71531 264.5 332.5 260.71531 332.5 256 L 332.5 232 C 332.5 227.28469 328.71531 223.5 324 223.5 L 300 223.5 z "
         id="path4208" />
      <path
         style="color:#bebebe;fill:url(#linearGradient4264);fill-opacity:1.0;fill-rule:nonzero;stroke:none;stroke-width:2;marker:none;visibility:visible;display:inline;overflow:visible;enable-background:accumulate"
         d="M 310 32.5 C 300.29745 32.5 292.5 40.297452 292.5 50 L 292.5 102 C 292.5 111.70255 300.29745 119.5 310 119.5 L 362 119.5 C 371.70255 119.5 379.5 111.70255 379.5 102 L 379.5 50 C 379.5 40.297452 371.70255 32.5 362 32.5 L 310 32.5 z "
         id="path4210" />
      <path
         style="color:#bebebe;fill:url(#linearGradient4266);fill-opacity:1.0;fill-rule:nonzero;stroke:none;stroke-width:2;marker:none;visibility:visible;display:inline;overflow:visible;enable-background:accumulate"
         d="M 302.5 142.5 C 295.84498 142.5 290.5 147.84498 290.5 154.5 L 290.5 189.5 C 290.5 196.15502 295.84498 201.5 302.5 201.5 L 337.5 201.5 C 344.15502 201.5 349.5 196.15502 349.5 189.5 L 349.5 154.5 C 349.5 147.84498 344.15502 142.5 337.5 142.5 L 302.5 142.5 z "
         id="path4212" />
    </g>
    <g
       inkscape:groupmode="layer"
       id="layer6"
       inkscape:label="Symbols"
       style="display:inline">
      <g
         id="g5562">
        <path
           d="m 342.09913,72.04451 8.61479,-6.562471 3.8249,-8.253333 c -2.54651,-4.861333 -6.94424,-8.604471 -12.23173,-10.264686 l -7.95,5.369274 -4.51023,9.44651 c 1.46592,-1.776118 3.66478,-2.894275 6.13639,-2.894275 4.43863,0 7.98749,3.589726 7.98749,7.987412 -0.003,1.967059 -0.71251,3.780667 -1.87161,5.171569 z"
           fill="#4285f4"
           id="path2-6"
           style="stroke-width:0.956251" />
        <path
           d="m 335.97808,46 c -6.44318,0 -12.15342,2.894294 -16.01248,7.486314 l 3.67499,6.020392 6.20454,2.277255 c 0.0375,-0.03749 12.46365,-14.815788 12.46365,-14.815788 C 340.30082,46.347725 338.17694,46 335.97808,46 Z"
           fill="#1a73e8"
           id="path4-7"
           style="stroke-width:0.956251" />
        <path
           d="m 342.09815,72.04549 c -1.46592,1.735216 -3.64772,2.856824 -6.11933,2.856824 -4.43863,0 -7.98749,-3.589765 -7.98749,-7.987451 0,-1.89204 0.77043,-3.780667 1.85114,-5.130628 l -9.15341,6.545373 -3.53865,8.577215 c 2.19884,4.782902 5.82614,8.641804 9.56931,13.465726 l 9.81137,-7.806667 z"
           fill="#fbbc04"
           id="path6-5"
           style="stroke-width:0.956251" />
        <path
           d="m 356.93215,66.915098 c 0,-3.511333 -0.88627,-6.790863 -2.39333,-9.685137 l -27.82153,33.14298 c 1.23408,1.581568 2.43067,3.279608 3.62726,5.130588 C 334.59227,102.06588 333.31729,106 336.02066,106 c 2.74094,0 1.54436,-3.93412 5.78867,-10.496471 6.9818,-10.919255 15.12282,-15.89651 15.12282,-28.588431 z"
           fill="#34a853"
           id="path8-3"
           style="stroke-width:0.956251" />
        <path
           d="m 329.84623,61.780902 -9.87953,-8.294275 c -3.04772,3.627255 -4.89886,8.335177 -4.89886,13.428314 0,3.934078 0.77045,7.138588 2.08296,9.991961 z"
           fill="#ea4335"
           id="path10-5"
           style="stroke-width:0.956251" />
      </g>
      <g
         id="g5550">
        <path
           d="m 324.06609,169.36301 5.74319,-4.37498 2.54994,-5.50223 c -1.69768,-3.24088 -4.62949,-5.73631 -8.15449,-6.84312 l -5.3,3.57952 -3.00682,6.29767 c 0.97728,-1.18408 2.44319,-1.92952 4.09093,-1.92952 2.95908,0 5.32499,2.39315 5.32499,5.32494 -0.002,1.31138 -0.47501,2.52045 -1.24774,3.44772 z"
           fill="#4285f4"
           id="path2-2"
           style="stroke-width:0.956251" />
        <path
           d="m 319.98539,152 c -4.29545,0 -8.10228,1.92953 -10.67498,4.99088 l 2.44998,4.01359 4.13637,1.51817 c 0.025,-0.025 8.3091,-9.87719 8.3091,-9.87719 C 322.86722,152.23182 321.4513,152 319.98539,152 Z"
           fill="#1a73e8"
           id="path4-9"
           style="stroke-width:0.956251" />
        <path
           d="m 324.06544,169.36366 c -0.97728,1.15681 -2.43182,1.90455 -4.07956,1.90455 -2.95908,0 -5.32499,-2.39318 -5.32499,-5.32497 0,-1.26136 0.51362,-2.52044 1.23409,-3.42042 l -6.10227,4.36359 -2.3591,5.71814 c 1.46589,3.1886 3.88409,5.7612 6.37954,8.97715 l 6.54092,-5.20444 z"
           fill="#fbbc04"
           id="path6-1"
           style="stroke-width:0.956251" />
        <path
           d="m 333.95477,165.9434 c 0,-2.34089 -0.59085,-4.52724 -1.59555,-6.45676 l -18.54769,22.09532 c 0.82272,1.05438 1.62045,2.18641 2.41817,3.42039 2.83182,4.37491 1.98183,6.99765 3.78408,6.99765 1.82729,0 1.02957,-2.62274 3.85911,-6.99765 4.65454,-7.2795 10.08188,-10.59767 10.08188,-19.05895 z"
           fill="#34a853"
           id="path8-2"
           style="stroke-width:0.956251" />
        <path
           d="m 315.89749,162.5206 -6.58635,-5.52952 c -2.03182,2.41817 -3.26591,5.55679 -3.26591,8.95221 0,2.62272 0.51364,4.75906 1.38864,6.66131 z"
           fill="#ea4335"
           id="path10-7"
           style="stroke-width:0.956251" />
      </g>
      <g
         id="g5538">
        <path
           d="m 314.84626,242.1541 4.02024,-3.06248 1.78495,-3.85156 c -1.18837,-2.26862 -3.24064,-4.01542 -5.70814,-4.79018 l -3.71,2.50566 -2.10477,4.40837 c 0.68409,-0.82886 1.71023,-1.35066 2.86365,-1.35066 2.07136,0 3.72749,1.6752 3.72749,3.72746 -0.002,0.91796 -0.3325,1.76431 -0.87342,2.41339 z"
           fill="#4285f4"
           id="path2-9"
           style="stroke-width:0.956249" />
        <path
           d="m 311.98977,230 c -3.00682,0 -5.67159,1.35067 -7.47249,3.49361 l 1.71499,2.80952 2.89546,1.06272 c 0.0175,-0.0175 5.81637,-6.91404 5.81637,-6.91404 C 314.00705,230.16227 313.01591,230 311.98977,230 Z"
           fill="#1a73e8"
           id="path4-3"
           style="stroke-width:0.956249" />
        <path
           d="m 314.84581,242.15456 c -0.6841,0.80977 -1.70228,1.33319 -2.85569,1.33319 -2.07136,0 -3.7275,-1.67523 -3.7275,-3.72748 0,-0.88295 0.35954,-1.76431 0.86387,-2.39429 l -4.2716,3.0545 -1.65136,4.0027 c 1.02612,2.23203 2.71886,4.03285 4.46568,6.28401 l 4.57864,-3.64311 z"
           fill="#fbbc04"
           id="path6-6"
           style="stroke-width:0.956249" />
        <path
           d="m 321.76834,239.76038 c 0,-1.63862 -0.41359,-3.16907 -1.11689,-4.51973 l -12.98338,15.46672 c 0.5759,0.73807 1.13431,1.53049 1.69272,2.39428 1.98227,3.06243 1.38728,4.89835 2.64885,4.89835 1.27911,0 0.7207,-1.83592 2.70138,-4.89835 3.25818,-5.09565 7.05732,-7.41837 7.05732,-13.34127 z"
           fill="#34a853"
           id="path8-0"
           style="stroke-width:0.956249" />
        <path
           d="m 309.12824,237.36442 -4.61044,-3.87066 c -1.42228,1.69272 -2.28614,3.88975 -2.28614,6.26655 0,1.8359 0.35955,3.33134 0.97205,4.66291 z"
           fill="#ea4335"
           id="path10-6"
           style="stroke-width:0.956249" />
      </g>
      <g
         id="g5526">
        <path
           d="m 434.03304,66.681503 2.8716,-2.18749 1.27496,-2.751111 c -0.84883,-1.620445 -2.31474,-2.868157 -4.07724,-3.421562 l -2.65,1.789758 -1.50341,3.148836 c 0.48864,-0.592039 1.22159,-0.964758 2.04546,-0.964758 1.47955,0 2.6625,1.196575 2.6625,2.662471 -10e-4,0.655686 -0.2375,1.260222 -0.62387,1.723856 z"
           fill="#4285f4"
           id="path2-61"
           style="stroke-width:0.95625" />
        <path
           d="m 431.99269,58 c -2.14773,0 -4.05114,0.964765 -5.33749,2.495438 l 1.22499,2.006797 2.06818,0.759085 c 0.0125,-0.0125 4.15455,-4.938596 4.15455,-4.938596 C 433.4336,58.115908 432.72564,58 431.99269,58 Z"
           fill="#1a73e8"
           id="path4-8"
           style="stroke-width:0.95625" />
        <path
           d="m 434.03271,66.68183 c -0.48864,0.578405 -1.2159,0.952274 -2.03977,0.952274 -1.47955,0 -2.6625,-1.196588 -2.6625,-2.662483 0,-0.63068 0.25681,-1.260222 0.61705,-1.710209 l -3.05114,2.18179 -1.17955,2.859072 c 0.73295,1.594301 1.94205,2.880601 3.18977,4.488575 l 3.27046,-2.602222 z"
           fill="#fbbc04"
           id="path6-7"
           style="stroke-width:0.95625" />
        <path
           d="m 438.97738,64.971699 c 0,-1.170444 -0.29542,-2.263621 -0.79778,-3.228379 l -9.27384,11.04766 c 0.41136,0.527189 0.81022,1.093202 1.20909,1.710196 1.4159,2.187451 0.99091,3.498823 1.89203,3.498823 0.91365,0 0.51479,-1.311372 1.92956,-3.498823 2.32727,-3.639752 5.04094,-5.298836 5.04094,-9.529477 z"
           fill="#34a853"
           id="path8-9"
           style="stroke-width:0.95625" />
        <path
           d="m 429.94874,63.2603 -3.29318,-2.764758 c -1.0159,1.209085 -1.63295,2.778392 -1.63295,4.476105 0,1.311359 0.25682,2.379529 0.69432,3.330653 z"
           fill="#ea4335"
           id="path10-2"
           style="stroke-width:0.95625" />
      </g>
      <g
         id="g5514">
        <path
           d="m 429.62643,110.9452 2.29728,-1.74999 1.01997,-2.20089 c -0.67906,-1.29635 -1.85179,-2.29452 -3.26179,-2.73725 l -2.12,1.43181 -1.20273,2.51907 c 0.39091,-0.47363 0.97728,-0.77181 1.63637,-0.77181 1.18364,0 2.13,0.95726 2.13,2.12998 -9.1e-4,0.52455 -0.19,1.00818 -0.4991,1.37908 z"
           fill="#4285f4"
           id="path2-3"
           style="stroke-width:0.95625" />
        <path
           d="m 427.99415,104 c -1.71818,0 -3.24091,0.77181 -4.26999,1.99635 l 0.98,1.60544 1.65454,0.60727 c 0.01,-0.01 3.32364,-3.95088 3.32364,-3.95088 C 429.14688,104.09273 428.58052,104 427.99415,104 Z"
           fill="#1a73e8"
           id="path4-75"
           style="stroke-width:0.95625" />
        <path
           d="m 429.62617,110.94546 c -0.39091,0.46273 -0.97272,0.76182 -1.63182,0.76182 -1.18363,0 -2.13,-0.95727 -2.13,-2.12998 0,-0.50455 0.20545,-1.00818 0.49364,-1.36817 l -2.44091,1.74543 -0.94364,2.28726 c 0.58636,1.27544 1.55364,2.30448 2.55182,3.59086 l 2.61636,-2.08178 z"
           fill="#fbbc04"
           id="path6-9"
           style="stroke-width:0.95625" />
        <path
           d="m 433.58191,109.57736 c 0,-0.93636 -0.23634,-1.8109 -0.63823,-2.5827 l -7.41907,8.83812 c 0.32909,0.42176 0.64818,0.87457 0.96727,1.36816 1.13272,1.74996 0.79273,2.79906 1.51363,2.79906 0.73092,0 0.41183,-1.0491 1.54364,-2.79906 1.86182,-2.9118 4.03276,-4.23907 4.03276,-7.62358 z"
           fill="#34a853"
           id="path8-22"
           style="stroke-width:0.95625" />
        <path
           d="m 426.35899,108.20824 -2.63454,-2.21181 c -0.81272,0.96727 -1.30636,2.22272 -1.30636,3.58089 0,1.04909 0.20545,1.90362 0.55546,2.66452 z"
           fill="#ea4335"
           id="path10-8"
           style="stroke-width:0.95625" />
      </g>
      <g
         id="g5502">
        <path
           d="m 425.21983,147.2089 1.72296,-1.31249 0.76498,-1.65067 c -0.50931,-0.97227 -1.38885,-1.72089 -2.44635,-2.05294 l -1.59,1.07386 -0.90205,1.8893 c 0.29319,-0.35522 0.73296,-0.57885 1.22728,-0.57885 0.88773,0 1.5975,0.71794 1.5975,1.59748 -6.8e-4,0.39341 -0.1425,0.75613 -0.37432,1.03431 z"
           fill="#4285f4"
           id="path2-7"
           style="stroke-width:0.956251" />
        <path
           d="m 423.99562,142 c -1.28864,0 -2.43069,0.57886 -3.2025,1.49726 l 0.735,1.20408 1.24091,0.45545 c 0.007,-0.007 2.49273,-2.96316 2.49273,-2.96316 C 424.86017,142.06954 424.43539,142 423.99562,142 Z"
           fill="#1a73e8"
           id="path4-36"
           style="stroke-width:0.956251" />
        <path
           d="m 425.21963,147.2091 c -0.29318,0.34704 -0.72954,0.57136 -1.22386,0.57136 -0.88773,0 -1.5975,-0.71795 -1.5975,-1.59749 0,-0.37841 0.15408,-0.75613 0.37023,-1.02612 l -1.83069,1.30907 -0.70773,1.71544 c 0.43977,0.95658 1.16523,1.72837 1.91387,2.69315 l 1.96227,-1.56133 z"
           fill="#fbbc04"
           id="path6-12"
           style="stroke-width:0.956251" />
        <path
           d="m 428.18643,146.18302 c 0,-0.70227 -0.17725,-1.35817 -0.47866,-1.93703 l -5.56431,6.6286 c 0.24682,0.31631 0.48613,0.65592 0.72545,1.02612 0.84955,1.31247 0.59455,2.09929 1.13522,2.09929 0.54819,0 0.30888,-0.78682 1.15774,-2.09929 1.39636,-2.18386 3.02456,-3.17931 3.02456,-5.71769 z"
           fill="#34a853"
           id="path8-93"
           style="stroke-width:0.956251" />
        <path
           d="m 422.76925,145.15618 -1.97591,-1.65885 c -0.60954,0.72545 -0.97977,1.66703 -0.97977,2.68566 0,0.78681 0.15409,1.42772 0.41659,1.99839 z"
           fill="#ea4335"
           id="path10-1"
           style="stroke-width:0.956251" />
      </g>
      <g
         id="g5490">
        <path
           d="m 159.24784,146.11127 21.53696,-16.40617 9.56226,-20.63334 C 183.98078,96.918431 172.98647,87.560588 159.76775,83.410049 l -19.875,13.423186 -11.27559,23.616275 c 3.6648,-4.44029 9.16196,-7.23569 15.34098,-7.23569 11.09657,0 19.96872,8.97432 19.96872,19.96853 -0.009,4.91765 -1.78127,9.45167 -4.67902,12.92892 z"
           fill="#4285f4"
           id="path2"
           style="stroke-width:0.95625" />
        <path
           d="m 143.9452,81 c -16.10794,0 -30.38353,7.235735 -40.03118,18.715784 l 9.18745,15.050976 15.51137,5.69314 c 0.0937,-0.0937 31.15912,-37.039469 31.15912,-37.039469 C 154.75206,81.869312 149.44235,81 143.9452,81 Z"
           fill="#1a73e8"
           id="path4"
           style="stroke-width:0.95625" />
        <path
           d="m 159.24539,146.11373 c -3.6648,4.33803 -9.11931,7.14205 -15.29833,7.14205 -11.09657,0 -19.96873,-8.97441 -19.96873,-19.96862 0,-4.7301 1.92608,-9.45167 4.62785,-12.82657 l -22.88353,16.36343 -8.84662,21.44304 c 5.49711,11.95725 14.56534,21.60451 23.92328,33.66431 l 24.52844,-19.51666 z"
           fill="#fbbc04"
           id="path6"
           style="stroke-width:0.95625" />
        <path
           d="m 196.33039,133.28775 c 0,-8.77834 -2.21568,-16.97716 -5.98333,-24.21285 l -69.55382,82.85745 c 3.08519,3.95392 6.07666,8.19902 9.06813,12.82647 10.61932,16.40589 7.43187,26.24118 14.1903,26.24118 6.85235,0 3.86088,-9.83529 14.47166,-26.24118 17.45451,-27.29813 37.80706,-39.74127 37.80706,-71.47107 z"
           fill="#34a853"
           id="path8"
           style="stroke-width:0.95625" />
        <path
           d="M 128.61559,120.45226 103.91676,99.716569 c -7.619309,9.068141 -12.247152,20.837941 -12.247152,33.570781 0,9.8352 1.926137,17.84647 5.207392,24.97991 z"
           fill="#ea4335"
           id="path10"
           style="stroke-width:0.95625" />
      </g>
    </g>
    <g
       inkscape:groupmode="layer"
       id="layer5"
       inkscape:label="Highlights"
       style="display:inline"
       sodipodi:insensitive="true">
      <path
         style="opacity:0.12999998;color:#bebebe;fill:#ffffff;fill-opacity:1;fill-rule:nonzero;stroke:none;stroke-width:0;marker:none;visibility:visible;display:inline;overflow:visible;enable-background:accumulate"
         d="M 84,47 C 56.836703,47 35,68.836703 35,96 l 0,1 C 35,69.836703 56.836703,48 84,48 l 120,0 c 27.1633,0 49,21.836703 49,49 l 0,-1 C 253,68.836703 231.1633,47 204,47 L 84,47 z"
         id="rect3894"
         inkscape:connector-curvature="0" />
      <path
         style="opacity:0.12999998;color:#bebebe;fill:#ffffff;fill-opacity:1;fill-rule:nonzero;stroke:none;stroke-width:0;marker:none;visibility:visible;display:inline;overflow:visible;enable-background:accumulate"
         d="m 419,141 c -1.1253,0 -2,0.8747 -2,2 l 0,1 c 0,-1.1253 0.8747,-2 2,-2 l 10,0 c 1.1253,0 2,0.8747 2,2 l 0,-1 c 0,-1.1253 -0.8747,-2 -2,-2 l -10,0 z"
         id="rect3896"
         inkscape:connector-curvature="0" />
      <path
         style="opacity:0.12999998;color:#bebebe;fill:#ffffff;fill-opacity:1;fill-rule:nonzero;stroke:none;stroke-width:0;marker:none;visibility:visible;display:inline;overflow:visible;enable-background:accumulate"
         d="m 422,102 c -2.2333,0 -4,1.7667 -4,4 l 0,1 c 0,-2.2333 1.7667,-4 4,-4 l 12,0 c 2.2333,0 4,1.7667 4,4 l 0,-1 c 0,-2.2333 -1.7667,-4 -4,-4 l -12,0 z"
         id="rect3898"
         inkscape:connector-curvature="0" />
      <path
         style="opacity:0.12999998;color:#bebebe;fill:#ffffff;fill-opacity:1;fill-rule:nonzero;stroke:none;stroke-width:0;marker:none;visibility:visible;display:inline;overflow:visible;enable-background:accumulate"
         d="m 424,54 c -3.3413,0 -6,2.658703 -6,6 l 0,1 c 0,-3.341297 2.6587,-6 6,-6 l 16,0 c 3.3413,0 6,2.658703 6,6 l 0,-1 c 0,-3.341297 -2.6587,-6 -6,-6 l -16,0 z"
         id="rect3900"
         inkscape:connector-curvature="0" />
      <path
         style="opacity:0.12999998;color:#bebebe;fill:#ffffff;fill-opacity:1;fill-rule:nonzero;stroke:none;stroke-width:0;marker:none;visibility:visible;display:inline;overflow:visible;enable-background:accumulate"
         d="m 300,224 c -4.4493,0 -8,3.5507 -8,8 l 0,1 c 0,-4.4493 3.5507,-8 8,-8 l 24,0 c 4.4493,0 8,3.5507 8,8 l 0,-1 c 0,-4.4493 -3.5507,-8 -8,-8 l -24,0 z"
         id="rect3902"
         inkscape:connector-curvature="0" />
      <path
         style="opacity:0.12999998;color:#bebebe;fill:#ffffff;fill-opacity:1;fill-rule:nonzero;stroke:none;stroke-width:0;marker:none;visibility:visible;display:inline;overflow:visible;enable-background:accumulate"
         d="m 310,33 c -9.4353,0 -17,7.564703 -17,17 l 0,1 c 0,-9.435297 7.5647,-17 17,-17 l 52,0 c 9.4353,0 17,7.564703 17,17 l 0,-1 c 0,-9.435297 -7.5647,-17 -17,-17 l -52,0 z"
         id="rect3904"
         inkscape:connector-curvature="0" />
      <path
         style="opacity:0.12999998;color:#bebebe;fill:#ffffff;fill-opacity:1;fill-rule:nonzero;stroke:none;stroke-width:0;marker:none;visibility:visible;display:inline;overflow:visible;enable-background:accumulate"
         d="m 302.5,143 c -6.3883,0 -11.5,5.1117 -11.5,11.5 l 0,1 c 0,-6.3883 5.1117,-11.5 11.5,-11.5 l 35,0 c 6.3883,0 11.5,5.1117 11.5,11.5 l 0,-1 c 0,-6.3883 -5.1117,-11.5 -11.5,-11.5 l -35,0 z"
         id="rect3906"
         inkscape:connector-curvature="0" />
      <path
         id="path4085"
         d="m 204,266 c 27.1633,0 49,-21.8367 49,-49 l 0,-1 c 0,27.1633 -21.8367,49 -49,49 L 84,265 C 56.8367,265 35,243.1633 35,216 l 0,1 c 0,27.1633 21.8367,49 49,49 l 120,0 z"
         style="opacity:0.5;color:#bebebe;fill:#000000;fill-opacity:1;fill-rule:nonzero;stroke:none;stroke-width:0;marker:none;visibility:visible;display:inline;overflow:visible;enable-background:accumulate"
         inkscape:connector-curvature="0" />
      <path
         id="path4087"
         d="m 429,156 c 1.1253,0 2,-0.8747 2,-2 l 0,-1 c 0,1.1253 -0.8747,2 -2,2 l -10,0 c -1.1253,0 -2,-0.8747 -2,-2 l 0,1 c 0,1.1253 0.8747,2 2,2 l 10,0 z"
         style="opacity:0.3;color:#bebebe;fill:#000000;fill-opacity:1;fill-rule:nonzero;stroke:none;stroke-width:0;marker:none;visibility:visible;display:inline;overflow:visible;enable-background:accumulate"
         inkscape:connector-curvature="0" />
      <path
         id="path4089"
         d="m 434,123 c 2.2333,0 4,-1.7667 4,-4 l 0,-1 c 0,2.2333 -1.7667,4 -4,4 l -12,0 c -2.2333,0 -4,-1.7667 -4,-4 l 0,1 c 0,2.2333 1.7667,4 4,4 l 12,0 z"
         style="opacity:0.3;color:#bebebe;fill:#000000;fill-opacity:1;fill-rule:nonzero;stroke:none;stroke-width:0;marker:none;visibility:visible;display:inline;overflow:visible;enable-background:accumulate"
         inkscape:connector-curvature="0" />
      <path
         id="path4091"
         d="m 440,83 c 3.3413,0 6,-2.6587 6,-6 l 0,-1 c 0,3.3413 -2.6587,6 -6,6 l -16,0 c -3.3413,0 -6,-2.6587 -6,-6 l 0,1 c 0,3.3413 2.6587,6 6,6 l 16,0 z"
         style="opacity:0.5;color:#bebebe;fill:#000000;fill-opacity:1;fill-rule:nonzero;stroke:none;stroke-width:0;marker:none;visibility:visible;display:inline;overflow:visible;enable-background:accumulate"
         inkscape:connector-curvature="0" />
      <path
         id="path4093"
         d="m 324,265 c 4.4493,0 8,-3.5507 8,-8 l 0,-1 c 0,4.4493 -3.5507,8 -8,8 l -24,0 c -4.4493,0 -8,-3.5507 -8,-8 l 0,1 c 0,4.4493 3.5507,8 8,8 l 24,0 z"
         style="opacity:0.5;color:#bebebe;fill:#000000;fill-opacity:1;fill-rule:nonzero;stroke:none;stroke-width:0;marker:none;visibility:visible;display:inline;overflow:visible;enable-background:accumulate"
         inkscape:connector-curvature="0" />
      <path
         id="path4095"
         d="m 362,120 c 9.4353,0 17,-7.5647 17,-17 l 0,-1 c 0,9.4353 -7.5647,17 -17,17 l -52,0 c -9.4353,0 -17,-7.5647 -17,-17 l 0,1 c 0,9.4353 7.5647,17 17,17 l 52,0 z"
         style="opacity:0.5;color:#bebebe;fill:#000000;fill-opacity:1;fill-rule:nonzero;stroke:none;stroke-width:0;marker:none;visibility:visible;display:inline;overflow:visible;enable-background:accumulate"
         inkscape:connector-curvature="0" />
      <path
         id="path4097"
         d="m 337.5,202 c 6.3883,0 11.5,-5.1117 11.5,-11.5 l 0,-1 c 0,6.3883 -5.1117,11.5 -11.5,11.5 l -35,0 c -6.3883,0 -11.5,-5.1117 -11.5,-11.5 l 0,1 c 0,6.3883 5.1117,11.5 11.5,11.5 l 35,0 z"
         style="opacity:0.5;color:#bebebe;fill:#000000;fill-opacity:1;fill-rule:nonzero;stroke:none;stroke-width:0;marker:none;visibility:visible;display:inline;overflow:visible;enable-background:accumulate"
         inkscape:connector-curvature="0" />
      <path
         inkscape:connector-curvature="0"
         id="path4280"
         d="M 84,265 C 56.836703,265 35,243.1633 35,216 l 0,-1 c 0,27.1633 21.836703,49 49,49 l 120,0 c 27.1633,0 49,-21.8367 49,-49 l 0,1 c 0,27.1633 -21.8367,49 -49,49 l -120,0 z"
         style="opacity:0.1;color:#bebebe;fill:#ffffff;fill-opacity:1;fill-rule:nonzero;stroke:none;stroke-width:0;marker:none;visibility:visible;display:inline;overflow:visible;enable-background:accumulate" />
      <path
         style="opacity:0.1;color:#bebebe;fill:#ffffff;fill-opacity:1;fill-rule:nonzero;stroke:none;stroke-width:0;marker:none;visibility:visible;display:inline;overflow:visible;enable-background:accumulate"
         d="m 300,264 c -4.4493,0 -8,-3.5507 -8,-8 l 0,-1 c 0,4.4493 3.5507,8 8,8 l 24,0 c 4.4493,0 8,-3.5507 8,-8 l 0,1 c 0,4.4493 -3.5507,8 -8,8 l -24,0 z"
         id="path4294"
         inkscape:connector-curvature="0" />
      <path
         style="opacity:0.1;color:#bebebe;fill:#ffffff;fill-opacity:1;fill-rule:nonzero;stroke:none;stroke-width:0;marker:none;visibility:visible;display:inline;overflow:visible;enable-background:accumulate"
         d="m 302.5,201 c -6.3883,0 -11.5,-5.1117 -11.5,-11.5 l 0,-1 c 0,6.3883 5.1117,11.5 11.5,11.5 l 35,0 c 6.3883,0 11.5,-5.1117 11.5,-11.5 l 0,1 c 0,6.3883 -5.1117,11.5 -11.5,11.5 l -35,0 z"
         id="path4296"
         inkscape:connector-curvature="0" />
      <path
         style="opacity:0.1;color:#bebebe;fill:#ffffff;fill-opacity:1;fill-rule:nonzero;stroke:none;stroke-width:0;marker:none;visibility:visible;display:inline;overflow:visible;enable-background:accumulate"
         d="m 310,119 c -9.4353,0 -17,-7.5647 -17,-17 l 0,-1 c 0,9.4353 7.5647,17 17,17 l 52,0 c 9.4353,0 17,-7.5647 17,-17 l 0,1 c 0,9.4353 -7.5647,17 -17,17 l -52,0 z"
         id="path4298"
         inkscape:connector-curvature="0" />
      <path
         style="opacity:0.1;color:#bebebe;fill:#ffffff;fill-opacity:1;fill-rule:nonzero;stroke:none;stroke-width:0;marker:none;visibility:visible;display:inline;overflow:visible;enable-background:accumulate"
         d="m 424,82 c -3.3413,0 -6,-2.658703 -6,-6 l 0,-1 c 0,3.341297 2.6587,6 6,6 l 16,0 c 3.3413,0 6,-2.658703 6,-6 l 0,1 c 0,3.341297 -2.6587,6 -6,6 l -16,0 z"
         id="path4300"
         inkscape:connector-curvature="0" />
      <path
         style="opacity:0.1;color:#bebebe;fill:#ffffff;fill-opacity:1;fill-rule:nonzero;stroke:none;stroke-width:0;marker:none;visibility:visible;display:inline;overflow:visible;enable-background:accumulate"
         d="m 422,122 c -2.2333,0 -4,-1.7667 -4,-4 l 0,-1 c 0,2.2333 1.7667,4 4,4 l 12,0 c 2.2333,0 4,-1.7667 4,-4 l 0,1 c 0,2.2333 -1.7667,4 -4,4 l -12,0 z"
         id="path4302"
         inkscape:connector-curvature="0" />
      <path
         style="opacity:0.1;color:#bebebe;fill:#ffffff;fill-opacity:1;fill-rule:nonzero;stroke:none;stroke-width:0;marker:none;visibility:visible;display:inline;overflow:visible;enable-background:accumulate"
         d="m 419,154.5 c -1.1253,0 -2,-0.8747 -2,-2 l 0,-1 c 0,1.1253 0.8747,2 2,2 l 10,0 c 1.1253,0 2,-0.8747 2,-2 l 0,1 c 0,1.1253 -0.8747,2 -2,2 l -10,0 z"
         id="path4304"
         inkscape:connector-curvature="0" />
    </g>
    <g
       inkscape:groupmode="layer"
       id="layer3"
       inkscape:label="Border"
       style="display:inline"
       sodipodi:insensitive="true">
      <path
         style="opacity:0.41000001;color:#bebebe;fill:#000000;fill-opacity:1;fill-rule:nonzero;stroke:none;stroke-width:0;marker:none;visibility:visible;display:inline;overflow:visible;enable-background:accumulate"
         d="m 422,101 c -2.77,0 -5,2.23 -5,5 l 0,12 c 0,2.77 2.23,5 5,5 l 12,0 c 2.77,0 5,-2.23 5,-5 l 0,-12 c 0,-2.77 -2.23,-5 -5,-5 l -12,0 z m 0,1 12,0 c 2.2333,0 4,1.7667 4,4 l 0,12 c 0,2.2333 -1.7667,4 -4,4 l -12,0 c -2.2333,0 -4,-1.7667 -4,-4 l 0,-12 c 0,-2.2333 1.7667,-4 4,-4 z"
         id="rect4099"
         inkscape:connector-curvature="0" />
      <path
         style="opacity:0.41000001;color:#bebebe;fill:#000000;fill-opacity:1;fill-rule:nonzero;stroke:none;stroke-width:0;marker:none;visibility:visible;display:inline;overflow:visible;enable-background:accumulate"
         d="m 424,53 c -3.878,0 -7,3.122 -7,7 l 0,16 c 0,3.878 3.122,7 7,7 l 16,0 c 3.878,0 7,-3.122 7,-7 l 0,-16 c 0,-3.878 -3.122,-7 -7,-7 l -16,0 z m 0,1 16,0 c 3.3413,0 6,2.658703 6,6 l 0,16 c 0,3.341297 -2.6587,6 -6,6 l -16,0 c -3.3413,0 -6,-2.658703 -6,-6 l 0,-16 c 0,-3.341297 2.6587,-6 6,-6 z"
         id="rect4151"
         inkscape:connector-curvature="0" />
      <path
         style="opacity:0.41000001;color:#bebebe;fill:#000000;fill-opacity:1;fill-rule:nonzero;stroke:none;stroke-width:0;marker:none;visibility:visible;display:inline;overflow:visible;enable-background:accumulate"
         d="m 419,140 c -1.662,0 -3,1.338 -3,3 l 0,10 c 0,1.662 1.338,3 3,3 l 10,0 c 1.662,0 3,-1.338 3,-3 l 0,-10 c 0,-1.662 -1.338,-3 -3,-3 l -10,0 z m 0,1 10,0 c 1.1253,0 2,0.8747 2,2 l 0,10 c 0,1.1253 -0.8747,2 -2,2 l -10,0 c -1.1253,0 -2,-0.8747 -2,-2 l 0,-10 c 0,-1.1253 0.8747,-2 2,-2 z"
         id="rect4095"
         inkscape:connector-curvature="0" />
      <path
         style="opacity:0.41000001;color:#bebebe;fill:#000000;fill-opacity:1;fill-rule:nonzero;stroke:none;stroke-width:0;marker:none;visibility:visible;display:inline;overflow:visible;enable-background:accumulate"
         d="m 300,223 c -4.986,0 -9,4.014 -9,9 l 0,24 c 0,4.986 4.014,9 9,9 l 24,0 c 4.986,0 9,-4.014 9,-9 l 0,-24 c 0,-4.986 -4.014,-9 -9,-9 l -24,0 z m 0,1 24,0 c 4.4493,0 8,3.5507 8,8 l 0,24 c 0,4.4493 -3.5507,8 -8,8 l -24,0 c -4.4493,0 -8,-3.5507 -8,-8 l 0,-24 c 0,-4.4493 3.5507,-8 8,-8 z"
         id="rect4783"
         inkscape:connector-curvature="0" />
      <path
         style="opacity:0.41000001;color:#bebebe;fill:#000000;fill-opacity:1;fill-rule:nonzero;stroke:none;stroke-width:0;marker:none;visibility:visible;display:inline;overflow:visible;enable-background:accumulate"
         d="m 302.5,142 c -6.925,0 -12.5,5.575 -12.5,12.5 l 0,35 c 0,6.925 5.575,12.5 12.5,12.5 l 35,0 c 6.925,0 12.5,-5.575 12.5,-12.5 l 0,-35 c 0,-6.925 -5.575,-12.5 -12.5,-12.5 l -35,0 z m 0,1 35,0 c 6.3883,0 11.5,5.1117 11.5,11.5 l 0,35 c 0,6.3883 -5.1117,11.5 -11.5,11.5 l -35,0 c -6.3883,0 -11.5,-5.1117 -11.5,-11.5 l 0,-35 c 0,-6.3883 5.1117,-11.5 11.5,-11.5 z"
         id="rect4515"
         inkscape:connector-curvature="0" />
      <path
         style="opacity:0.41000001;color:#bebebe;fill:#000000;fill-opacity:1;fill-rule:nonzero;stroke:none;stroke-width:0;marker:none;visibility:visible;display:inline;overflow:visible;enable-background:accumulate"
         d="m 310,32 c -9.972,0 -18,8.028 -18,18 l 0,52 c 0,9.972 8.028,18 18,18 l 52,0 c 9.972,0 18,-8.028 18,-18 l 0,-52 c 0,-9.972 -8.028,-18 -18,-18 l -52,0 z m 0,1 52,0 c 9.4353,0 17,7.564703 17,17 l 0,52 c 0,9.4353 -7.5647,17 -17,17 l -52,0 c -9.4353,0 -17,-7.5647 -17,-17 l 0,-52 c 0,-9.435297 7.5647,-17 17,-17 z"
         id="rect4511"
         inkscape:connector-curvature="0" />
      <path
         style="opacity:0.41000001;color:#bebebe;fill:#000000;fill-opacity:1;fill-rule:nonzero;stroke:none;stroke-width:0;marker:none;visibility:visible;display:inline;overflow:visible;enable-background:accumulate"
         d="M 84,46 C 56.3,46 34,68.3 34,96 l 0,120 c 0,27.7 22.3,50 50,50 l 120,0 c 27.7,0 50,-22.3 50,-50 L 254,96 C 254,68.3 231.7,46 204,46 L 84,46 z m 0,1 120,0 c 27.1633,0 49,21.836703 49,49 l 0,120 c 0,27.1633 -21.8367,49 -49,49 L 84,265 C 56.836703,265 35,243.1633 35,216 L 35,96 C 35,68.836703 56.836703,47 84,47 z"
         id="rect4040"
         inkscape:connector-curvature="0" />
    </g>
  </g>
</svg>
