<?xml version="1.0" encoding="UTF-8" standalone="no"?>
<svg
   xmlns:dc="http://purl.org/dc/elements/1.1/"
   xmlns:cc="http://creativecommons.org/ns#"
   xmlns:rdf="http://www.w3.org/1999/02/22-rdf-syntax-ns#"
   xmlns:svg="http://www.w3.org/2000/svg"
   xmlns="http://www.w3.org/2000/svg"
   xmlns:xlink="http://www.w3.org/1999/xlink"
   xmlns:sodipodi="http://sodipodi.sourceforge.net/DTD/sodipodi-0.dtd"
   xmlns:inkscape="http://www.inkscape.org/namespaces/inkscape"
   inkscape:export-ydpi="90.000000"
   inkscape:export-xdpi="90.000000"
   width="480"
   height="300"
   id="svg11300"
   sodipodi:version="0.32"
   inkscape:version="1.0.2 (e86c870, 2021-01-15)"
   sodipodi:docname="web-khan-academy.svg"
   inkscape:output_extension="org.inkscape.output.svg.inkscape"
   version="1.0"
   style="display:inline;enable-background:new"
   inkscape:export-filename="/home/sam/moka-next-template.png">
  <sodipodi:namedview
     stroke="#ef2929"
     fill="#f57900"
     id="base"
     pagecolor="#777777"
     bordercolor="#666666"
     borderopacity="0.25490196"
     inkscape:pageopacity="0"
     inkscape:pageshadow="2"
     inkscape:zoom="2.8284272"
     inkscape:cx="146.00864"
     inkscape:cy="196.84498"
     inkscape:current-layer="layer6"
     showgrid="false"
     inkscape:grid-bbox="true"
     inkscape:document-units="px"
     inkscape:showpageshadow="false"
     inkscape:window-width="1366"
     inkscape:window-height="703"
     inkscape:window-x="0"
     inkscape:window-y="0"
     width="400px"
     height="300px"
     inkscape:snap-nodes="true"
     inkscape:snap-bbox="true"
     gridtolerance="10000"
     inkscape:object-nodes="true"
     inkscape:snap-grids="true"
     showguides="true"
     inkscape:guide-bbox="true"
     inkscape:window-maximized="1"
     inkscape:bbox-nodes="true"
     inkscape:bbox-paths="true"
     inkscape:snap-bbox-edge-midpoints="true"
     inkscape:snap-bbox-midpoints="true"
     inkscape:document-rotation="0">
    <inkscape:grid
       spacingy="1"
       spacingx="1"
       id="grid5883"
       type="xygrid"
       enabled="true"
       visible="true"
       empspacing="4"
       snapvisiblegridlinesonly="true"
       dotted="false"
       color="#000000"
       opacity="0.1254902"
       empcolor="#203ef3"
       empopacity="0.36470588"
       originx="0"
       originy="0" />
    <inkscape:grid
       type="xygrid"
       id="grid11592"
       empspacing="8"
       visible="true"
       enabled="false"
       spacingx="0.5"
       spacingy="0.5"
       color="#ff0000"
       opacity="0.1254902"
       empcolor="#ff0000"
       empopacity="0.25098039"
       snapvisiblegridlinesonly="true"
       dotted="true"
       originx="0"
       originy="0" />
  </sodipodi:namedview>
  <defs
     id="defs3">
    <linearGradient
       inkscape:collect="always"
       xlink:href="#outerBackgroundGradient-7"
       id="linearGradient4256"
       x1="417"
       y1="148"
       x2="431"
       y2="148"
       gradientUnits="userSpaceOnUse"
       gradientTransform="matrix(0,-1,1,0,276,572)" />
    <linearGradient
       inkscape:collect="always"
       xlink:href="#outerBackgroundGradient-7"
       id="linearGradient4260"
       x1="418"
       y1="68"
       x2="446"
       y2="68"
       gradientUnits="userSpaceOnUse"
       gradientTransform="matrix(0,-1,1,0,364,500)" />
    <linearGradient
       inkscape:collect="always"
       xlink:href="#outerBackgroundGradient-7"
       id="linearGradient4262"
       x1="292"
       y1="244"
       x2="332"
       y2="244"
       gradientUnits="userSpaceOnUse"
       gradientTransform="matrix(0,-1,1,0,68,556)" />
    <linearGradient
       inkscape:collect="always"
       xlink:href="#outerBackgroundGradient-7"
       id="linearGradient4264"
       x1="293"
       y1="76"
       x2="379"
       y2="76"
       gradientUnits="userSpaceOnUse"
       gradientTransform="matrix(0,-1,1,0,260,412)" />
    <linearGradient
       inkscape:collect="always"
       xlink:href="#outerBackgroundGradient-7"
       id="linearGradient4266"
       x1="291"
       y1="172"
       x2="349"
       y2="172"
       gradientUnits="userSpaceOnUse"
       gradientTransform="matrix(0,-1,1,0,148,492)" />
    <linearGradient
       inkscape:collect="always"
       xlink:href="#outerBackgroundGradient-7"
       id="linearGradient3870"
       gradientUnits="userSpaceOnUse"
       x1="418"
       y1="112"
       x2="438"
       y2="112"
       gradientTransform="matrix(0,-1,1,0,316,540)" />
    <linearGradient
       inkscape:collect="always"
       xlink:href="#outerBackgroundGradient-7"
       id="linearGradient5310"
       gradientUnits="userSpaceOnUse"
       x1="35"
       y1="156"
       x2="253"
       y2="156"
       gradientTransform="matrix(0,-1,1,0,-12,300)" />
    <linearGradient
       id="outerBackgroundGradient-7">
      <stop
         style="stop-color:#14bf96;stop-opacity:1"
         offset="0"
         id="stop3864-8-6-7" />
      <stop
         style="stop-color:#17deb0;stop-opacity:1"
         offset="1"
         id="stop3866-9-1-6" />
    </linearGradient>
  </defs>
  <metadata
     id="metadata4">
    <rdf:RDF>
      <cc:Work
         rdf:about="">
        <dc:format>image/svg+xml</dc:format>
        <dc:type
           rdf:resource="http://purl.org/dc/dcmitype/StillImage" />
        <dc:creator>
          <cc:Agent>
            <dc:title>Sam Hewitt</dc:title>
          </cc:Agent>
        </dc:creator>
        <dc:source />
        <cc:license
           rdf:resource="" />
        <dc:title />
        <dc:subject>
          <rdf:Bag />
        </dc:subject>
        <dc:date />
        <dc:rights>
          <cc:Agent>
            <dc:title />
          </cc:Agent>
        </dc:rights>
        <dc:publisher>
          <cc:Agent>
            <dc:title />
          </cc:Agent>
        </dc:publisher>
        <dc:identifier />
        <dc:relation />
        <dc:language />
        <dc:coverage />
        <dc:description />
        <dc:contributor>
          <cc:Agent>
            <dc:title />
          </cc:Agent>
        </dc:contributor>
      </cc:Work>
      <cc:Work
         rdf:about="">
        <dc:format>image/svg+xml</dc:format>
        <dc:type
           rdf:resource="http://purl.org/dc/dcmitype/StillImage" />
      </cc:Work>
    </rdf:RDF>
  </metadata>
  <g
     style="display:inline"
     inkscape:groupmode="layer"
     inkscape:label="Icon"
     id="layer1">
    <g
       style="display:none"
       inkscape:label="Baseplate"
       id="layer7"
       inkscape:groupmode="layer">
      <text
         y="19.745117"
         xml:space="preserve"
         x="15.006836"
         style="font-style:normal;font-variant:normal;font-weight:normal;font-stretch:normal;line-height:0%;font-family:'DejaVu Sans';-inkscape-font-specification:'DejaVu Sans';display:inline;fill:#000000;fill-opacity:1;stroke:none;enable-background:new"
         inkscape:label="context"
         id="context"><tspan
           style="font-style:normal;font-variant:normal;font-weight:normal;font-stretch:normal;font-size:18px;line-height:1.25;font-family:'DejaVu Sans';-inkscape-font-specification:'DejaVu Sans'"
           y="19.745117"
           x="15.006836"
           sodipodi:role="line"
           id="tspan3933">apps</tspan></text>
      <text
         y="19.745117"
         xml:space="preserve"
         x="122.48828"
         style="font-style:normal;font-variant:normal;font-weight:bold;font-stretch:normal;line-height:0%;font-family:'DejaVu Sans';-inkscape-font-specification:'DejaVu Sans Bold';text-align:start;writing-mode:lr-tb;text-anchor:start;display:inline;fill:#000000;fill-opacity:1;stroke:none;enable-background:new"
         inkscape:label="icon-name"
         id="icon-name"><tspan
           style="font-style:normal;font-variant:normal;font-weight:bold;font-stretch:normal;font-size:18px;line-height:1.25;font-family:'DejaVu Sans';-inkscape-font-specification:'DejaVu Sans Bold';opacity:0.99"
           y="19.745117"
           x="122.48828"
           sodipodi:role="line"
           id="tspan3937">web-khan-academy</tspan></text>
      <rect
         style="display:inline;overflow:visible;visibility:visible;fill:#eeeeec;fill-opacity:1;fill-rule:nonzero;stroke:none;stroke-width:2;marker:none;enable-background:accumulate"
         id="rect16x16"
         width="16"
         height="16"
         x="416"
         y="140"
         inkscape:label="16x16" />
      <rect
         style="display:inline;overflow:visible;visibility:visible;fill:#d4d4d4;fill-opacity:1;fill-rule:nonzero;stroke:none;stroke-width:2;marker:none;enable-background:accumulate"
         id="rect24x24"
         width="24"
         height="24"
         x="416"
         y="100"
         inkscape:label="24x24" />
      <rect
         style="display:inline;overflow:visible;visibility:visible;fill:#eeeeec;fill-opacity:1;fill-rule:nonzero;stroke:none;stroke-width:2;marker:none;enable-background:accumulate"
         id="rect32x32"
         width="32"
         height="32"
         x="416"
         y="52"
         inkscape:label="32x32" />
      <rect
         inkscape:label="22x22"
         y="101"
         x="417"
         height="22"
         width="22"
         id="rect22x22"
         style="display:inline;overflow:visible;visibility:visible;fill:#eeeeec;fill-opacity:1;fill-rule:nonzero;stroke:none;stroke-width:2;marker:none;enable-background:accumulate" />
      <rect
         inkscape:label="48x48"
         y="220"
         x="288"
         height="48"
         width="48"
         id="rect48x48"
         style="display:inline;overflow:visible;visibility:visible;fill:#eeeeec;fill-opacity:1;fill-rule:nonzero;stroke:none;stroke-width:2;marker:none;enable-background:accumulate" />
      <rect
         style="display:inline;overflow:visible;visibility:visible;fill:#eeeeec;fill-opacity:1;fill-rule:nonzero;stroke:none;stroke-width:2;marker:none;enable-background:accumulate"
         id="rect256x256"
         width="256"
         height="256"
         x="16"
         y="28"
         inkscape:label="256x256" />
      <rect
         style="display:inline;overflow:visible;visibility:visible;fill:#eeeeec;fill-opacity:1;fill-rule:nonzero;stroke:none;stroke-width:2;marker:none;enable-background:accumulate"
         id="rect64x64"
         width="64"
         height="64"
         x="288"
         y="140"
         inkscape:label="64x64" />
      <rect
         style="display:inline;overflow:visible;visibility:visible;fill:#eeeeec;fill-opacity:1;fill-rule:nonzero;stroke:none;stroke-width:2;marker:none;enable-background:accumulate"
         id="rect96x96"
         width="96"
         height="96"
         x="288"
         y="28"
         inkscape:label="96x96" />
    </g>
    <g
       inkscape:groupmode="layer"
       id="layer4"
       inkscape:label="Shadow"
       style="display:inline"
       sodipodi:insensitive="true">
      <rect
         ry="50"
         y="47"
         x="34"
         height="220"
         width="220"
         id="rect4114"
         style="color:#bebebe;display:inline;overflow:visible;visibility:visible;opacity:0.1;fill:#000000;fill-opacity:1;fill-rule:nonzero;stroke:none;stroke-width:0;marker:none;enable-background:accumulate" />
      <rect
         style="color:#bebebe;display:inline;overflow:visible;visibility:visible;opacity:0.1;fill:#000000;fill-opacity:1;fill-rule:nonzero;stroke:none;stroke-width:0;marker:none;enable-background:accumulate"
         id="rect4120"
         width="30"
         height="30"
         x="417"
         y="54"
         ry="7" />
      <rect
         transform="scale(1,-1)"
         ry="9"
         y="-266"
         x="291"
         height="42"
         width="42"
         id="rect4122"
         style="color:#bebebe;display:inline;overflow:visible;visibility:visible;opacity:0.1;fill:#000000;fill-opacity:1;fill-rule:nonzero;stroke:none;stroke-width:0;marker:none;enable-background:accumulate" />
      <rect
         style="color:#bebebe;display:inline;overflow:visible;visibility:visible;opacity:0.1;fill:#000000;fill-opacity:1;fill-rule:nonzero;stroke:none;stroke-width:0;marker:none;enable-background:accumulate"
         id="rect4124"
         width="88"
         height="88"
         x="292"
         y="33"
         ry="18" />
      <rect
         ry="12.5"
         y="143"
         x="290"
         height="60"
         width="60"
         id="rect4126"
         style="color:#bebebe;display:inline;overflow:visible;visibility:visible;opacity:0.1;fill:#000000;fill-opacity:1;fill-rule:nonzero;stroke:none;stroke-width:0;marker:none;enable-background:accumulate" />
      <path
         id="path4268"
         d="m 422,101 c -2.77,0 -5,2.23 -5,5 v 12 c 0,2.77 2.23,5 5,5 h 12 c 2.77,0 5,-2.23 5,-5 v -12 c 0,-2.77 -2.23,-5 -5,-5 z"
         style="color:#bebebe;display:inline;overflow:visible;visibility:visible;opacity:0.1;fill:#000000;fill-opacity:1;fill-rule:nonzero;stroke:none;stroke-width:0;marker:none;enable-background:accumulate"
         inkscape:connector-curvature="0"
         sodipodi:nodetypes="sssssssss" />
      <path
         id="path4270"
         d="m 419,140 c -1.662,0 -3,1.338 -3,3 v 10 c 0,1.662 1.338,3 3,3 h 10 c 1.662,0 3,-1.338 3,-3 v -10 c 0,-1.662 -1.338,-3 -3,-3 z"
         style="color:#bebebe;display:inline;overflow:visible;visibility:visible;opacity:0.1;fill:#000000;fill-opacity:1;fill-rule:nonzero;stroke:none;stroke-width:0;marker:none;enable-background:accumulate"
         inkscape:connector-curvature="0"
         sodipodi:nodetypes="sssssssss" />
    </g>
    <g
       inkscape:groupmode="layer"
       id="layer2"
       inkscape:label="Background"
       style="display:inline">
      <path
         style="color:#bebebe;display:inline;overflow:visible;visibility:visible;fill:url(#linearGradient5310);fill-opacity:1;fill-rule:nonzero;stroke:none;stroke-width:2;marker:none;enable-background:accumulate"
         d="M 84,46.5 C 56.56874,46.5 34.5,68.56873 34.5,96 v 120 c 0,27.43127 22.06874,49.5 49.5,49.5 h 120 c 27.43127,0 49.5,-22.06873 49.5,-49.5 V 96 C 253.5,68.56873 231.43127,46.5 204,46.5 Z"
         id="path4200"
         inkscape:connector-curvature="0" />
      <path
         style="color:#bebebe;display:inline;overflow:visible;visibility:visible;fill:url(#linearGradient4256);fill-opacity:1;fill-rule:nonzero;stroke:none;stroke-width:2;marker:none;enable-background:accumulate"
         d="m 419,140.5 c -1.3844,0 -2.5,1.1156 -2.5,2.5 v 10 c 0,1.3844 1.1156,2.5 2.5,2.5 h 10 c 1.3844,0 2.5,-1.1156 2.5,-2.5 v -10 c 0,-1.3844 -1.1156,-2.5 -2.5,-2.5 z"
         id="path4202"
         inkscape:connector-curvature="0" />
      <path
         style="color:#bebebe;display:inline;overflow:visible;visibility:visible;fill:url(#linearGradient3870);fill-opacity:1;fill-rule:nonzero;stroke:none;stroke-width:2;marker:none;enable-background:accumulate"
         d="m 422,101.5 c -2.49699,0 -4.5,2.00301 -4.5,4.5 v 12 c 0,2.49699 2.00301,4.5 4.5,4.5 h 12 c 2.49699,0 4.5,-2.00301 4.5,-4.5 v -12 c 0,-2.49699 -2.00301,-4.5 -4.5,-4.5 z"
         id="path4204"
         inkscape:connector-curvature="0" />
      <path
         style="color:#bebebe;display:inline;overflow:visible;visibility:visible;fill:url(#linearGradient4260);fill-opacity:1;fill-rule:nonzero;stroke:none;stroke-width:2;marker:none;enable-background:accumulate"
         d="m 424,53.5 c -3.60654,0 -6.5,2.89346 -6.5,6.5 v 16 c 0,3.60654 2.89346,6.5 6.5,6.5 h 16 c 3.60654,0 6.5,-2.89346 6.5,-6.5 V 60 c 0,-3.60654 -2.89346,-6.5 -6.5,-6.5 z"
         id="path4206"
         inkscape:connector-curvature="0" />
      <path
         style="color:#bebebe;display:inline;overflow:visible;visibility:visible;fill:url(#linearGradient4262);fill-opacity:1;fill-rule:nonzero;stroke:none;stroke-width:2;marker:none;enable-background:accumulate"
         d="m 300,223.5 c -4.71531,0 -8.5,3.78469 -8.5,8.5 v 24 c 0,4.71531 3.78469,8.5 8.5,8.5 h 24 c 4.71531,0 8.5,-3.78469 8.5,-8.5 v -24 c 0,-4.71531 -3.78469,-8.5 -8.5,-8.5 z"
         id="path4208"
         inkscape:connector-curvature="0" />
      <path
         style="color:#bebebe;display:inline;overflow:visible;visibility:visible;fill:url(#linearGradient4264);fill-opacity:1;fill-rule:nonzero;stroke:none;stroke-width:2;marker:none;enable-background:accumulate"
         d="m 310,32.5 c -9.70255,0 -17.5,7.79745 -17.5,17.5 v 52 c 0,9.70255 7.79745,17.5 17.5,17.5 h 52 c 9.70255,0 17.5,-7.79745 17.5,-17.5 V 50 c 0,-9.70255 -7.79745,-17.5 -17.5,-17.5 z"
         id="path4210"
         inkscape:connector-curvature="0" />
      <path
         style="color:#bebebe;display:inline;overflow:visible;visibility:visible;fill:url(#linearGradient4266);fill-opacity:1;fill-rule:nonzero;stroke:none;stroke-width:2;marker:none;enable-background:accumulate"
         d="m 302.5,142.5 c -6.65502,0 -12,5.34498 -12,12 v 35 c 0,6.65502 5.34498,12 12,12 h 35 c 6.65502,0 12,-5.34498 12,-12 v -35 c 0,-6.65502 -5.34498,-12 -12,-12 z"
         id="path4212"
         inkscape:connector-curvature="0" />
    </g>
    <g
       inkscape:groupmode="layer"
       id="layer6"
       inkscape:label="Symbols"
       style="display:inline">
      <path
         id="path15-7"
         style="display:inline;opacity:0.2;fill:#000000;fill-opacity:1;fill-rule:evenodd;enable-background:new"
         d="m 335.97656,45.00006 c -1.29557,0.0055 -2.57304,0.304656 -3.73633,0.875 l -22.16796,12.384766 c -2.21396,1.401883 -3.61712,3.784352 -3.76954,6.40039 v 24.679688 c 0.15242,2.616038 1.55558,4.998507 3.76954,6.40039 l 22.14648,12.384766 c 2.3786,1.16537 5.16242,1.16537 7.54102,0 l 22.16796,-12.384766 c 2.21396,-1.401883 3.61712,-3.784352 3.76954,-6.40039 V 64.660216 c -0.15242,-2.616038 -1.55558,-4.998507 -3.76954,-6.40039 L 339.78125,45.87506 c -1.18402,-0.5805 -2.48603,-0.879936 -3.80469,-0.875 z m 0.0352,13.123047 c 3.78607,2.46e-4 6.85522,3.0694 6.85547,6.855469 8.3e-4,3.786832 -3.06864,6.857177 -6.85547,6.857422 -3.78683,-2.45e-4 -6.8563,-3.07059 -6.85547,-6.857422 2.5e-4,-3.786069 3.0694,-6.855223 6.85547,-6.855469 z M 313.27344,70.87506 c 12.38635,0.04571 21.52734,10.192742 21.52734,22.693359 v 0.525391 h 2.4668 v -0.525391 c 0,-12.500617 9.18748,-22.693359 21.48242,-22.693359 0.0686,0.777004 0.11425,1.553859 0.22852,2.285156 0.0468,9.4493 -5.77251,17.936576 -14.60352,21.298828 -2.65142,0.963775 -5.45033,1.45879 -8.27148,1.462891 -2.79955,-0.0039 -5.5767,-0.499006 -8.20508,-1.462891 -8.84375,-3.349782 -14.67504,-11.842063 -14.625,-21.298828 z"
         sodipodi:nodetypes="ccccccccccccccccccccsccsccccccc" />
      <path
         id="path3929-3"
         style="display:inline;opacity:0.2;fill:#000000;fill-opacity:1;fill-rule:evenodd;enable-background:new"
         d="m 320.03906,151.00006 c -0.90905,-0.005 -1.80681,0.20137 -2.62304,0.60156 l -15.24024,8.51563 c -1.52242,0.96293 -2.4879,2.60015 -2.59375,4.39843 v 16.96876 c 0.10585,1.79828 1.07133,3.4355 2.59375,4.39843 l 15.22461,8.51563 c 1.63505,0.80091 3.54854,0.80091 5.18359,0 l 15.24024,-8.51563 c 1.52242,-0.96293 2.4879,-2.60015 2.59375,-4.39843 v -16.96876 c -0.10585,-1.79828 -1.07133,-3.4355 -2.59375,-4.39843 l -15.22461,-8.51563 c -0.79728,-0.39091 -1.67261,-0.59655 -2.56055,-0.60156 z m -0.0312,9.02148 c 2.6035,3e-4 4.71367,2.11135 4.71289,4.71485 -3e-4,2.60273 -2.11016,4.71259 -4.71289,4.71289 -2.60273,-3e-4 -4.71259,-2.11016 -4.71289,-4.71289 -7.8e-4,-2.6035 2.10939,-4.71455 4.71289,-4.71485 z m -15.63281,8.76758 c 8.51561,0.0314 14.80078,7.0074 14.80078,15.60156 v 0.36133 h 1.69531 v -0.36133 c 0,-8.59416 6.31678,-15.60156 14.76953,-15.60156 0.0471,0.53419 0.0796,1.06951 0.15821,1.57227 0.0318,6.49654 -3.96939,12.33144 -10.04102,14.64258 -1.82311,0.66273 -3.74767,1.0031 -5.6875,1.00586 -1.92457,-0.003 -3.83373,-0.34319 -5.64062,-1.00586 -6.07995,-2.30293 -10.08894,-8.14119 -10.05469,-14.64258 z"
         sodipodi:nodetypes="ccccccccccccccccccccsccsccccccc" />
      <path
         id="path4169-6"
         style="display:inline;opacity:0.2;fill:#000000;fill-opacity:1;fill-rule:evenodd;enable-background:new"
         d="m 312.04297,229.00006 c -0.66592,-0.005 -1.32395,0.1443 -1.92188,0.4375 l -11.08398,6.19336 c -1.10745,0.7003 -1.80977,1.89118 -1.88672,3.19922 v 12.33984 c 0.077,1.30804 0.77927,2.49892 1.88672,3.19922 l 11.07227,6.19336 c 1.18903,0.58237 2.5805,0.58237 3.76953,0 l 11.08398,-6.19336 c 1.10745,-0.7003 1.80977,-1.89118 1.88672,-3.19922 v -12.33984 c -0.077,-1.30804 -0.77927,-2.49892 -1.88672,-3.19922 l -11.07227,-6.19336 c -0.57542,-0.28217 -1.2068,-0.43167 -1.84765,-0.4375 z m -0.12891,6.5625 c 0.0306,-4.1e-4 0.0612,-4.1e-4 0.0918,0 1.89303,1.3e-4 3.4276,1.5347 3.42773,3.42773 -1.2e-4,1.89303 -1.5347,3.42761 -3.42773,3.42774 -1.89304,-1.2e-4 -3.42762,-1.5347 -3.42774,-3.42774 -5.5e-4,-1.85776 1.47885,-3.37786 3.33594,-3.42773 z m -11.27734,6.375 c 6.19318,0.0229 10.76367,5.09735 10.76367,11.34766 v 0.26172 h 1.23438 v -0.26172 c 0,-6.25031 4.59276,-11.34766 10.74023,-11.34766 0.0343,0.3885 0.0581,0.77693 0.11523,1.14258 0.0236,4.72525 -2.88651,8.96946 -7.30273,10.65039 -1.32608,0.48167 -2.72587,0.72885 -4.13672,0.73047 -1.39939,-0.002 -2.78762,-0.24897 -4.10156,-0.73047 -4.42221,-1.67502 -7.33793,-5.92165 -7.3125,-10.65039 z"
         sodipodi:nodetypes="cccccccccccccccccccccsccsccccccc" />
      <path
         id="path4229-1"
         style="display:inline;opacity:0.2;fill:#000000;fill-opacity:1;fill-rule:evenodd;enable-background:new"
         d="m 144.05859,77.00006 c -3.27803,-0.0046 -6.51339,0.743151 -9.45703,2.185547 L 79.183594,110.15045 c -5.53557,3.50323 -9.044907,9.45828 -9.427735,15.99805 v 61.70312 c 0.382828,6.53977 3.892165,12.49482 9.427735,15.99805 l 55.361326,30.96484 c 5.94677,2.91375 12.90675,2.91375 18.85352,0 l 55.41797,-30.96484 c 5.53557,-3.50324 9.0449,-9.45828 9.42773,-15.99805 V 126.1485 c -0.38283,-6.53977 -3.89216,-12.49481 -9.42773,-15.99805 L 153.45508,79.185607 c -2.92528,-1.433401 -6.1389,-2.180864 -9.39649,-2.185547 z m -0.14843,32.80859 h 0.002 c 0.0391,-1.3e-4 0.0781,-1.3e-4 0.11719,0 9.46594,6.2e-4 17.13914,7.67469 17.13867,17.14063 -6.2e-4,9.46517 -7.6735,17.13805 -17.13867,17.13867 -9.46594,4.7e-4 -17.14001,-7.67273 -17.14063,-17.13867 -6.9e-4,-9.42037 7.60135,-17.07561 17.02149,-17.14063 z M 87.181641,141.68756 C 118.14752,141.80182 141,167.17039 141,198.42194 v 1.3125 h 6.16992 v -1.3125 c 0,-31.25155 22.96773,-56.73438 53.70508,-56.73438 0.1714,1.94251 0.28661,3.8866 0.57227,5.71484 0.1167,23.62265 -14.43102,44.84027 -36.50782,53.2461 -6.62942,2.4101 -13.62773,3.64798 -20.68164,3.6582 -6.9986,-0.0101 -13.94113,-1.24827 -20.51172,-3.6582 -22.1098,-8.37369 -36.688829,-29.60405 -36.564449,-53.2461 z"
         sodipodi:nodetypes="cccccccccccccccscccccccsccsccccccc" />
      <path
         id="path4289-2"
         style="display:inline;opacity:0.2;fill:#000000;fill-opacity:1;fill-rule:evenodd;enable-background:new"
         d="m 431.98438,59.00006 c -0.40169,0.0031 -0.79753,0.09658 -1.15821,0.273438 l -6.92773,3.871093 c -0.69194,0.437281 -1.13103,1.180961 -1.17969,1.998047 v 7.714844 c 0.0487,0.817086 0.48775,1.560766 1.17969,1.998047 l 6.91992,3.871093 c 0.74301,0.36382 1.61246,0.36382 2.35547,0 l 6.92773,-3.871093 c 0.69194,-0.437281 1.13103,-1.180961 1.17969,-1.998047 v -7.714844 c -0.0487,-0.817086 -0.48775,-1.560766 -1.17969,-1.998047 l -6.91992,-3.871093 c -0.37252,-0.182655 -0.78238,-0.276262 -1.19726,-0.273438 z m -0.0234,4.101562 c 0.0143,-1.44e-4 0.0287,-1.44e-4 0.043,0 1.18333,-5.3e-5 2.14263,0.959245 2.14257,2.142579 6e-5,1.183334 -0.95924,2.142631 -2.14257,2.142578 -1.18334,5.9e-5 -2.14264,-0.95924 -2.14258,-2.142578 -2.9e-4,-1.166757 0.93309,-2.119236 2.09961,-2.142579 z m -7.0625,3.984376 c 3.87073,0.01428 6.72656,3.185353 6.72656,7.091796 v 0.164063 h 0.77148 v -0.164063 c 0,-3.906443 2.87074,-7.091796 6.7129,-7.091796 0.0214,0.242812 0.0366,0.486312 0.0723,0.714843 0.0146,2.953254 -1.8043,5.605777 -4.56445,6.65625 -0.82892,0.301264 -1.70397,0.455917 -2.58594,0.457031 -0.87432,-0.0014 -1.74162,-0.156041 -2.5625,-0.457031 -2.7638,-1.046854 -4.5861,-3.700878 -4.57031,-6.65625 z"
         sodipodi:nodetypes="ccccccccccccccsccccsscsccsccccccc" />
      <path
         id="path4349-9"
         style="display:inline;opacity:0.2;fill:#000000;fill-opacity:1;fill-rule:evenodd;enable-background:new"
         d="m 427.99414,105.00006 c -0.32373,10e-4 -0.64292,0.0762 -0.93359,0.21875 l -5.54297,3.0957 c -0.55298,0.35059 -0.90337,0.94596 -0.94141,1.59961 v 6.17188 c 0.038,0.65365 0.38843,1.24902 0.94141,1.59961 l 5.53711,3.0957 c 0.59451,0.29118 1.29025,0.29118 1.88476,0 l 5.54297,-3.0957 c 0.55298,-0.35059 0.90337,-0.94596 0.94141,-1.59961 v -6.17188 c -0.038,-0.65365 -0.38843,-1.24902 -0.94141,-1.59961 l -5.53711,-3.0957 c -0.296,-0.14512 -0.62151,-0.21998 -0.95117,-0.21875 z m -0.041,3.28125 c 0.0163,-2.3e-4 0.0325,-2.3e-4 0.0488,0 0.94652,-4.8e-4 1.71425,0.76637 1.71485,1.71289 4.8e-4,0.94728 -0.76757,1.71532 -1.71485,1.71484 -0.94652,-6e-4 -1.71337,-0.76832 -1.71289,-1.71484 2e-4,-0.92703 0.73743,-1.68589 1.66406,-1.71289 z m -5.63476,3.1875 c 3.09659,0.0114 5.38086,2.54868 5.38086,5.67383 v 0.13086 h 0.61719 v -0.13086 c 0,-3.12515 2.29736,-5.67383 5.37109,-5.67383 0.0171,0.19425 0.028,0.38944 0.0566,0.57227 0.0116,2.36202 -1.443,4.48355 -3.65039,5.32421 -0.66304,0.24084 -1.36294,0.36443 -2.06836,0.36524 -0.69969,-8.7e-4 -1.39381,-0.12449 -2.05078,-0.36524 -2.21077,-0.83738 -3.66855,-2.9602 -3.65625,-5.32421 z"
         sodipodi:nodetypes="ccccccccccccccsccccsscsccsccccccc" />
      <path
         id="path4409-3"
         style="display:inline;opacity:0.2;fill:#000000;fill-opacity:1;fill-rule:evenodd;enable-background:new"
         d="m 424.02734,144.00006 c -0.21303,-0.004 -0.42395,0.0428 -0.61523,0.13672 l -3.46289,1.93555 c -0.34624,0.21884 -0.56582,0.59111 -0.58984,1 v 3.85546 c 0.024,0.40889 0.2436,0.78116 0.58984,1 l 3.45898,1.93555 c 0.37204,0.18255 0.80765,0.18255 1.17969,0 l 3.46289,-1.93555 c 0.34624,-0.21884 0.56582,-0.59111 0.58984,-1 v -3.85546 c -0.024,-0.40889 -0.2436,-0.78116 -0.58984,-1 l -3.45898,-1.93555 c -0.17589,-0.0863 -0.36857,-0.13299 -0.56446,-0.13672 z m -0.0547,2.05078 c 0.01,-1.3e-4 0.0195,-1.3e-4 0.0293,0 0.59091,5.1e-4 1.06981,0.4794 1.07032,1.07031 5.7e-4,0.59167 -0.47865,1.07176 -1.07032,1.07227 -0.59243,5.7e-4 -1.07283,-0.47984 -1.07226,-1.07227 3e-4,-0.5804 0.46277,-1.055 1.04297,-1.07031 z m -3.52344,1.99219 c 1.93537,0.007 3.36328,1.59169 3.36328,3.54492 v 0.084 h 0.38477 v -0.084 c 0,-1.95323 1.43634,-3.54492 3.35742,-3.54492 0.0107,0.12141 0.0172,0.24316 0.0351,0.35742 0.007,1.47638 -0.90156,2.80257 -2.28125,3.32813 -0.41446,0.15063 -0.85198,0.22795 -1.29297,0.22851 -0.43716,-6.8e-4 -0.8708,-0.078 -1.28124,-0.22851 -1.3819,-0.52343 -2.29306,-1.85044 -2.28516,-3.32813 z"
         sodipodi:nodetypes="sccccccccccccsscsscsscsccsccccccc" />
      <path
         id="path15"
         style="fill:#ffffff;fill-opacity:1;fill-rule:evenodd"
         d="m 335.97656,44 c -1.29557,0.0055 -2.57304,0.304656 -3.73633,0.875 l -22.16796,12.384766 c -2.21396,1.401883 -3.61712,3.784352 -3.76954,6.40039 v 24.679688 c 0.15242,2.616038 1.55558,4.998507 3.76954,6.40039 L 332.21875,107.125 c 2.3786,1.16537 5.16242,1.16537 7.54102,0 l 22.16796,-12.384766 c 2.21396,-1.401883 3.61712,-3.784352 3.76954,-6.40039 V 63.660156 c -0.15242,-2.616038 -1.55558,-4.998507 -3.76954,-6.40039 L 339.78125,44.875 C 338.59723,44.2945 337.29522,43.995064 335.97656,44 Z m 0.0352,13.123047 c 3.78607,2.46e-4 6.85522,3.0694 6.85547,6.855469 8.3e-4,3.786832 -3.06864,6.857177 -6.85547,6.857422 -3.78683,-2.45e-4 -6.8563,-3.07059 -6.85547,-6.857422 2.5e-4,-3.786069 3.0694,-6.855223 6.85547,-6.855469 z M 313.27344,69.875 c 12.38635,0.04571 21.52734,10.192742 21.52734,22.693359 v 0.525391 h 2.4668 v -0.525391 c 0,-12.500617 9.18748,-22.693359 21.48242,-22.693359 0.0686,0.777004 0.11425,1.553859 0.22852,2.285156 0.0468,9.4493 -5.77251,17.936576 -14.60352,21.298828 -2.65142,0.963775 -5.45033,1.45879 -8.27148,1.462891 -2.79955,-0.0039 -5.5767,-0.499006 -8.20508,-1.462891 -8.84375,-3.349782 -14.67504,-11.842063 -14.625,-21.298828 z"
         sodipodi:nodetypes="ccccccccccccccccccccsccsccccccc" />
      <path
         id="path3929"
         style="fill:#ffffff;fill-opacity:1;fill-rule:evenodd"
         d="m 320.03906,150 c -0.90905,-0.005 -1.80681,0.20137 -2.62304,0.60156 l -15.24024,8.51563 c -1.52242,0.96293 -2.4879,2.60015 -2.59375,4.39843 v 16.96876 c 0.10585,1.79828 1.07133,3.4355 2.59375,4.39843 l 15.22461,8.51563 c 1.63505,0.80091 3.54854,0.80091 5.18359,0 l 15.24024,-8.51563 c 1.52242,-0.96293 2.4879,-2.60015 2.59375,-4.39843 v -16.96876 c -0.10585,-1.79828 -1.07133,-3.4355 -2.59375,-4.39843 l -15.22461,-8.51563 C 321.80233,150.21065 320.927,150.00501 320.03906,150 Z m -0.0312,9.02148 c 2.6035,3e-4 4.71367,2.11135 4.71289,4.71485 -3e-4,2.60273 -2.11016,4.71259 -4.71289,4.71289 -2.60273,-3e-4 -4.71259,-2.11016 -4.71289,-4.71289 -7.8e-4,-2.6035 2.10939,-4.71455 4.71289,-4.71485 z m -15.63281,8.76758 c 8.51561,0.0314 14.80078,7.0074 14.80078,15.60156 v 0.36133 h 1.69531 v -0.36133 c 0,-8.59416 6.31678,-15.60156 14.76953,-15.60156 0.0471,0.53419 0.0796,1.06951 0.15821,1.57227 0.0318,6.49654 -3.96939,12.33144 -10.04102,14.64258 -1.82311,0.66273 -3.74767,1.0031 -5.6875,1.00586 -1.92457,-0.003 -3.83373,-0.34319 -5.64062,-1.00586 -6.07995,-2.30293 -10.08894,-8.14119 -10.05469,-14.64258 z"
         sodipodi:nodetypes="ccccccccccccccccccccsccsccccccc" />
      <path
         id="path4169"
         style="fill:#ffffff;fill-opacity:1;fill-rule:evenodd"
         d="m 312.04297,228 c -0.66592,-0.005 -1.32395,0.1443 -1.92188,0.4375 l -11.08398,6.19336 c -1.10745,0.7003 -1.80977,1.89118 -1.88672,3.19922 v 12.33984 c 0.077,1.30804 0.77927,2.49892 1.88672,3.19922 l 11.07227,6.19336 c 1.18903,0.58237 2.5805,0.58237 3.76953,0 l 11.08398,-6.19336 c 1.10745,-0.7003 1.80977,-1.89118 1.88672,-3.19922 v -12.33984 c -0.077,-1.30804 -0.77927,-2.49892 -1.88672,-3.19922 l -11.07227,-6.19336 c -0.57542,-0.28217 -1.2068,-0.43167 -1.84765,-0.4375 z m -0.12891,6.5625 c 0.0306,-4.1e-4 0.0612,-4.1e-4 0.0918,0 1.89303,1.3e-4 3.4276,1.5347 3.42773,3.42773 -1.2e-4,1.89303 -1.5347,3.42761 -3.42773,3.42774 -1.89304,-1.2e-4 -3.42762,-1.5347 -3.42774,-3.42774 -5.5e-4,-1.85776 1.47885,-3.37786 3.33594,-3.42773 z m -11.27734,6.375 c 6.19318,0.0229 10.76367,5.09735 10.76367,11.34766 v 0.26172 h 1.23438 v -0.26172 c 0,-6.25031 4.59276,-11.34766 10.74023,-11.34766 0.0343,0.3885 0.0581,0.77693 0.11523,1.14258 0.0236,4.72525 -2.88651,8.96946 -7.30273,10.65039 -1.32608,0.48167 -2.72587,0.72885 -4.13672,0.73047 -1.39939,-0.002 -2.78762,-0.24897 -4.10156,-0.73047 -4.42221,-1.67502 -7.33793,-5.92165 -7.3125,-10.65039 z"
         sodipodi:nodetypes="cccccccccccccccccccccsccsccccccc" />
      <path
         id="path4229"
         style="fill:#ffffff;fill-opacity:1;fill-rule:evenodd"
         d="m 144.05859,76 c -3.27803,-0.0046 -6.51339,0.743151 -9.45703,2.185547 L 79.183594,109.15039 c -5.53557,3.50323 -9.044907,9.45828 -9.427735,15.99805 v 61.70312 c 0.382828,6.53977 3.892165,12.49482 9.427735,15.99805 l 55.361326,30.96484 c 5.94677,2.91375 12.90675,2.91375 18.85352,0 l 55.41797,-30.96484 c 5.53557,-3.50324 9.0449,-9.45828 9.42773,-15.99805 v -61.70312 c -0.38283,-6.53977 -3.89216,-12.49481 -9.42773,-15.99805 L 153.45508,78.185547 C 150.5298,76.752146 147.31618,76.004683 144.05859,76 Z m -0.14843,32.80859 h 0.002 c 0.0391,-1.3e-4 0.0781,-1.3e-4 0.11719,0 9.46594,6.2e-4 17.13914,7.67469 17.13867,17.14063 -6.2e-4,9.46517 -7.6735,17.13805 -17.13867,17.13867 -9.46594,4.7e-4 -17.14001,-7.67273 -17.14063,-17.13867 -6.9e-4,-9.42037 7.60135,-17.07561 17.02149,-17.14063 z M 87.181641,140.6875 C 118.14752,140.80176 141,166.17033 141,197.42188 v 1.3125 h 6.16992 v -1.3125 c 0,-31.25155 22.96773,-56.73438 53.70508,-56.73438 0.1714,1.94251 0.28661,3.8866 0.57227,5.71484 0.1167,23.62265 -14.43102,44.84027 -36.50782,53.2461 -6.62942,2.4101 -13.62773,3.64798 -20.68164,3.6582 -6.9986,-0.0101 -13.94113,-1.24827 -20.51172,-3.6582 -22.1098,-8.37369 -36.688829,-29.60405 -36.564449,-53.2461 z"
         sodipodi:nodetypes="cccccccccccccccscccccccsccsccccccc" />
      <path
         id="path4289"
         style="fill:#ffffff;fill-opacity:1;fill-rule:evenodd"
         d="m 431.98438,58 c -0.40169,0.0031 -0.79753,0.09658 -1.15821,0.273438 l -6.92773,3.871093 c -0.69194,0.437281 -1.13103,1.180961 -1.17969,1.998047 v 7.714844 c 0.0487,0.817086 0.48775,1.560766 1.17969,1.998047 l 6.91992,3.871093 c 0.74301,0.36382 1.61246,0.36382 2.35547,0 l 6.92773,-3.871093 c 0.69194,-0.437281 1.13103,-1.180961 1.17969,-1.998047 v -7.714844 c -0.0487,-0.817086 -0.48775,-1.560766 -1.17969,-1.998047 l -6.91992,-3.871093 C 432.80912,58.090783 432.39926,57.997176 431.98438,58 Z m -0.0234,4.101562 c 0.0143,-1.44e-4 0.0287,-1.44e-4 0.043,0 1.18333,-5.3e-5 2.14263,0.959245 2.14257,2.142579 6e-5,1.183334 -0.95924,2.142631 -2.14257,2.142578 -1.18334,5.9e-5 -2.14264,-0.95924 -2.14258,-2.142578 -2.9e-4,-1.166757 0.93309,-2.119236 2.09961,-2.142579 z m -7.0625,3.984376 c 3.87073,0.01428 6.72656,3.185353 6.72656,7.091796 v 0.164063 h 0.77148 v -0.164063 c 0,-3.906443 2.87074,-7.091796 6.7129,-7.091796 0.0214,0.242812 0.0366,0.486312 0.0723,0.714843 0.0146,2.953254 -1.8043,5.605777 -4.56445,6.65625 -0.82892,0.301264 -1.70397,0.455917 -2.58594,0.457031 -0.87432,-0.0014 -1.74162,-0.156041 -2.5625,-0.457031 -2.7638,-1.046854 -4.5861,-3.700878 -4.57031,-6.65625 z"
         sodipodi:nodetypes="ccccccccccccccsccccsscsccsccccccc" />
      <path
         id="path4349"
         style="fill:#ffffff;fill-opacity:1;fill-rule:evenodd"
         d="m 427.99414,104 c -0.32373,0.001 -0.64292,0.0762 -0.93359,0.21875 l -5.54297,3.0957 c -0.55298,0.35059 -0.90337,0.94596 -0.94141,1.59961 v 6.17188 c 0.038,0.65365 0.38843,1.24902 0.94141,1.59961 l 5.53711,3.0957 c 0.59451,0.29118 1.29025,0.29118 1.88476,0 l 5.54297,-3.0957 c 0.55298,-0.35059 0.90337,-0.94596 0.94141,-1.59961 v -6.17188 c -0.038,-0.65365 -0.38843,-1.24902 -0.94141,-1.59961 l -5.53711,-3.0957 c -0.296,-0.14512 -0.62151,-0.21998 -0.95117,-0.21875 z m -0.041,3.28125 c 0.0163,-2.3e-4 0.0325,-2.3e-4 0.0488,0 0.94652,-4.8e-4 1.71425,0.76637 1.71485,1.71289 4.8e-4,0.94728 -0.76757,1.71532 -1.71485,1.71484 -0.94652,-6e-4 -1.71337,-0.76832 -1.71289,-1.71484 2e-4,-0.92703 0.73743,-1.68589 1.66406,-1.71289 z m -5.63476,3.1875 c 3.09659,0.0114 5.38086,2.54868 5.38086,5.67383 v 0.13086 h 0.61719 v -0.13086 c 0,-3.12515 2.29736,-5.67383 5.37109,-5.67383 0.0171,0.19425 0.028,0.38944 0.0566,0.57227 0.0116,2.36202 -1.443,4.48355 -3.65039,5.32421 -0.66304,0.24084 -1.36294,0.36443 -2.06836,0.36524 -0.69969,-8.7e-4 -1.39381,-0.12449 -2.05078,-0.36524 -2.21077,-0.83738 -3.66855,-2.9602 -3.65625,-5.32421 z"
         sodipodi:nodetypes="ccccccccccccccsccccsscsccsccccccc" />
      <path
         id="path4409"
         style="fill:#ffffff;fill-opacity:1;fill-rule:evenodd"
         d="m 424.02734,143 c -0.21303,-0.004 -0.42395,0.0428 -0.61523,0.13672 l -3.46289,1.93555 c -0.34624,0.21884 -0.56582,0.59111 -0.58984,1 v 3.85546 c 0.024,0.40889 0.2436,0.78116 0.58984,1 l 3.45898,1.93555 c 0.37204,0.18255 0.80765,0.18255 1.17969,0 l 3.46289,-1.93555 c 0.34624,-0.21884 0.56582,-0.59111 0.58984,-1 v -3.85546 c -0.024,-0.40889 -0.2436,-0.78116 -0.58984,-1 l -3.45898,-1.93555 c -0.17589,-0.0863 -0.36857,-0.13299 -0.56446,-0.13672 z m -0.0547,2.05078 c 0.01,-1.3e-4 0.0195,-1.3e-4 0.0293,0 0.59091,5.1e-4 1.06981,0.4794 1.07032,1.07031 5.7e-4,0.59167 -0.47865,1.07176 -1.07032,1.07227 -0.59243,5.7e-4 -1.07283,-0.47984 -1.07226,-1.07227 3e-4,-0.5804 0.46277,-1.055 1.04297,-1.07031 z m -3.52344,1.99219 c 1.93537,0.007 3.36328,1.59169 3.36328,3.54492 v 0.084 h 0.38477 v -0.084 c 0,-1.95323 1.43634,-3.54492 3.35742,-3.54492 0.0107,0.12141 0.0172,0.24316 0.0351,0.35742 0.007,1.47638 -0.90156,2.80257 -2.28125,3.32813 -0.41446,0.15063 -0.85198,0.22795 -1.29297,0.22851 -0.43716,-6.8e-4 -0.8708,-0.078 -1.28124,-0.22851 -1.3819,-0.52343 -2.29306,-1.85044 -2.28516,-3.32813 z"
         sodipodi:nodetypes="sccccccccccccsscsscsscsccsccccccc" />
    </g>
    <g
       inkscape:groupmode="layer"
       id="layer5"
       inkscape:label="Highlights"
       style="display:inline"
       sodipodi:insensitive="true">
      <path
         style="color:#bebebe;display:inline;overflow:visible;visibility:visible;opacity:0.13;fill:#ffffff;fill-opacity:1;fill-rule:nonzero;stroke:none;stroke-width:0;marker:none;enable-background:accumulate"
         d="M 84,47 C 56.836703,47 35,68.836703 35,96 v 1 C 35,69.836703 56.836703,48 84,48 h 120 c 27.1633,0 49,21.836703 49,49 V 96 C 253,68.836703 231.1633,47 204,47 Z"
         id="rect3894"
         inkscape:connector-curvature="0" />
      <path
         style="color:#bebebe;display:inline;overflow:visible;visibility:visible;opacity:0.13;fill:#ffffff;fill-opacity:1;fill-rule:nonzero;stroke:none;stroke-width:0;marker:none;enable-background:accumulate"
         d="m 419,141 c -1.1253,0 -2,0.8747 -2,2 v 1 c 0,-1.1253 0.8747,-2 2,-2 h 10 c 1.1253,0 2,0.8747 2,2 v -1 c 0,-1.1253 -0.8747,-2 -2,-2 z"
         id="rect3896"
         inkscape:connector-curvature="0" />
      <path
         style="color:#bebebe;display:inline;overflow:visible;visibility:visible;opacity:0.13;fill:#ffffff;fill-opacity:1;fill-rule:nonzero;stroke:none;stroke-width:0;marker:none;enable-background:accumulate"
         d="m 422,102 c -2.2333,0 -4,1.7667 -4,4 v 1 c 0,-2.2333 1.7667,-4 4,-4 h 12 c 2.2333,0 4,1.7667 4,4 v -1 c 0,-2.2333 -1.7667,-4 -4,-4 z"
         id="rect3898"
         inkscape:connector-curvature="0" />
      <path
         style="color:#bebebe;display:inline;overflow:visible;visibility:visible;opacity:0.13;fill:#ffffff;fill-opacity:1;fill-rule:nonzero;stroke:none;stroke-width:0;marker:none;enable-background:accumulate"
         d="m 424,54 c -3.3413,0 -6,2.658703 -6,6 v 1 c 0,-3.341297 2.6587,-6 6,-6 h 16 c 3.3413,0 6,2.658703 6,6 v -1 c 0,-3.341297 -2.6587,-6 -6,-6 z"
         id="rect3900"
         inkscape:connector-curvature="0" />
      <path
         style="color:#bebebe;display:inline;overflow:visible;visibility:visible;opacity:0.13;fill:#ffffff;fill-opacity:1;fill-rule:nonzero;stroke:none;stroke-width:0;marker:none;enable-background:accumulate"
         d="m 300,224 c -4.4493,0 -8,3.5507 -8,8 v 1 c 0,-4.4493 3.5507,-8 8,-8 h 24 c 4.4493,0 8,3.5507 8,8 v -1 c 0,-4.4493 -3.5507,-8 -8,-8 z"
         id="rect3902"
         inkscape:connector-curvature="0" />
      <path
         style="color:#bebebe;display:inline;overflow:visible;visibility:visible;opacity:0.13;fill:#ffffff;fill-opacity:1;fill-rule:nonzero;stroke:none;stroke-width:0;marker:none;enable-background:accumulate"
         d="m 310,33 c -9.4353,0 -17,7.564703 -17,17 v 1 c 0,-9.435297 7.5647,-17 17,-17 h 52 c 9.4353,0 17,7.564703 17,17 v -1 c 0,-9.435297 -7.5647,-17 -17,-17 z"
         id="rect3904"
         inkscape:connector-curvature="0" />
      <path
         style="color:#bebebe;display:inline;overflow:visible;visibility:visible;opacity:0.13;fill:#ffffff;fill-opacity:1;fill-rule:nonzero;stroke:none;stroke-width:0;marker:none;enable-background:accumulate"
         d="m 302.5,143 c -6.3883,0 -11.5,5.1117 -11.5,11.5 v 1 c 0,-6.3883 5.1117,-11.5 11.5,-11.5 h 35 c 6.3883,0 11.5,5.1117 11.5,11.5 v -1 c 0,-6.3883 -5.1117,-11.5 -11.5,-11.5 z"
         id="rect3906"
         inkscape:connector-curvature="0" />
      <path
         id="path4085"
         d="m 204,266 c 27.1633,0 49,-21.8367 49,-49 v -1 c 0,27.1633 -21.8367,49 -49,49 H 84 C 56.8367,265 35,243.1633 35,216 v 1 c 0,27.1633 21.8367,49 49,49 z"
         style="color:#bebebe;display:inline;overflow:visible;visibility:visible;opacity:0.5;fill:#000000;fill-opacity:1;fill-rule:nonzero;stroke:none;stroke-width:0;marker:none;enable-background:accumulate"
         inkscape:connector-curvature="0" />
      <path
         id="path4087"
         d="m 429,156 c 1.1253,0 2,-0.8747 2,-2 v -1 c 0,1.1253 -0.8747,2 -2,2 h -10 c -1.1253,0 -2,-0.8747 -2,-2 v 1 c 0,1.1253 0.8747,2 2,2 z"
         style="color:#bebebe;display:inline;overflow:visible;visibility:visible;opacity:0.3;fill:#000000;fill-opacity:1;fill-rule:nonzero;stroke:none;stroke-width:0;marker:none;enable-background:accumulate"
         inkscape:connector-curvature="0" />
      <path
         id="path4089"
         d="m 434,123 c 2.2333,0 4,-1.7667 4,-4 v -1 c 0,2.2333 -1.7667,4 -4,4 h -12 c -2.2333,0 -4,-1.7667 -4,-4 v 1 c 0,2.2333 1.7667,4 4,4 z"
         style="color:#bebebe;display:inline;overflow:visible;visibility:visible;opacity:0.3;fill:#000000;fill-opacity:1;fill-rule:nonzero;stroke:none;stroke-width:0;marker:none;enable-background:accumulate"
         inkscape:connector-curvature="0" />
      <path
         id="path4091"
         d="m 440,83 c 3.3413,0 6,-2.6587 6,-6 v -1 c 0,3.3413 -2.6587,6 -6,6 h -16 c -3.3413,0 -6,-2.6587 -6,-6 v 1 c 0,3.3413 2.6587,6 6,6 z"
         style="color:#bebebe;display:inline;overflow:visible;visibility:visible;opacity:0.5;fill:#000000;fill-opacity:1;fill-rule:nonzero;stroke:none;stroke-width:0;marker:none;enable-background:accumulate"
         inkscape:connector-curvature="0" />
      <path
         id="path4093"
         d="m 324,265 c 4.4493,0 8,-3.5507 8,-8 v -1 c 0,4.4493 -3.5507,8 -8,8 h -24 c -4.4493,0 -8,-3.5507 -8,-8 v 1 c 0,4.4493 3.5507,8 8,8 z"
         style="color:#bebebe;display:inline;overflow:visible;visibility:visible;opacity:0.5;fill:#000000;fill-opacity:1;fill-rule:nonzero;stroke:none;stroke-width:0;marker:none;enable-background:accumulate"
         inkscape:connector-curvature="0" />
      <path
         id="path4095"
         d="m 362,120 c 9.4353,0 17,-7.5647 17,-17 v -1 c 0,9.4353 -7.5647,17 -17,17 h -52 c -9.4353,0 -17,-7.5647 -17,-17 v 1 c 0,9.4353 7.5647,17 17,17 z"
         style="color:#bebebe;display:inline;overflow:visible;visibility:visible;opacity:0.5;fill:#000000;fill-opacity:1;fill-rule:nonzero;stroke:none;stroke-width:0;marker:none;enable-background:accumulate"
         inkscape:connector-curvature="0" />
      <path
         id="path4097"
         d="m 337.5,202 c 6.3883,0 11.5,-5.1117 11.5,-11.5 v -1 c 0,6.3883 -5.1117,11.5 -11.5,11.5 h -35 c -6.3883,0 -11.5,-5.1117 -11.5,-11.5 v 1 c 0,6.3883 5.1117,11.5 11.5,11.5 z"
         style="color:#bebebe;display:inline;overflow:visible;visibility:visible;opacity:0.5;fill:#000000;fill-opacity:1;fill-rule:nonzero;stroke:none;stroke-width:0;marker:none;enable-background:accumulate"
         inkscape:connector-curvature="0" />
      <path
         inkscape:connector-curvature="0"
         id="path4280"
         d="M 84,265 C 56.836703,265 35,243.1633 35,216 v -1 c 0,27.1633 21.836703,49 49,49 h 120 c 27.1633,0 49,-21.8367 49,-49 v 1 c 0,27.1633 -21.8367,49 -49,49 z"
         style="color:#bebebe;display:inline;overflow:visible;visibility:visible;opacity:0.1;fill:#ffffff;fill-opacity:1;fill-rule:nonzero;stroke:none;stroke-width:0;marker:none;enable-background:accumulate" />
      <path
         style="color:#bebebe;display:inline;overflow:visible;visibility:visible;opacity:0.1;fill:#ffffff;fill-opacity:1;fill-rule:nonzero;stroke:none;stroke-width:0;marker:none;enable-background:accumulate"
         d="m 300,264 c -4.4493,0 -8,-3.5507 -8,-8 v -1 c 0,4.4493 3.5507,8 8,8 h 24 c 4.4493,0 8,-3.5507 8,-8 v 1 c 0,4.4493 -3.5507,8 -8,8 z"
         id="path4294"
         inkscape:connector-curvature="0" />
      <path
         style="color:#bebebe;display:inline;overflow:visible;visibility:visible;opacity:0.1;fill:#ffffff;fill-opacity:1;fill-rule:nonzero;stroke:none;stroke-width:0;marker:none;enable-background:accumulate"
         d="m 302.5,201 c -6.3883,0 -11.5,-5.1117 -11.5,-11.5 v -1 c 0,6.3883 5.1117,11.5 11.5,11.5 h 35 c 6.3883,0 11.5,-5.1117 11.5,-11.5 v 1 c 0,6.3883 -5.1117,11.5 -11.5,11.5 z"
         id="path4296"
         inkscape:connector-curvature="0" />
      <path
         style="color:#bebebe;display:inline;overflow:visible;visibility:visible;opacity:0.1;fill:#ffffff;fill-opacity:1;fill-rule:nonzero;stroke:none;stroke-width:0;marker:none;enable-background:accumulate"
         d="m 310,119 c -9.4353,0 -17,-7.5647 -17,-17 v -1 c 0,9.4353 7.5647,17 17,17 h 52 c 9.4353,0 17,-7.5647 17,-17 v 1 c 0,9.4353 -7.5647,17 -17,17 z"
         id="path4298"
         inkscape:connector-curvature="0" />
      <path
         style="color:#bebebe;display:inline;overflow:visible;visibility:visible;opacity:0.1;fill:#ffffff;fill-opacity:1;fill-rule:nonzero;stroke:none;stroke-width:0;marker:none;enable-background:accumulate"
         d="m 424,82 c -3.3413,0 -6,-2.658703 -6,-6 v -1 c 0,3.341297 2.6587,6 6,6 h 16 c 3.3413,0 6,-2.658703 6,-6 v 1 c 0,3.341297 -2.6587,6 -6,6 z"
         id="path4300"
         inkscape:connector-curvature="0" />
      <path
         style="color:#bebebe;display:inline;overflow:visible;visibility:visible;opacity:0.1;fill:#ffffff;fill-opacity:1;fill-rule:nonzero;stroke:none;stroke-width:0;marker:none;enable-background:accumulate"
         d="m 422,122 c -2.2333,0 -4,-1.7667 -4,-4 v -1 c 0,2.2333 1.7667,4 4,4 h 12 c 2.2333,0 4,-1.7667 4,-4 v 1 c 0,2.2333 -1.7667,4 -4,4 z"
         id="path4302"
         inkscape:connector-curvature="0" />
      <path
         style="color:#bebebe;display:inline;overflow:visible;visibility:visible;opacity:0.1;fill:#ffffff;fill-opacity:1;fill-rule:nonzero;stroke:none;stroke-width:0;marker:none;enable-background:accumulate"
         d="m 419,154.5 c -1.1253,0 -2,-0.8747 -2,-2 v -1 c 0,1.1253 0.8747,2 2,2 h 10 c 1.1253,0 2,-0.8747 2,-2 v 1 c 0,1.1253 -0.8747,2 -2,2 z"
         id="path4304"
         inkscape:connector-curvature="0" />
    </g>
    <g
       inkscape:groupmode="layer"
       id="layer3"
       inkscape:label="Border"
       style="display:inline"
       sodipodi:insensitive="true">
      <path
         style="color:#bebebe;display:inline;overflow:visible;visibility:visible;opacity:0.41;fill:#000000;fill-opacity:1;fill-rule:nonzero;stroke:none;stroke-width:0;marker:none;enable-background:accumulate"
         d="m 422,101 c -2.77,0 -5,2.23 -5,5 v 12 c 0,2.77 2.23,5 5,5 h 12 c 2.77,0 5,-2.23 5,-5 v -12 c 0,-2.77 -2.23,-5 -5,-5 z m 0,1 h 12 c 2.2333,0 4,1.7667 4,4 v 12 c 0,2.2333 -1.7667,4 -4,4 h -12 c -2.2333,0 -4,-1.7667 -4,-4 v -12 c 0,-2.2333 1.7667,-4 4,-4 z"
         id="rect4099"
         inkscape:connector-curvature="0" />
      <path
         style="color:#bebebe;display:inline;overflow:visible;visibility:visible;opacity:0.41;fill:#000000;fill-opacity:1;fill-rule:nonzero;stroke:none;stroke-width:0;marker:none;enable-background:accumulate"
         d="m 424,53 c -3.878,0 -7,3.122 -7,7 v 16 c 0,3.878 3.122,7 7,7 h 16 c 3.878,0 7,-3.122 7,-7 V 60 c 0,-3.878 -3.122,-7 -7,-7 z m 0,1 h 16 c 3.3413,0 6,2.658703 6,6 v 16 c 0,3.341297 -2.6587,6 -6,6 h -16 c -3.3413,0 -6,-2.658703 -6,-6 V 60 c 0,-3.341297 2.6587,-6 6,-6 z"
         id="rect4151"
         inkscape:connector-curvature="0" />
      <path
         style="color:#bebebe;display:inline;overflow:visible;visibility:visible;opacity:0.41;fill:#000000;fill-opacity:1;fill-rule:nonzero;stroke:none;stroke-width:0;marker:none;enable-background:accumulate"
         d="m 419,140 c -1.662,0 -3,1.338 -3,3 v 10 c 0,1.662 1.338,3 3,3 h 10 c 1.662,0 3,-1.338 3,-3 v -10 c 0,-1.662 -1.338,-3 -3,-3 z m 0,1 h 10 c 1.1253,0 2,0.8747 2,2 v 10 c 0,1.1253 -0.8747,2 -2,2 h -10 c -1.1253,0 -2,-0.8747 -2,-2 v -10 c 0,-1.1253 0.8747,-2 2,-2 z"
         id="rect4095"
         inkscape:connector-curvature="0" />
      <path
         style="color:#bebebe;display:inline;overflow:visible;visibility:visible;opacity:0.41;fill:#000000;fill-opacity:1;fill-rule:nonzero;stroke:none;stroke-width:0;marker:none;enable-background:accumulate"
         d="m 300,223 c -4.986,0 -9,4.014 -9,9 v 24 c 0,4.986 4.014,9 9,9 h 24 c 4.986,0 9,-4.014 9,-9 v -24 c 0,-4.986 -4.014,-9 -9,-9 z m 0,1 h 24 c 4.4493,0 8,3.5507 8,8 v 24 c 0,4.4493 -3.5507,8 -8,8 h -24 c -4.4493,0 -8,-3.5507 -8,-8 v -24 c 0,-4.4493 3.5507,-8 8,-8 z"
         id="rect4783"
         inkscape:connector-curvature="0" />
      <path
         style="color:#bebebe;display:inline;overflow:visible;visibility:visible;opacity:0.41;fill:#000000;fill-opacity:1;fill-rule:nonzero;stroke:none;stroke-width:0;marker:none;enable-background:accumulate"
         d="m 302.5,142 c -6.925,0 -12.5,5.575 -12.5,12.5 v 35 c 0,6.925 5.575,12.5 12.5,12.5 h 35 c 6.925,0 12.5,-5.575 12.5,-12.5 v -35 c 0,-6.925 -5.575,-12.5 -12.5,-12.5 z m 0,1 h 35 c 6.3883,0 11.5,5.1117 11.5,11.5 v 35 c 0,6.3883 -5.1117,11.5 -11.5,11.5 h -35 c -6.3883,0 -11.5,-5.1117 -11.5,-11.5 v -35 c 0,-6.3883 5.1117,-11.5 11.5,-11.5 z"
         id="rect4515"
         inkscape:connector-curvature="0" />
      <path
         style="color:#bebebe;display:inline;overflow:visible;visibility:visible;opacity:0.41;fill:#000000;fill-opacity:1;fill-rule:nonzero;stroke:none;stroke-width:0;marker:none;enable-background:accumulate"
         d="m 310,32 c -9.972,0 -18,8.028 -18,18 v 52 c 0,9.972 8.028,18 18,18 h 52 c 9.972,0 18,-8.028 18,-18 V 50 c 0,-9.972 -8.028,-18 -18,-18 z m 0,1 h 52 c 9.4353,0 17,7.564703 17,17 v 52 c 0,9.4353 -7.5647,17 -17,17 h -52 c -9.4353,0 -17,-7.5647 -17,-17 V 50 c 0,-9.435297 7.5647,-17 17,-17 z"
         id="rect4511"
         inkscape:connector-curvature="0" />
      <path
         style="color:#bebebe;display:inline;overflow:visible;visibility:visible;opacity:0.41;fill:#000000;fill-opacity:1;fill-rule:nonzero;stroke:none;stroke-width:0;marker:none;enable-background:accumulate"
         d="M 84,46 C 56.3,46 34,68.3 34,96 v 120 c 0,27.7 22.3,50 50,50 h 120 c 27.7,0 50,-22.3 50,-50 V 96 C 254,68.3 231.7,46 204,46 Z m 0,1 h 120 c 27.1633,0 49,21.836703 49,49 v 120 c 0,27.1633 -21.8367,49 -49,49 H 84 C 56.836703,265 35,243.1633 35,216 V 96 C 35,68.836703 56.836703,47 84,47 Z"
         id="rect4040"
         inkscape:connector-curvature="0" />
    </g>
  </g>
</svg>
