<?xml version="1.0" encoding="UTF-8" standalone="no"?>
<!-- Created with Inkscape (http://www.inkscape.org/) -->

<svg
   inkscape:export-ydpi="90.000000"
   inkscape:export-xdpi="90.000000"
   width="480"
   height="300"
   id="svg11300"
   sodipodi:version="0.32"
   inkscape:version="1.3.2 (091e20e, 2023-11-25, custom)"
   sodipodi:docname="sheet.svg"
   inkscape:output_extension="org.inkscape.output.svg.inkscape"
   version="1.0"
   style="display:inline;enable-background:new"
   inkscape:export-filename="/home/sam/moka-next-template.png"
   xmlns:inkscape="http://www.inkscape.org/namespaces/inkscape"
   xmlns:sodipodi="http://sodipodi.sourceforge.net/DTD/sodipodi-0.dtd"
   xmlns:xlink="http://www.w3.org/1999/xlink"
   xmlns="http://www.w3.org/2000/svg"
   xmlns:svg="http://www.w3.org/2000/svg"
   xmlns:rdf="http://www.w3.org/1999/02/22-rdf-syntax-ns#"
   xmlns:cc="http://creativecommons.org/ns#"
   xmlns:dc="http://purl.org/dc/elements/1.1/">
  <sodipodi:namedview
     stroke="#ef2929"
     fill="#f57900"
     id="base"
     pagecolor="#ffffff"
     bordercolor="#000000"
     borderopacity="0.54509804"
     inkscape:pageopacity="0"
     inkscape:pageshadow="2"
     inkscape:zoom="2.0000001"
     inkscape:cx="141.74999"
     inkscape:cy="35.499998"
     inkscape:current-layer="layer7"
     showgrid="false"
     inkscape:grid-bbox="true"
     inkscape:document-units="px"
     inkscape:showpageshadow="false"
     inkscape:window-width="1643"
     inkscape:window-height="1040"
     inkscape:window-x="97"
     inkscape:window-y="36"
     width="400px"
     height="300px"
     inkscape:snap-nodes="true"
     inkscape:snap-bbox="true"
     gridtolerance="10000"
     inkscape:object-nodes="true"
     inkscape:snap-grids="true"
     showguides="true"
     inkscape:guide-bbox="true"
     inkscape:window-maximized="0"
     inkscape:bbox-nodes="true"
     inkscape:bbox-paths="true"
     inkscape:snap-bbox-edge-midpoints="true"
     inkscape:snap-bbox-midpoints="true"
     inkscape:pagecheckerboard="0"
     inkscape:deskcolor="#505050">
    <inkscape:grid
       spacingy="1"
       spacingx="1"
       id="grid5883"
       type="xygrid"
       enabled="true"
       visible="false"
       empspacing="4"
       snapvisiblegridlinesonly="true"
       dotted="false"
       color="#000000"
       opacity="0.1254902"
       empcolor="#203ef3"
       empopacity="0.36470588"
       originx="0"
       originy="0"
       units="px" />
    <inkscape:grid
       type="xygrid"
       id="grid11592"
       empspacing="8"
       visible="false"
       enabled="false"
       spacingx="0.5"
       spacingy="0.5"
       color="#ff0000"
       opacity="0.1254902"
       empcolor="#ff0000"
       empopacity="0.25098039"
       snapvisiblegridlinesonly="true"
       dotted="true"
       originx="0"
       originy="0"
       units="px" />
  </sodipodi:namedview>
  <defs
     id="defs3">
    <linearGradient
       id="linearGradient2"
       inkscape:collect="always">
      <stop
         style="stop-color:#a0040b;stop-opacity:1;"
         offset="0"
         id="stop2" />
      <stop
         style="stop-color:#f50419;stop-opacity:1;"
         offset="1"
         id="stop3" />
    </linearGradient>
    <linearGradient
       id="linearGradient905">
      <stop
         style="stop-color:#ff7139;stop-opacity:1"
         offset="0"
         id="stop901" />
      <stop
         style="stop-color:#ff7139;stop-opacity:1"
         offset="1"
         id="stop903" />
    </linearGradient>
    <linearGradient
       id="linearGradient3984">
      <stop
         id="stop3986"
         offset="0"
         style="stop-color:#f57d33;stop-opacity:1" />
      <stop
         id="stop3988"
         offset="1"
         style="stop-color:#faa653;stop-opacity:1;" />
    </linearGradient>
    <linearGradient
       inkscape:collect="always"
       xlink:href="#linearGradient2"
       id="linearGradient3"
       x1="34.5"
       y1="156"
       x2="253.5"
       y2="156"
       gradientUnits="userSpaceOnUse"
       gradientTransform="matrix(0,-1,-1,0,300,300)" />
    <linearGradient
       inkscape:collect="always"
       xlink:href="#linearGradient2"
       id="linearGradient5"
       x1="416.5"
       y1="148"
       x2="431.5"
       y2="148"
       gradientUnits="userSpaceOnUse"
       gradientTransform="rotate(-90,424,148)" />
    <linearGradient
       inkscape:collect="always"
       xlink:href="#linearGradient2"
       id="linearGradient7"
       x1="417.5"
       y1="112"
       x2="438.5"
       y2="112"
       gradientUnits="userSpaceOnUse"
       gradientTransform="rotate(-90,428,112)" />
    <linearGradient
       inkscape:collect="always"
       xlink:href="#linearGradient2"
       id="linearGradient9"
       x1="417.5"
       y1="68"
       x2="446.5"
       y2="68"
       gradientUnits="userSpaceOnUse"
       gradientTransform="rotate(-90,432,68)" />
    <linearGradient
       inkscape:collect="always"
       xlink:href="#linearGradient2"
       id="linearGradient11"
       x1="291.5"
       y1="244"
       x2="332.5"
       y2="244"
       gradientUnits="userSpaceOnUse"
       gradientTransform="rotate(-90,312,244)" />
    <linearGradient
       inkscape:collect="always"
       xlink:href="#linearGradient2"
       id="linearGradient13"
       x1="292.5"
       y1="76"
       x2="379.5"
       y2="76"
       gradientUnits="userSpaceOnUse"
       gradientTransform="rotate(-90,336,76)" />
    <linearGradient
       inkscape:collect="always"
       xlink:href="#linearGradient2"
       id="linearGradient15"
       x1="290.5"
       y1="172"
       x2="349.5"
       y2="172"
       gradientUnits="userSpaceOnUse"
       gradientTransform="rotate(-90,320,172)" />
  </defs>
  <metadata
     id="metadata4">
    <rdf:RDF>
      <cc:Work
         rdf:about="">
        <dc:format>image/svg+xml</dc:format>
        <dc:type
           rdf:resource="http://purl.org/dc/dcmitype/StillImage" />
        <dc:creator>
          <cc:Agent>
            <dc:title>Sam Hewitt</dc:title>
          </cc:Agent>
        </dc:creator>
        <dc:source />
        <cc:license
           rdf:resource="" />
        <dc:title />
        <dc:subject>
          <rdf:Bag />
        </dc:subject>
        <dc:date />
        <dc:rights>
          <cc:Agent>
            <dc:title />
          </cc:Agent>
        </dc:rights>
        <dc:publisher>
          <cc:Agent>
            <dc:title />
          </cc:Agent>
        </dc:publisher>
        <dc:identifier />
        <dc:relation />
        <dc:language />
        <dc:coverage />
        <dc:description />
        <dc:contributor>
          <cc:Agent>
            <dc:title />
          </cc:Agent>
        </dc:contributor>
      </cc:Work>
      <cc:Work
         rdf:about="">
        <dc:format>image/svg+xml</dc:format>
        <dc:type
           rdf:resource="http://purl.org/dc/dcmitype/StillImage" />
      </cc:Work>
    </rdf:RDF>
  </metadata>
  <g
     style="display:inline"
     inkscape:groupmode="layer"
     inkscape:label="Icon"
     id="layer1">
    <g
       style="display:none"
       inkscape:label="Baseplate"
       id="layer7"
       inkscape:groupmode="layer">
      <text
         y="19.745117"
         xml:space="preserve"
         x="15.006836"
         style="font-style:normal;font-variant:normal;font-weight:normal;font-stretch:normal;line-height:0%;font-family:'DejaVu Sans';-inkscape-font-specification:'DejaVu Sans';display:inline;fill:#000000;fill-opacity:1;stroke:none;enable-background:new"
         inkscape:label="context"
         id="context"><tspan
           style="font-style:normal;font-variant:normal;font-weight:normal;font-stretch:normal;font-size:18px;line-height:1.25;font-family:'DejaVu Sans';-inkscape-font-specification:'DejaVu Sans'"
           y="19.745117"
           x="15.006836"
           sodipodi:role="line"
           id="tspan3933">apps</tspan></text>
      <text
         y="19.745117"
         xml:space="preserve"
         x="122.48828"
         style="font-style:normal;font-variant:normal;font-weight:bold;font-stretch:normal;line-height:0%;font-family:'DejaVu Sans';-inkscape-font-specification:'DejaVu Sans Bold';text-align:start;writing-mode:lr-tb;text-anchor:start;display:inline;fill:#000000;fill-opacity:1;stroke:none;enable-background:new"
         inkscape:label="icon-name"
         id="icon-name"><tspan
           style="font-style:normal;font-variant:normal;font-weight:bold;font-stretch:normal;font-size:18px;line-height:1.25;font-family:'DejaVu Sans';-inkscape-font-specification:'DejaVu Sans Bold'"
           y="19.745117"
           x="122.48828"
           sodipodi:role="line"
           id="tspan3937">web-mega</tspan></text>
      <rect
         style="display:inline;overflow:visible;visibility:visible;fill:#eeeeec;fill-opacity:1;fill-rule:nonzero;stroke:none;stroke-width:2;marker:none;enable-background:accumulate"
         id="rect16x16"
         width="16"
         height="16"
         x="416"
         y="140"
         inkscape:label="16x16" />
      <rect
         style="display:inline;overflow:visible;visibility:visible;fill:#d4d4d4;fill-opacity:1;fill-rule:nonzero;stroke:none;stroke-width:2;marker:none;enable-background:accumulate"
         id="rect24x24"
         width="24"
         height="24"
         x="416"
         y="100"
         inkscape:label="24x24" />
      <rect
         style="display:inline;overflow:visible;visibility:visible;fill:#eeeeec;fill-opacity:1;fill-rule:nonzero;stroke:none;stroke-width:2;marker:none;enable-background:accumulate"
         id="rect32x32"
         width="32"
         height="32"
         x="416"
         y="52"
         inkscape:label="32x32" />
      <rect
         inkscape:label="22x22"
         y="101"
         x="417"
         height="22"
         width="22"
         id="rect22x22"
         style="display:inline;overflow:visible;visibility:visible;fill:#eeeeec;fill-opacity:1;fill-rule:nonzero;stroke:none;stroke-width:2;marker:none;enable-background:accumulate" />
      <rect
         inkscape:label="48x48"
         y="220"
         x="288"
         height="48"
         width="48"
         id="rect48x48"
         style="display:inline;overflow:visible;visibility:visible;fill:#eeeeec;fill-opacity:1;fill-rule:nonzero;stroke:none;stroke-width:2;marker:none;enable-background:accumulate" />
      <rect
         style="display:inline;overflow:visible;visibility:visible;fill:#eeeeec;fill-opacity:1;fill-rule:nonzero;stroke:none;stroke-width:2;marker:none;enable-background:accumulate"
         id="rect256x256"
         width="256"
         height="256"
         x="16"
         y="28"
         inkscape:label="256x256" />
      <rect
         style="display:inline;overflow:visible;visibility:visible;fill:#eeeeec;fill-opacity:1;fill-rule:nonzero;stroke:none;stroke-width:2;marker:none;enable-background:accumulate"
         id="rect64x64"
         width="64"
         height="64"
         x="288"
         y="140"
         inkscape:label="64x64" />
      <rect
         style="display:inline;overflow:visible;visibility:visible;fill:#eeeeec;fill-opacity:1;fill-rule:nonzero;stroke:none;stroke-width:2;marker:none;enable-background:accumulate"
         id="rect96x96"
         width="96"
         height="96"
         x="288"
         y="28"
         inkscape:label="96x96" />
    </g>
    <g
       inkscape:groupmode="layer"
       id="layer4"
       inkscape:label="Shadow"
       style="display:inline"
       sodipodi:insensitive="true">
      <rect
         ry="50"
         y="47"
         x="34"
         height="220"
         width="220"
         id="rect4114"
         style="opacity:0.1;color:#bebebe;fill:#000000;fill-opacity:1;fill-rule:nonzero;stroke:none;stroke-width:0;marker:none;visibility:visible;display:inline;overflow:visible;enable-background:accumulate" />
      <rect
         style="opacity:0.1;color:#bebebe;fill:#000000;fill-opacity:1;fill-rule:nonzero;stroke:none;stroke-width:0;marker:none;visibility:visible;display:inline;overflow:visible;enable-background:accumulate"
         id="rect4120"
         width="30"
         height="30"
         x="417"
         y="54"
         ry="7" />
      <rect
         transform="scale(1,-1)"
         ry="9"
         y="-266"
         x="291"
         height="42"
         width="42"
         id="rect4122"
         style="opacity:0.1;color:#bebebe;fill:#000000;fill-opacity:1;fill-rule:nonzero;stroke:none;stroke-width:0;marker:none;visibility:visible;display:inline;overflow:visible;enable-background:accumulate" />
      <rect
         style="opacity:0.1;color:#bebebe;fill:#000000;fill-opacity:1;fill-rule:nonzero;stroke:none;stroke-width:0;marker:none;visibility:visible;display:inline;overflow:visible;enable-background:accumulate"
         id="rect4124"
         width="88"
         height="88"
         x="292"
         y="33"
         ry="18" />
      <rect
         ry="12.5"
         y="143"
         x="290"
         height="60"
         width="60"
         id="rect4126"
         style="opacity:0.1;color:#bebebe;fill:#000000;fill-opacity:1;fill-rule:nonzero;stroke:none;stroke-width:0;marker:none;visibility:visible;display:inline;overflow:visible;enable-background:accumulate" />
      <path
         id="path4268"
         d="m 422,101 c -2.77,0 -5,2.23 -5,5 l 0,12 c 0,2.77 2.23,5 5,5 l 12,0 c 2.77,0 5,-2.23 5,-5 l 0,-12 c 0,-2.77 -2.23,-5 -5,-5 z"
         style="opacity:0.1;color:#bebebe;fill:#000000;fill-opacity:1;fill-rule:nonzero;stroke:none;stroke-width:0;marker:none;visibility:visible;display:inline;overflow:visible;enable-background:accumulate"
         inkscape:connector-curvature="0"
         sodipodi:nodetypes="sssssssss" />
      <path
         id="path4270"
         d="m 419,140 c -1.662,0 -3,1.338 -3,3 l 0,10 c 0,1.662 1.338,3 3,3 l 10,0 c 1.662,0 3,-1.338 3,-3 l 0,-10 c 0,-1.662 -1.338,-3 -3,-3 z"
         style="opacity:0.1;color:#bebebe;fill:#000000;fill-opacity:1;fill-rule:nonzero;stroke:none;stroke-width:0;marker:none;visibility:visible;display:inline;overflow:visible;enable-background:accumulate"
         inkscape:connector-curvature="0"
         sodipodi:nodetypes="sssssssss" />
    </g>
    <g
       inkscape:groupmode="layer"
       id="layer2"
       inkscape:label="Background"
       style="display:inline">
      <path
         style="color:#bebebe;display:inline;overflow:visible;visibility:visible;fill:url(#linearGradient3);fill-rule:nonzero;stroke:none;stroke-width:2;marker:none;enable-background:accumulate"
         d="m 253.5,216 c 0,27.43126 -22.06873,49.5 -49.5,49.5 H 84 C 56.56873,265.5 34.5,243.43126 34.5,216 V 96 C 34.5,68.56873 56.56873,46.5 84,46.5 h 120 c 27.43127,0 49.5,22.06873 49.5,49.5 z"
         id="path4200" />
      <path
         style="color:#bebebe;display:inline;overflow:visible;visibility:visible;fill:url(#linearGradient5);fill-rule:nonzero;stroke:none;stroke-width:2;marker:none;enable-background:accumulate"
         d="m 416.5,153 c 0,1.3844 1.1156,2.5 2.5,2.5 h 10 c 1.3844,0 2.5,-1.1156 2.5,-2.5 v -10 c 0,-1.3844 -1.1156,-2.5 -2.5,-2.5 h -10 c -1.3844,0 -2.5,1.1156 -2.5,2.5 z"
         id="path4202" />
      <path
         style="color:#bebebe;display:inline;overflow:visible;visibility:visible;fill:url(#linearGradient7);fill-rule:nonzero;stroke:none;stroke-width:2;marker:none;enable-background:accumulate"
         d="m 417.5,118 c 0,2.49699 2.00301,4.5 4.5,4.5 h 12 c 2.49699,0 4.5,-2.00301 4.5,-4.5 v -12 c 0,-2.49699 -2.00301,-4.5 -4.5,-4.5 h -12 c -2.49699,0 -4.5,2.00301 -4.5,4.5 z"
         id="path4204" />
      <path
         style="color:#bebebe;display:inline;overflow:visible;visibility:visible;fill:url(#linearGradient9);fill-rule:nonzero;stroke:none;stroke-width:2;marker:none;enable-background:accumulate"
         d="m 417.5,76 c 0,3.60654 2.89346,6.5 6.5,6.5 h 16 c 3.60654,0 6.5,-2.89346 6.5,-6.5 V 60 c 0,-3.60654 -2.89346,-6.5 -6.5,-6.5 h -16 c -3.60654,0 -6.5,2.89346 -6.5,6.5 z"
         id="path4206" />
      <path
         style="color:#bebebe;display:inline;overflow:visible;visibility:visible;fill:url(#linearGradient11);fill-rule:nonzero;stroke:none;stroke-width:2;marker:none;enable-background:accumulate"
         d="m 291.5,256 c 0,4.71531 3.78469,8.5 8.5,8.5 h 24 c 4.71531,0 8.5,-3.78469 8.5,-8.5 v -24 c 0,-4.71531 -3.78469,-8.5 -8.5,-8.5 h -24 c -4.71531,0 -8.5,3.78469 -8.5,8.5 z"
         id="path4208" />
      <path
         style="color:#bebebe;display:inline;overflow:visible;visibility:visible;fill:url(#linearGradient13);fill-rule:nonzero;stroke:none;stroke-width:2;marker:none;enable-background:accumulate"
         d="m 292.5,102 c 0,9.70255 7.79745,17.5 17.5,17.5 h 52 c 9.70255,0 17.5,-7.79745 17.5,-17.5 V 50 c 0,-9.70255 -7.79745,-17.5 -17.5,-17.5 h -52 c -9.70255,0 -17.5,7.79745 -17.5,17.5 z"
         id="path4210" />
      <path
         style="color:#bebebe;display:inline;overflow:visible;visibility:visible;fill:url(#linearGradient15);fill-rule:nonzero;stroke:none;stroke-width:2;marker:none;enable-background:accumulate"
         d="m 290.5,189.5 c 0,6.65502 5.34498,12 12,12 h 35 c 6.65502,0 12,-5.34498 12,-12 v -35 c 0,-6.65502 -5.34498,-12 -12,-12 h -35 c -6.65502,0 -12,5.34498 -12,12 z"
         id="path4212" />
    </g>
    <g
       inkscape:groupmode="layer"
       id="layer6"
       inkscape:label="Symbols-shadow"
       style="display:inline;fill:#000000;fill-opacity:1;opacity:0.2">
      <path
         id="path0"
         d="m 82.633015,110.07147 c -0.504835,0.27406 -1.18341,0.88772 -1.507948,1.36306 l -0.590064,0.86412 v 44.37426 44.37429 l 0.590064,0.86674 c 1.383378,2.03243 0.994591,1.96426 11.164704,1.96426 10.370089,0 9.955729,0.082 11.019809,-2.18587 l 0.69694,-1.48565 0.0748,-24.06158 0.0748,-24.06158 0.5809,-0.0413 c 0.31928,-0.0229 0.80969,-0.0203 1.0903,0.005 0.28651,0.0269 7.68267,7.21782 16.92899,16.45891 9.0313,9.02604 16.6379,16.533 16.90343,16.68182 2.86443,1.60301 4.3501,1.7525 6.97982,0.70284 l 2.02917,-0.8097 16.35073,-16.38089 c 16.68052,-16.71067 16.91326,-16.9244 18.12552,-16.69297 l 0.6989,0.13374 0.0748,24.03274 0.0748,24.03273 0.71136,1.49352 c 1.07852,2.26323 0.64646,2.178 11.00538,2.178 10.17013,0 9.78134,0.0682 11.16472,-1.96427 l 0.59006,-0.86673 v -44.37442 -44.37427 l -0.59006,-0.86413 c -1.23129,-1.80428 -1.58795,-1.87116 -9.51187,-1.78331 l -7.08669,0.0787 -1.15325,0.91788 c -0.634,0.50483 -10.80936,10.56546 -22.61198,22.35694 -21.30139,21.28172 -21.46661,21.43906 -22.51103,21.43906 -1.04441,0 -1.20964,-0.15734 -22.51101,-21.43906 -11.80279,-11.79132 -21.978158,-21.85194 -22.612149,-22.35678 l -1.153245,-0.91788 -7.086694,-0.0787 c -6.55301,-0.0721 -7.154879,-0.0406 -8.003918,0.42025"
         stroke="none"
         fill="#fbf2f2"
         fill-rule="evenodd"
         style="fill:#000000;fill-opacity:1;stroke-width:0.655629"
         inkscape:label="logo" />
      <path
         id="path0-0"
         d="m 310.18697,57.115491 c -0.21235,0.115279 -0.49778,0.373404 -0.63429,0.573348 l -0.2482,0.363477 v 18.665258 18.665271 l 0.2482,0.364579 c 0.58189,0.854907 0.41836,0.826232 4.69624,0.826232 4.36199,0 4.1877,0.03449 4.63529,-0.919448 l 0.29315,-0.624913 0.0315,-10.121084 0.0315,-10.121084 0.24435,-0.01737 c 0.13429,-0.0096 0.34058,-0.0085 0.45861,0.0021 0.12052,0.01131 3.23158,3.03605 7.12089,6.923154 3.79885,3.796646 6.99844,6.954318 7.11013,7.016916 1.20487,0.674279 1.82979,0.737159 2.93594,0.295638 l 0.85353,-0.340586 6.87765,-6.890336 c 7.01637,-7.029052 7.11427,-7.118954 7.62419,-7.021607 l 0.29398,0.05626 0.0315,10.108953 0.0315,10.108948 0.29922,0.628224 c 0.45366,0.951988 0.27193,0.916137 4.62923,0.916137 4.27788,0 4.11435,0.02869 4.69624,-0.826236 l 0.2482,-0.364575 V 76.717419 58.052156 l -0.2482,-0.363482 c -0.51792,-0.758938 -0.66794,-0.78707 -4.001,-0.750118 l -2.98089,0.0331 -0.4851,0.38609 c -0.26668,0.212348 -4.54677,4.444177 -9.51133,9.404057 -8.96006,8.951785 -9.02956,9.017967 -9.46888,9.017967 -0.43931,0 -0.50881,-0.06618 -9.46886,-9.017967 -4.96464,-4.959813 -9.24473,-9.191637 -9.51141,-9.403989 l -0.48509,-0.386091 -2.98089,-0.0331 c -2.75641,-0.03033 -3.00958,-0.01708 -3.36671,0.17677"
         stroke="none"
         fill="#fbf2f2"
         fill-rule="evenodd"
         style="display:inline;fill:#000000;fill-opacity:1;stroke-width:0.275779;enable-background:new"
         inkscape:label="logo" />
      <path
         id="path0-0-8"
         d="m 300.05722,157.58061 c -0.16405,0.0891 -0.38457,0.28849 -0.49004,0.44296 l -0.19175,0.28082 v 14.42042 14.42043 l 0.19175,0.28168 c 0.44956,0.66047 0.32322,0.63833 3.62823,0.63833 3.36999,0 3.23533,0.0267 3.58113,-0.71036 l 0.22649,-0.48278 0.0244,-7.81937 0.0244,-7.81935 0.18877,-0.0134 c 0.10373,-0.008 0.26313,-0.006 0.35432,0.002 0.0931,0.009 2.49665,2.3456 5.50146,5.3487 2.93492,2.93321 5.40687,5.37276 5.49315,5.42114 0.93086,0.52094 1.41366,0.56951 2.26825,0.22839 l 0.65942,-0.26311 5.31355,-5.32335 c 5.4207,-5.43052 5.49634,-5.49997 5.89029,-5.42477 l 0.22712,0.0435 0.0244,7.80999 0.0244,7.80997 0.23118,0.48535 c 0.35048,0.73551 0.21009,0.7078 3.57645,0.7078 3.30501,0 3.17867,0.0222 3.62823,-0.63834 l 0.19175,-0.28165 v -14.42104 -14.42043 l -0.19175,-0.28083 c -0.40014,-0.58633 -0.51604,-0.60807 -3.09109,-0.57951 l -2.30299,0.0255 -0.37478,0.2983 c -0.20603,0.16404 -3.51273,3.43347 -7.34826,7.26539 -6.92238,6.91597 -6.97607,6.96711 -7.31548,6.96711 -0.33941,0 -0.3931,-0.0511 -7.31546,-6.96711 -3.83559,-3.83186 -7.1423,-7.10129 -7.34834,-7.26534 l -0.37477,-0.29829 -2.30297,-0.0255 c -2.12955,-0.0234 -2.32515,-0.0132 -2.60106,0.13657"
         stroke="none"
         fill="#fbf2f2"
         fill-rule="evenodd"
         style="display:inline;fill:#000000;fill-opacity:1;stroke-width:0.213061;enable-background:new"
         inkscape:label="logo" />
      <path
         id="path0-0-8-0"
         d="m 299.30934,235.09746 c -0.10439,0.0567 -0.24472,0.18358 -0.31184,0.28187 l -0.12202,0.17871 v 9.17651 9.17652 l 0.12202,0.17925 c 0.28609,0.4203 0.20568,0.4062 2.30884,0.4062 2.14452,0 2.05883,0.017 2.27887,-0.45203 l 0.14414,-0.30723 0.0155,-4.9759 0.0155,-4.97589 0.12014,-0.009 c 0.066,-0.006 0.16744,-0.004 0.22546,9.5e-4 0.0592,0.006 1.58876,1.49263 3.5009,3.40367 1.86765,1.86656 3.44069,3.41899 3.49559,3.44977 0.59235,0.3315 0.89959,0.36241 1.44342,0.14534 l 0.41962,-0.16744 3.3813,-3.38754 c 3.4495,-3.45574 3.49763,-3.49994 3.74833,-3.45208 l 0.14453,0.0277 0.0155,4.96992 0.0155,4.96993 0.14712,0.30886 c 0.22303,0.46803 0.1337,0.45041 2.2759,0.45041 2.10316,0 2.02275,0.0141 2.30884,-0.40622 l 0.12202,-0.17923 v -9.17691 -9.17651 l -0.12202,-0.17871 c -0.25463,-0.37312 -0.32838,-0.38695 -1.96703,-0.36878 l -1.46552,0.0163 -0.2385,0.18981 c -0.1311,0.1044 -2.23535,2.18492 -4.6761,4.62338 -4.4051,4.40102 -4.43927,4.43356 -4.65525,4.43356 -0.21598,0 -0.25015,-0.0325 -4.65523,-4.43356 -2.4408,-2.43842 -4.54505,-4.51894 -4.67616,-4.62334 l -0.23849,-0.18982 -1.4655,-0.0163 c -1.35516,-0.015 -1.47963,-0.009 -1.65521,0.0869"
         stroke="none"
         fill="#fbf2f2"
         fill-rule="evenodd"
         style="display:inline;fill:#000000;fill-opacity:1;stroke-width:0.135583;enable-background:new"
         inkscape:label="logo" />
      <path
         id="path0-0-8-0-2"
         d="m 422.55712,61.567692 c -0.0776,0.04219 -0.18209,0.136599 -0.23203,0.209736 l -0.0908,0.132975 v 6.828107 6.828114 l 0.0908,0.133377 c 0.21288,0.312739 0.15304,0.302247 1.71798,0.302247 1.5957,0 1.53194,0.01265 1.69567,-0.336348 l 0.10726,-0.228606 0.0115,-3.702495 0.0115,-3.702486 0.0894,-0.0067 c 0.0491,-0.0044 0.1246,-0.003 0.16776,7.07e-4 0.0441,0.0044 1.18218,1.110644 2.60497,2.532621 1.38969,1.38888 2.56017,2.544021 2.60102,2.566923 0.44076,0.246664 0.66937,0.269664 1.07403,0.108146 l 0.31223,-0.12459 2.51597,-2.520619 c 2.56673,-2.571365 2.60254,-2.604254 2.78908,-2.568642 l 0.10754,0.02061 0.0115,3.698044 0.0115,3.698053 0.10947,0.229817 c 0.16595,0.348255 0.0995,0.335144 1.69346,0.335144 1.56494,0 1.5051,0.01047 1.71798,-0.302262 l 0.0908,-0.133362 v -6.828401 -6.828106 l -0.0908,-0.132975 c -0.18947,-0.277633 -0.24434,-0.287924 -1.46365,-0.274404 l -1.09046,0.01213 -0.17747,0.141235 c -0.0975,0.07768 -1.66329,1.625766 -3.47941,3.440189 -3.27777,3.274734 -3.3032,3.298947 -3.46391,3.298947 -0.16071,0 -0.18613,-0.02418 -3.46388,-3.298947 -1.81617,-1.814392 -3.38191,-3.362477 -3.47947,-3.44016 l -0.17745,-0.141242 -1.09046,-0.01213 c -1.00836,-0.01117 -1.10097,-0.0067 -1.23162,0.06466"
         stroke="none"
         fill="#fbf2f2"
         fill-rule="evenodd"
         style="display:inline;fill:#000000;fill-opacity:1;stroke-width:0.100885;enable-background:new"
         inkscape:label="logo" />
      <path
         id="path0-0-8-0-2-2"
         d="m 420.9493,107.38779 c -0.058,0.0315 -0.13595,0.10198 -0.17323,0.15658 l -0.0678,0.0993 v 5.09775 5.09775 l 0.0678,0.0996 c 0.15893,0.23348 0.11425,0.22565 1.28261,0.22565 1.19132,0 1.14372,0.009 1.26596,-0.25111 l 0.0801,-0.17068 0.009,-2.76421 0.009,-2.76422 0.0667,-0.005 c 0.0367,-0.003 0.093,-0.003 0.12525,5.4e-4 0.0329,0.003 0.8826,0.82918 1.94482,1.8908 1.03753,1.03692 1.91139,1.89932 1.94188,1.91642 0.32907,0.18417 0.49974,0.20134 0.80186,0.0807 l 0.2331,-0.093 1.87838,-1.88185 c 1.91628,-1.91974 1.94301,-1.94429 2.08228,-1.9177 l 0.0803,0.0153 0.009,2.76089 0.009,2.76089 0.0817,0.17158 c 0.12389,0.26002 0.0743,0.25022 1.26431,0.25022 1.16836,0 1.12368,0.008 1.28261,-0.22566 l 0.0678,-0.0996 v -5.09797 -5.09774 l -0.0678,-0.0993 c -0.14145,-0.20727 -0.18241,-0.21495 -1.09273,-0.20487 l -0.81412,0.009 -0.1325,0.10544 c -0.0728,0.058 -1.24178,1.21378 -2.59767,2.56839 -2.44712,2.44486 -2.4661,2.46294 -2.58609,2.46294 -0.11998,0 -0.13896,-0.0181 -2.58607,-2.46294 -1.35593,-1.35459 -2.52488,-2.51037 -2.59772,-2.56836 l -0.13248,-0.10545 -0.81412,-0.009 c -0.75282,-0.008 -0.82196,-0.005 -0.91951,0.0483"
         stroke="none"
         fill="#fbf2f2"
         fill-rule="evenodd"
         style="display:inline;fill:#000000;fill-opacity:1;stroke-width:0.075319;enable-background:new"
         inkscape:label="logo" />
      <path
         id="path0-0-8-0-2-2-9"
         d="m 418.4878,144.55776 c -0.0453,0.0246 -0.10629,0.0797 -0.13543,0.12241 l -0.053,0.0776 v 3.98546 3.98547 l 0.053,0.0779 c 0.12425,0.18253 0.0893,0.17641 1.00275,0.17641 0.93139,0 0.89417,0.007 0.98974,-0.19632 l 0.0626,-0.13344 0.007,-2.16108 0.007,-2.16109 0.0521,-0.004 c 0.0287,-0.002 0.0727,-0.002 0.0979,4.2e-4 0.0257,0.002 0.69002,0.64826 1.52047,1.47824 0.81115,0.81068 1.49434,1.48491 1.51818,1.49828 0.25727,0.14398 0.3907,0.15741 0.6269,0.0631 l 0.18224,-0.0727 1.46854,-1.47124 c 1.49816,-1.50087 1.51906,-1.52007 1.62794,-1.49928 l 0.0628,0.012 0.007,2.15849 0.007,2.15849 0.0639,0.13414 c 0.0969,0.20329 0.0581,0.19563 0.98845,0.19563 0.91343,0 0.8785,0.006 1.00275,-0.17643 l 0.053,-0.0779 v -3.98564 -3.98546 l -0.053,-0.0776 c -0.11058,-0.16204 -0.14261,-0.16805 -0.8543,-0.16017 l -0.63649,0.007 -0.10359,0.0824 c -0.0569,0.0453 -0.97083,0.94894 -2.03088,2.00799 -1.91318,1.91141 -1.92802,1.92554 -2.02183,1.92554 -0.0938,0 -0.10864,-0.0142 -2.02181,-1.92554 -1.06008,-1.05904 -1.97398,-1.96263 -2.03092,-2.00797 l -0.10358,-0.0824 -0.63648,-0.007 c -0.58856,-0.006 -0.64262,-0.004 -0.71888,0.0378"
         stroke="none"
         fill="#fbf2f2"
         fill-rule="evenodd"
         style="display:inline;fill:#000000;fill-opacity:1;stroke-width:0.0588851;enable-background:new"
         inkscape:label="logo" />
    </g>
    <g
       inkscape:groupmode="layer"
       id="g21"
       inkscape:label="Symbols"
       style="display:inline;enable-background:new">
      <path
         id="path15"
         d="m 82.633015,109.32147 c -0.504835,0.27406 -1.18341,0.88772 -1.507948,1.36306 l -0.590064,0.86412 v 44.37426 44.37429 l 0.590064,0.86674 c 1.383378,2.03243 0.994591,1.96426 11.164704,1.96426 10.370089,0 9.955729,0.082 11.019809,-2.18587 l 0.69694,-1.48565 0.0748,-24.06158 0.0748,-24.06158 0.5809,-0.0413 c 0.31928,-0.0229 0.80969,-0.0203 1.0903,0.005 0.28651,0.0269 7.68267,7.21782 16.92899,16.45891 9.0313,9.02604 16.6379,16.533 16.90343,16.68182 2.86443,1.60301 4.3501,1.7525 6.97982,0.70284 l 2.02917,-0.8097 16.35073,-16.38089 c 16.68052,-16.71067 16.91326,-16.9244 18.12552,-16.69297 l 0.6989,0.13374 0.0748,24.03274 0.0748,24.03273 0.71136,1.49352 c 1.07852,2.26323 0.64646,2.178 11.00538,2.178 10.17013,0 9.78134,0.0682 11.16472,-1.96427 l 0.59006,-0.86673 v -44.37442 -44.37427 l -0.59006,-0.86413 c -1.23129,-1.80428 -1.58795,-1.87116 -9.51187,-1.78331 l -7.08669,0.0787 -1.15325,0.91788 c -0.634,0.50483 -10.80936,10.56546 -22.61198,22.35694 -21.30139,21.28172 -21.46661,21.43906 -22.51103,21.43906 -1.04441,0 -1.20964,-0.15734 -22.51101,-21.43906 -11.80279,-11.79132 -21.978158,-21.85194 -22.612149,-22.35678 l -1.153245,-0.91788 -7.086694,-0.0787 c -6.55301,-0.0721 -7.154879,-0.0406 -8.003918,0.42025"
         stroke="none"
         fill="#fbf2f2"
         fill-rule="evenodd"
         style="fill:#fbf2f2;fill-opacity:1;stroke-width:0.655629"
         inkscape:label="logo" />
      <path
         id="path16"
         d="m 310.18697,56.365491 c -0.21235,0.115279 -0.49778,0.373404 -0.63429,0.573348 l -0.2482,0.363477 v 18.665258 18.665271 l 0.2482,0.364579 c 0.58189,0.854907 0.41836,0.826232 4.69624,0.826232 4.36199,0 4.1877,0.03449 4.63529,-0.919448 l 0.29315,-0.624913 0.0315,-10.121084 0.0315,-10.121084 0.24435,-0.01737 c 0.13429,-0.0096 0.34058,-0.0085 0.45861,0.0021 0.12052,0.01131 3.23158,3.03605 7.12089,6.923154 3.79885,3.796646 6.99844,6.954318 7.11013,7.016916 1.20487,0.674279 1.82979,0.737159 2.93594,0.295638 l 0.85353,-0.340586 6.87765,-6.890336 c 7.01637,-7.029052 7.11427,-7.118954 7.62419,-7.021607 l 0.29398,0.05626 0.0315,10.108953 0.0315,10.108948 0.29922,0.628224 c 0.45366,0.951988 0.27193,0.916137 4.62923,0.916137 4.27788,0 4.11435,0.02869 4.69624,-0.826236 l 0.2482,-0.364575 V 75.967419 57.302156 l -0.2482,-0.363482 c -0.51792,-0.758938 -0.66794,-0.78707 -4.001,-0.750118 l -2.98089,0.0331 -0.4851,0.38609 c -0.26668,0.212348 -4.54677,4.444177 -9.51133,9.404057 -8.96006,8.951785 -9.02956,9.017967 -9.46888,9.017967 -0.43931,0 -0.50881,-0.06618 -9.46886,-9.017967 -4.96464,-4.959813 -9.24473,-9.191637 -9.51141,-9.403989 l -0.48509,-0.386091 -2.98089,-0.0331 c -2.75641,-0.03033 -3.00958,-0.01708 -3.36671,0.17677"
         stroke="none"
         fill="#fbf2f2"
         fill-rule="evenodd"
         style="display:inline;fill:#fbf2f2;fill-opacity:1;stroke-width:0.275779;enable-background:new"
         inkscape:label="logo" />
      <path
         id="path17"
         d="m 300.05722,156.83061 c -0.16405,0.0891 -0.38457,0.28849 -0.49004,0.44296 l -0.19175,0.28082 v 14.42042 14.42043 l 0.19175,0.28168 c 0.44956,0.66047 0.32322,0.63833 3.62823,0.63833 3.36999,0 3.23533,0.0267 3.58113,-0.71036 l 0.22649,-0.48278 0.0244,-7.81937 0.0244,-7.81935 0.18877,-0.0134 c 0.10373,-0.008 0.26313,-0.006 0.35432,0.002 0.0931,0.009 2.49665,2.3456 5.50146,5.3487 2.93492,2.93321 5.40687,5.37276 5.49315,5.42114 0.93086,0.52094 1.41366,0.56951 2.26825,0.22839 l 0.65942,-0.26311 5.31355,-5.32335 c 5.4207,-5.43052 5.49634,-5.49997 5.89029,-5.42477 l 0.22712,0.0435 0.0244,7.80999 0.0244,7.80997 0.23118,0.48535 c 0.35048,0.73551 0.21009,0.7078 3.57645,0.7078 3.30501,0 3.17867,0.0222 3.62823,-0.63834 l 0.19175,-0.28165 v -14.42104 -14.42043 l -0.19175,-0.28083 c -0.40014,-0.58633 -0.51604,-0.60807 -3.09109,-0.57951 l -2.30299,0.0255 -0.37478,0.2983 c -0.20603,0.16404 -3.51273,3.43347 -7.34826,7.26539 -6.92238,6.91597 -6.97607,6.96711 -7.31548,6.96711 -0.33941,0 -0.3931,-0.0511 -7.31546,-6.96711 -3.83559,-3.83186 -7.1423,-7.10129 -7.34834,-7.26534 l -0.37477,-0.29829 -2.30297,-0.0255 c -2.12955,-0.0234 -2.32515,-0.0132 -2.60106,0.13657"
         stroke="none"
         fill="#fbf2f2"
         fill-rule="evenodd"
         style="display:inline;fill:#fbf2f2;fill-opacity:1;stroke-width:0.213061;enable-background:new"
         inkscape:label="logo" />
      <path
         id="path18"
         d="m 299.30934,234.34746 c -0.10439,0.0567 -0.24472,0.18358 -0.31184,0.28187 l -0.12202,0.17871 v 9.17651 9.17652 l 0.12202,0.17925 c 0.28609,0.4203 0.20568,0.4062 2.30884,0.4062 2.14452,0 2.05883,0.017 2.27887,-0.45203 l 0.14414,-0.30723 0.0155,-4.9759 0.0155,-4.97589 0.12014,-0.009 c 0.066,-0.006 0.16744,-0.004 0.22546,9.5e-4 0.0592,0.006 1.58876,1.49263 3.5009,3.40367 1.86765,1.86656 3.44069,3.41899 3.49559,3.44977 0.59235,0.3315 0.89959,0.36241 1.44342,0.14534 l 0.41962,-0.16744 3.3813,-3.38754 c 3.4495,-3.45574 3.49763,-3.49994 3.74833,-3.45208 l 0.14453,0.0277 0.0155,4.96992 0.0155,4.96993 0.14712,0.30886 c 0.22303,0.46803 0.1337,0.45041 2.2759,0.45041 2.10316,0 2.02275,0.0141 2.30884,-0.40622 l 0.12202,-0.17923 v -9.17691 -9.17651 l -0.12202,-0.17871 c -0.25463,-0.37312 -0.32838,-0.38695 -1.96703,-0.36878 l -1.46552,0.0163 -0.2385,0.18981 c -0.1311,0.1044 -2.23535,2.18492 -4.6761,4.62338 -4.4051,4.40102 -4.43927,4.43356 -4.65525,4.43356 -0.21598,0 -0.25015,-0.0325 -4.65523,-4.43356 -2.4408,-2.43842 -4.54505,-4.51894 -4.67616,-4.62334 l -0.23849,-0.18982 -1.4655,-0.0163 c -1.35516,-0.015 -1.47963,-0.009 -1.65521,0.0869"
         stroke="none"
         fill="#fbf2f2"
         fill-rule="evenodd"
         style="display:inline;fill:#fbf2f2;fill-opacity:1;stroke-width:0.135583;enable-background:new"
         inkscape:label="logo" />
      <path
         id="path19"
         d="m 422.55712,60.817692 c -0.0776,0.04219 -0.18209,0.136599 -0.23203,0.209736 l -0.0908,0.132975 v 6.828107 6.828114 l 0.0908,0.133377 c 0.21288,0.312739 0.15304,0.302247 1.71798,0.302247 1.5957,0 1.53194,0.01265 1.69567,-0.336348 l 0.10726,-0.228606 0.0115,-3.702495 0.0115,-3.702486 0.0894,-0.0067 c 0.0491,-0.0044 0.1246,-0.003 0.16776,7.07e-4 0.0441,0.0044 1.18218,1.110644 2.60497,2.532621 1.38969,1.38888 2.56017,2.544021 2.60102,2.566923 0.44076,0.246664 0.66937,0.269664 1.07403,0.108146 l 0.31223,-0.12459 2.51597,-2.520619 c 2.56673,-2.571365 2.60254,-2.604254 2.78908,-2.568642 l 0.10754,0.02061 0.0115,3.698044 0.0115,3.698053 0.10947,0.229817 c 0.16595,0.348255 0.0995,0.335144 1.69346,0.335144 1.56494,0 1.5051,0.01047 1.71798,-0.302262 l 0.0908,-0.133362 v -6.828401 -6.828106 l -0.0908,-0.132975 c -0.18947,-0.277633 -0.24434,-0.287924 -1.46365,-0.274404 l -1.09046,0.01213 -0.17747,0.141235 c -0.0975,0.07768 -1.66329,1.625766 -3.47941,3.440189 -3.27777,3.274734 -3.3032,3.298947 -3.46391,3.298947 -0.16071,0 -0.18613,-0.02418 -3.46388,-3.298947 -1.81617,-1.814392 -3.38191,-3.362477 -3.47947,-3.44016 l -0.17745,-0.141242 -1.09046,-0.01213 c -1.00836,-0.01117 -1.10097,-0.0067 -1.23162,0.06466"
         stroke="none"
         fill="#fbf2f2"
         fill-rule="evenodd"
         style="display:inline;fill:#fbf2f2;fill-opacity:1;stroke-width:0.100885;enable-background:new"
         inkscape:label="logo" />
      <path
         id="path20"
         d="m 420.9493,106.63779 c -0.058,0.0315 -0.13595,0.10198 -0.17323,0.15658 l -0.0678,0.0993 v 5.09775 5.09775 l 0.0678,0.0996 c 0.15893,0.23348 0.11425,0.22565 1.28261,0.22565 1.19132,0 1.14372,0.009 1.26596,-0.25111 l 0.0801,-0.17068 0.009,-2.76421 0.009,-2.76422 0.0667,-0.005 c 0.0367,-0.003 0.093,-0.003 0.12525,5.4e-4 0.0329,0.003 0.8826,0.82918 1.94482,1.8908 1.03753,1.03692 1.91139,1.89932 1.94188,1.91642 0.32907,0.18417 0.49974,0.20134 0.80186,0.0807 l 0.2331,-0.093 1.87838,-1.88185 c 1.91628,-1.91974 1.94301,-1.94429 2.08228,-1.9177 l 0.0803,0.0153 0.009,2.76089 0.009,2.76089 0.0817,0.17158 c 0.12389,0.26002 0.0743,0.25022 1.26431,0.25022 1.16836,0 1.12368,0.008 1.28261,-0.22566 l 0.0678,-0.0996 v -5.09797 -5.09774 l -0.0678,-0.0993 c -0.14145,-0.20727 -0.18241,-0.21495 -1.09273,-0.20487 l -0.81412,0.009 -0.1325,0.10544 c -0.0728,0.058 -1.24178,1.21378 -2.59767,2.56839 -2.44712,2.44486 -2.4661,2.46294 -2.58609,2.46294 -0.11998,0 -0.13896,-0.0181 -2.58607,-2.46294 -1.35593,-1.35459 -2.52488,-2.51037 -2.59772,-2.56836 l -0.13248,-0.10545 -0.81412,-0.009 c -0.75282,-0.008 -0.82196,-0.005 -0.91951,0.0483"
         stroke="none"
         fill="#fbf2f2"
         fill-rule="evenodd"
         style="display:inline;fill:#fbf2f2;fill-opacity:1;stroke-width:0.075319;enable-background:new"
         inkscape:label="logo" />
      <path
         id="path21"
         d="m 418.4878,143.80776 c -0.0453,0.0246 -0.10629,0.0797 -0.13543,0.12241 l -0.053,0.0776 v 3.98546 3.98547 l 0.053,0.0779 c 0.12425,0.18253 0.0893,0.17641 1.00275,0.17641 0.93139,0 0.89417,0.007 0.98974,-0.19632 l 0.0626,-0.13344 0.007,-2.16108 0.007,-2.16109 0.0521,-0.004 c 0.0287,-0.002 0.0727,-0.002 0.0979,4.2e-4 0.0257,0.002 0.69002,0.64826 1.52047,1.47824 0.81115,0.81068 1.49434,1.48491 1.51818,1.49828 0.25727,0.14398 0.3907,0.15741 0.6269,0.0631 l 0.18224,-0.0727 1.46854,-1.47124 c 1.49816,-1.50087 1.51906,-1.52007 1.62794,-1.49928 l 0.0628,0.012 0.007,2.15849 0.007,2.15849 0.0639,0.13414 c 0.0969,0.20329 0.0581,0.19563 0.98845,0.19563 0.91343,0 0.8785,0.006 1.00275,-0.17643 l 0.053,-0.0779 v -3.98564 -3.98546 l -0.053,-0.0776 c -0.11058,-0.16204 -0.14261,-0.16805 -0.8543,-0.16017 l -0.63649,0.007 -0.10359,0.0824 c -0.0569,0.0453 -0.97083,0.94894 -2.03088,2.00799 -1.91318,1.91141 -1.92802,1.92554 -2.02183,1.92554 -0.0938,0 -0.10864,-0.0142 -2.02181,-1.92554 -1.06008,-1.05904 -1.97398,-1.96263 -2.03092,-2.00797 l -0.10358,-0.0824 -0.63648,-0.007 c -0.58856,-0.006 -0.64262,-0.004 -0.71888,0.0378"
         stroke="none"
         fill="#fbf2f2"
         fill-rule="evenodd"
         style="display:inline;fill:#fbf2f2;fill-opacity:1;stroke-width:0.0588851;enable-background:new"
         inkscape:label="logo" />
    </g>
    <g
       inkscape:groupmode="layer"
       id="layer5"
       inkscape:label="Highlights"
       style="display:inline"
       sodipodi:insensitive="true">
      <path
         style="opacity:0.12999998;color:#bebebe;fill:#ffffff;fill-opacity:1;fill-rule:nonzero;stroke:none;stroke-width:0;marker:none;visibility:visible;display:inline;overflow:visible;enable-background:accumulate"
         d="M 84,47 C 56.836703,47 35,68.836703 35,96 l 0,1 C 35,69.836703 56.836703,48 84,48 l 120,0 c 27.1633,0 49,21.836703 49,49 l 0,-1 C 253,68.836703 231.1633,47 204,47 L 84,47 z"
         id="rect3894"
         inkscape:connector-curvature="0" />
      <path
         style="opacity:0.12999998;color:#bebebe;fill:#ffffff;fill-opacity:1;fill-rule:nonzero;stroke:none;stroke-width:0;marker:none;visibility:visible;display:inline;overflow:visible;enable-background:accumulate"
         d="m 419,141 c -1.1253,0 -2,0.8747 -2,2 l 0,1 c 0,-1.1253 0.8747,-2 2,-2 l 10,0 c 1.1253,0 2,0.8747 2,2 l 0,-1 c 0,-1.1253 -0.8747,-2 -2,-2 l -10,0 z"
         id="rect3896"
         inkscape:connector-curvature="0" />
      <path
         style="opacity:0.12999998;color:#bebebe;fill:#ffffff;fill-opacity:1;fill-rule:nonzero;stroke:none;stroke-width:0;marker:none;visibility:visible;display:inline;overflow:visible;enable-background:accumulate"
         d="m 422,102 c -2.2333,0 -4,1.7667 -4,4 l 0,1 c 0,-2.2333 1.7667,-4 4,-4 l 12,0 c 2.2333,0 4,1.7667 4,4 l 0,-1 c 0,-2.2333 -1.7667,-4 -4,-4 l -12,0 z"
         id="rect3898"
         inkscape:connector-curvature="0" />
      <path
         style="opacity:0.12999998;color:#bebebe;fill:#ffffff;fill-opacity:1;fill-rule:nonzero;stroke:none;stroke-width:0;marker:none;visibility:visible;display:inline;overflow:visible;enable-background:accumulate"
         d="m 424,54 c -3.3413,0 -6,2.658703 -6,6 l 0,1 c 0,-3.341297 2.6587,-6 6,-6 l 16,0 c 3.3413,0 6,2.658703 6,6 l 0,-1 c 0,-3.341297 -2.6587,-6 -6,-6 l -16,0 z"
         id="rect3900"
         inkscape:connector-curvature="0" />
      <path
         style="opacity:0.12999998;color:#bebebe;fill:#ffffff;fill-opacity:1;fill-rule:nonzero;stroke:none;stroke-width:0;marker:none;visibility:visible;display:inline;overflow:visible;enable-background:accumulate"
         d="m 300,224 c -4.4493,0 -8,3.5507 -8,8 l 0,1 c 0,-4.4493 3.5507,-8 8,-8 l 24,0 c 4.4493,0 8,3.5507 8,8 l 0,-1 c 0,-4.4493 -3.5507,-8 -8,-8 l -24,0 z"
         id="rect3902"
         inkscape:connector-curvature="0" />
      <path
         style="opacity:0.12999998;color:#bebebe;fill:#ffffff;fill-opacity:1;fill-rule:nonzero;stroke:none;stroke-width:0;marker:none;visibility:visible;display:inline;overflow:visible;enable-background:accumulate"
         d="m 310,33 c -9.4353,0 -17,7.564703 -17,17 l 0,1 c 0,-9.435297 7.5647,-17 17,-17 l 52,0 c 9.4353,0 17,7.564703 17,17 l 0,-1 c 0,-9.435297 -7.5647,-17 -17,-17 l -52,0 z"
         id="rect3904"
         inkscape:connector-curvature="0" />
      <path
         style="opacity:0.12999998;color:#bebebe;fill:#ffffff;fill-opacity:1;fill-rule:nonzero;stroke:none;stroke-width:0;marker:none;visibility:visible;display:inline;overflow:visible;enable-background:accumulate"
         d="m 302.5,143 c -6.3883,0 -11.5,5.1117 -11.5,11.5 l 0,1 c 0,-6.3883 5.1117,-11.5 11.5,-11.5 l 35,0 c 6.3883,0 11.5,5.1117 11.5,11.5 l 0,-1 c 0,-6.3883 -5.1117,-11.5 -11.5,-11.5 l -35,0 z"
         id="rect3906"
         inkscape:connector-curvature="0" />
      <path
         id="path4085"
         d="m 204,266 c 27.1633,0 49,-21.8367 49,-49 l 0,-1 c 0,27.1633 -21.8367,49 -49,49 L 84,265 C 56.8367,265 35,243.1633 35,216 l 0,1 c 0,27.1633 21.8367,49 49,49 l 120,0 z"
         style="opacity:0.41;color:#bebebe;fill:#000000;fill-opacity:1;fill-rule:nonzero;stroke:none;stroke-width:0;marker:none;visibility:visible;display:inline;overflow:visible;enable-background:accumulate"
         inkscape:connector-curvature="0" />
      <path
         id="path4087"
         d="m 429,156 c 1.1253,0 2,-0.8747 2,-2 l 0,-1 c 0,1.1253 -0.8747,2 -2,2 l -10,0 c -1.1253,0 -2,-0.8747 -2,-2 l 0,1 c 0,1.1253 0.8747,2 2,2 l 10,0 z"
         style="opacity:0.3;color:#bebebe;fill:#000000;fill-opacity:1;fill-rule:nonzero;stroke:none;stroke-width:0;marker:none;visibility:visible;display:inline;overflow:visible;enable-background:accumulate"
         inkscape:connector-curvature="0" />
      <path
         id="path4089"
         d="m 434,123 c 2.2333,0 4,-1.7667 4,-4 l 0,-1 c 0,2.2333 -1.7667,4 -4,4 l -12,0 c -2.2333,0 -4,-1.7667 -4,-4 l 0,1 c 0,2.2333 1.7667,4 4,4 l 12,0 z"
         style="opacity:0.3;color:#bebebe;fill:#000000;fill-opacity:1;fill-rule:nonzero;stroke:none;stroke-width:0;marker:none;visibility:visible;display:inline;overflow:visible;enable-background:accumulate"
         inkscape:connector-curvature="0" />
      <path
         id="path4091"
         d="m 440,83 c 3.3413,0 6,-2.6587 6,-6 l 0,-1 c 0,3.3413 -2.6587,6 -6,6 l -16,0 c -3.3413,0 -6,-2.6587 -6,-6 l 0,1 c 0,3.3413 2.6587,6 6,6 l 16,0 z"
         style="opacity:0.41;color:#bebebe;fill:#000000;fill-opacity:1;fill-rule:nonzero;stroke:none;stroke-width:0;marker:none;visibility:visible;display:inline;overflow:visible;enable-background:accumulate"
         inkscape:connector-curvature="0" />
      <path
         id="path4093"
         d="m 324,265 c 4.4493,0 8,-3.5507 8,-8 l 0,-1 c 0,4.4493 -3.5507,8 -8,8 l -24,0 c -4.4493,0 -8,-3.5507 -8,-8 l 0,1 c 0,4.4493 3.5507,8 8,8 l 24,0 z"
         style="opacity:0.41;color:#bebebe;fill:#000000;fill-opacity:1;fill-rule:nonzero;stroke:none;stroke-width:0;marker:none;visibility:visible;display:inline;overflow:visible;enable-background:accumulate"
         inkscape:connector-curvature="0" />
      <path
         id="path4095"
         d="m 362,120 c 9.4353,0 17,-7.5647 17,-17 l 0,-1 c 0,9.4353 -7.5647,17 -17,17 l -52,0 c -9.4353,0 -17,-7.5647 -17,-17 l 0,1 c 0,9.4353 7.5647,17 17,17 l 52,0 z"
         style="opacity:0.41;color:#bebebe;fill:#000000;fill-opacity:1;fill-rule:nonzero;stroke:none;stroke-width:0;marker:none;visibility:visible;display:inline;overflow:visible;enable-background:accumulate"
         inkscape:connector-curvature="0" />
      <path
         id="path4097"
         d="m 337.5,202 c 6.3883,0 11.5,-5.1117 11.5,-11.5 l 0,-1 c 0,6.3883 -5.1117,11.5 -11.5,11.5 l -35,0 c -6.3883,0 -11.5,-5.1117 -11.5,-11.5 l 0,1 c 0,6.3883 5.1117,11.5 11.5,11.5 l 35,0 z"
         style="opacity:0.41;color:#bebebe;fill:#000000;fill-opacity:1;fill-rule:nonzero;stroke:none;stroke-width:0;marker:none;visibility:visible;display:inline;overflow:visible;enable-background:accumulate"
         inkscape:connector-curvature="0" />
      <path
         inkscape:connector-curvature="0"
         id="path4280"
         d="M 84,265 C 56.836703,265 35,243.1633 35,216 l 0,-1 c 0,27.1633 21.836703,49 49,49 l 120,0 c 27.1633,0 49,-21.8367 49,-49 l 0,1 c 0,27.1633 -21.8367,49 -49,49 l -120,0 z"
         style="opacity:0.1;color:#bebebe;fill:#ffffff;fill-opacity:1;fill-rule:nonzero;stroke:none;stroke-width:0;marker:none;visibility:visible;display:inline;overflow:visible;enable-background:accumulate" />
      <path
         style="opacity:0.1;color:#bebebe;fill:#ffffff;fill-opacity:1;fill-rule:nonzero;stroke:none;stroke-width:0;marker:none;visibility:visible;display:inline;overflow:visible;enable-background:accumulate"
         d="m 300,264 c -4.4493,0 -8,-3.5507 -8,-8 l 0,-1 c 0,4.4493 3.5507,8 8,8 l 24,0 c 4.4493,0 8,-3.5507 8,-8 l 0,1 c 0,4.4493 -3.5507,8 -8,8 l -24,0 z"
         id="path4294"
         inkscape:connector-curvature="0" />
      <path
         style="opacity:0.1;color:#bebebe;fill:#ffffff;fill-opacity:1;fill-rule:nonzero;stroke:none;stroke-width:0;marker:none;visibility:visible;display:inline;overflow:visible;enable-background:accumulate"
         d="m 302.5,201 c -6.3883,0 -11.5,-5.1117 -11.5,-11.5 l 0,-1 c 0,6.3883 5.1117,11.5 11.5,11.5 l 35,0 c 6.3883,0 11.5,-5.1117 11.5,-11.5 l 0,1 c 0,6.3883 -5.1117,11.5 -11.5,11.5 l -35,0 z"
         id="path4296"
         inkscape:connector-curvature="0" />
      <path
         style="opacity:0.1;color:#bebebe;fill:#ffffff;fill-opacity:1;fill-rule:nonzero;stroke:none;stroke-width:0;marker:none;visibility:visible;display:inline;overflow:visible;enable-background:accumulate"
         d="m 310,119 c -9.4353,0 -17,-7.5647 -17,-17 l 0,-1 c 0,9.4353 7.5647,17 17,17 l 52,0 c 9.4353,0 17,-7.5647 17,-17 l 0,1 c 0,9.4353 -7.5647,17 -17,17 l -52,0 z"
         id="path4298"
         inkscape:connector-curvature="0" />
      <path
         style="opacity:0.1;color:#bebebe;fill:#ffffff;fill-opacity:1;fill-rule:nonzero;stroke:none;stroke-width:0;marker:none;visibility:visible;display:inline;overflow:visible;enable-background:accumulate"
         d="m 424,82 c -3.3413,0 -6,-2.658703 -6,-6 l 0,-1 c 0,3.341297 2.6587,6 6,6 l 16,0 c 3.3413,0 6,-2.658703 6,-6 l 0,1 c 0,3.341297 -2.6587,6 -6,6 l -16,0 z"
         id="path4300"
         inkscape:connector-curvature="0" />
      <path
         style="opacity:0.1;color:#bebebe;fill:#ffffff;fill-opacity:1;fill-rule:nonzero;stroke:none;stroke-width:0;marker:none;visibility:visible;display:inline;overflow:visible;enable-background:accumulate"
         d="m 422,122 c -2.2333,0 -4,-1.7667 -4,-4 l 0,-1 c 0,2.2333 1.7667,4 4,4 l 12,0 c 2.2333,0 4,-1.7667 4,-4 l 0,1 c 0,2.2333 -1.7667,4 -4,4 l -12,0 z"
         id="path4302"
         inkscape:connector-curvature="0" />
      <path
         style="opacity:0.1;color:#bebebe;fill:#ffffff;fill-opacity:1;fill-rule:nonzero;stroke:none;stroke-width:0;marker:none;visibility:visible;display:inline;overflow:visible;enable-background:accumulate"
         d="m 419,154.5 c -1.1253,0 -2,-0.8747 -2,-2 l 0,-1 c 0,1.1253 0.8747,2 2,2 l 10,0 c 1.1253,0 2,-0.8747 2,-2 l 0,1 c 0,1.1253 -0.8747,2 -2,2 l -10,0 z"
         id="path4304"
         inkscape:connector-curvature="0" />
    </g>
    <g
       inkscape:groupmode="layer"
       id="layer3"
       inkscape:label="Border"
       style="display:inline"
       sodipodi:insensitive="true">
      <path
         style="opacity:0.41;color:#bebebe;fill:#000000;fill-opacity:1;fill-rule:nonzero;stroke:none;stroke-width:0;marker:none;visibility:visible;display:inline;overflow:visible;enable-background:accumulate"
         d="m 422,101 c -2.77,0 -5,2.23 -5,5 l 0,12 c 0,2.77 2.23,5 5,5 l 12,0 c 2.77,0 5,-2.23 5,-5 l 0,-12 c 0,-2.77 -2.23,-5 -5,-5 l -12,0 z m 0,1 12,0 c 2.2333,0 4,1.7667 4,4 l 0,12 c 0,2.2333 -1.7667,4 -4,4 l -12,0 c -2.2333,0 -4,-1.7667 -4,-4 l 0,-12 c 0,-2.2333 1.7667,-4 4,-4 z"
         id="rect4099"
         inkscape:connector-curvature="0" />
      <path
         style="opacity:0.41;color:#bebebe;fill:#000000;fill-opacity:1;fill-rule:nonzero;stroke:none;stroke-width:0;marker:none;visibility:visible;display:inline;overflow:visible;enable-background:accumulate"
         d="m 424,53 c -3.878,0 -7,3.122 -7,7 l 0,16 c 0,3.878 3.122,7 7,7 l 16,0 c 3.878,0 7,-3.122 7,-7 l 0,-16 c 0,-3.878 -3.122,-7 -7,-7 l -16,0 z m 0,1 16,0 c 3.3413,0 6,2.658703 6,6 l 0,16 c 0,3.341297 -2.6587,6 -6,6 l -16,0 c -3.3413,0 -6,-2.658703 -6,-6 l 0,-16 c 0,-3.341297 2.6587,-6 6,-6 z"
         id="rect4151"
         inkscape:connector-curvature="0" />
      <path
         style="opacity:0.41;color:#bebebe;fill:#000000;fill-opacity:1;fill-rule:nonzero;stroke:none;stroke-width:0;marker:none;visibility:visible;display:inline;overflow:visible;enable-background:accumulate"
         d="m 419,140 c -1.662,0 -3,1.338 -3,3 l 0,10 c 0,1.662 1.338,3 3,3 l 10,0 c 1.662,0 3,-1.338 3,-3 l 0,-10 c 0,-1.662 -1.338,-3 -3,-3 l -10,0 z m 0,1 10,0 c 1.1253,0 2,0.8747 2,2 l 0,10 c 0,1.1253 -0.8747,2 -2,2 l -10,0 c -1.1253,0 -2,-0.8747 -2,-2 l 0,-10 c 0,-1.1253 0.8747,-2 2,-2 z"
         id="rect4095"
         inkscape:connector-curvature="0" />
      <path
         style="opacity:0.41;color:#bebebe;fill:#000000;fill-opacity:1;fill-rule:nonzero;stroke:none;stroke-width:0;marker:none;visibility:visible;display:inline;overflow:visible;enable-background:accumulate"
         d="m 300,223 c -4.986,0 -9,4.014 -9,9 l 0,24 c 0,4.986 4.014,9 9,9 l 24,0 c 4.986,0 9,-4.014 9,-9 l 0,-24 c 0,-4.986 -4.014,-9 -9,-9 l -24,0 z m 0,1 24,0 c 4.4493,0 8,3.5507 8,8 l 0,24 c 0,4.4493 -3.5507,8 -8,8 l -24,0 c -4.4493,0 -8,-3.5507 -8,-8 l 0,-24 c 0,-4.4493 3.5507,-8 8,-8 z"
         id="rect4783"
         inkscape:connector-curvature="0" />
      <path
         style="opacity:0.41;color:#bebebe;fill:#000000;fill-opacity:1;fill-rule:nonzero;stroke:none;stroke-width:0;marker:none;visibility:visible;display:inline;overflow:visible;enable-background:accumulate"
         d="m 302.5,142 c -6.925,0 -12.5,5.575 -12.5,12.5 l 0,35 c 0,6.925 5.575,12.5 12.5,12.5 l 35,0 c 6.925,0 12.5,-5.575 12.5,-12.5 l 0,-35 c 0,-6.925 -5.575,-12.5 -12.5,-12.5 l -35,0 z m 0,1 35,0 c 6.3883,0 11.5,5.1117 11.5,11.5 l 0,35 c 0,6.3883 -5.1117,11.5 -11.5,11.5 l -35,0 c -6.3883,0 -11.5,-5.1117 -11.5,-11.5 l 0,-35 c 0,-6.3883 5.1117,-11.5 11.5,-11.5 z"
         id="rect4515"
         inkscape:connector-curvature="0" />
      <path
         style="opacity:0.41;color:#bebebe;fill:#000000;fill-opacity:1;fill-rule:nonzero;stroke:none;stroke-width:0;marker:none;visibility:visible;display:inline;overflow:visible;enable-background:accumulate"
         d="m 310,32 c -9.972,0 -18,8.028 -18,18 l 0,52 c 0,9.972 8.028,18 18,18 l 52,0 c 9.972,0 18,-8.028 18,-18 l 0,-52 c 0,-9.972 -8.028,-18 -18,-18 l -52,0 z m 0,1 52,0 c 9.4353,0 17,7.564703 17,17 l 0,52 c 0,9.4353 -7.5647,17 -17,17 l -52,0 c -9.4353,0 -17,-7.5647 -17,-17 l 0,-52 c 0,-9.435297 7.5647,-17 17,-17 z"
         id="rect4511"
         inkscape:connector-curvature="0" />
      <path
         style="opacity:0.41;color:#bebebe;fill:#000000;fill-opacity:1;fill-rule:nonzero;stroke:none;stroke-width:0;marker:none;visibility:visible;display:inline;overflow:visible;enable-background:accumulate"
         d="M 84,46 C 56.3,46 34,68.3 34,96 l 0,120 c 0,27.7 22.3,50 50,50 l 120,0 c 27.7,0 50,-22.3 50,-50 L 254,96 C 254,68.3 231.7,46 204,46 L 84,46 z m 0,1 120,0 c 27.1633,0 49,21.836703 49,49 l 0,120 c 0,27.1633 -21.8367,49 -49,49 L 84,265 C 56.836703,265 35,243.1633 35,216 L 35,96 C 35,68.836703 56.836703,47 84,47 z"
         id="rect4040"
         inkscape:connector-curvature="0" />
    </g>
  </g>
</svg>
