<?xml version="1.0" encoding="UTF-8" standalone="no"?>
<svg
   inkscape:export-ydpi="96"
   inkscape:export-xdpi="96"
   width="480"
   height="300"
   id="svg11300"
   sodipodi:version="0.32"
   inkscape:version="1.3 (1:1.3+202307231459+0e150ed6c4)"
   sodipodi:docname="web-matrix.svg"
   inkscape:output_extension="org.inkscape.output.svg.inkscape"
   version="1.0"
   style="display:inline;enable-background:new"
   inkscape:export-filename="../../../../../../Desktop/a.png"
   xmlns:inkscape="http://www.inkscape.org/namespaces/inkscape"
   xmlns:sodipodi="http://sodipodi.sourceforge.net/DTD/sodipodi-0.dtd"
   xmlns:xlink="http://www.w3.org/1999/xlink"
   xmlns="http://www.w3.org/2000/svg"
   xmlns:svg="http://www.w3.org/2000/svg"
   xmlns:rdf="http://www.w3.org/1999/02/22-rdf-syntax-ns#"
   xmlns:cc="http://creativecommons.org/ns#"
   xmlns:dc="http://purl.org/dc/elements/1.1/">
  <sodipodi:namedview
     stroke="#ef2929"
     fill="#f57900"
     id="base"
     pagecolor="#777777"
     bordercolor="#666666"
     borderopacity="0.25490196"
     inkscape:pageopacity="0"
     inkscape:pageshadow="2"
     inkscape:zoom="1"
     inkscape:cx="240"
     inkscape:cy="178.5"
     inkscape:current-layer="layer6"
     showgrid="false"
     inkscape:grid-bbox="true"
     inkscape:document-units="px"
     inkscape:showpageshadow="false"
     inkscape:window-width="1440"
     inkscape:window-height="742"
     inkscape:window-x="0"
     inkscape:window-y="0"
     width="400px"
     height="300px"
     inkscape:snap-nodes="true"
     inkscape:snap-bbox="true"
     gridtolerance="10000"
     inkscape:object-nodes="true"
     inkscape:snap-grids="true"
     showguides="false"
     inkscape:guide-bbox="true"
     inkscape:window-maximized="1"
     inkscape:bbox-nodes="true"
     inkscape:bbox-paths="true"
     inkscape:snap-bbox-edge-midpoints="true"
     inkscape:snap-bbox-midpoints="true"
     inkscape:document-rotation="0"
     inkscape:pagecheckerboard="1"
     inkscape:deskcolor="#505050">
    <inkscape:grid
       spacingy="1px"
       spacingx="1px"
       id="grid5883"
       type="xygrid"
       enabled="true"
       visible="false"
       empspacing="4"
       snapvisiblegridlinesonly="true"
       dotted="false"
       color="#000000"
       opacity="0.1254902"
       empcolor="#203ef3"
       empopacity="0.36470588"
       originx="0"
       originy="0"
       units="px" />
    <inkscape:grid
       type="xygrid"
       id="grid11592"
       empspacing="8"
       visible="false"
       enabled="false"
       spacingx="0.5px"
       spacingy="0.5px"
       color="#ff0000"
       opacity="0.1254902"
       empcolor="#ff0000"
       empopacity="0.25098039"
       snapvisiblegridlinesonly="true"
       dotted="true"
       originx="0"
       originy="0"
       units="px" />
    <sodipodi:guide
       position="279,227"
       orientation="1,0"
       id="guide53"
       inkscape:locked="false" />
  </sodipodi:namedview>
  <defs
     id="defs3">
    <inkscape:path-effect
       effect="offset"
       id="path-effect15"
       is_visible="true"
       lpeversion="1.2"
       linejoin_type="miter"
       unit="px"
       offset="0.030071358"
       miter_limit="4"
       attempt_force_join="false"
       update_on_knot_move="true" />
    <inkscape:path-effect
       effect="offset"
       id="path-effect72"
       is_visible="true"
       lpeversion="1.2"
       linejoin_type="miter"
       unit="px"
       offset="0.113"
       miter_limit="4"
       attempt_force_join="false"
       update_on_knot_move="true" />
    <inkscape:path-effect
       effect="offset"
       id="path-effect63"
       is_visible="true"
       lpeversion="1.2"
       linejoin_type="miter"
       unit="px"
       offset="-0.0475"
       miter_limit="4"
       attempt_force_join="false"
       update_on_knot_move="true" />
    <inkscape:path-effect
       effect="offset"
       id="path-effect61"
       is_visible="true"
       lpeversion="1.2"
       linejoin_type="miter"
       unit="px"
       offset="-0.09570349"
       miter_limit="4"
       attempt_force_join="false"
       update_on_knot_move="true" />
    <inkscape:path-effect
       effect="offset"
       id="path-effect58"
       is_visible="true"
       lpeversion="1.2"
       linejoin_type="miter"
       unit="px"
       offset="0.0765"
       miter_limit="4"
       attempt_force_join="false"
       update_on_knot_move="true" />
    <inkscape:path-effect
       effect="offset"
       id="path-effect56"
       is_visible="true"
       lpeversion="1.2"
       linejoin_type="miter"
       unit="px"
       offset="0.12"
       miter_limit="4"
       attempt_force_join="false"
       update_on_knot_move="true" />
    <inkscape:path-effect
       effect="offset"
       id="path-effect55"
       is_visible="true"
       lpeversion="1.2"
       linejoin_type="miter"
       unit="px"
       offset="0.12"
       miter_limit="4"
       attempt_force_join="false"
       update_on_knot_move="true" />
    <inkscape:path-effect
       effect="offset"
       id="path-effect54"
       is_visible="true"
       lpeversion="1.2"
       linejoin_type="miter"
       unit="px"
       offset="0.184"
       miter_limit="4"
       attempt_force_join="false"
       update_on_knot_move="true" />
    <inkscape:path-effect
       effect="offset"
       id="path-effect53"
       is_visible="true"
       lpeversion="1.2"
       linejoin_type="miter"
       unit="mm"
       offset="0.039545686"
       miter_limit="4"
       attempt_force_join="false"
       update_on_knot_move="true" />
    <inkscape:path-effect
       effect="offset"
       id="path-effect41"
       is_visible="true"
       lpeversion="1.2"
       linejoin_type="miter"
       unit="px"
       offset="-0.03222256"
       miter_limit="4"
       attempt_force_join="false"
       update_on_knot_move="true" />
    <inkscape:path-effect
       effect="offset"
       id="path-effect40"
       is_visible="true"
       lpeversion="1.2"
       linejoin_type="miter"
       unit="px"
       offset="0.080769899"
       miter_limit="4"
       attempt_force_join="false"
       update_on_knot_move="true" />
    <inkscape:path-effect
       effect="offset"
       id="path-effect39"
       is_visible="true"
       lpeversion="1.2"
       linejoin_type="miter"
       unit="px"
       offset="0.08"
       miter_limit="4"
       attempt_force_join="false"
       update_on_knot_move="true" />
    <inkscape:path-effect
       effect="offset"
       id="path-effect38"
       is_visible="true"
       lpeversion="1.2"
       linejoin_type="miter"
       unit="px"
       offset="0.08"
       miter_limit="4"
       attempt_force_join="false"
       update_on_knot_move="true" />
    <inkscape:path-effect
       effect="offset"
       id="path-effect37"
       is_visible="true"
       lpeversion="1.2"
       linejoin_type="miter"
       unit="px"
       offset="0.08"
       miter_limit="4"
       attempt_force_join="false"
       update_on_knot_move="true" />
    <inkscape:path-effect
       effect="offset"
       id="path-effect36"
       is_visible="true"
       lpeversion="1.2"
       linejoin_type="miter"
       unit="px"
       offset="0.124"
       miter_limit="4"
       attempt_force_join="false"
       update_on_knot_move="true" />
    <inkscape:path-effect
       effect="offset"
       id="path-effect19"
       is_visible="true"
       lpeversion="1.2"
       linejoin_type="miter"
       unit="mm"
       offset="0"
       miter_limit="4"
       attempt_force_join="false"
       update_on_knot_move="true" />
    <linearGradient
       inkscape:collect="always"
       xlink:href="#outerBackgroundGradient-6"
       id="linearGradient4254"
       x1="35"
       y1="156"
       x2="253"
       y2="156"
       gradientUnits="userSpaceOnUse"
       gradientTransform="matrix(0,-1,1,0,-12,300)" />
    <linearGradient
       inkscape:collect="always"
       xlink:href="#outerBackgroundGradient-6"
       id="linearGradient4256"
       x1="417"
       y1="148"
       x2="431"
       y2="148"
       gradientUnits="userSpaceOnUse"
       gradientTransform="matrix(0,-1,1,0,276,572)" />
    <linearGradient
       inkscape:collect="always"
       xlink:href="#outerBackgroundGradient-6"
       id="linearGradient4260"
       x1="418"
       y1="68"
       x2="446"
       y2="68"
       gradientUnits="userSpaceOnUse"
       gradientTransform="matrix(0,-1,1,0,364,500)" />
    <linearGradient
       inkscape:collect="always"
       xlink:href="#outerBackgroundGradient-6"
       id="linearGradient4262"
       x1="292"
       y1="244"
       x2="332"
       y2="244"
       gradientUnits="userSpaceOnUse"
       gradientTransform="rotate(-90,312,244)" />
    <linearGradient
       inkscape:collect="always"
       xlink:href="#outerBackgroundGradient-6"
       id="linearGradient4264"
       x1="293"
       y1="76"
       x2="379"
       y2="76"
       gradientUnits="userSpaceOnUse"
       gradientTransform="rotate(-90,336.00001,75.999997)" />
    <linearGradient
       inkscape:collect="always"
       xlink:href="#outerBackgroundGradient-6"
       id="linearGradient4266"
       x1="291"
       y1="172"
       x2="349"
       y2="172"
       gradientUnits="userSpaceOnUse"
       gradientTransform="rotate(-90,320,172)" />
    <linearGradient
       inkscape:collect="always"
       xlink:href="#outerBackgroundGradient-6"
       id="linearGradient3870"
       gradientUnits="userSpaceOnUse"
       gradientTransform="matrix(0,-1,1,0,316,540)"
       x1="418"
       y1="112"
       x2="438"
       y2="112" />
    <linearGradient
       id="outerBackgroundGradient-6">
      <stop
         style="stop-color:#000000;stop-opacity:1;"
         offset="0"
         id="stop3864-8-6-9" />
      <stop
         style="stop-color:#161616;stop-opacity:1;"
         offset="1"
         id="stop3866-9-1-9" />
    </linearGradient>
  </defs>
  <metadata
     id="metadata4">
    <rdf:RDF>
      <cc:Work
         rdf:about="">
        <dc:format>image/svg+xml</dc:format>
        <dc:type
           rdf:resource="http://purl.org/dc/dcmitype/StillImage" />
        <dc:creator>
          <cc:Agent>
            <dc:title>Sam Hewitt</dc:title>
          </cc:Agent>
        </dc:creator>
        <dc:source />
        <cc:license
           rdf:resource="" />
        <dc:subject>
          <rdf:Bag />
        </dc:subject>
        <dc:date />
        <dc:rights>
          <cc:Agent>
            <dc:title />
          </cc:Agent>
        </dc:rights>
        <dc:publisher>
          <cc:Agent>
            <dc:title />
          </cc:Agent>
        </dc:publisher>
        <dc:identifier />
        <dc:relation />
        <dc:language />
        <dc:coverage />
        <dc:description />
        <dc:contributor>
          <cc:Agent>
            <dc:title />
          </cc:Agent>
        </dc:contributor>
      </cc:Work>
      <cc:Work
         rdf:about="">
        <dc:format>image/svg+xml</dc:format>
        <dc:type
           rdf:resource="http://purl.org/dc/dcmitype/StillImage" />
      </cc:Work>
    </rdf:RDF>
  </metadata>
  <g
     style="display:inline"
     inkscape:groupmode="layer"
     inkscape:label="Icon"
     id="layer1">
    <g
       style="display:none"
       inkscape:label="Baseplate"
       id="layer7"
       inkscape:groupmode="layer">
      <text
         y="19.745117"
         xml:space="preserve"
         x="15.006836"
         style="font-style:normal;font-variant:normal;font-weight:normal;font-stretch:normal;line-height:0%;font-family:'DejaVu Sans';-inkscape-font-specification:'DejaVu Sans';display:inline;fill:#000000;fill-opacity:1;stroke:none;enable-background:new"
         inkscape:label="context"
         id="context"><tspan
           style="font-style:normal;font-variant:normal;font-weight:normal;font-stretch:normal;font-size:18px;line-height:1.25;font-family:'DejaVu Sans';-inkscape-font-specification:'DejaVu Sans'"
           y="19.745117"
           x="15.006836"
           sodipodi:role="line"
           id="tspan3933">apps</tspan></text>
      <text
         y="19.745117"
         xml:space="preserve"
         x="122.48828"
         style="font-style:normal;font-variant:normal;font-weight:bold;font-stretch:normal;line-height:0%;font-family:'DejaVu Sans';-inkscape-font-specification:'DejaVu Sans Bold';text-align:start;writing-mode:lr-tb;text-anchor:start;display:inline;fill:#000000;fill-opacity:1;stroke:none;enable-background:new"
         inkscape:label="icon-name"
         id="icon-name"><tspan
           style="font-style:normal;font-variant:normal;font-weight:bold;font-stretch:normal;font-size:18px;line-height:1.25;font-family:'DejaVu Sans';-inkscape-font-specification:'DejaVu Sans Bold';opacity:0.99"
           y="19.745117"
           x="122.48828"
           sodipodi:role="line"
           id="tspan3937">web-matrix</tspan></text>
      <rect
         style="display:inline;overflow:visible;visibility:visible;fill:#eeeeec;fill-opacity:1;fill-rule:nonzero;stroke:none;stroke-width:2;marker:none;enable-background:accumulate"
         id="rect16x16"
         width="16"
         height="16"
         x="416"
         y="140"
         inkscape:label="16x16" />
      <rect
         style="display:inline;overflow:visible;visibility:visible;fill:#d4d4d4;fill-opacity:1;fill-rule:nonzero;stroke:none;stroke-width:2;marker:none;enable-background:accumulate"
         id="rect24x24"
         width="24"
         height="24"
         x="416"
         y="100"
         inkscape:label="24x24" />
      <rect
         style="display:inline;overflow:visible;visibility:visible;fill:#eeeeec;fill-opacity:1;fill-rule:nonzero;stroke:none;stroke-width:2;marker:none;enable-background:accumulate"
         id="rect32x32"
         width="32"
         height="32"
         x="416"
         y="52"
         inkscape:label="32x32" />
      <rect
         inkscape:label="22x22"
         y="101"
         x="417"
         height="22"
         width="22"
         id="rect22x22"
         style="display:inline;overflow:visible;visibility:visible;fill:#eeeeec;fill-opacity:1;fill-rule:nonzero;stroke:none;stroke-width:2;marker:none;enable-background:accumulate" />
      <rect
         inkscape:label="48x48"
         y="220"
         x="288"
         height="48"
         width="48"
         id="rect48x48"
         style="display:inline;overflow:visible;visibility:visible;fill:#eeeeec;fill-opacity:1;fill-rule:nonzero;stroke:none;stroke-width:2;marker:none;enable-background:accumulate" />
      <rect
         style="display:inline;overflow:visible;visibility:visible;fill:#eeeeec;fill-opacity:1;fill-rule:nonzero;stroke:none;stroke-width:2;marker:none;enable-background:accumulate"
         id="rect256x256"
         width="256"
         height="256"
         x="16"
         y="28"
         inkscape:label="256x256" />
      <rect
         style="display:inline;overflow:visible;visibility:visible;fill:#eeeeec;fill-opacity:1;fill-rule:nonzero;stroke:none;stroke-width:2;marker:none;enable-background:accumulate"
         id="rect64x64"
         width="64"
         height="64"
         x="288"
         y="140"
         inkscape:label="64x64" />
      <rect
         style="display:inline;overflow:visible;visibility:visible;fill:#eeeeec;fill-opacity:1;fill-rule:nonzero;stroke:none;stroke-width:2;marker:none;enable-background:accumulate"
         id="rect96x96"
         width="96"
         height="96"
         x="288"
         y="28"
         inkscape:label="96x96" />
    </g>
    <g
       inkscape:groupmode="layer"
       id="layer4"
       inkscape:label="Shadow"
       style="display:inline"
       sodipodi:insensitive="true">
      <rect
         ry="50"
         y="47"
         x="34"
         height="220"
         width="220"
         id="rect4114"
         style="color:#bebebe;display:inline;overflow:visible;visibility:visible;opacity:0.1;fill:#000000;fill-opacity:1;fill-rule:nonzero;stroke:none;stroke-width:0;marker:none;enable-background:accumulate" />
      <rect
         style="color:#bebebe;display:inline;overflow:visible;visibility:visible;opacity:0.1;fill:#000000;fill-opacity:1;fill-rule:nonzero;stroke:none;stroke-width:0;marker:none;enable-background:accumulate"
         id="rect4120"
         width="30"
         height="30"
         x="417"
         y="54"
         ry="7" />
      <rect
         transform="scale(1,-1)"
         ry="9"
         y="-266"
         x="291"
         height="42"
         width="42"
         id="rect4122"
         style="color:#bebebe;display:inline;overflow:visible;visibility:visible;opacity:0.1;fill:#000000;fill-opacity:1;fill-rule:nonzero;stroke:none;stroke-width:0;marker:none;enable-background:accumulate" />
      <rect
         style="color:#bebebe;display:inline;overflow:visible;visibility:visible;opacity:0.1;fill:#000000;fill-opacity:1;fill-rule:nonzero;stroke:none;stroke-width:0;marker:none;enable-background:accumulate"
         id="rect4124"
         width="88"
         height="88"
         x="292"
         y="33"
         ry="18" />
      <rect
         ry="12.5"
         y="143"
         x="290"
         height="60"
         width="60"
         id="rect4126"
         style="color:#bebebe;display:inline;overflow:visible;visibility:visible;opacity:0.1;fill:#000000;fill-opacity:1;fill-rule:nonzero;stroke:none;stroke-width:0;marker:none;enable-background:accumulate" />
      <path
         id="path4268"
         d="m 422,101 c -2.77,0 -5,2.23 -5,5 v 12 c 0,2.77 2.23,5 5,5 h 12 c 2.77,0 5,-2.23 5,-5 v -12 c 0,-2.77 -2.23,-5 -5,-5 z"
         style="color:#bebebe;display:inline;overflow:visible;visibility:visible;opacity:0.1;fill:#000000;fill-opacity:1;fill-rule:nonzero;stroke:none;stroke-width:0;marker:none;enable-background:accumulate"
         inkscape:connector-curvature="0"
         sodipodi:nodetypes="sssssssss" />
      <path
         id="path4270"
         d="m 419,140 c -1.662,0 -3,1.338 -3,3 v 10 c 0,1.662 1.338,3 3,3 h 10 c 1.662,0 3,-1.338 3,-3 v -10 c 0,-1.662 -1.338,-3 -3,-3 z"
         style="color:#bebebe;display:inline;overflow:visible;visibility:visible;opacity:0.1;fill:#000000;fill-opacity:1;fill-rule:nonzero;stroke:none;stroke-width:0;marker:none;enable-background:accumulate"
         inkscape:connector-curvature="0"
         sodipodi:nodetypes="sssssssss" />
    </g>
    <g
       inkscape:groupmode="layer"
       id="layer2"
       inkscape:label="Background"
       style="display:inline">
      <path
         style="color:#bebebe;display:inline;overflow:visible;visibility:visible;fill:url(#linearGradient4254);fill-opacity:1;fill-rule:nonzero;stroke:none;stroke-width:2;marker:none;enable-background:accumulate"
         d="M 84,46.5 C 56.568735,46.5 34.5,68.568732 34.5,96 v 120 c 0,27.43127 22.068735,49.5 49.5,49.5 h 120 c 27.43127,0 49.5,-22.06873 49.5,-49.5 V 96 C 253.5,68.568732 231.43127,46.5 204,46.5 Z"
         id="path4200" />
      <path
         style="color:#bebebe;display:inline;overflow:visible;visibility:visible;fill:url(#linearGradient4256);fill-opacity:1;fill-rule:nonzero;stroke:none;stroke-width:2;marker:none;enable-background:accumulate"
         d="m 419,140.5 c -1.3844,0 -2.5,1.1156 -2.5,2.5 v 10 c 0,1.3844 1.1156,2.5 2.5,2.5 h 10 c 1.3844,0 2.5,-1.1156 2.5,-2.5 v -10 c 0,-1.3844 -1.1156,-2.5 -2.5,-2.5 z"
         id="path4202" />
      <path
         style="color:#bebebe;display:inline;overflow:visible;visibility:visible;fill:url(#linearGradient3870);fill-opacity:1;fill-rule:nonzero;stroke:none;stroke-width:2;marker:none;enable-background:accumulate"
         d="m 422,101.5 c -2.49699,0 -4.5,2.00301 -4.5,4.5 v 12 c 0,2.49699 2.00301,4.5 4.5,4.5 h 12 c 2.49699,0 4.5,-2.00301 4.5,-4.5 v -12 c 0,-2.49699 -2.00301,-4.5 -4.5,-4.5 z"
         id="path4204" />
      <path
         style="color:#bebebe;display:inline;overflow:visible;visibility:visible;fill:url(#linearGradient4260);fill-opacity:1;fill-rule:nonzero;stroke:none;stroke-width:2;marker:none;enable-background:accumulate"
         d="m 424,53.5 c -3.60654,0 -6.5,2.893464 -6.5,6.5 v 16 c 0,3.606536 2.89346,6.5 6.5,6.5 h 16 c 3.60654,0 6.5,-2.893464 6.5,-6.5 V 60 c 0,-3.606536 -2.89346,-6.5 -6.5,-6.5 z"
         id="path4206" />
      <path
         style="color:#bebebe;display:inline;overflow:visible;visibility:visible;fill:url(#linearGradient4262);fill-opacity:1;fill-rule:nonzero;stroke:none;stroke-width:2;marker:none;enable-background:accumulate"
         d="m 300,223.5 c -4.71531,0 -8.5,3.78469 -8.5,8.5 v 24 c 0,4.71531 3.78469,8.5 8.5,8.5 h 24 c 4.71531,0 8.5,-3.78469 8.5,-8.5 v -24 c 0,-4.71531 -3.78469,-8.5 -8.5,-8.5 z"
         id="path4208" />
      <path
         style="color:#bebebe;display:inline;overflow:visible;visibility:visible;fill:url(#linearGradient4264);fill-opacity:1;fill-rule:nonzero;stroke:none;stroke-width:2;marker:none;enable-background:accumulate"
         d="m 310,32.499998 c -9.70255,0 -17.5,7.797452 -17.5,17.5 V 102 c 0,9.70255 7.79745,17.5 17.5,17.5 h 52 c 9.70255,0 17.5,-7.79745 17.5,-17.5 V 49.999998 c 0,-9.702548 -7.79745,-17.5 -17.5,-17.5 z"
         id="path4210" />
      <path
         style="color:#bebebe;display:inline;overflow:visible;visibility:visible;fill:url(#linearGradient4266);fill-opacity:1;fill-rule:nonzero;stroke:none;stroke-width:2;marker:none;enable-background:accumulate"
         d="m 302.5,142.5 c -6.65502,0 -12,5.34498 -12,12 v 35 c 0,6.65502 5.34498,12 12,12 h 35 c 6.65502,0 12,-5.34498 12,-12 v -35 c 0,-6.65502 -5.34498,-12 -12,-12 z"
         id="path4212" />
    </g>
    <g
       inkscape:groupmode="layer"
       id="layer6"
       inkscape:label="Symbols"
       style="display:inline">
      <path
         id="path5055"
         style="opacity:0.05;fill:none;fill-opacity:1;stroke:#000000;stroke-opacity:1"
         d="m 64,122 v 68 h 7 v -2 h -5 v -64 h 5 v -2 z m 153,0 v 2 h 5 v 64 h -5 v 2 h 7 v -68 z m -38,13 v 5 h 7 v -5 z m -32.9707,2 -0.0293,7 h -4 v 5 h 4 v 13.48047 c 0,1.22694 0.21491,2.21675 0.64258,2.9707 0.42681,0.75456 1.00856,1.33786 1.74804,1.7461 0.73906,0.40925 1.59479,0.68314 2.56446,0.82421 0.96903,0.1417 1.99586,0.21289 3.08008,0.2129 0.69006,0 1.3964,-0.0167 2.11914,-0.0469 0.72252,-0.0321 1.25427,-0.0736 1.8457,-0.16797 v -5.18945 c -0.32839,0.0625 -0.5489,0.0922 -0.91016,0.12304 -0.36169,0.0317 -0.73846,0.0469 -1.13281,0.0469 -1.18285,0 -1.97151,-0.18904 -2.36523,-0.56641 C 153.19723,162.05661 153,161.30125 153,160.16992 V 149 h 5 v -5 h -5 l 0.0293,-7 z m -54.205081,5.52148 c -1.60648,0 -3.041772,0.35525 -4.296875,1.06641 -1.116257,0.63319 -2.075419,1.49861 -2.896485,2.58789 v -2.99414 H 78 V 168 h 7 v -14.36719 c 0,-1.17583 0.167399,-2.10602 0.490234,-2.80859 0.329612,-0.71675 0.719966,-1.25315 1.167969,-1.6211 0.458488,-0.37636 0.927451,-0.62728 1.404297,-0.75976 0.500762,-0.13968 0.882981,-0.20508 1.167969,-0.20508 1.028261,0 1.774292,0.17487 2.267578,0.50391 0.502231,0.33684 0.861841,0.78735 1.076172,1.33984 0.222415,0.5733 0.35038,1.19941 0.380859,1.88477 C 92.984613,152.67086 93,153.38551 93,154.10547 V 168 h 7 v -13.80078 c 0,-0.74434 0.0512,-1.48129 0.1582,-2.20899 0.10427,-0.71503 0.31715,-1.34932 0.62696,-1.90625 0.30577,-0.54866 0.72661,-0.99505 1.26757,-1.33789 0.52821,-0.33329 1.23371,-0.50781 2.13282,-0.50781 0.90343,0 1.59466,0.15314 2.09179,0.44141 0.50598,0.29516 0.88643,0.69154 1.14454,1.1875 0.26215,0.50528 0.42401,1.10526 0.48437,1.80469 0.0614,0.71699 0.0937,1.47971 0.0937,2.29101 V 168 h 7 v -16.53516 c 0,-1.59214 -0.21819,-2.96456 -0.66211,-4.11328 -0.44357,-1.14254 -1.06151,-2.07673 -1.86133,-2.79492 -0.79771,-0.71493 -1.75615,-1.23221 -2.86328,-1.55469 -1.10233,-0.3206 -2.29503,-0.48047 -3.57812,-0.48047 -1.70355,0 -3.18513,0.42019 -4.44336,1.26368 -1.12626,0.7549 -2.038723,1.62049 -2.742191,2.59375 -0.659565,-1.37306 -1.581903,-2.36123 -2.791015,-2.93946 -1.281026,-0.61177 -2.693354,-0.91797 -4.234375,-0.91797 z m 37.542971,0.43555 c -1.406,0 -2.80382,0.13345 -4.19336,0.40039 -1.39017,0.26755 -2.64067,0.71505 -3.75195,1.34375 -1.11214,0.62951 -2.02726,1.46205 -2.7461,2.5 -0.72032,1.03694 -1.12902,2.34244 -1.22656,3.91406 h 6.96484 c 0.13026,-1.3201 0.58856,-2.26215 1.37305,-2.82812 0.78492,-0.56597 1.86479,-0.84961 3.23828,-0.84961 0.62047,0 1.20045,0.0396 1.74023,0.11719 0.53919,0.079 1.01295,0.23697 1.42188,0.47265 0.40849,0.23569 0.73537,0.56596 0.98047,0.99024 0.24532,0.42427 0.36914,0.99801 0.36914,1.7207 0.032,0.69224 -0.17965,1.21853 -0.63672,1.58008 -0.45832,0.36195 -1.08032,0.63759 -1.86523,0.82617 -0.7847,0.18858 -1.68372,0.32923 -2.69727,0.42383 -1.01397,0.0942 -2.04334,0.22022 -3.08984,0.37695 -1.04647,0.15814 -2.08543,0.37172 -3.11524,0.63867 -1.03045,0.26715 -1.94535,0.66688 -2.74609,1.20118 -0.80222,0.53512 -1.45644,1.24982 -1.96289,2.14648 -0.50774,0.89524 -0.75977,2.03687 -0.75977,3.41992 0,1.25719 0.22067,2.34222 0.66211,3.25391 0.44143,0.91168 1.05493,1.66725 1.83985,2.26367 0.78468,0.59845 1.69939,1.03712 2.74609,1.32031 1.04628,0.28258 2.17446,0.42383 3.38477,0.42383 1.56959,0 3.10672,-0.21911 4.61132,-0.6582 1.50312,-0.44032 2.81191,-1.21183 3.92383,-2.3125 0.032,0.40905 0.0875,0.81072 0.16992,1.20312 0.0812,0.39342 0.18922,0.77671 0.32032,1.1543 h 7.0625 c -0.32722,-0.50284 -0.55572,-1.25699 -0.68555,-2.26367 -0.13111,-1.00608 -0.19727,-2.05827 -0.19727,-3.16016 v -12.68555 c 0,-1.47803 -0.34254,-2.66644 -1.02929,-3.5625 -0.68695,-0.89562 -1.56944,-1.59482 -2.64844,-2.09765 -1.07921,-0.50243 -2.27419,-0.84009 -3.58203,-1.01367 -1.30805,-0.17235 -2.59947,-0.25977 -3.875,-0.25977 z m 46.51953,0 c -0.88754,0 -1.74178,0.12583 -2.5625,0.37695 -0.82239,0.25233 -1.59394,0.60542 -2.31641,1.06055 -0.7231,0.45594 -1.36494,1.00647 -1.92383,1.65039 -0.5593,0.64514 -1.004,1.34444 -1.33203,2.09961 h -0.0976 v -4.52734 H 161 V 168 h 7 v -10.98828 c 0,-1.10028 0.11592,-2.12347 0.3457,-3.06641 0.22979,-0.94355 0.61413,-1.76674 1.15625,-2.47461 0.54253,-0.70766 1.25723,-1.26693 2.14453,-1.67578 0.88691,-0.40823 1.97411,-0.61328 3.25586,-0.61328 0.42733,0 0.86966,0.0249 1.33008,0.0723 0.45958,0.0467 0.85255,0.10071 1.18164,0.16406 v -6.22461 c -0.5593,-0.15692 -1.06734,-0.23633 -1.52734,-0.23633 z M 179,144 v 24 h 7 v -24 z m 10.49805,0 8.00586,11.375 -8.75977,12.625 h 7.48828 l 5.08594,-7.56641 L 206.4043,168 h 7.63086 L 205.03906,155.23438 213.04492,144 h -7.39453 l -4.23828,6.26758 L 197.12695,144 Z m -55.96094,12.06836 v 2.5 c 0,0.37717 -0.042,0.88109 -0.12305,1.50976 -0.082,0.62971 -0.30279,1.24847 -0.66211,1.86133 -0.36037,0.61368 -0.91423,1.14038 -1.66601,1.58008 -0.75283,0.44071 -1.81618,0.66016 -3.18946,0.66016 -0.55606,0 -1.09469,-0.046 -1.61718,-0.14063 -0.52399,-0.0938 -0.98275,-0.25845 -1.375,-0.49414 -0.39225,-0.23568 -0.7028,-0.5593 -0.93164,-0.96875 -0.22904,-0.40784 -0.34375,-0.91098 -0.34375,-1.50781 0,-0.6287 0.11469,-1.14779 0.34375,-1.55664 0.22884,-0.40783 0.52963,-0.74632 0.90625,-1.01367 0.37557,-0.26715 0.81672,-0.47858 1.32421,-0.63672 0.50626,-0.15651 1.02332,-0.28338 1.54688,-0.37695 0.55543,-0.0944 1.11168,-0.17279 1.66797,-0.23633 0.55586,-0.0625 1.0847,-0.14193 1.5918,-0.23633 0.50645,-0.0946 0.98065,-0.21223 1.42187,-0.35352 0.44165,-0.1417 0.81076,-0.3375 1.10547,-0.58984 z"
         sodipodi:nodetypes="ccccccccccccccccccccccccccccscccsccccscsccccccsccccccscccscscsccscccscccsccscccscccssccccccsccccccccsccssccsccccccsscccsscccccccccscccscccscccccccccccccccccccscccscscscccccccc" />
      <path
         id="path5057"
         style="opacity:0.05;fill:none;fill-opacity:1;stroke:#000000;stroke-opacity:1"
         d="m 303,62 v 28 h 3 v -1 h -2 V 63 h 2 v -1 z m 63,0 v 1 h 2 v 26 h -2 v 1 h 3 V 62 Z m -15,4.5 V 69 h 3 V 66.5 Z M 337.0332,68 v 3 H 335.25 v 2 h 1.7832 v 5.695312 c 0,0.506114 0.0903,0.915559 0.27149,1.226563 0.1808,0.311255 0.4309,0.550354 0.74414,0.71875 0.31307,0.168817 0.67324,0.283603 1.08398,0.341797 0.41048,0.05845 0.84542,0.08594 1.30469,0.08594 0.29231,0 0.59032,-0.0051 0.89648,-0.01758 C 341.64004,81.037549 341.74947,81.03894 342,81 v -2.140625 c -0.13911,0.02579 -0.11454,0.01853 -0.26758,0.03125 -0.1532,0.01308 -0.31342,0.01953 -0.48047,0.01953 -0.50106,0 -0.83517,-0.07871 -1.00195,-0.234375 C 340.08286,78.52028 340,78.20886 340,77.742188 V 73 h 2 v -2 h -2 v -3 z m -7.0625,2.429688 c -0.56504,0 -1.12557,0.05632 -1.68359,0.167968 -0.56252,0.112754 -1.07062,0.301566 -1.52344,0.56836 -0.45648,0.269096 -0.8321,0.624948 -1.12695,1.068359 -0.29969,0.449308 -0.46625,1.009293 -0.50586,1.673828 l -0.008,0.126953 h 2.99609 l 0.01,-0.107422 c 0.0495,-0.522416 0.22093,-0.87724 0.49609,-1.083984 0.28395,-0.213236 0.68395,-0.326172 1.21094,-0.326172 0.24105,0 0.46526,0.01596 0.67187,0.04687 0.19976,0.03047 0.37067,0.0915 0.51758,0.179688 0.14262,0.08569 0.25839,0.205872 0.3457,0.363281 0.084,0.151308 0.1327,0.367163 0.13282,0.658203 0.0112,0.25228 -0.0674,0.436405 -0.21094,0.554687 -0.16393,0.134833 -0.39217,0.23958 -0.69141,0.314454 -0.30393,0.07607 -0.65403,0.135262 -1.05078,0.173828 -0.40386,0.03908 -0.81346,0.08925 -1.23047,0.154297 -0.41885,0.06592 -0.83417,0.156369 -1.24609,0.267578 -0.42042,0.113518 -0.7954,0.284626 -1.125,0.513672 -0.33467,0.232491 -0.60554,0.540561 -0.81445,0.925781 -0.21322,0.391523 -0.31446,0.882746 -0.31446,1.466797 0,0.531887 0.0877,0.999277 0.27149,1.394531 0.18258,0.392732 0.43748,0.716471 0.76367,0.974609 0.32415,0.257463 0.6999,0.447478 1.12891,0.56836 0.42624,0.119901 0.88605,0.177734 1.375,0.177734 0.63364,0 1.2538,-0.09074 1.86132,-0.275391 0.53615,-0.163565 1.00997,-0.435739 1.42383,-0.8125 0.0121,0.08909 0.0274,0.176708 0.0449,0.263672 0.0332,0.167585 0.0774,0.330049 0.13086,0.490235 L 331.84766,81 h 3.09961 l -0.11524,-0.183594 c -0.11803,-0.188884 -0.20337,-0.478622 -0.25391,-0.886718 -0.0512,-0.409723 -0.0781,-0.837213 -0.0781,-1.28711 v -5.232422 c 0,-0.628125 -0.14039,-1.143292 -0.43164,-1.539062 -0.28407,-0.38574 -0.64691,-0.688371 -1.0918,-0.904297 -0.43991,-0.213295 -0.92571,-0.35652 -1.45508,-0.429688 -0.52319,-0.0718 -1.03981,-0.107421 -1.55078,-0.107421 z m 19.01563,0 c -0.36219,0 -0.71121,0.05461 -1.04688,0.162109 -0.33439,0.107395 -0.64937,0.257312 -0.94336,0.451172 -0.2951,0.194772 -0.55556,0.430537 -0.7832,0.705078 -0.13401,0.161794 -0.25034,0.331916 -0.35156,0.509765 V 70.703125 H 343 V 81 h 3 v -4.652344 c 0,-0.44619 0.0426,-0.859457 0.13086,-1.238281 0.0872,-0.374805 0.23435,-0.700853 0.4375,-0.978516 0.20097,-0.274389 0.46763,-0.491665 0.80078,-0.652343 0.32959,-0.158791 0.73684,-0.242188 1.22852,-0.242188 0.16378,0 0.33599,0.0102 0.51367,0.0293 0.17096,0.01818 0.76105,0.128583 0.88867,0.154297 v -2.814453 c -0.23048,-0.06769 -0.8066,-0.175782 -1.01367,-0.175781 z m -34.35742,0.121093 c -0.65876,0 -1.24851,0.145599 -1.76758,0.441407 -0.3792,0.216329 -0.71612,0.497761 -1.01172,0.841796 V 71 H 309 v 10 h 2.99609 v -5.880859 c 3e-5,-0.464325 0.0679,-0.823703 0.18946,-1.089844 0.12786,-0.279631 0.27438,-0.480847 0.43945,-0.617188 0.1746,-0.144164 0.34849,-0.238227 0.52344,-0.287109 0.19652,-0.05514 0.34112,-0.08008 0.44336,-0.08008 0.40109,0 0.67332,0.06923 0.84961,0.1875 0.18449,0.124457 0.31857,0.290221 0.39648,0.492187 0.0849,0.220106 0.13469,0.46399 0.14649,0.730469 0.0117,0.281331 0.0156,0.56593 0.0156,0.855469 V 81 h 3 v -5.652344 c 0,-0.295225 0.0202,-0.584749 0.0625,-0.873047 0.0403,-0.27796 0.12062,-0.523594 0.23828,-0.736328 0.11464,-0.206887 0.27023,-0.372929 0.47266,-0.501953 0.19115,-0.121311 0.45629,-0.191406 0.80273,-0.191406 0.3502,0 0.60543,0.0612 0.78516,0.166016 0.18748,0.110004 0.32769,0.255458 0.42187,0.4375 0.098,0.189997 0.16026,0.419509 0.1836,0.691406 0.0243,0.28549 0.0371,0.58974 0.0371,0.914062 V 81 h 3 v -6.753906 c 0,-0.649686 -0.0907,-1.213947 -0.27344,-1.689453 -0.1822,-0.47203 -0.43858,-0.859493 -0.77149,-1.160157 -0.33126,-0.298596 -0.72432,-0.512513 -1.18164,-0.646484 -0.4511,-0.131953 -0.93659,-0.199219 -1.45898,-0.199219 -0.69942,0 -1.31403,0.173503 -1.83594,0.525391 -0.40851,0.275395 -0.74928,0.58712 -1.02344,0.935547 -0.26695,-0.494726 -0.62812,-0.857069 -1.09179,-1.080078 -0.52734,-0.253299 -1.10671,-0.38086 -1.73828,-0.38086 z M 351,71 v 10 h 3 V 71 Z m 4.32617,0 3.16602,4.738281 L 355.0293,81 h 2.95898 L 360,77.845703 362.01367,81 h 3.01563 L 361.4707,75.679688 364.63867,71 h -2.92578 L 360.03711,73.611328 358.34375,71 Z m -23.82226,5.189453 v 0.800781 c 0,0.149135 -0.017,0.348232 -0.0488,0.605469 -0.0302,0.242361 -0.1144,0.485675 -0.25,0.726563 -0.13084,0.232041 -0.33354,0.434646 -0.61719,0.607422 -0.27417,0.167165 -0.66707,0.255859 -1.19922,0.255859 -0.21307,0 -0.41959,-0.01902 -0.61914,-0.05664 -0.19442,-0.03625 -0.36085,-0.101152 -0.50195,-0.189453 -0.13694,-0.0857 -0.24701,-0.202361 -0.32813,-0.353515 -0.0792,-0.146843 -0.12304,-0.335055 -0.12304,-0.566407 0,-0.24537 0.0441,-0.437198 0.12304,-0.583984 0.0823,-0.152885 0.19205,-0.279733 0.32617,-0.378906 0.13704,-0.101515 0.30024,-0.184433 0.49024,-0.246094 0.19623,-0.06318 0.39496,-0.113011 0.5957,-0.150391 0.21719,-0.03843 0.43374,-0.0697 0.65235,-0.0957 0.22314,-0.02614 0.43676,-0.06009 0.64062,-0.09961 0.20519,-0.03991 0.39795,-0.0903 0.57813,-0.150391 0.10184,-0.03403 0.19586,-0.07537 0.28125,-0.125 z"
         sodipodi:nodetypes="ccccccccccccccccccccccccccccscccsccccscsccccccsccccccccscssccsccsscssccscccsccccsscccssccccccccscccscccssccccccccscscscsccscccscccsccscccssccscccccccccccccccccccscccscscsccccccsc" />
      <path
         id="path5059"
         style="opacity:0.05;fill:none;fill-opacity:1;stroke:#000000;stroke-opacity:1"
         d="m 298,162 v 20 h 2 v -1 h -1 v -18 h 1 v -1 z m 42,0 v 1 h 1 v 18 h -1 v 1 h 2 v -20 z m -10,3.5 v 1.5 h 2 v -1.5 z m -9.5,0.5 v 2 h -1.25 v 1.50195 h 1.25 v 3.90821 c 0,0.34565 0.0573,0.63125 0.17773,0.85351 0.11896,0.22008 0.28248,0.39169 0.49024,0.51172 0.20415,0.11831 0.43997,0.19626 0.70312,0.23633 0.25902,0.0397 0.53174,0.0606 0.82032,0.0606 0.18281,0 0.36968,-0.006 0.56054,-0.0137 0.19186,-0.009 0.36791,-0.0261 0.52735,-0.0527 l 0.0664,-0.01 v -1.59375 l -0.0957,0.0195 c -0.0836,0.0167 -0.17129,0.0288 -0.26367,0.0371 -0.0924,0.009 -0.18788,0.0137 -0.28906,0.0137 -0.30408,0 -0.48421,-0.0504 -0.56641,-0.13282 -0.0822,-0.082 -0.13086,-0.26179 -0.13086,-0.5664 V 169.5 h 1.25 V 168 h -1.25 v -2 z m -4.52148,1.95312 c -0.37678,0 -0.74921,0.0389 -1.1211,0.11329 -0.37488,0.0752 -0.71554,0.20094 -1.01758,0.3789 -0.30437,0.17942 -0.55348,0.4154 -0.75,0.71094 -0.19976,0.29948 -0.31148,0.67416 -0.33789,1.11719 l -0.004,0.084 h 1.99609 l 0.008,-0.0723 c 0.033,-0.34835 0.14653,-0.5828 0.33008,-0.72071 0.18942,-0.14225 0.45554,-0.21875 0.80664,-0.21875 0.15998,0 0.31093,0.0106 0.44922,0.0312 0.13363,0.0204 0.24816,0.0606 0.3457,0.11914 0.0944,0.0567 0.16994,0.13854 0.22852,0.24414 0.0561,0.10107 0.0878,0.24367 0.0879,0.4375 0.007,0.16896 -0.043,0.28838 -0.13867,0.36719 -0.10968,0.0902 -0.2619,0.16308 -0.46094,0.21289 -0.20228,0.0507 -0.43619,0.0875 -0.70117,0.11328 -0.2694,0.0261 -0.5405,0.0622 -0.81836,0.10547 -0.27926,0.044 -0.55742,0.10165 -0.83203,0.17578 -0.28032,0.0757 -0.53044,0.19118 -0.75,0.34375 -0.22318,0.15505 -0.40375,0.36048 -0.54297,0.61719 -0.14207,0.26087 -0.21094,0.58906 -0.21094,0.97852 0,0.35487 0.0611,0.6644 0.1836,0.92773 0.12155,0.26144 0.28996,0.47994 0.50781,0.65235 0.21639,0.17186 0.46819,0.29645 0.7539,0.37695 0.28396,0.0799 0.5878,0.12109 0.91407,0.12109 0.42243,0 0.83731,-0.0625 1.24218,-0.18554 0.35731,-0.109 0.67353,-0.28993 0.94922,-0.54102 0.008,0.0591 0.0177,0.11838 0.0293,0.17578 0.0222,0.11161 0.0503,0.21921 0.0859,0.32617 l 0.0176,0.0547 h 2.06836 l -0.0762,-0.12305 c -0.0789,-0.12633 -0.13625,-0.31597 -0.16992,-0.58789 C 319.01662,174.01618 319,173.72989 319,173.42969 v -3.48828 c 0,-0.41847 -0.093,-0.76358 -0.28711,-1.02735 -0.18952,-0.25733 -0.43222,-0.45775 -0.72851,-0.60156 -0.29324,-0.14218 -0.6178,-0.23833 -0.97071,-0.28711 -0.34869,-0.0479 -0.6944,-0.0723 -1.03515,-0.0723 z m 12.51367,0 c -0.24117,0 -0.47537,0.0357 -0.69922,0.10743 -0.22304,0.0716 -0.43098,0.17155 -0.62695,0.30078 -0.19678,0.12988 -0.37165,0.28765 -0.52344,0.4707 -0.0891,0.10756 -0.16482,0.21974 -0.23242,0.33789 V 168 H 324.5 v 7 h 2 v -3.10156 c 0,-0.29707 0.0309,-0.57333 0.0898,-0.82617 0.0582,-0.25019 0.15376,-0.46545 0.28907,-0.65039 0.13402,-0.18298 0.31323,-0.32852 0.53515,-0.43555 0.21984,-0.10591 0.49071,-0.16211 0.81836,-0.16211 0.10845,0 0.22234,0.009 0.3418,0.0215 0.11931,0.0127 0.21938,0.0262 0.30273,0.043 l 0.0957,0.0195 v -1.87109 l -0.0566,-0.0156 c -0.15254,-0.0448 -0.29374,-0.0684 -0.42383,-0.0684 z M 330,168 v 7 h 2 v -7 z m 2.50391,0 2.38867,3.31641 L 332.27539,175 h 2.17578 L 336,172.74805 337.54883,175 h 2.21875 l -2.6875,-3.72461 L 339.46875,168 h -2.14453 l -1.29688,1.86914 L 334.71875,168 Z m -26.75196,0.0371 c -0.43894,0 -0.83136,0.0957 -1.17773,0.29297 -0.25358,0.14468 -0.47748,0.33293 -0.67383,0.5625 v -0.67774 H 302 V 175 h 2 v -3.91797 c 0,-0.31043 0.0437,-0.5486 0.125,-0.72656 0.0848,-0.18546 0.18301,-0.31932 0.29297,-0.41016 0.1164,-0.0961 0.23304,-0.15883 0.34961,-0.1914 0.13067,-0.0366 0.22653,-0.0527 0.29492,-0.0527 0.26741,0 0.44951,0.0466 0.56641,0.125 0.12255,0.0827 0.20978,0.19145 0.26171,0.32617 0.0565,0.14665 0.0899,0.30888 0.0977,0.48633 0.008,0.18774 0.0117,0.37795 0.0117,0.57031 V 175 h 2 v -3.76562 c 0,-0.19668 0.0149,-0.39201 0.043,-0.58399 0.0269,-0.18539 0.0801,-0.34715 0.1582,-0.48828 0.0757,-0.1366 0.1812,-0.2478 0.31641,-0.33399 0.127,-0.0806 0.30031,-0.12695 0.53125,-0.12695 0.234,0 0.40492,0.0402 0.52344,0.10938 0.12443,0.073 0.21858,0.16989 0.28125,0.29101 0.0651,0.12629 0.10554,0.27779 0.12109,0.45899 0.0162,0.19046 0.0254,0.39358 0.0254,0.60937 V 175 h 2 v -4.5 c 0,-0.43292 -0.0597,-0.80795 -0.18164,-1.125 -0.1213,-0.31425 -0.28915,-0.57438 -0.51172,-0.77539 -0.22099,-0.1992 -0.48697,-0.34258 -0.79102,-0.43164 -0.30082,-0.0881 -0.62461,-0.13086 -0.97265,-0.13086 -0.46607,0 -0.87446,0.1129 -1.22266,0.34766 -0.27191,0.1833 -0.49918,0.39308 -0.68164,0.625 -0.17779,-0.32965 -0.41922,-0.57194 -0.72851,-0.72071 -0.35145,-0.1688 -0.73806,-0.25195 -1.15821,-0.25195 z M 317,171.79297 v 0.5332 c 0,0.0999 -0.0102,0.23511 -0.0312,0.40625 -0.0201,0.16135 -0.0756,0.32181 -0.16602,0.48242 -0.0875,0.1551 -0.22147,0.29131 -0.41015,0.40625 -0.18234,0.11117 -0.44569,0.16797 -0.80078,0.16797 -0.14285,0 -0.2797,-0.0102 -0.41211,-0.0352 -0.12961,-0.0242 -0.24186,-0.0681 -0.33594,-0.12696 -0.0913,-0.0571 -0.16467,-0.13358 -0.21875,-0.23437 -0.0527,-0.0977 -0.0801,-0.22403 -0.0801,-0.37891 0,-0.16413 0.0276,-0.29305 0.0801,-0.39062 0.055,-0.10212 0.12712,-0.18566 0.2168,-0.25196 0.0909,-0.0674 0.20088,-0.12082 0.32812,-0.16211 0.13054,-0.042 0.26236,-0.0766 0.39649,-0.10156 0.14567,-0.0258 0.29071,-0.0471 0.43554,-0.0644 0.14839,-0.0174 0.29158,-0.04 0.42774,-0.0664 0.13699,-0.0266 0.26474,-0.0596 0.38476,-0.0996 0.0675,-0.0226 0.12902,-0.0513 0.18555,-0.084 z"
         sodipodi:nodetypes="ccccccccccccccccccccccccccccscccsccccccscsccccccscccccccsscsscccccsscssccsccccccccsscccssccscccccscccscccccsccccccccccccccccccsccccccssscscscsccscccscccsccsccsssccscscccscscssccccscc" />
      <path
         id="path5061"
         style="opacity:0.05;fill:none;fill-opacity:1;stroke:#000000;stroke-opacity:1"
         d="m 298,230 v 28 h 3 v -1 h -2 v -26 h 2 v -1 z m 25,0 v 1 h 2 v 26 h -2 v 1 h 3 v -28 z m -13.02734,8.08203 c -0.69415,0 -1.31678,0.15037 -1.85547,0.45703 -0.49114,0.27431 -0.91997,0.65576 -1.28125,1.14063 v -1.31446 H 304 V 249 h 2.99805 v -6.1543 c 0,-0.50759 0.0733,-0.91316 0.21289,-1.21679 0.14169,-0.30815 0.31549,-0.54053 0.51172,-0.70118 0.19928,-0.16313 0.40764,-0.269 0.61523,-0.32812 0.21399,-0.0609 0.38472,-0.0879 0.50977,-0.0879 0.45111,0 0.7753,0.0768 0.99414,0.21875 0.22108,0.1435 0.37592,0.3409 0.4707,0.58008 0.0977,0.2522 0.15901,0.5192 0.16992,0.8164 0.0167,0.30331 0.0234,0.60843 0.0234,0.91797 v 5.94922 h 3 v -5.91016 c 0,-0.31769 0.0279,-0.63748 0.0723,-0.95117 0.0434,-0.31255 0.13436,-0.58404 0.26954,-0.82422 0.1331,-0.24187 0.32121,-0.43271 0.55664,-0.58398 0.23076,-0.14297 0.53856,-0.21875 0.93164,-0.21875 0.38904,0 0.69259,0.0668 0.91211,0.19336 0.22238,0.12829 0.3883,0.29812 0.5039,0.51562 0.11201,0.21542 0.18367,0.47827 0.21094,0.78125 0.0277,0.30774 0.0391,0.6377 0.0391,0.98633 v 6.01172 H 320 v -7.08594 c 0,-0.68461 -0.0962,-1.26836 -0.28516,-1.75976 -0.19399,-0.48966 -0.45675,-0.88478 -0.80273,-1.19336 -0.3451,-0.30776 -0.75244,-0.52756 -1.23242,-0.66602 -0.4774,-0.13772 -0.99408,-0.20703 -1.54883,-0.20703 -0.73473,0 -1.37584,0.1774 -1.91602,0.53711 -0.49134,0.32722 -0.89148,0.70616 -1.19726,1.12891 -0.28826,-0.59507 -0.68844,-1.02792 -1.2168,-1.27539 -0.5537,-0.25935 -1.16285,-0.39063 -1.82812,-0.39063 z"
         sodipodi:nodetypes="ccccccccccccccccccsccccccssssscccsccscccsscssccscsssscss" />
      <path
         id="path5063"
         style="display:inline;opacity:0.05;fill:none;fill-opacity:1;stroke:#000000;stroke-opacity:1;enable-background:new"
         d="m 422,58 v 20 h 2 v -1 h -1 V 59 h 1 v -1 z m 18,0 v 1 h 1 v 18 h -1 v 1 h 2 V 58 Z m -14,6 v 8 h 2 v -4.529297 c 0,-0.399087 0.0563,-0.733124 0.17578,-0.990234 0.11655,-0.250803 0.26265,-0.449806 0.43555,-0.589844 0.16901,-0.136902 0.34872,-0.228411 0.52929,-0.279297 0.17194,-0.04845 0.32032,-0.07227 0.4336,-0.07227 0.36218,0 0.64709,0.06256 0.84766,0.191407 0.1979,0.127113 0.33902,0.303838 0.42382,0.515625 0.0814,0.207888 0.13358,0.427537 0.14258,0.671875 0.0126,0.2328 0.0156,0.466031 0.0156,0.703125 v 4.375 h 2 v -4.345703 c 0,-0.250387 0.0217,-0.497674 0.0566,-0.742188 0.036,-0.25663 0.11455,-0.483332 0.22851,-0.683594 0.11611,-0.208917 0.27471,-0.369703 0.47656,-0.498047 0.20936,-0.128352 0.4792,-0.191406 0.80079,-0.191406 0.31536,0 0.57774,0.05398 0.77734,0.167969 0.19641,0.112113 0.34166,0.260166 0.44531,0.453125 0.0977,0.185879 0.15719,0.407377 0.17969,0.654297 0.0212,0.240286 0.0312,0.495326 0.0312,0.763672 v 4.421875 h 2 v -5.238282 c 0,-0.506939 -0.0702,-0.933392 -0.20703,-1.285156 -0.14096,-0.352043 -0.33266,-0.629081 -0.57813,-0.845703 -0.24672,-0.217709 -0.538,-0.377034 -0.88672,-0.476562 C 435.97601,64.049899 435.59178,64 435.17773,64 c -0.53909,0 -1.00391,0.129948 -1.39062,0.384766 -0.3957,0.260738 -0.70898,0.562209 -0.9375,0.898437 l -0.0957,0.138672 -0.0684,-0.154297 c -0.21141,-0.47211 -0.51242,-0.802753 -0.9043,-0.984375 C 431.37701,64.095861 430.93012,64 430.43945,64 c -0.51111,0 -0.96316,0.109337 -1.35156,0.328125 -0.3913,0.216255 -0.72954,0.522693 -1.00977,0.923828 l -0.0293,0.04297 H 428 V 64 Z"
         sodipodi:nodetypes="cccccccccccccccccccccssssssccsccscccssccsccscsssscccsscccccc" />
      <path
         id="path5065"
         style="display:inline;opacity:0.05;fill:none;fill-opacity:1;stroke:#000000;stroke-width:1;stroke-linecap:butt;stroke-miterlimit:4;stroke-dasharray:none;stroke-opacity:1;enable-background:new"
         d="M 422.99805,104.99805 421,105 v 13.99609 l 1.99805,0.002 v -1 h -1 v -12 h 1 z m 10.0039,0 v 1 h 1 v 12 h -1 v 1 L 435,118.99414 V 105 Z M 423.9999,109.74997 424,115 h 1.49023 v -3.03906 c 0,-0.25241 0.0348,-0.45558 0.10547,-0.60742 0.0715,-0.15372 0.15651,-0.26917 0.25586,-0.34961 0.10082,-0.0816 0.20973,-0.13651 0.31446,-0.16602 0.10742,-0.0303 0.19244,-0.043 0.25586,-0.043 0.22612,0 0.38917,0.0382 0.5,0.10938 0.11203,0.072 0.1922,0.16915 0.24023,0.28906 0.0492,0.126 0.0806,0.26229 0.0859,0.41016 0.007,0.1508 0.0117,0.2998 0.0117,0.45312 v 2.93945 h 1.48632 v -2.91797 c 0,-0.15782 0.0149,-0.31678 0.0371,-0.47265 0.0218,-0.15618 0.0684,-0.29404 0.13672,-0.41406 0.0674,-0.12095 0.16244,-0.21354 0.28125,-0.28907 0.11703,-0.0717 0.2734,-0.11132 0.47071,-0.11132 0.19539,0 0.34748,0.034 0.45898,0.0977 0.11248,0.0642 0.19707,0.15036 0.25586,0.25977 0.0568,0.10797 0.0917,0.23755 0.10547,0.38867 0.0138,0.15286 0.0195,0.31538 0.0195,0.48828 v 2.9707 H 432 v -3.5 c 0,-0.33828 -0.0484,-0.62915 -0.14258,-0.87109 -0.0967,-0.24133 -0.22813,-0.43594 -0.40039,-0.58789 -0.17176,-0.15154 -0.37365,-0.2578 -0.61328,-0.32617 -0.23854,-0.0681 -0.49812,-0.10352 -0.77539,-0.10352 -0.36705,0 -0.68596,0.0904 -0.95508,0.26758 -0.24937,0.16426 -0.45196,0.35189 -0.60547,0.56445 -0.14373,-0.29874 -0.34316,-0.5134 -0.60937,-0.63672 -0.27636,-0.12803 -0.58164,-0.19531 -0.91406,-0.19531 -0.34672,0 -0.65709,0.0733 -0.92579,0.22461 -0.25063,0.13848 -0.46784,0.33299 -0.65039,0.58008 l -1e-4,-0.66216 z"
         sodipodi:nodetypes="cccccccccccccccccccccssssssccsccscccssccsccscsssscsscccc" />
      <path
         id="path5067"
         style="display:inline;opacity:0.05;fill:none;fill-opacity:1;stroke:#000000;stroke-width:1;stroke-miterlimit:4;stroke-dasharray:none;stroke-opacity:1;enable-background:new"
         d="m 419,143 0.004,9.99609 L 421,153 v -1 h -1 v -8 h 1 v -1 z m 8,0 v 1 h 1 v 8 h -1 v 1 h 2 v -10 z m -6,3 v 4 h 1 v -2.22852 c 10e-5,-0.19706 0.0301,-0.3598 0.0898,-0.48632 0.0581,-0.12316 0.1302,-0.22192 0.2168,-0.29102 0.0843,-0.0672 0.17533,-0.11172 0.26563,-0.13672 0.0866,-0.024 0.15979,-0.0351 0.21679,-0.0351 0.1809,0 0.3217,0.0285 0.42188,0.0918 0.0985,0.0623 0.17224,0.14906 0.21484,0.25391 0.0411,0.10309 0.0614,0.21081 0.0664,0.33008 0.007,0.11375 0.0117,0.23009 0.0117,0.34765 v 2.15235 h 1 v -2.13867 c 0,-0.12321 0.0103,-0.24517 0.0273,-0.36524 0.0181,-0.12636 0.0561,-0.23714 0.11328,-0.33594 0.058,-0.10279 0.13988,-0.18329 0.24024,-0.24609 0.10455,-0.063 0.23729,-0.0937 0.39843,-0.0937 0.15764,0 0.28888,0.0259 0.38868,0.082 0.0981,0.0551 0.17065,0.12746 0.22265,0.22266 0.049,0.0916 0.0788,0.20102 0.0899,0.32226 0.0116,0.11803 0.0156,0.24483 0.0156,0.37696 v 2.17578 h 1 v -2.57813 c 10e-6,-0.24961 -0.0353,-0.45802 -0.10352,-0.63086 -0.0704,-0.17303 -0.16635,-0.31138 -0.28906,-0.41797 -0.12325,-0.10702 -0.271,-0.18537 -0.44531,-0.23437 -0.17601,-0.0494 -0.36539,-0.0742 -0.57227,-0.0742 -0.26942,0 -0.50202,0.0641 -0.69531,0.18945 -0.19774,0.12824 -0.35451,0.2779 -0.46875,0.44336 l -0.0469,0.0684 -0.0352,-0.0762 c -0.10572,-0.23237 -0.25545,-0.39509 -0.45117,-0.48438 -0.2019,-0.0921 -0.42489,-0.14062 -0.66992,-0.14062 h -0.004 c -0.25541,1e-5 -0.4816,0.0545 -0.67578,0.16211 -0.19554,0.10635 -0.3638,0.2577 -0.50391,0.45508 l -0.0137,0.0195 H 422 V 146 Z"
         sodipodi:nodetypes="ccccccccccccccccccccccsssssccsccscccssccsccccsssscccssscccccc" />
      <path
         id="path1"
         style="fill:#ffffff;fill-opacity:1;stroke-width:1.97531"
         d="m 64,122 v 68 h 7 v -2 h -5 v -64 h 5 v -2 z m 153,0 v 2 h 5 v 64 h -5 v 2 h 7 v -68 z m -38,13 v 5 h 7 v -5 z m -32.9707,2 -0.0293,7 h -4 v 5 h 4 v 13.48047 c 0,1.22694 0.21491,2.21675 0.64258,2.9707 0.42681,0.75456 1.00855,1.33786 1.74804,1.7461 0.73906,0.40925 1.59479,0.68314 2.56446,0.82421 0.96903,0.1417 1.99586,0.21289 3.08008,0.2129 0.69006,0 1.3964,-0.0167 2.11914,-0.0469 0.72252,-0.0321 1.25427,-0.0736 1.8457,-0.16797 v -5.18945 c -0.32839,0.0625 -0.5489,0.0922 -0.91016,0.12304 -0.36169,0.0317 -0.73846,0.0469 -1.13281,0.0469 -1.18285,0 -1.97151,-0.18904 -2.36523,-0.56641 C 153.19723,162.05661 153,161.30125 153,160.16992 V 149 h 5 v -5 h -5 l 0.0293,-7 z m -54.205081,5.52148 c -1.606481,0 -3.04177,0.35525 -4.296875,1.06641 -1.116258,0.63319 -2.075419,1.49861 -2.896485,2.58789 v -2.99414 H 78 V 168 h 7 v -14.36719 c 0,-1.17583 0.167398,-2.10602 0.490234,-2.80859 0.329612,-0.71675 0.719965,-1.25315 1.167969,-1.6211 0.458488,-0.37637 0.927451,-0.62728 1.404297,-0.75976 0.500763,-0.13968 0.882981,-0.20508 1.167969,-0.20508 1.028262,0 1.774292,0.17487 2.267578,0.50391 0.502232,0.33684 0.861841,0.78735 1.076172,1.33984 0.222415,0.5733 0.35038,1.19941 0.380859,1.88477 C 92.984613,152.67086 93,153.38551 93,154.10547 V 168 h 7 v -13.80078 c 0,-0.74434 0.0512,-1.48129 0.1582,-2.20899 0.10427,-0.71504 0.31715,-1.34932 0.62696,-1.90625 0.30577,-0.54866 0.72661,-0.99505 1.26757,-1.33789 0.52821,-0.33329 1.23371,-0.50781 2.13282,-0.50781 0.90343,0 1.59466,0.15314 2.09179,0.44141 0.50598,0.29516 0.88643,0.69154 1.14454,1.1875 0.26216,0.50528 0.42401,1.10526 0.48437,1.80469 0.0614,0.717 0.0937,1.47971 0.0937,2.29101 V 168 h 7 v -16.53516 c 0,-1.59215 -0.21819,-2.96456 -0.66211,-4.11328 -0.44357,-1.14254 -1.06151,-2.07673 -1.86133,-2.79492 -0.79771,-0.71493 -1.75615,-1.23221 -2.86328,-1.55469 -1.10233,-0.3206 -2.29502,-0.48047 -3.57812,-0.48047 -1.70355,0 -3.18513,0.42019 -4.44336,1.26368 -1.12626,0.7549 -2.038723,1.62049 -2.742191,2.59375 -0.659566,-1.37306 -1.581902,-2.36123 -2.791015,-2.93946 -1.281027,-0.61177 -2.693352,-0.91797 -4.234375,-0.91797 z m 37.542561,0.43555 c -1.406,0 -2.80382,0.13345 -4.19336,0.40039 -1.39017,0.26755 -2.64066,0.71505 -3.75195,1.34375 -1.11214,0.62951 -2.02726,1.46205 -2.7461,2.5 -0.72032,1.03694 -1.12902,2.34243 -1.22656,3.91406 h 6.96484 c 0.13026,-1.32011 0.58856,-2.26215 1.37305,-2.82812 0.78492,-0.56597 1.86478,-0.84961 3.23827,-0.84961 0.62047,0 1.20044,0.0396 1.74023,0.11719 0.53919,0.079 1.01295,0.23697 1.42188,0.47265 0.40849,0.23569 0.73537,0.56596 0.98047,0.99024 0.24532,0.42427 0.36914,0.99801 0.36914,1.7207 0.032,0.69224 -0.17965,1.21853 -0.63672,1.58008 -0.45832,0.36195 -1.08032,0.63759 -1.86523,0.82617 -0.7847,0.18858 -1.68372,0.32923 -2.69727,0.42383 -1.01397,0.0942 -2.04334,0.22022 -3.08984,0.37695 -1.04647,0.15814 -2.08543,0.37172 -3.11524,0.63867 -1.03045,0.26715 -1.94535,0.66688 -2.74609,1.20118 -0.80222,0.53512 -1.45644,1.24982 -1.96289,2.14648 -0.50774,0.89524 -0.75977,2.03687 -0.75977,3.41992 0,1.25719 0.22067,2.34222 0.66211,3.25391 0.44143,0.91168 1.05493,1.66725 1.83985,2.26367 0.78469,0.59845 1.69939,1.03712 2.74609,1.32031 1.04628,0.28258 2.17446,0.42383 3.38477,0.42383 1.5696,0 3.10672,-0.21911 4.61132,-0.6582 1.50312,-0.44032 2.81191,-1.21183 3.92383,-2.3125 0.032,0.40905 0.0875,0.81072 0.16992,1.20312 0.0812,0.39342 0.18922,0.77671 0.32032,1.1543 h 7.0625 c -0.32722,-0.50284 -0.55572,-1.25699 -0.68555,-2.26367 -0.13111,-1.00608 -0.19727,-2.05827 -0.19727,-3.16016 v -12.68555 c 0,-1.47804 -0.34254,-2.66644 -1.02929,-3.5625 -0.68695,-0.89563 -1.56944,-1.59482 -2.64844,-2.09765 -1.07921,-0.50243 -2.27419,-0.84009 -3.58203,-1.01367 -1.30805,-0.17235 -2.59946,-0.25977 -3.87499,-0.25977 z m 46.51994,0 c -0.88754,0 -1.74178,0.12583 -2.5625,0.37695 -0.82239,0.25233 -1.59394,0.60542 -2.31641,1.06055 -0.7231,0.45594 -1.36494,1.00647 -1.92383,1.65039 -0.5593,0.64514 -1.004,1.34444 -1.33203,2.09961 h -0.0976 v -4.52734 H 161 V 168 h 7 v -10.98828 c 0,-1.10028 0.11592,-2.12347 0.3457,-3.06641 0.22979,-0.94355 0.61413,-1.76674 1.15625,-2.47461 0.54253,-0.70766 1.25722,-1.26693 2.14453,-1.67578 0.88691,-0.40823 1.9741,-0.61328 3.25586,-0.61328 0.42733,0 0.86966,0.0249 1.33008,0.0723 0.45958,0.0467 0.85255,0.10071 1.18164,0.16406 v -6.22461 c -0.5593,-0.15692 -1.06734,-0.23633 -1.52734,-0.23633 z M 179,144 v 24 h 7 v -24 z m 10.49805,0 8.00586,11.375 -8.75977,12.625 h 7.48828 l 5.08594,-7.56641 L 206.4043,168 h 7.63086 L 205.03906,155.23438 213.04492,144 h -7.39453 l -4.23828,6.26758 L 197.12695,144 Z m -55.96135,12.06836 v 2.5 c 0,0.37717 -0.042,0.88108 -0.12305,1.50976 -0.082,0.62971 -0.30279,1.24847 -0.66211,1.86133 -0.36037,0.61368 -0.91423,1.14038 -1.66601,1.58008 -0.75283,0.44071 -1.81618,0.66016 -3.18946,0.66016 -0.55606,0 -1.09469,-0.046 -1.61718,-0.14063 -0.52399,-0.0938 -0.98275,-0.25845 -1.375,-0.49414 -0.39225,-0.23568 -0.7028,-0.5593 -0.93164,-0.96875 -0.22904,-0.40784 -0.34375,-0.91098 -0.34375,-1.50781 0,-0.6287 0.11469,-1.14779 0.34375,-1.55664 0.22884,-0.40783 0.52963,-0.74632 0.90625,-1.01367 0.37557,-0.26715 0.81671,-0.47858 1.32421,-0.63672 0.50626,-0.15651 1.02332,-0.28337 1.54688,-0.37695 0.55543,-0.0944 1.11168,-0.17279 1.66797,-0.23633 0.55586,-0.0625 1.0847,-0.14193 1.5918,-0.23633 0.50645,-0.0946 0.98065,-0.21223 1.42187,-0.35352 0.44165,-0.1417 0.81076,-0.3375 1.10547,-0.58984 z"
         sodipodi:nodetypes="ccccccccccccccccccccccccccccscccsccccscscccccccccccccscccscscsccscccscccsccscccscccccsccccccsccccccccsccssccsccccccsscccsscccccccccscccscccsscccccccccccccccccccscccscscscccccccc" />
      <path
         id="path15"
         style="fill:#ffffff;fill-opacity:1;stroke-width:0.651325"
         d="M 303 62 L 303 90 L 306 90 L 306 89 L 304 89 L 304 63 L 306 63 L 306 62 L 303 62 z M 366 62 L 366 63 L 368 63 L 368 89 L 366 89 L 366 90 L 369 90 L 369 62 L 366 62 z M 351 66.5 L 351 69 L 354 69 L 354 66.5 L 351 66.5 z M 337.0332 68 L 337.0332 71 L 335.25 71 L 335.25 73 L 337.0332 73 L 337.0332 78.695312 C 337.0332 79.201426 337.1235 79.610871 337.30469 79.921875 C 337.48549 80.23313 337.73559 80.472229 338.04883 80.640625 C 338.3619 80.809442 338.72207 80.924228 339.13281 80.982422 C 339.54329 81.040872 339.97823 81.068359 340.4375 81.068359 C 340.72981 81.068359 341.02782 81.063261 341.33398 81.050781 C 341.64004 81.03755 341.74947 81.03894 342 81 L 342 78.859375 C 341.86089 78.885165 341.88546 78.877905 341.73242 78.890625 C 341.57922 78.903705 341.419 78.910156 341.25195 78.910156 C 340.75089 78.910156 340.41678 78.831446 340.25 78.675781 C 340.08286 78.520279 340 78.208861 340 77.742188 L 340 73 L 342 73 L 342 71 L 340 71 L 340 68 L 337.0332 68 z M 329.9707 70.429688 C 329.40566 70.429688 328.84513 70.486008 328.28711 70.597656 C 327.72459 70.71041 327.21649 70.899222 326.76367 71.166016 C 326.30719 71.435113 325.93157 71.790964 325.63672 72.234375 C 325.33703 72.683683 325.17047 73.243667 325.13086 73.908203 L 325.12305 74.035156 L 328.11914 74.035156 L 328.12891 73.927734 C 328.17841 73.405317 328.34984 73.050494 328.625 72.84375 C 328.90895 72.630514 329.30895 72.517578 329.83594 72.517578 C 330.07699 72.517578 330.3012 72.533543 330.50781 72.564453 C 330.70757 72.594923 330.87848 72.655953 331.02539 72.744141 C 331.16801 72.829831 331.28378 72.950013 331.37109 73.107422 C 331.45509 73.25873 331.50379 73.474585 331.50391 73.765625 C 331.51511 74.017905 331.43651 74.202029 331.29297 74.320312 C 331.12904 74.455145 330.9008 74.559892 330.60156 74.634766 C 330.29763 74.710836 329.94753 74.770028 329.55078 74.808594 C 329.14692 74.847674 328.73732 74.897844 328.32031 74.962891 C 327.90146 75.028811 327.48614 75.11926 327.07422 75.230469 C 326.6538 75.343987 326.27882 75.515095 325.94922 75.744141 C 325.61455 75.976633 325.34368 76.284702 325.13477 76.669922 C 324.92155 77.061446 324.82031 77.552668 324.82031 78.136719 C 324.82031 78.668607 324.90801 79.135996 325.0918 79.53125 C 325.27438 79.923982 325.52928 80.24772 325.85547 80.505859 C 326.17962 80.763322 326.55537 80.953337 326.98438 81.074219 C 327.41063 81.19412 327.87043 81.251953 328.35938 81.251953 C 328.99303 81.251953 329.61318 81.161213 330.2207 80.976562 C 330.75685 80.812996 331.23067 80.540823 331.64453 80.164062 C 331.65663 80.253152 331.67195 80.34077 331.68945 80.427734 C 331.72265 80.595319 331.76685 80.757783 331.82031 80.917969 L 331.84766 81 L 334.94727 81 L 334.83203 80.816406 C 334.714 80.627522 334.62866 80.337785 334.57812 79.929688 C 334.52693 79.519965 334.5 79.092475 334.5 78.642578 L 334.5 73.410156 C 334.5 72.78203 334.35961 72.266865 334.06836 71.871094 C 333.78429 71.485354 333.42145 71.182723 332.97656 70.966797 C 332.53665 70.753502 332.05085 70.610277 331.52148 70.537109 C 330.99829 70.465309 330.48167 70.429688 329.9707 70.429688 z M 348.98633 70.429688 C 348.62414 70.429688 348.27512 70.484298 347.93945 70.591797 C 347.60506 70.699192 347.29008 70.849109 346.99609 71.042969 C 346.70099 71.237741 346.44053 71.473506 346.21289 71.748047 C 346.07888 71.909841 345.96255 72.079962 345.86133 72.257812 L 345.86133 70.703125 L 343 70.703125 L 343 81 L 346 81 L 346 76.347656 C 346 75.901465 346.0426 75.488199 346.13086 75.109375 C 346.21806 74.73457 346.36521 74.408522 346.56836 74.130859 C 346.76933 73.856469 347.03599 73.639195 347.36914 73.478516 C 347.69873 73.319725 348.10598 73.236328 348.59766 73.236328 C 348.76144 73.236328 348.93365 73.246525 349.11133 73.265625 C 349.28229 73.283805 349.87238 73.394208 350 73.419922 L 350 70.605469 C 349.76952 70.537779 349.1934 70.429688 348.98633 70.429688 z M 314.62891 70.550781 C 313.97015 70.550781 313.3804 70.69638 312.86133 70.992188 C 312.48213 71.208518 312.14521 71.489948 311.84961 71.833984 L 311.84961 71 L 309 71 L 309 81 L 311.99609 81 L 311.99609 75.119141 C 311.99612 74.654816 312.06399 74.295438 312.18555 74.029297 C 312.31341 73.749666 312.45993 73.54845 312.625 73.412109 C 312.7996 73.267944 312.97349 73.173882 313.14844 73.125 C 313.34496 73.06986 313.48956 73.044922 313.5918 73.044922 C 313.99289 73.044922 314.26512 73.114152 314.44141 73.232422 C 314.6259 73.356879 314.75998 73.522642 314.83789 73.724609 C 314.92279 73.944715 314.97258 74.188599 314.98438 74.455078 C 314.99607 74.736409 315 75.021008 315 75.310547 L 315 81 L 318 81 L 318 75.347656 C 318 75.05243 318.0202 74.762907 318.0625 74.474609 C 318.1028 74.196648 318.18312 73.951015 318.30078 73.738281 C 318.41542 73.531394 318.57101 73.365352 318.77344 73.236328 C 318.96459 73.115017 319.22973 73.044922 319.57617 73.044922 C 319.92637 73.044922 320.1816 73.106122 320.36133 73.210938 C 320.54881 73.320943 320.68902 73.466396 320.7832 73.648438 C 320.8812 73.838436 320.94346 74.067947 320.9668 74.339844 C 320.9911 74.625335 321.00391 74.929583 321.00391 75.253906 L 321.00391 81 L 324.00391 81 L 324.00391 74.246094 C 324.00391 73.596408 323.91321 73.032148 323.73047 72.556641 C 323.54827 72.084611 323.29189 71.697148 322.95898 71.396484 C 322.62772 71.097887 322.23466 70.883971 321.77734 70.75 C 321.32624 70.618047 320.84075 70.550781 320.31836 70.550781 C 319.61894 70.550781 319.00433 70.724284 318.48242 71.076172 C 318.07391 71.351567 317.73314 71.663292 317.45898 72.011719 C 317.19203 71.516993 316.83086 71.154651 316.36719 70.931641 C 315.83985 70.678342 315.26048 70.550781 314.62891 70.550781 z M 351 71 L 351 81 L 354 81 L 354 71 L 351 71 z M 355.32617 71 L 358.49219 75.738281 L 355.0293 81 L 357.98828 81 L 360 77.845703 L 362.01367 81 L 365.0293 81 L 361.4707 75.679688 L 364.63867 71 L 361.71289 71 L 360.03711 73.611328 L 358.34375 71 L 355.32617 71 z M 331.50391 76.189453 L 331.50391 76.990234 C 331.50391 77.139369 331.48688 77.338466 331.45508 77.595703 C 331.42488 77.838064 331.34068 78.081378 331.20508 78.322266 C 331.07424 78.554308 330.87154 78.756912 330.58789 78.929688 C 330.31372 79.096854 329.92082 79.185547 329.38867 79.185547 C 329.1756 79.185547 328.96908 79.166526 328.76953 79.128906 C 328.57511 79.092656 328.40868 79.027754 328.26758 78.939453 C 328.13064 78.853753 328.02057 78.737093 327.93945 78.585938 C 327.86025 78.439095 327.81641 78.250883 327.81641 78.019531 C 327.81641 77.774161 327.86051 77.582333 327.93945 77.435547 C 328.02175 77.282662 328.13149 77.155814 328.26562 77.056641 C 328.40266 76.955126 328.56586 76.872208 328.75586 76.810547 C 328.95209 76.747367 329.15082 76.697536 329.35156 76.660156 C 329.56875 76.621726 329.7853 76.590453 330.00391 76.564453 C 330.22705 76.538313 330.44067 76.504364 330.64453 76.464844 C 330.84972 76.424934 331.04248 76.374544 331.22266 76.314453 C 331.3245 76.280423 331.41852 76.239083 331.50391 76.189453 z " />
      <path
         id="path24"
         style="fill:#ffffff;fill-opacity:1;stroke-width:0.290324"
         d="M 298 162 L 298 182 L 300 182 L 300 181 L 299 181 L 299 163 L 300 163 L 300 162 L 298 162 z M 340 162 L 340 163 L 341 163 L 341 181 L 340 181 L 340 182 L 342 182 L 342 162 L 340 162 z M 330 165.5 L 330 167 L 332 167 L 332 165.5 L 330 165.5 z M 320.5 166 L 320.5 168 L 319.25 168 L 319.25 169.50195 L 320.5 169.50195 L 320.5 173.41016 C 320.5 173.75581 320.5573 174.04141 320.67773 174.26367 C 320.79669 174.48375 320.96021 174.65536 321.16797 174.77539 C 321.37212 174.8937 321.60794 174.97165 321.87109 175.01172 C 322.13011 175.05142 322.40283 175.07227 322.69141 175.07227 C 322.87422 175.07227 323.06109 175.06629 323.25195 175.05859 C 323.44381 175.04959 323.61986 175.03246 323.7793 175.00586 L 323.8457 174.99609 L 323.8457 173.40234 L 323.75 173.42188 C 323.6664 173.43857 323.57871 173.45068 323.48633 173.45898 C 323.39393 173.46798 323.29845 173.47266 323.19727 173.47266 C 322.89319 173.47266 322.71306 173.42225 322.63086 173.33984 C 322.54868 173.25786 322.5 173.07805 322.5 172.77344 L 322.5 169.5 L 323.75 169.5 L 323.75 168 L 322.5 168 L 322.5 166 L 320.5 166 z M 315.97852 167.95312 C 315.60174 167.95312 315.22931 167.99203 314.85742 168.06641 C 314.48254 168.14161 314.14188 168.26735 313.83984 168.44531 C 313.53547 168.62473 313.28636 168.86071 313.08984 169.15625 C 312.89008 169.45573 312.77836 169.83041 312.75195 170.27344 L 312.74805 170.35742 L 314.74414 170.35742 L 314.75195 170.28516 C 314.78495 169.93681 314.89848 169.70236 315.08203 169.56445 C 315.27145 169.4222 315.53757 169.3457 315.88867 169.3457 C 316.04865 169.3457 316.1996 169.35635 316.33789 169.37695 C 316.47152 169.39735 316.58605 169.43755 316.68359 169.49609 C 316.77799 169.55279 316.85353 169.63463 316.91211 169.74023 C 316.96821 169.8413 316.9999 169.9839 317 170.17773 C 317.007 170.34669 316.95701 170.46611 316.86133 170.54492 C 316.75165 170.63512 316.59943 170.708 316.40039 170.75781 C 316.19811 170.80851 315.9642 170.84531 315.69922 170.87109 C 315.42982 170.89719 315.15872 170.93329 314.88086 170.97656 C 314.6016 171.02056 314.32344 171.07821 314.04883 171.15234 C 313.76851 171.22804 313.51839 171.34352 313.29883 171.49609 C 313.07565 171.65114 312.89508 171.85657 312.75586 172.11328 C 312.61379 172.37415 312.54492 172.70234 312.54492 173.0918 C 312.54492 173.44667 312.60603 173.7562 312.72852 174.01953 C 312.85007 174.28097 313.01848 174.49947 313.23633 174.67188 C 313.45272 174.84375 313.70452 174.96833 313.99023 175.04883 C 314.27419 175.12873 314.57803 175.16992 314.9043 175.16992 C 315.32673 175.16992 315.74161 175.10742 316.14648 174.98438 C 316.50379 174.87538 316.82001 174.69445 317.0957 174.44336 C 317.1037 174.50246 317.1134 174.56174 317.125 174.61914 C 317.1472 174.73075 317.17534 174.83835 317.21094 174.94531 L 317.22852 175 L 319.29688 175 L 319.2207 174.87695 C 319.1418 174.75062 319.08445 174.56098 319.05078 174.28906 C 319.01668 174.01612 319 173.72989 319 173.42969 L 319 169.94141 C 319 169.52294 318.907 169.17783 318.71289 168.91406 C 318.52337 168.65673 318.28068 168.45631 317.98438 168.3125 C 317.69114 168.17032 317.36658 168.07417 317.01367 168.02539 C 316.66498 167.97749 316.31927 167.95312 315.97852 167.95312 z M 328.49219 167.95312 C 328.25102 167.95312 328.01682 167.98883 327.79297 168.06055 C 327.56993 168.13215 327.36199 168.2321 327.16602 168.36133 C 326.96924 168.49121 326.79437 168.64898 326.64258 168.83203 C 326.55348 168.93959 326.47776 169.05177 326.41016 169.16992 L 326.41016 168 L 324.5 168 L 324.5 175 L 326.5 175 L 326.5 171.89844 C 326.5 171.60137 326.53094 171.32511 326.58984 171.07227 C 326.64804 170.82208 326.7436 170.60683 326.87891 170.42188 C 327.01293 170.2389 327.19214 170.09336 327.41406 169.98633 C 327.6339 169.88042 327.90477 169.82422 328.23242 169.82422 C 328.34087 169.82422 328.45476 169.8332 328.57422 169.8457 C 328.69353 169.8584 328.7936 169.87187 328.87695 169.88867 L 328.97266 169.9082 L 328.97266 168.03711 L 328.91602 168.02148 C 328.76348 167.97668 328.62228 167.95312 328.49219 167.95312 z M 330 168 L 330 175 L 332 175 L 332 168 L 330 168 z M 332.50391 168 L 334.89258 171.31641 L 332.27539 175 L 334.45117 175 L 336 172.74805 L 337.54883 175 L 339.76758 175 L 337.08008 171.27539 L 339.46875 168 L 337.32422 168 L 336.02734 169.86914 L 334.71875 168 L 332.50391 168 z M 305.75195 168.03711 C 305.31301 168.03711 304.92059 168.13281 304.57422 168.33008 C 304.32064 168.47476 304.09674 168.66301 303.90039 168.89258 L 303.90039 168.21484 L 302 168.21484 L 302 175 L 304 175 L 304 171.08203 C 304 170.7716 304.0437 170.53343 304.125 170.35547 C 304.2098 170.17001 304.30801 170.03615 304.41797 169.94531 C 304.53437 169.84921 304.65101 169.78648 304.76758 169.75391 C 304.89825 169.71731 304.99411 169.70117 305.0625 169.70117 C 305.32991 169.70117 305.51201 169.74777 305.62891 169.82617 C 305.75146 169.90887 305.83868 170.01762 305.89062 170.15234 C 305.94712 170.29899 305.98048 170.46122 305.98828 170.63867 C 305.99628 170.82641 306 171.01662 306 171.20898 L 306 175 L 308 175 L 308 171.23438 C 308 171.0377 308.01487 170.84237 308.04297 170.65039 C 308.06987 170.465 308.12307 170.30324 308.20117 170.16211 C 308.27687 170.02551 308.38237 169.91431 308.51758 169.82812 C 308.64458 169.74753 308.81789 169.70117 309.04883 169.70117 C 309.28283 169.70117 309.45375 169.74137 309.57227 169.81055 C 309.6967 169.88355 309.79085 169.98044 309.85352 170.10156 C 309.91862 170.22785 309.95906 170.37935 309.97461 170.56055 C 309.99081 170.75101 310 170.95413 310 171.16992 L 310 175 L 312 175 L 312 170.5 C 312 170.06708 311.9403 169.69205 311.81836 169.375 C 311.69706 169.06075 311.52921 168.80062 311.30664 168.59961 C 311.08565 168.40041 310.81967 168.25703 310.51562 168.16797 C 310.21479 168.07987 309.89101 168.03711 309.54297 168.03711 C 309.0769 168.03711 308.66851 168.15001 308.32031 168.38477 C 308.0484 168.56807 307.82113 168.77785 307.63867 169.00977 C 307.46088 168.68012 307.21945 168.43783 306.91016 168.28906 C 306.55871 168.12026 306.1721 168.03711 305.75195 168.03711 z M 317 171.79297 L 317 172.32617 C 317 172.42607 316.98985 172.56128 316.96875 172.73242 C 316.94865 172.89377 316.89315 173.05423 316.80273 173.21484 C 316.71523 173.36994 316.58126 173.50615 316.39258 173.62109 C 316.21024 173.73226 315.94689 173.78906 315.5918 173.78906 C 315.44895 173.78906 315.3121 173.77891 315.17969 173.75391 C 315.05008 173.72971 314.93783 173.6858 314.84375 173.62695 C 314.75245 173.56985 314.67908 173.49337 314.625 173.39258 C 314.5723 173.29488 314.54492 173.16855 314.54492 173.01367 C 314.54492 172.84954 314.5725 172.72062 314.625 172.62305 C 314.68 172.52093 314.75212 172.43739 314.8418 172.37109 C 314.9327 172.30369 315.04268 172.25027 315.16992 172.20898 C 315.30046 172.16698 315.43228 172.13238 315.56641 172.10742 C 315.71208 172.08162 315.85712 172.06027 316.00195 172.04297 C 316.15034 172.02557 316.29353 172.00296 316.42969 171.97656 C 316.56668 171.94996 316.69443 171.91695 316.81445 171.87695 C 316.88195 171.85435 316.94347 171.82567 317 171.79297 z " />
      <path
         id="path8"
         style="fill:#ffffff;fill-opacity:1;stroke-width:0.0194464"
         d="M 297.9701 230.08203 L 297.9701 258.08203 L 300.97528 258.08203 L 300.97528 257.08203 L 298.97183 257.08203 L 298.97183 231.08203 L 300.97528 231.08203 L 300.97528 230.08203 L 297.9701 230.08203 z M 323.01331 230.08203 L 323.01331 231.08203 L 325.01677 231.08203 L 325.01677 257.08203 L 323.01331 257.08203 L 323.01331 258.08203 L 326.0185 258.08203 L 326.0185 230.08203 L 323.01331 230.08203 z M 309.96345 238.16406 C 309.2681 238.16406 308.64439 238.31443 308.10477 238.62109 C 307.61278 238.8954 307.18322 239.27685 306.82131 239.76172 L 306.82131 238.44726 L 303.98047 238.44726 L 303.98047 249.08203 L 306.9837 249.08203 L 306.9837 242.92773 C 306.9837 242.42014 307.05706 242.01457 307.19696 241.71094 C 307.3389 241.40279 307.513 241.17041 307.70956 241.00976 C 307.90919 240.84663 308.11791 240.74076 308.32586 240.68164 C 308.54022 240.62074 308.71124 240.59375 308.83651 240.59375 C 309.2884 240.59375 309.61314 240.67055 309.83236 240.8125 C 310.05382 240.956 310.20894 241.1534 310.30388 241.39258 C 310.40178 241.64478 310.46317 241.91178 310.4741 242.20898 C 310.4908 242.51229 310.49757 242.81741 310.49757 243.12695 L 310.49757 249.07617 L 313.50276 249.07617 L 313.50276 243.16601 C 313.50276 242.84832 313.53075 242.52853 313.57515 242.21484 C 313.61865 241.90229 313.70974 241.6308 313.84515 241.39062 C 313.97848 241.14875 314.16692 240.95791 314.40275 240.80664 C 314.63391 240.66367 314.94225 240.58789 315.336 240.58789 C 315.72572 240.58789 316.02979 240.65469 316.24969 240.78125 C 316.47246 240.90954 316.63867 241.07937 316.75447 241.29687 C 316.86668 241.51229 316.93845 241.77514 316.96577 242.07812 C 316.99347 242.38586 317.0049 242.71582 317.0049 243.06445 L 317.0049 249.07617 L 320.00813 249.07617 L 320.00813 241.99023 C 320.00813 241.30562 319.91173 240.72187 319.72248 240.23047 C 319.52816 239.74081 319.26493 239.34569 318.91836 239.03711 C 318.57266 238.72935 318.16461 238.50955 317.6838 238.37109 C 317.20557 238.23337 316.68801 238.16406 316.1323 238.16406 C 315.3963 238.16406 314.75408 238.34146 314.21297 238.70117 C 313.72078 239.02839 313.31995 239.40733 313.01364 239.83008 C 312.72488 239.23501 312.32402 238.80216 311.79474 238.55469 C 311.24009 238.29534 310.62987 238.16406 309.96345 238.16406 z "
         transform="matrix(0.99827446,0,0,1,0.54406046,-0.08203)" />
      <path
         id="path61"
         style="display:inline;fill:#ffffff;fill-opacity:1;stroke-width:0.0105415;enable-background:new"
         d="M 422.09582 58.109362 L 422.09582 77.816413 L 424.09584 77.816413 L 424.09584 76.831061 L 423.09583 76.831061 L 423.09583 59.094715 L 424.09584 59.094715 L 424.09584 58.109362 L 422.09582 58.109362 z M 440.09601 58.109362 L 440.09601 59.094715 L 441.09603 59.094715 L 441.09603 76.831061 L 440.09601 76.831061 L 440.09601 77.816413 L 442.09604 77.816413 L 442.09604 58.109362 L 440.09601 58.109362 z M 426.09586 64.021478 L 426.09586 71.904298 L 428.09588 71.904298 L 428.09588 67.441344 C 428.09588 67.048101 428.1522 66.718959 428.27167 66.465614 C 428.38823 66.218485 428.53432 66.022397 428.70722 65.88441 C 428.87623 65.749513 429.05594 65.659344 429.23652 65.609204 C 429.40847 65.561464 429.55684 65.537997 429.67012 65.537997 C 430.0323 65.537997 430.31721 65.599635 430.51778 65.726599 C 430.71569 65.85185 430.85682 66.025987 430.94162 66.234672 C 431.02299 66.439515 431.0752 66.655947 431.0842 66.896706 C 431.0968 67.126096 431.09982 67.355911 431.09982 67.589532 L 431.09982 71.900449 L 433.09984 71.900449 L 433.09984 67.618399 C 433.09984 67.371679 433.12158 67.128015 433.15648 66.887083 C 433.19251 66.634212 433.27104 66.41083 433.385 66.213502 C 433.50111 66.007644 433.6597 65.849214 433.86157 65.72275 C 434.07093 65.596277 434.34077 65.534148 434.66236 65.534148 C 434.97773 65.534148 435.24011 65.587334 435.43971 65.699656 C 435.63612 65.810127 435.78138 65.956011 435.88503 66.146144 C 435.98271 66.3293 436.04222 66.547554 436.06472 66.790857 C 436.08592 67.027624 436.09597 67.278928 436.09597 67.543343 L 436.09597 71.900449 L 438.09599 71.900449 L 438.09599 66.738895 C 438.09599 66.23938 438.02575 65.819175 437.88896 65.472563 C 437.748 65.125676 437.55631 64.852696 437.31083 64.639247 C 437.06411 64.424727 436.77283 64.267735 436.4241 64.169665 C 436.07198 64.070648 435.68776 64.021478 435.2737 64.021478 C 434.73461 64.021478 434.26977 64.149521 433.88306 64.400607 C 433.48735 64.657527 433.17406 64.954582 432.94554 65.285885 L 432.84984 65.422526 L 432.78148 65.270489 C 432.57007 64.805293 432.26906 64.479495 431.87717 64.300533 C 431.47293 64.115936 431.02603 64.021478 430.53536 64.021478 C 430.02424 64.021478 429.57219 64.129213 429.18378 64.344796 C 428.79248 64.557884 428.45425 64.859832 428.17401 65.255093 L 428.14471 65.297432 L 428.09588 65.297432 L 428.09588 64.021478 L 426.09586 64.021478 z "
         transform="matrix(0.999989,0,0,1.0148652,-0.09117295,-0.9731697)" />
      <path
         id="path66"
         style="display:inline;fill:#ffffff;fill-opacity:1;stroke:#fffcff;stroke-width:0.00577215;stroke-miterlimit:4;stroke-dasharray:none;stroke-opacity:1;enable-background:new"
         d="m 422.9668,104.40201 -1.99805,0.002 v 14.87388 l 1.99805,0.002 v -1.06271 h -1 v -12.7526 h 1 z m 10.0039,0 v 1.06271 h 1 v 12.7526 h -1 v 1.06271 l 1.99805,-0.004 v -14.8718 z m -9.00195,5.04998 v 5.57926 h 1.49023 v -3.22967 c 0,-0.26824 0.0348,-0.48415 0.10547,-0.64551 0.0715,-0.16336 0.15651,-0.28606 0.25586,-0.37154 0.10082,-0.0867 0.20973,-0.14507 0.31446,-0.17643 0.10742,-0.0322 0.19243,-0.0457 0.25585,-0.0457 0.22613,0 0.38917,0.0406 0.5,0.11624 0.11204,0.0765 0.19221,0.17976 0.24024,0.30719 0.0492,0.1339 0.0806,0.27873 0.0859,0.43588 0.007,0.16026 0.0117,0.3186 0.0117,0.48154 v 3.1238 h 1.48632 v -3.10097 c 0,-0.16772 0.0149,-0.33665 0.0371,-0.5023 0.0218,-0.16597 0.0684,-0.31248 0.13672,-0.44003 0.0674,-0.12853 0.16244,-0.22692 0.28125,-0.30719 0.11703,-0.0762 0.27339,-0.11831 0.4707,-0.11831 0.1954,0 0.34749,0.0362 0.45899,0.10378 0.11248,0.0682 0.19707,0.15979 0.25586,0.27606 0.0568,0.11474 0.0917,0.25246 0.10547,0.41305 0.0138,0.16245 0.0195,0.33515 0.0195,0.5189 v 3.15701 h 1.48828 v -3.7195 c 0,-0.35949 -0.0484,-0.66862 -0.14258,-0.92573 -0.0967,-0.25647 -0.22813,-0.46328 -0.40039,-0.62476 -0.17176,-0.16104 -0.37365,-0.27397 -0.61328,-0.34663 -0.23854,-0.0724 -0.49812,-0.11 -0.77539,-0.11 -0.36705,0 -0.68596,0.0961 -0.95508,0.28436 -0.24937,0.17456 -0.45196,0.37396 -0.60547,0.59985 -0.14373,-0.31747 -0.34316,-0.54559 -0.60937,-0.67665 -0.27636,-0.13606 -0.58164,-0.20756 -0.91407,-0.20756 -0.34672,0 -0.65708,0.0779 -0.92578,0.23869 -0.25063,0.14716 -0.46784,0.35387 -0.65039,0.61646 v -0.70363 z"
         transform="matrix(1,0,0,0.94098502,0.03125,6.7573212)"
         sodipodi:nodetypes="cccccccccccccccccccccssssssccsccscccssccsccscsssscsscccc" />
      <path
         id="path63"
         style="display:inline;fill:#ffffff;fill-opacity:1;stroke:#ffffff;stroke-width:0.008871;stroke-miterlimit:4;stroke-dasharray:none;stroke-opacity:1;enable-background:new"
         d="m 421.04709,142.95311 h -2 l 0.004,9.99609 1.99609,0.004 v -1 h -1 v -8 h 1 z m 6,0 v 1 h 1 v 8 h -1 v 1 h 2 v -10 z m -6,3 v 4 h 1 v -2.22852 c 10e-5,-0.19706 0.0301,-0.3598 0.0898,-0.48632 0.0581,-0.12316 0.1302,-0.22192 0.2168,-0.29102 0.0843,-0.0672 0.17533,-0.11172 0.26563,-0.13672 0.0866,-0.024 0.15979,-0.0351 0.21679,-0.0351 0.1809,0 0.3217,0.0285 0.42188,0.0918 0.0985,0.0623 0.17224,0.14906 0.21484,0.25391 0.0411,0.10309 0.0614,0.21081 0.0664,0.33008 0.007,0.11375 0.0117,0.23009 0.0117,0.34765 v 2.15235 h 1 v -2.13867 c 0,-0.12321 0.0103,-0.24517 0.0273,-0.36524 0.0181,-0.12636 0.0561,-0.23714 0.11328,-0.33594 0.058,-0.10279 0.13988,-0.18329 0.24024,-0.24609 0.10455,-0.063 0.23729,-0.0937 0.39843,-0.0937 0.15764,0 0.28888,0.0259 0.38868,0.082 0.0981,0.0551 0.17065,0.12746 0.22265,0.22266 0.049,0.0916 0.0788,0.20102 0.0899,0.32226 0.0116,0.11803 0.0156,0.24483 0.0156,0.37696 v 2.17578 h 1 v -2.57813 c 10e-6,-0.24961 -0.0353,-0.45802 -0.10352,-0.63086 -0.0704,-0.17303 -0.16635,-0.31138 -0.28906,-0.41797 -0.12325,-0.10702 -0.271,-0.18537 -0.44531,-0.23437 -0.17601,-0.0494 -0.36539,-0.0742 -0.57227,-0.0742 -0.26942,0 -0.50202,0.0641 -0.69531,0.18945 -0.19774,0.12824 -0.35451,0.2779 -0.46875,0.44336 l -0.0469,0.0684 -0.0352,-0.0762 c -0.10572,-0.23237 -0.25545,-0.39508 -0.45117,-0.48437 -0.2019,-0.0921 -0.42489,-0.14063 -0.66992,-0.14063 h -0.004 c -0.25541,1e-5 -0.4816,0.0545 -0.67578,0.16211 -0.19554,0.10635 -0.3638,0.2577 -0.50391,0.45508 l -0.0137,0.0195 h -0.0254 v -0.69922 z"
         transform="translate(-0.04709,0.04689)"
         sodipodi:nodetypes="ccccccccccccccccccccccsssssccsccscccssccsccccsssscccssscccccc" />
    </g>
    <g
       inkscape:groupmode="layer"
       id="layer5"
       inkscape:label="Highlights"
       style="display:inline"
       sodipodi:insensitive="true">
      <path
         style="color:#bebebe;display:inline;overflow:visible;visibility:visible;opacity:0.13;fill:#ffffff;fill-opacity:1;fill-rule:nonzero;stroke:none;stroke-width:0;marker:none;enable-background:accumulate"
         d="M 84,47 C 56.836703,47 35,68.836703 35,96 v 1 C 35,69.836703 56.836703,48 84,48 h 120 c 27.1633,0 49,21.836703 49,49 V 96 C 253,68.836703 231.1633,47 204,47 Z"
         id="rect3894"
         inkscape:connector-curvature="0" />
      <path
         style="color:#bebebe;display:inline;overflow:visible;visibility:visible;opacity:0.13;fill:#ffffff;fill-opacity:1;fill-rule:nonzero;stroke:none;stroke-width:0;marker:none;enable-background:accumulate"
         d="m 419,141 c -1.1253,0 -2,0.8747 -2,2 v 1 c 0,-1.1253 0.8747,-2 2,-2 h 10 c 1.1253,0 2,0.8747 2,2 v -1 c 0,-1.1253 -0.8747,-2 -2,-2 z"
         id="rect3896"
         inkscape:connector-curvature="0" />
      <path
         style="color:#bebebe;display:inline;overflow:visible;visibility:visible;opacity:0.13;fill:#ffffff;fill-opacity:1;fill-rule:nonzero;stroke:none;stroke-width:0;marker:none;enable-background:accumulate"
         d="m 422,102 c -2.2333,0 -4,1.7667 -4,4 v 1 c 0,-2.2333 1.7667,-4 4,-4 h 12 c 2.2333,0 4,1.7667 4,4 v -1 c 0,-2.2333 -1.7667,-4 -4,-4 z"
         id="rect3898"
         inkscape:connector-curvature="0" />
      <path
         style="color:#bebebe;display:inline;overflow:visible;visibility:visible;opacity:0.13;fill:#ffffff;fill-opacity:1;fill-rule:nonzero;stroke:none;stroke-width:0;marker:none;enable-background:accumulate"
         d="m 424,54 c -3.3413,0 -6,2.658703 -6,6 v 1 c 0,-3.341297 2.6587,-6 6,-6 h 16 c 3.3413,0 6,2.658703 6,6 v -1 c 0,-3.341297 -2.6587,-6 -6,-6 z"
         id="rect3900"
         inkscape:connector-curvature="0" />
      <path
         style="color:#bebebe;display:inline;overflow:visible;visibility:visible;opacity:0.13;fill:#ffffff;fill-opacity:1;fill-rule:nonzero;stroke:none;stroke-width:0;marker:none;enable-background:accumulate"
         d="m 300,224 c -4.4493,0 -8,3.5507 -8,8 v 1 c 0,-4.4493 3.5507,-8 8,-8 h 24 c 4.4493,0 8,3.5507 8,8 v -1 c 0,-4.4493 -3.5507,-8 -8,-8 z"
         id="rect3902"
         inkscape:connector-curvature="0" />
      <path
         style="color:#bebebe;display:inline;overflow:visible;visibility:visible;opacity:0.13;fill:#ffffff;fill-opacity:1;fill-rule:nonzero;stroke:none;stroke-width:0;marker:none;enable-background:accumulate"
         d="m 310,33 c -9.4353,0 -17,7.564703 -17,17 v 1 c 0,-9.435297 7.5647,-17 17,-17 h 52 c 9.4353,0 17,7.564703 17,17 v -1 c 0,-9.435297 -7.5647,-17 -17,-17 z"
         id="rect3904"
         inkscape:connector-curvature="0" />
      <path
         style="color:#bebebe;display:inline;overflow:visible;visibility:visible;opacity:0.13;fill:#ffffff;fill-opacity:1;fill-rule:nonzero;stroke:none;stroke-width:0;marker:none;enable-background:accumulate"
         d="m 302.5,143 c -6.3883,0 -11.5,5.1117 -11.5,11.5 v 1 c 0,-6.3883 5.1117,-11.5 11.5,-11.5 h 35 c 6.3883,0 11.5,5.1117 11.5,11.5 v -1 c 0,-6.3883 -5.1117,-11.5 -11.5,-11.5 z"
         id="rect3906"
         inkscape:connector-curvature="0" />
      <path
         id="path4085"
         d="m 204,266 c 27.1633,0 49,-21.8367 49,-49 v -1 c 0,27.1633 -21.8367,49 -49,49 H 84 C 56.8367,265 35,243.1633 35,216 v 1 c 0,27.1633 21.8367,49 49,49 z"
         style="color:#bebebe;display:inline;overflow:visible;visibility:visible;opacity:0.5;fill:#000000;fill-opacity:1;fill-rule:nonzero;stroke:none;stroke-width:0;marker:none;enable-background:accumulate"
         inkscape:connector-curvature="0" />
      <path
         id="path4087"
         d="m 429,156 c 1.1253,0 2,-0.8747 2,-2 v -1 c 0,1.1253 -0.8747,2 -2,2 h -10 c -1.1253,0 -2,-0.8747 -2,-2 v 1 c 0,1.1253 0.8747,2 2,2 z"
         style="color:#bebebe;display:inline;overflow:visible;visibility:visible;opacity:0.3;fill:#000000;fill-opacity:1;fill-rule:nonzero;stroke:none;stroke-width:0;marker:none;enable-background:accumulate"
         inkscape:connector-curvature="0" />
      <path
         id="path4089"
         d="m 434,123 c 2.2333,0 4,-1.7667 4,-4 v -1 c 0,2.2333 -1.7667,4 -4,4 h -12 c -2.2333,0 -4,-1.7667 -4,-4 v 1 c 0,2.2333 1.7667,4 4,4 z"
         style="color:#bebebe;display:inline;overflow:visible;visibility:visible;opacity:0.3;fill:#000000;fill-opacity:1;fill-rule:nonzero;stroke:none;stroke-width:0;marker:none;enable-background:accumulate"
         inkscape:connector-curvature="0" />
      <path
         id="path4091"
         d="m 440,83 c 3.3413,0 6,-2.6587 6,-6 v -1 c 0,3.3413 -2.6587,6 -6,6 h -16 c -3.3413,0 -6,-2.6587 -6,-6 v 1 c 0,3.3413 2.6587,6 6,6 z"
         style="color:#bebebe;display:inline;overflow:visible;visibility:visible;opacity:0.5;fill:#000000;fill-opacity:1;fill-rule:nonzero;stroke:none;stroke-width:0;marker:none;enable-background:accumulate"
         inkscape:connector-curvature="0" />
      <path
         id="path4093"
         d="m 324,265 c 4.4493,0 8,-3.5507 8,-8 v -1 c 0,4.4493 -3.5507,8 -8,8 h -24 c -4.4493,0 -8,-3.5507 -8,-8 v 1 c 0,4.4493 3.5507,8 8,8 z"
         style="color:#bebebe;display:inline;overflow:visible;visibility:visible;opacity:0.5;fill:#000000;fill-opacity:1;fill-rule:nonzero;stroke:none;stroke-width:0;marker:none;enable-background:accumulate"
         inkscape:connector-curvature="0" />
      <path
         id="path4095"
         d="m 362,120 c 9.4353,0 17,-7.5647 17,-17 v -1 c 0,9.4353 -7.5647,17 -17,17 h -52 c -9.4353,0 -17,-7.5647 -17,-17 v 1 c 0,9.4353 7.5647,17 17,17 z"
         style="color:#bebebe;display:inline;overflow:visible;visibility:visible;opacity:0.5;fill:#000000;fill-opacity:1;fill-rule:nonzero;stroke:none;stroke-width:0;marker:none;enable-background:accumulate"
         inkscape:connector-curvature="0" />
      <path
         id="path4097"
         d="m 337.5,202 c 6.3883,0 11.5,-5.1117 11.5,-11.5 v -1 c 0,6.3883 -5.1117,11.5 -11.5,11.5 h -35 c -6.3883,0 -11.5,-5.1117 -11.5,-11.5 v 1 c 0,6.3883 5.1117,11.5 11.5,11.5 z"
         style="color:#bebebe;display:inline;overflow:visible;visibility:visible;opacity:0.5;fill:#000000;fill-opacity:1;fill-rule:nonzero;stroke:none;stroke-width:0;marker:none;enable-background:accumulate"
         inkscape:connector-curvature="0" />
      <path
         inkscape:connector-curvature="0"
         id="path4280"
         d="M 84,265 C 56.836703,265 35,243.1633 35,216 v -1 c 0,27.1633 21.836703,49 49,49 h 120 c 27.1633,0 49,-21.8367 49,-49 v 1 c 0,27.1633 -21.8367,49 -49,49 z"
         style="color:#bebebe;display:inline;overflow:visible;visibility:visible;opacity:0.1;fill:#ffffff;fill-opacity:1;fill-rule:nonzero;stroke:none;stroke-width:0;marker:none;enable-background:accumulate" />
      <path
         style="color:#bebebe;display:inline;overflow:visible;visibility:visible;opacity:0.1;fill:#ffffff;fill-opacity:1;fill-rule:nonzero;stroke:none;stroke-width:0;marker:none;enable-background:accumulate"
         d="m 300,264 c -4.4493,0 -8,-3.5507 -8,-8 v -1 c 0,4.4493 3.5507,8 8,8 h 24 c 4.4493,0 8,-3.5507 8,-8 v 1 c 0,4.4493 -3.5507,8 -8,8 z"
         id="path4294"
         inkscape:connector-curvature="0" />
      <path
         style="color:#bebebe;display:inline;overflow:visible;visibility:visible;opacity:0.1;fill:#ffffff;fill-opacity:1;fill-rule:nonzero;stroke:none;stroke-width:0;marker:none;enable-background:accumulate"
         d="m 302.5,201 c -6.3883,0 -11.5,-5.1117 -11.5,-11.5 v -1 c 0,6.3883 5.1117,11.5 11.5,11.5 h 35 c 6.3883,0 11.5,-5.1117 11.5,-11.5 v 1 c 0,6.3883 -5.1117,11.5 -11.5,11.5 z"
         id="path4296"
         inkscape:connector-curvature="0" />
      <path
         style="color:#bebebe;display:inline;overflow:visible;visibility:visible;opacity:0.1;fill:#ffffff;fill-opacity:1;fill-rule:nonzero;stroke:none;stroke-width:0;marker:none;enable-background:accumulate"
         d="m 310,119 c -9.4353,0 -17,-7.5647 -17,-17 v -1 c 0,9.4353 7.5647,17 17,17 h 52 c 9.4353,0 17,-7.5647 17,-17 v 1 c 0,9.4353 -7.5647,17 -17,17 z"
         id="path4298"
         inkscape:connector-curvature="0" />
      <path
         style="color:#bebebe;display:inline;overflow:visible;visibility:visible;opacity:0.1;fill:#ffffff;fill-opacity:1;fill-rule:nonzero;stroke:none;stroke-width:0;marker:none;enable-background:accumulate"
         d="m 424,82 c -3.3413,0 -6,-2.658703 -6,-6 v -1 c 0,3.341297 2.6587,6 6,6 h 16 c 3.3413,0 6,-2.658703 6,-6 v 1 c 0,3.341297 -2.6587,6 -6,6 z"
         id="path4300"
         inkscape:connector-curvature="0" />
      <path
         style="color:#bebebe;display:inline;overflow:visible;visibility:visible;opacity:0.1;fill:#ffffff;fill-opacity:1;fill-rule:nonzero;stroke:none;stroke-width:0;marker:none;enable-background:accumulate"
         d="m 422,122 c -2.2333,0 -4,-1.7667 -4,-4 v -1 c 0,2.2333 1.7667,4 4,4 h 12 c 2.2333,0 4,-1.7667 4,-4 v 1 c 0,2.2333 -1.7667,4 -4,4 z"
         id="path4302"
         inkscape:connector-curvature="0" />
      <path
         style="color:#bebebe;display:inline;overflow:visible;visibility:visible;opacity:0.1;fill:#ffffff;fill-opacity:1;fill-rule:nonzero;stroke:none;stroke-width:0;marker:none;enable-background:accumulate"
         d="m 419,154.5 c -1.1253,0 -2,-0.8747 -2,-2 v -1 c 0,1.1253 0.8747,2 2,2 h 10 c 1.1253,0 2,-0.8747 2,-2 v 1 c 0,1.1253 -0.8747,2 -2,2 z"
         id="path4304"
         inkscape:connector-curvature="0" />
    </g>
    <g
       inkscape:groupmode="layer"
       id="layer3"
       inkscape:label="Border"
       style="display:inline"
       sodipodi:insensitive="true">
      <path
         style="color:#bebebe;display:inline;overflow:visible;visibility:visible;opacity:0.41;fill:#000000;fill-opacity:1;fill-rule:nonzero;stroke:none;stroke-width:0;marker:none;enable-background:accumulate"
         d="m 422,101 c -2.77,0 -5,2.23 -5,5 v 12 c 0,2.77 2.23,5 5,5 h 12 c 2.77,0 5,-2.23 5,-5 v -12 c 0,-2.77 -2.23,-5 -5,-5 z m 0,1 h 12 c 2.2333,0 4,1.7667 4,4 v 12 c 0,2.2333 -1.7667,4 -4,4 h -12 c -2.2333,0 -4,-1.7667 -4,-4 v -12 c 0,-2.2333 1.7667,-4 4,-4 z"
         id="rect4099"
         inkscape:connector-curvature="0" />
      <path
         style="color:#bebebe;display:inline;overflow:visible;visibility:visible;opacity:0.41;fill:#000000;fill-opacity:1;fill-rule:nonzero;stroke:none;stroke-width:0;marker:none;enable-background:accumulate"
         d="m 424,53 c -3.878,0 -7,3.122 -7,7 v 16 c 0,3.878 3.122,7 7,7 h 16 c 3.878,0 7,-3.122 7,-7 V 60 c 0,-3.878 -3.122,-7 -7,-7 z m 0,1 h 16 c 3.3413,0 6,2.658703 6,6 v 16 c 0,3.341297 -2.6587,6 -6,6 h -16 c -3.3413,0 -6,-2.658703 -6,-6 V 60 c 0,-3.341297 2.6587,-6 6,-6 z"
         id="rect4151"
         inkscape:connector-curvature="0" />
      <path
         style="color:#bebebe;display:inline;overflow:visible;visibility:visible;opacity:0.41;fill:#000000;fill-opacity:1;fill-rule:nonzero;stroke:none;stroke-width:0;marker:none;enable-background:accumulate"
         d="m 419,140 c -1.662,0 -3,1.338 -3,3 v 10 c 0,1.662 1.338,3 3,3 h 10 c 1.662,0 3,-1.338 3,-3 v -10 c 0,-1.662 -1.338,-3 -3,-3 z m 0,1 h 10 c 1.1253,0 2,0.8747 2,2 v 10 c 0,1.1253 -0.8747,2 -2,2 h -10 c -1.1253,0 -2,-0.8747 -2,-2 v -10 c 0,-1.1253 0.8747,-2 2,-2 z"
         id="rect4095"
         inkscape:connector-curvature="0" />
      <path
         style="color:#bebebe;display:inline;overflow:visible;visibility:visible;opacity:0.41;fill:#000000;fill-opacity:1;fill-rule:nonzero;stroke:none;stroke-width:0;marker:none;enable-background:accumulate"
         d="m 300,223 c -4.986,0 -9,4.014 -9,9 v 24 c 0,4.986 4.014,9 9,9 h 24 c 4.986,0 9,-4.014 9,-9 v -24 c 0,-4.986 -4.014,-9 -9,-9 z m 0,1 h 24 c 4.4493,0 8,3.5507 8,8 v 24 c 0,4.4493 -3.5507,8 -8,8 h -24 c -4.4493,0 -8,-3.5507 -8,-8 v -24 c 0,-4.4493 3.5507,-8 8,-8 z"
         id="rect4783"
         inkscape:connector-curvature="0" />
      <path
         style="color:#bebebe;display:inline;overflow:visible;visibility:visible;opacity:0.41;fill:#000000;fill-opacity:1;fill-rule:nonzero;stroke:none;stroke-width:0;marker:none;enable-background:accumulate"
         d="m 302.5,142 c -6.925,0 -12.5,5.575 -12.5,12.5 v 35 c 0,6.925 5.575,12.5 12.5,12.5 h 35 c 6.925,0 12.5,-5.575 12.5,-12.5 v -35 c 0,-6.925 -5.575,-12.5 -12.5,-12.5 z m 0,1 h 35 c 6.3883,0 11.5,5.1117 11.5,11.5 v 35 c 0,6.3883 -5.1117,11.5 -11.5,11.5 h -35 c -6.3883,0 -11.5,-5.1117 -11.5,-11.5 v -35 c 0,-6.3883 5.1117,-11.5 11.5,-11.5 z"
         id="rect4515"
         inkscape:connector-curvature="0" />
      <path
         style="color:#bebebe;display:inline;overflow:visible;visibility:visible;opacity:0.41;fill:#000000;fill-opacity:1;fill-rule:nonzero;stroke:none;stroke-width:0;marker:none;enable-background:accumulate"
         d="m 310,32 c -9.972,0 -18,8.028 -18,18 v 52 c 0,9.972 8.028,18 18,18 h 52 c 9.972,0 18,-8.028 18,-18 V 50 c 0,-9.972 -8.028,-18 -18,-18 z m 0,1 h 52 c 9.4353,0 17,7.564703 17,17 v 52 c 0,9.4353 -7.5647,17 -17,17 h -52 c -9.4353,0 -17,-7.5647 -17,-17 V 50 c 0,-9.435297 7.5647,-17 17,-17 z"
         id="rect4511"
         inkscape:connector-curvature="0" />
      <path
         style="color:#bebebe;display:inline;overflow:visible;visibility:visible;opacity:0.41;fill:#000000;fill-opacity:1;fill-rule:nonzero;stroke:none;stroke-width:0;marker:none;enable-background:accumulate"
         d="M 84,46 C 56.3,46 34,68.3 34,96 v 120 c 0,27.7 22.3,50 50,50 h 120 c 27.7,0 50,-22.3 50,-50 V 96 C 254,68.3 231.7,46 204,46 Z m 0,1 h 120 c 27.1633,0 49,21.836703 49,49 v 120 c 0,27.1633 -21.8367,49 -49,49 H 84 C 56.836703,265 35,243.1633 35,216 V 96 C 35,68.836703 56.836703,47 84,47 Z"
         id="rect4040"
         inkscape:connector-curvature="0" />
    </g>
  </g>
</svg>
