<?xml version="1.0" encoding="UTF-8" standalone="no"?>
<svg
   xmlns:dc="http://purl.org/dc/elements/1.1/"
   xmlns:cc="http://creativecommons.org/ns#"
   xmlns:rdf="http://www.w3.org/1999/02/22-rdf-syntax-ns#"
   xmlns:svg="http://www.w3.org/2000/svg"
   xmlns="http://www.w3.org/2000/svg"
   xmlns:xlink="http://www.w3.org/1999/xlink"
   xmlns:sodipodi="http://sodipodi.sourceforge.net/DTD/sodipodi-0.dtd"
   xmlns:inkscape="http://www.inkscape.org/namespaces/inkscape"
   inkscape:export-ydpi="90.000000"
   inkscape:export-xdpi="90.000000"
   width="480"
   height="300"
   id="svg11300"
   sodipodi:version="0.32"
   inkscape:version="1.0.2 (e86c870, 2021-01-15)"
   sodipodi:docname="web-viber.svg"
   inkscape:output_extension="org.inkscape.output.svg.inkscape"
   version="1.0"
   style="display:inline;enable-background:new"
   inkscape:export-filename="/home/sam/moka-next-template.png">
  <sodipodi:namedview
     stroke="#ef2929"
     fill="#f57900"
     id="base"
     pagecolor="#777777"
     bordercolor="#666666"
     borderopacity="0.25490196"
     inkscape:pageopacity="0"
     inkscape:pageshadow="2"
     inkscape:zoom="90.509668"
     inkscape:cx="425.96088"
     inkscape:cy="151.9201"
     inkscape:current-layer="layer6"
     showgrid="false"
     inkscape:grid-bbox="true"
     inkscape:document-units="px"
     inkscape:showpageshadow="false"
     inkscape:window-width="1366"
     inkscape:window-height="703"
     inkscape:window-x="0"
     inkscape:window-y="0"
     width="400px"
     height="300px"
     inkscape:snap-nodes="true"
     inkscape:snap-bbox="true"
     gridtolerance="10000"
     inkscape:object-nodes="true"
     inkscape:snap-grids="true"
     showguides="true"
     inkscape:guide-bbox="true"
     inkscape:window-maximized="1"
     inkscape:bbox-nodes="true"
     inkscape:bbox-paths="true"
     inkscape:snap-bbox-edge-midpoints="true"
     inkscape:snap-bbox-midpoints="true"
     inkscape:document-rotation="0">
    <inkscape:grid
       spacingy="1px"
       spacingx="1px"
       id="grid5883"
       type="xygrid"
       enabled="true"
       visible="true"
       empspacing="4"
       snapvisiblegridlinesonly="true"
       dotted="false"
       color="#000000"
       opacity="0.1254902"
       empcolor="#203ef3"
       empopacity="0.36470588" />
    <inkscape:grid
       type="xygrid"
       id="grid11592"
       empspacing="8"
       visible="true"
       enabled="false"
       spacingx="0.5px"
       spacingy="0.5px"
       color="#ff0000"
       opacity="0.1254902"
       empcolor="#ff0000"
       empopacity="0.25098039"
       snapvisiblegridlinesonly="true"
       dotted="true" />
  </sodipodi:namedview>
  <defs
     id="defs3">
    <linearGradient
       inkscape:collect="always"
       xlink:href="#outerBackgroundGradient"
       id="linearGradient10837"
       gradientUnits="userSpaceOnUse"
       gradientTransform="matrix(0,-1,1,0,-12,300)"
       x1="35"
       y1="156"
       x2="253"
       y2="156" />
    <linearGradient
       inkscape:collect="always"
       xlink:href="#outerBackgroundGradient"
       id="linearGradient10839"
       gradientUnits="userSpaceOnUse"
       gradientTransform="matrix(0,-1,1,0,276,572)"
       x1="417"
       y1="148"
       x2="431"
       y2="148" />
    <linearGradient
       inkscape:collect="always"
       xlink:href="#outerBackgroundGradient"
       id="linearGradient10841"
       gradientUnits="userSpaceOnUse"
       gradientTransform="matrix(0,-1,1,0,316,540)"
       x1="418"
       y1="112"
       x2="438"
       y2="112" />
    <linearGradient
       inkscape:collect="always"
       xlink:href="#outerBackgroundGradient"
       id="linearGradient10843"
       gradientUnits="userSpaceOnUse"
       gradientTransform="matrix(0,-1,1,0,364,500)"
       x1="418"
       y1="68"
       x2="446"
       y2="68" />
    <linearGradient
       inkscape:collect="always"
       xlink:href="#outerBackgroundGradient"
       id="linearGradient10845"
       gradientUnits="userSpaceOnUse"
       gradientTransform="matrix(0,-1,1,0,68,556)"
       x1="292"
       y1="244"
       x2="332"
       y2="244" />
    <linearGradient
       inkscape:collect="always"
       xlink:href="#outerBackgroundGradient"
       id="linearGradient10847"
       gradientUnits="userSpaceOnUse"
       gradientTransform="matrix(0,-1,1,0,260,412)"
       x1="293"
       y1="76"
       x2="379"
       y2="76" />
    <linearGradient
       inkscape:collect="always"
       xlink:href="#outerBackgroundGradient"
       id="linearGradient10849"
       gradientUnits="userSpaceOnUse"
       gradientTransform="matrix(0,-1,1,0,148,492)"
       x1="291"
       y1="172"
       x2="349"
       y2="172" />
    <linearGradient
       id="outerBackgroundGradient">
      <stop
         style="stop-color:#6253d5;stop-opacity:1"
         offset="0"
         id="stop3864-8-6" />
      <stop
         style="stop-color:#8c7aff;stop-opacity:1"
         offset="1"
         id="stop3866-9-1" />
    </linearGradient>
    <style
       id="style2519">.cls-1{fill:#fff;}.cls-2{fill:none;stroke:#fff;stroke-linecap:round;stroke-linejoin:round;stroke-width:16.86px;}</style>
    <style
       id="style2549">.cls-1{fill:#fff;}.cls-2{fill:none;stroke:#fff;stroke-linecap:round;stroke-linejoin:round;stroke-width:16.86px;}</style>
    <style
       id="style2578">.cls-1{fill:#fff;}.cls-2{fill:none;stroke:#fff;stroke-linecap:round;stroke-linejoin:round;stroke-width:16.86px;}</style>
    <style
       id="style2607">.cls-1{fill:#fff;}.cls-2{fill:none;stroke:#fff;stroke-linecap:round;stroke-linejoin:round;stroke-width:16.86px;}</style>
    <style
       id="style2636">.cls-1{fill:#fff;}.cls-2{fill:none;stroke:#fff;stroke-linecap:round;stroke-linejoin:round;stroke-width:16.86px;}</style>
    <style
       id="style2665">.cls-1{fill:#fff;}.cls-2{fill:none;stroke:#fff;stroke-linecap:round;stroke-linejoin:round;stroke-width:16.86px;}</style>
    <style
       id="style2694">.cls-1{fill:#fff;}.cls-2{fill:none;stroke:#fff;stroke-linecap:round;stroke-linejoin:round;stroke-width:16.86px;}</style>
    <style
       id="style1107">.cls-1{fill:#fff;}.cls-2{fill:none;stroke:#fff;stroke-linecap:round;stroke-linejoin:round;stroke-width:16.86px;}</style>
  </defs>
  <metadata
     id="metadata4">
    <rdf:RDF>
      <cc:Work
         rdf:about="">
        <dc:format>image/svg+xml</dc:format>
        <dc:type
           rdf:resource="http://purl.org/dc/dcmitype/StillImage" />
        <dc:creator>
          <cc:Agent>
            <dc:title>Sam Hewitt</dc:title>
          </cc:Agent>
        </dc:creator>
        <dc:source />
        <cc:license
           rdf:resource="" />
        <dc:title />
        <dc:subject>
          <rdf:Bag />
        </dc:subject>
        <dc:date />
        <dc:rights>
          <cc:Agent>
            <dc:title />
          </cc:Agent>
        </dc:rights>
        <dc:publisher>
          <cc:Agent>
            <dc:title />
          </cc:Agent>
        </dc:publisher>
        <dc:identifier />
        <dc:relation />
        <dc:language />
        <dc:coverage />
        <dc:description />
        <dc:contributor>
          <cc:Agent>
            <dc:title />
          </cc:Agent>
        </dc:contributor>
      </cc:Work>
      <cc:Work
         rdf:about="">
        <dc:format>image/svg+xml</dc:format>
        <dc:type
           rdf:resource="http://purl.org/dc/dcmitype/StillImage" />
      </cc:Work>
    </rdf:RDF>
  </metadata>
  <g
     style="display:inline"
     inkscape:groupmode="layer"
     inkscape:label="Icon"
     id="layer1">
    <g
       style="display:none"
       inkscape:label="Baseplate"
       id="layer7"
       inkscape:groupmode="layer">
      <text
         y="19.745117"
         xml:space="preserve"
         x="15.006836"
         style="font-style:normal;font-variant:normal;font-weight:normal;font-stretch:normal;line-height:0%;font-family:'DejaVu Sans';-inkscape-font-specification:'DejaVu Sans';display:inline;fill:#000000;fill-opacity:1;stroke:none;enable-background:new"
         inkscape:label="context"
         id="context"><tspan
           style="font-style:normal;font-variant:normal;font-weight:normal;font-stretch:normal;font-size:18px;line-height:1.25;font-family:'DejaVu Sans';-inkscape-font-specification:'DejaVu Sans'"
           y="19.745117"
           x="15.006836"
           sodipodi:role="line"
           id="tspan3933">apps</tspan></text>
      <text
         y="19.745117"
         xml:space="preserve"
         x="122.48828"
         style="font-style:normal;font-variant:normal;font-weight:bold;font-stretch:normal;line-height:0%;font-family:'DejaVu Sans';-inkscape-font-specification:'DejaVu Sans Bold';text-align:start;writing-mode:lr-tb;text-anchor:start;display:inline;fill:#000000;fill-opacity:1;stroke:none;enable-background:new"
         inkscape:label="icon-name"
         id="icon-name"><tspan
           style="font-style:normal;font-variant:normal;font-weight:bold;font-stretch:normal;font-size:18px;line-height:1.25;font-family:'DejaVu Sans';-inkscape-font-specification:'DejaVu Sans Bold';opacity:0.99"
           y="19.745117"
           x="122.48828"
           sodipodi:role="line"
           id="tspan3937">web-viber</tspan></text>
      <rect
         style="display:inline;overflow:visible;visibility:visible;fill:#eeeeec;fill-opacity:1;fill-rule:nonzero;stroke:none;stroke-width:2;marker:none;enable-background:accumulate"
         id="rect16x16"
         width="16"
         height="16"
         x="416"
         y="140"
         inkscape:label="16x16" />
      <rect
         style="display:inline;overflow:visible;visibility:visible;fill:#d4d4d4;fill-opacity:1;fill-rule:nonzero;stroke:none;stroke-width:2;marker:none;enable-background:accumulate"
         id="rect24x24"
         width="24"
         height="24"
         x="416"
         y="100"
         inkscape:label="24x24" />
      <rect
         style="display:inline;overflow:visible;visibility:visible;fill:#eeeeec;fill-opacity:1;fill-rule:nonzero;stroke:none;stroke-width:2;marker:none;enable-background:accumulate"
         id="rect32x32"
         width="32"
         height="32"
         x="416"
         y="52"
         inkscape:label="32x32" />
      <rect
         inkscape:label="22x22"
         y="101"
         x="417"
         height="22"
         width="22"
         id="rect22x22"
         style="display:inline;overflow:visible;visibility:visible;fill:#eeeeec;fill-opacity:1;fill-rule:nonzero;stroke:none;stroke-width:2;marker:none;enable-background:accumulate" />
      <rect
         inkscape:label="48x48"
         y="220"
         x="288"
         height="48"
         width="48"
         id="rect48x48"
         style="display:inline;overflow:visible;visibility:visible;fill:#eeeeec;fill-opacity:1;fill-rule:nonzero;stroke:none;stroke-width:2;marker:none;enable-background:accumulate" />
      <rect
         style="display:inline;overflow:visible;visibility:visible;fill:#eeeeec;fill-opacity:1;fill-rule:nonzero;stroke:none;stroke-width:2;marker:none;enable-background:accumulate"
         id="rect256x256"
         width="256"
         height="256"
         x="16"
         y="28"
         inkscape:label="256x256" />
      <rect
         style="display:inline;overflow:visible;visibility:visible;fill:#eeeeec;fill-opacity:1;fill-rule:nonzero;stroke:none;stroke-width:2;marker:none;enable-background:accumulate"
         id="rect64x64"
         width="64"
         height="64"
         x="288"
         y="140"
         inkscape:label="64x64" />
      <rect
         style="display:inline;overflow:visible;visibility:visible;fill:#eeeeec;fill-opacity:1;fill-rule:nonzero;stroke:none;stroke-width:2;marker:none;enable-background:accumulate"
         id="rect96x96"
         width="96"
         height="96"
         x="288"
         y="28"
         inkscape:label="96x96" />
    </g>
    <g
       inkscape:groupmode="layer"
       id="layer4"
       inkscape:label="Shadow"
       style="display:inline"
       sodipodi:insensitive="true">
      <rect
         ry="50"
         y="47"
         x="34"
         height="220"
         width="220"
         id="rect4114"
         style="color:#bebebe;display:inline;overflow:visible;visibility:visible;opacity:0.1;fill:#000000;fill-opacity:1;fill-rule:nonzero;stroke:none;stroke-width:0;marker:none;enable-background:accumulate" />
      <rect
         style="color:#bebebe;display:inline;overflow:visible;visibility:visible;opacity:0.1;fill:#000000;fill-opacity:1;fill-rule:nonzero;stroke:none;stroke-width:0;marker:none;enable-background:accumulate"
         id="rect4120"
         width="30"
         height="30"
         x="417"
         y="54"
         ry="7" />
      <rect
         transform="scale(1,-1)"
         ry="9"
         y="-266"
         x="291"
         height="42"
         width="42"
         id="rect4122"
         style="color:#bebebe;display:inline;overflow:visible;visibility:visible;opacity:0.1;fill:#000000;fill-opacity:1;fill-rule:nonzero;stroke:none;stroke-width:0;marker:none;enable-background:accumulate" />
      <rect
         style="color:#bebebe;display:inline;overflow:visible;visibility:visible;opacity:0.1;fill:#000000;fill-opacity:1;fill-rule:nonzero;stroke:none;stroke-width:0;marker:none;enable-background:accumulate"
         id="rect4124"
         width="88"
         height="88"
         x="292"
         y="33"
         ry="18" />
      <rect
         ry="12.5"
         y="143"
         x="290"
         height="60"
         width="60"
         id="rect4126"
         style="color:#bebebe;display:inline;overflow:visible;visibility:visible;opacity:0.1;fill:#000000;fill-opacity:1;fill-rule:nonzero;stroke:none;stroke-width:0;marker:none;enable-background:accumulate" />
      <path
         id="path4268"
         d="m 422,101 c -2.77,0 -5,2.23 -5,5 v 12 c 0,2.77 2.23,5 5,5 h 12 c 2.77,0 5,-2.23 5,-5 v -12 c 0,-2.77 -2.23,-5 -5,-5 z"
         style="color:#bebebe;display:inline;overflow:visible;visibility:visible;opacity:0.1;fill:#000000;fill-opacity:1;fill-rule:nonzero;stroke:none;stroke-width:0;marker:none;enable-background:accumulate"
         inkscape:connector-curvature="0"
         sodipodi:nodetypes="sssssssss" />
      <path
         id="path4270"
         d="m 419,140 c -1.662,0 -3,1.338 -3,3 v 10 c 0,1.662 1.338,3 3,3 h 10 c 1.662,0 3,-1.338 3,-3 v -10 c 0,-1.662 -1.338,-3 -3,-3 z"
         style="color:#bebebe;display:inline;overflow:visible;visibility:visible;opacity:0.1;fill:#000000;fill-opacity:1;fill-rule:nonzero;stroke:none;stroke-width:0;marker:none;enable-background:accumulate"
         inkscape:connector-curvature="0"
         sodipodi:nodetypes="sssssssss" />
    </g>
    <g
       inkscape:groupmode="layer"
       id="layer2"
       inkscape:label="Background"
       style="display:inline">
      <path
         style="color:#bebebe;display:inline;overflow:visible;visibility:visible;fill:url(#linearGradient10837);fill-opacity:1;fill-rule:nonzero;stroke:none;stroke-width:2;marker:none;enable-background:accumulate"
         d="M 84,46.5 C 56.56874,46.5 34.5,68.56873 34.5,96 v 120 c 0,27.43127 22.06874,49.5 49.5,49.5 h 120 c 27.43127,0 49.5,-22.06873 49.5,-49.5 V 96 C 253.5,68.56873 231.43127,46.5 204,46.5 Z"
         id="path4200"
         inkscape:connector-curvature="0" />
      <path
         style="color:#bebebe;display:inline;overflow:visible;visibility:visible;fill:url(#linearGradient10839);fill-opacity:1;fill-rule:nonzero;stroke:none;stroke-width:2;marker:none;enable-background:accumulate"
         d="m 419,140.5 c -1.3844,0 -2.5,1.1156 -2.5,2.5 v 10 c 0,1.3844 1.1156,2.5 2.5,2.5 h 10 c 1.3844,0 2.5,-1.1156 2.5,-2.5 v -10 c 0,-1.3844 -1.1156,-2.5 -2.5,-2.5 z"
         id="path4202"
         inkscape:connector-curvature="0" />
      <path
         style="color:#bebebe;display:inline;overflow:visible;visibility:visible;fill:url(#linearGradient10841);fill-opacity:1;fill-rule:nonzero;stroke:none;stroke-width:2;marker:none;enable-background:accumulate"
         d="m 422,101.5 c -2.49699,0 -4.5,2.00301 -4.5,4.5 v 12 c 0,2.49699 2.00301,4.5 4.5,4.5 h 12 c 2.49699,0 4.5,-2.00301 4.5,-4.5 v -12 c 0,-2.49699 -2.00301,-4.5 -4.5,-4.5 z"
         id="path4204"
         inkscape:connector-curvature="0" />
      <path
         style="color:#bebebe;display:inline;overflow:visible;visibility:visible;fill:url(#linearGradient10843);fill-opacity:1;fill-rule:nonzero;stroke:none;stroke-width:2;marker:none;enable-background:accumulate"
         d="m 424,53.5 c -3.60654,0 -6.5,2.89346 -6.5,6.5 v 16 c 0,3.60654 2.89346,6.5 6.5,6.5 h 16 c 3.60654,0 6.5,-2.89346 6.5,-6.5 V 60 c 0,-3.60654 -2.89346,-6.5 -6.5,-6.5 z"
         id="path4206"
         inkscape:connector-curvature="0" />
      <path
         style="color:#bebebe;display:inline;overflow:visible;visibility:visible;fill:url(#linearGradient10845);fill-opacity:1;fill-rule:nonzero;stroke:none;stroke-width:2;marker:none;enable-background:accumulate"
         d="m 300,223.5 c -4.71531,0 -8.5,3.78469 -8.5,8.5 v 24 c 0,4.71531 3.78469,8.5 8.5,8.5 h 24 c 4.71531,0 8.5,-3.78469 8.5,-8.5 v -24 c 0,-4.71531 -3.78469,-8.5 -8.5,-8.5 z"
         id="path4208"
         inkscape:connector-curvature="0" />
      <path
         style="color:#bebebe;display:inline;overflow:visible;visibility:visible;fill:url(#linearGradient10847);fill-opacity:1;fill-rule:nonzero;stroke:none;stroke-width:2;marker:none;enable-background:accumulate"
         d="m 310,32.5 c -9.70255,0 -17.5,7.79745 -17.5,17.5 v 52 c 0,9.70255 7.79745,17.5 17.5,17.5 h 52 c 9.70255,0 17.5,-7.79745 17.5,-17.5 V 50 c 0,-9.70255 -7.79745,-17.5 -17.5,-17.5 z"
         id="path4210"
         inkscape:connector-curvature="0" />
      <path
         style="color:#bebebe;display:inline;overflow:visible;visibility:visible;fill:url(#linearGradient10849);fill-opacity:1;fill-rule:nonzero;stroke:none;stroke-width:2;marker:none;enable-background:accumulate"
         d="m 302.5,142.5 c -6.65502,0 -12,5.34498 -12,12 v 35 c 0,6.65502 5.34498,12 12,12 h 35 c 6.65502,0 12,-5.34498 12,-12 v -35 c 0,-6.65502 -5.34498,-12 -12,-12 z"
         id="path4212"
         inkscape:connector-curvature="0" />
    </g>
    <g
       inkscape:groupmode="layer"
       id="layer6"
       inkscape:label="Symbols"
       style="display:inline">
      <path
         id="path3095"
         style="color:#000000;font-style:normal;font-variant:normal;font-weight:normal;font-stretch:normal;line-height:normal;font-family:sans-serif;-inkscape-font-specification:sans-serif;text-indent:0;text-align:start;text-decoration:none;text-decoration-line:none;letter-spacing:normal;word-spacing:normal;text-transform:none;writing-mode:lr-tb;direction:ltr;baseline-shift:baseline;text-anchor:start;display:inline;overflow:visible;visibility:visible;opacity:0.2;fill:#000000;fill-opacity:1;fill-rule:nonzero;stroke:none;stroke-width:8;marker:none;enable-background:new"
         d="m 334.29668,43.005145 c -5.45468,0.07175 -17.18416,0.967008 -23.74219,6.982422 -4.86743,4.868454 -6.57915,11.992429 -6.75976,20.824219 -0.18062,8.83179 -0.41336,25.381305 15.54101,29.869144 h 0.0137 l -0.01,6.84961 c 0,0 -0.10093,2.77257 1.72461,3.33789 2.20821,0.68572 3.50313,-1.42189 5.61133,-3.69336 1.15716,-1.24696 2.75488,-3.07849 3.95898,-4.47852 10.91142,0.91839 19.30473,-1.18198 20.25781,-1.49219 2.2031,-0.71429 14.66969,-2.311029 16.69727,-18.861324 2.0929,-17.058468 -1.01368,-27.847586 -6.625,-32.710938 -1.68983,-1.55921 -8.51804,-6.516635 -23.72852,-6.583984 0,0 -1.12123,-0.06688 -2.93945,-0.04297 z m 0.16211,4.792969 c 1.54394,-0.01083 2.49609,0.05078 2.49609,0.05078 12.86656,0.05612 19.03328,3.930533 20.4629,5.228516 4.74702,4.064358 7.16488,13.790848 5.39648,28.039063 v 0.0039 c -1.71125,13.818614 -11.82317,14.687187 -13.6875,15.285156 -0.79287,0.255107 -8.16311,2.087535 -17.43164,1.482422 0,0 -6.90532,8.333639 -9.0625,10.499999 -0.33674,0.33878 -0.73376,0.47555 -0.99805,0.4082 -0.37143,-0.0908 -0.47284,-0.53095 -0.46875,-1.17382 0.006,-0.91839 0.0586,-11.380866 0.0586,-11.380863 -13.49615,-3.747006 -12.7097,-17.834276 -12.55664,-25.210938 0.15307,-7.376663 1.53985,-13.418064 5.65624,-17.482422 5.54705,-5.024325 15.50297,-5.717522 20.13477,-5.75 z m 1.08203,7.373047 c -0.47444,-0.0028 -0.86155,0.379085 -0.86523,0.853516 -0.004,0.475196 0.3783,0.863502 0.85351,0.867187 4.59921,0.03203 8.34397,1.520711 11.41016,4.509766 3.0406,2.964134 4.59062,6.991407 4.63086,12.277344 0.004,0.474429 0.39078,0.856299 0.86523,0.853515 0.47519,-0.0037 0.85738,-0.391995 0.85352,-0.867187 -0.0428,-5.621742 -1.7536,-10.184694 -5.14844,-13.494141 -3.36928,-3.284528 -7.62722,-4.965367 -12.59961,-5 z m -11.63086,1.935547 c -0.42514,0.0063 -0.87674,0.126073 -1.33594,0.365234 -0.007,0 -0.0194,0.0059 -0.0254,0.0059 -1.21747,0.701747 -2.31522,1.593149 -3.25195,2.640626 -0.006,0.01225 -0.0135,0.01222 -0.0195,0.02344 -0.75648,0.912941 -1.18932,1.807388 -1.29883,2.683594 -0.0228,0.129536 -0.0306,0.261254 -0.0234,0.392578 -0.004,0.387224 0.0557,0.77246 0.17579,1.140625 l 0.041,0.0293 c 0.38164,1.355127 1.33655,3.611668 3.41211,7.375 1.18741,2.176859 2.55689,4.249354 4.09375,6.195312 0.76958,0.97553 1.5945,1.906096 2.4707,2.78711 0.0317,0.03163 0.0623,0.06314 0.0937,0.09375 l 0.0937,0.09375 0.0937,0.09375 0.0937,0.09375 c 0.88096,0.876868 1.81153,1.702444 2.78711,2.472656 1.94653,1.536451 4.0197,2.905276 6.19727,4.091797 3.76232,2.075547 6.01996,3.032422 7.37305,3.414062 l 0.0293,0.04102 c 0.36816,0.120042 0.75341,0.179411 1.14063,0.175781 0.1314,0.0061 0.26307,-0.0024 0.39258,-0.02539 0.87825,-0.104084 1.77142,-0.536317 2.68164,-1.296875 0.0113,-0.0061 0.0112,-0.01148 0.0234,-0.01758 1.04798,-0.937501 1.94001,-2.035886 2.64258,-3.253906 0,-0.0061 0.004,-0.01825 0.004,-0.02539 0.63777,-1.224511 0.42308,-2.384951 -0.51367,-3.175782 -0.006,0 -1.97338,-1.641521 -2.9336,-2.347656 -1.01719,-0.723418 -2.06993,-1.395482 -3.15429,-2.013672 -1.44697,-0.806137 -2.92486,-0.301616 -3.53711,0.490235 l -1.26954,1.597656 c -0.65102,0.802055 -1.85937,0.699219 -1.85937,0.699219 -8.83791,-2.256162 -11.20312,-11.208985 -11.20313,-11.208985 0,0 -0.10692,-1.208343 0.69922,-1.859375 l 1.59774,-1.269535 c 0.79185,-0.610214 1.29637,-2.091165 0.49023,-3.537109 -0.61813,-1.085027 -1.2902,-2.138429 -2.01367,-3.15625 -0.70307,-0.960221 -2.34165,-2.927494 -2.34765,-2.933594 -0.49363,-0.582281 -1.13127,-0.885444 -1.83985,-0.875 z m 13.12696,2.527344 c -0.44507,0.0073 -0.81104,0.352956 -0.84375,0.796875 -0.0342,0.473442 0.32152,0.885124 0.79492,0.919922 3.28388,0.240333 5.7181,1.317018 7.49609,3.257812 1.78287,1.948161 2.63054,4.314547 2.56641,7.277344 -0.0104,0.475232 0.36655,0.868842 0.84179,0.878906 0.47523,0.01043 0.86884,-0.36656 0.87891,-0.841797 0.0719,-3.323029 -0.94248,-6.206961 -3.01953,-8.476562 -2.09965,-2.291936 -5.03271,-3.546788 -8.63672,-3.810547 -0.026,-0.0018 -0.0521,-0.0025 -0.0781,-0.002 z m 1.2871,4.615234 c -0.44528,0.01708 -0.80381,0.371364 -0.82617,0.816406 -0.0239,0.47394 0.34056,0.877696 0.81446,0.902344 1.48258,0.07735 2.47937,0.495464 3.15625,1.195313 0.67688,0.69985 1.09307,1.755597 1.16992,3.304687 0.0236,0.474681 0.42767,0.84027 0.90234,0.816406 0.47468,-0.02361 0.84027,-0.427681 0.81641,-0.902344 -0.0905,-1.82444 -0.6156,-3.342111 -1.65235,-4.414062 -1.03676,-1.071951 -2.52539,-1.624072 -4.30273,-1.716797 -0.026,-0.0018 -0.0521,-0.0024 -0.0781,-0.0019 z"
         sodipodi:nodetypes="ccsccccccccccccsccccccccccscsscccscccscscccccccccccccccccccccccccccccccccccccssccccccccsssccssccscss" />
      <path
         id="path3097"
         style="color:#000000;font-style:normal;font-variant:normal;font-weight:normal;font-stretch:normal;line-height:normal;font-family:sans-serif;-inkscape-font-specification:sans-serif;text-indent:0;text-align:start;text-decoration:none;text-decoration-line:none;letter-spacing:normal;word-spacing:normal;text-transform:none;writing-mode:lr-tb;direction:ltr;baseline-shift:baseline;text-anchor:start;display:inline;overflow:visible;visibility:visible;opacity:0.2;fill:#000000;fill-opacity:1;fill-rule:nonzero;stroke:none;stroke-width:8.00012;marker:none;enable-background:new"
         d="m 318.89712,151.00334 c -3.52961,0.0464 -11.11776,0.62516 -15.36132,4.5177 -3.14961,3.15038 -4.25813,7.75999 -4.375,13.47501 -0.11687,5.71503 -0.26708,16.42463 10.05664,19.3287 h 0.01 l -0.008,4.43177 c 0,0 -0.066,1.79245 1.11523,2.15826 1.42888,0.44375 2.26865,-0.91888 3.63282,-2.38874 0.74877,-0.8069 1.78138,-1.99257 2.56054,-2.89852 7.06053,0.59428 12.49267,-0.76414 13.10938,-0.96487 1.42559,-0.46222 9.49269,-1.49383 10.80469,-12.20349 1.35426,-11.03848 -0.65614,-18.02153 -4.28711,-21.16858 -1.09345,-1.00897 -5.51115,-4.21632 -15.35352,-4.2599 0,0 -0.72777,-0.0428 -1.9043,-0.0273 z m 0.10547,3.10165 c 0.99905,-0.007 1.61524,0.0332 1.61524,0.0332 8.32566,0.0363 12.3171,2.543 13.24219,3.38291 3.07168,2.63004 4.63648,8.92315 3.49218,18.14312 v 0.002 c -1.10731,8.94198 -7.64912,9.50397 -8.85547,9.89091 -0.51305,0.16508 -5.28574,1.35253 -11.2832,0.96097 0,0 -4.46741,5.39132 -5.86328,6.79317 -0.21789,0.21922 -0.47351,0.30726 -0.64453,0.26367 -0.24034,-0.0588 -0.30732,-0.34379 -0.30469,-0.75979 0.004,-0.59429 0.0391,-7.36349 0.0391,-7.36349 -8.73307,-2.42468 -8.22404,-11.53956 -8.125,-16.31299 0.099,-4.77341 0.99458,-8.68474 3.65821,-11.31478 3.58937,-3.25121 10.03214,-3.69785 13.02929,-3.71886 z m 0.70117,4.76967 c -0.30743,-0.002 -0.5584,0.2453 -0.56054,0.55275 -0.002,0.30746 0.24528,0.55843 0.55273,0.56056 2.97605,0.0207 5.4007,0.98581 7.38477,2.92001 1.96753,1.91809 2.97007,4.52308 2.99609,7.9436 0.002,0.30745 0.2531,0.55493 0.56055,0.55275 0.30744,-0.002 0.55491,-0.25312 0.55273,-0.56057 -0.0277,-3.63781 -1.13528,-6.59115 -3.33203,-8.73267 -2.18019,-2.12541 -4.93677,-3.21402 -8.1543,-3.23643 z m -7.25781,1.27348 c -0.35078,-0.0588 -0.73663,0.0105 -1.13281,0.2168 -0.005,0 -0.0136,0.004 -0.0176,0.004 -0.78757,0.45425 -1.49761,1.03116 -2.10351,1.70903 -0.004,0.008 -0.008,0.006 -0.0117,0.0137 -0.4895,0.59075 -0.77093,1.16939 -0.8418,1.73637 -0.0142,0.0838 -0.0188,0.16903 -0.0137,0.25392 -0.003,0.25051 0.0344,0.49985 0.11133,0.7383 l 0.0273,0.0195 c 0.24695,0.8769 0.86595,2.33639 2.20899,4.77163 0.76816,1.40897 1.65407,2.75031 2.64843,4.00988 0.49767,0.631 1.03106,1.23288 1.59766,1.80279 0.0205,0.0205 0.0401,0.0408 0.0605,0.0605 l 0.0625,0.0605 0.0605,0.0606 0.0605,0.0625 c 0.56989,0.56661 1.17175,1.10002 1.80273,1.59769 1.25945,0.99451 2.60076,1.88045 4.00977,2.64852 2.43451,1.34308 3.89592,1.9621 4.77148,2.20906 l 0.0176,0.0273 c 0.23833,0.0775 0.48766,0.1158 0.73828,0.11328 0.0849,0.004 0.17012,-0.001 0.25391,-0.0156 0.5683,-0.0674 1.1493,-0.34771 1.73828,-0.83987 0.007,-0.004 0.006,-0.008 0.0137,-0.0117 0.6778,-0.60673 1.25661,-1.31742 1.71094,-2.10553 0,-0.004 0.004,-0.011 0.004,-0.0156 0.41268,-0.79238 0.27217,-1.54496 -0.33399,-2.0567 -0.004,0 -1.27711,-1.06068 -1.89844,-1.51762 -0.65816,-0.46871 -1.34125,-0.90413 -2.04296,-1.30473 -0.93629,-0.52164 -1.89093,-0.19403 -2.28711,0.31837 l -0.82227,1.03324 c -0.42125,0.519 -1.20312,0.45313 -1.20312,0.45313 -5.71882,-1.45996 -7.25,-7.25216 -7.25,-7.25216 0,0 -0.0685,-0.78188 0.45312,-1.20317 l 1.0332,-0.82228 c 0.51238,-0.39487 0.83999,-1.35346 0.31836,-2.28913 -0.40048,-0.70241 -0.83598,-1.38419 -1.30468,-2.04303 -0.45495,-0.62135 -1.51362,-1.89258 -1.51758,-1.89654 -0.25553,-0.30143 -0.57109,-0.48813 -0.92188,-0.54689 z m 8.22657,1.61528 c -0.28835,0.004 -0.52568,0.22804 -0.54688,0.51564 -0.0224,0.30629 0.20742,0.57285 0.51367,0.59572 2.12481,0.15551 3.70109,0.85174 4.85156,2.10748 1.15367,1.26066 1.70361,2.79191 1.66211,4.70913 -0.007,0.30673 0.23627,0.56093 0.54297,0.56838 0.30823,0.008 0.56393,-0.23668 0.57031,-0.54495 0.0465,-2.15031 -0.6091,-4.01588 -1.95312,-5.48453 -1.35864,-1.4831 -3.25974,-2.2962 -5.5918,-2.46687 -0.0163,-7.1e-4 -0.0306,-7.1e-4 -0.0469,0 z m 0.85156,2.98642 c -0.29484,0.002 -0.53919,0.2329 -0.55469,0.52735 -0.0166,0.30688 0.22047,0.56918 0.52734,0.58596 0.95933,0.05 1.60499,0.3206 2.04297,0.77346 0.438,0.45287 0.70807,1.13437 0.75782,2.13678 0.0147,0.30762 0.27641,0.5448 0.58398,0.52931 0.30683,-0.0158 0.54285,-0.27715 0.52734,-0.584 -0.0586,-1.18059 -0.39749,-2.16385 -1.06836,-2.8575 -0.67085,-0.69366 -1.63507,-1.05136 -2.78515,-1.11136 -0.0104,-2.9e-4 -0.0208,-2.9e-4 -0.0312,0 z"
         sodipodi:nodetypes="scsccccccccccsssccccccccccscsscccscccscccccccccccccccccccccccccccccccccccccccccscccccccccssccscccscss" />
      <path
         id="path3099"
         style="color:#000000;font-style:normal;font-variant:normal;font-weight:normal;font-stretch:normal;line-height:normal;font-family:sans-serif;-inkscape-font-specification:sans-serif;text-indent:0;text-align:start;text-decoration:none;text-decoration-line:none;letter-spacing:normal;word-spacing:normal;text-transform:none;writing-mode:lr-tb;direction:ltr;baseline-shift:baseline;text-anchor:start;display:inline;overflow:visible;visibility:visible;opacity:0.2;fill:#000000;fill-opacity:1;fill-rule:nonzero;stroke:none;stroke-width:8;marker:none;enable-background:new"
         d="m 311.19881,229.0024 c -2.56691,0.0338 -8.0877,0.45634 -11.17383,3.28711 -2.29056,2.29104 -3.0947,5.64269 -3.17968,9.79883 -0.085,4.15614 -0.19543,11.94471 7.3125,14.05664 h 0.006 l -0.004,3.22266 c 0,0 -0.0485,1.30428 0.81055,1.57031 1.03915,0.32269 1.64852,-0.6674 2.64062,-1.73633 0.54455,-0.5868 1.29664,-1.45053 1.86328,-2.10937 5.13478,0.43218 9.08469,-0.55519 9.5332,-0.70118 1.03675,-0.33614 6.90328,-1.08662 7.85743,-8.875 0.9849,-8.02751 -0.47657,-13.10589 -3.11719,-15.39453 -0.79521,-0.73374 -4.00815,-3.06596 -11.16602,-3.09765 0,0 -0.52718,-0.0327 -1.38281,-0.0215 z m 0.0762,2.25586 c 0.72656,-0.005 1.17383,0.0254 1.17383,0.0254 6.05485,0.0264 8.95615,1.84818 9.62891,2.45899 2.2339,1.91264 3.37319,6.49026 2.54101,13.19531 v 0.002 c -0.8053,6.50288 -5.56407,6.91197 -6.4414,7.19336 -0.37311,0.12005 -3.84147,0.98202 -8.20313,0.69727 0,0 -3.25047,3.92193 -4.26562,4.9414 -0.15846,0.15943 -0.34438,0.2231 -0.46875,0.19141 -0.1748,-0.0427 -0.22263,-0.2502 -0.22071,-0.55273 0.003,-0.43218 0.0273,-5.35547 0.0273,-5.35547 -6.35114,-1.7633 -5.98024,-8.39191 -5.90821,-11.86328 0.072,-3.47137 0.72303,-6.31588 2.66016,-8.22852 2.61036,-2.36438 7.29688,-2.68979 9.47656,-2.70508 z m 0.50977,3.47071 c -0.22318,-0.002 -0.40577,0.17722 -0.40821,0.40039 -0.002,0.22393 0.17842,0.40684 0.40235,0.4082 2.16434,0.0151 3.92622,0.71643 5.36914,2.12305 1.43088,1.39488 2.1588,3.28984 2.17773,5.77734 0.001,0.22393 0.18428,0.40422 0.40821,0.40234 0.22394,-0.001 0.40422,-0.18427 0.40234,-0.4082 -0.0201,-2.64553 -0.82626,-4.79418 -2.42383,-6.35156 -1.58555,-1.54566 -3.58778,-2.33527 -5.92773,-2.35156 z m -5.27735,0.92578 c -0.25511,-0.0427 -0.53609,0.006 -0.82421,0.15625 -0.003,0 -0.009,0.004 -0.0117,0.004 -0.57322,0.33001 -1.09013,0.74935 -1.53125,1.24219 -0.003,0.006 -0.007,0.007 -0.01,0.0117 -0.356,0.42962 -0.5598,0.84938 -0.61133,1.26172 -0.0104,0.0613 -0.0136,0.12351 -0.01,0.18554 -0.002,0.18165 0.0259,0.36238 0.082,0.53516 l 0.0195,0.0137 c 0.17959,0.6377 0.62875,1.69973 1.60547,3.47071 0.55854,1.02458 1.20276,2.00006 1.92578,2.91601 0.36257,0.45942 0.75123,0.89765 1.16406,1.3125 0.0149,0.0149 0.0281,0.0286 0.043,0.043 l 0.0449,0.0449 0.043,0.0449 0.0449,0.043 c 0.41485,0.41283 0.85308,0.80149 1.3125,1.16407 0.91527,0.72301 1.89012,1.36723 2.91407,1.92578 1.7705,0.97673 2.83395,1.42588 3.4707,1.60547 l 0.0137,0.0195 c 0.1734,0.0563 0.35481,0.084 0.53711,0.082 0.0614,0.003 0.12295,3.1e-4 0.18359,-0.01 0.41329,-0.049 0.83534,-0.25341 1.26368,-0.61133 0.005,-0.003 0.004,-0.007 0.01,-0.01 0.49321,-0.44054 0.91317,-0.95677 1.24414,-1.5293 0,-0.003 0.002,-0.009 0.002,-0.0117 0.30012,-0.57624 0.19863,-1.12393 -0.24219,-1.49609 -0.003,0 -0.929,-0.77122 -1.38086,-1.10352 -0.47859,-0.34085 -0.97413,-0.65789 -1.48438,-0.94922 -0.68092,-0.37934 -1.37593,-0.14021 -1.66406,0.23243 l -0.59766,0.75 c -0.30635,0.37742 -0.875,0.33008 -0.875,0.33007 -4.15901,-1.06171 -5.27148,-5.27343 -5.27148,-5.27343 0,0 -0.0493,-0.57059 0.33008,-0.87696 l 0.75195,-0.59765 c 0.37263,-0.28716 0.60983,-0.98361 0.23047,-1.66406 -0.29144,-0.51032 -0.60824,-1.00574 -0.94922,-1.48438 -0.33086,-0.45187 -1.10051,-1.37786 -1.10351,-1.38086 -0.18584,-0.21921 -0.41482,-0.35375 -0.66993,-0.39648 z m 5.9629,1.17382 c -0.20241,0.0125 -0.36436,0.17274 -0.37891,0.375 -0.0165,0.2227 0.15039,0.41669 0.37305,0.4336 1.54536,0.1131 2.69063,0.61793 3.52734,1.53125 0.83898,0.91678 1.23915,2.03152 1.20898,3.42578 -0.005,0.22395 0.17253,0.40951 0.39649,0.41406 0.22319,0.004 0.40755,-0.1733 0.41211,-0.39648 0.0338,-1.56378 -0.4425,-2.92024 -1.41992,-3.98828 v -0.002 c -0.98808,-1.07856 -2.36846,-1.66881 -4.06446,-1.79297 -0.0182,-9.9e-4 -0.0365,-9.9e-4 -0.0547,0 z m 0.60753,2.17188 c -0.2036,0.0158 -0.36355,0.18078 -0.37305,0.38477 -0.0108,0.22255 0.16031,0.41197 0.38281,0.42382 0.69768,0.0364 1.1678,0.23316 1.48633,0.5625 0.31853,0.32934 0.51462,0.82571 0.55078,1.55469 0.0108,0.22328 0.20055,0.39553 0.42383,0.38477 0.22328,-0.0108 0.39553,-0.20055 0.38477,-0.42383 -0.0426,-0.85856 -0.28946,-1.57368 -0.77735,-2.07813 -0.48789,-0.50444 -1.189,-0.76496 -2.02539,-0.80859 -0.0175,-0.001 -0.0351,-0.001 -0.0527,0 z"
         sodipodi:nodetypes="scsccccscccccsssccccccccccscsscccscccscccccccccccssccccccccccccccccccccccccccccscccccccccsssccscscscss" />
      <path
         id="path3101"
         style="color:#000000;font-style:normal;font-variant:normal;font-weight:normal;font-stretch:normal;line-height:normal;font-family:sans-serif;-inkscape-font-specification:sans-serif;text-indent:0;text-align:start;text-decoration:none;text-decoration-line:none;letter-spacing:normal;word-spacing:normal;text-transform:none;writing-mode:lr-tb;direction:ltr;baseline-shift:baseline;text-anchor:start;display:inline;overflow:visible;visibility:visible;opacity:0.2;fill:#000000;fill-opacity:1;fill-rule:nonzero;stroke:none;stroke-width:8;marker:none;enable-background:new"
         d="m 142.94857,82.00431 c -10.34612,-0.0853 -39.40442,1.03508 -55.076165,15.41016 -10.73699,10.73924 -14.5137,26.45366 -14.91211,45.93555 -0.39842,19.48189 -0.91416,55.99098 34.279285,65.89062 h 0.0332 l -0.0234,15.10743 c 0,0 -0.2242,6.1143 3.80274,7.36132 4.87103,1.51263 7.73041,-3.13394 12.38086,-8.14453 2.55256,-2.75065 6.07631,-6.79257 8.73242,-9.88086 24.06931,2.02584 42.58121,-2.60282 44.68359,-3.28711 4.8598,-1.57566 32.35942,-5.09942 36.83204,-41.60742 4.61668,-37.62898 -2.2334,-61.43021 -14.61133,-72.1582 -3.72755,-3.43944 -18.78929,-14.37489 -52.3418,-14.52345 0,0 -1.39173,-0.0838 -3.7793,-0.10351 z m -2.3457,10.58008 c 3.40575,-0.0239 5.50586,0.11524 5.50586,0.11524 28.3821,0.1238 41.9812,8.67 45.13477,11.5332 10.47137,8.9655 15.80713,30.41972 11.90625,61.84961 v 0.008 c -3.77483,30.48224 -26.07894,32.39775 -30.19141,33.7168 -1.74898,0.56273 -18.00783,4.60824 -38.45312,3.27344 0,0 -15.23565,18.37946 -19.99415,23.1582 -0.74281,0.74731 -1.61623,1.04895 -2.19922,0.90039 -0.81934,-0.20033 -1.04416,-1.17175 -1.03516,-2.58984 0.0135,-2.02585 0.13086,-25.10156 0.13086,-25.10156 -29.770935,-8.26546 -28.034895,-39.33928 -27.697255,-55.61133 0.33764,-16.27205 3.39431,-29.60286 12.47461,-38.56836 12.236105,-11.08307 34.200735,-12.61196 44.417965,-12.6836 z m 2.38477,16.26563 c -1.04717,-0.007 -1.90205,0.83565 -1.91016,1.88281 -0.008,1.04869 0.83607,1.90508 1.88477,1.91211 10.14533,0.0707 18.40626,3.35572 25.16992,9.94922 6.70728,6.53853 10.12222,15.42189 10.21094,27.08203 0.008,1.04793 0.86417,1.89089 1.91211,1.88281 1.04793,-0.008 1.89089,-0.86418 1.88281,-1.91211 -0.0944,-12.4009 -3.86681,-22.46928 -11.35547,-29.76953 -7.43226,-7.24528 -16.82643,-10.95094 -27.79492,-11.02734 z m -25.65821,4.27148 c -0.93783,0.0138 -1.93044,0.27517 -2.94336,0.80274 -0.0157,0 -0.0431,0.0137 -0.0566,0.0137 -2.68651,1.54815 -5.10887,3.51491 -7.17578,5.82617 -0.0135,0.027 -0.0275,0.026 -0.041,0.0508 -1.6687,2.01384 -2.62364,3.98906 -2.86524,5.92188 -0.0497,0.28489 -0.0668,0.57453 -0.0508,0.86328 -0.009,0.85451 0.12082,1.70481 0.38477,2.51758 l 0.0918,0.0625 c 0.84185,2.98925 2.94893,7.96806 7.52734,16.26953 2.61837,4.80174 5.63826,9.37338 9.02735,13.66601 1.69864,2.15146 3.51934,4.20366 5.45313,6.14649 0.0698,0.0698 0.13725,0.13953 0.20703,0.20703 l 0.20703,0.20898 0.20703,0.20704 0.20703,0.20703 c 1.94283,1.93379 3.99503,3.75449 6.14649,5.45312 4.29297,3.38957 8.86529,6.40948 13.66796,9.02735 8.29922,4.57841 13.28284,6.68548 16.26758,7.52734 l 0.0625,0.0918 c 0.81255,0.26527 1.66286,0.39654 2.51758,0.38867 0.2889,0.0137 0.57842,-0.005 0.86328,-0.0547 1.9373,-0.22959 3.91013,-1.18363 5.91797,-2.86133 0.0248,-0.0135 0.0257,-0.0275 0.0527,-0.041 2.31117,-2.06751 4.2785,-4.48975 5.82812,-7.17578 0,-0.0135 0.01,-0.0389 0.01,-0.0547 1.40684,-2.70113 0.92965,-5.26333 -1.13672,-7.00781 -0.0135,0 -4.35061,-3.62009 -6.46875,-5.17774 -2.24344,-1.59624 -4.56535,-3.07921 -6.95703,-4.44336 -3.19182,-1.77824 -6.45218,-0.6647 -7.80274,1.08203 l -2.79883,3.52344 c -1.4361,1.76923 -4.10351,1.54492 -4.10351,1.54492 -19.4954,-4.97683 -24.71485,-24.72461 -24.71485,-24.72461 0,0 -0.23331,-2.66741 1.54493,-4.10351 l 3.52343,-2.80078 c 1.74673,-1.34606 2.86028,-4.6112 1.08203,-7.80078 -1.36392,-2.39434 -2.8469,-4.71886 -4.44335,-6.96485 -1.5509,-2.11813 -5.16424,-6.45525 -5.17774,-6.46875 -1.08889,-1.28444 -2.49751,-1.95272 -4.06055,-1.92969 z m 29.01368,5.57032 c -1.00355,-0.0124 -1.84322,0.75878 -1.91602,1.75976 -0.0767,1.04526 0.70864,1.95472 1.75391,2.03125 7.24386,0.53014 12.61121,2.90243 16.5332,7.1836 3.93282,4.29741 5.80357,9.5191 5.66211,16.05468 -0.0223,1.04801 0.8094,1.91557 1.85742,1.9375 1.04727,0.0223 1.91452,-0.80822 1.9375,-1.85547 0.15867,-7.3302 -2.07647,-13.69274 -6.6582,-18.69921 -4.63157,-5.05574 -11.1047,-7.82444 -19.05469,-8.40625 -0.0383,-0.003 -0.0768,-0.005 -0.11523,-0.006 z m 2.83789,10.18359 c -1.00265,0.01 -1.82485,0.79749 -1.87696,1.79883 -0.0548,1.04624 0.74871,1.93891 1.79492,1.99414 3.2704,0.17062 5.47174,1.09293 6.96485,2.63672 1.49311,1.54378 2.41057,3.87 2.58008,7.28711 0.0521,1.04614 0.9421,1.85217 1.98828,1.80078 1.04692,-0.0511 1.85409,-0.94137 1.80273,-1.98828 -0.19965,-4.0245 -1.35755,-7.37369 -3.64453,-9.73828 -2.28697,-2.3646 -5.57159,-3.58257 -9.49219,-3.78711 -0.039,-0.003 -0.0781,-0.004 -0.11718,-0.004 z"
         sodipodi:nodetypes="scsccccccccccsscccccccccccsccccccssccscscccccccccscccccccccccccccccccccccccccssccccccccccccccscccsccc" />
      <path
         id="path3103"
         style="color:#000000;font-style:normal;font-variant:normal;font-weight:normal;font-stretch:normal;line-height:normal;font-family:sans-serif;-inkscape-font-specification:sans-serif;text-indent:0;text-align:start;text-decoration:none;text-decoration-line:none;letter-spacing:normal;word-spacing:normal;text-transform:none;writing-mode:lr-tb;direction:ltr;baseline-shift:baseline;text-anchor:start;display:inline;overflow:visible;visibility:visible;opacity:0.2;fill:#000000;fill-opacity:1;fill-rule:nonzero;stroke:none;stroke-width:8;marker:none;enable-background:new"
         d="m 427.9704,106.00002 c -0.18388,-0.002 -0.33423,0.14621 -0.33593,0.33008 -0.002,0.18389 0.14619,0.33424 0.33007,0.33594 1.78133,0.0124 3.23236,0.59035 4.41993,1.74804 1.17768,1.14805 1.77739,2.70661 1.79296,4.75391 0.002,0.18388 0.15206,0.33162 0.33594,0.33008 0.18312,-0.002 0.33054,-0.15087 0.33008,-0.33399 -0.0166,-2.17736 -0.67927,-3.94672 -1.99414,-5.22851 -1.30497,-1.27213 -2.95305,-1.92213 -4.87891,-1.93555 z m -4.34375,0.76172 c -0.20996,-0.0352 -0.44254,0.005 -0.67968,0.1289 -0.003,0 -0.008,0.002 -0.01,0.002 -0.4717,0.27178 -0.89684,0.61768 -1.25977,1.02344 -0.002,0.005 -0.004,0.006 -0.006,0.01 -0.29301,0.35359 -0.46151,0.6997 -0.50391,1.03906 -0.009,0.0501 -0.0124,0.0996 -0.01,0.15039 -0.002,0.14998 0.0221,0.30071 0.0684,0.44336 l 0.0156,0.01 c 0.14781,0.52486 0.51837,1.39983 1.32226,2.85742 0.45981,0.84307 0.99081,1.64478 1.58594,2.39844 0.29817,0.3778 0.61757,0.7389 0.95703,1.08008 0.0123,0.0123 0.0229,0.0252 0.0352,0.0371 l 0.0371,0.0371 0.0371,0.0351 0.0352,0.0371 c 0.34118,0.33946 0.70228,0.65886 1.08008,0.95703 0.75375,0.59521 1.55714,1.12622 2.40039,1.58594 1.45718,0.80388 2.33141,1.1725 2.85547,1.32031 l 0.0117,0.0176 c 0.14263,0.0465 0.29141,0.0674 0.44141,0.0664 0.0508,0.003 0.10224,0.001 0.15234,-0.008 0.34016,-0.0403 0.68652,-0.20738 1.03906,-0.50195 0.004,-0.002 0.003,-0.006 0.008,-0.008 0.40577,-0.36302 0.75138,-0.78815 1.02344,-1.25977 0,-0.002 0.002,-0.007 0.002,-0.01 0.24703,-0.47426 0.1636,-0.92418 -0.19921,-1.23047 -0.002,0 -0.76482,-0.63666 -1.13672,-0.91016 -0.39394,-0.28027 -0.80074,-0.53977 -1.22071,-0.77929 -0.56043,-0.31222 -1.13201,-0.11724 -1.36914,0.18945 l -0.49218,0.61914 c -0.25215,0.31062 -0.72071,0.27148 -0.72071,0.27148 -3.42303,-0.87384 -4.33984,-4.34179 -4.33984,-4.34179 0,0 -0.0408,-0.46856 0.27148,-0.72071 l 0.61914,-0.49218 c 0.3067,-0.23634 0.50169,-0.80911 0.18946,-1.36914 -0.23948,-0.42037 -0.49899,-0.82833 -0.7793,-1.22266 -0.2723,-0.3719 -0.90816,-1.13472 -0.91016,-1.13672 -0.15295,-0.18042 -0.34082,-0.291 -0.55078,-0.32617 z m 4.9043,0.9668 c -0.1653,0.0118 -0.29678,0.14329 -0.30859,0.30859 -0.0139,0.18406 0.12448,0.34433 0.30859,0.35742 1.27187,0.0931 2.21372,0.50808 2.90234,1.25977 0.69052,0.75453 1.01897,1.67277 0.99414,2.82031 -0.004,0.18388 0.14229,0.33601 0.32618,0.33984 0.1839,0.004 0.33601,-0.14228 0.33984,-0.32617 0.0278,-1.28704 -0.36352,-2.40417 -1.16797,-3.2832 -0.81322,-0.8877 -1.94984,-1.37441 -3.3457,-1.47656 -0.0162,-10e-4 -0.0326,-10e-4 -0.0488,0 z m 0.49805,1.78906 c -0.16432,0.0158 -0.29226,0.14959 -0.30078,0.31445 -0.009,0.18323 0.13125,0.33955 0.31445,0.34961 0.57422,0.03 0.96049,0.19183 1.22265,0.46289 0.26216,0.27106 0.42337,0.67931 0.45313,1.2793 0.009,0.18397 0.16565,0.32571 0.34961,0.3164 0.18317,-0.009 0.3246,-0.16444 0.31641,-0.34765 -0.035,-0.70664 -0.23713,-1.29577 -0.63868,-1.71094 -0.40155,-0.41519 -0.97957,-0.62815 -1.66797,-0.66406 -0.0162,-0.001 -0.0326,-0.001 -0.0488,0 z"
         sodipodi:nodetypes="cccscccsccccccccccccsccccccccccccccccccccccccccccscccsccccsssccscccscss" />
      <path
         id="path3105"
         style="color:#000000;font-style:normal;font-variant:normal;font-weight:normal;font-stretch:normal;line-height:normal;font-family:sans-serif;-inkscape-font-specification:sans-serif;text-indent:0;text-align:start;text-decoration:none;text-decoration-line:none;letter-spacing:normal;word-spacing:normal;text-transform:none;writing-mode:lr-tb;direction:ltr;baseline-shift:baseline;text-anchor:start;display:inline;overflow:visible;visibility:visible;opacity:0.2;fill:#000000;fill-opacity:1;fill-rule:nonzero;stroke:none;stroke-width:7.99986;marker:none;enable-background:new"
         d="m 431.95422,59.000427 c -0.26333,-0.0025 -0.4786,0.20931 -0.48043,0.472675 -0.001,0.2626 0.21005,0.476716 0.47262,0.478536 2.54468,0.01772 4.61945,0.842209 6.31592,2.496195 1.68237,1.640194 2.53813,3.868288 2.56036,6.793243 0.002,0.263365 0.2171,0.475177 0.48043,0.472676 0.26333,-0.0018 0.47512,-0.217134 0.47262,-0.480488 -0.0236,-3.110779 -0.97103,-5.635828 -2.8494,-7.4671 -1.86416,-1.817485 -4.22098,-2.746573 -6.97212,-2.765737 z m -6.20656,1.087935 c -0.29993,-0.05025 -0.62992,0.0091 -0.96867,0.185555 -0.004,0 -0.0107,0.0039 -0.0137,0.0039 -0.6734,0.388314 -1.28055,0.881462 -1.79869,1.460996 -0.003,0.0068 -0.009,0.0055 -0.0117,0.01172 -0.41854,0.505175 -0.6581,1.001542 -0.71869,1.486389 -0.0122,0.07158 -0.0161,0.144326 -0.0117,0.216805 -0.002,0.2141 0.0298,0.427155 0.0957,0.630885 l 0.0234,0.01563 c 0.21115,0.749855 0.74015,1.997813 1.88853,4.080244 0.65654,1.204457 1.41368,2.351076 2.2635,3.427873 0.42581,0.540103 0.88223,1.055253 1.36708,1.543031 0.0175,0.0175 0.0352,0.03384 0.0527,0.05078 l 0.0508,0.05273 0.0527,0.05273 0.0527,0.05273 c 0.48709,0.484859 1.00152,0.941318 1.54089,1.367242 1.0766,0.850022 2.2231,1.607251 3.42748,2.263764 2.08162,1.148499 3.33308,1.677569 4.08172,1.888749 l 0.0156,0.02344 c 0.2037,0.06586 0.41674,0.09819 0.63081,0.0957 0.0725,0.0035 0.14525,-0.0011 0.21679,-0.01367 0.48592,-0.05759 0.9826,-0.295973 1.48621,-0.716826 0.006,-0.0034 0.005,-0.0064 0.0117,-0.0098 0.58013,-0.518824 1.07386,-1.126674 1.46278,-1.800854 0,-0.0034 0.002,-0.0097 0.002,-0.01367 0.35285,-0.677581 0.23315,-1.320281 -0.28514,-1.757883 -0.003,0 -1.08969,-0.908143 -1.62096,-1.298881 -0.56307,-0.400021 -1.1477,-0.771565 -1.74792,-1.113326 -0.80058,-0.446075 -1.61813,-0.166674 -1.95688,0.271495 l -0.70112,0.882848 c -0.3602,0.443815 -1.02922,0.386734 -1.02922,0.386734 -4.88987,-1.24844 -6.19875,-6.201423 -6.19875,-6.201423 0,0 -0.0593,-0.669092 0.38669,-1.029339 l 0.8847,-0.7012 c 0.43812,-0.337658 0.71749,-1.157001 0.27146,-1.95711 -0.34229,-0.600995 -0.71446,-1.184384 -1.11515,-1.748118 -0.38901,-0.531337 -1.29573,-1.619714 -1.29873,-1.623112 -0.21848,-0.257763 -0.48905,-0.416563 -0.789,-0.466816 z m 7.019,1.380915 c -0.2411,0.01096 -0.43583,0.200663 -0.45309,0.441424 -0.0194,0.26284 0.1785,0.491361 0.44137,0.509787 1.81691,0.132986 3.16441,0.728873 4.14813,1.802807 0.98565,1.077764 1.4553,2.38675 1.41981,4.025554 -0.006,0.263372 0.2034,0.481339 0.46676,0.486348 0.2626,0.0058 0.48022,-0.202249 0.48629,-0.464863 0.0398,-1.838794 -0.52252,-3.43572 -1.67175,-4.691596 -1.16169,-1.268237 -2.78685,-1.961558 -4.78088,-2.107508 -0.0188,-0.0018 -0.0377,-0.0025 -0.0566,-0.002 z m 0.71089,2.554792 c -0.24003,0.01717 -0.42946,0.210814 -0.44138,0.451189 -0.0136,0.26273 0.18843,0.486671 0.45114,0.50002 0.82028,0.0428 1.3734,0.274877 1.74791,0.662137 0.3745,0.38726 0.60393,0.96906 0.64644,1.826246 0.0123,0.263522 0.23653,0.466755 0.49996,0.453143 0.26272,-0.01334 0.46475,-0.237286 0.45113,-0.50002 -0.0501,-1.009549 -0.34037,-1.848344 -0.91399,-2.441506 -0.57362,-0.593161 -1.39925,-0.899901 -2.38263,-0.951209 -0.0195,-0.0012 -0.0391,-0.0012 -0.0586,0 z"
         sodipodi:nodetypes="ccsssccsccccccccccccsccccccccccccccccccccccccccccsccccccccsssccscccscss" />
      <path
         id="path3107"
         style="color:#000000;font-style:normal;font-variant:normal;font-weight:normal;font-stretch:normal;line-height:normal;font-family:sans-serif;-inkscape-font-specification:sans-serif;text-indent:0;text-align:start;text-decoration:none;text-decoration-line:none;letter-spacing:normal;word-spacing:normal;text-transform:none;writing-mode:lr-tb;direction:ltr;baseline-shift:baseline;text-anchor:start;display:inline;overflow:visible;visibility:visible;opacity:0.2;fill:#000000;fill-opacity:1;fill-rule:nonzero;stroke:none;stroke-width:7.99951;marker:none;enable-background:new"
         d="m 423.97699,144 c -0.13089,-1.7e-4 -0.23735,0.10542 -0.23826,0.23632 -10e-4,0.13165 0.10466,0.2393 0.23631,0.24021 1.27222,0.009 2.30789,0.42114 3.15606,1.24797 0.84111,0.81993 1.27006,1.9341 1.28117,3.39628 0.002,0.13012 0.10811,0.23454 0.23826,0.23436 0.13089,-9.1e-4 0.23649,-0.10737 0.23632,-0.23826 -0.0118,-1.55508 -0.48465,-2.81871 -1.42374,-3.73415 -0.93202,-0.90857 -2.11067,-1.37315 -3.48612,-1.38273 z m -3.10137,0.54294 c -0.14995,-0.0251 -0.31499,0.004 -0.48435,0.0918 -0.002,0 -0.006,0.002 -0.008,0.002 -0.33717,0.19463 -0.64115,0.44189 -0.90033,0.73238 -0.002,0.004 -0.002,0.003 -0.004,0.006 -0.20923,0.25252 -0.32902,0.49976 -0.35936,0.74214 -0.006,0.0361 -0.008,0.0728 -0.006,0.10936 -0.001,0.10665 0.0144,0.21285 0.0469,0.31444 l 0.0117,0.008 c 0.10556,0.37485 0.37111,0.99989 0.94525,2.04089 0.32788,0.60241 0.7062,1.17611 1.13079,1.71474 0.21359,0.26938 0.44247,0.52634 0.6855,0.76949 0.009,0.009 0.0164,0.0193 0.0254,0.0273 l 0.0254,0.0254 0.0254,0.0274 0.0273,0.0254 c 0.24385,0.2424 0.50143,0.47066 0.77143,0.68355 0.53791,0.42521 1.11095,0.80419 1.71279,1.13274 1.04072,0.57413 1.66661,0.83774 2.04089,0.9433 l 0.008,0.0117 c 0.10149,0.0332 0.20769,0.0496 0.31444,0.0488 0.0366,10e-4 0.0733,-8.1e-4 0.10937,-0.008 0.24294,-0.0288 0.49037,-0.14897 0.74214,-0.35936 l 0.006,-0.004 c 0.28969,-0.25944 0.53628,-0.56339 0.73043,-0.90034 0,-0.002 0.002,-0.004 0.002,-0.006 0.17641,-0.33871 0.11654,-0.66011 -0.14258,-0.87885 -0.002,0 -0.54682,-0.45502 -0.81245,-0.65035 -0.28087,-0.19992 -0.57162,-0.38571 -0.87103,-0.55661 -0.40027,-0.22299 -0.8091,-0.0843 -0.97846,0.13475 l -0.35154,0.44334 c -0.18009,0.22182 -0.5156,0.19335 -0.5156,0.19335 v -0.002 c -2.44473,-0.6241 -3.09942,-3.09942 -3.09942,-3.09942 0,0 -0.0277,-0.3355 0.19531,-0.51559 l 0.44137,-0.35155 c 0.21906,-0.1688 0.35775,-0.57848 0.13476,-0.97845 -0.17085,-0.30008 -0.35663,-0.59147 -0.5566,-0.873 -0.19449,-0.26561 -0.64835,-0.8085 -0.65035,-0.8105 -0.10924,-0.12885 -0.24261,-0.20923 -0.39256,-0.23435 z m 3.49588,0.69136 c -0.11521,0.012 -0.20509,0.10514 -0.21288,0.22069 -0.009,0.13031 0.0885,0.24365 0.21874,0.25389 0.9084,0.0665 1.58227,0.36543 2.07409,0.90229 0.49316,0.5389 0.7286,1.19399 0.7109,2.01355 -0.002,0.1309 0.10151,0.23913 0.2324,0.24217 0.1309,0.002 0.23914,-0.10151 0.24218,-0.2324 0.0199,-0.91921 -0.25943,-1.71776 -0.83394,-2.34557 -0.58082,-0.63399 -1.39355,-0.98167 -2.39048,-1.05462 -0.0136,-10e-4 -0.0274,-10e-4 -0.041,0 z m 0.39646,1.27727 c -0.13097,-0.007 -0.24279,0.0936 -0.24998,0.22459 -0.007,0.1317 0.0948,0.24384 0.22654,0.24999 0.41014,0.0214 0.68576,0.13842 0.873,0.33201 0.18724,0.19358 0.30295,0.4855 0.3242,0.914 0.007,0.13015 0.11779,0.23031 0.24803,0.2246 0.13094,-0.006 0.23224,-0.11708 0.22655,-0.24804 -0.025,-0.50467 -0.17023,-0.92605 -0.45701,-1.22257 -0.28679,-0.29653 -0.69967,-0.44894 -1.19133,-0.47458 z"
         sodipodi:nodetypes="cscscccsccccccccccccscccccccccccccccccccccccccccccscccccccssscccscccsc" />
      <path
         id="path4304-0"
         style="color:#000000;font-style:normal;font-variant:normal;font-weight:normal;font-stretch:normal;line-height:normal;font-family:sans-serif;-inkscape-font-specification:sans-serif;text-indent:0;text-align:start;text-decoration:none;text-decoration-line:none;letter-spacing:normal;word-spacing:normal;text-transform:none;writing-mode:lr-tb;direction:ltr;baseline-shift:baseline;text-anchor:start;display:inline;overflow:visible;visibility:visible;fill:#ffffff;fill-opacity:1;fill-rule:nonzero;stroke:none;stroke-width:8;marker:none;enable-background:new"
         d="m 334.29669,42.005145 c -5.45468,0.07175 -17.18416,0.967008 -23.74219,6.982422 -4.86743,4.868454 -6.57916,11.992429 -6.75977,20.824219 -0.18062,8.831791 -0.41335,25.381305 15.54102,29.869141 h 0.0137 l -0.01,6.849613 c 0,0 -0.10093,2.77257 1.72461,3.33789 2.20821,0.68572 3.50313,-1.42189 5.61133,-3.69336 1.15716,-1.24696 2.75489,-3.07849 3.95899,-4.47852 10.91142,0.91839 19.30473,-1.18198 20.25781,-1.49219 2.2031,-0.714294 14.66968,-2.311029 16.69726,-18.861324 2.0929,-17.058468 -1.01368,-27.847586 -6.625,-32.710938 -1.68983,-1.559211 -8.51803,-6.516635 -23.72851,-6.583984 0,0 -1.12123,-0.06688 -2.93945,-0.04297 z m 0.1621,4.792969 c 1.54394,-0.01083 2.4961,0.05078 2.4961,0.05078 12.86656,0.05612 19.03328,3.930533 20.46289,5.228516 4.74703,4.064358 7.16488,13.790849 5.39648,28.039063 v 0.0039 c -1.71126,13.818614 -11.82318,14.687187 -13.6875,15.285156 -0.79287,0.255107 -8.16311,2.087535 -17.43164,1.482422 0,0 -6.90532,8.333639 -9.0625,10.499999 -0.33674,0.33878 -0.73375,0.47555 -0.99804,0.4082 -0.37143,-0.0908 -0.47284,-0.53095 -0.46875,-1.17382 0.006,-0.91839 0.0586,-11.380865 0.0586,-11.380863 -13.49616,-3.747005 -12.7097,-17.834276 -12.55664,-25.210938 0.15307,-7.376663 1.53985,-13.418064 5.65625,-17.482422 5.54704,-5.024325 15.50296,-5.717522 20.13476,-5.75 z m 1.08204,7.373047 c -0.47444,-0.0028 -0.86155,0.379085 -0.86524,0.853516 -0.004,0.475196 0.37832,0.863502 0.85352,0.867187 4.59921,0.03203 8.34396,1.520711 11.41015,4.509766 3.0406,2.964134 4.59061,6.991408 4.63086,12.277344 0.004,0.47443 0.3908,0.856299 0.86524,0.853515 0.47519,-0.0037 0.85737,-0.391995 0.85351,-0.867187 -0.0428,-5.621742 -1.7536,-10.184694 -5.14844,-13.494141 -3.36928,-3.284528 -7.62722,-4.965367 -12.5996,-5 z m -11.63086,1.935547 c -0.42515,0.0063 -0.87675,0.126072 -1.33594,0.365234 -0.007,0 -0.0194,0.0059 -0.0254,0.0059 -1.21746,0.701747 -2.31523,1.593148 -3.25195,2.640625 -0.006,0.01225 -0.0135,0.01222 -0.0195,0.02344 -0.75648,0.912941 -1.1893,1.807388 -1.29882,2.683594 -0.0228,0.129536 -0.0306,0.261254 -0.0234,0.392578 -0.004,0.387224 0.0557,0.77246 0.17578,1.140625 l 0.041,0.0293 c 0.38164,1.355127 1.33655,3.611668 3.4121,7.375 1.18742,2.176859 2.55689,4.249354 4.09375,6.195313 0.76958,0.975529 1.59451,1.906095 2.47071,2.787109 0.0317,0.03163 0.0623,0.06314 0.0937,0.09375 l 0.0937,0.09375 0.0937,0.09375 0.0937,0.09375 c 0.88096,0.876868 1.81153,1.702444 2.78711,2.472656 1.94653,1.536451 4.01969,2.905276 6.19726,4.091797 3.76232,2.075547 6.01996,3.032422 7.37305,3.414062 l 0.0293,0.04102 c 0.36816,0.120042 0.7534,0.179411 1.14062,0.175781 0.1314,0.0061 0.26307,-0.0024 0.39258,-0.02539 0.87825,-0.104084 1.77142,-0.536317 2.68164,-1.296875 0.0113,-0.0061 0.0112,-0.01148 0.0234,-0.01758 1.04798,-0.937501 1.94001,-2.035886 2.64258,-3.253906 0,-0.0061 0.004,-0.01825 0.004,-0.02539 0.63777,-1.224511 0.42308,-2.38495 -0.51367,-3.175781 -0.006,0 -1.97337,-1.641521 -2.93359,-2.347656 -1.01719,-0.723418 -2.06994,-1.395482 -3.1543,-2.013672 -1.44697,-0.806137 -2.92486,-0.301616 -3.53711,0.490234 l -1.26953,1.597657 c -0.65103,0.802055 -1.85938,0.699218 -1.85938,0.699218 -8.83791,-2.256162 -11.20312,-11.208984 -11.20312,-11.208984 0,0 -0.10692,-1.208343 0.69922,-1.859375 l 1.59765,-1.269531 c 0.79185,-0.610214 1.29638,-2.091165 0.49024,-3.537109 -0.61813,-1.085027 -1.2902,-2.138429 -2.01367,-3.15625 -0.70307,-0.960221 -2.34166,-2.927494 -2.34766,-2.933594 -0.49363,-0.582281 -1.13126,-0.885444 -1.83984,-0.875 z m 13.12695,2.527344 c -0.44506,0.0073 -0.81103,0.352956 -0.84375,0.796875 -0.0342,0.473442 0.32152,0.885123 0.79492,0.919921 3.28389,0.240333 5.71811,1.317019 7.4961,3.257813 1.78287,1.948161 2.63053,4.314547 2.5664,7.277344 -0.0104,0.475232 0.36656,0.868842 0.8418,0.878906 0.47523,0.01043 0.86883,-0.36656 0.8789,-0.841797 0.0719,-3.323029 -0.94248,-6.206961 -3.01953,-8.476562 -2.09965,-2.291936 -5.03272,-3.546788 -8.63672,-3.810547 -0.026,-0.0018 -0.0521,-0.0025 -0.0781,-0.002 z m 1.28711,4.615234 c -0.44528,0.01708 -0.8038,0.371363 -0.82617,0.816406 -0.0239,0.47394 0.34055,0.877696 0.81445,0.902344 1.48258,0.07735 2.47937,0.495463 3.15625,1.195312 0.67688,0.69985 1.09307,1.755598 1.16992,3.304688 0.0236,0.474681 0.42768,0.84027 0.90235,0.816406 0.47468,-0.02361 0.84026,-0.42768 0.8164,-0.902343 -0.0905,-1.82444 -0.61558,-3.342112 -1.65234,-4.414063 -1.03676,-1.071951 -2.5254,-1.624072 -4.30274,-1.716797 -0.026,-0.0018 -0.0521,-0.0025 -0.0781,-0.002 z"
         sodipodi:nodetypes="ccsccccccccccccsccccccccccscsscccscccscccccccccccccccccccccccccccccccccccccccccscccccccssssscssccscss" />
      <path
         id="path3072"
         style="color:#000000;font-style:normal;font-variant:normal;font-weight:normal;font-stretch:normal;line-height:normal;font-family:sans-serif;-inkscape-font-specification:sans-serif;text-indent:0;text-align:start;text-decoration:none;text-decoration-line:none;letter-spacing:normal;word-spacing:normal;text-transform:none;writing-mode:lr-tb;direction:ltr;baseline-shift:baseline;text-anchor:start;display:inline;overflow:visible;visibility:visible;fill:#ffffff;fill-opacity:1;fill-rule:nonzero;stroke:none;stroke-width:8.00024;marker:none;enable-background:new"
         d="m 318.8974,150.00334 c -3.52961,0.0464 -11.11823,0.62527 -15.36179,4.5177 -3.14961,3.15028 -4.25826,7.76016 -4.37513,13.47501 -0.11687,5.71486 -0.26678,16.42473 10.05694,19.32871 h 0.01 l -0.008,4.43177 c 0,0 -0.066,1.79246 1.11527,2.15826 1.42888,0.44373 2.26875,-0.91893 3.63292,-2.38874 0.74877,-0.80688 1.78147,-1.9926 2.56063,-2.89852 7.06053,0.59426 12.49109,-0.76415 13.1078,-0.96487 1.42559,-0.46221 9.49301,-1.49416 10.80501,-12.2035 1.35426,-11.03815 -0.65626,-18.02162 -4.28723,-21.16858 -1.09345,-1.00894 -5.51161,-4.21632 -15.35398,-4.2599 0,0 -0.72586,-0.0428 -1.90239,-0.0273 z m 0.10547,3.10165 c 0.99905,-0.007 1.61528,0.0332 1.61528,0.0332 8.32566,0.0363 12.31555,2.54302 13.24063,3.38291 3.07169,2.62996 4.63658,8.92342 3.49228,18.14312 v 0.002 c -1.10731,8.94172 -7.64937,9.50398 -8.85572,9.89091 -0.51305,0.16508 -5.28413,1.35252 -11.28159,0.96097 0,0 -4.46759,5.39136 -5.86346,6.79317 -0.21789,0.21922 -0.47353,0.30726 -0.64455,0.26368 -0.24034,-0.0588 -0.30733,-0.3438 -0.3047,-0.75979 0.004,-0.59427 0.0391,-7.3635 0.0391,-7.3635 -8.73307,-2.4246 -8.22429,-11.5397 -8.12525,-16.31298 0.099,-4.77327 0.99468,-8.68483 3.65831,-11.31479 3.58937,-3.25112 10.03254,-3.69785 13.02969,-3.71886 z m 0.70119,4.76967 c -0.30744,-0.002 -0.55843,0.24531 -0.56057,0.55275 -0.002,0.30745 0.24531,0.55844 0.55276,0.56057 2.97605,0.0207 5.39896,0.98586 7.38303,2.92 1.96753,1.91803 2.97016,4.52319 2.99618,7.9436 0.002,0.30745 0.25311,0.55493 0.56056,0.55275 0.30744,-0.002 0.55493,-0.25312 0.55275,-0.56056 -0.0277,-3.63771 -1.13538,-6.59122 -3.33213,-8.73268 -2.18019,-2.12534 -4.93506,-3.21402 -8.15258,-3.23643 z m -7.25803,1.27348 c -0.35078,-0.0588 -0.73667,0.0105 -1.13285,0.2168 -0.005,0 -0.0136,0.004 -0.0176,0.004 -0.78757,0.45424 -1.49768,1.03117 -2.10358,1.70903 -0.004,0.008 -0.008,0.006 -0.0117,0.0137 -0.4895,0.59074 -0.77096,1.16941 -0.84183,1.73637 -0.0142,0.0838 -0.0188,0.16904 -0.0137,0.25392 -0.003,0.25051 0.0344,0.49986 0.11134,0.7383 l 0.0273,0.0195 c 0.24695,0.87688 0.86601,2.33646 2.20905,4.77163 0.76816,1.40893 1.65416,2.75035 2.64852,4.00988 0.49767,0.63098 1.0311,1.2329 1.5977,1.80279 0.0205,0.0205 0.0401,0.0408 0.0605,0.0605 l 0.0625,0.0605 0.0605,0.0606 0.0605,0.0625 c 0.56989,0.5666 1.17181,1.10003 1.80279,1.5977 1.25945,0.99447 2.60087,1.88047 4.00988,2.64852 2.43451,1.34304 3.89607,1.9621 4.77163,2.20905 l 0.0176,0.0273 c 0.23833,0.0775 0.48768,0.11581 0.7383,0.11329 0.0849,0.004 0.17012,-10e-4 0.25391,-0.0156 0.5683,-0.0674 1.1474,-0.34773 1.73638,-0.83988 0.007,-0.004 0.008,-0.008 0.0156,-0.0117 0.6778,-0.60671 1.2547,-1.31744 1.70903,-2.10552 0,-0.004 0.004,-0.011 0.004,-0.0156 0.41268,-0.79236 0.27216,-1.54498 -0.334,-2.0567 -0.004,0 -1.27715,-1.0607 -1.89848,-1.51763 -0.65816,-0.46869 -1.33938,-0.90414 -2.04109,-1.30473 -0.93629,-0.52162 -1.89099,-0.19401 -2.28717,0.31837 l -0.8223,1.03324 c -0.42125,0.51899 -1.20315,0.45314 -1.20315,0.45314 -5.71882,-1.45992 -7.25022,-7.25217 -7.25022,-7.25217 0,0 -0.0685,-0.78189 0.45314,-1.20316 l 1.03324,-0.82229 c 0.51238,-0.39486 0.84,-1.35349 0.31837,-2.28913 -0.40048,-0.70239 -0.83589,-1.38428 -1.30459,-2.0431 -0.45495,-0.62133 -1.51367,-1.89258 -1.51763,-1.89654 -0.25553,-0.30142 -0.57111,-0.48813 -0.9219,-0.54689 z m 8.22681,1.61528 c -0.28835,0.004 -0.5257,0.22805 -0.5469,0.51564 -0.0224,0.30628 0.20745,0.57285 0.5137,0.59572 2.12481,0.15551 3.69928,0.85177 4.84975,2.10748 1.15367,1.26062 1.70365,2.79197 1.66215,4.70913 -0.007,0.30672 0.23629,0.56093 0.54299,0.56838 0.30823,0.008 0.56395,-0.23669 0.57033,-0.54495 0.0465,-2.15025 -0.60916,-4.01592 -1.95318,-5.48453 -1.35864,-1.48306 -3.25795,-2.2962 -5.59001,-2.46687 -0.0163,-7.1e-4 -0.0325,-7.1e-4 -0.0488,0 z m 0.84963,2.98642 c -0.29484,0.002 -0.53725,0.23291 -0.55275,0.52735 -0.0166,0.30687 0.21854,0.56918 0.52541,0.58596 0.95933,0.05 1.60504,0.32061 2.04302,0.77346 0.438,0.45286 0.70811,1.13441 0.75785,2.13679 0.0147,0.30761 0.27642,0.54479 0.58399,0.5293 0.30683,-0.0158 0.54287,-0.27715 0.52736,-0.58399 -0.0586,-1.18056 -0.39752,-2.16388 -1.06839,-2.85751 -0.67085,-0.69364 -1.63516,-1.05136 -2.78524,-1.11136 -0.0104,-2.9e-4 -0.0208,-2.9e-4 -0.0312,0 z"
         sodipodi:nodetypes="scsccccccccccsssccccccccccscsssssscscssscccccccccccccccccccccccccccccccccccccsscccsccccsssccscccscss" />
      <path
         id="path3076"
         style="color:#000000;font-style:normal;font-variant:normal;font-weight:normal;font-stretch:normal;line-height:normal;font-family:sans-serif;-inkscape-font-specification:sans-serif;text-indent:0;text-align:start;text-decoration:none;text-decoration-line:none;letter-spacing:normal;word-spacing:normal;text-transform:none;writing-mode:lr-tb;direction:ltr;baseline-shift:baseline;text-anchor:start;display:inline;overflow:visible;visibility:visible;fill:#ffffff;fill-opacity:1;fill-rule:nonzero;stroke:none;stroke-width:8;marker:none;enable-background:new"
         d="m 311.19882,228.0024 c -2.56691,0.0338 -8.0877,0.45634 -11.17383,3.28711 -2.29056,2.29104 -3.0947,5.64269 -3.17969,9.79883 -0.085,4.15614 -0.19543,11.94471 7.3125,14.05664 h 0.006 l -0.004,3.22266 c 0,0 -0.0485,1.30428 0.81055,1.57031 1.03916,0.32269 1.64853,-0.6674 2.64063,-1.73633 0.54455,-0.5868 1.29664,-1.45053 1.86328,-2.10937 5.13478,0.43218 9.08469,-0.55519 9.5332,-0.70118 1.03675,-0.33614 6.90327,-1.08662 7.85742,-8.875 0.9849,-8.02752 -0.47656,-13.10589 -3.11718,-15.39453 -0.79521,-0.73374 -4.00815,-3.06596 -11.16602,-3.09765 0,0 -0.52718,-0.0327 -1.38281,-0.0215 z m 0.0762,2.25586 c 0.72656,-0.005 1.17383,0.0254 1.17383,0.0254 6.05485,0.0264 8.95614,1.84818 9.6289,2.45899 2.2339,1.91264 3.3732,6.49026 2.54102,13.19531 v 0.002 c -0.8053,6.50288 -5.56408,6.91197 -6.44141,7.19336 -0.37311,0.12005 -3.84146,0.98202 -8.20312,0.69727 0,0 -3.25048,3.92193 -4.26563,4.9414 -0.15846,0.15943 -0.34438,0.2231 -0.46875,0.19141 -0.1748,-0.0427 -0.22262,-0.2502 -0.2207,-0.55273 0.003,-0.43218 0.0273,-5.35547 0.0273,-5.35547 -6.35114,-1.7633 -5.98023,-8.39191 -5.9082,-11.86328 0.072,-3.47137 0.72303,-6.31588 2.66016,-8.22852 2.61036,-2.36438 7.29688,-2.68979 9.47656,-2.70508 z m 0.50976,3.47071 c -0.22318,-0.002 -0.40577,0.17722 -0.4082,0.40039 -0.002,0.22393 0.17841,0.40684 0.40234,0.4082 2.16434,0.0151 3.92623,0.71643 5.36915,2.12305 1.43088,1.39488 2.1588,3.28984 2.17773,5.77734 10e-4,0.22393 0.18427,0.40422 0.4082,0.40234 0.22394,-0.001 0.40423,-0.18427 0.40235,-0.4082 -0.0201,-2.64553 -0.82626,-4.79418 -2.42383,-6.35156 -1.58555,-1.54566 -3.58779,-2.33527 -5.92774,-2.35156 z m -5.27734,0.92578 c -0.25511,-0.0427 -0.5361,0.006 -0.82422,0.15625 -0.003,0 -0.009,0.004 -0.0117,0.004 -0.57322,0.33001 -1.09013,0.74935 -1.53125,1.24219 -0.003,0.006 -0.007,0.007 -0.01,0.0117 -0.356,0.42962 -0.5598,0.84938 -0.61133,1.26172 -0.0104,0.0613 -0.0138,0.12351 -0.01,0.18554 -0.002,0.18165 0.0259,0.36238 0.082,0.53516 l 0.0195,0.0137 c 0.17959,0.6377 0.62874,1.69973 1.60546,3.47071 0.55854,1.02458 1.20277,2.00006 1.92579,2.91601 0.36257,0.45942 0.75123,0.89765 1.16406,1.3125 0.0149,0.0149 0.0281,0.0286 0.043,0.043 l 0.0449,0.0449 0.043,0.0449 0.0449,0.043 c 0.41485,0.41283 0.85308,0.80149 1.3125,1.16407 0.91527,0.72301 1.89011,1.36723 2.91406,1.92578 1.7705,0.97673 2.83396,1.42588 3.47071,1.60547 l 0.0137,0.0195 c 0.1734,0.0563 0.35481,0.084 0.53711,0.082 0.0614,0.003 0.12295,8e-5 0.18359,-0.01 0.41329,-0.049 0.83533,-0.25341 1.26367,-0.61133 0.005,-0.003 0.004,-0.007 0.01,-0.01 0.49321,-0.44054 0.91317,-0.95677 1.24414,-1.5293 0,-0.003 0.002,-0.009 0.002,-0.0117 0.30012,-0.57624 0.19863,-1.12393 -0.24219,-1.49609 -0.003,0 -0.92899,-0.77122 -1.38085,-1.10352 -0.47859,-0.34085 -0.97394,-0.65752 -1.48419,-0.94884 -0.68092,-0.37935 -1.37593,-0.14021 -1.66406,0.23243 l -0.59766,0.75 c -0.30636,0.37742 -0.875,0.33008 -0.875,0.33007 -4.15902,-1.06171 -5.27148,-5.27343 -5.27148,-5.27343 0,0 -0.0493,-0.57059 0.33008,-0.87696 l 0.75195,-0.59765 c 0.37263,-0.28716 0.60983,-0.98361 0.23047,-1.66406 -0.29144,-0.51032 -0.60824,-1.00574 -0.94922,-1.48438 -0.33086,-0.45187 -1.10052,-1.37786 -1.10352,-1.38086 -0.18584,-0.21921 -0.41481,-0.35375 -0.66992,-0.39648 z m 5.96289,1.1738 c -0.2024,0.0125 -0.36436,0.17274 -0.37891,0.375 -0.0165,0.22269 0.15039,0.41669 0.37305,0.4336 1.54536,0.1131 2.69064,0.61793 3.52735,1.53125 0.83898,0.91678 1.23915,2.03152 1.20898,3.42578 -0.005,0.22395 0.17252,0.40951 0.39648,0.41406 0.22319,0.004 0.40755,-0.1733 0.41211,-0.39648 0.0338,-1.56378 -0.4425,-2.92024 -1.41992,-3.98828 0,-6.7e-4 0,-0.001 0,-0.002 -0.98808,-1.07856 -2.36845,-1.66882 -4.06445,-1.79297 -0.0182,-0.001 -0.0365,-0.001 -0.0547,0 z m 0.60739,2.1719 c -0.2036,0.0158 -0.36354,0.18078 -0.37304,0.38477 -0.0108,0.22255 0.16031,0.41197 0.38281,0.42382 0.69768,0.0364 1.1678,0.23316 1.48633,0.5625 0.31853,0.32934 0.51462,0.82571 0.55078,1.55469 0.0108,0.22328 0.20055,0.39553 0.42383,0.38477 0.22328,-0.0108 0.39552,-0.20055 0.38476,-0.42383 -0.0426,-0.85856 -0.28945,-1.57368 -0.77734,-2.07813 -0.48789,-0.50444 -1.189,-0.76496 -2.02539,-0.80859 -0.0175,-0.001 -0.0351,-0.001 -0.0527,0 z"
         sodipodi:nodetypes="scsccccscccccsssccccccccccscsscccscccscscccccccccssccccccccccccccccccccccccccsscccccccccsssccscscscss" />
      <path
         id="path3078"
         style="color:#000000;font-style:normal;font-variant:normal;font-weight:normal;font-stretch:normal;line-height:normal;font-family:sans-serif;-inkscape-font-specification:sans-serif;text-indent:0;text-align:start;text-decoration:none;text-decoration-line:none;letter-spacing:normal;word-spacing:normal;text-transform:none;writing-mode:lr-tb;direction:ltr;baseline-shift:baseline;text-anchor:start;display:inline;overflow:visible;visibility:visible;fill:#ffffff;fill-opacity:1;fill-rule:nonzero;stroke:none;stroke-width:8;marker:none;enable-background:new"
         d="M 142.94858,81.004312 C 132.60246,80.919012 103.54416,82.0394 87.872406,96.414468 77.135415,107.15371 73.358705,122.86813 72.960295,142.35002 c -0.39842,19.48189 -0.91416,55.99098 34.279295,65.89062 h 0.0332 l -0.0234,15.10743 c 0,0 -0.2242,6.1143 3.80274,7.36132 4.87103,1.51263 7.73041,-3.13394 12.38086,-8.14453 2.55256,-2.75065 6.07631,-6.79257 8.73242,-9.88086 24.06931,2.02584 42.58121,-2.60282 44.68359,-3.28711 4.85979,-1.57566 32.35941,-5.09942 36.83203,-41.60742 4.61668,-37.62898 -2.2334,-61.43021 -14.61133,-72.158205 -3.72755,-3.439437 -18.78927,-14.374875 -52.34179,-14.523437 0,0 -1.39173,-0.08383 -3.7793,-0.103516 z m -2.34571,10.580078 c 3.40575,-0.02388 5.50586,0.115235 5.50586,0.115235 28.38211,0.123801 41.9812,8.670005 45.13477,11.533205 10.47137,8.9655 15.80713,30.41972 11.90625,61.84961 v 0.008 c -3.77483,30.48224 -26.07894,32.39775 -30.19141,33.7168 -1.74898,0.56273 -18.00783,4.60824 -38.45312,3.27344 0,0 -15.23565,18.37946 -19.99414,23.1582 -0.74281,0.74731 -1.61623,1.04895 -2.19922,0.90039 -0.81934,-0.20033 -1.04416,-1.17175 -1.03516,-2.58984 0.0135,-2.02585 0.13086,-25.10156 0.13086,-25.10156 -29.770938,-8.26546 -28.034905,-39.33928 -27.697264,-55.61133 0.337641,-16.27205 3.394315,-29.60286 12.47461,-38.56836 12.236114,-11.083074 34.200734,-12.611957 44.417964,-12.6836 z m 2.38477,16.26563 c -1.04717,-0.007 -1.90205,0.83565 -1.91016,1.88281 -0.008,1.04869 0.83607,1.90508 1.88477,1.91211 10.14533,0.0707 18.40625,3.35572 25.16992,9.94922 6.70728,6.53853 10.12222,15.42189 10.21094,27.08203 0.008,1.04793 0.86418,1.89089 1.91211,1.88281 1.04793,-0.008 1.89089,-0.86418 1.88281,-1.91211 -0.0944,-12.4009 -3.86681,-22.46928 -11.35547,-29.76953 -7.43226,-7.24528 -16.82643,-10.95094 -27.79492,-11.02734 z m -25.6582,4.27148 c -0.93783,0.0138 -1.93044,0.27517 -2.94336,0.80274 -0.0157,0 -0.0431,0.0137 -0.0566,0.0137 -2.68651,1.54815 -5.10887,3.51491 -7.17578,5.82617 -0.0135,0.027 -0.0275,0.026 -0.041,0.0508 -1.6687,2.01384 -2.62364,3.98906 -2.86524,5.92188 -0.0497,0.28489 -0.0668,0.57453 -0.0508,0.86328 -0.009,0.85451 0.12082,1.70481 0.38477,2.51758 l 0.0918,0.0625 c 0.84185,2.98925 2.94893,7.96806 7.52734,16.26953 2.61837,4.80174 5.63825,9.37338 9.02734,13.66601 1.69864,2.15146 3.51934,4.20366 5.45313,6.14649 0.0698,0.0698 0.13725,0.13953 0.20703,0.20703 l 0.20703,0.20898 0.20703,0.20704 0.20703,0.20703 c 1.94283,1.93379 3.99503,3.75449 6.14649,5.45312 4.29297,3.38957 8.8653,6.40948 13.66797,9.02735 8.29922,4.57841 13.28283,6.68548 16.26758,7.52734 l 0.0625,0.0918 c 0.81255,0.26527 1.66285,0.39654 2.51757,0.38867 0.2889,0.0137 0.57843,-0.005 0.86329,-0.0547 1.9373,-0.22959 3.91012,-1.18363 5.91796,-2.86133 0.0248,-0.0135 0.0257,-0.0275 0.0527,-0.041 2.31117,-2.06751 4.2785,-4.48975 5.82812,-7.17578 0,-0.0135 0.01,-0.0389 0.01,-0.0547 1.40684,-2.70113 0.92965,-5.26333 -1.13672,-7.00781 -0.0135,0 -4.35061,-3.62009 -6.46875,-5.17774 -2.24344,-1.59624 -4.56535,-3.07921 -6.95703,-4.44336 -3.19183,-1.77824 -6.45217,-0.6647 -7.80273,1.08203 l -2.79883,3.52344 c -1.4361,1.76923 -4.10351,1.54492 -4.10351,1.54492 -19.4954,-4.97683 -24.71485,-24.72461 -24.71485,-24.72461 0,0 -0.23332,-2.66741 1.54492,-4.10351 l 3.52344,-2.80078 c 1.74673,-1.34606 2.86028,-4.6112 1.08203,-7.80078 -1.36392,-2.39434 -2.8469,-4.71886 -4.44336,-6.96485 -1.5509,-2.11813 -5.16423,-6.45525 -5.17773,-6.46875 -1.08889,-1.28444 -2.49751,-1.95272 -4.06055,-1.92969 z m 29.01367,5.57032 c -1.00355,-0.0124 -1.84322,0.75878 -1.91602,1.75976 -0.0767,1.04526 0.70864,1.95472 1.75391,2.03125 7.24386,0.53014 12.61121,2.90243 16.5332,7.1836 3.93283,4.29741 5.80357,9.5191 5.66211,16.05468 -0.0223,1.04801 0.8094,1.91557 1.85742,1.9375 1.04727,0.0223 1.91452,-0.80822 1.9375,-1.85547 0.15867,-7.3302 -2.07647,-13.69274 -6.6582,-18.69921 -4.63158,-5.05574 -11.1047,-7.82444 -19.05469,-8.40625 -0.0383,-0.003 -0.0768,-0.005 -0.11523,-0.006 z m 2.83789,10.18359 c -1.00265,0.01 -1.82484,0.79749 -1.87695,1.79883 -0.0548,1.04624 0.7487,1.93891 1.79492,1.99414 3.2704,0.17062 5.47173,1.09293 6.96484,2.63672 1.49311,1.54378 2.41057,3.87 2.58008,7.28711 0.0521,1.04614 0.9421,1.85217 1.98828,1.80078 1.04692,-0.0511 1.8541,-0.94137 1.80274,-1.98828 -0.19965,-4.0245 -1.35756,-7.37369 -3.64454,-9.73828 -2.28697,-2.3646 -5.57158,-3.58257 -9.49218,-3.78711 -0.039,-0.003 -0.0781,-0.004 -0.11719,-0.004 z"
         sodipodi:nodetypes="scsccccccccccsscccccccccccsccccccscscscccccccccccscccccccccccccccccccccccccccccccccccccccccccscccsccc" />
      <path
         id="path3082"
         style="color:#000000;font-style:normal;font-variant:normal;font-weight:normal;font-stretch:normal;line-height:normal;font-family:sans-serif;-inkscape-font-specification:sans-serif;text-indent:0;text-align:start;text-decoration:none;text-decoration-line:none;letter-spacing:normal;word-spacing:normal;text-transform:none;writing-mode:lr-tb;direction:ltr;baseline-shift:baseline;text-anchor:start;display:inline;overflow:visible;visibility:visible;fill:#ffffff;fill-opacity:1;fill-rule:nonzero;stroke:none;stroke-width:8;marker:none;enable-background:new"
         d="m 427.97044,105.00006 c -0.18388,-0.002 -0.33424,0.1462 -0.33594,0.33008 -0.002,0.18388 0.1462,0.33424 0.33008,0.33594 1.78133,0.0124 3.23235,0.59035 4.41992,1.74804 1.17768,1.14805 1.7774,2.70661 1.79297,4.75391 0.002,0.18388 0.15206,0.33162 0.33594,0.33008 0.18312,-0.002 0.33054,-0.15087 0.33008,-0.33399 -0.0166,-2.17736 -0.67927,-3.94672 -1.99414,-5.22851 -1.30497,-1.27214 -2.95305,-1.92213 -4.87891,-1.93555 z m -4.34375,0.76172 c -0.20996,-0.0352 -0.44255,0.005 -0.67969,0.1289 -0.003,0 -0.008,0.002 -0.01,0.002 -0.4717,0.27178 -0.89684,0.61767 -1.25977,1.02344 -0.002,0.005 -0.004,0.006 -0.006,0.01 -0.29301,0.35359 -0.4615,0.6997 -0.5039,1.03906 -0.009,0.0501 -0.0126,0.0996 -0.01,0.15039 -0.002,0.14998 0.0221,0.30071 0.0684,0.44336 l 0.0156,0.01 c 0.14781,0.52486 0.51838,1.39983 1.32227,2.85742 0.45981,0.84307 0.99081,1.64478 1.58594,2.39844 0.29817,0.3778 0.61757,0.7389 0.95703,1.08008 0.0123,0.0123 0.0229,0.0252 0.0352,0.0371 l 0.0371,0.0371 0.0371,0.0352 0.0352,0.0371 c 0.34118,0.33946 0.70228,0.65886 1.08008,0.95703 0.75375,0.59521 1.55714,1.12622 2.40039,1.58594 1.45718,0.80388 2.33141,1.1725 2.85547,1.32031 l 0.0117,0.0176 c 0.14263,0.0465 0.2914,0.0674 0.4414,0.0664 0.0508,0.003 0.10225,0.001 0.15235,-0.008 0.34016,-0.0403 0.68652,-0.20738 1.03906,-0.50195 0.004,-0.002 0.003,-0.006 0.008,-0.008 0.40577,-0.36303 0.75138,-0.78815 1.02344,-1.25977 0,-0.002 0.002,-0.007 0.002,-0.01 0.24702,-0.47426 0.16359,-0.92418 -0.19922,-1.23047 -0.002,0 -0.76482,-0.63666 -1.13672,-0.91016 -0.39394,-0.28027 -0.80073,-0.53977 -1.2207,-0.77929 -0.56043,-0.31222 -1.13201,-0.11724 -1.36914,0.18945 l -0.49219,0.61914 c -0.25215,0.31062 -0.7207,0.27148 -0.7207,0.27148 -3.42303,-0.87384 -4.33984,-4.34179 -4.33984,-4.34179 0,0 -0.0408,-0.46856 0.27148,-0.72071 l 0.61914,-0.49218 c 0.3067,-0.23634 0.50168,-0.80911 0.18945,-1.36914 -0.23948,-0.42037 -0.49898,-0.82833 -0.77929,-1.22266 -0.2723,-0.3719 -0.90816,-1.13472 -0.91016,-1.13672 -0.15295,-0.18042 -0.34082,-0.291 -0.55078,-0.32617 z m 4.9043,0.96679 c -0.1653,0.0118 -0.29679,0.14329 -0.3086,0.30859 -0.0139,0.18405 0.12449,0.34433 0.3086,0.35742 1.27187,0.0931 2.21372,0.50808 2.90234,1.25977 0.69052,0.75454 1.01897,1.67278 0.99414,2.82031 -0.004,0.18389 0.14228,0.33601 0.32617,0.33984 0.1839,0.004 0.33602,-0.14228 0.33985,-0.32617 0.0278,-1.28704 -0.36352,-2.40416 -1.16797,-3.2832 -0.81322,-0.88769 -1.94984,-1.37441 -3.3457,-1.47656 -0.0162,-0.001 -0.0326,-0.001 -0.0488,0 z m 0.49804,1.78906 c -0.16432,0.0158 -0.29226,0.14959 -0.30078,0.31445 -0.009,0.18324 0.13126,0.33954 0.31446,0.34961 0.57422,0.03 0.96049,0.19183 1.22265,0.46289 0.26216,0.27106 0.42337,0.67932 0.45313,1.2793 0.009,0.18398 0.16565,0.32571 0.34961,0.3164 0.18317,-0.009 0.32459,-0.16444 0.3164,-0.34765 -0.035,-0.70663 -0.23712,-1.29576 -0.63867,-1.71094 -0.40155,-0.41518 -0.97958,-0.62815 -1.66797,-0.66406 -0.0162,-10e-4 -0.0326,-10e-4 -0.0488,0 z"
         sodipodi:nodetypes="cccscccsccccccccccccsccccccccccccccccccccccccccccscccccccssssccssccscss" />
      <path
         id="path3084"
         style="color:#000000;font-style:normal;font-variant:normal;font-weight:normal;font-stretch:normal;line-height:normal;font-family:sans-serif;-inkscape-font-specification:sans-serif;text-indent:0;text-align:start;text-decoration:none;text-decoration-line:none;letter-spacing:normal;word-spacing:normal;text-transform:none;writing-mode:lr-tb;direction:ltr;baseline-shift:baseline;text-anchor:start;display:inline;overflow:visible;visibility:visible;fill:#ffffff;fill-opacity:1;fill-rule:nonzero;stroke:none;stroke-width:8.00032;marker:none;enable-background:new"
         d="m 431.95593,58.000029 c -0.26335,-0.0025 -0.47866,0.209321 -0.48049,0.472675 -10e-4,0.262589 0.21009,0.476717 0.47268,0.478536 2.54487,0.01772 4.61811,0.842276 6.31471,2.496195 1.68249,1.640128 2.53842,3.868407 2.56065,6.793243 0.002,0.263354 0.21714,0.475177 0.48049,0.472676 0.26335,-0.0018 0.47517,-0.217144 0.47267,-0.480488 -0.0236,-3.110653 -0.97121,-5.635902 -2.84972,-7.4671 -1.86431,-1.817411 -4.21964,-2.746574 -6.97099,-2.765737 z m -6.20728,1.087935 c -0.29996,-0.05025 -0.63001,0.0091 -0.96879,0.185555 -0.004,0 -0.0107,0.0039 -0.0137,0.0039 -0.67346,0.388298 -1.28072,0.881486 -1.7989,1.460996 -0.003,0.0068 -0.009,0.0055 -0.0117,0.01172 -0.41858,0.505154 -0.65818,1.001562 -0.71878,1.486389 -0.0122,0.07158 -0.0161,0.144328 -0.0117,0.216805 -0.002,0.214091 0.0298,0.427163 0.0957,0.630885 l 0.0234,0.01563 c 0.21117,0.749825 0.7403,1.997897 1.88876,4.080244 0.65659,1.204408 1.41388,2.35112 2.26376,3.427873 0.42585,0.540081 0.88235,1.055272 1.36724,1.543031 0.0175,0.0175 0.0352,0.03384 0.0527,0.05078 l 0.0508,0.05273 0.0527,0.05273 0.0527,0.05273 c 0.48713,0.484839 1.00166,0.941335 1.54107,1.367242 1.07668,0.849986 2.22341,1.607278 3.42788,2.263764 2.08178,1.148452 3.33349,1.677578 4.08219,1.888749 l 0.0156,0.02344 c 0.20372,0.06586 0.4168,0.09819 0.63089,0.0957 0.0725,0.0035 0.14526,-0.0011 0.2168,-0.01367 0.48596,-0.05759 0.98079,-0.29599 1.48444,-0.716826 0.006,-0.0034 0.005,-0.0064 0.0117,-0.0098 0.58017,-0.518803 1.074,-1.126702 1.46295,-1.800854 0,-0.0034 0.002,-0.0097 0.002,-0.01367 0.35288,-0.677553 0.23316,-1.320298 -0.28517,-1.757883 -0.003,0 -1.08985,-0.908159 -1.62116,-1.298881 -0.56311,-0.400005 -1.14589,-0.771578 -1.74616,-1.113326 -0.80064,-0.446057 -1.61834,-0.166656 -1.95712,0.271495 l -0.7012,0.882848 c -0.36023,0.443797 -1.02933,0.386734 -1.02933,0.386734 -4.89024,-1.24839 -6.19947,-6.201423 -6.19947,-6.201423 0,0 -0.0593,-0.669107 0.38674,-1.029339 l 0.88479,-0.7012 c 0.43815,-0.337645 0.71756,-1.157033 0.2715,-1.95711 -0.34232,-0.60097 -0.71456,-1.184407 -1.11528,-1.748118 -0.38904,-0.531315 -1.29589,-1.619714 -1.29889,-1.623112 -0.2185,-0.257753 -0.48912,-0.416565 -0.78909,-0.466816 z m 7.01982,1.380915 c -0.24112,0.01096 -0.43587,0.200673 -0.45314,0.441424 -0.0194,0.262829 0.17853,0.491362 0.44142,0.509787 1.81705,0.132981 3.16286,0.728917 4.14665,1.802807 0.98573,1.077721 1.45547,2.386817 1.41998,4.025554 -0.006,0.263362 0.20344,0.48134 0.46682,0.486348 0.26261,0.0058 0.48027,-0.202259 0.48634,-0.464863 0.0398,-1.838719 -0.52263,-3.43577 -1.67194,-4.691596 -1.16178,-1.268185 -2.78531,-1.961564 -4.77949,-2.107508 -0.0188,-0.0018 -0.0377,-0.0025 -0.0566,-0.002 z m 0.71097,2.554792 c -0.24005,0.01717 -0.42951,0.210824 -0.44143,0.451189 -0.0136,0.262719 0.18846,0.486671 0.45119,0.50002 0.82035,0.0428 1.37163,0.274893 1.74617,0.662137 0.37452,0.387244 0.60399,0.969095 0.6465,1.826246 0.0123,0.263511 0.23657,0.466754 0.50002,0.453143 0.26274,-0.01334 0.46482,-0.237297 0.4512,-0.50002 -0.0501,-1.009508 -0.34044,-1.848368 -0.9141,-2.441506 -0.57367,-0.593137 -1.39751,-0.899903 -2.38096,-0.951209 -0.0195,-0.0012 -0.0391,-0.0012 -0.0586,0 z"
         sodipodi:nodetypes="cccscccsccccccccccccsccccccccccccccccccccccccccccscccsccccsssccscccscss" />
      <path
         id="path3086"
         style="color:#000000;font-style:normal;font-variant:normal;font-weight:normal;font-stretch:normal;line-height:normal;font-family:sans-serif;-inkscape-font-specification:sans-serif;text-indent:0;text-align:start;text-decoration:none;text-decoration-line:none;letter-spacing:normal;word-spacing:normal;text-transform:none;writing-mode:lr-tb;direction:ltr;baseline-shift:baseline;text-anchor:start;display:inline;overflow:visible;visibility:visible;fill:#ffffff;fill-opacity:1;fill-rule:nonzero;stroke:none;stroke-width:7.99952;marker:none;enable-background:new"
         d="m 423.97715,142.99999 c -0.1309,-1.7e-4 -0.23736,0.10542 -0.23827,0.23632 -10e-4,0.13166 0.10466,0.2393 0.23632,0.24021 1.2723,0.009 2.30784,0.4211 3.15606,1.24798 0.84116,0.81998 1.27006,1.934 1.28117,3.39627 0.002,0.13013 0.10811,0.23455 0.23827,0.23437 0.13089,-9.1e-4 0.23648,-0.10737 0.23631,-0.23827 -0.0118,-1.55517 -0.48459,-2.81865 -1.42374,-3.73415 -0.93207,-0.90862 -2.11059,-1.37315 -3.48612,-1.38273 z m -3.10138,0.54294 c -0.14996,-0.0251 -0.31497,0.004 -0.48434,0.0918 -0.002,0 -0.006,0.002 -0.008,0.002 -0.33719,0.19464 -0.64113,0.44188 -0.90033,0.73238 -0.002,0.004 -0.002,0.003 -0.004,0.006 -0.20924,0.25254 -0.32902,0.49975 -0.35936,0.74214 -0.006,0.0361 -0.008,0.0728 -0.006,0.10937 -0.001,0.10665 0.0144,0.21284 0.0469,0.31444 l 0.0117,0.008 c 0.10558,0.37487 0.37108,0.99982 0.94525,2.04088 0.3279,0.60245 0.70618,1.17608 1.13079,1.71475 0.2136,0.26939 0.44247,0.52632 0.68551,0.76948 0.009,0.009 0.0164,0.0193 0.0254,0.0273 l 0.0254,0.0254 0.0254,0.0274 0.0273,0.0254 c 0.24386,0.24242 0.50143,0.47065 0.77145,0.68355 0.53794,0.42524 1.11091,0.80417 1.71278,1.13274 1.04079,0.57417 1.66658,0.83773 2.04089,0.9433 l 0.008,0.0117 c 0.10149,0.0332 0.20768,0.0496 0.31444,0.0488 0.0366,0.001 0.0733,-0.001 0.10937,-0.008 0.24296,-0.0288 0.49035,-0.14896 0.74214,-0.35936 l 0.006,-0.004 c 0.28971,-0.25945 0.53627,-0.56337 0.73043,-0.90034 0,-0.002 0.002,-0.004 0.002,-0.006 0.17643,-0.33874 0.11656,-0.6601 -0.14257,-0.87886 -0.002,0 -0.54682,-0.45501 -0.81246,-0.65035 -0.28089,-0.19993 -0.5716,-0.3857 -0.87103,-0.55661 -0.40029,-0.22301 -0.80909,-0.0843 -0.97846,0.13475 l -0.35154,0.44334 c -0.1801,0.22184 -0.51559,0.19334 -0.51559,0.19334 v -0.002 c -2.44488,-0.62413 -3.09943,-3.09942 -3.09943,-3.09942 0,0 -0.0277,-0.33549 0.1953,-0.51559 l 0.44139,-0.35155 c 0.21907,-0.16881 0.35775,-0.57845 0.13475,-0.97845 -0.17086,-0.3001 -0.35663,-0.59146 -0.55661,-0.873 -0.1945,-0.26563 -0.64835,-0.8085 -0.65035,-0.8105 -0.10924,-0.12886 -0.2426,-0.20923 -0.39256,-0.23435 z m 3.49589,0.69139 c -0.11521,0.012 -0.20508,0.10512 -0.21287,0.22068 -0.009,0.13032 0.0885,0.24365 0.21872,0.25389 0.90846,0.0665 1.58225,0.3654 2.0741,0.90229 0.49319,0.53893 0.72861,1.19394 0.7109,2.01355 -0.002,0.13091 0.1015,0.23914 0.2324,0.24218 0.13091,0.002 0.23914,-0.10151 0.24218,-0.23241 0.0199,-0.91926 -0.25938,-1.71772 -0.83393,-2.34557 -0.58085,-0.63403 -1.3935,-0.98165 -2.39049,-1.05461 -0.0136,-0.001 -0.0274,-0.001 -0.041,0 z m 0.39646,1.27726 c -0.13098,-0.007 -0.2428,0.0936 -0.24999,0.2246 -0.007,0.13171 0.0948,0.24383 0.22655,0.24998 0.41016,0.0214 0.68575,0.13841 0.873,0.33201 0.18725,0.1936 0.30295,0.48548 0.3242,0.91401 0.007,0.13016 0.11778,0.2303 0.24802,0.22459 0.13095,-0.006 0.23225,-0.11706 0.22656,-0.24803 -0.025,-0.5047 -0.1702,-0.92604 -0.457,-1.22258 -0.28681,-0.29654 -0.69965,-0.44893 -1.19134,-0.47458 z"
         sodipodi:nodetypes="cccscccsccccccccccccscccccccccccccccccccccccccccccsccccccccsssccscccss" />
    </g>
    <g
       inkscape:groupmode="layer"
       id="layer5"
       inkscape:label="Highlights"
       style="display:inline"
       sodipodi:insensitive="true">
      <path
         style="color:#bebebe;display:inline;overflow:visible;visibility:visible;opacity:0.13;fill:#ffffff;fill-opacity:1;fill-rule:nonzero;stroke:none;stroke-width:0;marker:none;enable-background:accumulate"
         d="M 84,47 C 56.836703,47 35,68.836703 35,96 v 1 C 35,69.836703 56.836703,48 84,48 h 120 c 27.1633,0 49,21.836703 49,49 V 96 C 253,68.836703 231.1633,47 204,47 Z"
         id="rect3894"
         inkscape:connector-curvature="0" />
      <path
         style="color:#bebebe;display:inline;overflow:visible;visibility:visible;opacity:0.13;fill:#ffffff;fill-opacity:1;fill-rule:nonzero;stroke:none;stroke-width:0;marker:none;enable-background:accumulate"
         d="m 419,141 c -1.1253,0 -2,0.8747 -2,2 v 1 c 0,-1.1253 0.8747,-2 2,-2 h 10 c 1.1253,0 2,0.8747 2,2 v -1 c 0,-1.1253 -0.8747,-2 -2,-2 z"
         id="rect3896"
         inkscape:connector-curvature="0" />
      <path
         style="color:#bebebe;display:inline;overflow:visible;visibility:visible;opacity:0.13;fill:#ffffff;fill-opacity:1;fill-rule:nonzero;stroke:none;stroke-width:0;marker:none;enable-background:accumulate"
         d="m 422,102 c -2.2333,0 -4,1.7667 -4,4 v 1 c 0,-2.2333 1.7667,-4 4,-4 h 12 c 2.2333,0 4,1.7667 4,4 v -1 c 0,-2.2333 -1.7667,-4 -4,-4 z"
         id="rect3898"
         inkscape:connector-curvature="0" />
      <path
         style="color:#bebebe;display:inline;overflow:visible;visibility:visible;opacity:0.13;fill:#ffffff;fill-opacity:1;fill-rule:nonzero;stroke:none;stroke-width:0;marker:none;enable-background:accumulate"
         d="m 424,54 c -3.3413,0 -6,2.658703 -6,6 v 1 c 0,-3.341297 2.6587,-6 6,-6 h 16 c 3.3413,0 6,2.658703 6,6 v -1 c 0,-3.341297 -2.6587,-6 -6,-6 z"
         id="rect3900"
         inkscape:connector-curvature="0" />
      <path
         style="color:#bebebe;display:inline;overflow:visible;visibility:visible;opacity:0.13;fill:#ffffff;fill-opacity:1;fill-rule:nonzero;stroke:none;stroke-width:0;marker:none;enable-background:accumulate"
         d="m 300,224 c -4.4493,0 -8,3.5507 -8,8 v 1 c 0,-4.4493 3.5507,-8 8,-8 h 24 c 4.4493,0 8,3.5507 8,8 v -1 c 0,-4.4493 -3.5507,-8 -8,-8 z"
         id="rect3902"
         inkscape:connector-curvature="0" />
      <path
         style="color:#bebebe;display:inline;overflow:visible;visibility:visible;opacity:0.13;fill:#ffffff;fill-opacity:1;fill-rule:nonzero;stroke:none;stroke-width:0;marker:none;enable-background:accumulate"
         d="m 310,33 c -9.4353,0 -17,7.564703 -17,17 v 1 c 0,-9.435297 7.5647,-17 17,-17 h 52 c 9.4353,0 17,7.564703 17,17 v -1 c 0,-9.435297 -7.5647,-17 -17,-17 z"
         id="rect3904"
         inkscape:connector-curvature="0" />
      <path
         style="color:#bebebe;display:inline;overflow:visible;visibility:visible;opacity:0.13;fill:#ffffff;fill-opacity:1;fill-rule:nonzero;stroke:none;stroke-width:0;marker:none;enable-background:accumulate"
         d="m 302.5,143 c -6.3883,0 -11.5,5.1117 -11.5,11.5 v 1 c 0,-6.3883 5.1117,-11.5 11.5,-11.5 h 35 c 6.3883,0 11.5,5.1117 11.5,11.5 v -1 c 0,-6.3883 -5.1117,-11.5 -11.5,-11.5 z"
         id="rect3906"
         inkscape:connector-curvature="0" />
      <path
         id="path4085"
         d="m 204,266 c 27.1633,0 49,-21.8367 49,-49 v -1 c 0,27.1633 -21.8367,49 -49,49 H 84 C 56.8367,265 35,243.1633 35,216 v 1 c 0,27.1633 21.8367,49 49,49 z"
         style="color:#bebebe;display:inline;overflow:visible;visibility:visible;opacity:0.5;fill:#000000;fill-opacity:1;fill-rule:nonzero;stroke:none;stroke-width:0;marker:none;enable-background:accumulate"
         inkscape:connector-curvature="0" />
      <path
         id="path4087"
         d="m 429,156 c 1.1253,0 2,-0.8747 2,-2 v -1 c 0,1.1253 -0.8747,2 -2,2 h -10 c -1.1253,0 -2,-0.8747 -2,-2 v 1 c 0,1.1253 0.8747,2 2,2 z"
         style="color:#bebebe;display:inline;overflow:visible;visibility:visible;opacity:0.3;fill:#000000;fill-opacity:1;fill-rule:nonzero;stroke:none;stroke-width:0;marker:none;enable-background:accumulate"
         inkscape:connector-curvature="0" />
      <path
         id="path4089"
         d="m 434,123 c 2.2333,0 4,-1.7667 4,-4 v -1 c 0,2.2333 -1.7667,4 -4,4 h -12 c -2.2333,0 -4,-1.7667 -4,-4 v 1 c 0,2.2333 1.7667,4 4,4 z"
         style="color:#bebebe;display:inline;overflow:visible;visibility:visible;opacity:0.3;fill:#000000;fill-opacity:1;fill-rule:nonzero;stroke:none;stroke-width:0;marker:none;enable-background:accumulate"
         inkscape:connector-curvature="0" />
      <path
         id="path4091"
         d="m 440,83 c 3.3413,0 6,-2.6587 6,-6 v -1 c 0,3.3413 -2.6587,6 -6,6 h -16 c -3.3413,0 -6,-2.6587 -6,-6 v 1 c 0,3.3413 2.6587,6 6,6 z"
         style="color:#bebebe;display:inline;overflow:visible;visibility:visible;opacity:0.5;fill:#000000;fill-opacity:1;fill-rule:nonzero;stroke:none;stroke-width:0;marker:none;enable-background:accumulate"
         inkscape:connector-curvature="0" />
      <path
         id="path4093"
         d="m 324,265 c 4.4493,0 8,-3.5507 8,-8 v -1 c 0,4.4493 -3.5507,8 -8,8 h -24 c -4.4493,0 -8,-3.5507 -8,-8 v 1 c 0,4.4493 3.5507,8 8,8 z"
         style="color:#bebebe;display:inline;overflow:visible;visibility:visible;opacity:0.5;fill:#000000;fill-opacity:1;fill-rule:nonzero;stroke:none;stroke-width:0;marker:none;enable-background:accumulate"
         inkscape:connector-curvature="0" />
      <path
         id="path4095"
         d="m 362,120 c 9.4353,0 17,-7.5647 17,-17 v -1 c 0,9.4353 -7.5647,17 -17,17 h -52 c -9.4353,0 -17,-7.5647 -17,-17 v 1 c 0,9.4353 7.5647,17 17,17 z"
         style="color:#bebebe;display:inline;overflow:visible;visibility:visible;opacity:0.5;fill:#000000;fill-opacity:1;fill-rule:nonzero;stroke:none;stroke-width:0;marker:none;enable-background:accumulate"
         inkscape:connector-curvature="0" />
      <path
         id="path4097"
         d="m 337.5,202 c 6.3883,0 11.5,-5.1117 11.5,-11.5 v -1 c 0,6.3883 -5.1117,11.5 -11.5,11.5 h -35 c -6.3883,0 -11.5,-5.1117 -11.5,-11.5 v 1 c 0,6.3883 5.1117,11.5 11.5,11.5 z"
         style="color:#bebebe;display:inline;overflow:visible;visibility:visible;opacity:0.5;fill:#000000;fill-opacity:1;fill-rule:nonzero;stroke:none;stroke-width:0;marker:none;enable-background:accumulate"
         inkscape:connector-curvature="0" />
      <path
         inkscape:connector-curvature="0"
         id="path4280"
         d="M 84,265 C 56.836703,265 35,243.1633 35,216 v -1 c 0,27.1633 21.836703,49 49,49 h 120 c 27.1633,0 49,-21.8367 49,-49 v 1 c 0,27.1633 -21.8367,49 -49,49 z"
         style="color:#bebebe;display:inline;overflow:visible;visibility:visible;opacity:0.1;fill:#ffffff;fill-opacity:1;fill-rule:nonzero;stroke:none;stroke-width:0;marker:none;enable-background:accumulate" />
      <path
         style="color:#bebebe;display:inline;overflow:visible;visibility:visible;opacity:0.1;fill:#ffffff;fill-opacity:1;fill-rule:nonzero;stroke:none;stroke-width:0;marker:none;enable-background:accumulate"
         d="m 300,264 c -4.4493,0 -8,-3.5507 -8,-8 v -1 c 0,4.4493 3.5507,8 8,8 h 24 c 4.4493,0 8,-3.5507 8,-8 v 1 c 0,4.4493 -3.5507,8 -8,8 z"
         id="path4294"
         inkscape:connector-curvature="0" />
      <path
         style="color:#bebebe;display:inline;overflow:visible;visibility:visible;opacity:0.1;fill:#ffffff;fill-opacity:1;fill-rule:nonzero;stroke:none;stroke-width:0;marker:none;enable-background:accumulate"
         d="m 302.5,201 c -6.3883,0 -11.5,-5.1117 -11.5,-11.5 v -1 c 0,6.3883 5.1117,11.5 11.5,11.5 h 35 c 6.3883,0 11.5,-5.1117 11.5,-11.5 v 1 c 0,6.3883 -5.1117,11.5 -11.5,11.5 z"
         id="path4296"
         inkscape:connector-curvature="0" />
      <path
         style="color:#bebebe;display:inline;overflow:visible;visibility:visible;opacity:0.1;fill:#ffffff;fill-opacity:1;fill-rule:nonzero;stroke:none;stroke-width:0;marker:none;enable-background:accumulate"
         d="m 310,119 c -9.4353,0 -17,-7.5647 -17,-17 v -1 c 0,9.4353 7.5647,17 17,17 h 52 c 9.4353,0 17,-7.5647 17,-17 v 1 c 0,9.4353 -7.5647,17 -17,17 z"
         id="path4298"
         inkscape:connector-curvature="0" />
      <path
         style="color:#bebebe;display:inline;overflow:visible;visibility:visible;opacity:0.1;fill:#ffffff;fill-opacity:1;fill-rule:nonzero;stroke:none;stroke-width:0;marker:none;enable-background:accumulate"
         d="m 424,82 c -3.3413,0 -6,-2.658703 -6,-6 v -1 c 0,3.341297 2.6587,6 6,6 h 16 c 3.3413,0 6,-2.658703 6,-6 v 1 c 0,3.341297 -2.6587,6 -6,6 z"
         id="path4300"
         inkscape:connector-curvature="0" />
      <path
         style="color:#bebebe;display:inline;overflow:visible;visibility:visible;opacity:0.1;fill:#ffffff;fill-opacity:1;fill-rule:nonzero;stroke:none;stroke-width:0;marker:none;enable-background:accumulate"
         d="m 422,122 c -2.2333,0 -4,-1.7667 -4,-4 v -1 c 0,2.2333 1.7667,4 4,4 h 12 c 2.2333,0 4,-1.7667 4,-4 v 1 c 0,2.2333 -1.7667,4 -4,4 z"
         id="path4302"
         inkscape:connector-curvature="0" />
      <path
         style="color:#bebebe;display:inline;overflow:visible;visibility:visible;opacity:0.1;fill:#ffffff;fill-opacity:1;fill-rule:nonzero;stroke:none;stroke-width:0;marker:none;enable-background:accumulate"
         d="m 419,154.5 c -1.1253,0 -2,-0.8747 -2,-2 v -1 c 0,1.1253 0.8747,2 2,2 h 10 c 1.1253,0 2,-0.8747 2,-2 v 1 c 0,1.1253 -0.8747,2 -2,2 z"
         id="path4304"
         inkscape:connector-curvature="0" />
    </g>
    <g
       inkscape:groupmode="layer"
       id="layer3"
       inkscape:label="Border"
       style="display:inline"
       sodipodi:insensitive="true">
      <path
         style="color:#bebebe;display:inline;overflow:visible;visibility:visible;opacity:0.41;fill:#000000;fill-opacity:1;fill-rule:nonzero;stroke:none;stroke-width:0;marker:none;enable-background:accumulate"
         d="m 422,101 c -2.77,0 -5,2.23 -5,5 v 12 c 0,2.77 2.23,5 5,5 h 12 c 2.77,0 5,-2.23 5,-5 v -12 c 0,-2.77 -2.23,-5 -5,-5 z m 0,1 h 12 c 2.2333,0 4,1.7667 4,4 v 12 c 0,2.2333 -1.7667,4 -4,4 h -12 c -2.2333,0 -4,-1.7667 -4,-4 v -12 c 0,-2.2333 1.7667,-4 4,-4 z"
         id="rect4099"
         inkscape:connector-curvature="0" />
      <path
         style="color:#bebebe;display:inline;overflow:visible;visibility:visible;opacity:0.41;fill:#000000;fill-opacity:1;fill-rule:nonzero;stroke:none;stroke-width:0;marker:none;enable-background:accumulate"
         d="m 424,53 c -3.878,0 -7,3.122 -7,7 v 16 c 0,3.878 3.122,7 7,7 h 16 c 3.878,0 7,-3.122 7,-7 V 60 c 0,-3.878 -3.122,-7 -7,-7 z m 0,1 h 16 c 3.3413,0 6,2.658703 6,6 v 16 c 0,3.341297 -2.6587,6 -6,6 h -16 c -3.3413,0 -6,-2.658703 -6,-6 V 60 c 0,-3.341297 2.6587,-6 6,-6 z"
         id="rect4151"
         inkscape:connector-curvature="0" />
      <path
         style="color:#bebebe;display:inline;overflow:visible;visibility:visible;opacity:0.41;fill:#000000;fill-opacity:1;fill-rule:nonzero;stroke:none;stroke-width:0;marker:none;enable-background:accumulate"
         d="m 419,140 c -1.662,0 -3,1.338 -3,3 v 10 c 0,1.662 1.338,3 3,3 h 10 c 1.662,0 3,-1.338 3,-3 v -10 c 0,-1.662 -1.338,-3 -3,-3 z m 0,1 h 10 c 1.1253,0 2,0.8747 2,2 v 10 c 0,1.1253 -0.8747,2 -2,2 h -10 c -1.1253,0 -2,-0.8747 -2,-2 v -10 c 0,-1.1253 0.8747,-2 2,-2 z"
         id="rect4095"
         inkscape:connector-curvature="0" />
      <path
         style="color:#bebebe;display:inline;overflow:visible;visibility:visible;opacity:0.41;fill:#000000;fill-opacity:1;fill-rule:nonzero;stroke:none;stroke-width:0;marker:none;enable-background:accumulate"
         d="m 300,223 c -4.986,0 -9,4.014 -9,9 v 24 c 0,4.986 4.014,9 9,9 h 24 c 4.986,0 9,-4.014 9,-9 v -24 c 0,-4.986 -4.014,-9 -9,-9 z m 0,1 h 24 c 4.4493,0 8,3.5507 8,8 v 24 c 0,4.4493 -3.5507,8 -8,8 h -24 c -4.4493,0 -8,-3.5507 -8,-8 v -24 c 0,-4.4493 3.5507,-8 8,-8 z"
         id="rect4783"
         inkscape:connector-curvature="0" />
      <path
         style="color:#bebebe;display:inline;overflow:visible;visibility:visible;opacity:0.41;fill:#000000;fill-opacity:1;fill-rule:nonzero;stroke:none;stroke-width:0;marker:none;enable-background:accumulate"
         d="m 302.5,142 c -6.925,0 -12.5,5.575 -12.5,12.5 v 35 c 0,6.925 5.575,12.5 12.5,12.5 h 35 c 6.925,0 12.5,-5.575 12.5,-12.5 v -35 c 0,-6.925 -5.575,-12.5 -12.5,-12.5 z m 0,1 h 35 c 6.3883,0 11.5,5.1117 11.5,11.5 v 35 c 0,6.3883 -5.1117,11.5 -11.5,11.5 h -35 c -6.3883,0 -11.5,-5.1117 -11.5,-11.5 v -35 c 0,-6.3883 5.1117,-11.5 11.5,-11.5 z"
         id="rect4515"
         inkscape:connector-curvature="0" />
      <path
         style="color:#bebebe;display:inline;overflow:visible;visibility:visible;opacity:0.41;fill:#000000;fill-opacity:1;fill-rule:nonzero;stroke:none;stroke-width:0;marker:none;enable-background:accumulate"
         d="m 310,32 c -9.972,0 -18,8.028 -18,18 v 52 c 0,9.972 8.028,18 18,18 h 52 c 9.972,0 18,-8.028 18,-18 V 50 c 0,-9.972 -8.028,-18 -18,-18 z m 0,1 h 52 c 9.4353,0 17,7.564703 17,17 v 52 c 0,9.4353 -7.5647,17 -17,17 h -52 c -9.4353,0 -17,-7.5647 -17,-17 V 50 c 0,-9.435297 7.5647,-17 17,-17 z"
         id="rect4511"
         inkscape:connector-curvature="0" />
      <path
         style="color:#bebebe;display:inline;overflow:visible;visibility:visible;opacity:0.41;fill:#000000;fill-opacity:1;fill-rule:nonzero;stroke:none;stroke-width:0;marker:none;enable-background:accumulate"
         d="M 84,46 C 56.3,46 34,68.3 34,96 v 120 c 0,27.7 22.3,50 50,50 h 120 c 27.7,0 50,-22.3 50,-50 V 96 C 254,68.3 231.7,46 204,46 Z m 0,1 h 120 c 27.1633,0 49,21.836703 49,49 v 120 c 0,27.1633 -21.8367,49 -49,49 H 84 C 56.836703,265 35,243.1633 35,216 V 96 C 35,68.836703 56.836703,47 84,47 Z"
         id="rect4040"
         inkscape:connector-curvature="0" />
    </g>
  </g>
</svg>
