<?xml version="1.0" encoding="UTF-8" standalone="no"?>
<!-- Created with Inkscape (http://www.inkscape.org/) -->

<svg
   inkscape:export-ydpi="90.000000"
   inkscape:export-xdpi="90.000000"
   width="480"
   height="300"
   id="svg11300"
   sodipodi:version="0.32"
   inkscape:version="1.2.2 (b0a8486541, 2022-12-01)"
   sodipodi:docname="web-rumble.svg"
   inkscape:output_extension="org.inkscape.output.svg.inkscape"
   version="1.0"
   style="display:inline;enable-background:new"
   inkscape:export-filename="/home/sam/moka-next-template.png"
   xmlns:inkscape="http://www.inkscape.org/namespaces/inkscape"
   xmlns:sodipodi="http://sodipodi.sourceforge.net/DTD/sodipodi-0.dtd"
   xmlns:xlink="http://www.w3.org/1999/xlink"
   xmlns="http://www.w3.org/2000/svg"
   xmlns:svg="http://www.w3.org/2000/svg"
   xmlns:rdf="http://www.w3.org/1999/02/22-rdf-syntax-ns#"
   xmlns:cc="http://creativecommons.org/ns#"
   xmlns:dc="http://purl.org/dc/elements/1.1/">
  <sodipodi:namedview
     stroke="#ef2929"
     fill="#f57900"
     id="base"
     pagecolor="#777777"
     bordercolor="#666666"
     borderopacity="0.25490196"
     inkscape:pageopacity="0"
     inkscape:pageshadow="2"
     inkscape:zoom="1"
     inkscape:cx="197.5"
     inkscape:cy="147"
     inkscape:current-layer="layer6"
     showgrid="false"
     inkscape:grid-bbox="true"
     inkscape:document-units="px"
     inkscape:showpageshadow="false"
     inkscape:window-width="1920"
     inkscape:window-height="1008"
     inkscape:window-x="0"
     inkscape:window-y="0"
     width="400px"
     height="300px"
     inkscape:snap-nodes="true"
     inkscape:snap-bbox="true"
     gridtolerance="10000"
     inkscape:object-nodes="true"
     inkscape:snap-grids="true"
     showguides="true"
     inkscape:guide-bbox="true"
     inkscape:window-maximized="1"
     inkscape:bbox-nodes="true"
     inkscape:bbox-paths="true"
     inkscape:snap-bbox-edge-midpoints="true"
     inkscape:snap-bbox-midpoints="true"
     inkscape:pagecheckerboard="0"
     inkscape:deskcolor="#777777">
    <inkscape:grid
       spacingy="1px"
       spacingx="1px"
       id="grid5883"
       type="xygrid"
       enabled="true"
       visible="true"
       empspacing="4"
       snapvisiblegridlinesonly="true"
       dotted="false"
       color="#000000"
       opacity="0.1254902"
       empcolor="#203ef3"
       empopacity="0.36470588" />
    <inkscape:grid
       type="xygrid"
       id="grid11592"
       empspacing="8"
       visible="true"
       enabled="false"
       spacingx="0.5px"
       spacingy="0.5px"
       color="#ff0000"
       opacity="0.1254902"
       empcolor="#ff0000"
       empopacity="0.25098039"
       snapvisiblegridlinesonly="true"
       dotted="true" />
  </sodipodi:namedview>
  <defs
     id="defs3">
    <linearGradient
       inkscape:collect="always"
       xlink:href="#outerBackgroundGradient-4"
       id="linearGradient5146"
       gradientUnits="userSpaceOnUse"
       gradientTransform="matrix(0,-1,1,0,-12,300)"
       x1="35"
       y1="156"
       x2="253"
       y2="156" />
    <linearGradient
       inkscape:collect="always"
       xlink:href="#outerBackgroundGradient-4"
       id="linearGradient5148"
       gradientUnits="userSpaceOnUse"
       gradientTransform="matrix(0,-1,1,0,276,572)"
       x1="417"
       y1="148"
       x2="431"
       y2="148" />
    <linearGradient
       inkscape:collect="always"
       xlink:href="#outerBackgroundGradient-4"
       id="linearGradient5150"
       gradientUnits="userSpaceOnUse"
       gradientTransform="matrix(0,-1,1,0,316,540)"
       x1="418"
       y1="112"
       x2="438"
       y2="112" />
    <linearGradient
       inkscape:collect="always"
       xlink:href="#outerBackgroundGradient-4"
       id="linearGradient5152"
       gradientUnits="userSpaceOnUse"
       gradientTransform="matrix(0,-1,1,0,364,500)"
       x1="418"
       y1="68"
       x2="446"
       y2="68" />
    <linearGradient
       inkscape:collect="always"
       xlink:href="#outerBackgroundGradient-4"
       id="linearGradient5154"
       gradientUnits="userSpaceOnUse"
       gradientTransform="matrix(0,-1,1,0,68,556)"
       x1="292"
       y1="244"
       x2="332"
       y2="244" />
    <linearGradient
       inkscape:collect="always"
       xlink:href="#outerBackgroundGradient-4"
       id="linearGradient5156"
       gradientUnits="userSpaceOnUse"
       gradientTransform="matrix(0,-1,1,0,260,412)"
       x1="293"
       y1="76"
       x2="379"
       y2="76" />
    <linearGradient
       inkscape:collect="always"
       xlink:href="#outerBackgroundGradient-4"
       id="linearGradient5158"
       gradientUnits="userSpaceOnUse"
       gradientTransform="matrix(0,-1,1,0,148,492)"
       x1="291"
       y1="172"
       x2="349"
       y2="172" />
    <linearGradient
       id="outerBackgroundGradient-4">
      <stop
         style="stop-color:#78ac43;stop-opacity:1;"
         offset="0"
         id="stop3864-8-6-5" />
      <stop
         style="stop-color:#94d74b;stop-opacity:1;"
         offset="1"
         id="stop3866-9-1-5" />
    </linearGradient>
  </defs>
  <metadata
     id="metadata4">
    <rdf:RDF>
      <cc:Work
         rdf:about="">
        <dc:format>image/svg+xml</dc:format>
        <dc:type
           rdf:resource="http://purl.org/dc/dcmitype/StillImage" />
        <dc:creator>
          <cc:Agent>
            <dc:title>Sam Hewitt</dc:title>
          </cc:Agent>
        </dc:creator>
        <dc:source />
        <cc:license
           rdf:resource="" />
        <dc:subject>
          <rdf:Bag />
        </dc:subject>
        <dc:date />
        <dc:rights>
          <cc:Agent>
            <dc:title />
          </cc:Agent>
        </dc:rights>
        <dc:publisher>
          <cc:Agent>
            <dc:title />
          </cc:Agent>
        </dc:publisher>
        <dc:identifier />
        <dc:relation />
        <dc:language />
        <dc:coverage />
        <dc:description />
        <dc:contributor>
          <cc:Agent>
            <dc:title />
          </cc:Agent>
        </dc:contributor>
      </cc:Work>
      <cc:Work
         rdf:about="">
        <dc:format>image/svg+xml</dc:format>
        <dc:type
           rdf:resource="http://purl.org/dc/dcmitype/StillImage" />
      </cc:Work>
    </rdf:RDF>
  </metadata>
  <g
     style="display:inline"
     inkscape:groupmode="layer"
     inkscape:label="Icon"
     id="layer1">
    <g
       style="display:none"
       inkscape:label="Baseplate"
       id="layer7"
       inkscape:groupmode="layer">
      <text
         y="19.745117"
         xml:space="preserve"
         x="15.006836"
         style="font-style:normal;font-variant:normal;font-weight:normal;font-stretch:normal;line-height:0%;font-family:'DejaVu Sans';-inkscape-font-specification:'DejaVu Sans';display:inline;fill:#000000;fill-opacity:1;stroke:none;enable-background:new"
         inkscape:label="context"
         id="context"><tspan
           style="font-style:normal;font-variant:normal;font-weight:normal;font-stretch:normal;font-size:18px;line-height:1.25;font-family:'DejaVu Sans';-inkscape-font-specification:'DejaVu Sans'"
           y="19.745117"
           x="15.006836"
           sodipodi:role="line"
           id="tspan3933">apps</tspan></text>
      <text
         y="19.745117"
         xml:space="preserve"
         x="122.48828"
         style="font-style:normal;font-variant:normal;font-weight:bold;font-stretch:normal;line-height:0%;font-family:'DejaVu Sans';-inkscape-font-specification:'DejaVu Sans Bold';text-align:start;writing-mode:lr-tb;text-anchor:start;display:inline;fill:#000000;fill-opacity:1;stroke:none;enable-background:new"
         inkscape:label="icon-name"
         id="icon-name"><tspan
           style="font-style:normal;font-variant:normal;font-weight:bold;font-stretch:normal;font-size:18px;line-height:1.25;font-family:'DejaVu Sans';-inkscape-font-specification:'DejaVu Sans Bold'"
           y="19.745117"
           x="122.48828"
           sodipodi:role="line"
           id="tspan3937">web-rumble</tspan></text>
      <rect
         style="display:inline;overflow:visible;visibility:visible;fill:#eeeeec;fill-opacity:1;fill-rule:nonzero;stroke:none;stroke-width:2;marker:none;enable-background:accumulate"
         id="rect16x16"
         width="16"
         height="16"
         x="416"
         y="140"
         inkscape:label="16x16" />
      <rect
         style="display:inline;overflow:visible;visibility:visible;fill:#d4d4d4;fill-opacity:1;fill-rule:nonzero;stroke:none;stroke-width:2;marker:none;enable-background:accumulate"
         id="rect24x24"
         width="24"
         height="24"
         x="416"
         y="100"
         inkscape:label="24x24" />
      <rect
         style="display:inline;overflow:visible;visibility:visible;fill:#eeeeec;fill-opacity:1;fill-rule:nonzero;stroke:none;stroke-width:2;marker:none;enable-background:accumulate"
         id="rect32x32"
         width="32"
         height="32"
         x="416"
         y="52"
         inkscape:label="32x32" />
      <rect
         inkscape:label="22x22"
         y="101"
         x="417"
         height="22"
         width="22"
         id="rect22x22"
         style="display:inline;overflow:visible;visibility:visible;fill:#eeeeec;fill-opacity:1;fill-rule:nonzero;stroke:none;stroke-width:2;marker:none;enable-background:accumulate" />
      <rect
         inkscape:label="48x48"
         y="220"
         x="288"
         height="48"
         width="48"
         id="rect48x48"
         style="display:inline;overflow:visible;visibility:visible;fill:#eeeeec;fill-opacity:1;fill-rule:nonzero;stroke:none;stroke-width:2;marker:none;enable-background:accumulate" />
      <rect
         style="display:inline;overflow:visible;visibility:visible;fill:#eeeeec;fill-opacity:1;fill-rule:nonzero;stroke:none;stroke-width:2;marker:none;enable-background:accumulate"
         id="rect256x256"
         width="256"
         height="256"
         x="16"
         y="28"
         inkscape:label="256x256" />
      <rect
         style="display:inline;overflow:visible;visibility:visible;fill:#eeeeec;fill-opacity:1;fill-rule:nonzero;stroke:none;stroke-width:2;marker:none;enable-background:accumulate"
         id="rect64x64"
         width="64"
         height="64"
         x="288"
         y="140"
         inkscape:label="64x64" />
      <rect
         style="display:inline;overflow:visible;visibility:visible;fill:#eeeeec;fill-opacity:1;fill-rule:nonzero;stroke:none;stroke-width:2;marker:none;enable-background:accumulate"
         id="rect96x96"
         width="96"
         height="96"
         x="288"
         y="28"
         inkscape:label="96x96" />
    </g>
    <g
       inkscape:groupmode="layer"
       id="layer4"
       inkscape:label="Shadow"
       style="display:inline"
       sodipodi:insensitive="true">
      <rect
         ry="50"
         y="47"
         x="34"
         height="220"
         width="220"
         id="rect4114"
         style="opacity:0.1;color:#bebebe;fill:#000000;fill-opacity:1;fill-rule:nonzero;stroke:none;stroke-width:0;marker:none;visibility:visible;display:inline;overflow:visible;enable-background:accumulate" />
      <rect
         style="opacity:0.1;color:#bebebe;fill:#000000;fill-opacity:1;fill-rule:nonzero;stroke:none;stroke-width:0;marker:none;visibility:visible;display:inline;overflow:visible;enable-background:accumulate"
         id="rect4120"
         width="30"
         height="30"
         x="417"
         y="54"
         ry="7" />
      <rect
         transform="scale(1,-1)"
         ry="9"
         y="-266"
         x="291"
         height="42"
         width="42"
         id="rect4122"
         style="opacity:0.1;color:#bebebe;fill:#000000;fill-opacity:1;fill-rule:nonzero;stroke:none;stroke-width:0;marker:none;visibility:visible;display:inline;overflow:visible;enable-background:accumulate" />
      <rect
         style="opacity:0.1;color:#bebebe;fill:#000000;fill-opacity:1;fill-rule:nonzero;stroke:none;stroke-width:0;marker:none;visibility:visible;display:inline;overflow:visible;enable-background:accumulate"
         id="rect4124"
         width="88"
         height="88"
         x="292"
         y="33"
         ry="18" />
      <rect
         ry="12.5"
         y="143"
         x="290"
         height="60"
         width="60"
         id="rect4126"
         style="opacity:0.1;color:#bebebe;fill:#000000;fill-opacity:1;fill-rule:nonzero;stroke:none;stroke-width:0;marker:none;visibility:visible;display:inline;overflow:visible;enable-background:accumulate" />
      <path
         id="path4268"
         d="m 422,101 c -2.77,0 -5,2.23 -5,5 l 0,12 c 0,2.77 2.23,5 5,5 l 12,0 c 2.77,0 5,-2.23 5,-5 l 0,-12 c 0,-2.77 -2.23,-5 -5,-5 z"
         style="opacity:0.1;color:#bebebe;fill:#000000;fill-opacity:1;fill-rule:nonzero;stroke:none;stroke-width:0;marker:none;visibility:visible;display:inline;overflow:visible;enable-background:accumulate"
         inkscape:connector-curvature="0"
         sodipodi:nodetypes="sssssssss" />
      <path
         id="path4270"
         d="m 419,140 c -1.662,0 -3,1.338 -3,3 l 0,10 c 0,1.662 1.338,3 3,3 l 10,0 c 1.662,0 3,-1.338 3,-3 l 0,-10 c 0,-1.662 -1.338,-3 -3,-3 z"
         style="opacity:0.1;color:#bebebe;fill:#000000;fill-opacity:1;fill-rule:nonzero;stroke:none;stroke-width:0;marker:none;visibility:visible;display:inline;overflow:visible;enable-background:accumulate"
         inkscape:connector-curvature="0"
         sodipodi:nodetypes="sssssssss" />
    </g>
    <g
       inkscape:groupmode="layer"
       id="layer2"
       inkscape:label="Background"
       style="display:inline">
      <path
         style="color:#bebebe;fill:url(#linearGradient5146);fill-opacity:1.0;fill-rule:nonzero;stroke:none;stroke-width:2;marker:none;visibility:visible;display:inline;overflow:visible;enable-background:accumulate"
         d="M 84 46.5 C 56.568735 46.5 34.5 68.568732 34.5 96 L 34.5 216 C 34.5 243.43127 56.568735 265.5 84 265.5 L 204 265.5 C 231.43127 265.5 253.5 243.43127 253.5 216 L 253.5 96 C 253.5 68.568732 231.43127 46.5 204 46.5 L 84 46.5 z "
         id="path4200" />
      <path
         style="color:#bebebe;fill:url(#linearGradient5148);fill-opacity:1.0;fill-rule:nonzero;stroke:none;stroke-width:2;marker:none;visibility:visible;display:inline;overflow:visible;enable-background:accumulate"
         d="M 419 140.5 C 417.6156 140.5 416.5 141.6156 416.5 143 L 416.5 153 C 416.5 154.3844 417.6156 155.5 419 155.5 L 429 155.5 C 430.3844 155.5 431.5 154.3844 431.5 153 L 431.5 143 C 431.5 141.6156 430.3844 140.5 429 140.5 L 419 140.5 z "
         id="path4202" />
      <path
         style="color:#bebebe;fill:url(#linearGradient5150);fill-opacity:1.0;fill-rule:nonzero;stroke:none;stroke-width:2;marker:none;visibility:visible;display:inline;overflow:visible;enable-background:accumulate"
         d="M 422 101.5 C 419.50301 101.5 417.5 103.50301 417.5 106 L 417.5 118 C 417.5 120.49699 419.50301 122.5 422 122.5 L 434 122.5 C 436.49699 122.5 438.5 120.49699 438.5 118 L 438.5 106 C 438.5 103.50301 436.49699 101.5 434 101.5 L 422 101.5 z "
         id="path4204" />
      <path
         style="color:#bebebe;fill:url(#linearGradient5152);fill-opacity:1.0;fill-rule:nonzero;stroke:none;stroke-width:2;marker:none;visibility:visible;display:inline;overflow:visible;enable-background:accumulate"
         d="M 424 53.5 C 420.39346 53.5 417.5 56.393464 417.5 60 L 417.5 76 C 417.5 79.606536 420.39346 82.5 424 82.5 L 440 82.5 C 443.60654 82.5 446.5 79.606536 446.5 76 L 446.5 60 C 446.5 56.393464 443.60654 53.5 440 53.5 L 424 53.5 z "
         id="path4206" />
      <path
         style="color:#bebebe;fill:url(#linearGradient5154);fill-opacity:1.0;fill-rule:nonzero;stroke:none;stroke-width:2;marker:none;visibility:visible;display:inline;overflow:visible;enable-background:accumulate"
         d="M 300 223.5 C 295.28469 223.5 291.5 227.28469 291.5 232 L 291.5 256 C 291.5 260.71531 295.28469 264.5 300 264.5 L 324 264.5 C 328.71531 264.5 332.5 260.71531 332.5 256 L 332.5 232 C 332.5 227.28469 328.71531 223.5 324 223.5 L 300 223.5 z "
         id="path4208" />
      <path
         style="color:#bebebe;fill:url(#linearGradient5156);fill-opacity:1.0;fill-rule:nonzero;stroke:none;stroke-width:2;marker:none;visibility:visible;display:inline;overflow:visible;enable-background:accumulate"
         d="M 310 32.5 C 300.29745 32.5 292.5 40.297452 292.5 50 L 292.5 102 C 292.5 111.70255 300.29745 119.5 310 119.5 L 362 119.5 C 371.70255 119.5 379.5 111.70255 379.5 102 L 379.5 50 C 379.5 40.297452 371.70255 32.5 362 32.5 L 310 32.5 z "
         id="path4210" />
      <path
         style="color:#bebebe;fill:url(#linearGradient5158);fill-opacity:1.0;fill-rule:nonzero;stroke:none;stroke-width:2;marker:none;visibility:visible;display:inline;overflow:visible;enable-background:accumulate"
         d="M 302.5 142.5 C 295.84498 142.5 290.5 147.84498 290.5 154.5 L 290.5 189.5 C 290.5 196.15502 295.84498 201.5 302.5 201.5 L 337.5 201.5 C 344.15502 201.5 349.5 196.15502 349.5 189.5 L 349.5 154.5 C 349.5 147.84498 344.15502 142.5 337.5 142.5 L 302.5 142.5 z "
         id="path4212" />
    </g>
    <g
       inkscape:groupmode="layer"
       id="layer6"
       inkscape:label="Symbols"
       style="display:inline">
      <path
         id="path3893"
         style="display:inline;opacity:0.2;fill:#000000;fill-opacity:1;fill-rule:nonzero;stroke:none;stroke-width:0.3;marker-start:none;enable-background:new"
         d="m 117.18945,92.008109 c -13.08187,-0.312956 -24.892229,8.460591 -28.775388,21.472531 -8.446401,28.30124 -9.730135,60.14726 -0.990234,88.29631 4.600946,14.81916 20.141232,22.93938 35.330082,19.39832 28.92918,-6.74239 54.54089,-21.20901 75.12695,-42.41184 11.60421,-11.86194 11.55902,-30.83579 -0.10156,-42.64232 -20.25179,-20.69464 -46.73035,-37.037835 -74.92578,-43.407927 -1.90133,-0.429723 -3.79523,-0.660366 -5.66407,-0.705074 z M 128.75,133.64066 c 1.51402,-0.0755 3.08606,0.19857 4.61133,0.88476 8.57685,3.85903 16.9414,8.94897 24.73828,15.00382 v 0.004 c 5.26133,4.08459 5.26095,11.85904 -0.0547,15.87295 -7.92951,5.99448 -16.6093,10.92563 -25.81836,14.66788 -6.19076,2.51922 -12.93455,-1.45678 -13.59765,-8.07417 -0.96476,-9.63666 -0.67363,-19.73575 0.81836,-29.8045 0.73375,-4.94266 4.76068,-8.32826 9.30273,-8.55464 z"
         sodipodi:nodetypes="sccccccsscccccccs" />
      <path
         id="path3887"
         style="display:inline;opacity:0.2;fill:#000000;fill-opacity:1;fill-rule:nonzero;stroke:none;stroke-width:0.3;marker-start:none;enable-background:new"
         d="m 325.2752,51.003244 c -5.23267,-0.125185 -9.95637,3.38314 -11.50962,8.588035 -3.37851,11.320758 -3.89241,24.059073 -0.39648,35.318953 1.84036,5.927798 8.05718,9.176348 14.13264,7.759898 11.57153,-2.697025 21.81609,-8.483805 30.05041,-16.965131 4.64126,-4.744942 4.62301,-12.334358 -0.041,-17.056927 -8.10061,-8.278046 -18.69231,-14.815479 -29.97033,-17.363573 -0.76052,-0.171893 -1.51807,-0.263371 -2.26561,-0.281255 z m 4.62495,16.652624 c 0.6056,-0.03018 1.23362,0.07904 1.84373,0.353522 3.4307,1.54364 6.77765,3.580059 9.89636,6.002053 v 0.002 c 2.1045,1.633868 2.10277,4.744113 -0.0234,6.349716 -3.17141,2.397758 -6.64288,4.370262 -10.32605,5.867287 -2.47628,1.007715 -5.17415,-0.583506 -5.43939,-3.230524 -0.3859,-3.854753 -0.27062,-7.894477 0.32617,-11.922075 0.2935,-1.977111 1.90581,-3.331383 3.72261,-3.421932 z"
         sodipodi:nodetypes="scccccssscccccccs" />
      <path
         id="path3889"
         style="display:inline;opacity:0.2;fill:#000000;fill-opacity:1;fill-rule:nonzero;stroke:none;stroke-width:0.3;marker-start:none;enable-background:new"
         d="m 312.57617,155.00225 c -3.62267,-0.0867 -6.89342,2.34393 -7.96875,5.94727 -2.33901,7.83731 -2.69567,16.656 -0.27539,24.45117 1.27411,4.1038 5.57902,6.35169 9.78516,5.37109 8.01116,-1.86713 15.10197,-5.87254 20.80273,-11.74414 3.21361,-3.28464 3.20144,-8.53887 -0.0273,-11.80859 -5.60819,-5.73085 -12.94009,-10.25745 -20.74805,-12.02148 -0.52652,-0.119 -1.05083,-0.18294 -1.56836,-0.19532 z m 3.20117,11.5293 c 0.41927,-0.0209 0.85496,0.0561 1.27735,0.24609 2.37512,1.06866 4.69047,2.47756 6.84961,4.1543 1.45699,1.13112 1.45636,3.28494 -0.0156,4.39648 -2.19544,1.66014 -4.59865,3.02589 -7.14844,4.0625 -1.71436,0.69764 -3.58199,-0.4038 -3.76562,-2.23632 -0.26716,-2.66863 -0.18661,-5.46562 0.22656,-8.25391 0.2032,-1.36874 1.31837,-2.30645 2.57617,-2.36914 z"
         sodipodi:nodetypes="scscccsssccccccs" />
      <path
         id="path3891"
         style="display:inline;opacity:0.2;fill:#000000;fill-opacity:1;fill-rule:nonzero;stroke:none;stroke-width:0.3;marker-start:none;enable-background:new"
         d="m 306.63826,232.00195 c -2.61645,-0.0626 -4.97938,1.69249 -5.75603,4.29485 -1.68933,5.66017 -1.9453,12.02813 -0.19726,17.65788 0.92022,2.9638 4.02679,4.58898 7.06465,3.88078 5.78601,-1.34846 10.90851,-4.24175 15.02584,-8.48226 2.32164,-2.37224 2.31295,-6.16755 -0.0195,-8.52914 -4.05048,-4.13888 -9.34556,-7.40748 -14.98483,-8.68149 -0.38027,-0.0859 -0.75906,-0.13168 -1.13284,-0.14062 z m 2.31062,8.32602 c 0.30281,-0.0151 0.61879,0.0405 0.92386,0.17773 1.71542,0.77179 3.38799,1.78899 4.9474,2.99995 1.0523,0.8169 1.05148,2.37295 -0.0117,3.17572 -1.58606,1.19891 -3.32221,2.18513 -5.16421,2.93354 -1.2382,0.50383 -2.58621,-0.29174 -2.71883,-1.6152 -0.19296,-1.92731 -0.13433,-3.9471 0.16406,-5.96083 0.14677,-0.98851 0.951,-1.66563 1.85944,-1.71091 z"
         sodipodi:nodetypes="scscccsssccccccs" />
      <path
         id="path3895"
         style="display:inline;opacity:0.2;fill:#000000;fill-opacity:1;fill-rule:nonzero;stroke:none;stroke-width:0.3;marker-start:none;enable-background:new"
         d="m 428.28771,60.001123 c -1.81124,-0.04333 -3.44653,1.170992 -3.98417,2.972656 -1.16943,3.918657 -1.34678,8.327024 -0.1367,12.22461 0.637,2.051895 2.78936,3.177802 4.89231,2.6875 4.00537,-0.933569 7.55156,-2.937252 10.40179,-5.873047 1.60673,-1.642318 1.60064,-4.269437 -0.0137,-5.904297 -2.80395,-2.865429 -6.47067,-5.127748 -10.37445,-6.009766 -0.26324,-0.0595 -0.52637,-0.09147 -0.78511,-0.09766 z m 1.60147,5.763672 c 0.20962,-0.01045 0.42551,0.02803 0.63669,0.123047 1.1875,0.534328 2.34608,1.237804 3.4256,2.076172 l 0.002,0.002 c 0.72845,0.56556 0.72669,1.641488 -0.01,2.197265 -1.09767,0.830068 -2.2992,1.512946 -3.57403,2.03125 -0.85714,0.348819 -1.79091,-0.20288 -1.88271,-1.11914 -0.13359,-1.334316 -0.0933,-2.732808 0.11327,-4.126953 0.10158,-0.684373 0.66012,-1.152251 1.28899,-1.183594 z"
         sodipodi:nodetypes="ssscccssssccccccs" />
      <path
         id="path3897"
         style="display:inline;opacity:0.2;fill:#000000;fill-opacity:1;fill-rule:nonzero;stroke:none;stroke-width:0.300001;marker-start:none;enable-background:new"
         d="m 425.11257,106.00087 c -1.40889,-0.0337 -2.68155,0.9111 -3.09977,2.31221 -0.90966,3.04747 -1.04674,6.4775 -0.10547,9.50858 0.49551,1.59571 2.16908,2.47088 3.80489,2.08958 3.11561,-0.72602 5.87319,-2.28467 8.09027,-4.56779 1.24922,-1.27744 1.24401,-3.32017 -0.0117,-4.59122 -2.18107,-2.22838 -5.0322,-3.98927 -8.06879,-4.6752 -0.20476,-0.0463 -0.40813,-0.0714 -0.60941,-0.0762 z m 1.24422,4.48382 c 0.16305,-0.008 0.33184,0.0218 0.49611,0.0957 0.92371,0.41554 1.82451,0.96304 2.66421,1.61503 0.56664,0.43982 0.56678,1.2785 -0.006,1.71072 -0.85372,0.64487 -1.78811,1.17536 -2.77944,1.57794 -0.66674,0.27125 -1.39351,-0.15648 -1.46492,-0.86905 -0.10391,-1.03766 -0.0728,-2.12438 0.0879,-3.20857 0.079,-0.53223 0.51284,-0.89739 1.00201,-0.92176 z"
         sodipodi:nodetypes="ssscccsssscccccs" />
      <path
         id="path3899"
         style="display:inline;opacity:0.2;fill:#000000;fill-opacity:1;fill-rule:nonzero;stroke:none;stroke-width:0.3;marker-start:none;enable-background:new"
         d="m 421.9373,144.00062 c -1.00644,-0.0241 -1.91446,0.65132 -2.2132,1.65208 -0.64983,2.1767 -0.74859,4.62692 -0.0762,6.79191 0.35397,1.13976 1.54865,1.7643 2.71718,1.49196 2.22563,-0.51857 4.19636,-1.63242 5.78012,-3.26316 0.89217,-0.91221 0.8887,-2.37084 -0.008,-3.27879 -1.55806,-1.59166 -3.59531,-2.84939 -5.76449,-3.33932 -0.14629,-0.0331 -0.29183,-0.0512 -0.43561,-0.0547 z m 0.89074,3.20262 c 0.11648,-0.006 0.23622,0.0156 0.35358,0.0684 0.65985,0.2968 1.30276,0.68843 1.90261,1.15412 0.40476,0.31416 0.40486,0.91178 -0.004,1.22051 -0.60952,0.46112 -1.27671,0.84059 -1.98467,1.12873 -0.47628,0.19375 -0.996,-0.11203 -1.04702,-0.62099 -0.0742,-0.74117 -0.0522,-1.51821 0.0625,-2.29261 0.0565,-0.38015 0.36748,-0.64069 0.71689,-0.65811 z"
         sodipodi:nodetypes="ssscccsssssccscs" />
      <path
         fill-rule="evenodd"
         clip-rule="evenodd"
         d="m 197.87991,177.76387 a 30.415764,30.415764 0 0 0 -0.10055,-42.6424 c -20.25181,-20.69479 -46.72972,-37.038639 -74.92518,-43.408777 -15.2106,-3.43781 -30.002674,5.897268 -34.440574,20.768157 -8.44641,28.30145 -9.72913,60.14669 -0.98922,88.29595 4.60095,14.81926 20.140384,22.93955 35.329244,19.39847 28.92921,-6.74245 54.5402,-21.20842 75.12628,-42.4114 z m -39.78073,-29.23088 c 5.26134,4.08461 5.26134,11.85976 -0.0543,15.8737 a 113.95041,113.95041 0 0 1 -25.81753,14.66708 c -6.19077,2.51924 -12.93594,-1.45666 -13.59904,-8.0741 -0.96476,-9.63673 -0.67398,-19.73546 0.81801,-29.80429 0.97834,-6.59026 7.81319,-10.41398 13.91428,-7.66917 8.57686,3.85905 16.94174,8.94917 24.73863,15.00406 z"
         fill="#85C742"
         id="path12839"
         style="display:inline;enable-background:new;fill:#fbfdf9;fill-opacity:1;stroke-width:1"
         inkscape:label="path4226" />
      <path
         fill-rule="evenodd"
         clip-rule="evenodd"
         d="m 357.55195,84.705549 a 12.166306,12.166306 0 0 0 -0.0402,-17.056961 c -8.10072,-8.277915 -18.69189,-14.815457 -29.97007,-17.363511 -6.08424,-1.375123 -12.00108,2.358907 -13.77624,8.307265 -3.37856,11.320579 -3.89165,24.058675 -0.39568,35.318377 1.84038,5.927705 8.05615,9.175821 14.1317,7.759391 11.57168,-2.696981 21.81608,-8.483369 30.05051,-16.964561 z M 341.63966,73.013198 c 2.10453,1.633842 2.10453,4.743903 -0.0217,6.349481 a 45.580166,45.580166 0 0 1 -10.32701,5.86683 c -2.47631,1.007699 -5.17438,-0.582661 -5.43962,-3.229637 -0.38591,-3.854693 -0.26959,-7.894185 0.3272,-11.921719 0.39134,-2.636106 3.12528,-4.16559 5.56572,-3.067666 3.43074,1.543616 6.77669,3.579668 9.89545,6.001624 z"
         fill="#85C742"
         id="path12839-6"
         style="display:inline;enable-background:new;fill:#fbfdf9;fill-opacity:1;stroke-width:1"
         inkscape:label="path3864" />
      <path
         fill-rule="evenodd"
         clip-rule="evenodd"
         d="m 334.92063,178.02692 a 8.422827,8.422827 0 0 0 -0.0279,-11.80867 c -5.60819,-5.73086 -12.94054,-10.25685 -20.74851,-12.02089 -4.21217,-0.952 -8.30844,1.63309 -9.53739,5.75119 -2.33901,7.83732 -2.69422,16.656 -0.27394,24.45118 1.27411,4.1038 5.57734,6.35249 9.78348,5.37189 8.01117,-1.86714 15.10344,-5.8731 20.80421,-11.7447 z m -11.01621,-8.0947 c 1.45699,1.13112 1.45699,3.28424 -0.015,4.39579 a 31.555498,31.555498 0 0 1 -7.14947,4.06165 c -1.71437,0.69764 -3.58226,-0.40338 -3.76589,-2.2359 -0.26716,-2.66863 -0.18664,-5.46521 0.22653,-8.2535 0.27093,-1.82499 2.16365,-2.88387 3.85319,-2.12377 2.37512,1.06866 4.69155,2.47823 6.85069,4.15497 z"
         fill="#85C742"
         id="path12839-7"
         style="display:inline;enable-background:new;fill:#fbfdf9;fill-opacity:1;stroke-width:1"
         inkscape:label="path3870" />
      <path
         fill-rule="evenodd"
         clip-rule="evenodd"
         d="m 322.77598,248.35278 a 6.0831528,6.0831528 0 0 0 -0.0201,-8.52848 c -4.05036,-4.13896 -9.34594,-7.40773 -14.98504,-8.68176 -3.04212,-0.68756 -6.00053,1.17945 -6.88811,4.15363 -1.68928,5.66029 -1.94583,12.02934 -0.19785,17.65919 0.9202,2.96385 4.02808,4.58791 7.06585,3.8797 5.78585,-1.34849 10.90805,-4.24169 15.02526,-8.48228 z m -7.95615,-5.84618 c 1.05227,0.81692 1.05227,2.37195 -0.0109,3.17474 a 22.790082,22.790082 0 0 1 -5.1635,2.93342 c -1.23816,0.50385 -2.58719,-0.29133 -2.71981,-1.61482 -0.19295,-1.92735 -0.13479,-3.94709 0.1636,-5.96086 0.19567,-1.31805 1.56264,-2.0828 2.78286,-1.53383 1.71537,0.7718 3.38835,1.78983 4.94772,3.00081 z"
         fill="#85C742"
         id="path12839-5"
         style="display:inline;enable-background:new;fill:#fbfdf9;fill-opacity:1;stroke-width:1"
         inkscape:label="path3876" />
      <path
         fill-rule="evenodd"
         clip-rule="evenodd"
         d="m 439.46028,71.013459 a 4.2114135,4.2114135 0 0 0 -0.0139,-5.904332 c -2.8041,-2.865432 -6.47027,-5.128427 -10.37426,-6.010446 -2.10608,-0.476004 -4.15421,0.816545 -4.76869,2.875592 -1.1695,3.918661 -1.34711,8.328002 -0.13697,12.225592 0.63705,2.051897 2.78867,3.176245 4.89174,2.685942 4.00559,-0.93357 7.55172,-2.93655 10.4021,-5.872348 z m -5.5081,-4.047352 c 0.72849,0.565561 0.72849,1.64212 -0.008,2.197898 a 15.777749,15.777749 0 0 1 -3.57474,2.030825 c -0.85718,0.348819 -1.79113,-0.20169 -1.88294,-1.117951 -0.13359,-1.334317 -0.0933,-2.732602 0.11326,-4.126749 0.13546,-0.912498 1.08183,-1.441935 1.92659,-1.061884 1.18757,0.534329 2.34578,1.239116 3.42535,2.077485 z"
         fill="#85C742"
         id="path12839-56"
         style="display:inline;enable-background:new;fill:#fbfdf9;fill-opacity:1;stroke-width:1"
         inkscape:label="path3882" />
      <path
         fill-rule="evenodd"
         clip-rule="evenodd"
         d="m 433.80243,114.3438 a 3.2755436,3.2755436 0 0 0 -0.0108,-4.59226 c -2.18096,-2.22867 -5.03243,-3.98878 -8.06886,-4.67479 -1.63807,-0.37023 -3.23106,0.63509 -3.70899,2.23657 -0.90961,3.04785 -1.04775,6.47734 -0.10653,9.5088 0.49549,1.59592 2.16897,2.47041 3.80469,2.08906 3.11545,-0.72611 5.87356,-2.28398 8.09052,-4.56738 z m -4.28408,-3.14794 c 0.56661,0.43988 0.56661,1.2772 -0.006,1.70948 a 12.271582,12.271582 0 0 1 -2.78035,1.57953 c -0.6667,0.2713 -1.3931,-0.15687 -1.46451,-0.86952 -0.1039,-1.0378 -0.0726,-2.12536 0.0881,-3.20969 0.10536,-0.70972 0.84142,-1.12151 1.49846,-0.82591 0.92366,0.41559 1.8245,0.96375 2.66416,1.61582 z"
         fill="#85C742"
         id="path12839-2"
         style="display:inline;enable-background:new;fill:#fbfdf9;fill-opacity:1;stroke-width:1"
         inkscape:label="path3888" />
      <path
         fill-rule="evenodd"
         clip-rule="evenodd"
         d="m 428.14481,149.67414 a 2.3396741,2.3396741 0 0 0 -0.008,-3.28018 c -1.55783,-1.59191 -3.5946,-2.84913 -5.76348,-3.33914 -1.17004,-0.26444 -2.3079,0.45364 -2.64927,1.59755 -0.64973,2.17704 -0.7484,4.62667 -0.0761,6.792 0.35392,1.13994 1.54926,1.76458 2.71764,1.49219 2.22532,-0.51865 4.1954,-1.63142 5.77894,-3.26242 z m -3.06005,-2.24853 c 0.40471,0.31421 0.40471,0.91229 -0.004,1.22106 a 8.7654158,8.7654158 0 0 1 -1.98597,1.12824 c -0.47621,0.19378 -0.99507,-0.11205 -1.04608,-0.62109 -0.0742,-0.74128 -0.0518,-1.51811 0.0629,-2.29264 0.0753,-0.50694 0.60101,-0.80107 1.07032,-0.58993 0.65976,0.29685 1.30322,0.6884 1.90298,1.15416 z"
         fill="#85C742"
         id="path12839-9"
         style="display:inline;enable-background:new;fill:#fbfdf9;fill-opacity:1;stroke-width:0.999999"
         inkscape:label="path3894" />
    </g>
    <g
       inkscape:groupmode="layer"
       id="layer5"
       inkscape:label="Highlights"
       style="display:inline"
       sodipodi:insensitive="true">
      <path
         style="opacity:0.12999998;color:#bebebe;fill:#ffffff;fill-opacity:1;fill-rule:nonzero;stroke:none;stroke-width:0;marker:none;visibility:visible;display:inline;overflow:visible;enable-background:accumulate"
         d="M 84,47 C 56.836703,47 35,68.836703 35,96 l 0,1 C 35,69.836703 56.836703,48 84,48 l 120,0 c 27.1633,0 49,21.836703 49,49 l 0,-1 C 253,68.836703 231.1633,47 204,47 L 84,47 z"
         id="rect3894"
         inkscape:connector-curvature="0" />
      <path
         style="opacity:0.12999998;color:#bebebe;fill:#ffffff;fill-opacity:1;fill-rule:nonzero;stroke:none;stroke-width:0;marker:none;visibility:visible;display:inline;overflow:visible;enable-background:accumulate"
         d="m 419,141 c -1.1253,0 -2,0.8747 -2,2 l 0,1 c 0,-1.1253 0.8747,-2 2,-2 l 10,0 c 1.1253,0 2,0.8747 2,2 l 0,-1 c 0,-1.1253 -0.8747,-2 -2,-2 l -10,0 z"
         id="rect3896"
         inkscape:connector-curvature="0" />
      <path
         style="opacity:0.12999998;color:#bebebe;fill:#ffffff;fill-opacity:1;fill-rule:nonzero;stroke:none;stroke-width:0;marker:none;visibility:visible;display:inline;overflow:visible;enable-background:accumulate"
         d="m 422,102 c -2.2333,0 -4,1.7667 -4,4 l 0,1 c 0,-2.2333 1.7667,-4 4,-4 l 12,0 c 2.2333,0 4,1.7667 4,4 l 0,-1 c 0,-2.2333 -1.7667,-4 -4,-4 l -12,0 z"
         id="rect3898"
         inkscape:connector-curvature="0" />
      <path
         style="opacity:0.12999998;color:#bebebe;fill:#ffffff;fill-opacity:1;fill-rule:nonzero;stroke:none;stroke-width:0;marker:none;visibility:visible;display:inline;overflow:visible;enable-background:accumulate"
         d="m 424,54 c -3.3413,0 -6,2.658703 -6,6 l 0,1 c 0,-3.341297 2.6587,-6 6,-6 l 16,0 c 3.3413,0 6,2.658703 6,6 l 0,-1 c 0,-3.341297 -2.6587,-6 -6,-6 l -16,0 z"
         id="rect3900"
         inkscape:connector-curvature="0" />
      <path
         style="opacity:0.12999998;color:#bebebe;fill:#ffffff;fill-opacity:1;fill-rule:nonzero;stroke:none;stroke-width:0;marker:none;visibility:visible;display:inline;overflow:visible;enable-background:accumulate"
         d="m 300,224 c -4.4493,0 -8,3.5507 -8,8 l 0,1 c 0,-4.4493 3.5507,-8 8,-8 l 24,0 c 4.4493,0 8,3.5507 8,8 l 0,-1 c 0,-4.4493 -3.5507,-8 -8,-8 l -24,0 z"
         id="rect3902"
         inkscape:connector-curvature="0" />
      <path
         style="opacity:0.12999998;color:#bebebe;fill:#ffffff;fill-opacity:1;fill-rule:nonzero;stroke:none;stroke-width:0;marker:none;visibility:visible;display:inline;overflow:visible;enable-background:accumulate"
         d="m 310,33 c -9.4353,0 -17,7.564703 -17,17 l 0,1 c 0,-9.435297 7.5647,-17 17,-17 l 52,0 c 9.4353,0 17,7.564703 17,17 l 0,-1 c 0,-9.435297 -7.5647,-17 -17,-17 l -52,0 z"
         id="rect3904"
         inkscape:connector-curvature="0" />
      <path
         style="opacity:0.12999998;color:#bebebe;fill:#ffffff;fill-opacity:1;fill-rule:nonzero;stroke:none;stroke-width:0;marker:none;visibility:visible;display:inline;overflow:visible;enable-background:accumulate"
         d="m 302.5,143 c -6.3883,0 -11.5,5.1117 -11.5,11.5 l 0,1 c 0,-6.3883 5.1117,-11.5 11.5,-11.5 l 35,0 c 6.3883,0 11.5,5.1117 11.5,11.5 l 0,-1 c 0,-6.3883 -5.1117,-11.5 -11.5,-11.5 l -35,0 z"
         id="rect3906"
         inkscape:connector-curvature="0" />
      <path
         id="path4085"
         d="m 204,266 c 27.1633,0 49,-21.8367 49,-49 l 0,-1 c 0,27.1633 -21.8367,49 -49,49 L 84,265 C 56.8367,265 35,243.1633 35,216 l 0,1 c 0,27.1633 21.8367,49 49,49 l 120,0 z"
         style="opacity:0.5;color:#bebebe;fill:#000000;fill-opacity:1;fill-rule:nonzero;stroke:none;stroke-width:0;marker:none;visibility:visible;display:inline;overflow:visible;enable-background:accumulate"
         inkscape:connector-curvature="0" />
      <path
         id="path4087"
         d="m 429,156 c 1.1253,0 2,-0.8747 2,-2 l 0,-1 c 0,1.1253 -0.8747,2 -2,2 l -10,0 c -1.1253,0 -2,-0.8747 -2,-2 l 0,1 c 0,1.1253 0.8747,2 2,2 l 10,0 z"
         style="opacity:0.3;color:#bebebe;fill:#000000;fill-opacity:1;fill-rule:nonzero;stroke:none;stroke-width:0;marker:none;visibility:visible;display:inline;overflow:visible;enable-background:accumulate"
         inkscape:connector-curvature="0" />
      <path
         id="path4089"
         d="m 434,123 c 2.2333,0 4,-1.7667 4,-4 l 0,-1 c 0,2.2333 -1.7667,4 -4,4 l -12,0 c -2.2333,0 -4,-1.7667 -4,-4 l 0,1 c 0,2.2333 1.7667,4 4,4 l 12,0 z"
         style="opacity:0.3;color:#bebebe;fill:#000000;fill-opacity:1;fill-rule:nonzero;stroke:none;stroke-width:0;marker:none;visibility:visible;display:inline;overflow:visible;enable-background:accumulate"
         inkscape:connector-curvature="0" />
      <path
         id="path4091"
         d="m 440,83 c 3.3413,0 6,-2.6587 6,-6 l 0,-1 c 0,3.3413 -2.6587,6 -6,6 l -16,0 c -3.3413,0 -6,-2.6587 -6,-6 l 0,1 c 0,3.3413 2.6587,6 6,6 l 16,0 z"
         style="opacity:0.5;color:#bebebe;fill:#000000;fill-opacity:1;fill-rule:nonzero;stroke:none;stroke-width:0;marker:none;visibility:visible;display:inline;overflow:visible;enable-background:accumulate"
         inkscape:connector-curvature="0" />
      <path
         id="path4093"
         d="m 324,265 c 4.4493,0 8,-3.5507 8,-8 l 0,-1 c 0,4.4493 -3.5507,8 -8,8 l -24,0 c -4.4493,0 -8,-3.5507 -8,-8 l 0,1 c 0,4.4493 3.5507,8 8,8 l 24,0 z"
         style="opacity:0.5;color:#bebebe;fill:#000000;fill-opacity:1;fill-rule:nonzero;stroke:none;stroke-width:0;marker:none;visibility:visible;display:inline;overflow:visible;enable-background:accumulate"
         inkscape:connector-curvature="0" />
      <path
         id="path4095"
         d="m 362,120 c 9.4353,0 17,-7.5647 17,-17 l 0,-1 c 0,9.4353 -7.5647,17 -17,17 l -52,0 c -9.4353,0 -17,-7.5647 -17,-17 l 0,1 c 0,9.4353 7.5647,17 17,17 l 52,0 z"
         style="opacity:0.5;color:#bebebe;fill:#000000;fill-opacity:1;fill-rule:nonzero;stroke:none;stroke-width:0;marker:none;visibility:visible;display:inline;overflow:visible;enable-background:accumulate"
         inkscape:connector-curvature="0" />
      <path
         id="path4097"
         d="m 337.5,202 c 6.3883,0 11.5,-5.1117 11.5,-11.5 l 0,-1 c 0,6.3883 -5.1117,11.5 -11.5,11.5 l -35,0 c -6.3883,0 -11.5,-5.1117 -11.5,-11.5 l 0,1 c 0,6.3883 5.1117,11.5 11.5,11.5 l 35,0 z"
         style="opacity:0.5;color:#bebebe;fill:#000000;fill-opacity:1;fill-rule:nonzero;stroke:none;stroke-width:0;marker:none;visibility:visible;display:inline;overflow:visible;enable-background:accumulate"
         inkscape:connector-curvature="0" />
      <path
         inkscape:connector-curvature="0"
         id="path4280"
         d="M 84,265 C 56.836703,265 35,243.1633 35,216 l 0,-1 c 0,27.1633 21.836703,49 49,49 l 120,0 c 27.1633,0 49,-21.8367 49,-49 l 0,1 c 0,27.1633 -21.8367,49 -49,49 l -120,0 z"
         style="opacity:0.1;color:#bebebe;fill:#ffffff;fill-opacity:1;fill-rule:nonzero;stroke:none;stroke-width:0;marker:none;visibility:visible;display:inline;overflow:visible;enable-background:accumulate" />
      <path
         style="opacity:0.1;color:#bebebe;fill:#ffffff;fill-opacity:1;fill-rule:nonzero;stroke:none;stroke-width:0;marker:none;visibility:visible;display:inline;overflow:visible;enable-background:accumulate"
         d="m 300,264 c -4.4493,0 -8,-3.5507 -8,-8 l 0,-1 c 0,4.4493 3.5507,8 8,8 l 24,0 c 4.4493,0 8,-3.5507 8,-8 l 0,1 c 0,4.4493 -3.5507,8 -8,8 l -24,0 z"
         id="path4294"
         inkscape:connector-curvature="0" />
      <path
         style="opacity:0.1;color:#bebebe;fill:#ffffff;fill-opacity:1;fill-rule:nonzero;stroke:none;stroke-width:0;marker:none;visibility:visible;display:inline;overflow:visible;enable-background:accumulate"
         d="m 302.5,201 c -6.3883,0 -11.5,-5.1117 -11.5,-11.5 l 0,-1 c 0,6.3883 5.1117,11.5 11.5,11.5 l 35,0 c 6.3883,0 11.5,-5.1117 11.5,-11.5 l 0,1 c 0,6.3883 -5.1117,11.5 -11.5,11.5 l -35,0 z"
         id="path4296"
         inkscape:connector-curvature="0" />
      <path
         style="opacity:0.1;color:#bebebe;fill:#ffffff;fill-opacity:1;fill-rule:nonzero;stroke:none;stroke-width:0;marker:none;visibility:visible;display:inline;overflow:visible;enable-background:accumulate"
         d="m 310,119 c -9.4353,0 -17,-7.5647 -17,-17 l 0,-1 c 0,9.4353 7.5647,17 17,17 l 52,0 c 9.4353,0 17,-7.5647 17,-17 l 0,1 c 0,9.4353 -7.5647,17 -17,17 l -52,0 z"
         id="path4298"
         inkscape:connector-curvature="0" />
      <path
         style="opacity:0.1;color:#bebebe;fill:#ffffff;fill-opacity:1;fill-rule:nonzero;stroke:none;stroke-width:0;marker:none;visibility:visible;display:inline;overflow:visible;enable-background:accumulate"
         d="m 424,82 c -3.3413,0 -6,-2.658703 -6,-6 l 0,-1 c 0,3.341297 2.6587,6 6,6 l 16,0 c 3.3413,0 6,-2.658703 6,-6 l 0,1 c 0,3.341297 -2.6587,6 -6,6 l -16,0 z"
         id="path4300"
         inkscape:connector-curvature="0" />
      <path
         style="opacity:0.1;color:#bebebe;fill:#ffffff;fill-opacity:1;fill-rule:nonzero;stroke:none;stroke-width:0;marker:none;visibility:visible;display:inline;overflow:visible;enable-background:accumulate"
         d="m 422,122 c -2.2333,0 -4,-1.7667 -4,-4 l 0,-1 c 0,2.2333 1.7667,4 4,4 l 12,0 c 2.2333,0 4,-1.7667 4,-4 l 0,1 c 0,2.2333 -1.7667,4 -4,4 l -12,0 z"
         id="path4302"
         inkscape:connector-curvature="0" />
      <path
         style="opacity:0.1;color:#bebebe;fill:#ffffff;fill-opacity:1;fill-rule:nonzero;stroke:none;stroke-width:0;marker:none;visibility:visible;display:inline;overflow:visible;enable-background:accumulate"
         d="m 419,154.5 c -1.1253,0 -2,-0.8747 -2,-2 l 0,-1 c 0,1.1253 0.8747,2 2,2 l 10,0 c 1.1253,0 2,-0.8747 2,-2 l 0,1 c 0,1.1253 -0.8747,2 -2,2 l -10,0 z"
         id="path4304"
         inkscape:connector-curvature="0" />
    </g>
    <g
       inkscape:groupmode="layer"
       id="layer3"
       inkscape:label="Border"
       style="display:inline"
       sodipodi:insensitive="true">
      <path
         style="opacity:0.41000001;color:#bebebe;fill:#000000;fill-opacity:1;fill-rule:nonzero;stroke:none;stroke-width:0;marker:none;visibility:visible;display:inline;overflow:visible;enable-background:accumulate"
         d="m 422,101 c -2.77,0 -5,2.23 -5,5 l 0,12 c 0,2.77 2.23,5 5,5 l 12,0 c 2.77,0 5,-2.23 5,-5 l 0,-12 c 0,-2.77 -2.23,-5 -5,-5 l -12,0 z m 0,1 12,0 c 2.2333,0 4,1.7667 4,4 l 0,12 c 0,2.2333 -1.7667,4 -4,4 l -12,0 c -2.2333,0 -4,-1.7667 -4,-4 l 0,-12 c 0,-2.2333 1.7667,-4 4,-4 z"
         id="rect4099"
         inkscape:connector-curvature="0" />
      <path
         style="opacity:0.41000001;color:#bebebe;fill:#000000;fill-opacity:1;fill-rule:nonzero;stroke:none;stroke-width:0;marker:none;visibility:visible;display:inline;overflow:visible;enable-background:accumulate"
         d="m 424,53 c -3.878,0 -7,3.122 -7,7 l 0,16 c 0,3.878 3.122,7 7,7 l 16,0 c 3.878,0 7,-3.122 7,-7 l 0,-16 c 0,-3.878 -3.122,-7 -7,-7 l -16,0 z m 0,1 16,0 c 3.3413,0 6,2.658703 6,6 l 0,16 c 0,3.341297 -2.6587,6 -6,6 l -16,0 c -3.3413,0 -6,-2.658703 -6,-6 l 0,-16 c 0,-3.341297 2.6587,-6 6,-6 z"
         id="rect4151"
         inkscape:connector-curvature="0" />
      <path
         style="opacity:0.41000001;color:#bebebe;fill:#000000;fill-opacity:1;fill-rule:nonzero;stroke:none;stroke-width:0;marker:none;visibility:visible;display:inline;overflow:visible;enable-background:accumulate"
         d="m 419,140 c -1.662,0 -3,1.338 -3,3 l 0,10 c 0,1.662 1.338,3 3,3 l 10,0 c 1.662,0 3,-1.338 3,-3 l 0,-10 c 0,-1.662 -1.338,-3 -3,-3 l -10,0 z m 0,1 10,0 c 1.1253,0 2,0.8747 2,2 l 0,10 c 0,1.1253 -0.8747,2 -2,2 l -10,0 c -1.1253,0 -2,-0.8747 -2,-2 l 0,-10 c 0,-1.1253 0.8747,-2 2,-2 z"
         id="rect4095"
         inkscape:connector-curvature="0" />
      <path
         style="opacity:0.41000001;color:#bebebe;fill:#000000;fill-opacity:1;fill-rule:nonzero;stroke:none;stroke-width:0;marker:none;visibility:visible;display:inline;overflow:visible;enable-background:accumulate"
         d="m 300,223 c -4.986,0 -9,4.014 -9,9 l 0,24 c 0,4.986 4.014,9 9,9 l 24,0 c 4.986,0 9,-4.014 9,-9 l 0,-24 c 0,-4.986 -4.014,-9 -9,-9 l -24,0 z m 0,1 24,0 c 4.4493,0 8,3.5507 8,8 l 0,24 c 0,4.4493 -3.5507,8 -8,8 l -24,0 c -4.4493,0 -8,-3.5507 -8,-8 l 0,-24 c 0,-4.4493 3.5507,-8 8,-8 z"
         id="rect4783"
         inkscape:connector-curvature="0" />
      <path
         style="opacity:0.41000001;color:#bebebe;fill:#000000;fill-opacity:1;fill-rule:nonzero;stroke:none;stroke-width:0;marker:none;visibility:visible;display:inline;overflow:visible;enable-background:accumulate"
         d="m 302.5,142 c -6.925,0 -12.5,5.575 -12.5,12.5 l 0,35 c 0,6.925 5.575,12.5 12.5,12.5 l 35,0 c 6.925,0 12.5,-5.575 12.5,-12.5 l 0,-35 c 0,-6.925 -5.575,-12.5 -12.5,-12.5 l -35,0 z m 0,1 35,0 c 6.3883,0 11.5,5.1117 11.5,11.5 l 0,35 c 0,6.3883 -5.1117,11.5 -11.5,11.5 l -35,0 c -6.3883,0 -11.5,-5.1117 -11.5,-11.5 l 0,-35 c 0,-6.3883 5.1117,-11.5 11.5,-11.5 z"
         id="rect4515"
         inkscape:connector-curvature="0" />
      <path
         style="opacity:0.41000001;color:#bebebe;fill:#000000;fill-opacity:1;fill-rule:nonzero;stroke:none;stroke-width:0;marker:none;visibility:visible;display:inline;overflow:visible;enable-background:accumulate"
         d="m 310,32 c -9.972,0 -18,8.028 -18,18 l 0,52 c 0,9.972 8.028,18 18,18 l 52,0 c 9.972,0 18,-8.028 18,-18 l 0,-52 c 0,-9.972 -8.028,-18 -18,-18 l -52,0 z m 0,1 52,0 c 9.4353,0 17,7.564703 17,17 l 0,52 c 0,9.4353 -7.5647,17 -17,17 l -52,0 c -9.4353,0 -17,-7.5647 -17,-17 l 0,-52 c 0,-9.435297 7.5647,-17 17,-17 z"
         id="rect4511"
         inkscape:connector-curvature="0" />
      <path
         style="opacity:0.41000001;color:#bebebe;fill:#000000;fill-opacity:1;fill-rule:nonzero;stroke:none;stroke-width:0;marker:none;visibility:visible;display:inline;overflow:visible;enable-background:accumulate"
         d="M 84,46 C 56.3,46 34,68.3 34,96 l 0,120 c 0,27.7 22.3,50 50,50 l 120,0 c 27.7,0 50,-22.3 50,-50 L 254,96 C 254,68.3 231.7,46 204,46 L 84,46 z m 0,1 120,0 c 27.1633,0 49,21.836703 49,49 l 0,120 c 0,27.1633 -21.8367,49 -49,49 L 84,265 C 56.836703,265 35,243.1633 35,216 L 35,96 C 35,68.836703 56.836703,47 84,47 z"
         id="rect4040"
         inkscape:connector-curvature="0" />
    </g>
  </g>
</svg>
