<?xml version="1.0" encoding="UTF-8" standalone="no"?>
<!-- Created with Inkscape (http://www.inkscape.org/) -->

<svg
   xmlns:dc="http://purl.org/dc/elements/1.1/"
   xmlns:cc="http://creativecommons.org/ns#"
   xmlns:rdf="http://www.w3.org/1999/02/22-rdf-syntax-ns#"
   xmlns:svg="http://www.w3.org/2000/svg"
   xmlns="http://www.w3.org/2000/svg"
   xmlns:xlink="http://www.w3.org/1999/xlink"
   xmlns:sodipodi="http://sodipodi.sourceforge.net/DTD/sodipodi-0.dtd"
   xmlns:inkscape="http://www.inkscape.org/namespaces/inkscape"
   inkscape:export-ydpi="90.000000"
   inkscape:export-xdpi="90.000000"
   width="480"
   height="300"
   id="svg11300"
   sodipodi:version="0.32"
   inkscape:version="0.92.5 (2060ec1f9f, 2020-04-08)"
   sodipodi:docname="web-proton-mail.svg"
   inkscape:output_extension="org.inkscape.output.svg.inkscape"
   version="1.0"
   style="display:inline;enable-background:new"
   inkscape:export-filename="/home/sam/moka-next-template.png">
  <sodipodi:namedview
     stroke="#ef2929"
     fill="#f57900"
     id="base"
     pagecolor="#777777"
     bordercolor="#666666"
     borderopacity="0.25490196"
     inkscape:pageopacity="0"
     inkscape:pageshadow="2"
     inkscape:zoom="1"
     inkscape:cx="148.63115"
     inkscape:cy="98.243829"
     inkscape:current-layer="layer6"
     showgrid="false"
     inkscape:grid-bbox="true"
     inkscape:document-units="px"
     inkscape:showpageshadow="false"
     inkscape:window-width="1366"
     inkscape:window-height="703"
     inkscape:window-x="0"
     inkscape:window-y="0"
     width="400px"
     height="300px"
     inkscape:snap-nodes="true"
     inkscape:snap-bbox="true"
     gridtolerance="10000"
     inkscape:object-nodes="true"
     inkscape:snap-grids="true"
     showguides="true"
     inkscape:guide-bbox="true"
     inkscape:window-maximized="1"
     inkscape:bbox-nodes="true"
     inkscape:bbox-paths="true"
     inkscape:snap-bbox-edge-midpoints="true"
     inkscape:snap-bbox-midpoints="true">
    <inkscape:grid
       spacingy="1"
       spacingx="1"
       id="grid5883"
       type="xygrid"
       enabled="true"
       visible="true"
       empspacing="4"
       snapvisiblegridlinesonly="true"
       dotted="false"
       color="#000000"
       opacity="0.1254902"
       empcolor="#203ef3"
       empopacity="0.36470588"
       originx="0"
       originy="0" />
    <inkscape:grid
       type="xygrid"
       id="grid11592"
       empspacing="8"
       visible="true"
       enabled="false"
       spacingx="0.5"
       spacingy="0.5"
       color="#ff0000"
       opacity="0.1254902"
       empcolor="#ff0000"
       empopacity="0.25098039"
       snapvisiblegridlinesonly="true"
       dotted="true"
       originx="0"
       originy="0" />
  </sodipodi:namedview>
  <defs
     id="defs3">
    <linearGradient
       inkscape:collect="always"
       xlink:href="#outerBackgroundGradient-1"
       id="linearGradient5744"
       gradientUnits="userSpaceOnUse"
       gradientTransform="matrix(0,-1,1,0,-12,300)"
       x1="35"
       y1="156"
       x2="253"
       y2="156" />
    <linearGradient
       inkscape:collect="always"
       xlink:href="#outerBackgroundGradient-1"
       id="linearGradient5746"
       gradientUnits="userSpaceOnUse"
       gradientTransform="matrix(0,-1,1,0,276,572)"
       x1="417"
       y1="148"
       x2="431"
       y2="148" />
    <linearGradient
       inkscape:collect="always"
       xlink:href="#outerBackgroundGradient-1"
       id="linearGradient5748"
       gradientUnits="userSpaceOnUse"
       gradientTransform="matrix(0,-1,1,0,316,540)"
       x1="418"
       y1="112"
       x2="438"
       y2="112" />
    <linearGradient
       inkscape:collect="always"
       xlink:href="#outerBackgroundGradient-1"
       id="linearGradient5750"
       gradientUnits="userSpaceOnUse"
       gradientTransform="matrix(0,-1,1,0,364,500)"
       x1="418"
       y1="68"
       x2="446"
       y2="68" />
    <linearGradient
       inkscape:collect="always"
       xlink:href="#outerBackgroundGradient-1"
       id="linearGradient5752"
       gradientUnits="userSpaceOnUse"
       gradientTransform="matrix(0,-1,1,0,68,556)"
       x1="292"
       y1="244"
       x2="332"
       y2="244" />
    <linearGradient
       inkscape:collect="always"
       xlink:href="#outerBackgroundGradient-1"
       id="linearGradient5754"
       gradientUnits="userSpaceOnUse"
       gradientTransform="matrix(0,-1,1,0,260,412)"
       x1="293"
       y1="76"
       x2="379"
       y2="76" />
    <linearGradient
       inkscape:collect="always"
       xlink:href="#outerBackgroundGradient-1"
       id="linearGradient5756"
       gradientUnits="userSpaceOnUse"
       gradientTransform="matrix(0,-1,1,0,148,492)"
       x1="291"
       y1="172"
       x2="349"
       y2="172" />
    <linearGradient
       id="outerBackgroundGradient-1">
      <stop
         style="stop-color:#eeeeee;stop-opacity:1;"
         offset="0"
         id="stop3864-8-6-7" />
      <stop
         style="stop-color:#ffffff;stop-opacity:1;"
         offset="1"
         id="stop3866-9-1-0" />
    </linearGradient>
    <clipPath
       clipPathUnits="userSpaceOnUse"
       id="clipPath16">
      <path
         d="M 0,500 500,500 500,0 0,0 0,500 Z"
         id="path18"
         inkscape:connector-curvature="0" />
    </clipPath>
    <linearGradient
       gradientTransform="matrix(0.24834008,0,0,-0.24834008,128.16092,341.98606)"
       id="paint0_linear_6150_150885"
       x1="738.26099"
       y1="384.01999"
       x2="514.95001"
       y2="-568.82898"
       gradientUnits="userSpaceOnUse">
      <stop
         stop-color="#E2DBFF"
         id="stop8" />
      <stop
         offset="1"
         stop-color="#6D4AFF"
         id="stop10" />
    </linearGradient>
    <linearGradient
       gradientTransform="matrix(0.24834008,0,0,-0.24834008,128.16092,341.98606)"
       id="paint1_linear_6150_150885"
       x1="1276.84"
       y1="1301.35"
       x2="514.86798"
       y2="-325.53201"
       gradientUnits="userSpaceOnUse">
      <stop
         offset="0.271019"
         stop-color="#E2DBFF"
         id="stop13" />
      <stop
         offset="1"
         stop-color="#6D4AFF"
         id="stop15" />
    </linearGradient>
    <linearGradient
       gradientTransform="matrix(0.25543564,0,0,-0.25543564,123.28844,363.01616)"
       id="paint0_linear_6150_150885-3"
       x1="738.26099"
       y1="384.01999"
       x2="514.95001"
       y2="-568.82898"
       gradientUnits="userSpaceOnUse">
      <stop
         stop-color="#E2DBFF"
         id="stop8-6" />
      <stop
         offset="1"
         stop-color="#6D4AFF"
         id="stop10-7" />
    </linearGradient>
    <linearGradient
       gradientTransform="matrix(0.25543564,0,0,-0.25543564,123.28844,363.01616)"
       id="paint1_linear_6150_150885-5"
       x1="1276.84"
       y1="1301.35"
       x2="514.86798"
       y2="-325.53201"
       gradientUnits="userSpaceOnUse">
      <stop
         offset="0.271019"
         stop-color="#E2DBFF"
         id="stop13-3" />
      <stop
         offset="1"
         stop-color="#6D4AFF"
         id="stop15-5" />
    </linearGradient>
    <linearGradient
       gradientTransform="matrix(0.25543541,0,0,-0.25543541,141.486,369.10012)"
       id="paint0_linear_6150_150885-1"
       x1="738.26099"
       y1="384.01999"
       x2="514.95001"
       y2="-568.82898"
       gradientUnits="userSpaceOnUse">
      <stop
         stop-color="#E2DBFF"
         id="stop8-2" />
      <stop
         offset="1"
         stop-color="#6D4AFF"
         id="stop10-70" />
    </linearGradient>
    <linearGradient
       gradientTransform="matrix(0.25543541,0,0,-0.25543541,141.486,369.10012)"
       id="paint1_linear_6150_150885-9"
       x1="1276.84"
       y1="1301.35"
       x2="514.86798"
       y2="-325.53201"
       gradientUnits="userSpaceOnUse">
      <stop
         offset="0.271019"
         stop-color="#E2DBFF"
         id="stop13-36" />
      <stop
         offset="1"
         stop-color="#6D4AFF"
         id="stop15-0" />
    </linearGradient>
    <linearGradient
       gradientTransform="matrix(0.25543549,0,0,-0.25543549,141.48605,356.60013)"
       id="paint0_linear_6150_150885-8"
       x1="738.26099"
       y1="384.01999"
       x2="514.95001"
       y2="-568.82898"
       gradientUnits="userSpaceOnUse">
      <stop
         stop-color="#E2DBFF"
         id="stop8-7" />
      <stop
         offset="1"
         stop-color="#6D4AFF"
         id="stop10-9" />
    </linearGradient>
    <linearGradient
       gradientTransform="matrix(0.25543549,0,0,-0.25543549,141.48605,356.60013)"
       id="paint1_linear_6150_150885-2"
       x1="1276.84"
       y1="1301.35"
       x2="514.86798"
       y2="-325.53201"
       gradientUnits="userSpaceOnUse">
      <stop
         offset="0.271019"
         stop-color="#E2DBFF"
         id="stop13-0" />
      <stop
         offset="1"
         stop-color="#6D4AFF"
         id="stop15-2" />
    </linearGradient>
    <linearGradient
       gradientTransform="matrix(0.28232343,0,0,-0.28232343,129.93074,363.07125)"
       id="paint0_linear_6150_150885-9"
       x1="738.26099"
       y1="384.01999"
       x2="514.95001"
       y2="-568.82898"
       gradientUnits="userSpaceOnUse">
      <stop
         stop-color="#E2DBFF"
         id="stop8-22" />
      <stop
         offset="1"
         stop-color="#6D4AFF"
         id="stop10-8" />
    </linearGradient>
    <linearGradient
       gradientTransform="matrix(0.28232343,0,0,-0.28232343,129.93074,363.07125)"
       id="paint1_linear_6150_150885-97"
       x1="1276.84"
       y1="1301.35"
       x2="514.86798"
       y2="-325.53201"
       gradientUnits="userSpaceOnUse">
      <stop
         offset="0.271019"
         stop-color="#E2DBFF"
         id="stop13-361" />
      <stop
         offset="1"
         stop-color="#6D4AFF"
         id="stop15-29" />
    </linearGradient>
    <linearGradient
       gradientTransform="matrix(0.23840649,0,0,-0.23840649,147.08744,359.80813)"
       id="paint0_linear_6150_150885-7"
       x1="738.26099"
       y1="384.01999"
       x2="514.95001"
       y2="-568.82898"
       gradientUnits="userSpaceOnUse">
      <stop
         stop-color="#E2DBFF"
         id="stop8-8" />
      <stop
         offset="1"
         stop-color="#6D4AFF"
         id="stop10-4" />
    </linearGradient>
    <linearGradient
       gradientTransform="matrix(0.23840649,0,0,-0.23840649,147.08744,359.80813)"
       id="paint1_linear_6150_150885-50"
       x1="1276.84"
       y1="1301.35"
       x2="514.86798"
       y2="-325.53201"
       gradientUnits="userSpaceOnUse">
      <stop
         offset="0.271019"
         stop-color="#E2DBFF"
         id="stop13-3610" />
      <stop
         offset="1"
         stop-color="#6D4AFF"
         id="stop15-6" />
    </linearGradient>
    <linearGradient
       gradientTransform="matrix(0.29800812,0,0,-0.29800812,123.40075,378.53278)"
       id="paint0_linear_6150_150885-15"
       x1="738.26099"
       y1="384.01999"
       x2="514.95001"
       y2="-568.82898"
       gradientUnits="userSpaceOnUse">
      <stop
         stop-color="#E2DBFF"
         id="stop8-5" />
      <stop
         offset="1"
         stop-color="#6D4AFF"
         id="stop10-47" />
    </linearGradient>
    <linearGradient
       gradientTransform="matrix(0.29800812,0,0,-0.29800812,123.40075,378.53278)"
       id="paint1_linear_6150_150885-6"
       x1="1276.84"
       y1="1301.35"
       x2="514.86798"
       y2="-325.53201"
       gradientUnits="userSpaceOnUse">
      <stop
         offset="0.271019"
         stop-color="#E2DBFF"
         id="stop13-5" />
      <stop
         offset="1"
         stop-color="#6D4AFF"
         id="stop15-69" />
    </linearGradient>
  </defs>
  <metadata
     id="metadata4">
    <rdf:RDF>
      <cc:Work
         rdf:about="">
        <dc:format>image/svg+xml</dc:format>
        <dc:type
           rdf:resource="http://purl.org/dc/dcmitype/StillImage" />
        <dc:creator>
          <cc:Agent>
            <dc:title>Sam Hewitt</dc:title>
          </cc:Agent>
        </dc:creator>
        <dc:source />
        <cc:license
           rdf:resource="" />
        <dc:title />
        <dc:subject>
          <rdf:Bag />
        </dc:subject>
        <dc:date />
        <dc:rights>
          <cc:Agent>
            <dc:title />
          </cc:Agent>
        </dc:rights>
        <dc:publisher>
          <cc:Agent>
            <dc:title />
          </cc:Agent>
        </dc:publisher>
        <dc:identifier />
        <dc:relation />
        <dc:language />
        <dc:coverage />
        <dc:description />
        <dc:contributor>
          <cc:Agent>
            <dc:title />
          </cc:Agent>
        </dc:contributor>
      </cc:Work>
      <cc:Work
         rdf:about="">
        <dc:format>image/svg+xml</dc:format>
        <dc:type
           rdf:resource="http://purl.org/dc/dcmitype/StillImage" />
      </cc:Work>
    </rdf:RDF>
  </metadata>
  <g
     style="display:inline"
     inkscape:groupmode="layer"
     inkscape:label="Icon"
     id="layer1">
    <g
       style="display:none"
       inkscape:label="Baseplate"
       id="layer7"
       inkscape:groupmode="layer">
      <text
         y="19.745117"
         xml:space="preserve"
         x="15.006836"
         style="font-style:normal;font-variant:normal;font-weight:normal;font-stretch:normal;line-height:0%;font-family:'DejaVu Sans';-inkscape-font-specification:'DejaVu Sans';display:inline;fill:#000000;fill-opacity:1;stroke:none;enable-background:new"
         inkscape:label="context"
         id="context"><tspan
           style="font-style:normal;font-variant:normal;font-weight:normal;font-stretch:normal;font-size:18px;line-height:1.25;font-family:'DejaVu Sans';-inkscape-font-specification:'DejaVu Sans'"
           y="19.745117"
           x="15.006836"
           sodipodi:role="line"
           id="tspan3933">apps</tspan></text>
      <text
         y="19.745117"
         xml:space="preserve"
         x="122.48828"
         style="font-style:normal;font-variant:normal;font-weight:bold;font-stretch:normal;line-height:0%;font-family:'DejaVu Sans';-inkscape-font-specification:'DejaVu Sans Bold';text-align:start;writing-mode:lr-tb;text-anchor:start;display:inline;fill:#000000;fill-opacity:1;stroke:none;enable-background:new"
         inkscape:label="icon-name"
         id="icon-name"><tspan
           style="font-style:normal;font-variant:normal;font-weight:bold;font-stretch:normal;font-size:18px;line-height:1.25;font-family:'DejaVu Sans';-inkscape-font-specification:'DejaVu Sans Bold'"
           y="19.745117"
           x="122.48828"
           sodipodi:role="line"
           id="tspan3937">web-proton-mail</tspan></text>
      <rect
         style="display:inline;overflow:visible;visibility:visible;fill:#eeeeec;fill-opacity:1;fill-rule:nonzero;stroke:none;stroke-width:2;marker:none;enable-background:accumulate"
         id="rect16x16"
         width="16"
         height="16"
         x="416"
         y="140"
         inkscape:label="16x16" />
      <rect
         style="display:inline;overflow:visible;visibility:visible;fill:#d4d4d4;fill-opacity:1;fill-rule:nonzero;stroke:none;stroke-width:2;marker:none;enable-background:accumulate"
         id="rect24x24"
         width="24"
         height="24"
         x="416"
         y="100"
         inkscape:label="24x24" />
      <rect
         style="display:inline;overflow:visible;visibility:visible;fill:#eeeeec;fill-opacity:1;fill-rule:nonzero;stroke:none;stroke-width:2;marker:none;enable-background:accumulate"
         id="rect32x32"
         width="32"
         height="32"
         x="416"
         y="52"
         inkscape:label="32x32" />
      <rect
         inkscape:label="22x22"
         y="101"
         x="417"
         height="22"
         width="22"
         id="rect22x22"
         style="display:inline;overflow:visible;visibility:visible;fill:#eeeeec;fill-opacity:1;fill-rule:nonzero;stroke:none;stroke-width:2;marker:none;enable-background:accumulate" />
      <rect
         inkscape:label="48x48"
         y="220"
         x="288"
         height="48"
         width="48"
         id="rect48x48"
         style="display:inline;overflow:visible;visibility:visible;fill:#eeeeec;fill-opacity:1;fill-rule:nonzero;stroke:none;stroke-width:2;marker:none;enable-background:accumulate" />
      <rect
         style="display:inline;overflow:visible;visibility:visible;fill:#eeeeec;fill-opacity:1;fill-rule:nonzero;stroke:none;stroke-width:2;marker:none;enable-background:accumulate"
         id="rect256x256"
         width="256"
         height="256"
         x="16"
         y="28"
         inkscape:label="256x256" />
      <rect
         style="display:inline;overflow:visible;visibility:visible;fill:#eeeeec;fill-opacity:1;fill-rule:nonzero;stroke:none;stroke-width:2;marker:none;enable-background:accumulate"
         id="rect64x64"
         width="64"
         height="64"
         x="288"
         y="140"
         inkscape:label="64x64" />
      <rect
         style="display:inline;overflow:visible;visibility:visible;fill:#eeeeec;fill-opacity:1;fill-rule:nonzero;stroke:none;stroke-width:2;marker:none;enable-background:accumulate"
         id="rect96x96"
         width="96"
         height="96"
         x="288"
         y="28"
         inkscape:label="96x96" />
    </g>
    <g
       inkscape:groupmode="layer"
       id="layer4"
       inkscape:label="Shadow"
       style="display:inline"
       sodipodi:insensitive="true">
      <rect
         ry="50"
         y="47"
         x="34"
         height="220"
         width="220"
         id="rect4114"
         style="color:#bebebe;display:inline;overflow:visible;visibility:visible;opacity:0.15;fill:#000000;fill-opacity:1;fill-rule:nonzero;stroke:none;stroke-width:0;marker:none;enable-background:accumulate" />
      <rect
         style="color:#bebebe;display:inline;overflow:visible;visibility:visible;opacity:0.15;fill:#000000;fill-opacity:1;fill-rule:nonzero;stroke:none;stroke-width:0;marker:none;enable-background:accumulate"
         id="rect4120"
         width="30"
         height="30"
         x="417"
         y="54"
         ry="7" />
      <rect
         transform="scale(1,-1)"
         ry="9"
         y="-266"
         x="291"
         height="42"
         width="42"
         id="rect4122"
         style="color:#bebebe;display:inline;overflow:visible;visibility:visible;opacity:0.15;fill:#000000;fill-opacity:1;fill-rule:nonzero;stroke:none;stroke-width:0;marker:none;enable-background:accumulate" />
      <rect
         style="color:#bebebe;display:inline;overflow:visible;visibility:visible;opacity:0.15;fill:#000000;fill-opacity:1;fill-rule:nonzero;stroke:none;stroke-width:0;marker:none;enable-background:accumulate"
         id="rect4124"
         width="88"
         height="88"
         x="292"
         y="33"
         ry="18" />
      <rect
         ry="12.5"
         y="143"
         x="290"
         height="60"
         width="60"
         id="rect4126"
         style="color:#bebebe;display:inline;overflow:visible;visibility:visible;opacity:0.15;fill:#000000;fill-opacity:1;fill-rule:nonzero;stroke:none;stroke-width:0;marker:none;enable-background:accumulate" />
      <path
         id="path4268"
         d="m 422,101 c -2.77,0 -5,2.23 -5,5 v 12 c 0,2.77 2.23,5 5,5 h 12 c 2.77,0 5,-2.23 5,-5 v -12 c 0,-2.77 -2.23,-5 -5,-5 z"
         style="color:#bebebe;display:inline;overflow:visible;visibility:visible;opacity:0.15;fill:#000000;fill-opacity:1;fill-rule:nonzero;stroke:none;stroke-width:0;marker:none;enable-background:accumulate"
         inkscape:connector-curvature="0"
         sodipodi:nodetypes="sssssssss" />
      <path
         id="path4270"
         d="m 419,140 c -1.662,0 -3,1.338 -3,3 v 10 c 0,1.662 1.338,3 3,3 h 10 c 1.662,0 3,-1.338 3,-3 v -10 c 0,-1.662 -1.338,-3 -3,-3 z"
         style="color:#bebebe;display:inline;overflow:visible;visibility:visible;opacity:0.15;fill:#000000;fill-opacity:1;fill-rule:nonzero;stroke:none;stroke-width:0;marker:none;enable-background:accumulate"
         inkscape:connector-curvature="0"
         sodipodi:nodetypes="sssssssss" />
    </g>
    <g
       inkscape:groupmode="layer"
       id="layer2"
       inkscape:label="Background"
       style="display:inline">
      <path
         style="color:#bebebe;display:inline;overflow:visible;visibility:visible;fill:url(#linearGradient5744);fill-opacity:1;fill-rule:nonzero;stroke:none;stroke-width:2;marker:none;enable-background:accumulate"
         d="M 84,46.5 C 56.568735,46.5 34.5,68.568732 34.5,96 v 120 c 0,27.43127 22.068735,49.5 49.5,49.5 h 120 c 27.43127,0 49.5,-22.06873 49.5,-49.5 V 96 C 253.5,68.568732 231.43127,46.5 204,46.5 Z"
         id="path4200"
         inkscape:connector-curvature="0" />
      <path
         style="color:#bebebe;display:inline;overflow:visible;visibility:visible;fill:url(#linearGradient5746);fill-opacity:1;fill-rule:nonzero;stroke:none;stroke-width:2;marker:none;enable-background:accumulate"
         d="m 419,140.5 c -1.3844,0 -2.5,1.1156 -2.5,2.5 v 10 c 0,1.3844 1.1156,2.5 2.5,2.5 h 10 c 1.3844,0 2.5,-1.1156 2.5,-2.5 v -10 c 0,-1.3844 -1.1156,-2.5 -2.5,-2.5 z"
         id="path4202"
         inkscape:connector-curvature="0" />
      <path
         style="color:#bebebe;display:inline;overflow:visible;visibility:visible;fill:url(#linearGradient5748);fill-opacity:1;fill-rule:nonzero;stroke:none;stroke-width:2;marker:none;enable-background:accumulate"
         d="m 422,101.5 c -2.49699,0 -4.5,2.00301 -4.5,4.5 v 12 c 0,2.49699 2.00301,4.5 4.5,4.5 h 12 c 2.49699,0 4.5,-2.00301 4.5,-4.5 v -12 c 0,-2.49699 -2.00301,-4.5 -4.5,-4.5 z"
         id="path4204"
         inkscape:connector-curvature="0" />
      <path
         style="color:#bebebe;display:inline;overflow:visible;visibility:visible;fill:url(#linearGradient5750);fill-opacity:1;fill-rule:nonzero;stroke:none;stroke-width:2;marker:none;enable-background:accumulate"
         d="m 424,53.5 c -3.60654,0 -6.5,2.893464 -6.5,6.5 v 16 c 0,3.606536 2.89346,6.5 6.5,6.5 h 16 c 3.60654,0 6.5,-2.893464 6.5,-6.5 V 60 c 0,-3.606536 -2.89346,-6.5 -6.5,-6.5 z"
         id="path4206"
         inkscape:connector-curvature="0" />
      <path
         style="color:#bebebe;display:inline;overflow:visible;visibility:visible;fill:url(#linearGradient5752);fill-opacity:1;fill-rule:nonzero;stroke:none;stroke-width:2;marker:none;enable-background:accumulate"
         d="m 300,223.5 c -4.71531,0 -8.5,3.78469 -8.5,8.5 v 24 c 0,4.71531 3.78469,8.5 8.5,8.5 h 24 c 4.71531,0 8.5,-3.78469 8.5,-8.5 v -24 c 0,-4.71531 -3.78469,-8.5 -8.5,-8.5 z"
         id="path4208"
         inkscape:connector-curvature="0" />
      <path
         style="color:#bebebe;display:inline;overflow:visible;visibility:visible;fill:url(#linearGradient5754);fill-opacity:1;fill-rule:nonzero;stroke:none;stroke-width:2;marker:none;enable-background:accumulate"
         d="m 310,32.5 c -9.70255,0 -17.5,7.797452 -17.5,17.5 v 52 c 0,9.70255 7.79745,17.5 17.5,17.5 h 52 c 9.70255,0 17.5,-7.79745 17.5,-17.5 V 50 c 0,-9.702548 -7.79745,-17.5 -17.5,-17.5 z"
         id="path4210"
         inkscape:connector-curvature="0" />
      <path
         style="color:#bebebe;display:inline;overflow:visible;visibility:visible;fill:url(#linearGradient5756);fill-opacity:1;fill-rule:nonzero;stroke:none;stroke-width:2;marker:none;enable-background:accumulate"
         d="m 302.5,142.5 c -6.65502,0 -12,5.34498 -12,12 v 35 c 0,6.65502 5.34498,12 12,12 h 35 c 6.65502,0 12,-5.34498 12,-12 v -35 c 0,-6.65502 -5.34498,-12 -12,-12 z"
         id="path4212"
         inkscape:connector-curvature="0" />
    </g>
    <g
       inkscape:groupmode="layer"
       id="layer6"
       inkscape:label="Symbols"
       style="display:inline">
      <g
         id="g4764"
         transform="matrix(0.09599977,0,0,-0.09599977,286.15366,268.88123)"
         style="display:inline;enable-background:new">
        <path
           d="m 308.61035,297.64748 0.016,-0.013 C 284.19486,33.33969 149.11381,272.0112 123.39865,322.32738 v 49.4842 c 0,5.6824 6.6195,8.7913 10.9887,5.1609 l 115.5685,-96.0253 c 11.1753,-9.2856 27.3777,-9.2856 38.553,0 z"
           id="path4-37"
           inkscape:connector-curvature="0"
           style="clip-rule:evenodd;fill:url(#paint0_linear_6150_150885-15);fill-rule:evenodd;stroke-width:0.29800808"
           sodipodi:nodetypes="cccssccc" />
        <path
           style="fill:#6d4aff;fill-opacity:1;stroke-width:0.29800808"
           d="m 353.04685,334.56908 -44.4364,-36.9216 0.016,-0.013 -58.2018,-51.4378 c -9.9144,-8.7626 -24.7343,-8.9835 -34.9054,-0.5203 l -92.1188,76.6515 v -147.5425 c 0,-16.6724 13.5084,-30.1885 30.1722,-30.1885 h 199.4739 c 37.5028,75.5175 24.6553,114.4529 0,189.9726 z"
           id="path2-4"
           inkscape:connector-curvature="0"
           sodipodi:nodetypes="ccccccsscc" />
        <path
           inkscape:connector-curvature="0"
           style="clip-rule:evenodd;fill:url(#paint1_linear_6150_150885-6);fill-rule:evenodd;stroke-width:0.29800808"
           d="m 353.04695,334.56888 v -189.9724 h 31.8487 c 16.6638,0 30.1725,13.5171 30.1725,30.1885 v 197.0263 c 0,5.6825 -6.6197,8.7919 -10.9888,5.1608 z"
           id="path6-52" />
      </g>
      <g
         style="display:inline;enable-background:new"
         transform="matrix(0.23999582,0,0,-0.23999582,272.70047,139.43738)"
         id="g4411">
        <path
           d="m 295.25514,295.09983 0.013,-0.01 c -23.311,-157.40437 -119.70398,-35.97216 -148.1842,19.7544 v 39.5873 c 0,4.546 5.2956,7.033 8.791,4.1288 l 92.4547,-76.8203 c 8.9403,-7.4285 21.9022,-7.4285 30.8425,0 z"
           id="path4-32"
           inkscape:connector-curvature="0"
           style="clip-rule:evenodd;fill:url(#paint0_linear_6150_150885-7);fill-rule:evenodd;stroke-width:0.23840646"
           sodipodi:nodetypes="cccssccc" />
        <path
           style="fill:#6d4aff;fill-opacity:1;stroke-width:0.23840646"
           d="m 330.80434,324.63713 -35.5491,-29.5373 0.013,-0.011 -46.5614,-41.1502 c -7.9316,-7.0102 -19.7875,-7.1868 -27.9243,-0.4163 l -73.6951,61.3212 V 196.80954 c 0,-13.3379 10.8067,-24.1508 24.1377,-24.1508 h 159.5792 c 30.0022,60.41399 19.7242,91.56229 0,151.97809 z"
           id="path2-0"
           inkscape:connector-curvature="0"
           sodipodi:nodetypes="ccccccsscc" />
        <path
           inkscape:connector-curvature="0"
           style="clip-rule:evenodd;fill:url(#paint1_linear_6150_150885-50);fill-rule:evenodd;stroke-width:0.23840646"
           d="M 330.80444,324.63693 V 172.65904 h 25.479 c 13.3309,0 24.1379,10.8136 24.1379,24.1508 v 157.62109 c 0,4.5459 -5.2957,7.0334 -8.791,4.1286 z"
           id="path6-6" />
      </g>
      <g
         id="g4431"
         transform="matrix(0.15199964,0,0,-0.15199964,279.25078,210.4999)"
         style="display:inline;enable-background:new">
        <path
           d="m 305.39254,286.44305 0.015,-0.012 C 277.8065,100.03069 163.65437,243.83316 129.92814,309.82435 v 46.8798 c 0,5.3833 6.2711,8.3285 10.4103,4.8892 l 109.486,-90.9713 c 10.5871,-8.7969 25.9367,-8.7969 36.5239,0 z"
           id="path4-31"
           inkscape:connector-curvature="0"
           style="clip-rule:evenodd;fill:url(#paint0_linear_6150_150885-9);fill-rule:evenodd;stroke-width:0.28232345"
           sodipodi:nodetypes="cccssccc" />
        <path
           style="fill:#6d4aff;fill-opacity:1;stroke-width:0.28232345"
           d="m 347.49014,321.42135 -42.0976,-34.9783 0.015,-0.013 -55.1386,-48.7305 c -9.3926,-8.3015 -23.4325,-8.5107 -33.0682,-0.493 l -87.2705,72.6172 v -139.7771 c 0,-15.7949 12.7974,-28.5996 28.5841,-28.5996 h 188.9753 c 35.529,71.5429 23.3577,108.4291 0,179.974 z"
           id="path2-9"
           inkscape:connector-curvature="0"
           sodipodi:nodetypes="ccccccsscc" />
        <path
           inkscape:connector-curvature="0"
           style="clip-rule:evenodd;fill:url(#paint1_linear_6150_150885-97);fill-rule:evenodd;stroke-width:0.28232345"
           d="m 347.49034,321.42125 v -179.9739 h 30.1724 c 15.7867,0 28.5844,12.8056 28.5844,28.5997 v 186.6565 c 0,5.3833 -6.2712,8.329 -10.4104,4.8891 z"
           id="path6-4" />
      </g>
      <g
         style="display:inline;enable-background:new"
         transform="matrix(0.07999981,0,0,-0.07999981,410.68126,88.486597)"
         id="g4451">
        <path
           d="m 300.23715,287.26993 0.014,-0.011 c -20.94672,-226.535013 -136.72541,-21.96474 -158.768,21.1654 v 42.415 c 0,4.8707 5.6738,7.5354 9.4189,4.4237 l 99.0587,-82.3074 c 9.5788,-7.9592 23.4666,-7.9592 33.0454,0 z"
           id="path4-3"
           inkscape:connector-curvature="0"
           style="clip-rule:evenodd;fill:url(#paint0_linear_6150_150885-8);fill-rule:evenodd;stroke-width:0.2554355"
           sodipodi:nodetypes="cccssccc" />
        <path
           style="fill:#6d4aff;fill-opacity:1;stroke-width:0.2554355"
           d="m 338.32555,318.91693 -38.0883,-31.647 0.014,-0.012 -49.8872,-44.0896 c -8.4981,-7.5108 -21.2009,-7.7001 -29.9189,-0.446 l -78.959,65.7013 v -126.465 c 0,-14.2906 11.5786,-25.8758 25.8618,-25.8758 h 170.9777 c 32.1452,64.7293 21.1331,98.1025 0,162.8336 z"
           id="path2-7"
           inkscape:connector-curvature="0"
           sodipodi:nodetypes="ccccccsscc" />
        <path
           inkscape:connector-curvature="0"
           style="clip-rule:evenodd;fill:url(#paint1_linear_6150_150885-2);fill-rule:evenodd;stroke-width:0.2554355"
           d="m 338.32565,318.91683 v -162.8335 h 27.2989 c 14.2832,0 25.8621,11.586 25.8621,25.8759 v 168.8797 c 0,4.8706 -5.674,7.5358 -9.4189,4.4235 z"
           id="path6-5" />
      </g>
      <g
         id="g4471"
         transform="matrix(0.05599987,0,0,-0.05599987,413.07688,127.44062)"
         style="display:inline;enable-background:new">
        <path
           d="m 300.2371,299.76992 0.014,-0.011 C 276.42875,92.081508 167.07527,270.8488 141.4831,320.92432 v 42.415 c 0,4.8707 5.6738,7.5354 9.4189,4.4237 l 99.0587,-82.3075 c 9.5788,-7.9591 23.4666,-7.9591 33.0454,0 z"
           id="path4-62"
           inkscape:connector-curvature="0"
           style="clip-rule:evenodd;fill:url(#paint0_linear_6150_150885-1);fill-rule:evenodd;stroke-width:0.25543547"
           sodipodi:nodetypes="cccssccc" />
        <path
           style="fill:#6d4aff;fill-opacity:1;stroke-width:0.25543547"
           d="m 338.3255,331.41692 -38.0883,-31.647 0.014,-0.012 -49.8872,-44.0896 c -8.4981,-7.5108 -21.2009,-7.7001 -29.9189,-0.446 l -78.959,65.7013 v -126.465 c 0,-14.2906 11.5786,-25.8758 25.8618,-25.8758 h 170.9777 c 32.1452,64.7293 21.1331,98.1025 0,162.8336 z"
           id="path2-6"
           inkscape:connector-curvature="0"
           sodipodi:nodetypes="ccccccsscc" />
        <path
           inkscape:connector-curvature="0"
           style="clip-rule:evenodd;fill:url(#paint1_linear_6150_150885-9);fill-rule:evenodd;stroke-width:0.25543547"
           d="m 338.3256,331.41682 v -162.8335 h 27.2989 c 14.2832,0 25.8621,11.586 25.8621,25.8759 v 168.8797 c 0,4.8706 -5.674,7.5358 -9.4189,4.4235 z"
           id="path6-1" />
      </g>
      <g
         style="display:inline;enable-background:new"
         transform="matrix(0.0399999,0,0,-0.0399999,414.06855,158.49995)"
         id="g4491">
        <path
           d="m 282.03944,293.68576 0.01,-0.011 c -24.95258,-168.64967 -128.24573,-38.53752 -158.758,21.1654 v 42.4151 c 0,4.8706 5.674,7.5353 9.419,4.4236 l 99.059,-82.3074 c 9.578,-7.9591 23.466,-7.9591 33.045,0 z"
           id="path4-6"
           inkscape:connector-curvature="0"
           style="clip-rule:evenodd;fill:url(#paint0_linear_6150_150885-3);fill-rule:evenodd;stroke-width:0.25543553"
           sodipodi:nodetypes="cccssccc" />
        <path
           style="fill:#6d4aff;fill-opacity:1;stroke-width:0.25543553"
           d="m 320.12844,325.33286 -38.089,-31.6471 0.01,-0.011 -49.887,-44.0895 c -8.498,-7.5109 -21.201,-7.7002 -29.919,-0.4461 l -78.959,65.7014 v -126.4651 c 0,-14.2906 11.579,-25.8758 25.862,-25.8758 h 170.978 c 32.145,64.7293 21.133,98.1025 0,162.8337 z"
           id="path2-2"
           inkscape:connector-curvature="0"
           sodipodi:nodetypes="ccccccsscc" />
        <path
           inkscape:connector-curvature="0"
           style="clip-rule:evenodd;fill:url(#paint1_linear_6150_150885-5);fill-rule:evenodd;stroke-width:0.25543553"
           d="m 320.12844,325.33266 v -162.8335 h 27.299 c 14.283,0 25.862,11.586 25.862,25.8759 v 168.8797 c 0,4.8706 -5.674,7.5358 -9.419,4.4235 z"
           id="path6-9" />
      </g>
      <g
         id="g4511"
         transform="matrix(0.57599862,0,0,-0.57599862,0.17954969,296.69432)"
         style="display:inline;enable-background:new">
        <path
           d="m 282.50229,274.5816 0.0135,-0.0109 C 258.24103,110.60701 157.82689,237.10111 128.1607,295.14816 V 336.385 c 0,4.73533 5.51623,7.32605 9.15724,4.30075 l 96.30708,-80.0211 c 9.31275,-7.73803 22.81475,-7.73803 32.12751,0 z"
           id="path4"
           inkscape:connector-curvature="0"
           style="clip-rule:evenodd;fill:url(#paint0_linear_6150_150885);fill-rule:evenodd;stroke-width:0.24834007"
           sodipodi:nodetypes="cccssccc" />
        <path
           style="fill:#6d4aff;fill-opacity:1;stroke-width:0.24834007"
           d="m 319.53266,305.34959 -37.03033,-30.76797 0.0136,-0.0111 -48.5015,-42.86486 c -8.26202,-7.30219 -20.61195,-7.48624 -29.0878,-0.43363 l -76.7657,63.87627 V 172.19619 c 0,-13.89363 11.25701,-25.15704 25.14346,-25.15704 h 166.22828 c 31.25232,62.93129 20.54611,95.37743 0,158.31049 z"
           id="path2"
           inkscape:connector-curvature="0"
           sodipodi:nodetypes="ccccccsscc" />
        <path
           inkscape:connector-curvature="0"
           style="clip-rule:evenodd;fill:url(#paint1_linear_6150_150885);fill-rule:evenodd;stroke-width:0.24834007"
           d="M 319.53277,305.34944 V 147.0391 h 26.5406 c 13.88643,0 25.14369,11.26421 25.14369,25.1571 v 164.1886 c 0,4.73535 -5.51638,7.32651 -9.15729,4.30064 z"
           id="path6" />
      </g>
    </g>
    <g
       inkscape:groupmode="layer"
       id="layer5"
       inkscape:label="Highlights"
       style="display:inline">
      <path
         style="color:#bebebe;display:inline;overflow:visible;visibility:visible;opacity:0.12999998;fill:#ffffff;fill-opacity:1;fill-rule:nonzero;stroke:none;stroke-width:0;marker:none;enable-background:accumulate"
         d="M 84,47 C 56.836703,47 35,68.836703 35,96 v 1 C 35,69.836703 56.836703,48 84,48 h 120 c 27.1633,0 49,21.836703 49,49 V 96 C 253,68.836703 231.1633,47 204,47 Z"
         id="rect3894"
         inkscape:connector-curvature="0" />
      <path
         style="color:#bebebe;display:inline;overflow:visible;visibility:visible;opacity:0.12999998;fill:#ffffff;fill-opacity:1;fill-rule:nonzero;stroke:none;stroke-width:0;marker:none;enable-background:accumulate"
         d="m 419,141 c -1.1253,0 -2,0.8747 -2,2 v 1 c 0,-1.1253 0.8747,-2 2,-2 h 10 c 1.1253,0 2,0.8747 2,2 v -1 c 0,-1.1253 -0.8747,-2 -2,-2 z"
         id="rect3896"
         inkscape:connector-curvature="0" />
      <path
         style="color:#bebebe;display:inline;overflow:visible;visibility:visible;opacity:0.12999998;fill:#ffffff;fill-opacity:1;fill-rule:nonzero;stroke:none;stroke-width:0;marker:none;enable-background:accumulate"
         d="m 422,102 c -2.2333,0 -4,1.7667 -4,4 v 1 c 0,-2.2333 1.7667,-4 4,-4 h 12 c 2.2333,0 4,1.7667 4,4 v -1 c 0,-2.2333 -1.7667,-4 -4,-4 z"
         id="rect3898"
         inkscape:connector-curvature="0" />
      <path
         style="color:#bebebe;display:inline;overflow:visible;visibility:visible;opacity:0.12999998;fill:#ffffff;fill-opacity:1;fill-rule:nonzero;stroke:none;stroke-width:0;marker:none;enable-background:accumulate"
         d="m 424,54 c -3.3413,0 -6,2.658703 -6,6 v 1 c 0,-3.341297 2.6587,-6 6,-6 h 16 c 3.3413,0 6,2.658703 6,6 v -1 c 0,-3.341297 -2.6587,-6 -6,-6 z"
         id="rect3900"
         inkscape:connector-curvature="0" />
      <path
         style="color:#bebebe;display:inline;overflow:visible;visibility:visible;opacity:0.12999998;fill:#ffffff;fill-opacity:1;fill-rule:nonzero;stroke:none;stroke-width:0;marker:none;enable-background:accumulate"
         d="m 300,224 c -4.4493,0 -8,3.5507 -8,8 v 1 c 0,-4.4493 3.5507,-8 8,-8 h 24 c 4.4493,0 8,3.5507 8,8 v -1 c 0,-4.4493 -3.5507,-8 -8,-8 z"
         id="rect3902"
         inkscape:connector-curvature="0" />
      <path
         style="color:#bebebe;display:inline;overflow:visible;visibility:visible;opacity:0.12999998;fill:#ffffff;fill-opacity:1;fill-rule:nonzero;stroke:none;stroke-width:0;marker:none;enable-background:accumulate"
         d="m 310,33 c -9.4353,0 -17,7.564703 -17,17 v 1 c 0,-9.435297 7.5647,-17 17,-17 h 52 c 9.4353,0 17,7.564703 17,17 v -1 c 0,-9.435297 -7.5647,-17 -17,-17 z"
         id="rect3904"
         inkscape:connector-curvature="0" />
      <path
         style="color:#bebebe;display:inline;overflow:visible;visibility:visible;opacity:0.12999998;fill:#ffffff;fill-opacity:1;fill-rule:nonzero;stroke:none;stroke-width:0;marker:none;enable-background:accumulate"
         d="m 302.5,143 c -6.3883,0 -11.5,5.1117 -11.5,11.5 v 1 c 0,-6.3883 5.1117,-11.5 11.5,-11.5 h 35 c 6.3883,0 11.5,5.1117 11.5,11.5 v -1 c 0,-6.3883 -5.1117,-11.5 -11.5,-11.5 z"
         id="rect3906"
         inkscape:connector-curvature="0" />
      <path
         id="path4085"
         d="m 204,266 c 27.1633,0 49,-21.8367 49,-49 v -1 c 0,27.1633 -21.8367,49 -49,49 H 84 C 56.8367,265 35,243.1633 35,216 v 1 c 0,27.1633 21.8367,49 49,49 z"
         style="color:#bebebe;display:inline;overflow:visible;visibility:visible;opacity:0.12999998;fill:#000000;fill-opacity:1;fill-rule:nonzero;stroke:none;stroke-width:0;marker:none;enable-background:accumulate"
         inkscape:connector-curvature="0" />
      <path
         id="path4087"
         d="m 429,156 c 1.1253,0 2,-0.8747 2,-2 v -1 c 0,1.1253 -0.8747,2 -2,2 h -10 c -1.1253,0 -2,-0.8747 -2,-2 v 1 c 0,1.1253 0.8747,2 2,2 z"
         style="color:#bebebe;display:inline;overflow:visible;visibility:visible;opacity:0.15;fill:#000000;fill-opacity:1;fill-rule:nonzero;stroke:none;stroke-width:0;marker:none;enable-background:accumulate"
         inkscape:connector-curvature="0" />
      <path
         id="path4089"
         d="m 434,123 c 2.2333,0 4,-1.7667 4,-4 v -1 c 0,2.2333 -1.7667,4 -4,4 h -12 c -2.2333,0 -4,-1.7667 -4,-4 v 1 c 0,2.2333 1.7667,4 4,4 z"
         style="color:#bebebe;display:inline;overflow:visible;visibility:visible;opacity:0.15;fill:#000000;fill-opacity:1;fill-rule:nonzero;stroke:none;stroke-width:0;marker:none;enable-background:accumulate"
         inkscape:connector-curvature="0" />
      <path
         id="path4091"
         d="m 440,83 c 3.3413,0 6,-2.6587 6,-6 v -1 c 0,3.3413 -2.6587,6 -6,6 h -16 c -3.3413,0 -6,-2.6587 -6,-6 v 1 c 0,3.3413 2.6587,6 6,6 z"
         style="color:#bebebe;display:inline;overflow:visible;visibility:visible;opacity:0.12999998;fill:#000000;fill-opacity:1;fill-rule:nonzero;stroke:none;stroke-width:0;marker:none;enable-background:accumulate"
         inkscape:connector-curvature="0" />
      <path
         id="path4093"
         d="m 324,265 c 4.4493,0 8,-3.5507 8,-8 v -1 c 0,4.4493 -3.5507,8 -8,8 h -24 c -4.4493,0 -8,-3.5507 -8,-8 v 1 c 0,4.4493 3.5507,8 8,8 z"
         style="color:#bebebe;display:inline;overflow:visible;visibility:visible;opacity:0.12999998;fill:#000000;fill-opacity:1;fill-rule:nonzero;stroke:none;stroke-width:0;marker:none;enable-background:accumulate"
         inkscape:connector-curvature="0" />
      <path
         id="path4095"
         d="m 362,120 c 9.4353,0 17,-7.5647 17,-17 v -1 c 0,9.4353 -7.5647,17 -17,17 h -52 c -9.4353,0 -17,-7.5647 -17,-17 v 1 c 0,9.4353 7.5647,17 17,17 z"
         style="color:#bebebe;display:inline;overflow:visible;visibility:visible;opacity:0.12999998;fill:#000000;fill-opacity:1;fill-rule:nonzero;stroke:none;stroke-width:0;marker:none;enable-background:accumulate"
         inkscape:connector-curvature="0" />
      <path
         id="path4097"
         d="m 337.5,202 c 6.3883,0 11.5,-5.1117 11.5,-11.5 v -1 c 0,6.3883 -5.1117,11.5 -11.5,11.5 h -35 c -6.3883,0 -11.5,-5.1117 -11.5,-11.5 v 1 c 0,6.3883 5.1117,11.5 11.5,11.5 z"
         style="color:#bebebe;display:inline;overflow:visible;visibility:visible;opacity:0.12999998;fill:#000000;fill-opacity:1;fill-rule:nonzero;stroke:none;stroke-width:0;marker:none;enable-background:accumulate"
         inkscape:connector-curvature="0" />
      <path
         inkscape:connector-curvature="0"
         id="path4280"
         d="M 84,265 C 56.836703,265 35,243.1633 35,216 v -1 c 0,27.1633 21.836703,49 49,49 h 120 c 27.1633,0 49,-21.8367 49,-49 v 1 c 0,27.1633 -21.8367,49 -49,49 z"
         style="color:#bebebe;display:inline;overflow:visible;visibility:visible;opacity:0.1;fill:#ffffff;fill-opacity:1;fill-rule:nonzero;stroke:none;stroke-width:0;marker:none;enable-background:accumulate" />
      <path
         style="color:#bebebe;display:inline;overflow:visible;visibility:visible;opacity:0.1;fill:#ffffff;fill-opacity:1;fill-rule:nonzero;stroke:none;stroke-width:0;marker:none;enable-background:accumulate"
         d="m 300,264 c -4.4493,0 -8,-3.5507 -8,-8 v -1 c 0,4.4493 3.5507,8 8,8 h 24 c 4.4493,0 8,-3.5507 8,-8 v 1 c 0,4.4493 -3.5507,8 -8,8 z"
         id="path4294"
         inkscape:connector-curvature="0" />
      <path
         style="color:#bebebe;display:inline;overflow:visible;visibility:visible;opacity:0.1;fill:#ffffff;fill-opacity:1;fill-rule:nonzero;stroke:none;stroke-width:0;marker:none;enable-background:accumulate"
         d="m 302.5,201 c -6.3883,0 -11.5,-5.1117 -11.5,-11.5 v -1 c 0,6.3883 5.1117,11.5 11.5,11.5 h 35 c 6.3883,0 11.5,-5.1117 11.5,-11.5 v 1 c 0,6.3883 -5.1117,11.5 -11.5,11.5 z"
         id="path4296"
         inkscape:connector-curvature="0" />
      <path
         style="color:#bebebe;display:inline;overflow:visible;visibility:visible;opacity:0.1;fill:#ffffff;fill-opacity:1;fill-rule:nonzero;stroke:none;stroke-width:0;marker:none;enable-background:accumulate"
         d="m 310,119 c -9.4353,0 -17,-7.5647 -17,-17 v -1 c 0,9.4353 7.5647,17 17,17 h 52 c 9.4353,0 17,-7.5647 17,-17 v 1 c 0,9.4353 -7.5647,17 -17,17 z"
         id="path4298"
         inkscape:connector-curvature="0" />
      <path
         style="color:#bebebe;display:inline;overflow:visible;visibility:visible;opacity:0.1;fill:#ffffff;fill-opacity:1;fill-rule:nonzero;stroke:none;stroke-width:0;marker:none;enable-background:accumulate"
         d="m 424,82 c -3.3413,0 -6,-2.658703 -6,-6 v -1 c 0,3.341297 2.6587,6 6,6 h 16 c 3.3413,0 6,-2.658703 6,-6 v 1 c 0,3.341297 -2.6587,6 -6,6 z"
         id="path4300"
         inkscape:connector-curvature="0" />
      <path
         style="color:#bebebe;display:inline;overflow:visible;visibility:visible;opacity:0.1;fill:#ffffff;fill-opacity:1;fill-rule:nonzero;stroke:none;stroke-width:0;marker:none;enable-background:accumulate"
         d="m 422,122 c -2.2333,0 -4,-1.7667 -4,-4 v -1 c 0,2.2333 1.7667,4 4,4 h 12 c 2.2333,0 4,-1.7667 4,-4 v 1 c 0,2.2333 -1.7667,4 -4,4 z"
         id="path4302"
         inkscape:connector-curvature="0" />
      <path
         style="color:#bebebe;display:inline;overflow:visible;visibility:visible;opacity:0.1;fill:#ffffff;fill-opacity:1;fill-rule:nonzero;stroke:none;stroke-width:0;marker:none;enable-background:accumulate"
         d="m 419,154.5 c -1.1253,0 -2,-0.8747 -2,-2 v -1 c 0,1.1253 0.8747,2 2,2 h 10 c 1.1253,0 2,-0.8747 2,-2 v 1 c 0,1.1253 -0.8747,2 -2,2 z"
         id="path4304"
         inkscape:connector-curvature="0" />
    </g>
    <g
       inkscape:groupmode="layer"
       id="layer3"
       inkscape:label="Border"
       style="display:inline"
       sodipodi:insensitive="true">
      <path
         style="color:#bebebe;display:inline;overflow:visible;visibility:visible;opacity:0.41000001;fill:#000000;fill-opacity:1;fill-rule:nonzero;stroke:none;stroke-width:0;marker:none;enable-background:accumulate"
         d="m 422,101 c -2.77,0 -5,2.23 -5,5 v 12 c 0,2.77 2.23,5 5,5 h 12 c 2.77,0 5,-2.23 5,-5 v -12 c 0,-2.77 -2.23,-5 -5,-5 z m 0,1 h 12 c 2.2333,0 4,1.7667 4,4 v 12 c 0,2.2333 -1.7667,4 -4,4 h -12 c -2.2333,0 -4,-1.7667 -4,-4 v -12 c 0,-2.2333 1.7667,-4 4,-4 z"
         id="rect4099"
         inkscape:connector-curvature="0" />
      <path
         style="color:#bebebe;display:inline;overflow:visible;visibility:visible;opacity:0.41000001;fill:#000000;fill-opacity:1;fill-rule:nonzero;stroke:none;stroke-width:0;marker:none;enable-background:accumulate"
         d="m 424,53 c -3.878,0 -7,3.122 -7,7 v 16 c 0,3.878 3.122,7 7,7 h 16 c 3.878,0 7,-3.122 7,-7 V 60 c 0,-3.878 -3.122,-7 -7,-7 z m 0,1 h 16 c 3.3413,0 6,2.658703 6,6 v 16 c 0,3.341297 -2.6587,6 -6,6 h -16 c -3.3413,0 -6,-2.658703 -6,-6 V 60 c 0,-3.341297 2.6587,-6 6,-6 z"
         id="rect4151"
         inkscape:connector-curvature="0" />
      <path
         style="color:#bebebe;display:inline;overflow:visible;visibility:visible;opacity:0.41000001;fill:#000000;fill-opacity:1;fill-rule:nonzero;stroke:none;stroke-width:0;marker:none;enable-background:accumulate"
         d="m 419,140 c -1.662,0 -3,1.338 -3,3 v 10 c 0,1.662 1.338,3 3,3 h 10 c 1.662,0 3,-1.338 3,-3 v -10 c 0,-1.662 -1.338,-3 -3,-3 z m 0,1 h 10 c 1.1253,0 2,0.8747 2,2 v 10 c 0,1.1253 -0.8747,2 -2,2 h -10 c -1.1253,0 -2,-0.8747 -2,-2 v -10 c 0,-1.1253 0.8747,-2 2,-2 z"
         id="rect4095"
         inkscape:connector-curvature="0" />
      <path
         style="color:#bebebe;display:inline;overflow:visible;visibility:visible;opacity:0.41000001;fill:#000000;fill-opacity:1;fill-rule:nonzero;stroke:none;stroke-width:0;marker:none;enable-background:accumulate"
         d="m 300,223 c -4.986,0 -9,4.014 -9,9 v 24 c 0,4.986 4.014,9 9,9 h 24 c 4.986,0 9,-4.014 9,-9 v -24 c 0,-4.986 -4.014,-9 -9,-9 z m 0,1 h 24 c 4.4493,0 8,3.5507 8,8 v 24 c 0,4.4493 -3.5507,8 -8,8 h -24 c -4.4493,0 -8,-3.5507 -8,-8 v -24 c 0,-4.4493 3.5507,-8 8,-8 z"
         id="rect4783"
         inkscape:connector-curvature="0" />
      <path
         style="color:#bebebe;display:inline;overflow:visible;visibility:visible;opacity:0.41000001;fill:#000000;fill-opacity:1;fill-rule:nonzero;stroke:none;stroke-width:0;marker:none;enable-background:accumulate"
         d="m 302.5,142 c -6.925,0 -12.5,5.575 -12.5,12.5 v 35 c 0,6.925 5.575,12.5 12.5,12.5 h 35 c 6.925,0 12.5,-5.575 12.5,-12.5 v -35 c 0,-6.925 -5.575,-12.5 -12.5,-12.5 z m 0,1 h 35 c 6.3883,0 11.5,5.1117 11.5,11.5 v 35 c 0,6.3883 -5.1117,11.5 -11.5,11.5 h -35 c -6.3883,0 -11.5,-5.1117 -11.5,-11.5 v -35 c 0,-6.3883 5.1117,-11.5 11.5,-11.5 z"
         id="rect4515"
         inkscape:connector-curvature="0" />
      <path
         style="color:#bebebe;display:inline;overflow:visible;visibility:visible;opacity:0.41000001;fill:#000000;fill-opacity:1;fill-rule:nonzero;stroke:none;stroke-width:0;marker:none;enable-background:accumulate"
         d="m 310,32 c -9.972,0 -18,8.028 -18,18 v 52 c 0,9.972 8.028,18 18,18 h 52 c 9.972,0 18,-8.028 18,-18 V 50 c 0,-9.972 -8.028,-18 -18,-18 z m 0,1 h 52 c 9.4353,0 17,7.564703 17,17 v 52 c 0,9.4353 -7.5647,17 -17,17 h -52 c -9.4353,0 -17,-7.5647 -17,-17 V 50 c 0,-9.435297 7.5647,-17 17,-17 z"
         id="rect4511"
         inkscape:connector-curvature="0" />
      <path
         style="color:#bebebe;display:inline;overflow:visible;visibility:visible;opacity:0.41000001;fill:#000000;fill-opacity:1;fill-rule:nonzero;stroke:none;stroke-width:0;marker:none;enable-background:accumulate"
         d="M 84,46 C 56.3,46 34,68.3 34,96 v 120 c 0,27.7 22.3,50 50,50 h 120 c 27.7,0 50,-22.3 50,-50 V 96 C 254,68.3 231.7,46 204,46 Z m 0,1 h 120 c 27.1633,0 49,21.836703 49,49 v 120 c 0,27.1633 -21.8367,49 -49,49 H 84 C 56.836703,265 35,243.1633 35,216 V 96 C 35,68.836703 56.836703,47 84,47 Z"
         id="rect4040"
         inkscape:connector-curvature="0" />
    </g>
  </g>
</svg>
