<?xml version="1.0" encoding="UTF-8" standalone="no"?>
<svg
   xmlns:dc="http://purl.org/dc/elements/1.1/"
   xmlns:cc="http://creativecommons.org/ns#"
   xmlns:rdf="http://www.w3.org/1999/02/22-rdf-syntax-ns#"
   xmlns:svg="http://www.w3.org/2000/svg"
   xmlns="http://www.w3.org/2000/svg"
   xmlns:xlink="http://www.w3.org/1999/xlink"
   xmlns:sodipodi="http://sodipodi.sourceforge.net/DTD/sodipodi-0.dtd"
   xmlns:inkscape="http://www.inkscape.org/namespaces/inkscape"
   inkscape:export-ydpi="90.000000"
   inkscape:export-xdpi="90.000000"
   width="480"
   height="300"
   id="svg11300"
   sodipodi:version="0.32"
   inkscape:version="1.0.2 (e86c870, 2021-01-15)"
   sodipodi:docname="web-telegram.svg"
   inkscape:output_extension="org.inkscape.output.svg.inkscape"
   version="1.0"
   style="display:inline;enable-background:new"
   inkscape:export-filename="/home/sam/moka-next-template.png">
  <sodipodi:namedview
     stroke="#ef2929"
     fill="#f57900"
     id="base"
     pagecolor="#777777"
     bordercolor="#666666"
     borderopacity="0.25490196"
     inkscape:pageopacity="0"
     inkscape:pageshadow="2"
     inkscape:zoom="1"
     inkscape:cx="259.38343"
     inkscape:cy="83.249844"
     inkscape:current-layer="layer6"
     showgrid="false"
     inkscape:grid-bbox="true"
     inkscape:document-units="px"
     inkscape:showpageshadow="false"
     inkscape:window-width="1366"
     inkscape:window-height="703"
     inkscape:window-x="0"
     inkscape:window-y="0"
     width="400px"
     height="300px"
     inkscape:snap-nodes="true"
     inkscape:snap-bbox="true"
     gridtolerance="10000"
     inkscape:object-nodes="true"
     inkscape:snap-grids="true"
     showguides="true"
     inkscape:guide-bbox="true"
     inkscape:window-maximized="1"
     inkscape:bbox-nodes="true"
     inkscape:bbox-paths="true"
     inkscape:snap-bbox-edge-midpoints="true"
     inkscape:snap-bbox-midpoints="true"
     inkscape:document-rotation="0">
    <inkscape:grid
       spacingy="1px"
       spacingx="1px"
       id="grid5883"
       type="xygrid"
       enabled="true"
       visible="true"
       empspacing="4"
       snapvisiblegridlinesonly="true"
       dotted="false"
       color="#000000"
       opacity="0.1254902"
       empcolor="#203ef3"
       empopacity="0.36470588" />
    <inkscape:grid
       type="xygrid"
       id="grid11592"
       empspacing="8"
       visible="true"
       enabled="false"
       spacingx="0.5px"
       spacingy="0.5px"
       color="#ff0000"
       opacity="0.1254902"
       empcolor="#ff0000"
       empopacity="0.25098039"
       snapvisiblegridlinesonly="true"
       dotted="true" />
  </sodipodi:namedview>
  <defs
     id="defs3">
    <linearGradient
       inkscape:collect="always"
       xlink:href="#outerBackgroundGradient-533"
       id="linearGradient4256"
       x1="417"
       y1="148"
       x2="431"
       y2="148"
       gradientUnits="userSpaceOnUse"
       gradientTransform="matrix(0,-1,1,0,276,572)" />
    <linearGradient
       inkscape:collect="always"
       xlink:href="#outerBackgroundGradient-533"
       id="linearGradient4260"
       x1="418"
       y1="68"
       x2="446"
       y2="68"
       gradientUnits="userSpaceOnUse"
       gradientTransform="matrix(0,-1,1,0,364,500)" />
    <linearGradient
       inkscape:collect="always"
       xlink:href="#outerBackgroundGradient-533"
       id="linearGradient4262"
       x1="292"
       y1="244"
       x2="332"
       y2="244"
       gradientUnits="userSpaceOnUse"
       gradientTransform="matrix(0,-1,1,0,68,556)" />
    <linearGradient
       inkscape:collect="always"
       xlink:href="#outerBackgroundGradient-533"
       id="linearGradient4264"
       x1="293"
       y1="76"
       x2="379"
       y2="76"
       gradientUnits="userSpaceOnUse"
       gradientTransform="matrix(0,-1,1,0,260,412)" />
    <linearGradient
       inkscape:collect="always"
       xlink:href="#outerBackgroundGradient-533"
       id="linearGradient4266"
       x1="291"
       y1="172"
       x2="349"
       y2="172"
       gradientUnits="userSpaceOnUse"
       gradientTransform="matrix(0,-1,1,0,148,492)" />
    <linearGradient
       inkscape:collect="always"
       xlink:href="#outerBackgroundGradient-533"
       id="linearGradient3870"
       gradientUnits="userSpaceOnUse"
       x1="418"
       y1="112"
       x2="438"
       y2="112"
       gradientTransform="matrix(0,-1,1,0,316,540)" />
    <linearGradient
       inkscape:collect="always"
       xlink:href="#outerBackgroundGradient-533"
       id="linearGradient7128"
       gradientUnits="userSpaceOnUse"
       gradientTransform="matrix(0,-1,1,0,-12,300)"
       x1="35"
       y1="156"
       x2="253"
       y2="156" />
    <linearGradient
       id="outerBackgroundGradient-533">
      <stop
         style="stop-color:#2195d4;stop-opacity:1"
         offset="0"
         id="stop3864-8-6-45" />
      <stop
         style="stop-color:#2fb2ee;stop-opacity:1"
         offset="1"
         id="stop3866-9-1-121" />
    </linearGradient>
    <linearGradient
       x1="500"
       y1="0"
       x2="500"
       y2="992.58339"
       id="linearGradient-1"
       gradientUnits="userSpaceOnUse">
      <stop
         stop-color="#2AABEE"
         offset="0%"
         id="stop8416" />
      <stop
         stop-color="#229ED9"
         offset="100%"
         id="stop8418" />
    </linearGradient>
  </defs>
  <metadata
     id="metadata4">
    <rdf:RDF>
      <cc:Work
         rdf:about="">
        <dc:format>image/svg+xml</dc:format>
        <dc:type
           rdf:resource="http://purl.org/dc/dcmitype/StillImage" />
        <dc:creator>
          <cc:Agent>
            <dc:title>Sam Hewitt</dc:title>
          </cc:Agent>
        </dc:creator>
        <dc:source />
        <cc:license
           rdf:resource="" />
        <dc:title />
        <dc:subject>
          <rdf:Bag />
        </dc:subject>
        <dc:date />
        <dc:rights>
          <cc:Agent>
            <dc:title />
          </cc:Agent>
        </dc:rights>
        <dc:publisher>
          <cc:Agent>
            <dc:title />
          </cc:Agent>
        </dc:publisher>
        <dc:identifier />
        <dc:relation />
        <dc:language />
        <dc:coverage />
        <dc:description />
        <dc:contributor>
          <cc:Agent>
            <dc:title />
          </cc:Agent>
        </dc:contributor>
      </cc:Work>
      <cc:Work
         rdf:about="">
        <dc:format>image/svg+xml</dc:format>
        <dc:type
           rdf:resource="http://purl.org/dc/dcmitype/StillImage" />
      </cc:Work>
    </rdf:RDF>
  </metadata>
  <g
     style="display:inline"
     inkscape:groupmode="layer"
     inkscape:label="Icon"
     id="layer1">
    <g
       style="display:none"
       inkscape:label="Baseplate"
       id="layer7"
       inkscape:groupmode="layer">
      <text
         y="19.745117"
         xml:space="preserve"
         x="15.006836"
         style="font-style:normal;font-variant:normal;font-weight:normal;font-stretch:normal;line-height:0%;font-family:'DejaVu Sans';-inkscape-font-specification:'DejaVu Sans';display:inline;fill:#000000;fill-opacity:1;stroke:none;enable-background:new"
         inkscape:label="context"
         id="context"><tspan
           style="font-style:normal;font-variant:normal;font-weight:normal;font-stretch:normal;font-size:18px;line-height:1.25;font-family:'DejaVu Sans';-inkscape-font-specification:'DejaVu Sans'"
           y="19.745117"
           x="15.006836"
           sodipodi:role="line"
           id="tspan3933">apps</tspan></text>
      <text
         y="19.745117"
         xml:space="preserve"
         x="122.48828"
         style="font-style:normal;font-variant:normal;font-weight:bold;font-stretch:normal;line-height:0%;font-family:'DejaVu Sans';-inkscape-font-specification:'DejaVu Sans Bold';text-align:start;writing-mode:lr-tb;text-anchor:start;display:inline;fill:#000000;fill-opacity:1;stroke:none;enable-background:new"
         inkscape:label="icon-name"
         id="icon-name"><tspan
           style="font-style:normal;font-variant:normal;font-weight:bold;font-stretch:normal;font-size:18px;line-height:1.25;font-family:'DejaVu Sans';-inkscape-font-specification:'DejaVu Sans Bold';opacity:0.99"
           y="19.745117"
           x="122.48828"
           sodipodi:role="line"
           id="tspan3937">web-telegram</tspan></text>
      <rect
         style="display:inline;overflow:visible;visibility:visible;fill:#eeeeec;fill-opacity:1;fill-rule:nonzero;stroke:none;stroke-width:2;marker:none;enable-background:accumulate"
         id="rect16x16"
         width="16"
         height="16"
         x="416"
         y="140"
         inkscape:label="16x16" />
      <rect
         style="display:inline;overflow:visible;visibility:visible;fill:#d4d4d4;fill-opacity:1;fill-rule:nonzero;stroke:none;stroke-width:2;marker:none;enable-background:accumulate"
         id="rect24x24"
         width="24"
         height="24"
         x="416"
         y="100"
         inkscape:label="24x24" />
      <rect
         style="display:inline;overflow:visible;visibility:visible;fill:#eeeeec;fill-opacity:1;fill-rule:nonzero;stroke:none;stroke-width:2;marker:none;enable-background:accumulate"
         id="rect32x32"
         width="32"
         height="32"
         x="416"
         y="52"
         inkscape:label="32x32" />
      <rect
         inkscape:label="22x22"
         y="101"
         x="417"
         height="22"
         width="22"
         id="rect22x22"
         style="display:inline;overflow:visible;visibility:visible;fill:#eeeeec;fill-opacity:1;fill-rule:nonzero;stroke:none;stroke-width:2;marker:none;enable-background:accumulate" />
      <rect
         inkscape:label="48x48"
         y="220"
         x="288"
         height="48"
         width="48"
         id="rect48x48"
         style="display:inline;overflow:visible;visibility:visible;fill:#eeeeec;fill-opacity:1;fill-rule:nonzero;stroke:none;stroke-width:2;marker:none;enable-background:accumulate" />
      <rect
         style="display:inline;overflow:visible;visibility:visible;fill:#eeeeec;fill-opacity:1;fill-rule:nonzero;stroke:none;stroke-width:2;marker:none;enable-background:accumulate"
         id="rect256x256"
         width="256"
         height="256"
         x="16"
         y="28"
         inkscape:label="256x256" />
      <rect
         style="display:inline;overflow:visible;visibility:visible;fill:#eeeeec;fill-opacity:1;fill-rule:nonzero;stroke:none;stroke-width:2;marker:none;enable-background:accumulate"
         id="rect64x64"
         width="64"
         height="64"
         x="288"
         y="140"
         inkscape:label="64x64" />
      <rect
         style="display:inline;overflow:visible;visibility:visible;fill:#eeeeec;fill-opacity:1;fill-rule:nonzero;stroke:none;stroke-width:2;marker:none;enable-background:accumulate"
         id="rect96x96"
         width="96"
         height="96"
         x="288"
         y="28"
         inkscape:label="96x96" />
    </g>
    <g
       inkscape:groupmode="layer"
       id="layer4"
       inkscape:label="Shadow"
       style="display:inline"
       sodipodi:insensitive="true">
      <rect
         ry="50"
         y="47"
         x="34"
         height="220"
         width="220"
         id="rect4114"
         style="color:#bebebe;display:inline;overflow:visible;visibility:visible;opacity:0.1;fill:#000000;fill-opacity:1;fill-rule:nonzero;stroke:none;stroke-width:0;marker:none;enable-background:accumulate" />
      <rect
         style="color:#bebebe;display:inline;overflow:visible;visibility:visible;opacity:0.1;fill:#000000;fill-opacity:1;fill-rule:nonzero;stroke:none;stroke-width:0;marker:none;enable-background:accumulate"
         id="rect4120"
         width="30"
         height="30"
         x="417"
         y="54"
         ry="7" />
      <rect
         transform="scale(1,-1)"
         ry="9"
         y="-266"
         x="291"
         height="42"
         width="42"
         id="rect4122"
         style="color:#bebebe;display:inline;overflow:visible;visibility:visible;opacity:0.1;fill:#000000;fill-opacity:1;fill-rule:nonzero;stroke:none;stroke-width:0;marker:none;enable-background:accumulate" />
      <rect
         style="color:#bebebe;display:inline;overflow:visible;visibility:visible;opacity:0.1;fill:#000000;fill-opacity:1;fill-rule:nonzero;stroke:none;stroke-width:0;marker:none;enable-background:accumulate"
         id="rect4124"
         width="88"
         height="88"
         x="292"
         y="33"
         ry="18" />
      <rect
         ry="12.5"
         y="143"
         x="290"
         height="60"
         width="60"
         id="rect4126"
         style="color:#bebebe;display:inline;overflow:visible;visibility:visible;opacity:0.1;fill:#000000;fill-opacity:1;fill-rule:nonzero;stroke:none;stroke-width:0;marker:none;enable-background:accumulate" />
      <path
         id="path4268"
         d="m 422,101 c -2.77,0 -5,2.23 -5,5 v 12 c 0,2.77 2.23,5 5,5 h 12 c 2.77,0 5,-2.23 5,-5 v -12 c 0,-2.77 -2.23,-5 -5,-5 z"
         style="color:#bebebe;display:inline;overflow:visible;visibility:visible;opacity:0.1;fill:#000000;fill-opacity:1;fill-rule:nonzero;stroke:none;stroke-width:0;marker:none;enable-background:accumulate"
         inkscape:connector-curvature="0"
         sodipodi:nodetypes="sssssssss" />
      <path
         id="path4270"
         d="m 419,140 c -1.662,0 -3,1.338 -3,3 v 10 c 0,1.662 1.338,3 3,3 h 10 c 1.662,0 3,-1.338 3,-3 v -10 c 0,-1.662 -1.338,-3 -3,-3 z"
         style="color:#bebebe;display:inline;overflow:visible;visibility:visible;opacity:0.1;fill:#000000;fill-opacity:1;fill-rule:nonzero;stroke:none;stroke-width:0;marker:none;enable-background:accumulate"
         inkscape:connector-curvature="0"
         sodipodi:nodetypes="sssssssss" />
    </g>
    <g
       inkscape:groupmode="layer"
       id="layer2"
       inkscape:label="Background"
       style="display:inline">
      <path
         style="color:#bebebe;display:inline;overflow:visible;visibility:visible;fill:url(#linearGradient7128);fill-opacity:1;fill-rule:nonzero;stroke:none;stroke-width:2;marker:none;enable-background:accumulate"
         d="M 84,46.5 C 56.56874,46.5 34.5,68.56873 34.5,96 v 120 c 0,27.43127 22.06874,49.5 49.5,49.5 h 120 c 27.43127,0 49.5,-22.06873 49.5,-49.5 V 96 C 253.5,68.56873 231.43127,46.5 204,46.5 Z"
         id="path4200"
         inkscape:connector-curvature="0" />
      <path
         style="color:#bebebe;display:inline;overflow:visible;visibility:visible;fill:url(#linearGradient4256);fill-opacity:1;fill-rule:nonzero;stroke:none;stroke-width:2;marker:none;enable-background:accumulate"
         d="m 419,140.5 c -1.3844,0 -2.5,1.1156 -2.5,2.5 v 10 c 0,1.3844 1.1156,2.5 2.5,2.5 h 10 c 1.3844,0 2.5,-1.1156 2.5,-2.5 v -10 c 0,-1.3844 -1.1156,-2.5 -2.5,-2.5 z"
         id="path4202"
         inkscape:connector-curvature="0" />
      <path
         style="color:#bebebe;display:inline;overflow:visible;visibility:visible;fill:url(#linearGradient3870);fill-opacity:1;fill-rule:nonzero;stroke:none;stroke-width:2;marker:none;enable-background:accumulate"
         d="m 422,101.5 c -2.49699,0 -4.5,2.00301 -4.5,4.5 v 12 c 0,2.49699 2.00301,4.5 4.5,4.5 h 12 c 2.49699,0 4.5,-2.00301 4.5,-4.5 v -12 c 0,-2.49699 -2.00301,-4.5 -4.5,-4.5 z"
         id="path4204"
         inkscape:connector-curvature="0" />
      <path
         style="color:#bebebe;display:inline;overflow:visible;visibility:visible;fill:url(#linearGradient4260);fill-opacity:1;fill-rule:nonzero;stroke:none;stroke-width:2;marker:none;enable-background:accumulate"
         d="m 424,53.5 c -3.60654,0 -6.5,2.89346 -6.5,6.5 v 16 c 0,3.60654 2.89346,6.5 6.5,6.5 h 16 c 3.60654,0 6.5,-2.89346 6.5,-6.5 V 60 c 0,-3.60654 -2.89346,-6.5 -6.5,-6.5 z"
         id="path4206"
         inkscape:connector-curvature="0" />
      <path
         style="color:#bebebe;display:inline;overflow:visible;visibility:visible;fill:url(#linearGradient4262);fill-opacity:1;fill-rule:nonzero;stroke:none;stroke-width:2;marker:none;enable-background:accumulate"
         d="m 300,223.5 c -4.71531,0 -8.5,3.78469 -8.5,8.5 v 24 c 0,4.71531 3.78469,8.5 8.5,8.5 h 24 c 4.71531,0 8.5,-3.78469 8.5,-8.5 v -24 c 0,-4.71531 -3.78469,-8.5 -8.5,-8.5 z"
         id="path4208"
         inkscape:connector-curvature="0" />
      <path
         style="color:#bebebe;display:inline;overflow:visible;visibility:visible;fill:url(#linearGradient4264);fill-opacity:1;fill-rule:nonzero;stroke:none;stroke-width:2;marker:none;enable-background:accumulate"
         d="m 310,32.5 c -9.70255,0 -17.5,7.79745 -17.5,17.5 v 52 c 0,9.70255 7.79745,17.5 17.5,17.5 h 52 c 9.70255,0 17.5,-7.79745 17.5,-17.5 V 50 c 0,-9.70255 -7.79745,-17.5 -17.5,-17.5 z"
         id="path4210"
         inkscape:connector-curvature="0" />
      <path
         style="color:#bebebe;display:inline;overflow:visible;visibility:visible;fill:url(#linearGradient4266);fill-opacity:1;fill-rule:nonzero;stroke:none;stroke-width:2;marker:none;enable-background:accumulate"
         d="m 302.5,142.5 c -6.65502,0 -12,5.34498 -12,12 v 35 c 0,6.65502 5.34498,12 12,12 h 35 c 6.65502,0 12,-5.34498 12,-12 v -35 c 0,-6.65502 -5.34498,-12 -12,-12 z"
         id="path4212"
         inkscape:connector-curvature="0" />
    </g>
    <g
       inkscape:groupmode="layer"
       id="layer6"
       inkscape:label="Symbols"
       style="display:inline">
      <path
         id="path3136"
         style="opacity:0.2;fill:#000000;fill-opacity:1;stroke:none;stroke-width:1.00002"
         d="m 361.15693,53.796295 c -1.93949,0.0342 -4.91416,1.06912 -19.23455,7.025521 -5.01554,2.086159 -15.04006,6.403884 -30.07256,12.953366 -2.44104,0.970728 -3.71958,1.919131 -3.83598,2.847709 -0.2235,1.782772 2.343,2.338995 5.57232,3.388734 2.63287,0.855846 6.17453,1.856739 8.0157,1.89652 1.67011,0.0361 3.5339,-0.653279 5.59186,-2.066445 14.04533,-9.481086 21.29501,-14.271955 21.7502,-14.375266 0.32113,-0.0729 0.76686,-0.164479 1.06837,0.103516 0.30152,0.267995 0.27217,0.775965 0.24023,0.912127 -0.25537,1.088681 -13.4498,13.088546 -14.20911,13.877211 -2.90144,3.013596 -6.20251,4.858011 -1.11134,8.213043 4.40537,2.903094 6.96946,4.755566 11.50792,7.730612 2.90035,1.901235 5.17548,4.154547 8.17,3.878977 1.37792,-0.12679 2.80063,-1.422915 3.52347,-5.287206 1.70829,-9.13246 5.06583,-28.919092 5.84186,-37.072953 0.068,-0.714385 -0.0172,-1.627988 -0.0859,-2.029335 -0.0687,-0.401337 -0.21271,-0.973203 -0.73438,-1.396511 -0.61782,-0.501319 -1.5715,-0.60714 -1.99807,-0.59962 z"
         sodipodi:nodetypes="sscssscsssssssssssss" />
      <path
         id="path3144"
         style="opacity:0.2;fill:#000000;fill-opacity:1;stroke:none;stroke-width:0.999995"
         d="m 336.17175,158.08356 c -1.24676,0.022 -3.15925,0.68659 -12.36486,4.51571 -3.22414,1.34111 -9.66808,4.11792 -19.33144,8.32831 -1.56919,0.62404 -2.3919,1.23317 -2.46673,1.83011 -0.14367,1.14608 1.50601,1.50294 3.58192,2.17778 1.69249,0.55019 3.97058,1.1932 5.15415,1.21877 1.07359,0.0232 2.27072,-0.41772 3.59364,-1.32619 9.02879,-6.095 13.68939,-9.17597 13.982,-9.24238 0.20643,-0.0469 0.49365,-0.10592 0.68748,0.0664 0.19382,0.17228 0.17482,0.49841 0.15429,0.58594 -0.16416,0.69986 -8.64638,8.41505 -9.13449,8.92206 -1.86515,1.93731 -3.98758,3.1226 -0.71482,5.27941 2.83191,1.86629 4.48074,3.05632 7.39821,4.96886 1.86443,1.22222 3.32682,2.67133 5.2518,2.49419 0.88576,-0.0815 1.80089,-0.91432 2.26555,-3.39851 1.09814,-5.87088 3.25689,-18.59075 3.75575,-23.83253 0.0437,-0.45924 -0.0125,-1.04671 -0.0566,-1.30471 -0.0442,-0.25801 -0.13534,-0.62634 -0.47069,-0.89846 -0.39714,-0.32229 -1.01089,-0.38961 -1.28512,-0.38477 z"
         sodipodi:nodetypes="sscssscssssssssscsss" />
      <path
         id="path3152"
         style="opacity:0.2;fill:#000000;fill-opacity:1;stroke:none;stroke-width:0.999978"
         d="m 323.67989,234.22715 c -0.90047,0.0159 -2.281,0.49628 -8.92969,3.26157 -2.32862,0.96851 -6.98358,2.97471 -13.96289,6.01536 -1.13333,0.45066 -1.72721,0.89111 -1.78125,1.32221 -0.10377,0.82766 1.08858,1.08486 2.58789,1.5722 1.22239,0.39733 2.86588,0.86234 3.7207,0.88081 0.7754,0.0168 1.64218,-0.30286 2.59766,-0.95894 6.52098,-4.40165 9.88633,-6.62557 10.09766,-6.67353 0.1491,-0.0338 0.35611,-0.0776 0.49609,0.0469 0.13999,0.12441 0.12616,0.36059 0.11133,0.42381 -0.11856,0.50542 -6.24512,6.07692 -6.59766,6.44307 -1.34708,1.39907 -2.87935,2.25472 -0.51562,3.81233 2.04533,1.34777 3.23662,2.20849 5.34375,3.58968 1.34658,0.88266 2.40266,1.92863 3.79297,1.8007 0.63974,-0.0589 1.29916,-0.66095 1.63476,-2.45497 0.79313,-4.2398 2.35259,-13.42469 2.71289,-17.21017 0.0316,-0.33166 -0.007,-0.75699 -0.0391,-0.94332 -0.0319,-0.18633 -0.0996,-0.45188 -0.3418,-0.6484 -0.28684,-0.23275 -0.72968,-0.28278 -0.92773,-0.27929 z"
         sodipodi:nodetypes="sscssscssssssssscsss" />
      <path
         id="path3160"
         style="opacity:0.2;fill:#000000;fill-opacity:1;stroke:none;stroke-width:1.00001"
         d="m 206.89247,98.990259 c -4.84866,0.0854 -12.28917,2.671791 -48.08966,17.562601 -12.53867,5.21533 -37.59863,16.00952 -75.179375,32.38302 -6.102525,2.42679 -9.298786,4.80165 -9.589805,7.12308 -0.558728,4.45686 5.858397,5.8445 13.931584,8.4688 6.582074,2.1396 15.436136,4.64277 20.038986,4.74222 4.17524,0.0902 8.83557,-1.63121 13.98041,-5.16409 35.11285,-23.7024 53.23877,-35.68335 54.37674,-35.94163 0.80281,-0.18221 1.91419,-0.41021 2.66795,0.25977 0.75378,0.66998 0.67946,1.93697 0.59961,2.27736 -0.63842,2.72166 -33.62306,32.72387 -35.52134,34.69551 -7.25351,7.53388 -15.50314,12.14391 -2.77538,20.53138 11.01327,7.25766 17.42339,11.88876 28.76941,19.32629 7.25077,4.75301 12.93362,10.38818 20.41984,9.69927 3.44473,-0.31698 7.00343,-3.55627 8.81051,-13.21687 4.27065,-22.83087 12.66537,-72.2978 14.60541,-92.68219 0.16997,-1.78593 -0.0431,-4.0709 -0.21484,-5.07425 -0.1717,-1.00334 -0.53175,-2.43395 -1.83593,-3.49221 -1.54453,-1.25331 -3.92771,-1.516861 -4.99412,-1.498061 z"
         sodipodi:nodetypes="cscssscsssssssssssc" />
      <path
         id="path3168"
         style="opacity:0.2;fill:#000000;fill-opacity:1;stroke:none"
         d="m 440.98528,60.712749 c -0.69267,0.0122 -1.75672,0.382515 -6.87109,2.509765 -1.79125,0.74504 -5.36958,2.28594 -10.73828,4.625 -0.8718,0.34668 -1.32952,0.685959 -1.3711,1.017579 -0.0798,0.636699 0.83692,0.836037 1.99024,1.210937 0.9403,0.30566 2.20573,0.661581 2.86328,0.675781 0.59646,0.0129 1.26111,-0.231638 1.99609,-0.736328 5.01614,-3.38604 7.60697,-5.097876 7.76954,-5.134766 0.11468,-0.026 0.27317,-0.05859 0.38085,0.03711 0.10768,0.0957 0.0973,0.277552 0.0859,0.326172 -0.0912,0.38881 -4.80303,4.673418 -5.07422,4.955078 -1.03622,1.07626 -2.21668,1.735394 -0.39843,2.933594 1.57334,1.0368 2.49045,1.699228 4.11132,2.761718 1.03583,0.679 1.84655,1.483186 2.91602,1.384766 0.49211,-0.0453 1.00162,-0.508592 1.25976,-1.888672 0.6101,-3.26153 1.80879,-10.328194 2.08594,-13.240234 0.0243,-0.25513 -0.006,-0.58128 -0.0312,-0.72461 -0.0245,-0.14334 -0.0754,-0.346866 -0.26172,-0.498046 -0.22065,-0.179041 -0.56055,-0.217534 -0.71289,-0.214844 z"
         sodipodi:nodetypes="sscssscssssssssscsss" />
      <path
         id="path3176"
         style="opacity:0.2;fill:#000000;fill-opacity:1;stroke:none"
         d="m 434.28859,107.19914 c -0.48487,0.009 -1.22852,0.26679 -4.80859,1.75586 -1.25388,0.52153 -3.75948,1.60094 -7.51758,3.23828 -0.61026,0.24268 -0.92987,0.48075 -0.95898,0.7129 -0.0559,0.44568 0.58524,0.58327 1.39257,0.8457 0.65821,0.21396 1.54361,0.46467 2.00391,0.47461 0.41752,0.009 0.88395,-0.16234 1.39844,-0.51563 3.5113,-2.37023 5.3237,-3.56988 5.4375,-3.5957 0.0802,-0.0182 0.1922,-0.0397 0.26758,0.0273 0.0753,0.067 0.0667,0.19253 0.0586,0.22657 -0.0639,0.27217 -3.36096,3.27353 -3.55078,3.4707 -0.72536,0.75338 -1.55207,1.21399 -0.2793,2.05273 1.10134,0.72577 1.74234,1.18789 2.87696,1.93164 0.72507,0.4753 1.29434,1.0396 2.04296,0.97071 0.34447,-0.0317 0.70015,-0.35621 0.88086,-1.32227 0.42706,-2.28308 1.26694,-7.22915 1.46094,-9.26758 0.017,-0.17859 -0.004,-0.40748 -0.0215,-0.50781 -0.0172,-0.10033 -0.0532,-0.24379 -0.1836,-0.34961 -0.15445,-0.12534 -0.39336,-0.15032 -0.5,-0.14844 z"
         sodipodi:nodetypes="sscssscsscsssssscsss" />
      <path
         id="path3184"
         style="opacity:0.2;fill:#000000;fill-opacity:1;stroke:none;stroke-width:0.999949"
         d="m 428.49168,144.85604 c -0.3463,0.006 -0.87826,0.19028 -3.43519,1.25391 -0.89553,0.37252 -2.68452,1.14492 -5.36859,2.31445 -0.43585,0.17334 -0.66469,0.342 -0.68548,0.50782 -0.0399,0.31835 0.4194,0.41802 0.996,0.60546 0.4701,0.15283 1.10275,0.3308 1.43149,0.3379 0.29822,0.006 0.63048,-0.11679 0.99794,-0.36914 2.50781,-1.69302 3.80114,-2.54796 3.88242,-2.56641 0.0574,-0.013 0.13753,-0.0303 0.19138,0.0176 0.0538,0.0479 0.0488,0.13975 0.043,0.16406 -0.0456,0.19441 -2.40126,2.33769 -2.53685,2.47851 -0.51804,0.53813 -1.10823,0.86771 -0.1992,1.4668 0.78659,0.51841 1.24609,0.84766 2.05643,1.37891 0.51786,0.3395 0.92222,0.74257 1.45689,0.69336 0.24604,-0.0226 0.50173,-0.25331 0.63079,-0.94336 0.30502,-1.63076 0.9043,-5.16508 1.04286,-6.6211 0.0121,-0.12755 -0.003,-0.28966 -0.0156,-0.36132 -0.0123,-0.0717 -0.0377,-0.17441 -0.13084,-0.25 -0.11031,-0.0895 -0.28123,-0.10877 -0.35739,-0.10743 z"
         sodipodi:nodetypes="sscssccsscsssssscsss" />
      <path
         id="path3222"
         style="fill:#ffffff;fill-opacity:1;stroke:none;stroke-width:0.103131"
         d="m 361.15673,52.795943 c -1.93947,0.0342 -4.91504,1.06889 -19.2353,7.02518 -5.01549,2.08612 -15.03932,6.40383 -30.07168,12.95319 -2.44102,0.97071 -3.71978,1.92042 -3.83618,2.84898 -0.2235,1.78274 2.34299,2.33769 5.57228,3.38741 2.63284,0.85583 6.17445,1.85706 8.0156,1.89684 1.6701,0.0361 3.53428,-0.6525 5.59222,-2.06564 14.0452,-9.48091 21.29534,-14.27296 21.75053,-14.37627 0.32112,-0.0729 0.76605,-0.16445 1.06756,0.10354 0.30151,0.26799 0.27184,0.7755 0.2399,0.91166 -0.25537,1.08866 -13.44917,13.08948 -14.20848,13.87813 -2.90141,3.01354 -6.20179,4.85743 -1.11067,8.2124 4.40533,2.90304 6.96932,4.75498 11.50774,7.72997 2.90032,1.9012 5.17419,4.15565 8.16869,3.88009 1.3779,-0.12679 2.80113,-1.42244 3.52397,-5.28666 1.70827,-9.13229 5.06617,-28.91918 5.84219,-37.07289 0.068,-0.71437 -0.0175,-1.62865 -0.0862,-2.02999 -0.0687,-0.40133 -0.21233,-0.97299 -0.734,-1.39629 -0.61781,-0.50131 -1.57159,-0.60717 -1.99816,-0.59965 z"
         sodipodi:nodetypes="cscssscsscssssssssc" />
      <path
         id="path3088"
         style="fill:#ffffff;fill-opacity:1;stroke:none;stroke-width:0.0662984"
         d="m 336.17232,157.08307 c -1.2468,0.022 -3.1598,0.68701 -12.36568,4.51605 -3.22424,1.34108 -9.66814,4.11688 -19.33179,8.32718 -1.56923,0.62403 -2.39129,1.23443 -2.46612,1.83136 -0.14367,1.14605 1.50634,1.5028 3.58231,2.17762 1.69254,0.55018 3.96929,1.19383 5.15289,1.2194 1.07363,0.0232 2.27191,-0.41933 3.59487,-1.32778 9.02906,-6.09487 13.68986,-9.17561 13.98248,-9.24202 0.20644,-0.0469 0.49246,-0.10572 0.68629,0.0666 0.19383,0.17228 0.17488,0.49854 0.15435,0.58607 -0.16417,0.69985 -8.64589,8.41466 -9.13402,8.92166 -1.8652,1.93727 -3.98687,3.12262 -0.71401,5.27939 2.832,1.86625 4.48015,3.05677 7.39771,4.96927 1.86449,1.2222 3.32626,2.67162 5.2513,2.49448 0.88579,-0.0815 1.80086,-0.91443 2.26554,-3.39857 1.09817,-5.87076 3.25669,-18.59091 3.75556,-23.83258 0.0437,-0.45923 -0.0113,-1.04699 -0.0554,-1.30499 -0.0442,-0.258 -0.13637,-0.62562 -0.47173,-0.89774 -0.39716,-0.32228 -1.0103,-0.3902 -1.28453,-0.38536 z"
         sodipodi:nodetypes="cscssscsssssssssssc" />
      <path
         id="path3096"
         style="fill:#ffffff;fill-opacity:1;stroke:none;stroke-width:0.0478821"
         d="m 323.67998,233.22666 c -0.90047,0.0159 -2.28198,0.49627 -8.93067,3.26169 -2.32862,0.96855 -6.98264,2.9732 -13.96195,6.01398 -1.13333,0.45068 -1.72704,0.89162 -1.78108,1.32274 -0.10377,0.8277 1.08791,1.08536 2.58722,1.57272 1.22239,0.39735 2.86671,0.86221 3.72153,0.88068 0.7754,0.0168 1.64082,-0.30294 2.5963,-0.95905 6.52098,-4.40185 9.88712,-6.62673 10.09845,-6.67469 0.1491,-0.0338 0.35577,-0.0764 0.49575,0.0481 0.13999,0.12442 0.12621,0.36005 0.11138,0.42327 -0.11856,0.50545 -6.24425,6.07726 -6.59679,6.44342 -1.34708,1.39914 -2.8794,2.25523 -0.51567,3.8129 2.04533,1.34784 3.23566,2.20766 5.34279,3.58891 1.34658,0.8827 2.40239,1.92941 3.7927,1.80147 0.63974,-0.0589 1.30052,-0.66042 1.63612,-2.45452 0.79313,-4.23999 2.35206,-13.42676 2.71236,-17.21241 0.0316,-0.33167 -0.008,-0.75607 -0.04,-0.9424 -0.0319,-0.18634 -0.0985,-0.45184 -0.34069,-0.64837 -0.28684,-0.23276 -0.72967,-0.2819 -0.92772,-0.27841 z"
         sodipodi:nodetypes="cscssscsscssssssssc" />
      <path
         id="path3104"
         style="fill:#ffffff;fill-opacity:1;stroke:none;stroke-width:0.257827"
         d="m 206.89183,97.989856 c -4.84868,0.0854 -12.28761,2.672224 -48.08825,17.562954 -12.53873,5.21529 -37.59882,16.00956 -75.17971,32.38296 -6.10255,2.42678 -9.29893,4.80106 -9.58995,7.12247 -0.55873,4.45684 5.85749,5.84422 13.93071,8.4685 6.5821,2.13959 15.43612,4.64266 20.03899,4.74211 4.17525,0.0902 8.83521,-1.63124 13.98006,-5.1641 35.113,-23.70226 53.23884,-35.68239 54.37681,-35.94067 0.80282,-0.18221 1.91514,-0.41114 2.66891,0.25884 0.75378,0.66997 0.6796,1.93876 0.59975,2.27915 -0.63842,2.72165 -33.62291,32.72371 -35.5212,34.69534 -7.25353,7.53383 -15.50447,12.14356 -2.77667,20.53098 11.01332,7.25762 17.42329,11.88745 28.76935,19.32494 7.2508,4.75298 12.93546,10.38913 20.42171,9.70023 3.44475,-0.31699 7.00284,-3.55611 8.80993,-13.21665 4.27067,-22.83073 12.66544,-72.29797 14.60549,-92.68224 0.16997,-1.78592 -0.0438,-4.07162 -0.21553,-5.07496 -0.17171,-1.00333 -0.53082,-2.43248 -1.835,-3.490731 -1.54454,-1.253293 -3.92898,-1.517923 -4.9954,-1.499123 z"
         sodipodi:nodetypes="cscssscsscssssssssc" />
      <path
         id="path3112"
         style="fill:#ffffff;fill-opacity:1;stroke:none;stroke-width:0.0368324"
         d="m 440.98459,59.712808 c -0.69267,0.0122 -1.75538,0.38174 -6.86975,2.50899 -1.79125,0.74504 -5.37126,2.28708 -10.73996,4.62614 -0.8718,0.34668 -1.32849,0.68587 -1.37007,1.01749 -0.0798,0.6367 0.83686,0.83489 1.99018,1.20979 0.9403,0.30566 2.20516,0.66324 2.86271,0.67744 0.59646,0.0129 1.26217,-0.23303 1.99715,-0.73772 5.01614,-3.38604 7.60548,-5.09749 7.76805,-5.13438 0.11468,-0.026 0.27366,-0.0587 0.38134,0.037 0.10768,0.0957 0.0971,0.27697 0.0857,0.32559 -0.0912,0.38881 -4.80327,4.67482 -5.07446,4.95648 -1.03622,1.07626 -2.21492,1.7348 -0.39667,2.933 1.57334,1.0368 2.48897,1.69821 4.10984,2.7607 1.03583,0.679 1.84799,1.48417 2.91746,1.38575 0.49211,-0.0453 1.00041,-0.50801 1.25856,-1.88809 0.6101,-3.26153 1.80928,-10.32828 2.08643,-13.24032 0.0243,-0.25513 -0.006,-0.58159 -0.0308,-0.72492 -0.0245,-0.14334 -0.0758,-0.34757 -0.26207,-0.49875 -0.22065,-0.17904 -0.56129,-0.21685 -0.71363,-0.21416 z"
         sodipodi:nodetypes="cscssscsscssssssssc" />
      <path
         id="path3120"
         style="fill:#ffffff;fill-opacity:1;stroke:none;stroke-width:0.0257827"
         d="m 434.28921,106.19896 c -0.48487,0.009 -1.22876,0.26722 -4.80883,1.75629 -1.25388,0.52153 -3.75989,1.60097 -7.51799,3.23831 -0.61026,0.24268 -0.9299,0.48006 -0.95901,0.7122 -0.0559,0.44569 0.58576,0.58442 1.39309,0.84685 0.65821,0.21396 1.5436,0.46432 2.0039,0.47426 0.41752,0.009 0.88352,-0.16312 1.39801,-0.51641 3.5113,-2.37023 5.32389,-3.5683 5.43769,-3.59412 0.0802,-0.0182 0.19151,-0.0411 0.26689,0.0259 0.0753,0.067 0.068,0.19387 0.0599,0.22791 -0.0639,0.27217 -3.3623,3.27238 -3.55212,3.46955 -0.72536,0.75338 -1.55045,1.21435 -0.27768,2.05309 1.10134,0.72577 1.74234,1.18876 2.87695,1.93251 0.72508,0.4753 1.29355,1.03896 2.04217,0.97007 0.34447,-0.0317 0.70029,-0.35561 0.881,-1.32167 0.42706,-2.28308 1.26655,-7.22981 1.46055,-9.26824 0.017,-0.17859 -0.004,-0.40717 -0.0215,-0.5075 -0.0172,-0.10033 -0.0531,-0.2433 -0.1835,-0.34912 -0.15445,-0.12534 -0.3929,-0.15174 -0.49954,-0.14986 z"
         sodipodi:nodetypes="cscssscsssssssssssc" />
      <path
         id="path3128"
         style="fill:#ffffff;fill-opacity:1;stroke:none;stroke-width:0.0184162"
         d="m 428.49233,143.85641 c -0.34634,0.006 -0.87769,0.19087 -3.43488,1.25449 -0.89562,0.37252 -2.68563,1.14354 -5.36998,2.31307 -0.43589,0.17334 -0.66424,0.3429 -0.68503,0.50871 -0.0399,0.31835 0.41843,0.41748 0.99509,0.60493 0.47015,0.15283 1.10258,0.33162 1.43135,0.33872 0.29824,0.006 0.63109,-0.11651 0.99858,-0.36886 2.50807,-1.69302 3.80274,-2.54878 3.88402,-2.56723 0.0574,-0.013 0.13683,-0.0294 0.19067,0.0185 0.0538,0.0479 0.0486,0.13849 0.0428,0.1628 -0.0456,0.1944 -2.40163,2.33741 -2.53723,2.47824 -0.5181,0.53813 -1.10746,0.8674 -0.19833,1.4665 0.78667,0.5184 1.24449,0.8491 2.05492,1.38035 0.51791,0.3395 0.924,0.74212 1.45873,0.69291 0.24605,-0.0226 0.5002,-0.25401 0.62928,-0.94405 0.30505,-1.63076 0.90464,-5.16414 1.04321,-6.62016 0.0121,-0.12756 -0.003,-0.29083 -0.0154,-0.36249 -0.0123,-0.0717 -0.0379,-0.17379 -0.13104,-0.24938 -0.11032,-0.0895 -0.28064,-0.10838 -0.35681,-0.10704 z"
         sodipodi:nodetypes="cscssscsscssssssssc" />
    </g>
    <g
       inkscape:groupmode="layer"
       id="layer5"
       inkscape:label="Highlights"
       style="display:inline"
       sodipodi:insensitive="true">
      <path
         style="color:#bebebe;display:inline;overflow:visible;visibility:visible;opacity:0.13;fill:#ffffff;fill-opacity:1;fill-rule:nonzero;stroke:none;stroke-width:0;marker:none;enable-background:accumulate"
         d="M 84,47 C 56.836703,47 35,68.836703 35,96 v 1 C 35,69.836703 56.836703,48 84,48 h 120 c 27.1633,0 49,21.836703 49,49 V 96 C 253,68.836703 231.1633,47 204,47 Z"
         id="rect3894"
         inkscape:connector-curvature="0" />
      <path
         style="color:#bebebe;display:inline;overflow:visible;visibility:visible;opacity:0.13;fill:#ffffff;fill-opacity:1;fill-rule:nonzero;stroke:none;stroke-width:0;marker:none;enable-background:accumulate"
         d="m 419,141 c -1.1253,0 -2,0.8747 -2,2 v 1 c 0,-1.1253 0.8747,-2 2,-2 h 10 c 1.1253,0 2,0.8747 2,2 v -1 c 0,-1.1253 -0.8747,-2 -2,-2 z"
         id="rect3896"
         inkscape:connector-curvature="0" />
      <path
         style="color:#bebebe;display:inline;overflow:visible;visibility:visible;opacity:0.13;fill:#ffffff;fill-opacity:1;fill-rule:nonzero;stroke:none;stroke-width:0;marker:none;enable-background:accumulate"
         d="m 422,102 c -2.2333,0 -4,1.7667 -4,4 v 1 c 0,-2.2333 1.7667,-4 4,-4 h 12 c 2.2333,0 4,1.7667 4,4 v -1 c 0,-2.2333 -1.7667,-4 -4,-4 z"
         id="rect3898"
         inkscape:connector-curvature="0" />
      <path
         style="color:#bebebe;display:inline;overflow:visible;visibility:visible;opacity:0.13;fill:#ffffff;fill-opacity:1;fill-rule:nonzero;stroke:none;stroke-width:0;marker:none;enable-background:accumulate"
         d="m 424,54 c -3.3413,0 -6,2.658703 -6,6 v 1 c 0,-3.341297 2.6587,-6 6,-6 h 16 c 3.3413,0 6,2.658703 6,6 v -1 c 0,-3.341297 -2.6587,-6 -6,-6 z"
         id="rect3900"
         inkscape:connector-curvature="0" />
      <path
         style="color:#bebebe;display:inline;overflow:visible;visibility:visible;opacity:0.13;fill:#ffffff;fill-opacity:1;fill-rule:nonzero;stroke:none;stroke-width:0;marker:none;enable-background:accumulate"
         d="m 300,224 c -4.4493,0 -8,3.5507 -8,8 v 1 c 0,-4.4493 3.5507,-8 8,-8 h 24 c 4.4493,0 8,3.5507 8,8 v -1 c 0,-4.4493 -3.5507,-8 -8,-8 z"
         id="rect3902"
         inkscape:connector-curvature="0" />
      <path
         style="color:#bebebe;display:inline;overflow:visible;visibility:visible;opacity:0.13;fill:#ffffff;fill-opacity:1;fill-rule:nonzero;stroke:none;stroke-width:0;marker:none;enable-background:accumulate"
         d="m 310,33 c -9.4353,0 -17,7.564703 -17,17 v 1 c 0,-9.435297 7.5647,-17 17,-17 h 52 c 9.4353,0 17,7.564703 17,17 v -1 c 0,-9.435297 -7.5647,-17 -17,-17 z"
         id="rect3904"
         inkscape:connector-curvature="0" />
      <path
         style="color:#bebebe;display:inline;overflow:visible;visibility:visible;opacity:0.13;fill:#ffffff;fill-opacity:1;fill-rule:nonzero;stroke:none;stroke-width:0;marker:none;enable-background:accumulate"
         d="m 302.5,143 c -6.3883,0 -11.5,5.1117 -11.5,11.5 v 1 c 0,-6.3883 5.1117,-11.5 11.5,-11.5 h 35 c 6.3883,0 11.5,5.1117 11.5,11.5 v -1 c 0,-6.3883 -5.1117,-11.5 -11.5,-11.5 z"
         id="rect3906"
         inkscape:connector-curvature="0" />
      <path
         id="path4085"
         d="m 204,266 c 27.1633,0 49,-21.8367 49,-49 v -1 c 0,27.1633 -21.8367,49 -49,49 H 84 C 56.8367,265 35,243.1633 35,216 v 1 c 0,27.1633 21.8367,49 49,49 z"
         style="color:#bebebe;display:inline;overflow:visible;visibility:visible;opacity:0.5;fill:#000000;fill-opacity:1;fill-rule:nonzero;stroke:none;stroke-width:0;marker:none;enable-background:accumulate"
         inkscape:connector-curvature="0" />
      <path
         id="path4087"
         d="m 429,156 c 1.1253,0 2,-0.8747 2,-2 v -1 c 0,1.1253 -0.8747,2 -2,2 h -10 c -1.1253,0 -2,-0.8747 -2,-2 v 1 c 0,1.1253 0.8747,2 2,2 z"
         style="color:#bebebe;display:inline;overflow:visible;visibility:visible;opacity:0.3;fill:#000000;fill-opacity:1;fill-rule:nonzero;stroke:none;stroke-width:0;marker:none;enable-background:accumulate"
         inkscape:connector-curvature="0" />
      <path
         id="path4089"
         d="m 434,123 c 2.2333,0 4,-1.7667 4,-4 v -1 c 0,2.2333 -1.7667,4 -4,4 h -12 c -2.2333,0 -4,-1.7667 -4,-4 v 1 c 0,2.2333 1.7667,4 4,4 z"
         style="color:#bebebe;display:inline;overflow:visible;visibility:visible;opacity:0.3;fill:#000000;fill-opacity:1;fill-rule:nonzero;stroke:none;stroke-width:0;marker:none;enable-background:accumulate"
         inkscape:connector-curvature="0" />
      <path
         id="path4091"
         d="m 440,83 c 3.3413,0 6,-2.6587 6,-6 v -1 c 0,3.3413 -2.6587,6 -6,6 h -16 c -3.3413,0 -6,-2.6587 -6,-6 v 1 c 0,3.3413 2.6587,6 6,6 z"
         style="color:#bebebe;display:inline;overflow:visible;visibility:visible;opacity:0.5;fill:#000000;fill-opacity:1;fill-rule:nonzero;stroke:none;stroke-width:0;marker:none;enable-background:accumulate"
         inkscape:connector-curvature="0" />
      <path
         id="path4093"
         d="m 324,265 c 4.4493,0 8,-3.5507 8,-8 v -1 c 0,4.4493 -3.5507,8 -8,8 h -24 c -4.4493,0 -8,-3.5507 -8,-8 v 1 c 0,4.4493 3.5507,8 8,8 z"
         style="color:#bebebe;display:inline;overflow:visible;visibility:visible;opacity:0.5;fill:#000000;fill-opacity:1;fill-rule:nonzero;stroke:none;stroke-width:0;marker:none;enable-background:accumulate"
         inkscape:connector-curvature="0" />
      <path
         id="path4095"
         d="m 362,120 c 9.4353,0 17,-7.5647 17,-17 v -1 c 0,9.4353 -7.5647,17 -17,17 h -52 c -9.4353,0 -17,-7.5647 -17,-17 v 1 c 0,9.4353 7.5647,17 17,17 z"
         style="color:#bebebe;display:inline;overflow:visible;visibility:visible;opacity:0.5;fill:#000000;fill-opacity:1;fill-rule:nonzero;stroke:none;stroke-width:0;marker:none;enable-background:accumulate"
         inkscape:connector-curvature="0" />
      <path
         id="path4097"
         d="m 337.5,202 c 6.3883,0 11.5,-5.1117 11.5,-11.5 v -1 c 0,6.3883 -5.1117,11.5 -11.5,11.5 h -35 c -6.3883,0 -11.5,-5.1117 -11.5,-11.5 v 1 c 0,6.3883 5.1117,11.5 11.5,11.5 z"
         style="color:#bebebe;display:inline;overflow:visible;visibility:visible;opacity:0.5;fill:#000000;fill-opacity:1;fill-rule:nonzero;stroke:none;stroke-width:0;marker:none;enable-background:accumulate"
         inkscape:connector-curvature="0" />
      <path
         inkscape:connector-curvature="0"
         id="path4280"
         d="M 84,265 C 56.836703,265 35,243.1633 35,216 v -1 c 0,27.1633 21.836703,49 49,49 h 120 c 27.1633,0 49,-21.8367 49,-49 v 1 c 0,27.1633 -21.8367,49 -49,49 z"
         style="color:#bebebe;display:inline;overflow:visible;visibility:visible;opacity:0.1;fill:#ffffff;fill-opacity:1;fill-rule:nonzero;stroke:none;stroke-width:0;marker:none;enable-background:accumulate" />
      <path
         style="color:#bebebe;display:inline;overflow:visible;visibility:visible;opacity:0.1;fill:#ffffff;fill-opacity:1;fill-rule:nonzero;stroke:none;stroke-width:0;marker:none;enable-background:accumulate"
         d="m 300,264 c -4.4493,0 -8,-3.5507 -8,-8 v -1 c 0,4.4493 3.5507,8 8,8 h 24 c 4.4493,0 8,-3.5507 8,-8 v 1 c 0,4.4493 -3.5507,8 -8,8 z"
         id="path4294"
         inkscape:connector-curvature="0" />
      <path
         style="color:#bebebe;display:inline;overflow:visible;visibility:visible;opacity:0.1;fill:#ffffff;fill-opacity:1;fill-rule:nonzero;stroke:none;stroke-width:0;marker:none;enable-background:accumulate"
         d="m 302.5,201 c -6.3883,0 -11.5,-5.1117 -11.5,-11.5 v -1 c 0,6.3883 5.1117,11.5 11.5,11.5 h 35 c 6.3883,0 11.5,-5.1117 11.5,-11.5 v 1 c 0,6.3883 -5.1117,11.5 -11.5,11.5 z"
         id="path4296"
         inkscape:connector-curvature="0" />
      <path
         style="color:#bebebe;display:inline;overflow:visible;visibility:visible;opacity:0.1;fill:#ffffff;fill-opacity:1;fill-rule:nonzero;stroke:none;stroke-width:0;marker:none;enable-background:accumulate"
         d="m 310,119 c -9.4353,0 -17,-7.5647 -17,-17 v -1 c 0,9.4353 7.5647,17 17,17 h 52 c 9.4353,0 17,-7.5647 17,-17 v 1 c 0,9.4353 -7.5647,17 -17,17 z"
         id="path4298"
         inkscape:connector-curvature="0" />
      <path
         style="color:#bebebe;display:inline;overflow:visible;visibility:visible;opacity:0.1;fill:#ffffff;fill-opacity:1;fill-rule:nonzero;stroke:none;stroke-width:0;marker:none;enable-background:accumulate"
         d="m 424,82 c -3.3413,0 -6,-2.658703 -6,-6 v -1 c 0,3.341297 2.6587,6 6,6 h 16 c 3.3413,0 6,-2.658703 6,-6 v 1 c 0,3.341297 -2.6587,6 -6,6 z"
         id="path4300"
         inkscape:connector-curvature="0" />
      <path
         style="color:#bebebe;display:inline;overflow:visible;visibility:visible;opacity:0.1;fill:#ffffff;fill-opacity:1;fill-rule:nonzero;stroke:none;stroke-width:0;marker:none;enable-background:accumulate"
         d="m 422,122 c -2.2333,0 -4,-1.7667 -4,-4 v -1 c 0,2.2333 1.7667,4 4,4 h 12 c 2.2333,0 4,-1.7667 4,-4 v 1 c 0,2.2333 -1.7667,4 -4,4 z"
         id="path4302"
         inkscape:connector-curvature="0" />
      <path
         style="color:#bebebe;display:inline;overflow:visible;visibility:visible;opacity:0.1;fill:#ffffff;fill-opacity:1;fill-rule:nonzero;stroke:none;stroke-width:0;marker:none;enable-background:accumulate"
         d="m 419,154.5 c -1.1253,0 -2,-0.8747 -2,-2 v -1 c 0,1.1253 0.8747,2 2,2 h 10 c 1.1253,0 2,-0.8747 2,-2 v 1 c 0,1.1253 -0.8747,2 -2,2 z"
         id="path4304"
         inkscape:connector-curvature="0" />
    </g>
    <g
       inkscape:groupmode="layer"
       id="layer3"
       inkscape:label="Border"
       style="display:inline"
       sodipodi:insensitive="true">
      <path
         style="color:#bebebe;display:inline;overflow:visible;visibility:visible;opacity:0.41;fill:#000000;fill-opacity:1;fill-rule:nonzero;stroke:none;stroke-width:0;marker:none;enable-background:accumulate"
         d="m 422,101 c -2.77,0 -5,2.23 -5,5 v 12 c 0,2.77 2.23,5 5,5 h 12 c 2.77,0 5,-2.23 5,-5 v -12 c 0,-2.77 -2.23,-5 -5,-5 z m 0,1 h 12 c 2.2333,0 4,1.7667 4,4 v 12 c 0,2.2333 -1.7667,4 -4,4 h -12 c -2.2333,0 -4,-1.7667 -4,-4 v -12 c 0,-2.2333 1.7667,-4 4,-4 z"
         id="rect4099"
         inkscape:connector-curvature="0" />
      <path
         style="color:#bebebe;display:inline;overflow:visible;visibility:visible;opacity:0.41;fill:#000000;fill-opacity:1;fill-rule:nonzero;stroke:none;stroke-width:0;marker:none;enable-background:accumulate"
         d="m 424,53 c -3.878,0 -7,3.122 -7,7 v 16 c 0,3.878 3.122,7 7,7 h 16 c 3.878,0 7,-3.122 7,-7 V 60 c 0,-3.878 -3.122,-7 -7,-7 z m 0,1 h 16 c 3.3413,0 6,2.658703 6,6 v 16 c 0,3.341297 -2.6587,6 -6,6 h -16 c -3.3413,0 -6,-2.658703 -6,-6 V 60 c 0,-3.341297 2.6587,-6 6,-6 z"
         id="rect4151"
         inkscape:connector-curvature="0" />
      <path
         style="color:#bebebe;display:inline;overflow:visible;visibility:visible;opacity:0.41;fill:#000000;fill-opacity:1;fill-rule:nonzero;stroke:none;stroke-width:0;marker:none;enable-background:accumulate"
         d="m 419,140 c -1.662,0 -3,1.338 -3,3 v 10 c 0,1.662 1.338,3 3,3 h 10 c 1.662,0 3,-1.338 3,-3 v -10 c 0,-1.662 -1.338,-3 -3,-3 z m 0,1 h 10 c 1.1253,0 2,0.8747 2,2 v 10 c 0,1.1253 -0.8747,2 -2,2 h -10 c -1.1253,0 -2,-0.8747 -2,-2 v -10 c 0,-1.1253 0.8747,-2 2,-2 z"
         id="rect4095"
         inkscape:connector-curvature="0" />
      <path
         style="color:#bebebe;display:inline;overflow:visible;visibility:visible;opacity:0.41;fill:#000000;fill-opacity:1;fill-rule:nonzero;stroke:none;stroke-width:0;marker:none;enable-background:accumulate"
         d="m 300,223 c -4.986,0 -9,4.014 -9,9 v 24 c 0,4.986 4.014,9 9,9 h 24 c 4.986,0 9,-4.014 9,-9 v -24 c 0,-4.986 -4.014,-9 -9,-9 z m 0,1 h 24 c 4.4493,0 8,3.5507 8,8 v 24 c 0,4.4493 -3.5507,8 -8,8 h -24 c -4.4493,0 -8,-3.5507 -8,-8 v -24 c 0,-4.4493 3.5507,-8 8,-8 z"
         id="rect4783"
         inkscape:connector-curvature="0" />
      <path
         style="color:#bebebe;display:inline;overflow:visible;visibility:visible;opacity:0.41;fill:#000000;fill-opacity:1;fill-rule:nonzero;stroke:none;stroke-width:0;marker:none;enable-background:accumulate"
         d="m 302.5,142 c -6.925,0 -12.5,5.575 -12.5,12.5 v 35 c 0,6.925 5.575,12.5 12.5,12.5 h 35 c 6.925,0 12.5,-5.575 12.5,-12.5 v -35 c 0,-6.925 -5.575,-12.5 -12.5,-12.5 z m 0,1 h 35 c 6.3883,0 11.5,5.1117 11.5,11.5 v 35 c 0,6.3883 -5.1117,11.5 -11.5,11.5 h -35 c -6.3883,0 -11.5,-5.1117 -11.5,-11.5 v -35 c 0,-6.3883 5.1117,-11.5 11.5,-11.5 z"
         id="rect4515"
         inkscape:connector-curvature="0" />
      <path
         style="color:#bebebe;display:inline;overflow:visible;visibility:visible;opacity:0.41;fill:#000000;fill-opacity:1;fill-rule:nonzero;stroke:none;stroke-width:0;marker:none;enable-background:accumulate"
         d="m 310,32 c -9.972,0 -18,8.028 -18,18 v 52 c 0,9.972 8.028,18 18,18 h 52 c 9.972,0 18,-8.028 18,-18 V 50 c 0,-9.972 -8.028,-18 -18,-18 z m 0,1 h 52 c 9.4353,0 17,7.564703 17,17 v 52 c 0,9.4353 -7.5647,17 -17,17 h -52 c -9.4353,0 -17,-7.5647 -17,-17 V 50 c 0,-9.435297 7.5647,-17 17,-17 z"
         id="rect4511"
         inkscape:connector-curvature="0" />
      <path
         style="color:#bebebe;display:inline;overflow:visible;visibility:visible;opacity:0.41;fill:#000000;fill-opacity:1;fill-rule:nonzero;stroke:none;stroke-width:0;marker:none;enable-background:accumulate"
         d="M 84,46 C 56.3,46 34,68.3 34,96 v 120 c 0,27.7 22.3,50 50,50 h 120 c 27.7,0 50,-22.3 50,-50 V 96 C 254,68.3 231.7,46 204,46 Z m 0,1 h 120 c 27.1633,0 49,21.836703 49,49 v 120 c 0,27.1633 -21.8367,49 -49,49 H 84 C 56.836703,265 35,243.1633 35,216 V 96 C 35,68.836703 56.836703,47 84,47 Z"
         id="rect4040"
         inkscape:connector-curvature="0" />
    </g>
  </g>
</svg>
