<?xml version="1.0" encoding="UTF-8" standalone="no"?>
<svg
   xmlns:dc="http://purl.org/dc/elements/1.1/"
   xmlns:cc="http://creativecommons.org/ns#"
   xmlns:rdf="http://www.w3.org/1999/02/22-rdf-syntax-ns#"
   xmlns:svg="http://www.w3.org/2000/svg"
   xmlns="http://www.w3.org/2000/svg"
   xmlns:xlink="http://www.w3.org/1999/xlink"
   xmlns:sodipodi="http://sodipodi.sourceforge.net/DTD/sodipodi-0.dtd"
   xmlns:inkscape="http://www.inkscape.org/namespaces/inkscape"
   inkscape:export-ydpi="96"
   inkscape:export-xdpi="96"
   width="480"
   height="300"
   id="svg11300"
   sodipodi:version="0.32"
   inkscape:version="1.0.2 (e86c870, 2021-01-15)"
   sodipodi:docname="web-foursquare.svg"
   inkscape:output_extension="org.inkscape.output.svg.inkscape"
   version="1.0"
   style="display:inline;enable-background:new"
   inkscape:export-filename="/home/user/Downloads/a.png">
  <sodipodi:namedview
     stroke="#ef2929"
     fill="#f57900"
     id="base"
     pagecolor="#777777"
     bordercolor="#666666"
     borderopacity="0.25490196"
     inkscape:pageopacity="0"
     inkscape:pageshadow="2"
     inkscape:zoom="4"
     inkscape:cx="441.83671"
     inkscape:cy="69.073471"
     inkscape:current-layer="layer6"
     showgrid="false"
     inkscape:grid-bbox="true"
     inkscape:document-units="px"
     inkscape:showpageshadow="false"
     inkscape:window-width="1366"
     inkscape:window-height="703"
     inkscape:window-x="0"
     inkscape:window-y="0"
     width="400px"
     height="300px"
     inkscape:snap-nodes="true"
     inkscape:snap-bbox="true"
     gridtolerance="10000"
     inkscape:object-nodes="true"
     inkscape:snap-grids="true"
     showguides="true"
     inkscape:guide-bbox="true"
     inkscape:window-maximized="1"
     inkscape:bbox-nodes="true"
     inkscape:bbox-paths="true"
     inkscape:snap-bbox-edge-midpoints="true"
     inkscape:snap-bbox-midpoints="true"
     inkscape:document-rotation="0">
    <inkscape:grid
       spacingy="1px"
       spacingx="1px"
       id="grid5883"
       type="xygrid"
       enabled="true"
       visible="true"
       empspacing="4"
       snapvisiblegridlinesonly="true"
       dotted="false"
       color="#000000"
       opacity="0.1254902"
       empcolor="#203ef3"
       empopacity="0.36470588" />
    <inkscape:grid
       type="xygrid"
       id="grid11592"
       empspacing="8"
       visible="true"
       enabled="false"
       spacingx="0.5px"
       spacingy="0.5px"
       color="#ff0000"
       opacity="0.1254902"
       empcolor="#ff0000"
       empopacity="0.25098039"
       snapvisiblegridlinesonly="true"
       dotted="true" />
  </sodipodi:namedview>
  <defs
     id="defs3">
    <linearGradient
       inkscape:collect="always"
       xlink:href="#outerBackgroundGradient-6"
       id="linearGradient4254"
       x1="35"
       y1="156"
       x2="253"
       y2="156"
       gradientUnits="userSpaceOnUse"
       gradientTransform="matrix(0,-1,1,0,-12,300)" />
    <linearGradient
       inkscape:collect="always"
       xlink:href="#outerBackgroundGradient-6"
       id="linearGradient4256"
       x1="417"
       y1="148"
       x2="431"
       y2="148"
       gradientUnits="userSpaceOnUse"
       gradientTransform="matrix(0,-1,1,0,276,572)" />
    <linearGradient
       inkscape:collect="always"
       xlink:href="#outerBackgroundGradient-6"
       id="linearGradient4260"
       x1="418"
       y1="68"
       x2="446"
       y2="68"
       gradientUnits="userSpaceOnUse"
       gradientTransform="matrix(0,-1,1,0,364,500)" />
    <linearGradient
       inkscape:collect="always"
       xlink:href="#outerBackgroundGradient-6"
       id="linearGradient4262"
       x1="292"
       y1="244"
       x2="332"
       y2="244"
       gradientUnits="userSpaceOnUse"
       gradientTransform="matrix(0,-1,1,0,68,556)" />
    <linearGradient
       inkscape:collect="always"
       xlink:href="#outerBackgroundGradient-6"
       id="linearGradient4264"
       x1="293"
       y1="76"
       x2="379"
       y2="76"
       gradientUnits="userSpaceOnUse"
       gradientTransform="matrix(0,-1,1,0,260,412)" />
    <linearGradient
       inkscape:collect="always"
       xlink:href="#outerBackgroundGradient-6"
       id="linearGradient4266"
       x1="291"
       y1="172"
       x2="349"
       y2="172"
       gradientUnits="userSpaceOnUse"
       gradientTransform="matrix(0,-1,1,0,148,492)" />
    <linearGradient
       inkscape:collect="always"
       xlink:href="#outerBackgroundGradient-6"
       id="linearGradient3870"
       gradientUnits="userSpaceOnUse"
       gradientTransform="matrix(0,-1,1,0,316,540)"
       x1="418"
       y1="112"
       x2="438"
       y2="112" />
    <linearGradient
       id="outerBackgroundGradient-6">
      <stop
         style="stop-color:#000000;stop-opacity:1;"
         offset="0"
         id="stop3864-8-6-9" />
      <stop
         style="stop-color:#161616;stop-opacity:1;"
         offset="1"
         id="stop3866-9-1-9" />
    </linearGradient>
  </defs>
  <metadata
     id="metadata4">
    <rdf:RDF>
      <cc:Work
         rdf:about="">
        <dc:format>image/svg+xml</dc:format>
        <dc:type
           rdf:resource="http://purl.org/dc/dcmitype/StillImage" />
        <dc:creator>
          <cc:Agent>
            <dc:title>Sam Hewitt</dc:title>
          </cc:Agent>
        </dc:creator>
        <dc:source />
        <cc:license
           rdf:resource="" />
        <dc:title />
        <dc:subject>
          <rdf:Bag />
        </dc:subject>
        <dc:date />
        <dc:rights>
          <cc:Agent>
            <dc:title />
          </cc:Agent>
        </dc:rights>
        <dc:publisher>
          <cc:Agent>
            <dc:title />
          </cc:Agent>
        </dc:publisher>
        <dc:identifier />
        <dc:relation />
        <dc:language />
        <dc:coverage />
        <dc:description />
        <dc:contributor>
          <cc:Agent>
            <dc:title />
          </cc:Agent>
        </dc:contributor>
      </cc:Work>
      <cc:Work
         rdf:about="">
        <dc:format>image/svg+xml</dc:format>
        <dc:type
           rdf:resource="http://purl.org/dc/dcmitype/StillImage" />
      </cc:Work>
    </rdf:RDF>
  </metadata>
  <g
     style="display:inline"
     inkscape:groupmode="layer"
     inkscape:label="Icon"
     id="layer1">
    <g
       style="display:none"
       inkscape:label="Baseplate"
       id="layer7"
       inkscape:groupmode="layer">
      <text
         y="19.745117"
         xml:space="preserve"
         x="15.006836"
         style="font-style:normal;font-variant:normal;font-weight:normal;font-stretch:normal;line-height:0%;font-family:'DejaVu Sans';-inkscape-font-specification:'DejaVu Sans';display:inline;fill:#000000;fill-opacity:1;stroke:none;enable-background:new"
         inkscape:label="context"
         id="context"><tspan
           style="font-style:normal;font-variant:normal;font-weight:normal;font-stretch:normal;font-size:18px;line-height:1.25;font-family:'DejaVu Sans';-inkscape-font-specification:'DejaVu Sans'"
           y="19.745117"
           x="15.006836"
           sodipodi:role="line"
           id="tspan3933">apps</tspan></text>
      <text
         y="19.745117"
         xml:space="preserve"
         x="122.48828"
         style="font-style:normal;font-variant:normal;font-weight:bold;font-stretch:normal;line-height:0%;font-family:'DejaVu Sans';-inkscape-font-specification:'DejaVu Sans Bold';text-align:start;writing-mode:lr-tb;text-anchor:start;display:inline;fill:#000000;fill-opacity:1;stroke:none;enable-background:new"
         inkscape:label="icon-name"
         id="icon-name"><tspan
           style="font-style:normal;font-variant:normal;font-weight:bold;font-stretch:normal;font-size:18px;line-height:1.25;font-family:'DejaVu Sans';-inkscape-font-specification:'DejaVu Sans Bold';opacity:0.99"
           y="19.745117"
           x="122.48828"
           sodipodi:role="line"
           id="tspan3937">web-foursquare</tspan></text>
      <rect
         style="display:inline;overflow:visible;visibility:visible;fill:#eeeeec;fill-opacity:1;fill-rule:nonzero;stroke:none;stroke-width:2;marker:none;enable-background:accumulate"
         id="rect16x16"
         width="16"
         height="16"
         x="416"
         y="140"
         inkscape:label="16x16" />
      <rect
         style="display:inline;overflow:visible;visibility:visible;fill:#d4d4d4;fill-opacity:1;fill-rule:nonzero;stroke:none;stroke-width:2;marker:none;enable-background:accumulate"
         id="rect24x24"
         width="24"
         height="24"
         x="416"
         y="100"
         inkscape:label="24x24" />
      <rect
         style="display:inline;overflow:visible;visibility:visible;fill:#eeeeec;fill-opacity:1;fill-rule:nonzero;stroke:none;stroke-width:2;marker:none;enable-background:accumulate"
         id="rect32x32"
         width="32"
         height="32"
         x="416"
         y="52"
         inkscape:label="32x32" />
      <rect
         inkscape:label="22x22"
         y="101"
         x="417"
         height="22"
         width="22"
         id="rect22x22"
         style="display:inline;overflow:visible;visibility:visible;fill:#eeeeec;fill-opacity:1;fill-rule:nonzero;stroke:none;stroke-width:2;marker:none;enable-background:accumulate" />
      <rect
         inkscape:label="48x48"
         y="220"
         x="288"
         height="48"
         width="48"
         id="rect48x48"
         style="display:inline;overflow:visible;visibility:visible;fill:#eeeeec;fill-opacity:1;fill-rule:nonzero;stroke:none;stroke-width:2;marker:none;enable-background:accumulate" />
      <rect
         style="display:inline;overflow:visible;visibility:visible;fill:#eeeeec;fill-opacity:1;fill-rule:nonzero;stroke:none;stroke-width:2;marker:none;enable-background:accumulate"
         id="rect256x256"
         width="256"
         height="256"
         x="16"
         y="28"
         inkscape:label="256x256" />
      <rect
         style="display:inline;overflow:visible;visibility:visible;fill:#eeeeec;fill-opacity:1;fill-rule:nonzero;stroke:none;stroke-width:2;marker:none;enable-background:accumulate"
         id="rect64x64"
         width="64"
         height="64"
         x="288"
         y="140"
         inkscape:label="64x64" />
      <rect
         style="display:inline;overflow:visible;visibility:visible;fill:#eeeeec;fill-opacity:1;fill-rule:nonzero;stroke:none;stroke-width:2;marker:none;enable-background:accumulate"
         id="rect96x96"
         width="96"
         height="96"
         x="288"
         y="28"
         inkscape:label="96x96" />
    </g>
    <g
       inkscape:groupmode="layer"
       id="layer4"
       inkscape:label="Shadow"
       style="display:inline"
       sodipodi:insensitive="true">
      <rect
         ry="50"
         y="47"
         x="34"
         height="220"
         width="220"
         id="rect4114"
         style="color:#bebebe;display:inline;overflow:visible;visibility:visible;opacity:0.1;fill:#000000;fill-opacity:1;fill-rule:nonzero;stroke:none;stroke-width:0;marker:none;enable-background:accumulate" />
      <rect
         style="color:#bebebe;display:inline;overflow:visible;visibility:visible;opacity:0.1;fill:#000000;fill-opacity:1;fill-rule:nonzero;stroke:none;stroke-width:0;marker:none;enable-background:accumulate"
         id="rect4120"
         width="30"
         height="30"
         x="417"
         y="54"
         ry="7" />
      <rect
         transform="scale(1,-1)"
         ry="9"
         y="-266"
         x="291"
         height="42"
         width="42"
         id="rect4122"
         style="color:#bebebe;display:inline;overflow:visible;visibility:visible;opacity:0.1;fill:#000000;fill-opacity:1;fill-rule:nonzero;stroke:none;stroke-width:0;marker:none;enable-background:accumulate" />
      <rect
         style="color:#bebebe;display:inline;overflow:visible;visibility:visible;opacity:0.1;fill:#000000;fill-opacity:1;fill-rule:nonzero;stroke:none;stroke-width:0;marker:none;enable-background:accumulate"
         id="rect4124"
         width="88"
         height="88"
         x="292"
         y="33"
         ry="18" />
      <rect
         ry="12.5"
         y="143"
         x="290"
         height="60"
         width="60"
         id="rect4126"
         style="color:#bebebe;display:inline;overflow:visible;visibility:visible;opacity:0.1;fill:#000000;fill-opacity:1;fill-rule:nonzero;stroke:none;stroke-width:0;marker:none;enable-background:accumulate" />
      <path
         id="path4268"
         d="m 422,101 c -2.77,0 -5,2.23 -5,5 v 12 c 0,2.77 2.23,5 5,5 h 12 c 2.77,0 5,-2.23 5,-5 v -12 c 0,-2.77 -2.23,-5 -5,-5 z"
         style="color:#bebebe;display:inline;overflow:visible;visibility:visible;opacity:0.1;fill:#000000;fill-opacity:1;fill-rule:nonzero;stroke:none;stroke-width:0;marker:none;enable-background:accumulate"
         inkscape:connector-curvature="0"
         sodipodi:nodetypes="sssssssss" />
      <path
         id="path4270"
         d="m 419,140 c -1.662,0 -3,1.338 -3,3 v 10 c 0,1.662 1.338,3 3,3 h 10 c 1.662,0 3,-1.338 3,-3 v -10 c 0,-1.662 -1.338,-3 -3,-3 z"
         style="color:#bebebe;display:inline;overflow:visible;visibility:visible;opacity:0.1;fill:#000000;fill-opacity:1;fill-rule:nonzero;stroke:none;stroke-width:0;marker:none;enable-background:accumulate"
         inkscape:connector-curvature="0"
         sodipodi:nodetypes="sssssssss" />
    </g>
    <g
       inkscape:groupmode="layer"
       id="layer2"
       inkscape:label="Background"
       style="display:inline">
      <path
         style="color:#bebebe;display:inline;overflow:visible;visibility:visible;fill:url(#linearGradient4254);fill-opacity:1;fill-rule:nonzero;stroke:none;stroke-width:2;marker:none;enable-background:accumulate"
         d="M 84,46.5 C 56.568735,46.5 34.5,68.568732 34.5,96 v 120 c 0,27.43127 22.068735,49.5 49.5,49.5 h 120 c 27.43127,0 49.5,-22.06873 49.5,-49.5 V 96 C 253.5,68.568732 231.43127,46.5 204,46.5 Z"
         id="path4200" />
      <path
         style="color:#bebebe;display:inline;overflow:visible;visibility:visible;fill:url(#linearGradient4256);fill-opacity:1;fill-rule:nonzero;stroke:none;stroke-width:2;marker:none;enable-background:accumulate"
         d="m 419,140.5 c -1.3844,0 -2.5,1.1156 -2.5,2.5 v 10 c 0,1.3844 1.1156,2.5 2.5,2.5 h 10 c 1.3844,0 2.5,-1.1156 2.5,-2.5 v -10 c 0,-1.3844 -1.1156,-2.5 -2.5,-2.5 z"
         id="path4202" />
      <path
         style="color:#bebebe;display:inline;overflow:visible;visibility:visible;fill:url(#linearGradient3870);fill-opacity:1;fill-rule:nonzero;stroke:none;stroke-width:2;marker:none;enable-background:accumulate"
         d="m 422,101.5 c -2.49699,0 -4.5,2.00301 -4.5,4.5 v 12 c 0,2.49699 2.00301,4.5 4.5,4.5 h 12 c 2.49699,0 4.5,-2.00301 4.5,-4.5 v -12 c 0,-2.49699 -2.00301,-4.5 -4.5,-4.5 z"
         id="path4204" />
      <path
         style="color:#bebebe;display:inline;overflow:visible;visibility:visible;fill:url(#linearGradient4260);fill-opacity:1;fill-rule:nonzero;stroke:none;stroke-width:2;marker:none;enable-background:accumulate"
         d="m 424,53.5 c -3.60654,0 -6.5,2.893464 -6.5,6.5 v 16 c 0,3.606536 2.89346,6.5 6.5,6.5 h 16 c 3.60654,0 6.5,-2.893464 6.5,-6.5 V 60 c 0,-3.606536 -2.89346,-6.5 -6.5,-6.5 z"
         id="path4206" />
      <path
         style="color:#bebebe;display:inline;overflow:visible;visibility:visible;fill:url(#linearGradient4262);fill-opacity:1;fill-rule:nonzero;stroke:none;stroke-width:2;marker:none;enable-background:accumulate"
         d="m 300,223.5 c -4.71531,0 -8.5,3.78469 -8.5,8.5 v 24 c 0,4.71531 3.78469,8.5 8.5,8.5 h 24 c 4.71531,0 8.5,-3.78469 8.5,-8.5 v -24 c 0,-4.71531 -3.78469,-8.5 -8.5,-8.5 z"
         id="path4208" />
      <path
         style="color:#bebebe;display:inline;overflow:visible;visibility:visible;fill:url(#linearGradient4264);fill-opacity:1;fill-rule:nonzero;stroke:none;stroke-width:2;marker:none;enable-background:accumulate"
         d="m 310,32.5 c -9.70255,0 -17.5,7.797452 -17.5,17.5 v 52 c 0,9.70255 7.79745,17.5 17.5,17.5 h 52 c 9.70255,0 17.5,-7.79745 17.5,-17.5 V 50 c 0,-9.702548 -7.79745,-17.5 -17.5,-17.5 z"
         id="path4210" />
      <path
         style="color:#bebebe;display:inline;overflow:visible;visibility:visible;fill:url(#linearGradient4266);fill-opacity:1;fill-rule:nonzero;stroke:none;stroke-width:2;marker:none;enable-background:accumulate"
         d="m 302.5,142.5 c -6.65502,0 -12,5.34498 -12,12 v 35 c 0,6.65502 5.34498,12 12,12 h 35 c 6.65502,0 12,-5.34498 12,-12 v -35 c 0,-6.65502 -5.34498,-12 -12,-12 z"
         id="path4212" />
    </g>
    <g
       inkscape:groupmode="layer"
       id="layer6"
       inkscape:label="Symbols"
       style="display:inline">
      <path
         id="path5055"
         style="opacity:0.05;fill:none;fill-opacity:1;stroke:#000000;stroke-opacity:1"
         d="m 79.84375,76 v 71.02148 h 8.117188 V 114.5293 h 36.265622 v -8.02735 H 87.960938 V 84.025391 H 128.75977 V 76 Z m 95.04102,81.98242 c -21.16148,0 -34.94532,16.43535 -34.94532,37.4961 0,21.34518 14.53841,37.02539 34.94532,37.02539 7.26517,0 13.69544,-1.98812 19.07421,-5.48243 2.94626,2.94483 5.84525,5.93867 8.69336,8.97852 l 5.85547,-5.66797 c -2.69862,-2.9661 -5.47123,-5.86363 -8.31445,-8.69141 5.85679,-6.61134 9.35352,-15.67914 9.35352,-26.1621 0,-20.96791 -13.60336,-37.4961 -34.66211,-37.4961 z m -70.26954,0.0195 c -14.265682,0 -24.085933,6.50963 -24.085933,18.69727 0,9.43606 5.857442,15.86175 23.421873,20.86719 15.4963,4.62419 19.46485,9.15835 19.46485,14.53711 0,7.5595 -7.84767,12.1875 -17.75977,12.1875 -11.055804,0 -17.849325,-5.85846 -19.265625,-15.67969 l -7.9375,1.79492 c 1.793579,14.16296 12.186656,22.09749 27.392575,22.11328 14.54024,0 25.97266,-7.07576 25.97266,-20.67773 0,-10.95309 -7.3666,-16.71992 -24.46289,-22.00782 -14.356547,-4.53333 -18.51172,-8.60077 -18.51172,-13.88867 0,-6.51062 6.419656,-9.91015 15.48633,-9.91015 9.63949,0 15.86439,3.86981 17.85156,13.02734 l 7.93555,-1.79297 c -2.45531,-11.14666 -9.5474,-19.26758 -25.50196,-19.26758 z m 70.25,8.11328 c 15.8637,0 25.97266,12.65322 25.97266,29.27149 0,8.22124 -2.54798,15.21235 -6.79687,20.30469 -2.89052,-2.77967 -5.84883,-5.4875 -8.87305,-8.1211 l -5.66406,5.75586 c 2.83876,2.47582 5.61021,5.02818 8.31054,7.6543 -3.77876,2.26172 -8.1196,3.49609 -12.94922,3.49609 -15.01628,0 -26.06054,-11.99551 -26.06054,-29.08984 0,-16.62024 10.1988,-29.27149 26.06054,-29.27149 z"
         sodipodi:nodetypes="cccccccccccsssccccsssscsscccscssccsssccccsss" />
      <path
         id="path5057"
         style="opacity:0.05;fill:none;fill-opacity:1;stroke:#000000;stroke-opacity:1"
         d="m 311.94141,46 v 26.632812 h 3.04492 V 60.449219 h 13.59961 v -3.009766 h -13.59961 v -8.429687 h 15.29883 V 46 Z m 35.64062,30.744141 c -7.93555,0 -13.10351,6.162769 -13.10351,14.060547 0,8.004444 5.45092,13.884762 13.10351,13.884762 2.72445,0 5.13726,-0.74627 7.1543,-2.05664 1.10436,1.10432 2.19025,2.22725 3.25781,3.36719 l 2.19727,-2.125 c -1.01197,-1.11229 -2.05098,-2.19936 -3.11719,-3.25977 2.1963,-2.479255 3.50586,-5.879432 3.50586,-9.810542 0,-7.862963 -5.10101,-14.060547 -12.99805,-14.060547 z M 321.23242,76.75 c -5.34963,0 -9.0332,2.44135 -9.0332,7.011719 0,3.538518 2.19653,5.949135 8.7832,7.826172 5.81111,1.734074 7.29883,3.436088 7.29883,5.453125 0,2.834819 -2.94116,4.568354 -6.6582,4.568364 -4.14593,0 -6.69546,-2.195948 -7.22657,-5.878911 l -2.97656,0.671875 c 0.67259,5.311106 4.57121,8.288996 10.27344,8.294926 5.45259,0 9.73828,-2.65512 9.73828,-7.755864 0,-4.107408 -2.76272,-6.270943 -9.17383,-8.253906 -5.38371,-1.7 -6.9414,-3.224068 -6.9414,-5.207031 0,-2.441481 2.40859,-3.716797 5.80859,-3.716797 3.61481,0 5.94818,1.450692 6.69336,4.884766 l 2.97656,-0.671876 c -0.92074,-4.18 -3.57954,-7.226562 -9.5625,-7.226562 z m 26.34375,3.042969 c 5.94889,0 9.73828,4.74471 9.73828,10.976562 0,3.082963 -0.95549,5.705605 -2.54883,7.615235 -1.08397,-1.041891 -2.19406,-2.057802 -3.32812,-3.044922 l -2.12305,2.158203 c 1.06454,0.928434 2.10456,1.884344 3.11719,2.869143 -1.41704,0.84815 -3.04436,1.31054 -4.85547,1.31054 -5.63111,0 -9.77344,-4.497829 -9.77344,-10.908199 0,-6.232592 3.82529,-10.976562 9.77344,-10.976562 z"
         sodipodi:nodetypes="cccccccccccsssccccsssscsscccscssccsssccccsss" />
      <path
         id="path5059"
         style="opacity:0.05;fill:none;fill-opacity:1;stroke:#000000;stroke-opacity:1"
         d="m 303.96094,152 v 17.75586 h 2.02929 v -8.12305 h 9.06641 v -2.00586 h -9.06641 v -5.61914 h 10.19922 V 152 Z m 23.76172,20.49609 c -5.29038,0 -8.73828,4.10981 -8.73828,9.375 0,5.33629 3.63655,9.25586 8.73828,9.25586 1.81629,0 3.42288,-0.49751 4.76757,-1.37109 0.73655,0.73589 1.45985,1.4845 2.17188,2.24414 l 1.46484,-1.41602 c -0.67465,-0.74152 -1.36732,-1.46688 -2.07812,-2.17382 1.46419,-1.65284 2.33789,-3.91833 2.33789,-6.53907 0,-5.24198 -3.39937,-9.375 -8.66406,-9.375 z m -17.56836,0.006 c -3.56642,0 -6.02149,1.62692 -6.02149,4.67383 0,2.35901 1.46436,3.96544 5.85547,5.2168 3.87407,1.15605 4.86524,2.29007 4.86524,3.63476 0,1.88987 -1.96143,3.04688 -4.43946,3.04688 -2.76395,0 -4.46233,-1.46461 -4.8164,-3.91992 l -1.98438,0.44922 c 0.4484,3.54074 3.04813,5.52339 6.84961,5.52734 3.63506,0 6.49023,-1.76942 6.49023,-5.16992 0,-2.73827 -1.83921,-4.17998 -6.11328,-5.50196 -3.58914,-1.13333 -4.6289,-2.14872 -4.6289,-3.4707 1e-5,-1.62765 1.60443,-2.47851 3.87109,-2.47851 2.40988,0 3.9661,0.96843 4.46289,3.25781 l 1.98438,-0.44922 c -0.61383,-2.78666 -2.38636,-4.81641 -6.375,-4.81641 z m 17.5625,2.02735 c 3.96592,0 6.49414,3.1638 6.49414,7.31836 0,2.05531 -0.63895,3.80308 -1.70117,5.07617 -0.72263,-0.69492 -1.46074,-1.3709 -2.2168,-2.0293 l -1.41602,1.4375 c 0.70969,0.61895 1.4011,1.25753 2.07617,1.91406 -0.94468,0.56543 -2.02892,0.87305 -3.23632,0.87305 -3.75408,0 -6.51563,-2.9979 -6.51563,-7.27148 0,-4.15506 2.55019,-7.31836 6.51563,-7.31836 z"
         sodipodi:nodetypes="cccccccccccsssccccsssscsscccscssccsssccccsss" />
      <path
         id="path5061"
         style="opacity:0.05;fill:none;fill-opacity:1;stroke:#000000;stroke-opacity:1"
         d="m 300.77344,230 v 12.42969 h 1.41992 v -5.68555 h 6.3457 v -1.40625 h -6.3457 v -3.93359 h 7.13867 V 230 Z m 16.63281,14.34766 c -3.70326,0 -6.11719,2.87687 -6.11719,6.5625 0,3.73541 2.54598,6.47851 6.11719,6.47851 1.27141,0 2.39465,-0.34747 3.33594,-0.95898 0.51558,0.51512 1.02305,1.03856 1.52148,1.57031 l 1.02539,-0.99023 c -0.47226,-0.51906 -0.95751,-1.02663 -1.45508,-1.52149 1.02494,-1.15699 1.63672,-2.7436 1.63672,-4.57812 0,-3.66938 -2.37917,-6.5625 -6.06445,-6.5625 z m -12.29883,0.004 c -2.4965,0 -4.21484,1.13865 -4.21484,3.27149 0,1.65131 1.02583,2.77444 4.09961,3.65039 2.71185,0.80923 3.40429,1.60364 3.40429,2.54492 0,1.32293 -1.37281,2.13281 -3.10742,2.13281 -1.93477,0 -3.12324,-1.02541 -3.37109,-2.74414 l -1.38867,0.31445 c 0.31388,2.47852 2.13388,3.86638 4.79492,3.86914 2.54454,0 4.54297,-1.23683 4.54297,-3.61718 0,-1.91679 -1.28745,-2.92618 -4.2793,-3.85156 -2.5124,-0.79336 -3.24023,-1.50629 -3.24023,-2.43165 0,-1.13938 1.12231,-1.73437 2.70898,-1.73437 1.68691,0 2.77724,0.67868 3.125,2.28125 l 1.38867,-0.31445 c -0.42968,-1.95068 -1.67084,-3.3711 -4.46289,-3.3711 z m 12.29492,1.41797 c 2.77615,0 4.54493,2.21485 4.54493,5.12305 0,1.43872 -0.44591,2.66158 -1.18946,3.55273 -0.50584,-0.48642 -1.02349,-0.95904 -1.55273,-1.41992 l -0.99219,1.00781 c 0.49702,0.43328 0.9823,0.87831 1.45508,1.33789 -0.66128,0.3958 -1.42044,0.61133 -2.26563,0.61133 -2.62785,0 -4.56054,-2.09834 -4.56054,-5.08984 0,-2.90855 1.78474,-5.12305 4.56054,-5.12305 z"
         sodipodi:nodetypes="cccccccccccsssccccsssscsscccscssccsssccccsss" />
      <path
         id="path5063"
         style="display:inline;opacity:0.05;fill:none;fill-opacity:1;stroke:#000000;stroke-opacity:1;enable-background:new"
         d="m 423.98047,58 v 8.878906 h 1.01367 v -4.0625 h 4.5332 V 61.8125 h -4.5332 v -2.808594 h 5.10156 V 58 Z m 11.88086,10.248047 c -2.64519,0 -4.36914,2.054908 -4.36914,4.6875 0,2.66815 1.81827,4.626953 4.36914,4.626953 0.90814,0 1.71047,-0.246804 2.38281,-0.683594 0.36828,0.367946 0.73186,0.741274 1.08789,1.121094 l 0.73242,-0.707031 c -0.33732,-0.370761 -0.68561,-0.73442 -1.04101,-1.087891 0.73209,-0.82642 1.16992,-1.95916 1.16992,-3.269531 0,-2.620987 -1.69969,-4.6875 -4.33203,-4.6875 z m -8.78516,0.002 c -1.78321,0 -3.00976,0.814434 -3.00976,2.337891 0,1.179505 0.73217,1.981743 2.92773,2.607421 1.93704,0.578026 2.43359,1.146015 2.43359,1.81836 0,0.944937 -0.98169,1.523437 -2.2207,1.523437 -1.38198,0 -2.23117,-0.733283 -2.4082,-1.960937 l -0.99219,0.224609 c 0.2242,1.770372 1.52309,2.76365 3.42383,2.765625 1.81753,0 3.24609,-0.885688 3.24609,-2.585937 10e-6,-1.369134 -0.91961,-2.090966 -3.05664,-2.751953 -1.79457,-0.566668 -2.31445,-1.073386 -2.31445,-1.734375 0,-0.813827 0.80222,-1.240235 1.93555,-1.240235 1.20493,0 1.98403,0.484216 2.23242,1.628906 l 0.99023,-0.224609 C 429.95676,69.26487 429.07048,68.25 427.07617,68.25 Z m 8.78125,1.013672 c 1.98297,0 3.24805,1.582872 3.24805,3.660156 0,1.027653 -0.3185,1.900567 -0.84961,2.53711 -0.36132,-0.347297 -0.73136,-0.684632 -1.10938,-1.013672 l -0.70898,0.71875 c 0.35483,0.309318 0.70151,0.62893 1.03906,0.957031 -0.47235,0.282717 -1.01544,0.435547 -1.61914,0.435547 -1.87703,0 -3.25586,-1.497976 -3.25586,-3.634766 0,-2.07753 1.27315,-3.660156 3.25586,-3.660156 z"
         sodipodi:nodetypes="cccccccccccsssccccsssscsscccscssccssssccccsss" />
      <path
         id="path5065"
         style="display:inline;opacity:0.05;fill:none;fill-opacity:1;stroke:#000000;stroke-width:1.2;stroke-linecap:butt;stroke-miterlimit:4;stroke-dasharray:none;stroke-opacity:1;enable-background:new"
         d="m 422.10132,104.09961 v 6.99609 h 0.79883 v -3.20117 h 3.57226 v -0.79101 h -3.57226 v -2.2129 h 4.01758 v -0.79101 z m 9.56055,8.07422 c -2.08409,0 -3.44141,1.61918 -3.44141,3.69336 0,2.10218 1.43164,3.64648 3.44141,3.64648 0.71552,0 1.34721,-0.19492 1.87695,-0.53906 0.29017,0.29002 0.57693,0.58343 0.85742,0.88281 l 0.57617,-0.55664 c -0.26577,-0.29212 -0.53836,-0.57892 -0.81836,-0.85742 0.5768,-0.65112 0.91993,-1.54377 0.91993,-2.57617 0,-2.06503 -1.33813,-3.69336 -3.41211,-3.69336 z m -7.1211,0.002 c -1.40496,0 -2.37304,0.6415 -2.37304,1.8418 0,0.92932 0.57679,1.56172 2.30664,2.05469 1.52615,0.4554 1.91797,0.9019 1.91797,1.43164 0,0.74449 -0.77381,1.20117 -1.75,1.20117 -1.08883,0 -1.757,-0.57767 -1.89649,-1.54492 l -0.78125,0.17773 c 0.17664,1.39485 1.19972,2.17619 2.69727,2.17773 1.432,0 2.55664,-0.69752 2.55664,-2.0371 0,-1.07872 -0.72448,-1.6472 -2.4082,-2.16797 -1.41391,-0.44647 -1.82422,-0.84639 -1.82422,-1.36719 0,-0.64118 0.63244,-0.97656 1.52539,-0.97656 0.94934,0 1.5621,0.3813 1.75781,1.2832 l 0.7832,-0.17578 c -0.24182,-1.09778 -0.94045,-1.89844 -2.51172,-1.89844 z m 7.11914,0.79883 c 1.56232,0 2.55664,1.24616 2.55664,2.88281 0,0.80967 -0.2495,1.49847 -0.66796,2 -0.28466,-0.27377 -0.57716,-0.53947 -0.875,-0.79883 l -0.55664,0.56641 c 0.27956,0.24383 0.55241,0.49529 0.81836,0.75391 -0.37215,0.22274 -0.79976,0.34375 -1.2754,0.34375 -1.47889,0 -2.5664,-1.18171 -2.5664,-2.86524 0,-1.63685 1.00426,-2.88281 2.5664,-2.88281 z"
         sodipodi:nodetypes="cccccccccccsssccccsssscsscccscssccsssccccsss" />
      <path
         id="path5067"
         style="display:inline;opacity:0.05;fill:#000000;fill-opacity:1;stroke:#040000;stroke-width:1.416;stroke-miterlimit:4;stroke-dasharray:none;stroke-opacity:1;enable-background:new"
         d="m 419.19141,142.20703 -0.002,5.10352 h 0.58399 v -2.33594 h 2.60547 v -0.57617 h -2.60547 v -1.61524 h 2.93164 v -0.57617 z m 1.77924,5.89063 c -1.02488,0 -1.73047,0.46815 -1.73047,1.34375 0,0.6779 0.41976,1.14038 1.68165,1.5 1.11329,0.33222 1.39843,0.6585 1.39843,1.04492 0,0.5431 -0.56328,0.875 -1.27539,0.875 -0.79427,0 -1.28302,-0.42137 -1.38476,-1.12695 l -0.56836,0.1289 c 0.12885,1.01749 0.87436,1.58872 1.96679,1.58984 1.04462,0 1.86719,-0.5091 1.86719,-1.48632 0,-0.78689 -0.52957,-1.20213 -1.75781,-1.58203 -1.03142,-0.32569 -1.33008,-0.61621 -1.33008,-0.9961 0,-0.46775 0.45997,-0.71289 1.11133,-0.71289 0.69254,0 1.14045,0.27764 1.2832,0.93555 l 0.57031,-0.12891 c -0.17639,-0.80081 -0.68582,-1.38475 -1.83203,-1.38476 z m 5.46485,0 c -1.5203,0 -2.51172,1.1803 -2.51172,2.69336 0,1.5335 1.04563,2.66015 2.51172,2.66015 0.52196,0 0.98272,-0.14154 1.36914,-0.39258 0.21167,0.21155 0.42039,0.42615 0.625,0.64453 l 0.41992,-0.4082 c -0.19387,-0.21308 -0.39142,-0.41991 -0.5957,-0.62304 0.42077,-0.47498 0.67187,-1.12772 0.67187,-1.88086 0,-1.5064 -0.97731,-2.69335 -2.49023,-2.69336 z m -0.002,0.58398 c 1.13969,0 1.86524,0.90962 1.86524,2.10352 0,0.59066 -0.18302,1.09314 -0.48828,1.45898 -0.20766,-0.19969 -0.41945,-0.39477 -0.63672,-0.58398 l -0.40821,0.41406 c 0.20394,0.17787 0.40366,0.36016 0.59766,0.54883 -0.27146,0.16249 -0.58273,0.25195 -0.92969,0.25195 -1.07881,0 -1.87304,-0.86171 -1.87304,-2.08984 0,-1.19404 0.73348,-2.10352 1.87304,-2.10352 z"
         sodipodi:nodetypes="cccccccccccsscsscccscssccssssccccssssccccsss" />
      <path
         id="path4968"
         style="fill:#ffffff;fill-opacity:1;stroke-width:1.97531"
         d="m 79.842986,76 v 71.02238 h 8.11728 v -32.49229 h 36.265444 v -8.02854 H 87.960266 V 84.024691 H 128.75888 V 76 Z m 95.042434,81.98303 c -21.16148,0 -34.946,16.43539 -34.946,37.49614 0,21.34518 14.53909,37.02546 34.946,37.02546 7.26517,0 13.6953,-1.98794 19.07407,-5.48225 2.94626,2.94483 5.84402,5.93777 8.69213,8.97762 l 5.85649,-5.66743 c -2.69862,-2.9661 -5.47083,-5.86437 -8.31405,-8.69214 5.85679,-6.61135 9.35185,-15.6783 9.35185,-26.16126 0,-20.96791 -13.60174,-37.49614 -34.66049,-37.49614 z m -70.27006,0.0193 c -14.265686,0 -24.085654,6.50833 -24.085654,18.69597 0,9.43606 5.857621,15.86263 23.422054,20.86807 15.4963,4.62419 19.46375,9.15827 19.46375,14.53703 0,7.5595 -7.84638,12.1875 -17.75848,12.1875 -11.055804,0 -17.850684,-5.85778 -19.266984,-15.67901 l -7.935957,1.79398 c 1.793579,14.16296 12.186059,22.0984 27.391981,22.11419 14.54024,0 25.97222,-7.07703 25.97222,-20.679 0,-10.95309 -7.36744,-16.71828 -24.46373,-22.00618 -14.356546,-4.53333 -18.510807,-8.60098 -18.510807,-13.88888 0,-6.51062 6.419445,-9.91127 15.486117,-9.91127 9.63949,0 15.86391,3.87102 17.85108,13.02855 l 7.93596,-1.79398 c -2.45531,-11.14666 -9.54699,-19.26697 -25.50155,-19.26697 z m 70.25076,8.11341 c 15.8637,0 25.97223,12.65257 25.97223,29.27084 0,8.22124 -2.54895,15.21244 -6.79784,20.30478 -2.89052,-2.77967 -5.84924,-5.48754 -8.87346,-8.12114 l -5.66357,5.75618 c 2.83876,2.47582 5.60984,5.0282 8.31017,7.65432 -3.77876,2.26172 -8.11791,3.49537 -12.94753,3.49537 -15.01628,0 -26.06094,-11.99518 -26.06094,-29.08951 0,-16.62024 10.1992,-29.27084 26.06094,-29.27084 z"
         sodipodi:nodetypes="cccccccccccsssccccsssscsscccscssccsssccccsss" />
      <path
         id="path5011"
         style="fill:#ffffff;fill-opacity:1;stroke-width:0.740741"
         d="M 311.94184,45.999999 V 72.63339 h 3.04398 V 60.448783 h 13.59954 v -3.009259 h -13.59954 v -8.430266 h 15.29948 v -3.009259 z m 35.64091,30.743634 c -7.93555,0 -13.10474,6.163275 -13.10474,14.061053 0,8.004444 5.45215,13.884544 13.10474,13.884544 2.72445,0 5.13574,-0.74547 7.15278,-2.05584 1.10436,1.10432 2.19054,2.22667 3.2581,3.36661 l 2.19763,-2.12529 c -1.01197,-1.11229 -2.05156,-2.19914 -3.11777,-3.25955 2.1963,-2.479259 3.50695,-5.879363 3.50695,-9.810474 0,-7.862963 -5.10065,-14.061053 -12.99769,-14.061053 z m -26.35126,0.0073 c -5.34963,0 -9.03212,2.440626 -9.03212,7.010995 0,3.538518 2.1966,5.948484 8.78327,7.825521 5.81111,1.734074 7.2989,3.435798 7.2989,5.452835 0,2.834819 -2.94239,4.568866 -6.65943,4.568866 -4.14593,0 -6.69401,-2.196667 -7.22512,-5.87963 l -2.97743,0.672743 c 0.67259,5.311107 4.57121,8.288337 10.27344,8.294267 5.45259,0 9.73958,-2.65533 9.73958,-7.756072 0,-4.107408 -2.76279,-6.269352 -9.1739,-8.252315 -5.38371,-1.7 -6.94155,-3.22537 -6.94155,-5.208333 0,-2.441481 2.40729,-3.716724 5.80729,-3.716724 3.61481,0 5.94897,1.451632 6.69415,4.885706 l 2.97599,-0.672743 c -0.92074,-4.18 -3.58011,-7.225116 -9.56307,-7.225116 z m 26.34403,3.042534 c 5.94889,0 9.73959,4.744711 9.73959,10.976563 0,3.082963 -0.95586,5.704664 -2.54919,7.614294 -1.08397,-1.041891 -2.19349,-2.056861 -3.32755,-3.043981 l -2.12384,2.157117 c 1.06454,0.928434 2.10369,1.885573 3.11632,2.87037 -1.41704,0.84815 -3.04422,1.31076 -4.85533,1.31076 -5.63111,0 -9.77286,-4.49819 -9.77286,-10.90856 0,-6.232592 3.82471,-10.976563 9.77286,-10.976563 z"
         sodipodi:nodetypes="cccccccccccsssccccsssscsscccscssccsssccccsss" />
      <path
         id="path5013"
         style="fill:#ffffff;fill-opacity:1;stroke-width:0.493827"
         d="m 303.96123,152 v 17.75656 h 2.02932 v -8.12307 h 9.06539 v -2.00714 h -9.06539 v -5.61921 h 10.19869 V 152 Z m 23.76061,20.49672 c -5.29038,0 -8.7365,4.10885 -8.7365,9.37404 0,5.33629 3.63477,9.25636 8.7365,9.25636 1.81629,0 3.42286,-0.49698 4.76755,-1.37056 0.73655,0.73589 1.461,1.4838 2.17303,2.24344 l 1.46509,-1.4159 c -0.67465,-0.74152 -1.36771,-1.46609 -2.07851,-2.17303 1.46419,-1.65284 2.33796,-3.91957 2.33796,-6.54031 0,-5.24198 -3.40043,-9.37404 -8.66512,-9.37404 z m -17.56752,0.005 c -3.56642,0 -6.02141,1.62709 -6.02141,4.674 0,2.35901 1.46441,3.96565 5.85552,5.21701 3.87407,1.15605 4.86497,2.28957 4.86497,3.63426 0,1.88987 -1.9616,3.04688 -4.43963,3.04688 -2.76395,0 -4.46267,-1.46445 -4.81674,-3.91976 l -1.98399,0.4485 c 0.4484,3.54074 3.04748,5.5246 6.84896,5.52855 3.63506,0 6.49209,-1.76926 6.49209,-5.16976 0,-2.73827 -1.8409,-4.17956 -6.11497,-5.50154 -3.58914,-1.13333 -4.62867,-2.15024 -4.62867,-3.47222 1e-5,-1.62765 1.60487,-2.47878 3.87153,-2.47878 2.40988,0 3.96695,0.96872 4.46374,3.2581 l 1.98399,-0.4485 c -0.61383,-2.78666 -2.38675,-4.81674 -6.37539,-4.81674 z m 17.5627,2.02739 c 3.96592,0 6.49305,3.16411 6.49305,7.31867 0,2.05531 -0.63724,3.80311 -1.69946,5.0762 -0.72263,-0.69492 -1.46231,-1.37189 -2.21837,-2.03029 l -1.41589,1.43905 c 0.70969,0.61895 1.40246,1.25705 2.07754,1.91358 -0.94469,0.56543 -2.02947,0.87288 -3.23687,0.87288 -3.75408,0 -6.51524,-2.99784 -6.51524,-7.27142 0,-4.15506 2.5498,-7.31867 6.51524,-7.31867 z"
         sodipodi:nodetypes="cccccccccccsssccccsssscsscccscssccsssccccsss" />
      <path
         id="path5015"
         style="fill:#ffffff;fill-opacity:1;stroke-width:0.345679"
         d="m 300.77286,230 v 12.42959 h 1.42053 v -5.68615 h 6.34577 v -1.40499 h -6.34577 V 231.405 h 7.13908 V 230 Z m 16.63243,14.3477 c -3.70326,0 -6.11555,2.8762 -6.11555,6.56183 0,3.73541 2.54434,6.47945 6.11555,6.47945 1.27141,0 2.396,-0.34788 3.33729,-0.95939 0.51558,0.51512 1.02269,1.03866 1.52112,1.57041 l 1.02556,-0.99113 c -0.47226,-0.51906 -0.95739,-1.02626 -1.45496,-1.52112 1.02494,-1.15699 1.63657,-2.7437 1.63657,-4.57822 0,-3.66938 -2.3803,-6.56183 -6.06558,-6.56183 z m -12.29726,0.003 c -2.4965,0 -4.21499,1.13896 -4.21499,3.2718 0,1.65131 1.02508,2.77596 4.09886,3.65191 2.71185,0.80923 3.40548,1.6027 3.40548,2.54398 0,1.32293 -1.37312,2.13284 -3.10773,2.13284 -1.93477,0 -3.12388,-1.02512 -3.37173,-2.74385 l -1.38879,0.31394 c 0.31388,2.47852 2.13323,3.86722 4.79427,3.86999 2.54454,0 4.54447,-1.23848 4.54447,-3.61883 0,-1.91679 -1.28863,-2.92568 -4.28048,-3.85106 -2.5124,-0.79335 -3.24007,-1.50519 -3.24007,-2.43055 0,-1.13938 1.1234,-1.73515 2.71007,-1.73515 1.68691,0 2.77686,0.67808 3.12462,2.28065 l 1.38879,-0.31393 c -0.42968,-1.95068 -1.67072,-3.37174 -4.46277,-3.37174 z m 12.29388,1.41918 c 2.77615,0 4.54514,2.21487 4.54514,5.12307 0,1.43872 -0.44607,2.66218 -1.18962,3.55333 -0.50584,-0.48642 -1.02362,-0.96031 -1.55286,-1.42119 l -0.9918,1.00732 c 0.49702,0.43328 0.98218,0.87993 1.45496,1.33951 -0.66128,0.3958 -1.42063,0.61102 -2.26582,0.61102 -2.62785,0 -4.56066,-2.09849 -4.56066,-5.08999 0,-2.90855 1.78486,-5.12307 4.56066,-5.12307 z"
         sodipodi:nodetypes="cccccccccccsssccccsssscsscccscssccsssccccsss" />
      <path
         id="path5017"
         style="display:inline;fill:#ffffff;fill-opacity:1;stroke-width:0.246914;enable-background:new"
         d="m 423.98038,58 -3.8e-4,8.878279 h 1.01504 v -4.061535 h 4.53317 v -1.003569 h -4.53317 v -2.809606 h 5.09983 V 58 Z m 11.88031,10.24836 c -2.64519,0 -4.36825,2.053943 -4.36825,4.686535 0,2.66815 1.81738,4.628184 4.36825,4.628184 0.90814,0 1.71191,-0.24801 2.38425,-0.6848 0.36828,0.367946 0.73049,0.741901 1.08652,1.121721 l 0.73205,-0.707948 c -0.33732,-0.370761 -0.68384,-0.733045 -1.03924,-1.086516 0.73209,-0.82642 1.16898,-1.96027 1.16898,-3.270641 0,-2.620987 -1.70022,-4.686535 -4.33256,-4.686535 z m -8.78376,0.0024 c -1.78321,0 -3.01071,0.813541 -3.01071,2.336998 0,1.179505 0.7322,1.982828 2.92776,2.608506 1.93704,0.578026 2.43297,1.144785 2.43297,1.81713 0,0.944937 -0.98081,1.522954 -2.21982,1.522954 -1.38198,0 -2.23134,-0.732222 -2.40837,-1.959876 l -0.99201,0.224239 v 4.95e-4 c 0.2242,1.770372 1.52326,2.7623 3.424,2.764275 1.81753,0 3.24652,-0.885111 3.24652,-2.58536 1e-5,-1.369134 -0.92093,-2.089783 -3.05796,-2.75077 -1.79457,-0.566668 -2.31384,-1.074641 -2.31384,-1.73563 0,-0.813827 0.80243,-1.23939 1.93576,-1.23939 1.20493,0 1.98299,0.483878 2.23138,1.628569 l 0.99199,-0.224248 c -0.30691,-1.393333 -1.19337,-2.40789 -3.18768,-2.40789 z m 8.78134,1.013696 c 1.98297,0 3.24653,1.58157 3.24653,3.658854 0,1.027653 -0.31862,1.901554 -0.84973,2.538097 -0.36132,-0.347296 -0.73116,-0.68562 -1.10918,-1.01466 l -0.70795,0.719522 c 0.35483,0.309318 0.70122,0.628204 1.03877,0.956305 -0.47235,0.282717 -1.01474,0.436922 -1.61844,0.436922 -1.87703,0 -3.25762,-1.498915 -3.25762,-3.635705 0,-2.07753 1.27491,-3.659335 3.25762,-3.659335 z"
         sodipodi:nodetypes="cccccccccccsssccccsssscssccccscssccssssccccsss" />
      <path
         id="path5037"
         style="display:inline;fill:#ffffff;fill-opacity:1;stroke:#fffcff;stroke-width:0.2;stroke-miterlimit:4;stroke-dasharray:none;stroke-opacity:1;enable-background:new"
         d="m 422.1008,104.09989 -3.5e-4,6.99605 h 0.79928 l -10e-5,-3.20115 h 3.57223 v -0.791 h -3.57223 v -2.21289 h 4.01755 v -0.79101 z m 9.56048,8.07421 c -2.08409,0 -3.44138,1.61916 -3.44138,3.69334 0,2.10218 1.43161,3.64645 3.44138,3.64645 0.71552,0 1.3472,-0.19492 1.87694,-0.53906 0.29017,0.29002 0.57692,0.58343 0.85741,0.88281 l 0.57617,-0.55664 c -0.26577,-0.29212 -0.53834,-0.57891 -0.81834,-0.85741 0.5768,-0.65112 0.91991,-1.54375 0.91991,-2.57615 0,-2.06503 -1.33811,-3.69334 -3.41209,-3.69334 z m -7.12105,0.002 c -1.40496,0 -2.37302,0.64148 -2.37302,1.84178 0,0.92932 0.57678,1.56171 2.30663,2.05468 1.52615,0.4554 1.91795,0.90189 1.91795,1.43163 0,0.74449 -0.77379,1.20116 -1.74998,1.20116 -1.08883,0 -1.75699,-0.57765 -1.89648,-1.5449 l -0.78125,0.17772 c 0.17664,1.39485 1.1997,2.17617 2.69725,2.17772 1.432,0 2.55663,-0.69751 2.55663,-2.03709 0,-1.07872 -0.72447,-1.64718 -2.4082,-2.16795 -1.4139,-0.44647 -1.8242,-0.84639 -1.8242,-1.36719 0,-0.64118 0.63244,-0.97655 1.52539,-0.97655 0.94934,0 1.56208,0.3813 1.75779,1.2832 l 0.7832,-0.17579 c -0.24182,-1.09778 -0.94044,-1.89842 -2.51171,-1.89842 z m 7.1191,0.79882 c 1.56232,0 2.55662,1.24614 2.55663,2.88279 0,0.80967 -0.24951,1.49846 -0.66797,1.99999 -0.28466,-0.27377 -0.57715,-0.53946 -0.87499,-0.79882 l -0.55663,0.5664 c 0.27956,0.24383 0.55239,0.49528 0.81833,0.7539 -0.37214,0.22274 -0.79973,0.34375 -1.27537,0.34375 -1.47889,0 -2.56638,-1.18169 -2.56638,-2.86522 0,-1.63685 1.00424,-2.88279 2.56638,-2.88279 z"
         sodipodi:nodetypes="cccccccccccsssccccsssscsscccscssccsssccccsss" />
      <path
         id="path5039"
         style="display:inline;fill:#ffffff;fill-opacity:1;stroke:#ffffff;stroke-width:0.415968;stroke-miterlimit:4;stroke-dasharray:none;stroke-opacity:1;enable-background:new"
         d="m 419.19145,142.20798 -0.002,5.10314 h 0.58394 v -2.33577 h 2.60526 v -0.57612 h -2.60526 v -1.61512 h 2.93142 v -0.57613 z m 1.77917,5.89018 c -1.02488,0 -1.73034,0.46806 -1.73034,1.34366 0,0.6779 0.41963,1.14026 1.68151,1.49988 1.1133,0.33222 1.39834,0.65842 1.39834,1.04484 0,0.5431 -0.56319,0.87494 -1.2753,0.87494 -0.79427,0 -1.28291,-0.4213 -1.38465,-1.12688 l -0.56832,0.1289 c 0.12885,1.01749 0.87421,1.58859 1.96664,1.58972 1.04462,0 1.86705,-0.50899 1.86705,-1.48621 0,-0.78689 -0.52944,-1.20202 -1.75768,-1.58192 -1.03142,-0.32569 -1.32997,-0.61612 -1.32997,-0.99601 0,-0.46775 0.45988,-0.71284 1.11124,-0.71284 0.69254,0 1.14035,0.27757 1.2831,0.93548 l 0.57027,-0.1289 c -0.17639,-0.80081 -0.68568,-1.38465 -1.83189,-1.38466 z m 5.46444,0 c -1.5203,0 -2.51153,1.18009 -2.51153,2.69315 0,1.5335 1.04544,2.65996 2.51153,2.65996 0.52196,0 0.98261,-0.14151 1.36903,-0.39255 0.21167,0.21155 0.42034,0.42609 0.62495,0.64448 l 0.41989,-0.40817 c -0.19387,-0.21308 -0.39138,-0.41986 -0.59566,-0.623 0.42077,-0.47498 0.67183,-1.12758 0.67183,-1.88072 0,-1.5064 -0.97712,-2.69314 -2.49004,-2.69315 z m -0.002,0.58394 c 1.13969,0 1.86509,0.90945 1.86509,2.10335 0,0.59066 -0.18298,1.09304 -0.48824,1.45888 -0.20766,-0.19969 -0.4194,-0.39473 -0.63667,-0.58394 l -0.40818,0.41404 c 0.20394,0.17787 0.40361,0.36011 0.59761,0.54878 -0.27146,0.16249 -0.58265,0.25193 -0.92961,0.25193 -1.07881,0 -1.8729,-0.86156 -1.8729,-2.08969 0,-1.19404 0.73334,-2.10335 1.8729,-2.10335 z"
         sodipodi:nodetypes="cccccccccccsscsscccscssccssssccccssssccccsss" />
    </g>
    <g
       inkscape:groupmode="layer"
       id="layer5"
       inkscape:label="Highlights"
       style="display:inline"
       sodipodi:insensitive="true">
      <path
         style="color:#bebebe;display:inline;overflow:visible;visibility:visible;opacity:0.13;fill:#ffffff;fill-opacity:1;fill-rule:nonzero;stroke:none;stroke-width:0;marker:none;enable-background:accumulate"
         d="M 84,47 C 56.836703,47 35,68.836703 35,96 v 1 C 35,69.836703 56.836703,48 84,48 h 120 c 27.1633,0 49,21.836703 49,49 V 96 C 253,68.836703 231.1633,47 204,47 Z"
         id="rect3894"
         inkscape:connector-curvature="0" />
      <path
         style="color:#bebebe;display:inline;overflow:visible;visibility:visible;opacity:0.13;fill:#ffffff;fill-opacity:1;fill-rule:nonzero;stroke:none;stroke-width:0;marker:none;enable-background:accumulate"
         d="m 419,141 c -1.1253,0 -2,0.8747 -2,2 v 1 c 0,-1.1253 0.8747,-2 2,-2 h 10 c 1.1253,0 2,0.8747 2,2 v -1 c 0,-1.1253 -0.8747,-2 -2,-2 z"
         id="rect3896"
         inkscape:connector-curvature="0" />
      <path
         style="color:#bebebe;display:inline;overflow:visible;visibility:visible;opacity:0.13;fill:#ffffff;fill-opacity:1;fill-rule:nonzero;stroke:none;stroke-width:0;marker:none;enable-background:accumulate"
         d="m 422,102 c -2.2333,0 -4,1.7667 -4,4 v 1 c 0,-2.2333 1.7667,-4 4,-4 h 12 c 2.2333,0 4,1.7667 4,4 v -1 c 0,-2.2333 -1.7667,-4 -4,-4 z"
         id="rect3898"
         inkscape:connector-curvature="0" />
      <path
         style="color:#bebebe;display:inline;overflow:visible;visibility:visible;opacity:0.13;fill:#ffffff;fill-opacity:1;fill-rule:nonzero;stroke:none;stroke-width:0;marker:none;enable-background:accumulate"
         d="m 424,54 c -3.3413,0 -6,2.658703 -6,6 v 1 c 0,-3.341297 2.6587,-6 6,-6 h 16 c 3.3413,0 6,2.658703 6,6 v -1 c 0,-3.341297 -2.6587,-6 -6,-6 z"
         id="rect3900"
         inkscape:connector-curvature="0" />
      <path
         style="color:#bebebe;display:inline;overflow:visible;visibility:visible;opacity:0.13;fill:#ffffff;fill-opacity:1;fill-rule:nonzero;stroke:none;stroke-width:0;marker:none;enable-background:accumulate"
         d="m 300,224 c -4.4493,0 -8,3.5507 -8,8 v 1 c 0,-4.4493 3.5507,-8 8,-8 h 24 c 4.4493,0 8,3.5507 8,8 v -1 c 0,-4.4493 -3.5507,-8 -8,-8 z"
         id="rect3902"
         inkscape:connector-curvature="0" />
      <path
         style="color:#bebebe;display:inline;overflow:visible;visibility:visible;opacity:0.13;fill:#ffffff;fill-opacity:1;fill-rule:nonzero;stroke:none;stroke-width:0;marker:none;enable-background:accumulate"
         d="m 310,33 c -9.4353,0 -17,7.564703 -17,17 v 1 c 0,-9.435297 7.5647,-17 17,-17 h 52 c 9.4353,0 17,7.564703 17,17 v -1 c 0,-9.435297 -7.5647,-17 -17,-17 z"
         id="rect3904"
         inkscape:connector-curvature="0" />
      <path
         style="color:#bebebe;display:inline;overflow:visible;visibility:visible;opacity:0.13;fill:#ffffff;fill-opacity:1;fill-rule:nonzero;stroke:none;stroke-width:0;marker:none;enable-background:accumulate"
         d="m 302.5,143 c -6.3883,0 -11.5,5.1117 -11.5,11.5 v 1 c 0,-6.3883 5.1117,-11.5 11.5,-11.5 h 35 c 6.3883,0 11.5,5.1117 11.5,11.5 v -1 c 0,-6.3883 -5.1117,-11.5 -11.5,-11.5 z"
         id="rect3906"
         inkscape:connector-curvature="0" />
      <path
         id="path4085"
         d="m 204,266 c 27.1633,0 49,-21.8367 49,-49 v -1 c 0,27.1633 -21.8367,49 -49,49 H 84 C 56.8367,265 35,243.1633 35,216 v 1 c 0,27.1633 21.8367,49 49,49 z"
         style="color:#bebebe;display:inline;overflow:visible;visibility:visible;opacity:0.5;fill:#000000;fill-opacity:1;fill-rule:nonzero;stroke:none;stroke-width:0;marker:none;enable-background:accumulate"
         inkscape:connector-curvature="0" />
      <path
         id="path4087"
         d="m 429,156 c 1.1253,0 2,-0.8747 2,-2 v -1 c 0,1.1253 -0.8747,2 -2,2 h -10 c -1.1253,0 -2,-0.8747 -2,-2 v 1 c 0,1.1253 0.8747,2 2,2 z"
         style="color:#bebebe;display:inline;overflow:visible;visibility:visible;opacity:0.3;fill:#000000;fill-opacity:1;fill-rule:nonzero;stroke:none;stroke-width:0;marker:none;enable-background:accumulate"
         inkscape:connector-curvature="0" />
      <path
         id="path4089"
         d="m 434,123 c 2.2333,0 4,-1.7667 4,-4 v -1 c 0,2.2333 -1.7667,4 -4,4 h -12 c -2.2333,0 -4,-1.7667 -4,-4 v 1 c 0,2.2333 1.7667,4 4,4 z"
         style="color:#bebebe;display:inline;overflow:visible;visibility:visible;opacity:0.3;fill:#000000;fill-opacity:1;fill-rule:nonzero;stroke:none;stroke-width:0;marker:none;enable-background:accumulate"
         inkscape:connector-curvature="0" />
      <path
         id="path4091"
         d="m 440,83 c 3.3413,0 6,-2.6587 6,-6 v -1 c 0,3.3413 -2.6587,6 -6,6 h -16 c -3.3413,0 -6,-2.6587 -6,-6 v 1 c 0,3.3413 2.6587,6 6,6 z"
         style="color:#bebebe;display:inline;overflow:visible;visibility:visible;opacity:0.5;fill:#000000;fill-opacity:1;fill-rule:nonzero;stroke:none;stroke-width:0;marker:none;enable-background:accumulate"
         inkscape:connector-curvature="0" />
      <path
         id="path4093"
         d="m 324,265 c 4.4493,0 8,-3.5507 8,-8 v -1 c 0,4.4493 -3.5507,8 -8,8 h -24 c -4.4493,0 -8,-3.5507 -8,-8 v 1 c 0,4.4493 3.5507,8 8,8 z"
         style="color:#bebebe;display:inline;overflow:visible;visibility:visible;opacity:0.5;fill:#000000;fill-opacity:1;fill-rule:nonzero;stroke:none;stroke-width:0;marker:none;enable-background:accumulate"
         inkscape:connector-curvature="0" />
      <path
         id="path4095"
         d="m 362,120 c 9.4353,0 17,-7.5647 17,-17 v -1 c 0,9.4353 -7.5647,17 -17,17 h -52 c -9.4353,0 -17,-7.5647 -17,-17 v 1 c 0,9.4353 7.5647,17 17,17 z"
         style="color:#bebebe;display:inline;overflow:visible;visibility:visible;opacity:0.5;fill:#000000;fill-opacity:1;fill-rule:nonzero;stroke:none;stroke-width:0;marker:none;enable-background:accumulate"
         inkscape:connector-curvature="0" />
      <path
         id="path4097"
         d="m 337.5,202 c 6.3883,0 11.5,-5.1117 11.5,-11.5 v -1 c 0,6.3883 -5.1117,11.5 -11.5,11.5 h -35 c -6.3883,0 -11.5,-5.1117 -11.5,-11.5 v 1 c 0,6.3883 5.1117,11.5 11.5,11.5 z"
         style="color:#bebebe;display:inline;overflow:visible;visibility:visible;opacity:0.5;fill:#000000;fill-opacity:1;fill-rule:nonzero;stroke:none;stroke-width:0;marker:none;enable-background:accumulate"
         inkscape:connector-curvature="0" />
      <path
         inkscape:connector-curvature="0"
         id="path4280"
         d="M 84,265 C 56.836703,265 35,243.1633 35,216 v -1 c 0,27.1633 21.836703,49 49,49 h 120 c 27.1633,0 49,-21.8367 49,-49 v 1 c 0,27.1633 -21.8367,49 -49,49 z"
         style="color:#bebebe;display:inline;overflow:visible;visibility:visible;opacity:0.1;fill:#ffffff;fill-opacity:1;fill-rule:nonzero;stroke:none;stroke-width:0;marker:none;enable-background:accumulate" />
      <path
         style="color:#bebebe;display:inline;overflow:visible;visibility:visible;opacity:0.1;fill:#ffffff;fill-opacity:1;fill-rule:nonzero;stroke:none;stroke-width:0;marker:none;enable-background:accumulate"
         d="m 300,264 c -4.4493,0 -8,-3.5507 -8,-8 v -1 c 0,4.4493 3.5507,8 8,8 h 24 c 4.4493,0 8,-3.5507 8,-8 v 1 c 0,4.4493 -3.5507,8 -8,8 z"
         id="path4294"
         inkscape:connector-curvature="0" />
      <path
         style="color:#bebebe;display:inline;overflow:visible;visibility:visible;opacity:0.1;fill:#ffffff;fill-opacity:1;fill-rule:nonzero;stroke:none;stroke-width:0;marker:none;enable-background:accumulate"
         d="m 302.5,201 c -6.3883,0 -11.5,-5.1117 -11.5,-11.5 v -1 c 0,6.3883 5.1117,11.5 11.5,11.5 h 35 c 6.3883,0 11.5,-5.1117 11.5,-11.5 v 1 c 0,6.3883 -5.1117,11.5 -11.5,11.5 z"
         id="path4296"
         inkscape:connector-curvature="0" />
      <path
         style="color:#bebebe;display:inline;overflow:visible;visibility:visible;opacity:0.1;fill:#ffffff;fill-opacity:1;fill-rule:nonzero;stroke:none;stroke-width:0;marker:none;enable-background:accumulate"
         d="m 310,119 c -9.4353,0 -17,-7.5647 -17,-17 v -1 c 0,9.4353 7.5647,17 17,17 h 52 c 9.4353,0 17,-7.5647 17,-17 v 1 c 0,9.4353 -7.5647,17 -17,17 z"
         id="path4298"
         inkscape:connector-curvature="0" />
      <path
         style="color:#bebebe;display:inline;overflow:visible;visibility:visible;opacity:0.1;fill:#ffffff;fill-opacity:1;fill-rule:nonzero;stroke:none;stroke-width:0;marker:none;enable-background:accumulate"
         d="m 424,82 c -3.3413,0 -6,-2.658703 -6,-6 v -1 c 0,3.341297 2.6587,6 6,6 h 16 c 3.3413,0 6,-2.658703 6,-6 v 1 c 0,3.341297 -2.6587,6 -6,6 z"
         id="path4300"
         inkscape:connector-curvature="0" />
      <path
         style="color:#bebebe;display:inline;overflow:visible;visibility:visible;opacity:0.1;fill:#ffffff;fill-opacity:1;fill-rule:nonzero;stroke:none;stroke-width:0;marker:none;enable-background:accumulate"
         d="m 422,122 c -2.2333,0 -4,-1.7667 -4,-4 v -1 c 0,2.2333 1.7667,4 4,4 h 12 c 2.2333,0 4,-1.7667 4,-4 v 1 c 0,2.2333 -1.7667,4 -4,4 z"
         id="path4302"
         inkscape:connector-curvature="0" />
      <path
         style="color:#bebebe;display:inline;overflow:visible;visibility:visible;opacity:0.1;fill:#ffffff;fill-opacity:1;fill-rule:nonzero;stroke:none;stroke-width:0;marker:none;enable-background:accumulate"
         d="m 419,154.5 c -1.1253,0 -2,-0.8747 -2,-2 v -1 c 0,1.1253 0.8747,2 2,2 h 10 c 1.1253,0 2,-0.8747 2,-2 v 1 c 0,1.1253 -0.8747,2 -2,2 z"
         id="path4304"
         inkscape:connector-curvature="0" />
    </g>
    <g
       inkscape:groupmode="layer"
       id="layer3"
       inkscape:label="Border"
       style="display:inline"
       sodipodi:insensitive="true">
      <path
         style="color:#bebebe;display:inline;overflow:visible;visibility:visible;opacity:0.41;fill:#000000;fill-opacity:1;fill-rule:nonzero;stroke:none;stroke-width:0;marker:none;enable-background:accumulate"
         d="m 422,101 c -2.77,0 -5,2.23 -5,5 v 12 c 0,2.77 2.23,5 5,5 h 12 c 2.77,0 5,-2.23 5,-5 v -12 c 0,-2.77 -2.23,-5 -5,-5 z m 0,1 h 12 c 2.2333,0 4,1.7667 4,4 v 12 c 0,2.2333 -1.7667,4 -4,4 h -12 c -2.2333,0 -4,-1.7667 -4,-4 v -12 c 0,-2.2333 1.7667,-4 4,-4 z"
         id="rect4099"
         inkscape:connector-curvature="0" />
      <path
         style="color:#bebebe;display:inline;overflow:visible;visibility:visible;opacity:0.41;fill:#000000;fill-opacity:1;fill-rule:nonzero;stroke:none;stroke-width:0;marker:none;enable-background:accumulate"
         d="m 424,53 c -3.878,0 -7,3.122 -7,7 v 16 c 0,3.878 3.122,7 7,7 h 16 c 3.878,0 7,-3.122 7,-7 V 60 c 0,-3.878 -3.122,-7 -7,-7 z m 0,1 h 16 c 3.3413,0 6,2.658703 6,6 v 16 c 0,3.341297 -2.6587,6 -6,6 h -16 c -3.3413,0 -6,-2.658703 -6,-6 V 60 c 0,-3.341297 2.6587,-6 6,-6 z"
         id="rect4151"
         inkscape:connector-curvature="0" />
      <path
         style="color:#bebebe;display:inline;overflow:visible;visibility:visible;opacity:0.41;fill:#000000;fill-opacity:1;fill-rule:nonzero;stroke:none;stroke-width:0;marker:none;enable-background:accumulate"
         d="m 419,140 c -1.662,0 -3,1.338 -3,3 v 10 c 0,1.662 1.338,3 3,3 h 10 c 1.662,0 3,-1.338 3,-3 v -10 c 0,-1.662 -1.338,-3 -3,-3 z m 0,1 h 10 c 1.1253,0 2,0.8747 2,2 v 10 c 0,1.1253 -0.8747,2 -2,2 h -10 c -1.1253,0 -2,-0.8747 -2,-2 v -10 c 0,-1.1253 0.8747,-2 2,-2 z"
         id="rect4095"
         inkscape:connector-curvature="0" />
      <path
         style="color:#bebebe;display:inline;overflow:visible;visibility:visible;opacity:0.41;fill:#000000;fill-opacity:1;fill-rule:nonzero;stroke:none;stroke-width:0;marker:none;enable-background:accumulate"
         d="m 300,223 c -4.986,0 -9,4.014 -9,9 v 24 c 0,4.986 4.014,9 9,9 h 24 c 4.986,0 9,-4.014 9,-9 v -24 c 0,-4.986 -4.014,-9 -9,-9 z m 0,1 h 24 c 4.4493,0 8,3.5507 8,8 v 24 c 0,4.4493 -3.5507,8 -8,8 h -24 c -4.4493,0 -8,-3.5507 -8,-8 v -24 c 0,-4.4493 3.5507,-8 8,-8 z"
         id="rect4783"
         inkscape:connector-curvature="0" />
      <path
         style="color:#bebebe;display:inline;overflow:visible;visibility:visible;opacity:0.41;fill:#000000;fill-opacity:1;fill-rule:nonzero;stroke:none;stroke-width:0;marker:none;enable-background:accumulate"
         d="m 302.5,142 c -6.925,0 -12.5,5.575 -12.5,12.5 v 35 c 0,6.925 5.575,12.5 12.5,12.5 h 35 c 6.925,0 12.5,-5.575 12.5,-12.5 v -35 c 0,-6.925 -5.575,-12.5 -12.5,-12.5 z m 0,1 h 35 c 6.3883,0 11.5,5.1117 11.5,11.5 v 35 c 0,6.3883 -5.1117,11.5 -11.5,11.5 h -35 c -6.3883,0 -11.5,-5.1117 -11.5,-11.5 v -35 c 0,-6.3883 5.1117,-11.5 11.5,-11.5 z"
         id="rect4515"
         inkscape:connector-curvature="0" />
      <path
         style="color:#bebebe;display:inline;overflow:visible;visibility:visible;opacity:0.41;fill:#000000;fill-opacity:1;fill-rule:nonzero;stroke:none;stroke-width:0;marker:none;enable-background:accumulate"
         d="m 310,32 c -9.972,0 -18,8.028 -18,18 v 52 c 0,9.972 8.028,18 18,18 h 52 c 9.972,0 18,-8.028 18,-18 V 50 c 0,-9.972 -8.028,-18 -18,-18 z m 0,1 h 52 c 9.4353,0 17,7.564703 17,17 v 52 c 0,9.4353 -7.5647,17 -17,17 h -52 c -9.4353,0 -17,-7.5647 -17,-17 V 50 c 0,-9.435297 7.5647,-17 17,-17 z"
         id="rect4511"
         inkscape:connector-curvature="0" />
      <path
         style="color:#bebebe;display:inline;overflow:visible;visibility:visible;opacity:0.41;fill:#000000;fill-opacity:1;fill-rule:nonzero;stroke:none;stroke-width:0;marker:none;enable-background:accumulate"
         d="M 84,46 C 56.3,46 34,68.3 34,96 v 120 c 0,27.7 22.3,50 50,50 h 120 c 27.7,0 50,-22.3 50,-50 V 96 C 254,68.3 231.7,46 204,46 Z m 0,1 h 120 c 27.1633,0 49,21.836703 49,49 v 120 c 0,27.1633 -21.8367,49 -49,49 H 84 C 56.836703,265 35,243.1633 35,216 V 96 C 35,68.836703 56.836703,47 84,47 Z"
         id="rect4040"
         inkscape:connector-curvature="0" />
    </g>
  </g>
</svg>
