<?xml version="1.0" encoding="UTF-8" standalone="no"?>
<svg
   inkscape:export-ydpi="90.000000"
   inkscape:export-xdpi="90.000000"
   width="480"
   height="300"
   id="svg11300"
   sodipodi:version="0.32"
   inkscape:version="1.4 (e7c3feb, 2024-10-09)"
   sodipodi:docname="web-pixiv.svg"
   inkscape:output_extension="org.inkscape.output.svg.inkscape"
   version="1.0"
   style="display:inline;enable-background:new"
   inkscape:export-filename="/home/sam/moka-next-template.png"
   xmlns:inkscape="http://www.inkscape.org/namespaces/inkscape"
   xmlns:sodipodi="http://sodipodi.sourceforge.net/DTD/sodipodi-0.dtd"
   xmlns:xlink="http://www.w3.org/1999/xlink"
   xmlns="http://www.w3.org/2000/svg"
   xmlns:svg="http://www.w3.org/2000/svg"
   xmlns:rdf="http://www.w3.org/1999/02/22-rdf-syntax-ns#"
   xmlns:cc="http://creativecommons.org/ns#"
   xmlns:dc="http://purl.org/dc/elements/1.1/">
  <sodipodi:namedview
     stroke="#ef2929"
     fill="#f57900"
     id="base"
     pagecolor="#777777"
     bordercolor="#666666"
     borderopacity="0.25490196"
     inkscape:pageopacity="0"
     inkscape:pageshadow="2"
     inkscape:zoom="1"
     inkscape:cx="113.5"
     inkscape:cy="146"
     inkscape:current-layer="layer1"
     showgrid="false"
     inkscape:grid-bbox="true"
     inkscape:document-units="px"
     inkscape:showpageshadow="false"
     inkscape:window-width="1920"
     inkscape:window-height="1008"
     inkscape:window-x="0"
     inkscape:window-y="0"
     width="400px"
     height="300px"
     inkscape:snap-nodes="true"
     inkscape:snap-bbox="true"
     gridtolerance="10000"
     inkscape:object-nodes="true"
     inkscape:snap-grids="true"
     showguides="true"
     inkscape:guide-bbox="true"
     inkscape:window-maximized="1"
     inkscape:bbox-nodes="true"
     inkscape:bbox-paths="true"
     inkscape:snap-bbox-edge-midpoints="true"
     inkscape:snap-bbox-midpoints="true"
     inkscape:document-rotation="0"
     inkscape:pagecheckerboard="1"
     inkscape:deskcolor="#505050">
    <inkscape:grid
       spacingy="1px"
       spacingx="1px"
       id="grid5883"
       type="xygrid"
       enabled="true"
       visible="false"
       empspacing="4"
       snapvisiblegridlinesonly="true"
       dotted="false"
       color="#000000"
       opacity="0.12549"
       empcolor="#203ef3"
       empopacity="0.36470588"
       originx="0"
       originy="0"
       units="px" />
    <inkscape:grid
       type="xygrid"
       id="grid11592"
       empspacing="8"
       visible="false"
       enabled="false"
       spacingx="0.5px"
       spacingy="0.5px"
       color="#ff0000"
       opacity="0.12549"
       empcolor="#ff0000"
       empopacity="0.25098039"
       snapvisiblegridlinesonly="true"
       dotted="true"
       originx="0"
       originy="0"
       units="px" />
  </sodipodi:namedview>
  <defs
     id="defs3">
    <linearGradient
       inkscape:collect="always"
       xlink:href="#outerBackgroundGradient-09"
       id="linearGradient10837"
       gradientUnits="userSpaceOnUse"
       gradientTransform="matrix(0,-1,1,0,-12,300)"
       x1="35"
       y1="156"
       x2="253"
       y2="156" />
    <linearGradient
       inkscape:collect="always"
       xlink:href="#outerBackgroundGradient-09"
       id="linearGradient10839"
       gradientUnits="userSpaceOnUse"
       gradientTransform="matrix(0,-1,1,0,276,572)"
       x1="417"
       y1="148"
       x2="431"
       y2="148" />
    <linearGradient
       inkscape:collect="always"
       xlink:href="#outerBackgroundGradient-09"
       id="linearGradient10841"
       gradientUnits="userSpaceOnUse"
       gradientTransform="matrix(0,-1,1,0,316,540)"
       x1="418"
       y1="112"
       x2="438"
       y2="112" />
    <linearGradient
       inkscape:collect="always"
       xlink:href="#outerBackgroundGradient-09"
       id="linearGradient10843"
       gradientUnits="userSpaceOnUse"
       gradientTransform="matrix(0,-1,1,0,364,500)"
       x1="418"
       y1="68"
       x2="446"
       y2="68" />
    <linearGradient
       inkscape:collect="always"
       xlink:href="#outerBackgroundGradient-09"
       id="linearGradient10845"
       gradientUnits="userSpaceOnUse"
       gradientTransform="matrix(0,-1,1,0,68,556)"
       x1="292"
       y1="244"
       x2="332"
       y2="244" />
    <linearGradient
       inkscape:collect="always"
       xlink:href="#outerBackgroundGradient-09"
       id="linearGradient10847"
       gradientUnits="userSpaceOnUse"
       gradientTransform="matrix(0,-1,1,0,260,412)"
       x1="293"
       y1="76"
       x2="379"
       y2="76" />
    <linearGradient
       inkscape:collect="always"
       xlink:href="#outerBackgroundGradient-09"
       id="linearGradient10849"
       gradientUnits="userSpaceOnUse"
       gradientTransform="matrix(0,-1,1,0,148,492)"
       x1="291"
       y1="172"
       x2="349"
       y2="172" />
    <linearGradient
       id="outerBackgroundGradient-09">
      <stop
         style="stop-color:#007ed2;stop-opacity:1;"
         offset="0"
         id="stop3864-8-6-08" />
      <stop
         style="stop-color:#0096fa;stop-opacity:1;"
         offset="1"
         id="stop3866-9-1-3" />
    </linearGradient>
  </defs>
  <metadata
     id="metadata4">
    <rdf:RDF>
      <cc:Work
         rdf:about="">
        <dc:format>image/svg+xml</dc:format>
        <dc:type
           rdf:resource="http://purl.org/dc/dcmitype/StillImage" />
        <dc:creator>
          <cc:Agent>
            <dc:title>Sam Hewitt</dc:title>
          </cc:Agent>
        </dc:creator>
        <dc:source />
        <cc:license
           rdf:resource="" />
        <dc:subject>
          <rdf:Bag />
        </dc:subject>
        <dc:date />
        <dc:rights>
          <cc:Agent>
            <dc:title />
          </cc:Agent>
        </dc:rights>
        <dc:publisher>
          <cc:Agent>
            <dc:title />
          </cc:Agent>
        </dc:publisher>
        <dc:identifier />
        <dc:relation />
        <dc:language />
        <dc:coverage />
        <dc:description />
        <dc:contributor>
          <cc:Agent>
            <dc:title />
          </cc:Agent>
        </dc:contributor>
      </cc:Work>
      <cc:Work
         rdf:about="">
        <dc:format>image/svg+xml</dc:format>
        <dc:type
           rdf:resource="http://purl.org/dc/dcmitype/StillImage" />
      </cc:Work>
    </rdf:RDF>
  </metadata>
  <g
     style="display:inline"
     inkscape:groupmode="layer"
     inkscape:label="Icon"
     id="layer1">
    <g
       style="display:none"
       inkscape:label="Baseplate"
       id="layer7"
       inkscape:groupmode="layer">
      <text
         y="19.745117"
         xml:space="preserve"
         x="15.006836"
         style="font-style:normal;font-variant:normal;font-weight:normal;font-stretch:normal;line-height:0%;font-family:'DejaVu Sans';-inkscape-font-specification:'DejaVu Sans';display:inline;fill:#000000;fill-opacity:1;stroke:none;enable-background:new"
         inkscape:label="context"
         id="context"><tspan
           style="font-style:normal;font-variant:normal;font-weight:normal;font-stretch:normal;font-size:18px;line-height:1.25;font-family:'DejaVu Sans';-inkscape-font-specification:'DejaVu Sans'"
           y="19.745117"
           x="15.006836"
           sodipodi:role="line"
           id="tspan3933">apps</tspan></text>
      <text
         y="19.745117"
         xml:space="preserve"
         x="122.48828"
         style="font-style:normal;font-variant:normal;font-weight:bold;font-stretch:normal;line-height:0%;font-family:'DejaVu Sans';-inkscape-font-specification:'DejaVu Sans Bold';text-align:start;writing-mode:lr-tb;text-anchor:start;display:inline;fill:#000000;fill-opacity:1;stroke:none;enable-background:new"
         inkscape:label="icon-name"
         id="icon-name"><tspan
           style="font-style:normal;font-variant:normal;font-weight:bold;font-stretch:normal;font-size:18px;line-height:1.25;font-family:'DejaVu Sans';-inkscape-font-specification:'DejaVu Sans Bold';opacity:0.99"
           y="19.745117"
           x="122.48828"
           sodipodi:role="line"
           id="tspan3937">web-pixiv</tspan></text>
      <rect
         style="display:inline;overflow:visible;visibility:visible;fill:#eeeeec;fill-opacity:1;fill-rule:nonzero;stroke:none;stroke-width:2;marker:none;enable-background:accumulate"
         id="rect16x16"
         width="16"
         height="16"
         x="416"
         y="140"
         inkscape:label="16x16" />
      <rect
         style="display:inline;overflow:visible;visibility:visible;fill:#d4d4d4;fill-opacity:1;fill-rule:nonzero;stroke:none;stroke-width:2;marker:none;enable-background:accumulate"
         id="rect24x24"
         width="24"
         height="24"
         x="416"
         y="100"
         inkscape:label="24x24" />
      <rect
         style="display:inline;overflow:visible;visibility:visible;fill:#eeeeec;fill-opacity:1;fill-rule:nonzero;stroke:none;stroke-width:2;marker:none;enable-background:accumulate"
         id="rect32x32"
         width="32"
         height="32"
         x="416"
         y="52"
         inkscape:label="32x32" />
      <rect
         inkscape:label="22x22"
         y="101"
         x="417"
         height="22"
         width="22"
         id="rect22x22"
         style="display:inline;overflow:visible;visibility:visible;fill:#eeeeec;fill-opacity:1;fill-rule:nonzero;stroke:none;stroke-width:2;marker:none;enable-background:accumulate" />
      <rect
         inkscape:label="48x48"
         y="220"
         x="288"
         height="48"
         width="48"
         id="rect48x48"
         style="display:inline;overflow:visible;visibility:visible;fill:#eeeeec;fill-opacity:1;fill-rule:nonzero;stroke:none;stroke-width:2;marker:none;enable-background:accumulate" />
      <rect
         style="display:inline;overflow:visible;visibility:visible;fill:#eeeeec;fill-opacity:1;fill-rule:nonzero;stroke:none;stroke-width:2;marker:none;enable-background:accumulate"
         id="rect256x256"
         width="256"
         height="256"
         x="16"
         y="28"
         inkscape:label="256x256" />
      <rect
         style="display:inline;overflow:visible;visibility:visible;fill:#eeeeec;fill-opacity:1;fill-rule:nonzero;stroke:none;stroke-width:2;marker:none;enable-background:accumulate"
         id="rect64x64"
         width="64"
         height="64"
         x="288"
         y="140"
         inkscape:label="64x64" />
      <rect
         style="display:inline;overflow:visible;visibility:visible;fill:#eeeeec;fill-opacity:1;fill-rule:nonzero;stroke:none;stroke-width:2;marker:none;enable-background:accumulate"
         id="rect96x96"
         width="96"
         height="96"
         x="288"
         y="28"
         inkscape:label="96x96" />
    </g>
    <g
       inkscape:groupmode="layer"
       id="layer4"
       inkscape:label="Shadow"
       style="display:inline"
       sodipodi:insensitive="true">
      <rect
         ry="50"
         y="47"
         x="34"
         height="220"
         width="220"
         id="rect4114"
         style="color:#bebebe;display:inline;overflow:visible;visibility:visible;opacity:0.1;fill:#000000;fill-opacity:1;fill-rule:nonzero;stroke:none;stroke-width:0;marker:none;enable-background:accumulate" />
      <rect
         style="color:#bebebe;display:inline;overflow:visible;visibility:visible;opacity:0.1;fill:#000000;fill-opacity:1;fill-rule:nonzero;stroke:none;stroke-width:0;marker:none;enable-background:accumulate"
         id="rect4120"
         width="30"
         height="30"
         x="417"
         y="54"
         ry="7" />
      <rect
         transform="scale(1,-1)"
         ry="9"
         y="-266"
         x="291"
         height="42"
         width="42"
         id="rect4122"
         style="color:#bebebe;display:inline;overflow:visible;visibility:visible;opacity:0.1;fill:#000000;fill-opacity:1;fill-rule:nonzero;stroke:none;stroke-width:0;marker:none;enable-background:accumulate" />
      <rect
         style="color:#bebebe;display:inline;overflow:visible;visibility:visible;opacity:0.1;fill:#000000;fill-opacity:1;fill-rule:nonzero;stroke:none;stroke-width:0;marker:none;enable-background:accumulate"
         id="rect4124"
         width="88"
         height="88"
         x="292"
         y="33"
         ry="18" />
      <rect
         ry="12.5"
         y="143"
         x="290"
         height="60"
         width="60"
         id="rect4126"
         style="color:#bebebe;display:inline;overflow:visible;visibility:visible;opacity:0.1;fill:#000000;fill-opacity:1;fill-rule:nonzero;stroke:none;stroke-width:0;marker:none;enable-background:accumulate" />
      <path
         id="path4268"
         d="m 422,101 c -2.77,0 -5,2.23 -5,5 v 12 c 0,2.77 2.23,5 5,5 h 12 c 2.77,0 5,-2.23 5,-5 v -12 c 0,-2.77 -2.23,-5 -5,-5 z"
         style="color:#bebebe;display:inline;overflow:visible;visibility:visible;opacity:0.1;fill:#000000;fill-opacity:1;fill-rule:nonzero;stroke:none;stroke-width:0;marker:none;enable-background:accumulate"
         inkscape:connector-curvature="0"
         sodipodi:nodetypes="sssssssss" />
      <path
         id="path4270"
         d="m 419,140 c -1.662,0 -3,1.338 -3,3 v 10 c 0,1.662 1.338,3 3,3 h 10 c 1.662,0 3,-1.338 3,-3 v -10 c 0,-1.662 -1.338,-3 -3,-3 z"
         style="color:#bebebe;display:inline;overflow:visible;visibility:visible;opacity:0.1;fill:#000000;fill-opacity:1;fill-rule:nonzero;stroke:none;stroke-width:0;marker:none;enable-background:accumulate"
         inkscape:connector-curvature="0"
         sodipodi:nodetypes="sssssssss" />
    </g>
    <g
       inkscape:groupmode="layer"
       id="layer2"
       inkscape:label="Background"
       style="display:inline">
      <path
         style="color:#bebebe;display:inline;overflow:visible;visibility:visible;fill:url(#linearGradient10837);fill-opacity:1;fill-rule:nonzero;stroke:none;stroke-width:2;marker:none;enable-background:accumulate"
         d="M 84,46.5 C 56.56874,46.5 34.5,68.56873 34.5,96 v 120 c 0,27.43127 22.06874,49.5 49.5,49.5 h 120 c 27.43127,0 49.5,-22.06873 49.5,-49.5 V 96 C 253.5,68.56873 231.43127,46.5 204,46.5 Z"
         id="path4200"
         inkscape:connector-curvature="0" />
      <path
         style="color:#bebebe;display:inline;overflow:visible;visibility:visible;fill:url(#linearGradient10839);fill-opacity:1;fill-rule:nonzero;stroke:none;stroke-width:2;marker:none;enable-background:accumulate"
         d="m 419,140.5 c -1.3844,0 -2.5,1.1156 -2.5,2.5 v 10 c 0,1.3844 1.1156,2.5 2.5,2.5 h 10 c 1.3844,0 2.5,-1.1156 2.5,-2.5 v -10 c 0,-1.3844 -1.1156,-2.5 -2.5,-2.5 z"
         id="path4202"
         inkscape:connector-curvature="0" />
      <path
         style="color:#bebebe;display:inline;overflow:visible;visibility:visible;fill:url(#linearGradient10841);fill-opacity:1;fill-rule:nonzero;stroke:none;stroke-width:2;marker:none;enable-background:accumulate"
         d="m 422,101.5 c -2.49699,0 -4.5,2.00301 -4.5,4.5 v 12 c 0,2.49699 2.00301,4.5 4.5,4.5 h 12 c 2.49699,0 4.5,-2.00301 4.5,-4.5 v -12 c 0,-2.49699 -2.00301,-4.5 -4.5,-4.5 z"
         id="path4204"
         inkscape:connector-curvature="0" />
      <path
         style="color:#bebebe;display:inline;overflow:visible;visibility:visible;fill:url(#linearGradient10843);fill-opacity:1;fill-rule:nonzero;stroke:none;stroke-width:2;marker:none;enable-background:accumulate"
         d="m 424,53.5 c -3.60654,0 -6.5,2.89346 -6.5,6.5 v 16 c 0,3.60654 2.89346,6.5 6.5,6.5 h 16 c 3.60654,0 6.5,-2.89346 6.5,-6.5 V 60 c 0,-3.60654 -2.89346,-6.5 -6.5,-6.5 z"
         id="path4206"
         inkscape:connector-curvature="0" />
      <path
         style="color:#bebebe;display:inline;overflow:visible;visibility:visible;fill:url(#linearGradient10845);fill-opacity:1;fill-rule:nonzero;stroke:none;stroke-width:2;marker:none;enable-background:accumulate"
         d="m 300,223.5 c -4.71531,0 -8.5,3.78469 -8.5,8.5 v 24 c 0,4.71531 3.78469,8.5 8.5,8.5 h 24 c 4.71531,0 8.5,-3.78469 8.5,-8.5 v -24 c 0,-4.71531 -3.78469,-8.5 -8.5,-8.5 z"
         id="path4208"
         inkscape:connector-curvature="0" />
      <path
         style="color:#bebebe;display:inline;overflow:visible;visibility:visible;fill:url(#linearGradient10847);fill-opacity:1;fill-rule:nonzero;stroke:none;stroke-width:2;marker:none;enable-background:accumulate"
         d="m 310,32.5 c -9.70255,0 -17.5,7.79745 -17.5,17.5 v 52 c 0,9.70255 7.79745,17.5 17.5,17.5 h 52 c 9.70255,0 17.5,-7.79745 17.5,-17.5 V 50 c 0,-9.70255 -7.79745,-17.5 -17.5,-17.5 z"
         id="path4210"
         inkscape:connector-curvature="0" />
      <path
         style="color:#bebebe;display:inline;overflow:visible;visibility:visible;fill:url(#linearGradient10849);fill-opacity:1;fill-rule:nonzero;stroke:none;stroke-width:2;marker:none;enable-background:accumulate"
         d="m 302.5,142.5 c -6.65502,0 -12,5.34498 -12,12 v 35 c 0,6.65502 5.34498,12 12,12 h 35 c 6.65502,0 12,-5.34498 12,-12 v -35 c 0,-6.65502 -5.34498,-12 -12,-12 z"
         id="path4212"
         inkscape:connector-curvature="0" />
    </g>
    <g
       inkscape:groupmode="layer"
       id="layer6"
       inkscape:label="Symbols"
       style="display:inline">
      <path
         id="path6501"
         style="display:inline;enable-background:new;opacity:0.2;fill:#000000;fill-opacity:1;fill-rule:nonzero;stroke:none;stroke-width:0.999997"
         d="m 112.49975,129 c -2.48563,0 -4.49998,2.01437 -4.49998,4.5 0,2.48564 2.01435,4.5 4.49998,4.5 2.48562,0 4.49998,-2.01436 4.49998,-4.5 0,-2.48563 -2.01436,-4.5 -4.49998,-4.5 z m 59.9997,0 c -2.48564,0 -4.49998,2.01437 -4.49998,4.5 0,2.48564 2.01434,4.5 4.49998,4.5 2.48562,0 4.49997,-2.01436 4.49997,-4.5 0,-2.48563 -2.01435,-4.5 -4.49997,-4.5 z M 65.126947,143 C 64.504768,143 64,143.50012 64,144.11719 V 162 183.88672 C 64,184.50364 64.504768,185 65.126947,185 h 6.749966 c 0.622182,0 1.123041,-0.49636 1.123041,-1.11328 v -5.75391 c 3.00167,1.86743 6.464807,2.86038 9.999949,2.86719 10.493356,0 18.999907,-8.50659 18.999907,-19 0,-10.49341 -8.506551,-19 -18.999907,-19 -4.288882,0.0149 -8.446571,1.48039 -11.796815,4.1582 l -2.363269,-3.64648 C 68.632731,143.19239 68.277141,143 67.894511,143 Z m 43.999773,0 c -0.62108,0 -1.12695,0.49128 -1.12695,1.10156 v 34.79102 c 0,0.60922 0.5047,1.10742 1.12695,1.10742 h 6.74996 c 0.62088,0 1.12305,-0.49705 1.12305,-1.10742 v -34.79102 c 0,-0.60907 -0.501,-1.10156 -1.12305,-1.10156 z m 13.01751,0 c -0.45463,0 -0.72201,0.49906 -0.46093,0.86523 l 12.35736,17.3125 c 0.13561,0.18967 0.13561,0.44509 0,0.63477 l -12.36126,17.32031 c -0.26107,0.36613 0.006,0.86719 0.46092,0.86719 h 8.16598 c 1.10263,0 2.1342,-0.52943 2.76757,-1.41406 l 8.89057,-12.45508 c 0.2242,-0.31408 0.69768,-0.31408 0.92188,0 l 8.89057,12.45508 C 152.4091,179.47171 153.44182,180 154.54446,180 h 8.16598 c 0.45462,0 0.72198,-0.50106 0.46093,-0.86719 L 150.81011,161.8125 c -0.13561,-0.18968 -0.13561,-0.4451 0,-0.63477 l 12.3593,-17.3125 C 163.43048,143.49906 163.16141,143 162.70653,143 h -8.16597 c -1.10263,0 -2.13422,0.52748 -2.76757,1.41211 l -8.88667,12.44922 c -0.2242,0.31407 -0.69768,0.31407 -0.92188,0 l -8.88667,-12.44922 C 132.44558,143.52628 131.41282,143 130.31021,143 Z m 46.98218,0 c -0.62087,0 -1.12694,0.49128 -1.12694,1.10156 v 34.79102 c 0,0.60922 0.5049,1.10742 1.12694,1.10742 h 6.75193 c 0.62107,0 1.12694,-0.49705 1.12694,-1.10742 v -34.79102 c 0,-0.60907 -0.5047,-1.10156 -1.12694,-1.10156 z m 12.69916,0 c -0.39433,0 -0.66901,0.38669 -0.52734,0.74805 l 13.91008,35.54101 c 0.1676,0.42662 0.58698,0.71094 1.05273,0.71094 h 12.74408 c 0.46576,0 0.88062,-0.28317 1.04686,-0.71094 l 13.91009,-35.54101 C 224.10374,143.38669 223.83088,143 223.43669,143 h -6.51559 c -1.39825,0 -2.65088,0.84593 -3.15234,2.12695 l -10.60931,27.11133 c -0.18478,0.47255 -0.86775,0.47255 -1.05274,0 L 191.4974,145.12695 C 190.99613,143.84593 189.73961,143 188.34116,143 Z m -98.825667,9 c 5.522819,0 9.999949,4.47715 9.999949,10 0,5.52285 -4.47713,10 -9.999949,10 -5.522819,0 -9.999949,-4.47715 -9.999949,-10 0,-5.52285 4.47713,-10 9.999949,-10 z"
         sodipodi:nodetypes="sssssssssssscssssccscccssssssssssssccccssccccssccccssccccssssssssssssccssccssccccsssssss" />
      <path
         id="path6535"
         style="opacity:0.2;fill:#000000;fill-opacity:1;fill-rule:nonzero;stroke:none;stroke-width:1"
         d="m 323.00034,65 c -1.10302,0 -2.00003,0.897001 -2.00003,2 0,1.102999 0.89701,2 2.00003,2 1.10302,0 2.00004,-0.896999 2.00004,-2 0,-1.103001 -0.89702,-2 -2.00004,-2 z m 25.00043,0 c -1.10303,0 -2.00004,0.897 -2.00004,2 0,1.103 0.89701,2 2.00004,2 1.10302,0 2.00003,-0.897 2.00003,-2 0,-1.103 -0.89701,-2 -2.00003,-2 z m -44.51053,6 c -0.27057,4.33e-4 -0.48981,0.219666 -0.49024,0.490234 V 88.5 c -2.3e-4,0.276239 0.22377,0.500232 0.50001,0.5 h 3.00982 c 0.27096,4.8e-4 0.49072,-0.219287 0.49024,-0.490234 v -2.601563 c 1.21423,0.709139 2.59393,1.085721 4.00007,1.091797 4.41835,0 8.00013,-3.581726 8.00013,-8 0,-4.418274 -3.58178,-8 -8.00013,-8 -1.76005,0.0067 -3.46876,0.593681 -4.86141,1.669922 l -0.91408,-1.433594 C 305.13081,71.088752 304.96789,70.999554 304.793,71 Z m 17.97297,0 c -0.25546,4.66e-4 -0.46243,0.207437 -0.4629,0.462891 v 15.074218 c 4.7e-4,0.255454 0.20744,0.462425 0.4629,0.462891 h 3.07427 c 0.25545,-4.66e-4 0.46243,-0.207437 0.4629,-0.462891 V 71.462891 C 324.99991,71.207437 324.79293,71.000466 324.53748,71 Z m 5.28525,0 c -0.20204,-3.27e-4 -0.32076,0.226943 -0.20509,0.392578 l 5.17196,7.462891 c 0.0592,0.08584 0.0592,0.199315 0,0.285156 l -5.17587,7.466797 c -0.1157,0.165633 0.003,0.392929 0.20509,0.392578 h 3.60748 c 0.50051,0 0.96855,-0.246918 1.25588,-0.660156 l 3.53912,-5.105469 c 0.0987,-0.142547 0.30947,-0.142547 0.40822,0 l 3.53912,5.105469 C 339.38129,86.753825 339.84985,87 340.35025,87 h 3.60748 c 0.20204,3.53e-4 0.32078,-0.226945 0.20508,-0.392578 l -5.17587,-7.466797 c -0.0592,-0.08584 -0.0592,-0.199319 0,-0.285156 l 5.17392,-7.462891 C 344.27663,71.22695 344.15786,70.99959 343.95578,71 h -3.60748 c -0.50052,0 -0.96857,0.24691 -1.25588,0.660156 l -3.53717,5.101563 c -0.0988,0.142493 -0.30946,0.142493 -0.40822,0 l -3.53716,-5.101563 C 331.32292,71.246144 330.85438,71 330.35399,71 Z m 19.71517,0 c -0.25545,4.66e-4 -0.46243,0.207437 -0.4629,0.462891 v 15.074218 c 4.7e-4,0.255454 0.20745,0.462425 0.4629,0.462891 h 3.07427 c 0.25546,-4.66e-4 0.46243,-0.207437 0.4629,-0.462891 V 71.462891 C 350.00033,71.207437 349.79336,71.000466 349.5379,71 Z m 4.75789,0 c -0.17391,-6.29e-4 -0.29432,0.173422 -0.23242,0.335938 l 5.82823,15.332031 c 0.0738,0.194859 0.26037,0.323864 0.46876,0.324219 l 5.40048,-0.002 c 0.20905,3.04e-4 0.39647,-0.128791 0.47071,-0.324218 l 5.82626,-15.330078 C 369.04545,71.173423 368.92504,70.999378 368.75112,71 h -2.86919 c -0.63426,0 -1.20409,0.393552 -1.43166,0.992188 l -4.23054,11.125 c -0.0174,0.0459 -0.08,0.160156 -0.23438,0.160156 -0.15439,0 -0.21503,-0.114237 -0.23243,-0.160156 l -4.22858,-11.125 C 355.29685,71.39358 354.72698,71 354.09267,71 Z m -40.22138,4 c 2.20918,0 4.00007,1.790861 4.00007,4 0,2.209139 -1.79089,4 -4.00007,4 -2.20918,0 -4.00007,-1.790861 -4.00007,-4 0,-2.209139 1.79089,-4 4.00007,-4 z"
         sodipodi:nodetypes="ssssssssssccccccccsccccccccccccccccccccsccccsccccccsccccsccccccccccccccccccsccsccscsssss" />
      <path
         id="path6569"
         style="opacity:0.2;fill:#000000;fill-opacity:1;fill-rule:nonzero;stroke:none;stroke-width:1"
         d="m 311.49979,165 c -0.82523,0 -1.49997,0.67476 -1.49997,1.5 0,0.82525 0.67475,1.5 1.49997,1.5 0.82524,0 1.49998,-0.67475 1.49998,-1.5 0,-0.82523 -0.67474,-1.5 -1.49998,-1.5 z m 15.99976,0 c -0.82523,0 -1.49998,0.67477 -1.49998,1.5 0,0.82525 0.67475,1.5 1.49998,1.5 0.82524,0 1.49998,-0.67475 1.49998,-1.5 0,-0.82523 -0.67474,-1.5 -1.49998,-1.5 z m -29.12456,4 c -0.20703,1.7e-4 -0.37482,0.16796 -0.37499,0.375 v 11.25 c -1.8e-4,0.20718 0.16782,0.37518 0.37499,0.375 h 2.24997 c 0.20732,5.3e-4 0.37552,-0.16768 0.37499,-0.375 v -1.23828 c 0.77308,0.3993 1.62987,0.60949 2.49997,0.61328 3.03752,0 5.49991,-2.46243 5.49991,-5.5 0,-3.03757 -2.46239,-5.5 -5.49991,-5.5 -1.14586,0.005 -2.26159,0.3674 -3.19137,1.03711 l -0.55858,-0.86523 c -0.0682,-0.10662 -0.1859,-0.17134 -0.31249,-0.17188 z m 11.93341,0 c -0.1703,3.2e-4 -0.30826,0.13829 -0.30858,0.30859 v 10.38086 c -1.8e-4,0.17159 0.13895,0.31073 0.31054,0.31055 h 2.37886 c 0.17142,-2.1e-4 0.31034,-0.13913 0.31055,-0.31055 v -10.38086 c -3.1e-4,-0.1703 -0.13829,-0.30828 -0.30859,-0.30859 z m 3.16597,0 c -0.14381,0.001 -0.22784,0.16266 -0.14649,0.28125 l 3.53706,5.11133 c 0.0448,0.0646 0.0448,0.15023 0,0.21484 l -3.53901,5.10938 c -0.0833,0.11969 0.003,0.28358 0.14844,0.2832 h 2.69332 c 0.39074,-1.3e-4 0.75648,-0.19214 0.9785,-0.51367 l 2.19918,-3.19141 c 0.0742,-0.10865 0.23442,-0.10865 0.3086,0 l 2.20308,3.19336 c 0.22103,0.32038 0.58538,0.51169 0.9746,0.51172 h 2.69332 c 0.14594,7e-4 0.23269,-0.16269 0.15039,-0.2832 l -3.53901,-5.11133 c -0.0435,-0.0636 -0.0435,-0.14735 0,-0.21094 l 3.53706,-5.11133 c 0.0827,-0.11973 -0.003,-0.28306 -0.14844,-0.2832 h -2.69137 c -0.39172,1.7e-4 -0.75832,0.19296 -0.98045,0.51562 l -2.20114,3.1875 c -0.0739,0.10599 -0.23077,0.106 -0.30468,0 l -2.19918,-3.18945 c -0.22183,-0.32175 -0.5877,-0.51382 -0.97851,-0.51367 z m 12.83379,0 c -0.1703,3.2e-4 -0.30827,0.13829 -0.30859,0.30859 v 10.38086 c -1.8e-4,0.17159 0.13896,0.31073 0.31055,0.31055 h 2.37886 c 0.17142,-2.1e-4 0.31034,-0.13913 0.31055,-0.31055 v -10.38086 c -3.1e-4,-0.1703 -0.13829,-0.30828 -0.30859,-0.30859 z m 3.40229,0 c -0.13142,-4.5e-4 -0.22246,0.13105 -0.17577,0.25391 l 3.99017,10.5039 c 0.0555,0.14596 0.19541,0.24238 0.35155,0.24219 h 3.76947 c 0.15613,1.9e-4 0.29611,-0.0962 0.35157,-0.24219 l 3.99017,-10.5039 c 0.0467,-0.12286 -0.0444,-0.25436 -0.17578,-0.25391 h -2.12106 c -0.49141,0 -0.93328,0.30314 -1.10936,0.76172 l -2.64254,6.98633 c -0.062,0.16081 -0.28953,0.16081 -0.35156,0 l -2.64449,-6.98633 C 332.76665,169.3027 332.32297,169 331.83151,169 Z m -26.21053,3 c 1.38069,1e-5 2.49996,1.11929 2.49996,2.5 0,1.38071 -1.11927,2.49999 -2.49996,2.5 -1.3807,-1e-5 -2.49997,-1.11929 -2.49997,-2.5 0,-1.38071 1.11927,-2.49999 2.49997,-2.5 z"
         sodipodi:nodetypes="ssssssssssccccccccsccccccccccccccccccccccccscccccccccccccccccccccccccccccccsccccscsssss" />
      <path
         id="path6621"
         style="display:inline;opacity:0.2;fill:#000000;fill-opacity:1;fill-rule:nonzero;stroke:none;enable-background:new"
         d="m 301.75,232 c -0.41401,4.8e-4 -0.74952,0.33599 -0.75,0.75 V 244 257.25 c 3.3e-4,0.41408 0.33592,0.74967 0.75,0.75 h 4.50195 c 0.41408,-3.3e-4 0.74967,-0.33592 0.75,-0.75 v -2.88672 c 1.82084,1.06304 3.88963,1.62756 5.99805,1.63672 6.62742,0 12,-5.37258 12,-12 0,-6.62742 -5.37258,-12 -12,-12 -2.63309,0.0107 -5.18958,0.88707 -7.27539,2.49414 l -1.38281,-2.15039 c -0.1369,-0.21378 -0.3731,-0.34329 -0.62696,-0.34375 z m 11.25,6 c 3.31371,0 6,2.68629 6,6 0,3.31371 -2.68629,6 -6,6 -3.31371,0 -6,-2.68629 -6,-6 0,-3.31371 2.68629,-6 6,-6 z"
         sodipodi:nodetypes="cccccccccscccccsssss" />
      <path
         id="path6609"
         style="display:inline;opacity:0.2;fill:#000000;fill-opacity:1;fill-rule:nonzero;stroke:none;enable-background:new"
         d="m 424.50781,60 c -0.2803,3.69e-4 -0.50744,0.227509 -0.50781,0.507812 V 68 v 0.5 9.992188 c 3.7e-4,0.280303 0.22751,0.507443 0.50781,0.507812 h 2.98438 c 0.2803,-3.69e-4 0.50744,-0.227509 0.50781,-0.507812 v -2.789063 c 1.34897,0.845134 2.90816,1.294483 4.5,1.296875 4.69442,0 8.5,-3.80558 8.5,-8.5 0,-4.69442 -3.80558,-8.5 -8.5,-8.5 -1.91359,0.0069 -3.76888,0.659247 -5.26562,1.851562 l -1.04297,-1.61914 C 426.09876,60.088013 425.93916,60.000489 425.76758,60 Z M 432.5,64 c 2.48528,0 4.5,2.014719 4.5,4.5 0,2.485281 -2.01472,4.5 -4.5,4.5 -2.48528,0 -4.5,-2.014719 -4.5,-4.5 0,-2.485281 2.01472,-4.5 4.5,-4.5 z"
         sodipodi:nodetypes="ccccccccccscccccsssss" />
      <path
         id="path6615"
         style="display:inline;enable-background:new;opacity:0.2;fill:#000000;fill-opacity:1;fill-rule:nonzero;stroke:none;stroke-width:0.874907"
         d="m 422.375,106 c -0.20631,0 -0.375,0.16675 -0.375,0.37305 v 6.12695 7.12695 c 0,0.20626 0.16869,0.37305 0.375,0.37305 h 2.25195 C 424.83325,120 425,119.83321 425,119.62695 v -1.65039 c 1.04511,0.66812 2.25958,1.02324 3.5,1.02344 3.58985,-1e-5 6.5,-2.91016 6.5,-6.5 0,-3.58984 -2.91015,-6.49999 -6.5,-6.5 -1.48324,0.005 -2.92018,0.51699 -4.07227,1.45117 l -0.82226,-1.27929 C 423.53687,106.06485 423.41807,106 423.29102,106 Z m 6.125,3 c 1.933,0 3.5,1.567 3.5,3.5 0,1.933 -1.567,3.5 -3.5,3.5 -1.933,0 -3.5,-1.567 -3.5,-3.5 0,-1.933 1.567,-3.5 3.5,-3.5 z"
         sodipodi:nodetypes="sscssssccscccsssssss" />
      <path
         id="path6603"
         style="display:inline;enable-background:new;opacity:0.2;fill:#000000;fill-opacity:1;fill-rule:nonzero;stroke:none;stroke-width:0.833421"
         d="M 420.26562,144 C 420.11879,143.99998 420,144.11879 420,144.26562 V 153.75 c -1.2e-4,0.13812 0.11188,0.25012 0.25,0.25 h 1.48438 c 0.14684,3.6e-4 0.26598,-0.11878 0.26562,-0.26562 v -1.49805 c 0.73941,0.49632 1.60946,0.76209 2.5,0.76367 2.48528,0 4.5,-2.01472 4.5,-4.5 0,-2.48528 -2.01472,-4.5 -4.5,-4.5 -1.04845,0.002 -2.06324,0.37037 -2.86914,1.04102 l -0.5957,-0.92969 c -0.0391,-0.0611 -0.13057,-0.11134 -0.20313,-0.11133 -0.18888,2e-5 -0.37751,1e-5 -0.56641,0 z m 4.23438,2 c 1.38071,0 2.5,1.11929 2.5,2.5 0,1.38071 -1.11929,2.5 -2.5,2.5 -1.38071,0 -2.5,-1.11929 -2.5,-2.5 0,-1.38071 1.11929,-2.5 2.5,-2.5 z"
         sodipodi:nodetypes="ssccccccscccsssssss" />
      <path
         id="path17575"
         style="display:inline;enable-background:new;fill:#ffffff;fill-opacity:1;fill-rule:nonzero;stroke:none;stroke-width:1.96328"
         d="m 112.5,128 c -2.48564,0 -4.5,2.01437 -4.5,4.5 0,2.48564 2.01436,4.5 4.5,4.5 2.48563,0 4.5,-2.01436 4.5,-4.5 0,-2.48563 -2.01437,-4.5 -4.5,-4.5 z m 60,0 c -2.48565,0 -4.5,2.01437 -4.5,4.5 0,2.48564 2.01435,4.5 4.5,4.5 2.48564,0 4.5,-2.01436 4.5,-4.5 0,-2.48563 -2.01436,-4.5 -4.5,-4.5 z M 65.126953,142 C 64.504771,142 64,142.50012 64,143.11719 V 161 182.88672 C 64,183.50364 64.504771,184 65.126953,184 h 6.75 C 72.499139,184 73,183.50364 73,182.88672 v -5.75391 c 3.001686,1.86743 6.46484,2.86038 10,2.86719 10.49341,0 19,-8.50659 19,-19 0,-10.49341 -8.50659,-19 -19,-19 -4.288904,0.0149 -8.446614,1.48039 -11.796875,4.1582 l -2.363281,-3.64648 C 68.632755,142.19239 68.277163,142 67.894531,142 Z m 43.999997,0 C 108.50587,142 108,142.49128 108,143.10156 v 34.79102 C 108,178.5018 108.5047,179 109.12695,179 h 6.75 C 116.49783,179 117,178.50295 117,177.89258 V 143.10156 C 117,142.49249 116.499,142 115.87695,142 Z m 13.01758,0 c -0.45464,0 -0.72202,0.49906 -0.46094,0.86523 l 12.35743,17.3125 c 0.13561,0.18967 0.13561,0.44509 0,0.63477 l -12.36133,17.32031 c -0.26107,0.36613 0.006,0.86719 0.46093,0.86719 h 8.16602 c 1.10263,0 2.13421,-0.52943 2.76758,-1.41406 l 8.89062,-12.45508 c 0.2242,-0.31408 0.69768,-0.31408 0.92188,0 l 8.89062,12.45508 c 0.63221,0.88577 1.66494,1.41406 2.76758,1.41406 h 8.16602 c 0.45463,0 0.722,-0.50106 0.46094,-0.86719 L 150.81055,160.8125 c -0.13561,-0.18968 -0.13561,-0.4451 0,-0.63477 l 12.35937,-17.3125 C 163.43099,142.49906 163.16192,142 162.70703,142 h -8.16601 c -1.10263,0 -2.13423,0.52748 -2.76758,1.41211 l -8.88672,12.44922 c -0.2242,0.31407 -0.69768,0.31407 -0.92188,0 l -8.88672,-12.44922 C 132.44593,142.52628 131.41316,142 130.31055,142 Z m 46.98242,0 C 168.50607,142 168,142.49128 168,143.10156 v 34.79102 C 168,178.5018 168.5049,179 169.12695,179 h 6.75196 c 0.62108,0 1.12695,-0.49705 1.12695,-1.10742 v -34.79102 c 0,-0.60907 -0.5047,-1.10156 -1.12695,-1.10156 z m 12.69836,0 c -0.39433,0 -0.66901,0.38669 -0.52734,0.74805 l 13.91015,35.54101 C 195.37572,178.71568 195.7951,179 196.26086,179 H 209.005 c 0.46576,0 0.88063,-0.28317 1.04687,-0.71094 l 13.91016,-35.54101 C 224.1037,142.38669 223.83084,142 223.43664,142 h -6.51563 c -1.39826,0 -2.65088,0.84593 -3.15234,2.12695 l -10.60938,27.11133 c -0.18478,0.47255 -0.86774,0.47255 -1.05273,0 L 191.49718,144.12695 C 190.99591,142.84593 189.73938,142 188.34093,142 Z M 83,151 c 5.522847,0 10,4.47715 10,10 0,5.52285 -4.477153,10 -10,10 -5.522847,0 -10,-4.47715 -10,-10 0,-5.52285 4.477153,-10 10,-10 z"
         sodipodi:nodetypes="sssssssssssscssssccscccssssssssssssccccssccccssccccssccccssssssssssssccssccssccccsssssss" />
      <path
         id="path17168"
         style="color:#000000;fill:#ffffff;stroke-width:0.281;-inkscape-stroke:none"
         d="m 323,64 c -1.103,0 -2,0.897001 -2,2 0,1.102999 0.897,2 2,2 1.103,0 2,-0.896999 2,-2 0,-1.103001 -0.897,-2 -2,-2 z m 25,0 c -1.10301,0 -2,0.897 -2,2 0,1.103 0.89699,2 2,2 1.103,0 2,-0.897 2,-2 0,-1.103 -0.897,-2 -2,-2 z m -44.50977,6 c -0.27057,4.33e-4 -0.4898,0.219666 -0.49023,0.490234 V 87.5 c -2.3e-4,0.276239 0.22376,0.500232 0.5,0.5 h 3.00977 c 0.27095,4.8e-4 0.49071,-0.219287 0.49023,-0.490234 v -2.601563 c 1.21421,0.709139 2.59389,1.085721 4,1.091797 4.41828,0 8,-3.581726 8,-8 0,-4.418274 -3.58172,-8 -8,-8 -1.76002,0.0067 -3.4687,0.593681 -4.86133,1.669922 l -0.91406,-1.433594 C 305.13077,70.088752 304.96785,69.999554 304.79297,70 Z m 17.97266,0 c -0.25545,4.66e-4 -0.46242,0.207437 -0.46289,0.462891 v 15.074218 c 4.7e-4,0.255454 0.20744,0.462425 0.46289,0.462891 h 3.07422 c 0.25545,-4.66e-4 0.46242,-0.207437 0.46289,-0.462891 V 70.462891 C 324.99953,70.207437 324.79256,70.000466 324.53711,70 Z m 5.28516,0 c -0.20203,-3.27e-4 -0.32075,0.226943 -0.20508,0.392578 l 5.17187,7.462891 c 0.0592,0.08584 0.0592,0.199315 0,0.285156 l -5.17578,7.466797 c -0.1157,0.165633 0.003,0.392929 0.20508,0.392578 h 3.60742 c 0.5005,0 0.96854,-0.246918 1.25586,-0.660156 l 3.53906,-5.105469 c 0.0987,-0.142547 0.30947,-0.142547 0.40821,0 l 3.53906,5.105469 C 339.38067,85.753825 339.84922,86 340.34961,86 h 3.60742 c 0.20204,3.53e-4 0.32078,-0.226945 0.20508,-0.392578 l -5.17578,-7.466797 c -0.0592,-0.08584 -0.0592,-0.199319 0,-0.285156 l 5.17383,-7.462891 C 344.27593,70.22695 344.15716,69.99959 343.95508,70 h -3.60742 c -0.50051,0 -0.96855,0.24691 -1.25586,0.660156 l -3.53711,5.101563 c -0.0988,0.142493 -0.30945,0.142493 -0.40821,0 l -3.5371,-5.101563 C 331.32245,70.246144 330.8539,70 330.35352,70 Z m 19.71484,0 c -0.25545,4.66e-4 -0.46242,0.207437 -0.46289,0.462891 v 15.074218 c 4.7e-4,0.255454 0.20744,0.462425 0.46289,0.462891 h 3.07422 c 0.25545,-4.66e-4 0.46242,-0.207437 0.46289,-0.462891 V 70.462891 C 349.99953,70.207437 349.79256,70.000466 349.53711,70 Z m 4.75846,0 c -0.17391,-6.29e-4 -0.29432,0.173422 -0.23242,0.335938 l 5.82812,15.332031 c 0.0738,0.194859 0.26037,0.323865 0.46875,0.324219 l 5.40039,-0.002 c 0.20905,3.04e-4 0.39648,-0.128791 0.47071,-0.324218 l 5.82617,-15.330078 c 0.0619,-0.162515 -0.0585,-0.33656 -0.23242,-0.335938 h -2.86914 c -0.63425,0 -1.20407,0.393552 -1.43164,0.992188 l -4.23047,11.125 c -0.0174,0.0459 -0.08,0.160156 -0.23438,0.160156 -0.15439,0 -0.21502,-0.114236 -0.23242,-0.160156 l -4.22852,-11.125 C 355.2966,70.393534 354.72674,70 354.09244,70 Z M 311,74 c 2.20914,0 4,1.790861 4,4 0,2.209139 -1.79086,4 -4,4 -2.20914,0 -4,-1.790861 -4,-4 0,-2.209139 1.79086,-4 4,-4 z"
         sodipodi:nodetypes="ssssssssssccccccccsccccccccccccccccccccsccccsccccccsccccsccccccccccccccccccsccsccscsssss" />
      <path
         id="path17323"
         style="color:#000000;fill:#ffffff;stroke-width:0.52;-inkscape-stroke:none"
         d="m 311.5,164 c -0.82525,0 -1.5,0.67476 -1.5,1.5 0,0.82525 0.67476,1.5 1.5,1.5 0.82525,0 1.5,-0.67475 1.5,-1.5 0,-0.82523 -0.67475,-1.5 -1.5,-1.5 z m 16,0 c -0.82524,0 -1.5,0.67477 -1.5,1.5 0,0.82525 0.67476,1.5 1.5,1.5 0.82525,0 1.5,-0.67475 1.5,-1.5 0,-0.82523 -0.67475,-1.5 -1.5,-1.5 z m -29.125,4 c -0.20704,1.7e-4 -0.37483,0.16796 -0.375,0.375 v 11.25 c -1.8e-4,0.20718 0.16782,0.37518 0.375,0.375 h 2.25 c 0.20732,5.3e-4 0.37553,-0.16768 0.375,-0.375 v -1.23828 c 0.77309,0.3993 1.62989,0.60949 2.5,0.61328 3.03757,0 5.5,-2.46243 5.5,-5.5 0,-3.03757 -2.46243,-5.5 -5.5,-5.5 -1.14587,0.005 -2.26162,0.3674 -3.19141,1.03711 L 299.75,168.17188 c -0.0682,-0.10662 -0.18591,-0.17134 -0.3125,-0.17188 z m 11.93359,0 c -0.1703,3.2e-4 -0.30827,0.13829 -0.30859,0.30859 v 10.38086 c -1.8e-4,0.17159 0.13896,0.31073 0.31055,0.31055 h 2.3789 c 0.17142,-2.1e-4 0.31034,-0.13913 0.31055,-0.31055 v -10.38086 c -3.1e-4,-0.1703 -0.13829,-0.30828 -0.30859,-0.30859 z m 3.16602,0 c -0.14381,0.001 -0.22785,0.16266 -0.14649,0.28125 l 3.53711,5.11133 c 0.0448,0.0646 0.0448,0.15023 0,0.21484 l -3.53906,5.10938 c -0.0833,0.11969 0.003,0.28358 0.14844,0.2832 h 2.69336 c 0.39074,-1.3e-4 0.75649,-0.19214 0.97851,-0.51367 l 2.19922,-3.19141 c 0.0742,-0.10865 0.23442,-0.10865 0.3086,0 l 2.20312,3.19336 c 0.22103,0.32038 0.58538,0.51169 0.97461,0.51172 h 2.69336 c 0.14594,7e-4 0.2327,-0.16269 0.15039,-0.2832 l -3.53906,-5.11133 c -0.0435,-0.0636 -0.0435,-0.14735 0,-0.21094 l 3.53711,-5.11133 c 0.0827,-0.11973 -0.003,-0.28306 -0.14844,-0.2832 h -2.69141 c -0.39173,1.7e-4 -0.75833,0.19296 -0.98046,0.51562 l -2.20118,3.1875 c -0.0739,0.10599 -0.23077,0.10599 -0.30468,0 l -2.19922,-3.18945 c -0.22183,-0.32175 -0.58771,-0.51382 -0.97852,-0.51367 z m 12.83398,0 c -0.1703,3.2e-4 -0.30827,0.13829 -0.30859,0.30859 v 10.38086 c -1.8e-4,0.17159 0.13896,0.31073 0.31055,0.31055 h 2.3789 c 0.17142,-2.1e-4 0.31034,-0.13913 0.31055,-0.31055 v -10.38086 c -3.1e-4,-0.1703 -0.13829,-0.30828 -0.30859,-0.30859 z m 3.40162,0 c -0.13143,-4.5e-4 -0.22246,0.13105 -0.17577,0.25391 l 3.99024,10.5039 c 0.0555,0.14596 0.19542,0.24238 0.35156,0.24219 h 3.76953 c 0.15613,1.9e-4 0.2961,-0.0962 0.35156,-0.24219 l 3.99024,-10.5039 c 0.0467,-0.12286 -0.0444,-0.25436 -0.17578,-0.25391 h -2.1211 c -0.49142,0 -0.93329,0.30314 -1.10937,0.76172 l -2.64259,6.98633 c -0.062,0.16081 -0.28953,0.16081 -0.35156,0 l -2.64452,-6.98633 C 332.76647,168.3027 332.32279,168 331.83132,168 Z M 303.5,171 c 1.38072,1e-5 2.5,1.11929 2.5,2.5 0,1.38071 -1.11928,2.49999 -2.5,2.5 -1.38072,-1e-5 -2.5,-1.11929 -2.5,-2.5 0,-1.38071 1.11928,-2.49999 2.5,-2.5 z"
         sodipodi:nodetypes="ssssssssssccccccccsccccccccccccccccccccccccscccccccccccccccccccccccccccccccsccccscsssss" />
      <path
         id="path16299"
         style="color:#000000;fill:#ffffff;stroke-width:0.448;-inkscape-stroke:none"
         d="M 301,231.75088 V 243 256.24941 A 0.75059,0.75059 0 0 0 301.75059,257 h 4.50077 a 0.75059,0.75059 0 0 0 0.75059,-0.75059 v -2.88613 c 1.82084,1.06304 3.88963,1.62756 5.99805,1.63672 6.62742,0 12,-5.37258 12,-12 0,-6.62742 -5.37258,-12 -12,-12 -2.63309,0.0107 -5.18958,0.88707 -7.27539,2.49414 l -1.38212,-2.15131 A 0.74611392,0.74611392 0 0 0 303.71476,231 h -1.96388 A 0.75088,0.75088 0 0 0 301,231.75088 Z M 313,237 c 3.31371,0 6,2.68629 6,6 0,3.31371 -2.68629,6 -6,6 -3.31371,0 -6,-2.68629 -6,-6 0,-3.31371 2.68629,-6 6,-6 z"
         sodipodi:nodetypes="ccccccsccccsssss" />
      <path
         id="path15563"
         style="color:#000000;display:inline;fill:#ffffff;stroke:none;stroke-width:0.156;-inkscape-stroke:none;enable-background:new"
         d="M 424,59.50848 V 67 67.5 l 6.7e-4,9.99152 c 0,0.280826 0.22765,0.50848 0.50848,0.50848 h 2.98304 c 0.28083,0 0.50848,-0.227654 0.50848,-0.50848 L 428,74.703125 c 1.34897,0.845134 2.90816,1.294483 4.5,1.296875 4.69442,0 8.5,-3.80558 8.5,-8.5 0,-4.69442 -3.80558,-8.5 -8.5,-8.5 -1.91359,0.0069 -3.76887,0.659247 -5.26562,1.851562 l -1.04287,-1.61981 C 426.09851,59.087298 425.93847,58.999999 425.76667,59 h -1.25819 C 424.22765,59 424,59.227654 424,59.50848 Z M 432.5,63 c 2.48528,0 4.5,2.014719 4.5,4.5 0,2.485281 -2.01472,4.5 -4.5,4.5 -2.48528,0 -4.5,-2.014719 -4.5,-4.5 0,-2.485281 2.01472,-4.5 4.5,-4.5 z"
         sodipodi:nodetypes="scccccccccccsssssssss" />
      <path
         id="path227"
         style="display:inline;enable-background:new;fill:#ffffff;stroke-width:1"
         d="M 422.375 105 C 422.16869 105 422 105.16675 422 105.37305 L 422 111.5 L 422 118.62695 C 422 118.83321 422.16869 119 422.375 119 L 424.62695 119 C 424.83325 119 425 118.83321 425 118.62695 L 425 116.97656 A 6.5000153 6.5 0 0 0 428.5 118 A 6.5000153 6.5 0 0 0 435 111.5 A 6.5000153 6.5 0 0 0 428.5 105 A 6.5000153 6.5 0 0 0 424.42773 106.45117 L 423.60547 105.17188 C 423.53687 105.06485 423.41807 105 423.29102 105 L 422.375 105 z M 428.5 108 A 3.5 3.5 0 0 1 432 111.5 A 3.5 3.5 0 0 1 428.5 115 A 3.5 3.5 0 0 1 425 111.5 A 3.5 3.5 0 0 1 428.5 108 z " />
      <path
         id="path9604"
         style="display:inline;enable-background:new;color:#000000;fill:#f9f9f9;stroke-width:0.136;-inkscape-stroke:none"
         d="m 420,143.26588 v 9.48433 A 0.24979,0.24979 0 0 0 420.24979,153 h 1.48523 A 0.26498,0.26498 0 0 0 422,152.73502 v -1.49869 c 0.73941,0.49632 1.60946,0.76209 2.5,0.76367 2.48528,0 4.5,-2.01472 4.5,-4.5 0,-2.48528 -2.01472,-4.5 -4.5,-4.5 -1.04845,0.002 -2.06324,0.37037 -2.86914,1.04102 l -0.59607,-0.9304 c -0.0391,-0.0611 -0.12969,-0.11061 -0.20225,-0.1106 -0.18888,2e-5 -0.37777,1e-5 -0.56666,0 C 420.11904,143 420,143.11904 420,143.26588 Z M 424.5,145 c 1.38071,0 2.5,1.11929 2.5,2.5 0,1.38071 -1.11929,2.5 -2.5,2.5 -1.38071,0 -2.5,-1.11929 -2.5,-2.5 0,-1.38071 1.11929,-2.5 2.5,-2.5 z"
         sodipodi:nodetypes="cccccsccccsssss" />
    </g>
    <g
       inkscape:groupmode="layer"
       id="layer5"
       inkscape:label="Highlights"
       style="display:inline"
       sodipodi:insensitive="true">
      <path
         style="color:#bebebe;display:inline;overflow:visible;visibility:visible;opacity:0.13;fill:#ffffff;fill-opacity:1;fill-rule:nonzero;stroke:none;stroke-width:0;marker:none;enable-background:accumulate"
         d="M 84,47 C 56.836703,47 35,68.836703 35,96 v 1 C 35,69.836703 56.836703,48 84,48 h 120 c 27.1633,0 49,21.836703 49,49 V 96 C 253,68.836703 231.1633,47 204,47 Z"
         id="rect3894"
         inkscape:connector-curvature="0" />
      <path
         style="color:#bebebe;display:inline;overflow:visible;visibility:visible;opacity:0.13;fill:#ffffff;fill-opacity:1;fill-rule:nonzero;stroke:none;stroke-width:0;marker:none;enable-background:accumulate"
         d="m 419,141 c -1.1253,0 -2,0.8747 -2,2 v 1 c 0,-1.1253 0.8747,-2 2,-2 h 10 c 1.1253,0 2,0.8747 2,2 v -1 c 0,-1.1253 -0.8747,-2 -2,-2 z"
         id="rect3896"
         inkscape:connector-curvature="0" />
      <path
         style="color:#bebebe;display:inline;overflow:visible;visibility:visible;opacity:0.13;fill:#ffffff;fill-opacity:1;fill-rule:nonzero;stroke:none;stroke-width:0;marker:none;enable-background:accumulate"
         d="m 422,102 c -2.2333,0 -4,1.7667 -4,4 v 1 c 0,-2.2333 1.7667,-4 4,-4 h 12 c 2.2333,0 4,1.7667 4,4 v -1 c 0,-2.2333 -1.7667,-4 -4,-4 z"
         id="rect3898"
         inkscape:connector-curvature="0" />
      <path
         style="color:#bebebe;display:inline;overflow:visible;visibility:visible;opacity:0.13;fill:#ffffff;fill-opacity:1;fill-rule:nonzero;stroke:none;stroke-width:0;marker:none;enable-background:accumulate"
         d="m 424,54 c -3.3413,0 -6,2.658703 -6,6 v 1 c 0,-3.341297 2.6587,-6 6,-6 h 16 c 3.3413,0 6,2.658703 6,6 v -1 c 0,-3.341297 -2.6587,-6 -6,-6 z"
         id="rect3900"
         inkscape:connector-curvature="0" />
      <path
         style="color:#bebebe;display:inline;overflow:visible;visibility:visible;opacity:0.13;fill:#ffffff;fill-opacity:1;fill-rule:nonzero;stroke:none;stroke-width:0;marker:none;enable-background:accumulate"
         d="m 300,224 c -4.4493,0 -8,3.5507 -8,8 v 1 c 0,-4.4493 3.5507,-8 8,-8 h 24 c 4.4493,0 8,3.5507 8,8 v -1 c 0,-4.4493 -3.5507,-8 -8,-8 z"
         id="rect3902"
         inkscape:connector-curvature="0" />
      <path
         style="color:#bebebe;display:inline;overflow:visible;visibility:visible;opacity:0.13;fill:#ffffff;fill-opacity:1;fill-rule:nonzero;stroke:none;stroke-width:0;marker:none;enable-background:accumulate"
         d="m 310,33 c -9.4353,0 -17,7.564703 -17,17 v 1 c 0,-9.435297 7.5647,-17 17,-17 h 52 c 9.4353,0 17,7.564703 17,17 v -1 c 0,-9.435297 -7.5647,-17 -17,-17 z"
         id="rect3904"
         inkscape:connector-curvature="0" />
      <path
         style="color:#bebebe;display:inline;overflow:visible;visibility:visible;opacity:0.13;fill:#ffffff;fill-opacity:1;fill-rule:nonzero;stroke:none;stroke-width:0;marker:none;enable-background:accumulate"
         d="m 302.5,143 c -6.3883,0 -11.5,5.1117 -11.5,11.5 v 1 c 0,-6.3883 5.1117,-11.5 11.5,-11.5 h 35 c 6.3883,0 11.5,5.1117 11.5,11.5 v -1 c 0,-6.3883 -5.1117,-11.5 -11.5,-11.5 z"
         id="rect3906"
         inkscape:connector-curvature="0" />
      <path
         id="path4085"
         d="m 204,266 c 27.1633,0 49,-21.8367 49,-49 v -1 c 0,27.1633 -21.8367,49 -49,49 H 84 C 56.8367,265 35,243.1633 35,216 v 1 c 0,27.1633 21.8367,49 49,49 z"
         style="color:#bebebe;display:inline;overflow:visible;visibility:visible;opacity:0.5;fill:#000000;fill-opacity:1;fill-rule:nonzero;stroke:none;stroke-width:0;marker:none;enable-background:accumulate"
         inkscape:connector-curvature="0" />
      <path
         id="path4087"
         d="m 429,156 c 1.1253,0 2,-0.8747 2,-2 v -1 c 0,1.1253 -0.8747,2 -2,2 h -10 c -1.1253,0 -2,-0.8747 -2,-2 v 1 c 0,1.1253 0.8747,2 2,2 z"
         style="color:#bebebe;display:inline;overflow:visible;visibility:visible;opacity:0.3;fill:#000000;fill-opacity:1;fill-rule:nonzero;stroke:none;stroke-width:0;marker:none;enable-background:accumulate"
         inkscape:connector-curvature="0" />
      <path
         id="path4089"
         d="m 434,123 c 2.2333,0 4,-1.7667 4,-4 v -1 c 0,2.2333 -1.7667,4 -4,4 h -12 c -2.2333,0 -4,-1.7667 -4,-4 v 1 c 0,2.2333 1.7667,4 4,4 z"
         style="color:#bebebe;display:inline;overflow:visible;visibility:visible;opacity:0.3;fill:#000000;fill-opacity:1;fill-rule:nonzero;stroke:none;stroke-width:0;marker:none;enable-background:accumulate"
         inkscape:connector-curvature="0" />
      <path
         id="path4091"
         d="m 440,83 c 3.3413,0 6,-2.6587 6,-6 v -1 c 0,3.3413 -2.6587,6 -6,6 h -16 c -3.3413,0 -6,-2.6587 -6,-6 v 1 c 0,3.3413 2.6587,6 6,6 z"
         style="color:#bebebe;display:inline;overflow:visible;visibility:visible;opacity:0.5;fill:#000000;fill-opacity:1;fill-rule:nonzero;stroke:none;stroke-width:0;marker:none;enable-background:accumulate"
         inkscape:connector-curvature="0" />
      <path
         id="path4093"
         d="m 324,265 c 4.4493,0 8,-3.5507 8,-8 v -1 c 0,4.4493 -3.5507,8 -8,8 h -24 c -4.4493,0 -8,-3.5507 -8,-8 v 1 c 0,4.4493 3.5507,8 8,8 z"
         style="color:#bebebe;display:inline;overflow:visible;visibility:visible;opacity:0.5;fill:#000000;fill-opacity:1;fill-rule:nonzero;stroke:none;stroke-width:0;marker:none;enable-background:accumulate"
         inkscape:connector-curvature="0" />
      <path
         id="path4095"
         d="m 362,120 c 9.4353,0 17,-7.5647 17,-17 v -1 c 0,9.4353 -7.5647,17 -17,17 h -52 c -9.4353,0 -17,-7.5647 -17,-17 v 1 c 0,9.4353 7.5647,17 17,17 z"
         style="color:#bebebe;display:inline;overflow:visible;visibility:visible;opacity:0.5;fill:#000000;fill-opacity:1;fill-rule:nonzero;stroke:none;stroke-width:0;marker:none;enable-background:accumulate"
         inkscape:connector-curvature="0" />
      <path
         id="path4097"
         d="m 337.5,202 c 6.3883,0 11.5,-5.1117 11.5,-11.5 v -1 c 0,6.3883 -5.1117,11.5 -11.5,11.5 h -35 c -6.3883,0 -11.5,-5.1117 -11.5,-11.5 v 1 c 0,6.3883 5.1117,11.5 11.5,11.5 z"
         style="color:#bebebe;display:inline;overflow:visible;visibility:visible;opacity:0.5;fill:#000000;fill-opacity:1;fill-rule:nonzero;stroke:none;stroke-width:0;marker:none;enable-background:accumulate"
         inkscape:connector-curvature="0" />
      <path
         inkscape:connector-curvature="0"
         id="path4280"
         d="M 84,265 C 56.836703,265 35,243.1633 35,216 v -1 c 0,27.1633 21.836703,49 49,49 h 120 c 27.1633,0 49,-21.8367 49,-49 v 1 c 0,27.1633 -21.8367,49 -49,49 z"
         style="color:#bebebe;display:inline;overflow:visible;visibility:visible;opacity:0.1;fill:#ffffff;fill-opacity:1;fill-rule:nonzero;stroke:none;stroke-width:0;marker:none;enable-background:accumulate" />
      <path
         style="color:#bebebe;display:inline;overflow:visible;visibility:visible;opacity:0.1;fill:#ffffff;fill-opacity:1;fill-rule:nonzero;stroke:none;stroke-width:0;marker:none;enable-background:accumulate"
         d="m 300,264 c -4.4493,0 -8,-3.5507 -8,-8 v -1 c 0,4.4493 3.5507,8 8,8 h 24 c 4.4493,0 8,-3.5507 8,-8 v 1 c 0,4.4493 -3.5507,8 -8,8 z"
         id="path4294"
         inkscape:connector-curvature="0" />
      <path
         style="color:#bebebe;display:inline;overflow:visible;visibility:visible;opacity:0.1;fill:#ffffff;fill-opacity:1;fill-rule:nonzero;stroke:none;stroke-width:0;marker:none;enable-background:accumulate"
         d="m 302.5,201 c -6.3883,0 -11.5,-5.1117 -11.5,-11.5 v -1 c 0,6.3883 5.1117,11.5 11.5,11.5 h 35 c 6.3883,0 11.5,-5.1117 11.5,-11.5 v 1 c 0,6.3883 -5.1117,11.5 -11.5,11.5 z"
         id="path4296"
         inkscape:connector-curvature="0" />
      <path
         style="color:#bebebe;display:inline;overflow:visible;visibility:visible;opacity:0.1;fill:#ffffff;fill-opacity:1;fill-rule:nonzero;stroke:none;stroke-width:0;marker:none;enable-background:accumulate"
         d="m 310,119 c -9.4353,0 -17,-7.5647 -17,-17 v -1 c 0,9.4353 7.5647,17 17,17 h 52 c 9.4353,0 17,-7.5647 17,-17 v 1 c 0,9.4353 -7.5647,17 -17,17 z"
         id="path4298"
         inkscape:connector-curvature="0" />
      <path
         style="color:#bebebe;display:inline;overflow:visible;visibility:visible;opacity:0.1;fill:#ffffff;fill-opacity:1;fill-rule:nonzero;stroke:none;stroke-width:0;marker:none;enable-background:accumulate"
         d="m 424,82 c -3.3413,0 -6,-2.658703 -6,-6 v -1 c 0,3.341297 2.6587,6 6,6 h 16 c 3.3413,0 6,-2.658703 6,-6 v 1 c 0,3.341297 -2.6587,6 -6,6 z"
         id="path4300"
         inkscape:connector-curvature="0" />
      <path
         style="color:#bebebe;display:inline;overflow:visible;visibility:visible;opacity:0.1;fill:#ffffff;fill-opacity:1;fill-rule:nonzero;stroke:none;stroke-width:0;marker:none;enable-background:accumulate"
         d="m 422,122 c -2.2333,0 -4,-1.7667 -4,-4 v -1 c 0,2.2333 1.7667,4 4,4 h 12 c 2.2333,0 4,-1.7667 4,-4 v 1 c 0,2.2333 -1.7667,4 -4,4 z"
         id="path4302"
         inkscape:connector-curvature="0" />
      <path
         style="color:#bebebe;display:inline;overflow:visible;visibility:visible;opacity:0.1;fill:#ffffff;fill-opacity:1;fill-rule:nonzero;stroke:none;stroke-width:0;marker:none;enable-background:accumulate"
         d="m 419,154.5 c -1.1253,0 -2,-0.8747 -2,-2 v -1 c 0,1.1253 0.8747,2 2,2 h 10 c 1.1253,0 2,-0.8747 2,-2 v 1 c 0,1.1253 -0.8747,2 -2,2 z"
         id="path4304"
         inkscape:connector-curvature="0" />
    </g>
    <g
       inkscape:groupmode="layer"
       id="layer3"
       inkscape:label="Border"
       style="display:inline"
       sodipodi:insensitive="true">
      <path
         style="color:#bebebe;display:inline;overflow:visible;visibility:visible;opacity:0.41;fill:#000000;fill-opacity:1;fill-rule:nonzero;stroke:none;stroke-width:0;marker:none;enable-background:accumulate"
         d="m 422,101 c -2.77,0 -5,2.23 -5,5 v 12 c 0,2.77 2.23,5 5,5 h 12 c 2.77,0 5,-2.23 5,-5 v -12 c 0,-2.77 -2.23,-5 -5,-5 z m 0,1 h 12 c 2.2333,0 4,1.7667 4,4 v 12 c 0,2.2333 -1.7667,4 -4,4 h -12 c -2.2333,0 -4,-1.7667 -4,-4 v -12 c 0,-2.2333 1.7667,-4 4,-4 z"
         id="rect4099"
         inkscape:connector-curvature="0" />
      <path
         style="color:#bebebe;display:inline;overflow:visible;visibility:visible;opacity:0.41;fill:#000000;fill-opacity:1;fill-rule:nonzero;stroke:none;stroke-width:0;marker:none;enable-background:accumulate"
         d="m 424,53 c -3.878,0 -7,3.122 -7,7 v 16 c 0,3.878 3.122,7 7,7 h 16 c 3.878,0 7,-3.122 7,-7 V 60 c 0,-3.878 -3.122,-7 -7,-7 z m 0,1 h 16 c 3.3413,0 6,2.658703 6,6 v 16 c 0,3.341297 -2.6587,6 -6,6 h -16 c -3.3413,0 -6,-2.658703 -6,-6 V 60 c 0,-3.341297 2.6587,-6 6,-6 z"
         id="rect4151"
         inkscape:connector-curvature="0" />
      <path
         style="color:#bebebe;display:inline;overflow:visible;visibility:visible;opacity:0.41;fill:#000000;fill-opacity:1;fill-rule:nonzero;stroke:none;stroke-width:0;marker:none;enable-background:accumulate"
         d="m 419,140 c -1.662,0 -3,1.338 -3,3 v 10 c 0,1.662 1.338,3 3,3 h 10 c 1.662,0 3,-1.338 3,-3 v -10 c 0,-1.662 -1.338,-3 -3,-3 z m 0,1 h 10 c 1.1253,0 2,0.8747 2,2 v 10 c 0,1.1253 -0.8747,2 -2,2 h -10 c -1.1253,0 -2,-0.8747 -2,-2 v -10 c 0,-1.1253 0.8747,-2 2,-2 z"
         id="rect4095"
         inkscape:connector-curvature="0" />
      <path
         style="color:#bebebe;display:inline;overflow:visible;visibility:visible;opacity:0.41;fill:#000000;fill-opacity:1;fill-rule:nonzero;stroke:none;stroke-width:0;marker:none;enable-background:accumulate"
         d="m 300,223 c -4.986,0 -9,4.014 -9,9 v 24 c 0,4.986 4.014,9 9,9 h 24 c 4.986,0 9,-4.014 9,-9 v -24 c 0,-4.986 -4.014,-9 -9,-9 z m 0,1 h 24 c 4.4493,0 8,3.5507 8,8 v 24 c 0,4.4493 -3.5507,8 -8,8 h -24 c -4.4493,0 -8,-3.5507 -8,-8 v -24 c 0,-4.4493 3.5507,-8 8,-8 z"
         id="rect4783"
         inkscape:connector-curvature="0" />
      <path
         style="color:#bebebe;display:inline;overflow:visible;visibility:visible;opacity:0.41;fill:#000000;fill-opacity:1;fill-rule:nonzero;stroke:none;stroke-width:0;marker:none;enable-background:accumulate"
         d="m 302.5,142 c -6.925,0 -12.5,5.575 -12.5,12.5 v 35 c 0,6.925 5.575,12.5 12.5,12.5 h 35 c 6.925,0 12.5,-5.575 12.5,-12.5 v -35 c 0,-6.925 -5.575,-12.5 -12.5,-12.5 z m 0,1 h 35 c 6.3883,0 11.5,5.1117 11.5,11.5 v 35 c 0,6.3883 -5.1117,11.5 -11.5,11.5 h -35 c -6.3883,0 -11.5,-5.1117 -11.5,-11.5 v -35 c 0,-6.3883 5.1117,-11.5 11.5,-11.5 z"
         id="rect4515"
         inkscape:connector-curvature="0" />
      <path
         style="color:#bebebe;display:inline;overflow:visible;visibility:visible;opacity:0.41;fill:#000000;fill-opacity:1;fill-rule:nonzero;stroke:none;stroke-width:0;marker:none;enable-background:accumulate"
         d="m 310,32 c -9.972,0 -18,8.028 -18,18 v 52 c 0,9.972 8.028,18 18,18 h 52 c 9.972,0 18,-8.028 18,-18 V 50 c 0,-9.972 -8.028,-18 -18,-18 z m 0,1 h 52 c 9.4353,0 17,7.564703 17,17 v 52 c 0,9.4353 -7.5647,17 -17,17 h -52 c -9.4353,0 -17,-7.5647 -17,-17 V 50 c 0,-9.435297 7.5647,-17 17,-17 z"
         id="rect4511"
         inkscape:connector-curvature="0" />
      <path
         style="color:#bebebe;display:inline;overflow:visible;visibility:visible;opacity:0.41;fill:#000000;fill-opacity:1;fill-rule:nonzero;stroke:none;stroke-width:0;marker:none;enable-background:accumulate"
         d="M 84,46 C 56.3,46 34,68.3 34,96 v 120 c 0,27.7 22.3,50 50,50 h 120 c 27.7,0 50,-22.3 50,-50 V 96 C 254,68.3 231.7,46 204,46 Z m 0,1 h 120 c 27.1633,0 49,21.836703 49,49 v 120 c 0,27.1633 -21.8367,49 -49,49 H 84 C 56.836703,265 35,243.1633 35,216 V 96 C 35,68.836703 56.836703,47 84,47 Z"
         id="rect4040"
         inkscape:connector-curvature="0" />
    </g>
  </g>
  <style
     type="text/css"
     id="style1776">
	.st0{fill:#FFFFFF;}
	.st1{fill:#001935;}
	.st2{fill:#231F20;}
</style>
  <style
     type="text/css"
     id="style1776-3">
	.st0{fill:#FFFFFF;}
	.st1{fill:#001935;}
	.st2{fill:#231F20;}
</style>
  <style
     type="text/css"
     id="style1776-6">
	.st0{fill:#FFFFFF;}
	.st1{fill:#001935;}
	.st2{fill:#231F20;}
</style>
  <style
     type="text/css"
     id="style1776-7">
	.st0{fill:#FFFFFF;}
	.st1{fill:#001935;}
	.st2{fill:#231F20;}
</style>
</svg>
