<?xml version="1.0" encoding="UTF-8" standalone="no"?>
<svg
   xmlns:dc="http://purl.org/dc/elements/1.1/"
   xmlns:cc="http://creativecommons.org/ns#"
   xmlns:rdf="http://www.w3.org/1999/02/22-rdf-syntax-ns#"
   xmlns:svg="http://www.w3.org/2000/svg"
   xmlns="http://www.w3.org/2000/svg"
   xmlns:xlink="http://www.w3.org/1999/xlink"
   xmlns:sodipodi="http://sodipodi.sourceforge.net/DTD/sodipodi-0.dtd"
   xmlns:inkscape="http://www.inkscape.org/namespaces/inkscape"
   inkscape:export-ydpi="90.000000"
   inkscape:export-xdpi="90.000000"
   width="480"
   height="300"
   id="svg11300"
   sodipodi:version="0.32"
   inkscape:version="1.0.2 (e86c870, 2021-01-15)"
   sodipodi:docname="web-mailru.svg"
   inkscape:output_extension="org.inkscape.output.svg.inkscape"
   version="1.0"
   style="display:inline;enable-background:new"
   inkscape:export-filename="/home/sam/moka-next-template.png">
  <sodipodi:namedview
     stroke="#ef2929"
     fill="#f57900"
     id="base"
     pagecolor="#777777"
     bordercolor="#666666"
     borderopacity="0.25490196"
     inkscape:pageopacity="0"
     inkscape:pageshadow="2"
     inkscape:zoom="1.4142136"
     inkscape:cx="380.14105"
     inkscape:cy="148.965"
     inkscape:current-layer="layer6"
     showgrid="false"
     inkscape:grid-bbox="true"
     inkscape:document-units="px"
     inkscape:showpageshadow="false"
     inkscape:window-width="1366"
     inkscape:window-height="703"
     inkscape:window-x="0"
     inkscape:window-y="0"
     width="400px"
     height="300px"
     inkscape:snap-nodes="true"
     inkscape:snap-bbox="true"
     gridtolerance="10000"
     inkscape:object-nodes="true"
     inkscape:snap-grids="true"
     showguides="true"
     inkscape:guide-bbox="true"
     inkscape:window-maximized="1"
     inkscape:bbox-nodes="true"
     inkscape:bbox-paths="true"
     inkscape:snap-bbox-edge-midpoints="true"
     inkscape:snap-bbox-midpoints="true"
     inkscape:document-rotation="0">
    <inkscape:grid
       spacingy="1"
       spacingx="1"
       id="grid5883"
       type="xygrid"
       enabled="true"
       visible="true"
       empspacing="4"
       snapvisiblegridlinesonly="true"
       dotted="false"
       color="#000000"
       opacity="0.1254902"
       empcolor="#203ef3"
       empopacity="0.36470588"
       originx="0"
       originy="0" />
    <inkscape:grid
       type="xygrid"
       id="grid11592"
       empspacing="8"
       visible="true"
       enabled="false"
       spacingx="0.5"
       spacingy="0.5"
       color="#ff0000"
       opacity="0.1254902"
       empcolor="#ff0000"
       empopacity="0.25098039"
       snapvisiblegridlinesonly="true"
       dotted="true"
       originx="0"
       originy="0" />
  </sodipodi:namedview>
  <defs
     id="defs3">
    <linearGradient
       inkscape:collect="always"
       xlink:href="#outerBackgroundGradient"
       id="linearGradient4256"
       x1="417"
       y1="148"
       x2="431"
       y2="148"
       gradientUnits="userSpaceOnUse"
       gradientTransform="matrix(0,-1,1,0,276,572)" />
    <linearGradient
       inkscape:collect="always"
       xlink:href="#outerBackgroundGradient"
       id="linearGradient4260"
       x1="418"
       y1="68"
       x2="446"
       y2="68"
       gradientUnits="userSpaceOnUse"
       gradientTransform="matrix(0,-1,1,0,364,500)" />
    <linearGradient
       inkscape:collect="always"
       xlink:href="#outerBackgroundGradient"
       id="linearGradient4262"
       x1="292"
       y1="244"
       x2="332"
       y2="244"
       gradientUnits="userSpaceOnUse"
       gradientTransform="matrix(0,-1,1,0,68,556)" />
    <linearGradient
       inkscape:collect="always"
       xlink:href="#outerBackgroundGradient"
       id="linearGradient4264"
       x1="293"
       y1="76"
       x2="379"
       y2="76"
       gradientUnits="userSpaceOnUse"
       gradientTransform="matrix(0,-1,1,0,260,412)" />
    <linearGradient
       inkscape:collect="always"
       xlink:href="#outerBackgroundGradient"
       id="linearGradient4266"
       x1="291"
       y1="172"
       x2="349"
       y2="172"
       gradientUnits="userSpaceOnUse"
       gradientTransform="matrix(0,-1,1,0,148,492)" />
    <linearGradient
       inkscape:collect="always"
       xlink:href="#outerBackgroundGradient"
       id="linearGradient3870"
       gradientUnits="userSpaceOnUse"
       x1="418"
       y1="112"
       x2="438"
       y2="112"
       gradientTransform="matrix(0,-1,1,0,316,540)" />
    <linearGradient
       inkscape:collect="always"
       xlink:href="#outerBackgroundGradient"
       id="linearGradient7128"
       gradientUnits="userSpaceOnUse"
       gradientTransform="matrix(0,-1,1,0,-12,300)"
       x1="35"
       y1="156"
       x2="253"
       y2="156" />
    <linearGradient
       id="outerBackgroundGradient">
      <stop
         style="stop-color:#005ff9;stop-opacity:1;"
         offset="0"
         id="stop3864-8-6" />
      <stop
         style="stop-color:#478eff;stop-opacity:1;"
         offset="1"
         id="stop3866-9-1" />
    </linearGradient>
  </defs>
  <metadata
     id="metadata4">
    <rdf:RDF>
      <cc:Work
         rdf:about="">
        <dc:format>image/svg+xml</dc:format>
        <dc:type
           rdf:resource="http://purl.org/dc/dcmitype/StillImage" />
        <dc:creator>
          <cc:Agent>
            <dc:title>Sam Hewitt</dc:title>
          </cc:Agent>
        </dc:creator>
        <dc:source />
        <cc:license
           rdf:resource="" />
        <dc:title />
        <dc:subject>
          <rdf:Bag />
        </dc:subject>
        <dc:date />
        <dc:rights>
          <cc:Agent>
            <dc:title />
          </cc:Agent>
        </dc:rights>
        <dc:publisher>
          <cc:Agent>
            <dc:title />
          </cc:Agent>
        </dc:publisher>
        <dc:identifier />
        <dc:relation />
        <dc:language />
        <dc:coverage />
        <dc:description />
        <dc:contributor>
          <cc:Agent>
            <dc:title />
          </cc:Agent>
        </dc:contributor>
      </cc:Work>
      <cc:Work
         rdf:about="">
        <dc:format>image/svg+xml</dc:format>
        <dc:type
           rdf:resource="http://purl.org/dc/dcmitype/StillImage" />
      </cc:Work>
    </rdf:RDF>
  </metadata>
  <g
     style="display:inline"
     inkscape:groupmode="layer"
     inkscape:label="Icon"
     id="layer1">
    <g
       style="display:none"
       inkscape:label="Baseplate"
       id="layer7"
       inkscape:groupmode="layer">
      <text
         y="19.745117"
         xml:space="preserve"
         x="15.006836"
         style="font-style:normal;font-variant:normal;font-weight:normal;font-stretch:normal;line-height:0%;font-family:'DejaVu Sans';-inkscape-font-specification:'DejaVu Sans';display:inline;fill:#000000;fill-opacity:1;stroke:none;enable-background:new"
         inkscape:label="context"
         id="context"><tspan
           style="font-style:normal;font-variant:normal;font-weight:normal;font-stretch:normal;font-size:18px;line-height:1.25;font-family:'DejaVu Sans';-inkscape-font-specification:'DejaVu Sans'"
           y="19.745117"
           x="15.006836"
           sodipodi:role="line"
           id="tspan3933">apps</tspan></text>
      <text
         y="19.745117"
         xml:space="preserve"
         x="122.48828"
         style="font-style:normal;font-variant:normal;font-weight:bold;font-stretch:normal;line-height:0%;font-family:'DejaVu Sans';-inkscape-font-specification:'DejaVu Sans Bold';text-align:start;writing-mode:lr-tb;text-anchor:start;display:inline;fill:#000000;fill-opacity:1;stroke:none;enable-background:new"
         inkscape:label="icon-name"
         id="icon-name"><tspan
           style="font-style:normal;font-variant:normal;font-weight:bold;font-stretch:normal;font-size:18px;line-height:1.25;font-family:'DejaVu Sans';-inkscape-font-specification:'DejaVu Sans Bold';opacity:0.99"
           y="19.745117"
           x="122.48828"
           sodipodi:role="line"
           id="tspan3937">web-mailru</tspan></text>
      <rect
         style="display:inline;overflow:visible;visibility:visible;fill:#eeeeec;fill-opacity:1;fill-rule:nonzero;stroke:none;stroke-width:2;marker:none;enable-background:accumulate"
         id="rect16x16"
         width="16"
         height="16"
         x="416"
         y="140"
         inkscape:label="16x16" />
      <rect
         style="display:inline;overflow:visible;visibility:visible;fill:#d4d4d4;fill-opacity:1;fill-rule:nonzero;stroke:none;stroke-width:2;marker:none;enable-background:accumulate"
         id="rect24x24"
         width="24"
         height="24"
         x="416"
         y="100"
         inkscape:label="24x24" />
      <rect
         style="display:inline;overflow:visible;visibility:visible;fill:#eeeeec;fill-opacity:1;fill-rule:nonzero;stroke:none;stroke-width:2;marker:none;enable-background:accumulate"
         id="rect32x32"
         width="32"
         height="32"
         x="416"
         y="52"
         inkscape:label="32x32" />
      <rect
         inkscape:label="22x22"
         y="101"
         x="417"
         height="22"
         width="22"
         id="rect22x22"
         style="display:inline;overflow:visible;visibility:visible;fill:#eeeeec;fill-opacity:1;fill-rule:nonzero;stroke:none;stroke-width:2;marker:none;enable-background:accumulate" />
      <rect
         inkscape:label="48x48"
         y="220"
         x="288"
         height="48"
         width="48"
         id="rect48x48"
         style="display:inline;overflow:visible;visibility:visible;fill:#eeeeec;fill-opacity:1;fill-rule:nonzero;stroke:none;stroke-width:2;marker:none;enable-background:accumulate" />
      <rect
         style="display:inline;overflow:visible;visibility:visible;fill:#eeeeec;fill-opacity:1;fill-rule:nonzero;stroke:none;stroke-width:2;marker:none;enable-background:accumulate"
         id="rect256x256"
         width="256"
         height="256"
         x="16"
         y="28"
         inkscape:label="256x256" />
      <rect
         style="display:inline;overflow:visible;visibility:visible;fill:#eeeeec;fill-opacity:1;fill-rule:nonzero;stroke:none;stroke-width:2;marker:none;enable-background:accumulate"
         id="rect64x64"
         width="64"
         height="64"
         x="288"
         y="140"
         inkscape:label="64x64" />
      <rect
         style="display:inline;overflow:visible;visibility:visible;fill:#eeeeec;fill-opacity:1;fill-rule:nonzero;stroke:none;stroke-width:2;marker:none;enable-background:accumulate"
         id="rect96x96"
         width="96"
         height="96"
         x="288"
         y="28"
         inkscape:label="96x96" />
    </g>
    <g
       inkscape:groupmode="layer"
       id="layer4"
       inkscape:label="Shadow"
       style="display:inline"
       sodipodi:insensitive="true">
      <rect
         ry="50"
         y="47"
         x="34"
         height="220"
         width="220"
         id="rect4114"
         style="color:#bebebe;display:inline;overflow:visible;visibility:visible;opacity:0.1;fill:#000000;fill-opacity:1;fill-rule:nonzero;stroke:none;stroke-width:0;marker:none;enable-background:accumulate" />
      <rect
         style="color:#bebebe;display:inline;overflow:visible;visibility:visible;opacity:0.1;fill:#000000;fill-opacity:1;fill-rule:nonzero;stroke:none;stroke-width:0;marker:none;enable-background:accumulate"
         id="rect4120"
         width="30"
         height="30"
         x="417"
         y="54"
         ry="7" />
      <rect
         transform="scale(1,-1)"
         ry="9"
         y="-266"
         x="291"
         height="42"
         width="42"
         id="rect4122"
         style="color:#bebebe;display:inline;overflow:visible;visibility:visible;opacity:0.1;fill:#000000;fill-opacity:1;fill-rule:nonzero;stroke:none;stroke-width:0;marker:none;enable-background:accumulate" />
      <rect
         style="color:#bebebe;display:inline;overflow:visible;visibility:visible;opacity:0.1;fill:#000000;fill-opacity:1;fill-rule:nonzero;stroke:none;stroke-width:0;marker:none;enable-background:accumulate"
         id="rect4124"
         width="88"
         height="88"
         x="292"
         y="33"
         ry="18" />
      <rect
         ry="12.5"
         y="143"
         x="290"
         height="60"
         width="60"
         id="rect4126"
         style="color:#bebebe;display:inline;overflow:visible;visibility:visible;opacity:0.1;fill:#000000;fill-opacity:1;fill-rule:nonzero;stroke:none;stroke-width:0;marker:none;enable-background:accumulate" />
      <path
         id="path4268"
         d="m 422,101 c -2.77,0 -5,2.23 -5,5 v 12 c 0,2.77 2.23,5 5,5 h 12 c 2.77,0 5,-2.23 5,-5 v -12 c 0,-2.77 -2.23,-5 -5,-5 z"
         style="color:#bebebe;display:inline;overflow:visible;visibility:visible;opacity:0.1;fill:#000000;fill-opacity:1;fill-rule:nonzero;stroke:none;stroke-width:0;marker:none;enable-background:accumulate"
         inkscape:connector-curvature="0"
         sodipodi:nodetypes="sssssssss" />
      <path
         id="path4270"
         d="m 419,140 c -1.662,0 -3,1.338 -3,3 v 10 c 0,1.662 1.338,3 3,3 h 10 c 1.662,0 3,-1.338 3,-3 v -10 c 0,-1.662 -1.338,-3 -3,-3 z"
         style="color:#bebebe;display:inline;overflow:visible;visibility:visible;opacity:0.1;fill:#000000;fill-opacity:1;fill-rule:nonzero;stroke:none;stroke-width:0;marker:none;enable-background:accumulate"
         inkscape:connector-curvature="0"
         sodipodi:nodetypes="sssssssss" />
    </g>
    <g
       inkscape:groupmode="layer"
       id="layer2"
       inkscape:label="Background"
       style="display:inline">
      <path
         style="color:#bebebe;display:inline;overflow:visible;visibility:visible;fill:url(#linearGradient7128);fill-opacity:1;fill-rule:nonzero;stroke:none;stroke-width:2;marker:none;enable-background:accumulate"
         d="M 84,46.5 C 56.56874,46.5 34.5,68.56873 34.5,96 v 120 c 0,27.43127 22.06874,49.5 49.5,49.5 h 120 c 27.43127,0 49.5,-22.06873 49.5,-49.5 V 96 C 253.5,68.56873 231.43127,46.5 204,46.5 Z"
         id="path4200"
         inkscape:connector-curvature="0" />
      <path
         style="color:#bebebe;display:inline;overflow:visible;visibility:visible;fill:url(#linearGradient4256);fill-opacity:1;fill-rule:nonzero;stroke:none;stroke-width:2;marker:none;enable-background:accumulate"
         d="m 419,140.5 c -1.3844,0 -2.5,1.1156 -2.5,2.5 v 10 c 0,1.3844 1.1156,2.5 2.5,2.5 h 10 c 1.3844,0 2.5,-1.1156 2.5,-2.5 v -10 c 0,-1.3844 -1.1156,-2.5 -2.5,-2.5 z"
         id="path4202"
         inkscape:connector-curvature="0" />
      <path
         style="color:#bebebe;display:inline;overflow:visible;visibility:visible;fill:url(#linearGradient3870);fill-opacity:1;fill-rule:nonzero;stroke:none;stroke-width:2;marker:none;enable-background:accumulate"
         d="m 422,101.5 c -2.49699,0 -4.5,2.00301 -4.5,4.5 v 12 c 0,2.49699 2.00301,4.5 4.5,4.5 h 12 c 2.49699,0 4.5,-2.00301 4.5,-4.5 v -12 c 0,-2.49699 -2.00301,-4.5 -4.5,-4.5 z"
         id="path4204"
         inkscape:connector-curvature="0" />
      <path
         style="color:#bebebe;display:inline;overflow:visible;visibility:visible;fill:url(#linearGradient4260);fill-opacity:1;fill-rule:nonzero;stroke:none;stroke-width:2;marker:none;enable-background:accumulate"
         d="m 424,53.5 c -3.60654,0 -6.5,2.89346 -6.5,6.5 v 16 c 0,3.60654 2.89346,6.5 6.5,6.5 h 16 c 3.60654,0 6.5,-2.89346 6.5,-6.5 V 60 c 0,-3.60654 -2.89346,-6.5 -6.5,-6.5 z"
         id="path4206"
         inkscape:connector-curvature="0" />
      <path
         style="color:#bebebe;display:inline;overflow:visible;visibility:visible;fill:url(#linearGradient4262);fill-opacity:1;fill-rule:nonzero;stroke:none;stroke-width:2;marker:none;enable-background:accumulate"
         d="m 300,223.5 c -4.71531,0 -8.5,3.78469 -8.5,8.5 v 24 c 0,4.71531 3.78469,8.5 8.5,8.5 h 24 c 4.71531,0 8.5,-3.78469 8.5,-8.5 v -24 c 0,-4.71531 -3.78469,-8.5 -8.5,-8.5 z"
         id="path4208"
         inkscape:connector-curvature="0" />
      <path
         style="color:#bebebe;display:inline;overflow:visible;visibility:visible;fill:url(#linearGradient4264);fill-opacity:1;fill-rule:nonzero;stroke:none;stroke-width:2;marker:none;enable-background:accumulate"
         d="m 310,32.5 c -9.70255,0 -17.5,7.79745 -17.5,17.5 v 52 c 0,9.70255 7.79745,17.5 17.5,17.5 h 52 c 9.70255,0 17.5,-7.79745 17.5,-17.5 V 50 c 0,-9.70255 -7.79745,-17.5 -17.5,-17.5 z"
         id="path4210"
         inkscape:connector-curvature="0" />
      <path
         style="color:#bebebe;display:inline;overflow:visible;visibility:visible;fill:url(#linearGradient4266);fill-opacity:1;fill-rule:nonzero;stroke:none;stroke-width:2;marker:none;enable-background:accumulate"
         d="m 302.5,142.5 c -6.65502,0 -12,5.34498 -12,12 v 35 c 0,6.65502 5.34498,12 12,12 h 35 c 6.65502,0 12,-5.34498 12,-12 v -35 c 0,-6.65502 -5.34498,-12 -12,-12 z"
         id="path4212"
         inkscape:connector-curvature="0" />
    </g>
    <g
       inkscape:groupmode="layer"
       id="layer6"
       inkscape:label="Symbols"
       style="display:inline">
      <path
         id="path8960"
         style="display:inline;opacity:0.2;fill:#000000;fill-opacity:1;fill-rule:evenodd;stroke:none;enable-background:new"
         d="m 144,87.00003 c -38.59625,0 -70,31.40374 -70,70 0,38.59625 31.40375,70 70,70 14.14,0 27.77859,-4.21086 39.4336,-12.17774 l 0.19726,-0.13672 -9.43359,-10.96289 -0.1543,0.10352 c -8.95838,5.76813 -19.3882,8.83203 -30.04297,8.82617 -30.68625,0 -55.65429,-24.96609 -55.65429,-55.65234 0,-30.68625 24.96804,-55.6543 55.65429,-55.6543 30.68625,0 55.65235,24.96805 55.65235,55.6543 0,3.97687 -0.44579,8.00352 -1.31641,11.96289 -1.75875,7.2231 -6.81578,9.43571 -10.61328,9.14257 -3.81938,-0.31062 -8.28188,-3.03068 -8.3125,-9.68945 v -11.41601 c 0,-19.52563 -15.88454,-35.41016 -35.41016,-35.41016 -19.52562,0 -35.41015,15.88453 -35.41015,35.41016 0,19.52562 15.88453,35.41015 35.41015,35.41015 9.42721,0.0219 18.46729,-3.74777 25.08789,-10.45898 3.85278,6.04765 10.33176,9.92391 17.48243,10.45898 5.75972,0.4483 11.48376,-1.22979 16.08984,-4.71679 4.19562,-3.18496 7.3339,-7.7957 9.0664,-13.33008 0.27563,-0.8925 0.78079,-2.93609 0.78516,-2.94922 l 0.01,-0.0762 c 1.01892,-4.44051 1.47852,-8.86914 1.47852,-14.33789 0,-38.59626 -31.40376,-70 -70.00001,-70 z m 0,48.94531 c 11.62269,0.0131 21.04143,9.432 21.05469,21.05469 -0.0131,11.62269 -9.432,21.04142 -21.05469,21.05468 -11.62268,-0.0131 -21.04142,-9.43199 -21.05468,-21.05468 0.0131,-11.62269 9.432,-21.04143 21.05468,-21.05469 z"
         sodipodi:nodetypes="ssscccccssscccssscccccccsssccccc" />
      <path
         id="path8962"
         style="display:inline;opacity:0.2;fill:#000000;fill-opacity:1;fill-rule:evenodd;stroke:none;enable-background:new"
         d="m 335.99994,47 c -16.54125,0 -30,13.45875 -30,30 0,16.54125 13.45875,30 30,30 6.06,0 11.90539,-1.80437 16.90039,-5.21875 l 0.084,-0.0586 -4.04297,-4.699219 -0.0664,0.04492 c -3.83931,2.47205 -8.30867,3.785709 -12.875,3.783199 -13.15125,0 -23.85156,-10.70031 -23.85156,-23.851558 0,-13.15125 10.70031,-23.851563 23.85156,-23.851563 13.15125,0 23.85156,10.700313 23.85156,23.851563 0,1.704373 -0.19133,3.43008 -0.56445,5.126953 -0.75375,3.095613 -2.91938,4.043596 -4.54688,3.917969 -1.63688,-0.133123 -3.55132,-1.298587 -3.56445,-4.152344 v -4.892578 c 0,-8.368127 -6.80766,-15.175781 -15.17578,-15.175781 -8.36813,0 -15.17578,6.807654 -15.17578,15.175781 0,8.368121 6.80766,15.175781 15.17578,15.175781 4.04023,0.009 7.91455,-1.606189 10.75195,-4.482422 1.65119,2.59185 4.42762,4.253104 7.49219,4.482422 2.46845,0.19213 4.92244,-0.527056 6.89648,-2.021484 1.79812,-1.364983 3.14227,-3.341014 3.88477,-5.712891 0.11813,-0.3825 0.33602,-1.258044 0.33789,-1.263672 l 0.004,-0.0332 c 0.4366,-1.903074 0.63281,-3.800781 0.63281,-6.144531 0,-16.54125 -13.45875,-30 -30,-30 z m 0,20.976562 c 4.98115,0.0056 9.01776,4.042285 9.02344,9.023438 -0.006,4.981153 -4.04229,9.017755 -9.02344,9.023437 -4.98115,-0.0056 -9.01776,-4.042284 -9.02344,-9.023437 0.006,-4.981153 4.04229,-9.017755 9.02344,-9.023438 z"
         sodipodi:nodetypes="ssscccccssscccssscccccccsssccccc" />
      <path
         id="path8964"
         style="display:inline;opacity:0.2;fill:#000000;fill-opacity:1;fill-rule:evenodd;stroke:none;enable-background:new"
         d="m 320,153 c -11.0275,0 -20,8.9725 -20,20 0,11.0275 8.9725,20 20,20 4.04,0 7.93758,-1.20227 11.26758,-3.47852 l 0.0566,-0.0391 -2.69531,-3.13281 -0.0449,0.0293 c -2.55954,1.64803 -5.53976,2.52316 -8.58398,2.52148 -8.7675,0 -15.90039,-7.13289 -15.90039,-15.90039 0,-8.7675 7.13289,-15.90039 15.90039,-15.90039 8.7675,0 15.90039,7.13289 15.90039,15.90039 0,1.13625 -0.12625,2.28672 -0.375,3.41797 -0.5025,2.06374 -1.9482,2.69704 -3.0332,2.61328 -1.09125,-0.0887 -2.36625,-0.86702 -2.375,-2.76953 V 173 c 0,-5.57875 -4.53844,-10.11719 -10.11719,-10.11719 -5.57875,0 -10.11719,4.53844 -10.11719,10.11719 0,5.57875 4.53844,10.11719 10.11719,10.11719 2.69349,0.006 5.27637,-1.07079 7.16797,-2.98828 1.10079,1.7279 2.95304,2.8354 4.99609,2.98828 1.64563,0.12808 3.27969,-0.35138 4.59571,-1.34766 1.19875,-0.90999 2.09679,-2.22734 2.59179,-3.80859 0.0787,-0.255 0.22337,-0.83805 0.22461,-0.8418 l 0.002,-0.0234 C 339.8687,175.82694 340,174.5625 340,173 c 0,-11.0275 -8.9725,-20 -20,-20 z m 0,13.98438 c 3.32077,0.004 6.01184,2.69485 6.01562,6.01562 -0.004,3.32077 -2.69485,6.01184 -6.01562,6.01562 -3.32077,-0.004 -6.01184,-2.69485 -6.01562,-6.01562 0.004,-3.32077 2.69485,-6.01184 6.01562,-6.01562 z"
         sodipodi:nodetypes="ssscccccssscccssscccccccssccccc" />
      <path
         id="path8966"
         style="display:inline;opacity:0.2;fill:#000000;fill-opacity:1;fill-rule:evenodd;stroke:none;enable-background:new"
         d="m 312,231 c -7.71925,0 -14,6.28075 -14,14 0,7.71925 6.28075,14 14,14 2.828,0 5.55571,-0.84217 7.88672,-2.43555 l 0.0391,-0.0273 -1.88672,-2.19141 -0.0312,0.0195 c -1.79168,1.15363 -3.87685,1.7668 -6.00781,1.76562 -6.13725,0 -11.13086,-4.99361 -11.13086,-11.13086 0,-6.13725 4.99361,-11.13086 11.13086,-11.13086 6.13725,0 11.13086,4.99361 11.13086,11.13086 0,0.79537 -0.0896,1.60071 -0.26367,2.39258 -0.35175,1.44462 -1.36356,1.88675 -2.12305,1.82812 -0.76388,-0.0621 -1.65598,-0.60574 -1.66211,-1.9375 V 245 c 0,-3.90513 -3.1769,-7.08203 -7.08203,-7.08203 -3.90513,0 -7.08203,3.1769 -7.08203,7.08203 0,3.90513 3.1769,7.08203 7.08203,7.08203 1.88544,0.004 3.69346,-0.74955 5.01758,-2.09179 0.77056,1.20952 2.06596,1.98478 3.49609,2.09179 1.15195,0.0897 2.29753,-0.24596 3.21875,-0.94336 0.83912,-0.63699 1.466,-1.55914 1.8125,-2.66601 0.0551,-0.1785 0.15733,-0.58723 0.1582,-0.58985 l 0.002,-0.0156 C 325.90857,246.97903 326,246.09375 326,245 c 0,-7.71925 -6.28075,-14 -14,-14 z m 0,9.78906 c 2.32454,0.003 4.20829,1.8864 4.21094,4.21094 -0.003,2.32454 -1.8864,4.20829 -4.21094,4.21094 -2.32454,-0.003 -4.20828,-1.8864 -4.21094,-4.21094 0.003,-2.32454 1.8864,-4.20828 4.21094,-4.21094 z"
         sodipodi:nodetypes="ssscccccssscccssscccccccssccccc" />
      <path
         id="path8968"
         style="display:inline;opacity:0.2;fill:#000000;fill-opacity:1;fill-rule:evenodd;stroke:none;enable-background:new"
         d="m 432.00003,59.000015 c -5.51375,0 -10,4.486249 -10,10 0,5.51375 4.48625,10 10,10 2.02,0 3.96976,-0.602109 5.63477,-1.740234 l 0.0273,-0.01953 -1.34766,-1.566407 -0.0215,0.01563 c -1.27977,0.824019 -2.77086,1.262555 -4.29297,1.261718 -4.38375,0 -7.94922,-3.567422 -7.94922,-7.951172 0,-4.383751 3.56547,-7.951172 7.94922,-7.951172 4.38375,0 7.95117,3.567421 7.95117,7.951172 0,0.568124 -0.0631,1.143361 -0.1875,1.708985 -0.25125,1.031871 -0.97507,1.348516 -1.51757,1.30664 -0.54564,-0.04437 -1.18312,-0.433512 -1.1875,-1.384765 v -1.63086 c 0,-2.789376 -2.26923,-5.058593 -5.0586,-5.058593 -2.78938,0 -5.05859,2.269217 -5.05859,5.058593 0,2.789374 2.26921,5.058594 5.05859,5.058594 1.34674,0.0031 2.63819,-0.535398 3.58399,-1.49414 0.5504,0.86395 1.47652,1.4177 2.49804,1.49414 0.82282,0.06404 1.64082,-0.175686 2.29883,-0.673828 0.59937,-0.454995 1.04742,-1.113671 1.29492,-1.904297 0.0394,-0.1275 0.11265,-0.419999 0.11328,-0.421875 v -0.0098 c 0.14584,-0.634359 0.21094,-1.267578 0.21094,-2.048828 0,-5.513751 -4.48625,-10 -10,-10 z m 0,6.992188 c 1.66038,0.0019 3.00592,1.347426 3.00781,3.007812 -0.002,1.660383 -1.34743,3.005917 -3.00781,3.007813 -1.66038,-0.0019 -3.00592,-1.34743 -3.00781,-3.007813 0.002,-1.660386 1.34743,-3.005918 3.00781,-3.007812 z"
         sodipodi:nodetypes="csscccccssscccssscccccccsccccccc" />
      <path
         id="path8970"
         style="display:inline;opacity:0.2;fill:#000000;fill-opacity:1;fill-rule:evenodd;stroke:none;enable-background:new"
         d="m 428,106 c -3.85963,0 -7,3.14038 -7,7 0,3.85962 3.14037,7 7,7 1.414,0 2.77786,-0.42011 3.94336,-1.2168 l 0.0195,-0.0137 -0.94336,-1.09765 -0.0156,0.0117 c -0.89584,0.57681 -1.93843,0.88144 -3.00391,0.88086 -3.06863,0 -5.56445,-2.49582 -5.56445,-5.56445 0,-3.06862 2.49582,-5.56445 5.56445,-5.56445 3.06862,0 5.56445,2.49583 5.56445,5.56445 0,0.39769 -0.0438,0.80133 -0.13086,1.19727 -0.17588,0.72231 -0.68079,0.94337 -1.06054,0.91406 -0.38194,-0.0311 -0.82897,-0.30287 -0.83203,-0.96875 V 113 c 0,-1.95256 -1.58846,-3.54102 -3.54102,-3.54102 -1.95256,0 -3.54102,1.58846 -3.54102,3.54102 0,1.95256 1.58846,3.54102 3.54102,3.54102 0.94272,0.002 1.84575,-0.37381 2.50781,-1.04493 0.38528,0.60476 1.03493,0.99142 1.75,1.04493 0.57597,0.0448 1.14681,-0.12396 1.60742,-0.47266 0.41956,-0.31849 0.73496,-0.77859 0.90821,-1.33203 0.0276,-0.0892 0.0777,-0.29361 0.0781,-0.29492 v -0.008 C 434.95348,113.98972 435,113.54688 435,113 c 0,-3.85962 -3.14038,-7 -7,-7 z m 0,4.89453 c 1.16227,10e-4 2.10414,0.9432 2.10547,2.10547 -0.001,1.16227 -0.9432,2.10414 -2.10547,2.10547 -1.16227,-10e-4 -2.10414,-0.9432 -2.10547,-2.10547 0.001,-1.16227 0.9432,-2.10414 2.10547,-2.10547 z"
         sodipodi:nodetypes="ssscccccssscccssscccccccssccccc" />
      <path
         id="path8972"
         style="display:inline;opacity:0.2;fill:#000000;fill-opacity:1;fill-rule:evenodd;stroke:none;enable-background:new"
         d="m 424,144 c -2.75688,0 -5,2.24313 -5,5 0,2.75687 2.24312,5 5,5 1.01,0 1.98391,-0.30008 2.81641,-0.86914 l 0.0137,-0.01 -0.67383,-0.7832 -0.01,0.006 c -0.63988,0.41201 -1.38542,0.63127 -2.14648,0.63086 -2.19188,0 -3.97461,-1.78274 -3.97461,-3.97461 0,-2.19188 1.78273,-3.97656 3.97461,-3.97656 2.19188,0 3.97461,1.78468 3.97461,3.97656 0,0.28406 -0.0315,0.57071 -0.0937,0.85352 -0.12563,0.51594 -0.48656,0.67522 -0.75781,0.65429 -0.27281,-0.0222 -0.59157,-0.21774 -0.59375,-0.69336 V 149 c 0,-1.39469 -1.13461,-2.5293 -2.5293,-2.5293 -1.39469,0 -2.5293,1.13461 -2.5293,2.5293 0,1.39468 1.13461,2.5293 2.5293,2.5293 0.67337,0.002 1.31812,-0.26868 1.79102,-0.74805 0.2752,0.43198 0.73924,0.70984 1.25,0.74805 0.41141,0.032 0.81943,-0.0888 1.14843,-0.33789 0.29969,-0.2275 0.52469,-0.55587 0.64844,-0.95118 0.0197,-0.0637 0.0562,-0.20999 0.0566,-0.21093 v -0.006 C 428.96753,149.7064 429,149.39062 429,149 c 0,-2.75688 -2.24312,-5 -5,-5 z m 0,3.49609 c 0.83019,9.4e-4 1.50296,0.67372 1.50391,1.50391 -9.4e-4,0.83019 -0.67372,1.50296 -1.50391,1.50391 -0.83019,-9.4e-4 -1.50296,-0.67372 -1.50391,-1.50391 9.4e-4,-0.83019 0.67372,-1.50296 1.50391,-1.50391 z"
         sodipodi:nodetypes="ssscccccssscccssscccccccssccccc" />
      <path
         id="path24"
         style="display:inline;fill:#ff9e00;fill-opacity:1;fill-rule:evenodd;stroke:none;stroke-width:4.375;enable-background:new"
         d="m 144,86 c -38.59625,0 -70,31.40375 -70,70 0,38.59625 31.40375,70 70,70 14.14,0 27.77981,-4.20962 39.43482,-12.1765 l 0.19652,-0.1365 -9.43359,-10.96314 -0.15383,0.10238 c -8.95838,5.76813 -19.38915,8.83268 -30.04392,8.82682 -30.68625,0 -55.653076,-24.96681 -55.653076,-55.65306 0,-30.68625 24.966826,-55.65308 55.653076,-55.65308 30.68625,0 55.65308,24.96683 55.65308,55.65308 0,3.97687 -0.4453,8.00352 -1.31592,11.96289 -1.75875,7.2231 -6.81529,9.4362 -10.61279,9.14307 -3.81938,-0.31062 -8.28359,-3.03117 -8.31421,-9.68994 V 156 c 0,-19.52563 -15.88454,-35.41016 -35.41016,-35.41016 -19.52563,0 -35.41016,15.88453 -35.41016,35.41016 0,19.52562 15.88453,35.41016 35.41016,35.41016 9.42721,0.0219 18.46729,-3.7478 25.08789,-10.45901 3.85278,6.04765 10.33225,9.92394 17.48291,10.45901 5.75972,0.4483 11.48401,-1.22982 16.09009,-4.71682 4.19562,-3.18496 7.33366,-7.79568 9.06616,-13.33006 0.27563,-0.8925 0.78176,-2.93488 0.78613,-2.94801 l 0.009,-0.077 C 213.5411,165.89776 214,161.46875 214,156 214,117.40375 182.59625,86 144,86 Z m 0,48.94531 c 11.62269,0.0131 21.04143,9.432 21.05469,21.05469 -0.0131,11.62269 -9.432,21.04143 -21.05469,21.05469 -11.62269,-0.0131 -21.04143,-9.432 -21.05469,-21.05469 0.0131,-11.62269 9.432,-21.04143 21.05469,-21.05469 z"
         sodipodi:nodetypes="ssscccccssscccssscccccccssccccc" />
      <path
         id="path3072"
         style="display:inline;fill:#ff9e00;fill-opacity:1;fill-rule:evenodd;stroke:none;stroke-width:0.428571;enable-background:new"
         d="m 336.0002,46 c -16.54125,0 -30,13.45875 -30,30 0,16.541248 13.45875,30 30,30 6.06,0 11.90595,-1.80381 16.90095,-5.21819 l 0.0837,-0.0586 -4.04296,-4.698384 -0.0661,0.04353 c -3.83931,2.472056 -8.30923,3.785994 -12.87556,3.783483 -13.15125,0 -23.851,-10.700594 -23.851,-23.851842 0,-13.15125 10.69975,-23.851005 23.851,-23.851005 13.15125,0 23.851,10.699755 23.851,23.851005 0,1.704373 -0.19021,3.43008 -0.56333,5.126953 -0.75375,3.095613 -2.92105,4.044712 -4.54855,3.919085 -1.63688,-0.133123 -3.55021,-1.299703 -3.56334,-4.15346 v -4.892578 c 0,-8.368127 -6.80766,-15.175781 -15.17578,-15.175781 -8.36813,0 -15.17578,6.807654 -15.17578,15.175781 0,8.368121 6.80765,15.175781 15.17578,15.175781 4.04023,0.0094 7.91455,-1.606189 10.75195,-4.482422 1.65119,2.59185 4.4279,4.253106 7.49247,4.482422 2.46845,0.192129 4.92161,-0.527056 6.89565,-2.021484 1.79812,-1.364983 3.1431,-3.341014 3.8856,-5.712891 0.11813,-0.3825 0.33546,-1.257486 0.33733,-1.263114 l 0.003,-0.03348 c 0.4366,-1.903074 0.63357,-3.80106 0.63357,-6.14481 0,-16.54125 -13.45875,-30 -30,-30 z m 0,20.976562 c 4.98115,0.0056 9.01776,4.042285 9.02344,9.023438 -0.006,4.981153 -4.04229,9.017755 -9.02344,9.023437 -4.98115,-0.0056 -9.01776,-4.042284 -9.02344,-9.023437 0.006,-4.981153 4.04229,-9.017755 9.02344,-9.023438 z"
         sodipodi:nodetypes="ssscccccssscccssscccccccssccccc" />
      <path
         id="path3074"
         style="display:inline;fill:#ff9e00;fill-opacity:1;fill-rule:evenodd;stroke:none;enable-background:new"
         d="m 320,152 c -11.0275,0 -20,8.9725 -20,20 0,11.0275 8.9725,20 20,20 4.04,0 7.93758,-1.20227 11.26758,-3.47852 l 0.0566,-0.0391 -2.69531,-3.13281 -0.0449,0.0293 c -2.55954,1.64803 -5.53976,2.52316 -8.58398,2.52148 -8.7675,0 -15.90039,-7.13289 -15.90039,-15.90039 0,-8.7675 7.13289,-15.90039 15.90039,-15.90039 8.7675,0 15.90039,7.13289 15.90039,15.90039 0,1.13625 -0.12625,2.28672 -0.375,3.41797 -0.5025,2.06374 -1.9482,2.69704 -3.0332,2.61328 -1.09125,-0.0887 -2.36625,-0.86702 -2.375,-2.76953 V 172 c 0,-5.57875 -4.53844,-10.11719 -10.11719,-10.11719 -5.57875,0 -10.11719,4.53844 -10.11719,10.11719 0,5.57875 4.53844,10.11719 10.11719,10.11719 2.69349,0.006 5.27637,-1.07079 7.16797,-2.98828 1.10079,1.7279 2.95304,2.8354 4.99609,2.98828 1.64563,0.12808 3.27969,-0.35138 4.59571,-1.34766 1.19875,-0.90999 2.09679,-2.22734 2.59179,-3.80859 0.0787,-0.255 0.22337,-0.83805 0.22461,-0.8418 l 0.002,-0.0234 C 339.86873,174.82698 340,173.5625 340,172 c 0,-11.0275 -8.9725,-20 -20,-20 z m 0,13.98438 c 3.32077,0.004 6.01184,2.69485 6.01562,6.01562 -0.004,3.32077 -2.69485,6.01184 -6.01562,6.01562 -3.32077,-0.004 -6.01184,-2.69485 -6.01562,-6.01562 0.004,-3.32077 2.69485,-6.01184 6.01562,-6.01562 z"
         sodipodi:nodetypes="ssscccccssscccssscccccccssccccc" />
      <path
         id="path3076"
         style="display:inline;fill:#ff9e00;fill-opacity:1;fill-rule:evenodd;stroke:none;enable-background:new"
         d="m 312,230 c -7.71925,0 -14,6.28075 -14,14 0,7.71925 6.28075,14 14,14 2.828,0 5.55571,-0.84217 7.88672,-2.43555 l 0.0391,-0.0273 -1.88672,-2.19141 -0.0312,0.0195 c -1.79168,1.15363 -3.87685,1.76681 -6.00781,1.76563 -6.13725,0 -11.13086,-4.99361 -11.13086,-11.13086 0,-6.13725 4.99361,-11.13086 11.13086,-11.13086 6.13725,0 11.13086,4.99361 11.13086,11.13086 0,0.79537 -0.0896,1.60071 -0.26367,2.39258 -0.35175,1.44462 -1.36356,1.88675 -2.12305,1.82812 -0.76388,-0.0621 -1.65598,-0.60574 -1.66211,-1.9375 V 244 c 0,-3.90513 -3.1769,-7.08203 -7.08203,-7.08203 -3.90513,0 -7.08203,3.1769 -7.08203,7.08203 0,3.90513 3.1769,7.08203 7.08203,7.08203 1.88544,0.004 3.69346,-0.74956 5.01758,-2.0918 0.77056,1.20953 2.06596,1.98479 3.49609,2.0918 1.15195,0.0897 2.29753,-0.24596 3.21875,-0.94336 0.83912,-0.63699 1.466,-1.55914 1.8125,-2.66601 0.0551,-0.1785 0.15733,-0.58723 0.1582,-0.58985 l 0.002,-0.0156 C 325.9087,245.97905 326,245.09375 326,244 c 0,-7.71925 -6.28075,-14 -14,-14 z m 0,9.78906 c 2.32454,0.003 4.20829,1.8864 4.21094,4.21094 -0.003,2.32454 -1.8864,4.20829 -4.21094,4.21094 -2.32454,-0.003 -4.20828,-1.8864 -4.21094,-4.21094 0.003,-2.32454 1.8864,-4.20828 4.21094,-4.21094 z"
         sodipodi:nodetypes="ssscccccssscccssscccccccssccccc" />
      <path
         id="path3078"
         style="display:inline;fill:#ff9e00;fill-opacity:1;fill-rule:evenodd;stroke:none;enable-background:new"
         d="m 432.00003,58.000014 c -5.51375,0 -10,4.486249 -10,10 0,5.513751 4.48625,10 10,10 2.02,0 3.96976,-0.602108 5.63477,-1.740233 l 0.0273,-0.01953 -1.34766,-1.566407 -0.0215,0.01563 c -1.27977,0.82402 -2.77086,1.262556 -4.29297,1.261718 -4.38375,0 -7.94922,-3.567422 -7.94922,-7.951171 0,-4.383752 3.56547,-7.951173 7.94922,-7.951173 4.38375,0 7.95117,3.567422 7.95117,7.951173 0,0.568123 -0.0631,1.143361 -0.1875,1.708984 -0.25125,1.031871 -0.97507,1.348517 -1.51757,1.306641 -0.54564,-0.04437 -1.18312,-0.433513 -1.1875,-1.384766 v -1.63086 c 0,-2.789376 -2.26923,-5.058594 -5.0586,-5.058594 -2.78938,0 -5.05859,2.269218 -5.05859,5.058594 0,2.789373 2.26921,5.058594 5.05859,5.058594 1.34674,0.0031 2.63819,-0.535398 3.58399,-1.494141 0.5504,0.863951 1.47652,1.417701 2.49804,1.494141 0.82282,0.06404 1.64082,-0.175687 2.29883,-0.673829 0.59937,-0.454995 1.04742,-1.11367 1.29492,-1.904296 0.0394,-0.1275 0.11265,-0.42 0.11328,-0.421875 v -0.0098 c 0.14584,-0.634358 0.21094,-1.267577 0.21094,-2.048827 0,-5.513751 -4.48625,-10.000001 -10,-10.000001 z m 0,6.992188 c 1.66038,0.0019 3.00592,1.347427 3.00781,3.007812 -0.002,1.660384 -1.34743,3.005918 -3.00781,3.007813 -1.66038,-0.0019 -3.00592,-1.347429 -3.00781,-3.007813 0.002,-1.660385 1.34743,-3.005918 3.00781,-3.007812 z"
         sodipodi:nodetypes="csscccccssscccssscccccccsccccccc" />
      <path
         id="path3080"
         style="display:inline;fill:#ff9e00;fill-opacity:1;fill-rule:evenodd;stroke:none;enable-background:new"
         d="m 428,105 c -3.85963,0 -7,3.14038 -7,7 0,3.85962 3.14037,7 7,7 1.414,0 2.77786,-0.42011 3.94336,-1.2168 l 0.0195,-0.0137 -0.94336,-1.09765 -0.0156,0.0117 c -0.89584,0.57681 -1.93843,0.88144 -3.00391,0.88086 -3.06863,0 -5.56445,-2.49582 -5.56445,-5.56445 0,-3.06862 2.49582,-5.56445 5.56445,-5.56445 3.06862,0 5.56445,2.49583 5.56445,5.56445 0,0.39769 -0.0438,0.80133 -0.13086,1.19727 -0.17588,0.72231 -0.68079,0.94337 -1.06054,0.91406 -0.38194,-0.0311 -0.82897,-0.30287 -0.83203,-0.96875 V 112 c 0,-1.95256 -1.58846,-3.54102 -3.54102,-3.54102 -1.95256,0 -3.54102,1.58846 -3.54102,3.54102 0,1.95256 1.58846,3.54102 3.54102,3.54102 0.94272,0.002 1.84575,-0.37381 2.50781,-1.04493 0.38528,0.60476 1.03493,0.99142 1.75,1.04493 0.57597,0.0448 1.14681,-0.12396 1.60742,-0.47266 0.41956,-0.31849 0.73496,-0.77859 0.90821,-1.33203 0.0276,-0.0892 0.0777,-0.29361 0.0781,-0.29492 v -0.008 C 434.95345,112.98954 435,112.54688 435,112 c 0,-3.85962 -3.14038,-7 -7,-7 z m 0,4.89453 c 1.16227,10e-4 2.10414,0.9432 2.10547,2.10547 -0.001,1.16227 -0.9432,2.10414 -2.10547,2.10547 -1.16227,-10e-4 -2.10414,-0.9432 -2.10547,-2.10547 0.001,-1.16227 0.9432,-2.10414 2.10547,-2.10547 z"
         sodipodi:nodetypes="ssscccccssscccssscccccccssccccc" />
      <path
         id="path3082"
         style="display:inline;fill:#ff9e00;fill-opacity:1;fill-rule:evenodd;stroke:none;enable-background:new"
         d="m 424,143 c -2.75688,0 -5,2.24313 -5,5 0,2.75687 2.24312,5 5,5 1.01,0 1.98391,-0.30008 2.81641,-0.86914 l 0.0137,-0.01 -0.67383,-0.7832 -0.01,0.006 c -0.63988,0.41201 -1.38542,0.63127 -2.14648,0.63086 -2.19188,0 -3.97461,-1.78274 -3.97461,-3.97461 0,-2.19188 1.78273,-3.97656 3.97461,-3.97656 2.19188,0 3.97461,1.78468 3.97461,3.97656 0,0.28406 -0.0315,0.57071 -0.0937,0.85352 -0.12563,0.51594 -0.48656,0.67522 -0.75781,0.65429 -0.27281,-0.0222 -0.59157,-0.21774 -0.59375,-0.69336 V 148 c 0,-1.39469 -1.13461,-2.5293 -2.5293,-2.5293 -1.39469,0 -2.5293,1.13461 -2.5293,2.5293 0,1.39468 1.13461,2.5293 2.5293,2.5293 0.67337,0.002 1.31812,-0.26868 1.79102,-0.74805 0.2752,0.43198 0.73924,0.70984 1.25,0.74805 0.41141,0.032 0.81943,-0.0888 1.14843,-0.33789 0.29969,-0.2275 0.52469,-0.55587 0.64844,-0.95118 0.0197,-0.0637 0.0562,-0.20999 0.0566,-0.21093 v -0.006 C 428.96733,148.70626 429,148.39062 429,148 c 0,-2.75688 -2.24312,-5 -5,-5 z m 0,3.49609 c 0.83019,9.4e-4 1.50296,0.67372 1.50391,1.50391 -9.4e-4,0.83019 -0.67372,1.50296 -1.50391,1.50391 -0.83019,-9.4e-4 -1.50296,-0.67372 -1.50391,-1.50391 9.4e-4,-0.83019 0.67372,-1.50296 1.50391,-1.50391 z"
         sodipodi:nodetypes="ssscccccssscccssscccccccssccccc" />
    </g>
    <g
       inkscape:groupmode="layer"
       id="layer5"
       inkscape:label="Highlights"
       style="display:inline"
       sodipodi:insensitive="true">
      <path
         style="color:#bebebe;display:inline;overflow:visible;visibility:visible;opacity:0.13;fill:#ffffff;fill-opacity:1;fill-rule:nonzero;stroke:none;stroke-width:0;marker:none;enable-background:accumulate"
         d="M 84,47 C 56.836703,47 35,68.836703 35,96 v 1 C 35,69.836703 56.836703,48 84,48 h 120 c 27.1633,0 49,21.836703 49,49 V 96 C 253,68.836703 231.1633,47 204,47 Z"
         id="rect3894"
         inkscape:connector-curvature="0" />
      <path
         style="color:#bebebe;display:inline;overflow:visible;visibility:visible;opacity:0.13;fill:#ffffff;fill-opacity:1;fill-rule:nonzero;stroke:none;stroke-width:0;marker:none;enable-background:accumulate"
         d="m 419,141 c -1.1253,0 -2,0.8747 -2,2 v 1 c 0,-1.1253 0.8747,-2 2,-2 h 10 c 1.1253,0 2,0.8747 2,2 v -1 c 0,-1.1253 -0.8747,-2 -2,-2 z"
         id="rect3896"
         inkscape:connector-curvature="0" />
      <path
         style="color:#bebebe;display:inline;overflow:visible;visibility:visible;opacity:0.13;fill:#ffffff;fill-opacity:1;fill-rule:nonzero;stroke:none;stroke-width:0;marker:none;enable-background:accumulate"
         d="m 422,102 c -2.2333,0 -4,1.7667 -4,4 v 1 c 0,-2.2333 1.7667,-4 4,-4 h 12 c 2.2333,0 4,1.7667 4,4 v -1 c 0,-2.2333 -1.7667,-4 -4,-4 z"
         id="rect3898"
         inkscape:connector-curvature="0" />
      <path
         style="color:#bebebe;display:inline;overflow:visible;visibility:visible;opacity:0.13;fill:#ffffff;fill-opacity:1;fill-rule:nonzero;stroke:none;stroke-width:0;marker:none;enable-background:accumulate"
         d="m 424,54 c -3.3413,0 -6,2.658703 -6,6 v 1 c 0,-3.341297 2.6587,-6 6,-6 h 16 c 3.3413,0 6,2.658703 6,6 v -1 c 0,-3.341297 -2.6587,-6 -6,-6 z"
         id="rect3900"
         inkscape:connector-curvature="0" />
      <path
         style="color:#bebebe;display:inline;overflow:visible;visibility:visible;opacity:0.13;fill:#ffffff;fill-opacity:1;fill-rule:nonzero;stroke:none;stroke-width:0;marker:none;enable-background:accumulate"
         d="m 300,224 c -4.4493,0 -8,3.5507 -8,8 v 1 c 0,-4.4493 3.5507,-8 8,-8 h 24 c 4.4493,0 8,3.5507 8,8 v -1 c 0,-4.4493 -3.5507,-8 -8,-8 z"
         id="rect3902"
         inkscape:connector-curvature="0" />
      <path
         style="color:#bebebe;display:inline;overflow:visible;visibility:visible;opacity:0.13;fill:#ffffff;fill-opacity:1;fill-rule:nonzero;stroke:none;stroke-width:0;marker:none;enable-background:accumulate"
         d="m 310,33 c -9.4353,0 -17,7.564703 -17,17 v 1 c 0,-9.435297 7.5647,-17 17,-17 h 52 c 9.4353,0 17,7.564703 17,17 v -1 c 0,-9.435297 -7.5647,-17 -17,-17 z"
         id="rect3904"
         inkscape:connector-curvature="0" />
      <path
         style="color:#bebebe;display:inline;overflow:visible;visibility:visible;opacity:0.13;fill:#ffffff;fill-opacity:1;fill-rule:nonzero;stroke:none;stroke-width:0;marker:none;enable-background:accumulate"
         d="m 302.5,143 c -6.3883,0 -11.5,5.1117 -11.5,11.5 v 1 c 0,-6.3883 5.1117,-11.5 11.5,-11.5 h 35 c 6.3883,0 11.5,5.1117 11.5,11.5 v -1 c 0,-6.3883 -5.1117,-11.5 -11.5,-11.5 z"
         id="rect3906"
         inkscape:connector-curvature="0" />
      <path
         id="path4085"
         d="m 204,266 c 27.1633,0 49,-21.8367 49,-49 v -1 c 0,27.1633 -21.8367,49 -49,49 H 84 C 56.8367,265 35,243.1633 35,216 v 1 c 0,27.1633 21.8367,49 49,49 z"
         style="color:#bebebe;display:inline;overflow:visible;visibility:visible;opacity:0.5;fill:#000000;fill-opacity:1;fill-rule:nonzero;stroke:none;stroke-width:0;marker:none;enable-background:accumulate"
         inkscape:connector-curvature="0" />
      <path
         id="path4087"
         d="m 429,156 c 1.1253,0 2,-0.8747 2,-2 v -1 c 0,1.1253 -0.8747,2 -2,2 h -10 c -1.1253,0 -2,-0.8747 -2,-2 v 1 c 0,1.1253 0.8747,2 2,2 z"
         style="color:#bebebe;display:inline;overflow:visible;visibility:visible;opacity:0.3;fill:#000000;fill-opacity:1;fill-rule:nonzero;stroke:none;stroke-width:0;marker:none;enable-background:accumulate"
         inkscape:connector-curvature="0" />
      <path
         id="path4089"
         d="m 434,123 c 2.2333,0 4,-1.7667 4,-4 v -1 c 0,2.2333 -1.7667,4 -4,4 h -12 c -2.2333,0 -4,-1.7667 -4,-4 v 1 c 0,2.2333 1.7667,4 4,4 z"
         style="color:#bebebe;display:inline;overflow:visible;visibility:visible;opacity:0.3;fill:#000000;fill-opacity:1;fill-rule:nonzero;stroke:none;stroke-width:0;marker:none;enable-background:accumulate"
         inkscape:connector-curvature="0" />
      <path
         id="path4091"
         d="m 440,83 c 3.3413,0 6,-2.6587 6,-6 v -1 c 0,3.3413 -2.6587,6 -6,6 h -16 c -3.3413,0 -6,-2.6587 -6,-6 v 1 c 0,3.3413 2.6587,6 6,6 z"
         style="color:#bebebe;display:inline;overflow:visible;visibility:visible;opacity:0.5;fill:#000000;fill-opacity:1;fill-rule:nonzero;stroke:none;stroke-width:0;marker:none;enable-background:accumulate"
         inkscape:connector-curvature="0" />
      <path
         id="path4093"
         d="m 324,265 c 4.4493,0 8,-3.5507 8,-8 v -1 c 0,4.4493 -3.5507,8 -8,8 h -24 c -4.4493,0 -8,-3.5507 -8,-8 v 1 c 0,4.4493 3.5507,8 8,8 z"
         style="color:#bebebe;display:inline;overflow:visible;visibility:visible;opacity:0.5;fill:#000000;fill-opacity:1;fill-rule:nonzero;stroke:none;stroke-width:0;marker:none;enable-background:accumulate"
         inkscape:connector-curvature="0" />
      <path
         id="path4095"
         d="m 362,120 c 9.4353,0 17,-7.5647 17,-17 v -1 c 0,9.4353 -7.5647,17 -17,17 h -52 c -9.4353,0 -17,-7.5647 -17,-17 v 1 c 0,9.4353 7.5647,17 17,17 z"
         style="color:#bebebe;display:inline;overflow:visible;visibility:visible;opacity:0.5;fill:#000000;fill-opacity:1;fill-rule:nonzero;stroke:none;stroke-width:0;marker:none;enable-background:accumulate"
         inkscape:connector-curvature="0" />
      <path
         id="path4097"
         d="m 337.5,202 c 6.3883,0 11.5,-5.1117 11.5,-11.5 v -1 c 0,6.3883 -5.1117,11.5 -11.5,11.5 h -35 c -6.3883,0 -11.5,-5.1117 -11.5,-11.5 v 1 c 0,6.3883 5.1117,11.5 11.5,11.5 z"
         style="color:#bebebe;display:inline;overflow:visible;visibility:visible;opacity:0.5;fill:#000000;fill-opacity:1;fill-rule:nonzero;stroke:none;stroke-width:0;marker:none;enable-background:accumulate"
         inkscape:connector-curvature="0" />
      <path
         inkscape:connector-curvature="0"
         id="path4280"
         d="M 84,265 C 56.836703,265 35,243.1633 35,216 v -1 c 0,27.1633 21.836703,49 49,49 h 120 c 27.1633,0 49,-21.8367 49,-49 v 1 c 0,27.1633 -21.8367,49 -49,49 z"
         style="color:#bebebe;display:inline;overflow:visible;visibility:visible;opacity:0.1;fill:#ffffff;fill-opacity:1;fill-rule:nonzero;stroke:none;stroke-width:0;marker:none;enable-background:accumulate" />
      <path
         style="color:#bebebe;display:inline;overflow:visible;visibility:visible;opacity:0.1;fill:#ffffff;fill-opacity:1;fill-rule:nonzero;stroke:none;stroke-width:0;marker:none;enable-background:accumulate"
         d="m 300,264 c -4.4493,0 -8,-3.5507 -8,-8 v -1 c 0,4.4493 3.5507,8 8,8 h 24 c 4.4493,0 8,-3.5507 8,-8 v 1 c 0,4.4493 -3.5507,8 -8,8 z"
         id="path4294"
         inkscape:connector-curvature="0" />
      <path
         style="color:#bebebe;display:inline;overflow:visible;visibility:visible;opacity:0.1;fill:#ffffff;fill-opacity:1;fill-rule:nonzero;stroke:none;stroke-width:0;marker:none;enable-background:accumulate"
         d="m 302.5,201 c -6.3883,0 -11.5,-5.1117 -11.5,-11.5 v -1 c 0,6.3883 5.1117,11.5 11.5,11.5 h 35 c 6.3883,0 11.5,-5.1117 11.5,-11.5 v 1 c 0,6.3883 -5.1117,11.5 -11.5,11.5 z"
         id="path4296"
         inkscape:connector-curvature="0" />
      <path
         style="color:#bebebe;display:inline;overflow:visible;visibility:visible;opacity:0.1;fill:#ffffff;fill-opacity:1;fill-rule:nonzero;stroke:none;stroke-width:0;marker:none;enable-background:accumulate"
         d="m 310,119 c -9.4353,0 -17,-7.5647 -17,-17 v -1 c 0,9.4353 7.5647,17 17,17 h 52 c 9.4353,0 17,-7.5647 17,-17 v 1 c 0,9.4353 -7.5647,17 -17,17 z"
         id="path4298"
         inkscape:connector-curvature="0" />
      <path
         style="color:#bebebe;display:inline;overflow:visible;visibility:visible;opacity:0.1;fill:#ffffff;fill-opacity:1;fill-rule:nonzero;stroke:none;stroke-width:0;marker:none;enable-background:accumulate"
         d="m 424,82 c -3.3413,0 -6,-2.658703 -6,-6 v -1 c 0,3.341297 2.6587,6 6,6 h 16 c 3.3413,0 6,-2.658703 6,-6 v 1 c 0,3.341297 -2.6587,6 -6,6 z"
         id="path4300"
         inkscape:connector-curvature="0" />
      <path
         style="color:#bebebe;display:inline;overflow:visible;visibility:visible;opacity:0.1;fill:#ffffff;fill-opacity:1;fill-rule:nonzero;stroke:none;stroke-width:0;marker:none;enable-background:accumulate"
         d="m 422,122 c -2.2333,0 -4,-1.7667 -4,-4 v -1 c 0,2.2333 1.7667,4 4,4 h 12 c 2.2333,0 4,-1.7667 4,-4 v 1 c 0,2.2333 -1.7667,4 -4,4 z"
         id="path4302"
         inkscape:connector-curvature="0" />
      <path
         style="color:#bebebe;display:inline;overflow:visible;visibility:visible;opacity:0.1;fill:#ffffff;fill-opacity:1;fill-rule:nonzero;stroke:none;stroke-width:0;marker:none;enable-background:accumulate"
         d="m 419,154.5 c -1.1253,0 -2,-0.8747 -2,-2 v -1 c 0,1.1253 0.8747,2 2,2 h 10 c 1.1253,0 2,-0.8747 2,-2 v 1 c 0,1.1253 -0.8747,2 -2,2 z"
         id="path4304"
         inkscape:connector-curvature="0" />
    </g>
    <g
       inkscape:groupmode="layer"
       id="layer3"
       inkscape:label="Border"
       style="display:inline"
       sodipodi:insensitive="true">
      <path
         style="color:#bebebe;display:inline;overflow:visible;visibility:visible;opacity:0.41;fill:#000000;fill-opacity:1;fill-rule:nonzero;stroke:none;stroke-width:0;marker:none;enable-background:accumulate"
         d="m 422,101 c -2.77,0 -5,2.23 -5,5 v 12 c 0,2.77 2.23,5 5,5 h 12 c 2.77,0 5,-2.23 5,-5 v -12 c 0,-2.77 -2.23,-5 -5,-5 z m 0,1 h 12 c 2.2333,0 4,1.7667 4,4 v 12 c 0,2.2333 -1.7667,4 -4,4 h -12 c -2.2333,0 -4,-1.7667 -4,-4 v -12 c 0,-2.2333 1.7667,-4 4,-4 z"
         id="rect4099"
         inkscape:connector-curvature="0" />
      <path
         style="color:#bebebe;display:inline;overflow:visible;visibility:visible;opacity:0.41;fill:#000000;fill-opacity:1;fill-rule:nonzero;stroke:none;stroke-width:0;marker:none;enable-background:accumulate"
         d="m 424,53 c -3.878,0 -7,3.122 -7,7 v 16 c 0,3.878 3.122,7 7,7 h 16 c 3.878,0 7,-3.122 7,-7 V 60 c 0,-3.878 -3.122,-7 -7,-7 z m 0,1 h 16 c 3.3413,0 6,2.658703 6,6 v 16 c 0,3.341297 -2.6587,6 -6,6 h -16 c -3.3413,0 -6,-2.658703 -6,-6 V 60 c 0,-3.341297 2.6587,-6 6,-6 z"
         id="rect4151"
         inkscape:connector-curvature="0" />
      <path
         style="color:#bebebe;display:inline;overflow:visible;visibility:visible;opacity:0.41;fill:#000000;fill-opacity:1;fill-rule:nonzero;stroke:none;stroke-width:0;marker:none;enable-background:accumulate"
         d="m 419,140 c -1.662,0 -3,1.338 -3,3 v 10 c 0,1.662 1.338,3 3,3 h 10 c 1.662,0 3,-1.338 3,-3 v -10 c 0,-1.662 -1.338,-3 -3,-3 z m 0,1 h 10 c 1.1253,0 2,0.8747 2,2 v 10 c 0,1.1253 -0.8747,2 -2,2 h -10 c -1.1253,0 -2,-0.8747 -2,-2 v -10 c 0,-1.1253 0.8747,-2 2,-2 z"
         id="rect4095"
         inkscape:connector-curvature="0" />
      <path
         style="color:#bebebe;display:inline;overflow:visible;visibility:visible;opacity:0.41;fill:#000000;fill-opacity:1;fill-rule:nonzero;stroke:none;stroke-width:0;marker:none;enable-background:accumulate"
         d="m 300,223 c -4.986,0 -9,4.014 -9,9 v 24 c 0,4.986 4.014,9 9,9 h 24 c 4.986,0 9,-4.014 9,-9 v -24 c 0,-4.986 -4.014,-9 -9,-9 z m 0,1 h 24 c 4.4493,0 8,3.5507 8,8 v 24 c 0,4.4493 -3.5507,8 -8,8 h -24 c -4.4493,0 -8,-3.5507 -8,-8 v -24 c 0,-4.4493 3.5507,-8 8,-8 z"
         id="rect4783"
         inkscape:connector-curvature="0" />
      <path
         style="color:#bebebe;display:inline;overflow:visible;visibility:visible;opacity:0.41;fill:#000000;fill-opacity:1;fill-rule:nonzero;stroke:none;stroke-width:0;marker:none;enable-background:accumulate"
         d="m 302.5,142 c -6.925,0 -12.5,5.575 -12.5,12.5 v 35 c 0,6.925 5.575,12.5 12.5,12.5 h 35 c 6.925,0 12.5,-5.575 12.5,-12.5 v -35 c 0,-6.925 -5.575,-12.5 -12.5,-12.5 z m 0,1 h 35 c 6.3883,0 11.5,5.1117 11.5,11.5 v 35 c 0,6.3883 -5.1117,11.5 -11.5,11.5 h -35 c -6.3883,0 -11.5,-5.1117 -11.5,-11.5 v -35 c 0,-6.3883 5.1117,-11.5 11.5,-11.5 z"
         id="rect4515"
         inkscape:connector-curvature="0" />
      <path
         style="color:#bebebe;display:inline;overflow:visible;visibility:visible;opacity:0.41;fill:#000000;fill-opacity:1;fill-rule:nonzero;stroke:none;stroke-width:0;marker:none;enable-background:accumulate"
         d="m 310,32 c -9.972,0 -18,8.028 -18,18 v 52 c 0,9.972 8.028,18 18,18 h 52 c 9.972,0 18,-8.028 18,-18 V 50 c 0,-9.972 -8.028,-18 -18,-18 z m 0,1 h 52 c 9.4353,0 17,7.564703 17,17 v 52 c 0,9.4353 -7.5647,17 -17,17 h -52 c -9.4353,0 -17,-7.5647 -17,-17 V 50 c 0,-9.435297 7.5647,-17 17,-17 z"
         id="rect4511"
         inkscape:connector-curvature="0" />
      <path
         style="color:#bebebe;display:inline;overflow:visible;visibility:visible;opacity:0.41;fill:#000000;fill-opacity:1;fill-rule:nonzero;stroke:none;stroke-width:0;marker:none;enable-background:accumulate"
         d="M 84,46 C 56.3,46 34,68.3 34,96 v 120 c 0,27.7 22.3,50 50,50 h 120 c 27.7,0 50,-22.3 50,-50 V 96 C 254,68.3 231.7,46 204,46 Z m 0,1 h 120 c 27.1633,0 49,21.836703 49,49 v 120 c 0,27.1633 -21.8367,49 -49,49 H 84 C 56.836703,265 35,243.1633 35,216 V 96 C 35,68.836703 56.836703,47 84,47 Z"
         id="rect4040"
         inkscape:connector-curvature="0" />
    </g>
  </g>
</svg>
