<?xml version="1.0" encoding="UTF-8" standalone="no"?>
<!-- Created with Inkscape (http://www.inkscape.org/) -->

<svg
   inkscape:export-ydpi="90.000000"
   inkscape:export-xdpi="90.000000"
   width="480"
   height="300"
   id="svg11300"
   sodipodi:version="0.32"
   inkscape:version="1.1.2 (0a00cf5339, 2022-02-04)"
   sodipodi:docname="web-deezer.svg"
   inkscape:output_extension="org.inkscape.output.svg.inkscape"
   version="1.0"
   style="display:inline;enable-background:new"
   inkscape:export-filename="/home/sam/moka-next-template.png"
   xmlns:inkscape="http://www.inkscape.org/namespaces/inkscape"
   xmlns:sodipodi="http://sodipodi.sourceforge.net/DTD/sodipodi-0.dtd"
   xmlns:xlink="http://www.w3.org/1999/xlink"
   xmlns="http://www.w3.org/2000/svg"
   xmlns:svg="http://www.w3.org/2000/svg"
   xmlns:rdf="http://www.w3.org/1999/02/22-rdf-syntax-ns#"
   xmlns:cc="http://creativecommons.org/ns#"
   xmlns:dc="http://purl.org/dc/elements/1.1/">
  <sodipodi:namedview
     stroke="#ef2929"
     fill="#f57900"
     id="base"
     pagecolor="#777777"
     bordercolor="#666666"
     borderopacity="0.25490196"
     inkscape:pageopacity="0"
     inkscape:pageshadow="2"
     inkscape:zoom="1.4142136"
     inkscape:cx="394.21202"
     inkscape:cy="120.5617"
     inkscape:current-layer="layer6"
     showgrid="false"
     inkscape:grid-bbox="true"
     inkscape:document-units="px"
     inkscape:showpageshadow="false"
     inkscape:window-width="1920"
     inkscape:window-height="1048"
     inkscape:window-x="0"
     inkscape:window-y="0"
     width="400px"
     height="300px"
     inkscape:snap-nodes="true"
     inkscape:snap-bbox="true"
     gridtolerance="10000"
     inkscape:object-nodes="true"
     inkscape:snap-grids="true"
     showguides="true"
     inkscape:guide-bbox="true"
     inkscape:window-maximized="1"
     inkscape:bbox-nodes="true"
     inkscape:bbox-paths="true"
     inkscape:snap-bbox-edge-midpoints="true"
     inkscape:snap-bbox-midpoints="true"
     inkscape:pagecheckerboard="0">
    <inkscape:grid
       spacingy="1"
       spacingx="1"
       id="grid5883"
       type="xygrid"
       enabled="true"
       visible="true"
       empspacing="4"
       snapvisiblegridlinesonly="true"
       dotted="false"
       color="#000000"
       opacity="0.1254902"
       empcolor="#203ef3"
       empopacity="0.36470588"
       originx="0"
       originy="0" />
    <inkscape:grid
       type="xygrid"
       id="grid11592"
       empspacing="8"
       visible="true"
       enabled="false"
       spacingx="0.5"
       spacingy="0.5"
       color="#ff0000"
       opacity="0.1254902"
       empcolor="#ff0000"
       empopacity="0.25098039"
       snapvisiblegridlinesonly="true"
       dotted="true"
       originx="0"
       originy="0" />
  </sodipodi:namedview>
  <defs
     id="defs3">
    <linearGradient
       inkscape:collect="always"
       id="linearGradient4579">
      <stop
         style="stop-color:#7f2aff;stop-opacity:1;"
         offset="0"
         id="stop4575" />
      <stop
         style="stop-color:#7f2aff;stop-opacity:0;"
         offset="1"
         id="stop4577" />
    </linearGradient>
    <linearGradient
       id="linearGradient4059">
      <stop
         style="stop-color:#cc0f16;stop-opacity:1;"
         offset="0"
         id="stop4061" />
      <stop
         style="stop-color:#e52931;stop-opacity:1;"
         offset="1"
         id="stop4063" />
    </linearGradient>
    <linearGradient
       inkscape:collect="always"
       xlink:href="#linearGradient4579"
       id="linearGradient1531"
       x1="417.5"
       y1="68"
       x2="446.5"
       y2="68"
       gradientUnits="userSpaceOnUse"
       gradientTransform="rotate(-90,432,68)" />
    <linearGradient
       inkscape:collect="always"
       xlink:href="#linearGradient4579"
       id="linearGradient1533"
       x1="292.5"
       y1="76"
       x2="379.5"
       y2="76"
       gradientUnits="userSpaceOnUse"
       gradientTransform="rotate(-90,336,76)" />
    <linearGradient
       inkscape:collect="always"
       xlink:href="#linearGradient4579"
       id="linearGradient1535"
       x1="290.5"
       y1="172"
       x2="349.5"
       y2="172"
       gradientUnits="userSpaceOnUse"
       gradientTransform="rotate(-90,320,172)" />
    <linearGradient
       inkscape:collect="always"
       xlink:href="#linearGradient4579"
       id="linearGradient1537"
       x1="291.5"
       y1="244"
       x2="332.5"
       y2="244"
       gradientUnits="userSpaceOnUse"
       gradientTransform="rotate(-90,312,244)" />
    <linearGradient
       inkscape:collect="always"
       xlink:href="#linearGradient4579"
       id="linearGradient1539"
       x1="417.5"
       y1="112"
       x2="438.5"
       y2="112"
       gradientUnits="userSpaceOnUse"
       gradientTransform="rotate(-90,428,112)" />
    <linearGradient
       inkscape:collect="always"
       xlink:href="#linearGradient4579"
       id="linearGradient1541"
       x1="416.5"
       y1="148"
       x2="431.5"
       y2="148"
       gradientUnits="userSpaceOnUse"
       gradientTransform="rotate(-90,424,148)" />
    <linearGradient
       inkscape:collect="always"
       xlink:href="#linearGradient4579"
       id="linearGradient2314"
       x1="34.5"
       y1="156"
       x2="253.5"
       y2="156"
       gradientUnits="userSpaceOnUse"
       gradientTransform="rotate(-90,144,156)" />
  </defs>
  <metadata
     id="metadata4">
    <rdf:RDF>
      <cc:Work
         rdf:about="">
        <dc:format>image/svg+xml</dc:format>
        <dc:type
           rdf:resource="http://purl.org/dc/dcmitype/StillImage" />
        <dc:creator>
          <cc:Agent>
            <dc:title>Sam Hewitt</dc:title>
          </cc:Agent>
        </dc:creator>
        <dc:source />
        <cc:license
           rdf:resource="" />
        <dc:title />
        <dc:subject>
          <rdf:Bag />
        </dc:subject>
        <dc:date />
        <dc:rights>
          <cc:Agent>
            <dc:title />
          </cc:Agent>
        </dc:rights>
        <dc:publisher>
          <cc:Agent>
            <dc:title />
          </cc:Agent>
        </dc:publisher>
        <dc:identifier />
        <dc:relation />
        <dc:language />
        <dc:coverage />
        <dc:description />
        <dc:contributor>
          <cc:Agent>
            <dc:title />
          </cc:Agent>
        </dc:contributor>
      </cc:Work>
      <cc:Work
         rdf:about="">
        <dc:format>image/svg+xml</dc:format>
        <dc:type
           rdf:resource="http://purl.org/dc/dcmitype/StillImage" />
      </cc:Work>
    </rdf:RDF>
  </metadata>
  <g
     style="display:inline"
     inkscape:groupmode="layer"
     inkscape:label="Icon"
     id="layer1">
    <g
       style="display:none"
       inkscape:label="Baseplate"
       id="layer7"
       inkscape:groupmode="layer">
      <text
         y="19.745117"
         xml:space="preserve"
         x="15.006836"
         style="font-style:normal;font-variant:normal;font-weight:normal;font-stretch:normal;line-height:0%;font-family:'DejaVu Sans';-inkscape-font-specification:'DejaVu Sans';display:inline;fill:#000000;fill-opacity:1;stroke:none;enable-background:new"
         inkscape:label="context"
         id="context"><tspan
           style="font-style:normal;font-variant:normal;font-weight:normal;font-stretch:normal;font-size:18px;line-height:1.25;font-family:'DejaVu Sans';-inkscape-font-specification:'DejaVu Sans'"
           y="19.745117"
           x="15.006836"
           sodipodi:role="line"
           id="tspan3933">apps</tspan></text>
      <text
         y="19.745117"
         xml:space="preserve"
         x="122.48828"
         style="font-style:normal;font-variant:normal;font-weight:bold;font-stretch:normal;line-height:0%;font-family:'DejaVu Sans';-inkscape-font-specification:'DejaVu Sans Bold';text-align:start;writing-mode:lr-tb;text-anchor:start;display:inline;fill:#000000;fill-opacity:1;stroke:none;enable-background:new"
         inkscape:label="icon-name"
         id="icon-name"><tspan
           style="font-style:normal;font-variant:normal;font-weight:bold;font-stretch:normal;font-size:18px;line-height:1.25;font-family:'DejaVu Sans';-inkscape-font-specification:'DejaVu Sans Bold'"
           y="19.745117"
           x="122.48828"
           sodipodi:role="line"
           id="tspan3937">web-deezer</tspan></text>
      <rect
         style="display:inline;overflow:visible;visibility:visible;fill:#eeeeec;fill-opacity:1;fill-rule:nonzero;stroke:none;stroke-width:2;marker:none;enable-background:accumulate"
         id="rect16x16"
         width="16"
         height="16"
         x="416"
         y="140"
         inkscape:label="16x16" />
      <rect
         style="display:inline;overflow:visible;visibility:visible;fill:#d4d4d4;fill-opacity:1;fill-rule:nonzero;stroke:none;stroke-width:2;marker:none;enable-background:accumulate"
         id="rect24x24"
         width="24"
         height="24"
         x="416"
         y="100"
         inkscape:label="24x24" />
      <rect
         style="display:inline;overflow:visible;visibility:visible;fill:#eeeeec;fill-opacity:1;fill-rule:nonzero;stroke:none;stroke-width:2;marker:none;enable-background:accumulate"
         id="rect32x32"
         width="32"
         height="32"
         x="416"
         y="52"
         inkscape:label="32x32" />
      <rect
         inkscape:label="22x22"
         y="101"
         x="417"
         height="22"
         width="22"
         id="rect22x22"
         style="display:inline;overflow:visible;visibility:visible;fill:#eeeeec;fill-opacity:1;fill-rule:nonzero;stroke:none;stroke-width:2;marker:none;enable-background:accumulate" />
      <rect
         inkscape:label="48x48"
         y="220"
         x="288"
         height="48"
         width="48"
         id="rect48x48"
         style="display:inline;overflow:visible;visibility:visible;fill:#eeeeec;fill-opacity:1;fill-rule:nonzero;stroke:none;stroke-width:2;marker:none;enable-background:accumulate" />
      <rect
         style="display:inline;overflow:visible;visibility:visible;fill:#eeeeec;fill-opacity:1;fill-rule:nonzero;stroke:none;stroke-width:2;marker:none;enable-background:accumulate"
         id="rect256x256"
         width="256"
         height="256"
         x="16"
         y="28"
         inkscape:label="256x256" />
      <rect
         style="display:inline;overflow:visible;visibility:visible;fill:#eeeeec;fill-opacity:1;fill-rule:nonzero;stroke:none;stroke-width:2;marker:none;enable-background:accumulate"
         id="rect64x64"
         width="64"
         height="64"
         x="288"
         y="140"
         inkscape:label="64x64" />
      <rect
         style="display:inline;overflow:visible;visibility:visible;fill:#eeeeec;fill-opacity:1;fill-rule:nonzero;stroke:none;stroke-width:2;marker:none;enable-background:accumulate"
         id="rect96x96"
         width="96"
         height="96"
         x="288"
         y="28"
         inkscape:label="96x96" />
    </g>
    <g
       inkscape:groupmode="layer"
       id="layer4"
       inkscape:label="Shadow"
       style="display:inline"
       sodipodi:insensitive="true">
      <rect
         ry="50"
         y="47"
         x="34"
         height="220"
         width="220"
         id="rect4114"
         style="color:#bebebe;display:inline;overflow:visible;visibility:visible;opacity:0.1;fill:#000000;fill-opacity:1;fill-rule:nonzero;stroke:none;stroke-width:0;marker:none;enable-background:accumulate" />
      <rect
         style="color:#bebebe;display:inline;overflow:visible;visibility:visible;opacity:0.1;fill:#000000;fill-opacity:1;fill-rule:nonzero;stroke:none;stroke-width:0;marker:none;enable-background:accumulate"
         id="rect4120"
         width="30"
         height="30"
         x="417"
         y="54"
         ry="7" />
      <rect
         transform="scale(1,-1)"
         ry="9"
         y="-266"
         x="291"
         height="42"
         width="42"
         id="rect4122"
         style="color:#bebebe;display:inline;overflow:visible;visibility:visible;opacity:0.1;fill:#000000;fill-opacity:1;fill-rule:nonzero;stroke:none;stroke-width:0;marker:none;enable-background:accumulate" />
      <rect
         style="color:#bebebe;display:inline;overflow:visible;visibility:visible;opacity:0.1;fill:#000000;fill-opacity:1;fill-rule:nonzero;stroke:none;stroke-width:0;marker:none;enable-background:accumulate"
         id="rect4124"
         width="88"
         height="88"
         x="292"
         y="33"
         ry="18" />
      <rect
         ry="12.5"
         y="143"
         x="290"
         height="60"
         width="60"
         id="rect4126"
         style="color:#bebebe;display:inline;overflow:visible;visibility:visible;opacity:0.1;fill:#000000;fill-opacity:1;fill-rule:nonzero;stroke:none;stroke-width:0;marker:none;enable-background:accumulate" />
      <path
         id="path4268"
         d="m 422,101 c -2.77,0 -5,2.23 -5,5 v 12 c 0,2.77 2.23,5 5,5 h 12 c 2.77,0 5,-2.23 5,-5 v -12 c 0,-2.77 -2.23,-5 -5,-5 z"
         style="color:#bebebe;display:inline;overflow:visible;visibility:visible;opacity:0.1;fill:#000000;fill-opacity:1;fill-rule:nonzero;stroke:none;stroke-width:0;marker:none;enable-background:accumulate"
         inkscape:connector-curvature="0"
         sodipodi:nodetypes="sssssssss" />
      <path
         id="path4270"
         d="m 419,140 c -1.662,0 -3,1.338 -3,3 v 10 c 0,1.662 1.338,3 3,3 h 10 c 1.662,0 3,-1.338 3,-3 v -10 c 0,-1.662 -1.338,-3 -3,-3 z"
         style="color:#bebebe;display:inline;overflow:visible;visibility:visible;opacity:0.1;fill:#000000;fill-opacity:1;fill-rule:nonzero;stroke:none;stroke-width:0;marker:none;enable-background:accumulate"
         inkscape:connector-curvature="0"
         sodipodi:nodetypes="sssssssss" />
    </g>
    <g
       inkscape:groupmode="layer"
       id="layer2"
       inkscape:label="Background"
       style="display:inline" />
    <g
       inkscape:groupmode="layer"
       id="layer6"
       inkscape:label="Symbols"
       style="display:inline">
      <g
         id="g1048">
        <path
           style="color:#bebebe;display:inline;overflow:visible;visibility:visible;fill:#a63afa;fill-opacity:1;fill-rule:nonzero;stroke:none;stroke-width:2;marker:none;enable-background:accumulate"
           d="M 84,46.5 C 56.568735,46.5 34.5,68.568732 34.5,96 v 120 c 0,27.43127 22.068735,49.5 49.5,49.5 h 120 c 27.43127,0 49.5,-22.06873 49.5,-49.5 V 96 C 253.5,68.568732 231.43127,46.5 204,46.5 Z"
           id="path4200"
           inkscape:connector-curvature="0" />
        <path
           style="color:#bebebe;display:inline;overflow:visible;visibility:visible;fill:url(#linearGradient2314);fill-opacity:1;fill-rule:nonzero;stroke:none;stroke-width:2;marker:none;enable-background:accumulate"
           d="m 34.5,216 c 0,27.43126 22.06873,49.5 49.5,49.5 h 120 c 27.43127,0 49.5,-22.06874 49.5,-49.5 V 96 C 253.5,68.56873 231.43127,46.5 204,46.5 H 84 C 56.56873,46.5 34.5,68.56873 34.5,96 Z"
           id="path2306"
           inkscape:connector-curvature="0" />
        <path
           fill-rule="evenodd"
           clip-rule="evenodd"
           d="m 187.35427,111.52835 c 1.18428,-6.86398 2.92189,-11.18024 4.8467,-11.18851 h 0.004 c 3.58936,0.0133 6.49897,14.98123 6.49897,33.46256 0,18.48106 -2.91388,33.4624 -6.50724,33.4624 -1.47307,0 -2.83228,-2.54373 -3.92695,-6.8064 -1.72961,15.60373 -5.31897,26.33066 -9.47393,26.33066 -3.21495,0 -6.1003,-6.44346 -8.03738,-16.6056 -1.32267,19.32641 -4.65149,33.03787 -8.54218,33.03787 -2.44162,0 -4.66777,-5.43333 -6.31578,-14.28027 C 153.91891,207.20373 149.34074,220 144.00124,220 c -5.33923,0 -9.92539,-12.79227 -11.89927,-31.05894 -1.63601,8.84694 -3.86189,14.28027 -6.31604,14.28027 -3.89042,0 -7.21124,-13.71146 -8.54191,-33.03787 -1.93708,10.16214 -4.81417,16.6056 -8.03739,16.6056 -4.15095,0 -7.74428,-10.72266 -9.47384,-26.33066 -1.08657,4.2752 -2.45393,6.8064 -3.92712,6.8064 -3.59341,0 -6.50721,-14.98134 -6.50721,-33.4624 0,-18.48133 2.9138,-33.46256 6.50721,-33.46256 1.92898,0 3.65445,4.32864 4.85091,11.18851 C 102.57334,99.69261 105.68661,92 109.20663,92 c 4.1795,0 7.80139,10.87933 9.51473,26.6768 1.67654,-11.4977 4.22002,-18.82752 7.06884,-18.82752 3.99202,0 7.38618,14.41642 8.64379,34.52618 2.36428,-10.31067 5.7867,-16.77877 9.57552,-16.77877 3.78882,0 7.21125,6.47237 9.57153,16.77877 1.2616,-20.10976 4.65149,-34.52618 8.64378,-34.52618 2.84455,0 5.38403,7.32982 7.06884,18.82752 C 171.00274,102.87933 174.62463,92 178.80412,92 c 3.50802,0 6.63338,7.69674 8.55019,19.52835 z M 80,130.5112 c 0,-8.2616 1.65225,-14.96074 3.69109,-14.96074 2.03884,0 3.69109,6.69914 3.69109,14.96074 0,8.26133 -1.65225,14.96053 -3.69109,14.96053 C 81.65225,145.47173 80,138.77253 80,130.5112 Z m 120.61782,0 c 0,-8.2616 1.65201,-14.96074 3.69096,-14.96074 2.03894,0 3.69122,6.69914 3.69122,14.96074 0,8.26133 -1.65228,14.96053 -3.69122,14.96053 -2.03895,0 -3.69096,-6.6992 -3.69096,-14.96053 z"
           fill="#a238ff"
           id="path2585"
           style="fill:#1f1c24;fill-opacity:1;stroke-width:2.66667" />
        <path
           style="color:#bebebe;display:inline;overflow:visible;visibility:visible;fill:#a63afa;fill-opacity:1;fill-rule:nonzero;stroke:none;stroke-width:2;marker:none;enable-background:accumulate"
           d="m 310,32.5 c -9.70255,0 -17.5,7.797452 -17.5,17.5 v 52 c 0,9.70255 7.79745,17.5 17.5,17.5 h 52 c 9.70255,0 17.5,-7.79745 17.5,-17.5 V 50 c 0,-9.702548 -7.79745,-17.5 -17.5,-17.5 z"
           id="path4210"
           inkscape:connector-curvature="0" />
        <path
           style="color:#bebebe;display:inline;overflow:visible;visibility:visible;fill:url(#linearGradient1533);fill-opacity:1;fill-rule:nonzero;stroke:none;stroke-width:2;marker:none;enable-background:accumulate"
           d="m 292.5,102 c 0,9.70255 7.79745,17.5 17.5,17.5 h 52 c 9.70255,0 17.5,-7.79745 17.5,-17.5 V 50 c 0,-9.70255 -7.79745,-17.5 -17.5,-17.5 h -52 c -9.70255,0 -17.5,7.79745 -17.5,17.5 z"
           id="path1521"
           inkscape:connector-curvature="0" />
        <path
           fill-rule="evenodd"
           clip-rule="evenodd"
           d="m 353.22293,58.333185 c 0.47047,-2.72679 1.16075,-4.44147 1.9254,-4.44475 h 0.002 c 1.42591,0.005 2.58178,5.95144 2.58178,13.29334 0,7.34179 -1.15757,13.29328 -2.58507,13.29328 -0.58519,0 -1.12515,-1.01052 -1.56002,-2.70391 -0.6871,6.19874 -2.11301,10.46013 -3.76361,10.46013 -1.27718,0 -2.42341,-2.55973 -3.19294,-6.59675 -0.52544,7.67762 -1.84785,13.12464 -3.39346,13.12464 -0.96996,0 -1.85432,-2.15845 -2.50901,-5.67299 -0.7872,7.25503 -2.60593,12.338485 -4.7271,12.338485 -2.12106,0 -3.94296,-5.081865 -4.72711,-12.338485 -0.64992,3.51454 -1.53417,5.67299 -2.50911,5.67299 -1.54551,0 -2.86474,-5.44702 -3.39336,-13.12464 -0.76952,4.03702 -1.91248,6.59675 -3.19293,6.59675 -1.64901,0 -3.0765,-4.25969 -3.76358,-10.46013 -0.43166,1.69837 -0.97485,2.70391 -1.56009,2.70391 -1.42752,0 -2.58506,-5.95149 -2.58506,-13.29328 0,-7.3419 1.15754,-13.29334 2.58506,-13.29334 0.7663,0 1.45176,1.71959 1.92707,4.44475 0.76145,-4.70187 1.99823,-7.75784 3.3966,-7.75784 1.66034,0 3.09918,4.32193 3.77982,10.59763 0.66602,-4.56758 1.67645,-7.47942 2.80817,-7.47942 1.58587,0 2.93423,5.72707 3.43383,13.71588 0.93924,-4.09602 2.29883,-6.66554 3.80398,-6.66554 1.50514,0 2.86474,2.57121 3.80239,6.66554 0.50118,-7.98881 1.84785,-13.71588 3.43383,-13.71588 1.13002,0 2.13886,2.91184 2.80817,7.47942 0.67894,-6.2757 2.11778,-10.59763 3.77812,-10.59763 1.3936,0 2.63518,3.05761 3.39665,7.75784 z m -42.64759,7.54113 c 0,-3.28201 0.65637,-5.94331 1.46633,-5.94331 0.80995,0 1.46632,2.6613 1.46632,5.94331 0,3.2819 -0.65637,5.94322 -1.46632,5.94322 -0.80996,0 -1.46633,-2.66132 -1.46633,-5.94322 z m 47.91667,0 c 0,-3.28201 0.65628,-5.94331 1.46627,-5.94331 0.80999,0 1.46638,2.6613 1.46638,5.94331 0,3.2819 -0.65639,5.94322 -1.46638,5.94322 -0.80999,0 -1.46627,-2.66132 -1.46627,-5.94322 z"
           fill="#a238ff"
           id="path3354"
           style="fill:#1f1c24;fill-opacity:1;stroke-width:1.05936" />
        <path
           style="color:#bebebe;display:inline;overflow:visible;visibility:visible;fill:#a63afa;fill-opacity:1;fill-rule:nonzero;stroke:none;stroke-width:2;marker:none;enable-background:accumulate"
           d="m 302.5,142.5 c -6.65502,0 -12,5.34498 -12,12 v 35 c 0,6.65502 5.34498,12 12,12 h 35 c 6.65502,0 12,-5.34498 12,-12 v -35 c 0,-6.65502 -5.34498,-12 -12,-12 z"
           id="path4212"
           inkscape:connector-curvature="0" />
        <path
           style="color:#bebebe;display:inline;overflow:visible;visibility:visible;fill:url(#linearGradient1535);fill-opacity:1;fill-rule:nonzero;stroke:none;stroke-width:2;marker:none;enable-background:accumulate"
           d="m 290.5,189.5 c 0,6.65502 5.34498,12 12,12 h 35 c 6.65502,0 12,-5.34498 12,-12 v -35 c 0,-6.65502 -5.34498,-12 -12,-12 h -35 c -6.65502,0 -12,5.34498 -12,12 z"
           id="path1519"
           inkscape:connector-curvature="0" />
        <path
           fill-rule="evenodd"
           clip-rule="evenodd"
           d="m 331.48195,160.22212 c 0.31365,-1.81786 0.77383,-2.96098 1.2836,-2.96317 h 10e-4 c 0.95061,0.004 1.72119,3.96763 1.72119,8.86223 0,4.89453 -0.77171,8.86219 -1.72338,8.86219 -0.39013,0 -0.7501,-0.67368 -1.04001,-1.80261 -0.45807,4.1325 -1.40868,6.97342 -2.50908,6.97342 -0.85145,0 -1.61561,-1.70649 -2.12862,-4.39783 -0.3503,5.11841 -1.2319,8.74976 -2.26231,8.74976 -0.64664,0 -1.23622,-1.43897 -1.67268,-3.78199 -0.5248,4.83669 -1.73728,8.22565 -3.15139,8.22565 -1.41405,0 -2.62865,-3.38791 -3.15141,-8.22565 -0.43328,2.34302 -1.02278,3.78199 -1.67274,3.78199 -1.03034,0 -1.90983,-3.63135 -2.26224,-8.74976 -0.51302,2.69134 -1.27499,4.39783 -2.12862,4.39783 -1.09934,0 -2.051,-2.83979 -2.50906,-6.97342 -0.28776,1.13225 -0.6499,1.80261 -1.04006,1.80261 -0.95168,0 -1.72337,-3.96766 -1.72337,-8.86219 0,-4.8946 0.77169,-8.86223 1.72337,-8.86223 0.51087,0 0.96785,1.1464 1.28472,2.96317 0.50763,-3.13458 1.33215,-5.17189 2.2644,-5.17189 1.1069,0 2.06612,2.88128 2.51988,7.06509 0.44401,-3.04506 1.11763,-4.98629 1.87211,-4.98629 1.05725,0 1.95616,3.81805 2.28922,9.14392 0.62616,-2.73068 1.53256,-4.44369 2.53599,-4.44369 1.00343,0 1.90983,1.71414 2.53492,4.44369 0.33412,-5.32587 1.2319,-9.14392 2.28922,-9.14392 0.75335,0 1.42591,1.94123 1.87212,4.98629 0.45263,-4.18381 1.41185,-7.06509 2.51875,-7.06509 0.92906,0 1.75678,2.0384 2.26443,5.17189 z m -28.43172,5.02742 c 0,-2.188 0.43758,-3.9622 0.97755,-3.9622 0.53996,0 0.97754,1.7742 0.97754,3.9622 0,2.18793 -0.43758,3.96215 -0.97754,3.96215 -0.53997,0 -0.97755,-1.77422 -0.97755,-3.96215 z m 31.94444,0 c 0,-2.188 0.43752,-3.9622 0.97752,-3.9622 0.53999,0 0.97758,1.7742 0.97758,3.9622 0,2.18793 -0.43759,3.96215 -0.97758,3.96215 -0.54,0 -0.97752,-1.77422 -0.97752,-3.96215 z"
           fill="#a238ff"
           id="path3532"
           style="fill:#1f1c24;fill-opacity:1;stroke-width:0.706241" />
        <path
           style="color:#bebebe;display:inline;overflow:visible;visibility:visible;fill:#a63afa;fill-opacity:1;fill-rule:nonzero;stroke:none;stroke-width:2;marker:none;enable-background:accumulate"
           d="m 300,223.5 c -4.71531,0 -8.5,3.78469 -8.5,8.5 v 24 c 0,4.71531 3.78469,8.5 8.5,8.5 h 24 c 4.71531,0 8.5,-3.78469 8.5,-8.5 v -24 c 0,-4.71531 -3.78469,-8.5 -8.5,-8.5 z"
           id="path4208"
           inkscape:connector-curvature="0" />
        <path
           style="color:#bebebe;display:inline;overflow:visible;visibility:visible;fill:url(#linearGradient1537);fill-opacity:1;fill-rule:nonzero;stroke:none;stroke-width:2;marker:none;enable-background:accumulate"
           d="m 291.5,256 c 0,4.71531 3.78469,8.5 8.5,8.5 h 24 c 4.71531,0 8.5,-3.78469 8.5,-8.5 v -24 c 0,-4.71531 -3.78469,-8.5 -8.5,-8.5 h -24 c -4.71531,0 -8.5,3.78469 -8.5,8.5 z"
           id="path1517"
           inkscape:connector-curvature="0" />
        <path
           fill-rule="evenodd"
           clip-rule="evenodd"
           d="m 320.11655,235.67426 c 0.22172,-1.28504 0.54702,-2.09311 0.90738,-2.09465 h 7.5e-4 c 0.67198,0.002 1.21669,2.8047 1.21669,6.26468 0,3.45992 -0.54552,6.26464 -1.21825,6.26464 -0.27578,0 -0.53024,-0.47622 -0.73518,-1.27425 -0.32381,2.92124 -0.99579,4.92948 -1.77365,4.92948 -0.6019,0 -1.14207,-1.20631 -1.50473,-3.10881 -0.24761,3.61819 -0.87081,6.18517 -1.59921,6.18517 -0.4571,0 -0.87387,-1.0172 -1.1824,-2.67347 -0.37098,3.41904 -1.22808,5.81469 -2.22771,5.81469 -0.99959,0 -1.85818,-2.39491 -2.22772,-5.81469 -0.30629,1.65627 -0.723,2.67347 -1.18246,2.67347 -0.72834,0 -1.35005,-2.56698 -1.59917,-6.18517 -0.36265,1.9025 -0.90128,3.10881 -1.50471,3.10881 -0.77712,0 -1.44985,-2.00744 -1.77364,-4.92948 -0.20343,0.80038 -0.45942,1.27425 -0.73522,1.27425 -0.67274,0 -1.21824,-2.80472 -1.21824,-6.26464 0,-3.45998 0.5455,-6.26468 1.21824,-6.26468 0.36113,0 0.68417,0.81038 0.90816,2.09465 0.35885,-2.21583 0.9417,-3.656 1.6007,-3.656 0.78246,0 1.46053,2.03677 1.78129,4.99429 0.31388,-2.15254 0.79005,-3.52479 1.32339,-3.52479 0.74737,0 1.3828,2.69897 1.61825,6.46381 0.44262,-1.93031 1.08335,-3.14123 1.79267,-3.14123 0.70933,0 1.35006,1.21172 1.79193,3.14123 0.23619,-3.76484 0.87083,-6.46381 1.61825,-6.46381 0.53254,0 1.00797,1.37225 1.32339,3.52479 0.31996,-2.95752 0.99803,-4.99429 1.78049,-4.99429 0.65676,0 1.24187,1.44095 1.60071,3.656 z m -20.09829,3.55386 c 0,-1.54669 0.30932,-2.80087 0.69102,-2.80087 0.38171,0 0.69103,1.25418 0.69103,2.80087 0,1.54665 -0.30932,2.80083 -0.69103,2.80083 -0.3817,0 -0.69102,-1.25418 -0.69102,-2.80083 z m 22.58142,0 c 0,-1.54669 0.30928,-2.80087 0.691,-2.80087 0.38172,0 0.69106,1.25418 0.69106,2.80087 0,1.54665 -0.30934,2.80083 -0.69106,2.80083 -0.38171,0 -0.691,-1.25418 -0.691,-2.80083 z"
           fill="#a238ff"
           id="path3720"
           style="fill:#1f1c24;fill-opacity:1;stroke-width:0.49924" />
        <path
           style="color:#bebebe;display:inline;overflow:visible;visibility:visible;fill:#a63afa;fill-opacity:1;fill-rule:nonzero;stroke:none;stroke-width:2;marker:none;enable-background:accumulate"
           d="m 424,53.5 c -3.60654,0 -6.5,2.893464 -6.5,6.5 v 16 c 0,3.606536 2.89346,6.5 6.5,6.5 h 16 c 3.60654,0 6.5,-2.893464 6.5,-6.5 V 60 c 0,-3.606536 -2.89346,-6.5 -6.5,-6.5 z"
           id="path4206"
           inkscape:connector-curvature="0" />
        <path
           style="color:#bebebe;display:inline;overflow:visible;visibility:visible;fill:url(#linearGradient1531);fill-opacity:1;fill-rule:nonzero;stroke:none;stroke-width:2;marker:none;enable-background:accumulate"
           d="m 417.5,76 c 0,3.60654 2.89346,6.5 6.5,6.5 h 16 c 3.60654,0 6.5,-2.89346 6.5,-6.5 V 60 c 0,-3.60654 -2.89346,-6.5 -6.5,-6.5 h -16 c -3.60654,0 -6.5,2.89346 -6.5,6.5 z"
           id="path1523"
           inkscape:connector-curvature="0" />
        <path
           fill-rule="evenodd"
           clip-rule="evenodd"
           d="m 437.74098,62.11106 c 0.15682,-0.908929 0.38692,-1.480488 0.6418,-1.481584 h 5.3e-4 c 0.47529,0.0018 0.86059,1.983816 0.86059,4.431116 0,2.447263 -0.38585,4.431094 -0.86169,4.431094 -0.19506,0 -0.37505,-0.336841 -0.52,-0.901304 -0.22904,2.066247 -0.70434,3.486708 -1.25454,3.486708 -0.42573,0 -0.8078,-0.853244 -1.06431,-2.198915 -0.17515,2.559205 -0.61595,4.374878 -1.13116,4.374878 -0.32332,0 -0.6181,-0.719482 -0.83633,-1.890995 -0.2624,2.418344 -0.86865,4.112828 -1.5757,4.112828 -0.70702,0 -1.31432,-1.693954 -1.57571,-4.112828 -0.21664,1.171513 -0.51139,1.890995 -0.83637,1.890995 -0.51517,0 -0.95491,-1.815673 -1.13112,-4.374878 -0.2565,1.345671 -0.63749,2.198915 -1.06431,2.198915 -0.54967,0 -1.0255,-1.419896 -1.25452,-3.486708 -0.14389,0.566122 -0.32495,0.901304 -0.52003,0.901304 -0.47584,0 -0.86169,-1.983831 -0.86169,-4.431094 0,-2.4473 0.38585,-4.431116 0.86169,-4.431116 0.25543,0 0.48392,0.573199 0.64235,1.481584 0.25382,-1.56729 0.66608,-2.585946 1.1322,-2.585946 0.55345,0 1.03306,1.440642 1.25994,3.532544 0.22201,-1.522526 0.55882,-2.493142 0.93606,-2.493142 0.52862,0 0.97808,1.909024 1.14461,4.57196 0.31308,-1.36534 0.76628,-2.221846 1.26799,-2.221846 0.50172,0 0.95492,0.857072 1.26747,2.221846 0.16706,-2.662936 0.61595,-4.57196 1.14461,-4.57196 0.37667,0 0.71295,0.970616 0.93605,2.493142 0.22632,-2.091902 0.70593,-3.532544 1.25938,-3.532544 0.46453,0 0.87839,1.019203 1.13221,2.585946 z m -14.21586,2.513711 c 0,-1.094002 0.21879,-1.981103 0.48877,-1.981103 0.26999,0 0.48878,0.887101 0.48878,1.981103 0,1.093966 -0.21879,1.981074 -0.48878,1.981074 -0.26998,0 -0.48877,-0.887108 -0.48877,-1.981074 z m 15.97222,0 c 0,-1.094002 0.21875,-1.981103 0.48875,-1.981103 0.26999,0 0.48879,0.887101 0.48879,1.981103 0,1.093966 -0.2188,1.981074 -0.48879,1.981074 -0.27,0 -0.48875,-0.887108 -0.48875,-1.981074 z"
           fill="#a238ff"
           id="path3900"
           style="fill:#1f1c24;fill-opacity:1;stroke-width:0.353121" />
        <path
           style="color:#bebebe;display:inline;overflow:visible;visibility:visible;fill:#a63afa;fill-opacity:1;fill-rule:nonzero;stroke:none;stroke-width:2;marker:none;enable-background:accumulate"
           d="m 419,140.5 c -1.3844,0 -2.5,1.1156 -2.5,2.5 v 10 c 0,1.3844 1.1156,2.5 2.5,2.5 h 10 c 1.3844,0 2.5,-1.1156 2.5,-2.5 v -10 c 0,-1.3844 -1.1156,-2.5 -2.5,-2.5 z"
           id="path4202"
           inkscape:connector-curvature="0" />
        <path
           style="color:#bebebe;display:inline;overflow:visible;visibility:visible;fill:url(#linearGradient1541);fill-opacity:1;fill-rule:nonzero;stroke:none;stroke-width:2;marker:none;enable-background:accumulate"
           d="m 416.5,153 c 0,1.3844 1.1156,2.5 2.5,2.5 h 10 c 1.3844,0 2.5,-1.1156 2.5,-2.5 v -10 c 0,-1.3844 -1.1156,-2.5 -2.5,-2.5 h -10 c -1.3844,0 -2.5,1.1156 -2.5,2.5 z"
           id="path1513"
           inkscape:connector-curvature="0" />
        <path
           fill-rule="evenodd"
           clip-rule="evenodd"
           d="m 426.96946,144.954 c 0.0811,-0.47014 0.20013,-0.76578 0.33197,-0.76634 h 3.4e-4 c 0.24585,8.6e-4 0.44514,1.02611 0.44514,2.29195 0,1.26583 -0.19958,2.29195 -0.4457,2.29195 -0.1009,0 -0.19399,-0.17423 -0.26897,-0.46619 -0.11847,1.06875 -0.36431,1.80347 -0.6489,1.80347 -0.2202,0 -0.41783,-0.44133 -0.55051,-1.13737 -0.0906,1.32373 -0.31859,2.26287 -0.58508,2.26287 -0.16723,0 -0.31971,-0.37215 -0.43258,-0.9781 -0.13573,1.25086 -0.4493,2.12732 -0.81502,2.12732 -0.3657,0 -0.67982,-0.87618 -0.81502,-2.12732 -0.11206,0.60595 -0.26451,0.9781 -0.43261,0.9781 -0.26646,0 -0.49392,-0.93914 -0.58506,-2.26287 -0.13267,0.69604 -0.32974,1.13737 -0.5505,1.13737 -0.28431,0 -0.53043,-0.73443 -0.6489,-1.80347 -0.0744,0.29282 -0.16807,0.46619 -0.26898,0.46619 -0.24612,0 -0.4457,-1.02612 -0.4457,-2.29195 0,-1.26584 0.19958,-2.29195 0.4457,-2.29195 0.13212,0 0.25031,0.29648 0.33226,0.76634 0.13128,-0.81067 0.34452,-1.33756 0.58562,-1.33756 0.28626,0 0.53434,0.74516 0.65169,1.82717 0.11483,-0.78751 0.28904,-1.28955 0.48417,-1.28955 0.27342,0 0.5059,0.98743 0.59204,2.36481 0.16194,-0.70621 0.39635,-1.14923 0.65586,-1.14923 0.2595,0 0.49392,0.44331 0.65558,1.14923 0.0864,-1.37738 0.3186,-2.36481 0.59204,-2.36481 0.19483,0 0.36877,0.50204 0.48417,1.28955 0.11706,-1.08201 0.36513,-1.82717 0.6514,-1.82717 0.24027,0 0.45434,0.52717 0.58563,1.33756 z m -7.35303,1.30019 c 0,-0.56586 0.11317,-1.02471 0.25282,-1.02471 0.13964,0 0.25281,0.45885 0.25281,1.02471 0,0.56585 -0.11317,1.02469 -0.25281,1.02469 -0.13965,0 -0.25282,-0.45884 -0.25282,-1.02469 z m 8.2615,0 c 0,-0.56586 0.11315,-1.02471 0.2528,-1.02471 0.13965,0 0.25283,0.45885 0.25283,1.02471 0,0.56585 -0.11318,1.02469 -0.25283,1.02469 -0.13965,0 -0.2528,-0.45884 -0.2528,-1.02469 z"
           fill="#a238ff"
           id="path4078"
           style="fill:#1f1c24;fill-opacity:1;stroke-width:0.182648" />
        <path
           style="color:#bebebe;display:inline;overflow:visible;visibility:visible;fill:#a63afa;fill-opacity:1;fill-rule:nonzero;stroke:none;stroke-width:2;marker:none;enable-background:accumulate"
           d="m 422,101.5 c -2.49699,0 -4.5,2.00301 -4.5,4.5 v 12 c 0,2.49699 2.00301,4.5 4.5,4.5 h 12 c 2.49699,0 4.5,-2.00301 4.5,-4.5 v -12 c 0,-2.49699 -2.00301,-4.5 -4.5,-4.5 z"
           id="path4204"
           inkscape:connector-curvature="0" />
        <path
           style="color:#bebebe;display:inline;overflow:visible;visibility:visible;fill:url(#linearGradient1539);fill-opacity:1;fill-rule:nonzero;stroke:none;stroke-width:2;marker:none;enable-background:accumulate"
           d="m 417.5,118 c 0,2.49699 2.00301,4.5 4.5,4.5 h 12 c 2.49699,0 4.5,-2.00301 4.5,-4.5 v -12 c 0,-2.49699 -2.00301,-4.5 -4.5,-4.5 h -12 c -2.49699,0 -4.5,2.00301 -4.5,4.5 z"
           id="path1515"
           inkscape:connector-curvature="0" />
        <path
           fill-rule="evenodd"
           clip-rule="evenodd"
           d="m 432.15726,107.7356 c 0.11356,-0.65819 0.28018,-1.07208 0.46475,-1.07287 h 4.8e-4 c 0.34419,0.001 0.62319,1.43655 0.62319,3.20873 0,1.77216 -0.27941,3.20873 -0.62398,3.20873 -0.14126,0 -0.27159,-0.24392 -0.37656,-0.65267 -0.16585,1.49624 -0.51004,2.52486 -0.90846,2.52486 -0.30828,0 -0.58496,-0.61787 -0.77071,-1.59232 -0.12683,1.85322 -0.44603,3.16801 -0.81911,3.16801 -0.23413,0 -0.44759,-0.521 -0.60562,-1.36934 -0.19001,1.75122 -0.62902,2.97826 -1.14102,2.97826 -0.51198,0 -0.95175,-1.22666 -1.14103,-2.97826 -0.15688,0.84834 -0.37032,1.36934 -0.60565,1.36934 -0.37305,0 -0.69149,-1.31479 -0.81909,-3.16801 -0.18574,0.97445 -0.46163,1.59232 -0.7707,1.59232 -0.39804,0 -0.74261,-1.0282 -0.90845,-2.52486 -0.1042,0.40995 -0.23531,0.65267 -0.37658,0.65267 -0.34457,0 -0.62398,-1.43657 -0.62398,-3.20873 0,-1.77218 0.27941,-3.20873 0.62398,-3.20873 0.18497,0 0.35043,0.41507 0.46516,1.07287 0.1838,-1.13494 0.48233,-1.87259 0.81987,-1.87259 0.40077,0 0.74808,1.04323 0.91237,2.55805 0.16076,-1.10252 0.40466,-1.80537 0.67783,-1.80537 0.3828,0 0.70826,1.38239 0.82886,3.31072 0.22671,-0.98869 0.55489,-1.60892 0.9182,-1.60892 0.36331,0 0.69149,0.62064 0.91782,1.60892 0.12097,-1.92833 0.44603,-3.31072 0.82885,-3.31072 0.27277,0 0.51628,0.70285 0.67784,1.80537 0.16388,-1.51482 0.51119,-2.55805 0.91196,-2.55805 0.33638,0 0.63608,0.73805 0.81988,1.87259 z m -10.29425,1.82027 c 0,-0.79221 0.15844,-1.43459 0.35394,-1.43459 0.19551,0 0.35394,0.64238 0.35394,1.43459 0,0.79218 -0.15843,1.43457 -0.35394,1.43457 -0.1955,0 -0.35394,-0.64239 -0.35394,-1.43457 z m 11.56609,0 c 0,-0.79221 0.15842,-1.43459 0.35393,-1.43459 0.19552,0 0.35396,0.64238 0.35396,1.43459 0,0.79218 -0.15844,1.43457 -0.35396,1.43457 -0.19551,0 -0.35393,-0.64239 -0.35393,-1.43457 z"
           fill="#a238ff"
           id="path4088"
           style="fill:#1f1c24;fill-opacity:1;stroke-width:0.255708" />
      </g>
    </g>
    <g
       inkscape:groupmode="layer"
       id="layer5"
       inkscape:label="Highlights"
       style="display:inline"
       sodipodi:insensitive="true">
      <path
         style="color:#bebebe;display:inline;overflow:visible;visibility:visible;opacity:0.13;fill:#ffffff;fill-opacity:1;fill-rule:nonzero;stroke:none;stroke-width:0;marker:none;enable-background:accumulate"
         d="M 84,47 C 56.836703,47 35,68.836703 35,96 v 1 C 35,69.836703 56.836703,48 84,48 h 120 c 27.1633,0 49,21.836703 49,49 V 96 C 253,68.836703 231.1633,47 204,47 Z"
         id="rect3894"
         inkscape:connector-curvature="0" />
      <path
         style="color:#bebebe;display:inline;overflow:visible;visibility:visible;opacity:0.13;fill:#ffffff;fill-opacity:1;fill-rule:nonzero;stroke:none;stroke-width:0;marker:none;enable-background:accumulate"
         d="m 419,141 c -1.1253,0 -2,0.8747 -2,2 v 1 c 0,-1.1253 0.8747,-2 2,-2 h 10 c 1.1253,0 2,0.8747 2,2 v -1 c 0,-1.1253 -0.8747,-2 -2,-2 z"
         id="rect3896"
         inkscape:connector-curvature="0" />
      <path
         style="color:#bebebe;display:inline;overflow:visible;visibility:visible;opacity:0.13;fill:#ffffff;fill-opacity:1;fill-rule:nonzero;stroke:none;stroke-width:0;marker:none;enable-background:accumulate"
         d="m 422,102 c -2.2333,0 -4,1.7667 -4,4 v 1 c 0,-2.2333 1.7667,-4 4,-4 h 12 c 2.2333,0 4,1.7667 4,4 v -1 c 0,-2.2333 -1.7667,-4 -4,-4 z"
         id="rect3898"
         inkscape:connector-curvature="0" />
      <path
         style="color:#bebebe;display:inline;overflow:visible;visibility:visible;opacity:0.13;fill:#ffffff;fill-opacity:1;fill-rule:nonzero;stroke:none;stroke-width:0;marker:none;enable-background:accumulate"
         d="m 424,54 c -3.3413,0 -6,2.658703 -6,6 v 1 c 0,-3.341297 2.6587,-6 6,-6 h 16 c 3.3413,0 6,2.658703 6,6 v -1 c 0,-3.341297 -2.6587,-6 -6,-6 z"
         id="rect3900"
         inkscape:connector-curvature="0" />
      <path
         style="color:#bebebe;display:inline;overflow:visible;visibility:visible;opacity:0.13;fill:#ffffff;fill-opacity:1;fill-rule:nonzero;stroke:none;stroke-width:0;marker:none;enable-background:accumulate"
         d="m 300,224 c -4.4493,0 -8,3.5507 -8,8 v 1 c 0,-4.4493 3.5507,-8 8,-8 h 24 c 4.4493,0 8,3.5507 8,8 v -1 c 0,-4.4493 -3.5507,-8 -8,-8 z"
         id="rect3902"
         inkscape:connector-curvature="0" />
      <path
         style="color:#bebebe;display:inline;overflow:visible;visibility:visible;opacity:0.13;fill:#ffffff;fill-opacity:1;fill-rule:nonzero;stroke:none;stroke-width:0;marker:none;enable-background:accumulate"
         d="m 310,33 c -9.4353,0 -17,7.564703 -17,17 v 1 c 0,-9.435297 7.5647,-17 17,-17 h 52 c 9.4353,0 17,7.564703 17,17 v -1 c 0,-9.435297 -7.5647,-17 -17,-17 z"
         id="rect3904"
         inkscape:connector-curvature="0" />
      <path
         style="color:#bebebe;display:inline;overflow:visible;visibility:visible;opacity:0.13;fill:#ffffff;fill-opacity:1;fill-rule:nonzero;stroke:none;stroke-width:0;marker:none;enable-background:accumulate"
         d="m 302.5,143 c -6.3883,0 -11.5,5.1117 -11.5,11.5 v 1 c 0,-6.3883 5.1117,-11.5 11.5,-11.5 h 35 c 6.3883,0 11.5,5.1117 11.5,11.5 v -1 c 0,-6.3883 -5.1117,-11.5 -11.5,-11.5 z"
         id="rect3906"
         inkscape:connector-curvature="0" />
      <path
         id="path4085"
         d="m 204,266 c 27.1633,0 49,-21.8367 49,-49 v -1 c 0,27.1633 -21.8367,49 -49,49 H 84 C 56.8367,265 35,243.1633 35,216 v 1 c 0,27.1633 21.8367,49 49,49 z"
         style="color:#bebebe;display:inline;overflow:visible;visibility:visible;opacity:0.5;fill:#000000;fill-opacity:1;fill-rule:nonzero;stroke:none;stroke-width:0;marker:none;enable-background:accumulate"
         inkscape:connector-curvature="0" />
      <path
         id="path4087"
         d="m 429,156 c 1.1253,0 2,-0.8747 2,-2 v -1 c 0,1.1253 -0.8747,2 -2,2 h -10 c -1.1253,0 -2,-0.8747 -2,-2 v 1 c 0,1.1253 0.8747,2 2,2 z"
         style="color:#bebebe;display:inline;overflow:visible;visibility:visible;opacity:0.3;fill:#000000;fill-opacity:1;fill-rule:nonzero;stroke:none;stroke-width:0;marker:none;enable-background:accumulate"
         inkscape:connector-curvature="0" />
      <path
         id="path4089"
         d="m 434,123 c 2.2333,0 4,-1.7667 4,-4 v -1 c 0,2.2333 -1.7667,4 -4,4 h -12 c -2.2333,0 -4,-1.7667 -4,-4 v 1 c 0,2.2333 1.7667,4 4,4 z"
         style="color:#bebebe;display:inline;overflow:visible;visibility:visible;opacity:0.3;fill:#000000;fill-opacity:1;fill-rule:nonzero;stroke:none;stroke-width:0;marker:none;enable-background:accumulate"
         inkscape:connector-curvature="0" />
      <path
         id="path4091"
         d="m 440,83 c 3.3413,0 6,-2.6587 6,-6 v -1 c 0,3.3413 -2.6587,6 -6,6 h -16 c -3.3413,0 -6,-2.6587 -6,-6 v 1 c 0,3.3413 2.6587,6 6,6 z"
         style="color:#bebebe;display:inline;overflow:visible;visibility:visible;opacity:0.5;fill:#000000;fill-opacity:1;fill-rule:nonzero;stroke:none;stroke-width:0;marker:none;enable-background:accumulate"
         inkscape:connector-curvature="0" />
      <path
         id="path4093"
         d="m 324,265 c 4.4493,0 8,-3.5507 8,-8 v -1 c 0,4.4493 -3.5507,8 -8,8 h -24 c -4.4493,0 -8,-3.5507 -8,-8 v 1 c 0,4.4493 3.5507,8 8,8 z"
         style="color:#bebebe;display:inline;overflow:visible;visibility:visible;opacity:0.5;fill:#000000;fill-opacity:1;fill-rule:nonzero;stroke:none;stroke-width:0;marker:none;enable-background:accumulate"
         inkscape:connector-curvature="0" />
      <path
         id="path4095"
         d="m 362,120 c 9.4353,0 17,-7.5647 17,-17 v -1 c 0,9.4353 -7.5647,17 -17,17 h -52 c -9.4353,0 -17,-7.5647 -17,-17 v 1 c 0,9.4353 7.5647,17 17,17 z"
         style="color:#bebebe;display:inline;overflow:visible;visibility:visible;opacity:0.5;fill:#000000;fill-opacity:1;fill-rule:nonzero;stroke:none;stroke-width:0;marker:none;enable-background:accumulate"
         inkscape:connector-curvature="0" />
      <path
         id="path4097"
         d="m 337.5,202 c 6.3883,0 11.5,-5.1117 11.5,-11.5 v -1 c 0,6.3883 -5.1117,11.5 -11.5,11.5 h -35 c -6.3883,0 -11.5,-5.1117 -11.5,-11.5 v 1 c 0,6.3883 5.1117,11.5 11.5,11.5 z"
         style="color:#bebebe;display:inline;overflow:visible;visibility:visible;opacity:0.5;fill:#000000;fill-opacity:1;fill-rule:nonzero;stroke:none;stroke-width:0;marker:none;enable-background:accumulate"
         inkscape:connector-curvature="0" />
      <path
         inkscape:connector-curvature="0"
         id="path4280"
         d="M 84,265 C 56.836703,265 35,243.1633 35,216 v -1 c 0,27.1633 21.836703,49 49,49 h 120 c 27.1633,0 49,-21.8367 49,-49 v 1 c 0,27.1633 -21.8367,49 -49,49 z"
         style="color:#bebebe;display:inline;overflow:visible;visibility:visible;opacity:0.1;fill:#ffffff;fill-opacity:1;fill-rule:nonzero;stroke:none;stroke-width:0;marker:none;enable-background:accumulate" />
      <path
         style="color:#bebebe;display:inline;overflow:visible;visibility:visible;opacity:0.1;fill:#ffffff;fill-opacity:1;fill-rule:nonzero;stroke:none;stroke-width:0;marker:none;enable-background:accumulate"
         d="m 300,264 c -4.4493,0 -8,-3.5507 -8,-8 v -1 c 0,4.4493 3.5507,8 8,8 h 24 c 4.4493,0 8,-3.5507 8,-8 v 1 c 0,4.4493 -3.5507,8 -8,8 z"
         id="path4294"
         inkscape:connector-curvature="0" />
      <path
         style="color:#bebebe;display:inline;overflow:visible;visibility:visible;opacity:0.1;fill:#ffffff;fill-opacity:1;fill-rule:nonzero;stroke:none;stroke-width:0;marker:none;enable-background:accumulate"
         d="m 302.5,201 c -6.3883,0 -11.5,-5.1117 -11.5,-11.5 v -1 c 0,6.3883 5.1117,11.5 11.5,11.5 h 35 c 6.3883,0 11.5,-5.1117 11.5,-11.5 v 1 c 0,6.3883 -5.1117,11.5 -11.5,11.5 z"
         id="path4296"
         inkscape:connector-curvature="0" />
      <path
         style="color:#bebebe;display:inline;overflow:visible;visibility:visible;opacity:0.1;fill:#ffffff;fill-opacity:1;fill-rule:nonzero;stroke:none;stroke-width:0;marker:none;enable-background:accumulate"
         d="m 310,119 c -9.4353,0 -17,-7.5647 -17,-17 v -1 c 0,9.4353 7.5647,17 17,17 h 52 c 9.4353,0 17,-7.5647 17,-17 v 1 c 0,9.4353 -7.5647,17 -17,17 z"
         id="path4298"
         inkscape:connector-curvature="0" />
      <path
         style="color:#bebebe;display:inline;overflow:visible;visibility:visible;opacity:0.1;fill:#ffffff;fill-opacity:1;fill-rule:nonzero;stroke:none;stroke-width:0;marker:none;enable-background:accumulate"
         d="m 424,82 c -3.3413,0 -6,-2.658703 -6,-6 v -1 c 0,3.341297 2.6587,6 6,6 h 16 c 3.3413,0 6,-2.658703 6,-6 v 1 c 0,3.341297 -2.6587,6 -6,6 z"
         id="path4300"
         inkscape:connector-curvature="0" />
      <path
         style="color:#bebebe;display:inline;overflow:visible;visibility:visible;opacity:0.1;fill:#ffffff;fill-opacity:1;fill-rule:nonzero;stroke:none;stroke-width:0;marker:none;enable-background:accumulate"
         d="m 422,122 c -2.2333,0 -4,-1.7667 -4,-4 v -1 c 0,2.2333 1.7667,4 4,4 h 12 c 2.2333,0 4,-1.7667 4,-4 v 1 c 0,2.2333 -1.7667,4 -4,4 z"
         id="path4302"
         inkscape:connector-curvature="0" />
      <path
         style="color:#bebebe;display:inline;overflow:visible;visibility:visible;opacity:0.1;fill:#ffffff;fill-opacity:1;fill-rule:nonzero;stroke:none;stroke-width:0;marker:none;enable-background:accumulate"
         d="m 419,154.5 c -1.1253,0 -2,-0.8747 -2,-2 v -1 c 0,1.1253 0.8747,2 2,2 h 10 c 1.1253,0 2,-0.8747 2,-2 v 1 c 0,1.1253 -0.8747,2 -2,2 z"
         id="path4304"
         inkscape:connector-curvature="0" />
    </g>
    <g
       inkscape:groupmode="layer"
       id="layer3"
       inkscape:label="Border"
       style="display:inline"
       sodipodi:insensitive="true">
      <path
         style="color:#bebebe;display:inline;overflow:visible;visibility:visible;opacity:0.41;fill:#000000;fill-opacity:1;fill-rule:nonzero;stroke:none;stroke-width:0;marker:none;enable-background:accumulate"
         d="m 422,101 c -2.77,0 -5,2.23 -5,5 v 12 c 0,2.77 2.23,5 5,5 h 12 c 2.77,0 5,-2.23 5,-5 v -12 c 0,-2.77 -2.23,-5 -5,-5 z m 0,1 h 12 c 2.2333,0 4,1.7667 4,4 v 12 c 0,2.2333 -1.7667,4 -4,4 h -12 c -2.2333,0 -4,-1.7667 -4,-4 v -12 c 0,-2.2333 1.7667,-4 4,-4 z"
         id="rect4099"
         inkscape:connector-curvature="0" />
      <path
         style="color:#bebebe;display:inline;overflow:visible;visibility:visible;opacity:0.41;fill:#000000;fill-opacity:1;fill-rule:nonzero;stroke:none;stroke-width:0;marker:none;enable-background:accumulate"
         d="m 424,53 c -3.878,0 -7,3.122 -7,7 v 16 c 0,3.878 3.122,7 7,7 h 16 c 3.878,0 7,-3.122 7,-7 V 60 c 0,-3.878 -3.122,-7 -7,-7 z m 0,1 h 16 c 3.3413,0 6,2.658703 6,6 v 16 c 0,3.341297 -2.6587,6 -6,6 h -16 c -3.3413,0 -6,-2.658703 -6,-6 V 60 c 0,-3.341297 2.6587,-6 6,-6 z"
         id="rect4151"
         inkscape:connector-curvature="0" />
      <path
         style="color:#bebebe;display:inline;overflow:visible;visibility:visible;opacity:0.41;fill:#000000;fill-opacity:1;fill-rule:nonzero;stroke:none;stroke-width:0;marker:none;enable-background:accumulate"
         d="m 419,140 c -1.662,0 -3,1.338 -3,3 v 10 c 0,1.662 1.338,3 3,3 h 10 c 1.662,0 3,-1.338 3,-3 v -10 c 0,-1.662 -1.338,-3 -3,-3 z m 0,1 h 10 c 1.1253,0 2,0.8747 2,2 v 10 c 0,1.1253 -0.8747,2 -2,2 h -10 c -1.1253,0 -2,-0.8747 -2,-2 v -10 c 0,-1.1253 0.8747,-2 2,-2 z"
         id="rect4095"
         inkscape:connector-curvature="0" />
      <path
         style="color:#bebebe;display:inline;overflow:visible;visibility:visible;opacity:0.41;fill:#000000;fill-opacity:1;fill-rule:nonzero;stroke:none;stroke-width:0;marker:none;enable-background:accumulate"
         d="m 300,223 c -4.986,0 -9,4.014 -9,9 v 24 c 0,4.986 4.014,9 9,9 h 24 c 4.986,0 9,-4.014 9,-9 v -24 c 0,-4.986 -4.014,-9 -9,-9 z m 0,1 h 24 c 4.4493,0 8,3.5507 8,8 v 24 c 0,4.4493 -3.5507,8 -8,8 h -24 c -4.4493,0 -8,-3.5507 -8,-8 v -24 c 0,-4.4493 3.5507,-8 8,-8 z"
         id="rect4783"
         inkscape:connector-curvature="0" />
      <path
         style="color:#bebebe;display:inline;overflow:visible;visibility:visible;opacity:0.41;fill:#000000;fill-opacity:1;fill-rule:nonzero;stroke:none;stroke-width:0;marker:none;enable-background:accumulate"
         d="m 302.5,142 c -6.925,0 -12.5,5.575 -12.5,12.5 v 35 c 0,6.925 5.575,12.5 12.5,12.5 h 35 c 6.925,0 12.5,-5.575 12.5,-12.5 v -35 c 0,-6.925 -5.575,-12.5 -12.5,-12.5 z m 0,1 h 35 c 6.3883,0 11.5,5.1117 11.5,11.5 v 35 c 0,6.3883 -5.1117,11.5 -11.5,11.5 h -35 c -6.3883,0 -11.5,-5.1117 -11.5,-11.5 v -35 c 0,-6.3883 5.1117,-11.5 11.5,-11.5 z"
         id="rect4515"
         inkscape:connector-curvature="0" />
      <path
         style="color:#bebebe;display:inline;overflow:visible;visibility:visible;opacity:0.41;fill:#000000;fill-opacity:1;fill-rule:nonzero;stroke:none;stroke-width:0;marker:none;enable-background:accumulate"
         d="m 310,32 c -9.972,0 -18,8.028 -18,18 v 52 c 0,9.972 8.028,18 18,18 h 52 c 9.972,0 18,-8.028 18,-18 V 50 c 0,-9.972 -8.028,-18 -18,-18 z m 0,1 h 52 c 9.4353,0 17,7.564703 17,17 v 52 c 0,9.4353 -7.5647,17 -17,17 h -52 c -9.4353,0 -17,-7.5647 -17,-17 V 50 c 0,-9.435297 7.5647,-17 17,-17 z"
         id="rect4511"
         inkscape:connector-curvature="0" />
      <path
         style="color:#bebebe;display:inline;overflow:visible;visibility:visible;opacity:0.41;fill:#000000;fill-opacity:1;fill-rule:nonzero;stroke:none;stroke-width:0;marker:none;enable-background:accumulate"
         d="M 84,46 C 56.3,46 34,68.3 34,96 v 120 c 0,27.7 22.3,50 50,50 h 120 c 27.7,0 50,-22.3 50,-50 V 96 C 254,68.3 231.7,46 204,46 Z m 0,1 h 120 c 27.1633,0 49,21.836703 49,49 v 120 c 0,27.1633 -21.8367,49 -49,49 H 84 C 56.836703,265 35,243.1633 35,216 V 96 C 35,68.836703 56.836703,47 84,47 Z"
         id="rect4040"
         inkscape:connector-curvature="0" />
    </g>
  </g>
</svg>
