<?xml version="1.0" encoding="UTF-8" standalone="no"?>
<svg
   xmlns:dc="http://purl.org/dc/elements/1.1/"
   xmlns:cc="http://creativecommons.org/ns#"
   xmlns:rdf="http://www.w3.org/1999/02/22-rdf-syntax-ns#"
   xmlns:svg="http://www.w3.org/2000/svg"
   xmlns="http://www.w3.org/2000/svg"
   xmlns:xlink="http://www.w3.org/1999/xlink"
   xmlns:sodipodi="http://sodipodi.sourceforge.net/DTD/sodipodi-0.dtd"
   xmlns:inkscape="http://www.inkscape.org/namespaces/inkscape"
   inkscape:export-ydpi="90.000000"
   inkscape:export-xdpi="90.000000"
   width="480"
   height="300"
   id="svg11300"
   sodipodi:version="0.32"
   inkscape:version="1.0.2 (e86c870, 2021-01-15)"
   sodipodi:docname="web-reddit.svg"
   inkscape:output_extension="org.inkscape.output.svg.inkscape"
   version="1.0"
   style="display:inline;enable-background:new"
   inkscape:export-filename="/home/sam/moka-next-template.png">
  <sodipodi:namedview
     stroke="#ef2929"
     fill="#f57900"
     id="base"
     pagecolor="#777777"
     bordercolor="#666666"
     borderopacity="0.25490196"
     inkscape:pageopacity="0"
     inkscape:pageshadow="2"
     inkscape:zoom="1.4142136"
     inkscape:cx="162.53795"
     inkscape:cy="130.48017"
     inkscape:current-layer="layer6"
     showgrid="false"
     inkscape:grid-bbox="true"
     inkscape:document-units="px"
     inkscape:showpageshadow="false"
     inkscape:window-width="1366"
     inkscape:window-height="703"
     inkscape:window-x="0"
     inkscape:window-y="0"
     width="400px"
     height="300px"
     inkscape:snap-nodes="true"
     inkscape:snap-bbox="true"
     gridtolerance="10000"
     inkscape:object-nodes="true"
     inkscape:snap-grids="true"
     showguides="true"
     inkscape:guide-bbox="true"
     inkscape:window-maximized="1"
     inkscape:bbox-nodes="true"
     inkscape:bbox-paths="true"
     inkscape:snap-bbox-edge-midpoints="true"
     inkscape:snap-bbox-midpoints="true"
     inkscape:document-rotation="0">
    <inkscape:grid
       spacingy="1px"
       spacingx="1px"
       id="grid5883"
       type="xygrid"
       enabled="true"
       visible="true"
       empspacing="4"
       snapvisiblegridlinesonly="true"
       dotted="false"
       color="#000000"
       opacity="0.1254902"
       empcolor="#203ef3"
       empopacity="0.36470588" />
    <inkscape:grid
       type="xygrid"
       id="grid11592"
       empspacing="8"
       visible="true"
       enabled="false"
       spacingx="0.5px"
       spacingy="0.5px"
       color="#ff0000"
       opacity="0.1254902"
       empcolor="#ff0000"
       empopacity="0.25098039"
       snapvisiblegridlinesonly="true"
       dotted="true" />
  </sodipodi:namedview>
  <defs
     id="defs3">
    <linearGradient
       id="outerBackgroundGradient-8">
      <stop
         style="stop-color:#ff4500;stop-opacity:1;"
         offset="0"
         id="stop3864-8-6-0" />
      <stop
         style="stop-color:#ff5e24;stop-opacity:1;"
         offset="1"
         id="stop3866-9-1-6" />
    </linearGradient>
    <linearGradient
       inkscape:collect="always"
       xlink:href="#outerBackgroundGradient-8"
       id="linearGradient10837"
       gradientUnits="userSpaceOnUse"
       gradientTransform="matrix(0,-1,1,0,-12,300)"
       x1="35"
       y1="156"
       x2="253"
       y2="156" />
    <linearGradient
       inkscape:collect="always"
       xlink:href="#outerBackgroundGradient-8"
       id="linearGradient10839"
       gradientUnits="userSpaceOnUse"
       gradientTransform="matrix(0,-1,1,0,276,572)"
       x1="417"
       y1="148"
       x2="431"
       y2="148" />
    <linearGradient
       inkscape:collect="always"
       xlink:href="#outerBackgroundGradient-8"
       id="linearGradient10841"
       gradientUnits="userSpaceOnUse"
       gradientTransform="matrix(0,-1,1,0,316,540)"
       x1="418"
       y1="112"
       x2="438"
       y2="112" />
    <linearGradient
       inkscape:collect="always"
       xlink:href="#outerBackgroundGradient-8"
       id="linearGradient10843"
       gradientUnits="userSpaceOnUse"
       gradientTransform="matrix(0,-1,1,0,364,500)"
       x1="418"
       y1="68"
       x2="446"
       y2="68" />
    <linearGradient
       inkscape:collect="always"
       xlink:href="#outerBackgroundGradient-8"
       id="linearGradient10845"
       gradientUnits="userSpaceOnUse"
       gradientTransform="matrix(0,-1,1,0,68,556)"
       x1="292"
       y1="244"
       x2="332"
       y2="244" />
    <linearGradient
       inkscape:collect="always"
       xlink:href="#outerBackgroundGradient-8"
       id="linearGradient10847"
       gradientUnits="userSpaceOnUse"
       gradientTransform="matrix(0,-1,1,0,260,412)"
       x1="293"
       y1="76"
       x2="379"
       y2="76" />
    <linearGradient
       inkscape:collect="always"
       xlink:href="#outerBackgroundGradient-8"
       id="linearGradient10849"
       gradientUnits="userSpaceOnUse"
       gradientTransform="matrix(0,-1,1,0,148,492)"
       x1="291"
       y1="172"
       x2="349"
       y2="172" />
  </defs>
  <metadata
     id="metadata4">
    <rdf:RDF>
      <cc:Work
         rdf:about="">
        <dc:format>image/svg+xml</dc:format>
        <dc:type
           rdf:resource="http://purl.org/dc/dcmitype/StillImage" />
        <dc:creator>
          <cc:Agent>
            <dc:title>Sam Hewitt</dc:title>
          </cc:Agent>
        </dc:creator>
        <dc:source />
        <cc:license
           rdf:resource="" />
        <dc:title />
        <dc:subject>
          <rdf:Bag />
        </dc:subject>
        <dc:date />
        <dc:rights>
          <cc:Agent>
            <dc:title />
          </cc:Agent>
        </dc:rights>
        <dc:publisher>
          <cc:Agent>
            <dc:title />
          </cc:Agent>
        </dc:publisher>
        <dc:identifier />
        <dc:relation />
        <dc:language />
        <dc:coverage />
        <dc:description />
        <dc:contributor>
          <cc:Agent>
            <dc:title />
          </cc:Agent>
        </dc:contributor>
      </cc:Work>
      <cc:Work
         rdf:about="">
        <dc:format>image/svg+xml</dc:format>
        <dc:type
           rdf:resource="http://purl.org/dc/dcmitype/StillImage" />
      </cc:Work>
    </rdf:RDF>
  </metadata>
  <g
     style="display:inline"
     inkscape:groupmode="layer"
     inkscape:label="Icon"
     id="layer1">
    <g
       style="display:none"
       inkscape:label="Baseplate"
       id="layer7"
       inkscape:groupmode="layer">
      <text
         y="19.745117"
         xml:space="preserve"
         x="15.006836"
         style="font-style:normal;font-variant:normal;font-weight:normal;font-stretch:normal;line-height:0%;font-family:'DejaVu Sans';-inkscape-font-specification:'DejaVu Sans';display:inline;fill:#000000;fill-opacity:1;stroke:none;enable-background:new"
         inkscape:label="context"
         id="context"><tspan
           style="font-style:normal;font-variant:normal;font-weight:normal;font-stretch:normal;font-size:18px;line-height:1.25;font-family:'DejaVu Sans';-inkscape-font-specification:'DejaVu Sans'"
           y="19.745117"
           x="15.006836"
           sodipodi:role="line"
           id="tspan3933">apps</tspan></text>
      <text
         y="19.745117"
         xml:space="preserve"
         x="122.48828"
         style="font-style:normal;font-variant:normal;font-weight:bold;font-stretch:normal;line-height:0%;font-family:'DejaVu Sans';-inkscape-font-specification:'DejaVu Sans Bold';text-align:start;writing-mode:lr-tb;text-anchor:start;display:inline;fill:#000000;fill-opacity:1;stroke:none;enable-background:new"
         inkscape:label="icon-name"
         id="icon-name"><tspan
           style="font-style:normal;font-variant:normal;font-weight:bold;font-stretch:normal;font-size:18px;line-height:1.25;font-family:'DejaVu Sans';-inkscape-font-specification:'DejaVu Sans Bold';opacity:0.99"
           y="19.745117"
           x="122.48828"
           sodipodi:role="line"
           id="tspan3937">web-reddit</tspan></text>
      <rect
         style="display:inline;overflow:visible;visibility:visible;fill:#eeeeec;fill-opacity:1;fill-rule:nonzero;stroke:none;stroke-width:2;marker:none;enable-background:accumulate"
         id="rect16x16"
         width="16"
         height="16"
         x="416"
         y="140"
         inkscape:label="16x16" />
      <rect
         style="display:inline;overflow:visible;visibility:visible;fill:#d4d4d4;fill-opacity:1;fill-rule:nonzero;stroke:none;stroke-width:2;marker:none;enable-background:accumulate"
         id="rect24x24"
         width="24"
         height="24"
         x="416"
         y="100"
         inkscape:label="24x24" />
      <rect
         style="display:inline;overflow:visible;visibility:visible;fill:#eeeeec;fill-opacity:1;fill-rule:nonzero;stroke:none;stroke-width:2;marker:none;enable-background:accumulate"
         id="rect32x32"
         width="32"
         height="32"
         x="416"
         y="52"
         inkscape:label="32x32" />
      <rect
         inkscape:label="22x22"
         y="101"
         x="417"
         height="22"
         width="22"
         id="rect22x22"
         style="display:inline;overflow:visible;visibility:visible;fill:#eeeeec;fill-opacity:1;fill-rule:nonzero;stroke:none;stroke-width:2;marker:none;enable-background:accumulate" />
      <rect
         inkscape:label="48x48"
         y="220"
         x="288"
         height="48"
         width="48"
         id="rect48x48"
         style="display:inline;overflow:visible;visibility:visible;fill:#eeeeec;fill-opacity:1;fill-rule:nonzero;stroke:none;stroke-width:2;marker:none;enable-background:accumulate" />
      <rect
         style="display:inline;overflow:visible;visibility:visible;fill:#eeeeec;fill-opacity:1;fill-rule:nonzero;stroke:none;stroke-width:2;marker:none;enable-background:accumulate"
         id="rect256x256"
         width="256"
         height="256"
         x="16"
         y="28"
         inkscape:label="256x256" />
      <rect
         style="display:inline;overflow:visible;visibility:visible;fill:#eeeeec;fill-opacity:1;fill-rule:nonzero;stroke:none;stroke-width:2;marker:none;enable-background:accumulate"
         id="rect64x64"
         width="64"
         height="64"
         x="288"
         y="140"
         inkscape:label="64x64" />
      <rect
         style="display:inline;overflow:visible;visibility:visible;fill:#eeeeec;fill-opacity:1;fill-rule:nonzero;stroke:none;stroke-width:2;marker:none;enable-background:accumulate"
         id="rect96x96"
         width="96"
         height="96"
         x="288"
         y="28"
         inkscape:label="96x96" />
    </g>
    <g
       inkscape:groupmode="layer"
       id="layer4"
       inkscape:label="Shadow"
       style="display:inline"
       sodipodi:insensitive="true">
      <rect
         ry="50"
         y="47"
         x="34"
         height="220"
         width="220"
         id="rect4114"
         style="color:#bebebe;display:inline;overflow:visible;visibility:visible;opacity:0.1;fill:#000000;fill-opacity:1;fill-rule:nonzero;stroke:none;stroke-width:0;marker:none;enable-background:accumulate" />
      <rect
         style="color:#bebebe;display:inline;overflow:visible;visibility:visible;opacity:0.1;fill:#000000;fill-opacity:1;fill-rule:nonzero;stroke:none;stroke-width:0;marker:none;enable-background:accumulate"
         id="rect4120"
         width="30"
         height="30"
         x="417"
         y="54"
         ry="7" />
      <rect
         transform="scale(1,-1)"
         ry="9"
         y="-266"
         x="291"
         height="42"
         width="42"
         id="rect4122"
         style="color:#bebebe;display:inline;overflow:visible;visibility:visible;opacity:0.1;fill:#000000;fill-opacity:1;fill-rule:nonzero;stroke:none;stroke-width:0;marker:none;enable-background:accumulate" />
      <rect
         style="color:#bebebe;display:inline;overflow:visible;visibility:visible;opacity:0.1;fill:#000000;fill-opacity:1;fill-rule:nonzero;stroke:none;stroke-width:0;marker:none;enable-background:accumulate"
         id="rect4124"
         width="88"
         height="88"
         x="292"
         y="33"
         ry="18" />
      <rect
         ry="12.5"
         y="143"
         x="290"
         height="60"
         width="60"
         id="rect4126"
         style="color:#bebebe;display:inline;overflow:visible;visibility:visible;opacity:0.1;fill:#000000;fill-opacity:1;fill-rule:nonzero;stroke:none;stroke-width:0;marker:none;enable-background:accumulate" />
      <path
         id="path4268"
         d="m 422,101 c -2.77,0 -5,2.23 -5,5 v 12 c 0,2.77 2.23,5 5,5 h 12 c 2.77,0 5,-2.23 5,-5 v -12 c 0,-2.77 -2.23,-5 -5,-5 z"
         style="color:#bebebe;display:inline;overflow:visible;visibility:visible;opacity:0.1;fill:#000000;fill-opacity:1;fill-rule:nonzero;stroke:none;stroke-width:0;marker:none;enable-background:accumulate"
         inkscape:connector-curvature="0"
         sodipodi:nodetypes="sssssssss" />
      <path
         id="path4270"
         d="m 419,140 c -1.662,0 -3,1.338 -3,3 v 10 c 0,1.662 1.338,3 3,3 h 10 c 1.662,0 3,-1.338 3,-3 v -10 c 0,-1.662 -1.338,-3 -3,-3 z"
         style="color:#bebebe;display:inline;overflow:visible;visibility:visible;opacity:0.1;fill:#000000;fill-opacity:1;fill-rule:nonzero;stroke:none;stroke-width:0;marker:none;enable-background:accumulate"
         inkscape:connector-curvature="0"
         sodipodi:nodetypes="sssssssss" />
    </g>
    <g
       inkscape:groupmode="layer"
       id="layer2"
       inkscape:label="Background"
       style="display:inline">
      <path
         style="color:#bebebe;display:inline;overflow:visible;visibility:visible;fill:url(#linearGradient10837);fill-opacity:1;fill-rule:nonzero;stroke:none;stroke-width:2;marker:none;enable-background:accumulate"
         d="M 84,46.5 C 56.56874,46.5 34.5,68.56873 34.5,96 v 120 c 0,27.43127 22.06874,49.5 49.5,49.5 h 120 c 27.43127,0 49.5,-22.06873 49.5,-49.5 V 96 C 253.5,68.56873 231.43127,46.5 204,46.5 Z"
         id="path4200"
         inkscape:connector-curvature="0" />
      <path
         style="color:#bebebe;display:inline;overflow:visible;visibility:visible;fill:url(#linearGradient10839);fill-opacity:1;fill-rule:nonzero;stroke:none;stroke-width:2;marker:none;enable-background:accumulate"
         d="m 419,140.5 c -1.3844,0 -2.5,1.1156 -2.5,2.5 v 10 c 0,1.3844 1.1156,2.5 2.5,2.5 h 10 c 1.3844,0 2.5,-1.1156 2.5,-2.5 v -10 c 0,-1.3844 -1.1156,-2.5 -2.5,-2.5 z"
         id="path4202"
         inkscape:connector-curvature="0" />
      <path
         style="color:#bebebe;display:inline;overflow:visible;visibility:visible;fill:url(#linearGradient10841);fill-opacity:1;fill-rule:nonzero;stroke:none;stroke-width:2;marker:none;enable-background:accumulate"
         d="m 422,101.5 c -2.49699,0 -4.5,2.00301 -4.5,4.5 v 12 c 0,2.49699 2.00301,4.5 4.5,4.5 h 12 c 2.49699,0 4.5,-2.00301 4.5,-4.5 v -12 c 0,-2.49699 -2.00301,-4.5 -4.5,-4.5 z"
         id="path4204"
         inkscape:connector-curvature="0" />
      <path
         style="color:#bebebe;display:inline;overflow:visible;visibility:visible;fill:url(#linearGradient10843);fill-opacity:1;fill-rule:nonzero;stroke:none;stroke-width:2;marker:none;enable-background:accumulate"
         d="m 424,53.5 c -3.60654,0 -6.5,2.89346 -6.5,6.5 v 16 c 0,3.60654 2.89346,6.5 6.5,6.5 h 16 c 3.60654,0 6.5,-2.89346 6.5,-6.5 V 60 c 0,-3.60654 -2.89346,-6.5 -6.5,-6.5 z"
         id="path4206"
         inkscape:connector-curvature="0" />
      <path
         style="color:#bebebe;display:inline;overflow:visible;visibility:visible;fill:url(#linearGradient10845);fill-opacity:1;fill-rule:nonzero;stroke:none;stroke-width:2;marker:none;enable-background:accumulate"
         d="m 300,223.5 c -4.71531,0 -8.5,3.78469 -8.5,8.5 v 24 c 0,4.71531 3.78469,8.5 8.5,8.5 h 24 c 4.71531,0 8.5,-3.78469 8.5,-8.5 v -24 c 0,-4.71531 -3.78469,-8.5 -8.5,-8.5 z"
         id="path4208"
         inkscape:connector-curvature="0" />
      <path
         style="color:#bebebe;display:inline;overflow:visible;visibility:visible;fill:url(#linearGradient10847);fill-opacity:1;fill-rule:nonzero;stroke:none;stroke-width:2;marker:none;enable-background:accumulate"
         d="m 310,32.5 c -9.70255,0 -17.5,7.79745 -17.5,17.5 v 52 c 0,9.70255 7.79745,17.5 17.5,17.5 h 52 c 9.70255,0 17.5,-7.79745 17.5,-17.5 V 50 c 0,-9.70255 -7.79745,-17.5 -17.5,-17.5 z"
         id="path4210"
         inkscape:connector-curvature="0" />
      <path
         style="color:#bebebe;display:inline;overflow:visible;visibility:visible;fill:url(#linearGradient10849);fill-opacity:1;fill-rule:nonzero;stroke:none;stroke-width:2;marker:none;enable-background:accumulate"
         d="m 302.5,142.5 c -6.65502,0 -12,5.34498 -12,12 v 35 c 0,6.65502 5.34498,12 12,12 h 35 c 6.65502,0 12,-5.34498 12,-12 v -35 c 0,-6.65502 -5.34498,-12 -12,-12 z"
         id="path4212"
         inkscape:connector-curvature="0" />
    </g>
    <g
       inkscape:groupmode="layer"
       id="layer6"
       inkscape:label="Symbols"
       style="display:inline">
      <path
         class="st1"
         d="m 224,158.2654 c 0,-9.70123 -7.87347,-17.57469 -17.5747,-17.57469 -4.78031,0 -8.99824,1.82777 -12.09138,4.92092 -11.95079,-8.57645 -28.5413,-14.20035 -46.81898,-14.90334 l 8.01406,-37.539534 26.01054,5.4833 c 0.2812,6.608074 5.7645,11.950784 12.51318,11.950784 6.88928,0 12.51318,-5.6239 12.51318,-12.513174 0,-6.889276 -5.6239,-12.513177 -12.51318,-12.513177 -4.92091,0 -9.13884,2.811951 -11.1072,7.029877 l -29.10369,-6.186292 c -0.84359,-0.140597 -1.68717,0 -2.39016,0.421793 -0.70299,0.421792 -1.12478,1.12478 -1.40598,1.968365 l -8.85765,41.898058 c -18.69947,0.56239 -35.43057,6.04569 -47.521962,14.90334 -3.093146,-2.95255 -7.45167,-4.92092 -12.091388,-4.92092 -9.70123,0 -17.574692,7.87346 -17.574692,17.57469 0,7.17048 4.217926,13.21617 10.404218,16.02812 -0.281196,1.68717 -0.421793,3.51494 -0.421793,5.34271 0,26.99473 31.353247,48.78734 70.158167,48.78734 38.80493,0 70.15818,-21.79261 70.15818,-48.78734 0,-1.82777 -0.1406,-3.51494 -0.4218,-5.20211 C 219.64147,171.62217 224,165.43588 224,158.2654 Z m -120.2109,12.51318 c 0,-6.88927 5.6239,-12.51318 12.51318,-12.51318 6.88928,0 12.51318,5.62391 12.51318,12.51318 0,6.88928 -5.6239,12.51319 -12.51318,12.51319 -6.88928,0 -12.51318,-5.62391 -12.51318,-12.51319 z m 69.87698,33.04043 c -8.57645,8.57644 -24.88577,9.13884 -29.66609,9.13884 -4.78031,0 -21.23022,-0.70299 -29.66607,-9.13884 -1.26538,-1.26538 -1.26538,-3.37435 0,-4.63972 1.26537,-1.26538 3.37434,-1.26538 4.63971,0 5.34271,5.3427 16.87171,7.31107 25.16696,7.31107 8.29526,0 19.68366,-1.96837 25.16697,-7.31107 1.26537,-1.26538 3.37434,-1.26538 4.63971,0 0.98419,1.40597 0.98419,3.37434 -0.28119,4.63972 z m -2.24956,-20.52724 c -6.88928,0 -12.51318,-5.62391 -12.51318,-12.51319 0,-6.88927 5.6239,-12.51318 12.51318,-12.51318 6.88928,0 12.51318,5.62391 12.51318,12.51318 0,6.88928 -5.6239,12.51319 -12.51318,12.51319 z"
         id="path1034"
         style="stroke-width:1.40598;fill:#000000;fill-opacity:1;opacity:0.2" />
      <path
         class="st1"
         d="m 365,77.458736 c 0,-3.516696 -2.85413,-6.370826 -6.37083,-6.370826 -1.73286,0 -3.26186,0.662566 -4.38312,1.783832 -4.33217,-3.108963 -10.34623,-5.147628 -16.97188,-5.402461 l 2.90509,-13.608084 9.42882,1.987698 c 0.10194,2.39543 2.08964,4.332161 4.53603,4.332161 2.49737,0 4.53603,-2.038664 4.53603,-4.536028 0,-2.497364 -2.03866,-4.536028 -4.53603,-4.536028 -1.78383,0 -3.31283,1.019332 -4.02636,2.54833 L 339.56766,51.4148 c -0.3058,-0.05097 -0.6116,0 -0.86643,0.152899 -0.25483,0.1529 -0.40773,0.407733 -0.50967,0.713533 l -3.21089,15.188049 c -6.77856,0.203867 -12.84359,2.191564 -17.22672,5.402461 -1.12126,-1.070299 -2.70123,-1.783832 -4.38312,-1.783832 -3.5167,0 -6.37083,2.85413 -6.37083,6.370825 0,2.599298 1.529,4.790863 3.77153,5.810194 -0.10193,0.611599 -0.1529,1.274165 -0.1529,1.936731 0,9.785589 11.36555,17.6854 25.43234,17.6854 14.06678,0 25.43233,-7.899811 25.43233,-17.6854 0,-0.662566 -0.051,-1.274165 -0.1529,-1.885765 C 363.42004,82.300564 365,80.058033 365,77.458736 Z m -43.57645,4.536028 c 0,-2.497363 2.03866,-4.536028 4.53603,-4.536028 2.49736,0 4.53603,2.038665 4.53603,4.536028 0,2.497364 -2.03867,4.536029 -4.53603,4.536029 -2.49737,0 -4.53603,-2.038665 -4.53603,-4.536029 z m 25.3304,11.977153 c -3.10896,3.108963 -9.02109,3.31283 -10.75395,3.31283 -1.73286,0 -7.69596,-0.254833 -10.75395,-3.31283 -0.4587,-0.458699 -0.4587,-1.223198 0,-1.681898 0.4587,-0.458699 1.22319,-0.458699 1.68189,0 1.93673,1.936731 6.116,2.650264 9.12303,2.650264 3.00703,0 7.13532,-0.713533 9.12302,-2.650264 0.4587,-0.458699 1.2232,-0.458699 1.6819,0 0.35676,0.509666 0.35676,1.223199 -0.10194,1.681898 z m -0.81546,-7.441124 c -2.49737,0 -4.53603,-2.038665 -4.53603,-4.536029 0,-2.497363 2.03866,-4.536028 4.53603,-4.536028 2.49736,0 4.53603,2.038665 4.53603,4.536028 0,2.497364 -2.03867,4.536029 -4.53603,4.536029 z"
         id="path1034-6"
         style="stroke-width:0.509666;fill:#000000;fill-opacity:1;opacity:0.2" />
      <path
         class="st1"
         d="m 342,173.34801 c 0,-2.66784 -2.1652,-4.83305 -4.83304,-4.83305 -1.31459,0 -2.47452,0.50264 -3.32513,1.35326 -3.28647,-2.35853 -7.84886,-3.9051 -12.87522,-4.09842 l 2.20386,-10.32338 7.1529,1.50791 c 0.0773,1.81723 1.58524,3.28647 3.44113,3.28647 1.89455,0 3.44112,-1.54657 3.44112,-3.44113 0,-1.89455 -1.54657,-3.44112 -3.44112,-3.44112 -1.35325,0 -2.51318,0.77329 -3.05448,1.93322 l -8.00352,-1.70123 c -0.23198,-0.0387 -0.46397,0 -0.65729,0.11599 -0.19332,0.11599 -0.30932,0.30931 -0.38664,0.5413 l -2.43586,11.52197 c -5.14235,0.15467 -9.74341,1.66257 -13.06854,4.09843 -0.85061,-0.81195 -2.04921,-1.35327 -3.32513,-1.35327 -2.66784,0 -4.83304,2.16521 -4.83304,4.83306 0,1.97188 1.15993,3.63444 2.86116,4.40772 -0.0773,0.46397 -0.11599,0.96661 -0.11599,1.46925 0,7.42355 8.62214,13.41652 19.29349,13.41652 10.67136,0 19.2935,-5.99297 19.2935,-13.41652 0,-0.50264 -0.0387,-0.96661 -0.11599,-1.43058 1.58524,-0.77329 2.78383,-2.47452 2.78383,-4.4464 z m -33.058,3.44112 c 0,-1.89455 1.54658,-3.44112 3.44113,-3.44112 1.89455,0 3.44112,1.54657 3.44112,3.44112 0,1.89455 -1.54657,3.44112 -3.44112,3.44112 -1.89455,0 -3.44113,-1.54657 -3.44113,-3.44112 z m 19.21617,9.08612 c -2.35852,2.35852 -6.84358,2.51318 -8.15817,2.51318 -1.31459,0 -5.83831,-0.19332 -8.15817,-2.51318 -0.34798,-0.34798 -0.34798,-0.92795 0,-1.27593 0.34798,-0.34798 0.92794,-0.34798 1.27592,0 1.46924,1.46925 4.63972,2.01055 6.92091,2.01055 2.2812,0 5.41301,-0.5413 6.92092,-2.01055 0.34798,-0.34798 0.92794,-0.34798 1.27592,0 0.27065,0.38665 0.27065,0.92795 -0.0773,1.27593 z m -0.61863,-5.645 c -1.89455,0 -3.44112,-1.54657 -3.44112,-3.44112 0,-1.89455 1.54657,-3.44112 3.44112,-3.44112 1.89455,0 3.44113,1.54657 3.44113,3.44112 0,1.89455 -1.54658,3.44112 -3.44113,3.44112 z"
         id="path1034-5"
         style="stroke-width:0.386643;fill:#000000;fill-opacity:1;opacity:0.2" />
      <path
         class="st1"
         d="m 325.99998,245.22147 c 0,-1.69771 -1.37786,-3.07557 -3.07557,-3.07557 -0.83656,0 -1.57469,0.31986 -2.11599,0.86116 -2.09139,-1.50088 -4.99473,-2.48506 -8.19333,-2.60808 l 1.40246,-6.56942 4.55185,0.95957 c 0.0492,1.15642 1.00879,2.09139 2.18981,2.09139 1.20562,0 2.1898,-0.98418 2.1898,-2.1898 0,-1.20563 -0.98418,-2.18981 -2.1898,-2.18981 -0.86116,0 -1.5993,0.49209 -1.94376,1.23025 l -5.09315,-1.08261 c -0.14762,-0.0246 -0.29525,0 -0.41827,0.0738 -0.12302,0.0738 -0.19683,0.19685 -0.24604,0.34447 l -1.55009,7.33216 c -3.27241,0.0984 -6.20036,1.05799 -8.31635,2.60808 -0.5413,-0.51669 -1.30404,-0.86116 -2.116,-0.86116 -1.69771,0 -3.07556,1.37786 -3.07556,3.07557 0,1.25484 0.73813,2.31282 1.82074,2.80492 -0.0492,0.29526 -0.0738,0.61512 -0.0738,0.93498 0,4.72407 5.48681,8.53778 12.27767,8.53778 6.79087,0 12.27768,-3.81371 12.27768,-8.53778 0,-0.31986 -0.0246,-0.61512 -0.0738,-0.91037 1.00879,-0.49209 1.77153,-1.57469 1.77153,-2.82953 z m -21.03691,2.18981 c 0,-1.20562 0.98419,-2.18981 2.18981,-2.18981 1.20562,0 2.18981,0.98419 2.18981,2.18981 0,1.20562 -0.98419,2.18981 -2.18981,2.18981 -1.20562,0 -2.18981,-0.98419 -2.18981,-2.18981 z m 12.22847,5.78207 c -1.50087,1.50088 -4.355,1.5993 -5.19156,1.5993 -0.83656,0 -3.71529,-0.12302 -5.19156,-1.5993 -0.22145,-0.22144 -0.22145,-0.59051 0,-0.81195 0.22144,-0.22144 0.59051,-0.22144 0.81196,0 0.93497,0.93498 2.95254,1.27944 4.4042,1.27944 1.45167,0 3.44464,-0.34446 4.40422,-1.27944 0.22144,-0.22144 0.59051,-0.22144 0.81196,0 0.17224,0.24605 0.17224,0.59051 -0.0492,0.81195 z m -0.39367,-3.59226 c -1.20562,0 -2.18981,-0.98419 -2.18981,-2.18981 0,-1.20562 0.98419,-2.18981 2.18981,-2.18981 1.20562,0 2.18981,0.98419 2.18981,2.18981 0,1.20562 -0.98419,2.18981 -2.18981,2.18981 z"
         id="path1034-62"
         style="stroke-width:0.246046;fill:#000000;fill-opacity:1;opacity:0.2" />
      <path
         class="st1"
         d="m 441.99997,69.158206 c 0,-1.212653 -0.98418,-2.196836 -2.19684,-2.196836 -0.59754,0 -1.12478,0.22847 -1.51142,0.615115 -1.49385,-1.072057 -3.56766,-1.775044 -5.85237,-1.862918 l 1.00175,-4.692443 3.25132,0.685413 c 0.0351,0.826011 0.72057,1.493849 1.56415,1.493849 0.86116,0 1.56415,-0.702987 1.56415,-1.564147 0,-0.86116 -0.70299,-1.564148 -1.56415,-1.564148 -0.61511,0 -1.14235,0.351494 -1.3884,0.878735 l -3.63796,-0.773288 c -0.10545,-0.01758 -0.2109,0 -0.29877,0.05272 -0.0879,0.05272 -0.1406,0.140598 -0.17575,0.246046 l -1.1072,5.237258 c -2.33744,0.0703 -4.42883,0.755713 -5.94025,1.862918 -0.38664,-0.369068 -0.93146,-0.615115 -1.51142,-0.615115 -1.21266,0 -2.19684,0.984183 -2.19684,2.196837 0,0.896309 0.52724,1.652022 1.30053,2.003516 -0.0351,0.210895 -0.0527,0.439366 -0.0527,0.667837 0,3.374341 3.91916,6.098419 8.76977,6.098419 4.85062,0 8.76978,-2.724077 8.76978,-6.098419 0,-0.22847 -0.0176,-0.439366 -0.0527,-0.650264 0.72056,-0.351494 1.26538,-1.12478 1.26538,-2.021089 z m -15.02636,1.564148 c 0,-0.86116 0.70299,-1.564148 1.56415,-1.564148 0.86116,0 1.56414,0.702988 1.56414,1.564148 0,0.86116 -0.70298,1.564148 -1.56414,1.564148 -0.86116,0 -1.56415,-0.702988 -1.56415,-1.564148 z m 8.73462,4.130053 c -1.07206,1.072056 -3.11072,1.142355 -3.70826,1.142355 -0.59754,0 -2.65378,-0.08787 -3.70826,-1.142355 -0.15817,-0.158172 -0.15817,-0.421793 0,-0.579965 0.15817,-0.158172 0.42179,-0.158172 0.57996,0 0.66784,0.667838 2.10897,0.913884 3.14587,0.913884 1.03691,0 2.46046,-0.246047 3.14587,-0.913884 0.15818,-0.158172 0.4218,-0.158172 0.57997,0 0.12302,0.175747 0.12302,0.421793 -0.0351,0.579965 z m -0.28119,-2.565905 c -0.86116,0 -1.56415,-0.702988 -1.56415,-1.564148 0,-0.86116 0.70299,-1.564148 1.56415,-1.564148 0.86115,0 1.56414,0.702988 1.56414,1.564148 0,0.86116 -0.70299,1.564148 -1.56414,1.564148 z"
         id="path1034-1"
         style="stroke-width:0.175747;fill:#000000;fill-opacity:1;opacity:0.2" />
      <path
         class="st1"
         d="m 435,113.11076 c 0,-0.84886 -0.68893,-1.53778 -1.53779,-1.53778 -0.41828,0 -0.78734,0.15993 -1.05799,0.43057 -1.0457,-0.75044 -2.49736,-1.24252 -4.09666,-1.30404 l 0.70122,-3.28471 2.27593,0.47978 c 0.0246,0.5782 0.5044,1.04569 1.0949,1.04569 0.60282,0 1.09491,-0.49209 1.09491,-1.0949 0,-0.60281 -0.49209,-1.09489 -1.09491,-1.09489 -0.43057,0 -0.79964,0.24603 -0.97188,0.61511 l -2.54657,-0.54131 c -0.0738,-0.0123 -0.14763,0 -0.20914,0.0369 -0.0615,0.0369 -0.0984,0.0984 -0.12302,0.17223 l -0.77504,3.66609 c -1.63621,0.0492 -3.10018,0.52899 -4.15818,1.30404 -0.27065,-0.25834 -0.65202,-0.43058 -1.05799,-0.43058 -0.84886,0 -1.53779,0.68892 -1.53779,1.53778 0,0.62742 0.36907,1.15642 0.91037,1.40246 -0.0246,0.14763 -0.0369,0.30756 -0.0369,0.46749 0,2.36204 2.74341,4.26889 6.13884,4.26889 3.39543,0 6.13885,-1.90685 6.13885,-4.26889 0,-0.15993 -0.0123,-0.30756 -0.0369,-0.45518 C 434.61863,114.27946 435,113.73815 435,113.11073 Z m -10.51845,1.09489 c 0,-0.60281 0.49209,-1.09489 1.0949,-1.09489 0.60282,0 1.0949,0.49209 1.0949,1.09489 0,0.60282 -0.49208,1.09491 -1.0949,1.09491 -0.60281,0 -1.0949,-0.49209 -1.0949,-1.09491 z m 6.11423,2.89105 c -0.75044,0.75044 -2.1775,0.79965 -2.59578,0.79965 -0.41828,0 -1.85765,-0.0615 -2.59578,-0.79965 -0.11072,-0.11072 -0.11072,-0.29526 0,-0.40597 0.11072,-0.11072 0.29525,-0.11072 0.40597,0 0.46749,0.46748 1.47628,0.63971 2.20211,0.63971 0.72584,0 1.72232,-0.17223 2.20211,-0.63971 0.11072,-0.11072 0.29526,-0.11072 0.40598,0 0.0861,0.12301 0.0861,0.29525 -0.0246,0.40597 z m -0.19683,-1.79614 c -0.60281,0 -1.09491,-0.49209 -1.09491,-1.09491 0,-0.60281 0.4921,-1.09489 1.09491,-1.09489 0.6028,0 1.0949,0.49209 1.0949,1.09489 0,0.60282 -0.4921,1.09491 -1.0949,1.09491 z"
         id="path1034-7"
         style="stroke-width:0.123023;fill:#000000;fill-opacity:1;opacity:0.2" />
      <path
         class="st1"
         d="m 429.00002,149.07911 c 0,-0.60634 -0.4921,-1.09842 -1.09842,-1.09842 -0.29877,0 -0.56239,0.11423 -0.75571,0.30755 -0.74692,-0.53603 -1.78384,-0.88753 -2.9262,-0.93145 l 0.50088,-2.34622 1.62566,0.3427 c 0.0176,0.41301 0.36028,0.74693 0.78208,0.74693 0.43058,0 0.78207,-0.3515 0.78207,-0.78208 0,-0.43058 -0.35149,-0.78207 -0.78207,-0.78207 -0.30756,0 -0.57118,0.17575 -0.69421,0.43937 l -1.81898,-0.38665 c -0.0527,-0.009 -0.10544,0 -0.14938,0.0264 -0.0439,0.0264 -0.0703,0.0703 -0.0879,0.12302 l -0.55361,2.61863 c -1.16871,0.0352 -2.21441,0.37785 -2.97012,0.93146 -0.19332,-0.18454 -0.46573,-0.30756 -0.75571,-0.30756 -0.60633,0 -1.09842,0.49209 -1.09842,1.09842 0,0.44815 0.26362,0.82601 0.65026,1.00176 -0.0176,0.10544 -0.0264,0.21968 -0.0264,0.33391 0,1.68718 1.95958,3.04921 4.38489,3.04921 2.4253,0 4.38488,-1.36203 4.38488,-3.04921 0,-0.11423 -0.009,-0.21968 -0.0264,-0.32513 0.36028,-0.17574 0.63269,-0.56239 0.63269,-1.01054 z m -7.51318,0.78207 c 0,-0.43058 0.35149,-0.78207 0.78207,-0.78207 0.43058,0 0.78208,0.35149 0.78208,0.78207 0,0.43058 -0.3515,0.78208 -0.78208,0.78208 -0.43059,0 -0.78207,-0.3515 -0.78207,-0.78208 z m 4.36731,2.06503 c -0.53603,0.53603 -1.55537,0.57118 -1.85413,0.57118 -0.29877,0 -1.32689,-0.0439 -1.85413,-0.57118 -0.0791,-0.0791 -0.0791,-0.2109 0,-0.28998 0.0791,-0.0791 0.21089,-0.0791 0.28998,0 0.33392,0.33391 1.05448,0.45694 1.57294,0.45694 0.51845,0 1.23023,-0.12303 1.57293,-0.45694 0.0791,-0.0791 0.2109,-0.0791 0.28998,0 0.0615,0.0879 0.0615,0.21089 -0.0176,0.28998 z m -0.14061,-1.28295 c -0.43058,0 -0.78206,-0.3515 -0.78206,-0.78208 0,-0.43058 0.35149,-0.78207 0.78206,-0.78207 0.43059,0 0.78209,0.35149 0.78209,0.78207 0,0.43058 -0.3515,0.78208 -0.78209,0.78208 z"
         id="path1034-9"
         style="stroke-width:0.0878735;fill:#000000;fill-opacity:1;opacity:0.2" />
      <path
         class="st1"
         d="m 224,157.2654 c 0,-9.70123 -7.87347,-17.57469 -17.5747,-17.57469 -4.78031,0 -8.99824,1.82777 -12.09138,4.92092 -11.95079,-8.57645 -28.5413,-14.20035 -46.81898,-14.90334 l 8.01406,-37.539534 26.01054,5.4833 c 0.2812,6.608074 5.7645,11.950784 12.51318,11.950784 6.88928,0 12.51318,-5.6239 12.51318,-12.513174 0,-6.889276 -5.6239,-12.513177 -12.51318,-12.513177 -4.92091,0 -9.13884,2.811951 -11.1072,7.029877 l -29.10369,-6.186292 c -0.84359,-0.140597 -1.68717,0 -2.39016,0.421793 -0.70299,0.421792 -1.12478,1.12478 -1.40598,1.968365 l -8.85765,41.898058 c -18.69947,0.56239 -35.43057,6.04569 -47.521961,14.90334 -3.093146,-2.95255 -7.45167,-4.92092 -12.091388,-4.92092 -9.70123,0 -17.574692,7.87346 -17.574692,17.57469 0,7.17048 4.217926,13.21617 10.404218,16.02812 -0.281196,1.68717 -0.421793,3.51494 -0.421793,5.34271 0,26.99473 31.353246,48.78734 70.158166,48.78734 38.80493,0 70.15818,-21.79261 70.15818,-48.78734 0,-1.82777 -0.1406,-3.51494 -0.4218,-5.20211 C 219.64147,170.62217 224,164.43588 224,157.2654 Z m -120.2109,12.51318 c 0,-6.88927 5.6239,-12.51318 12.51318,-12.51318 6.88928,0 12.51318,5.62391 12.51318,12.51318 0,6.88928 -5.6239,12.51319 -12.51318,12.51319 -6.88928,0 -12.51318,-5.62391 -12.51318,-12.51319 z m 69.87698,33.04043 c -8.57645,8.57644 -24.88577,9.13884 -29.66609,9.13884 -4.78031,0 -21.23022,-0.70299 -29.66607,-9.13884 -1.26538,-1.26538 -1.26538,-3.37435 0,-4.63972 1.26537,-1.26538 3.37434,-1.26538 4.63971,0 5.34271,5.3427 16.87171,7.31107 25.16696,7.31107 8.29526,0 19.68366,-1.96837 25.16697,-7.31107 1.26537,-1.26538 3.37434,-1.26538 4.63971,0 0.98419,1.40597 0.98419,3.37434 -0.28119,4.63972 z m -2.24956,-20.52724 c -6.88928,0 -12.51318,-5.62391 -12.51318,-12.51319 0,-6.88927 5.6239,-12.51318 12.51318,-12.51318 6.88928,0 12.51318,5.62391 12.51318,12.51318 0,6.88928 -5.6239,12.51319 -12.51318,12.51319 z"
         id="path1034-0"
         style="display:inline;fill:#ffffff;stroke-width:1.40598;enable-background:new" />
      <path
         class="st1"
         d="m 365,76.458736 c 0,-3.516696 -2.85413,-6.370826 -6.37083,-6.370826 -1.73286,0 -3.26186,0.662566 -4.38312,1.783832 -4.33217,-3.108963 -10.34623,-5.147628 -16.97188,-5.402461 l 2.90509,-13.608084 9.42882,1.987698 c 0.10194,2.39543 2.08964,4.332161 4.53603,4.332161 2.49737,0 4.53603,-2.038664 4.53603,-4.536028 0,-2.497364 -2.03866,-4.536028 -4.53603,-4.536028 -1.78383,0 -3.31283,1.019332 -4.02636,2.54833 L 339.56766,50.4148 c -0.3058,-0.05097 -0.6116,0 -0.86643,0.152899 -0.25483,0.1529 -0.40773,0.407733 -0.50967,0.713533 l -3.21089,15.188049 c -6.77856,0.203867 -12.84359,2.191564 -17.22672,5.402461 -1.12126,-1.070299 -2.70123,-1.783832 -4.38312,-1.783832 -3.5167,0 -6.37083,2.85413 -6.37083,6.370825 0,2.599298 1.529,4.790863 3.77153,5.810194 -0.10193,0.611599 -0.1529,1.274165 -0.1529,1.936731 0,9.785589 11.36555,17.6854 25.43234,17.6854 14.06678,0 25.43233,-7.899811 25.43233,-17.6854 0,-0.662566 -0.051,-1.274165 -0.1529,-1.885765 C 363.42004,81.300564 365,79.058033 365,76.458736 Z m -43.57645,4.536028 c 0,-2.497363 2.03866,-4.536028 4.53603,-4.536028 2.49736,0 4.53603,2.038665 4.53603,4.536028 0,2.497364 -2.03867,4.536029 -4.53603,4.536029 -2.49737,0 -4.53603,-2.038665 -4.53603,-4.536029 z m 25.3304,11.977153 c -3.10896,3.108963 -9.02109,3.31283 -10.75395,3.31283 -1.73286,0 -7.69596,-0.254833 -10.75395,-3.31283 -0.4587,-0.458699 -0.4587,-1.223198 0,-1.681898 0.4587,-0.458699 1.22319,-0.458699 1.68189,0 1.93673,1.936731 6.116,2.650264 9.12303,2.650264 3.00703,0 7.13532,-0.713533 9.12302,-2.650264 0.4587,-0.458699 1.2232,-0.458699 1.6819,0 0.35676,0.509666 0.35676,1.223199 -0.10194,1.681898 z m -0.81546,-7.441124 c -2.49737,0 -4.53603,-2.038665 -4.53603,-4.536029 0,-2.497363 2.03866,-4.536028 4.53603,-4.536028 2.49736,0 4.53603,2.038665 4.53603,4.536028 0,2.497364 -2.03867,4.536029 -4.53603,4.536029 z"
         id="path1034-6-6"
         style="display:inline;fill:#ffffff;stroke-width:0.509666;enable-background:new" />
      <path
         class="st1"
         d="m 342,172.34801 c 0,-2.66784 -2.1652,-4.83305 -4.83304,-4.83305 -1.31459,0 -2.47452,0.50264 -3.32513,1.35326 -3.28647,-2.35853 -7.84886,-3.9051 -12.87522,-4.09842 l 2.20386,-10.32338 7.1529,1.50791 c 0.0773,1.81723 1.58524,3.28647 3.44113,3.28647 1.89455,0 3.44112,-1.54657 3.44112,-3.44113 0,-1.89455 -1.54657,-3.44112 -3.44112,-3.44112 -1.35325,0 -2.51318,0.77329 -3.05448,1.93322 l -8.00352,-1.70123 c -0.23198,-0.0387 -0.46397,0 -0.65729,0.11599 -0.19332,0.11599 -0.30932,0.30931 -0.38664,0.5413 l -2.43586,11.52197 c -5.14235,0.15467 -9.74341,1.66257 -13.06854,4.09843 -0.85061,-0.81195 -2.04921,-1.35327 -3.32513,-1.35327 -2.66784,0 -4.83304,2.16521 -4.83304,4.83306 0,1.97188 1.15993,3.63444 2.86116,4.40772 -0.0773,0.46397 -0.11599,0.96661 -0.11599,1.46925 0,7.42355 8.62214,13.41652 19.29349,13.41652 10.67136,0 19.2935,-5.99297 19.2935,-13.41652 0,-0.50264 -0.0387,-0.96661 -0.11599,-1.43058 1.58524,-0.77329 2.78383,-2.47452 2.78383,-4.4464 z m -33.058,3.44112 c 0,-1.89455 1.54658,-3.44112 3.44113,-3.44112 1.89455,0 3.44112,1.54657 3.44112,3.44112 0,1.89455 -1.54657,3.44112 -3.44112,3.44112 -1.89455,0 -3.44113,-1.54657 -3.44113,-3.44112 z m 19.21617,9.08612 c -2.35852,2.35852 -6.84358,2.51318 -8.15817,2.51318 -1.31459,0 -5.83831,-0.19332 -8.15817,-2.51318 -0.34798,-0.34798 -0.34798,-0.92795 0,-1.27593 0.34798,-0.34798 0.92794,-0.34798 1.27592,0 1.46924,1.46925 4.63972,2.01055 6.92091,2.01055 2.2812,0 5.41301,-0.5413 6.92092,-2.01055 0.34798,-0.34798 0.92794,-0.34798 1.27592,0 0.27065,0.38665 0.27065,0.92795 -0.0773,1.27593 z m -0.61863,-5.645 c -1.89455,0 -3.44112,-1.54657 -3.44112,-3.44112 0,-1.89455 1.54657,-3.44112 3.44112,-3.44112 1.89455,0 3.44113,1.54657 3.44113,3.44112 0,1.89455 -1.54658,3.44112 -3.44113,3.44112 z"
         id="path1034-5-3"
         style="display:inline;fill:#ffffff;stroke-width:0.386643;enable-background:new" />
      <path
         class="st1"
         d="m 325.99998,244.22147 c 0,-1.69771 -1.37786,-3.07557 -3.07557,-3.07557 -0.83656,0 -1.57469,0.31986 -2.11599,0.86116 -2.09139,-1.50088 -4.99473,-2.48506 -8.19333,-2.60808 l 1.40246,-6.56942 4.55185,0.95957 c 0.0492,1.15642 1.00879,2.09139 2.18981,2.09139 1.20562,0 2.1898,-0.98418 2.1898,-2.1898 0,-1.20563 -0.98418,-2.18981 -2.1898,-2.18981 -0.86116,0 -1.5993,0.49209 -1.94376,1.23025 l -5.09315,-1.08261 c -0.14762,-0.0246 -0.29525,0 -0.41827,0.0738 -0.12302,0.0738 -0.19683,0.19685 -0.24604,0.34447 l -1.55009,7.33216 c -3.27241,0.0984 -6.20036,1.05799 -8.31635,2.60808 -0.5413,-0.51669 -1.30404,-0.86116 -2.116,-0.86116 -1.69771,0 -3.07556,1.37786 -3.07556,3.07557 0,1.25484 0.73813,2.31282 1.82074,2.80492 -0.0492,0.29526 -0.0738,0.61512 -0.0738,0.93498 0,4.72407 5.48681,8.53778 12.27767,8.53778 6.79087,0 12.27768,-3.81371 12.27768,-8.53778 0,-0.31986 -0.0246,-0.61512 -0.0738,-0.91037 1.00879,-0.49209 1.77153,-1.57469 1.77153,-2.82953 z m -21.03691,2.18981 c 0,-1.20562 0.98419,-2.18981 2.18981,-2.18981 1.20562,0 2.18981,0.98419 2.18981,2.18981 0,1.20562 -0.98419,2.18981 -2.18981,2.18981 -1.20562,0 -2.18981,-0.98419 -2.18981,-2.18981 z m 12.22847,5.78207 c -1.50087,1.50088 -4.355,1.5993 -5.19156,1.5993 -0.83656,0 -3.71529,-0.12302 -5.19156,-1.5993 -0.22145,-0.22144 -0.22145,-0.59051 0,-0.81195 0.22144,-0.22144 0.59051,-0.22144 0.81196,0 0.93497,0.93498 2.95254,1.27944 4.4042,1.27944 1.45167,0 3.44464,-0.34446 4.40422,-1.27944 0.22144,-0.22144 0.59051,-0.22144 0.81196,0 0.17224,0.24605 0.17224,0.59051 -0.0492,0.81195 z m -0.39367,-3.59226 c -1.20562,0 -2.18981,-0.98419 -2.18981,-2.18981 0,-1.20562 0.98419,-2.18981 2.18981,-2.18981 1.20562,0 2.18981,0.98419 2.18981,2.18981 0,1.20562 -0.98419,2.18981 -2.18981,2.18981 z"
         id="path1034-62-2"
         style="display:inline;fill:#ffffff;stroke-width:0.246046;enable-background:new" />
      <path
         class="st1"
         d="m 441.99997,68.158205 c 0,-1.212653 -0.98418,-2.196836 -2.19684,-2.196836 -0.59754,0 -1.12478,0.22847 -1.51142,0.615115 -1.49385,-1.072057 -3.56766,-1.775044 -5.85237,-1.862918 l 1.00175,-4.692443 3.25132,0.685413 c 0.0351,0.826011 0.72057,1.493849 1.56415,1.493849 0.86116,0 1.56415,-0.702987 1.56415,-1.564147 0,-0.86116 -0.70299,-1.564148 -1.56415,-1.564148 -0.61511,0 -1.14235,0.351494 -1.3884,0.878735 l -3.63796,-0.773288 c -0.10545,-0.01758 -0.2109,0 -0.29877,0.05272 -0.0879,0.05272 -0.1406,0.140598 -0.17575,0.246046 l -1.1072,5.237258 c -2.33744,0.0703 -4.42883,0.755713 -5.94025,1.862918 -0.38664,-0.369068 -0.93146,-0.615115 -1.51142,-0.615115 -1.21266,0 -2.19684,0.984183 -2.19684,2.196837 0,0.896309 0.52724,1.652022 1.30053,2.003516 -0.0351,0.210895 -0.0527,0.439366 -0.0527,0.667837 0,3.374341 3.91916,6.098419 8.76977,6.098419 4.85062,0 8.76978,-2.724077 8.76978,-6.098419 0,-0.22847 -0.0176,-0.439366 -0.0527,-0.650264 0.72056,-0.351494 1.26538,-1.12478 1.26538,-2.021089 z m -15.02636,1.564148 c 0,-0.86116 0.70299,-1.564148 1.56415,-1.564148 0.86116,0 1.56414,0.702988 1.56414,1.564148 0,0.86116 -0.70298,1.564148 -1.56414,1.564148 -0.86116,0 -1.56415,-0.702988 -1.56415,-1.564148 z m 8.73462,4.130053 c -1.07206,1.072056 -3.11072,1.142355 -3.70826,1.142355 -0.59754,0 -2.65378,-0.08787 -3.70826,-1.142355 -0.15817,-0.158172 -0.15817,-0.421793 0,-0.579965 0.15817,-0.158172 0.42179,-0.158172 0.57996,0 0.66784,0.667838 2.10897,0.913884 3.14587,0.913884 1.03691,0 2.46046,-0.246047 3.14587,-0.913884 0.15818,-0.158172 0.4218,-0.158172 0.57997,0 0.12302,0.175747 0.12302,0.421793 -0.0351,0.579965 z m -0.28119,-2.565905 c -0.86116,0 -1.56415,-0.702988 -1.56415,-1.564148 0,-0.86116 0.70299,-1.564148 1.56415,-1.564148 0.86115,0 1.56414,0.702988 1.56414,1.564148 0,0.86116 -0.70299,1.564148 -1.56414,1.564148 z"
         id="path1034-1-0"
         style="display:inline;fill:#ffffff;stroke-width:0.175747;enable-background:new" />
      <path
         class="st1"
         d="m 435,112.11076 c 0,-0.84886 -0.68893,-1.53778 -1.53779,-1.53778 -0.41828,0 -0.78734,0.15993 -1.05799,0.43057 -1.0457,-0.75044 -2.49736,-1.24252 -4.09666,-1.30404 l 0.70122,-3.28471 2.27593,0.47978 c 0.0246,0.5782 0.5044,1.04569 1.0949,1.04569 0.60282,0 1.09491,-0.49209 1.09491,-1.0949 0,-0.60281 -0.49209,-1.09489 -1.09491,-1.09489 -0.43057,0 -0.79964,0.24603 -0.97188,0.61511 l -2.54657,-0.54131 c -0.0738,-0.0123 -0.14763,0 -0.20914,0.0369 -0.0615,0.0369 -0.0984,0.0984 -0.12302,0.17223 l -0.77504,3.66609 c -1.63621,0.0492 -3.10018,0.52899 -4.15818,1.30404 -0.27065,-0.25834 -0.65202,-0.43058 -1.05799,-0.43058 -0.84886,0 -1.53779,0.68892 -1.53779,1.53778 0,0.62742 0.36907,1.15642 0.91037,1.40246 -0.0246,0.14763 -0.0369,0.30756 -0.0369,0.46749 0,2.36204 2.74341,4.26889 6.13884,4.26889 3.39543,0 6.13885,-1.90685 6.13885,-4.26889 0,-0.15993 -0.0123,-0.30756 -0.0369,-0.45518 C 434.61863,113.27946 435,112.73815 435,112.11073 Z m -10.51845,1.09489 c 0,-0.60281 0.49209,-1.09489 1.0949,-1.09489 0.60282,0 1.0949,0.49209 1.0949,1.09489 0,0.60282 -0.49208,1.09491 -1.0949,1.09491 -0.60281,0 -1.0949,-0.49209 -1.0949,-1.09491 z m 6.11423,2.89105 c -0.75044,0.75044 -2.1775,0.79965 -2.59578,0.79965 -0.41828,0 -1.85765,-0.0615 -2.59578,-0.79965 -0.11072,-0.11072 -0.11072,-0.29526 0,-0.40597 0.11072,-0.11072 0.29525,-0.11072 0.40597,0 0.46749,0.46748 1.47628,0.63971 2.20211,0.63971 0.72584,0 1.72232,-0.17223 2.20211,-0.63971 0.11072,-0.11072 0.29526,-0.11072 0.40598,0 0.0861,0.12301 0.0861,0.29525 -0.0246,0.40597 z m -0.19683,-1.79614 c -0.60281,0 -1.09491,-0.49209 -1.09491,-1.09491 0,-0.60281 0.4921,-1.09489 1.09491,-1.09489 0.6028,0 1.0949,0.49209 1.0949,1.09489 0,0.60282 -0.4921,1.09491 -1.0949,1.09491 z"
         id="path1034-7-6"
         style="display:inline;fill:#ffffff;stroke-width:0.123023;enable-background:new" />
      <path
         class="st1"
         d="m 429.00002,148.07911 c 0,-0.60634 -0.4921,-1.09842 -1.09842,-1.09842 -0.29877,0 -0.56239,0.11423 -0.75571,0.30755 -0.74692,-0.53603 -1.78384,-0.88753 -2.9262,-0.93145 l 0.50088,-2.34622 1.62566,0.3427 c 0.0176,0.41301 0.36028,0.74693 0.78208,0.74693 0.43058,0 0.78207,-0.3515 0.78207,-0.78208 0,-0.43058 -0.35149,-0.78207 -0.78207,-0.78207 -0.30756,0 -0.57118,0.17575 -0.69421,0.43937 l -1.81898,-0.38665 c -0.0527,-0.009 -0.10544,0 -0.14938,0.0264 -0.0439,0.0264 -0.0703,0.0703 -0.0879,0.12302 l -0.55361,2.61863 c -1.16871,0.0352 -2.21441,0.37785 -2.97012,0.93146 -0.19332,-0.18454 -0.46573,-0.30756 -0.75571,-0.30756 -0.60633,0 -1.09842,0.49209 -1.09842,1.09842 0,0.44815 0.26362,0.82601 0.65026,1.00176 -0.0176,0.10544 -0.0264,0.21968 -0.0264,0.33391 0,1.68718 1.95958,3.04921 4.38489,3.04921 2.4253,0 4.38488,-1.36203 4.38488,-3.04921 0,-0.11423 -0.009,-0.21968 -0.0264,-0.32513 0.36028,-0.17574 0.63269,-0.56239 0.63269,-1.01054 z m -7.51318,0.78207 c 0,-0.43058 0.35149,-0.78207 0.78207,-0.78207 0.43058,0 0.78208,0.35149 0.78208,0.78207 0,0.43058 -0.3515,0.78208 -0.78208,0.78208 -0.43059,0 -0.78207,-0.3515 -0.78207,-0.78208 z m 4.36731,2.06503 c -0.53603,0.53603 -1.55537,0.57118 -1.85413,0.57118 -0.29877,0 -1.32689,-0.0439 -1.85413,-0.57118 -0.0791,-0.0791 -0.0791,-0.2109 0,-0.28998 0.0791,-0.0791 0.21089,-0.0791 0.28998,0 0.33392,0.33391 1.05448,0.45694 1.57294,0.45694 0.51845,0 1.23023,-0.12303 1.57293,-0.45694 0.0791,-0.0791 0.2109,-0.0791 0.28998,0 0.0615,0.0879 0.0615,0.21089 -0.0176,0.28998 z m -0.14061,-1.28295 c -0.43058,0 -0.78206,-0.3515 -0.78206,-0.78208 0,-0.43058 0.35149,-0.78207 0.78206,-0.78207 0.43059,0 0.78209,0.35149 0.78209,0.78207 0,0.43058 -0.3515,0.78208 -0.78209,0.78208 z"
         id="path1034-9-1"
         style="display:inline;fill:#ffffff;stroke-width:0.0878735;enable-background:new" />
    </g>
    <g
       inkscape:groupmode="layer"
       id="layer5"
       inkscape:label="Highlights"
       style="display:inline"
       sodipodi:insensitive="true">
      <path
         style="color:#bebebe;display:inline;overflow:visible;visibility:visible;opacity:0.13;fill:#ffffff;fill-opacity:1;fill-rule:nonzero;stroke:none;stroke-width:0;marker:none;enable-background:accumulate"
         d="M 84,47 C 56.836703,47 35,68.836703 35,96 v 1 C 35,69.836703 56.836703,48 84,48 h 120 c 27.1633,0 49,21.836703 49,49 V 96 C 253,68.836703 231.1633,47 204,47 Z"
         id="rect3894"
         inkscape:connector-curvature="0" />
      <path
         style="color:#bebebe;display:inline;overflow:visible;visibility:visible;opacity:0.13;fill:#ffffff;fill-opacity:1;fill-rule:nonzero;stroke:none;stroke-width:0;marker:none;enable-background:accumulate"
         d="m 419,141 c -1.1253,0 -2,0.8747 -2,2 v 1 c 0,-1.1253 0.8747,-2 2,-2 h 10 c 1.1253,0 2,0.8747 2,2 v -1 c 0,-1.1253 -0.8747,-2 -2,-2 z"
         id="rect3896"
         inkscape:connector-curvature="0" />
      <path
         style="color:#bebebe;display:inline;overflow:visible;visibility:visible;opacity:0.13;fill:#ffffff;fill-opacity:1;fill-rule:nonzero;stroke:none;stroke-width:0;marker:none;enable-background:accumulate"
         d="m 422,102 c -2.2333,0 -4,1.7667 -4,4 v 1 c 0,-2.2333 1.7667,-4 4,-4 h 12 c 2.2333,0 4,1.7667 4,4 v -1 c 0,-2.2333 -1.7667,-4 -4,-4 z"
         id="rect3898"
         inkscape:connector-curvature="0" />
      <path
         style="color:#bebebe;display:inline;overflow:visible;visibility:visible;opacity:0.13;fill:#ffffff;fill-opacity:1;fill-rule:nonzero;stroke:none;stroke-width:0;marker:none;enable-background:accumulate"
         d="m 424,54 c -3.3413,0 -6,2.658703 -6,6 v 1 c 0,-3.341297 2.6587,-6 6,-6 h 16 c 3.3413,0 6,2.658703 6,6 v -1 c 0,-3.341297 -2.6587,-6 -6,-6 z"
         id="rect3900"
         inkscape:connector-curvature="0" />
      <path
         style="color:#bebebe;display:inline;overflow:visible;visibility:visible;opacity:0.13;fill:#ffffff;fill-opacity:1;fill-rule:nonzero;stroke:none;stroke-width:0;marker:none;enable-background:accumulate"
         d="m 300,224 c -4.4493,0 -8,3.5507 -8,8 v 1 c 0,-4.4493 3.5507,-8 8,-8 h 24 c 4.4493,0 8,3.5507 8,8 v -1 c 0,-4.4493 -3.5507,-8 -8,-8 z"
         id="rect3902"
         inkscape:connector-curvature="0" />
      <path
         style="color:#bebebe;display:inline;overflow:visible;visibility:visible;opacity:0.13;fill:#ffffff;fill-opacity:1;fill-rule:nonzero;stroke:none;stroke-width:0;marker:none;enable-background:accumulate"
         d="m 310,33 c -9.4353,0 -17,7.564703 -17,17 v 1 c 0,-9.435297 7.5647,-17 17,-17 h 52 c 9.4353,0 17,7.564703 17,17 v -1 c 0,-9.435297 -7.5647,-17 -17,-17 z"
         id="rect3904"
         inkscape:connector-curvature="0" />
      <path
         style="color:#bebebe;display:inline;overflow:visible;visibility:visible;opacity:0.13;fill:#ffffff;fill-opacity:1;fill-rule:nonzero;stroke:none;stroke-width:0;marker:none;enable-background:accumulate"
         d="m 302.5,143 c -6.3883,0 -11.5,5.1117 -11.5,11.5 v 1 c 0,-6.3883 5.1117,-11.5 11.5,-11.5 h 35 c 6.3883,0 11.5,5.1117 11.5,11.5 v -1 c 0,-6.3883 -5.1117,-11.5 -11.5,-11.5 z"
         id="rect3906"
         inkscape:connector-curvature="0" />
      <path
         id="path4085"
         d="m 204,266 c 27.1633,0 49,-21.8367 49,-49 v -1 c 0,27.1633 -21.8367,49 -49,49 H 84 C 56.8367,265 35,243.1633 35,216 v 1 c 0,27.1633 21.8367,49 49,49 z"
         style="color:#bebebe;display:inline;overflow:visible;visibility:visible;opacity:0.5;fill:#000000;fill-opacity:1;fill-rule:nonzero;stroke:none;stroke-width:0;marker:none;enable-background:accumulate"
         inkscape:connector-curvature="0" />
      <path
         id="path4087"
         d="m 429,156 c 1.1253,0 2,-0.8747 2,-2 v -1 c 0,1.1253 -0.8747,2 -2,2 h -10 c -1.1253,0 -2,-0.8747 -2,-2 v 1 c 0,1.1253 0.8747,2 2,2 z"
         style="color:#bebebe;display:inline;overflow:visible;visibility:visible;opacity:0.3;fill:#000000;fill-opacity:1;fill-rule:nonzero;stroke:none;stroke-width:0;marker:none;enable-background:accumulate"
         inkscape:connector-curvature="0" />
      <path
         id="path4089"
         d="m 434,123 c 2.2333,0 4,-1.7667 4,-4 v -1 c 0,2.2333 -1.7667,4 -4,4 h -12 c -2.2333,0 -4,-1.7667 -4,-4 v 1 c 0,2.2333 1.7667,4 4,4 z"
         style="color:#bebebe;display:inline;overflow:visible;visibility:visible;opacity:0.3;fill:#000000;fill-opacity:1;fill-rule:nonzero;stroke:none;stroke-width:0;marker:none;enable-background:accumulate"
         inkscape:connector-curvature="0" />
      <path
         id="path4091"
         d="m 440,83 c 3.3413,0 6,-2.6587 6,-6 v -1 c 0,3.3413 -2.6587,6 -6,6 h -16 c -3.3413,0 -6,-2.6587 -6,-6 v 1 c 0,3.3413 2.6587,6 6,6 z"
         style="color:#bebebe;display:inline;overflow:visible;visibility:visible;opacity:0.5;fill:#000000;fill-opacity:1;fill-rule:nonzero;stroke:none;stroke-width:0;marker:none;enable-background:accumulate"
         inkscape:connector-curvature="0" />
      <path
         id="path4093"
         d="m 324,265 c 4.4493,0 8,-3.5507 8,-8 v -1 c 0,4.4493 -3.5507,8 -8,8 h -24 c -4.4493,0 -8,-3.5507 -8,-8 v 1 c 0,4.4493 3.5507,8 8,8 z"
         style="color:#bebebe;display:inline;overflow:visible;visibility:visible;opacity:0.5;fill:#000000;fill-opacity:1;fill-rule:nonzero;stroke:none;stroke-width:0;marker:none;enable-background:accumulate"
         inkscape:connector-curvature="0" />
      <path
         id="path4095"
         d="m 362,120 c 9.4353,0 17,-7.5647 17,-17 v -1 c 0,9.4353 -7.5647,17 -17,17 h -52 c -9.4353,0 -17,-7.5647 -17,-17 v 1 c 0,9.4353 7.5647,17 17,17 z"
         style="color:#bebebe;display:inline;overflow:visible;visibility:visible;opacity:0.5;fill:#000000;fill-opacity:1;fill-rule:nonzero;stroke:none;stroke-width:0;marker:none;enable-background:accumulate"
         inkscape:connector-curvature="0" />
      <path
         id="path4097"
         d="m 337.5,202 c 6.3883,0 11.5,-5.1117 11.5,-11.5 v -1 c 0,6.3883 -5.1117,11.5 -11.5,11.5 h -35 c -6.3883,0 -11.5,-5.1117 -11.5,-11.5 v 1 c 0,6.3883 5.1117,11.5 11.5,11.5 z"
         style="color:#bebebe;display:inline;overflow:visible;visibility:visible;opacity:0.5;fill:#000000;fill-opacity:1;fill-rule:nonzero;stroke:none;stroke-width:0;marker:none;enable-background:accumulate"
         inkscape:connector-curvature="0" />
      <path
         inkscape:connector-curvature="0"
         id="path4280"
         d="M 84,265 C 56.836703,265 35,243.1633 35,216 v -1 c 0,27.1633 21.836703,49 49,49 h 120 c 27.1633,0 49,-21.8367 49,-49 v 1 c 0,27.1633 -21.8367,49 -49,49 z"
         style="color:#bebebe;display:inline;overflow:visible;visibility:visible;opacity:0.1;fill:#ffffff;fill-opacity:1;fill-rule:nonzero;stroke:none;stroke-width:0;marker:none;enable-background:accumulate" />
      <path
         style="color:#bebebe;display:inline;overflow:visible;visibility:visible;opacity:0.1;fill:#ffffff;fill-opacity:1;fill-rule:nonzero;stroke:none;stroke-width:0;marker:none;enable-background:accumulate"
         d="m 300,264 c -4.4493,0 -8,-3.5507 -8,-8 v -1 c 0,4.4493 3.5507,8 8,8 h 24 c 4.4493,0 8,-3.5507 8,-8 v 1 c 0,4.4493 -3.5507,8 -8,8 z"
         id="path4294"
         inkscape:connector-curvature="0" />
      <path
         style="color:#bebebe;display:inline;overflow:visible;visibility:visible;opacity:0.1;fill:#ffffff;fill-opacity:1;fill-rule:nonzero;stroke:none;stroke-width:0;marker:none;enable-background:accumulate"
         d="m 302.5,201 c -6.3883,0 -11.5,-5.1117 -11.5,-11.5 v -1 c 0,6.3883 5.1117,11.5 11.5,11.5 h 35 c 6.3883,0 11.5,-5.1117 11.5,-11.5 v 1 c 0,6.3883 -5.1117,11.5 -11.5,11.5 z"
         id="path4296"
         inkscape:connector-curvature="0" />
      <path
         style="color:#bebebe;display:inline;overflow:visible;visibility:visible;opacity:0.1;fill:#ffffff;fill-opacity:1;fill-rule:nonzero;stroke:none;stroke-width:0;marker:none;enable-background:accumulate"
         d="m 310,119 c -9.4353,0 -17,-7.5647 -17,-17 v -1 c 0,9.4353 7.5647,17 17,17 h 52 c 9.4353,0 17,-7.5647 17,-17 v 1 c 0,9.4353 -7.5647,17 -17,17 z"
         id="path4298"
         inkscape:connector-curvature="0" />
      <path
         style="color:#bebebe;display:inline;overflow:visible;visibility:visible;opacity:0.1;fill:#ffffff;fill-opacity:1;fill-rule:nonzero;stroke:none;stroke-width:0;marker:none;enable-background:accumulate"
         d="m 424,82 c -3.3413,0 -6,-2.658703 -6,-6 v -1 c 0,3.341297 2.6587,6 6,6 h 16 c 3.3413,0 6,-2.658703 6,-6 v 1 c 0,3.341297 -2.6587,6 -6,6 z"
         id="path4300"
         inkscape:connector-curvature="0" />
      <path
         style="color:#bebebe;display:inline;overflow:visible;visibility:visible;opacity:0.1;fill:#ffffff;fill-opacity:1;fill-rule:nonzero;stroke:none;stroke-width:0;marker:none;enable-background:accumulate"
         d="m 422,122 c -2.2333,0 -4,-1.7667 -4,-4 v -1 c 0,2.2333 1.7667,4 4,4 h 12 c 2.2333,0 4,-1.7667 4,-4 v 1 c 0,2.2333 -1.7667,4 -4,4 z"
         id="path4302"
         inkscape:connector-curvature="0" />
      <path
         style="color:#bebebe;display:inline;overflow:visible;visibility:visible;opacity:0.1;fill:#ffffff;fill-opacity:1;fill-rule:nonzero;stroke:none;stroke-width:0;marker:none;enable-background:accumulate"
         d="m 419,154.5 c -1.1253,0 -2,-0.8747 -2,-2 v -1 c 0,1.1253 0.8747,2 2,2 h 10 c 1.1253,0 2,-0.8747 2,-2 v 1 c 0,1.1253 -0.8747,2 -2,2 z"
         id="path4304"
         inkscape:connector-curvature="0" />
    </g>
    <g
       inkscape:groupmode="layer"
       id="layer3"
       inkscape:label="Border"
       style="display:inline"
       sodipodi:insensitive="true">
      <path
         style="color:#bebebe;display:inline;overflow:visible;visibility:visible;opacity:0.41;fill:#000000;fill-opacity:1;fill-rule:nonzero;stroke:none;stroke-width:0;marker:none;enable-background:accumulate"
         d="m 422,101 c -2.77,0 -5,2.23 -5,5 v 12 c 0,2.77 2.23,5 5,5 h 12 c 2.77,0 5,-2.23 5,-5 v -12 c 0,-2.77 -2.23,-5 -5,-5 z m 0,1 h 12 c 2.2333,0 4,1.7667 4,4 v 12 c 0,2.2333 -1.7667,4 -4,4 h -12 c -2.2333,0 -4,-1.7667 -4,-4 v -12 c 0,-2.2333 1.7667,-4 4,-4 z"
         id="rect4099"
         inkscape:connector-curvature="0" />
      <path
         style="color:#bebebe;display:inline;overflow:visible;visibility:visible;opacity:0.41;fill:#000000;fill-opacity:1;fill-rule:nonzero;stroke:none;stroke-width:0;marker:none;enable-background:accumulate"
         d="m 424,53 c -3.878,0 -7,3.122 -7,7 v 16 c 0,3.878 3.122,7 7,7 h 16 c 3.878,0 7,-3.122 7,-7 V 60 c 0,-3.878 -3.122,-7 -7,-7 z m 0,1 h 16 c 3.3413,0 6,2.658703 6,6 v 16 c 0,3.341297 -2.6587,6 -6,6 h -16 c -3.3413,0 -6,-2.658703 -6,-6 V 60 c 0,-3.341297 2.6587,-6 6,-6 z"
         id="rect4151"
         inkscape:connector-curvature="0" />
      <path
         style="color:#bebebe;display:inline;overflow:visible;visibility:visible;opacity:0.41;fill:#000000;fill-opacity:1;fill-rule:nonzero;stroke:none;stroke-width:0;marker:none;enable-background:accumulate"
         d="m 419,140 c -1.662,0 -3,1.338 -3,3 v 10 c 0,1.662 1.338,3 3,3 h 10 c 1.662,0 3,-1.338 3,-3 v -10 c 0,-1.662 -1.338,-3 -3,-3 z m 0,1 h 10 c 1.1253,0 2,0.8747 2,2 v 10 c 0,1.1253 -0.8747,2 -2,2 h -10 c -1.1253,0 -2,-0.8747 -2,-2 v -10 c 0,-1.1253 0.8747,-2 2,-2 z"
         id="rect4095"
         inkscape:connector-curvature="0" />
      <path
         style="color:#bebebe;display:inline;overflow:visible;visibility:visible;opacity:0.41;fill:#000000;fill-opacity:1;fill-rule:nonzero;stroke:none;stroke-width:0;marker:none;enable-background:accumulate"
         d="m 300,223 c -4.986,0 -9,4.014 -9,9 v 24 c 0,4.986 4.014,9 9,9 h 24 c 4.986,0 9,-4.014 9,-9 v -24 c 0,-4.986 -4.014,-9 -9,-9 z m 0,1 h 24 c 4.4493,0 8,3.5507 8,8 v 24 c 0,4.4493 -3.5507,8 -8,8 h -24 c -4.4493,0 -8,-3.5507 -8,-8 v -24 c 0,-4.4493 3.5507,-8 8,-8 z"
         id="rect4783"
         inkscape:connector-curvature="0" />
      <path
         style="color:#bebebe;display:inline;overflow:visible;visibility:visible;opacity:0.41;fill:#000000;fill-opacity:1;fill-rule:nonzero;stroke:none;stroke-width:0;marker:none;enable-background:accumulate"
         d="m 302.5,142 c -6.925,0 -12.5,5.575 -12.5,12.5 v 35 c 0,6.925 5.575,12.5 12.5,12.5 h 35 c 6.925,0 12.5,-5.575 12.5,-12.5 v -35 c 0,-6.925 -5.575,-12.5 -12.5,-12.5 z m 0,1 h 35 c 6.3883,0 11.5,5.1117 11.5,11.5 v 35 c 0,6.3883 -5.1117,11.5 -11.5,11.5 h -35 c -6.3883,0 -11.5,-5.1117 -11.5,-11.5 v -35 c 0,-6.3883 5.1117,-11.5 11.5,-11.5 z"
         id="rect4515"
         inkscape:connector-curvature="0" />
      <path
         style="color:#bebebe;display:inline;overflow:visible;visibility:visible;opacity:0.41;fill:#000000;fill-opacity:1;fill-rule:nonzero;stroke:none;stroke-width:0;marker:none;enable-background:accumulate"
         d="m 310,32 c -9.972,0 -18,8.028 -18,18 v 52 c 0,9.972 8.028,18 18,18 h 52 c 9.972,0 18,-8.028 18,-18 V 50 c 0,-9.972 -8.028,-18 -18,-18 z m 0,1 h 52 c 9.4353,0 17,7.564703 17,17 v 52 c 0,9.4353 -7.5647,17 -17,17 h -52 c -9.4353,0 -17,-7.5647 -17,-17 V 50 c 0,-9.435297 7.5647,-17 17,-17 z"
         id="rect4511"
         inkscape:connector-curvature="0" />
      <path
         style="color:#bebebe;display:inline;overflow:visible;visibility:visible;opacity:0.41;fill:#000000;fill-opacity:1;fill-rule:nonzero;stroke:none;stroke-width:0;marker:none;enable-background:accumulate"
         d="M 84,46 C 56.3,46 34,68.3 34,96 v 120 c 0,27.7 22.3,50 50,50 h 120 c 27.7,0 50,-22.3 50,-50 V 96 C 254,68.3 231.7,46 204,46 Z m 0,1 h 120 c 27.1633,0 49,21.836703 49,49 v 120 c 0,27.1633 -21.8367,49 -49,49 H 84 C 56.836703,265 35,243.1633 35,216 V 96 C 35,68.836703 56.836703,47 84,47 Z"
         id="rect4040"
         inkscape:connector-curvature="0" />
    </g>
  </g>
  <style
     type="text/css"
     id="style716">
	.st0{fill:#FF4500;}
	.st1{fill:#FFFFFF;}
	.st2{display:none;}
	.st3{display:inline;fill:none;stroke:#D8D8D8;stroke-width:0.5;stroke-miterlimit:10;}
</style>
  <style
     type="text/css"
     id="style1030">
	.st0{fill:#FF4500;}
	.st1{fill:#FFFFFF;}
	.st2{display:none;}
	.st3{display:inline;fill:none;stroke:#D8D8D8;stroke-width:0.5;stroke-miterlimit:10;}
</style>
  <style
     type="text/css"
     id="style1030-3">
	.st0{fill:#FF4500;}
	.st1{fill:#FFFFFF;}
	.st2{display:none;}
	.st3{display:inline;fill:none;stroke:#D8D8D8;stroke-width:0.5;stroke-miterlimit:10;}
</style>
  <style
     type="text/css"
     id="style1030-7">
	.st0{fill:#FF4500;}
	.st1{fill:#FFFFFF;}
	.st2{display:none;}
	.st3{display:inline;fill:none;stroke:#D8D8D8;stroke-width:0.5;stroke-miterlimit:10;}
</style>
  <style
     type="text/css"
     id="style1030-35">
	.st0{fill:#FF4500;}
	.st1{fill:#FFFFFF;}
	.st2{display:none;}
	.st3{display:inline;fill:none;stroke:#D8D8D8;stroke-width:0.5;stroke-miterlimit:10;}
</style>
  <style
     type="text/css"
     id="style1030-9">
	.st0{fill:#FF4500;}
	.st1{fill:#FFFFFF;}
	.st2{display:none;}
	.st3{display:inline;fill:none;stroke:#D8D8D8;stroke-width:0.5;stroke-miterlimit:10;}
</style>
  <style
     type="text/css"
     id="style1030-2">
	.st0{fill:#FF4500;}
	.st1{fill:#FFFFFF;}
	.st2{display:none;}
	.st3{display:inline;fill:none;stroke:#D8D8D8;stroke-width:0.5;stroke-miterlimit:10;}
</style>
  <style
     type="text/css"
     id="style1030-0">
	.st0{fill:#FF4500;}
	.st1{fill:#FFFFFF;}
	.st2{display:none;}
	.st3{display:inline;fill:none;stroke:#D8D8D8;stroke-width:0.5;stroke-miterlimit:10;}
</style>
</svg>
