<?xml version="1.0" encoding="UTF-8" standalone="no"?>
<svg
   xmlns:dc="http://purl.org/dc/elements/1.1/"
   xmlns:cc="http://creativecommons.org/ns#"
   xmlns:rdf="http://www.w3.org/1999/02/22-rdf-syntax-ns#"
   xmlns:svg="http://www.w3.org/2000/svg"
   xmlns="http://www.w3.org/2000/svg"
   xmlns:xlink="http://www.w3.org/1999/xlink"
   version="1.1"
   width="48"
   height="48"
   id="svg3901">
  <defs
     id="defs3903">
    <linearGradient
       id="linearGradient3104-6">
      <stop
         offset="0"
         style="stop-color:#000000;stop-opacity:0.31782946"
         id="stop3106-3" />
      <stop
         offset="1"
         style="stop-color:#000000;stop-opacity:0.24031007"
         id="stop3108-9" />
    </linearGradient>
    <linearGradient
       xlink:href="#linearGradient3104-6"
       id="linearGradient3170"
       gradientUnits="userSpaceOnUse"
       gradientTransform="matrix(0.80749686,0,0,0.89471714,59.410232,-2.9773433)"
       x1="-51.786404"
       y1="50.786446"
       x2="-51.786404"
       y2="2.9062471" />
    <linearGradient
       id="linearGradient2867-449-88-871-390-598-476-591-434-148-57-177-8-3">
      <stop
         id="stop3750-1-0"
         style="stop-color:#90dbec;stop-opacity:1"
         offset="0" />
      <stop
         id="stop3752-3-7"
         style="stop-color:#55c1ec;stop-opacity:1"
         offset="0.26238" />
      <stop
         id="stop3754-1-8"
         style="stop-color:#3689e6;stop-opacity:1"
         offset="0.704952" />
      <stop
         id="stop3756-1-6"
         style="stop-color:#2b63a0;stop-opacity:1"
         offset="1" />
    </linearGradient>
    <radialGradient
       xlink:href="#linearGradient2867-449-88-871-390-598-476-591-434-148-57-177-8-3"
       id="radialGradient4200"
       gradientUnits="userSpaceOnUse"
       gradientTransform="matrix(-1.5324784e-7,6.4910062,-7.6705026,-1.9484253e-7,99.953972,-58.68638)"
       cx="5.6491151"
       cy="9.9571075"
       fx="5.118885"
       fy="9.9571075"
       r="12.671875" />
  </defs>
  <metadata
     id="metadata3906">
    <rdf:RDF>
      <cc:Work
         rdf:about="">
        <dc:format>image/svg+xml</dc:format>
        <dc:type
           rdf:resource="http://purl.org/dc/dcmitype/StillImage" />
        <dc:title />
      </cc:Work>
    </rdf:RDF>
  </metadata>
  <path
     style="fill:#fafafa;fill-opacity:1;stroke:none;display:inline"
     id="path4160"
     d="m 7,1.0000001 c 7.791126,0 33.999959,0.00274 33.999959,0.00274 L 41,44 C 41,44 18.333334,44 7,44 7,29.666666 7,15.333333 7,1 z" />
  <path
     style="fill:none;stroke:url(#linearGradient3170);stroke-width:0.99992192;stroke-linecap:butt;stroke-linejoin:round;stroke-miterlimit:4;stroke-opacity:1;stroke-dasharray:none;stroke-dashoffset:0;display:inline"
     id="path4160-6-1"
     d="m 6.4999605,0.4999623 c 8.0202885,0 35.0000415,0.00298 35.0000415,0.00298 l 3.7e-5,43.9970957 c 0,0 -23.333385,0 -35.0000785,0 0,-14.666738 0,-29.333326 0,-43.9998923 z" />
  <path
     style="color:#000000;clip-rule:nonzero;display:inline;overflow:visible;visibility:visible;opacity:1;isolation:auto;mix-blend-mode:normal;color-interpolation:sRGB;color-interpolation-filters:linearRGB;solid-color:#000000;solid-opacity:1;fill:url(#radialGradient4200);fill-opacity:1;fill-rule:nonzero;stroke:none;stroke-width:1;stroke-linecap:butt;stroke-linejoin:miter;stroke-miterlimit:4;stroke-dasharray:none;stroke-dashoffset:0;stroke-opacity:1;marker:none;color-rendering:auto;image-rendering:auto;shape-rendering:auto;text-rendering:auto;enable-background:accumulate"
     d="M 25 12.966797 L 13 15.166016 L 13 31.300781 L 25 33.5 L 25 12.966797 z M 26 15.166016 L 26 17.367188 L 32.75 17.367188 L 32.75 18.099609 L 26 18.099609 L 26 19.566406 L 32.75 19.566406 L 32.75 20.300781 L 26 20.300781 L 26 21.767578 L 32.75 21.767578 L 32.75 22.5 L 26 22.5 L 26 23.966797 L 32.75 23.966797 L 32.75 24.699219 L 26 24.699219 L 26 26.166016 L 32.75 26.166016 L 32.75 26.900391 L 26 26.900391 L 26 28.367188 L 32.75 28.367188 L 32.75 29.099609 L 26 29.099609 L 26 31.300781 L 35 31.300781 L 35 15.166016 L 26 15.166016 z M 21.560547 19.498047 L 22.242188 19.498047 C 22.86937 19.498047 22.909195 19.542137 22.837891 19.865234 C 22.795441 20.057594 22.437389 21.765735 22.044922 23.667969 L 21.337891 27.128906 L 20.609375 27.128906 C 20.212449 27.128906 19.89042 27.105354 19.882812 27.083984 C 19.875212 27.062614 19.646742 25.930399 19.375 24.5625 C 19.103258 23.194602 18.844827 22.164729 18.800781 22.292969 C 18.756731 22.421209 18.526488 23.547413 18.294922 24.769531 L 17.875 26.992188 L 17.212891 26.945312 L 16.529297 26.900391 L 15.978516 23.851562 C 15.67083 22.184435 15.379478 20.640273 15.337891 20.414062 C 15.269091 20.0398 15.315894 19.992405 15.800781 19.933594 C 16.476391 19.851654 16.505903 19.924594 16.904297 22.615234 C 17.074496 23.764741 17.21324 24.72211 17.236328 24.746094 C 17.259418 24.770084 17.499922 23.680044 17.763672 22.339844 C 18.027422 20.999643 18.324105 19.862014 18.425781 19.794922 C 18.718406 19.60183 19.540645 19.651271 19.617188 19.865234 C 19.655417 19.972101 19.893105 21.127862 20.125 22.431641 C 20.512975 24.612947 20.785933 25.406243 20.787109 24.355469 C 20.78756 23.9358 21.096917 21.932138 21.404297 20.322266 L 21.560547 19.498047 z "
     id="path4198" />
</svg>
