<?xml version="1.0" encoding="UTF-8" standalone="no"?>
<svg
   xmlns:dc="http://purl.org/dc/elements/1.1/"
   xmlns:cc="http://creativecommons.org/ns#"
   xmlns:rdf="http://www.w3.org/1999/02/22-rdf-syntax-ns#"
   xmlns:svg="http://www.w3.org/2000/svg"
   xmlns="http://www.w3.org/2000/svg"
   xmlns:xlink="http://www.w3.org/1999/xlink"
   id="svg3901"
   height="48"
   width="48"
   version="1.1">
  <defs
     id="defs3903">
    <linearGradient
       id="linearGradient3104-6">
      <stop
         id="stop3106-3"
         style="stop-color:#000000;stop-opacity:0.31782946"
         offset="0" />
      <stop
         id="stop3108-9"
         style="stop-color:#000000;stop-opacity:0.24031007"
         offset="1" />
    </linearGradient>
    <linearGradient
       y2="2.9062471"
       x2="-51.786404"
       y1="50.786446"
       x1="-51.786404"
       gradientTransform="matrix(0.80749686,0,0,0.89471714,59.410232,-2.9773433)"
       gradientUnits="userSpaceOnUse"
       id="linearGradient3170"
       xlink:href="#linearGradient3104-6" />
  </defs>
  <metadata
     id="metadata3906">
    <rdf:RDF>
      <cc:Work
         rdf:about="">
        <dc:format>image/svg+xml</dc:format>
        <dc:type
           rdf:resource="http://purl.org/dc/dcmitype/StillImage" />
        <dc:title />
      </cc:Work>
    </rdf:RDF>
  </metadata>
  <path
     d="m 7,1.0000001 c 7.791126,0 33.999959,0.00274 33.999959,0.00274 L 41,44 C 41,44 18.333334,44 7,44 7,29.666666 7,15.333333 7,1 z"
     id="path4160"
     style="fill:#fafafa;fill-opacity:1;stroke:none;display:inline" />
  <path
     d="m 6.4999605,0.4999623 c 8.0202885,0 35.0000415,0.00298 35.0000415,0.00298 l 3.7e-5,43.9970957 c 0,0 -23.333385,0 -35.0000785,0 0,-14.666738 0,-29.333326 0,-43.9998923 z"
     id="path4160-6-1"
     style="fill:none;stroke:url(#linearGradient3170);stroke-width:0.99992192;stroke-linecap:butt;stroke-linejoin:round;stroke-miterlimit:4;stroke-opacity:1;stroke-dasharray:none;stroke-dashoffset:0;display:inline" />
  <path
     style="color:#000000;display:inline;overflow:visible;visibility:visible;fill:#0093dd;fill-opacity:1;fill-rule:nonzero;stroke:none;stroke-width:1;marker:none;enable-background:accumulate"
     d="m 23.999998,9.9940541 c -4.431999,0 -7.999997,3.5679979 -7.999997,7.9999989 v 3.997448 H 15 v 6.095997 l 0.406249,-0.531249 c 0.58133,-0.780701 2.130812,-1.895799 3.343752,-2.374999 0.639031,-0.2525 2.173396,-0.529551 3.906249,-0.718752 2.610848,-0.293399 7.543627,-0.470999 9.343749,-2.470997 v -3.997448 c 0,-4.432001 -3.567997,-7.9999989 -8.000001,-7.9999989 z m 0.656252,0.9687499 c 0.379168,0.0221 0.750798,0.06628 1.125,0.156258 1.344369,0.323098 1.496152,0.6343 0.187507,0.375001 -2.058991,-0.4081 -4.793763,0.5085 -6.468748,2.1875 -0.50085,0.502099 -1.132725,1.333447 -1.40625,1.843747 -0.563565,1.051501 -0.474903,0.374251 0.124992,-0.906247 1.096803,-2.341151 3.78333,-3.811126 6.437499,-3.656259 z m -0.656252,3.031248 C 26.216,13.994052 28,15.778052 28,17.994053 v 3.997448 h -7.999999 v -3.997448 c 0,-2.216001 1.783999,-4.000001 3.999997,-4.000001 z M 33,24.156251 l -1.062498,0.875 c -0.577502,0.491398 -1.481253,1.1639 -2.031252,1.499999 -1.125632,0.687899 -3.794346,1.656249 -4.593751,1.656249 -0.300685,0 -0.476957,0.07281 -0.406247,0.187509 0.133254,0.216 1.731034,0.118836 3.406249,-0.218748 0.550001,-0.110718 1.826246,-0.609801 2.843748,-1.125002 L 33,26.093758 v -0.968749 z m 0,2.156251 -0.562502,0.781248 c -1.865714,2.5717 -4.903767,3.9967 -9.124997,4.25 -2.819488,0.169092 -1.787198,0.49 1.593751,0.499999 2.290275,0.0032 2.806509,-0.06644 4.187496,-0.531249 0.863973,-0.2907 1.581403,-0.512751 1.625001,-0.468749 0.15732,0.157608 -1.532958,1.556248 -2.468751,2.031248 -1.793,0.9101 -3.013938,1.1655 -6.249998,1.312499 -2.298803,0.1044 -3.24257,0.22325 -3.687498,0.468752 C 17.745958,34.968248 18.120313,34.989999 25.343751,35 H 33 Z"
     id="rect3164" />
</svg>
