<?xml version="1.0" encoding="UTF-8" standalone="no"?>
<svg
   xmlns:dc="http://purl.org/dc/elements/1.1/"
   xmlns:cc="http://creativecommons.org/ns#"
   xmlns:rdf="http://www.w3.org/1999/02/22-rdf-syntax-ns#"
   xmlns:svg="http://www.w3.org/2000/svg"
   xmlns="http://www.w3.org/2000/svg"
   xmlns:xlink="http://www.w3.org/1999/xlink"
   version="1.1"
   width="48"
   height="48"
   id="svg3901">
  <defs
     id="defs3903">
    <linearGradient
       id="linearGradient3104-6">
      <stop
         offset="0"
         style="stop-color:#000000;stop-opacity:0.31782946"
         id="stop3106-3" />
      <stop
         offset="1"
         style="stop-color:#000000;stop-opacity:0.24031007"
         id="stop3108-9" />
    </linearGradient>
    <linearGradient
       xlink:href="#linearGradient3104-6"
       id="linearGradient3170"
       gradientUnits="userSpaceOnUse"
       gradientTransform="matrix(0.80749686,0,0,0.89471714,59.410232,-2.9773433)"
       x1="-51.786404"
       y1="50.786446"
       x2="-51.786404"
       y2="2.9062471" />
    <linearGradient
       id="linearGradient1028">
      <stop
         id="stop1024"
         offset="0"
         style="stop-color:#64baff;stop-opacity:1" />
      <stop
         id="stop1026"
         offset="1"
         style="stop-color:#3689e6;stop-opacity:1" />
    </linearGradient>
    <linearGradient
       xlink:href="#linearGradient1028"
       id="linearGradient847"
       x1="25"
       y1="4.4756098"
       x2="25"
       y2="40.464466"
       gradientUnits="userSpaceOnUse"
       gradientTransform="matrix(1.2,0,0,1.2,-4.7999998,-4.5)" />
  </defs>
  <metadata
     id="metadata3906">
    <rdf:RDF>
      <cc:Work
         rdf:about="">
        <dc:format>image/svg+xml</dc:format>
        <dc:type
           rdf:resource="http://purl.org/dc/dcmitype/StillImage" />
        <dc:title />
      </cc:Work>
    </rdf:RDF>
  </metadata>
  <path
     style="fill:#fafafa;fill-opacity:1;stroke:none;display:inline"
     id="path4160"
     d="m 7,1.0000001 c 7.791126,0 33.999959,0.00274 33.999959,0.00274 L 41,44 C 41,44 18.333334,44 7,44 7,29.666666 7,15.333333 7,1 z" />
  <path
     style="fill:none;stroke:url(#linearGradient3170);stroke-width:0.99992192;stroke-linecap:butt;stroke-linejoin:round;stroke-miterlimit:4;stroke-opacity:1;stroke-dasharray:none;stroke-dashoffset:0;display:inline"
     id="path4160-6-1"
     d="m 6.4999605,0.4999623 c 8.0202885,0 35.0000415,0.00298 35.0000415,0.00298 l 3.7e-5,43.9970957 c 0,0 -23.333385,0 -35.0000785,0 0,-14.666738 0,-29.333326 0,-43.9998923 z" />
  <path
     style="display:inline;fill:url(#linearGradient847);fill-opacity:1.0;stroke:none;stroke-width:0.20111142"
     d="M 24,10.5 A 11.217391,12 0 0 0 12.782813,22.5 11.217391,12 0 0 0 24,34.5 11.217391,12 0 0 0 35.217187,22.5 11.217391,12 0 0 0 24,10.5 Z m 0.210937,3.346874 c 4.341558,0.08731 7.860939,3.819156 7.860938,8.528907 0,4.70975 -3.518451,8.526563 -7.860938,8.526563 -4.342477,0 -7.86328,-3.816813 -7.86328,-8.526563 0,-4.709751 3.020023,-8.626308 7.86328,-8.528907 z m -1.58203,5.932032 a 2.7694501,1.7152097 86.476131 0 0 -1.546876,2.86172 2.7694501,1.7152097 86.476131 0 0 1.877344,2.667187 2.7694501,1.7152097 86.476131 0 0 1.546875,-2.861719 2.7694501,1.7152097 86.476131 0 0 -1.877343,-2.667188 z M 27.925781,20.025 a 1.448608,2.5382035 3.7191555 0 0 -1.5,2.451563 1.448608,2.5382035 3.7191555 0 0 1.289063,2.615624 1.448608,2.5382035 3.7191555 0 0 1.603125,-2.451561 1.448608,2.5382035 3.7191555 0 0 -1.289062,-2.615626 1.448608,2.5382035 3.7191555 0 0 -0.103126,0 z"
     id="path11995-1-2-2-9-1" />
</svg>
