<?xml version="1.0" encoding="UTF-8" standalone="no"?>
<svg
   xmlns:dc="http://purl.org/dc/elements/1.1/"
   xmlns:cc="http://creativecommons.org/ns#"
   xmlns:rdf="http://www.w3.org/1999/02/22-rdf-syntax-ns#"
   xmlns:svg="http://www.w3.org/2000/svg"
   xmlns="http://www.w3.org/2000/svg"
   xmlns:xlink="http://www.w3.org/1999/xlink"
   version="1.1"
   width="48"
   height="48"
   id="svg3901">
  <defs
     id="defs3903">
    <linearGradient
       id="linearGradient4160">
      <stop
         id="stop4162"
         offset="0"
         style="stop-color:#abacae;stop-opacity:1" />
      <stop
         id="stop4164"
         offset="1"
         style="stop-color:#7e8087;stop-opacity:1" />
    </linearGradient>
    <linearGradient
       id="linearGradient3104-6">
      <stop
         offset="0"
         style="stop-color:#000000;stop-opacity:0.31782946"
         id="stop3106-3" />
      <stop
         offset="1"
         style="stop-color:#000000;stop-opacity:0.24031007"
         id="stop3108-9" />
    </linearGradient>
    <linearGradient
       xlink:href="#linearGradient3104-6"
       id="linearGradient3170"
       gradientUnits="userSpaceOnUse"
       gradientTransform="matrix(0.80749686,0,0,0.89471714,59.410232,-2.9773433)"
       x1="-51.786404"
       y1="50.786446"
       x2="-51.786404"
       y2="2.9062471" />
    <linearGradient
       xlink:href="#linearGradient4160"
       id="linearGradient4158"
       x1="25"
       y1="0"
       x2="25"
       y2="45"
       gradientUnits="userSpaceOnUse" />
  </defs>
  <metadata
     id="metadata3906">
    <rdf:RDF>
      <cc:Work
         rdf:about="">
        <dc:format>image/svg+xml</dc:format>
        <dc:type
           rdf:resource="http://purl.org/dc/dcmitype/StillImage" />
        <dc:title />
      </cc:Work>
    </rdf:RDF>
  </metadata>
  <path
     style="fill:#fafafa;fill-opacity:1;stroke:none;display:inline"
     id="path4160"
     d="m 7,1.0000001 c 7.791126,0 33.999959,0.00274 33.999959,0.00274 L 41,44 C 41,44 18.333334,44 7,44 7,29.666666 7,15.333333 7,1 z" />
  <path
     style="fill:none;stroke:url(#linearGradient3170);stroke-width:0.99992192;stroke-linecap:butt;stroke-linejoin:round;stroke-miterlimit:4;stroke-opacity:1;stroke-dasharray:none;stroke-dashoffset:0;display:inline"
     id="path4160-6-1"
     d="m 6.4999605,0.4999623 c 8.0202885,0 35.0000415,0.00298 35.0000415,0.00298 l 3.7e-5,43.9970957 c 0,0 -23.333385,0 -35.0000785,0 0,-14.666738 0,-29.333326 0,-43.9998923 z" />
  <path
     style="color:#000000;display:inline;overflow:visible;visibility:visible;fill:url(#linearGradient4158);fill-opacity:1;fill-rule:nonzero;stroke:none;stroke-width:20;marker:none;enable-background:new"
     d="m 24,9.83333 c -5.676,0 -12,1.91669 -12,4.66668 0,2.75 6.324,4.66667 12,4.66667 5.676,0 12,-1.91667 12,-4.66667 0,-2.74999 -6.324,-4.66668 -12,-4.66668 z m -12,7.29168 0,2.70834 c 0,2.74998 6.324,4.66667 12,4.66667 5.676,0 12,-1.91669 12,-4.66667 l 0,-2.70834 c -2.13384,2.00658 -6.63998,3.375 -12,3.375 -5.36002,0 -9.86616,-1.36842 -12,-3.375 z m 0,5.33334 0,2.70832 c 0,2.75 6.324,4.66668 12,4.66668 5.676,0 12,-1.91668 12,-4.66668 l 0,-2.70832 c -2.13384,2.00657 -6.63998,3.375 -12,3.375 -5.36002,0 -9.86616,-1.36843 -12,-3.375 z m 0,5.33332 0,2.70834 c 0,2.74999 6.324,4.66666 12,4.66666 5.676,0 12,-1.91667 12,-4.66666 l 0,-2.70834 c -2.13384,2.00659 -6.63998,3.375 -12,3.375 -5.36002,0 -9.86616,-1.36841 -12,-3.375 z"
     id="path3847" />
</svg>
