<?xml version="1.0" encoding="UTF-8" standalone="no"?>
<svg
   xmlns:dc="http://purl.org/dc/elements/1.1/"
   xmlns:cc="http://creativecommons.org/ns#"
   xmlns:rdf="http://www.w3.org/1999/02/22-rdf-syntax-ns#"
   xmlns:svg="http://www.w3.org/2000/svg"
   xmlns="http://www.w3.org/2000/svg"
   id="svg3901"
   height="48"
   width="48"
   version="1.1">
  <defs
     id="defs3903" />
  <metadata
     id="metadata3906">
    <rdf:RDF>
      <cc:Work
         rdf:about="">
        <dc:format>image/svg+xml</dc:format>
        <dc:type
           rdf:resource="http://purl.org/dc/dcmitype/StillImage" />
        <dc:title />
      </cc:Work>
    </rdf:RDF>
  </metadata>
  <path
     d="M 6.4999609,0.497199 C 14.520256,0.497199 41.5,0.5 41.5,0.5 l 4.2e-5,44.002803 c 0,0 -23.333387,0 -35.0000811,0 0,-14.668535 0,-29.33707 0,-44.00560407 z"
     id="path4160"
     style="fill:#fafafa;fill-opacity:1;stroke:none;display:inline" />
  <path
     d="M 6.4999609,0.497199 C 14.520256,0.497199 41.5,0.5 41.5,0.5 l 4.2e-5,44.002803 c 0,0 -23.333387,0 -35.0000811,0 0,-14.668535 0,-29.33707 0,-44.00560407 z"
     id="path4160-9"
     style="opacity:0.3;fill:none;stroke:#000000;stroke-width:0.99992186;stroke-linecap:butt;stroke-linejoin:round;stroke-miterlimit:4;stroke-opacity:1;stroke-dasharray:none;stroke-dashoffset:0;display:inline" />
  <path
     d="m 33.521312,11.014267 c -3.741719,-0.219241 -7.171601,2.116389 -9.269053,5.07321 -1.528666,2.048459 -2.476821,4.44075 -3.320432,6.83016 -1.120467,2.65204 -2.603936,5.465755 -5.274478,6.825495 -0.71817,0.435323 -1.561997,0.393303 -2.345286,0.443957 -0.509138,0.293069 -0.223603,0.972715 -0.298007,1.445952 0.01295,1.314144 -0.0256,2.632852 0.01869,3.944229 0.220716,0.611979 1.042202,0.358095 1.528654,0.42273 3.540696,-0.02197 6.879039,-2.011377 8.8291,-4.929008 0.870023,-1.24824 1.534556,-2.631793 2.039941,-4.065091 2.063094,-0.01396 4.131319,0.02785 6.19123,-0.02076 0.590612,-0.214979 0.310546,-0.953092 0.374827,-1.423776 -0.01415,-1.408496 0.02808,-2.822208 -0.02072,-4.227508 -0.214612,-0.591635 -0.951445,-0.311083 -1.421314,-0.375476 -0.753701,0 -1.507402,0 -2.261102,0 1.039207,-2.1503 2.800092,-4.336863 5.329746,-4.603412 0.580272,-0.223168 0.299415,-0.953498 0.364986,-1.423519 -0.02463,-1.195468 0.04917,-2.403352 -0.0367,-3.59115 -0.0686,-0.17772 -0.240697,-0.308175 -0.430077,-0.326034 z"
     id="path3892"
     style="opacity:1;color:#000000;fill:#cd3436;fill-opacity:1;fill-rule:nonzero;stroke:none;stroke-width:1;marker:none;visibility:visible;display:inline;overflow:visible;enable-background:accumulate;" />
</svg>
