<?xml version="1.0" encoding="UTF-8" standalone="no"?>
<svg
   xmlns:dc="http://purl.org/dc/elements/1.1/"
   xmlns:cc="http://creativecommons.org/ns#"
   xmlns:rdf="http://www.w3.org/1999/02/22-rdf-syntax-ns#"
   xmlns:svg="http://www.w3.org/2000/svg"
   xmlns="http://www.w3.org/2000/svg"
   xmlns:xlink="http://www.w3.org/1999/xlink"
   id="svg3901"
   height="48"
   width="48"
   version="1.1">
  <defs
     id="defs3903">
    <linearGradient
       id="linearGradient3104-6">
      <stop
         id="stop3106-3"
         style="stop-color:#000000;stop-opacity:0.31782946"
         offset="0" />
      <stop
         id="stop3108-9"
         style="stop-color:#000000;stop-opacity:0.24031007"
         offset="1" />
    </linearGradient>
    <linearGradient
       y2="2.9062471"
       x2="-51.786404"
       y1="50.786446"
       x1="-51.786404"
       gradientTransform="matrix(0.80749686,0,0,0.89471714,59.410232,-2.9773433)"
       gradientUnits="userSpaceOnUse"
       id="linearGradient3170"
       xlink:href="#linearGradient3104-6" />
    <linearGradient
       xlink:href="#linearGradient937"
       id="linearGradient4514"
       gradientUnits="userSpaceOnUse"
       gradientTransform="matrix(1.1062984,0.29511675,-0.17921718,0.66592164,2.025427,-3.080273)"
       x1="17.231043"
       y1="-2.1010971"
       x2="27.191767"
       y2="59.385937" />
    <linearGradient
       xlink:href="#linearGradient4169"
       id="linearGradient911"
       x1="61"
       y1="63"
       x2="67"
       y2="63"
       gradientUnits="userSpaceOnUse" />
    <linearGradient
       id="linearGradient4169">
      <stop
         style="stop-color:#43d6b5;stop-opacity:1"
         offset="0"
         id="stop4171" />
      <stop
         style="stop-color:#0e9a83;stop-opacity:1"
         offset="1"
         id="stop4173" />
    </linearGradient>
    <linearGradient
       xlink:href="#linearGradient937"
       id="linearGradient913"
       gradientUnits="userSpaceOnUse"
       x1="60.520607"
       y1="1.5206056"
       x2="60.551304"
       y2="118.53259" />
    <linearGradient
       id="linearGradient937">
      <stop
         id="stop933"
         offset="0"
         style="stop-color:#9bdb4d;stop-opacity:1" />
      <stop
         id="stop935"
         offset="1"
         style="stop-color:#3a9104;stop-opacity:1" />
    </linearGradient>
  </defs>
  <metadata
     id="metadata3906">
    <rdf:RDF>
      <cc:Work
         rdf:about="">
        <dc:format>image/svg+xml</dc:format>
        <dc:type
           rdf:resource="http://purl.org/dc/dcmitype/StillImage" />
        <dc:title />
      </cc:Work>
    </rdf:RDF>
  </metadata>
  <path
     d="m 7,1.0000001 c 7.791126,0 33.999959,0.00274 33.999959,0.00274 L 41,44 C 41,44 18.333334,44 7,44 7,29.666666 7,15.333333 7,1 z"
     id="path4160"
     style="fill:#fafafa;fill-opacity:1;stroke:none;display:inline" />
  <path
     d="m 6.4999605,0.4999623 c 8.0202885,0 35.0000415,0.00298 35.0000415,0.00298 l 3.7e-5,43.9970957 c 0,0 -23.333385,0 -35.0000785,0 0,-14.666738 0,-29.333326 0,-43.9998923 z"
     id="path4160-6-1"
     style="fill:none;stroke:url(#linearGradient3170);stroke-width:0.99992192;stroke-linecap:butt;stroke-linejoin:round;stroke-miterlimit:4;stroke-opacity:1;stroke-dasharray:none;stroke-dashoffset:0;display:inline" />
  <path
     style="color:#000000;font-style:normal;font-variant:normal;font-weight:600;font-stretch:normal;font-size:19px;line-height:125%;font-family:'Open Sans';-inkscape-font-specification:'Open Sans Semi-Bold';text-align:start;letter-spacing:0px;word-spacing:0px;writing-mode:lr-tb;text-anchor:start;clip-rule:nonzero;display:inline;overflow:visible;visibility:visible;opacity:1;isolation:auto;mix-blend-mode:normal;color-interpolation:sRGB;color-interpolation-filters:linearRGB;solid-color:#000000;solid-opacity:1;fill:url(#linearGradient4514);fill-opacity:1.0;fill-rule:nonzero;stroke:none;stroke-width:1;stroke-linecap:butt;stroke-linejoin:miter;stroke-miterlimit:4;stroke-dasharray:none;stroke-dashoffset:0;stroke-opacity:1;marker:none;color-rendering:auto;image-rendering:auto;shape-rendering:auto;text-rendering:auto;enable-background:accumulate"
     d="m 21,17 c -1.445369,1.4e-5 -2.211493,0.214124 -2.9375,0.65625 C 17.343145,18.092426 17,18.786686 17,19.71875 L 17,21.5 c 0,0.555667 -0.2479,0.943915 -0.6875,1.21875 -0.432945,0.268875 -0.413312,0.437506 -1.3125,0.4375 l 0,1.6875 c 1.771732,4e-6 2,0.576183 2,1.6875 l 0,1.53125 c 0,1.021697 0.32727,1.79591 1,2.25 0.679383,0.46006 1.461383,0.675547 3,0.6875 l 0,-1.625 C 20.234018,29.36305 19.839687,29.219692 19.5,28.96875 19.1603,28.717807 19,28.364937 19,27.875 l 0,-1.6875 c 0,-1.20094 -0.599714,-1.909901 -2.125,-2.125 l 0,-0.125 C 18.400286,23.704487 19,22.970251 19,21.78125 L 19,20.125 c 0,-0.489927 0.1603,-0.81752 0.5,-1.0625 0.346348,-0.250932 0.740679,-0.407615 1.5,-0.4375 z m 6,0 0,1.625 c 0.759321,0.02989 1.153652,0.186568 1.5,0.4375 0.3397,0.24498 0.5,0.572573 0.5,1.0625 l 0,1.65625 c 0,1.189001 0.599714,1.923237 2.125,2.15625 l 0,0.125 C 29.599714,24.277599 29,24.98656 29,26.1875 l 0,1.6875 c 0,0.489937 -0.1603,0.842807 -0.5,1.09375 -0.339687,0.250942 -0.734018,0.3943 -1.5,0.40625 L 27,31 c 1.538617,-0.01195 2.320617,-0.22744 3,-0.6875 0.67273,-0.45409 1,-1.228303 1,-2.25 l 0,-1.53125 c 0,-1.111317 0.228268,-1.687496 2,-1.6875 l 0,-1.6875 c -0.899188,6e-6 -0.879555,-0.168625 -1.3125,-0.4375 C 31.2479,22.443915 31,22.055667 31,21.5 l 0,-1.78125 C 31,18.786686 30.656855,18.092426 29.9375,17.65625 29.211493,17.214124 28.445369,17.000014 27,17 Z"
     id="path3873-9" />
  <g
     transform="matrix(0.5,0,0,0.5,-8.5,-5.5)"
     aria-label=";"
     style="font-style:normal;font-weight:normal;font-size:40px;line-height:1.25;font-family:sans-serif;letter-spacing:0px;word-spacing:0px;fill:url(#linearGradient911);fill-opacity:1;stroke:none"
     id="text828">
    <path
       d="m 63,51 h 4 v 4 h -4 z m 0,10 h 4 v 3 l -3,5 h -3 l 2,-5 z"
       style="font-style:normal;font-variant:normal;font-weight:normal;font-stretch:normal;font-size:32px;font-family:'Noto Sans Gothic';-inkscape-font-specification:'Noto Sans Gothic, Normal';font-variant-ligatures:normal;font-variant-caps:normal;font-variant-numeric:normal;font-feature-settings:normal;text-align:start;writing-mode:lr-tb;text-anchor:start;fill:url(#linearGradient913);fill-opacity:1"
       id="path832" />
  </g>
</svg>
