<?xml version="1.0" encoding="UTF-8" standalone="no"?>
<svg
   xmlns:dc="http://purl.org/dc/elements/1.1/"
   xmlns:cc="http://creativecommons.org/ns#"
   xmlns:rdf="http://www.w3.org/1999/02/22-rdf-syntax-ns#"
   xmlns:svg="http://www.w3.org/2000/svg"
   xmlns="http://www.w3.org/2000/svg"
   xmlns:xlink="http://www.w3.org/1999/xlink"
   id="svg3901"
   height="48"
   width="48"
   version="1.1">
  <defs
     id="defs3903">
    <linearGradient
       id="linearGradient3104-6">
      <stop
         id="stop3106-3"
         style="stop-color:#000000;stop-opacity:0.31782946"
         offset="0" />
      <stop
         id="stop3108-9"
         style="stop-color:#000000;stop-opacity:0.24031007"
         offset="1" />
    </linearGradient>
    <linearGradient
       y2="2.9062471"
       x2="-51.786404"
       y1="50.786446"
       x1="-51.786404"
       gradientTransform="matrix(0.80749686,0,0,0.89471714,59.410232,-2.9773433)"
       gradientUnits="userSpaceOnUse"
       id="linearGradient3170"
       xlink:href="#linearGradient3104-6" />
    <radialGradient
       xlink:href="#linearGradient2867-449-88-871-390-598-476-591-434-148-57-177-8-3-3-6-4-8-8-8-5"
       id="radialGradient4147-1"
       gradientUnits="userSpaceOnUse"
       gradientTransform="matrix(0,11.480558,-14.094457,0,165.34461,-102.05175)"
       cx="6.7304144"
       cy="9.9571075"
       fx="6.2001843"
       fy="9.9571075"
       r="12.671875" />
    <linearGradient
       id="linearGradient2867-449-88-871-390-598-476-591-434-148-57-177-8-3-3-6-4-8-8-8-5">
      <stop
         offset="0"
         style="stop-color:#919caf;stop-opacity:1;"
         id="stop3750-1-0-7-6-6-1-3-9-3" />
      <stop
         offset="0.26238"
         style="stop-color:#68758e;stop-opacity:1;"
         id="stop3752-3-7-4-0-32-8-923-0-7" />
      <stop
         offset="0.704952"
         style="stop-color:#485a6c;stop-opacity:1;"
         id="stop3754-1-8-5-2-7-6-7-1-9" />
      <stop
         offset="1"
         style="stop-color:#444c5c;stop-opacity:1;"
         id="stop3756-1-6-2-6-6-1-96-6-0" />
    </linearGradient>
  </defs>
  <metadata
     id="metadata3906">
    <rdf:RDF>
      <cc:Work
         rdf:about="">
        <dc:format>image/svg+xml</dc:format>
        <dc:type
           rdf:resource="http://purl.org/dc/dcmitype/StillImage" />
        <dc:title />
      </cc:Work>
    </rdf:RDF>
  </metadata>
  <path
     d="m 7,1.0000001 c 7.791126,0 33.999959,0.00274 33.999959,0.00274 L 41,44 C 41,44 18.333334,44 7,44 7,29.666666 7,15.333333 7,1 z"
     id="path4160"
     style="fill:#fafafa;fill-opacity:1;stroke:none;display:inline" />
  <path
     d="m 6.4999605,0.4999623 c 8.0202885,0 35.0000415,0.00298 35.0000415,0.00298 l 3.7e-5,43.9970957 c 0,0 -23.333385,0 -35.0000785,0 0,-14.666738 0,-29.333326 0,-43.9998923 z"
     id="path4160-6-1"
     style="fill:none;stroke:url(#linearGradient3170);stroke-width:0.99992192;stroke-linecap:butt;stroke-linejoin:round;stroke-miterlimit:4;stroke-opacity:1;stroke-dasharray:none;stroke-dashoffset:0;display:inline" />
  <path
     style="color:#000000;clip-rule:nonzero;display:inline;overflow:visible;visibility:visible;opacity:1;isolation:auto;mix-blend-mode:normal;color-interpolation:sRGB;color-interpolation-filters:linearRGB;solid-color:#000000;solid-opacity:1;fill:url(#radialGradient4147-1);fill-opacity:1;fill-rule:nonzero;stroke:none;stroke-width:0.99999994;stroke-linecap:butt;stroke-linejoin:miter;stroke-miterlimit:4;stroke-dasharray:none;stroke-dashoffset:0;stroke-opacity:1;marker:none;color-rendering:auto;image-rendering:auto;shape-rendering:auto;text-rendering:auto;enable-background:accumulate"
     d="m 22.285714,11 c -0.308512,0 -0.565606,1.191586 -0.716518,2.894531 a 9.4285714,9.4285714 0 0 0 -2.27846,0.95759 c -1.316183,-1.103097 -2.344314,-1.768967 -2.563057,-1.550224 l -2.425782,2.425782 c -0.218743,0.218743 0.447127,1.246874 1.550224,2.563057 a 9.4285714,9.4285714 0 0 0 -0.949219,2.27846 C 13.195186,20.719963 12,20.976685 12,21.285714 l 0,3.428572 c 0,0.308512 1.191586,0.565606 2.894531,0.716518 a 9.4285714,9.4285714 0 0 0 0.954241,2.283482 c -1.100589,1.313826 -1.765355,2.339555 -1.546875,2.558035 l 2.425782,2.425782 c 0.218274,0.218274 1.242712,-0.444905 2.554687,-1.543527 a 9.4285714,9.4285714 0 0 0 2.28683,0.942522 C 21.719963,33.804814 21.976685,35 22.285714,35 l 3.428572,0 c 0.308512,0 0.565606,-1.191586 0.716518,-2.894531 a 9.4285714,9.4285714 0 0 0 2.27846,-0.95759 c 1.316183,1.103097 2.344314,1.768967 2.563057,1.550224 l 2.425782,-2.425782 c 0.218743,-0.218743 -0.447127,-1.246874 -1.550224,-2.563057 a 9.4285714,9.4285714 0 0 0 0.949219,-2.27846 C 34.804814,25.280037 36,25.023315 36,24.714286 l 0,-3.428572 c 0,-0.308512 -1.191586,-0.565606 -2.894531,-0.716518 a 9.4285714,9.4285714 0 0 0 -0.954241,-2.283482 c 1.100589,-1.313826 1.765355,-2.339555 1.546875,-2.558035 l -2.425782,-2.425782 c -0.218274,-0.218274 -1.242712,0.444905 -2.554687,1.543527 a 9.4285714,9.4285714 0 0 0 -2.28683,-0.942522 C 26.280037,12.195186 26.023315,11 25.714286,11 l -3.428572,0 z M 24,18.714286 A 4.2857143,4.2857143 0 0 1 28.285714,23 4.2857143,4.2857143 0 0 1 24,27.285714 4.2857143,4.2857143 0 0 1 19.714286,23 4.2857143,4.2857143 0 0 1 24,18.714286 Z"
     id="path4690" />
</svg>
