<?xml version="1.0" encoding="UTF-8" standalone="no"?>
<svg
   xmlns:dc="http://purl.org/dc/elements/1.1/"
   xmlns:cc="http://creativecommons.org/ns#"
   xmlns:rdf="http://www.w3.org/1999/02/22-rdf-syntax-ns#"
   xmlns:svg="http://www.w3.org/2000/svg"
   xmlns="http://www.w3.org/2000/svg"
   xmlns:xlink="http://www.w3.org/1999/xlink"
   viewBox="0 0 48 48"
   version="1.1"
   width="48"
   height="48"
   id="svg3901">
  <defs
     id="defs3903">
    <linearGradient
       id="linearGradient3104-6">
      <stop
         offset="0"
         style="stop-color:#000000;stop-opacity:0.31782946"
         id="stop3106-3" />
      <stop
         offset="1"
         style="stop-color:#000000;stop-opacity:0.24031007"
         id="stop3108-9" />
    </linearGradient>
    <linearGradient
       xlink:href="#linearGradient3104-6"
       id="linearGradient3170"
       gradientUnits="userSpaceOnUse"
       gradientTransform="matrix(0.80749686,0,0,0.89471714,59.410232,-2.9773433)"
       x1="-51.786404"
       y1="50.786446"
       x2="-51.786404"
       y2="2.9062471" />
    <linearGradient
       id="linearGradient2867-449-88-871-390-598-476-591-434-148-57-177-8-3-3">
      <stop
         id="stop3750-1-0-7"
         style="stop-color:#ffcd7d;stop-opacity:1"
         offset="0" />
      <stop
         id="stop3752-3-7-4"
         style="stop-color:#fc8f36;stop-opacity:1"
         offset="0.26238" />
      <stop
         id="stop3754-1-8-5"
         style="stop-color:#e23a0e;stop-opacity:1"
         offset="0.704952" />
      <stop
         id="stop3756-1-6-2"
         style="stop-color:#ac441f;stop-opacity:1"
         offset="1" />
    </linearGradient>
    <radialGradient
       xlink:href="#linearGradient2867-449-88-871-390-598-476-591-434-148-57-177-8-3-3"
       id="radialGradient3417"
       gradientUnits="userSpaceOnUse"
       gradientTransform="matrix(0,6.9817166,-8.7785274,0,154.13018,-148.90487)"
       cx="18.1481"
       cy="16.231987"
       fx="18.1481"
       fy="16.231987"
       r="12.671875" />
  </defs>
  <metadata
     id="metadata3906">
    <rdf:RDF>
      <cc:Work
         rdf:about="">
        <dc:format>image/svg+xml</dc:format>
        <dc:type
           rdf:resource="http://purl.org/dc/dcmitype/StillImage" />
        <dc:title />
      </cc:Work>
    </rdf:RDF>
  </metadata>
  <path
     style="display:inline;fill:#fafafa;fill-opacity:1;stroke:none"
     id="path4160"
     d="m 6.9999997,1.0000003 c 7.7911263,0 33.9999593,0.00274 33.9999593,0.00274 L 41,44 c 0,0 -22.666666,0 -34.0000003,0 0,-14.333334 0,-28.666667 0,-42.9999997 z" />
  <path
     style="display:inline;fill:none;stroke:url(#linearGradient3170);stroke-width:0.99992192;stroke-linecap:butt;stroke-linejoin:round;stroke-miterlimit:4;stroke-dasharray:none;stroke-dashoffset:0;stroke-opacity:1"
     id="path4160-6-1"
     d="m 6.4999605,0.4999623 c 8.0202885,0 35.0000415,0.00298 35.0000415,0.00298 l 3.7e-5,43.9970957 c 0,0 -23.333385,0 -35.0000785,0 0,-14.666738 0,-29.333326 0,-43.9998923 z" />
  <path
     style="color:#000000;clip-rule:nonzero;display:inline;overflow:visible;visibility:visible;opacity:1;isolation:auto;mix-blend-mode:normal;color-interpolation:sRGB;color-interpolation-filters:linearRGB;solid-color:#000000;solid-opacity:1;fill:url(#radialGradient3417);fill-opacity:1;fill-rule:nonzero;stroke:none;stroke-width:1;stroke-linecap:butt;stroke-linejoin:round;stroke-miterlimit:4;stroke-dasharray:none;stroke-dashoffset:0;stroke-opacity:1;marker:none;color-rendering:auto;image-rendering:auto;shape-rendering:auto;text-rendering:auto;enable-background:accumulate"
     d="m 17.917969,13 c -0.434996,0 -0.958985,0.350159 -0.958985,0.785156 v 14.970703 c -0.962259,-0.403807 -1.990969,-0.262126 -3.021484,0.375 -1.678838,1.038548 -2.406032,3.059414 -1.623047,4.513672 0.781782,1.454223 2.777518,1.791207 4.455078,0.751953 1.213731,-0.752161 2.322552,-2.058964 2.28125,-3.322265 1.09e-4,-0.0054 0.002,-0.01018 0.002,-0.01563 v -11.99023 c 0.189036,-0.104369 0.483423,0.120388 0.638672,0.226563 1.764224,1.067355 2.955189,2.671195 3.064453,4.853516 0.09453,1.262395 -0.169401,2.517377 -0.533203,3.716796 C 23.844531,25.196906 23.755886,20.88468 21.752,18.447266 20.459397,17.098518 19.240362,15.526181 18.703125,13.699219 18.663976,13.525683 18.426999,13 17.917969,13 Z m 15.107422,1 C 33.440892,14 34,14.446 34,15 c 0,0.554 -0.559108,1 -0.974609,1 H 27 c -0.415499,0 -1,-0.446 -1,-1 0,-0.554 0.584501,-1 1,-1 z m 0,5 C 33.440892,19 34,19.446002 34,20 c 0,0.554002 -0.559108,1 -0.974609,1 H 27 c -0.415499,0 -1,-0.445998 -1,-1 0,-0.553998 0.584501,-1 1,-1 z m 0,5 C 33.440892,24 34,24.446002 34,25 c 0,0.554002 -0.559108,1 -0.974609,1 H 27 c -0.415499,0 -1,-0.445998 -1,-1 0,-0.553998 0.584501,-1 1,-1 z m -0.05078,5 C 33.417809,29 34,29.446 34,30 c 0,0.554 -0.582191,1 -1.025391,1 H 23 c -0.4432,0 -1,-0.446 -1,-1 0,-0.554 0.5568,-1 1,-1 z"
     id="path3415" />
</svg>
