<?xml version="1.0" encoding="UTF-8" standalone="no"?>
<svg
   xmlns:dc="http://purl.org/dc/elements/1.1/"
   xmlns:cc="http://creativecommons.org/ns#"
   xmlns:rdf="http://www.w3.org/1999/02/22-rdf-syntax-ns#"
   xmlns:svg="http://www.w3.org/2000/svg"
   xmlns="http://www.w3.org/2000/svg"
   xmlns:xlink="http://www.w3.org/1999/xlink"
   id="svg3901"
   height="48"
   width="48"
   version="1.1">
  <defs
     id="defs3903">
    <linearGradient
       id="linearGradient3104-6">
      <stop
         id="stop3106-3"
         style="stop-color:#000000;stop-opacity:0.31782946"
         offset="0" />
      <stop
         id="stop3108-9"
         style="stop-color:#000000;stop-opacity:0.24031007"
         offset="1" />
    </linearGradient>
    <linearGradient
       y2="2.9062471"
       x2="-51.786404"
       y1="50.786446"
       x1="-51.786404"
       gradientTransform="matrix(0.80749686,0,0,0.89471714,59.410232,-2.9773433)"
       gradientUnits="userSpaceOnUse"
       id="linearGradient3170"
       xlink:href="#linearGradient3104-6" />
    <linearGradient
       gradientTransform="matrix(0.6655579,0,0,1.4407893,4.5202523,-10.848874)"
       gradientUnits="userSpaceOnUse"
       xlink:href="#linearGradient5031"
       id="linearGradient2580"
       y2="10.035408"
       x2="22.104254"
       y1="40.124432"
       x1="22.104254" />
    <linearGradient
       id="linearGradient5031">
      <stop
         offset="0"
         style="stop-color:#a3a3a3;stop-opacity:1"
         id="stop5033" />
      <stop
         offset="1"
         style="stop-color:#bababa;stop-opacity:1"
         id="stop5035" />
    </linearGradient>
  </defs>
  <metadata
     id="metadata3906">
    <rdf:RDF>
      <cc:Work
         rdf:about="">
        <dc:format>image/svg+xml</dc:format>
        <dc:type
           rdf:resource="http://purl.org/dc/dcmitype/StillImage" />
        <dc:title />
      </cc:Work>
    </rdf:RDF>
  </metadata>
  <path
     d="m 7,1.0000001 c 7.791126,0 33.999959,0.00274 33.999959,0.00274 L 41,44 C 41,44 18.333334,44 7,44 7,29.666666 7,15.333333 7,1 z"
     id="path4160"
     style="fill:#fafafa;fill-opacity:1;stroke:none;display:inline" />
  <path
     d="m 6.4999605,0.4999623 c 8.0202885,0 35.0000415,0.00298 35.0000415,0.00298 l 3.7e-5,43.9970957 c 0,0 -23.333385,0 -35.0000785,0 0,-14.666738 0,-29.333326 0,-43.9998923 z"
     id="path4160-6-1"
     style="fill:none;stroke:url(#linearGradient3170);stroke-width:0.99992192;stroke-linecap:butt;stroke-linejoin:round;stroke-miterlimit:4;stroke-opacity:1;stroke-dasharray:none;stroke-dashoffset:0;display:inline" />
  <path
     d="m 11,7 0,1 2.375,0 0,-1 L 11,7 Z m 2.6875,0 0,1 2.25,0 0,-1 -2.25,0 z m 2.5625,0 0,1 1.96875,0 0,-1 L 16.25,7 Z m 2.28125,0 0,1 0.875,0 0,-1 -0.875,0 z m 1.1875,0 0,1 1.9375,0 0,-1 -1.9375,0 z M 22,7 l 0,1 5,0 0,-1 -5,0 z m -11,2 0,1 3.78125,0 0,-1 L 11,9 Z m 4.15625,0 0,1 1.8125,0 0,-1 -1.8125,0 z m 2.15625,0 0,1 0.84375,0 0,-1 -0.84375,0 z m 1.21875,0 0,1 1.625,0 0,-1 -1.625,0 z m 2,0 0,1 1.625,0 0,-1 -1.625,0 z M 22.5,9 l 0,1 2.65625,0 0,-1 L 22.5,9 Z m 3.03125,0 0,1 L 29,10 29,9 25.53125,9 Z M 11,11 l 0,1 4.1875,0 0,-1 L 11,11 Z m 4.5,0 0,1 4.5,0 0,-1 -4.5,0 z m -4.5,2 0,1 2.3125,0 0,-1 L 11,13 Z m 2.625,0 0,1 2.15625,0 0,-1 -2.15625,0 z m 2.46875,0 0,1 1.90625,0 0,-1 -1.90625,0 z m 3.8125,5 0,1 1.90625,0 0,-1 -1.90625,0 z m 2.21875,0 0,1 1.90625,0 0,-1 -1.90625,0 z m 2.21875,0 0,1 2.75,0 0,-1 -2.75,0 z m 3.09375,0 0,1 0.5625,0 0,-1 -0.5625,0 z M 20,25 l 0,1 2.34375,0 0,-1 L 20,25 Z m 2.65625,0 0,1 2.1875,0 0,-1 -2.1875,0 z m 2.5,0 0,1 L 27,26 27,25 25.15625,25 Z M 20,27 l 0,1 1.875,0 0,-1 L 20,27 Z m 2.1875,0 0,1 4.8125,0 0,-1 -4.8125,0 z m 5.125,0 0,1 3.6875,0 0,-1 -3.6875,0 z M 20,29 l 0,1 2.4375,0 0,-1 L 20,29 Z m 2.78125,0 0,1 4.28125,0 0,-1 -4.28125,0 z m 4.59375,0 0,1 2.9375,0 0,-1 -2.9375,0 z M 20,31.125 l 0,0.96875 1.875,0 0,-0.96875 -1.875,0 z m 2.1875,0 0,0.96875 1.90625,0 0,-0.96875 -1.90625,0 z m 2.21875,0 0,0.96875 2.71875,0 0,-0.96875 -2.71875,0 z m 3.03125,0 0,0.96875 0.5625,0 0,-0.96875 -0.5625,0 z m 0.875,0 0,0.96875 3.53125,0 0,-0.96875 -3.53125,0 z m -8.375,6.875 0,1 2.4375,0 0,-1 -2.4375,0 z m 2.75,0 0,1 2.25,0 0,-1 -2.25,0 z m 2.59375,0 0,1 1.9375,0 0,-1 -1.9375,0 z m 2.25,0 0,1 3.09375,0 0,-1 -3.09375,0 z m 3.4375,0 0,1 5.03125,0 0,-1 -5.03125,0 z"
     id="path4149"
     style="display:inline;fill:#89adc2;fill-opacity:1;stroke:none" />
  <path
     d="m 11,16 0,1 3.0625,0 0,-1 L 11,16 Z m 0,2 0,1 3.09375,0 0,-1 L 11,18 Z"
     id="path4063"
     style="display:inline;fill:#b78ed4;fill-opacity:1;stroke:none" />
  <path
     d="m 14.40625,16 0,1 5.59375,0 0,-1 -5.59375,0 z m 0.03125,2 0,1 5.09375,0 0,-1 -5.09375,0 z m 1.1875,16 0,1 4.59375,0 0,-1 -4.59375,0 z m 4.9375,0 0,1 1.8125,0 0,-1 -1.8125,0 z m 2.15625,0 0,1 4.3125,0 0,-1 -4.3125,0 z m 4.65625,0 0,1 2.96875,0 0,-1 -2.96875,0 z m 3.28125,0 0,1 1.15625,0 0,-1 -1.15625,0 z m 1.5,0 0,1 0.6875,0 0,-1 -0.6875,0 z m 1,0 0,1 1.84375,0 0,-1 -1.84375,0 z m -16.03125,2 0,1 0.8125,0 0,-1 -0.8125,0 z m 1.03125,0 0,1 1.625,0 0,-1 -1.625,0 z m 1.875,0 0,1 1.625,0 0,-1 -1.625,0 z m 2.125,0 0,1 2.59375,0 0,-1 -2.59375,0 z m 2.90625,0 0,1 3.375,0 0,-1 -3.375,0 z m 3.84375,0 0,1 2.28125,0 0,-1 -2.28125,0 z m 2.5625,0 0,1 0.53125,0 0,-1 -0.53125,0 z"
     id="path4061"
     style="display:inline;fill:#d48eb3;fill-opacity:1;stroke:none" />
  <path
     d="m 11,38 3.036746,0 0,1 L 11,39 11,38 Z"
     id="path4009"
     style="display:inline;fill:#de6161;fill-opacity:1;stroke:none" />
  <path
     d="m 13.75,21 0,1 2.25,0 0,-1 -2.25,0 z m -2.75,2 0,1 1,0 0,-1 -1,0 z m 3.15625,2 0,1 1.84375,0 0,-1 -1.84375,0 z m 0.125,2 0,1 2.71875,0 0,-1 -2.71875,0 z m -0.34375,2 0,1 2.0625,0 0,-1 -2.0625,0 z m -0.375,2.15625 0,0.96875 2.125,0 0,-0.96875 -2.125,0 z M 11,34 l 0,1 4.28125,0 0,-1 L 11,34 Z m 0,2 0,1 3.6875,0 0,-1 L 11,36 Z m 3.96875,0 0,1 1.78125,0 0,-1 -1.78125,0 z m -0.625,2 0,1 3.34375,0 0,-1 -3.34375,0 z"
     id="path4007"
     style="display:inline;fill:url(#linearGradient2580);fill-opacity:1;stroke:none" />
  <path
     d="m 11,21 0,1 2.34375,0 0,-1 L 11,21 Z m 0,4 0,1 2.75,0 0,-1 -2.75,0 z m 0,2 0,1 2.9375,0 0,-1 L 11,27 Z m 0,2 0,1 2.53125,0 0,-1 L 11,29 Z m 0,2.15625 0,0.96875 2.21875,0 0,-0.96875 -2.21875,0 z"
     id="path5302"
     style="display:inline;fill:#94d48e;fill-opacity:1;stroke:none" />
</svg>
