<?xml version="1.0" encoding="UTF-8" standalone="no"?>
<svg
   xmlns:dc="http://purl.org/dc/elements/1.1/"
   xmlns:cc="http://creativecommons.org/ns#"
   xmlns:rdf="http://www.w3.org/1999/02/22-rdf-syntax-ns#"
   xmlns:svg="http://www.w3.org/2000/svg"
   xmlns="http://www.w3.org/2000/svg"
   xmlns:xlink="http://www.w3.org/1999/xlink"
   version="1.1"
   width="48"
   height="48"
   id="svg3901">
  <defs
     id="defs3903">
    <linearGradient
       id="linearGradient3104-6">
      <stop
         offset="0"
         style="stop-color:#000000;stop-opacity:0.31782946"
         id="stop3106-3" />
      <stop
         offset="1"
         style="stop-color:#000000;stop-opacity:0.24031007"
         id="stop3108-9" />
    </linearGradient>
    <linearGradient
       xlink:href="#linearGradient3104-6"
       id="linearGradient3170"
       gradientUnits="userSpaceOnUse"
       gradientTransform="matrix(0.80749686,0,0,0.89471714,59.410232,-2.9773433)"
       x1="-51.786404"
       y1="50.786446"
       x2="-51.786404"
       y2="2.9062471" />
  </defs>
  <metadata
     id="metadata3906">
    <rdf:RDF>
      <cc:Work
         rdf:about="">
        <dc:format>image/svg+xml</dc:format>
        <dc:type
           rdf:resource="http://purl.org/dc/dcmitype/StillImage" />
        <dc:title />
      </cc:Work>
    </rdf:RDF>
  </metadata>
  <path
     style="fill:#fafafa;fill-opacity:1;stroke:none;display:inline"
     id="path4160"
     d="m 7,1.0000001 c 7.791126,0 33.999959,0.00274 33.999959,0.00274 L 41,44 C 41,44 18.333334,44 7,44 7,29.666666 7,15.333333 7,1 z" />
  <path
     style="fill:none;stroke:url(#linearGradient3170);stroke-width:0.99992192;stroke-linecap:butt;stroke-linejoin:round;stroke-miterlimit:4;stroke-opacity:1;stroke-dasharray:none;stroke-dashoffset:0;display:inline"
     id="path4160-6-1"
     d="m 6.4999605,0.4999623 c 8.0202885,0 35.0000415,0.00298 35.0000415,0.00298 l 3.7e-5,43.9970957 c 0,0 -23.333385,0 -35.0000785,0 0,-14.666738 0,-29.333326 0,-43.9998923 z" />
  <g
     style="fill:#cd4a9c;fill-opacity:1"
     id="g3382"
     transform="matrix(0.08427382,0,0,-0.08427382,13.554271,50.687564)">
    <g
       style="fill:#cd4a9c;fill-opacity:1"
       id="g3384"
       transform="scale(0.1,0.1)">
      <path
         d="m 831.79559,2658.365 c 29.89,-110.56 26.61,-213.66 -4.26,-307.03 -3.43,-10.37 -7.21,-20.63 -11.31,-30.77 -4.1,-10.12 -8.54,-20.13 -13.3,-30.01 -23.81,-49.402 -55.76,-95.64 -94.89,-138.32 -119.36,-130.219 -286.13,-179.461 -357.64,-137.969 -77.22,44.758 -38.54,228.36 99.85,374.639 148.88,157.39 363.09,258.58 363.09,258.58 l -0.33,0.64 c 6.17,3.32 12.44,6.74 18.79,10.24 z m 1696.90001,1859.38 c -93.03,364.86 -698.01,484.8 -1270.59,281.38 -340.75001,-121.05 -709.64001,-311.05 -974.88001,-559.15 -315.368004,-294.98 -365.661004,-551.72 -344.930004,-659 73.117,-378.54 591.790004,-625.97 805.010004,-809.55 l 0,-1.11 c -62.87,-30.95 -523.04,-263.83 -630.729,-501.912 -113.6290043,-251.168 18.086,-431.4059 105.289,-455.6679 270.19,-75.172 547.45,60.0389 696.45,282.2889 143.79001,214.481 131.82001,491.441 69.33,629.211 86.20001,22.74 186.69001,32.93 314.40001,18.01 360.37,-42.09 431.08,-267.11 417.56,-361.26 -13.51,-94.18 -89.1,-145.961 -114.37,-161.59 -25.28,-15.64 -32.99,-21.05 -30.86,-32.672 3.06,-16.898 14.76,-16.269 36.31,-12.617 29.66,5 189.23,76.598 196.05,250.429 8.69,220.7 -202.81,467.58 -577.3,461.13 -154.23,-2.66 -251.21001,-17.33 -321.26001,-43.4 -5.18,5.9 -10.45,11.77 -15.9,17.58 -231.52,247.01 -659.51,421.74 -641.36,753.81 6.6,120.72 48.56,438.61 822.39001,824.21 633.9,315.86 1141.36,228.94 1229.06,36.3 125.27,-275.21 -271.21,-786.73 -929.52,-860.51 -250.81,-28.12 -382.87001,69.09 -415.72001,105.29 -34.59,38.11 -39.74,39.83 -52.65,32.68 -21.04,-11.65 -7.71,-45.3 0,-65.36 19.65,-51.15 100.31001,-141.86 237.82001,-186.98 120.96,-39.7 415.44,-61.51 771.57,76.24 398.85,154.29 710.31,583.47 618.83,942.22"
         style="fill:#cd4a9c;fill-opacity:1;fill-rule:nonzero;stroke:none"
         id="path3388" />
    </g>
  </g>
</svg>
