<?xml version="1.0" encoding="UTF-8" standalone="no"?>
<svg
   xmlns:dc="http://purl.org/dc/elements/1.1/"
   xmlns:cc="http://creativecommons.org/ns#"
   xmlns:rdf="http://www.w3.org/1999/02/22-rdf-syntax-ns#"
   xmlns:svg="http://www.w3.org/2000/svg"
   xmlns="http://www.w3.org/2000/svg"
   xmlns:xlink="http://www.w3.org/1999/xlink"
   version="1.1"
   width="48"
   height="48"
   id="svg3901">
  <defs
     id="defs3903">
    <linearGradient
       id="linearGradient3104-6">
      <stop
         offset="0"
         style="stop-color:#000000;stop-opacity:0.31782946"
         id="stop3106-3" />
      <stop
         offset="1"
         style="stop-color:#000000;stop-opacity:0.24031007"
         id="stop3108-9" />
    </linearGradient>
    <linearGradient
       xlink:href="#linearGradient3104-6"
       id="linearGradient3170"
       gradientUnits="userSpaceOnUse"
       gradientTransform="matrix(0.80749686,0,0,0.89471714,59.410232,-2.9773433)"
       x1="-51.786404"
       y1="50.786446"
       x2="-51.786404"
       y2="2.9062471" />
    <linearGradient
       x1="22.004084"
       y1="47.813133"
       x2="22.004084"
       y2="3.3638515"
       id="linearGradient3052"
       xlink:href="#linearGradient3104-5"
       gradientUnits="userSpaceOnUse"
       gradientTransform="translate(-1.982096,-3.047074)" />
    <linearGradient
       id="linearGradient3104-5">
      <stop
         id="stop3106-2"
         style="stop-color:#aaaaaa;stop-opacity:1"
         offset="0" />
      <stop
         id="stop3108-5"
         style="stop-color:#c8c8c8;stop-opacity:1"
         offset="1" />
    </linearGradient>
  </defs>
  <metadata
     id="metadata3906">
    <rdf:RDF>
      <cc:Work
         rdf:about="">
        <dc:format>image/svg+xml</dc:format>
        <dc:type
           rdf:resource="http://purl.org/dc/dcmitype/StillImage" />
        <dc:title />
      </cc:Work>
    </rdf:RDF>
  </metadata>
  <path
     style="fill:#fafafa;fill-opacity:1;stroke:none;display:inline"
     id="path4160"
     d="m 7,1.0000001 c 7.791126,0 33.999959,0.00274 33.999959,0.00274 L 41,44 C 41,44 18.333334,44 7,44 7,29.666666 7,15.333333 7,1 z" />
  <path
     style="fill:none;stroke:url(#linearGradient3170);stroke-width:0.99992192;stroke-linecap:butt;stroke-linejoin:round;stroke-miterlimit:4;stroke-opacity:1;stroke-dasharray:none;stroke-dashoffset:0;display:inline"
     id="path4160-6-1"
     d="m 6.4999605,0.4999623 c 8.0202885,0 35.0000415,0.00298 35.0000415,0.00298 l 3.7e-5,43.9970957 c 0,0 -23.333385,0 -35.0000785,0 0,-14.666738 0,-29.333326 0,-43.9998923 z" />
  <path
     style="fill:none;stroke:url(#linearGradient3052);stroke-width:1px;stroke-linecap:butt;stroke-linejoin:miter;stroke-opacity:1"
     id="path3475"
     d="m 11,8.5 2.34375,0 z m 2.6875,0 2.1875,0 z m 2.53125,0 1.9375,0 z m 2.25,0 0.84375,0 z m 1.1875,0 1.875,0 z m 2.25,0 4.9375,0 z m 5.25,0 3.78125,0 z m 4.09375,0 1.15625,0 z m -20.25,2 3.65625,0 z m 4.0625,0 1.75,0 z m 2.0625,0 0.875,0 z m 1.21875,0 1.59375,0 z m 1.9375,0 1.625,0 z m 1.9375,0 2.59375,0 z m 2.9375,0 3.375,0 z m 3.6875,0 2.25,0 z m 2.5625,0 0.5625,0 z M 11,12.484375 l 3.09375,0 z m 3.40625,0 5.0625,0 z m 5.375,0 2.46875,0 z m 2.78125,0 2.3125,0 z m 2.625,0 1.96875,0 z m 2.28125,0 3.09375,0.03125 z m 3.375,0.03125 5.03125,0 z M 11,14.5 l 4.28125,0 z m 4.625,0 4.625,0 z m 4.9375,0 1.84375,0 z m 2.15625,0 4.34375,0 z m 4.625,0 2.96875,0 z m 3.3125,0 1.1875,0 z m 1.5,0 0.65625,0 z m 1,0 L 35,14.5 Z M 11,16.5 l 1.59375,0 z m 2.09375,0 L 19,16.5 Z M 11,20.484375 l 3.09375,0 z m 3.40625,0 5.0625,0 z m 5.375,0 2.46875,0 z m 2.78125,0 2.3125,0 z m 2.625,0 1.96875,0 z m 2.28125,0 3.09375,0.03125 z m 3.375,0.03125 5.03125,0 z M 11,22.5 l 2.34375,0 z m 2.6875,0 2.15625,0 z m 2.53125,0 1.9375,0 z m 2.25,0 0.84375,0 z m 1.1875,0 1.875,0 z m 2.25,0 4.90625,0 z m 5.25,0 3.75,0 z m 4.0625,0 1.1875,0 z m 1.5,0 2.8125,0 z M 11,24.5 l 3.9375,0 z m 4.25,0 4.21875,0 z m 4.53125,0 1.625,0 z m 1.9375,0 3.96875,0 z m 4.28125,0 5,0 z m 5.34375,0 1.84375,0 z M 11,26.5 l 4.28125,0 z m 4.625,0 4.625,0 z m 4.9375,0 1.84375,0 z m 2.15625,0 4.34375,0 z m 4.625,0 2.96875,0 z m 3.3125,0 1.1875,0 z m 1.5,0 0.65625,0 z m 1,0 L 35,26.5 Z M 11,28.5 l 3.65625,0 z m 4.0625,0 1.75,0 z m 2.0625,0 0.875,0 z m 1.21875,0 1.59375,0 z m 1.9375,0 1.625,0 z m 1.9375,0 2.59375,0 z m 2.9375,0 3.375,0 z m 3.6875,0 2.25,0 z m 2.5625,0 0.5625,0 z M 11,32.484375 l 3.09375,0 z m 3.40625,0 5.0625,0 z m 5.375,0 2.46875,0 z m 2.78125,0 2.3125,0 z m 2.625,0 1.96875,0 z m 2.28125,0 3.09375,0.03125 z m 3.375,0.03125 5.03125,0 z M 11,34.5 l 3.65625,0 z m 4.0625,0 1.75,0 z m 2.0625,0 0.875,0 z m 1.21875,0 1.59375,0 z m 1.9375,0 1.625,0 z m 1.9375,0 2.59375,0 z m 2.9375,0 3.375,0 z m 3.6875,0 2.25,0 z m 2.5625,0 0.5625,0 z M 11,36.5 l 3.875,0 z m 4.21875,0 1.21875,0 z m 1.53125,0 2.78125,0 z m 3.09375,0 4.09375,0 z m 4.4375,0 2.78125,0 z m 3.0625,0 0.59375,0 z m 0.90625,0 3.53125,0 z m 3.90625,0 L 34,36.5 Z M 11,38.5 l 3.875,0 z m 4.21875,0 1.75,0 z m 2.0625,0 2.75,0 z m 3.0625,0 2.96875,0 z m 3.3125,0 1.1875,0 z m 1.5,0 0.65625,0 z m 1,0 1.84375,0 z" />
</svg>
