<?xml version="1.0" encoding="UTF-8" standalone="no"?>
<svg
   xmlns:dc="http://purl.org/dc/elements/1.1/"
   xmlns:cc="http://creativecommons.org/ns#"
   xmlns:rdf="http://www.w3.org/1999/02/22-rdf-syntax-ns#"
   xmlns:svg="http://www.w3.org/2000/svg"
   xmlns="http://www.w3.org/2000/svg"
   xmlns:xlink="http://www.w3.org/1999/xlink"
   id="svg3901"
   height="48"
   width="48"
   version="1.1">
  <defs
     id="defs3903">
    <linearGradient
       id="linearGradient3104-6">
      <stop
         id="stop3106-3"
         style="stop-color:#000000;stop-opacity:0.31782946"
         offset="0" />
      <stop
         id="stop3108-9"
         style="stop-color:#000000;stop-opacity:0.24031007"
         offset="1" />
    </linearGradient>
    <linearGradient
       y2="2.9062471"
       x2="-51.786404"
       y1="50.786446"
       x1="-51.786404"
       gradientTransform="matrix(0.80749686,0,0,0.89471714,59.410232,-2.9773433)"
       gradientUnits="userSpaceOnUse"
       id="linearGradient3170"
       xlink:href="#linearGradient3104-6" />
  </defs>
  <metadata
     id="metadata3906">
    <rdf:RDF>
      <cc:Work
         rdf:about="">
        <dc:format>image/svg+xml</dc:format>
        <dc:type
           rdf:resource="http://purl.org/dc/dcmitype/StillImage" />
        <dc:title />
      </cc:Work>
    </rdf:RDF>
  </metadata>
  <path
     d="m 7,1.0000001 c 7.791126,0 33.999959,0.00274 33.999959,0.00274 L 41,44 C 41,44 18.333334,44 7,44 7,29.666666 7,15.333333 7,1 z"
     id="path4160"
     style="fill:#fafafa;fill-opacity:1;stroke:none;display:inline" />
  <path
     d="m 6.4999605,0.4999623 c 8.0202885,0 35.0000415,0.00298 35.0000415,0.00298 l 3.7e-5,43.9970957 c 0,0 -23.333385,0 -35.0000785,0 0,-14.666738 0,-29.333326 0,-43.9998923 z"
     id="path4160-6-1"
     style="fill:none;stroke:url(#linearGradient3170);stroke-width:0.99992192;stroke-linecap:butt;stroke-linejoin:round;stroke-miterlimit:4;stroke-opacity:1;stroke-dasharray:none;stroke-dashoffset:0;display:inline" />
  <path
     id="path4194"
     d="M 17.75 15 C 17.3345 15 17 15.3345 17 15.75 L 17 29.25 C 17 29.6655 17.3345 30 17.75 30 L 30.25 30 C 30.6655 30 31 29.6655 31 29.25 L 31 15.75 C 31 15.3345 30.6655 15 30.25 15 L 17.75 15 z M 18 16 L 19 16 L 19 17 L 18 17 L 18 16 z M 20.5 16 L 27.5 16 C 27.777 16 28 16.223 28 16.5 L 28 21.5 C 28 21.777 27.777 22 27.5 22 L 20.5 22 C 20.223 22 20 21.777 20 21.5 L 20 16.5 C 20 16.223 20.223 16 20.5 16 z M 29 16 L 30 16 L 30 17 L 29 17 L 29 16 z M 18 18 L 19 18 L 19 19 L 18 19 L 18 18 z M 29 18 L 30 18 L 30 19 L 29 19 L 29 18 z M 18 20 L 19 20 L 19 21 L 18 21 L 18 20 z M 29 20 L 30 20 L 30 21 L 29 21 L 29 20 z M 18 22 L 19 22 L 19 23 L 18 23 L 18 22 z M 29 22 L 30 22 L 30 23 L 29 23 L 29 22 z M 20.5 23 L 27.5 23 C 27.777 23 28 23.223 28 23.5 L 28 28.5 C 28 28.777 27.777 29 27.5 29 L 20.5 29 C 20.223 29 20 28.777 20 28.5 L 20 23.5 C 20 23.223 20.223 23 20.5 23 z M 18 24 L 19 24 L 19 25 L 18 25 L 18 24 z M 29 24 L 30 24 L 30 25 L 29 25 L 29 24 z M 18 26 L 19 26 L 19 27 L 18 27 L 18 26 z M 29 26 L 30 26 L 30 27 L 29 27 L 29 26 z M 18 28 L 19 28 L 19 29 L 18 29 L 18 28 z M 29 28 L 30 28 L 30 29 L 29 29 L 29 28 z M 14.5 37 A 1.5 1.5 0 0 0 13 38.5 A 1.5 1.5 0 0 0 14.5 40 A 1.5 1.5 0 0 0 16 38.5 A 1.5 1.5 0 0 0 14.5 37 z M 19.5 37 A 1.5 1.5 0 0 0 18 38.5 A 1.5 1.5 0 0 0 19.5 40 A 1.5 1.5 0 0 0 21 38.5 A 1.5 1.5 0 0 0 19.5 37 z M 24.5 37 A 1.5 1.5 0 0 0 23 38.5 A 1.5 1.5 0 0 0 24.5 40 A 1.5 1.5 0 0 0 26 38.5 A 1.5 1.5 0 0 0 24.5 37 z M 29.5 37 A 1.5 1.5 0 0 0 28 38.5 A 1.5 1.5 0 0 0 29.5 40 A 1.5 1.5 0 0 0 31 38.5 A 1.5 1.5 0 0 0 29.5 37 z M 34.5 37 A 1.5 1.5 0 0 0 33 38.5 A 1.5 1.5 0 0 0 34.5 40 A 1.5 1.5 0 0 0 36 38.5 A 1.5 1.5 0 0 0 34.5 37 z "
     style="opacity:1;fill:#7e8087;fill-opacity:1;stroke:none;stroke-width:2;stroke-miterlimit:4;stroke-dasharray:none;stroke-opacity:1" />
</svg>
