<?xml version="1.0" encoding="UTF-8" standalone="no"?>
<svg
   xmlns:dc="http://purl.org/dc/elements/1.1/"
   xmlns:cc="http://creativecommons.org/ns#"
   xmlns:rdf="http://www.w3.org/1999/02/22-rdf-syntax-ns#"
   xmlns:svg="http://www.w3.org/2000/svg"
   xmlns="http://www.w3.org/2000/svg"
   xmlns:xlink="http://www.w3.org/1999/xlink"
   version="1.1"
   width="48"
   height="48"
   id="svg4013">
  <defs
     id="defs4015">
    <linearGradient
       id="linearGradient3104-4">
      <stop
         id="stop3106-7"
         style="stop-color:#aaaaaa;stop-opacity:1"
         offset="0" />
      <stop
         id="stop3108-6"
         style="stop-color:#c8c8c8;stop-opacity:1"
         offset="1" />
    </linearGradient>
    <linearGradient
       id="linearGradient2867-449-88-871-390-598-476-591-434-148-57-177-8">
      <stop
         id="stop3750-1"
         style="stop-color:#90dbec;stop-opacity:1"
         offset="0" />
      <stop
         id="stop3752-3"
         style="stop-color:#55c1ec;stop-opacity:1"
         offset="0.26238" />
      <stop
         id="stop3754-1"
         style="stop-color:#3689e6;stop-opacity:1"
         offset="0.704952" />
      <stop
         id="stop3756-1"
         style="stop-color:#2b63a0;stop-opacity:1"
         offset="1" />
    </linearGradient>
    <linearGradient
       xlink:href="#linearGradient4203"
       id="linearGradient3170"
       gradientUnits="userSpaceOnUse"
       gradientTransform="matrix(-0.80749686,0,0,0.89471714,-11.410235,-2.9773433)"
       x1="-51.786404"
       y1="50.786446"
       x2="-51.786404"
       y2="2.9062471" />
    <linearGradient
       id="linearGradient4203">
      <stop
         id="stop4205"
         style="stop-color:#000000;stop-opacity:0.31764707"
         offset="0" />
      <stop
         id="stop4207"
         style="stop-color:#000000;stop-opacity:0.23921569"
         offset="1" />
    </linearGradient>
    <radialGradient
       gradientTransform="matrix(1.6167311e-7,6.6018651,8.0922115,-1.9817022e-7,-56.564293,-60.072946)"
       gradientUnits="userSpaceOnUse"
       xlink:href="#linearGradient2867-449-88-871-390-598-476-591-434-148-57-177-8"
       id="radialGradient3042"
       fy="9.9571075"
       fx="7.2758255"
       r="12.671875"
       cy="9.9571075"
       cx="7.8060555" />
    <linearGradient
       x1="22.004084"
       y1="47.813133"
       x2="22.004084"
       y2="3.3638515"
       id="linearGradient3039"
       xlink:href="#linearGradient3104-4"
       gradientUnits="userSpaceOnUse"
       gradientTransform="matrix(-1,0,0,1,45.965157,-3.0470733)" />
  </defs>
  <metadata
     id="metadata4018">
    <rdf:RDF>
      <cc:Work
         rdf:about="">
        <dc:format>image/svg+xml</dc:format>
        <dc:type
           rdf:resource="http://purl.org/dc/dcmitype/StillImage" />
        <dc:title />
      </cc:Work>
    </rdf:RDF>
  </metadata>
  <path
     style="display:inline;fill:#fafafa;fill-opacity:1;stroke:none"
     id="path4160-6"
     d="m 40.999997,0.9999971 c -7.791126,0 -33.9999575,0.00274 -33.9999575,0.00274 L 6.9999985,44 c 0,0 22.6666655,0 33.9999985,0 0,-14.333334 0,-28.666667 0,-43 z" />
  <path
     style="color:#000000;display:inline;overflow:visible;visibility:visible;fill:url(#radialGradient3042);fill-opacity:1;fill-rule:nonzero;stroke:none;stroke-width:1;marker:none;enable-background:accumulate"
     id="path4530"
     d="m 36.004847,44.495152 c 1.754361,0 3.508724,0 5.263094,0 0.426413,-0.520869 0.102162,-1.555002 0.203478,-2.292391 0,-13.81505 0,-27.630098 0,-41.44514257 l -0.05947,-0.17889705 -0.14401,-0.0738717 v 0 c -1.825935,0 -3.365593,0 -5.19152,0" />
  <path
     style="display:inline;fill:none;stroke:url(#linearGradient3170);stroke-width:0.99992192;stroke-linecap:butt;stroke-linejoin:round;stroke-miterlimit:4;stroke-dasharray:none;stroke-dashoffset:0;stroke-opacity:1"
     id="path4160-6-1"
     d="m 41.500037,0.49996196 c -8.020289,0 -35.0000395,0.00298 -35.0000395,0.00298 l -3.7e-5,43.99709604 c 0,0 23.3333845,0 35.0000765,0 0,-14.666738 0,-29.333326 0,-43.99989264 z" />
  <path
     d="m 32.9835,8.5000007 h -2.34375 z m -2.6875,0 h -2.1875 z m -2.53125,0 h -1.9375 z m -2.25,0 H 24.671 Z m -1.1875,0 h -1.875 z m -2.25,0 h -4.9375 z m -5.25,0 H 13.046 Z M 32.9835,10.500001 h -3.65625 z m -4.0625,0 h -1.75 z m -2.0625,0 h -0.875 z m -1.21875,0 H 24.046 Z m -1.9375,0 h -1.625 z m -1.9375,0 H 19.171 Z m -2.9375,0 h -3.375 z m -3.6875,0 h -2.25 z m -2.5625,0 h -0.5625 z M 32.9835,12.46875 h -3.09375 z m -3.40625,0 h -5.0625 z m -5.375,0 H 21.7335 Z m -2.78125,0 h -2.3125 z m -2.625,0 h -1.96875 z m -2.28125,0 L 13.421,12.5 Z M 13.13975,12.5 Z m 19.84375,2 h -4.28125 z m -4.625,0 h -4.625 z m -4.9375,0 h -1.84375 z m -2.15625,0 H 16.921 Z m -4.625,0 H 13.671 Z m -3.3125,0 h -1.1875 z m 19.65625,2 h -1.59375 z m -2.09375,0 H 24.9835 Z m 2.09375,3.96875 h -3.09375 z m -3.40625,0 h -5.0625 z m -5.375,0 H 21.7335 Z m -2.78125,0 h -2.3125 z m -2.625,0 h -1.96875 z m -2.28125,0 L 13.421,20.5 Z M 13.13975,20.5 Z m 19.84375,2 h -2.34375 z m -2.6875,0 h -2.15625 z m -2.53125,0 h -1.9375 z m -2.25,0 H 24.671 Z m -1.1875,0 h -1.875 z m -2.25,0 H 17.171 Z m -5.25,0 h -3.75 z m -4.0625,0 h -1.1875 z m 20.21875,2 H 29.046 Z m -4.25,0 h -4.21875 z m -4.53125,0 h -1.625 z m -1.9375,0 H 18.296 Z m -4.28125,0 h -5 z m -5.34375,0 H 10.796 Z m 20.34375,2 h -4.28125 z m -4.625,0 h -4.625 z m -4.9375,0 h -1.84375 z m -2.15625,0 H 16.921 Z m -4.625,0 H 13.671 Z m -3.3125,0 h -1.1875 z m 19.65625,2 h -3.65625 z m -4.0625,0 h -1.75 z m -2.0625,0 h -0.875 z m -1.21875,0 H 24.046 Z m -1.9375,0 h -1.625 z m -1.9375,0 H 19.171 Z m -2.9375,0 h -3.375 z m -3.6875,0 h -2.25 z m -2.5625,0 h -0.5625 z m 20.40625,3.96875 h -3.09375 z m -3.40625,0 h -5.0625 z m -5.375,0 H 21.7335 Z m -2.78125,0 h -2.3125 z m -2.625,0 h -1.96875 z m -2.28125,0 L 13.421,32.5 Z M 13.13975,32.5 Z m 19.84375,2 h -3.65625 z m -4.0625,0 h -1.75 z m -2.0625,0 h -0.875 z m -1.21875,0 H 24.046 Z m -1.9375,0 h -1.625 z m -1.9375,0 H 19.171 Z m -2.9375,0 h -3.375 z m -3.6875,0 h -2.25 z m -2.5625,0 h -0.5625 z m 20.40625,2 h -3.875 z m -4.21875,0 H 27.546 Z m -1.53125,0 h -2.78125 z m -3.09375,0 H 20.046 Z m -4.4375,0 H 16.921 Z m -3.0625,0 H 16.046 Z m -0.90625,0 h -3.53125 z m 17.25,2 h -3.875 z m -4.21875,0 h -1.75 z m -2.0625,0 h -2.75 z m -3.0625,0 H 20.671 Z m -3.3125,0 h -1.1875 z m -1.5,0 H 18.171 Z m -1,0 H 15.9835 Z"
     id="path3475-6"
     style="fill:none;stroke:url(#linearGradient3039);stroke-width:1px;stroke-linecap:butt;stroke-linejoin:miter;stroke-opacity:1" />
  <path
     d="m 21.500107,44.5 20.000001,-20.000002 0,20.000002 z m 9.333333,-4.000001 6.666667,0 0,-6.666666 z"
     id="path3410"
     style="opacity:0.8;fill:#e9e9e9;fill-opacity:1;fill-rule:evenodd;stroke:#83899a;stroke-width:1;stroke-linecap:butt;stroke-linejoin:miter;stroke-miterlimit:4;stroke-dasharray:none;stroke-opacity:1" />
</svg>
