<?xml version="1.0" encoding="UTF-8" standalone="no"?>
<svg
   xmlns:dc="http://purl.org/dc/elements/1.1/"
   xmlns:cc="http://creativecommons.org/ns#"
   xmlns:rdf="http://www.w3.org/1999/02/22-rdf-syntax-ns#"
   xmlns:svg="http://www.w3.org/2000/svg"
   xmlns="http://www.w3.org/2000/svg"
   xmlns:xlink="http://www.w3.org/1999/xlink"
   id="svg4013"
   height="48"
   width="48"
   version="1.1">
  <defs
     id="defs4015">
    <linearGradient
       id="linearGradient3104-4">
      <stop
         offset="0"
         style="stop-color:#aaaaaa;stop-opacity:1"
         id="stop3106-7" />
      <stop
         offset="1"
         style="stop-color:#c8c8c8;stop-opacity:1"
         id="stop3108-6" />
    </linearGradient>
    <radialGradient
       gradientTransform="matrix(-1.6167311e-7,6.6018651,-8.0922115,-1.9817022e-7,104.56429,-60.072946)"
       gradientUnits="userSpaceOnUse"
       xlink:href="#linearGradient2867-449-88-871-390-598-476-591-434-148-57-177-8"
       id="radialGradient3060-0"
       fy="9.9571075"
       fx="7.2758255"
       r="12.671875"
       cy="9.9571075"
       cx="7.8060555" />
    <linearGradient
       id="linearGradient2867-449-88-871-390-598-476-591-434-148-57-177-8">
      <stop
         offset="0"
         style="stop-color:#90dbec;stop-opacity:1"
         id="stop3750-1" />
      <stop
         offset="0.26238"
         style="stop-color:#55c1ec;stop-opacity:1"
         id="stop3752-3" />
      <stop
         offset="0.704952"
         style="stop-color:#3689e6;stop-opacity:1"
         id="stop3754-1" />
      <stop
         offset="1"
         style="stop-color:#2b63a0;stop-opacity:1"
         id="stop3756-1" />
    </linearGradient>
    <linearGradient
       gradientTransform="translate(0,-4.6083084e-4)"
       gradientUnits="userSpaceOnUse"
       xlink:href="#linearGradient3707-319-631-407-324-3"
       id="linearGradient3062-0"
       y2="0.91790956"
       x2="25"
       y1="47.935162"
       x1="25" />
    <linearGradient
       id="linearGradient3707-319-631-407-324-3">
      <stop
         offset="0"
         style="stop-color:#185f9a;stop-opacity:1"
         id="stop3760-4" />
      <stop
         offset="1"
         style="stop-color:#599ec9;stop-opacity:1"
         id="stop3762-0" />
    </linearGradient>
    <linearGradient
       gradientTransform="matrix(0.8074968,0,0,0.8948322,59.410232,-2.9805531)"
       gradientUnits="userSpaceOnUse"
       xlink:href="#linearGradient3104"
       id="linearGradient3324"
       y2="2.9062471"
       x2="-51.786404"
       y1="50.786446"
       x1="-51.786404" />
    <linearGradient
       id="linearGradient3104">
      <stop
         offset="0"
         style="stop-color:#a0a0a0;stop-opacity:1"
         id="stop3106" />
      <stop
         offset="1"
         style="stop-color:#bebebe;stop-opacity:1"
         id="stop3108" />
    </linearGradient>
    <linearGradient
       gradientTransform="matrix(-1,0,0,1,50.983157,-3.0470733)"
       gradientUnits="userSpaceOnUse"
       xlink:href="#linearGradient3104-4"
       id="linearGradient3039"
       y2="3.3638515"
       x2="22.004084"
       y1="47.813133"
       x1="22.004084" />
  </defs>
  <metadata
     id="metadata4018">
    <rdf:RDF>
      <cc:Work
         rdf:about="">
        <dc:format>image/svg+xml</dc:format>
        <dc:type
           rdf:resource="http://purl.org/dc/dcmitype/StillImage" />
        <dc:title />
      </cc:Work>
    </rdf:RDF>
  </metadata>
  <path
     d="M 6.4999609,0.497199 C 14.520256,0.497199 41.5,0.5 41.5,0.5 l 4.2e-5,44.002803 c 0,0 -23.333387,0 -35.0000811,0 0,-14.668535 0,-29.33707 0,-44.00560407 z"
     id="path4160"
     style="display:inline;fill:#fafafa;fill-opacity:1;stroke:url(#linearGradient3324);stroke-width:0.99992186;stroke-linecap:butt;stroke-linejoin:round;stroke-miterlimit:4;stroke-dasharray:none;stroke-dashoffset:0;stroke-opacity:1" />
  <path
     d="m 11.99515,44.495152 c -1.754361,0 -3.5087232,0 -5.2630934,0 C 6.3056432,43.974283 6.6298943,42.94015 6.528578,42.202761 c 0,-13.81505 0,-27.630098 0,-41.44514257 l 0.059468,-0.17889705 0.1440101,-0.0738717 0,0 c 1.8259354,0 3.3655929,0 5.1915199,0"
     id="path4530"
     style="color:#000000;display:inline;overflow:visible;visibility:visible;fill:url(#radialGradient3060-0);fill-opacity:1;fill-rule:nonzero;stroke:url(#linearGradient3062-0);stroke-width:1;stroke-linecap:butt;stroke-linejoin:round;stroke-miterlimit:4;stroke-dasharray:none;stroke-dashoffset:0;stroke-opacity:1;marker:none;enable-background:accumulate" />
  <path
     style="fill:none;stroke:url(#linearGradient3039);stroke-width:1px;stroke-linecap:butt;stroke-linejoin:miter;stroke-opacity:1"
     id="path3475"
     d="m 38.0015,8.5000007 -2.34375,0 z m -2.6875,0 -2.1875,0 z m -2.53125,0 -1.9375,0 z m -2.25,0 -0.84375,0 z m -1.1875,0 -1.875,0 z m -2.25,0 -4.9375,0 z m -5.25,0 -3.78125,0 z m 16.15625,2.0000003 -3.65625,0 z m -4.0625,0 -1.75,0 z m -2.0625,0 -0.875,0 z m -1.21875,0 -1.59375,0 z m -1.9375,0 -1.625,0 z m -1.9375,0 -2.59375,0 z m -2.9375,0 -3.375,0 z m -3.6875,0 -2.25,0 z m -2.5625,0 -0.5625,0 z m 20.40625,1.968749 -3.09375,0 z m -3.40625,0 -5.0625,0 z m -5.375,0 -2.46875,0 z m -2.78125,0 -2.3125,0 z m -2.625,0 -1.96875,0 z m -2.28125,0 L 18.439,12.5 Z M 18.15775,12.5 Z m 19.84375,2 -4.28125,0 z m -4.625,0 -4.625,0 z m -4.9375,0 -1.84375,0 z m -2.15625,0 -4.34375,0 z m -4.625,0 -2.96875,0 z m -3.3125,0 -1.1875,0 z m 19.65625,2 -1.59375,0 z m -2.09375,0 -5.90625,0 z m 2.09375,3.96875 -3.09375,0 z m -3.40625,0 -5.0625,0 z m -5.375,0 -2.46875,0 z m -2.78125,0 -2.3125,0 z m -2.625,0 -1.96875,0 z m -2.28125,0 L 18.439,20.5 Z M 18.15775,20.5 Z m 19.84375,2 -2.34375,0 z m -2.6875,0 -2.15625,0 z m -2.53125,0 -1.9375,0 z m -2.25,0 -0.84375,0 z m -1.1875,0 -1.875,0 z m -2.25,0 -4.90625,0 z m -5.25,0 -3.75,0 z m -4.0625,0 -1.1875,0 z m 20.21875,2 -3.9375,0 z m -4.25,0 -4.21875,0 z m -4.53125,0 -1.625,0 z m -1.9375,0 -3.96875,0 z m -4.28125,0 -5,0 z m -5.34375,0 -1.84375,0 z m 20.34375,2 -4.28125,0 z m -4.625,0 -4.625,0 z m -4.9375,0 -1.84375,0 z m -2.15625,0 -4.34375,0 z m -4.625,0 -2.96875,0 z m -3.3125,0 -1.1875,0 z m 19.65625,2 -3.65625,0 z m -4.0625,0 -1.75,0 z m -2.0625,0 -0.875,0 z m -1.21875,0 -1.59375,0 z m -1.9375,0 -1.625,0 z m -1.9375,0 -2.59375,0 z m -2.9375,0 -3.375,0 z m -3.6875,0 -2.25,0 z m -2.5625,0 -0.5625,0 z m 20.40625,3.96875 -3.09375,0 z m -3.40625,0 -5.0625,0 z m -5.375,0 -2.46875,0 z m -2.78125,0 -2.3125,0 z m -2.625,0 -1.96875,0 z m -2.28125,0 L 18.439,32.5 Z M 18.15775,32.5 Z m 19.84375,2 -3.65625,0 z m -4.0625,0 -1.75,0 z m -2.0625,0 -0.875,0 z m -1.21875,0 -1.59375,0 z m -1.9375,0 -1.625,0 z m -1.9375,0 -2.59375,0 z m -2.9375,0 -3.375,0 z m -3.6875,0 -2.25,0 z m -2.5625,0 -0.5625,0 z m 20.40625,2 -3.875,0 z m -4.21875,0 -1.21875,0 z m -1.53125,0 -2.78125,0 z m -3.09375,0 -4.09375,0 z m -4.4375,0 -2.78125,0 z m -3.0625,0 -0.59375,0 z m -0.90625,0 -3.53125,0 z m 17.25,2 -3.875,0 z m -4.21875,0 -1.75,0 z m -2.0625,0 -2.75,0 z m -3.0625,0 -2.96875,0 z m -3.3125,0 -1.1875,0 z m -1.5,0 -0.65625,0 z m -1,0 -1.84375,0 z" />
  <path
     style="opacity:0.8;fill:#e9e9e9;fill-opacity:1;fill-rule:evenodd;stroke:#83899a;stroke-width:1;stroke-linecap:butt;stroke-linejoin:miter;stroke-miterlimit:4;stroke-dasharray:none;stroke-opacity:1"
     id="path3410"
     d="m 21.500107,44.5 20.000001,-20.000002 0,20.000002 z m 9.333333,-4.000001 6.666667,0 0,-6.666666 z" />
</svg>
