<?xml version="1.0" encoding="UTF-8" standalone="no"?>
<svg
   xmlns:dc="http://purl.org/dc/elements/1.1/"
   xmlns:cc="http://creativecommons.org/ns#"
   xmlns:rdf="http://www.w3.org/1999/02/22-rdf-syntax-ns#"
   xmlns:svg="http://www.w3.org/2000/svg"
   xmlns="http://www.w3.org/2000/svg"
   xmlns:xlink="http://www.w3.org/1999/xlink"
   id="svg4168"
   height="48"
   width="48"
   version="1.1">
  <defs
     id="defs4170">
    <linearGradient
       gradientTransform="matrix(1.0501977,0,0,0.9932209,-1.681624,-0.76407796)"
       gradientUnits="userSpaceOnUse"
       xlink:href="#linearGradient4102"
       id="linearGradient3058"
       y2="13.663627"
       x2="16.887266"
       y1="24.239939"
       x1="28.534189" />
    <linearGradient
       id="linearGradient4102">
      <stop
         offset="0"
         style="stop-color:#fda852;stop-opacity:1"
         id="stop4104" />
      <stop
         offset="1"
         style="stop-color:#ffffff;stop-opacity:0"
         id="stop4106" />
    </linearGradient>
    <linearGradient
       gradientTransform="matrix(0.8074968,0,0,0.8948322,59.410232,-2.9805531)"
       gradientUnits="userSpaceOnUse"
       xlink:href="#linearGradient3104"
       id="linearGradient3324"
       y2="2.9062471"
       x2="-51.786404"
       y1="50.786446"
       x1="-51.786404" />
    <linearGradient
       id="linearGradient3104">
      <stop
         offset="0"
         style="stop-color:#a0a0a0;stop-opacity:1"
         id="stop3106" />
      <stop
         offset="1"
         style="stop-color:#bebebe;stop-opacity:1"
         id="stop3108" />
    </linearGradient>
  </defs>
  <metadata
     id="metadata4173">
    <rdf:RDF>
      <cc:Work
         rdf:about="">
        <dc:format>image/svg+xml</dc:format>
        <dc:type
           rdf:resource="http://purl.org/dc/dcmitype/StillImage" />
        <dc:title />
      </cc:Work>
    </rdf:RDF>
  </metadata>
  <path
     d="M 6.4999609,0.497199 C 14.520256,0.497199 41.5,0.5 41.5,0.5 l 4.2e-5,44.002803 c 0,0 -23.333387,0 -35.0000811,0 0,-14.668535 0,-29.33707 0,-44.00560407 z"
     id="path4160"
     style="display:inline;fill:#fafafa;fill-opacity:1;stroke:url(#linearGradient3324);stroke-width:0.99992186;stroke-linecap:butt;stroke-linejoin:round;stroke-miterlimit:4;stroke-dasharray:none;stroke-dashoffset:0;stroke-opacity:1" />
  <path
     d="m 15.493102,34.578022 c 4.386207,2.813793 13.962591,-0.950658 6.001067,-11.02474 C 13.604717,13.570396 29.332759,7.0228144 34,18.567721"
     id="path2783"
     style="fill:url(#linearGradient3058);fill-opacity:1;fill-rule:evenodd;stroke:#ea541a;stroke-width:0.99999982px;stroke-linecap:butt;stroke-linejoin:miter;stroke-opacity:1" />
  <path
     d="M 14.438316,14.480986 29.568109,33.402047"
     id="path3571"
     style="fill:#f37329;fill-opacity:1;stroke:#ea541a;stroke-width:1px;stroke-linecap:butt;stroke-linejoin:miter;stroke-opacity:1" />
  <path
     d="m 30.5,33.500001 c 3.72e-4,0.552547 -0.447453,1.000673 -1,1.000673 -0.552547,0 -1.000372,-0.448126 -1,-1.000673 -3.72e-4,-0.552548 0.447453,-1.000674 1,-1.000674 0.552547,0 1.000372,0.448126 1,1.000674 l 0,0 z M 15.5,14.5 c 3.72e-4,0.552548 -0.447453,1.000673 -1,1.000673 -0.552547,0 -1.000372,-0.448125 -1,-1.000673 -3.72e-4,-0.552548 0.447453,-1.000673 1,-1.000673 0.552547,0 1.000372,0.448125 1,1.000673 l 0,0 z"
     id="path3575"
     style="fill:#e6e6e6;fill-opacity:1;stroke:#ea541a;stroke-width:1;stroke-linecap:butt;stroke-miterlimit:4;stroke-dasharray:none;stroke-opacity:1" />
  <path
     d="m 20,22 3,0 0,3 -3,0 z m 12,-5 3,0 0,3 -3,0 z m -19,16 3,0 0,3 -3,0 z"
     id="rect3569"
     style="fill:#ea541a;fill-opacity:1;stroke:none" />
  <path
     style="opacity:0.8;fill:#e9e9e9;fill-opacity:1;fill-rule:evenodd;stroke:#83899a;stroke-width:1;stroke-linecap:butt;stroke-linejoin:miter;stroke-miterlimit:4;stroke-dasharray:none;stroke-opacity:1"
     id="path3410"
     d="m 21.500107,44.5 20.000002,-20.000002 0,20.000002 z m 9.333334,-4.000001 6.666667,0 0,-6.666666 z" />
</svg>
