<?xml version="1.0" encoding="UTF-8" standalone="no"?>
<svg
   xmlns:dc="http://purl.org/dc/elements/1.1/"
   xmlns:cc="http://creativecommons.org/ns#"
   xmlns:rdf="http://www.w3.org/1999/02/22-rdf-syntax-ns#"
   xmlns:svg="http://www.w3.org/2000/svg"
   xmlns="http://www.w3.org/2000/svg"
   xmlns:xlink="http://www.w3.org/1999/xlink"
   version="1.1"
   width="48"
   height="48"
   id="svg3111">
  <defs
     id="defs3113">
    <linearGradient
       id="linearGradient3242-7-3-8-0-4-58-06">
      <stop
         id="stop3244-5-8-5-6-4-3-8"
         style="stop-color:#cdf87e;stop-opacity:1"
         offset="0" />
      <stop
         id="stop3246-9-5-1-5-3-0-7"
         style="stop-color:#a2e34f;stop-opacity:1"
         offset="0.26238" />
      <stop
         id="stop3248-7-2-0-7-5-35-9"
         style="stop-color:#68b723;stop-opacity:1"
         offset="0.66093999" />
      <stop
         id="stop3250-8-2-8-5-6-40-4"
         style="stop-color:#1d7e0d;stop-opacity:1"
         offset="1" />
    </linearGradient>
    <linearGradient
       x1="24.169817"
       y1="-12.24244"
       x2="24.169817"
       y2="48.933952"
       id="linearGradient4036"
       xlink:href="#linearGradient3242-7-3-8-0-4-58-06"
       gradientUnits="userSpaceOnUse"
       gradientTransform="matrix(0.70909089,0,0,0.70909089,1.309104,2.3090923)" />
  </defs>
  <metadata
     id="metadata3116">
    <rdf:RDF>
      <cc:Work
         rdf:about="">
        <dc:format>image/svg+xml</dc:format>
        <dc:type
           rdf:resource="http://purl.org/dc/dcmitype/StillImage" />
        <dc:title />
      </cc:Work>
    </rdf:RDF>
  </metadata>
  <rect
     width="38"
     height="38"
     rx="2"
     ry="2"
     x="5"
     y="6"
     id="rect5505-21"
     style="color:#000000;fill:#fafafa;fill-opacity:1;fill-rule:nonzero;stroke:none;stroke-width:0.99999994;marker:none;visibility:visible;display:inline;overflow:visible;enable-background:accumulate" />
  <path
     d="m 4.500013,15 0,27.372728 c 0,1.178509 0.948764,2.127272 2.127273,2.127272 l 34.745453,0 c 1.17851,0 2.127273,-0.948763 2.127273,-2.127272 l 0,-27.372728"
     id="rect4567"
     style="opacity:0.3;fill:none;stroke:#000000;stroke-width:0.99999994;stroke-miterlimit:4;stroke-dasharray:none" />
  <path
     d="m 6.627285,5.5000013 c -1.178509,0 -2.127272,0.948764 -2.127272,2.127273 l 0,6.8727257 38.999999,0 0,-6.8727257 c 0,-1.178509 -0.948764,-2.127273 -2.127273,-2.127273 z"
     id="rect5505-21-3-8-5-2-6-1"
     style="color:#000000;fill:url(#linearGradient4036);fill-opacity:1;fill-rule:nonzero;stroke:none;stroke-width:0.99999994;marker:none;visibility:visible;display:inline;overflow:visible;enable-background:accumulate" />
  <path
     d="m 6.627286,5.5000013 c -1.178509,0 -2.127273,0.948764 -2.127273,2.127273 l 0,6.8727257 38.999999,0 0,-6.8727257 c 0,-1.178509 -0.948763,-2.127273 -2.127273,-2.127273 z"
     id="rect5505-21-3-8-9-1-1-7-8"
     style="opacity:0.4;color:#000000;fill:none;stroke:#126400;stroke-width:0.99999994;stroke-linecap:round;stroke-linejoin:miter;stroke-miterlimit:4;stroke-opacity:1;stroke-dasharray:none;stroke-dashoffset:0;marker:none;visibility:visible;display:inline;overflow:visible;enable-background:accumulate" />
  <path
     d="m 11.464567,11.472441 a 1.1023622,1.0472441 0 1 1 -2.2047246,0 1.1023622,1.0472441 0 1 1 2.2047246,0 z"
     transform="matrix(0.9071429,0,0,0.95488721,28.6,0.04511312)"
     id="path4682-6-3"
     style="opacity:0.3;color:#000000;fill:#ffffff;fill-opacity:1;fill-rule:nonzero;stroke:none;stroke-width:1.07444978;marker:none;visibility:visible;display:inline;overflow:visible;enable-background:accumulate" />
  <path
     d="m 11.464567,11.472441 a 1.1023622,1.0472441 0 1 1 -2.2047246,0 1.1023622,1.0472441 0 1 1 2.2047246,0 z"
     transform="matrix(0.9071429,0,0,0.95488721,28.6,-0.95488626)"
     id="path4682-6-1-5"
     style="opacity:0.4;color:#000000;fill:#126400;fill-opacity:1;fill-rule:nonzero;stroke:none;stroke-width:1.07444978;marker:none;visibility:visible;display:inline;overflow:visible;enable-background:accumulate" />
  <path
     d="M 38.510676,33.5 9.5,33.5 z M 38.48932,19.529672 9.5,19.507389 l 0,18.992605 29.010675,0 z M 38.51068,29.5 9.500004,29.5 m 29.010676,-5 -29.010676,0 m 6.019641,-4.950508 -0.03929,18.950507 M 20.5038,19.631982 20.4962,38.499999 m 5.99975,-18.93401 0.0081,18.93401 m 5.9813,-19 0.0293,19"
     id="rect4188-6-4-0-8"
     style="opacity:0.3;fill:none;stroke:#5e553c;stroke-width:1;stroke-miterlimit:4;stroke-opacity:1;stroke-dasharray:none" />
  <path
     d="m 11.464567,11.472441 a 1.1023622,1.0472441 0 1 1 -2.2047246,0 1.1023622,1.0472441 0 1 1 2.2047246,0 z"
     transform="matrix(0.9071429,0,0,0.95488721,0.6,0.04511336)"
     id="path4682-6-3-8"
     style="opacity:0.3;color:#000000;fill:#ffffff;fill-opacity:1;fill-rule:nonzero;stroke:none;stroke-width:1.07444978;marker:none;visibility:visible;display:inline;overflow:visible;enable-background:accumulate" />
  <path
     d="m 11.464567,11.472441 a 1.1023622,1.0472441 0 1 1 -2.2047246,0 1.1023622,1.0472441 0 1 1 2.2047246,0 z"
     transform="matrix(0.9071429,0,0,0.95488721,0.6,-0.95488594)"
     id="path4682-6-1-5-0"
     style="opacity:0.4;color:#000000;fill:#126400;fill-opacity:1;fill-rule:nonzero;stroke:none;stroke-width:1.07444978;marker:none;visibility:visible;display:inline;overflow:visible;enable-background:accumulate" />
</svg>
