<?xml version="1.0" encoding="UTF-8" standalone="no"?>
<svg
   xmlns:dc="http://purl.org/dc/elements/1.1/"
   xmlns:cc="http://creativecommons.org/ns#"
   xmlns:rdf="http://www.w3.org/1999/02/22-rdf-syntax-ns#"
   xmlns:svg="http://www.w3.org/2000/svg"
   xmlns="http://www.w3.org/2000/svg"
   xmlns:xlink="http://www.w3.org/1999/xlink"
   id="svg4013"
   height="48"
   width="48"
   version="1.1">
  <defs
     id="defs4015">
    <linearGradient
       gradientTransform="translate(2.0179033,-3.0470729)"
       gradientUnits="userSpaceOnUse"
       xlink:href="#linearGradient3104-4"
       id="linearGradient3045"
       y2="3.3638515"
       x2="22.004084"
       y1="47.813133"
       x1="22.004084" />
    <linearGradient
       id="linearGradient3104-4">
      <stop
         offset="0"
         style="stop-color:#aaaaaa;stop-opacity:1"
         id="stop3106-7" />
      <stop
         offset="1"
         style="stop-color:#c8c8c8;stop-opacity:1"
         id="stop3108-6" />
    </linearGradient>
    <linearGradient
       id="linearGradient2867-449-88-871-390-598-476-591-434-148-57-177-8">
      <stop
         offset="0"
         style="stop-color:#90dbec;stop-opacity:1"
         id="stop3750-1" />
      <stop
         offset="0.26238"
         style="stop-color:#55c1ec;stop-opacity:1"
         id="stop3752-3" />
      <stop
         offset="0.704952"
         style="stop-color:#3689e6;stop-opacity:1"
         id="stop3754-1" />
      <stop
         offset="1"
         style="stop-color:#2b63a0;stop-opacity:1"
         id="stop3756-1" />
    </linearGradient>
    <linearGradient
       y2="2.9062471"
       x2="-51.786404"
       y1="50.786446"
       x1="-51.786404"
       gradientTransform="matrix(0.80749686,0,0,0.89471714,59.410232,-2.9773433)"
       gradientUnits="userSpaceOnUse"
       id="linearGradient3170"
       xlink:href="#linearGradient4203" />
    <linearGradient
       id="linearGradient4203">
      <stop
         offset="0"
         style="stop-color:#000000;stop-opacity:0.31764707"
         id="stop4205" />
      <stop
         offset="1"
         style="stop-color:#000000;stop-opacity:0.23921569"
         id="stop4207" />
    </linearGradient>
    <radialGradient
       cx="7.8060555"
       cy="9.9571075"
       r="12.671875"
       fx="7.2758255"
       fy="9.9571075"
       id="radialGradient3042"
       xlink:href="#linearGradient2867-449-88-871-390-598-476-591-434-148-57-177-8"
       gradientUnits="userSpaceOnUse"
       gradientTransform="matrix(-1.6167311e-7,6.6018651,-8.0922115,-1.9817022e-7,104.56429,-60.072946)" />
  </defs>
  <metadata
     id="metadata4018">
    <rdf:RDF>
      <cc:Work
         rdf:about="">
        <dc:format>image/svg+xml</dc:format>
        <dc:type
           rdf:resource="http://purl.org/dc/dcmitype/StillImage" />
        <dc:title />
      </cc:Work>
    </rdf:RDF>
  </metadata>
  <path
     d="m 7,0.9999971 c 7.791126,0 33.999958,0.00274 33.999958,0.00274 L 40.999999,44 C 40.999999,44 18.333333,44 7,44 7,29.666666 7,15.333333 7,1 Z"
     id="path4160-6"
     style="display:inline;fill:#fafafa;fill-opacity:1;stroke:none" />
  <path
     d="m 11.99515,44.495152 c -1.754361,0 -3.5087232,0 -5.2630934,0 C 6.3056432,43.974283 6.6298943,42.94015 6.528578,42.202761 c 0,-13.81505 0,-27.630098 0,-41.44514257 l 0.059468,-0.17889705 0.1440101,-0.0738717 0,0 c 1.8259354,0 3.3655929,0 5.1915199,0"
     id="path4530"
     style="color:#000000;display:inline;overflow:visible;visibility:visible;fill:url(#radialGradient3042);fill-opacity:1;fill-rule:nonzero;stroke:none;stroke-width:1;marker:none;enable-background:accumulate" />
  <path
     d="m 6.4999605,0.49996196 c 8.0202885,0 35.0000395,0.00298 35.0000395,0.00298 l 3.7e-5,43.99709604 c 0,0 -23.333385,0 -35.0000765,0 0,-14.666738 0,-29.333326 0,-43.99989264 z"
     id="path4160-6-1"
     style="display:inline;fill:none;stroke:url(#linearGradient3170);stroke-width:0.99992192;stroke-linecap:butt;stroke-linejoin:round;stroke-miterlimit:4;stroke-dasharray:none;stroke-dashoffset:0;stroke-opacity:1" />
  <path
     d="m 15,8.500001 2.343749,0 -2.343749,0 z m 2.687499,0 2.1875,0 -2.1875,0 z m 2.53125,0 1.9375,0 -1.9375,0 z m 2.25,0 0.84375,0 -0.84375,0 z m 1.1875,0 1.875,0 -1.875,0 z m 2.25,0 4.9375,0 -4.9375,0 z m 5.25,0 3.78125,0 -3.78125,0 z m -16.156249,2 3.656249,0 -3.656249,0 z m 4.062499,0 1.75,0 -1.75,0 z m 2.0625,0 0.875,0 -0.875,0 z m 1.21875,0 1.59375,0 -1.59375,0 z m 1.9375,0 1.625,0 -1.625,0 z m 1.9375,0 2.59375,0 -2.59375,0 z m 2.9375,0 3.375,0 -3.375,0 z m 3.6875,0 2.25,0 -2.25,0 z m 2.5625,0 0.5625,0 -0.5625,0 z M 15,12.46875 l 3.093749,0 -3.093749,0 z m 3.406249,0 5.0625,0 -5.0625,0 z m 5.375,0 2.46875,0 -2.46875,0 z m 2.78125,0 2.3125,0 -2.3125,0 z m 2.625,0 1.96875,0 -1.96875,0 z m 2.28125,0 3.09375,0.03125 -3.09375,-0.03125 z m 3.375,0.03125 0,0 z M 15,14.5 19.281249,14.5 15,14.5 Z m 4.624999,0 4.625,0 -4.625,0 z m 4.9375,0 1.84375,0 -1.84375,0 z m 2.15625,0 4.34375,0 -4.34375,0 z m 4.625,0 2.96875,0 -2.96875,0 z m 3.3125,0 1.1875,0 -1.1875,0 z M 15,16.5 16.593749,16.5 15,16.5 Z m 2.093749,0 5.90625,0 -5.90625,0 z M 15,20.46875 l 3.093749,0 -3.093749,0 z m 3.406249,0 5.0625,0 -5.0625,0 z m 5.375,0 2.46875,0 -2.46875,0 z m 2.78125,0 2.3125,0 -2.3125,0 z m 2.625,0 1.96875,0 -1.96875,0 z m 2.28125,0 3.09375,0.03125 -3.09375,-0.03125 z m 3.375,0.03125 0,0 z M 15,22.5 17.343749,22.5 15,22.5 Z m 2.687499,0 2.15625,0 -2.15625,0 z m 2.53125,0 1.9375,0 -1.9375,0 z m 2.25,0 0.84375,0 -0.84375,0 z m 1.1875,0 1.875,0 -1.875,0 z m 2.25,0 4.90625,0 -4.90625,0 z m 5.25,0 3.75,0 -3.75,0 z m 4.0625,0 1.1875,0 -1.1875,0 z M 15,24.5 18.937499,24.5 15,24.5 Z m 4.249999,0 4.21875,0 -4.21875,0 z m 4.53125,0 1.625,0 -1.625,0 z m 1.9375,0 3.96875,0 -3.96875,0 z m 4.28125,0 5,0 -5,0 z m 5.34375,0 1.84375,0 -1.84375,0 z M 15,26.5 19.281249,26.5 15,26.5 Z m 4.624999,0 4.625,0 -4.625,0 z m 4.9375,0 1.84375,0 -1.84375,0 z m 2.15625,0 4.34375,0 -4.34375,0 z m 4.625,0 2.96875,0 -2.96875,0 z m 3.3125,0 1.1875,0 -1.1875,0 z M 15,28.5 18.656249,28.5 15,28.5 Z m 4.062499,0 1.75,0 -1.75,0 z m 2.0625,0 0.875,0 -0.875,0 z m 1.21875,0 1.59375,0 -1.59375,0 z m 1.9375,0 1.625,0 -1.625,0 z m 1.9375,0 2.59375,0 -2.59375,0 z m 2.9375,0 3.375,0 -3.375,0 z m 3.6875,0 2.25,0 -2.25,0 z m 2.5625,0 0.5625,0 -0.5625,0 z M 15,32.46875 l 3.093749,0 -3.093749,0 z m 3.406249,0 5.0625,0 -5.0625,0 z m 5.375,0 2.46875,0 -2.46875,0 z m 2.78125,0 2.3125,0 -2.3125,0 z m 2.625,0 1.96875,0 -1.96875,0 z m 2.28125,0 3.09375,0.03125 -3.09375,-0.03125 z m 3.375,0.03125 0,0 z M 15,34.5 18.656249,34.5 15,34.5 Z m 4.062499,0 1.75,0 -1.75,0 z m 2.0625,0 0.875,0 -0.875,0 z m 1.21875,0 1.59375,0 -1.59375,0 z m 1.9375,0 1.625,0 -1.625,0 z m 1.9375,0 2.59375,0 -2.59375,0 z m 2.9375,0 3.375,0 -3.375,0 z m 3.6875,0 2.25,0 -2.25,0 z m 2.5625,0 0.5625,0 -0.5625,0 z M 15,36.5 18.874999,36.5 15,36.5 Z m 4.218749,0 1.21875,0 -1.21875,0 z m 1.53125,0 2.78125,0 -2.78125,0 z m 3.09375,0 4.09375,0 -4.09375,0 z m 4.4375,0 2.78125,0 -2.78125,0 z m 3.0625,0 0.59375,0 -0.59375,0 z m 0.90625,0 3.53125,0 -3.53125,0 z M 15,38.5 18.874999,38.5 15,38.5 Z m 4.218749,0 1.75,0 -1.75,0 z m 2.0625,0 2.75,0 -2.75,0 z m 3.0625,0 2.96875,0 -2.96875,0 z m 3.3125,0 1.1875,0 -1.1875,0 z m 1.5,0 0.65625,0 -0.65625,0 z m 1,0 1.84375,0 -1.84375,0 z"
     id="path3475"
     style="fill:none;stroke:url(#linearGradient3045);stroke-width:1px;stroke-linecap:butt;stroke-linejoin:miter;stroke-opacity:1" />
  <path
     style="opacity:0.8;fill:#e9e9e9;fill-opacity:1;fill-rule:evenodd;stroke:#83899a;stroke-width:1;stroke-linecap:butt;stroke-linejoin:miter;stroke-miterlimit:4;stroke-dasharray:none;stroke-opacity:1"
     id="path3410"
     d="m 21.500107,44.5 20.000001,-20.000002 0,20.000002 z m 9.333333,-4.000001 6.666667,0 0,-6.666666 z" />
</svg>
