<?xml version="1.0" encoding="UTF-8" standalone="no"?>
<svg
   xmlns:dc="http://purl.org/dc/elements/1.1/"
   xmlns:cc="http://creativecommons.org/ns#"
   xmlns:rdf="http://www.w3.org/1999/02/22-rdf-syntax-ns#"
   xmlns:svg="http://www.w3.org/2000/svg"
   xmlns="http://www.w3.org/2000/svg"
   xmlns:xlink="http://www.w3.org/1999/xlink"
   version="1.1"
   width="64"
   height="64"
   id="svg3844">
  <defs
     id="defs3846">
    <linearGradient
       id="linearGradient994">
      <stop
         id="stop990"
         offset="0"
         style="stop-color:#f9c440;stop-opacity:1" />
      <stop
         id="stop992"
         offset="1"
         style="stop-color:#d48e15;stop-opacity:1" />
    </linearGradient>
    <linearGradient
       x1="-51.786404"
       y1="50.786446"
       x2="-51.786404"
       y2="2.9062471"
       id="linearGradient3033"
       xlink:href="#linearGradient3104-6"
       gradientUnits="userSpaceOnUse"
       gradientTransform="matrix(1.0843523,0,0,1.1997367,79.550862,-4.1628601)" />
    <linearGradient
       id="linearGradient3104-6">
      <stop
         id="stop3106-3"
         style="stop-color:#000000;stop-opacity:0.31782946"
         offset="0" />
      <stop
         id="stop3108-9"
         style="stop-color:#000000;stop-opacity:0.24031007"
         offset="1" />
    </linearGradient>
    <linearGradient
       gradientTransform="matrix(1.0138211,0,0,1.0041196,-0.6922757,0.37646229)"
       gradientUnits="userSpaceOnUse"
       y2="59.221642"
       x2="33.503624"
       y1="0.39035916"
       x1="33.503624"
       id="linearGradient996"
       xlink:href="#linearGradient994" />
  </defs>
  <metadata
     id="metadata3849">
    <rdf:RDF>
      <cc:Work
         rdf:about="">
        <dc:format>image/svg+xml</dc:format>
        <dc:type
           rdf:resource="http://purl.org/dc/dcmitype/StillImage" />
        <dc:title />
      </cc:Work>
    </rdf:RDF>
  </metadata>
  <path
     style="display:inline;fill:#fafafa;fill-opacity:1;stroke:none"
     id="path4160-6"
     d="m 9,0.9998799 c 10.540935,0 45.999945,0.004 45.999945,0.004 L 55,59.00002 c 0,0 -30.666666,0 -46,0 0,-19.3334 0,-38.6665 0,-57.9998201 z" />
  <path
     style="display:inline;fill:none;stroke:url(#linearGradient3033);stroke-width:0.9999218;stroke-linecap:butt;stroke-linejoin:round;stroke-miterlimit:4;stroke-dasharray:none;stroke-dashoffset:0;stroke-opacity:1"
     id="path4160-6-1"
     d="m 8.4999684,0.4998999 c 10.7700936,0 47.0000286,0.004 47.0000286,0.004 l 4.9e-5,58.9962201 c 0,0 -31.333384,0 -47.0000776,0 0,-19.6668 0,-39.3334 0,-58.9999701 z" />
  <path
     style="fill:url(#linearGradient996);fill-opacity:1;stroke-width:1"
     id="path16"
     d="m 25.027777,19 v 15.221424 c 0,2.335937 -0.892798,2.93647 -2.444446,2.93647 -1.623269,0 -2.749985,-1.002466 -3.494784,-2.302836 L 15.25,37.157894 C 16.362406,39.489103 19.088547,42 22.869798,42 c 4.182296,0 7.046867,-2.203535 7.046867,-7.040913 V 19 Z m 15.220486,0 c -4.163194,0 -6.832025,2.638571 -6.832025,6.104648 0,3.75925 2.23914,5.537211 5.605022,6.955795 l 1.164942,0.496506 c 2.124562,0.922081 3.174908,1.484786 3.174908,3.068874 0,1.319284 -1.012147,2.274465 -2.945744,2.274465 -2.301211,0 -3.389765,-1.546258 -4.387594,-3.163445 l -3.666663,2.421051 C 33.731334,39.839021 36.190111,42 40.520408,42 c 4.430556,0 7.729591,-2.279194 7.729591,-6.435649 0,-3.858553 -2.234371,-5.575042 -6.201811,-7.25843 l -1.164942,-0.491776 c -2.000432,-0.860608 -2.869358,-1.418581 -2.869358,-2.804075 0,-1.120682 0.868926,-1.981281 2.234377,-1.981293 1.341588,0 2.200937,0.562714 2.998263,1.981293 l 3.633251,-2.307566 C 45.347236,20.021382 43.213102,19 40.248263,19 Z" />
</svg>
