<?xml version="1.0" encoding="UTF-8" standalone="no"?>
<svg
   xmlns:dc="http://purl.org/dc/elements/1.1/"
   xmlns:cc="http://creativecommons.org/ns#"
   xmlns:rdf="http://www.w3.org/1999/02/22-rdf-syntax-ns#"
   xmlns:svg="http://www.w3.org/2000/svg"
   xmlns="http://www.w3.org/2000/svg"
   xmlns:xlink="http://www.w3.org/1999/xlink"
   id="svg3844"
   height="64"
   width="64"
   version="1.1">
  <defs
     id="defs3846">
    <linearGradient
       gradientTransform="matrix(1.0843523,0,0,1.1997367,79.550862,-4.1628601)"
       gradientUnits="userSpaceOnUse"
       xlink:href="#linearGradient3104-6"
       id="linearGradient3033"
       y2="2.9062471"
       x2="-51.786404"
       y1="50.786446"
       x1="-51.786404" />
    <linearGradient
       id="linearGradient3104-6">
      <stop
         offset="0"
         style="stop-color:#000000;stop-opacity:0.31782946"
         id="stop3106-3" />
      <stop
         offset="1"
         style="stop-color:#000000;stop-opacity:0.24031007"
         id="stop3108-9" />
    </linearGradient>
  </defs>
  <metadata
     id="metadata3849">
    <rdf:RDF>
      <cc:Work
         rdf:about="">
        <dc:format>image/svg+xml</dc:format>
        <dc:type
           rdf:resource="http://purl.org/dc/dcmitype/StillImage" />
        <dc:title />
      </cc:Work>
    </rdf:RDF>
  </metadata>
  <path
     d="m 9,0.9998799 c 10.540935,0 45.999945,0.004 45.999945,0.004 L 55,59.00002 c 0,0 -30.666666,0 -46,0 0,-19.3334 0,-38.6665 0,-57.9998201 z"
     id="path4160-6"
     style="display:inline;fill:#fafafa;fill-opacity:1;stroke:none" />
  <path
     d="m 8.4999684,0.4998999 c 10.7700936,0 47.0000286,0.004 47.0000286,0.004 l 4.9e-5,58.9962201 c 0,0 -31.333384,0 -47.0000776,0 0,-19.6668 0,-39.3334 0,-58.9999701 z"
     id="path4160-6-1"
     style="display:inline;fill:none;stroke:url(#linearGradient3033);stroke-width:0.9999218;stroke-linecap:butt;stroke-linejoin:round;stroke-miterlimit:4;stroke-dasharray:none;stroke-dashoffset:0;stroke-opacity:1" />
  <path
     style="color:#000000;display:inline;overflow:visible;visibility:visible;opacity:0.2;fill:#000000;fill-opacity:1;fill-rule:nonzero;stroke:none;stroke-width:0.98542744;marker:none;enable-background:accumulate"
     d="M 20.017578 8.0117188 L 20.017578 12.011719 L 24.017578 12.011719 L 24.017578 8.0117188 L 20.017578 8.0117188 z M 24.017578 12.011719 L 24.017578 16.011719 L 28.017578 16.011719 L 28.017578 12.011719 L 24.017578 12.011719 z M 28.017578 12.011719 L 32.017578 12.011719 L 32.017578 8.0117188 L 28.017578 8.0117188 L 28.017578 12.011719 z M 32.017578 12.011719 L 32.017578 16.011719 L 36.017578 16.011719 L 36.017578 12.011719 L 32.017578 12.011719 z M 36.017578 12.011719 L 40.017578 12.011719 L 40.017578 8.0117188 L 36.017578 8.0117188 L 36.017578 12.011719 z M 40.017578 12.011719 L 40.017578 16.011719 L 44.017578 16.011719 L 44.017578 12.011719 L 40.017578 12.011719 z M 44.017578 12.011719 L 48.017578 12.011719 L 48.017578 8.0117188 L 44.017578 8.0117188 L 44.017578 12.011719 z M 44.017578 16.011719 L 44.017578 20.011719 L 48.017578 20.011719 L 48.017578 16.011719 L 44.017578 16.011719 z M 44.017578 20.011719 L 40.017578 20.011719 L 40.017578 24.011719 L 44.017578 24.011719 L 44.017578 20.011719 z M 44.017578 24.011719 L 44.017578 28.011719 L 48.017578 28.011719 L 48.017578 24.011719 L 44.017578 24.011719 z M 44.017578 28.011719 L 40.017578 28.011719 L 40.017578 32.011719 L 44.017578 32.011719 L 44.017578 28.011719 z M 44.017578 32.011719 L 44.017578 36.011719 L 48.017578 36.011719 L 48.017578 32.011719 L 44.017578 32.011719 z M 44.017578 36.011719 L 40.017578 36.011719 L 40.017578 40.011719 L 44.017578 40.011719 L 44.017578 36.011719 z M 44.017578 40.011719 L 44.017578 44.011719 L 48.017578 44.011719 L 48.017578 40.011719 L 44.017578 40.011719 z M 44.017578 44.011719 L 40.017578 44.011719 L 40.017578 48.011719 L 44.017578 48.011719 L 44.017578 44.011719 z M 44.017578 48.011719 L 44.017578 52.011719 L 48.017578 52.011719 L 48.017578 48.011719 L 44.017578 48.011719 z M 40.017578 48.011719 L 36.017578 48.011719 L 36.017578 52.011719 L 40.017578 52.011719 L 40.017578 48.011719 z M 36.017578 48.011719 L 36.017578 44.011719 L 32.017578 44.011719 L 32.017578 48.011719 L 36.017578 48.011719 z M 32.017578 48.011719 L 28.017578 48.011719 L 28.017578 52.011719 L 32.017578 52.011719 L 32.017578 48.011719 z M 28.017578 48.011719 L 28.017578 44.011719 L 24.017578 44.011719 L 24.017578 48.011719 L 28.017578 48.011719 z M 24.017578 48.011719 L 20.017578 48.011719 L 20.017578 52.011719 L 24.017578 52.011719 L 24.017578 48.011719 z M 20.017578 48.011719 L 20.017578 44.011719 L 16.017578 44.011719 L 16.017578 48.011719 L 20.017578 48.011719 z M 20.017578 44.011719 L 24.017578 44.011719 L 24.017578 40.011719 L 20.017578 40.011719 L 20.017578 44.011719 z M 20.017578 40.011719 L 20.017578 36.011719 L 16.017578 36.011719 L 16.017578 40.011719 L 20.017578 40.011719 z M 20.017578 36.011719 L 24.017578 36.011719 L 24.017578 32.011719 L 20.017578 32.011719 L 20.017578 36.011719 z M 20.017578 32.011719 L 20.017578 28.011719 L 16.017578 28.011719 L 16.017578 32.011719 L 20.017578 32.011719 z M 20.017578 28.011719 L 24.017578 28.011719 L 24.017578 24.011719 L 20.017578 24.011719 L 20.017578 28.011719 z M 20.017578 24.011719 L 20.017578 20.011719 L 16.017578 20.011719 L 16.017578 24.011719 L 20.017578 24.011719 z M 20.017578 20.011719 L 24.017578 20.011719 L 24.017578 16.011719 L 20.017578 16.011719 L 20.017578 20.011719 z M 20.017578 16.011719 L 20.017578 12.011719 L 16.017578 12.011719 L 16.017578 16.011719 L 20.017578 16.011719 z M 24.017578 20.011719 L 24.017578 24.011719 L 28.017578 24.011719 L 28.017578 20.011719 L 24.017578 20.011719 z M 28.017578 20.011719 L 32.017578 20.011719 L 32.017578 16.011719 L 28.017578 16.011719 L 28.017578 20.011719 z M 32.017578 20.011719 L 32.017578 24.011719 L 36.017578 24.011719 L 36.017578 20.011719 L 32.017578 20.011719 z M 36.017578 20.011719 L 40.017578 20.011719 L 40.017578 16.011719 L 36.017578 16.011719 L 36.017578 20.011719 z M 36.017578 24.011719 L 36.017578 28.011719 L 40.017578 28.011719 L 40.017578 24.011719 L 36.017578 24.011719 z M 36.017578 28.011719 L 32.017578 28.011719 L 32.017578 32.011719 L 36.017578 32.011719 L 36.017578 28.011719 z M 36.017578 32.011719 L 36.017578 36.011719 L 40.017578 36.011719 L 40.017578 32.011719 L 36.017578 32.011719 z M 36.017578 36.011719 L 32.017578 36.011719 L 32.017578 40.011719 L 36.017578 40.011719 L 36.017578 36.011719 z M 36.017578 40.011719 L 36.017578 44.011719 L 40.017578 44.011719 L 40.017578 40.011719 L 36.017578 40.011719 z M 32.017578 40.011719 L 28.017578 40.011719 L 28.017578 44.011719 L 32.017578 44.011719 L 32.017578 40.011719 z M 28.017578 40.011719 L 28.017578 36.011719 L 24.017578 36.011719 L 24.017578 40.011719 L 28.017578 40.011719 z M 28.017578 36.011719 L 32.017578 36.011719 L 32.017578 32.011719 L 28.017578 32.011719 L 28.017578 36.011719 z M 28.017578 32.011719 L 28.017578 28.011719 L 24.017578 28.011719 L 24.017578 32.011719 L 28.017578 32.011719 z M 28.017578 28.011719 L 32.017578 28.011719 L 32.017578 24.011719 L 28.017578 24.011719 L 28.017578 28.011719 z "
     id="rect3137-6-5-5" />
</svg>
