<?xml version="1.0" encoding="UTF-8" standalone="no"?>
<svg
   xmlns:dc="http://purl.org/dc/elements/1.1/"
   xmlns:cc="http://creativecommons.org/ns#"
   xmlns:rdf="http://www.w3.org/1999/02/22-rdf-syntax-ns#"
   xmlns:svg="http://www.w3.org/2000/svg"
   xmlns="http://www.w3.org/2000/svg"
   xmlns:xlink="http://www.w3.org/1999/xlink"
   id="svg3844"
   height="64"
   width="64"
   version="1.1">
  <defs
     id="defs3846">
    <linearGradient
       gradientTransform="matrix(1.0843523,0,0,1.1997367,79.550862,-4.1628601)"
       gradientUnits="userSpaceOnUse"
       xlink:href="#linearGradient3104-6"
       id="linearGradient3033"
       y2="2.9062471"
       x2="-51.786404"
       y1="50.786446"
       x1="-51.786404" />
    <linearGradient
       id="linearGradient3104-6">
      <stop
         offset="0"
         style="stop-color:#000000;stop-opacity:0.31782946"
         id="stop3106-3" />
      <stop
         offset="1"
         style="stop-color:#000000;stop-opacity:0.24031007"
         id="stop3108-9" />
    </linearGradient>
  </defs>
  <metadata
     id="metadata3849">
    <rdf:RDF>
      <cc:Work
         rdf:about="">
        <dc:format>image/svg+xml</dc:format>
        <dc:type
           rdf:resource="http://purl.org/dc/dcmitype/StillImage" />
        <dc:title />
      </cc:Work>
    </rdf:RDF>
  </metadata>
  <path
     d="m 9,0.9998799 c 10.540935,0 45.999945,0.004 45.999945,0.004 L 55,59.00002 c 0,0 -30.666666,0 -46,0 0,-19.3334 0,-38.6665 0,-57.9998201 z"
     id="path4160-6"
     style="display:inline;fill:#fafafa;fill-opacity:1;stroke:none" />
  <path
     d="m 8.4999684,0.4998999 c 10.7700936,0 47.0000286,0.004 47.0000286,0.004 l 4.9e-5,58.9962201 c 0,0 -31.333384,0 -47.0000776,0 0,-19.6668 0,-39.3334 0,-58.9999701 z"
     id="path4160-6-1"
     style="display:inline;fill:none;stroke:url(#linearGradient3033);stroke-width:0.9999218;stroke-linecap:butt;stroke-linejoin:round;stroke-miterlimit:4;stroke-dasharray:none;stroke-dashoffset:0;stroke-opacity:1" />
  <g
     id="g4962"
     transform="translate(37.0002,32.125)">
    <g
       transform="translate(-313.0004,382)"
       style="display:inline"
       label="status"
       id="layer9" />
    <g
       transform="translate(-313.0004,382)"
       style="display:inline"
       id="layer10" />
    <g
       transform="translate(-313.0004,382)"
       style="display:inline"
       id="layer13" />
    <g
       transform="translate(-313.0004,382)"
       id="layer14" />
    <g
       transform="translate(-313.0004,382)"
       style="display:inline"
       id="layer15" />
    <g
       transform="translate(-313.0004,382)"
       style="display:inline"
       id="g71291" />
    <g
       transform="translate(-313.0004,382)"
       style="display:inline"
       id="g4953" />
    <g
       transform="translate(-313.0004,382)"
       style="display:inline"
       id="layer12" />
  </g>
  <g
     id="g886">
    <g
       id="g872">
      <path
         id="path3880"
         d="m 34.142732,28.992141 c 2.224969,2.561194 -0.583421,4.864076 -0.583421,4.864076 0,0 5.646252,-2.914244 3.053751,-6.565385 -2.422197,-3.403334 -4.279228,-5.093935 5.774337,-10.92436 1.02e-4,0 -15.781603,3.940556 -8.244667,12.625669 z"
         style="clip-rule:evenodd;fill:#f89820;fill-opacity:1;fill-rule:evenodd;stroke-width:0.78941286" />
      <path
         id="path3888"
         d="m 36.613164,6.9499673 c 0,0 4.789223,4.7919757 -4.543862,12.1586077 -7.484519,5.9116 -1.706511,9.280974 -0.0027,13.132606 C 27.697343,28.2994 24.492562,24.828965 26.642169,21.599505 29.798817,16.85964 38.545015,14.560837 36.613131,6.9499673 v 0 z"
         style="clip-rule:evenodd;fill:#f89820;fill-opacity:1;fill-rule:evenodd;stroke-width:0.78941286" />
    </g>
    <g
       style="fill:#5382a1;fill-opacity:1"
       id="g868">
      <path
         id="path3876"
         d="m 25.949461,42.600885 c 0,0 -1.760661,1.024783 1.25444,1.370594 3.653282,0.417092 5.520103,0.357027 9.544792,-0.403735 0,0 1.060272,0.66327 2.538453,1.237715 -9.025212,3.866725 -20.425915,-0.224047 -13.337685,-2.204574 z"
         style="clip-rule:evenodd;fill:#5382a1;fill-opacity:1;fill-rule:evenodd;stroke-width:0.78941286" />
      <path
         id="path3878"
         d="m 24.846052,37.554166 c 0,0 -1.97502,1.462272 1.042324,1.774123 3.902825,0.402918 6.983803,0.435958 12.318204,-0.59066 0,0 0.736082,0.747707 1.895273,1.156335 -10.910287,3.19132 -23.062164,0.251072 -15.255801,-2.339798 z"
         style="clip-rule:evenodd;fill:#5382a1;fill-opacity:1;fill-rule:evenodd;stroke-width:0.78941286" />
      <path
         id="path3882"
         d="m 46.079128,46.334323 c 0,0 1.303388,1.074447 -1.435554,1.90537 -5.208151,1.577507 -21.681067,2.053339 -26.256441,0.06312 -1.64359,-0.71589 1.440041,-1.708142 2.410265,-1.917709 1.011628,-0.218845 1.589235,-0.17887 1.589235,-0.17887 -1.829191,-1.288092 -11.822897,2.529784 -5.075681,3.624729 18.399905,2.982468 33.540267,-1.343365 28.768176,-3.496644 v 0 z"
         style="clip-rule:evenodd;fill:#5382a1;fill-opacity:1;fill-rule:evenodd;stroke-width:0.78941286" />
      <path
         id="path3884"
         d="m 26.796802,32.324498 c 0,0 -8.378056,1.990521 -2.966763,2.713957 2.285545,0.305834 6.838994,0.235468 11.083549,-0.12064 3.467886,-0.291048 6.948111,-0.913526 6.948111,-0.913526 0,0 -1.221908,0.524171 -2.106573,1.127884 -8.509506,2.238125 -24.945201,1.195802 -20.212881,-1.092395 4.000316,-1.935249 7.254557,-1.71528 7.254557,-1.71528 z"
         style="clip-rule:evenodd;fill:#5382a1;fill-opacity:1;fill-rule:evenodd;stroke-width:0.78941286" />
      <path
         id="path3886"
         d="m 41.827026,40.72509 c 8.649625,-4.493485 4.64992,-8.812179 1.858357,-8.230492 -0.682645,0.142464 -0.988887,0.265858 -0.988887,0.265858 0,0 0.254335,-0.39843 0.738632,-0.569857 5.522653,-1.940653 9.768941,5.725693 -1.780955,8.761904 -1.03e-4,0 0.132776,-0.120335 0.172853,-0.227413 z"
         style="clip-rule:evenodd;fill:#5382a1;fill-opacity:1;fill-rule:evenodd;stroke-width:0.78941286" />
      <path
         id="path3890"
         d="M 27.647202,52.905318 C 35.947957,53.436014 48.698245,52.609987 49,48.681872 c 0,0 -0.580055,1.489092 -6.860715,2.670616 -7.085579,1.333983 -15.82678,1.178669 -21.009233,0.322967 0,0 1.0617,0.87875 6.51715,1.229863 z"
         style="clip-rule:evenodd;fill:#5382a1;fill-opacity:1;fill-rule:evenodd;stroke-width:0.78941286" />
    </g>
  </g>
</svg>
