<?xml version="1.0" encoding="UTF-8" standalone="no"?>
<svg
   xmlns:dc="http://purl.org/dc/elements/1.1/"
   xmlns:cc="http://creativecommons.org/ns#"
   xmlns:rdf="http://www.w3.org/1999/02/22-rdf-syntax-ns#"
   xmlns:svg="http://www.w3.org/2000/svg"
   xmlns="http://www.w3.org/2000/svg"
   xmlns:xlink="http://www.w3.org/1999/xlink"
   xmlns:sodipodi="http://sodipodi.sourceforge.net/DTD/sodipodi-0.dtd"
   xmlns:inkscape="http://www.inkscape.org/namespaces/inkscape"
   height="64.000282"
   id="svg11300"
   style="display:inline;enable-background:new"
   version="1.0"
   viewBox="0 0 64 64.000282"
   width="64"
   inkscape:version="0.91 r13725"
   sodipodi:docname="application-x-bittorrent.svg">
  <sodipodi:namedview
     pagecolor="#ffffff"
     bordercolor="#666666"
     borderopacity="1"
     objecttolerance="10"
     gridtolerance="10"
     guidetolerance="10"
     inkscape:pageopacity="0"
     inkscape:pageshadow="2"
     inkscape:window-width="1920"
     inkscape:window-height="1026"
     id="namedview15"
     showgrid="false"
     inkscape:zoom="3.6874837"
     inkscape:cx="32.542375"
     inkscape:cy="32.000141"
     inkscape:window-x="0"
     inkscape:window-y="0"
     inkscape:window-maximized="1"
     inkscape:current-layer="svg11300" />
  <metadata
     id="metadata155">
    <rdf:RDF>
      <cc:Work
         rdf:about="">
        <dc:format>image/svg+xml</dc:format>
        <dc:type
           rdf:resource="http://purl.org/dc/dcmitype/StillImage" />
        <dc:title>elementary Icon Template</dc:title>
      </cc:Work>
    </rdf:RDF>
  </metadata>
  <title
     id="title4162">elementary Icon Template</title>
  <defs
     id="defs3">
    <linearGradient
       id="linearGradient3104-6">
      <stop
         id="stop3106-3"
         offset="0"
         style="stop-color:#000000;stop-opacity:0.31782946" />
      <stop
         id="stop3108-9"
         offset="1"
         style="stop-color:#000000;stop-opacity:0.24031007" />
    </linearGradient>
    <linearGradient
       gradientTransform="matrix(1.0843523,0,0,1.1997367,79.65086,-4.1628)"
       gradientUnits="userSpaceOnUse"
       xlink:href="#linearGradient3104-6"
       id="linearGradient3033"
       x1="-51.786404"
       x2="-51.786404"
       y1="50.786446"
       y2="2.9062471" />
  </defs>
  <path
     style="display:inline;fill:#fafafa;fill-opacity:1;stroke:none"
     id="path4160-6"
     d="m 9,0.99994 c 10.54093,0 45.99994,0.004 45.99994,0.004 l 6e-5,57.99614 -46,0 0,-57.99982 z"
     inkscape:connector-curvature="0" />
  <path
     style="display:inline;fill:none;stroke:url(#linearGradient3033);stroke-width:0.9999218;stroke-linecap:butt;stroke-linejoin:round;stroke-miterlimit:4;stroke-dasharray:none;stroke-dashoffset:0;stroke-opacity:1"
     id="path4160-6-1-7"
     d="m 8.4999609,0.49996 c 10.7700901,0 47.0000301,0.004 47.0000301,0.004 l 5e-5,58.99622 -47.0000801,0 0,-58.99997 z"
     inkscape:connector-curvature="0" />
  <path
     style="color:#bebebe;display:inline;overflow:visible;visibility:visible;opacity:0.2;fill:#3689e6;fill-opacity:1;fill-rule:nonzero;stroke:none;stroke-width:0.99999994;marker:none;enable-background:accumulate"
     id="path10554"
     d="m 32,10.35576 c 0,0 -2,0 -2,1.91113 0,1.91113 -2,1.91113 -2,1.91113 0,0 -2,0.002 -2,-1.91113 l 0,26.75584 12,0 0,-26.75584 c 0,1.91113 -2,1.91113 -2,1.91113 0,0 -2,0 -2,-1.91113 0,-1.91113 -2,-1.91113 -2,-1.91113 z" />
  <path
     style="color:#bebebe;display:inline;overflow:visible;visibility:visible;fill:#3689e6;fill-opacity:1;fill-rule:nonzero;stroke:none;stroke-width:0.99999994;marker:none;enable-background:accumulate"
     id="path10518"
     d="m 18,34.00028 14,17.28906 14,-17.28906 -8,0.002 0,-5.73502 c 0,1.91113 -2,1.91113 -2,1.91113 0,0 -2,0 -2,-1.91113 0,-1.91113 -2,-1.91113 -2,-1.91113 0,0 -2,0 -2,1.91113 0,1.91113 -2,1.91113 -2,1.91113 0,0 -2,0 -2,-1.91276 l 0,5.73465 z" />
  <path
     style="color:#bebebe;display:inline;overflow:visible;visibility:visible;opacity:0.5;fill:#3689e6;fill-opacity:1;fill-rule:nonzero;stroke:none;stroke-width:0.99999994;marker:none;enable-background:accumulate"
     id="path10536"
     d="m 28,19.00027 c 0,0 -2,-0.002 -2,1.91113 l 0,13.08888 12,0 0,-13.08888 c 0,-1.91113 -2,-1.91113 -2,-1.91113 0,0 -2,0 -2,1.91113 0,1.91113 -2,1.91113 -2,1.91113 0,0 -2,0 -2,-1.91113 0,-1.91113 -2,-1.91113 -2,-1.91113 z" />
</svg>
