<?xml version="1.0" encoding="UTF-8" standalone="no"?>
<svg
   xmlns:dc="http://purl.org/dc/elements/1.1/"
   xmlns:cc="http://creativecommons.org/ns#"
   xmlns:rdf="http://www.w3.org/1999/02/22-rdf-syntax-ns#"
   xmlns:svg="http://www.w3.org/2000/svg"
   xmlns="http://www.w3.org/2000/svg"
   xmlns:xlink="http://www.w3.org/1999/xlink"
   id="svg3844"
   height="64"
   width="64"
   version="1.1">
  <defs
     id="defs3846">
    <linearGradient
       id="linearGradient4169">
      <stop
         id="stop4171"
         offset="0"
         style="stop-color:#abacae;stop-opacity:1" />
      <stop
         id="stop4173"
         offset="1"
         style="stop-color:#7e8087;stop-opacity:1" />
    </linearGradient>
    <linearGradient
       gradientTransform="matrix(1.0843523,0,0,1.1997367,79.550862,-4.1628601)"
       gradientUnits="userSpaceOnUse"
       xlink:href="#linearGradient3104-6"
       id="linearGradient3033"
       y2="2.9062471"
       x2="-51.786404"
       y1="50.786446"
       x1="-51.786404" />
    <linearGradient
       id="linearGradient3104-6">
      <stop
         offset="0"
         style="stop-color:#000000;stop-opacity:0.31782946"
         id="stop3106-3" />
      <stop
         offset="1"
         style="stop-color:#000000;stop-opacity:0.24031007"
         id="stop3108-9" />
    </linearGradient>
    <linearGradient
       xlink:href="#linearGradient4169"
       id="linearGradient4167"
       x1="32"
       y1="0"
       x2="32"
       y2="60"
       gradientUnits="userSpaceOnUse" />
  </defs>
  <metadata
     id="metadata3849">
    <rdf:RDF>
      <cc:Work
         rdf:about="">
        <dc:format>image/svg+xml</dc:format>
        <dc:type
           rdf:resource="http://purl.org/dc/dcmitype/StillImage" />
        <dc:title />
      </cc:Work>
    </rdf:RDF>
  </metadata>
  <path
     d="m 9,0.9998799 c 10.540935,0 45.999945,0.004 45.999945,0.004 L 55,59.00002 c 0,0 -30.666666,0 -46,0 0,-19.3334 0,-38.6665 0,-57.9998201 z"
     id="path4160-6"
     style="display:inline;fill:#fafafa;fill-opacity:1;stroke:none" />
  <path
     d="m 8.4999684,0.4998999 c 10.7700936,0 47.0000286,0.004 47.0000286,0.004 l 4.9e-5,58.9962201 c 0,0 -31.333384,0 -47.0000776,0 0,-19.6668 0,-39.3334 0,-58.9999701 z"
     id="path4160-6-1"
     style="display:inline;fill:none;stroke:url(#linearGradient3033);stroke-width:0.9999218;stroke-linecap:butt;stroke-linejoin:round;stroke-miterlimit:4;stroke-dasharray:none;stroke-dashoffset:0;stroke-opacity:1" />
  <g
     id="g4962"
     transform="translate(37.0002,32.125)">
    <g
       transform="translate(-313.0004,382)"
       style="display:inline"
       label="status"
       id="layer9" />
    <g
       transform="translate(-313.0004,382)"
       style="display:inline"
       id="layer10" />
    <g
       transform="translate(-313.0004,382)"
       style="display:inline"
       id="layer13" />
    <g
       transform="translate(-313.0004,382)"
       id="layer14" />
    <g
       transform="translate(-313.0004,382)"
       style="display:inline"
       id="layer15" />
    <g
       transform="translate(-313.0004,382)"
       style="display:inline"
       id="g71291" />
    <g
       transform="translate(-313.0004,382)"
       style="display:inline"
       id="g4953" />
    <g
       transform="translate(-313.0004,382)"
       style="display:inline"
       id="layer12" />
  </g>
  <path
     id="path3849"
     d="m 32,14.166612 c -7.095,0 -15,2.39585 -15,5.833342 0,3.4375 7.905,5.833333 15,5.833333 7.095,0 15,-2.395833 15,-5.833333 0,-3.437492 -7.905,-5.833342 -15,-5.833342 z m -15,9.114592 0,3.385416 c 0,3.437484 7.905,5.833334 15,5.833334 7.095,0 15,-2.39585 15,-5.833334 l 0,-3.385416 c -2.6673,2.508216 -8.299975,4.21875 -15,4.21875 -6.700025,0 -12.3327,-1.710534 -15,-4.21875 z m 0,6.666666 0,3.385417 c 0,3.4375 7.905,5.833333 15,5.833333 7.095,0 15,-2.395833 15,-5.833333 l 0,-3.385417 c -2.6673,2.508217 -8.299975,4.21875 -15,4.21875 -6.700025,0 -12.3327,-1.710533 -15,-4.21875 z m 0,6.666667 0,3.385425 c 0,3.437483 7.905,5.833325 15,5.833325 7.095,0 15,-2.395842 15,-5.833325 l 0,-3.385425 c -2.6673,2.508225 -8.299975,4.21875 -15,4.21875 -6.700025,0 -12.3327,-1.710525 -15,-4.21875 z"
     style="color:#000000;display:inline;overflow:visible;visibility:visible;fill:url(#linearGradient4167);fill-opacity:1;fill-rule:nonzero;stroke:none;stroke-width:20;marker:none;enable-background:new" />
</svg>
