<?xml version="1.0" encoding="UTF-8" standalone="no"?>
<svg
   xmlns:dc="http://purl.org/dc/elements/1.1/"
   xmlns:cc="http://creativecommons.org/ns#"
   xmlns:rdf="http://www.w3.org/1999/02/22-rdf-syntax-ns#"
   xmlns:svg="http://www.w3.org/2000/svg"
   xmlns="http://www.w3.org/2000/svg"
   xmlns:xlink="http://www.w3.org/1999/xlink"
   id="svg3844"
   height="64"
   width="64"
   version="1.1">
  <defs
     id="defs3846">
    <linearGradient
       id="linearGradient1028">
      <stop
         id="stop1024"
         offset="0"
         style="stop-color:#64baff;stop-opacity:1" />
      <stop
         id="stop1026"
         offset="1"
         style="stop-color:#3689e6;stop-opacity:1" />
    </linearGradient>
    <linearGradient
       gradientTransform="matrix(1.0843523,0,0,1.1997367,79.550862,-4.1628601)"
       gradientUnits="userSpaceOnUse"
       xlink:href="#linearGradient3104-6"
       id="linearGradient3033"
       y2="2.9062471"
       x2="-51.786404"
       y1="50.786446"
       x1="-51.786404" />
    <linearGradient
       id="linearGradient3104-6">
      <stop
         offset="0"
         style="stop-color:#000000;stop-opacity:0.31782946"
         id="stop3106-3" />
      <stop
         offset="1"
         style="stop-color:#000000;stop-opacity:0.24031007"
         id="stop3108-9" />
    </linearGradient>
    <linearGradient
       xlink:href="#linearGradient1028"
       id="linearGradient855"
       x1="33"
       y1="1"
       x2="33"
       y2="59"
       gradientUnits="userSpaceOnUse" />
  </defs>
  <metadata
     id="metadata3849">
    <rdf:RDF>
      <cc:Work
         rdf:about="">
        <dc:format>image/svg+xml</dc:format>
        <dc:type
           rdf:resource="http://purl.org/dc/dcmitype/StillImage" />
        <dc:title />
      </cc:Work>
    </rdf:RDF>
  </metadata>
  <path
     d="m 9,0.9998799 c 10.540935,0 45.999945,0.004 45.999945,0.004 L 55,59.00002 c 0,0 -30.666666,0 -46,0 0,-19.3334 0,-38.6665 0,-57.9998201 z"
     id="path4160-6"
     style="display:inline;fill:#fafafa;fill-opacity:1;stroke:none" />
  <path
     d="m 8.4999684,0.4998999 c 10.7700936,0 47.0000286,0.004 47.0000286,0.004 l 4.9e-5,58.9962201 c 0,0 -31.333384,0 -47.0000776,0 0,-19.6668 0,-39.3334 0,-58.9999701 z"
     id="path4160-6-1"
     style="display:inline;fill:none;stroke:url(#linearGradient3033);stroke-width:0.9999218;stroke-linecap:butt;stroke-linejoin:round;stroke-miterlimit:4;stroke-dasharray:none;stroke-dashoffset:0;stroke-opacity:1" />
  <path
     style="display:inline;fill:url(#linearGradient855);fill-opacity:1.0;stroke:none;stroke-width:0.23462999"
     d="M 32 16 A 13.086956 14 0 0 0 18.912109 30 A 13.086956 14 0 0 0 32 44 A 13.086956 14 0 0 0 45.087891 30 A 13.086956 14 0 0 0 32 16 z M 32.244141 19.90625 C 37.309292 20.008114 41.417969 24.36076 41.417969 29.855469 C 41.417969 35.350177 37.310376 39.802734 32.244141 39.802734 C 27.177918 39.802734 23.072266 35.350177 23.072266 29.855469 C 23.072266 24.36076 26.593674 19.792613 32.244141 19.90625 z M 30.814453 26.824219 A 3.2310252 2.0010777 86.476135 0 0 29.009766 30.162109 A 3.2310252 2.0010777 86.476135 0 0 31.199219 33.275391 A 3.2310252 2.0010777 86.476135 0 0 33.005859 29.9375 A 3.2310252 2.0010777 86.476135 0 0 30.814453 26.824219 z M 36.761719 27.087891 A 1.6900427 2.9612375 3.7191552 0 0 35.009766 29.947266 A 1.6900427 2.9612375 3.7191552 0 0 36.513672 32.998047 A 1.6900427 2.9612375 3.7191552 0 0 38.384766 30.138672 A 1.6900427 2.9612375 3.7191552 0 0 36.880859 27.087891 A 1.6900427 2.9612375 3.7191552 0 0 36.761719 27.087891 z "
     id="path11995-1-2-2-9" />
</svg>
