<?xml version="1.0" encoding="UTF-8" standalone="no"?>
<svg
   xmlns:dc="http://purl.org/dc/elements/1.1/"
   xmlns:cc="http://creativecommons.org/ns#"
   xmlns:rdf="http://www.w3.org/1999/02/22-rdf-syntax-ns#"
   xmlns:svg="http://www.w3.org/2000/svg"
   xmlns="http://www.w3.org/2000/svg"
   xmlns:xlink="http://www.w3.org/1999/xlink"
   id="svg3844"
   height="64"
   width="64"
   version="1.1">
  <defs
     id="defs3846">
    <linearGradient
       gradientTransform="matrix(1.0843523,0,0,1.1997367,79.550862,-4.1628601)"
       gradientUnits="userSpaceOnUse"
       xlink:href="#linearGradient3104-6"
       id="linearGradient3033"
       y2="2.9062471"
       x2="-51.786404"
       y1="50.786446"
       x1="-51.786404" />
    <linearGradient
       id="linearGradient3104-6">
      <stop
         offset="0"
         style="stop-color:#000000;stop-opacity:0.31782946"
         id="stop3106-3" />
      <stop
         offset="1"
         style="stop-color:#000000;stop-opacity:0.24031007"
         id="stop3108-9" />
    </linearGradient>
    <linearGradient
       xlink:href="#linearGradient920"
       id="linearGradient922"
       x1="32"
       y1="1"
       x2="32"
       y2="59"
       gradientUnits="userSpaceOnUse" />
    <linearGradient
       id="linearGradient920">
      <stop
         style="stop-color:#ed5353;stop-opacity:1"
         offset="0"
         id="stop916" />
      <stop
         style="stop-color:#c6262e;stop-opacity:1"
         offset="1"
         id="stop918" />
    </linearGradient>
  </defs>
  <metadata
     id="metadata3849">
    <rdf:RDF>
      <cc:Work
         rdf:about="">
        <dc:format>image/svg+xml</dc:format>
        <dc:type
           rdf:resource="http://purl.org/dc/dcmitype/StillImage" />
        <dc:title />
      </cc:Work>
    </rdf:RDF>
  </metadata>
  <path
     d="m 9,0.9998799 c 10.540935,0 45.999945,0.004 45.999945,0.004 L 55,59.00002 c 0,0 -30.666666,0 -46,0 0,-19.3334 0,-38.6665 0,-57.9998201 z"
     id="path4160-6"
     style="display:inline;fill:#fafafa;fill-opacity:1;stroke:none" />
  <path
     d="m 8.4999684,0.4998999 c 10.7700936,0 47.0000286,0.004 47.0000286,0.004 l 4.9e-5,58.9962201 c 0,0 -31.333384,0 -47.0000776,0 0,-19.6668 0,-39.3334 0,-58.9999701 z"
     id="path4160-6-1"
     style="display:inline;fill:none;stroke:url(#linearGradient3033);stroke-width:0.9999218;stroke-linecap:butt;stroke-linejoin:round;stroke-miterlimit:4;stroke-dasharray:none;stroke-dashoffset:0;stroke-opacity:1" />
  <g
     id="g4962"
     transform="translate(37.0002,32.125)">
    <g
       transform="translate(-313.0004,382)"
       style="display:inline"
       label="status"
       id="layer9" />
    <g
       transform="translate(-313.0004,382)"
       style="display:inline"
       id="layer10" />
    <g
       transform="translate(-313.0004,382)"
       style="display:inline"
       id="layer13" />
    <g
       transform="translate(-313.0004,382)"
       id="layer14" />
    <g
       transform="translate(-313.0004,382)"
       style="display:inline"
       id="layer15" />
    <g
       transform="translate(-313.0004,382)"
       style="display:inline"
       id="g71291" />
    <g
       transform="translate(-313.0004,382)"
       style="display:inline"
       id="g4953" />
    <g
       transform="translate(-313.0004,382)"
       style="display:inline"
       id="layer12" />
  </g>
  <path
     id="path3858"
     d="m 42.673891,13.015852 -9.075821,1.158645 c 1.321864,0.659515 3.138078,0.495125 3.693384,2.432238 z m 2.323787,0.154436 -5.217452,3.017992 8.949454,-0.08387 z m -13.499581,3.165769 c -1.07796,0.06129 -2.369526,0.428863 -3.809219,1.145337 -4.607077,2.292715 -8.944033,7.222282 -9.690371,11.002998 -0.74631,3.780726 2.380822,4.982333 6.987861,2.689628 4.607087,-2.292715 8.944052,-7.209409 9.690381,-10.990135 0.513079,-2.599244 -0.807123,-3.982676 -3.178652,-3.847828 z m 4.298234,7.103688 10.822846,-0.154426 -8.919128,-5.386641 c -0.01436,1.713752 -0.936125,4.653808 -1.903718,5.541067 z m 13.087785,-0.05147 0.115883,-5.533672 -9.325447,-0.588058 z m -0.501888,1.351245 -10.809963,0.167299 7.850092,5.302028 z m -13.152129,0.579105 c -5.778377,7.713941 -19.470766,15.498857 -19.592826,3.86923 l -0.637274,13.658351 c 0.14535,0.826389 1.203024,3.285308 4.735786,3.950773 8.952693,0.310977 15.077285,0.428277 27.398105,-1.248282 1.039191,-5.754653 0.976914,-11.696447 1.2483,-17.579063 -3.975536,6.170775 -8.35894,10.909139 -14.082917,13.813411 4.00998,-3.326958 7.286835,-6.963977 10.338053,-10.647632 L 35.23008,25.318625 Z"
     style="display:inline;fill:url(#linearGradient922);fill-opacity:1;stroke:none;enable-background:new;font-variant-east_asian:normal;opacity:1;vector-effect:none;stroke-width:1.11779857;stroke-linecap:butt;stroke-linejoin:miter;stroke-miterlimit:4;stroke-dasharray:none;stroke-dashoffset:0;stroke-opacity:1" />
</svg>
