<?xml version="1.0" encoding="UTF-8" standalone="no"?>
<svg
   xmlns:dc="http://purl.org/dc/elements/1.1/"
   xmlns:cc="http://creativecommons.org/ns#"
   xmlns:rdf="http://www.w3.org/1999/02/22-rdf-syntax-ns#"
   xmlns:svg="http://www.w3.org/2000/svg"
   xmlns="http://www.w3.org/2000/svg"
   xmlns:xlink="http://www.w3.org/1999/xlink"
   version="1.1"
   width="64"
   height="64"
   id="svg3844">
  <defs
     id="defs3846">
    <linearGradient
       x1="-51.786404"
       y1="50.786446"
       x2="-51.786404"
       y2="2.9062471"
       id="linearGradient3033"
       xlink:href="#linearGradient3104-6"
       gradientUnits="userSpaceOnUse"
       gradientTransform="matrix(1.0843523,0,0,1.1997367,79.550862,-4.1628601)" />
    <linearGradient
       id="linearGradient3104-6">
      <stop
         id="stop3106-3"
         style="stop-color:#000000;stop-opacity:0.31782946"
         offset="0" />
      <stop
         id="stop3108-9"
         style="stop-color:#000000;stop-opacity:0.24031007"
         offset="1" />
    </linearGradient>
  </defs>
  <metadata
     id="metadata3849">
    <rdf:RDF>
      <cc:Work
         rdf:about="">
        <dc:format>image/svg+xml</dc:format>
        <dc:type
           rdf:resource="http://purl.org/dc/dcmitype/StillImage" />
        <dc:title />
      </cc:Work>
    </rdf:RDF>
  </metadata>
  <path
     style="display:inline;fill:#fafafa;fill-opacity:1;stroke:none"
     id="path4160-6"
     d="m 9,0.9998799 c 10.540935,0 45.999945,0.004 45.999945,0.004 L 55,59.00002 c 0,0 -30.666666,0 -46,0 0,-19.3334 0,-38.6665 0,-57.9998201 z" />
  <path
     style="display:inline;fill:none;stroke:url(#linearGradient3033);stroke-width:0.9999218;stroke-linecap:butt;stroke-linejoin:round;stroke-miterlimit:4;stroke-dasharray:none;stroke-dashoffset:0;stroke-opacity:1"
     id="path4160-6-1"
     d="m 8.4999684,0.4998999 c 10.7700936,0 47.0000286,0.004 47.0000286,0.004 l 4.9e-5,58.9962201 c 0,0 -31.333384,0 -47.0000776,0 0,-19.6668 0,-39.3334 0,-58.9999701 z" />
  <path
     id="path4226-1-8-3"
     d="m 23.81165,35.622515 c -0.2559,0.4596 -0.4596,1.15111 -0.4596,1.58684 0,0.10115 0,0.22981 0.025,0.40829 l -3.1984,-5.50069 c -0.1024,-0.17848 -0.1787,-0.43454 -0.1787,-0.66524 0,-0.231 0.076,-0.51181 0.1787,-0.6906 l 1.5354,-2.6866 -1.7141,-0.97146 5.578,-0.10326 2.7117,4.88646 -1.7392,-0.9977 z m 2.4568,-16.10435 c 0.4857,-0.8452 1.2796,-1.30572 2.251,-1.30572 1.0498,0 1.8688,0.48676 2.4568,1.48328 l 0.8701,1.45821 -3.0198,5.8208 -4.8865,-3.44042 z m 0.3572,20.53029 c -1.4582,0 -2.6605,-1.20245 -2.6605,-2.66063 0,-0.40948 0.1797,-1.10095 0.4356,-1.53549 l 0.8179,-1.45821 6.0647,0 0,5.65437 -4.6577,0 z m 4.8625,-20.68489 c -0.3834,-0.66436 -0.8952,-1.12606 -1.5094,-1.38212 l 6.2935,0 c 0.563,0 0.9975,0.231 1.2545,0.66642 l 1.5606,2.66063 1.6881,-0.99862 -2.7129,4.86228 -5.5508,-0.0782 1.7142,-0.97145 z m 9.6978,15.08186 c 0.7667,0 1.4071,-0.20472 1.944,-0.61332 l -3.1734,5.52572 c -0.2559,0.43453 -0.7158,0.70852 -1.2526,0.6906 l -2.9947,0 0,1.97003 -2.8653,-4.78408 2.8653,-4.7853 0,1.99631 5.4767,0 z m 2.4548,-4.6056 c 0.2308,0.40948 0.3593,0.84401 0.3593,1.30479 0,0.9213 -0.5891,1.89363 -1.407,2.35327 -0.3844,0.20594 -0.9233,0.36591 -1.4582,0.33426 l -1.6901,0 -3.0179,-5.22072 4.8866,-2.78898 z"
     style="fill:#3a9104;fill-opacity:1" />
</svg>
