<?xml version="1.0" encoding="UTF-8" standalone="no"?>
<svg
   xmlns:dc="http://purl.org/dc/elements/1.1/"
   xmlns:cc="http://creativecommons.org/ns#"
   xmlns:rdf="http://www.w3.org/1999/02/22-rdf-syntax-ns#"
   xmlns:svg="http://www.w3.org/2000/svg"
   xmlns="http://www.w3.org/2000/svg"
   xmlns:xlink="http://www.w3.org/1999/xlink"
   viewBox="0 0 64 64"
   version="1.1"
   width="64"
   height="64"
   id="svg3844">
  <defs
     id="defs3846">
    <linearGradient
       x1="-51.786404"
       y1="50.786446"
       x2="-51.786404"
       y2="2.9062471"
       id="linearGradient3033"
       xlink:href="#linearGradient3104-6"
       gradientUnits="userSpaceOnUse"
       gradientTransform="matrix(1.0843523,0,0,1.1997367,79.550862,-4.1628601)" />
    <linearGradient
       id="linearGradient3104-6">
      <stop
         id="stop3106-3"
         style="stop-color:#000000;stop-opacity:0.31782946"
         offset="0" />
      <stop
         id="stop3108-9"
         style="stop-color:#000000;stop-opacity:0.24031007"
         offset="1" />
    </linearGradient>
    <linearGradient
       id="linearGradient2867-449-88-871-390-598-476-591-434-148-57-177-8-3-3">
      <stop
         offset="0"
         style="stop-color:#ffcd7d;stop-opacity:1"
         id="stop3750-1-0-7" />
      <stop
         offset="0.26238"
         style="stop-color:#fc8f36;stop-opacity:1"
         id="stop3752-3-7-4" />
      <stop
         offset="0.704952"
         style="stop-color:#e23a0e;stop-opacity:1"
         id="stop3754-1-8-5" />
      <stop
         offset="1"
         style="stop-color:#ac441f;stop-opacity:1"
         id="stop3756-1-6-2" />
    </linearGradient>
    <radialGradient
       r="12.671875"
       fy="16.231987"
       fx="18.1481"
       cy="16.231987"
       cx="18.1481"
       gradientTransform="matrix(0,8.885821,-11.172671,0,198.34473,-189.06077)"
       gradientUnits="userSpaceOnUse"
       id="radialGradient4508"
       xlink:href="#linearGradient2867-449-88-871-390-598-476-591-434-148-57-177-8-3-3" />
  </defs>
  <metadata
     id="metadata3849">
    <rdf:RDF>
      <cc:Work
         rdf:about="">
        <dc:format>image/svg+xml</dc:format>
        <dc:type
           rdf:resource="http://purl.org/dc/dcmitype/StillImage" />
        <dc:title />
      </cc:Work>
    </rdf:RDF>
  </metadata>
  <path
     style="display:inline;fill:#fafafa;fill-opacity:1;stroke:none"
     id="path4160-6"
     d="m 9,0.9998799 c 10.540935,0 45.999945,0.004 45.999945,0.004 L 55,59.00002 c 0,0 -30.666666,0 -46,0 0,-19.3334 0,-38.6665 0,-57.9998201 z" />
  <path
     style="display:inline;fill:none;stroke:url(#linearGradient3033);stroke-width:0.9999218;stroke-linecap:butt;stroke-linejoin:round;stroke-miterlimit:4;stroke-dasharray:none;stroke-dashoffset:0;stroke-opacity:1"
     id="path4160-6-1"
     d="m 8.4999684,0.4998999 c 10.7700936,0 47.0000286,0.004 47.0000286,0.004 l 4.9e-5,58.9962201 c 0,0 -31.333384,0 -47.0000776,0 0,-19.6668 0,-39.3334 0,-58.9999701 z" />
  <path
     id="rect4204"
     d="m 24.984375,17 c -0.553632,0 -0.998047,0.446368 -0.998047,1 v 19.052734 c -1.224693,-0.513936 -2.756796,-0.334325 -4.068359,0.476563 -2.136703,1.321788 -3.060981,3.895221 -2.064453,5.746094 0.994995,1.85083 3.532891,2.279717 5.667968,0.957031 1.544748,-0.957296 2.51155,-2.620678 2.458985,-4.228516 1.38e-4,-0.0069 0.0039,-0.01261 0.0039,-0.01953 V 23.746094 c 0.24059,-0.132832 0.614911,0.15393 0.8125,0.289062 2.245376,1.358452 4.204686,3.611175 4.34375,6.388672 0.1203,1.606685 -0.216666,3.205888 -0.679687,4.732422 2.064145,-3.396054 1.954696,-8.120492 -0.595704,-11.222656 -1.64512,-1.716591 -3.197103,-3.717746 -3.880859,-6.042969 C 25.934515,17.669762 25.632231,17 24.984375,17 Z m 11.929687,1.998047 c -0.553631,0 -1,0.446368 -1,1 0,0.553632 0.446368,1 1,1 h 7.990235 c 0.553632,0 1,-0.446368 1,-1 0,-0.553632 -0.446368,-1 -1,-1 z m 0,5.996094 c -0.553631,0 -1,0.446368 -1,1 0,0.553633 0.446368,1 1,1 h 7.990235 c 0.553632,0 1,-0.446367 1,-1 0,-0.553632 -0.446368,-1 -1,-1 z m 0,5.996093 c -0.553631,0 -1,0.446368 -1,1 0,0.553633 0.446368,1 1,1 h 7.990235 c 0.553632,0 1,-0.446367 1,-1 0,-0.553632 -0.446368,-1 -1,-1 z m -6.003906,5.996094 c -0.553632,0 -1,0.446368 -1,1 0,0.553633 0.446368,1 1,1 h 13.994141 c 0.553632,0 1,-0.446367 1,-1 0,-0.553632 -0.446368,-1 -1,-1 z"
     style="color:#000000;clip-rule:nonzero;display:inline;overflow:visible;visibility:visible;opacity:1;isolation:auto;mix-blend-mode:normal;color-interpolation:sRGB;color-interpolation-filters:linearRGB;solid-color:#000000;solid-opacity:1;fill:url(#radialGradient4508);fill-opacity:1;fill-rule:nonzero;stroke:none;stroke-width:1;stroke-linecap:butt;stroke-linejoin:round;stroke-miterlimit:4;stroke-dasharray:none;stroke-dashoffset:0;stroke-opacity:1;marker:none;color-rendering:auto;image-rendering:auto;shape-rendering:auto;text-rendering:auto;enable-background:accumulate" />
</svg>
