<?xml version="1.0" encoding="UTF-8" standalone="no"?>
<svg
   xmlns:dc="http://purl.org/dc/elements/1.1/"
   xmlns:cc="http://creativecommons.org/ns#"
   xmlns:rdf="http://www.w3.org/1999/02/22-rdf-syntax-ns#"
   xmlns:svg="http://www.w3.org/2000/svg"
   xmlns="http://www.w3.org/2000/svg"
   xmlns:xlink="http://www.w3.org/1999/xlink"
   id="svg3844"
   height="64"
   width="64"
   version="1.1">
  <defs
     id="defs3846">
    <linearGradient
       gradientTransform="matrix(1.0843523,0,0,1.1997367,79.550862,-4.1628601)"
       gradientUnits="userSpaceOnUse"
       xlink:href="#linearGradient3104-6"
       id="linearGradient3033"
       y2="2.9062471"
       x2="-51.786404"
       y1="50.786446"
       x1="-51.786404" />
    <linearGradient
       id="linearGradient3104-6">
      <stop
         offset="0"
         style="stop-color:#000000;stop-opacity:0.31782946"
         id="stop3106-3" />
      <stop
         offset="1"
         style="stop-color:#000000;stop-opacity:0.24031007"
         id="stop3108-9" />
    </linearGradient>
    <linearGradient
       xlink:href="#linearGradient1061"
       id="linearGradient1063"
       x1="-17.375"
       y1="-6.125"
       x2="-17.375"
       y2="37.678539"
       gradientUnits="userSpaceOnUse"
       gradientTransform="matrix(1,0,0,1.0089774,45.90821,5.9573486)" />
    <linearGradient
       id="linearGradient1061">
      <stop
         style="stop-color:#4d4d4d;stop-opacity:1"
         offset="0"
         id="stop1057" />
      <stop
         style="stop-color:#333333;stop-opacity:1"
         offset="1"
         id="stop1059" />
    </linearGradient>
    <linearGradient
       xlink:href="#linearGradient1069"
       id="linearGradient1071"
       x1="44"
       y1="0"
       x2="44"
       y2="44.5"
       gradientUnits="userSpaceOnUse"
       gradientTransform="translate(0.6132883,-3.9999999e-7)" />
    <linearGradient
       id="linearGradient1069">
      <stop
         style="stop-color:#ed5353;stop-opacity:1"
         offset="0"
         id="stop1065" />
      <stop
         style="stop-color:#c6262e;stop-opacity:1"
         offset="1"
         id="stop1067" />
    </linearGradient>
  </defs>
  <metadata
     id="metadata3849">
    <rdf:RDF>
      <cc:Work
         rdf:about="">
        <dc:format>image/svg+xml</dc:format>
        <dc:type
           rdf:resource="http://purl.org/dc/dcmitype/StillImage" />
        <dc:title />
      </cc:Work>
    </rdf:RDF>
  </metadata>
  <path
     d="m 9,0.9998799 c 10.540935,0 45.999945,0.004 45.999945,0.004 L 55,59.00002 c 0,0 -30.666666,0 -46,0 0,-19.3334 0,-38.6665 0,-57.9998201 z"
     id="path4160-6"
     style="display:inline;fill:#fafafa;fill-opacity:1;stroke:none" />
  <path
     d="m 8.4999684,0.4998999 c 10.7700936,0 47.0000286,0.004 47.0000286,0.004 l 4.9e-5,58.9962201 c 0,0 -31.333384,0 -47.0000776,0 0,-19.6668 0,-39.3334 0,-58.9999701 z"
     id="path4160-6-1"
     style="display:inline;fill:none;stroke:url(#linearGradient3033);stroke-width:0.9999218;stroke-linecap:butt;stroke-linejoin:round;stroke-miterlimit:4;stroke-dasharray:none;stroke-dashoffset:0;stroke-opacity:1" />
  <path
     style="font-style:normal;font-weight:normal;font-size:40px;line-height:1.25;font-family:sans-serif;letter-spacing:0px;word-spacing:0px;fill:url(#linearGradient1071);fill-opacity:1;stroke:none"
     d="m 41.148553,23.804313 c -2.1875,-1e-6 -4.055989,0.748697 -5.605468,2.246093 -1.54948,1.497396 -2.740886,3.391927 -3.574219,5.683594 -0.377604,1.041667 -0.657552,2.089844 -0.839844,3.144531 -0.182292,1.041667 -0.273437,2.089844 -0.273437,3.144532 0,1.041666 0.149739,1.972656 0.449218,2.792968 0.833334,2.278646 2.434896,3.417969 4.804688,3.417969 2.369791,0 4.38151,-1.236979 6.035156,-3.710937 0.15625,1.184895 0.572917,2.102864 1.25,2.753906 0.677083,0.638021 1.542969,0.957031 2.597656,0.957031 1.067709,0 1.946615,-0.377604 2.636719,-1.132813 0.390625,-0.442708 0.865885,-1.41276 1.425781,-2.910156 -0.234375,0.117188 -0.527344,0.175782 -0.878906,0.175782 -1.09375,0 -1.640625,-0.45573 -1.640625,-1.367188 0,-0.481771 0.05859,-0.950521 0.175781,-1.40625 l 2.871094,-13.59375 -5.761719,0 -0.429687,2.128906 0,-0.292968 c 0,-0.585938 -0.253906,-1.067709 -0.761719,-1.445313 -0.507813,-0.390625 -1.334635,-0.585937 -2.480469,-0.585937 z m 1.074219,2.480468 c 0.742187,0 1.223958,0.195313 1.445313,0.585938 0.234374,0.377604 0.351562,0.690104 0.351562,0.9375 l -1.914062,9.023437 c -0.247396,1.09375 -0.696615,1.959636 -1.347657,2.597657 -0.651041,0.625 -1.373698,0.9375 -2.167969,0.9375 -0.429687,0 -0.78776,-0.14323 -1.074218,-0.429688 -0.494792,-0.46875 -0.742188,-1.295573 -0.742188,-2.480469 0,-0.611979 0.03255,-1.191406 0.09766,-1.738281 0.429688,-3.580729 1.490886,-6.328125 3.183594,-8.242188 0.703125,-0.79427 1.425782,-1.191406 2.167969,-1.191406 z"
     id="text942" />
  <path
     style="font-style:normal;font-variant:normal;font-weight:bold;font-stretch:normal;font-size:37.33333206px;line-height:1.25;font-family:'Open Sans';-inkscape-font-specification:'Open Sans Bold';letter-spacing:0px;word-spacing:0px;opacity:1;fill:url(#linearGradient1063);fill-opacity:1;stroke:none;stroke-width:1;stroke-linecap:butt;stroke-linejoin:miter;stroke-miterlimit:4;stroke-dasharray:none;stroke-dashoffset:0;stroke-opacity:1"
     d="m 23.74425,16.999624 -9.40625,27 6.08789,0 1.933594,-5.999999 9.714844,0 1.933593,5.999999 6.087891,0 -9.443359,-27 z m 3.482421,4.173856 3.5,11.826145 -6.945312,0 z"
     id="flowRoot1142" />
</svg>
