<?xml version="1.0" encoding="UTF-8" standalone="no"?>
<svg
   xmlns:dc="http://purl.org/dc/elements/1.1/"
   xmlns:cc="http://creativecommons.org/ns#"
   xmlns:rdf="http://www.w3.org/1999/02/22-rdf-syntax-ns#"
   xmlns:svg="http://www.w3.org/2000/svg"
   xmlns="http://www.w3.org/2000/svg"
   xmlns:xlink="http://www.w3.org/1999/xlink"
   version="1.1"
   width="64"
   height="64"
   id="svg3844">
  <defs
     id="defs3846">
    <linearGradient
       x1="-51.786404"
       y1="50.786446"
       x2="-51.786404"
       y2="2.9062471"
       id="linearGradient3033"
       xlink:href="#linearGradient3104-6"
       gradientUnits="userSpaceOnUse"
       gradientTransform="matrix(1.0843523,0,0,1.1997367,79.550862,-4.1628601)" />
    <linearGradient
       id="linearGradient3104-6">
      <stop
         id="stop3106-3"
         style="stop-color:#000000;stop-opacity:0.31782946"
         offset="0" />
      <stop
         id="stop3108-9"
         style="stop-color:#000000;stop-opacity:0.24031007"
         offset="1" />
    </linearGradient>
  </defs>
  <metadata
     id="metadata3849">
    <rdf:RDF>
      <cc:Work
         rdf:about="">
        <dc:format>image/svg+xml</dc:format>
        <dc:type
           rdf:resource="http://purl.org/dc/dcmitype/StillImage" />
        <dc:title />
      </cc:Work>
    </rdf:RDF>
  </metadata>
  <path
     style="display:inline;fill:#fafafa;fill-opacity:1;stroke:none"
     id="path4160-6"
     d="m 9,0.9998799 c 10.540935,0 45.999945,0.004 45.999945,0.004 L 55,59.00002 c 0,0 -30.666666,0 -46,0 0,-19.3334 0,-38.6665 0,-57.9998201 z" />
  <path
     style="display:inline;fill:none;stroke:url(#linearGradient3033);stroke-width:0.9999218;stroke-linecap:butt;stroke-linejoin:round;stroke-miterlimit:4;stroke-dasharray:none;stroke-dashoffset:0;stroke-opacity:1"
     id="path4160-6-1"
     d="m 8.4999684,0.4998999 c 10.7700936,0 47.0000286,0.004 47.0000286,0.004 l 4.9e-5,58.9962201 c 0,0 -31.333384,0 -47.0000776,0 0,-19.6668 0,-39.3334 0,-58.9999701 z" />
  <path
     d="m 31.420455,17.50012 c -1.299997,-0.2724 -2.517461,1.1936 -3.505498,0.5704 -0.213705,0.9792 -1.274072,0.218 -1.227457,1.0367 -1.279163,0.9959 -2.113399,2.6324 -2.017563,4.2909 -0.210744,1.3032 0.445798,2.9364 -0.372647,4.0095 -0.255553,1.2588 -0.05097,2.6372 0.378031,3.8452 0.886804,1.3483 2.259506,2.4588 2.567252,4.1473 0.144984,1.5674 -1.547033,2.4439 -2.587228,3.2975 -1.628735,1.1242 -3.358819,1.9862 -5.155345,2.8024 l 0,3 24,0 0,-3 c -2.420445,-1.0573 -4.667249,-2.615 -6.508321,-4.5379 -1.305402,-1.2538 -0.03939,-3.0482 0.787503,-4.1764 1.095966,-0.922 1.664537,-2.2708 1.677216,-3.7033 0.363487,-1.4117 -0.730933,-2.4743 -0.475298,-3.9071 -0.03467,-1.8177 0.23127,-4.0023 -1.291093,-5.3256 -1.713759,-1.4922 -4.027147,-2.2658 -6.269552,-2.3496 z"
     id="path3899"
     style="color:#000000;fill:#343434;fill-opacity:1;fill-rule:nonzero;stroke:#343434;stroke-width:0.99999982;stroke-linecap:round;stroke-linejoin:round;stroke-miterlimit:4;stroke-opacity:1;stroke-dasharray:none;stroke-dashoffset:0;marker:none;visibility:visible;display:inline;overflow:visible;enable-background:accumulate" />
</svg>
