<?xml version="1.0" encoding="UTF-8" standalone="no"?>
<svg
   xmlns:dc="http://purl.org/dc/elements/1.1/"
   xmlns:cc="http://creativecommons.org/ns#"
   xmlns:rdf="http://www.w3.org/1999/02/22-rdf-syntax-ns#"
   xmlns:svg="http://www.w3.org/2000/svg"
   xmlns="http://www.w3.org/2000/svg"
   xmlns:xlink="http://www.w3.org/1999/xlink"
   id="svg2"
   width="64"
   viewBox="0 0 64 64"
   version="1"
   height="64">
  <metadata
     id="metadata101">
    <rdf:RDF>
      <cc:Work
         rdf:about="">
        <dc:format>image/svg+xml</dc:format>
        <dc:type
           rdf:resource="http://purl.org/dc/dcmitype/StillImage" />
      </cc:Work>
    </rdf:RDF>
  </metadata>
  <title
     id="title4">
        elementary Icon Template
    </title>
  <defs
     id="defs6">
    <linearGradient
       id="f">
      <stop
         id="stop9"
         stop-color="#997543"
         offset="0" />
      <stop
         id="stop11"
         stop-color="#715d43"
         offset=".239" />
      <stop
         id="stop13"
         stop-color="#7b6241"
         offset=".276" />
      <stop
         id="stop15"
         stop-color="#604c31"
         offset="1" />
    </linearGradient>
    <linearGradient
       id="b">
      <stop
         id="stop32"
         stop-color="#fff"
         offset="0" />
      <stop
         id="stop34"
         stop-opacity=".235"
         stop-color="#fff"
         offset=".036" />
      <stop
         id="stop36"
         stop-opacity=".157"
         stop-color="#fff"
         offset=".951" />
      <stop
         id="stop38"
         stop-opacity=".392"
         stop-color="#fff"
         offset="1" />
    </linearGradient>
    <linearGradient
       id="c">
      <stop
         id="stop41"
         stop-color="#fff"
         offset="0" />
      <stop
         id="stop43"
         stop-color="#fff"
         offset=".302" />
      <stop
         id="stop45"
         stop-opacity=".643"
         stop-color="#fff"
         offset=".344" />
      <stop
         id="stop47"
         stop-opacity=".391"
         stop-color="#fff"
         offset="1" />
    </linearGradient>
    <linearGradient
       y2="43"
       y1="5.564"
       x2="24"
       x1="24"
       id="o"
       xlink:href="#b"
       gradientUnits="userSpaceOnUse"
       gradientTransform="matrix(1.43243,0,0,0.94595,-2.341,18.297)" />
    <linearGradient
       y2="7.913"
       y1="21.915"
       x2="24.537"
       x1="24.537"
       id="n"
       xlink:href="#c"
       gradientUnits="userSpaceOnUse"
       gradientTransform="matrix(1.5,0,0,1.35714,-3.963,-0.367)" />
    <linearGradient
       y2="45.934"
       y1="30.555"
       x2="43.007"
       x1="23.452"
       id="m"
       xlink:href="#d"
       gradientUnits="userSpaceOnUse"
       gradientTransform="matrix(1.70964,0,0,1.56625,-8.213,-6.915)" />
    <linearGradient
       id="d">
      <stop
         id="stop70"
         stop-opacity="0"
         stop-color="#fff"
         offset="0" />
      <stop
         id="stop72"
         stop-opacity="0"
         stop-color="#fff"
         offset="1" />
    </linearGradient>
    <linearGradient
       y2="45.042"
       y1="7.976"
       x2="15.464"
       x1="15.464"
       id="q"
       xlink:href="#f"
       gradientUnits="userSpaceOnUse"
       gradientTransform="matrix(1.34141,0,0,1.33238,-0.148,0.208)" />
  </defs>
  <path
     d="m 11.94,11.533 39.568,0 c 2.31,0 3.35,-0.381 4.013,1.333 l 4.027,10.659 0,34.207 c 0,2.07 0.138,1.754 -2.172,1.754 l -50.66,0 c -2.309,0 -2.171,0.316 -2.171,-1.754 l 0,-34.207 4.027,-10.66 C 9.217,11.186 9.63,11.533 11.94,11.533 Z"
     display="block"
     overflow="visible"
     style="display:block;overflow:visible;fill:#cead6d;marker:none;fill-opacity:1"
     id="path87" />
  <path
     d="m 13.145,12.84 36.87,0 c 2.153,0 3.485,0.742 4.387,2.782 l 3.105,8.56 0,30.859 c 0,1.947 -1.092,2.928 -3.244,2.928 l -44.978,0 c -2.152,0 -3.03,-1.079 -3.03,-3.026 l 0,-30.763 3.005,-8.743 c 0.6,-1.58 1.733,-2.598 3.885,-2.598 z"
     display="block"
     overflow="visible"
     style="display:block;overflow:visible;opacity:0.50499998;fill:none;stroke:url(#m);stroke-width:0.74199998;marker:none"
     id="path89" />
  <path
     d="m 29.537,11 5,0 0.5,12.451 0,6.039 c -0.59,0 -1.181,-1.046 -1.772,-1.046 -0.604,0 -1.209,1.046 -1.814,1.046 -0.486,0 -0.973,-0.916 -1.46,-0.916 -0.318,0 -0.636,0.916 -0.954,0.916 0,0 -0.138,-2.606 0,-6.039 z"
     overflow="visible"
     style="overflow:visible;opacity:0.3;fill:url(#n);marker:none"
     id="path91" />
  <path
     d="m 58.537,58.5 -53,0 0,-35 53,0 z"
     id="path93"
     style="opacity:0.3;fill:none;stroke:url(#o);stroke-linecap:round;stroke-linejoin:round" />
  <path
     d="m 11.94,11.533 39.568,0 c 2.31,0 3.35,-0.381 4.013,1.333 l 4.027,10.659 0,34.207 c 0,2.07 0.138,1.754 -2.172,1.754 l -50.66,0 c -2.309,0 -2.171,0.316 -2.171,-1.754 l 0,-34.207 4.027,-10.66 C 9.217,11.186 9.63,11.533 11.94,11.533 Z"
     display="block"
     overflow="visible"
     style="display:block;overflow:visible;opacity:0.5;fill:none;stroke:url(#q);stroke-width:0.99400002;stroke-linecap:round;marker:none"
     id="path97" />
</svg>
