<?xml version="1.0" encoding="UTF-8" standalone="no"?>
<svg
   xmlns:dc="http://purl.org/dc/elements/1.1/"
   xmlns:cc="http://creativecommons.org/ns#"
   xmlns:rdf="http://www.w3.org/1999/02/22-rdf-syntax-ns#"
   xmlns:svg="http://www.w3.org/2000/svg"
   xmlns="http://www.w3.org/2000/svg"
   xmlns:xlink="http://www.w3.org/1999/xlink"
   id="svg3130"
   height="64"
   width="64"
   version="1.1">
  <defs
     id="defs3132">
    <linearGradient
       id="linearGradient3104-6">
      <stop
         offset="0"
         style="stop-color:#000000;stop-opacity:0.31782946"
         id="stop3106-3" />
      <stop
         offset="1"
         style="stop-color:#000000;stop-opacity:0.24031007"
         id="stop3108-9" />
    </linearGradient>
    <linearGradient
       id="linearGradient2867-449-88-871-390-598-476-591-434-148-57-177-8-3-3">
      <stop
         id="stop3750-1-0-7"
         style="stop-color:#ffcd7d;stop-opacity:1"
         offset="0" />
      <stop
         id="stop3752-3-7-4"
         style="stop-color:#fc8f36;stop-opacity:1"
         offset="0.26238" />
      <stop
         id="stop3754-1-8-5"
         style="stop-color:#e23a0e;stop-opacity:1"
         offset="0.704952" />
      <stop
         id="stop3756-1-6-2"
         style="stop-color:#ac441f;stop-opacity:1"
         offset="1" />
    </linearGradient>
    <linearGradient
       y2="2.9062471"
       x2="-51.786404"
       y1="50.786446"
       x1="-51.786404"
       gradientTransform="matrix(1.0843523,0,0,1.1997367,79.550862,-4.1628601)"
       gradientUnits="userSpaceOnUse"
       id="linearGradient4326"
       xlink:href="#linearGradient3104-6" />
    <radialGradient
       r="12.671875"
       fy="16.231987"
       fx="18.1481"
       cy="16.231987"
       cx="18.1481"
       gradientTransform="matrix(0,8.885821,-11.172671,0,213.34473,-189.06077)"
       gradientUnits="userSpaceOnUse"
       id="radialGradient4873"
       xlink:href="#linearGradient2867-449-88-871-390-598-476-591-434-148-57-177-8-3-3" />
  </defs>
  <metadata
     id="metadata3135">
    <rdf:RDF>
      <cc:Work
         rdf:about="">
        <dc:format>image/svg+xml</dc:format>
        <dc:type
           rdf:resource="http://purl.org/dc/dcmitype/StillImage" />
        <dc:title />
      </cc:Work>
    </rdf:RDF>
  </metadata>
  <path
     d="m 9,0.9998799 c 10.540935,0 45.999945,0.004 45.999945,0.004 L 55,59.00002 c 0,0 -30.666666,0 -46,0 0,-19.3334 0,-38.6665 0,-57.9998201 z"
     id="path4160-6"
     style="display:inline;fill:#fafafa;fill-opacity:1;stroke:none" />
  <path
     d="m 8.4999684,0.4998999 c 10.7700936,0 47.0000286,0.004 47.0000286,0.004 l 4.9e-5,58.9962201 c 0,0 -31.333384,0 -47.0000776,0 0,-19.6668 0,-39.3334 0,-58.9999701 z"
     id="path4160-6-1"
     style="display:inline;fill:none;stroke:url(#linearGradient4326);stroke-width:0.9999218;stroke-linecap:butt;stroke-linejoin:round;stroke-miterlimit:4;stroke-dasharray:none;stroke-dashoffset:0;stroke-opacity:1" />
  <path
     id="path4869"
     d="M 34.404297 21 L 27.642578 39 L 29.642578 39 L 36.404297 21 L 34.404297 21 z M 25 24 L 16 29 L 16 31 L 25 36 L 25 34 L 18 30.003906 L 25 26 L 25 24 z M 39 24 L 39 26 L 46 30.003906 L 39 34 L 39 36 L 48 31 L 48 29 L 39 24 z "
     style="color:#000000;clip-rule:nonzero;display:inline;overflow:visible;visibility:visible;opacity:1;isolation:auto;mix-blend-mode:normal;color-interpolation:sRGB;color-interpolation-filters:linearRGB;solid-color:#000000;solid-opacity:1;fill:url(#radialGradient4873);fill-opacity:1;fill-rule:nonzero;stroke:none;stroke-width:1;stroke-linecap:butt;stroke-linejoin:round;stroke-miterlimit:4;stroke-dasharray:none;stroke-dashoffset:0;stroke-opacity:1;marker:none;color-rendering:auto;image-rendering:auto;shape-rendering:auto;text-rendering:auto;enable-background:accumulate" />
</svg>
