<?xml version="1.0" encoding="UTF-8" standalone="no"?>
<svg
   xmlns:dc="http://purl.org/dc/elements/1.1/"
   xmlns:cc="http://creativecommons.org/ns#"
   xmlns:rdf="http://www.w3.org/1999/02/22-rdf-syntax-ns#"
   xmlns:svg="http://www.w3.org/2000/svg"
   xmlns="http://www.w3.org/2000/svg"
   xmlns:xlink="http://www.w3.org/1999/xlink"
   xmlns:sodipodi="http://sodipodi.sourceforge.net/DTD/sodipodi-0.dtd"
   xmlns:inkscape="http://www.inkscape.org/namespaces/inkscape"
   version="1.1"
   width="64"
   height="64"
   id="svg3844"
   sodipodi:docname="text-x-c++src.svg"
   inkscape:version="0.92.3 (2405546, 2018-03-11)">
  <sodipodi:namedview
     pagecolor="#ffffff"
     bordercolor="#666666"
     borderopacity="1"
     objecttolerance="10"
     gridtolerance="10"
     guidetolerance="10"
     inkscape:pageopacity="0"
     inkscape:pageshadow="2"
     inkscape:window-width="959"
     inkscape:window-height="1024"
     id="namedview11"
     showgrid="false"
     inkscape:zoom="5.2149125"
     inkscape:cx="-1.1694895"
     inkscape:cy="57.218551"
     inkscape:window-x="0"
     inkscape:window-y="0"
     inkscape:window-maximized="0"
     inkscape:current-layer="svg3844">
    <inkscape:grid
       type="xygrid"
       id="grid830" />
  </sodipodi:namedview>
  <defs
     id="defs3846">
    <linearGradient
       x1="-51.786404"
       y1="50.786446"
       x2="-51.786404"
       y2="2.9062471"
       id="linearGradient3033"
       xlink:href="#linearGradient3104-6"
       gradientUnits="userSpaceOnUse"
       gradientTransform="matrix(1.0843523,0,0,1.1997367,79.550862,-4.1628601)" />
    <linearGradient
       id="linearGradient3104-6">
      <stop
         id="stop3106-3"
         style="stop-color:#000000;stop-opacity:0.31782946"
         offset="0" />
      <stop
         id="stop3108-9"
         style="stop-color:#000000;stop-opacity:0.24031007"
         offset="1" />
    </linearGradient>
  </defs>
  <metadata
     id="metadata3849">
    <rdf:RDF>
      <cc:Work
         rdf:about="">
        <dc:format>image/svg+xml</dc:format>
        <dc:type
           rdf:resource="http://purl.org/dc/dcmitype/StillImage" />
        <dc:title />
      </cc:Work>
    </rdf:RDF>
  </metadata>
  <path
     style="display:inline;fill:#fafafa;fill-opacity:1;stroke:none"
     id="path4160-6"
     d="m 9,0.9998799 c 10.540935,0 45.999945,0.004 45.999945,0.004 L 55,59.00002 c 0,0 -30.666666,0 -46,0 0,-19.3334 0,-38.6665 0,-57.9998201 z" />
  <path
     style="display:inline;fill:none;stroke:url(#linearGradient3033);stroke-width:0.9999218;stroke-linecap:butt;stroke-linejoin:round;stroke-miterlimit:4;stroke-dasharray:none;stroke-dashoffset:0;stroke-opacity:1"
     id="path4160-6-1"
     d="m 8.4999684,0.4998999 c 10.7700936,0 47.0000286,0.004 47.0000286,0.004 l 4.9e-5,58.9962201 c 0,0 -31.333384,0 -47.0000776,0 0,-19.6668 0,-39.3334 0,-58.9999701 z" />
  <g
     transform="translate(-749.96088,-384.00005)"
     id="g4049"
     style="fill:#68b723;fill-opacity:1">
    <path
       d="m 774.30182,417 c -1.22,1.26 -2.24,2.01 -3.65999,2.01 -2.74,0 -4.96001,-2.28 -4.96001,-5.04 0,-1.2 0.46001,-2.48 1.22001,-3.36 0.89999,-1.06 2.17999,-1.62 3.67999,-1.62 1.72,0 2.88,0.71 3.88,2.01 h 3.06001 c -0.58001,-1.28 -1.10001,-1.98 -2.10001,-2.8 -1.36,-1.1 -3.1,-1.85 -4.89999,-1.85 -4.18001,0 -7.60001,3.42 -7.60001,7.6 0,4.28 3.46001,7.7 7.78,7.7 3.04001,0 5.66,-1.95 6.82001,-4.65 z"
       style="font-style:normal;font-variant:normal;font-weight:600;font-stretch:normal;font-size:20px;line-height:125%;font-family:'URW Gothic';-inkscape-font-specification:'URW Gothic Semi-Bold';letter-spacing:0px;word-spacing:0px;fill:#68b723;fill-opacity:1;stroke:none;stroke-width:1px;stroke-linecap:butt;stroke-linejoin:miter;stroke-opacity:1"
       id="path4331-1"
       inkscape:connector-curvature="0"
       sodipodi:nodetypes="csscscccssscc" />
    <path
       d="m 782.99995,413 h -4 v 2 h 4 v 4 h 2 v -4 h 4 v -2 h -4 v -4 h -2 z"
       style="font-style:normal;font-variant:normal;font-weight:600;font-stretch:normal;font-size:20px;line-height:125%;font-family:'URW Gothic';-inkscape-font-specification:'URW Gothic Semi-Bold';letter-spacing:0px;word-spacing:0px;fill:#68b723;fill-opacity:1;stroke:none;stroke-width:1px;stroke-linecap:butt;stroke-linejoin:miter;stroke-opacity:1"
       id="path4333-7"
       inkscape:connector-curvature="0"
       sodipodi:nodetypes="ccccccccccccc" />
    <path
       d="m 794.99995,413 h -4 v 2 h 4 v 4 h 2 v -4 h 4 v -2 h -4 v -4 h -2 z"
       style="font-style:normal;font-variant:normal;font-weight:600;font-stretch:normal;font-size:20px;line-height:125%;font-family:'URW Gothic';-inkscape-font-specification:'URW Gothic Semi-Bold';letter-spacing:0px;word-spacing:0px;fill:#68b723;fill-opacity:1;stroke:none;stroke-width:1px;stroke-linecap:butt;stroke-linejoin:miter;stroke-opacity:1"
       id="path4335-7"
       inkscape:connector-curvature="0"
       sodipodi:nodetypes="ccccccccccccc" />
  </g>
</svg>
