<?xml version="1.0" encoding="UTF-8" standalone="no"?>
<svg
   xmlns:dc="http://purl.org/dc/elements/1.1/"
   xmlns:cc="http://creativecommons.org/ns#"
   xmlns:rdf="http://www.w3.org/1999/02/22-rdf-syntax-ns#"
   xmlns:svg="http://www.w3.org/2000/svg"
   xmlns="http://www.w3.org/2000/svg"
   xmlns:xlink="http://www.w3.org/1999/xlink"
   version="1.1"
   width="64"
   height="64"
   id="svg3130">
  <defs
     id="defs3132">
    <linearGradient
       x1="-51.786404"
       y1="50.786446"
       x2="-51.786404"
       y2="2.9062471"
       id="linearGradient3048"
       xlink:href="#linearGradient3104-6"
       gradientUnits="userSpaceOnUse"
       gradientTransform="matrix(1.0843523,0,0,1.1997367,79.550862,-4.1628601)" />
    <linearGradient
       id="linearGradient3104-6">
      <stop
         id="stop3106-3"
         style="stop-color:#000000;stop-opacity:0.31782946"
         offset="0" />
      <stop
         id="stop3108-9"
         style="stop-color:#000000;stop-opacity:0.24031007"
         offset="1" />
    </linearGradient>
  </defs>
  <metadata
     id="metadata3135">
    <rdf:RDF>
      <cc:Work
         rdf:about="">
        <dc:format>image/svg+xml</dc:format>
        <dc:type
           rdf:resource="http://purl.org/dc/dcmitype/StillImage" />
        <dc:title />
      </cc:Work>
    </rdf:RDF>
  </metadata>
  <path
     style="display:inline;fill:#fafafa;fill-opacity:1;stroke:none"
     id="path4160-6"
     d="m 9,0.9998799 c 10.540935,0 45.999945,0.004 45.999945,0.004 L 55,59.00002 c 0,0 -30.666666,0 -46,0 0,-19.3334 0,-38.6665 0,-57.9998201 z" />
  <path
     style="display:inline;fill:none;stroke:url(#linearGradient3048);stroke-width:0.9999218;stroke-linecap:butt;stroke-linejoin:round;stroke-miterlimit:4;stroke-dasharray:none;stroke-dashoffset:0;stroke-opacity:1"
     id="path4160-6-1"
     d="m 8.4999684,0.4998999 c 10.7700936,0 47.0000286,0.004 47.0000286,0.004 l 4.9e-5,58.9962201 c 0,0 -31.333384,0 -47.0000776,0 0,-19.6668 0,-39.3334 0,-58.9999701 z" />
  <path
     id="path4194"
     d="M 25.78125 22 C 25.36575 22 25.03125 22.3345 25.03125 22.75 L 25.03125 36.25 C 25.03125 36.6655 25.36575 37 25.78125 37 L 38.28125 37 C 38.69675 37 39.03125 36.6655 39.03125 36.25 L 39.03125 22.75 C 39.03125 22.3345 38.69675 22 38.28125 22 L 25.78125 22 z M 26.03125 23 L 27.03125 23 L 27.03125 24 L 26.03125 24 L 26.03125 23 z M 28.53125 23 L 35.53125 23 C 35.808251 23 36.03125 23.223 36.03125 23.5 L 36.03125 28.5 C 36.03125 28.777 35.808251 29 35.53125 29 L 28.53125 29 C 28.25425 29 28.03125 28.777 28.03125 28.5 L 28.03125 23.5 C 28.03125 23.223 28.25425 23 28.53125 23 z M 37.03125 23 L 38.03125 23 L 38.03125 24 L 37.03125 24 L 37.03125 23 z M 26.03125 25 L 27.03125 25 L 27.03125 26 L 26.03125 26 L 26.03125 25 z M 37.03125 25 L 38.03125 25 L 38.03125 26 L 37.03125 26 L 37.03125 25 z M 26.03125 27 L 27.03125 27 L 27.03125 28 L 26.03125 28 L 26.03125 27 z M 37.03125 27 L 38.03125 27 L 38.03125 28 L 37.03125 28 L 37.03125 27 z M 26.03125 29 L 27.03125 29 L 27.03125 30 L 26.03125 30 L 26.03125 29 z M 37.03125 29 L 38.03125 29 L 38.03125 30 L 37.03125 30 L 37.03125 29 z M 28.53125 30 L 35.53125 30 C 35.808251 30 36.03125 30.223 36.03125 30.5 L 36.03125 35.5 C 36.03125 35.777 35.808251 36 35.53125 36 L 28.53125 36 C 28.25425 36 28.03125 35.777 28.03125 35.5 L 28.03125 30.5 C 28.03125 30.223 28.25425 30 28.53125 30 z M 26.03125 31 L 27.03125 31 L 27.03125 32 L 26.03125 32 L 26.03125 31 z M 37.03125 31 L 38.03125 31 L 38.03125 32 L 37.03125 32 L 37.03125 31 z M 26.03125 33 L 27.03125 33 L 27.03125 34 L 26.03125 34 L 26.03125 33 z M 37.03125 33 L 38.03125 33 L 38.03125 34 L 37.03125 34 L 37.03125 33 z M 26.03125 35 L 27.03125 35 L 27.03125 36 L 26.03125 36 L 26.03125 35 z M 37.03125 35 L 38.03125 35 L 38.03125 36 L 37.03125 36 L 37.03125 35 z M 17.53125 52 A 1.5 1.5 0 0 0 16.03125 53.5 A 1.5 1.5 0 0 0 17.53125 55 A 1.5 1.5 0 0 0 19.03125 53.5 A 1.5 1.5 0 0 0 17.53125 52 z M 22.53125 52 A 1.5 1.5 0 0 0 21.03125 53.5 A 1.5 1.5 0 0 0 22.53125 55 A 1.5 1.5 0 0 0 24.03125 53.5 A 1.5 1.5 0 0 0 22.53125 52 z M 27.53125 52 A 1.5 1.5 0 0 0 26.03125 53.5 A 1.5 1.5 0 0 0 27.53125 55 A 1.5 1.5 0 0 0 29.03125 53.5 A 1.5 1.5 0 0 0 27.53125 52 z M 32.53125 52 A 1.5 1.5 0 0 0 31.03125 53.5 A 1.5 1.5 0 0 0 32.53125 55 A 1.5 1.5 0 0 0 34.03125 53.5 A 1.5 1.5 0 0 0 32.53125 52 z M 37.53125 52 A 1.5 1.5 0 0 0 36.03125 53.5 A 1.5 1.5 0 0 0 37.53125 55 A 1.5 1.5 0 0 0 39.03125 53.5 A 1.5 1.5 0 0 0 37.53125 52 z M 42.53125 52 A 1.5 1.5 0 0 0 41.03125 53.5 A 1.5 1.5 0 0 0 42.53125 55 A 1.5 1.5 0 0 0 44.03125 53.5 A 1.5 1.5 0 0 0 42.53125 52 z M 47.53125 52 A 1.5 1.5 0 0 0 46.03125 53.5 A 1.5 1.5 0 0 0 47.53125 55 A 1.5 1.5 0 0 0 49.03125 53.5 A 1.5 1.5 0 0 0 47.53125 52 z "
     style="opacity:1;fill:#7e8087;fill-opacity:1;stroke:none;stroke-width:2;stroke-miterlimit:4;stroke-dasharray:none;stroke-opacity:1" />
</svg>
