<?xml version="1.0" encoding="UTF-8" standalone="no"?>
<svg
   xmlns:dc="http://purl.org/dc/elements/1.1/"
   xmlns:cc="http://creativecommons.org/ns#"
   xmlns:rdf="http://www.w3.org/1999/02/22-rdf-syntax-ns#"
   xmlns:svg="http://www.w3.org/2000/svg"
   xmlns="http://www.w3.org/2000/svg"
   xmlns:xlink="http://www.w3.org/1999/xlink"
   id="svg3844"
   height="64"
   width="64"
   version="1.1">
  <defs
     id="defs3846">
    <linearGradient
       gradientTransform="matrix(1.0843523,0,0,1.1997367,79.550862,-4.1628601)"
       gradientUnits="userSpaceOnUse"
       xlink:href="#linearGradient3104-6"
       id="linearGradient3033"
       y2="2.9062471"
       x2="-51.786404"
       y1="50.786446"
       x1="-51.786404" />
    <linearGradient
       id="linearGradient3104-6">
      <stop
         offset="0"
         style="stop-color:#000000;stop-opacity:0.31782946"
         id="stop3106-3" />
      <stop
         offset="1"
         style="stop-color:#000000;stop-opacity:0.24031007"
         id="stop3108-9" />
    </linearGradient>
  </defs>
  <metadata
     id="metadata3849">
    <rdf:RDF>
      <cc:Work
         rdf:about="">
        <dc:format>image/svg+xml</dc:format>
        <dc:type
           rdf:resource="http://purl.org/dc/dcmitype/StillImage" />
        <dc:title />
      </cc:Work>
    </rdf:RDF>
  </metadata>
  <path
     d="m 9,0.9998799 c 10.540935,0 45.999945,0.004 45.999945,0.004 L 55,59.00002 H 9 V 1.0001999 Z"
     id="path4160-6"
     style="display:inline;fill:#fafafa;fill-opacity:1;stroke:none" />
  <path
     d="m 8.4999684,0.4998999 c 10.7700936,0 47.0000286,0.004 47.0000286,0.004 l 4.9e-5,58.9962201 H 8.4999684 V 0.5001499 Z"
     id="path4160-6-1"
     style="display:inline;fill:none;stroke:url(#linearGradient3033);stroke-width:0.9999218;stroke-linecap:butt;stroke-linejoin:round;stroke-miterlimit:4;stroke-dasharray:none;stroke-dashoffset:0;stroke-opacity:1" />
  <path
     id="path4498-3"
     d="m 32.000002,16 c -1.293159,0 -2.395141,0.84267 -2.8125,2 l -7.1875,0 a 1.0001,1.0001 0 1 0 0,2 l 7.1875,0 c 0.303801,0.842436 0.970064,1.508699 1.8125,1.8125 l 0,20.1875 -8.986328,0 a 1.0001,1.0001 0 1 0 0,2 l 20,0 a 1.0001,1.0001 0 1 0 0,-2 l -9.013672,0 0,-20.1875 c 0.842436,-0.303801 1.508699,-0.970064 1.8125,-1.8125 l 7.1875,0 a 1.0001,1.0001 0 1 0 0,-2 l -7.1875,0 c -0.417359,-1.15733 -1.519341,-2 -2.8125,-2 z m 0,2 c 0.54383,0 0.958426,0.408812 0.988281,0.943359 a 1.0001,1.0001 0 0 0 0,0.115235 C 32.957489,19.592159 32.543159,20 32.000002,20 c -0.54383,0 -0.958426,-0.408812 -0.988281,-0.943359 a 1.0001,1.0001 0 0 0 0,-0.115235 C 31.042515,18.407841 31.456845,18 32.000002,18 Z m -10.023438,2.939453 a 0.50005,0.50005 0 0 0 -0.441406,0.302735 l -5.49414,12.751953 0.01367,0.0059 -0.05469,0 0,0.753906 c 0.899421,2.54395 3.305641,4.244066 6.003906,4.246094 2.696743,-0.0038 5.097181,-1.703576 5.996094,-4.246094 l 0,-0.753906 -0.0625,0 0.01367,-0.0059 -5.498047,-12.751953 a 0.50005,0.50005 0 0 0 -0.476563,-0.302735 z m 20,0 a 0.50005,0.50005 0 0 0 -0.441406,0.302735 l -5.49414,12.751953 0.01367,0.0059 -0.05469,0 0,0.753906 c 0.899421,2.54395 3.305641,4.244066 6.003906,4.246094 2.696743,-0.0038 5.097181,-1.703576 5.996094,-4.246094 l 0,-0.753906 -0.0625,0 0.01367,-0.0059 -5.498047,-12.751994 A 0.50005,0.50005 0 0 0 41.976564,20.939453 Z M 21.994143,22.703125 26.865236,34 17.126955,34 21.994143,22.703125 Z m 20,0 L 46.865236,34 37.126955,34 41.994143,22.703125 Z"
     style="color:#000000;font-style:normal;font-variant:normal;font-weight:normal;font-stretch:normal;font-size:medium;line-height:normal;font-family:sans-serif;text-indent:0;text-align:start;text-decoration:none;text-decoration-line:none;text-decoration-style:solid;text-decoration-color:#000000;letter-spacing:normal;word-spacing:normal;text-transform:none;direction:ltr;writing-mode:lr-tb;baseline-shift:baseline;text-anchor:start;white-space:normal;clip-rule:nonzero;display:inline;overflow:visible;visibility:visible;opacity:1;isolation:auto;mix-blend-mode:normal;color-interpolation:sRGB;color-interpolation-filters:linearRGB;solid-color:#000000;solid-opacity:1;fill:#7e8087;fill-opacity:1;fill-rule:nonzero;stroke:none;stroke-width:2;stroke-linecap:round;stroke-linejoin:round;stroke-miterlimit:4;stroke-dasharray:none;stroke-dashoffset:0;stroke-opacity:1;color-rendering:auto;image-rendering:auto;shape-rendering:auto;text-rendering:auto;enable-background:accumulate" />
</svg>
