<?xml version="1.0" encoding="UTF-8" standalone="no"?>
<svg
   xmlns:dc="http://purl.org/dc/elements/1.1/"
   xmlns:cc="http://creativecommons.org/ns#"
   xmlns:rdf="http://www.w3.org/1999/02/22-rdf-syntax-ns#"
   xmlns:svg="http://www.w3.org/2000/svg"
   xmlns="http://www.w3.org/2000/svg"
   xmlns:xlink="http://www.w3.org/1999/xlink"
   width="64"
   height="64"
   id="svg4017"
   version="1.1">
  <defs
     id="defs4019">
    <linearGradient
       gradientTransform="matrix(1.0843523,0,0,1.1997367,79.550863,-4.1628601)"
       gradientUnits="userSpaceOnUse"
       xlink:href="#linearGradient3104-6"
       id="linearGradient3033"
       y2="2.9062471"
       x2="-51.786404"
       y1="50.786446"
       x1="-51.786404" />
    <linearGradient
       id="linearGradient3104-6">
      <stop
         offset="0"
         style="stop-color:#000000;stop-opacity:0.31782946"
         id="stop3106-3" />
      <stop
         offset="1"
         style="stop-color:#000000;stop-opacity:0.24031007"
         id="stop3108-9" />
    </linearGradient>
  </defs>
  <metadata
     id="metadata4022">
    <rdf:RDF>
      <cc:Work
         rdf:about="">
        <dc:format>image/svg+xml</dc:format>
        <dc:type
           rdf:resource="http://purl.org/dc/dcmitype/StillImage" />
        <dc:title />
      </cc:Work>
    </rdf:RDF>
  </metadata>
  <path
     style="display:inline;fill:#fafafa;fill-opacity:1;stroke:none"
     id="path4160-6-9"
     d="m 9,0.9998799 c 10.540935,0 45.999945,0.004 45.999945,0.004 L 55,59.00002 c 0,0 -30.666666,0 -46,0 0,-19.3334 0,-38.6665 0,-57.9998201 z" />
  <path
     style="display:inline;fill:none;stroke:url(#linearGradient3033);stroke-width:0.9999218;stroke-linecap:butt;stroke-linejoin:round;stroke-miterlimit:4;stroke-dasharray:none;stroke-dashoffset:0;stroke-opacity:1"
     id="path4160-6-1"
     d="m 8.4999684,0.4998999 c 10.7700936,0 47.0000286,0.004 47.0000286,0.004 l 4.9e-5,58.9962201 c 0,0 -31.333384,0 -47.0000776,0 0,-19.6668 0,-39.3334 0,-58.9999701 z" />
  <path
     id="rect4250"
     d="M 19.5 21 C 19.223 21 19 21.223 19 21.5 L 19 22.5 C 19 22.777 19.223 23 19.5 23 L 20.5 23 C 20.777 23 21 22.777 21 22.5 L 21 21.5 C 21 21.223 20.777 21 20.5 21 L 19.5 21 z M 24.5 21 C 24.223 21 24 21.223 24 21.5 L 24 22.5 C 24 22.777 24.223 23 24.5 23 L 41.5 23 C 41.777 23 42 22.777 42 22.5 L 42 21.5 C 42 21.223 41.777 21 41.5 21 L 24.5 21 z M 19.5 39 C 19.223 39 19 39.223 19 39.5 L 19 40.5 C 19 40.777 19.223 41 19.5 41 L 20.5 41 C 20.777 41 21 40.777 21 40.5 L 21 39.5 C 21 39.223 20.777 39 20.5 39 L 19.5 39 z M 24.5 39 C 24.223 39 24 39.223 24 39.5 L 24 40.5 C 24 40.777 24.223 41 24.5 41 L 41.5 41 C 41.777 41 42 40.777 42 40.5 L 42 39.5 C 42 39.223 41.777 39 41.5 39 L 24.5 39 z "
     style="color:#000000;clip-rule:nonzero;display:inline;overflow:visible;visibility:visible;opacity:1;isolation:auto;mix-blend-mode:normal;color-interpolation:sRGB;color-interpolation-filters:linearRGB;solid-color:#000000;solid-opacity:1;fill:#abacae;fill-opacity:1;fill-rule:nonzero;stroke:none;stroke-width:1;stroke-linecap:butt;stroke-linejoin:miter;stroke-miterlimit:4;stroke-dasharray:none;stroke-dashoffset:0;stroke-opacity:1;marker:none;color-rendering:auto;image-rendering:auto;shape-rendering:auto;text-rendering:auto;enable-background:accumulate" />
  <path
     id="rect4250-5"
     d="M 21.5 27 C 21.223 27 21 27.223 21 27.5 L 21 28.5 C 21 28.777 21.223 29 21.5 29 L 22.5 29 C 22.777 29 23 28.777 23 28.5 L 23 27.5 C 23 27.223 22.777 27 22.5 27 L 21.5 27 z M 26.5 27 C 26.223 27 26 27.223 26 27.5 L 26 28.5 C 26 28.777 26.223 29 26.5 29 L 43.5 29 C 43.777 29 44 28.777 44 28.5 L 44 27.5 C 44 27.223 43.777 27 43.5 27 L 26.5 27 z "
     style="color:#000000;clip-rule:nonzero;display:inline;overflow:visible;visibility:visible;opacity:1;isolation:auto;mix-blend-mode:normal;color-interpolation:sRGB;color-interpolation-filters:linearRGB;solid-color:#000000;solid-opacity:1;fill:#ed5353;fill-opacity:1;fill-rule:nonzero;stroke:none;stroke-width:1;stroke-linecap:butt;stroke-linejoin:miter;stroke-miterlimit:4;stroke-dasharray:none;stroke-dashoffset:0;stroke-opacity:1;marker:none;color-rendering:auto;image-rendering:auto;shape-rendering:auto;text-rendering:auto;enable-background:accumulate" />
  <path
     id="rect4250-5-5"
     d="M 21.5 33 C 21.223 33 21 33.223 21 33.5 L 21 34.5 C 21 34.777 21.223 35 21.5 35 L 22.5 35 C 22.777 35 23 34.777 23 34.5 L 23 33.5 C 23 33.223 22.777 33 22.5 33 L 21.5 33 z M 26.5 33 C 26.223 33 26 33.223 26 33.5 L 26 34.5 C 26 34.777 26.223 35 26.5 35 L 43.5 35 C 43.777 35 44 34.777 44 34.5 L 44 33.5 C 44 33.223 43.777 33 43.5 33 L 26.5 33 z "
     style="color:#000000;clip-rule:nonzero;display:inline;overflow:visible;visibility:visible;opacity:1;isolation:auto;mix-blend-mode:normal;color-interpolation:sRGB;color-interpolation-filters:linearRGB;solid-color:#000000;solid-opacity:1;fill:#68b723;fill-opacity:1;fill-rule:nonzero;stroke:none;stroke-width:1;stroke-linecap:butt;stroke-linejoin:miter;stroke-miterlimit:4;stroke-dasharray:none;stroke-dashoffset:0;stroke-opacity:1;marker:none;color-rendering:auto;image-rendering:auto;shape-rendering:auto;text-rendering:auto;enable-background:accumulate" />
</svg>
