<?xml version="1.0" encoding="UTF-8" standalone="no"?>
<svg
   xmlns:dc="http://purl.org/dc/elements/1.1/"
   xmlns:cc="http://creativecommons.org/ns#"
   xmlns:rdf="http://www.w3.org/1999/02/22-rdf-syntax-ns#"
   xmlns:svg="http://www.w3.org/2000/svg"
   xmlns="http://www.w3.org/2000/svg"
   xmlns:xlink="http://www.w3.org/1999/xlink"
   version="1.1"
   width="64"
   height="64"
   id="svg3844">
  <defs
     id="defs3846">
    <linearGradient
       id="linearGradient920">
      <stop
         style="stop-color:#ed5353;stop-opacity:1"
         offset="0"
         id="stop916" />
      <stop
         style="stop-color:#c6262e;stop-opacity:1"
         offset="1"
         id="stop918" />
    </linearGradient>
    <linearGradient
       x1="-51.786404"
       y1="50.786446"
       x2="-51.786404"
       y2="2.9062471"
       id="linearGradient3033"
       xlink:href="#linearGradient3104-6"
       gradientUnits="userSpaceOnUse"
       gradientTransform="matrix(1.0843523,0,0,1.1997367,79.550862,-4.1628601)" />
    <linearGradient
       id="linearGradient3104-6">
      <stop
         id="stop3106-3"
         style="stop-color:#000000;stop-opacity:0.31782946"
         offset="0" />
      <stop
         id="stop3108-9"
         style="stop-color:#000000;stop-opacity:0.24031007"
         offset="1" />
    </linearGradient>
    <linearGradient
       xlink:href="#linearGradient920"
       id="linearGradient922"
       x1="32"
       y1="1"
       x2="32"
       y2="59"
       gradientUnits="userSpaceOnUse" />
  </defs>
  <metadata
     id="metadata3849">
    <rdf:RDF>
      <cc:Work
         rdf:about="">
        <dc:format>image/svg+xml</dc:format>
        <dc:type
           rdf:resource="http://purl.org/dc/dcmitype/StillImage" />
        <dc:title />
      </cc:Work>
    </rdf:RDF>
  </metadata>
  <path
     style="display:inline;fill:#fafafa;fill-opacity:1;stroke:none"
     id="path4160-6"
     d="m 9,0.9999399 c 10.540935,0 45.999945,0.004 45.999945,0.004 L 55,59.00008 c 0,0 -30.666666,0 -46,0 0,-19.3334 0,-38.6665 0,-57.9998201 z" />
  <path
     style="display:inline;fill:none;stroke:url(#linearGradient3033);stroke-width:0.9999218;stroke-linecap:butt;stroke-linejoin:round;stroke-miterlimit:4;stroke-dasharray:none;stroke-dashoffset:0;stroke-opacity:1"
     id="path4160-6-1"
     d="m 8.4999684,0.4998999 c 10.7700936,0 47.0000286,0.004 47.0000286,0.004 l 4.9e-5,58.9962201 c 0,0 -31.333384,0 -47.0000776,0 0,-19.6668 0,-39.3334 0,-58.9999701 z" />
  <path
     style="font-style:normal;font-variant:normal;font-weight:bold;font-stretch:normal;font-size:35.78462219px;line-height:1.25;font-family:'Open Sans';-inkscape-font-specification:'Open Sans Bold';letter-spacing:-0.89461553px;word-spacing:0px;fill:url(#linearGradient922);fill-opacity:1;stroke:none;stroke-width:1.11779857"
     d="M 28.013672,17 H 28 V 44 H 28.013672 33 v -9.189453 c 0,-2.271485 0.675871,-3.914303 1.339844,-4.927735 0.663972,-1.013431 1.741396,-1.519531 3.232422,-1.519531 2.096755,0 3.497692,1.410413 3.427734,4.228516 V 44 h 5 V 31.263672 c 0,-2.306431 -0.548167,-4.077745 -1.736328,-5.3125 -1.188161,-1.234756 -2.929826,-1.851563 -5.22461,-1.851563 -2.585998,0 -4.471994,0.954858 -5.660156,2.865235 L 33,27.546875 V 22.351562 17 Z m -6.996094,21 c -0.982905,0 -1.731783,0.253934 -2.246094,0.759766 C 18.257174,39.265596 18,40.011864 18,41 c 0,0.952845 0.263323,1.693297 0.789062,2.222656 C 19.314802,43.740251 20.057531,44 21.017578,44 21.954767,44 22.687151,43.734435 23.212891,43.205078 23.73863,42.663955 24,41.929317 24,41 24,40.035391 23.73863,39.294939 23.212891,38.777344 22.698579,38.259749 21.966196,38 21.017578,38 Z"
     id="path910" />
</svg>
