<?xml version="1.0" encoding="UTF-8" standalone="no"?>
<svg
   xmlns:dc="http://purl.org/dc/elements/1.1/"
   xmlns:cc="http://creativecommons.org/ns#"
   xmlns:rdf="http://www.w3.org/1999/02/22-rdf-syntax-ns#"
   xmlns:svg="http://www.w3.org/2000/svg"
   xmlns="http://www.w3.org/2000/svg"
   xmlns:xlink="http://www.w3.org/1999/xlink"
   id="svg3130"
   height="64"
   width="64"
   version="1.1">
  <defs
     id="defs3132">
    <linearGradient
       id="linearGradient3104-5">
      <stop
         offset="0"
         style="stop-color:#aaaaaa;stop-opacity:1"
         id="stop3106-2" />
      <stop
         offset="1"
         style="stop-color:#c8c8c8;stop-opacity:1"
         id="stop3108-5" />
    </linearGradient>
    <linearGradient
       gradientTransform="matrix(1.0843523,0,0,1.1997367,79.550862,-4.1628601)"
       gradientUnits="userSpaceOnUse"
       xlink:href="#linearGradient3104-6"
       id="linearGradient3048"
       y2="2.9062471"
       x2="-51.786404"
       y1="50.786446"
       x1="-51.786404" />
    <linearGradient
       id="linearGradient3104-6">
      <stop
         offset="0"
         style="stop-color:#000000;stop-opacity:0.31782946"
         id="stop3106-3" />
      <stop
         offset="1"
         style="stop-color:#000000;stop-opacity:0.24031007"
         id="stop3108-9" />
    </linearGradient>
    <linearGradient
       x1="22.004084"
       y1="47.813133"
       x2="22.004084"
       y2="3.3638515"
       id="linearGradient3072-4"
       xlink:href="#linearGradient3104-5"
       gradientUnits="userSpaceOnUse"
       gradientTransform="matrix(-1.3428566,0,0,1.3407401,66.316046,-4.2520303)" />
  </defs>
  <metadata
     id="metadata3135">
    <rdf:RDF>
      <cc:Work
         rdf:about="">
        <dc:format>image/svg+xml</dc:format>
        <dc:type
           rdf:resource="http://purl.org/dc/dcmitype/StillImage" />
        <dc:title />
      </cc:Work>
    </rdf:RDF>
  </metadata>
  <path
     d="m 9,0.9998799 c 10.540935,0 45.999945,0.004 45.999945,0.004 L 55,59.00002 c 0,0 -30.666666,0 -46,0 0,-19.3334 0,-38.6665 0,-57.9998201 z"
     id="path4160-6"
     style="display:inline;fill:#fafafa;fill-opacity:1;stroke:none" />
  <path
     d="m 8.4999684,0.4998999 c 10.7700936,0 47.0000286,0.004 47.0000286,0.004 l 4.9e-5,58.9962201 c 0,0 -31.333384,0 -47.0000776,0 0,-19.6668 0,-39.3334 0,-58.9999701 z"
     id="path4160-6-1"
     style="display:inline;fill:none;stroke:url(#linearGradient3048);stroke-width:0.9999218;stroke-linecap:butt;stroke-linejoin:round;stroke-miterlimit:4;stroke-dasharray:none;stroke-dashoffset:0;stroke-opacity:1" />
  <path
     style="fill:none;stroke:url(#linearGradient3072-4);stroke-width:0.99999994px;stroke-linecap:butt;stroke-linejoin:miter;stroke-opacity:1"
     id="path3475"
     d="m 48.882558,11.5 -3.147321,0 z m -3.608928,0 -2.937498,0 z m -3.399105,0 -2.601785,0 z m -3.021428,0 -1.133035,0 z m -1.594642,0 -2.517856,0 z m -3.021427,0 -6.630355,0 z m -7.049997,0 -5.077677,0 z m -5.49732,0 -1.552678,0 z m 27.192847,3 -4.90982,0 z m -5.455355,0 -2.349999,0 z m -2.769642,0 -1.175,0 z m -1.636607,0 -2.140177,0 z m -2.601784,0 -2.182142,0 z m -2.601785,0 -3.483034,0 z m -3.944641,0 -4.532141,0 z m -4.951784,0 -3.021427,0 z m -3.44107,0 -0.755357,0 z m 27.402668,2.97905 -4.154463,0 z m -4.574106,0 -6.798211,0 z m -7.217854,0 -3.315177,0 z m -3.73482,0 -3.105356,0 z m -3.524998,0 -2.643749,0 z m -3.063392,0 -4.154463,0.0419 z m -4.532141,0.0419 -6.756247,0 z M 48.882558,20.5 l -5.749105,0 z m -6.210712,0 -6.210712,0 z m -6.630355,0 -2.475892,0 z m -2.895534,0 -5.833034,0 z m -6.210712,0 -3.986606,0 z m -4.448212,0 -1.594643,0 z m -2.014285,0 -0.88125,0 z m -1.342857,0 -2.475892,0 z m 29.752667,3 -2.140178,0 z m -2.811606,0 -7.931247,0 z m 2.811606,5 -3.147321,0 z m -3.608928,0 -2.895534,0 z m -3.399105,0 -2.601785,0 z m -3.021428,0 -1.133035,0 z m -1.594642,0 -2.517856,0 z m -3.021427,0 -6.58839,0 z m -7.049997,0 -5.035713,0 z m -5.455355,0 -1.594643,0 z m -2.014285,0 -3.776784,0 z m 29.165167,3 -5.287498,0 z m -5.707141,0 -5.665176,0 z m -6.084819,0 -2.182142,0 z m -2.601785,0 -5.329462,0 z m -5.749104,0 -6.714283,0 z m -7.17589,0 -2.475892,0 z m 27.318739,3 -5.749105,0 z m -6.210712,0 -6.210712,0 z m -6.630355,0 -2.475892,0 z m -2.895534,0 -5.833034,0 z m -6.210712,0 -3.986606,0 z m -4.448212,0 -1.594643,0 z m -2.014285,0 -0.88125,0 z m -1.342857,0 -2.475892,0 z m 29.752667,3 -4.90982,0 z m -5.455355,0 -2.349999,0 z m -2.769642,0 -1.175,0 z m -1.636607,0 -2.140177,0 z m -2.601784,0 -2.182142,0 z m -2.601785,0 -3.483034,0 z m -3.944641,0 -4.532141,0 z m -4.951784,0 -3.021427,0 z m -3.44107,0 -0.755357,0 z m 27.402668,4.979055 -4.154463,0 z m -4.574106,0 -6.798211,0 z m -7.217854,0 -3.315177,0 z m -3.73482,0 -3.105356,0 z m -3.524998,0 -2.643749,0 z m -3.063392,0 -4.154463,0.04189 z m -4.532141,0.04189 -6.756247,0 z M 48.882558,45.5 l -4.90982,0 z m -5.455355,0 -2.349999,0 z m -2.769642,0 -1.175,0 z m -1.636607,0 -2.140177,0 z m -2.601784,0 -2.182142,0 z m -2.601785,0 -3.483034,0 z m -3.944641,0 -4.532141,0 z m -4.951784,0 -3.021427,0 z m -3.44107,0 -0.755357,0 z m 27.402668,3 -5.20357,0 z m -5.665177,0 -1.636606,0 z m -2.056249,0 -3.73482,0 z m -4.154462,0 -5.49732,0 z m -5.958927,0 -3.73482,0 z m -4.112498,0 -0.797321,0 z m -1.216964,0 -4.741962,0 z m -5.245533,0 -2.475892,0 z m 28.40981,3 -5.20357,0 z m -5.665177,0 -2.349999,0 z m -2.769641,0 -3.692856,0 z m -4.112499,0 -3.986605,0 z m -4.448212,0 -1.594642,0 z m -2.014285,0 -0.88125,0 z m -1.342857,0 -2.475892,0 z" />
  <path
     style="display:inline;overflow:visible;visibility:visible;opacity:0.8;fill:#e9e9e9;fill-opacity:1;fill-rule:evenodd;stroke:#83899a;stroke-width:1px;stroke-linecap:butt;stroke-linejoin:miter;stroke-miterlimit:4;stroke-dasharray:none;stroke-dashoffset:0;stroke-opacity:1;marker:none;enable-background:accumulate"
     id="path2993"
     d="m 55.500105,19.5 -39.999998,40 39.999998,0 z m -8,18.6666 0,13.3334 -13.499999,0 z" />
</svg>
