<?xml version="1.0" encoding="UTF-8" standalone="no"?>
<svg
   xmlns:dc="http://purl.org/dc/elements/1.1/"
   xmlns:cc="http://creativecommons.org/ns#"
   xmlns:rdf="http://www.w3.org/1999/02/22-rdf-syntax-ns#"
   xmlns:svg="http://www.w3.org/2000/svg"
   xmlns="http://www.w3.org/2000/svg"
   xmlns:xlink="http://www.w3.org/1999/xlink"
   id="svg3844"
   height="64"
   width="64"
   version="1.1">
  <defs
     id="defs3846">
    <linearGradient
       gradientTransform="matrix(1.0843523,0,0,1.1997367,79.550862,-4.1628601)"
       gradientUnits="userSpaceOnUse"
       xlink:href="#linearGradient3104-6"
       id="linearGradient3033"
       y2="2.9062471"
       x2="-51.786404"
       y1="50.786446"
       x1="-51.786404" />
    <linearGradient
       id="linearGradient3104-6">
      <stop
         offset="0"
         style="stop-color:#000000;stop-opacity:0.31782946"
         id="stop3106-3" />
      <stop
         offset="1"
         style="stop-color:#000000;stop-opacity:0.24031007"
         id="stop3108-9" />
    </linearGradient>
  </defs>
  <metadata
     id="metadata3849">
    <rdf:RDF>
      <cc:Work
         rdf:about="">
        <dc:format>image/svg+xml</dc:format>
        <dc:type
           rdf:resource="http://purl.org/dc/dcmitype/StillImage" />
        <dc:title />
      </cc:Work>
    </rdf:RDF>
  </metadata>
  <path
     d="m 9,0.9998799 c 10.540935,0 45.999945,0.004 45.999945,0.004 L 55,59.00002 c 0,0 -30.666666,0 -46,0 0,-19.3334 0,-38.6665 0,-57.9998201 z"
     id="path4160-6"
     style="display:inline;fill:#fafafa;fill-opacity:1;stroke:none" />
  <path
     d="m 8.4999684,0.4998999 c 10.7700936,0 47.0000286,0.004 47.0000286,0.004 l 4.9e-5,58.9962201 c 0,0 -31.333384,0 -47.0000776,0 0,-19.6668 0,-39.3334 0,-58.9999701 z"
     id="path4160-6-1"
     style="display:inline;fill:none;stroke:url(#linearGradient3033);stroke-width:0.9999218;stroke-linecap:butt;stroke-linejoin:round;stroke-miterlimit:4;stroke-dasharray:none;stroke-dashoffset:0;stroke-opacity:1" />
  <path
     style="color:#000000;font-style:normal;font-weight:bold;font-size:72px;font-family:'Standard Symbols L';display:inline;overflow:visible;visibility:visible;opacity:1;fill:#7e8087;fill-opacity:1;fill-rule:nonzero;stroke:none;stroke-width:1;marker:none;enable-background:accumulate"
     id="path9053"
     d="m 33.180199,37.54532 c -0.08566,-3.0576 0.599375,-6.026 3.488169,-8.1286 3.051304,-2.3778 5.989954,-5.3529 5.679401,-8.8598 -0.06781,-3.3822 -4.008466,-6.0324 -8.254238,-6.4134 -4.775804,-0.6616 -10.554496,0.9744 -12.154836,4.7041 -0.811656,1.814 -0.05898,5.0685 2.664923,5.0685 1.593218,0 2.324992,-1.0291 2.44521,-1.9706 0.09096,-0.7123 -0.201489,-1.3484 -0.374197,-1.9368 -0.196791,-0.6705 0.643293,-1.9699 1.558259,-2.4993 0.76456,-0.4423 1.564484,-0.5907 1.682397,-0.619 2.745747,-0.6599 5.482862,0.7977 6.624834,2.5718 1.141974,1.774 -0.114995,4.4648 -1.922222,7.0817 -1.80723,2.6168 -3.74671,5.5888 -3.738962,8.7457 0,1.2019 -0.107087,1.6101 -0.03099,2.0964 0.06078,0.3885 1.347147,0.3415 2.33226,0.1593 z m -1.253073,4.1155 c -2.625368,-0.1426 -4.442488,2.8337 -2.865296,4.7299 1.408507,2.0936 5.357634,1.5768 6.034513,-0.794 0.70371,-1.8437 -0.989778,-3.9667 -3.169216,-3.9359 l -10e-7,0 z" />
</svg>
