<?xml version="1.0" encoding="UTF-8" standalone="no"?>
<svg
   xmlns:dc="http://purl.org/dc/elements/1.1/"
   xmlns:cc="http://creativecommons.org/ns#"
   xmlns:rdf="http://www.w3.org/1999/02/22-rdf-syntax-ns#"
   xmlns:svg="http://www.w3.org/2000/svg"
   xmlns="http://www.w3.org/2000/svg"
   xmlns:xlink="http://www.w3.org/1999/xlink"
   version="1.1"
   width="64"
   height="64"
   id="svg3130">
  <defs
     id="defs3132">
    <linearGradient
       x1="-51.786404"
       y1="50.786446"
       x2="-51.786404"
       y2="2.9062471"
       id="linearGradient3048"
       xlink:href="#linearGradient3104-6"
       gradientUnits="userSpaceOnUse"
       gradientTransform="matrix(1.0843523,0,0,1.1997367,79.550862,-4.1628601)" />
    <linearGradient
       id="linearGradient3104-6">
      <stop
         id="stop3106-3"
         style="stop-color:#000000;stop-opacity:0.31782946"
         offset="0" />
      <stop
         id="stop3108-9"
         style="stop-color:#000000;stop-opacity:0.24031007"
         offset="1" />
    </linearGradient>
  </defs>
  <metadata
     id="metadata3135">
    <rdf:RDF>
      <cc:Work
         rdf:about="">
        <dc:format>image/svg+xml</dc:format>
        <dc:type
           rdf:resource="http://purl.org/dc/dcmitype/StillImage" />
        <dc:title />
      </cc:Work>
    </rdf:RDF>
  </metadata>
  <path
     style="display:inline;fill:#fafafa;fill-opacity:1;stroke:none"
     id="path4160-6"
     d="m 9,0.9998799 c 10.540935,0 45.999945,0.004 45.999945,0.004 L 55,59.00002 c 0,0 -30.666666,0 -46,0 0,-19.3334 0,-38.6665 0,-57.9998201 z" />
  <path
     style="display:inline;fill:none;stroke:url(#linearGradient3048);stroke-width:0.9999218;stroke-linecap:butt;stroke-linejoin:round;stroke-miterlimit:4;stroke-dasharray:none;stroke-dashoffset:0;stroke-opacity:1"
     id="path4160-6-1"
     d="m 8.4999684,0.4998999 c 10.7700936,0 47.0000286,0.004 47.0000286,0.004 l 4.9e-5,58.9962201 c 0,0 -31.333384,0 -47.0000776,0 0,-19.6668 0,-39.3334 0,-58.9999701 z" />
  <path
     id="path4194"
     d="m 25.78125,22 c -0.4155,0 -0.75,0.3345 -0.75,0.75 l 0,13.5 c 0,0.4155 0.3345,0.75 0.75,0.75 l 12.5,0 c 0.4155,0 0.75,-0.3345 0.75,-0.75 l 0,-13.5 c 0,-0.4155 -0.3345,-0.75 -0.75,-0.75 z m 0.25,1 1,0 0,1 -1,0 z m 2.5,0 7,0 c 0.277001,0 0.5,0.223 0.5,0.5 l 0,5 c 0,0.277 -0.222999,0.5 -0.5,0.5 l -7,0 c -0.277,0 -0.5,-0.223 -0.5,-0.5 l 0,-5 c 0,-0.277 0.223,-0.5 0.5,-0.5 z m 8.5,0 1,0 0,1 -1,0 z m -11,2 1,0 0,1 -1,0 z m 11,0 1,0 0,1 -1,0 z m -11,2 1,0 0,1 -1,0 z m 11,0 1,0 0,1 -1,0 z m -11,2 1,0 0,1 -1,0 z m 11,0 1,0 0,1 -1,0 z m -8.5,1 7,0 c 0.277001,0 0.5,0.223 0.5,0.5 l 0,5 c 0,0.277 -0.222999,0.5 -0.5,0.5 l -7,0 c -0.277,0 -0.5,-0.223 -0.5,-0.5 l 0,-5 c 0,-0.277 0.223,-0.5 0.5,-0.5 z m -2.5,1 1,0 0,1 -1,0 z m 11,0 1,0 0,1 -1,0 z m -11,2 1,0 0,1 -1,0 z m 11,0 1,0 0,1 -1,0 z m -11,2 1,0 0,1 -1,0 z m 11,0 1,0 0,1 -1,0 z"
     style="opacity:1;fill:#7e8087;fill-opacity:1;stroke:none;stroke-width:2;stroke-miterlimit:4;stroke-dasharray:none;stroke-opacity:1" />
</svg>
