<?xml version="1.0" encoding="UTF-8" standalone="no"?>
<svg
   xmlns:dc="http://purl.org/dc/elements/1.1/"
   xmlns:cc="http://creativecommons.org/ns#"
   xmlns:rdf="http://www.w3.org/1999/02/22-rdf-syntax-ns#"
   xmlns:svg="http://www.w3.org/2000/svg"
   xmlns="http://www.w3.org/2000/svg"
   xmlns:xlink="http://www.w3.org/1999/xlink"
   version="1.1"
   id="svg4017"
   height="64"
   width="64">
  <defs
     id="defs4019">
    <linearGradient
       id="linearGradient2867-449-88-871-390-598-476-591-434-148-57-177-8">
      <stop
         id="stop3750-1"
         style="stop-color:#90dbec;stop-opacity:1;"
         offset="0" />
      <stop
         id="stop3752-3"
         style="stop-color:#55c1ec;stop-opacity:1;"
         offset="0.26238" />
      <stop
         id="stop3754-1"
         style="stop-color:#3689e6;stop-opacity:1;"
         offset="0.704952" />
      <stop
         id="stop3756-1"
         style="stop-color:#2b63a0;stop-opacity:1;"
         offset="1" />
    </linearGradient>
    <linearGradient
       id="linearGradient3707-319-631-407-324-3">
      <stop
         id="stop3760-4"
         style="stop-color:#185f9a;stop-opacity:1;"
         offset="0" />
      <stop
         id="stop3762-0"
         style="stop-color:#599ec9;stop-opacity:1;"
         offset="1" />
    </linearGradient>
    <linearGradient
       id="linearGradient3104-5-3">
      <stop
         offset="0"
         style="stop-color:#aaaaaa;stop-opacity:1"
         id="stop3106-2-94" />
      <stop
         offset="1"
         style="stop-color:#c8c8c8;stop-opacity:1"
         id="stop3108-5-9" />
    </linearGradient>
    <linearGradient
       xlink:href="#linearGradient3104-5-3"
       id="linearGradient3030-0"
       gradientUnits="userSpaceOnUse"
       gradientTransform="matrix(1.2586111,0,0,1,-13.884583,985.31513)"
       x1="22.004084"
       y1="47.813133"
       x2="22.004084"
       y2="3.3638515" />
    <linearGradient
       y2="3.3638515"
       x2="22.004084"
       y1="47.813133"
       x1="22.004084"
       gradientTransform="matrix(1.2586111,0,0,1,-13.884582,985.31513)"
       gradientUnits="userSpaceOnUse"
       id="linearGradient3052-4"
       xlink:href="#linearGradient3104-5-3" />
    <radialGradient
       r="12.671875"
       fy="9.9571075"
       fx="7.2758255"
       cy="9.9571075"
       cx="7.8060555"
       gradientTransform="matrix(-1.6167311e-7,6.6018653,-8.0922115,-1.9817023e-7,104.56429,-60.07292)"
       gradientUnits="userSpaceOnUse"
       id="radialGradient3087-4"
       xlink:href="#linearGradient2867-449-88-871-390-598-476-591-434-148-57-177-8" />
    <linearGradient
       y2="0.91790956"
       x2="25"
       y1="47.935162"
       x1="25"
       gradientTransform="translate(6e-7,-4.1959294e-4)"
       gradientUnits="userSpaceOnUse"
       id="linearGradient3089-3"
       xlink:href="#linearGradient3707-319-631-407-324-3" />
    <linearGradient
       gradientTransform="matrix(1.0843523,0,0,1.1997367,79.550862,-4.1628601)"
       gradientUnits="userSpaceOnUse"
       xlink:href="#linearGradient3104-6"
       id="linearGradient3033"
       y2="2.9062471"
       x2="-51.786404"
       y1="50.786446"
       x1="-51.786404" />
    <linearGradient
       id="linearGradient3104-6">
      <stop
         offset="0"
         style="stop-color:#000000;stop-opacity:0.31782946"
         id="stop3106-3" />
      <stop
         offset="1"
         style="stop-color:#000000;stop-opacity:0.24031007"
         id="stop3108-9" />
    </linearGradient>
  </defs>
  <metadata
     id="metadata4022">
    <rdf:RDF>
      <cc:Work
         rdf:about="">
        <dc:format>image/svg+xml</dc:format>
        <dc:type
           rdf:resource="http://purl.org/dc/dcmitype/StillImage" />
        <dc:title />
      </cc:Work>
    </rdf:RDF>
  </metadata>
  <path
     d="m 9,0.9998799 c 10.540935,0 45.999945,0.004 45.999945,0.004 L 55,59.00002 c 0,0 -30.666666,0 -46,0 0,-19.3334 0,-38.6665 0,-57.9998201 z"
     id="path4160-6-5"
     style="display:inline;fill:#fafafa;fill-opacity:1;stroke:none" />
  <path
     d="m 8.4999684,0.4998999 c 10.7700936,0 47.0000286,0.004 47.0000286,0.004 l 4.9e-5,58.9962201 c 0,0 -31.333384,0 -47.0000776,0 0,-19.6668 0,-39.3334 0,-58.9999701 z"
     id="path4160-6-1"
     style="display:inline;fill:none;stroke:url(#linearGradient3033);stroke-width:0.9999218;stroke-linecap:butt;stroke-linejoin:round;stroke-miterlimit:4;stroke-dasharray:none;stroke-dashoffset:0;stroke-opacity:1" />
  <path
     d="m 15,59.50002 c -3.613947,-0.07 -6.2230518,0.142 -6.3745132,0 -0.1514614,-0.142 -0.1769312,-1.2347 -0.1769312,-3.1871 0,-18.5095 0,-37.0187 0,-55.52822959 l 0.1175462,-0.21777 0.085934,-0.12092 0,0.054 c 1.8259352,0 4.4504652,0 6.2763922,0"
     id="path4530"
     style="color:#000000;display:inline;overflow:visible;visibility:visible;fill:url(#radialGradient3087-4);fill-opacity:1;fill-rule:nonzero;stroke:url(#linearGradient3089-3);stroke-width:1;stroke-linecap:butt;stroke-linejoin:round;stroke-miterlimit:4;stroke-dasharray:none;stroke-dashoffset:0;stroke-opacity:1;marker:none;enable-background:accumulate" />
  <g
     id="g3027"
     transform="matrix(0.79452662,0,0,1,9.0495748,-988.3622)">
    <path
       style="fill:none;stroke:url(#linearGradient3030-0);stroke-width:1.12187839px;stroke-linecap:butt;stroke-linejoin:miter;stroke-opacity:1"
       id="path3475-4"
       d="m 13.625,997.86239 3.43907,0 z m 3.943467,0 3.209799,0 z m 3.714196,0 2.842964,0 z m 3.301507,0 1.238066,0 z m 1.742462,0 2.751256,0 z m 3.301507,0 7.244975,0 z m 7.703518,0 5.548367,0 z m 6.006909,0 1.696609,0 z m -29.713566,2 5.364949,0 z m 5.961054,0 2.56784,0 z m 3.026382,0 1.283919,0 z m 1.788316,0 2.338569,0 z m 2.842966,0 2.384421,0 z m 2.842964,0 3.805905,0 z m 4.310302,0 4.952261,0 z m 5.410803,0 3.301507,0 z m 3.760051,0 0.825377,0 z m -29.942838,1.98431 4.539572,0 z m 4.998115,0 7.428391,0 z m 7.886934,0 3.622487,0 z m 4.08103,0 3.393216,0 z m 3.851759,0 2.888819,0 z m 3.347362,0 4.539572,0.031 z m 4.952261,0.031 7.382538,0 z m -29.117461,1.9845 6.282034,0 z m 6.786431,0 6.786432,0 z m 7.244975,0 2.705402,0 z m 3.163945,0 6.373743,0 z m 6.786431,0 4.356156,0 z m 4.860553,0 1.742462,0 z m 2.201005,0 0.962939,0 z m 1.467336,0 2.705403,0 z m -32.510676,2 2.338567,0 z m 3.072236,0 8.666456,0 z m -3.072236,3.9844 4.539572,0 z m 4.998115,0 7.428391,0 z m 7.886934,0 3.622487,0 z m 4.08103,0 3.393216,0 z m 3.851759,0 2.888819,0 z m 3.347362,0 4.539572,0.031 z m 4.952261,0.031 7.382538,0 z m -29.117461,1.9846 3.43907,0 z m 3.943467,0 3.163945,0 z m 3.714196,0 2.842964,0 z m 3.301507,0 1.238066,0 z m 1.742462,0 2.751256,0 z m 3.301507,0 7.199121,0 z m 7.703518,0 5.502512,0 z m 5.961055,0 1.742463,0 z m 2.201005,0 4.126885,0 z m -31.868717,2 5.777637,0 z m 6.23618,0 6.190326,0 z m 6.648869,0 2.384423,0 z m 2.842965,0 5.823492,0 z m 6.282035,0 7.336683,0 z m 7.84108,0 2.705402,0 z m -29.851129,2 6.282034,0 z m 6.786431,0 6.786432,0 z m 7.244975,0 2.705402,0 z m 3.163945,0 6.373743,0 z m 6.786431,0 4.356156,0 z m 4.860553,0 1.742462,0 z m 2.201005,0 0.962939,0 z m 1.467336,0 2.705403,0 z m -32.510676,2 5.364949,0 z m 5.961054,0 2.56784,0 z m 3.026382,0 1.283919,0 z m 1.788316,0 2.338569,0 z m 2.842966,0 2.384421,0 z m 2.842964,0 3.805905,0 z m 4.310302,0 4.952261,0 z m 5.410803,0 3.301507,0 z m 3.760051,0 0.825377,0 z m -29.942838,3.9844 4.539572,0 z m 4.998115,0 7.428391,0 z m 7.886934,0 3.622487,0 z m 4.08103,0 3.393216,0 z m 3.851759,0 2.888819,0 z m 3.347362,0 4.539572,0.031 z m 4.952261,0.031 7.382538,0 z m -29.117461,1.9846 5.364949,0 z m 5.961054,0 2.56784,0 z m 3.026382,0 1.283919,0 z m 1.788316,0 2.338569,0 z m 2.842966,0 2.384421,0 z m 2.842964,0 3.805905,0 z m 4.310302,0 4.952261,0 z m 5.410803,0 3.301507,0 z m 3.760051,0 0.825377,0 z m -29.942838,2 5.685928,0 z m 6.190325,0 1.788317,0 z m 2.24686,0 4.08103,0 z m 4.539573,0 6.006909,0 z m 6.511306,0 4.08103,0 z m 4.493718,0 0.871232,0 z m 1.329775,0 5.181531,0 z m 5.731783,0 2.705402,0 z m -31.04334,2 5.685928,0 z m 6.190325,0 2.567839,0 z m 3.026382,0 4.035176,0 z m 4.493719,0 4.356156,0 z m 4.860553,0 1.742462,0 z m 2.201005,0 0.96294,0 z m 1.467336,0 2.705402,0 z" />
    <path
       style="fill:none;stroke:url(#linearGradient3052-4);stroke-width:1.12187839px;stroke-linecap:butt;stroke-linejoin:miter;stroke-opacity:1"
       id="path3475-2-1"
       d="m 13.625,1031.8624 3.43907,0 z m 3.943467,0 3.209799,0 z m 3.714196,0 2.842964,0 z m 3.301507,0 1.238066,0 z m 1.742462,0 2.751256,0 z m 3.301507,0 7.244975,0 z m 7.703518,0 5.548367,0 z m 6.006909,0 1.696609,0 z m -29.713566,1.9843 4.539572,0 z m 4.998115,0 7.428391,0 z m 7.886934,0 3.622487,0 z m 4.08103,0 3.393216,0 z m 3.851759,0 2.888819,0 z m 3.347362,0 4.539572,0.031 z m 4.952261,0.031 7.382538,0 z m -29.117461,1.9845 6.282034,0 z m 6.786431,0 6.786432,0 z m 7.244975,0 2.705402,0 z m 3.163945,0 6.373743,0 z m 6.786431,0 4.356156,0 z m 4.860553,0 1.742462,0 z m 2.201005,0 0.962939,0 z m 1.467336,0 2.705403,0 z m -32.510676,2 2.338567,0 z m 3.072236,0 8.666456,0 z m -3.072236,0 5.777637,0 z m 6.23618,0 6.190326,0 z m 6.648869,0 2.384423,0 z m 2.842965,0 5.823492,0 z m 6.282035,0 7.336683,0 z m 7.84108,0 2.705402,0 z" />
  </g>
  <path
     style="display:inline;overflow:visible;visibility:visible;opacity:0.8;fill:#e9e9e9;fill-opacity:1;fill-rule:evenodd;stroke:#83899a;stroke-width:1px;stroke-linecap:butt;stroke-linejoin:miter;stroke-miterlimit:4;stroke-dasharray:none;stroke-dashoffset:0;stroke-opacity:1;marker:none;enable-background:accumulate"
     id="path2993"
     d="m 55.500104,19.5 -39.999997,40 39.999997,0 z m -8,18.6666 0,13.3334 -13.499999,0 z" />
</svg>
