<?xml version="1.0" encoding="UTF-8" standalone="no"?>
<svg
   xmlns:dc="http://purl.org/dc/elements/1.1/"
   xmlns:cc="http://creativecommons.org/ns#"
   xmlns:rdf="http://www.w3.org/1999/02/22-rdf-syntax-ns#"
   xmlns:svg="http://www.w3.org/2000/svg"
   xmlns="http://www.w3.org/2000/svg"
   xmlns:xlink="http://www.w3.org/1999/xlink"
   version="1.1"
   width="64"
   height="64"
   id="svg4954">
  <defs
     id="defs4956">
    <linearGradient
       id="linearGradient3104-9-7-3-9-2-6-2">
      <stop
         id="stop3106-1-5-9-3-1-7-1"
         style="stop-color:#aaaaaa;stop-opacity:1"
         offset="0" />
      <stop
         id="stop3108-1-5-5-7-2-4-5"
         style="stop-color:#c8c8c8;stop-opacity:1"
         offset="1" />
    </linearGradient>
    <linearGradient
       id="linearGradient3104-9-7-3-9-6">
      <stop
         id="stop3106-1-5-9-3-2"
         style="stop-color:#aaaaaa;stop-opacity:1"
         offset="0" />
      <stop
         id="stop3108-1-5-5-7-4"
         style="stop-color:#c8c8c8;stop-opacity:1"
         offset="1" />
    </linearGradient>
    <linearGradient
       id="linearGradient3104-5">
      <stop
         id="stop3106-9"
         style="stop-color:#aaaaaa;stop-opacity:1"
         offset="0" />
      <stop
         id="stop3108-9"
         style="stop-color:#c8c8c8;stop-opacity:1"
         offset="1" />
    </linearGradient>
    <linearGradient
       x1="22.004084"
       y1="63.217903"
       x2="22.004084"
       y2="25.646791"
       id="linearGradient3091"
       xlink:href="#linearGradient3104-5"
       gradientUnits="userSpaceOnUse"
       gradientTransform="matrix(1.3394176,0,0,-1.9826305,-4.354333,114.86293)" />
    <linearGradient
       xlink:href="#linearGradient3104-9-7-3-9-6"
       id="linearGradient3933"
       gradientUnits="userSpaceOnUse"
       gradientTransform="matrix(1.6415049,0,0,1.0491448,111.08489,3.2219516)"
       x1="-51.786404"
       y1="41.797989"
       x2="-51.786404"
       y2="17.555471" />
    <linearGradient
       xlink:href="#linearGradient3104-9-7-3-9-2-6-2"
       id="linearGradient3941"
       gradientUnits="userSpaceOnUse"
       gradientTransform="matrix(2.1679425,0,0,0.14374353,136.33503,10.639005)"
       x1="-51.786404"
       y1="41.797989"
       x2="-51.786404"
       y2="17.555471" />
    <linearGradient
       xlink:href="#linearGradient3104-5"
       id="linearGradient3968"
       gradientUnits="userSpaceOnUse"
       gradientTransform="matrix(1.3394176,0,0,-1.9826305,-4.354333,130.86293)"
       x1="22.004084"
       y1="63.217903"
       x2="22.004084"
       y2="25.646791" />
    <linearGradient
       xlink:href="#linearGradient3104-5"
       id="linearGradient4180"
       gradientUnits="userSpaceOnUse"
       gradientTransform="matrix(1.3394176,0,0,-1.9826305,6.833167,114.86293)"
       x1="22.004084"
       y1="63.217903"
       x2="22.004084"
       y2="25.646791" />
    <linearGradient
       xlink:href="#linearGradient3104-5"
       id="linearGradient4185"
       gradientUnits="userSpaceOnUse"
       gradientTransform="matrix(1.3394176,0,0,1.9826305,7.645667,-29.862932)"
       x1="22.004084"
       y1="63.217903"
       x2="22.004084"
       y2="25.646791" />
    <linearGradient
       id="linearGradient2867-449-88-871-390-598-476-591-434-148-57-177-8-3-3-6-4-8-8-8">
      <stop
         offset="0"
         style="stop-color:#ffcd7d;stop-opacity:1"
         id="stop3750-1-0-7-6-6-1-3-9" />
      <stop
         offset="0.26238"
         style="stop-color:#fc8f36;stop-opacity:1"
         id="stop3752-3-7-4-0-32-8-923-0" />
      <stop
         offset="0.704952"
         style="stop-color:#e23a0e;stop-opacity:1"
         id="stop3754-1-8-5-2-7-6-7-1" />
      <stop
         offset="1"
         style="stop-color:#ac441f;stop-opacity:1"
         id="stop3756-1-6-2-6-6-1-96-6" />
    </linearGradient>
    <radialGradient
       r="12.671875"
       fy="9.9571075"
       fx="6.2001843"
       cy="9.9571075"
       cx="6.7304144"
       gradientTransform="matrix(0,10.228133,-12.55688,0,151.01469,-75.173359)"
       gradientUnits="userSpaceOnUse"
       id="radialGradient4173-5"
       xlink:href="#linearGradient2867-449-88-871-390-598-476-591-434-148-57-177-8-3-3-6-4-8-8-8-2-8" />
    <linearGradient
       id="linearGradient2867-449-88-871-390-598-476-591-434-148-57-177-8-3-3-6-4-8-8-8-2-8">
      <stop
         offset="0"
         style="stop-color:#ffcd7d;stop-opacity:1"
         id="stop3750-1-0-7-6-6-1-3-9-9-0" />
      <stop
         offset="0.26238"
         style="stop-color:#fc8f36;stop-opacity:1"
         id="stop3752-3-7-4-0-32-8-923-0-7-8" />
      <stop
         offset="0.704952"
         style="stop-color:#e23a0e;stop-opacity:1"
         id="stop3754-1-8-5-2-7-6-7-1-8-0" />
      <stop
         offset="1"
         style="stop-color:#ac441f;stop-opacity:1"
         id="stop3756-1-6-2-6-6-1-96-6-1-1" />
    </linearGradient>
    <linearGradient
       id="linearGradient3104-6-6-1">
      <stop
         offset="0"
         style="stop-color:#000000;stop-opacity:0.31782946"
         id="stop3106-3-2" />
      <stop
         offset="1"
         style="stop-color:#000000;stop-opacity:0.24031007"
         id="stop3108-9-8-3" />
    </linearGradient>
    <linearGradient
       y2="2.9062471"
       x2="-51.786404"
       y1="50.786446"
       x1="-51.786404"
       gradientTransform="matrix(1.3150653,0,0,0.83371382,89.668048,15.259733)"
       gradientUnits="userSpaceOnUse"
       id="linearGradient4420"
       xlink:href="#linearGradient3104-6-6-1" />
    <radialGradient
       cx="6.5633106"
       cy="9.9571075"
       r="12.671875"
       fx="6.0330806"
       fy="9.9571075"
       id="radialGradient3029"
       xlink:href="#linearGradient2867-449-88-871-390-598-476-591-434-148-57-177-8-3-3-6-4-8-8-8"
       gradientUnits="userSpaceOnUse"
       gradientTransform="matrix(0,10.035098,-12.319893,0,154.65609,-83.287144)" />
    <radialGradient
       xlink:href="#linearGradient2867-449-88-871-390-598-476-591-434-148-57-177-8-3-3-6-4-8-8-8"
       id="radialGradient4232"
       gradientUnits="userSpaceOnUse"
       gradientTransform="matrix(0,10.035098,-12.319893,0,154.65609,-83.316052)"
       cx="6.5633106"
       cy="9.9571075"
       fx="6.0330806"
       fy="9.9571075"
       r="12.671875" />
    <radialGradient
       xlink:href="#linearGradient2867-449-88-871-390-598-476-591-434-148-57-177-8-3-3-6-4-8-8-8"
       id="radialGradient4234"
       gradientUnits="userSpaceOnUse"
       gradientTransform="matrix(0,10.035098,-12.319893,0,154.65609,-83.316805)"
       cx="6.5633106"
       cy="9.9571075"
       fx="6.0330806"
       fy="9.9571075"
       r="12.671875" />
  </defs>
  <metadata
     id="metadata4959">
    <rdf:RDF>
      <cc:Work
         rdf:about="">
        <dc:format>image/svg+xml</dc:format>
        <dc:type
           rdf:resource="http://purl.org/dc/dcmitype/StillImage" />
        <dc:title />
      </cc:Work>
    </rdf:RDF>
  </metadata>
  <path
     style="color:#000000;display:inline;overflow:visible;visibility:visible;opacity:0.5;fill:#fafafa;fill-opacity:1;fill-rule:nonzero;stroke:url(#linearGradient3941);stroke-width:0.99992168;stroke-linecap:butt;stroke-linejoin:round;stroke-miterlimit:4;stroke-dashoffset:0;stroke-opacity:1;marker:none;enable-background:accumulate"
     id="rect4964-4-4"
     d="m 14.499961,12.499961 35.000079,0 0,11.000039 -35.000079,0 z" />
  <path
     style="color:#000000;display:inline;overflow:visible;visibility:visible;opacity:0.75;fill:#fafafa;fill-opacity:1;fill-rule:nonzero;stroke:url(#linearGradient3933);stroke-width:0.99992186;stroke-linecap:butt;stroke-linejoin:round;stroke-miterlimit:4;stroke-dashoffset:0;stroke-opacity:1;marker:none;enable-background:accumulate"
     id="rect4964-4"
     d="M 8.499961,15.499961 55.50004,15.5 l 0,30 L 8.5,45.5 Z" />
  <rect
     width="51"
     height="40"
     x="9"
     y="19"
     id="rect4964"
     style="color:#000000;display:inline;overflow:visible;visibility:visible;fill:#fafafa;fill-opacity:1;fill-rule:nonzero;stroke:none;stroke-width:0.99992186;marker:none;enable-background:accumulate" />
  <path
     style="color:#000000;display:inline;overflow:visible;visibility:visible;fill:url(#radialGradient4173-5);fill-opacity:1;fill-rule:nonzero;stroke:none;stroke-width:0.99999994;marker:none;enable-background:accumulate"
     id="path4530"
     d="m 9,59.5 -5.5,0 c 0,-13.126119 0,-39.735582 0,-41 1.2542902,0 3.9373045,-3e-6 5.5,-3e-6" />
  <path
     style="color:#000000;display:inline;overflow:visible;visibility:visible;opacity:0.4;fill:none;stroke:#640000;stroke-width:1;stroke-linecap:butt;stroke-linejoin:round;stroke-miterlimit:4;stroke-dasharray:none;stroke-dashoffset:0;stroke-opacity:1;marker:none;enable-background:accumulate"
     id="path4530-3"
     d="m 9,59.5 -5.5,0 c 0,-1.5 0.00828,-27.437181 0,-41 l 5.5,-3e-6" />
  <path
     style="display:inline;fill:none;stroke:url(#linearGradient4420);stroke-width:0.9999218;stroke-linecap:butt;stroke-linejoin:round;stroke-miterlimit:4;stroke-dasharray:none;stroke-dashoffset:0;stroke-opacity:1"
     d="m 9,59.5 51.5,0 0,-41 -51.5,0"
     id="path4160-6-1" />
  <path
     d="m 14,44.999999 0,-1 2,0 0,1 z m 3,0 0,-1 6,0 0,1 z m -3,-4 0,-1 3,0 0,1 z m 4,0 0,-1 2,0 0,1 z m 3,0 0,-1 1,0 0,1 z m 2,0 0,-1 1,0 0,1 z m -9,-4 0,-1 3,0 0,1 z m 4,0 0,-1 1,0 0,1 z m 2,0 0,-1 4,0 0,1 z m -6,-4 0,-1 3,0 0,1 z m 4,0 0,-1 2,0 0,1 z m 3,0 0,-1 4,0 0,1 z"
     id="path3475-4"
     style="color:#000000;font-style:normal;font-variant:normal;font-weight:normal;font-stretch:normal;font-size:medium;line-height:normal;font-family:Sans;-inkscape-font-specification:Sans;text-indent:0;text-align:start;text-decoration:none;text-decoration-line:none;letter-spacing:normal;word-spacing:normal;text-transform:none;direction:ltr;block-progression:tb;writing-mode:lr-tb;baseline-shift:baseline;text-anchor:start;display:inline;overflow:visible;visibility:visible;fill:url(#linearGradient3091);fill-opacity:1;stroke:none;stroke-width:0.99999994px;marker:none;enable-background:accumulate" />
  <path
     id="path3925"
     style="color:#000000;font-style:normal;font-variant:normal;font-weight:normal;font-stretch:normal;font-size:medium;line-height:normal;font-family:Sans;-inkscape-font-specification:Sans;text-indent:0;text-align:start;text-decoration:none;text-decoration-line:none;letter-spacing:normal;word-spacing:normal;text-transform:none;direction:ltr;block-progression:tb;writing-mode:lr-tb;baseline-shift:baseline;text-anchor:start;display:inline;overflow:visible;visibility:visible;opacity:0.28000004;fill:#000000;fill-opacity:1;stroke:none;stroke-width:1px;marker:none;enable-background:accumulate"
     d="m 37,23 0,1 0.984375,-1e-6 0,-1 z m 1.640625,-1e-6 0,1 2.640625,0 0,-1 z m 3.359375,0 0,1 3,1e-6 0,-1 z m -19.75,0 0,1 5.734375,0 0,-1 z m 6.390625,0 0,1 2.640625,0 0,-1 z m 3.359375,0 0,1 3.75,0 0,-1 z" />
  <path
     style="color:#000000;font-style:normal;font-variant:normal;font-weight:normal;font-stretch:normal;font-size:medium;line-height:normal;font-family:Sans;-inkscape-font-specification:Sans;text-indent:0;text-align:start;text-decoration:none;text-decoration-line:none;letter-spacing:normal;word-spacing:normal;text-transform:none;direction:ltr;block-progression:tb;writing-mode:lr-tb;baseline-shift:baseline;text-anchor:start;display:inline;overflow:visible;visibility:visible;fill:url(#linearGradient3968);fill-opacity:1;stroke:none;stroke-width:0.99999994px;marker:none;enable-background:accumulate"
     id="path3966"
     d="m 14,52.999999 0,-1 3,0 0,1 z m 4,0 0,-1 1,0 0,1 z m 2,0 0,-1 4,0 0,1 z m -6,-4 0,-1 3,0 0,1 z m 4,0 0,-1 2,0 0,1 z m 3,0 0,-1 3,0 0,1 z" />
  <path
     style="color:#000000;font-style:normal;font-variant:normal;font-weight:normal;font-stretch:normal;font-size:medium;line-height:normal;font-family:Sans;-inkscape-font-specification:Sans;text-indent:0;text-align:start;text-decoration:none;text-decoration-line:none;letter-spacing:normal;word-spacing:normal;text-transform:none;direction:ltr;block-progression:tb;writing-mode:lr-tb;baseline-shift:baseline;text-anchor:start;display:inline;overflow:visible;visibility:visible;fill:url(#linearGradient4180);fill-opacity:1;stroke:none;stroke-width:0.99999994px;marker:none;enable-background:accumulate"
     id="path4178"
     d="m 25,45 0,-1 2,0 0,1 z m 0,-4 0,-1 3,0 0,1 z m 0,-4 0,-1 2,0 0,1 z m 1,-4 0,-1 2,0 0,1 z" />
  <path
     d="m 25,48 0,1 3,0 0,-1 z m 4,0 0,1 2,0 0,-1 z m -4,4 0,1 3,0 0,-1 z m 4,0 0,1 2,0 0,-1 z m 3,0 0,1 3,0 0,-1 z"
     id="path4183"
     style="color:#000000;font-style:normal;font-variant:normal;font-weight:normal;font-stretch:normal;font-size:medium;line-height:normal;font-family:Sans;-inkscape-font-specification:Sans;text-indent:0;text-align:start;text-decoration:none;text-decoration-line:none;letter-spacing:normal;word-spacing:normal;text-transform:none;direction:ltr;block-progression:tb;writing-mode:lr-tb;baseline-shift:baseline;text-anchor:start;display:inline;overflow:visible;visibility:visible;fill:url(#linearGradient4185);fill-opacity:1;stroke:none;stroke-width:0.99999994px;marker:none;enable-background:accumulate" />
  <path
     style="color:#000000;clip-rule:nonzero;display:inline;overflow:visible;visibility:visible;opacity:0.4;isolation:auto;mix-blend-mode:normal;color-interpolation:sRGB;color-interpolation-filters:linearRGB;solid-color:#000000;solid-opacity:1;fill:url(#radialGradient4232);fill-opacity:1;fill-rule:nonzero;stroke:none;stroke-width:0.99999994;stroke-linecap:butt;stroke-linejoin:miter;stroke-miterlimit:4;stroke-dasharray:none;stroke-dashoffset:0;stroke-opacity:1;marker:none;color-rendering:auto;image-rendering:auto;shape-rendering:auto;text-rendering:auto;enable-background:accumulate"
     id="path3035"
     d="m 55,41.999998 a 10,10 0 1 1 -5.289881,-8.821267 l -4.710118,8.821267 z" />
  <path
     d="m 55,42.028906 c 10e-7,4.335689 -3.153395,8.480681 -7.331593,9.637301 -4.178198,1.15662 -9.013426,-0.776912 -11.243199,-4.495223 -0.01769,0.01604 8.574793,-5.142078 8.574793,-5.142078 z"
     id="path3964"
     style="color:#000000;clip-rule:nonzero;display:inline;overflow:visible;visibility:visible;opacity:0.4;isolation:auto;mix-blend-mode:normal;color-interpolation:sRGB;color-interpolation-filters:linearRGB;solid-color:#000000;solid-opacity:1;fill:url(#radialGradient3029);fill-opacity:1;fill-rule:nonzero;stroke:none;stroke-width:0.99999994;stroke-linecap:butt;stroke-linejoin:miter;stroke-miterlimit:4;stroke-dasharray:none;stroke-dashoffset:0;stroke-opacity:1;marker:none;color-rendering:auto;image-rendering:auto;shape-rendering:auto;text-rendering:auto;enable-background:accumulate" />
  <path
     d="m 55,41.999245 c 10e-7,4.335689 -3.153395,8.480681 -7.331593,9.637301 -0.09762,-0.01695 -2.668406,-9.637301 -2.668406,-9.637301 z"
     id="path3962"
     style="color:#000000;clip-rule:nonzero;display:inline;overflow:visible;visibility:visible;opacity:0.8;isolation:auto;mix-blend-mode:normal;color-interpolation:sRGB;color-interpolation-filters:linearRGB;solid-color:#000000;solid-opacity:1;fill:url(#radialGradient4234);fill-opacity:1;fill-rule:nonzero;stroke:none;stroke-width:0.99999994;stroke-linecap:butt;stroke-linejoin:miter;stroke-miterlimit:4;stroke-dasharray:none;stroke-dashoffset:0;stroke-opacity:1;marker:none;color-rendering:auto;image-rendering:auto;shape-rendering:auto;text-rendering:auto;enable-background:accumulate" />
</svg>
