<?xml version="1.0" encoding="UTF-8" standalone="no"?>
<svg
   xmlns:dc="http://purl.org/dc/elements/1.1/"
   xmlns:cc="http://creativecommons.org/ns#"
   xmlns:rdf="http://www.w3.org/1999/02/22-rdf-syntax-ns#"
   xmlns:svg="http://www.w3.org/2000/svg"
   xmlns="http://www.w3.org/2000/svg"
   id="svg4223"
   height="64"
   width="64"
   version="1.1">
  <defs
     id="defs4225" />
  <metadata
     id="metadata4228">
    <rdf:RDF>
      <cc:Work
         rdf:about="">
        <dc:format>image/svg+xml</dc:format>
        <dc:type
           rdf:resource="http://purl.org/dc/dcmitype/StillImage" />
        <dc:title />
      </cc:Work>
    </rdf:RDF>
  </metadata>
  <path
     d="M 54.491301,4.1158135 C 54.094555,2.7999377 54.341836,1.7636774 54.122709,0.5086987 l -40.61401,0 0.239708,3.9826026"
     id="path2723"
     style="display:inline;fill:#fafafa;fill-opacity:1;stroke:#343434;stroke-width:1.0173974;stroke-linecap:butt;stroke-linejoin:round;stroke-miterlimit:0;stroke-dasharray:none;stroke-dashoffset:0;stroke-opacity:1" />
  <path
     d="m 15.500349,5.5000001 -5.6000012,0 c -0.7991864,0 -1.3999989,-0.05292 -1.3999989,-0.1219503 l 0,-3.4955487 c 0,-1.10990737 0.7826448,-1.38250119 1.8072521,-1.38250119 l 5.192748,0"
     id="rect5505-21-3-9"
     style="color:#000000;display:inline;overflow:visible;visibility:visible;fill:#fafafa;fill-opacity:1;fill-rule:nonzero;stroke:#343434;stroke-width:0.99999976;stroke-linecap:round;stroke-linejoin:round;stroke-miterlimit:4;stroke-dasharray:none;stroke-dashoffset:0;stroke-opacity:1;marker:none;enable-background:accumulate" />
  <rect
     width="45.980957"
     height="54.980961"
     rx="0.99999994"
     ry="0.99999958"
     x="9.5095205"
     y="4.5095205"
     id="rect2719"
     style="display:inline;fill:#569dd3;fill-opacity:1;stroke:#343434;stroke-width:1.01904094;stroke-linecap:round;stroke-linejoin:round;stroke-miterlimit:0;stroke-dasharray:none;stroke-dashoffset:0;stroke-opacity:1" />
  <path
     d="m 15.5,4.4999787 c 0,0 0,38.2439353 0,54.9999983 l -5.5999998,0 C 9.1008127,59.499977 8.5,58.917847 8.5,58.158512 l 0,-53.6585333 z"
     id="rect5505-21-3"
     style="color:#000000;display:inline;overflow:visible;visibility:visible;fill:#343434;fill-opacity:1;fill-rule:nonzero;stroke:#343434;stroke-width:0.99999982;stroke-linecap:round;stroke-linejoin:round;stroke-miterlimit:4;stroke-dasharray:none;stroke-dashoffset:0;stroke-opacity:1;marker:none;enable-background:accumulate" />
  <path
     d="m 35.420455,17.500116 c -1.299997,-0.272366 -2.517461,1.193598 -3.505498,0.570371 -0.213705,0.979286 -1.274072,0.218069 -1.227457,1.036765 -1.279163,0.995825 -2.113399,2.632325 -2.017563,4.290901 -0.210744,1.303204 0.445798,2.936325 -0.372647,4.009444 -0.255553,1.258839 -0.05097,2.637159 0.378031,3.845195 0.886804,1.34832 2.259506,2.458794 2.567252,4.147263 0.144984,1.567411 -1.547033,2.443895 -2.587228,3.297495 C 27.02661,39.821823 25.296526,40.683817 23.5,41.5 l 0,2.999999 24,0 0,-2.999999 c -2.420445,-1.057263 -4.667249,-2.615033 -6.508321,-4.537908 -1.305402,-1.253835 -0.03939,-3.048231 0.787503,-4.176412 1.095966,-0.92199 1.664537,-2.270818 1.677216,-3.703322 C 43.819885,27.670724 42.725465,26.608143 42.9811,25.175317 42.94643,23.357594 43.21237,21.17302 41.690007,19.84972 39.976248,18.357569 37.66286,17.58389 35.420455,17.500116 Z"
     id="path3899"
     style="color:#000000;display:inline;overflow:visible;visibility:visible;fill:#343434;fill-opacity:1;fill-rule:nonzero;stroke:#343434;stroke-width:0.99999982;stroke-linecap:round;stroke-linejoin:round;stroke-miterlimit:4;stroke-dasharray:none;stroke-dashoffset:0;stroke-opacity:1;marker:none;enable-background:accumulate" />
</svg>
