<?xml version="1.0" encoding="UTF-8" standalone="no"?>
<svg
   xmlns:dc="http://purl.org/dc/elements/1.1/"
   xmlns:cc="http://creativecommons.org/ns#"
   xmlns:rdf="http://www.w3.org/1999/02/22-rdf-syntax-ns#"
   xmlns:svg="http://www.w3.org/2000/svg"
   xmlns="http://www.w3.org/2000/svg"
   xmlns:xlink="http://www.w3.org/1999/xlink"
   version="1.1"
   width="64"
   height="64"
   id="svg6333">
  <defs
     id="defs6335">
    <linearGradient
       id="linearGradient3242-7-3-8-0-4-58-06">
      <stop
         id="stop3244-5-8-5-6-4-3-8"
         style="stop-color:#cdf87e;stop-opacity:1"
         offset="0" />
      <stop
         id="stop3246-9-5-1-5-3-0-7"
         style="stop-color:#a2e34f;stop-opacity:1"
         offset="0.26238" />
      <stop
         id="stop3248-7-2-0-7-5-35-9"
         style="stop-color:#68b723;stop-opacity:1"
         offset="0.66093999" />
      <stop
         id="stop3250-8-2-8-5-6-40-4"
         style="stop-color:#1d7e0d;stop-opacity:1"
         offset="1" />
    </linearGradient>
    <linearGradient
       xlink:href="#linearGradient3242-7-3-8-0-4-58-06"
       id="linearGradient4654"
       x1="24.169817"
       y1="-12.24244"
       x2="24.169817"
       y2="48.933952"
       gradientUnits="userSpaceOnUse" />
  </defs>
  <metadata
     id="metadata6338">
    <rdf:RDF>
      <cc:Work
         rdf:about="">
        <dc:format>image/svg+xml</dc:format>
        <dc:type
           rdf:resource="http://purl.org/dc/dcmitype/StillImage" />
        <dc:title />
      </cc:Work>
    </rdf:RDF>
  </metadata>
  <rect
     width="54"
     height="54"
     rx="2.5"
     ry="2.5"
     x="5"
     y="5"
     id="rect5505-21-3-8-5-2-6"
     style="color:#000000;fill:#fafafa;fill-opacity:1;fill-rule:nonzero;stroke:none;stroke-width:0.99999994;marker:none;visibility:visible;display:inline;overflow:visible;enable-background:accumulate" />
  <path
     style="opacity:0.3;fill:none;stroke:#000000;stroke-width:0.99999994;stroke-miterlimit:4;stroke-dasharray:none"
     d="m 4.5,18 0,38.5 c 0,1.662 1.338,3 3,3 l 49,0 c 1.662,0 3,-1.338 3,-3 l 0,-38.5"
     id="rect4567" />
  <path
     style="color:#000000;fill:url(#linearGradient4654);fill-opacity:1;fill-rule:nonzero;stroke:none;stroke-width:0.99999994000000003;marker:none;visibility:visible;display:inline;overflow:visible;enable-background:accumulate"
     d="m 7.5,4.5 c -1.662,0 -3,1.338 -3,3 l 0,10 55,0 0,-10 c 0,-1.662 -1.338,-3 -3,-3 z"
     id="rect5505-21-3-8-5-2-6-1" />
  <path
     style="opacity:0.4;color:#000000;fill:none;stroke:#126400;stroke-width:1;stroke-linecap:round;stroke-linejoin:miter;stroke-miterlimit:4;stroke-opacity:1;stroke-dasharray:none;stroke-dashoffset:0;marker:none;visibility:visible;display:inline;overflow:visible;enable-background:accumulate"
     d="m 7.5,4.5 c -1.662,0 -3,1.338 -3,3 l 0,10 55,0 0,-10 c 0,-1.662 -1.338,-3 -3,-3 z"
     id="rect5505-21-3-8-9-1-1-7-8" />
  <path
     id="rect4188-6-4-0"
     style="opacity:0.3;fill:none;stroke:#5e553c;stroke-width:1;stroke-miterlimit:4;stroke-opacity:1;stroke-dasharray:none"
     d="m 52.5,44.500408 -41,0 z M 52.469808,25.530905 11.5,25.500408 l 0,26 41,0 z M 52.5,38.5 l -41,0 m 41,-5.999592 -41,0 m 8.027775,-6.94237 -0.05555,25.94237 M 27.510671,25.670962 27.5,51.500408 m 7.994267,-25.919786 0.01147,25.919786 M 43.458576,25.490283 43.5,51.500408" />
  <path
     style="opacity:0.3;color:#000000;fill:#ffffff;fill-opacity:1;fill-rule:nonzero;stroke:none;stroke-width:1.07444978;marker:none;visibility:visible;display:inline;overflow:visible;enable-background:accumulate"
     id="path4682-6"
     d="m 11.464567,11.472441 a 1.1023622,1.0472441 0 1 1 -2.2047246,0 1.1023622,1.0472441 0 1 1 2.2047246,0 z"
     transform="matrix(1.3607143,0,0,1.4323308,-1.6,-4.4323301)" />
  <path
     style="opacity:0.4;color:#000000;fill:#126400;fill-opacity:1;fill-rule:nonzero;stroke:none;stroke-width:1.07444978;marker:none;visibility:visible;display:inline;overflow:visible;enable-background:accumulate"
     id="path4682-6-1"
     d="m 11.464567,11.472441 a 1.1023622,1.0472441 0 1 1 -2.2047246,0 1.1023622,1.0472441 0 1 1 2.2047246,0 z"
     transform="matrix(1.3607143,0,0,1.4323308,-1.6,-5.4323303)" />
  <path
     style="opacity:0.3;color:#000000;fill:#ffffff;fill-opacity:1;fill-rule:nonzero;stroke:none;stroke-width:1.07444978;marker:none;visibility:visible;display:inline;overflow:visible;enable-background:accumulate"
     id="path4682-6-3"
     d="m 11.464567,11.472441 a 1.1023622,1.0472441 0 1 1 -2.2047246,0 1.1023622,1.0472441 0 1 1 2.2047246,0 z"
     transform="matrix(1.3607143,0,0,1.4323308,36.9,-4.4323303)" />
  <path
     style="opacity:0.4;color:#000000;fill:#126400;fill-opacity:1;fill-rule:nonzero;stroke:none;stroke-width:1.07444978;marker:none;visibility:visible;display:inline;overflow:visible;enable-background:accumulate"
     id="path4682-6-1-5"
     d="m 11.464567,11.472441 a 1.1023622,1.0472441 0 1 1 -2.2047246,0 1.1023622,1.0472441 0 1 1 2.2047246,0 z"
     transform="matrix(1.3607143,0,0,1.4323308,36.9,-5.4323303)" />
</svg>
