<?xml version="1.0" encoding="UTF-8" standalone="no"?>
<svg
   xmlns:dc="http://purl.org/dc/elements/1.1/"
   xmlns:cc="http://creativecommons.org/ns#"
   xmlns:rdf="http://www.w3.org/1999/02/22-rdf-syntax-ns#"
   xmlns:svg="http://www.w3.org/2000/svg"
   xmlns="http://www.w3.org/2000/svg"
   id="svg7384"
   height="22"
   width="22"
   version="1.1">
  <defs
     id="defs11" />
  <metadata
     id="metadata90">
    <rdf:RDF>
      <cc:Work
         rdf:about="">
        <dc:format>image/svg+xml</dc:format>
        <dc:type
           rdf:resource="http://purl.org/dc/dcmitype/StillImage" />
        <dc:title>Gnome Symbolic Icon Theme</dc:title>
      </cc:Work>
    </rdf:RDF>
  </metadata>
  <title
     id="title9167">Gnome Symbolic Icon Theme</title>
  <path
     style="opacity:1;fill:#000000;fill-opacity:1;fill-rule:nonzero;stroke:none;stroke-width:0.25;stroke-linecap:butt;stroke-linejoin:miter;stroke-miterlimit:4;stroke-dasharray:none;stroke-opacity:1"
     d="M 15 4 L 15 5 L 15 7 L 12 7 L 11 7 L 11 8 L 11 10 L 8 10 L 7 10 L 7 11 L 7 13 L 4 13 L 3 13 L 3 14 L 3 19 L 3 20 L 4 20 L 7 20 L 8 20 L 20 20 L 20 19 L 20 4 L 19 4 L 16 4 L 15 4 z M 16 5 L 19 5 L 19 19 L 16 19 L 16 5 z M 12 8 L 15 8 L 15 19 L 12 19 L 12 8 z M 8 11 L 11 11 L 11 19 L 8 19 L 8 11 z M 4 14 L 7 14 L 7 19 L 4 19 L 4 14 z "
     id="rect4138" />
  <rect
     style="opacity:1;fill:#9e9e9e;fill-opacity:1;fill-rule:nonzero;stroke:none;stroke-width:0.25;stroke-linecap:butt;stroke-linejoin:miter;stroke-miterlimit:4;stroke-dasharray:none;stroke-opacity:1"
     id="rect4150"
     width="3"
     height="14"
     x="16"
     y="5" />
  <rect
     style="opacity:1;fill:#cccccc;fill-opacity:1;fill-rule:nonzero;stroke:none;stroke-width:0.25;stroke-linecap:butt;stroke-linejoin:miter;stroke-miterlimit:4;stroke-dasharray:none;stroke-opacity:1"
     id="rect4169"
     width="2"
     height="13"
     x="17"
     y="6" />
  <rect
     style="opacity:1;fill:#84a3dc;fill-opacity:1;fill-rule:nonzero;stroke:none;stroke-width:0.25;stroke-linecap:butt;stroke-linejoin:miter;stroke-miterlimit:4;stroke-dasharray:none;stroke-opacity:1"
     id="rect4171"
     width="3"
     height="11"
     x="12"
     y="8" />
  <rect
     style="opacity:1;fill:#84a3dc;fill-opacity:1;fill-rule:nonzero;stroke:none;stroke-width:0.25;stroke-linecap:butt;stroke-linejoin:miter;stroke-miterlimit:4;stroke-dasharray:none;stroke-opacity:1"
     id="rect4173"
     width="3"
     height="8"
     x="8"
     y="11" />
  <rect
     style="opacity:1;fill:#84a3dc;fill-opacity:1;fill-rule:nonzero;stroke:none;stroke-width:0.25;stroke-linecap:butt;stroke-linejoin:miter;stroke-miterlimit:4;stroke-dasharray:none;stroke-opacity:1"
     id="rect4175"
     width="3"
     height="5"
     x="4"
     y="14" />
  <rect
     style="opacity:1;fill:#4169ab;fill-opacity:1;fill-rule:nonzero;stroke:none;stroke-width:0.25;stroke-linecap:butt;stroke-linejoin:miter;stroke-miterlimit:4;stroke-dasharray:none;stroke-opacity:1"
     id="rect4144"
     width="2"
     height="7"
     x="9"
     y="12" />
  <rect
     style="opacity:1;fill:#4169ab;fill-opacity:1;fill-rule:nonzero;stroke:none;stroke-width:0.25;stroke-linecap:butt;stroke-linejoin:miter;stroke-miterlimit:4;stroke-dasharray:none;stroke-opacity:1"
     id="rect4146"
     width="2"
     height="10"
     x="13"
     y="9" />
  <rect
     style="opacity:1;fill:#4169ab;fill-opacity:1;fill-rule:nonzero;stroke:none;stroke-width:0.25;stroke-linecap:butt;stroke-linejoin:miter;stroke-miterlimit:4;stroke-dasharray:none;stroke-opacity:1"
     id="rect4148"
     width="2"
     height="4"
     x="5"
     y="15" />
</svg>
