<?xml version="1.0" encoding="UTF-8" standalone="no"?>
<svg
   xmlns:dc="http://purl.org/dc/elements/1.1/"
   xmlns:cc="http://creativecommons.org/ns#"
   xmlns:rdf="http://www.w3.org/1999/02/22-rdf-syntax-ns#"
   xmlns:svg="http://www.w3.org/2000/svg"
   xmlns="http://www.w3.org/2000/svg"
   xmlns:xlink="http://www.w3.org/1999/xlink"
   id="svg3172"
   height="128"
   width="128"
   version="1.1">
  <defs
     id="defs3174">
    <linearGradient
       id="linearGradient3104-6">
      <stop
         offset="0"
         style="stop-color:#000000;stop-opacity:0.31782946"
         id="stop3106-3" />
      <stop
         offset="1"
         style="stop-color:#000000;stop-opacity:0.24031007"
         id="stop3108-9" />
    </linearGradient>
    <linearGradient
       gradientTransform="matrix(2.1456297,0,0,2.3791292,158.08983,-7.746467)"
       gradientUnits="userSpaceOnUse"
       xlink:href="#linearGradient3104-6"
       id="linearGradient3148"
       y2="2.9062471"
       x2="-51.786404"
       y1="50.786446"
       x1="-51.786404" />
  </defs>
  <metadata
     id="metadata3177">
    <rdf:RDF>
      <cc:Work
         rdf:about="">
        <dc:format>image/svg+xml</dc:format>
        <dc:type
           rdf:resource="http://purl.org/dc/dcmitype/StillImage" />
        <dc:title />
      </cc:Work>
    </rdf:RDF>
  </metadata>
  <path
     style="fill:#fafafa;fill-opacity:1;stroke:none;display:inline"
     id="path4160"
     d="m 18,2.0004471 c 21.081878,0 91.99989,0.00694 91.99989,0.00694 L 110,118 c 0,0 -61.333339,0 -91.999999,0 0,-38.666669 0,-77.333335 0,-116 z" />
  <path
     style="fill:none;stroke:url(#linearGradient3148);stroke-width:0.99999994;stroke-linecap:butt;stroke-linejoin:round;stroke-miterlimit:4;stroke-opacity:1;stroke-dasharray:none;stroke-dashoffset:0;display:inline"
     id="path4160-6-1"
     d="m 17.500001,1.499985 c 21.311001,0 92.999899,0.008 92.999899,0.008 l 1e-4,116.992025 c 0,0 -61.999997,0 -92.999999,0 0,-39.000101 0,-77.999812 0,-116.999461 z" />
  <path
     id="path4226-1-8"
     d="m 47.6232,71.24513 c -0.5118,0.9192 -0.9191,2.30222 -0.9191,3.17368 0,0.2023 0,0.45962 0.05,0.81658 L 40.3572,64.23401 c -0.2048,-0.35696 -0.3573,-0.86908 -0.3573,-1.33048 0,-0.462 0.1526,-1.02362 0.3573,-1.3812 l 3.071,-5.3732 -3.4283,-1.94292 11.156,-0.20652 5.4233,9.77292 -3.4783,-1.9954 z m 4.9137,-32.20871 c 0.9715,-1.6904 2.5592,-2.61143 4.5021,-2.61143 2.0995,0 3.7374,0.97352 4.9136,2.96655 l 1.7402,2.91642 -6.0397,11.64161 -9.7729,-6.88083 z m 0.7144,41.06059 c -2.9164,0 -5.321,-2.4049 -5.321,-5.32126 0,-0.81896 0.3593,-2.2019 0.8711,-3.07099 l 1.6358,-2.91642 12.1295,0 0,11.30874 -9.3154,0 z m 9.725,-41.36979 c -0.7668,-1.32871 -1.7904,-2.25211 -3.0188,-2.76423 l 12.5869,0 c 1.126,0 1.9951,0.462 2.5091,1.33284 l 3.1212,5.32126 3.3763,-1.99723 -5.4258,9.72455 -11.1017,-0.1564 3.4283,-1.9429 z M 82.372,68.89095 c 1.5334,0 2.814,-0.40945 3.8879,-1.22664 l -6.3468,11.05144 c -0.5118,0.86905 -1.4316,1.41704 -2.5051,1.3812 l -5.9896,0 0,3.94006 -5.7305,-9.56816 5.7305,-9.5706 0,3.99262 10.9536,0 z m 4.9094,-9.2112 c 0.4617,0.81896 0.7187,1.68801 0.7187,2.60957 0,1.84261 -1.1783,3.78727 -2.8141,4.70654 -0.7687,0.41188 -1.8466,0.73182 -2.9164,0.66853 l -3.3802,0 -6.0358,-10.44144 9.7732,-5.57796 z"
     style="fill:#3a9104;fill-opacity:1" />
</svg>
