<?xml version="1.0" encoding="UTF-8" standalone="no"?>
<svg
   xmlns:dc="http://purl.org/dc/elements/1.1/"
   xmlns:cc="http://creativecommons.org/ns#"
   xmlns:rdf="http://www.w3.org/1999/02/22-rdf-syntax-ns#"
   xmlns:svg="http://www.w3.org/2000/svg"
   xmlns="http://www.w3.org/2000/svg"
   xmlns:xlink="http://www.w3.org/1999/xlink"
   xmlns:sodipodi="http://sodipodi.sourceforge.net/DTD/sodipodi-0.dtd"
   xmlns:inkscape="http://www.inkscape.org/namespaces/inkscape"
   version="1.1"
   width="128"
   height="128"
   id="svg4379"
   sodipodi:docname="1-128.svg"
   inkscape:version="0.92.3 (2405546, 2018-03-11)">
  <sodipodi:namedview
     pagecolor="#ffffff"
     bordercolor="#666666"
     borderopacity="1"
     objecttolerance="10"
     gridtolerance="10"
     guidetolerance="10"
     inkscape:pageopacity="0"
     inkscape:pageshadow="2"
     inkscape:window-width="1920"
     inkscape:window-height="1145"
     id="namedview14"
     showgrid="false"
     inkscape:zoom="1.84375"
     inkscape:cx="64"
     inkscape:cy="64"
     inkscape:window-x="0"
     inkscape:window-y="0"
     inkscape:window-maximized="1"
     inkscape:current-layer="svg4379" />
  <defs
     id="defs4381">
    <linearGradient
       x1="76.523361"
       y1="-9.023138"
       x2="76.523361"
       y2="3.4508991"
       id="linearGradient3149"
       xlink:href="#linearGradient4113"
       gradientUnits="userSpaceOnUse"
       gradientTransform="matrix(0.89553576,0,0,-0.89663265,6.6836208,69.705837)" />
    <linearGradient
       id="linearGradient4113">
      <stop
         id="stop4115"
         style="stop-color:#000000;stop-opacity:1"
         offset="0" />
      <stop
         id="stop4117"
         style="stop-color:#000000;stop-opacity:0"
         offset="1" />
    </linearGradient>
    <linearGradient
       inkscape:collect="always"
       xlink:href="#linearGradient4238"
       id="linearGradient3170"
       gradientUnits="userSpaceOnUse"
       gradientTransform="matrix(0.88605598,0,0,0.91501205,-190.09393,-217.91028)"
       x1="277.47501"
       y1="44.793747"
       x2="275.5"
       y2="271.42502" />
    <linearGradient
       id="linearGradient4238">
      <stop
         style="stop-color:#89c64b;stop-opacity:1"
         offset="0"
         id="stop4240" />
      <stop
         style="stop-color:#6bae35;stop-opacity:1"
         offset="1"
         id="stop4242" />
    </linearGradient>
  </defs>
  <metadata
     id="metadata4384">
    <rdf:RDF>
      <cc:Work
         rdf:about="">
        <dc:format>image/svg+xml</dc:format>
        <dc:type
           rdf:resource="http://purl.org/dc/dcmitype/StillImage" />
        <dc:title />
      </cc:Work>
    </rdf:RDF>
  </metadata>
  <rect
     style="color:#000000;display:inline;overflow:visible;visibility:visible;fill:#fafafa;fill-opacity:1;fill-rule:nonzero;stroke:none;stroke-width:0.99999994;marker:none;enable-background:accumulate"
     id="rect5505-21-3"
     y="15.5"
     x="12.5"
     ry="6.0545406"
     rx="6.0545406"
     height="103"
     width="103" />
  <rect
     style="color:#000000;display:inline;overflow:visible;visibility:visible;opacity:0.3;fill:none;stroke:#000000;stroke-width:1;stroke-linecap:round;stroke-linejoin:round;stroke-miterlimit:4;stroke-dasharray:none;stroke-dashoffset:0;stroke-opacity:1;marker:none;enable-background:accumulate"
     id="rect5505-21-6"
     y="15.5"
     x="12.5"
     ry="6"
     rx="6"
     height="103"
     width="103" />
  <g
     id="g852"
     transform="matrix(0.38206207,0,0,0.38206207,83.478724,94.145834)">
    <path
       id="path4138"
       d="m -50.983143,-141.0489 c -38.65906,0 -69.998047,31.33898 -69.998047,69.99805 0,38.659063 31.338987,69.9980525 69.998047,69.9980525 38.659063,0 69.998053,-31.3389895 69.998053,-69.9980525 0,-38.65907 -31.33899,-69.99805 -69.998053,-69.99805 z m -32.32031,34.99805 h 8.64062 c 1.49151,0 2.67969,1.18343 2.67969,2.65234 v 8.69532 c 0,1.46891 -1.18818,2.65234 -2.67969,2.65234 h -8.64062 c -1.49151,0 -2.67969,-1.18343 -2.67969,-2.65234 v -8.69532 c 0,-1.46891 1.18818,-2.65234 2.67969,-2.65234 z m 28,0 h 8.64062 c 1.49151,0 2.67969,1.18343 2.67969,2.65234 v 8.69532 c 0,1.46891 -1.18818,2.65234 -2.67969,2.65234 h -8.64062 c -1.49151,0 -2.67969,-1.18343 -2.67969,-2.65234 v -8.69532 c 0,-1.46891 1.18818,-2.65234 2.67969,-2.65234 z m 28,0 h 8.640623 c 1.49151,0 2.67969,1.18343 2.67969,2.65234 v 8.69532 c 0,1.46891 -1.18818,2.65234 -2.67969,2.65234 h -8.640623 c -1.49151,0 -2.67969,-1.18343 -2.67969,-2.65234 v -8.69532 c 0,-1.46891 1.18818,-2.65234 2.67969,-2.65234 z m -56,28 h 8.64062 c 1.49151,0 2.67969,1.18343 2.67969,2.65234 v 8.69532 c 0,1.46891 -1.18818,2.65234 -2.67969,2.65234 h -8.64062 c -1.49151,0 -2.67969,-1.18343 -2.67969,-2.65234 v -8.69532 c 0,-1.46891 1.18818,-2.65234 2.67969,-2.65234 z m 28,0 h 8.64062 c 1.49151,0 2.67969,1.18343 2.67969,2.65234 v 8.69532 c 0,1.46891 -1.18818,2.65234 -2.67969,2.65234 h -8.64062 c -1.49151,0 -2.67969,-1.18343 -2.67969,-2.65234 v -8.69532 c 0,-1.46891 1.18818,-2.65234 2.67969,-2.65234 z m 28,0 h 8.640623 c 1.49151,0 2.67969,1.18343 2.67969,2.65234 v 8.69532 c 0,1.46891 -1.18818,2.65234 -2.67969,2.65234 h -8.640623 c -1.49151,0 -2.67969,-1.18343 -2.67969,-2.65234 v -8.69532 c 0,-1.46891 1.18818,-2.65234 2.67969,-2.65234 z m -56,28 h 8.64062 c 1.49151,0 2.67969,1.18343 2.67969,2.65234 v 8.695323 c 0,1.46891 -1.18818,2.65234 -2.67969,2.65234 h -8.64062 c -1.49151,0 -2.67969,-1.18343 -2.67969,-2.65234 v -8.695323 c 0,-1.46891 1.18818,-2.65234 2.67969,-2.65234 z m 28,0 h 8.64062 c 1.49151,0 2.67969,1.18343 2.67969,2.65234 v 8.695323 c 0,1.46891 -1.18818,2.65234 -2.67969,2.65234 h -8.64062 c -1.49151,0 -2.67969,-1.18343 -2.67969,-2.65234 v -8.695323 c 0,-1.46891 1.18818,-2.65234 2.67969,-2.65234 z m 28,0 h 8.640623 c 1.49151,0 2.67969,1.18343 2.67969,2.65234 v 8.695323 c 0,1.46891 -1.18818,2.65234 -2.67969,2.65234 h -8.640623 c -1.49151,0 -2.67969,-1.18343 -2.67969,-2.65234 v -8.695323 c 0,-1.46891 1.18818,-2.65234 2.67969,-2.65234 z"
       style="color:#000000;display:inline;overflow:visible;visibility:visible;fill:url(#linearGradient3170);fill-opacity:1;fill-rule:nonzero;stroke:none;stroke-width:4;marker:none;enable-background:accumulate"
       inkscape:connector-curvature="0" />
    <path
       id="path4138-1-9-4"
       d="m -50.983143,-141.0489 c -38.65906,0 -69.998047,31.33898 -69.998047,69.99805 0,0.2928 -0.004,0.58304 0,0.875 0.46977,-38.25485 31.631787,-69.12305 69.998047,-69.12305 38.366253,0 69.528283,30.8682 69.998053,69.12305 0.004,-0.29196 0,-0.5822 0,-0.875 0,-38.65907 -31.33899,-69.99805 -69.998053,-69.99805 z m -35,46.34571 v 1 c 0,1.46891 1.18818,2.65234 2.67969,2.65234 h 8.64062 c 1.49151,0 2.67969,-1.18343 2.67969,-2.65234 v -1 c 0,1.46891 -1.18818,2.65234 -2.67969,2.65234 h -8.64062 c -1.49151,0 -2.67969,-1.18343 -2.67969,-2.65234 z m 28,0 v 1 c 0,1.46891 1.18818,2.65234 2.67969,2.65234 h 8.64062 c 1.49151,0 2.67969,-1.18343 2.67969,-2.65234 v -1 c 0,1.46891 -1.18818,2.65234 -2.67969,2.65234 h -8.64062 c -1.49151,0 -2.67969,-1.18343 -2.67969,-2.65234 z m 28,0 v 1 c 0,1.46891 1.18818,2.65234 2.67969,2.65234 h 8.640623 c 1.49151,0 2.67969,-1.18343 2.67969,-2.65234 v -1 c 0,1.46891 -1.18818,2.65234 -2.67969,2.65234 h -8.640623 c -1.49151,0 -2.67969,-1.18343 -2.67969,-2.65234 z m -56,28 v 1 c 0,1.46891 1.18818,2.65234 2.67969,2.65234 h 8.64062 c 1.49151,0 2.67969,-1.18343 2.67969,-2.65234 v -1 c 0,1.46891 -1.18818,2.65234 -2.67969,2.65234 h -8.64062 c -1.49151,0 -2.67969,-1.18343 -2.67969,-2.65234 z m 28,0 v 1 c 0,1.46891 1.18818,2.65234 2.67969,2.65234 h 8.64062 c 1.49151,0 2.67969,-1.18343 2.67969,-2.65234 v -1 c 0,1.46891 -1.18818,2.65234 -2.67969,2.65234 h -8.64062 c -1.49151,0 -2.67969,-1.18343 -2.67969,-2.65234 z m 28,0 v 1 c 0,1.46891 1.18818,2.65234 2.67969,2.65234 h 8.640623 c 1.49151,0 2.67969,-1.18343 2.67969,-2.65234 v -1 c 0,1.46891 -1.18818,2.65234 -2.67969,2.65234 h -8.640623 c -1.49151,0 -2.67969,-1.18343 -2.67969,-2.65234 z m -56,28.000003 v 1 c 0,1.46891 1.18818,2.65234 2.67969,2.65234 h 8.64062 c 1.49151,0 2.67969,-1.18343 2.67969,-2.65234 v -1 c 0,1.46891 -1.18818,2.65234 -2.67969,2.65234 h -8.64062 c -1.49151,0 -2.67969,-1.18343 -2.67969,-2.65234 z m 28,0 v 1 c 0,1.46891 1.18818,2.65234 2.67969,2.65234 h 8.64062 c 1.49151,0 2.67969,-1.18343 2.67969,-2.65234 v -1 c 0,1.46891 -1.18818,2.65234 -2.67969,2.65234 h -8.64062 c -1.49151,0 -2.67969,-1.18343 -2.67969,-2.65234 z m 28,0 v 1 c 0,1.46891 1.18818,2.65234 2.67969,2.65234 h 8.640623 c 1.49151,0 2.67969,-1.18343 2.67969,-2.65234 v -1 c 0,1.46891 -1.18818,2.65234 -2.67969,2.65234 h -8.640623 c -1.49151,0 -2.67969,-1.18343 -2.67969,-2.65234 z"
       style="color:#000000;display:inline;overflow:visible;visibility:visible;opacity:0.2;fill:#000000;fill-opacity:1;fill-rule:nonzero;stroke:none;stroke-width:4;marker:none;enable-background:accumulate"
       inkscape:connector-curvature="0" />
  </g>
</svg>
