<?xml version="1.0" encoding="UTF-8" standalone="no"?>
<svg
   xmlns:dc="http://purl.org/dc/elements/1.1/"
   xmlns:cc="http://creativecommons.org/ns#"
   xmlns:rdf="http://www.w3.org/1999/02/22-rdf-syntax-ns#"
   xmlns:svg="http://www.w3.org/2000/svg"
   xmlns="http://www.w3.org/2000/svg"
   xmlns:xlink="http://www.w3.org/1999/xlink"
   id="svg2"
   width="128"
   viewBox="0 0 128 128"
   version="1"
   height="128">
  <metadata
     id="metadata101">
    <rdf:RDF>
      <cc:Work
         rdf:about="">
        <dc:format>image/svg+xml</dc:format>
        <dc:type
           rdf:resource="http://purl.org/dc/dcmitype/StillImage" />
      </cc:Work>
    </rdf:RDF>
  </metadata>
  <title
     id="title4">
        elementary Icon Template
    </title>
  <defs
     id="defs6">
    <linearGradient
       id="f">
      <stop
         id="stop9"
         stop-color="#997543"
         offset="0"
         style="stop-color:#abacae;stop-opacity:1" />
      <stop
         id="stop15"
         stop-color="#604c31"
         offset="1"
         style="stop-color:#7e8087;stop-opacity:1" />
    </linearGradient>
    <linearGradient
       y2="43"
       y1="5.564"
       x2="24"
       x1="24"
       id="o"
       xlink:href="#b"
       gradientUnits="userSpaceOnUse"
       gradientTransform="matrix(2.94595,0,0,1.91892,-6.703,35.946)" />
    <linearGradient
       id="b">
      <stop
         id="stop34"
         stop-color="#fff"
         offset="0" />
      <stop
         id="stop36"
         stop-opacity=".235"
         stop-color="#fff"
         offset=".036" />
      <stop
         id="stop38"
         stop-opacity=".157"
         stop-color="#fff"
         offset=".951" />
      <stop
         id="stop40"
         stop-opacity=".392"
         stop-color="#fff"
         offset="1" />
    </linearGradient>
    <linearGradient
       y2="8"
       y1="22"
       x2="26"
       x1="26"
       id="n"
       xlink:href="#c"
       gradientUnits="userSpaceOnUse"
       gradientTransform="matrix(3,0,0,2.71429,-8,-0.714)" />
    <linearGradient
       id="c">
      <stop
         id="stop44"
         stop-color="#fff"
         offset="0" />
      <stop
         id="stop46"
         stop-color="#fff"
         offset=".302" />
      <stop
         id="stop48"
         stop-opacity=".643"
         stop-color="#fff"
         offset=".344" />
      <stop
         id="stop50"
         stop-opacity=".391"
         stop-color="#fff"
         offset="1" />
    </linearGradient>
    <linearGradient
       y2="23.5"
       y1="47.5"
       x2="63.5"
       x1="63.5"
       id="m"
       xlink:href="#d"
       gradientUnits="userSpaceOnUse"
       gradientTransform="translate(0,-1)" />
    <linearGradient
       id="d">
      <stop
         id="stop54"
         stop-color="#ad8757"
         offset="0"
         style="stop-color:#abacae;stop-opacity:1" />
      <stop
         id="stop56"
         stop-opacity=".392"
         stop-color="#c7ad88"
         offset="1"
         style="stop-color:#d4d4d4;stop-opacity:0.39215687" />
    </linearGradient>
    <linearGradient
       y2="45.042"
       y1="7.976"
       x2="15.464"
       x1="15.464"
       id="q"
       xlink:href="#f"
       gradientUnits="userSpaceOnUse"
       gradientTransform="matrix(2.70707,0,0,2.6646,-0.97,-0.08)" />
  </defs>
  <path
     d="m 23.423,22.57 79.852,0 c 4.662,0 6.76,-0.764 8.099,2.664 l 8.126,21.317 0,68.41 c 0,4.14 0.278,3.507 -4.383,3.507 l -102.234,0 c -4.661,0 -4.383,0.633 -4.383,-3.506 l 0,-68.412 8.126,-21.317 c 1.302,-3.359 2.135,-2.664 6.797,-2.664 z"
     display="block"
     overflow="visible"
     style="color:#000000;display:block;overflow:visible;fill:#d4d4d4;marker:none;fill-opacity:1"
     id="path87" />
  <g
     transform="matrix(0.89556932,0,0,0.89556932,6.6835628,28.265841)"
     id="g834">
    <g
       id="g906">
      <path
         id="path4095-0"
         d="m 67.529206,58.34008 c 3.664656,4.218436 -0.960927,8.011418 -0.960927,8.011418 0,0 9.299709,-4.799931 5.029707,-10.813575 -3.989501,-5.60549 -7.04814,-8.390011 9.510672,-17.993063 1.68e-4,0 -25.993228,6.490328 -13.579452,20.79522 z"
         style="clip-rule:evenodd;fill:#f89820;fill-opacity:1;fill-rule:evenodd;stroke-width:1.3002094" />
      <path
         id="path4103"
         d="m 71.598153,22.035323 c 0,0 7.888133,7.892667 -7.484008,20.025943 -12.327442,9.736752 -2.810723,15.286309 -0.0044,21.630173 C 56.913272,57.199094 51.63481,51.483084 55.17534,46.163974 60.374523,38.357137 74.780026,34.570874 71.5981,22.035323 v 0 z"
         style="clip-rule:evenodd;fill:#f89820;fill-opacity:1;fill-rule:evenodd;stroke-width:1.3002094" />
    </g>
    <g
       id="g920">
      <path
         id="path4091-2"
         d="m 54.034408,80.754481 c 0,0 -2.899912,1.687878 2.066136,2.257448 6.017171,0.686976 9.091935,0.588044 15.720834,-0.664974 0,0 1.746331,1.092444 4.180981,2.038589 -14.865055,6.368722 -33.642682,-0.369019 -21.967951,-3.631063 z"
         style="clip-rule:evenodd;fill:#5382a1;fill-opacity:1;fill-rule:evenodd;stroke-width:1.3002094" />
      <path
         id="path4093-2"
         d="m 52.217029,72.442238 c 0,0 -3.252974,2.408448 1.716768,2.922084 6.428182,0.66363 11.502735,0.71805 20.288807,-0.972852 0,0 1.21237,1.231518 3.121626,1.904552 -17.969884,5.256292 -37.98474,0.413531 -25.127201,-3.853784 z"
         style="clip-rule:evenodd;fill:#5382a1;fill-opacity:1;fill-rule:evenodd;stroke-width:1.3002094" />
      <path
         id="path4097-6"
         d="m 87.189153,86.903673 c 0,0 2.146757,1.769677 -2.364441,3.138255 -8.578132,2.598248 -35.709993,3.381971 -43.245903,0.103965 -2.707089,-1.179113 2.371832,-2.813411 3.969849,-3.158579 1.666211,-0.360452 2.617564,-0.294609 2.617564,-0.294609 -3.012786,-2.121565 -19.473007,4.166703 -8.359945,5.970141 30.305724,4.912299 55.24279,-2.212601 47.382876,-5.759178 v 0 z"
         style="clip-rule:evenodd;fill:#5382a1;fill-opacity:1;fill-rule:evenodd;stroke-width:1.3002094" />
      <path
         id="path4099"
         d="m 55.430029,63.828667 c 0,0 -13.799151,3.278505 -4.886433,4.470047 3.764427,0.503727 11.264225,0.38783 18.255256,-0.198702 5.711812,-0.479372 11.443948,-1.50463 11.443948,-1.50463 0,0 -2.012556,0.863339 -3.46965,1.857691 -14.015656,3.686324 -41.086212,1.969556 -33.291804,-1.799239 6.588757,-3.187468 11.948683,-2.825167 11.948683,-2.825167 z"
         style="clip-rule:evenodd;fill:#5382a1;fill-opacity:1;fill-rule:evenodd;stroke-width:1.3002094" />
      <path
         id="path4101"
         d="m 80.185692,77.664936 c 14.24644,-7.401034 7.658691,-14.514176 3.060823,-13.556104 -1.124358,0.234646 -1.628756,0.437883 -1.628756,0.437883 0,0 0.418904,-0.656238 1.21657,-0.938587 9.096135,-3.19637 16.090021,9.430552 -2.933338,14.43137 -1.69e-4,0 0.21869,-0.198199 0.284701,-0.374562 z"
         style="clip-rule:evenodd;fill:#5382a1;fill-opacity:1;fill-rule:evenodd;stroke-width:1.3002094" />
      <path
         id="path4105"
         d="M 56.830687,97.726487 C 70.502519,98.600575 91.502993,97.240061 92,90.770224 c 0,0 -0.955383,2.452621 -11.3,4.398661 -11.670365,2.197149 -26.067637,1.941338 -34.603441,0.531946 0,0 1.748681,1.447353 10.734128,2.025656 z"
         style="clip-rule:evenodd;fill:#5382a1;fill-opacity:1;fill-rule:evenodd;stroke-width:1.3002094" />
    </g>
  </g>
  <path
     d="m 63.5,23 0,23"
     id="path89"
     style="opacity:0.4;fill:none;stroke:url(#m)" />
  <path
     d="m 58,21 12,0 0,38 C 68.819,59 67.638,56.907 66.456,56.907 65.247,56.907 64.038,59 62.828,59 61.855,59 60.881,57.169 59.908,57.169 59.272,57.169 58.636,59 58,59 l 0,-38 z"
     overflow="visible"
     style="overflow:visible;opacity:0.3;fill:url(#n);marker:none"
     id="path91" />
  <path
     d="m 118.5,117.5 -109,0 0,-71 109,0 z"
     id="path93"
     style="opacity:0.3;fill:none;stroke:url(#o);stroke-linecap:round;stroke-linejoin:round" />
  <path
     d="m 23.423,22.57 79.852,0 c 4.662,0 6.76,-0.764 8.099,2.664 l 8.126,21.317 0,68.41 c 0,4.14 0.278,3.507 -4.383,3.507 l -102.234,0 c -4.661,0 -4.383,0.633 -4.383,-3.506 l 0,-68.412 8.126,-21.317 c 1.302,-3.359 2.135,-2.664 6.797,-2.664 z"
     display="block"
     overflow="visible"
     style="color:#000000;display:block;overflow:visible;opacity:0.5;fill:none;stroke:url(#q);stroke-width:0.99400002;stroke-linecap:round;marker:none"
     id="path97" />
</svg>
