<?xml version="1.0" encoding="UTF-8" standalone="no"?>
<svg
   xmlns:dc="http://purl.org/dc/elements/1.1/"
   xmlns:cc="http://creativecommons.org/ns#"
   xmlns:rdf="http://www.w3.org/1999/02/22-rdf-syntax-ns#"
   xmlns:svg="http://www.w3.org/2000/svg"
   xmlns="http://www.w3.org/2000/svg"
   xmlns:xlink="http://www.w3.org/1999/xlink"
   version="1.1"
   width="128"
   height="128"
   id="svg3172">
  <defs
     id="defs3174">
    <radialGradient
       xlink:href="#linearGradient2867-449-88-871-390-598-476-591-434-148-57-177-8-3-3-6-4-8-8-8-5"
       id="radialGradient4147-1"
       gradientUnits="userSpaceOnUse"
       gradientTransform="matrix(0,26.787968,-32.887066,0,393.8041,-231.78742)"
       cx="6.7304144"
       cy="9.9571075"
       fx="6.2001843"
       fy="9.9571075"
       r="12.671875" />
    <linearGradient
       id="linearGradient2867-449-88-871-390-598-476-591-434-148-57-177-8-3-3-6-4-8-8-8-5">
      <stop
         offset="0"
         style="stop-color:#919caf;stop-opacity:1;"
         id="stop3750-1-0-7-6-6-1-3-9-3" />
      <stop
         offset="0.26238"
         style="stop-color:#68758e;stop-opacity:1;"
         id="stop3752-3-7-4-0-32-8-923-0-7" />
      <stop
         offset="0.704952"
         style="stop-color:#485a6c;stop-opacity:1;"
         id="stop3754-1-8-5-2-7-6-7-1-9" />
      <stop
         offset="1"
         style="stop-color:#444c5c;stop-opacity:1;"
         id="stop3756-1-6-2-6-6-1-96-6-0" />
    </linearGradient>
  </defs>
  <metadata
     id="metadata3177">
    <rdf:RDF>
      <cc:Work
         rdf:about="">
        <dc:format>image/svg+xml</dc:format>
        <dc:type
           rdf:resource="http://purl.org/dc/dcmitype/StillImage" />
        <dc:title />
      </cc:Work>
    </rdf:RDF>
  </metadata>
  <path
     d="m 17.499929,1.500412 c 21.311061,0 93.000031,0.007 93.000031,0.007 l 1.1e-4,116.992628 c 0,0 -62.0001,0 -93.00014,0 0,-39.000029 0,-78.000054 0,-117.000079 z"
     id="path4160"
     style="fill:#fafafa;fill-opacity:1;stroke:none;display:inline" />
  <path
     d="m 17.499929,1.5004119 c 21.311061,0 93.000031,0.007 93.000031,0.007 l 1.1e-4,116.9926281 c 0,0 -62.0001,0 -93.00014,0 0,-39.000029 0,-78.000054 0,-117.0000791 z"
     id="path4160-4"
     style="opacity:0.3;fill:none;stroke:#000000;stroke-width:0.99992186;stroke-linecap:butt;stroke-linejoin:round;stroke-miterlimit:4;stroke-opacity:1;stroke-dasharray:none;stroke-dashoffset:0;display:inline" />
  <path
     style="color:#000000;clip-rule:nonzero;display:inline;overflow:visible;visibility:visible;opacity:1;isolation:auto;mix-blend-mode:normal;color-interpolation:sRGB;color-interpolation-filters:linearRGB;solid-color:#000000;solid-opacity:1;fill:url(#radialGradient4147-1);fill-opacity:1;fill-rule:nonzero;stroke:none;stroke-width:0.99999994;stroke-linecap:butt;stroke-linejoin:miter;stroke-miterlimit:4;stroke-dasharray:none;stroke-dashoffset:0;stroke-opacity:1;marker:none;color-rendering:auto;image-rendering:auto;shape-rendering:auto;text-rendering:auto;enable-background:accumulate"
     d="m 60,32 c -0.719862,0 -1.319748,2.780369 -1.671876,6.753906 a 22,22 0 0 0 -5.316406,2.234376 C 49.940624,38.41439 47.541652,36.860692 47.03125,37.371094 l -5.660156,5.660156 c -0.510402,0.510402 1.043296,2.909374 3.617188,5.980468 a 22,22 0 0 0 -2.214844,5.316407 C 38.788768,54.679914 36,55.278932 36,56 l 0,8 c 0,0.719863 2.780368,1.319749 6.753906,1.671876 A 22,22 0 0 0 44.980468,71 c -2.56804,3.065601 -4.119162,5.458961 -3.609374,5.968761 L 47.03125,82.6289 c 0.509306,0.509321 2.899662,-1.0381 5.960938,-3.60156 a 22,22 0 0 0 5.335936,2.19922 C 58.679914,85.211241 59.278932,88 60,88 l 8,0 c 0.719862,0 1.319748,-2.78036 1.671876,-6.7539 a 22,22 0 0 0 5.316406,-2.23438 c 3.071094,2.5739 5.470066,4.12758 5.980468,3.61718 l 5.660156,-5.660139 c 0.510402,-0.51042 -1.043296,-2.90938 -3.617188,-5.980479 a 22,22 0 0 0 2.214844,-5.316406 C 89.211232,65.320087 92,64.721068 92,64 l 0,-8 c 0,-0.719862 -2.780368,-1.319748 -6.753906,-1.671875 A 22,22 0 0 0 83.019532,49 c 2.56804,-3.065594 4.119162,-5.458962 3.609374,-5.96875 L 80.96875,37.371094 c -0.509306,-0.509306 -2.899662,1.038111 -5.960938,3.601562 A 22,22 0 0 0 69.671876,38.773438 C 69.320086,34.788768 68.721068,32 68,32 l -8,0 z m 4,18 A 10,10 0 0 1 74,60 10,10 0 0 1 64,70 10,10 0 0 1 54,60 10,10 0 0 1 64,50 Z"
     id="path4690" />
</svg>
