<?xml version="1.0" encoding="UTF-8" standalone="no"?>
<svg
   xmlns:dc="http://purl.org/dc/elements/1.1/"
   xmlns:cc="http://creativecommons.org/ns#"
   xmlns:rdf="http://www.w3.org/1999/02/22-rdf-syntax-ns#"
   xmlns:svg="http://www.w3.org/2000/svg"
   xmlns="http://www.w3.org/2000/svg"
   xmlns:xlink="http://www.w3.org/1999/xlink"
   id="svg3172"
   height="128"
   width="128"
   version="1.1">
  <defs
     id="defs3174">
    <linearGradient
       gradientTransform="matrix(2.0276423,0,0,2.0082393,-1.440109,-0.2470784)"
       gradientUnits="userSpaceOnUse"
       y2="59.221642"
       x2="33.503624"
       y1="0.39035916"
       x1="33.503624"
       id="linearGradient996"
       xlink:href="#linearGradient994" />
    <linearGradient
       id="linearGradient994">
      <stop
         id="stop990"
         offset="0"
         style="stop-color:#f9c440;stop-opacity:1" />
      <stop
         id="stop992"
         offset="1"
         style="stop-color:#d48e15;stop-opacity:1" />
    </linearGradient>
    <linearGradient
       gradientTransform="matrix(2.1456297,0,0,2.3791292,158.08983,-7.746467)"
       gradientUnits="userSpaceOnUse"
       xlink:href="#linearGradient3104-6"
       id="linearGradient3148"
       y2="2.9062471"
       x2="-51.786404"
       y1="50.786446"
       x1="-51.786404" />
    <linearGradient
       id="linearGradient3104-6">
      <stop
         offset="0"
         style="stop-color:#000000;stop-opacity:0.31782946"
         id="stop3106-3" />
      <stop
         offset="1"
         style="stop-color:#000000;stop-opacity:0.24031007"
         id="stop3108-9" />
    </linearGradient>
  </defs>
  <metadata
     id="metadata3177">
    <rdf:RDF>
      <cc:Work
         rdf:about="">
        <dc:format>image/svg+xml</dc:format>
        <dc:type
           rdf:resource="http://purl.org/dc/dcmitype/StillImage" />
        <dc:title />
      </cc:Work>
    </rdf:RDF>
  </metadata>
  <path
     style="display:inline;fill:#fafafa;fill-opacity:1;stroke:none"
     id="path4160-8"
     d="m 18,2.0004521 c 21.081878,0 91.99989,0.00694 91.99989,0.00694 L 110,118 c 0,0 -61.333339,0 -91.999999,0 0,-38.666664 0,-77.33333 0,-115.999995 z" />
  <path
     style="display:inline;fill:none;stroke:url(#linearGradient3148);stroke-width:0.99999994;stroke-linecap:butt;stroke-linejoin:round;stroke-miterlimit:4;stroke-dasharray:none;stroke-dashoffset:0;stroke-opacity:1"
     id="path4160-6-1"
     d="m 17.500001,1.49999 c 21.311001,0 92.999899,0.008 92.999899,0.008 l 1e-4,116.99202 c 0,0 -61.999997,0 -92.999999,0 0,-39.000096 0,-77.999807 0,-116.999456 z" />
  <path
     style="fill:url(#linearGradient996);fill-opacity:1;stroke-width:1"
     id="path16"
     d="m 50,37 v 30.442849 c 0,4.671875 -1.785596,5.872941 -4.888893,5.872941 -3.246538,0 -5.49997,-2.004932 -6.989568,-4.605672 l -7.677094,4.605672 c 2.224812,4.662418 7.677094,9.684212 15.239596,9.684212 8.364593,0 14.093735,-4.40707 14.093735,-14.081826 V 37 Z m 30.440973,0 c -8.326388,0 -13.66405,5.277142 -13.66405,12.209297 0,7.5185 4.47828,11.074422 11.210044,13.91159 l 2.329884,0.993012 c 4.249124,1.844162 6.349817,2.969572 6.349817,6.137749 0,2.638568 -2.024295,4.54893 -5.891489,4.54893 -4.602422,0 -6.77953,-3.092517 -8.775188,-6.326892 l -7.333327,4.842103 c 2.740451,5.362254 7.658005,9.684212 16.318599,9.684212 8.861113,10e-7 15.459183,-4.558387 15.459183,-12.871297 0,-7.717107 -4.468742,-11.150085 -12.403623,-14.516861 l -2.329884,-0.983552 c -4.000864,-1.721216 -5.738716,-2.837162 -5.738716,-5.60815 0,-2.241365 1.737852,-3.962564 4.468754,-3.962587 2.683176,0 4.401874,1.125428 5.996527,3.962587 l 7.266502,-4.615133 C 90.63892,39.042764 86.370652,37 80.440973,37 Z" />
</svg>
