<?xml version="1.0" encoding="UTF-8" standalone="no"?>
<svg
   xmlns:dc="http://purl.org/dc/elements/1.1/"
   xmlns:cc="http://creativecommons.org/ns#"
   xmlns:rdf="http://www.w3.org/1999/02/22-rdf-syntax-ns#"
   xmlns:svg="http://www.w3.org/2000/svg"
   xmlns="http://www.w3.org/2000/svg"
   xmlns:xlink="http://www.w3.org/1999/xlink"
   version="1.1"
   width="128"
   height="128"
   id="svg3172">
  <defs
     id="defs3174">
    <linearGradient
       id="linearGradient2867-449-88-871-390-598-476-591-434-148-57-177-8-3-3-6-4-8-8-8-5">
      <stop
         offset="0"
         style="stop-color:#919caf;stop-opacity:1;"
         id="stop3750-1-0-7-6-6-1-3-9-3" />
      <stop
         offset="0.26238"
         style="stop-color:#68758e;stop-opacity:1;"
         id="stop3752-3-7-4-0-32-8-923-0-7" />
      <stop
         offset="0.704952"
         style="stop-color:#485a6c;stop-opacity:1;"
         id="stop3754-1-8-5-2-7-6-7-1-9" />
      <stop
         offset="1"
         style="stop-color:#444c5c;stop-opacity:1;"
         id="stop3756-1-6-2-6-6-1-96-6-0" />
    </linearGradient>
    <linearGradient
       xlink:href="#linearGradient2867-449-88-871-390-598-476-591-434-148-57-177-8-3-3-6-4-8-8-8-5"
       id="linearGradient924"
       x1="53.915253"
       y1="-90.644066"
       x2="54.457626"
       y2="193.93221"
       gradientUnits="userSpaceOnUse" />
  </defs>
  <metadata
     id="metadata3177">
    <rdf:RDF>
      <cc:Work
         rdf:about="">
        <dc:format>image/svg+xml</dc:format>
        <dc:type
           rdf:resource="http://purl.org/dc/dcmitype/StillImage" />
        <dc:title />
      </cc:Work>
    </rdf:RDF>
  </metadata>
  <path
     d="m 17.499929,1.500412 c 21.311061,0 93.000031,0.007 93.000031,0.007 l 1.1e-4,116.992628 c 0,0 -62.0001,0 -93.00014,0 0,-39.000029 0,-78.000054 0,-117.000079 z"
     id="path4160"
     style="fill:#fafafa;fill-opacity:1;stroke:none;display:inline" />
  <path
     d="m 17.499929,1.5004119 c 21.311061,0 93.000031,0.007 93.000031,0.007 l 1.1e-4,116.9926281 c 0,0 -62.0001,0 -93.00014,0 0,-39.000029 0,-78.000054 0,-117.0000791 z"
     id="path4160-4"
     style="opacity:0.3;fill:none;stroke:#000000;stroke-width:0.99992186;stroke-linecap:butt;stroke-linejoin:round;stroke-miterlimit:4;stroke-opacity:1;stroke-dasharray:none;stroke-dashoffset:0;display:inline" />
  <path
     style="fill:url(#linearGradient924);stroke-width:4;fill-opacity:1"
     d="M 64 28 C 56.5426 33.44057 44.853516 36.78125 44.853516 36.78125 C 46.624286 51.497419 53.007494 59.654099 58.001953 63.912109 L 58.015625 76 L 50.015625 76 L 50.015625 88 L 58.03125 88 L 58.015625 92 L 70.015625 92 L 70 64.394531 C 75.025819 60.230193 81.893982 51.880625 83.900391 36.414062 C 83.900391 36.414062 69.79385 31.41463 64 28 z M 64.226562 40 C 66.544102 41.365852 72.185547 43.365234 72.185547 43.365234 C 70.875635 53.462794 64.376953 56 64.376953 56 C 64.376953 56 57.777511 53.560499 56.568359 43.511719 C 56.568359 43.511719 61.243604 42.176228 64.226562 40 z M 63.847656 67.769531 C 64.106768 67.884324 64.376953 68 64.376953 68 C 64.376953 68 64.64072 67.879537 64.867188 67.775391 C 64.561407 67.921755 64.376953 68 64.376953 68 C 64.376953 68 64.182629 67.924536 63.847656 67.769531 z "
     id="path5" />
</svg>
