<?xml version="1.0" encoding="UTF-8" standalone="no"?>
<svg
   xmlns:dc="http://purl.org/dc/elements/1.1/"
   xmlns:cc="http://creativecommons.org/ns#"
   xmlns:rdf="http://www.w3.org/1999/02/22-rdf-syntax-ns#"
   xmlns:svg="http://www.w3.org/2000/svg"
   xmlns="http://www.w3.org/2000/svg"
   xmlns:xlink="http://www.w3.org/1999/xlink"
   version="1.1"
   width="128"
   height="128"
   id="svg3172">
  <defs
     id="defs3174">
    <radialGradient
       gradientTransform="matrix(-4.2958754e-7,17.552708,-21.502112,-5.2688504e-7,278.07032,-159.53343)"
       gradientUnits="userSpaceOnUse"
       xlink:href="#linearGradient2867-449-88-871-390-598-476-591-434-148-57-177-8-3-3"
       id="radialGradient3914"
       fy="9.9571075"
       fx="7.2758255"
       r="12.671875"
       cy="9.9571075"
       cx="7.8060555" />
    <linearGradient
       id="linearGradient2867-449-88-871-390-598-476-591-434-148-57-177-8-3-3">
      <stop
         offset="0"
         style="stop-color:#ffcd7d;stop-opacity:1"
         id="stop3750-1-0-7" />
      <stop
         offset="0.26238"
         style="stop-color:#fc8f36;stop-opacity:1"
         id="stop3752-3-7-4" />
      <stop
         offset="0.704952"
         style="stop-color:#e23a0e;stop-opacity:1"
         id="stop3754-1-8-5" />
      <stop
         offset="1"
         style="stop-color:#ac441f;stop-opacity:1"
         id="stop3756-1-6-2" />
    </linearGradient>
    <linearGradient
       gradientTransform="matrix(2.1456297,0,0,2.3791292,158.08983,-7.746467)"
       gradientUnits="userSpaceOnUse"
       xlink:href="#linearGradient3104-6"
       id="linearGradient3148"
       y2="2.9062471"
       x2="-51.786404"
       y1="50.786446"
       x1="-51.786404" />
    <linearGradient
       id="linearGradient3104-6">
      <stop
         offset="0"
         style="stop-color:#000000;stop-opacity:0.31782946"
         id="stop3106-3" />
      <stop
         offset="1"
         style="stop-color:#000000;stop-opacity:0.24031007"
         id="stop3108-9" />
    </linearGradient>
  </defs>
  <metadata
     id="metadata3177">
    <rdf:RDF>
      <cc:Work
         rdf:about="">
        <dc:format>image/svg+xml</dc:format>
        <dc:type
           rdf:resource="http://purl.org/dc/dcmitype/StillImage" />
        <dc:title />
      </cc:Work>
    </rdf:RDF>
  </metadata>
  <path
     style="display:inline;fill:#fafafa;fill-opacity:1;stroke:none"
     id="path4160-9"
     d="m 18,2.0004521 c 21.081878,0 91.99989,0.00694 91.99989,0.00694 L 110,118 c 0,0 -61.333339,0 -91.999999,0 0,-38.666664 0,-77.33333 0,-115.999995 z" />
  <path
     style="display:inline;fill:none;stroke:url(#linearGradient3148);stroke-width:0.99999994;stroke-linecap:butt;stroke-linejoin:round;stroke-miterlimit:4;stroke-dasharray:none;stroke-dashoffset:0;stroke-opacity:1"
     id="path4160-6-1"
     d="m 17.500001,1.49999 c 21.311001,0 92.999899,0.008 92.999899,0.008 l 1e-4,116.99202 c 0,0 -61.999997,0 -92.999999,0 0,-39.000096 0,-77.999807 0,-116.999456 z" />
  <path
     d="m 80.82505,41.161971 c 0,-0.893125 0.13498,-1.630508 0.40479,-2.212152 0.26985,-0.602325 0.63314,-1.080067 1.08985,-1.433229 0.47743,-0.373837 1.02754,-0.633477 1.65031,-0.778926 0.64354,-0.145354 1.31819,-0.218044 2.024,-0.218096 0.70579,4.7e-5 1.37007,0.07274 1.99285,0.218096 0.62275,0.14546 1.16249,0.405089 1.6192,0.778926 0.47744,0.353162 0.85109,0.830904 1.12097,1.433229 0.2906,0.581644 0.43592,1.319027 0.43592,2.212152 0,0.872442 -0.14534,1.609824 -0.43592,2.212153 -0.26988,0.602412 -0.64353,1.09054 -1.12097,1.464383 -0.45671,0.353155 -0.99645,0.612796 -1.6192,0.778928 -0.62278,0.145433 -1.28706,0.218151 -1.99285,0.218097 -0.70581,4e-5 -1.38046,-0.07266 -2.024,-0.218097 -0.62277,-0.166118 -1.17288,-0.425773 -1.65031,-0.778928 -0.45671,-0.373843 -0.82,-0.861971 -1.08985,-1.464383 -0.26986,-0.602329 -0.40479,-1.339711 -0.40479,-2.212153 M 90.72702,85 l -9.49718,0 0,-35 9.49718,0 0,35 m -24.25672,0 -3.11381,-10.842668 -15.69369,0 L 44.51784,85 34.77157,85 49.56222,39 61.36364,39 76.21657,85 66.4703,85 M 61.11453,66.056487 58.18754,56.086218 c -0.12462,-0.373856 -0.31142,-0.986611 -0.5605,-1.838267 -0.24924,-0.851598 -0.51899,-1.786309 -0.80959,-2.804141 -0.26988,-1.038534 -0.52938,-2.077102 -0.77847,-3.115708 -0.24923,-1.038534 -0.42556,-1.921314 -0.52935,-2.64835 -0.0831,0.457006 -0.19716,0.997063 -0.3425,1.620168 -0.12463,0.623176 -0.28027,1.28786 -0.46707,1.994054 -0.16608,0.685489 -0.34256,1.38133 -0.52936,2.087523 -0.1868,0.706261 -0.36331,1.370945 -0.52935,1.994054 -0.16607,0.623172 -0.32178,1.173616 -0.46707,1.651327 -0.12461,0.47777 -0.21788,0.830885 -0.28025,1.05934 l -2.89585,9.970269 11.11635,0"
     id="rect3029"
     style="color:#000000;clip-rule:nonzero;display:inline;overflow:visible;visibility:visible;opacity:1;isolation:auto;mix-blend-mode:normal;color-interpolation:sRGB;color-interpolation-filters:linearRGB;solid-color:#000000;solid-opacity:1;fill:url(#radialGradient3914);fill-opacity:1;fill-rule:nonzero;stroke:none;stroke-width:1;stroke-linecap:butt;stroke-linejoin:round;stroke-miterlimit:4;stroke-dasharray:none;stroke-dashoffset:0;stroke-opacity:1;marker:none;color-rendering:auto;image-rendering:auto;shape-rendering:auto;text-rendering:auto;enable-background:accumulate" />
</svg>
