<?xml version="1.0" encoding="UTF-8" standalone="no"?>
<svg
   xmlns:dc="http://purl.org/dc/elements/1.1/"
   xmlns:cc="http://creativecommons.org/ns#"
   xmlns:rdf="http://www.w3.org/1999/02/22-rdf-syntax-ns#"
   xmlns:svg="http://www.w3.org/2000/svg"
   xmlns="http://www.w3.org/2000/svg"
   xmlns:xlink="http://www.w3.org/1999/xlink"
   id="svg3172"
   height="128"
   width="128"
   version="1.1">
  <defs
     id="defs3174">
    <linearGradient
       gradientTransform="matrix(2.1456297,0,0,2.3791292,158.08983,-7.746462)"
       gradientUnits="userSpaceOnUse"
       xlink:href="#linearGradient3104-6"
       id="linearGradient3148"
       y2="2.9062471"
       x2="-51.786404"
       y1="50.786446"
       x1="-51.786404" />
    <linearGradient
       id="linearGradient3104-6">
      <stop
         offset="0"
         style="stop-color:#000000;stop-opacity:0.31782946"
         id="stop3106-3" />
      <stop
         offset="1"
         style="stop-color:#000000;stop-opacity:0.24031007"
         id="stop3108-9" />
    </linearGradient>
  </defs>
  <metadata
     id="metadata3177">
    <rdf:RDF>
      <cc:Work
         rdf:about="">
        <dc:format>image/svg+xml</dc:format>
        <dc:type
           rdf:resource="http://purl.org/dc/dcmitype/StillImage" />
        <dc:title />
      </cc:Work>
    </rdf:RDF>
  </metadata>
  <path
     style="display:inline;fill:#fafafa;fill-opacity:1;stroke:none"
     id="path4160"
     d="m 18,2.0004521 c 21.081878,0 91.99989,0.00694 91.99989,0.00694 L 110,118 c 0,0 -61.333339,0 -91.999999,0 0,-38.666664 0,-77.33333 0,-115.999995 z" />
  <path
     style="display:inline;fill:none;stroke:url(#linearGradient3148);stroke-width:0.99999994;stroke-linecap:butt;stroke-linejoin:round;stroke-miterlimit:4;stroke-dasharray:none;stroke-dashoffset:0;stroke-opacity:1"
     id="path4160-6-1"
     d="m 17.500001,1.49999 c 21.311001,0 92.999899,0.008 92.999899,0.008 l 1e-4,116.99202 c 0,0 -61.999997,0 -92.999999,0 0,-39.000096 0,-77.999807 0,-116.999456 z" />
  <g
     transform="translate(0,-3.00009)"
     id="g848">
    <path
       style="color:#bebebe;display:inline;overflow:visible;visibility:visible;fill:#68b723;fill-opacity:1;fill-rule:nonzero;stroke:none;stroke-width:1;marker:none;enable-background:accumulate"
       d="m 60,55 v 8 h 8 v -8 z m 8,8 v 8 h -8 v -8 h -8 v 7.996094 H 36 L 64,104.99609 92,70.996094 76,71 v -8 z"
       id="path11053" />
    <path
       style="opacity:0.6;vector-effect:none;fill:#68b723;fill-opacity:1;stroke:none;stroke-width:2;stroke-opacity:1;marker:none"
       d="m 52,39 v 8 h 8 v -8 z m 8,8 v 8 h 8 8 v -8 -8 h -8 v 8 z m 0,8 h -8 v 8 h 8 z"
       id="rect858" />
    <path
       style="opacity:0.2;vector-effect:none;fill:#68b723;fill-opacity:1;stroke:none;stroke-width:2;stroke-opacity:1;marker:none"
       d="m 60,23 v 8 h 8 v -8 z m 8,8 v 8 h 8 v -8 z m 0,8 h -8 v 8 h 8 z m -8,0 v -8 h -8 v 8 z"
       id="rect868" />
  </g>
</svg>
