<?xml version="1.0" encoding="UTF-8" standalone="no"?>
<svg
   xmlns:dc="http://purl.org/dc/elements/1.1/"
   xmlns:cc="http://creativecommons.org/ns#"
   xmlns:rdf="http://www.w3.org/1999/02/22-rdf-syntax-ns#"
   xmlns:svg="http://www.w3.org/2000/svg"
   xmlns="http://www.w3.org/2000/svg"
   height="128"
   id="svg11300"
   style="display:inline;enable-background:new"
   version="1.0"
   viewBox="0 0 128 128"
   width="128">
  <metadata
     id="metadata155">
    <rdf:RDF>
      <cc:Work
         rdf:about="">
        <dc:format>image/svg+xml</dc:format>
        <dc:type
           rdf:resource="http://purl.org/dc/dcmitype/StillImage" />
        <dc:title>elementary Icon Template</dc:title>
      </cc:Work>
    </rdf:RDF>
  </metadata>
  <title
     id="title4162">elementary Icon Template</title>
  <defs
     id="defs3" />
  <path
     style="display:inline;fill:#fafafa;fill-opacity:1;stroke:none"
     id="path4160-63"
     d="m 17.49993,1.500359 c 21.31106,0 93.00003,0.007 93.00003,0.007 l 1.1e-4,116.992631 -93.00014,0 0,-117.000082 z" />
  <path
     style="display:inline;opacity:0.3;fill:none;stroke:#000000;stroke-width:0.99992186;stroke-linecap:butt;stroke-linejoin:round;stroke-miterlimit:4;stroke-dasharray:none;stroke-dashoffset:0;stroke-opacity:1"
     id="path4160-4"
     d="m 17.49993,1.500359 c 21.31106,0 93.00003,0.007 93.00003,0.007 l 1.1e-4,116.992631 -93.00014,0 0,-117.000082 z" />
  <path
     style="color:#bebebe;display:inline;overflow:visible;visibility:visible;fill:#3689e6;fill-opacity:1;fill-rule:nonzero;stroke:none;stroke-width:1;marker:none;enable-background:accumulate"
     id="path11053"
     d="m 35.99996,70.996537 28,34.000013 28,-34.000013 -16,0.003 0,-12.00341 c 0,4 -4,4 -4,4 0,0 -4,0 -4,-4 0,-4 -4,-4 -4,-4 0,0 -4,0 -4,4 0,4 -4,4 -4,4 0,0 -4,0 -4,-4.00341 l 0,12.00341 z" />
  <path
     style="color:#bebebe;display:inline;overflow:visible;visibility:visible;opacity:0.2;fill:#3689e6;fill-opacity:1;fill-rule:nonzero;stroke:none;stroke-width:1;marker:none;enable-background:accumulate"
     id="path11077"
     d="m 63.99996,20.996527 c 0,0 -4,0 -4,4 0,4 -4,4 -4,4 0,0 -4,0.003 -4,-4 l 0,56 24,0 0,-56 c 0,4 -4,4 -4,4 0,0 -4,0 -4,-4 0,-4 -4,-4 -4,-4 z" />
  <path
     style="color:#bebebe;display:inline;overflow:visible;visibility:visible;opacity:0.5;fill:#3689e6;fill-opacity:1;fill-rule:nonzero;stroke:none;stroke-width:1;marker:none;enable-background:accumulate"
     id="path11071"
     d="m 55.99996,38.996527 c 0,0 -4,-0.003 -4,4 l 0,24 24,0 0,-24 c 0,-4 -4,-4 -4,-4 0,0 -4,0 -4,4 0,4 -4,4 -4,4 0,0 -4,0 -4,-4 0,-4 -4,-4 -4,-4 z" />
</svg>
