<?xml version="1.0" encoding="UTF-8" standalone="no"?>
<svg
   xmlns:dc="http://purl.org/dc/elements/1.1/"
   xmlns:cc="http://creativecommons.org/ns#"
   xmlns:rdf="http://www.w3.org/1999/02/22-rdf-syntax-ns#"
   xmlns:svg="http://www.w3.org/2000/svg"
   xmlns="http://www.w3.org/2000/svg"
   xmlns:xlink="http://www.w3.org/1999/xlink"
   id="svg3172"
   height="128"
   width="128"
   version="1.1">
  <defs
     id="defs3174">
    <radialGradient
       r="12.671875"
       fy="9.9571075"
       fx="5.0852842"
       cy="9.9571075"
       cx="5.6155143"
       gradientTransform="matrix(-7.5059748e-8,20.51788,-25.189398,-9.0204266e-8,314.78472,-177.21844)"
       gradientUnits="userSpaceOnUse"
       id="radialGradient4777"
       xlink:href="#linearGradient3242-7-3-8-0-4-58" />
    <linearGradient
       id="linearGradient3242-7-3-8-0-4-58">
      <stop
         id="stop3244-5-8-5-6-4-3"
         style="stop-color:#bdff69;stop-opacity:1;"
         offset="0" />
      <stop
         id="stop3246-9-5-1-5-3-0"
         style="stop-color:#8ed451;stop-opacity:1;"
         offset="0.26238" />
      <stop
         id="stop3248-7-2-0-7-5-35"
         style="stop-color:#58aa30;stop-opacity:1;"
         offset="0.66093999" />
      <stop
         id="stop3250-8-2-8-5-6-40"
         style="stop-color:#2a6c1f;stop-opacity:1;"
         offset="1" />
    </linearGradient>
  </defs>
  <metadata
     id="metadata3177">
    <rdf:RDF>
      <cc:Work
         rdf:about="">
        <dc:format>image/svg+xml</dc:format>
        <dc:type
           rdf:resource="http://purl.org/dc/dcmitype/StillImage" />
        <dc:title />
      </cc:Work>
    </rdf:RDF>
  </metadata>
  <path
     style="fill:#fafafa;fill-opacity:1;stroke:none;display:inline"
     id="path4160"
     d="m 17.499929,1.500412 c 21.311061,0 93.000031,0.007 93.000031,0.007 l 1.1e-4,116.992628 c 0,0 -62.0001,0 -93.00014,0 0,-39.000029 0,-78.000054 0,-117.000079 z" />
  <path
     style="opacity:0.3;fill:none;stroke:#000000;stroke-width:0.99992186;stroke-linecap:butt;stroke-linejoin:round;stroke-miterlimit:4;stroke-opacity:1;stroke-dasharray:none;stroke-dashoffset:0;display:inline"
     id="path4160-4"
     d="m 17.499929,1.5004119 c 21.311061,0 93.000031,0.007 93.000031,0.007 l 1.1e-4,116.9926281 c 0,0 -62.0001,0 -93.00014,0 0,-39.000029 0,-78.000054 0,-117.0000791 z" />
  <path
     id="path4881"
     d="m 68,33.999998 -34,6 V 84 l 34,6 z m 2,4 v 4 h 8 v 6 h -8 v 2 h 8 v 6 h -8 v 2 h 8 v 6 h -8 v 2 h 8 V 72 h -8 v 2 h 8 v 6 h -8 v 4 H 94 V 37.999998 Z m 10,4 h 10 v 6 H 80 Z m 0,8 h 10 v 6 H 80 Z m -22.6875,1.4375 c 0.36324,-0.007 0.56268,-0.0152 0.5625,0 -2.8e-4,0.0304 -1.02288,2.35512 -2.3125,5.125 l -2.375,5 2.375,5.000002 c 1.28962,2.73274 2.3125,5.07312 2.3125,5.1875 0,0.24018 -1.72324,0.2001 -3.1875,-0.0625 -0.96924,-0.1738 -1.01768,-0.2826 -2.25,-3.375 -0.70226,-1.76229 -1.38174,-3.314232 -1.5,-3.437502 -0.1182,-0.12326 -0.80422,1.212148 -1.5,2.937502 -0.69578,1.72534 -1.34336,3.208798 -1.4375,3.3125 -0.0942,0.1038 -0.94968,0.1038 -1.9375,0 l -1.8125,-0.1875 2.1875,-4.625 2.1875,-4.625002 -1.9375,-4.4375 c -1.06082,-2.44826 -1.9375,-4.63884 -1.9375,-4.8125 0,-0.19384 0.73246,-0.3125 1.875,-0.3125 H 48.5 l 1.0625,3 c 0.59716,1.64213 1.20212,3.06647 1.3125,3.1875 0.1104,0.12102 0.8537,-1.33902 1.625,-3.25 l 1.375,-3.4375 2,-0.125 c 0.55132,-0.0262 1.07424,-0.0552 1.4375,-0.0625 z M 80,57.999998 h 10 v 6 H 80 Z m 0,8 H 90 V 72 H 80 Z M 80,74 h 10 v 6 H 80 Z"
     style="color:#000000;clip-rule:nonzero;display:inline;overflow:visible;visibility:visible;opacity:1;isolation:auto;mix-blend-mode:normal;color-interpolation:sRGB;color-interpolation-filters:linearRGB;solid-color:#000000;solid-opacity:1;fill:url(#radialGradient4777);fill-opacity:1;fill-rule:nonzero;stroke:none;stroke-width:0.99999994;stroke-linecap:butt;stroke-linejoin:miter;stroke-miterlimit:4;stroke-dasharray:none;stroke-dashoffset:0;stroke-opacity:1;marker:none;color-rendering:auto;image-rendering:auto;shape-rendering:auto;text-rendering:auto;enable-background:accumulate" />
</svg>
