<?xml version="1.0" encoding="UTF-8" standalone="no"?>
<svg
   xmlns:dc="http://purl.org/dc/elements/1.1/"
   xmlns:cc="http://creativecommons.org/ns#"
   xmlns:rdf="http://www.w3.org/1999/02/22-rdf-syntax-ns#"
   xmlns:svg="http://www.w3.org/2000/svg"
   xmlns="http://www.w3.org/2000/svg"
   xmlns:xlink="http://www.w3.org/1999/xlink"
   id="svg3172"
   height="128"
   width="128"
   version="1.1">
  <defs
     id="defs3174">
    <linearGradient
       gradientTransform="matrix(2.1456328,0,0,2.3791386,158.08997,-7.746077)"
       gradientUnits="userSpaceOnUse"
       xlink:href="#linearGradient3104"
       id="linearGradient3098"
       y2="2.9062471"
       x2="-51.786404"
       y1="50.786446"
       x1="-51.786404" />
    <linearGradient
       id="linearGradient3104">
      <stop
         offset="0"
         style="stop-color:#a0a0a0;stop-opacity:1"
         id="stop3106" />
      <stop
         offset="1"
         style="stop-color:#bebebe;stop-opacity:1"
         id="stop3108-4" />
    </linearGradient>
    <linearGradient
       id="linearGradient3772-6">
      <stop
         offset="0"
         style="stop-color:#b4b4b4;stop-opacity:1"
         id="stop3774-6" />
      <stop
         offset="1"
         style="stop-color:#969696;stop-opacity:1"
         id="stop3776-4" />
    </linearGradient>
    <linearGradient
       gradientUnits="userSpaceOnUse"
       id="linearGradient3263-6"
       y2="14.2033"
       x2="35.391201"
       y1="32.4165"
       x1="12.2744">
      <stop
         offset="0"
         style="stop-color:#dedcde;stop-opacity:1"
         id="stop3265-8" />
      <stop
         offset="0.5"
         style="stop-color:#f0f0f0;stop-opacity:1"
         id="stop3267-9" />
      <stop
         offset="1"
         style="stop-color:#d2d2d2;stop-opacity:1"
         id="stop3269-2" />
    </linearGradient>
    <linearGradient
       id="linearGradient3428">
      <stop
         offset="0"
         style="stop-color:#aaaaaa;stop-opacity:1"
         id="stop3430" />
      <stop
         offset="1"
         style="stop-color:#d4d4d4;stop-opacity:1"
         id="stop3432" />
    </linearGradient>
    <linearGradient
       gradientTransform="matrix(2.0625001,0,0,2.0625001,14.5,11.499997)"
       gradientUnits="userSpaceOnUse"
       xlink:href="#linearGradient3428"
       id="linearGradient3545"
       y2="32.509201"
       x2="21.448364"
       y1="15.5"
       x1="21.448364" />
    <linearGradient
       gradientTransform="matrix(0,2.3714494,-2.3714494,0,118.78049,4.792099)"
       gradientUnits="userSpaceOnUse"
       xlink:href="#linearGradient3263-6"
       id="linearGradient3548"
       y2="14.2033"
       x2="35.391201"
       y1="32.4165"
       x1="12.2744" />
    <linearGradient
       gradientTransform="matrix(2.0243902,0,0,2.0243902,117.17073,13.121533)"
       gradientUnits="userSpaceOnUse"
       xlink:href="#linearGradient3772-6"
       id="linearGradient3550"
       y2="45.032898"
       x2="-21.915663"
       y1="3"
       x1="-21.915663" />
  </defs>
  <metadata
     id="metadata3177">
    <rdf:RDF>
      <cc:Work
         rdf:about="">
        <dc:format>image/svg+xml</dc:format>
        <dc:type
           rdf:resource="http://purl.org/dc/dcmitype/StillImage" />
        <dc:title />
      </cc:Work>
    </rdf:RDF>
  </metadata>
  <path
     d="m 17.499929,1.500412 c 21.311061,0 93.000031,0.007 93.000031,0.007 l 1.1e-4,116.992628 c 0,0 -62.0001,0 -93.00014,0 0,-39.000029 0,-78.000054 0,-117.000079 z"
     id="path4160"
     style="display:inline;fill:#fafafa;fill-opacity:1;stroke:url(#linearGradient3098);stroke-width:0.99992186;stroke-linecap:butt;stroke-linejoin:round;stroke-miterlimit:4;stroke-dasharray:none;stroke-dashoffset:0;stroke-opacity:1" />
  <path
     d="M 105.5,61.706896 C 105.5,38.703831 87.003062,20.206898 63.999999,20.206898 40.99693,20.206898 22.5,38.703833 22.5,61.706896 22.499996,84.70996 40.996933,103.2069 63.999999,103.2069 87.00306,103.20689 105.5,84.709963 105.5,61.706896 Z m -24.956479,0 c 0,8.356947 -8.01936,15.845456 -16.543522,15.845456 -8.691375,0 -16.54352,-7.657431 -16.54352,-15.845456 0,-8.355272 6.121577,-17.328843 16.54352,-17.328843 10.770975,0 16.543522,9.139112 16.543522,17.328843 z"
     id="path2781"
     style="fill:url(#linearGradient3548);fill-opacity:1;fill-rule:nonzero;stroke:url(#linearGradient3550);stroke-width:0.99999994;stroke-miterlimit:4;stroke-opacity:1" />
  <path
     d="m 63.999999,44.499999 c -9.107995,0 -16.499998,7.391999 -16.499998,16.5 0,9.107999 7.392003,16.500001 16.499998,16.500001 9.108,0 16.5,-7.392002 16.5,-16.500001 0,-9.108001 -7.392,-16.5 -16.5,-16.5 z m 0,8.249998 c 4.554,0 8.25,3.696001 8.25,8.250002 0,4.554 -3.696,8.249999 -8.25,8.249999 -4.554,0 -8.249996,-3.695999 -8.249996,-8.249999 0,-4.554001 3.696006,-8.250002 8.249996,-8.250002 z"
     id="path3418"
     style="display:inline;overflow:visible;visibility:visible;fill:none;fill-opacity:0.70105821;stroke:url(#linearGradient3545);stroke-width:0.99999994;stroke-linecap:butt;stroke-linejoin:round;stroke-miterlimit:4;stroke-dasharray:none;stroke-dashoffset:0;stroke-opacity:1;marker:none;enable-background:accumulate" />
</svg>
