<?xml version="1.0" encoding="UTF-8" standalone="no"?>
<svg
   xmlns:dc="http://purl.org/dc/elements/1.1/"
   xmlns:cc="http://creativecommons.org/ns#"
   xmlns:rdf="http://www.w3.org/1999/02/22-rdf-syntax-ns#"
   xmlns:svg="http://www.w3.org/2000/svg"
   xmlns="http://www.w3.org/2000/svg"
   xmlns:xlink="http://www.w3.org/1999/xlink"
   id="svg3172"
   height="128"
   width="128"
   version="1.1">
  <defs
     id="defs3174">
    <linearGradient
       id="linearGradient1028">
      <stop
         id="stop1024"
         offset="0"
         style="stop-color:#64baff;stop-opacity:1" />
      <stop
         id="stop1026"
         offset="1"
         style="stop-color:#3689e6;stop-opacity:1" />
    </linearGradient>
    <linearGradient
       xlink:href="#linearGradient1028"
       id="linearGradient842"
       gradientUnits="userSpaceOnUse"
       x1="26.027901"
       y1="-20.975866"
       x2="26.321932"
       y2="68.383598"
       gradientTransform="matrix(1.3043478,0,0,1.3043478,31.982334,28.596299)" />
  </defs>
  <metadata
     id="metadata3177">
    <rdf:RDF>
      <cc:Work
         rdf:about="">
        <dc:format>image/svg+xml</dc:format>
        <dc:type
           rdf:resource="http://purl.org/dc/dcmitype/StillImage" />
        <dc:title />
      </cc:Work>
    </rdf:RDF>
  </metadata>
  <path
     style="fill:#fafafa;fill-opacity:1;stroke:none;display:inline"
     id="path4160"
     d="m 17.499929,1.500412 c 21.311061,0 93.000031,0.007 93.000031,0.007 l 1.1e-4,116.992628 c 0,0 -62.0001,0 -93.00014,0 0,-39.000029 0,-78.000054 0,-117.000079 z" />
  <path
     style="opacity:0.3;fill:none;stroke:#000000;stroke-width:0.99992186;stroke-linecap:butt;stroke-linejoin:round;stroke-miterlimit:4;stroke-opacity:1;stroke-dasharray:none;stroke-dashoffset:0;display:inline"
     id="path4160-4"
     d="m 17.499929,1.5004119 c 21.311061,0 93.000031,0.007 93.000031,0.007 l 1.1e-4,116.9926281 c 0,0 -62.0001,0 -93.00014,0 0,-39.000029 0,-78.000054 0,-117.0000791 z" />
  <path
     style="display:inline;fill:url(#linearGradient842);fill-opacity:1.0;stroke:none;stroke-width:0.50277853"
     d="M 64 30 A 28.043478 29.999999 0 0 0 35.957031 60 A 28.043478 29.999999 0 0 0 64 90 A 28.043478 29.999999 0 0 0 92.042969 60 A 28.043478 29.999999 0 0 0 64 30 z M 64.525391 38.369141 C 75.379286 38.587423 84.181641 47.915076 84.181641 59.689453 C 84.181641 71.463826 75.381608 81.007812 64.525391 81.007812 C 53.6692 81.007812 44.867186 71.463826 44.867188 59.689453 C 44.867188 47.915076 52.417248 38.125635 64.525391 38.369141 z M 60.574219 53.195312 A 6.9236248 4.2880239 86.476133 0 0 56.707031 60.349609 A 6.9236248 4.2880239 86.476133 0 0 61.400391 67.017578 A 6.9236248 4.2880239 86.476133 0 0 65.267578 59.863281 A 6.9236248 4.2880239 86.476133 0 0 60.574219 53.195312 z M 74.072266 53.8125 A 3.6215199 6.3455082 3.7191541 0 0 70.0625 59.943359 A 3.6215199 6.3455082 3.7191541 0 0 73.285156 66.480469 A 3.6215199 6.3455082 3.7191541 0 0 77.294922 60.349609 A 3.6215199 6.3455082 3.7191541 0 0 74.072266 53.8125 z "
     id="path11995-1" />
</svg>
