<?xml version="1.0" encoding="UTF-8" standalone="no"?>
<svg
   xmlns:osb="http://www.openswatchbook.org/uri/2009/osb"
   xmlns:dc="http://purl.org/dc/elements/1.1/"
   xmlns:cc="http://creativecommons.org/ns#"
   xmlns:rdf="http://www.w3.org/1999/02/22-rdf-syntax-ns#"
   xmlns:svg="http://www.w3.org/2000/svg"
   xmlns="http://www.w3.org/2000/svg"
   xmlns:xlink="http://www.w3.org/1999/xlink"
   version="1.1"
   width="128"
   height="128"
   id="svg3172">
  <defs
     id="defs3174">
    <linearGradient
       id="linearGradient854">
      <stop
         style="stop-color:#a56de2;stop-opacity:1"
         offset="0"
         id="stop850" />
      <stop
         style="stop-color:#7239b3;stop-opacity:1"
         offset="1"
         id="stop852" />
    </linearGradient>
    <linearGradient
       id="linearGradient4526"
       osb:paint="solid">
      <stop
         style="stop-color:#ffffff;stop-opacity:1;"
         offset="0"
         id="stop4528" />
    </linearGradient>
    <linearGradient
       xlink:href="#linearGradient854"
       id="linearGradient856"
       x1="60.4459"
       y1="1.5567136"
       x2="60.4459"
       y2="117.92628"
       gradientUnits="userSpaceOnUse" />
  </defs>
  <metadata
     id="metadata3177">
    <rdf:RDF>
      <cc:Work
         rdf:about="">
        <dc:format>image/svg+xml</dc:format>
        <dc:type
           rdf:resource="http://purl.org/dc/dcmitype/StillImage" />
        <dc:title />
      </cc:Work>
    </rdf:RDF>
  </metadata>
  <path
     d="m 17.499929,1.500412 c 21.311061,0 93.000031,0.007 93.000031,0.007 l 1.1e-4,116.992628 c 0,0 -62.0001,0 -93.00014,0 0,-39.000029 0,-78.000054 0,-117.000079 z"
     id="path4160"
     style="fill:#fafafa;fill-opacity:1;stroke:none;display:inline" />
  <path
     d="m 17.499929,1.5004119 c 21.311061,0 93.000031,0.007 93.000031,0.007 l 1.1e-4,116.9926281 c 0,0 -62.0001,0 -93.00014,0 0,-39.000029 0,-78.000054 0,-117.0000791 z"
     id="path4160-4"
     style="opacity:0.3;fill:none;stroke:#000000;stroke-width:0.99992186;stroke-linecap:butt;stroke-linejoin:round;stroke-miterlimit:4;stroke-opacity:1;stroke-dasharray:none;stroke-dashoffset:0;display:inline" />
  <path
     id="text3028-0"
     d="m 63.750004,46.71885 c -2.718756,2.6e-5 -5.246096,0.613306 -7.625,1.9375 l 1.4375,3.125001 c 0.902342,-0.445292 1.863278,-0.808572 2.8125,-1.125 0.949214,-0.316384 1.949212,-0.499978 3.0625,-0.5 1.23046,2.2e-5 2.21874,0.285178 2.875,0.8125 0.656238,0.527366 0.937488,1.265646 0.9375,2.25 -1.2e-5,0.843767 -0.15236,1.578142 -0.5625,2.1875 -0.398448,0.609392 -1.292978,1.460954 -2.6875,2.5625 -1.171882,0.914075 -2.031256,1.769543 -2.5,2.625 -0.468756,0.85548 -0.687504,1.960948 -0.6875,3.25 l 0,1.125 3.4375,0 0,-0.8125 c -8e-6,-0.94921 0.1992,-1.68749 0.5625,-2.25 0.37499,-0.562489 1.097646,-1.26952 2.1875,-2.125 1.277332,-0.996081 2.171862,-1.816392 2.6875,-2.4375 0.52733,-0.621078 0.929672,-1.257796 1.1875,-1.9375 0.257798,-0.691389 0.374984,-1.496074 0.375,-2.375 -1.6e-5,-1.980448 -0.652358,-3.499977 -2,-4.625 -1.347668,-1.124975 -3.203136,-1.687475 -5.5,-1.6875 z m -13.75,1.25 -18,10.000001 0,4 18,10 0,-4 -14,-7.992188 14,-8.007812 0,-4 z m 28,0 0,4.000001 14,8.007812 -14,7.992188 0,4 18,-10 0,-4 -18,-10 z m -15.3125,19.937501 c -1.722662,4e-6 -2.625004,0.917972 -2.625,2.6875 -4e-6,0.855469 0.242184,1.519531 0.6875,2 0.445308,0.46875 1.105462,0.6875 1.9375,0.6875 0.832024,0 1.42968,-0.269532 1.875,-0.75 0.457022,-0.492187 0.68749,-1.105469 0.6875,-1.9375 -1e-5,-0.843746 -0.1797,-1.542967 -0.625,-2 -0.44532,-0.468746 -1.093758,-0.687496 -1.9375,-0.6875 z"
     style="color:#000000;font-style:normal;font-variant:normal;font-weight:600;font-stretch:normal;font-size:18px;line-height:125%;font-family:'Open Sans';-inkscape-font-specification:'Open Sans Semi-Bold';text-align:center;letter-spacing:0px;word-spacing:0px;writing-mode:lr-tb;text-anchor:middle;clip-rule:nonzero;display:inline;overflow:visible;visibility:visible;opacity:1;isolation:auto;mix-blend-mode:normal;color-interpolation:sRGB;color-interpolation-filters:linearRGB;solid-color:#000000;solid-opacity:1;fill:url(#linearGradient856);fill-opacity:1;fill-rule:nonzero;stroke:none;stroke-width:1;stroke-linecap:butt;stroke-linejoin:round;stroke-miterlimit:4;stroke-dasharray:none;stroke-dashoffset:0;stroke-opacity:1;marker:none;color-rendering:auto;image-rendering:auto;shape-rendering:auto;text-rendering:auto;enable-background:accumulate" />
</svg>
