<?xml version="1.0" encoding="UTF-8" standalone="no"?>
<svg
   xmlns:dc="http://purl.org/dc/elements/1.1/"
   xmlns:cc="http://creativecommons.org/ns#"
   xmlns:rdf="http://www.w3.org/1999/02/22-rdf-syntax-ns#"
   xmlns:svg="http://www.w3.org/2000/svg"
   xmlns="http://www.w3.org/2000/svg"
   xmlns:xlink="http://www.w3.org/1999/xlink"
   version="1.1"
   width="128"
   height="128"
   id="svg3172">
  <defs
     id="defs3174">
    <linearGradient
       id="linearGradient2867-449-88-871-390-598-476-591-434-148-57-177-8-3-3">
      <stop
         id="stop3750-1-0-7"
         style="stop-color:#ffcd7d;stop-opacity:1"
         offset="0" />
      <stop
         id="stop3752-3-7-4"
         style="stop-color:#fc8f36;stop-opacity:1"
         offset="0.26238" />
      <stop
         id="stop3754-1-8-5"
         style="stop-color:#e23a0e;stop-opacity:1"
         offset="0.704952" />
      <stop
         id="stop3756-1-6-2"
         style="stop-color:#ac441f;stop-opacity:1"
         offset="1" />
    </linearGradient>
    <radialGradient
       cx="6.5633106"
       cy="9.9571075"
       r="12.671875"
       fx="6.0330806"
       fy="9.9571075"
       id="radialGradient3029-2"
       xlink:href="#linearGradient2867-449-88-871-390-598-476-591-434-148-57-177-8-3-3"
       gradientUnits="userSpaceOnUse"
       gradientTransform="matrix(0,20.070196,-24.639786,0,309.31219,-176.94833)" />
  </defs>
  <metadata
     id="metadata3177">
    <rdf:RDF>
      <cc:Work
         rdf:about="">
        <dc:format>image/svg+xml</dc:format>
        <dc:type
           rdf:resource="http://purl.org/dc/dcmitype/StillImage" />
        <dc:title />
      </cc:Work>
    </rdf:RDF>
  </metadata>
  <path
     d="m 17.499929,1.500412 c 21.311061,0 93.000031,0.007 93.000031,0.007 l 1.1e-4,116.992628 c 0,0 -62.0001,0 -93.00014,0 0,-39.000029 0,-78.000054 0,-117.000079 z"
     id="path4160"
     style="fill:#fafafa;fill-opacity:1;stroke:none;display:inline" />
  <path
     d="m 17.499929,1.5004119 c 21.311061,0 93.000031,0.007 93.000031,0.007 l 1.1e-4,116.9926281 c 0,0 -62.0001,0 -93.00014,0 0,-39.000029 0,-78.000054 0,-117.0000791 z"
     id="path4160-4"
     style="opacity:0.3;fill:none;stroke:#000000;stroke-width:0.99992186;stroke-linecap:butt;stroke-linejoin:round;stroke-miterlimit:4;stroke-opacity:1;stroke-dasharray:none;stroke-dashoffset:0;display:inline" />
  <path
     d="m 67.999999,34 -33.999998,6 0,44 33.999998,6 0,-56 z m 2,8 0,2 22,0 0,26 2,0 0,-26 0,-2 -2,0 -22,0 z m 0,4 0,4.3125 c 0.64032,-0.16512 1.3081,-0.3125 2,-0.3125 l 0,8 8,0 c 0,4.418278 -3.58172,8 -8,8 -0.6919,0 -1.35968,-0.14736 -2,-0.3125 l 0,2.3125 14,0 0,2 -14,0 0,4 14,0 0,2 -14,0 0,6 20,0 0,-36 -20,0 z m 4,2 c 4.41828,0 8,3.581722 8,8 l -8,0 0,-8 z m -22.249998,4.5 c 2.00408,0.03422 3.02166,0.432436 3.875,1.25 1.11312,1.066432 1.57576,2.468512 1.5625,4.9375 -0.0218,4.052498 -2.43778,6.5625 -6.25,6.5625 l -1.4375,0 -0.125,3.25 -0.0624,3.3125 -1.5,-0.125 -1.5625,-0.0625 0,-9.4375 0,-9.4375 3.125,-0.1875 c 0.92354,-0.05238 1.70696,-0.0739 2.375,-0.0625 z m -2.3125,3.375 0,2.875 c 0,1.578194 0.143,2.955506 0.25,3.0625 0.31264,0.31263 1.18156,0.25892 2.25,-0.1875 1.29652,-0.54172 1.8852,-2.234614 1.375,-3.9375 -0.37618,-1.255598 -1.21008,-1.8125 -2.8125,-1.8125 l -1.0625,0 z"
     id="path3065-3"
     style="color:#000000;clip-rule:nonzero;display:inline;overflow:visible;visibility:visible;opacity:1;isolation:auto;mix-blend-mode:normal;color-interpolation:sRGB;color-interpolation-filters:linearRGB;solid-color:#000000;solid-opacity:1;fill:url(#radialGradient3029-2);fill-opacity:1;fill-rule:nonzero;stroke:none;stroke-width:0.99999994;stroke-linecap:butt;stroke-linejoin:miter;stroke-miterlimit:4;stroke-dasharray:none;stroke-dashoffset:0;stroke-opacity:1;marker:none;color-rendering:auto;image-rendering:auto;shape-rendering:auto;text-rendering:auto;enable-background:accumulate" />
</svg>
