<?xml version="1.0" encoding="UTF-8" standalone="no"?>
<svg
   xmlns:dc="http://purl.org/dc/elements/1.1/"
   xmlns:cc="http://creativecommons.org/ns#"
   xmlns:rdf="http://www.w3.org/1999/02/22-rdf-syntax-ns#"
   xmlns:svg="http://www.w3.org/2000/svg"
   xmlns="http://www.w3.org/2000/svg"
   xmlns:xlink="http://www.w3.org/1999/xlink"
   id="svg3172"
   height="128"
   width="128"
   version="1.1">
  <defs
     id="defs3174">
    <radialGradient
       r="12.671875"
       fy="9.9941158"
       fx="8.276144"
       cy="9.9941158"
       cx="8.276144"
       gradientTransform="matrix(0,20.003199,-24.504002,0,309.11225,-193.38737)"
       gradientUnits="userSpaceOnUse"
       id="radialGradient3897"
       xlink:href="#linearGradient3242-4" />
    <linearGradient
       id="linearGradient3242-4">
      <stop
         offset="0"
         style="stop-color:#f89b7e;stop-opacity:1"
         id="stop3244-7" />
      <stop
         offset="0.26238"
         style="stop-color:#e35d4f;stop-opacity:1"
         id="stop3246-1" />
      <stop
         offset="0.66093999"
         style="stop-color:#c6262e;stop-opacity:1"
         id="stop3248-5" />
      <stop
         offset="1"
         style="stop-color:#690b2c;stop-opacity:1"
         id="stop3250-7" />
    </linearGradient>
  </defs>
  <metadata
     id="metadata3177">
    <rdf:RDF>
      <cc:Work
         rdf:about="">
        <dc:format>image/svg+xml</dc:format>
        <dc:type
           rdf:resource="http://purl.org/dc/dcmitype/StillImage" />
        <dc:title />
      </cc:Work>
    </rdf:RDF>
  </metadata>
  <path
     style="fill:#fafafa;fill-opacity:1;stroke:none;display:inline"
     id="path4160"
     d="m 17.499929,1.500412 c 21.311061,0 93.000031,0.007 93.000031,0.007 l 1.1e-4,116.992628 c 0,0 -62.0001,0 -93.00014,0 0,-39.000029 0,-78.000054 0,-117.000079 z" />
  <path
     style="opacity:0.3;fill:none;stroke:#000000;stroke-width:0.99992186;stroke-linecap:butt;stroke-linejoin:round;stroke-miterlimit:4;stroke-opacity:1;stroke-dasharray:none;stroke-dashoffset:0;display:inline"
     id="path4160-4"
     d="m 17.499929,1.5004119 c 21.311061,0 93.000031,0.007 93.000031,0.007 l 1.1e-4,116.9926281 c 0,0 -62.0001,0 -93.00014,0 0,-39.000029 0,-78.000054 0,-117.0000791 z" />
  <path
     style="color:#000000;clip-rule:nonzero;display:inline;overflow:visible;visibility:visible;opacity:1;isolation:auto;mix-blend-mode:normal;color-interpolation:sRGB;color-interpolation-filters:linearRGB;solid-color:#000000;solid-opacity:1;fill:url(#radialGradient3897);fill-opacity:1;fill-rule:nonzero;stroke:none;stroke-width:0.99999994;stroke-linecap:butt;stroke-linejoin:miter;stroke-miterlimit:4;stroke-dasharray:none;stroke-dashoffset:0;stroke-opacity:1;marker:none;color-rendering:auto;image-rendering:auto;shape-rendering:auto;text-rendering:auto;enable-background:accumulate"
     id="path4255"
     d="m 67.999995,34.000001 -34,6 0,43.999999 34,6 0,-55.999999 z M 74.562495,42 c -0.639776,0.0062 -1.28977,0.0379 -1.9375,0.0625 l -2.625,0.0625 0,5.062501 0,5.062499 1.000001,0.125 c 1.993602,0.250277 6.683639,0.17522 9.812499,-0.125 8.417124,-0.807422 13.72261,-3.120062 12.8125,-5.5625 C 92.603929,43.947315 84.159149,41.91805 74.562495,42 Z m 19.4375,6.875 -0.75,0.875 c -0.988094,1.1879 -3.715872,2.451923 -7.0625,3.1875 -2.06781,0.454491 -4.301789,0.626528 -9.4375,0.75 l -6.75,0.125001 0,3.937499 0,3.875001 6.562501,-0.1875 c 5.198687,-0.123081 7.226009,-0.301263 9.562499,-0.812501 3.371398,-0.737681 5.997968,-1.797365 7,-2.875 l 0.6875,-0.75 0.125,-4.0625 0.0625,-4.0625 z m -44.5625,3.5 2,0 c 1.66588,0 2.06232,0.07778 2.1875,0.5 0.0832,0.280726 1.24824,4.589584 2.625,9.5625 1.37676,4.972916 2.55526,9.17448 2.625,9.375 0.0924,0.265572 -0.34756,0.391775 -1.5625,0.375 -0.91736,-0.0126 -1.81092,-0.1104 -2,-0.1875 -0.189,-0.0771 -0.53112,-1.118934 -0.812499,-2.312499 l -0.562501,-2.125001 -2.625,0 -2.6875,0 -0.4375,1.9375 -0.375,2 -1.875,0.0625 -1.8125,0.0625 0.125,-0.499999 c 0.0878,-0.288733 1.11642,-3.954169 2.25,-8.125001 1.13358,-4.170833 2.259801,-8.220311 2.5,-9.0625 l 0.4375,-1.5625 z m 1.875,4.5 c -0.0822,0.02286 -0.46602,1.288202 -0.875,2.9375 -0.43622,1.759256 -0.853159,3.40677 -0.9375,3.687501 -0.135,0.449247 0.09214,0.562499 1.75,0.562499 l 1.875,0 -0.875,-3.4375 c -0.47014,-1.884896 -0.89226,-3.594912 -0.9375,-3.75 z m 42.6875,1.250001 -0.875,0.937499 C 90.843283,61.533402 83.479529,63.089232 74.437495,63 l -4.25,-0.0625 -0.125,3.75 -0.0625,3.75 0.5,0.1875 c 1.092799,0.32987 11.519996,-0.09068 14.125,-0.5625 3.63651,-0.658658 6.968716,-1.784055 8.1875,-2.8125 l 1,-0.874999 0.125,-4.125 0.0625,-4.125 z m 0,8.999999 -0.875,1.0625 c -2.130442,2.454572 -8.678642,3.902176 -17.875,3.9375 l -5.25,0 0,3.8125 0,3.8125 1.5625,0.125 c 3.165231,0.223997 4.31728,0.17366 8.1875,-0.125 6.549536,-0.505414 11.550506,-1.835735 13.1875,-3.5625 l 0.875,-0.937499 0.125,-4.062501 0.0625,-4.0625 z" />
</svg>
