<?xml version="1.0" encoding="UTF-8" standalone="no"?>
<svg
   xmlns:dc="http://purl.org/dc/elements/1.1/"
   xmlns:cc="http://creativecommons.org/ns#"
   xmlns:rdf="http://www.w3.org/1999/02/22-rdf-syntax-ns#"
   xmlns:svg="http://www.w3.org/2000/svg"
   xmlns="http://www.w3.org/2000/svg"
   xmlns:xlink="http://www.w3.org/1999/xlink"
   id="svg3172"
   height="128"
   width="128"
   version="1.1">
  <defs
     id="defs3174">
    <linearGradient
       gradientUnits="userSpaceOnUse"
       y2="115.91026"
       x2="65.598175"
       y1="4.6840158"
       x1="65.598175"
       id="linearGradient4521"
       xlink:href="#linearGradient4515" />
    <linearGradient
       id="linearGradient4515">
      <stop
         id="stop4517"
         offset="0"
         style="stop-color:#67614f;stop-opacity:1" />
      <stop
         id="stop4519"
         offset="1"
         style="stop-color:#4b473a;stop-opacity:1" />
    </linearGradient>
  </defs>
  <metadata
     id="metadata3177">
    <rdf:RDF>
      <cc:Work
         rdf:about="">
        <dc:format>image/svg+xml</dc:format>
        <dc:type
           rdf:resource="http://purl.org/dc/dcmitype/StillImage" />
        <dc:title />
      </cc:Work>
    </rdf:RDF>
  </metadata>
  <path
     style="fill:#fafafa;fill-opacity:1;stroke:none;display:inline"
     id="path4160"
     d="m 17.499929,1.500412 c 21.311061,0 93.000031,0.007 93.000031,0.007 l 1.1e-4,116.992628 c 0,0 -62.0001,0 -93.00014,0 0,-39.000029 0,-78.000054 0,-117.000079 z" />
  <path
     style="opacity:0.3;fill:none;stroke:#000000;stroke-width:0.99992186;stroke-linecap:butt;stroke-linejoin:round;stroke-miterlimit:4;stroke-opacity:1;stroke-dasharray:none;stroke-dashoffset:0;display:inline"
     id="path4160-4"
     d="m 17.499929,1.5004119 c 21.311061,0 93.000031,0.007 93.000031,0.007 l 1.1e-4,116.9926281 c 0,0 -62.0001,0 -93.00014,0 0,-39.000029 0,-78.000054 0,-117.0000791 z" />
  <path
     id="path4323"
     d="m 88.418118,38.853261 c -0.0961,-0.03359 -0.196621,-0.02966 -0.296869,0.01959 -0.2406,0.118059 -0.45229,0.502469 -0.66014,1.124977 -0.490756,1.469849 -3.632239,10.61447 -19.675384,13.07786 a 7.975016,7.9772376 0 0 1 4.339757,7.097514 7.975016,7.9772376 0 0 1 -7.976401,7.9764 7.975016,7.9772376 0 0 1 -7.257666,-4.687405 6.3293777,6.3311408 0 0 1 -5.320206,2.914003 6.3293777,6.3311408 0 0 1 -6.285027,-5.613167 c -0.202589,0.407085 -0.445201,0.820705 -0.789047,1.242161 -0.122777,-0.191535 -0.197196,-0.407182 -0.332024,-0.593737 -0.812902,-1.124668 -1.7666,-2.07244 -2.781195,-2.777287 -1.165773,-0.809872 -2.377664,-1.343971 -3.574145,-1.5195 -1.379419,-0.202368 -2.713541,0.09602 -3.773361,0.859357 -1.060143,0.763561 -1.679312,1.933393 -1.921835,3.304621 -0.210247,1.188733 -0.136477,2.476303 0.265618,3.83586 0.35,1.183385 0.910083,2.375221 1.722622,3.49993 0.858392,1.188169 1.925464,2.242685 3.042907,2.976501 1.260248,0.827588 2.596631,1.311151 3.906171,1.386689 0.405236,0.02337 0.819039,-0.0765 1.191383,-0.132816 8.48183,6.713019 25.320422,12.977834 36.479728,5.816287 0.241388,0.08202 0.483902,0.181917 0.726546,0.26562 0.0059,0.11466 -0.03014,0.229874 0,0.332024 l 0.53124,-0.199217 c 0.09424,0.02989 0.165476,0.104618 0.261713,0.132818 0.02063,0.0061 0.04566,-0.0059 0.0664,0 l 0.199216,0.195317 5.031147,1.785121 c -0.206405,1.74413 0.658626,3.726226 2.847603,4.562408 3.942119,1.505791 7.613129,3.433448 7.613129,3.433448 -1.880429,-6.372598 -2.56614,-11.485181 -7.48032,-11.034933 -0.914329,0.08378 -1.603912,0.458863 -2.117142,0.992169 l -4.437411,-2.843693 -0.199215,0 -0.0664,-0.0664 c 5.972938,-5.868572 9.464888,-16.897465 7.347508,-36.085207 -0.0919,-0.719156 -0.34056,-1.176545 -0.62889,-1.277319 z m -42.530387,5.835821 -0.265618,11.898196 c 0,0 0.103278,0.365562 0.187497,0.859357 a 6.3293777,6.3311408 0 0 1 5.761599,-3.730393 6.3293777,6.3311408 0 0 1 5.390518,3.023377 7.975016,7.9772376 0 0 1 2.628853,-3.097595 C 50.006381,53.136144 45.887731,44.689082 45.887731,44.689082 Z m 6.663929,11.81226 a 4.4317987,4.3473836 0 0 0 -1.320288,0.199216 2.1943859,2.1525882 0 0 1 1.277318,1.953086 2.1943859,2.1525882 0 0 1 -2.195265,2.1523 2.1943859,2.1525882 0 0 1 -1.99215,-1.249975 4.4317987,4.3473836 0 0 0 -0.203119,1.292943 4.4317987,4.3473836 0 0 0 4.433504,4.347567 4.4317987,4.3473836 0 0 0 4.429597,-4.347567 4.4317987,4.3473836 0 0 0 -4.429597,-4.34757 z m 13.335666,0.843733 a 4.4317987,4.3473836 0 0 0 -1.320284,0.199216 2.1943859,2.1525882 0 0 1 1.277318,1.953086 2.1943859,2.1525882 0 0 1 -2.195269,2.152301 2.1943859,2.1525882 0 0 1 -1.988242,-1.249976 4.4317987,4.3473836 0 0 0 -0.20312,1.292942 4.4317987,4.3473836 0 0 0 4.429597,4.347568 4.4317987,4.3473836 0 0 0 4.433504,-4.347568 4.4317987,4.3473836 0 0 0 -4.433504,-4.347567 z M 37.036349,59.96221 a 2.3036465,2.5746637 0 0 1 2.304642,2.574165 2.3036465,2.5746637 0 0 1 -2.304642,2.574168 2.3036465,2.5746637 0 0 1 -2.304641,-2.574168 2.3036465,2.5746637 0 0 1 2.304641,-2.574165 z"
     style="color:#000000;clip-rule:nonzero;display:inline;overflow:visible;visibility:visible;opacity:1;isolation:auto;mix-blend-mode:normal;color-interpolation:sRGB;color-interpolation-filters:linearRGB;solid-color:#000000;solid-opacity:1;fill:url(#linearGradient4521);fill-opacity:1;fill-rule:nonzero;stroke:none;stroke-width:1;stroke-linecap:butt;stroke-linejoin:miter;stroke-miterlimit:4;stroke-dasharray:none;stroke-dashoffset:0;stroke-opacity:1;marker:none;color-rendering:auto;image-rendering:auto;shape-rendering:auto;text-rendering:auto;enable-background:accumulate" />
</svg>
