<?xml version="1.0" encoding="UTF-8" standalone="no"?>
<svg
   xmlns:dc="http://purl.org/dc/elements/1.1/"
   xmlns:cc="http://creativecommons.org/ns#"
   xmlns:rdf="http://www.w3.org/1999/02/22-rdf-syntax-ns#"
   xmlns:svg="http://www.w3.org/2000/svg"
   xmlns="http://www.w3.org/2000/svg"
   id="svg3172"
   height="128"
   width="128"
   version="1.1">
  <defs
     id="defs3174" />
  <metadata
     id="metadata3177">
    <rdf:RDF>
      <cc:Work
         rdf:about="">
        <dc:format>image/svg+xml</dc:format>
        <dc:type
           rdf:resource="http://purl.org/dc/dcmitype/StillImage" />
        <dc:title />
      </cc:Work>
    </rdf:RDF>
  </metadata>
  <path
     style="fill:#fafafa;fill-opacity:1;stroke:none;display:inline"
     id="path4160"
     d="m 17.499929,1.500412 c 21.311061,0 93.000031,0.007 93.000031,0.007 l 1.1e-4,116.992628 c 0,0 -62.0001,0 -93.00014,0 0,-39.000029 0,-78.000054 0,-117.000079 z" />
  <path
     style="opacity:0.3;fill:none;stroke:#000000;stroke-width:0.99992186;stroke-linecap:butt;stroke-linejoin:round;stroke-miterlimit:4;stroke-opacity:1;stroke-dasharray:none;stroke-dashoffset:0;display:inline"
     id="path4160-4"
     d="m 17.499929,1.5004119 c 21.311061,0 93.000031,0.007 93.000031,0.007 l 1.1e-4,116.9926281 c 0,0 -62.0001,0 -93.00014,0 0,-39.000029 0,-78.000054 0,-117.0000791 z" />
  <path
     style="color:#000000;fill:#343434;fill-opacity:1;fill-rule:nonzero;stroke:#343434;stroke-width:1;stroke-linecap:round;stroke-linejoin:round;stroke-miterlimit:4;stroke-opacity:1;stroke-dasharray:none;stroke-dashoffset:0;marker:none;visibility:visible;display:inline;overflow:visible;enable-background:accumulate"
     id="rect2382"
     d="m 62.83292,35.500226 c -1.635324,-0.0098 -3.071234,0.303641 -4.048594,0.952971 -1.260923,0.837723 -1.81687,0.944053 -2.16889,0.366528 -0.336804,-0.552541 -0.643114,-0.490812 -0.939852,0.29322 -0.250942,0.663063 -0.775522,0.965768 -1.373631,0.733054 -0.570263,-0.221894 -0.804109,-0.15042 -0.57837,0.219925 0.216922,0.355921 0.110872,0.659745 -0.216896,0.659745 -0.327762,0 -1.377458,1.122848 -2.313482,2.492383 -1.492112,2.183153 -1.735494,3.180938 -1.735113,7.770366 2.06e-4,2.879505 0.284568,5.683276 -0.578372,5.86443 -0.506114,0.106256 -0.457931,2.107662 -0.216895,4.178405 0.315203,2.707863 0.786012,4.034422 2.096594,5.277984 2.041309,1.936911 3.904002,5.289748 3.904002,7.110621 0,2.548899 -6.273113,7.131674 -15.163421,11.182917 l 0,5.897228 c 18.507865,0 48,0 48,0 l 0,-6.15765 C 79.656026,79.032146 72.737506,73.957214 72.737506,71.419858 c 0,-1.816475 1.792443,-5.175656 3.831704,-7.110621 1.310566,-1.243562 1.853692,-2.570121 2.168892,-5.277984 0.241022,-2.070743 0.273608,-4.013154 -0.216896,-4.178405 -0.675858,-0.227699 -0.65066,-3.008537 -0.65066,-5.86443 -3e-6,-4.093686 -0.256971,-5.617118 -1.301336,-7.330534 -2.078135,-3.409426 -8.830327,-6.128245 -13.736305,-6.15765 z" />
</svg>
