<?xml version="1.0" encoding="UTF-8" standalone="no"?>
<svg
   xmlns:dc="http://purl.org/dc/elements/1.1/"
   xmlns:cc="http://creativecommons.org/ns#"
   xmlns:rdf="http://www.w3.org/1999/02/22-rdf-syntax-ns#"
   xmlns:svg="http://www.w3.org/2000/svg"
   xmlns="http://www.w3.org/2000/svg"
   xmlns:xlink="http://www.w3.org/1999/xlink"
   version="1.1"
   width="128"
   height="128"
   id="svg3099"
   viewBox="0 0 128 128">
  <defs
     id="defs3101">
    <linearGradient
       x1="22.004084"
       y1="47.813133"
       x2="22.004084"
       y2="3.3638515"
       id="linearGradient3046"
       xlink:href="#linearGradient3104-5"
       gradientUnits="userSpaceOnUse"
       gradientTransform="matrix(-2.6571407,0,0,2.6479618,131.57103,-7.610255)" />
    <linearGradient
       id="linearGradient3104-5">
      <stop
         id="stop3106-2"
         style="stop-color:#aaaaaa;stop-opacity:1"
         offset="0" />
      <stop
         id="stop3108-5"
         style="stop-color:#c8c8c8;stop-opacity:1"
         offset="1" />
    </linearGradient>
  </defs>
  <metadata
     id="metadata3104">
    <rdf:RDF>
      <cc:Work
         rdf:about="">
        <dc:format>image/svg+xml</dc:format>
        <dc:type
           rdf:resource="http://purl.org/dc/dcmitype/StillImage" />
        <dc:title />
      </cc:Work>
    </rdf:RDF>
  </metadata>
  <path
     style="display:inline;fill:#fafafa;fill-opacity:1;stroke:none"
     id="path4160"
     d="m 17.499929,1.500412 c 21.311061,0 93.000031,0.007 93.000031,0.007 l 1.1e-4,116.992628 c 0,0 -62.0001,0 -93.00014,0 0,-39.000029 0,-78.000054 0,-117.000079 z" />
  <path
     style="display:inline;opacity:0.3;fill:none;stroke:#000000;stroke-width:0.99992186;stroke-linecap:butt;stroke-linejoin:round;stroke-miterlimit:4;stroke-dasharray:none;stroke-dashoffset:0;stroke-opacity:1"
     id="path4160-4"
     d="m 17.499929,1.500412 c 21.311061,0 93.000031,0.007 93.000031,0.007 l 1.1e-4,116.992628 c 0,0 -62.0001,0 -93.00014,0 0,-39.000029 0,-78.000054 0,-117.000079 z" />
  <path
     style="fill:none;stroke:url(#linearGradient3046);stroke-width:1px;stroke-linecap:butt;stroke-linejoin:miter;stroke-opacity:1"
     id="path3475"
     d="m 97.075768,22.5 h -6.227673 z m -7.141065,0 h -5.812494 z m -6.725886,0 h -5.148211 z m -5.978568,0 h -2.241962 z m -3.155354,0 h -4.982139 z m -5.978566,0 H 54.976696 Z m -13.949988,0 H 44.099027 Z m -10.877672,0 H 40.19635 Z m 53.807099,6 h -9.715169 z m -10.794632,0 H 81.63114 Z m -5.480353,0 h -2.324999 z m -3.238391,0 h -4.234817 z m -5.148209,0 h -4.317854 z m -5.148211,0 h -6.891958 z m -7.80535,0 h -8.96785 z m -9.798207,0 h -5.978566 z m -6.808923,0 h -1.494643 z m 54.222276,5.958625 h -8.220527 z m -9.050885,0 H 74.57311 Z m -14.28213,0 h -6.559816 z m -7.390173,0 h -6.144638 z m -6.974993,0 h -5.231246 z m -6.061603,0 -8.22053,0.08275 z m -8.96785,0.08275 H 30.979395 Z M 97.075768,40.5 H 85.699886 Z m -12.289274,0 H 72.497218 Z m -13.119633,0 h -4.899104 z m -5.729459,0 H 54.395446 Z m -12.289276,0 h -7.888387 z m -8.801778,0 h -3.155356 z m -3.985711,0 h -1.743749 z m -2.657142,0 h -4.899103 z m 58.872273,6 H 92.84095 Z m -5.563388,0 H 75.818644 Z m 5.563388,10 h -6.227673 z m -7.141065,0 h -5.729459 z m -6.725886,0 h -5.148211 z m -5.978568,0 h -2.241962 z m -3.155354,0 h -4.982139 z m -5.978566,0 H 55.059733 Z m -13.949988,0 h -9.964279 z m -10.794634,0 H 40.19635 Z m -3.985712,0 h -7.473208 z m 57.709773,6 H 86.613279 Z m -11.292847,0 H 74.57311 Z m -12.040168,0 h -4.317854 z m -5.148211,0 H 58.049015 Z m -11.375882,0 H 43.932956 Z m -14.199096,0 H 38.12046 Z m 54.056204,6 H 85.699886 Z m -12.289274,0 H 72.497218 Z m -13.119633,0 h -4.899104 z m -5.729459,0 H 54.395446 Z m -12.289276,0 h -7.888387 z m -8.801778,0 h -3.155356 z m -3.985711,0 h -1.743749 z m -2.657142,0 h -4.899103 z m 58.872273,6 h -9.715169 z m -10.794632,0 H 81.63114 Z m -5.480353,0 h -2.324999 z m -3.238391,0 h -4.234817 z m -5.148209,0 h -4.317854 z m -5.148211,0 h -6.891958 z m -7.80535,0 h -8.96785 z m -9.798207,0 h -5.978566 z m -6.808923,0 h -1.494643 z m 54.222276,9.958635 h -8.220527 z m -9.050885,0 H 74.57311 Z m -14.28213,0 h -6.559816 z m -7.390173,0 h -6.144638 z m -6.974993,0 h -5.231246 z m -6.061603,0 -8.22053,0.08273 z m -8.96785,0.08273 H 30.979395 Z M 97.075768,90.5 h -9.715169 z m -10.794632,0 H 81.63114 Z m -5.480353,0 h -2.324999 z m -3.238391,0 h -4.234817 z m -5.148209,0 h -4.317854 z m -5.148211,0 h -6.891958 z m -7.80535,0 h -8.96785 z m -9.798207,0 h -5.978566 z m -6.808923,0 h -1.494643 z m 54.222276,6 H 86.779349 Z m -11.209811,0 h -3.23839 z m -4.068747,0 h -7.390172 z m -8.220528,0 H 62.699011 Z m -11.791063,0 h -7.390173 z m -8.137493,0 h -1.577677 z m -2.408034,0 h -9.383028 z m -10.379455,0 h -4.899104 z m 56.215131,6 H 86.779349 Z m -11.209811,0 H 81.21596 Z m -5.480352,0 h -7.307137 z m -8.137494,0 h -7.888386 z m -8.801778,0 h -3.155354 z m -3.985711,0 h -1.743749 z m -2.657142,0 h -4.899103 z" />
  <path
     d="m 110.50032,38.207204 -80.287257,80.292776 80.287257,-10e-4 z m -16.000003,37.002289 0,27.290527 -27.29507,-8e-5 z"
     id="path2993"
     style="display:inline;overflow:visible;visibility:visible;opacity:0.8;fill:#e9e9e9;fill-opacity:1;fill-rule:evenodd;stroke:#83899a;stroke-width:1px;stroke-linecap:butt;stroke-linejoin:miter;stroke-miterlimit:4;stroke-dasharray:none;stroke-dashoffset:0;stroke-opacity:1;marker:none;enable-background:accumulate" />
</svg>
