<?xml version="1.0" encoding="UTF-8" standalone="no"?>
<svg
   xmlns:dc="http://purl.org/dc/elements/1.1/"
   xmlns:cc="http://creativecommons.org/ns#"
   xmlns:rdf="http://www.w3.org/1999/02/22-rdf-syntax-ns#"
   xmlns:svg="http://www.w3.org/2000/svg"
   xmlns="http://www.w3.org/2000/svg"
   id="svg3172"
   height="128"
   width="128"
   version="1.1">
  <defs
     id="defs3174" />
  <metadata
     id="metadata3177">
    <rdf:RDF>
      <cc:Work
         rdf:about="">
        <dc:format>image/svg+xml</dc:format>
        <dc:type
           rdf:resource="http://purl.org/dc/dcmitype/StillImage" />
        <dc:title />
      </cc:Work>
    </rdf:RDF>
  </metadata>
  <path
     style="fill:#fafafa;fill-opacity:1;stroke:none;display:inline"
     id="path4160"
     d="m 17.499929,1.500412 c 21.311061,0 93.000031,0.007 93.000031,0.007 l 1.1e-4,116.992628 c 0,0 -62.0001,0 -93.00014,0 0,-39.000029 0,-78.000054 0,-117.000079 z" />
  <path
     style="opacity:0.3;fill:none;stroke:#000000;stroke-width:0.99992186;stroke-linecap:butt;stroke-linejoin:round;stroke-miterlimit:4;stroke-opacity:1;stroke-dasharray:none;stroke-dashoffset:0;display:inline"
     id="path4160-4"
     d="m 17.499929,1.5004119 c 21.311061,0 93.000031,0.007 93.000031,0.007 l 1.1e-4,116.9926281 c 0,0 -62.0001,0 -93.00014,0 0,-39.000029 0,-78.000054 0,-117.0000791 z" />
  <path
     id="path4194"
     d="m 50.49999,45 c -0.831,0 -1.5,0.669 -1.5,1.5 l 0,26.999998 c 0,0.831 0.669,1.5 1.5,1.5 l 24.99999,0 c 0.831,0 1.5,-0.669 1.5,-1.5 l 0,-26.999997 c 0,-0.831 -0.669,-1.5 -1.5,-1.5 l -24.99999,0 z m 0.5,2 2,0 0,2 -2,0 0,-2 z m 5,0 13.99999,0 c 0.55402,0 1,0.446 1,1 l 0,10 c 0,0.554 -0.44598,1 -1,1 l -13.99999,0 c -0.554,0 -1,-0.446 -1,-1 l 0,-10 c 0,-0.554 0.446,-1 1,-1 z m 16.99999,0 2,0 0,2 -2,0 0,-2 z m -21.99999,4 2,0 0,2 -2,0 0,-2 z m 21.99999,0 2,0 0,2 -2,0 0,-2 z m -21.99999,4 2,0 0,2 -2,0 0,-2 z m 21.99999,0 2,0 0,2 -2,0 0,-2 z m -21.99999,4 2,0 0,2 -2,0 0,-2 z m 21.99999,0 2,0 0,2 -2,0 0,-2 z m -16.99999,2 13.99999,0 c 0.55402,0 1,0.445999 1,0.999999 l 0,10 c 0,0.553999 -0.44598,0.999999 -1,0.999999 l -13.99999,0 c -0.554,0 -1,-0.446 -1,-0.999999 l 0,-10 c 0,-0.553999 0.446,-0.999999 1,-0.999999 z m -5,1.999999 2,0 0,2 -2,0 0,-2 z m 21.99999,0 2,0 0,2 -2,0 0,-2 z m -21.99999,4 2,0 0,2 -2,0 0,-2 z m 21.99999,0 2,0 0,2 -2,0 0,-2 z m -21.99999,4 2,0 0,1.999999 -2,0 0,-1.999999 z m 21.99999,0 2,0 0,1.999999 -2,0 0,-1.999999 z M 34,105 a 2.9999997,2.9999997 0 0 0 -3,3 2.9999997,2.9999997 0 0 0 3,3 2.9999997,2.9999997 0 0 0 3,-3 2.9999997,2.9999997 0 0 0 -3,-3 z m 10,0 a 2.9999997,2.9999997 0 0 0 -3,3 2.9999997,2.9999997 0 0 0 3,3 2.9999997,2.9999997 0 0 0 2.99999,-3 A 2.9999997,2.9999997 0 0 0 44,105 Z m 9.99999,0 a 2.9999997,2.9999997 0 0 0 -3,3 2.9999997,2.9999997 0 0 0 3,3 2.9999997,2.9999997 0 0 0 3,-3 2.9999997,2.9999997 0 0 0 -3,-3 z m 9.99999,0 a 2.9999997,2.9999997 0 0 0 -2.99999,3 2.9999997,2.9999997 0 0 0 2.99999,3 2.9999997,2.9999997 0 0 0 3,-3 2.9999997,2.9999997 0 0 0 -3,-3 z m 10,0 a 2.9999997,2.9999997 0 0 0 -3,3 2.9999997,2.9999997 0 0 0 3,3 2.9999997,2.9999997 0 0 0 3,-3 2.9999997,2.9999997 0 0 0 -3,-3 z m 10,0 a 2.9999997,2.9999997 0 0 0 -3,3 2.9999997,2.9999997 0 0 0 3,3 2.9999997,2.9999997 0 0 0 3,-3 2.9999997,2.9999997 0 0 0 -3,-3 z M 94,105 a 2.9999997,2.9999997 0 0 0 -3,3 2.9999997,2.9999997 0 0 0 3,3 2.9999997,2.9999997 0 0 0 3,-3 2.9999997,2.9999997 0 0 0 -3,-3 z"
     style="opacity:1;fill:#7e8087;fill-opacity:1;stroke:none;stroke-width:2;stroke-miterlimit:4;stroke-dasharray:none;stroke-opacity:1" />
</svg>
