<?xml version="1.0" encoding="UTF-8" standalone="no"?>
<svg
   xmlns:dc="http://purl.org/dc/elements/1.1/"
   xmlns:cc="http://creativecommons.org/ns#"
   xmlns:rdf="http://www.w3.org/1999/02/22-rdf-syntax-ns#"
   xmlns:svg="http://www.w3.org/2000/svg"
   xmlns="http://www.w3.org/2000/svg"
   xmlns:xlink="http://www.w3.org/1999/xlink"
   version="1.1"
   id="svg3172"
   height="128"
   width="128">
  <defs
     id="defs3174">
    <linearGradient
       y2="2.9062471"
       x2="-51.786404"
       y1="50.786446"
       x1="-51.786404"
       gradientTransform="matrix(2.1456328,0,0,2.3791386,158.08997,-7.746077)"
       gradientUnits="userSpaceOnUse"
       id="linearGradient3098"
       xlink:href="#linearGradient3104" />
    <linearGradient
       id="linearGradient3104">
      <stop
         id="stop3106"
         style="stop-color:#a0a0a0;stop-opacity:1;"
         offset="0" />
      <stop
         id="stop3108-4"
         style="stop-color:#bebebe;stop-opacity:1;"
         offset="1" />
    </linearGradient>
  </defs>
  <metadata
     id="metadata3177">
    <rdf:RDF>
      <cc:Work
         rdf:about="">
        <dc:format>image/svg+xml</dc:format>
        <dc:type
           rdf:resource="http://purl.org/dc/dcmitype/StillImage" />
        <dc:title />
      </cc:Work>
    </rdf:RDF>
  </metadata>
  <path
     style="display:inline;fill:#fafafa;fill-opacity:1;stroke:url(#linearGradient3098);stroke-width:0.99992186;stroke-linecap:butt;stroke-linejoin:round;stroke-miterlimit:4;stroke-dasharray:none;stroke-dashoffset:0;stroke-opacity:1"
     id="path4160"
     d="m 17.499929,1.500412 c 21.311061,0 93.000031,0.007 93.000031,0.007 l 1.1e-4,116.992628 c 0,0 -62.0001,0 -93.00014,0 0,-39.000029 0,-78.000054 0,-117.000079 z" />
  <path
     d="m 49,58.609971 c 0.737562,2.004968 1.567741,3.629942 3.336113,1.407977 2.192387,-1.304579 9.538255,-7.022088 8.803211,-1.421777 -2.352145,10.363634 -5.215223,20.61807 -7.404374,31.013704 -2.289065,5.691909 2.908958,10.840225 8.336071,7.139085 5.76867,-2.378362 10.732598,-6.2517 15.803809,-9.805043 -0.691931,-1.696773 -1.153116,-4.134534 -3.064995,-1.915369 -2.5104,1.139182 -7.993382,6.511696 -9.012022,2.080967 2.108712,-11.222021 6.015678,-22.028248 8.513078,-33.16087 C 76.609142,48.830127 72.85564,42.362831 67.237078,46.596763 60.505896,49.528516 54.876858,54.317639 49,58.609971 Z M 73.981594,20.866775 c -6.8678,-0.364595 -10.458522,10.706828 -3.932099,13.73638 5.294837,2.171365 11.059971,-3.258948 9.766464,-8.685461 -0.40142,-2.825755 -2.938225,-5.146118 -5.834363,-5.050919 l -2e-6,0 z"
     id="text3482"
     style="font-style:normal;font-variant:normal;font-weight:bold;font-stretch:normal;font-size:40px;line-height:100%;font-family:'URW Palladio L';-inkscape-font-specification:'URW Palladio L Bold';text-align:start;writing-mode:lr-tb;text-anchor:start;opacity:1;fill:#7e8087;fill-opacity:1;stroke:none" />
</svg>
