<?xml version="1.0" encoding="UTF-8" standalone="no"?>
<svg
   xmlns:dc="http://purl.org/dc/elements/1.1/"
   xmlns:cc="http://creativecommons.org/ns#"
   xmlns:rdf="http://www.w3.org/1999/02/22-rdf-syntax-ns#"
   xmlns:svg="http://www.w3.org/2000/svg"
   xmlns="http://www.w3.org/2000/svg"
   xmlns:xlink="http://www.w3.org/1999/xlink"
   id="svg3172"
   height="128"
   width="128"
   version="1.1">
  <defs
     id="defs3174">
    <linearGradient
       gradientTransform="matrix(2.3106154,0,0,2.3106154,-9.9396925,-9.3183497)"
       gradientUnits="userSpaceOnUse"
       y2="55.101532"
       x2="32.724728"
       y1="4.8638339"
       x1="32.724728"
       id="linearGradient1030"
       xlink:href="#linearGradient1028" />
    <linearGradient
       id="linearGradient1028">
      <stop
         id="stop1024"
         offset="0"
         style="stop-color:#64baff;stop-opacity:1" />
      <stop
         id="stop1026"
         offset="1"
         style="stop-color:#3689e6;stop-opacity:1" />
    </linearGradient>
  </defs>
  <metadata
     id="metadata3177">
    <rdf:RDF>
      <cc:Work
         rdf:about="">
        <dc:format>image/svg+xml</dc:format>
        <dc:type
           rdf:resource="http://purl.org/dc/dcmitype/StillImage" />
        <dc:title />
      </cc:Work>
    </rdf:RDF>
  </metadata>
  <path
     style="fill:#fafafa;fill-opacity:1;stroke:none;display:inline"
     id="path4160"
     d="m 17.499929,1.500412 c 21.311061,0 93.000031,0.007 93.000031,0.007 l 1.1e-4,116.992628 c 0,0 -62.0001,0 -93.00014,0 0,-39.000029 0,-78.000054 0,-117.000079 z" />
  <path
     style="opacity:0.3;fill:none;stroke:#000000;stroke-width:0.99992186;stroke-linecap:butt;stroke-linejoin:round;stroke-miterlimit:4;stroke-opacity:1;stroke-dasharray:none;stroke-dashoffset:0;display:inline"
     id="path4160-4"
     d="m 17.499929,1.5004119 c 21.311061,0 93.000031,0.007 93.000031,0.007 l 1.1e-4,116.9926281 c 0,0 -62.0001,0 -93.00014,0 0,-39.000029 0,-78.000054 0,-117.0000791 z" />
  <path
     style="opacity:1;vector-effect:none;fill:url(#linearGradient1030);fill-opacity:1;stroke:none;stroke-width:0.99999988;stroke-linecap:butt;stroke-linejoin:miter;stroke-miterlimit:4;stroke-dasharray:none;stroke-dashoffset:0;stroke-opacity:1;marker:none"
     id="path3"
     d="m 74.881892,53.356172 c 0,0 -0.838388,-7.816856 -8.59429,-8.033922 -7.755888,-0.21706 -11.739134,5.86264 -11.739134,14.547916 0,8.685276 4.402138,15.633874 11.948502,15.633874 7.546536,0 8.384922,-8.685286 8.384922,-8.685286 l 14.463822,0.86842 c 0,0 0.851678,7.844266 -5.200914,13.828986 C 78.091982,87.50042 70.662834,88.47814 65.474602,88.4375 60.286412,88.3961 53.093044,88.5187 46.136766,81.39408 39.180474,74.26936 38,67.348026 38,60.549076 38,53.749818 39.319178,44.742792 47.590336,37.912586 53.21159,33.271366 58.909964,31.561314 64.609264,31.561314 88.402024,31.561314 90,53.505654 90,53.505654 Z" />
</svg>
