<?xml version="1.0" encoding="UTF-8" standalone="no"?>
<svg
   xmlns:dc="http://purl.org/dc/elements/1.1/"
   xmlns:cc="http://creativecommons.org/ns#"
   xmlns:rdf="http://www.w3.org/1999/02/22-rdf-syntax-ns#"
   xmlns:svg="http://www.w3.org/2000/svg"
   xmlns="http://www.w3.org/2000/svg"
   xmlns:xlink="http://www.w3.org/1999/xlink"
   version="1.1"
   width="128"
   height="128"
   id="svg3172">
  <defs
     id="defs3174">
    <radialGradient
       xlink:href="#linearGradient4530-1"
       id="radialGradient4528-6"
       gradientUnits="userSpaceOnUse"
       gradientTransform="matrix(0.08911859,13.345575,-16.675343,0.11135394,161.88961,-62.669461)"
       cx="-0.59175754"
       cy="5.7704468"
       fx="-0.59175754"
       fy="5.7704468"
       r="12.671875" />
    <linearGradient
       id="linearGradient4530-1">
      <stop
         id="stop4532-9"
         style="stop-color:#fff3cb;stop-opacity:1"
         offset="0" />
      <stop
         id="stop4534-6"
         style="stop-color:#ffed8d;stop-opacity:1"
         offset="0.29974544" />
      <stop
         id="stop4536-5"
         style="stop-color:#ffde2f;stop-opacity:1"
         offset="0.73767376" />
      <stop
         id="stop4538-4"
         style="stop-color:#fbc02d;stop-opacity:1"
         offset="1" />
    </linearGradient>
    <radialGradient
       cx="-0.41368386"
       cy="7.082284"
       r="12.671875"
       fx="-0.41368386"
       fy="7.082284"
       id="radialGradient3107"
       xlink:href="#linearGradient2867-449-88-871-390-598-476-591-434-148-57-177-8-3"
       gradientUnits="userSpaceOnUse"
       gradientTransform="matrix(0.04453899,18.23346,-21.82337,0.05330813,217.33604,-102.14469)" />
    <linearGradient
       id="linearGradient2867-449-88-871-390-598-476-591-434-148-57-177-8-3">
      <stop
         offset="0"
         style="stop-color:#90dbec;stop-opacity:1"
         id="stop3750-1-0" />
      <stop
         offset="0.26238"
         style="stop-color:#55c1ec;stop-opacity:1"
         id="stop3752-3-7" />
      <stop
         offset="0.71355218"
         style="stop-color:#3689e6;stop-opacity:1"
         id="stop3754-1-8" />
      <stop
         offset="1"
         style="stop-color:#2b63a0;stop-opacity:1"
         id="stop3756-1-6" />
    </linearGradient>
  </defs>
  <metadata
     id="metadata3177">
    <rdf:RDF>
      <cc:Work
         rdf:about="">
        <dc:format>image/svg+xml</dc:format>
        <dc:type
           rdf:resource="http://purl.org/dc/dcmitype/StillImage" />
        <dc:title />
      </cc:Work>
    </rdf:RDF>
  </metadata>
  <path
     d="m 17.499929,1.500412 c 21.311061,0 93.000031,0.007 93.000031,0.007 l 1.1e-4,116.992628 c 0,0 -62.0001,0 -93.00014,0 0,-39.000029 0,-78.000054 0,-117.000079 z"
     id="path4160"
     style="fill:#fafafa;fill-opacity:1;stroke:none;display:inline" />
  <path
     d="m 17.499929,1.5004119 c 21.311061,0 93.000031,0.007 93.000031,0.007 l 1.1e-4,116.9926281 c 0,0 -62.0001,0 -93.00014,0 0,-39.000029 0,-78.000054 0,-117.0000791 z"
     id="path4160-4"
     style="opacity:0.3;fill:none;stroke:#000000;stroke-width:0.99992186;stroke-linecap:butt;stroke-linejoin:round;stroke-miterlimit:4;stroke-opacity:1;stroke-dasharray:none;stroke-dashoffset:0;display:inline" />
  <path
     id="path1948"
     style="color:#000000;clip-rule:nonzero;display:inline;overflow:visible;visibility:visible;opacity:1;isolation:auto;mix-blend-mode:normal;color-interpolation:sRGB;color-interpolation-filters:linearRGB;solid-color:#000000;solid-opacity:1;fill:url(#radialGradient3107);fill-opacity:1;fill-rule:nonzero;stroke:none;stroke-width:1;stroke-linecap:butt;stroke-linejoin:miter;stroke-miterlimit:4;stroke-dasharray:none;stroke-dashoffset:0;stroke-opacity:1;marker:none;color-rendering:auto;image-rendering:auto;shape-rendering:auto;text-rendering:auto;enable-background:accumulate"
     d="m 64.032816,31.20054 c -2.673535,0.01259 -5.2267,0.242088 -7.473224,0.64234 -6.617977,1.177208 -7.819544,3.641208 -7.819546,8.185242 l 0,6.001287 15.63909,0 0,2.000428 -15.63909,0 -5.869214,0 c -4.545156,0 -8.525022,2.750665 -9.769877,7.983366 -1.435921,5.99789 -1.499613,9.740671 0,16.003433 1.111684,4.661758 3.766532,7.983362 8.311686,7.983364 l 5.377076,0 0,-7.194204 c 0,-5.197388 4.46623,-9.781914 9.769875,-9.781916 l 15.620862,0 C 76.52875,63.02388 80,59.419048 80,55.022165 l 0,-14.994043 c 0,-4.267389 -3.575471,-7.473033 -7.819546,-8.185242 -2.686562,-0.450285 -5.474102,-0.654848 -8.147638,-0.64234 z m -8.457503,4.826723 c 1.615411,0 2.934608,1.349954 2.934608,3.009821 0,1.653981 -1.319197,2.991466 -2.934608,2.991466 -1.621201,0 -2.934608,-1.337485 -2.934608,-2.991466 0,-1.659867 1.313407,-3.009821 2.934608,-3.009821 z" />
  <path
     id="path1950-4-1"
     style="color:#000000;clip-rule:nonzero;display:inline;overflow:visible;visibility:visible;opacity:1;isolation:auto;mix-blend-mode:normal;color-interpolation:sRGB;color-interpolation-filters:linearRGB;solid-color:#000000;solid-opacity:1;fill:url(#radialGradient4528-6);fill-opacity:1;fill-rule:nonzero;stroke:none;stroke-width:1;stroke-linecap:butt;stroke-linejoin:miter;stroke-miterlimit:4;stroke-dasharray:none;stroke-dashoffset:0;stroke-opacity:1;marker:none;color-rendering:auto;image-rendering:auto;shape-rendering:auto;text-rendering:auto;enable-background:accumulate"
     d="m 82.142814,48.2 0,6.939134 c 0,5.379794 -4.555396,9.907808 -9.750033,9.907808 l -15.589118,0 c -4.270132,0 -7.803661,3.659187 -7.803663,7.940819 l 0,14.879953 c 0,4.234923 3.677985,6.725843 7.803663,7.94082 4.940402,1.454478 9.677974,1.717336 15.589118,0 3.929205,-1.139043 7.803658,-3.431382 7.803658,-7.94082 l 0,-5.955628 -15.589118,0 0,-1.985191 15.589118,0 7.803659,0 c 4.535931,0 6.226189,-3.16783 7.803657,-7.922618 1.629468,-4.89498 1.560142,-9.602305 0,-15.881658 C 94.682778,51.601484 92.541791,48.2 88.000098,48.2 l -5.857284,0 z m -8.767747,37.682505 c 1.617904,0 2.928642,1.327313 2.928642,2.968715 0,1.64723 -1.310738,2.986914 -2.928642,2.986914 -1.612141,0 -2.928642,-1.339684 -2.928642,-2.986914 0,-1.641402 1.316501,-2.968715 2.928642,-2.968715 z" />
</svg>
