<?xml version="1.0" encoding="UTF-8" standalone="no"?>
<svg
   xmlns:dc="http://purl.org/dc/elements/1.1/"
   xmlns:cc="http://creativecommons.org/ns#"
   xmlns:rdf="http://www.w3.org/1999/02/22-rdf-syntax-ns#"
   xmlns:svg="http://www.w3.org/2000/svg"
   xmlns="http://www.w3.org/2000/svg"
   xmlns:xlink="http://www.w3.org/1999/xlink"
   version="1.1"
   width="128"
   height="128"
   id="svg3099">
  <defs
     id="defs3101">
    <linearGradient
       x1="22.004084"
       y1="47.813133"
       x2="22.004084"
       y2="3.3638515"
       id="linearGradient3046"
       xlink:href="#linearGradient3104-5"
       gradientUnits="userSpaceOnUse"
       gradientTransform="matrix(2.6571407,0,0,2.6479618,-3.995257,-7.610255)" />
    <linearGradient
       id="linearGradient3104-5">
      <stop
         id="stop3106-2"
         style="stop-color:#aaaaaa;stop-opacity:1"
         offset="0" />
      <stop
         id="stop3108-5"
         style="stop-color:#c8c8c8;stop-opacity:1"
         offset="1" />
    </linearGradient>
  </defs>
  <metadata
     id="metadata3104">
    <rdf:RDF>
      <cc:Work
         rdf:about="">
        <dc:format>image/svg+xml</dc:format>
        <dc:type
           rdf:resource="http://purl.org/dc/dcmitype/StillImage" />
        <dc:title />
      </cc:Work>
    </rdf:RDF>
  </metadata>
  <path
     style="display:inline;fill:#fafafa;fill-opacity:1;stroke:none"
     id="path4160"
     d="m 17.499929,1.500412 c 21.311061,0 93.000031,0.007 93.000031,0.007 l 1.1e-4,116.992628 c 0,0 -62.0001,0 -93.00014,0 0,-39.000029 0,-78.000054 0,-117.000079 z" />
  <path
     style="display:inline;opacity:0.3;fill:none;stroke:#000000;stroke-width:0.99992186;stroke-linecap:butt;stroke-linejoin:round;stroke-miterlimit:4;stroke-dasharray:none;stroke-dashoffset:0;stroke-opacity:1"
     id="path4160-4"
     d="m 17.499929,1.500412 c 21.311061,0 93.000031,0.007 93.000031,0.007 l 1.1e-4,116.992628 c 0,0 -62.0001,0 -93.00014,0 0,-39.000029 0,-78.000054 0,-117.000079 z" />
  <path
     style="fill:none;stroke:url(#linearGradient3046);stroke-width:1px;stroke-linecap:butt;stroke-linejoin:miter;stroke-opacity:1"
     id="path3475"
     d="m 30.5,22.5 h 6.227673 z m 7.141065,0 h 5.812494 z m 6.725886,0 h 5.148211 z m 5.978568,0 h 2.241962 z m 3.155354,0 h 4.982139 z m 5.978566,0 H 68.499 Z m 14.949561,0 h 9.047741 z m 9.878099,0 h 3.072319 z M 30.5,28.5 h 9.715169 z m 10.794632,0 h 4.649996 z m 5.480353,0 h 2.324999 z m 3.238391,0 h 4.234817 z m 5.148209,0 h 4.317854 z m 5.148211,0 h 6.891958 z m 17.603557,0 h 5.978566 z m 6.808923,0 h 1.494643 z M 30.5,34.458625 h 8.220527 z m 9.050885,0 h 13.451773 z m 14.28213,0 h 6.559816 z m 20.426769,0 8.22053,0.08275 z m 8.96785,0.08275 H 96.596373 Z M 30.5,40.5 h 11.375882 z m 12.289274,0 H 55.07855 Z m 39.940146,0 h 3.155356 z m 3.985711,0 h 1.743749 z m 2.657142,0 H 94.271 Z M 30.5,46.5 h 4.234818 z m 5.563388,0 H 51.757124 Z M 30.5,52.5 h 6.227673 z m 7.141065,0 h 5.729459 z m 6.725886,0 h 5.148211 z m 5.978568,0 h 2.241962 z m 23.083908,0 h 9.964279 z m 10.794634,0 h 3.155357 z m 3.985712,0 h 7.473208 z M 30.5,58.5 h 10.462489 z m 11.292847,0 h 11.209811 z m 31.564153,0 h 10.285812 z m 11.199204,0 H 94.271 Z" />
  <g
     transform="translate(-1.3373058e-6)"
     id="g862">
    <g
       id="g906">
      <path
         id="path4095-0"
         d="m 67.529206,58.34008 c 3.664656,4.218436 -0.960927,8.011418 -0.960927,8.011418 0,0 9.299709,-4.799931 5.029707,-10.813575 -3.989501,-5.60549 -7.04814,-8.390011 9.510672,-17.993063 1.68e-4,0 -25.993228,6.490328 -13.579452,20.79522 z"
         style="clip-rule:evenodd;fill:#f89820;fill-opacity:1;fill-rule:evenodd;stroke-width:1.3002094" />
      <path
         id="path4103"
         d="m 71.598153,22.035323 c 0,0 7.888133,7.892667 -7.484008,20.025943 -12.327442,9.736752 -2.810723,15.286309 -0.0044,21.630173 C 56.913272,57.199094 51.63481,51.483084 55.17534,46.163974 60.374523,38.357137 74.780026,34.570874 71.5981,22.035323 v 0 z"
         style="clip-rule:evenodd;fill:#f89820;fill-opacity:1;fill-rule:evenodd;stroke-width:1.3002094" />
    </g>
    <g
       id="g920">
      <path
         id="path4091-2"
         d="m 54.034408,80.754481 c 0,0 -2.899912,1.687878 2.066136,2.257448 6.017171,0.686976 9.091935,0.588044 15.720834,-0.664974 0,0 1.746331,1.092444 4.180981,2.038589 -14.865055,6.368722 -33.642682,-0.369019 -21.967951,-3.631063 z"
         style="clip-rule:evenodd;fill:#5382a1;fill-opacity:1;fill-rule:evenodd;stroke-width:1.3002094" />
      <path
         id="path4093-2"
         d="m 52.217029,72.442238 c 0,0 -3.252974,2.408448 1.716768,2.922084 6.428182,0.66363 11.502735,0.71805 20.288807,-0.972852 0,0 1.21237,1.231518 3.121626,1.904552 -17.969884,5.256292 -37.98474,0.413531 -25.127201,-3.853784 z"
         style="clip-rule:evenodd;fill:#5382a1;fill-opacity:1;fill-rule:evenodd;stroke-width:1.3002094" />
      <path
         id="path4097-6"
         d="m 87.189153,86.903673 c 0,0 2.146757,1.769677 -2.364441,3.138255 -8.578132,2.598248 -35.709993,3.381971 -43.245903,0.103965 -2.707089,-1.179113 2.371832,-2.813411 3.969849,-3.158579 1.666211,-0.360452 2.617564,-0.294609 2.617564,-0.294609 -3.012786,-2.121565 -19.473007,4.166703 -8.359945,5.970141 30.305724,4.912299 55.24279,-2.212601 47.382876,-5.759178 v 0 z"
         style="clip-rule:evenodd;fill:#5382a1;fill-opacity:1;fill-rule:evenodd;stroke-width:1.3002094" />
      <path
         id="path4099"
         d="m 55.430029,63.828667 c 0,0 -13.799151,3.278505 -4.886433,4.470047 3.764427,0.503727 11.264225,0.38783 18.255256,-0.198702 5.711812,-0.479372 11.443948,-1.50463 11.443948,-1.50463 0,0 -2.012556,0.863339 -3.46965,1.857691 -14.015656,3.686324 -41.086212,1.969556 -33.291804,-1.799239 6.588757,-3.187468 11.948683,-2.825167 11.948683,-2.825167 z"
         style="clip-rule:evenodd;fill:#5382a1;fill-opacity:1;fill-rule:evenodd;stroke-width:1.3002094" />
      <path
         id="path4101"
         d="m 80.185692,77.664936 c 14.24644,-7.401034 7.658691,-14.514176 3.060823,-13.556104 -1.124358,0.234646 -1.628756,0.437883 -1.628756,0.437883 0,0 0.418904,-0.656238 1.21657,-0.938587 9.096135,-3.19637 16.090021,9.430552 -2.933338,14.43137 -1.69e-4,0 0.21869,-0.198199 0.284701,-0.374562 z"
         style="clip-rule:evenodd;fill:#5382a1;fill-opacity:1;fill-rule:evenodd;stroke-width:1.3002094" />
      <path
         id="path4105"
         d="M 56.830687,97.726487 C 70.502519,98.600575 91.502993,97.240061 92,90.770224 c 0,0 -0.955383,2.452621 -11.3,4.398661 -11.670365,2.197149 -26.067637,1.941338 -34.603441,0.531946 0,0 1.748681,1.447353 10.734128,2.025656 z"
         style="clip-rule:evenodd;fill:#5382a1;fill-opacity:1;fill-rule:evenodd;stroke-width:1.3002094" />
    </g>
  </g>
</svg>
