<?xml version="1.0" encoding="UTF-8" standalone="no"?>
<svg
   xmlns:dc="http://purl.org/dc/elements/1.1/"
   xmlns:cc="http://creativecommons.org/ns#"
   xmlns:rdf="http://www.w3.org/1999/02/22-rdf-syntax-ns#"
   xmlns:svg="http://www.w3.org/2000/svg"
   xmlns="http://www.w3.org/2000/svg"
   xmlns:xlink="http://www.w3.org/1999/xlink"
   xmlns:sodipodi="http://sodipodi.sourceforge.net/DTD/sodipodi-0.dtd"
   xmlns:inkscape="http://www.inkscape.org/namespaces/inkscape"
   id="svg3172"
   height="128"
   width="128"
   version="1.1"
   sodipodi:docname="text-x-c++src.svg"
   inkscape:version="0.92.3 (2405546, 2018-03-11)">
  <sodipodi:namedview
     pagecolor="#ffffff"
     bordercolor="#666666"
     borderopacity="1"
     objecttolerance="10"
     gridtolerance="10"
     guidetolerance="10"
     inkscape:pageopacity="0"
     inkscape:pageshadow="2"
     inkscape:window-width="1920"
     inkscape:window-height="1025"
     id="namedview24"
     showgrid="false"
     inkscape:zoom="3.6875"
     inkscape:cx="40.437623"
     inkscape:cy="74.502096"
     inkscape:window-x="0"
     inkscape:window-y="0"
     inkscape:window-maximized="1"
     inkscape:current-layer="svg3172">
    <inkscape:grid
       type="xygrid"
       id="grid895" />
  </sodipodi:namedview>
  <defs
     id="defs3174">
    <linearGradient
       id="linearGradient3104-6">
      <stop
         offset="0"
         style="stop-color:#000000;stop-opacity:0.31782946"
         id="stop3106-3" />
      <stop
         offset="1"
         style="stop-color:#000000;stop-opacity:0.24031007"
         id="stop3108-9" />
    </linearGradient>
    <linearGradient
       gradientTransform="matrix(2.1456297,0,0,2.3791292,158.08983,-7.746467)"
       gradientUnits="userSpaceOnUse"
       xlink:href="#linearGradient3104-6"
       id="linearGradient3148"
       y2="2.9062471"
       x2="-51.786404"
       y1="50.786446"
       x1="-51.786404" />
  </defs>
  <metadata
     id="metadata3177">
    <rdf:RDF>
      <cc:Work
         rdf:about="">
        <dc:format>image/svg+xml</dc:format>
        <dc:type
           rdf:resource="http://purl.org/dc/dcmitype/StillImage" />
        <dc:title />
      </cc:Work>
    </rdf:RDF>
  </metadata>
  <path
     style="fill:#fafafa;fill-opacity:1;stroke:none;display:inline"
     id="path4160"
     d="m 18,2.0004471 c 21.081878,0 91.99989,0.00694 91.99989,0.00694 L 110,118 c 0,0 -61.333339,0 -91.999999,0 0,-38.666669 0,-77.333335 0,-116 z" />
  <path
     style="fill:none;stroke:url(#linearGradient3148);stroke-width:0.99999994;stroke-linecap:butt;stroke-linejoin:round;stroke-miterlimit:4;stroke-opacity:1;stroke-dasharray:none;stroke-dashoffset:0;display:inline"
     id="path4160-6-1"
     d="m 17.500001,1.499985 c 21.311001,0 92.999899,0.008 92.999899,0.008 l 1e-4,116.992025 c 0,0 -61.999997,0 -92.999999,0 0,-39.000101 0,-77.999812 0,-116.999461 z" />
  <g
     transform="translate(-515.99931,-320.00113)"
     id="g4019"
     style="fill:#68b723;fill-opacity:1">
    <path
       d="m 564.71261,385.88348 c -2.43499,2.47059 -4.47081,3.94118 -7.30498,3.94118 -5.46876,0 -9.89965,-4.47059 -9.89965,-9.88236 0,-2.35294 0.91811,-4.86274 2.43499,-6.58823 1.79631,-2.07843 4.35106,-3.17647 7.3449,-3.17647 3.43295,0 5.74819,1.39216 7.74408,3.94118 h 6.10745 c -1.15762,-2.50981 -2.19549,-3.88236 -4.19139,-5.4902 -2.71442,-2.15686 -6.18728,-3.62745 -9.77989,-3.62745 -8.34285,0 -15.16881,6.70588 -15.16881,14.90196 0,8.39215 6.9058,15.09804 15.52807,15.09804 6.06753,0 11.29678,-3.82353 13.61202,-9.11765 z"
       style="font-style:normal;font-variant:normal;font-weight:600;font-stretch:normal;font-size:20px;line-height:125%;font-family:'URW Gothic';-inkscape-font-specification:'URW Gothic Semi-Bold';letter-spacing:0px;word-spacing:0px;fill:#68b723;fill-opacity:1;stroke:none;stroke-width:1.97826254px;stroke-linecap:butt;stroke-linejoin:miter;stroke-opacity:1"
       id="path4331"
       inkscape:connector-curvature="0"
       sodipodi:nodetypes="csscscccssscc" />
    <path
       d="m 582.07317,378.04034 h -7.98359 v 3.92157 h 7.98359 v 7.84314 h 3.99179 v -7.84314 h 7.98359 v -3.92157 h -7.98359 v -7.84313 h -3.99179 z"
       style="font-style:normal;font-variant:normal;font-weight:600;font-stretch:normal;font-size:20px;line-height:125%;font-family:'URW Gothic';-inkscape-font-specification:'URW Gothic Semi-Bold';letter-spacing:0px;word-spacing:0px;fill:#68b723;fill-opacity:1;stroke:none;stroke-width:1.97826254px;stroke-linecap:butt;stroke-linejoin:miter;stroke-opacity:1"
       id="path4333"
       inkscape:connector-curvature="0"
       sodipodi:nodetypes="ccccccccccccc" />
    <path
       d="m 606.02393,378.04034 h -7.98359 v 3.92157 h 7.98359 v 7.84314 h 3.99179 v -7.84314 h 7.98359 v -3.92157 h -7.98359 v -7.84313 h -3.99179 z"
       style="font-style:normal;font-variant:normal;font-weight:600;font-stretch:normal;font-size:20px;line-height:125%;font-family:'URW Gothic';-inkscape-font-specification:'URW Gothic Semi-Bold';letter-spacing:0px;word-spacing:0px;fill:#68b723;fill-opacity:1;stroke:none;stroke-width:1.97826254px;stroke-linecap:butt;stroke-linejoin:miter;stroke-opacity:1"
       id="path4335"
       inkscape:connector-curvature="0"
       sodipodi:nodetypes="ccccccccccccc" />
  </g>
</svg>
