<?xml version="1.0" encoding="UTF-8" standalone="no"?>
<svg
   xmlns:dc="http://purl.org/dc/elements/1.1/"
   xmlns:cc="http://creativecommons.org/ns#"
   xmlns:rdf="http://www.w3.org/1999/02/22-rdf-syntax-ns#"
   xmlns:svg="http://www.w3.org/2000/svg"
   xmlns="http://www.w3.org/2000/svg"
   xmlns:xlink="http://www.w3.org/1999/xlink"
   id="svg3172"
   height="128"
   width="128"
   version="1.1">
  <defs
     id="defs3174">
    <linearGradient
       gradientUnits="userSpaceOnUse"
       y2="59"
       x2="32"
       y1="1"
       x1="32"
       id="linearGradient922"
       xlink:href="#linearGradient920"
       gradientTransform="matrix(2,0,0,2,-4.9999998e-7,-0.9999995)" />
    <linearGradient
       id="linearGradient920">
      <stop
         id="stop916"
         offset="0"
         style="stop-color:#ed5353;stop-opacity:1" />
      <stop
         id="stop918"
         offset="1"
         style="stop-color:#c6262e;stop-opacity:1" />
    </linearGradient>
  </defs>
  <metadata
     id="metadata3177">
    <rdf:RDF>
      <cc:Work
         rdf:about="">
        <dc:format>image/svg+xml</dc:format>
        <dc:type
           rdf:resource="http://purl.org/dc/dcmitype/StillImage" />
        <dc:title />
      </cc:Work>
    </rdf:RDF>
  </metadata>
  <path
     style="fill:#fafafa;fill-opacity:1;stroke:none;display:inline"
     id="path4160"
     d="m 17.499929,1.500412 c 21.311061,0 93.000031,0.007 93.000031,0.007 l 1.1e-4,116.992628 c 0,0 -62.0001,0 -93.00014,0 0,-39.000029 0,-78.000054 0,-117.000079 z" />
  <path
     style="opacity:0.3;fill:none;stroke:#000000;stroke-width:0.99992186;stroke-linecap:butt;stroke-linejoin:round;stroke-miterlimit:4;stroke-opacity:1;stroke-dasharray:none;stroke-dashoffset:0;display:inline"
     id="path4160-4"
     d="m 17.499929,1.5004119 c 21.311061,0 93.000031,0.007 93.000031,0.007 l 1.1e-4,116.9926281 c 0,0 -62.0001,0 -93.00014,0 0,-39.000029 0,-78.000054 0,-117.0000791 z" />
  <path
     id="path910"
     d="M 56.027344,33 H 56 V 87 H 56.027344 66 V 68.621094 c 0,-4.542969 1.351742,-7.828605 2.679688,-9.855469 1.327944,-2.026862 3.482792,-3.039063 6.464844,-3.039063 4.19351,0 6.995384,2.820826 6.855468,8.457032 V 87 H 92 V 61.527344 c 0,-4.612862 -1.096334,-8.15549 -3.472656,-10.625 -2.376322,-2.469511 -5.859652,-3.703126 -10.44922,-3.703126 -5.171996,0 -8.943988,1.909717 -11.320312,5.73047 L 66,54.09375 V 43.703125 33 Z M 42.035156,75 c -1.96581,0 -3.463566,0.50786 -4.492188,1.519541 C 36.514348,77.5312 36,79.02372 36,81 c 0,1.905681 0.526646,3.3866 1.578124,4.44532 C 38.629604,86.4805 40.115062,87 42.035156,87 43.909534,87 45.374302,86.46888 46.425782,85.410161 47.47726,84.327921 48,82.85864 48,81 48,79.07078 47.47726,77.58988 46.425782,76.554681 45.397158,75.5195 43.932392,75 42.035156,75 Z"
     style="font-style:normal;font-variant:normal;font-weight:bold;font-stretch:normal;font-size:35.78462219px;line-height:1.25;font-family:'Open Sans';-inkscape-font-specification:'Open Sans Bold';letter-spacing:-0.89461553px;word-spacing:0px;fill:url(#linearGradient922);fill-opacity:1;stroke:none;stroke-width:1.11779857" />
</svg>
