<?xml version="1.0" encoding="UTF-8" standalone="no"?>
<svg
   xmlns:dc="http://purl.org/dc/elements/1.1/"
   xmlns:cc="http://creativecommons.org/ns#"
   xmlns:rdf="http://www.w3.org/1999/02/22-rdf-syntax-ns#"
   xmlns:svg="http://www.w3.org/2000/svg"
   xmlns="http://www.w3.org/2000/svg"
   id="svg4134"
   height="128"
   width="128"
   version="1.1">
  <defs
     id="defs4136" />
  <metadata
     id="metadata4139">
    <rdf:RDF>
      <cc:Work
         rdf:about="">
        <dc:format>image/svg+xml</dc:format>
        <dc:type
           rdf:resource="http://purl.org/dc/dcmitype/StillImage" />
        <dc:title />
      </cc:Work>
    </rdf:RDF>
  </metadata>
  <path
     d="M 109.4913,10.364818 C 108.70732,7.727317 109.19596,4.02414 108.76296,1.508699 l -80.254261,0 0.473668,7.982602"
     id="path2723"
     style="display:inline;fill:#fafafa;fill-opacity:1;stroke:#343434;stroke-width:1.01739764;stroke-linecap:butt;stroke-linejoin:round;stroke-miterlimit:0;stroke-dasharray:none;stroke-dashoffset:0;stroke-opacity:1" />
  <path
     d="m 30.5,12.5 -10.4,0 c -1.484206,0 -2.6,-0.116416 -2.6,-0.268291 l 0,-8.145539 C 17.5,2.150302 18.144001,1.5 20.046842,1.5 L 30.5,1.5"
     id="rect5505-21-3-9"
     style="color:#000000;display:inline;overflow:visible;visibility:visible;fill:#fafafa;fill-opacity:1;fill-rule:nonzero;stroke:#343434;stroke-width:0.99999994;stroke-linecap:round;stroke-linejoin:round;stroke-miterlimit:4;stroke-dasharray:none;stroke-dashoffset:0;stroke-opacity:1;marker:none;enable-background:accumulate" />
  <rect
     width="90.298645"
     height="108.98096"
     rx="2"
     ry="2"
     x="20.191833"
     y="9.4937019"
     id="rect2719"
     style="display:inline;fill:#569dd3;fill-opacity:1;stroke:#343434;stroke-width:1.01904106;stroke-linecap:round;stroke-linejoin:round;stroke-miterlimit:0;stroke-dasharray:none;stroke-dashoffset:0;stroke-opacity:1" />
  <path
     d="m 30.5,9.499994 c 0,0 0,75.792524 0,108.999996 l -10.728851,0 c -1.484205,0 -2.271149,-0.87542 -2.271149,-2.38027 l 0,-106.619726 z"
     id="rect5505-21-3"
     style="color:#000000;display:inline;overflow:visible;visibility:visible;fill:#343434;fill-opacity:1;fill-rule:nonzero;stroke:#343434;stroke-width:1;stroke-linecap:round;stroke-linejoin:round;stroke-miterlimit:4;stroke-dasharray:none;stroke-dashoffset:0;stroke-opacity:1;marker:none;enable-background:accumulate" />
  <path
     d="m 68.83292,35.500226 c -1.635324,-0.0098 -3.071234,0.303641 -4.048594,0.952971 -1.260923,0.837723 -1.81687,0.944053 -2.16889,0.366528 -0.336804,-0.552541 -0.643114,-0.490812 -0.939852,0.29322 -0.250942,0.663063 -0.775522,0.965768 -1.373631,0.733054 -0.570263,-0.221894 -0.804109,-0.15042 -0.57837,0.219925 0.216922,0.355921 0.110872,0.659745 -0.216896,0.659745 -0.327762,0 -1.377458,1.122848 -2.313482,2.492383 -1.492112,2.183153 -1.735494,3.180938 -1.735113,7.770366 2.06e-4,2.879505 0.284568,5.683276 -0.578372,5.86443 -0.506114,0.106256 -0.457931,2.107662 -0.216895,4.178405 0.315203,2.707863 0.786012,4.034422 2.096594,5.277984 2.041309,1.936911 3.904002,5.289748 3.904002,7.110621 0,2.548899 -6.273113,7.131674 -15.163421,11.182917 l 0,5.897228 c 18.507865,0 48,0 48,0 l 0,-6.15765 C 85.656026,79.032146 78.737506,73.957214 78.737506,71.419858 c 0,-1.816475 1.792443,-5.175656 3.831704,-7.110621 1.310566,-1.243562 1.853692,-2.570121 2.168892,-5.277984 0.241022,-2.070743 0.273608,-4.013154 -0.216896,-4.178405 -0.675858,-0.227699 -0.65066,-3.008537 -0.65066,-5.86443 -3e-6,-4.093686 -0.256971,-5.617118 -1.301336,-7.330534 -2.078135,-3.409426 -8.830327,-6.128245 -13.736305,-6.15765 z"
     id="rect2382"
     style="color:#000000;display:inline;overflow:visible;visibility:visible;fill:#343434;fill-opacity:1;fill-rule:nonzero;stroke:#343434;stroke-width:1;stroke-linecap:round;stroke-linejoin:round;stroke-miterlimit:4;stroke-dasharray:none;stroke-dashoffset:0;stroke-opacity:1;marker:none;enable-background:accumulate" />
</svg>
