<?xml version="1.0" encoding="UTF-8" standalone="no"?>
<svg
   xmlns:dc="http://purl.org/dc/elements/1.1/"
   xmlns:cc="http://creativecommons.org/ns#"
   xmlns:rdf="http://www.w3.org/1999/02/22-rdf-syntax-ns#"
   xmlns:svg="http://www.w3.org/2000/svg"
   xmlns="http://www.w3.org/2000/svg"
   xmlns:xlink="http://www.w3.org/1999/xlink"
   version="1.1"
   width="128"
   height="128"
   id="svg3945"
   viewBox="0 0 128 128">
  <defs
     id="defs3947">
    <linearGradient
       x1="22.004084"
       y1="47.813133"
       x2="22.004084"
       y2="3.3638515"
       id="linearGradient3878"
       xlink:href="#linearGradient3104-4"
       gradientUnits="userSpaceOnUse"
       gradientTransform="matrix(-2.7042255,0,0,2.7149968,122.60652,-10.300158)" />
    <linearGradient
       id="linearGradient3104-4">
      <stop
         id="stop3106-7"
         style="stop-color:#aaaaaa;stop-opacity:1"
         offset="0" />
      <stop
         id="stop3108-6"
         style="stop-color:#c8c8c8;stop-opacity:1"
         offset="1" />
    </linearGradient>
    <radialGradient
       cx="7.8060555"
       cy="9.9571075"
       r="12.671875"
       fx="7.2758255"
       fy="9.9571075"
       id="radialGradient3150"
       xlink:href="#linearGradient2867-449-88-871-390-598-476-591-434-148-57-177-8"
       gradientUnits="userSpaceOnUse"
       gradientTransform="matrix(4.3144324e-7,17.558819,21.594996,-5.2706847e-7,-151.1828,-159.61717)" />
    <linearGradient
       id="linearGradient2867-449-88-871-390-598-476-591-434-148-57-177-8">
      <stop
         id="stop3750-1"
         style="stop-color:#90dbec;stop-opacity:1"
         offset="0" />
      <stop
         id="stop3752-3"
         style="stop-color:#55c1ec;stop-opacity:1"
         offset="0.26238" />
      <stop
         id="stop3754-1"
         style="stop-color:#3689e6;stop-opacity:1"
         offset="0.704952" />
      <stop
         id="stop3756-1"
         style="stop-color:#2b63a0;stop-opacity:1"
         offset="1" />
    </linearGradient>
  </defs>
  <metadata
     id="metadata3950">
    <rdf:RDF>
      <cc:Work
         rdf:about="">
        <dc:format>image/svg+xml</dc:format>
        <dc:type
           rdf:resource="http://purl.org/dc/dcmitype/StillImage" />
        <dc:title />
      </cc:Work>
    </rdf:RDF>
  </metadata>
  <path
     style="display:inline;fill:#fafafa;fill-opacity:1;stroke:none"
     id="path4160"
     d="m 17.499929,1.500412 c 21.311061,0 93.000031,0.007 93.000031,0.007 l 1.1e-4,116.992628 c 0,0 -62.0001,0 -93.00014,0 0,-39.000029 0,-78.000054 0,-117.000079 z" />
  <path
     style="color:#000000;display:inline;overflow:visible;visibility:visible;fill:url(#radialGradient3150);fill-opacity:1;fill-rule:nonzero;stroke:none;stroke-width:1;marker:none;enable-background:accumulate"
     id="path4530"
     d="m 95.904501,118.50004 c 4.681719,0 9.307499,0 13.989239,0 0.3657,0 0.54301,-0.10522 0.54301,-0.62692 0,-36.743543 0,-78.957192 0,-115.700727 l -0.15871,-0.475811 -0.3843,-0.19646 v 0 c -4.87272,0 -8.92555,0 -13.798243,0" />
  <path
     style="fill:none;stroke:url(#linearGradient3878);stroke-width:1px;stroke-linecap:butt;stroke-linejoin:miter;stroke-opacity:1"
     id="path3475"
     d="m 87.5,21.5 h -6.33803 z m -7.267607,0 H 74.3169 Z m -6.845071,0 h -5.239436 z m -6.084507,0 h -2.28169 z m -3.211269,0 h -5.070422 z m -6.084506,0 H 44.654913 Z m -14.197191,0 H 33.584489 Z M 87.5,27.5 h -9.887327 z m -10.985917,0 h -4.732394 z m -5.577466,0 H 68.57042 Z m -3.295774,0 h -4.309861 z m -5.239438,0 H 58.00704 Z m -5.239436,0 h -7.014093 z m -7.943656,0 h -9.126779 z m -9.971844,0 h -6.084511 z m -6.929577,0 H 30.795759 Z M 87.5,33.45758 h -8.3662 z m -9.211268,0 H 64.598589 Z m -14.535214,0 h -6.676055 z m -7.521126,0 h -6.253514 z m -7.098599,0 h -5.323944 z m -6.16901,0 -8.366192,0.08484 z M 87.5,39.5 H 75.922534 Z m -12.507044,0 H 62.485913 Z m -13.352112,0 h -4.985919 z m -5.830987,0 H 44.063363 Z m -12.50704,0 h -8.028178 z m -8.95776,0 H 31.133792 Z M 87.5,45.5 h -4.30986 z m -5.661973,0 H 65.866194 Z M 87.5,56.45758 h -8.3662 z m -9.211268,0 H 64.598589 Z m -14.535214,0 h -6.676055 z m -7.521126,0 h -6.253514 z m -7.098599,0 h -5.323944 z m -6.16901,0 -8.366192,0.08484 z M 87.5,62.5 H 76.852111 Z m -11.49296,0 H 64.598589 Z m -12.253522,0 h -4.394366 z m -5.239438,0 H 47.781677 Z m -11.577468,0 H 33.415493 Z m -14.450702,0 H 27.5 Z M 87.5,68.5 H 75.922534 Z m -12.507044,0 H 62.485913 Z m -13.352112,0 h -4.985919 z m -5.830987,0 H 44.063363 Z m -12.50704,0 h -8.028178 z m -8.95776,0 H 31.133792 Z M 87.5,74.5 h -9.887327 z m -10.985917,0 h -4.732394 z m -5.577466,0 H 68.57042 Z m -3.295774,0 h -4.309861 z m -5.239438,0 H 58.00704 Z m -5.239436,0 h -7.014093 z m -7.943656,0 h -9.126779 z m -9.971844,0 h -6.084511 z m -6.929577,0 H 30.795759 Z M 87.5,85.457575 h -8.3662 z m -9.211268,0 H 64.598589 Z m -14.535214,0 h -6.676055 z m -7.521126,0 h -6.253514 z m -7.098599,0 h -5.323944 z m -6.16901,0 -8.366192,0.08485 z M 87.5,91.5 h -9.887327 z m -10.985917,0 h -4.732394 z m -5.577466,0 H 68.57042 Z m -3.295774,0 h -4.309861 z m -5.239438,0 H 58.00704 Z m -5.239436,0 h -7.014093 z m -7.943656,0 h -9.126779 z m -9.971844,0 h -6.084511 z m -6.929577,0 H 30.795759 Z M 87.5,97.5 H 77.021126 Z m -11.408451,0 h -3.295777 z m -4.140847,0 h -7.521126 z m -8.366197,0 H 52.514081 Z m -12.000001,0 h -7.521141 z m -8.281687,0 h -1.605631 z m -2.450716,0 H 31.30281 Z M 87.5,103.5 H 77.021126 Z m -11.408451,0 h -4.732396 z m -5.577467,0 h -7.43662 z m -8.281691,0 h -8.02817 z m -8.957747,0 h -3.211267 z m -4.056331,0 h -1.774649 z m -2.704233,0 h -4.985911 z" />
  <path
     style="display:inline;opacity:0.3;fill:none;stroke:#000000;stroke-width:0.99992186;stroke-linecap:butt;stroke-linejoin:round;stroke-miterlimit:4;stroke-dasharray:none;stroke-dashoffset:0;stroke-opacity:1"
     id="path4160-4"
     d="m 110.50007,1.500412 c -21.311061,0 -93.000031,0.007 -93.000031,0.007 l -1.1e-4,116.992628 c 0,0 62.0001,0 93.000141,0 0,-39.000029 0,-78.000054 0,-117.000079 z" />
</svg>
