<?xml version="1.0" encoding="UTF-8" standalone="no"?>
<svg
   xmlns:dc="http://purl.org/dc/elements/1.1/"
   xmlns:cc="http://creativecommons.org/ns#"
   xmlns:rdf="http://www.w3.org/1999/02/22-rdf-syntax-ns#"
   xmlns:svg="http://www.w3.org/2000/svg"
   xmlns="http://www.w3.org/2000/svg"
   id="svg2"
   height="32"
   width="32"
   version="1.0">
  <metadata
     id="metadata88">
    <rdf:RDF>
      <cc:Work
         rdf:about="">
        <dc:format>image/svg+xml</dc:format>
        <dc:type
           rdf:resource="http://purl.org/dc/dcmitype/StillImage" />
        <dc:title />
      </cc:Work>
    </rdf:RDF>
  </metadata>
  <defs
     id="defs4" />
  <g
     id="g825"
     transform="matrix(1,0,0,-1,0,31)">
    <rect
       x="10.5"
       y="-30.5"
       width="11"
       height="11"
       ry="1"
       rx="1"
       transform="scale(1,-1)"
       style="fill:#e6e6e6;fill-opacity:1;stroke:#000000;stroke-width:1;stroke-opacity:0.30232562"
       id="rect3448" />
    <path
       id="rect4570"
       d="m 13,27 v 2 h 2 v -2 z m 4,0 v 2 h 2 v -2 z m -3.5,0.5 h 1 v 1 h -1 z m 4,0 h 1 v 1 h -1 z"
       style="opacity:0.4;fill:#000000;fill-opacity:1;stroke:none;stroke-width:2;stroke-linecap:round;stroke-linejoin:round;stroke-miterlimit:4;stroke-dasharray:none;stroke-dashoffset:0;stroke-opacity:0.4" />
    <path
       d="m 8.5,2 0.011308,21.5 c -0.033435,1.036496 0.9417175,0.991663 0.9417175,0.991663 H 22.352955 C 23.422887,24.525098 23.488695,23.5 23.488695,23.5 L 23.5,2 C 23.5,2 23.48039,0.5 22,0.5 H 10 C 9.1666667,0.5 8.4995617,1.1666668 8.5,2 Z"
       id="rect2990"
       style="display:inline;overflow:visible;visibility:visible;fill:#f4f4f4;fill-opacity:1;fill-rule:nonzero;stroke:#000000;stroke-width:0.99999994;stroke-opacity:0.26511631;marker:none;enable-background:accumulate" />
    <g
       transform="translate(4,7)"
       style="opacity:0.2"
       id="g4622">
      <path
         style="opacity:1;fill:#000000;fill-opacity:1;stroke:none;stroke-width:2;stroke-linecap:round;stroke-linejoin:round;stroke-miterlimit:4;stroke-dasharray:none;stroke-dashoffset:0;stroke-opacity:0.4"
         d="m 9.5,20.5 v 1 h 1 v -1 z m 4,0 v 1 h 1 v -1 z"
         id="rect4618" />
    </g>
  </g>
  <path
     id="path3690"
     style="opacity:1;fill:#aaaaaa;stroke-width:1"
     d="m 14.482844,26.178234 c 0,-1.045085 0.347347,-1.316215 0.772817,-1.681103 0.341572,-0.164886 0.396149,-0.277454 0.391658,-0.807744 -0.0049,-0.586012 -0.06105,-0.519073 -1.147188,-1.461924 -1.658358,-1.439506 -1.881382,-1.786641 -2.076097,-3.231138 -0.143632,-1.065375 -0.04289,-0.83098 -0.455194,-1.240783 -0.758893,-0.754263 -0.628875,-1.860432 0.274541,-2.335847 0.813864,-0.428277 1.77797,0.02723 2.075279,0.980526 0.146537,0.46983 -0.20477,1.281198 -0.676498,1.562391 -0.431681,0.257344 -0.610771,-0.171702 -0.512054,0.776908 0.05464,0.52503 0.187778,1.128862 0.295869,1.341822 0.185643,0.365739 2.00353,2.087469 2.201273,2.087469 V 11.672626 h -1.007696 c 0.466337,-0.808316 0.920401,-1.63005 1.372011,-2.443766 l 1.438035,2.444094 h -0.97947 v 7.21383 c 0.136226,0 1.471823,-1.355485 1.921223,-1.965731 0.194177,-0.263668 0.312012,-0.638055 0.312012,-0.991329 0,-0.532798 0.175703,-0.644833 -0.230681,-0.644833 h -0.432956 v -2.496619 h 2.45342 v 2.496619 h -0.396876 c -0.354121,0.04146 -0.607227,0.221959 -0.674078,0.812735 -0.0997,0.881048 -0.477046,1.459305 -1.865755,2.859133 l -1.086318,1.171487 v 4.177721 l 0.32102,0.19159 c 0.218286,0.105375 0.518909,0.445875 0.668055,0.756668 C 17.970166,26.362797 17.23139,27.554 16.013189,27.554 15.130422,27.52128 14.48246,27.068028 14.48246,26.179534 Z" />
</svg>
