<?xml version="1.0" encoding="UTF-8" standalone="no"?>
<svg
   xmlns:dc="http://purl.org/dc/elements/1.1/"
   xmlns:cc="http://creativecommons.org/ns#"
   xmlns:rdf="http://www.w3.org/1999/02/22-rdf-syntax-ns#"
   xmlns:svg="http://www.w3.org/2000/svg"
   xmlns="http://www.w3.org/2000/svg"
   id="svg11300"
   height="64"
   width="64"
   version="1.0"
   viewBox="0 0 64 64">
  <metadata
     id="metadata49">
    <rdf:RDF>
      <cc:Work
         rdf:about="">
        <dc:format>image/svg+xml</dc:format>
        <dc:type
           rdf:resource="http://purl.org/dc/dcmitype/StillImage" />
        <dc:title />
      </cc:Work>
    </rdf:RDF>
  </metadata>
  <defs
     id="defs3" />
  <g
     id="g821"
     transform="matrix(1,0,0,-1,0,65.000004)">
    <rect
       x="21.5"
       y="-60.500004"
       width="19"
       height="19"
       ry="1.0000001"
       rx="1.0000001"
       transform="scale(1,-1)"
       style="fill:#e6e6e6;fill-opacity:1;stroke:#000000;stroke-width:1.00000012;stroke-opacity:0.29302326"
       id="rect3448" />
    <path
       id="rect3450"
       d="m 24.5,53.5 v 4 h 4 v -4 z m 9,0 v 4 h 4 v -4 z"
       style="opacity:0.35;fill:#000000;fill-opacity:0.33598848;stroke:#000000;stroke-width:1;stroke-linecap:butt;stroke-linejoin:round;stroke-miterlimit:4;stroke-dasharray:none;stroke-dashoffset:0;stroke-opacity:0.67441861" />
    <rect
       x="18"
       y="5"
       width="26"
       height="44"
       rx="2.5"
       style="opacity:1;fill:#f4f4f4;fill-opacity:1;stroke:none;stroke-width:0.99992192;stroke-linecap:butt;stroke-linejoin:round;stroke-miterlimit:4;stroke-dasharray:none;stroke-dashoffset:0;stroke-opacity:1;marker:none"
       id="rect5391"
       ry="2.5" />
    <rect
       x="17.5"
       y="4.4999609"
       width="27.000078"
       height="45.000076"
       rx="3"
       style="opacity:0.3;fill:none;fill-opacity:1;stroke:#000000;stroke-width:0.99992192;stroke-linecap:butt;stroke-linejoin:round;stroke-miterlimit:4;stroke-dasharray:none;stroke-dashoffset:0;stroke-opacity:1;marker:none"
       id="rect5391-2"
       ry="3" />
  </g>
  <path
     id="path3690"
     style="opacity:0.95;fill:#aaaaaa;stroke-width:1"
     d="m 27.961933,50.868087 c 0,-1.858009 0.617533,-2.340038 1.373958,-2.988756 0.607264,-0.293144 0.704295,-0.493272 0.69631,-1.436051 -0.0087,-1.041847 -0.108537,-0.922837 -2.039534,-2.599089 -2.94832,-2.559235 -3.344823,-3.176389 -3.691,-5.744497 -0.255356,-1.894081 -0.07625,-1.47736 -0.809268,-2.205931 -1.349202,-1.340969 -1.118049,-3.307588 0.488095,-4.152812 1.446931,-0.761414 3.160971,0.04841 3.689545,1.743247 0.26052,0.83529 -0.364053,2.277785 -1.202717,2.777705 -0.767465,0.45752 -1.08586,-0.305261 -0.910357,1.38123 0.09713,0.933427 0.333842,2.006953 0.526014,2.385565 0.330046,0.650231 3.561984,3.711218 3.913542,3.711218 L 30,26.000164 h -1.791537 c 0.829079,-1.43707 1.63634,-3.425076 2.439237,-4.871745 l 2.556617,4.872327 h -1.741356 l -0.0035,13.904202 c 0.242192,0 2.616688,-2.409856 3.415658,-3.494785 0.345217,-0.468764 0.304712,-1.635494 0.304712,-2.263572 0,-0.947244 0.312374,-1.146427 -0.410117,-1.146427 H 34 v -5 h 5 v 5 h -1.343763 c -0.629576,0.07372 -1.079562,0.833238 -1.198411,1.883564 -0.177248,1.566377 -0.598118,2.656935 -3.067042,5.145625 l -1.931317,2.082733 v 5.427381 l 0.570726,0.340621 c 0.388082,0.187343 0.922547,0.792701 1.187706,1.345245 C 34.161885,51.196213 32.84845,53.314 30.682664,53.314 29.113233,53.25582 27.96125,52.450013 27.96125,50.8704 Z" />
</svg>
