<?xml version="1.0" encoding="UTF-8" standalone="no"?>
<svg
   xmlns:dc="http://purl.org/dc/elements/1.1/"
   xmlns:cc="http://creativecommons.org/ns#"
   xmlns:rdf="http://www.w3.org/1999/02/22-rdf-syntax-ns#"
   xmlns:svg="http://www.w3.org/2000/svg"
   xmlns="http://www.w3.org/2000/svg"
   height="16"
   width="16"
   version="1.1"
   id="svg6">
  <metadata
     id="metadata12">
    <rdf:RDF>
      <cc:Work
         rdf:about="">
        <dc:format>image/svg+xml</dc:format>
        <dc:type
           rdf:resource="http://purl.org/dc/dcmitype/StillImage" />
      </cc:Work>
    </rdf:RDF>
  </metadata>
  <defs
     id="defs10" />
  <path
     id="path2"
     style="color:#000000;overflow:visible;isolation:auto;mix-blend-mode:normal;fill:#bebebe;marker:none;fill-opacity:1"
     overflow="visible"
     d="M 3,1 C 2.446,1 2,1.446 2,2 v 12 c 0,0.554 0.446,1 1,1 h 10 c 0.554,0 1,-0.446 1,-1 V 2 C 14,1.446 13.554,1 13,1 Z m 1,1 h 8.5 C 12.777,2 13,2.223 13,2.5 v 11 C 13,13.777 12.777,14 12.5,14 H 4 Z M 8.489,5.002 C 8.007,4.97 7.536,5.252 7.256,5.632 6.984,6.124 7.206,6.71 7.036,7.229 c -0.104,0.37 0,0.767 0.271,1.037 0.231,0.291 0.516,0.672 0.357,1.064 -0.229,0.441 -0.687,0.7 -1.103,0.936 -0.11,0.044 -0.252,0.121 -0.37,0.213 -0.105,0.028 -0.19,0.109 -0.19,0.224 v 1.047 c 0,0.138 0.11,0.25 0.25,0.25 h 4.5 a 0.25,0.25 0 0 0 0.25,-0.25 V 10.469 C 10.444,10.166 9.817,9.875 9.504,9.287 9.398,8.825 9.723,8.42 10.008,8.1 10.289,7.742 10.178,7.27 10.08,6.871 10.038,6.429 10.181,5.905 9.852,5.543 9.495,5.181 8.98,5.034 8.488,5.002 Z" />
</svg>
