<?xml version="1.0" encoding="UTF-8" standalone="no"?>
<svg
   xmlns:dc="http://purl.org/dc/elements/1.1/"
   xmlns:cc="http://creativecommons.org/ns#"
   xmlns:rdf="http://www.w3.org/1999/02/22-rdf-syntax-ns#"
   xmlns:svg="http://www.w3.org/2000/svg"
   xmlns="http://www.w3.org/2000/svg"
   xmlns:xlink="http://www.w3.org/1999/xlink"
   id="svg3182"
   height="32"
   width="32"
   version="1.1">
  <defs
     id="defs3184">
    <linearGradient
       id="linearGradient3104-6">
      <stop
         id="stop3106-3"
         style="stop-color:#000000;stop-opacity:0.31782946"
         offset="0" />
      <stop
         id="stop3108-9"
         style="stop-color:#000000;stop-opacity:0.24031007"
         offset="1" />
    </linearGradient>
    <linearGradient
       y2="2.9062471"
       x2="-51.786404"
       y1="50.786446"
       x1="-51.786404"
       gradientTransform="matrix(0.53064141,0,0,0.58970049,39.269607,-1.791918)"
       gradientUnits="userSpaceOnUse"
       id="linearGradient3148"
       xlink:href="#linearGradient3104-6" />
    <linearGradient
       id="linearGradient1028">
      <stop
         id="stop1024"
         offset="0"
         style="stop-color:#64baff;stop-opacity:1" />
      <stop
         id="stop1026"
         offset="1"
         style="stop-color:#3689e6;stop-opacity:1" />
    </linearGradient>
    <linearGradient
       xlink:href="#linearGradient1028"
       id="linearGradient847"
       x1="16"
       y1="1"
       x2="16"
       y2="29"
       gradientUnits="userSpaceOnUse" />
  </defs>
  <metadata
     id="metadata3187">
    <rdf:RDF>
      <cc:Work
         rdf:about="">
        <dc:format>image/svg+xml</dc:format>
        <dc:type
           rdf:resource="http://purl.org/dc/dcmitype/StillImage" />
        <dc:title />
      </cc:Work>
    </rdf:RDF>
  </metadata>
  <path
     style="fill:#fafafa;fill-opacity:1;stroke:none;display:inline"
     id="path4160-3"
     d="m 5,1 c 5.041316,0 21.999973,0.00179 21.999973,0.00179 L 27,29 C 27,29 12.333334,29 5,29 5,19.666667 5,10.333336 5,1.0000041 z" />
  <path
     d="m 4.499961,0.499944 c 5.27048,0 23.000054,0.002 23.000054,0.002 l 2.4e-5,28.998112 c 0,0 -15.333385,0 -23.000078,0 0,-9.666722 0,-19.333346 0,-28.999956 z"
     id="path4160-6-1"
     style="fill:none;stroke:url(#linearGradient3148);stroke-width:0.9999218;stroke-linecap:butt;stroke-linejoin:round;stroke-miterlimit:4;stroke-opacity:1;stroke-dasharray:none;stroke-dashoffset:0;display:inline" />
  <path
     style="display:inline;fill:url(#linearGradient847);fill-opacity:1;stroke:none;stroke-width:0.13407429"
     d="M 16 7 A 7.4782609 8.0000001 0 0 0 8.5214844 15 A 7.4782609 8.0000001 0 0 0 16 23 A 7.4782609 8.0000001 0 0 0 23.478516 15 A 7.4782609 8.0000001 0 0 0 16 7 z M 16.140625 9.2324219 C 19.034997 9.2906299 21.380859 11.778135 21.380859 14.917969 C 21.380859 18.057802 19.035616 20.601562 16.140625 20.601562 C 13.245641 20.601562 10.898438 18.057802 10.898438 14.917969 C 10.898438 11.778135 12.911787 9.1674869 16.140625 9.2324219 z M 15.085938 13.185547 A 1.8463 1.1434731 86.47613 0 0 14.054688 15.09375 A 1.8463 1.1434731 86.47613 0 0 15.306641 16.871094 A 1.8463 1.1434731 86.47613 0 0 16.337891 14.962891 A 1.8463 1.1434731 86.47613 0 0 15.085938 13.185547 z M 18.685547 13.349609 A 0.96573866 1.6921356 3.7191532 0 0 17.617188 14.984375 A 0.96573866 1.6921356 3.7191532 0 0 18.476562 16.728516 A 0.96573866 1.6921356 3.7191532 0 0 19.544922 15.09375 A 0.96573866 1.6921356 3.7191532 0 0 18.685547 13.349609 z "
     id="path11995-1-2-2-9-1-3" />
</svg>
