<?xml version="1.0" encoding="UTF-8" standalone="no"?>
<svg
   xmlns:dc="http://purl.org/dc/elements/1.1/"
   xmlns:cc="http://creativecommons.org/ns#"
   xmlns:rdf="http://www.w3.org/1999/02/22-rdf-syntax-ns#"
   xmlns:svg="http://www.w3.org/2000/svg"
   xmlns="http://www.w3.org/2000/svg"
   xmlns:xlink="http://www.w3.org/1999/xlink"
   version="1.1"
   width="32"
   height="32"
   id="svg3182">
  <defs
     id="defs3184">
    <linearGradient
       id="linearGradient3104-6">
      <stop
         offset="0"
         style="stop-color:#000000;stop-opacity:0.31782946"
         id="stop3106-3" />
      <stop
         offset="1"
         style="stop-color:#000000;stop-opacity:0.24031007"
         id="stop3108-9" />
    </linearGradient>
    <linearGradient
       xlink:href="#linearGradient3104-6"
       id="linearGradient3148"
       gradientUnits="userSpaceOnUse"
       gradientTransform="matrix(0.53064141,0,0,0.58970049,39.269607,-1.791918)"
       x1="-51.786404"
       y1="50.786446"
       x2="-51.786404"
       y2="2.9062471" />
  </defs>
  <metadata
     id="metadata3187">
    <rdf:RDF>
      <cc:Work
         rdf:about="">
        <dc:format>image/svg+xml</dc:format>
        <dc:type
           rdf:resource="http://purl.org/dc/dcmitype/StillImage" />
        <dc:title />
      </cc:Work>
    </rdf:RDF>
  </metadata>
  <path
     d="m 5,1 c 5.041316,0 21.999973,0.00179 21.999973,0.00179 L 27,29 C 27,29 12.333334,29 5,29 5,19.666667 5,10.333336 5,1.0000041 z"
     id="path4160-3"
     style="fill:#fafafa;fill-opacity:1;stroke:none;display:inline" />
  <path
     style="fill:none;stroke:url(#linearGradient3148);stroke-width:0.9999218;stroke-linecap:butt;stroke-linejoin:round;stroke-miterlimit:4;stroke-opacity:1;stroke-dasharray:none;stroke-dashoffset:0;display:inline"
     id="path4160-6-1"
     d="m 4.499961,0.499944 c 5.27048,0 23.000054,0.002 23.000054,0.002 l 2.4e-5,28.998112 c 0,0 -15.333385,0 -23.000078,0 0,-9.666722 0,-19.333346 0,-28.999956 z" />
  <path
     d="m 13.371915,20 -2.661057,0 0,3 2.661057,0 0,-3 z m 2.644918,-15 -2.661056,0 0,3 2.661056,0 0,-3 z m 5.322112,0 -2.661058,0 0,3 2.661058,0 0,-3 z m -2.661058,3 -2.661056,0 0,3 2.661056,0 0,-3 z M 10.661056,5 8,5 l 0,3 2.661056,0 0,-3 z M 24,8 l -2.661056,0 0,3 L 24,11 24,8 Z m -2.661055,3 -2.661058,0 0,3 2.661058,0 0,-3 z m -2.661058,3 -2.661056,0 0,3 2.661056,0 0,-3 z m -2.661054,-3 -2.661056,0 0,3 2.661056,0 0,-3 z m -2.661058,-3 -2.661057,0 0,3 2.661057,0 0,-3 z M 10.694721,11 8,11 l 0,3 2.694721,0 0,-3 z m 2.661054,3 -2.661057,0 0,3 2.661057,0 0,-3 z M 10.694721,17 8,17 l 0,3 2.694721,0 0,-3 z M 24,14 l -2.661056,0 0,3 L 24,17 24,14 Z m -2.661055,3 -2.661058,0 0,3 2.661058,0 0,-3 z M 24,20 l -2.661056,0 0,3 L 24,23 24,20 Z m -2.661055,3 -2.661058,0 0,3 2.661058,0 0,-3 z m -2.661058,-3 -2.661056,0 0,3 2.661056,0 0,-3 z m -2.661054,-3 -2.661056,0 0,3 2.661056,0 0,-3 z m -0.03458,6 -2.661056,0 0,3 2.661056,0 0,-3 z M 10.694721,23 8,23 l 0,3 2.694721,0 0,-3 z"
     id="path2648"
     style="display:inline;overflow:visible;visibility:visible;opacity:0.12000002;fill:#000000;fill-opacity:1;fill-rule:evenodd;stroke:none;stroke-width:1.21500194;marker:none" />
</svg>
