<?xml version="1.0" encoding="UTF-8" standalone="no"?>
<svg
   xmlns:dc="http://purl.org/dc/elements/1.1/"
   xmlns:cc="http://creativecommons.org/ns#"
   xmlns:rdf="http://www.w3.org/1999/02/22-rdf-syntax-ns#"
   xmlns:svg="http://www.w3.org/2000/svg"
   xmlns="http://www.w3.org/2000/svg"
   xmlns:xlink="http://www.w3.org/1999/xlink"
   id="svg3182"
   height="32"
   width="32"
   version="1.1">
  <defs
     id="defs3184">
    <linearGradient
       id="linearGradient4160">
      <stop
         style="stop-color:#abacae;stop-opacity:1"
         offset="0"
         id="stop4162" />
      <stop
         style="stop-color:#7e8087;stop-opacity:1"
         offset="1"
         id="stop4164" />
    </linearGradient>
    <linearGradient
       id="linearGradient3104-6">
      <stop
         id="stop3106-3"
         style="stop-color:#000000;stop-opacity:0.31782946"
         offset="0" />
      <stop
         id="stop3108-9"
         style="stop-color:#000000;stop-opacity:0.24031007"
         offset="1" />
    </linearGradient>
    <linearGradient
       y2="2.9062471"
       x2="-51.786404"
       y1="50.786446"
       x1="-51.786404"
       gradientTransform="matrix(0.53064141,0,0,0.58970049,39.269607,-1.791918)"
       gradientUnits="userSpaceOnUse"
       id="linearGradient3148"
       xlink:href="#linearGradient3104-6" />
    <linearGradient
       xlink:href="#linearGradient4160"
       id="linearGradient4158"
       x1="16"
       y1="0"
       x2="16"
       y2="30"
       gradientUnits="userSpaceOnUse" />
  </defs>
  <metadata
     id="metadata3187">
    <rdf:RDF>
      <cc:Work
         rdf:about="">
        <dc:format>image/svg+xml</dc:format>
        <dc:type
           rdf:resource="http://purl.org/dc/dcmitype/StillImage" />
        <dc:title />
      </cc:Work>
    </rdf:RDF>
  </metadata>
  <path
     style="fill:#fafafa;fill-opacity:1;stroke:none;display:inline"
     id="path4160-3"
     d="m 5,1 c 5.041316,0 21.999973,0.00179 21.999973,0.00179 L 27,29 C 27,29 12.333334,29 5,29 5,19.666667 5,10.333336 5,1.0000041 z" />
  <path
     d="m 4.499961,0.499944 c 5.27048,0 23.000054,0.002 23.000054,0.002 l 2.4e-5,28.998112 c 0,0 -15.333385,0 -23.000078,0 0,-9.666722 0,-19.333346 0,-28.999956 z"
     id="path4160-6-1"
     style="fill:none;stroke:url(#linearGradient3148);stroke-width:0.9999218;stroke-linecap:butt;stroke-linejoin:round;stroke-miterlimit:4;stroke-opacity:1;stroke-dasharray:none;stroke-dashoffset:0;display:inline" />
  <path
     id="path4142-4"
     d="m 16,6.5555553 c -3.784,0 -7.9999999,1.277778 -7.9999999,3.1111114 0,1.8333343 4.2159999,3.1111113 7.9999999,3.1111113 3.784,0 8,-1.277777 8,-3.1111113 0,-1.8333334 -4.216,-3.1111114 -8,-3.1111114 z m -7.9999999,4.8611117 0,1.805556 c 0,1.833333 4.2159999,3.111111 7.9999999,3.111111 3.784,0 8,-1.277778 8,-3.111111 l 0,-1.805556 c -1.42256,1.337716 -4.42665,2.25 -8,2.25 -3.57335,0 -6.5774399,-0.912284 -7.9999999,-2.25 z m 0,3.555556 0,1.805555 c 0,1.833334 4.2159999,3.111111 7.9999999,3.111111 3.784,0 8,-1.277777 8,-3.111111 l 0,-1.805555 c -1.42256,1.337715 -4.42665,2.25 -8,2.25 -3.57335,0 -6.5774399,-0.912285 -7.9999999,-2.25 z m 0,3.555555 0,1.805556 c 0,1.833333 4.2159999,3.111111 7.9999999,3.111111 3.784,0 8,-1.277778 8,-3.111111 l 0,-1.805556 c -1.42256,1.337716 -4.42665,2.25 -8,2.25 -3.57335,0 -6.5774399,-0.912284 -7.9999999,-2.25 z"
     style="color:#000000;display:inline;overflow:visible;visibility:visible;fill:url(#linearGradient4158);fill-opacity:1;fill-rule:nonzero;stroke:none;stroke-width:20;marker:none;enable-background:new" />
</svg>
