<?xml version="1.0" encoding="UTF-8" standalone="no"?>
<svg
   xmlns:dc="http://purl.org/dc/elements/1.1/"
   xmlns:cc="http://creativecommons.org/ns#"
   xmlns:rdf="http://www.w3.org/1999/02/22-rdf-syntax-ns#"
   xmlns:svg="http://www.w3.org/2000/svg"
   xmlns="http://www.w3.org/2000/svg"
   xmlns:xlink="http://www.w3.org/1999/xlink"
   version="1.1"
   width="32"
   height="32"
   id="svg3182">
  <defs
     id="defs3184">
    <linearGradient
       id="linearGradient3104-6">
      <stop
         offset="0"
         style="stop-color:#000000;stop-opacity:0.31782946"
         id="stop3106-3" />
      <stop
         offset="1"
         style="stop-color:#000000;stop-opacity:0.24031007"
         id="stop3108-9" />
    </linearGradient>
    <linearGradient
       xlink:href="#linearGradient3104-6"
       id="linearGradient3148"
       gradientUnits="userSpaceOnUse"
       gradientTransform="matrix(0.53064141,0,0,0.58970049,39.269607,-1.791918)"
       x1="-51.786404"
       y1="50.786446"
       x2="-51.786404"
       y2="2.9062471" />
    <linearGradient
       id="linearGradient2867-449-88-871-390-598-476-591-434-148-57-177-8-3">
      <stop
         id="stop3750-1-0"
         style="stop-color:#90dbec;stop-opacity:1"
         offset="0" />
      <stop
         id="stop3752-3-7"
         style="stop-color:#55c1ec;stop-opacity:1"
         offset="0.26238" />
      <stop
         id="stop3754-1-8"
         style="stop-color:#3689e6;stop-opacity:1"
         offset="0.704952" />
      <stop
         id="stop3756-1-6"
         style="stop-color:#2b63a0;stop-opacity:1"
         offset="1" />
    </linearGradient>
    <radialGradient
       xlink:href="#linearGradient2867-449-88-871-390-598-476-591-434-148-57-177-8-3"
       id="radialGradient4249"
       gradientUnits="userSpaceOnUse"
       gradientTransform="matrix(-1.1494524e-7,4.7418365,-5.7533456,-1.4233716e-7,73.220792,-44.844372)"
       cx="5.6491151"
       cy="9.9571075"
       fx="5.118885"
       fy="9.9571075"
       r="12.671875" />
  </defs>
  <metadata
     id="metadata3187">
    <rdf:RDF>
      <cc:Work
         rdf:about="">
        <dc:format>image/svg+xml</dc:format>
        <dc:type
           rdf:resource="http://purl.org/dc/dcmitype/StillImage" />
        <dc:title />
      </cc:Work>
    </rdf:RDF>
  </metadata>
  <path
     d="m 5,1 c 5.041316,0 21.999973,0.00179 21.999973,0.00179 L 27,29 C 27,29 12.333334,29 5,29 5,19.666667 5,10.333336 5,1.0000041 z"
     id="path4160-3"
     style="fill:#fafafa;fill-opacity:1;stroke:none;display:inline" />
  <path
     style="fill:none;stroke:url(#linearGradient3148);stroke-width:0.9999218;stroke-linecap:butt;stroke-linejoin:round;stroke-miterlimit:4;stroke-opacity:1;stroke-dasharray:none;stroke-dashoffset:0;display:inline"
     id="path4160-6-1"
     d="m 4.499961,0.499944 c 5.27048,0 23.000054,0.002 23.000054,0.002 l 2.4e-5,28.998112 c 0,0 -15.333385,0 -23.000078,0 0,-9.666722 0,-19.333346 0,-28.999956 z" />
  <path
     style="color:#000000;clip-rule:nonzero;display:inline;overflow:visible;visibility:visible;opacity:1;isolation:auto;mix-blend-mode:normal;color-interpolation:sRGB;color-interpolation-filters:linearRGB;solid-color:#000000;solid-opacity:1;fill:url(#radialGradient4249);fill-opacity:1;fill-rule:nonzero;stroke:none;stroke-width:1;stroke-linecap:butt;stroke-linejoin:miter;stroke-miterlimit:4;stroke-dasharray:none;stroke-dashoffset:0;stroke-opacity:1;marker:none;color-rendering:auto;image-rendering:auto;shape-rendering:auto;text-rendering:auto;enable-background:accumulate"
     d="M 17,8 8,9.6074219 8,21.392578 17,23 Z m 1,2 0,1 5,0 0,1 -5,0 0,1 5,0 0,1 -5,0 0,1 5,0 0,1 -5,0 0,1 5,0 0,1 -5,0 0,1 5,0 0,1 -5,0 0,1 6,0 0,-11 z m -3.578125,2.771484 0.509766,0 c 0.470425,0 0.500748,0.03155 0.447265,0.267578 -0.03185,0.140524 -0.299376,1.389671 -0.59375,2.779297 l -0.53125,2.527344 -0.546875,0 c -0.297719,0 -0.539216,-0.01758 -0.544922,-0.0332 -0.0057,-0.01562 -0.177036,-0.842514 -0.380859,-1.841797 -0.203823,-0.999282 -0.396649,-1.751885 -0.429688,-1.658203 -0.03303,0.09368 -0.205218,0.91776 -0.378906,1.810547 l -0.316406,1.623047 -0.496094,-0.03516 -0.513672,-0.03125 -0.412109,-2.228516 c -0.230784,-1.217876 -0.4492762,-2.346468 -0.4804688,-2.511719 -0.051607,-0.273408 -0.016046,-0.306647 0.3476558,-0.349609 0.506748,-0.05986 0.529304,-0.0065 0.828126,1.958984 0.127658,0.839741 0.228776,1.53912 0.246093,1.556641 0.01732,0.01752 0.20061,-0.778763 0.398438,-1.757813 0.19783,-0.979049 0.417878,-1.810362 0.49414,-1.859375 0.21949,-0.14106 0.837121,-0.105517 0.894532,0.05078 0.02868,0.07807 0.206924,0.922559 0.380859,1.875 0.291006,1.593497 0.497165,2.173865 0.498047,1.40625 3.38e-4,-0.306578 0.230385,-1.771214 0.460937,-2.947265 z"
     id="path4247" />
</svg>
