<?xml version="1.0" encoding="UTF-8" standalone="no"?>
<svg
   xmlns:osb="http://www.openswatchbook.org/uri/2009/osb"
   xmlns:dc="http://purl.org/dc/elements/1.1/"
   xmlns:cc="http://creativecommons.org/ns#"
   xmlns:rdf="http://www.w3.org/1999/02/22-rdf-syntax-ns#"
   xmlns:svg="http://www.w3.org/2000/svg"
   xmlns="http://www.w3.org/2000/svg"
   xmlns:xlink="http://www.w3.org/1999/xlink"
   version="1.1"
   width="32"
   height="32"
   id="svg3182">
  <defs
     id="defs3184">
    <linearGradient
       id="linearGradient855">
      <stop
         style="stop-color:#a56de2;stop-opacity:1"
         offset="0"
         id="stop851" />
      <stop
         style="stop-color:#7239b3;stop-opacity:1"
         offset="1"
         id="stop853" />
    </linearGradient>
    <linearGradient
       id="linearGradient3104-6">
      <stop
         offset="0"
         style="stop-color:#000000;stop-opacity:0.31782946"
         id="stop3106-3" />
      <stop
         offset="1"
         style="stop-color:#000000;stop-opacity:0.24031007"
         id="stop3108-9-6" />
    </linearGradient>
    <linearGradient
       xlink:href="#linearGradient3104-6"
       id="linearGradient3181"
       gradientUnits="userSpaceOnUse"
       gradientTransform="matrix(0.53064141,0,0,0.58970049,39.269608,-1.7919172)"
       x1="-51.786404"
       y1="50.786446"
       x2="-51.786404"
       y2="2.9062471" />
    <linearGradient
       osb:paint="solid"
       id="linearGradient4526">
      <stop
         id="stop4528"
         offset="0"
         style="stop-color:#ffffff;stop-opacity:1;" />
    </linearGradient>
    <linearGradient
       xlink:href="#linearGradient855"
       id="linearGradient857"
       x1="16.440001"
       y1="0.76097655"
       x2="16.440001"
       y2="29.652405"
       gradientUnits="userSpaceOnUse" />
  </defs>
  <metadata
     id="metadata3187">
    <rdf:RDF>
      <cc:Work
         rdf:about="">
        <dc:format>image/svg+xml</dc:format>
        <dc:type
           rdf:resource="http://purl.org/dc/dcmitype/StillImage" />
        <dc:title />
      </cc:Work>
    </rdf:RDF>
  </metadata>
  <path
     style="fill:#fafafa;fill-opacity:1;stroke:none;display:inline"
     id="path4160-3"
     d="m 5,1.0000037 c 5.041317,0 21.999974,0.00178 21.999974,0.00178 L 27,29 C 27,29 12.333334,29 5,29 5,19.666666 5,10.333334 5,1.0000016 z" />
  <path
     d="m 4.499961,0.4999448 c 5.2704807,0 23.000054,0.002 23.000054,0.002 l 2.4e-5,28.9981122 c 0,0 -15.333385,0 -23.000078,0 0,-9.666722 0,-19.333346 0,-28.9999562 z"
     id="path4160-6-1"
     style="fill:none;stroke:url(#linearGradient3181);stroke-width:0.9999218;stroke-linecap:butt;stroke-linejoin:round;stroke-miterlimit:4;stroke-opacity:1;stroke-dasharray:none;stroke-dashoffset:0;display:inline" />
  <path
     id="path3455"
     d="M 15.933594 10.615234 C 15.035883 10.615242 14.199557 10.818621 13.414062 11.255859 L 13.890625 12.287109 C 14.188571 12.140078 14.504934 12.020497 14.818359 11.916016 C 15.131781 11.811552 15.46248 11.750007 15.830078 11.75 C 16.236365 11.750007 16.562606 11.84542 16.779297 12.019531 C 16.995981 12.193663 17.087886 12.436693 17.087891 12.761719 C 17.087886 13.040324 17.037766 13.283171 16.902344 13.484375 C 16.77078 13.685592 16.476084 13.966359 16.015625 14.330078 C 15.62868 14.631898 15.344228 14.914802 15.189453 15.197266 C 15.034674 15.479737 14.96289 15.843897 14.962891 16.269531 L 14.962891 16.642578 L 16.097656 16.642578 L 16.097656 16.373047 C 16.097654 16.059625 16.163239 15.816595 16.283203 15.630859 C 16.407021 15.44513 16.645999 15.21216 17.005859 14.929688 C 17.427623 14.600791 17.722319 14.328132 17.892578 14.123047 C 18.066698 13.917973 18.200023 13.708808 18.285156 13.484375 C 18.370276 13.256085 18.41015 12.98748 18.410156 12.697266 C 18.41015 12.043341 18.193028 11.543348 17.748047 11.171875 C 17.30306 10.800419 16.691998 10.615242 15.933594 10.615234 z M 12.0625 11.617188 L 7 14.429688 L 7 15.554688 L 12.0625 18.367188 L 12.0625 17.242188 L 8.125 14.994141 L 12.0625 12.742188 L 12.0625 11.617188 z M 19.9375 11.617188 L 19.9375 12.742188 L 23.875 14.994141 L 19.9375 17.242188 L 19.9375 18.367188 L 25 15.554688 L 25 14.429688 L 19.9375 11.617188 z M 15.582031 17.611328 C 15.013224 17.611329 14.714843 17.913764 14.714844 18.498047 C 14.714843 18.780515 14.794359 19.001509 14.941406 19.160156 C 15.088442 19.314933 15.3073 19.386719 15.582031 19.386719 C 15.856758 19.386719 16.054131 19.295365 16.201172 19.136719 C 16.352077 18.974203 16.427731 18.772776 16.427734 18.498047 C 16.427731 18.219449 16.367743 17.988799 16.220703 17.837891 C 16.073663 17.683115 15.860628 17.611329 15.582031 17.611328 z "
     style="color:#000000;font-style:normal;font-variant:normal;font-weight:600;font-stretch:normal;font-size:18px;line-height:125%;font-family:'Open Sans';-inkscape-font-specification:'Open Sans Semi-Bold';text-align:center;letter-spacing:0px;word-spacing:0px;writing-mode:lr-tb;text-anchor:middle;clip-rule:nonzero;display:inline;overflow:visible;visibility:visible;opacity:1;isolation:auto;mix-blend-mode:normal;color-interpolation:sRGB;color-interpolation-filters:linearRGB;solid-color:#000000;solid-opacity:1;fill:url(#linearGradient857);fill-opacity:1;fill-rule:nonzero;stroke:none;stroke-width:1;stroke-linecap:butt;stroke-linejoin:round;stroke-miterlimit:4;stroke-dasharray:none;stroke-dashoffset:0;stroke-opacity:1;marker:none;color-rendering:auto;image-rendering:auto;shape-rendering:auto;text-rendering:auto;enable-background:accumulate" />
</svg>
