<?xml version="1.0" encoding="UTF-8" standalone="no"?>
<svg
   xmlns:dc="http://purl.org/dc/elements/1.1/"
   xmlns:cc="http://creativecommons.org/ns#"
   xmlns:rdf="http://www.w3.org/1999/02/22-rdf-syntax-ns#"
   xmlns:svg="http://www.w3.org/2000/svg"
   xmlns="http://www.w3.org/2000/svg"
   xmlns:xlink="http://www.w3.org/1999/xlink"
   id="svg3182"
   height="32"
   width="32"
   version="1.1">
  <defs
     id="defs3184">
    <linearGradient
       id="linearGradient3104-6">
      <stop
         offset="0"
         style="stop-color:#000000;stop-opacity:0.31782946"
         id="stop3106-3" />
      <stop
         offset="1"
         style="stop-color:#000000;stop-opacity:0.24031007"
         id="stop3108-9" />
    </linearGradient>
    <linearGradient
       gradientTransform="matrix(0.53064143,0,0,0.58970049,39.269602,-1.7919191)"
       gradientUnits="userSpaceOnUse"
       xlink:href="#linearGradient3104-6"
       id="linearGradient3047"
       y2="2.9062471"
       x2="-51.786404"
       y1="50.786446"
       x1="-51.786404" />
    <linearGradient
       xlink:href="#linearGradient994"
       id="linearGradient996"
       x1="33.503624"
       y1="0.39035916"
       x2="33.503624"
       y2="59.221642"
       gradientUnits="userSpaceOnUse"
       gradientTransform="matrix(0.44079179,0,0,0.43657375,1.6917656,1.9028095)" />
    <linearGradient
       id="linearGradient994">
      <stop
         style="stop-color:#f9c440;stop-opacity:1"
         offset="0"
         id="stop990" />
      <stop
         style="stop-color:#d48e15;stop-opacity:1"
         offset="1"
         id="stop992" />
    </linearGradient>
  </defs>
  <metadata
     id="metadata3187">
    <rdf:RDF>
      <cc:Work
         rdf:about="">
        <dc:format>image/svg+xml</dc:format>
        <dc:type
           rdf:resource="http://purl.org/dc/dcmitype/StillImage" />
        <dc:title />
      </cc:Work>
    </rdf:RDF>
  </metadata>
  <path
     style="fill:#fafafa;fill-opacity:1;stroke:none;display:inline"
     id="path4160-3"
     d="m 5,1 c 5.041316,0 21.999973,0.00179 21.999973,0.00179 L 27,29 C 27,29 12.333334,29 5,29 5,19.666667 5,10.333336 5,1.0000041 z" />
  <path
     style="fill:none;stroke:url(#linearGradient3047);stroke-width:0.9999218;stroke-linecap:butt;stroke-linejoin:round;stroke-miterlimit:4;stroke-opacity:1;stroke-dasharray:none;stroke-dashoffset:0;display:inline"
     id="path4160-6-1"
     d="m 4.4999542,0.4999439 c 5.2704806,0 23.0000548,0.002 23.0000548,0.002 l 2.4e-5,28.9981121 c 0,0 -15.333386,0 -23.0000788,0 0,-9.666722 0,-19.333346 0,-28.9999561 z" />
  <path
     d="m 13,10 v 6.618011 c 0,1.015625 -0.513775,1.276725 -1.188405,1.276725 -0.705769,0 -1.195645,-0.435854 -1.519472,-1.001232 L 8.62319,17.894736 C 9.1068448,18.908306 10.292123,20 11.936146,20 13.754535,20 15,19.041941 15,16.938734 V 10 Z m 6.492001,0 c -1.810086,0 -2.970447,1.147205 -2.970447,2.654196 0,1.634456 0.973539,2.407482 2.436967,3.024258 l 0.506496,0.215873 c 0.923722,0.400903 1.380394,0.645559 1.380394,1.334292 0,0.573602 -0.440063,0.988897 -1.280758,0.988897 -1.000526,0 -1.47381,-0.672285 -1.907648,-1.37541 l -1.594203,1.05263 C 16.658552,19.060444 17.727586,20 19.610324,20 c 1.926329,0 3.360692,-0.990953 3.360692,-2.798109 0,-1.677631 -0.971465,-2.423929 -2.69644,-3.155839 L 19.76808,13.832236 c -0.869753,-0.374176 -1.247548,-0.616773 -1.247548,-1.219161 0,-0.487253 0.377795,-0.861427 0.971469,-0.861432 0.583299,0 0.95693,0.244658 1.303592,0.861432 l 1.579675,-1.003291 C 21.708945,10.444079 20.781061,10 19.492001,10 Z"
     id="path16"
     style="fill:url(#linearGradient996);fill-opacity:1;stroke-width:0.99999994" />
</svg>
