<?xml version="1.0" encoding="UTF-8" standalone="no"?>
<svg
   xmlns:dc="http://purl.org/dc/elements/1.1/"
   xmlns:cc="http://creativecommons.org/ns#"
   xmlns:rdf="http://www.w3.org/1999/02/22-rdf-syntax-ns#"
   xmlns:svg="http://www.w3.org/2000/svg"
   xmlns="http://www.w3.org/2000/svg"
   xmlns:xlink="http://www.w3.org/1999/xlink"
   version="1.1"
   width="32"
   height="32"
   id="svg3182">
  <defs
     id="defs3184">
    <linearGradient
       id="linearGradient3104-6">
      <stop
         offset="0"
         style="stop-color:#000000;stop-opacity:0.31782946"
         id="stop3106-3" />
      <stop
         offset="1"
         style="stop-color:#000000;stop-opacity:0.24031007"
         id="stop3108-9" />
    </linearGradient>
    <linearGradient
       xlink:href="#linearGradient3104-6"
       id="linearGradient3148"
       gradientUnits="userSpaceOnUse"
       gradientTransform="matrix(0.53064141,0,0,0.58970049,39.269607,-1.791918)"
       x1="-51.786404"
       y1="50.786446"
       x2="-51.786404"
       y2="2.9062471" />
    <radialGradient
       xlink:href="#linearGradient3242-7-3-8-0-4-58"
       id="radialGradient4777"
       gradientUnits="userSpaceOnUse"
       gradientTransform="matrix(-2.0015933e-8,5.4714347,-6.7171728,-2.4054471e-8,82.875925,-48.791584)"
       cx="5.6155143"
       cy="9.9571075"
       fx="5.0852842"
       fy="9.9571075"
       r="12.671875" />
    <linearGradient
       id="linearGradient3242-7-3-8-0-4-58">
      <stop
         offset="0"
         style="stop-color:#bdff69;stop-opacity:1;"
         id="stop3244-5-8-5-6-4-3" />
      <stop
         offset="0.26238"
         style="stop-color:#8ed451;stop-opacity:1;"
         id="stop3246-9-5-1-5-3-0" />
      <stop
         offset="0.66093999"
         style="stop-color:#58aa30;stop-opacity:1;"
         id="stop3248-7-2-0-7-5-35" />
      <stop
         offset="1"
         style="stop-color:#2a6c1f;stop-opacity:1;"
         id="stop3250-8-2-8-5-6-40" />
    </linearGradient>
  </defs>
  <metadata
     id="metadata3187">
    <rdf:RDF>
      <cc:Work
         rdf:about="">
        <dc:format>image/svg+xml</dc:format>
        <dc:type
           rdf:resource="http://purl.org/dc/dcmitype/StillImage" />
        <dc:title />
      </cc:Work>
    </rdf:RDF>
  </metadata>
  <path
     d="m 5,1 c 5.041316,0 21.999973,0.00179 21.999973,0.00179 L 27,29 C 27,29 12.333334,29 5,29 5,19.666667 5,10.333336 5,1.0000041 z"
     id="path4160-3"
     style="fill:#fafafa;fill-opacity:1;stroke:none;display:inline" />
  <path
     style="fill:none;stroke:url(#linearGradient3148);stroke-width:0.9999218;stroke-linecap:butt;stroke-linejoin:round;stroke-miterlimit:4;stroke-opacity:1;stroke-dasharray:none;stroke-dashoffset:0;display:inline"
     id="path4160-6-1"
     d="m 4.499961,0.499944 c 5.27048,0 23.000054,0.002 23.000054,0.002 l 2.4e-5,28.998112 c 0,0 -15.333385,0 -23.000078,0 0,-9.666722 0,-19.333346 0,-28.999956 z" />
  <path
     style="color:#000000;clip-rule:nonzero;display:inline;overflow:visible;visibility:visible;opacity:1;isolation:auto;mix-blend-mode:normal;color-interpolation:sRGB;color-interpolation-filters:linearRGB;solid-color:#000000;solid-opacity:1;fill:url(#radialGradient4777);fill-opacity:1;fill-rule:nonzero;stroke:none;stroke-width:0.99999994;stroke-linecap:butt;stroke-linejoin:miter;stroke-miterlimit:4;stroke-dasharray:none;stroke-dashoffset:0;stroke-opacity:1;marker:none;color-rendering:auto;image-rendering:auto;shape-rendering:auto;text-rendering:auto;enable-background:accumulate"
     d="m 17,8.0333332 -9,1.5999999 0,11.7333339 9,1.6 z M 18,10 l 0,1 2,0 0,1 -2,0 0,1 2,0 0,1 -2,0 0,1 2,0 0,1 -2,0 0,1 2,0 0,1 -2,0 0,1 2,0 0,1 -2,0 0,1 6,0 0,-11 z m 3,1 1.933333,0 0,1 L 21,12 Z m 0,2 1.933333,0 0,1 L 21,14 Z m -6.783333,-0.316667 c 0.09686,-0.0019 0.150048,-0.004 0.15,0 -7.5e-5,0.0081 -0.272768,0.628032 -0.616667,1.366667 L 13.116667,15.383333 13.75,16.716667 c 0.343899,0.72873 0.616667,1.352832 0.616667,1.383333 0,0.06405 -0.459531,0.05336 -0.85,-0.01667 -0.258464,-0.04635 -0.271382,-0.07536 -0.6,-0.9 -0.18727,-0.469944 -0.368464,-0.883796 -0.4,-0.916667 -0.03152,-0.03287 -0.214459,0.323239 -0.4,0.783334 -0.185542,0.46009 -0.35823,0.855679 -0.383334,0.883333 -0.02512,0.02768 -0.253248,0.02768 -0.516666,0 l -0.483334,-0.05 L 11.316667,16.65 11.9,15.416667 11.383333,14.233333 C 11.100448,13.580465 10.866667,12.996308 10.866667,12.95 c 0,-0.05169 0.28456,0.13211 0.5,-0.08333 l 0.5,0 0.283333,0.8 c 0.159243,0.437902 0.320565,0.817726 0.35,0.85 0.02944,0.03227 0.227653,-0.357074 0.433333,-0.866667 L 13.3,12.733333 13.833333,12.7 c 0.147019,-0.007 0.286464,-0.01472 0.383334,-0.01667 z M 21,15 l 1.933333,0 0,1 L 21,16 Z m 0,2 1.933333,0 0,1 L 21,18 Z m 0,2 1.933333,0 0,1 L 21,20 Z"
     id="path4881" />
</svg>
