<?xml version="1.0" encoding="UTF-8" standalone="no"?>
<svg
   xmlns:dc="http://purl.org/dc/elements/1.1/"
   xmlns:cc="http://creativecommons.org/ns#"
   xmlns:rdf="http://www.w3.org/1999/02/22-rdf-syntax-ns#"
   xmlns:svg="http://www.w3.org/2000/svg"
   xmlns="http://www.w3.org/2000/svg"
   xmlns:xlink="http://www.w3.org/1999/xlink"
   id="svg3182"
   height="32"
   width="32"
   version="1.1">
  <defs
     id="defs3184">
    <linearGradient
       id="linearGradient3104-6">
      <stop
         id="stop3106-3"
         style="stop-color:#000000;stop-opacity:0.31782946"
         offset="0" />
      <stop
         id="stop3108-9"
         style="stop-color:#000000;stop-opacity:0.24031007"
         offset="1" />
    </linearGradient>
    <linearGradient
       y2="2.9062471"
       x2="-51.786404"
       y1="50.786446"
       x1="-51.786404"
       gradientTransform="matrix(0.53064141,0,0,0.58970049,39.269607,-1.791918)"
       gradientUnits="userSpaceOnUse"
       id="linearGradient3148"
       xlink:href="#linearGradient3104-6" />
  </defs>
  <metadata
     id="metadata3187">
    <rdf:RDF>
      <cc:Work
         rdf:about="">
        <dc:format>image/svg+xml</dc:format>
        <dc:type
           rdf:resource="http://purl.org/dc/dcmitype/StillImage" />
        <dc:title />
      </cc:Work>
    </rdf:RDF>
  </metadata>
  <path
     style="fill:#fafafa;fill-opacity:1;stroke:none;display:inline"
     id="path4160-3"
     d="m 5,1 c 5.041316,0 21.999973,0.00179 21.999973,0.00179 L 27,29 C 27,29 12.333334,29 5,29 5,19.666667 5,10.333336 5,1.0000041 z" />
  <path
     d="m 4.499961,0.499944 c 5.27048,0 23.000054,0.002 23.000054,0.002 l 2.4e-5,28.998112 c 0,0 -15.333385,0 -23.000078,0 0,-9.666722 0,-19.333346 0,-28.999956 z"
     id="path4160-6-1"
     style="fill:none;stroke:url(#linearGradient3148);stroke-width:0.9999218;stroke-linecap:butt;stroke-linejoin:round;stroke-miterlimit:4;stroke-opacity:1;stroke-dasharray:none;stroke-dashoffset:0;display:inline" />
  <g
     id="g877">
    <g
       id="g857">
      <path
         id="path3916"
         d="m 17.134388,14.466454 c 1.177925,1.355926 -0.30887,2.575099 -0.30887,2.575099 0,0 2.989193,-1.542835 1.616692,-3.475792 -1.28234,-1.801765 -2.265474,-2.696789 3.057002,-5.7834849 5.4e-5,0 -8.354967,2.086177 -4.364824,6.6841779 z"
         style="clip-rule:evenodd;fill:#f89820;fill-opacity:1;fill-rule:evenodd;stroke-width:0.41792446" />
      <path
         id="path3924"
         d="m 18.442264,2.797068 c 0,0 2.535471,2.5369285 -2.405574,6.4369101 -3.962393,3.1296699 -0.903447,4.9134569 -0.0014,6.9525559 -2.313146,-2.086825 -4.009794,-3.924114 -2.871767,-5.633828 1.671166,-2.5093407 6.301506,-3.7263539 5.278745,-7.755638 v 0 z"
         style="clip-rule:evenodd;fill:#f89820;fill-opacity:1;fill-rule:evenodd;stroke-width:0.41792446" />
    </g>
    <g
       style="fill:#5382a1;fill-opacity:1"
       id="g865">
      <path
         id="path3912"
         d="m 12.796774,21.671083 c 0,0 -0.932115,0.542533 0.664115,0.725609 1.934091,0.220813 2.922408,0.189014 5.053126,-0.213742 0,0 0.56132,0.351143 1.343886,0.655261 C 15.079848,24.8853 9.044182,22.719598 12.796774,21.671083 Z"
         style="clip-rule:evenodd;fill:#5382a1;fill-opacity:1;fill-rule:evenodd;stroke-width:0.41792446" />
      <path
         id="path3914"
         d="m 12.212617,18.999291 c 0,0 -1.045599,0.774144 0.551818,0.939241 2.066201,0.21331 3.697308,0.230802 6.521402,-0.312702 0,0 0.38969,0.395845 1.00338,0.612177 -5.776034,1.689523 -12.209381,0.132921 -8.0766,-1.238716 z"
         style="clip-rule:evenodd;fill:#5382a1;fill-opacity:1;fill-rule:evenodd;stroke-width:0.41792446" />
      <path
         id="path3918"
         d="m 23.453657,23.647609 c 0,0 0.690029,0.568825 -0.759999,1.008725 -2.757257,0.835151 -11.478213,1.087062 -13.9004693,0.03342 -0.8701359,-0.379001 0.7623745,-0.904311 1.2760233,-1.015258 0.535567,-0.11586 0.841359,-0.0947 0.841359,-0.0947 C 9.9421759,22.897865 4.6513906,24.919094 8.2234461,25.49877 17.964572,27.077724 25.980058,24.787577 23.453657,23.647606 v 0 z"
         style="clip-rule:evenodd;fill:#5382a1;fill-opacity:1;fill-rule:evenodd;stroke-width:0.41792446" />
      <path
         id="path3920"
         d="m 13.245366,16.230643 c 0,0 -4.4354411,1.053805 -1.570639,1.436801 1.209995,0.161912 3.620644,0.12466 5.867761,-0.06387 1.83594,-0.154083 3.678412,-0.483631 3.678412,-0.483631 0,0 -0.646893,0.277502 -1.115244,0.597115 -4.505033,1.18489 -13.2062832,0.633072 -10.7009377,-0.578326 2.1178147,-1.024544 3.8406477,-0.90809 3.8406477,-0.90809 z"
         style="clip-rule:evenodd;fill:#5382a1;fill-opacity:1;fill-rule:evenodd;stroke-width:0.41792446" />
      <path
         id="path3922"
         d="m 21.202544,20.678015 c 4.579213,-2.378903 2.461722,-4.665271 0.983836,-4.357319 -0.361401,0.07542 -0.523529,0.140748 -0.523529,0.140748 0,0 0.134648,-0.210933 0.391041,-0.301689 2.923757,-1.027404 5.171792,3.03125 -0.942859,4.638655 -5.4e-5,0 0.07029,-0.06371 0.09151,-0.120395 z"
         style="clip-rule:evenodd;fill:#5382a1;fill-opacity:1;fill-rule:evenodd;stroke-width:0.41792446" />
      <path
         id="path3926"
         d="M 13.695578,27.126371 C 18.090096,27.407328 24.840248,26.97002 25,24.890429 c 0,0 -0.307087,0.788343 -3.632143,1.413856 -3.751188,0.706226 -8.378883,0.624001 -11.122535,0.170982 0,0 0.562077,0.465221 3.450256,0.651104 z"
         style="clip-rule:evenodd;fill:#5382a1;fill-opacity:1;fill-rule:evenodd;stroke-width:0.41792446" />
    </g>
  </g>
</svg>
