<?xml version="1.0" encoding="UTF-8" standalone="no"?>
<svg
   xmlns:dc="http://purl.org/dc/elements/1.1/"
   xmlns:cc="http://creativecommons.org/ns#"
   xmlns:rdf="http://www.w3.org/1999/02/22-rdf-syntax-ns#"
   xmlns:svg="http://www.w3.org/2000/svg"
   xmlns="http://www.w3.org/2000/svg"
   xmlns:xlink="http://www.w3.org/1999/xlink"
   version="1.1"
   width="32"
   height="32"
   id="svg3182">
  <defs
     id="defs3184">
    <linearGradient
       id="linearGradient3104-6">
      <stop
         offset="0"
         style="stop-color:#000000;stop-opacity:0.31782946"
         id="stop3106-3" />
      <stop
         offset="1"
         style="stop-color:#000000;stop-opacity:0.24031007"
         id="stop3108-9" />
    </linearGradient>
    <linearGradient
       xlink:href="#linearGradient3104-6"
       id="linearGradient3148"
       gradientUnits="userSpaceOnUse"
       gradientTransform="matrix(0.53064141,0,0,0.58970049,39.269607,-1.791918)"
       x1="-51.786404"
       y1="50.786446"
       x2="-51.786404"
       y2="2.9062471" />
  </defs>
  <metadata
     id="metadata3187">
    <rdf:RDF>
      <cc:Work
         rdf:about="">
        <dc:format>image/svg+xml</dc:format>
        <dc:type
           rdf:resource="http://purl.org/dc/dcmitype/StillImage" />
        <dc:title />
      </cc:Work>
    </rdf:RDF>
  </metadata>
  <path
     d="m 5,1 c 5.041316,0 21.999973,0.00179 21.999973,0.00179 L 27,29 C 27,29 12.333334,29 5,29 5,19.666667 5,10.333336 5,1.0000041 z"
     id="path4160-3"
     style="fill:#fafafa;fill-opacity:1;stroke:none;display:inline" />
  <path
     style="fill:none;stroke:url(#linearGradient3148);stroke-width:0.9999218;stroke-linecap:butt;stroke-linejoin:round;stroke-miterlimit:4;stroke-opacity:1;stroke-dasharray:none;stroke-dashoffset:0;display:inline"
     id="path4160-6-1"
     d="m 4.499961,0.499944 c 5.27048,0 23.000054,0.002 23.000054,0.002 l 2.4e-5,28.998112 c 0,0 -15.333385,0 -23.000078,0 0,-9.666722 0,-19.333346 0,-28.999956 z" />
  <path
     style="color:#000000;display:inline;overflow:visible;visibility:visible;fill:#343434;fill-opacity:1;fill-rule:nonzero;stroke:#343434;stroke-width:0.99999994;stroke-linecap:round;stroke-linejoin:round;stroke-miterlimit:4;stroke-dasharray:none;stroke-dashoffset:0;stroke-opacity:1;marker:none;enable-background:accumulate"
     id="path3107"
     d="m 15.942175,9.5292358 c -0.625503,-0.1462006 -1.374822,0.303467 -1.374822,0.303467 l -0.672904,0.3363252 c 0,0 -0.729181,0.636723 -0.736982,0.85303 -0.410439,0.726786 -0.223363,1.607513 -0.264978,2.402578 0.03999,0.682608 -0.434522,1.188679 -0.196505,1.880845 -0.03472,0.668221 0.515577,1.060119 0.86937,1.543434 0.398161,0.611451 0.938893,1.409269 0.513056,2.141028 -0.787192,1.141624 -2.095908,1.746646 -3.290738,2.368616 -0.405895,0.04157 -0.253086,0.431453 -0.280269,0.709415 -6.47e-4,0.221056 -0.07334,0.514085 0.250885,0.410577 3.58057,0 7.16114,0 10.741713,0 0,-0.38247 0,-0.764938 0,-1.147407 -1.156692,-0.586111 -2.363917,-1.213949 -3.174704,-2.256188 -0.487094,-0.698084 0.0011,-1.536901 0.385532,-2.157561 0.299298,-0.517008 0.924887,-0.847357 0.933826,-1.50658 0.230036,-0.668822 -0.117096,-1.222463 -0.181887,-1.860366 -0.08471,-0.845717 0.144533,-1.770518 -0.259137,-2.557382 C 18.656309,10.187891 17.653783,9.8352895 16.744016,9.619346 16.480125,9.566093 16.211675,9.531309 15.942175,9.529236 Z" />
</svg>
