<?xml version="1.0" encoding="UTF-8" standalone="no"?>
<svg
   xmlns:dc="http://purl.org/dc/elements/1.1/"
   xmlns:cc="http://creativecommons.org/ns#"
   xmlns:rdf="http://www.w3.org/1999/02/22-rdf-syntax-ns#"
   xmlns:svg="http://www.w3.org/2000/svg"
   xmlns="http://www.w3.org/2000/svg"
   xmlns:xlink="http://www.w3.org/1999/xlink"
   height="32.101"
   version="1"
   viewBox="0 0 32 32.100876"
   width="32"
   id="svg97">
  <metadata
     id="metadata101">
    <rdf:RDF>
      <cc:Work
         rdf:about="">
        <dc:format>image/svg+xml</dc:format>
        <dc:type
           rdf:resource="http://purl.org/dc/dcmitype/StillImage" />
      </cc:Work>
    </rdf:RDF>
  </metadata>
  <title
     id="title2">
        elementary Icon Template
    </title>
  <defs
     id="defs75">
    <linearGradient
       id="h">
      <stop
         offset="0"
         stop-color="#997543"
         id="stop4" />
      <stop
         offset=".239"
         stop-color="#715d43"
         id="stop6" />
      <stop
         offset=".276"
         stop-color="#7b6241"
         id="stop8" />
      <stop
         offset="1"
         stop-color="#604c31"
         id="stop10" />
    </linearGradient>
    <linearGradient
       id="g">
      <stop
         offset="0"
         stop-color="#fff"
         id="stop18" />
      <stop
         offset=".302"
         stop-color="#fff"
         id="stop20" />
      <stop
         offset=".344"
         stop-color="#fff"
         stop-opacity=".643"
         id="stop22" />
      <stop
         offset="1"
         stop-color="#fff"
         stop-opacity=".391"
         id="stop24" />
    </linearGradient>
    <linearGradient
       id="a">
      <stop
         offset="0"
         stop-color="#fff"
         stop-opacity="0"
         id="stop34" />
      <stop
         offset="1"
         stop-color="#fff"
         stop-opacity="0"
         id="stop36" />
    </linearGradient>
    <linearGradient
       gradientTransform="matrix(0.90695,0,0,0.81527,-5.27,-4.963)"
       gradientUnits="userSpaceOnUse"
       xlink:href="#a"
       id="m"
       x1="23.452"
       x2="43.007"
       y1="30.555"
       y2="45.934" />
    <linearGradient
       gradientTransform="matrix(0.72973,0,0,0.48649,-1.514,7.925)"
       gradientUnits="userSpaceOnUse"
       xlink:href="#f"
       id="o"
       x1="24"
       x2="24"
       y1="6.528"
       y2="41.472" />
    <linearGradient
       id="f">
      <stop
         offset="0"
         stop-color="#fff"
         id="stop64" />
      <stop
         offset="0"
         stop-color="#fff"
         stop-opacity=".235"
         id="stop66" />
      <stop
         offset="1"
         stop-color="#fff"
         stop-opacity=".157"
         id="stop68" />
      <stop
         offset="1"
         stop-color="#fff"
         stop-opacity=".392"
         id="stop70" />
    </linearGradient>
    <linearGradient
       gradientTransform="matrix(0.9899,0,0,0.6901,-7.737,-1.182)"
       gradientUnits="userSpaceOnUse"
       xlink:href="#g"
       id="n"
       x1="24.537"
       x2="24.537"
       y1="21.915"
       y2="8.347" />
    <linearGradient
       gradientTransform="translate(0,0.1)"
       gradientUnits="userSpaceOnUse"
       xlink:href="#h"
       id="q"
       x1="20"
       x2="20"
       y1="3.899"
       y2="29.899" />
  </defs>
  <path
     id="path83"
     style="display:block;overflow:visible;fill:#cead6d;marker:none;fill-opacity:1"
     overflow="visible"
     display="block"
     d="m 5.398,4.617 20.864,0 c 1.218,0 1.766,-0.199 2.116,0.694 l 2.123,5.29 0,18.08 c 0,1.079 0.073,0.914 -1.145,0.914 l -26.712,0 c -1.218,0 -1.145,0.165 -1.145,-0.914 l 0,-18.08 2.123,-5.29 C 3.962,4.436 4.18,4.617 5.398,4.617 Z" />
  <path
     id="path85"
     style="display:block;overflow:visible;opacity:0.50499998;fill:none;stroke:url(#m);stroke-width:0.74199998;marker:none"
     overflow="visible"
     display="block"
     d="m 6.06,5.32 19.56,0 c 1.142,0 1.849,0.386 2.327,1.448 l 1.647,4.455 0,16.063 c 0,1.014 -0.579,1.524 -1.72,1.524 l -23.86,0 c -1.143,0 -1.608,-0.561 -1.608,-1.575 l 0,-16.012 L 4,6.673 C 4.319,5.849 4.919,5.32 6.06,5.32 Z" />
  <path
     id="path87"
     style="overflow:visible;opacity:0.3;fill:url(#n);marker:none"
     overflow="visible"
     d="m 14.37,4.598 3.3,0 L 18,10.929 18,14 c -0.39,0 -0.78,-0.532 -1.17,-0.532 -0.398,0 -0.797,0.532 -1.196,0.532 -0.322,0 -0.643,-0.466 -0.964,-0.466 -0.21,0 -0.42,0.466 -0.63,0.466 0,0 -0.09,-1.325 0,-3.07 z" />
  <path
     style="opacity:0.3;fill:none;stroke:url(#o);stroke-linecap:round;stroke-linejoin:round"
     id="path89"
     d="m 29.5,28.6 -27,0 0,-18 27,0 z" />
  <path
     id="path93"
     style="display:block;overflow:visible;opacity:0.5;fill:none;stroke:url(#q);stroke-width:0.99400002;stroke-linecap:round;marker:none"
     overflow="visible"
     display="block"
     d="m 5.398,4.617 20.864,0 c 1.218,0 1.766,-0.199 2.116,0.694 l 2.123,5.29 0,18.08 c 0,1.079 0.073,0.914 -1.145,0.914 l -26.712,0 c -1.218,0 -1.145,0.165 -1.145,-0.914 l 0,-18.08 2.123,-5.29 C 3.962,4.436 4.18,4.617 5.398,4.617 Z" />
</svg>
