<?xml version="1.0" encoding="UTF-8" standalone="no"?>
<svg
   xmlns:dc="http://purl.org/dc/elements/1.1/"
   xmlns:cc="http://creativecommons.org/ns#"
   xmlns:rdf="http://www.w3.org/1999/02/22-rdf-syntax-ns#"
   xmlns:svg="http://www.w3.org/2000/svg"
   xmlns="http://www.w3.org/2000/svg"
   xmlns:xlink="http://www.w3.org/1999/xlink"
   version="1.1"
   width="32"
   height="32"
   id="svg3155"
   viewBox="0 0 32 32">
  <defs
     id="defs3157">
    <linearGradient
       x1="22.004084"
       y1="47.813133"
       x2="22.004084"
       y2="3.3638515"
       id="linearGradient3084"
       xlink:href="#linearGradient3104-5"
       gradientUnits="userSpaceOnUse"
       gradientTransform="matrix(-0.66858377,0,0,0.67036989,33.598274,-2.3082683)" />
    <linearGradient
       id="linearGradient3104-5">
      <stop
         id="stop3106-2"
         style="stop-color:#aaaaaa;stop-opacity:1"
         offset="0" />
      <stop
         id="stop3108-5"
         style="stop-color:#c8c8c8;stop-opacity:1"
         offset="1" />
    </linearGradient>
    <linearGradient
       gradientTransform="matrix(0.53064141,0,0,0.58970049,39.26963,-1.7919)"
       gradientUnits="userSpaceOnUse"
       xlink:href="#linearGradient3104-6"
       id="linearGradient3148"
       x1="-51.786404"
       x2="-51.786404"
       y1="50.786446"
       y2="2.9062471" />
    <linearGradient
       id="linearGradient3104-6">
      <stop
         id="stop3106-3"
         offset="0"
         style="stop-color:#000000;stop-opacity:0.31782946" />
      <stop
         id="stop3108-9"
         offset="1"
         style="stop-color:#000000;stop-opacity:0.24031007" />
    </linearGradient>
  </defs>
  <metadata
     id="metadata3160">
    <rdf:RDF>
      <cc:Work
         rdf:about="">
        <dc:format>image/svg+xml</dc:format>
        <dc:type
           rdf:resource="http://purl.org/dc/dcmitype/StillImage" />
        <dc:title />
      </cc:Work>
    </rdf:RDF>
  </metadata>
  <path
     style="display:inline;fill:#fafafa;fill-opacity:1;stroke:none"
     id="path4160-3-8"
     d="M 5.000027,0.9982079 C 10.041343,0.9982079 27,0.9999979 27,0.9999979 l 3e-5,27.9982101 -22.000003,0 z" />
  <path
     style="display:inline;fill:none;stroke:url(#linearGradient3148);stroke-width:0.9999218;stroke-linecap:butt;stroke-linejoin:round;stroke-miterlimit:4;stroke-dasharray:none;stroke-dashoffset:0;stroke-opacity:1"
     id="path4160-6-1"
     d="m 4.499988,0.4981479 c 5.27048,0 23.000052,0.002 23.000052,0.002 l 3e-5,28.9981201 -23.000082,0 0,-28.9999601 z" />
  <path
     style="fill:none;stroke:url(#linearGradient3084);stroke-width:0.99999994px;stroke-linecap:butt;stroke-linejoin:miter;stroke-opacity:1"
     id="path3475"
     d="m 24.918655,5.567745 h -1.566993 z m -1.796819,0 h -1.462527 z m -1.692353,0 h -1.295381 z m -1.504313,0 h -0.564117 z m -0.793943,0 h -1.253595 z m -1.504313,0 h -3.301133 z m -3.510065,0 h -2.528083 z m -2.737015,0 h -0.77305 z m 13.538821,1.9217775 h -2.06843 z m -2.277364,0 h -3.384705 z m -3.593637,0 h -1.650566 z m -1.859499,0 h -1.546099 z m -1.755032,0 h -1.316274 z m -1.525206,0 -2.068432,0.020955 z m -2.25647,0.020955 H 8.2876365 Z M 24.918655,9.5 h -2.862374 z m -3.0922,0 h -3.0922 z m -3.301132,0 h -1.232701 z m -1.441634,0 h -2.904161 z m -3.092199,0 h -1.984859 z m -2.214684,0 h -0.793944 z m -1.002876,0 h -0.438758 z m -0.668582,0 H 8.8726475 Z m 14.813307,2 h -1.065556 z m -1.399847,0 h -3.948823 z m 1.399847,3 h -2.632548 z m -2.841481,0 h -2.820588 z m -3.02952,0 h -1.086449 z m -1.295381,0 h -2.653442 z m -2.862374,0 H 11.54698 Z m -3.572745,0 h -1.232699 z m 13.601501,2 h -2.862374 z m -3.0922,0 h -3.0922 z m -3.301132,0 h -1.232701 z m -1.441634,0 h -2.904161 z m -3.092199,0 h -1.984859 z m -2.214684,0 h -0.793944 z m -1.002876,0 h -0.438758 z m -0.668582,0 H 8.8726475 Z m 14.813307,2 h -2.44451 z m -2.716122,0 h -1.170021 z m -1.378954,0 h -0.58501 z m -0.814836,0 h -1.065555 z m -1.295381,0 h -1.086448 z m -1.295381,0 h -1.734139 z m -1.963965,0 h -2.25647 z m -2.465402,0 H 11.4843 Z m -1.713247,0 h -0.376078 z m 13.643288,2.989525 h -2.06843 z m -2.277364,0 h -3.384705 z m -3.593637,0 h -1.650566 z m -1.859499,0 h -1.546099 z m -1.755032,0 h -1.316274 z m -1.525206,0 -2.068432,0.02095 z m -2.25647,0.02095 H 8.2876365 Z M 24.918655,23.5 h -2.590762 z m -2.820588,0 h -0.814836 z m -1.023769,0 h -1.859499 z m -2.06843,0 h -2.737016 z m -2.966842,0 h -1.859498 z m -2.047536,0 h -0.396972 z m -0.605905,0 h -2.360936 z m -2.611655,0 H 9.5412305 Z m 14.144725,2 h -2.590762 z m -2.820588,0 h -1.170021 z m -1.378953,0 h -1.838606 z m -2.047538,0 h -1.984858 z m -2.214684,0 h -0.793943 z m -1.002876,0 h -0.438758 z m -0.668584,0 h -1.232701 z" />
  <path
     d="m 12.500107,29.5 15,-15.000001 0,15.000001 z m 6.999999,-3.000001 5,0 0,-5 z"
     id="path3410"
     style="opacity:0.8;fill:#e9e9e9;fill-opacity:1;fill-rule:evenodd;stroke:#83899a;stroke-width:1;stroke-linecap:butt;stroke-linejoin:miter;stroke-miterlimit:4;stroke-dasharray:none;stroke-opacity:1" />
</svg>
