<?xml version="1.0" encoding="UTF-8" standalone="no"?>
<svg
   xmlns:dc="http://purl.org/dc/elements/1.1/"
   xmlns:cc="http://creativecommons.org/ns#"
   xmlns:rdf="http://www.w3.org/1999/02/22-rdf-syntax-ns#"
   xmlns:svg="http://www.w3.org/2000/svg"
   xmlns="http://www.w3.org/2000/svg"
   xmlns:xlink="http://www.w3.org/1999/xlink"
   id="svg3182"
   height="32"
   width="32"
   version="1.1"
   viewBox="0 0 32 32">
  <defs
     id="defs3184">
    <linearGradient
       id="linearGradient3104-6">
      <stop
         id="stop3106-3"
         style="stop-color:#000000;stop-opacity:0.31782946"
         offset="0" />
      <stop
         id="stop3108-9"
         style="stop-color:#000000;stop-opacity:0.24031007"
         offset="1" />
    </linearGradient>
    <linearGradient
       y2="2.9062471"
       x2="-51.786404"
       y1="50.786446"
       x1="-51.786404"
       gradientTransform="matrix(0.53064141,0,0,0.58970049,39.269607,-1.791918)"
       gradientUnits="userSpaceOnUse"
       id="linearGradient3148"
       xlink:href="#linearGradient3104-6" />
    <linearGradient
       x1="22.004084"
       y1="47.813133"
       x2="22.004084"
       y2="3.3638515"
       id="linearGradient3084"
       xlink:href="#linearGradient3104-5"
       gradientUnits="userSpaceOnUse"
       gradientTransform="matrix(-0.66858377,0,0,0.67036989,33.31064,-2.3082683)" />
    <linearGradient
       id="linearGradient3104-5">
      <stop
         id="stop3106-2"
         style="stop-color:#aaaaaa;stop-opacity:1"
         offset="0" />
      <stop
         id="stop3108-5"
         style="stop-color:#c8c8c8;stop-opacity:1"
         offset="1" />
    </linearGradient>
  </defs>
  <metadata
     id="metadata3187">
    <rdf:RDF>
      <cc:Work
         rdf:about="">
        <dc:format>image/svg+xml</dc:format>
        <dc:type
           rdf:resource="http://purl.org/dc/dcmitype/StillImage" />
        <dc:title />
      </cc:Work>
    </rdf:RDF>
  </metadata>
  <path
     style="display:inline;fill:#fafafa;fill-opacity:1;stroke:none"
     id="path4160-3"
     d="m 5,1 c 5.041316,0 21.999973,0.00179 21.999973,0.00179 L 27,29 C 27,29 12.333334,29 5,29 5,19.666667 5,10.333336 5,1.0000041 Z" />
  <path
     d="m 4.499961,0.499944 c 5.27048,0 23.000054,0.002 23.000054,0.002 l 2.4e-5,28.998112 c 0,0 -15.333385,0 -23.000078,0 0,-9.666722 0,-19.333346 0,-28.999956 z"
     id="path4160-6-1"
     style="display:inline;fill:none;stroke:url(#linearGradient3148);stroke-width:0.9999218;stroke-linecap:butt;stroke-linejoin:round;stroke-miterlimit:4;stroke-dasharray:none;stroke-dashoffset:0;stroke-opacity:1" />
  <path
     style="fill:none;stroke:url(#linearGradient3084);stroke-width:0.99999994px;stroke-linecap:butt;stroke-linejoin:miter;stroke-opacity:1"
     id="path3475"
     d="m 24.631021,5.567745 h -1.566993 z m -1.796819,0 h -1.462527 z m -1.692353,0 h -1.295381 z m -1.504313,0 h -0.564117 z m -0.793943,0 h -1.253595 z m -1.504313,0 h -3.301133 z m -3.510065,0 h -2.528083 z m -2.737015,0 h -0.77305 z m 13.538821,1.9217775 h -2.06843 z m -2.277364,0 h -3.384705 z m -3.593637,0 h -1.650566 z m -1.859499,0 h -1.546099 z m -1.755032,0 h -1.316274 z m -1.525206,0 -2.068432,0.020955 z m -2.25647,0.020955 H 8.0000001 Z M 24.631021,9.5 h -2.862374 z m -3.0922,0 h -3.0922 z m -3.301132,0 h -1.232701 z m -1.441634,0 h -2.904161 z m -3.092199,0 h -1.984859 z m -2.214684,0 h -0.793944 z m -1.002876,0 h -0.438758 z m -0.6685839,0 h -1.232701 z m 14.8133089,2 h -1.065556 z m -1.399847,0 h -3.948823 z m 1.399847,3 h -2.632548 z m -2.841481,0 h -2.820588 z m -3.02952,0 h -1.086449 z m -1.295381,0 h -2.653442 z m -2.862374,0 h -3.342919 z m -3.572745,0 H 9.7968191 Z m 13.601501,2 h -2.862374 z m -3.0922,0 h -3.0922 z m -3.301132,0 h -1.232701 z m -1.441634,0 h -2.904161 z m -3.092199,0 h -1.984859 z m -2.214684,0 h -0.793944 z m -1.002876,0 h -0.438758 z m -0.6685839,0 h -1.232701 z m 14.8133089,2 h -2.44451 z m -2.716122,0 h -1.170021 z m -1.378954,0 h -0.58501 z m -0.814836,0 h -1.065555 z m -1.295381,0 H 17.33928 Z m -1.295381,0 h -1.734139 z m -1.963965,0 h -2.25647 z m -2.465402,0 h -1.504314 z m -1.713247,0 h -0.376078 z m 13.643288,2.989525 h -2.06843 z m -2.277364,0 h -3.384705 z m -3.593637,0 h -1.650566 z m -1.859499,0 h -1.546099 z m -1.755032,0 h -1.316274 z m -1.525206,0 -2.068432,0.02095 z m -2.25647,0.02095 H 8.0000001 Z M 24.631021,23.5 h -2.590762 z m -2.820588,0 h -0.814836 z m -1.023769,0 h -1.859499 z m -2.06843,0 h -2.737016 z m -2.966842,0 h -1.859498 z m -2.047536,0 h -0.396972 z m -0.605905,0 h -2.360936 z m -2.611655,0 H 9.2535941 Z m 14.144725,2 h -2.590762 z m -2.820588,0 h -1.170021 z m -1.378953,0 h -1.838606 z m -2.047538,0 h -1.984858 z m -2.214684,0 h -0.793943 z m -1.002876,0 h -0.438758 z m -0.668584,0 h -1.232701 z" />
</svg>
