<?xml version="1.0" encoding="UTF-8" standalone="no"?>
<svg
   xmlns:dc="http://purl.org/dc/elements/1.1/"
   xmlns:cc="http://creativecommons.org/ns#"
   xmlns:rdf="http://www.w3.org/1999/02/22-rdf-syntax-ns#"
   xmlns:svg="http://www.w3.org/2000/svg"
   xmlns="http://www.w3.org/2000/svg"
   xmlns:xlink="http://www.w3.org/1999/xlink"
   version="1.1"
   width="32"
   height="32"
   id="svg3182">
  <defs
     id="defs3184">
    <linearGradient
       id="linearGradient3104-6">
      <stop
         offset="0"
         style="stop-color:#000000;stop-opacity:0.31782946"
         id="stop3106-3" />
      <stop
         offset="1"
         style="stop-color:#000000;stop-opacity:0.24031007"
         id="stop3108-9" />
    </linearGradient>
    <linearGradient
       xlink:href="#linearGradient3104-6"
       id="linearGradient3148"
       gradientUnits="userSpaceOnUse"
       gradientTransform="matrix(0.53064141,0,0,0.58970049,39.269607,-1.791918)"
       x1="-51.786404"
       y1="50.786446"
       x2="-51.786404"
       y2="2.9062471" />
  </defs>
  <metadata
     id="metadata3187">
    <rdf:RDF>
      <cc:Work
         rdf:about="">
        <dc:format>image/svg+xml</dc:format>
        <dc:type
           rdf:resource="http://purl.org/dc/dcmitype/StillImage" />
        <dc:title />
      </cc:Work>
    </rdf:RDF>
  </metadata>
  <path
     d="m 5,1 c 5.041316,0 21.999973,0.00179 21.999973,0.00179 L 27,29 C 27,29 12.333334,29 5,29 5,19.666667 5,10.333336 5,1.0000041 z"
     id="path4160-3"
     style="fill:#fafafa;fill-opacity:1;stroke:none;display:inline" />
  <path
     style="fill:none;stroke:url(#linearGradient3148);stroke-width:0.9999218;stroke-linecap:butt;stroke-linejoin:round;stroke-miterlimit:4;stroke-opacity:1;stroke-dasharray:none;stroke-dashoffset:0;display:inline"
     id="path4160-6-1"
     d="m 4.499961,0.499944 c 5.27048,0 23.000054,0.002 23.000054,0.002 l 2.4e-5,28.998112 c 0,0 -15.333385,0 -23.000078,0 0,-9.666722 0,-19.333346 0,-28.999956 z" />
  <path
     d="m 8,5.505006 2.34375,0 z m 2.6875,0 2.1875,0 z m 2.53125,0 1.9375,0 z m 2.25,0 0.84375,0 z m -7.46875,2 3.65625,0 z m 4.0625,0 1.75,0 z m 2.0625,0 0.875,0 z m 1.21875,0 1.59375,0 z m 1.9375,0 1.625,0 z M 8,9.5000013 l 4.28125,0 z m 4.625,0 4.625,0 z M 14.328125,17.5 l 0.84375,0 z m 1.1875,0 1.875,0 z m 2.25,0 4.90625,0 z m -2.6875,2.075 1.84375,0 z M 14.05,25.5 l 2.96875,0 z m 3.85625,0 1.1875,0 z"
     id="path2609"
     style="fill:none;stroke:#89adc2;stroke-width:1px;stroke-linecap:butt;stroke-linejoin:miter;stroke-opacity:1" />
  <g
     transform="translate(27.060241,6.7752427)"
     id="g4199">
    <path
       d="m -15.569698,10.277108 0.933683,0 0,1 -0.933683,0 z"
       id="path4217"
       style="display:inline;fill:#d48eb3;fill-opacity:1;stroke:none" />
    <path
       d="m -14.482898,10.277108 0.410114,0 0,1 -0.410114,0 z"
       id="path4219"
       style="display:inline;fill:#d48eb3;fill-opacity:1;stroke:none" />
    <path
       d="m -19.060241,16.277108 1.996686,0 0,1 -1.996686,0 0,-1 z"
       id="path4251"
       style="display:inline;opacity:0.7;fill:#666666;fill-opacity:1;stroke:none" />
    <path
       d="m -16.907035,16.277108 2.139473,0 0,1 -2.139473,0 0,-1 z"
       id="path4253"
       style="display:inline;opacity:0.7;fill:#666666;fill-opacity:1;stroke:none" />
    <path
       d="m -14.611041,16.277108 0.854355,0 0,1 -0.854355,0 0,-1 z"
       id="path4255"
       style="display:inline;fill:#d48eb3;fill-opacity:1;stroke:none" />
    <path
       d="m -13.600165,16.277108 2.012549,0 0,1 -2.012549,0 0,-1 z"
       id="path4257"
       style="display:inline;fill:#d48eb3;fill-opacity:1;stroke:none" />
    <path
       d="m -9.896655,16.277108 0.537037,0 0,1 -0.537037,0 0,-1 z"
       id="path4259"
       style="display:inline;fill:#d48eb3;fill-opacity:1;stroke:none" />
    <path
       d="m -11.431095,16.277108 1.377919,0 0,1 -1.377919,0 0,-1 z"
       id="path4261"
       style="display:inline;fill:#d48eb3;fill-opacity:1;stroke:none" />
    <path
       d="m -9.203097,16.277108 0.314918,0 0,1 -0.314918,0 0,-1 z"
       id="path4263"
       style="display:inline;fill:#d48eb3;fill-opacity:1;stroke:none" />
    <path
       d="m -8.731658,16.277108 0.854355,0 0,1 -0.854355,0 0,-1 z"
       id="path4265"
       style="display:inline;fill:#d48eb3;fill-opacity:1;stroke:none" />
    <path
       d="m -16.465904,12.277108 2.393326,0 0,1 -2.393326,0 z"
       id="path4269"
       style="display:inline;fill:#d48eb3;fill-opacity:1;stroke:none" />
    <path
       d="m -19.060241,14.277108 1.806297,0 0,1 -1.806297,0 0,-1 z"
       id="path4271"
       style="display:inline;fill:#94d48e;fill-opacity:1;stroke:none" />
    <path
       d="m -17.104791,14.277108 0.56877,0 0,1 -0.56877,0 0,-1 z"
       id="path4273"
       style="display:inline;fill:#94d48e;fill-opacity:1;stroke:none" />
    <path
       d="m -16.386869,14.277108 1.298596,0 0,1 -1.298596,0 0,-1 z"
       id="path4275"
       style="display:inline;opacity:0.7;fill:#666666;fill-opacity:1;stroke:none" />
    <path
       d="m -14.939121,14.277108 0.886087,0 0,1 -0.886087,0 0,-1 z"
       id="path4277"
       style="display:inline;opacity:0.7;fill:#666666;fill-opacity:1;stroke:none" />
    <path
       d="m -19.060241,18.277108 1.48749,0 0,1 -1.48749,0 0,-1 z"
       id="path4283"
       style="display:inline;fill:#de6161;fill-opacity:1;stroke:none" />
    <path
       d="m -17.333827,18.277108 2.647178,0 0,1 -2.647178,0 0,-1 z"
       id="path4285"
       style="display:inline;opacity:0.7;fill:#666666;fill-opacity:1;stroke:none" />
  </g>
  <path
     d="m 8,12 0,1 3.0625,0 0,-1 L 8,12 Z m 0,2 0,1 3.09375,0 0,-1 L 8,14 Z"
     id="path4063"
     style="display:inline;fill:#b78ed4;fill-opacity:1;stroke:none" />
  <path
     d="m 12.40625,12 0,1 L 18,13 18,12 Z m 0.03125,2 0,1 5.09375,0 0,-1 z"
     id="path4061"
     style="display:inline;fill:#d48eb3;fill-opacity:1;stroke:none" />
  <path
     d="m 8,17 0,1 2.53125,0 0,-1 z M 8,19.03125 8,20 l 2.21875,0 0,-0.96875 z"
     id="path5302"
     style="display:inline;fill:#94d48e;fill-opacity:1;stroke:none" />
</svg>
