<?xml version="1.0" encoding="UTF-8" standalone="no"?>
<svg
   xmlns:dc="http://purl.org/dc/elements/1.1/"
   xmlns:cc="http://creativecommons.org/ns#"
   xmlns:rdf="http://www.w3.org/1999/02/22-rdf-syntax-ns#"
   xmlns:svg="http://www.w3.org/2000/svg"
   xmlns="http://www.w3.org/2000/svg"
   xmlns:xlink="http://www.w3.org/1999/xlink"
   xmlns:sodipodi="http://sodipodi.sourceforge.net/DTD/sodipodi-0.dtd"
   xmlns:inkscape="http://www.inkscape.org/namespaces/inkscape"
   version="1.1"
   width="32"
   height="32"
   id="svg3182"
   sodipodi:docname="text-x-authors.svg"
   inkscape:version="0.92.5 (2060ec1f9f, 2020-04-08)">
  <sodipodi:namedview
     pagecolor="#ffffff"
     bordercolor="#666666"
     borderopacity="1"
     objecttolerance="10"
     gridtolerance="10"
     guidetolerance="10"
     inkscape:pageopacity="0"
     inkscape:pageshadow="2"
     inkscape:window-width="1920"
     inkscape:window-height="1016"
     id="namedview20"
     showgrid="true"
     inkscape:zoom="41.7193"
     inkscape:cx="16.706036"
     inkscape:cy="17.064082"
     inkscape:window-x="0"
     inkscape:window-y="0"
     inkscape:window-maximized="1"
     inkscape:current-layer="svg3182">
    <inkscape:grid
       type="xygrid"
       id="grid936" />
  </sodipodi:namedview>
  <defs
     id="defs3184">
    <linearGradient
       id="linearGradient3104-6">
      <stop
         offset="0"
         style="stop-color:#000000;stop-opacity:0.31782946"
         id="stop3106-3" />
      <stop
         offset="1"
         style="stop-color:#000000;stop-opacity:0.24031007"
         id="stop3108-9" />
    </linearGradient>
    <linearGradient
       xlink:href="#linearGradient3104-6"
       id="linearGradient3148"
       gradientUnits="userSpaceOnUse"
       gradientTransform="matrix(0.53064141,0,0,0.58970049,39.269607,-1.791918)"
       x1="-51.786404"
       y1="50.786446"
       x2="-51.786404"
       y2="2.9062471" />
    <linearGradient
       xlink:href="#linearGradient868"
       id="linearGradient980"
       x1="11.011719"
       y1="2.4787073"
       x2="11.011719"
       y2="15.17359"
       gradientUnits="userSpaceOnUse"
       gradientTransform="matrix(1.1373047,0,0,1.1373047,6.8814998,5.3357721)" />
    <linearGradient
       id="linearGradient868">
      <stop
         id="stop864"
         offset="0"
         style="stop-color:#fafafa;stop-opacity:1" />
      <stop
         id="stop866"
         offset="1"
         style="stop-color:#d4d4d4;stop-opacity:1" />
    </linearGradient>
    <linearGradient
       xlink:href="#linearGradient978"
       id="linearGradient968"
       x1="11.07965"
       y1="4.1472802"
       x2="11.07965"
       y2="13.103444"
       gradientUnits="userSpaceOnUse"
       gradientTransform="matrix(1.1373047,0,0,1.1373047,6.8814998,5.3357721)" />
    <linearGradient
       id="linearGradient978">
      <stop
         offset="0"
         style="stop-color:#ffffff;stop-opacity:1"
         id="stop970" />
      <stop
         offset="0.21971756"
         style="stop-color:#ffffff;stop-opacity:0.23529412"
         id="stop972" />
      <stop
         offset="0.95779753"
         style="stop-color:#ffffff;stop-opacity:0.15686275"
         id="stop974" />
      <stop
         offset="1"
         style="stop-color:#ffffff;stop-opacity:0.39215687"
         id="stop976" />
    </linearGradient>
  </defs>
  <metadata
     id="metadata3187">
    <rdf:RDF>
      <cc:Work
         rdf:about="">
        <dc:format>image/svg+xml</dc:format>
        <dc:type
           rdf:resource="http://purl.org/dc/dcmitype/StillImage" />
        <dc:title />
      </cc:Work>
    </rdf:RDF>
  </metadata>
  <path
     d="m 5,1 c 5.041316,0 21.999973,0.00179 21.999973,0.00179 L 27,29 C 27,29 12.333334,29 5,29 5,19.666667 5,10.333336 5,1.0000041 z"
     id="path4160-3"
     style="fill:#fafafa;fill-opacity:1;stroke:none;display:inline" />
  <path
     style="fill:none;stroke:url(#linearGradient3148);stroke-width:0.9999218;stroke-linecap:butt;stroke-linejoin:round;stroke-miterlimit:4;stroke-opacity:1;stroke-dasharray:none;stroke-dashoffset:0;display:inline"
     id="path4160-6-1"
     d="m 4.499961,0.499944 c 5.27048,0 23.000054,0.002 23.000054,0.002 l 2.4e-5,28.998112 c 0,0 -15.333385,0 -23.000078,0 0,-9.666722 0,-19.333346 0,-28.999956 z" />
  <g
     id="g934"
     transform="translate(0,0.15481967)">
    <path
       sodipodi:nodetypes="ccccssccccccc"
       inkscape:connector-curvature="0"
       d="m 11.346309,10.453643 c -1.621547,0.02851 -2.759118,1.137305 -2.758852,2.858811 6.62e-4,1.690408 1.137305,2.791159 2.741082,2.827713 -1.669241,0.07364 -3.833419,2.491536 -3.878387,3.980566 0,1.260134 0.445824,1.706794 1.705957,1.706794 h 3.411914 c 0.181329,0 2.674397,0.03972 2.843262,0 -1.421205,-1.19135 -1.154759,-2.397063 -1.155705,-3.914764 0.0184,-0.635292 -1.530756,-1.716633 -2.718236,-1.772596 1.599335,-0.06148 2.736787,-1.137305 2.736639,-2.827713 0,-1.721506 -1.137304,-2.858811 -2.867696,-2.858811 -0.01999,-1.75e-4 -0.03998,-1.75e-4 -0.05997,0 z"
       style="opacity:1;vector-effect:none;fill:#666666;fill-opacity:1;stroke:none;stroke-width:1.13730466;stroke-linecap:butt;stroke-linejoin:round;stroke-miterlimit:4;stroke-dasharray:none;stroke-dashoffset:0;stroke-opacity:0.5;marker:none"
       id="path883-3" />
    <path
       sodipodi:nodetypes="sccssscccs"
       inkscape:connector-curvature="0"
       d="m 18.405603,8.154818 c -2.287938,0 -3.993895,1.730173 -3.993895,4.033659 5.5e-5,2.245733 1.705957,3.798935 3.647371,3.947247 -2.655175,0.08004 -4.803079,1.777039 -4.803079,3.985009 0,1.260134 1.014476,1.706794 2.27461,1.706794 h 5.745051 c 1.260134,0 2.27461,-0.44666 2.27461,-1.706794 -0.05758,-1.906886 -2.314735,-3.887017 -4.844793,-3.980566 1.961406,-0.129574 3.667861,-1.705957 3.667363,-3.95169 0,-2.303486 -1.705957,-4.033659 -3.967238,-4.033659 z"
       style="opacity:0.2;vector-effect:none;fill:#ffffff;fill-opacity:1;stroke:none;stroke-width:1.13730466;stroke-linecap:butt;stroke-linejoin:round;stroke-miterlimit:4;stroke-dasharray:none;stroke-dashoffset:0;stroke-opacity:0.5;marker:none"
       id="path883-6" />
    <path
       sodipodi:nodetypes="sccssscccs"
       inkscape:connector-curvature="0"
       d="m 19.40518,8.1548176 c -2.287938,0 -3.993895,1.7301733 -3.993895,4.0336594 5.5e-5,2.245733 1.705957,3.798935 3.647371,3.947247 -2.655175,0.08004 -4.803079,1.777039 -4.803079,3.985009 0,1.260134 1.014476,1.706794 2.27461,1.706794 h 5.745051 c 1.260134,0 2.27461,-0.44666 2.27461,-1.706794 -0.05758,-1.906886 -2.314735,-3.887017 -4.844793,-3.980566 1.961406,-0.129574 3.667861,-1.705957 3.667363,-3.95169 0,-2.3034861 -1.705957,-4.0336594 -3.967238,-4.0336594 z"
       style="opacity:1;vector-effect:none;fill:#343434;fill-opacity:1;stroke:none;stroke-width:1.13730466;stroke-linecap:butt;stroke-linejoin:round;stroke-miterlimit:4;stroke-dasharray:none;stroke-dashoffset:0;stroke-opacity:0.5;marker:none"
       id="path883" />
  </g>
</svg>
