<?xml version="1.0" encoding="UTF-8" standalone="no"?>
<svg
   xmlns:dc="http://purl.org/dc/elements/1.1/"
   xmlns:cc="http://creativecommons.org/ns#"
   xmlns:rdf="http://www.w3.org/1999/02/22-rdf-syntax-ns#"
   xmlns:svg="http://www.w3.org/2000/svg"
   xmlns="http://www.w3.org/2000/svg"
   xmlns:xlink="http://www.w3.org/1999/xlink"
   id="svg3182"
   height="32"
   width="32"
   version="1.1">
  <defs
     id="defs3184">
    <linearGradient
       id="linearGradient3104-6">
      <stop
         id="stop3106-3"
         style="stop-color:#000000;stop-opacity:0.31782946"
         offset="0" />
      <stop
         id="stop3108-9"
         style="stop-color:#000000;stop-opacity:0.24031007"
         offset="1" />
    </linearGradient>
    <linearGradient
       y2="2.9062471"
       x2="-51.786404"
       y1="50.786446"
       x1="-51.786404"
       gradientTransform="matrix(0.53064141,0,0,0.58970049,39.269607,-1.791918)"
       gradientUnits="userSpaceOnUse"
       id="linearGradient3148"
       xlink:href="#linearGradient3104-6" />
  </defs>
  <metadata
     id="metadata3187">
    <rdf:RDF>
      <cc:Work
         rdf:about="">
        <dc:format>image/svg+xml</dc:format>
        <dc:type
           rdf:resource="http://purl.org/dc/dcmitype/StillImage" />
        <dc:title />
      </cc:Work>
    </rdf:RDF>
  </metadata>
  <path
     style="fill:#fafafa;fill-opacity:1;stroke:none;display:inline"
     id="path4160-3"
     d="m 5,1 c 5.041316,0 21.999973,0.00179 21.999973,0.00179 L 27,29 C 27,29 12.333334,29 5,29 5,19.666667 5,10.333336 5,1.0000041 z" />
  <path
     d="m 4.499961,0.499944 c 5.27048,0 23.000054,0.002 23.000054,0.002 l 2.4e-5,28.998112 c 0,0 -15.333385,0 -23.000078,0 0,-9.666722 0,-19.333346 0,-28.999956 z"
     id="path4160-6-1"
     style="fill:none;stroke:url(#linearGradient3148);stroke-width:0.9999218;stroke-linecap:butt;stroke-linejoin:round;stroke-miterlimit:4;stroke-opacity:1;stroke-dasharray:none;stroke-dashoffset:0;display:inline" />
  <g
     transform="matrix(0.97104493,0,0,-0.97104493,-618.21348,405.3632)"
     id="g3396">
    <g
       transform="scale(0.1,0.1)"
       id="g3398">
      <path
         id="path3402"
         style="fill:#cd4a9c;fill-opacity:1;fill-rule:nonzero;stroke:none"
         d="m 6508.671,3982.17 c 1.6486,-6.0987 1.4678,-11.7858 -0.2351,-16.9362 -0.1892,-0.5719 -0.3976,-1.1379 -0.6238,-1.6972 -0.2262,-0.5583 -0.4711,-1.1105 -0.7336,-1.6555 -1.3135,-2.725 -3.0759,-5.2756 -5.2342,-7.6298 -6.5842,-7.183 -15.7833,-9.8993 -19.7279,-7.6105 -4.2595,2.4688 -2.1259,12.5965 5.5078,20.6654 8.2125,8.6819 20.0284,14.2635 20.0284,14.2635 l -0.018,0.035 c 0.3403,0.1832 0.6862,0.3717 1.0364,0.5648 z m 93.6027,102.5652 c -5.1316,20.126 -38.503,26.7421 -70.087,15.5213 -18.7962,-6.6773 -39.1446,-17.1579 -53.7754,-30.8434 -17.3961,-16.2713 -20.1703,-30.4333 -19.0268,-36.351 4.0332,-20.8806 32.6439,-34.5292 44.4052,-44.6556 l 0,-0.061 c -3.468,-1.7073 -28.8514,-14.5531 -34.7916,-27.6859 -6.2679,-13.8547 0.9976,-23.7969 5.8079,-25.1352 14.9039,-4.1465 30.1979,3.3118 38.4168,15.5714 7.9316,11.8309 7.2713,27.1084 3.8244,34.708 4.7548,1.2542 10.298,1.8163 17.3425,0.9934 19.8785,-2.3219 23.7789,-14.7342 23.0331,-19.9276 -0.7452,-5.1949 -4.9148,-8.0512 -6.3088,-8.9134 -1.3945,-0.8627 -1.8197,-1.1611 -1.7022,-1.8022 0.1687,-0.9321 0.8142,-0.8975 2.0029,-0.696 1.636,0.2758 10.438,4.2252 10.8143,13.8139 0.4793,12.1741 -11.1872,25.7922 -31.8445,25.4364 -8.5074,-0.1467 -13.857,-0.9559 -17.721,-2.3939 -0.2857,0.3254 -0.5765,0.6492 -0.8771,0.9697 -12.7708,13.6253 -36.3793,23.2636 -35.378,41.5809 0.364,6.6591 2.6786,24.1942 45.3638,45.4642 34.9666,17.4232 62.9586,12.6287 67.7962,2.0024 6.9101,-15.1808 -14.9602,-43.3969 -51.2732,-47.4666 -13.835,-1.5512 -21.1196,3.8111 -22.9316,5.8079 -1.9079,2.1022 -2.1921,2.197 -2.9042,1.8027 -1.1607,-0.6426 -0.4253,-2.4988 0,-3.6054 1.0839,-2.8215 5.5332,-7.8251 13.1184,-10.314 6.6723,-2.1899 22.9161,-3.3929 42.5606,4.2055 22.0009,8.5108 39.1814,32.1848 34.1353,51.9738" />
    </g>
  </g>
</svg>
