<?xml version="1.0" encoding="UTF-8" standalone="no"?>
<svg
   xmlns:dc="http://purl.org/dc/elements/1.1/"
   xmlns:cc="http://creativecommons.org/ns#"
   xmlns:rdf="http://www.w3.org/1999/02/22-rdf-syntax-ns#"
   xmlns:svg="http://www.w3.org/2000/svg"
   xmlns="http://www.w3.org/2000/svg"
   xmlns:xlink="http://www.w3.org/1999/xlink"
   version="1.0"
   width="32"
   height="32"
   id="svg2526">
  <metadata
     id="metadata58">
    <rdf:RDF>
      <cc:Work
         rdf:about="">
        <dc:format>image/svg+xml</dc:format>
        <dc:type
           rdf:resource="http://purl.org/dc/dcmitype/StillImage" />
        <dc:title />
      </cc:Work>
    </rdf:RDF>
  </metadata>
  <defs
     id="defs2528">
    <linearGradient
       id="linearGradient3104-6">
      <stop
         id="stop3106-3"
         style="stop-color:#000000;stop-opacity:0.31782946"
         offset="0" />
      <stop
         id="stop3108-9"
         style="stop-color:#000000;stop-opacity:0.24031007"
         offset="1" />
    </linearGradient>
    <linearGradient
       id="linearGradient3600-7">
      <stop
         offset="0"
         style="stop-color:#505050;stop-opacity:1"
         id="stop3602-2" />
      <stop
         offset="1"
         style="stop-color:#2b2b2b;stop-opacity:1"
         id="stop3604-8" />
    </linearGradient>
    <linearGradient
       xlink:href="#linearGradient3104-6"
       id="linearGradient3285"
       gradientUnits="userSpaceOnUse"
       gradientTransform="matrix(0.71521168,0,0,0.50836186,47.363354,2.5242162)"
       x1="-51.786404"
       y1="50.786446"
       x2="-51.786404"
       y2="2.9062471" />
    <linearGradient
       xlink:href="#linearGradient3600-7"
       id="linearGradient3299"
       gradientUnits="userSpaceOnUse"
       gradientTransform="matrix(0.85714084,0,0,0.52148059,-4.5713851,3.6844634)"
       x1="25.132275"
       y1="0.98520643"
       x2="25.132275"
       y2="47.013336" />
  </defs>
  <path
     d="m 0.99999685,4.9999981 c 6.87452305,0 29.99996415,0.00153 29.99996415,0.00153 l 3.6e-5,23.9984699 c 0,0 -19.999999,0 -30.00000015,0 0,-8 0,-16 0,-24.0000001 z"
     id="path4160"
     style="fill:url(#linearGradient3299);fill-opacity:1;stroke:none;display:inline" />
  <path
     d="m 0.4999577,4.499957 c 7.103685,0 31.0000463,0.00174 31.0000463,0.00174 l 3.2e-5,24.998342 c 0,0 -20.666718,0 -31.0000783,0 0,-8.33337 0,-16.666657 0,-24.9999301 z"
     id="path4160-6-1"
     style="fill:none;stroke:url(#linearGradient3285);stroke-width:0.99992174;stroke-linecap:butt;stroke-linejoin:round;stroke-miterlimit:4;stroke-opacity:1;stroke-dasharray:none;stroke-dashoffset:0;display:inline" />
  <path
     d="m 11.531247,12 c -0.296786,0 -0.53125,0.2578 -0.53125,0.5625 v 9.875 c 0,0.3047 0.234464,0.5625 0.53125,0.5625 h 8.9375 c 0.296786,0 0.53125,-0.2578 0.53125,-0.5625 v -9.875 C 20.999997,12.2578 20.765533,12 20.468747,12 Z m 0.1875,0.71875 h 0.71875 v 0.75 h -0.71875 z m 7.84375,0 h 0.71875 v 0.75 h -0.71875 z M 13.499997,13 h 5 c 0.277,0 0.5,0.223 0.5,0.5 v 3 c 0,0.277 -0.223,0.5 -0.5,0.5 h -5 c -0.277,0 -0.5,-0.223 -0.5,-0.5 v -3 c 0,-0.277 0.223,-0.5 0.5,-0.5 z m -1.78125,1.1875 h 0.71875 v 0.75 h -0.71875 z m 7.84375,0 h 0.71875 v 0.75 h -0.71875 z m -7.84375,1.46875 h 0.71875 v 0.75 h -0.71875 z m 7.84375,0 h 0.71875 v 0.75 h -0.71875 z m -7.84375,1.46875 h 0.71875 v 0.75 h -0.71875 z m 7.84375,0 h 0.71875 v 0.75 h -0.71875 z M 13.499997,18 h 5 c 0.277,0 0.5,0.223 0.5,0.5 v 3 c 0,0.277 -0.223,0.5 -0.5,0.5 h -5 c -0.277,0 -0.5,-0.223 -0.5,-0.5 v -3 c 0,-0.277 0.223,-0.5 0.5,-0.5 z m -1.78125,0.59375 h 0.71875 v 0.75 h -0.71875 z m 7.84375,0 h 0.71875 v 0.75 h -0.71875 z m -7.84375,1.46875 h 0.71875 v 0.75 h -0.71875 z m 7.84375,0 h 0.71875 v 0.75 h -0.71875 z m -7.84375,1.46875 h 0.71875 v 0.75 h -0.71875 z m 7.84375,0 h 0.71875 v 0.75 h -0.71875 z"
     id="rect3032-8-9-3"
     style="color:#000000;display:inline;overflow:visible;visibility:visible;fill:#000000;fill-opacity:1;fill-rule:nonzero;stroke:none;stroke-width:1;marker:none;enable-background:accumulate;opacity:0.2" />
  <path
     d="m 11.531247,11 c -0.296786,0 -0.53125,0.2578 -0.53125,0.5625 v 9.875 c 0,0.3047 0.234464,0.5625 0.53125,0.5625 h 8.9375 c 0.296786,0 0.53125,-0.2578 0.53125,-0.5625 v -9.875 C 20.999997,11.2578 20.765533,11 20.468747,11 Z m 0.1875,0.71875 h 0.71875 v 0.75 h -0.71875 z m 7.84375,0 h 0.71875 v 0.75 h -0.71875 z M 13.499997,12 h 5 c 0.277,0 0.5,0.223 0.5,0.5 v 3 c 0,0.277 -0.223,0.5 -0.5,0.5 h -5 c -0.277,0 -0.5,-0.223 -0.5,-0.5 v -3 c 0,-0.277 0.223,-0.5 0.5,-0.5 z m -1.78125,1.1875 h 0.71875 v 0.75 h -0.71875 z m 7.84375,0 h 0.71875 v 0.75 h -0.71875 z m -7.84375,1.46875 h 0.71875 v 0.75 h -0.71875 z m 7.84375,0 h 0.71875 v 0.75 h -0.71875 z m -7.84375,1.46875 h 0.71875 v 0.75 h -0.71875 z m 7.84375,0 h 0.71875 v 0.75 h -0.71875 z M 13.499997,17 h 5 c 0.277,0 0.5,0.223 0.5,0.5 v 3 c 0,0.277 -0.223,0.5 -0.5,0.5 h -5 c -0.277,0 -0.5,-0.223 -0.5,-0.5 v -3 c 0,-0.277 0.223,-0.5 0.5,-0.5 z m -1.78125,0.59375 h 0.71875 v 0.75 h -0.71875 z m 7.84375,0 h 0.71875 v 0.75 h -0.71875 z m -7.84375,1.46875 h 0.71875 v 0.75 h -0.71875 z m 7.84375,0 h 0.71875 v 0.75 h -0.71875 z m -7.84375,1.46875 h 0.71875 v 0.75 h -0.71875 z m 7.84375,0 h 0.71875 v 0.75 h -0.71875 z"
     id="rect3032-8-9"
     style="color:#000000;display:inline;overflow:visible;visibility:visible;fill:#ffffff;fill-opacity:1;fill-rule:nonzero;stroke:none;stroke-width:1;marker:none;enable-background:accumulate" />
</svg>
