<?xml version="1.0" encoding="UTF-8" standalone="no"?>
<svg
   xmlns:dc="http://purl.org/dc/elements/1.1/"
   xmlns:cc="http://creativecommons.org/ns#"
   xmlns:rdf="http://www.w3.org/1999/02/22-rdf-syntax-ns#"
   xmlns:svg="http://www.w3.org/2000/svg"
   xmlns="http://www.w3.org/2000/svg"
   xmlns:xlink="http://www.w3.org/1999/xlink"
   id="svg3182"
   height="32"
   width="32"
   version="1.1">
  <defs
     id="defs3184">
    <linearGradient
       id="linearGradient3104">
      <stop
         offset="0"
         style="stop-color:#aaaaaa;stop-opacity:1"
         id="stop3106" />
      <stop
         offset="1"
         style="stop-color:#c8c8c8;stop-opacity:1"
         id="stop3108" />
    </linearGradient>
    <linearGradient
       id="linearGradient3707-319-631-407-324-3">
      <stop
         offset="0"
         style="stop-color:#185f9a;stop-opacity:1"
         id="stop3760-4" />
      <stop
         offset="1"
         style="stop-color:#599ec9;stop-opacity:1"
         id="stop3762-0" />
    </linearGradient>
    <linearGradient
       id="linearGradient2867-449-88-871-390-598-476-591-434-148-57-177-8">
      <stop
         offset="0"
         style="stop-color:#90dbec;stop-opacity:1"
         id="stop3750-1" />
      <stop
         offset="0.26238"
         style="stop-color:#55c1ec;stop-opacity:1"
         id="stop3752-3" />
      <stop
         offset="0.704952"
         style="stop-color:#3689e6;stop-opacity:1"
         id="stop3754-1" />
      <stop
         offset="1"
         style="stop-color:#2b63a0;stop-opacity:1"
         id="stop3756-1" />
    </linearGradient>
    <radialGradient
       gradientTransform="matrix(1.1778817e-7,4.3521887,5.895642,-1.3064099e-7,-43.943029,-39.43508)"
       gradientUnits="userSpaceOnUse"
       xlink:href="#linearGradient2867-449-88-871-390-598-476-591-434-148-57-177-8"
       id="radialGradient3134"
       fy="9.9571075"
       fx="7.2758255"
       r="12.671875"
       cy="9.9571075"
       cx="7.8060555" />
    <linearGradient
       gradientTransform="matrix(-0.72855758,0,0,0.65923624,32.238076,0.16688039)"
       gradientUnits="userSpaceOnUse"
       xlink:href="#linearGradient3707-319-631-407-324-3"
       id="linearGradient3136"
       y2="0.91790956"
       x2="25"
       y1="47.935162"
       x1="25" />
    <linearGradient
       gradientTransform="matrix(-1,0,0,1,34.982221,-6.042067)"
       gradientUnits="userSpaceOnUse"
       xlink:href="#linearGradient3104"
       id="linearGradient3175"
       y2="6.0420675"
       x2="21.982096"
       y1="36.042068"
       x1="21.982096" />
    <linearGradient
       gradientTransform="matrix(-0.53064141,0,0,0.58970049,-7.2707119,-1.7919)"
       gradientUnits="userSpaceOnUse"
       xlink:href="#linearGradient3104-6"
       id="linearGradient3148"
       x1="-51.786404"
       x2="-51.786404"
       y1="50.786446"
       y2="2.9062471" />
    <linearGradient
       id="linearGradient3104-6">
      <stop
         id="stop3106-3"
         offset="0"
         style="stop-color:#000000;stop-opacity:0.31782946" />
      <stop
         id="stop3108-9-2"
         offset="1"
         style="stop-color:#000000;stop-opacity:0.24031007" />
    </linearGradient>
  </defs>
  <metadata
     id="metadata3187">
    <rdf:RDF>
      <cc:Work
         rdf:about="">
        <dc:format>image/svg+xml</dc:format>
        <dc:type
           rdf:resource="http://purl.org/dc/dcmitype/StillImage" />
        <dc:title />
      </cc:Work>
    </rdf:RDF>
  </metadata>
  <path
     style="display:inline;fill:#fafafa;fill-opacity:1;stroke:none"
     id="path4160-3-8"
     d="M 5.000027,0.9982079 C 10.041343,0.9982079 27,0.9999979 27,0.9999979 l 3e-5,27.9982101 -22.000003,0 z" />
  <path
     style="display:inline;fill:none;stroke:url(#linearGradient3148);stroke-width:0.9999218;stroke-linecap:butt;stroke-linejoin:round;stroke-miterlimit:4;stroke-dasharray:none;stroke-dashoffset:0;stroke-opacity:1"
     id="path4160-6-1"
     d="m 27.49893,0.4981479 c -5.27048,0 -23.0000519,0.002 -23.0000519,0.002 l -3e-5,28.9981201 H 27.49893 V 0.4983079 Z" />
  <path
     d="m 23.498918,29.5 c 1.278153,0 2.556307,0 3.834466,0 0.310668,-0.343376 0.07443,-1.025114 0.148247,-1.511227 0,-9.107381 0,-18.2147618 0,-27.32213941 l -0.04333,-0.1179354 -0.10492,-0.048698 v 0 c -1.3303,0 -2.452029,0 -3.782322,0"
     id="path4530"
     style="color:#000000;display:inline;overflow:visible;visibility:visible;fill:url(#radialGradient3134);fill-opacity:1;fill-rule:nonzero;stroke:url(#linearGradient3136);stroke-width:1;stroke-linecap:butt;stroke-linejoin:round;stroke-miterlimit:4;stroke-dasharray:none;stroke-dashoffset:0;stroke-opacity:1;marker:none;enable-background:accumulate" />
  <path
     style="fill:none;stroke:url(#linearGradient3175);stroke-width:1px;stroke-linecap:butt;stroke-linejoin:miter;stroke-opacity:1"
     id="path2609-4"
     d="M 20.999875,5.505006 H 19.65625 Z m -1.687375,0 H 17.125 Z m -2.53125,0 h -1.9375 z m -2.25,0 H 13.6875 Z m -1.1875,0 h -1.875 z m -2.25,0 H 8 Z m 9.906125,2 H 18.34375 Z m -3.062375,0 h -1.75 z m -2.0625,0 H 15 Z m -1.21875,0 H 13.0625 Z m -1.9375,0 h -1.625 z m -1.9375,0 H 8.1875 Z M 20.999875,9.5000013 H 17.71875 Z m -3.624875,0 H 12.75 Z m -4.9375,0 H 10.59375 Z M 20.999875,11.5 h -1.59375 z m -1.093625,0 H 14 Z m 1.093625,3.037243 H 18.90625 Z m -2.406125,0 h -5.0625 z m -5.375,0 H 10.75 Z m -2.78125,0 H 8.125 Z M 20.999875,16.5 H 19.65625 Z m -1.687375,0 h -2.15625 z m -2.53125,0 h -1.9375 z m -2.25,0 H 13.6875 Z m -1.1875,0 h -1.875 z m -2.25,0 H 8 Z m 9.906125,2.075342 H 17.71875 Z m -3.624875,0 H 12.75 Z m -4.9375,0 H 10.59375 Z M 20.999875,21.5 H 18.90625 Z m -2.406125,0 h -5.0625 z m -5.375,0 H 10.75 Z m 7.781125,2 H 18.125 Z m -3.218625,0 H 16.5625 Z m -1.53125,0 h -2.78125 z m -3.09375,0 H 9.0625 Z m 7.843625,2 H 18.125 Z m -3.218625,0 h -1.75 z m -2.0625,0 h -2.75 z m -3.0625,0 H 9.6875 Z" />
  <path
     d="m 12.500107,29.5 15.000001,-15.000001 0,15.000001 z m 6.999999,-3.000001 5.000001,0 0,-5 z"
     id="path3410"
     style="opacity:0.8;fill:#e9e9e9;fill-opacity:1;fill-rule:evenodd;stroke:#83899a;stroke-width:1;stroke-linecap:butt;stroke-linejoin:miter;stroke-miterlimit:4;stroke-dasharray:none;stroke-opacity:1" />
</svg>
