<?xml version="1.0" encoding="UTF-8" standalone="no"?>
<svg
   xmlns:dc="http://purl.org/dc/elements/1.1/"
   xmlns:cc="http://creativecommons.org/ns#"
   xmlns:rdf="http://www.w3.org/1999/02/22-rdf-syntax-ns#"
   xmlns:svg="http://www.w3.org/2000/svg"
   xmlns="http://www.w3.org/2000/svg"
   xmlns:xlink="http://www.w3.org/1999/xlink"
   id="svg3194"
   height="32"
   width="32"
   version="1.1">
  <defs
     id="defs3196">
    <linearGradient
       gradientTransform="matrix(0.49253714,0,0,0.4937733,0.8902917,0.14413039)"
       gradientUnits="userSpaceOnUse"
       xlink:href="#linearGradient3101"
       id="linearGradient3192"
       y2="0.065301567"
       x2="54.887218"
       y1="0.065301567"
       x1="5.2122574" />
    <linearGradient
       id="linearGradient3101">
      <stop
         offset="0"
         style="stop-color:#0e9a83;stop-opacity:1"
         id="stop3103" />
      <stop
         offset="0.95429963"
         style="stop-color:#0e9a83;stop-opacity:1"
         id="stop3105" />
      <stop
         offset="0.95717829"
         style="stop-color:#c2c2c2;stop-opacity:1"
         id="stop3107" />
      <stop
         offset="1"
         style="stop-color:#c2c2c2;stop-opacity:1"
         id="stop3109" />
    </linearGradient>
    <linearGradient
       xlink:href="#linearGradient925"
       id="linearGradient919"
       x1="17"
       y1="3"
       x2="17"
       y2="29"
       gradientUnits="userSpaceOnUse" />
    <linearGradient
       id="linearGradient925">
      <stop
         offset="0"
         style="stop-color:#43d6b5;stop-opacity:1"
         id="stop921" />
      <stop
         offset="1"
         style="stop-color:#28bca3;stop-opacity:1"
         id="stop923" />
    </linearGradient>
  </defs>
  <metadata
     id="metadata3199">
    <rdf:RDF>
      <cc:Work
         rdf:about="">
        <dc:format>image/svg+xml</dc:format>
        <dc:type
           rdf:resource="http://purl.org/dc/dcmitype/StillImage" />
        <dc:title />
      </cc:Work>
    </rdf:RDF>
  </metadata>
  <path
     d="M 27.491301,2.3043778 C 27.288172,1.6493136 27.414776,1.1334476 27.302585,0.5086989 H 6.5086987 l 0.1227276,1.9826025"
     id="path2723-3"
     style="display:inline;fill:#fafafa;fill-opacity:1;stroke:url(#linearGradient3192);stroke-width:1.01739752;stroke-linecap:butt;stroke-linejoin:round;stroke-miterlimit:0;stroke-dasharray:none;stroke-dashoffset:0;stroke-opacity:1" />
  <path
     d="M 7.5001709,3.5 H 5.1001707 C 4.7576618,3.5 4.5001708,3.46825 4.5001708,3.426829 V 1.3295002 c 0,-0.66594375 0.3354193,-0.82950023 0.7745366,-0.82950023 h 2.2254635"
     id="rect5505-21-3-9-5"
     style="color:#000000;display:inline;overflow:visible;visibility:visible;fill:#fafafa;fill-opacity:1;fill-rule:nonzero;stroke:#343434;stroke-width:0.99999994;stroke-linecap:round;stroke-linejoin:round;stroke-miterlimit:4;stroke-dasharray:none;stroke-dashoffset:0;stroke-opacity:1;marker:none;enable-background:accumulate" />
  <rect
     width="21.980959"
     height="26.980959"
     rx="0.5"
     ry="0.5"
     x="5.5095205"
     y="2.5095644"
     id="rect2719-6"
     style="display:inline;fill:url(#linearGradient919);fill-opacity:1;stroke:#0e9a83;stroke-width:1;stroke-linecap:round;stroke-linejoin:round;stroke-miterlimit:0;stroke-dasharray:none;stroke-dashoffset:0;stroke-opacity:1" />
  <path
     style="color:#000000;font-style:normal;font-variant:normal;font-weight:normal;font-stretch:normal;font-size:medium;line-height:normal;font-family:sans-serif;font-variant-ligatures:normal;font-variant-position:normal;font-variant-caps:normal;font-variant-numeric:normal;font-variant-alternates:normal;font-feature-settings:normal;text-indent:0;text-align:start;text-decoration:none;text-decoration-line:none;text-decoration-style:solid;text-decoration-color:#000000;letter-spacing:normal;word-spacing:normal;text-transform:none;writing-mode:lr-tb;direction:ltr;text-orientation:mixed;dominant-baseline:auto;baseline-shift:baseline;text-anchor:start;white-space:normal;shape-padding:0;clip-rule:nonzero;display:inline;overflow:visible;visibility:visible;opacity:0.15;isolation:auto;mix-blend-mode:normal;color-interpolation:sRGB;color-interpolation-filters:linearRGB;solid-color:#000000;solid-opacity:1;vector-effect:none;fill:#007367;fill-opacity:1;fill-rule:nonzero;stroke:none;stroke-width:1;stroke-linecap:round;stroke-linejoin:round;stroke-miterlimit:4;stroke-dasharray:none;stroke-dashoffset:0;stroke-opacity:1;marker:none;color-rendering:auto;image-rendering:auto;shape-rendering:auto;text-rendering:auto;enable-background:accumulate"
     d="m 17,10 c -2.203217,0 -4,1.796783 -4,4 0,2.203217 1.796783,4 4,4 2.203217,0 4,-1.796783 4,-4 0,-2.203217 -1.796783,-4 -4,-4 z m -1.513672,8.505859 c -0.0222,-1.73e-4 -0.04438,0.0011 -0.06641,0.0039 -1.239692,0.168299 -2.144386,0.377706 -2.861328,0.814453 -0.716943,0.436746 -1.187695,1.104923 -1.525391,1.998047 C 11.011427,21.379001 11.000176,21.43923 11,21.5 v 1 c 0,0.822351 0.677649,1.5 1.5,1.5 h 4.5 4.5 c 0.822351,0 1.5,-0.677649 1.5,-1.5 v -1 c -1.06e-4,-0.02485 -0.0021,-0.04966 -0.0059,-0.07422 -0.169085,-1.1206 -0.995706,-1.870852 -1.882813,-2.30664 -0.887107,-0.435789 -1.863226,-0.60697 -2.59375,-0.613282 -0.0013,-5e-6 -0.0026,-5e-6 -0.0039,0 z"
     id="path925" />
  <path
     style="color:#000000;font-style:normal;font-variant:normal;font-weight:normal;font-stretch:normal;font-size:medium;line-height:normal;font-family:sans-serif;font-variant-ligatures:normal;font-variant-position:normal;font-variant-caps:normal;font-variant-numeric:normal;font-variant-alternates:normal;font-feature-settings:normal;text-indent:0;text-align:start;text-decoration:none;text-decoration-line:none;text-decoration-style:solid;text-decoration-color:#000000;letter-spacing:normal;word-spacing:normal;text-transform:none;writing-mode:lr-tb;direction:ltr;text-orientation:mixed;dominant-baseline:auto;baseline-shift:baseline;text-anchor:start;white-space:normal;shape-padding:0;clip-rule:nonzero;display:inline;overflow:visible;visibility:visible;opacity:1;isolation:auto;mix-blend-mode:normal;color-interpolation:sRGB;color-interpolation-filters:linearRGB;solid-color:#000000;solid-opacity:1;vector-effect:none;fill:#ffffff;fill-opacity:1;fill-rule:nonzero;stroke:none;stroke-width:1;stroke-linecap:round;stroke-linejoin:round;stroke-miterlimit:4;stroke-dasharray:none;stroke-dashoffset:0;stroke-opacity:1;marker:none;color-rendering:auto;image-rendering:auto;shape-rendering:auto;text-rendering:auto;enable-background:accumulate"
     d="m 17,9 c -2.203217,0 -4,1.796783 -4,4 0,2.203217 1.796783,4 4,4 2.203217,0 4,-1.796783 4,-4 0,-2.203217 -1.796783,-4 -4,-4 z m -1.513672,8.505859 c -0.0222,-1.73e-4 -0.04438,0.0011 -0.06641,0.0039 -1.239692,0.168299 -2.144386,0.377706 -2.861328,0.814453 -0.716943,0.436746 -1.187695,1.104923 -1.525391,1.998047 C 11.011427,20.379001 11.000176,20.43923 11,20.5 v 1 c 0,0.822351 0.677649,1.5 1.5,1.5 h 4.5 4.5 c 0.822351,0 1.5,-0.677649 1.5,-1.5 v -1 c -1.06e-4,-0.02485 -0.0021,-0.04966 -0.0059,-0.07422 -0.169085,-1.1206 -0.995706,-1.870852 -1.882813,-2.30664 -0.887107,-0.435789 -1.863226,-0.60697 -2.59375,-0.613282 -0.0013,-5e-6 -0.0026,-5e-6 -0.0039,0 z"
     id="path913" />
  <path
     d="m 7.5,2.5000001 c 0,0 0,18.7742959 0,26.9999999 H 5.1 C 4.7574911,29.5 4.5,29.214228 4.5,28.841463 V 2.5000001 Z"
     id="rect5505-21-3-2"
     style="color:#000000;display:inline;overflow:visible;visibility:visible;fill:#343434;fill-opacity:1;fill-rule:nonzero;stroke:#343434;stroke-width:1;stroke-linecap:round;stroke-linejoin:round;stroke-miterlimit:4;stroke-dasharray:none;stroke-dashoffset:0;stroke-opacity:1;marker:none;enable-background:accumulate" />
</svg>
