<?xml version="1.0" encoding="UTF-8" standalone="no"?>
<svg
   xmlns:dc="http://purl.org/dc/elements/1.1/"
   xmlns:cc="http://creativecommons.org/ns#"
   xmlns:rdf="http://www.w3.org/1999/02/22-rdf-syntax-ns#"
   xmlns:svg="http://www.w3.org/2000/svg"
   xmlns="http://www.w3.org/2000/svg"
   viewBox="0 0 48 48"
   version="1.0"
   width="48"
   height="48"
   id="svg11300">
  <metadata
     id="metadata49">
    <rdf:RDF>
      <cc:Work
         rdf:about="">
        <dc:format>image/svg+xml</dc:format>
        <dc:type
           rdf:resource="http://purl.org/dc/dcmitype/StillImage" />
        <dc:title />
      </cc:Work>
    </rdf:RDF>
  </metadata>
  <defs
     id="defs3" />
  <g
     id="g823"
     transform="matrix(1,0,0,-1,0,46.000039)">
    <rect
       id="rect3448"
       style="fill:#f4f4f4;fill-opacity:1;stroke:none"
       transform="scale(1,-1)"
       rx="1"
       ry="1"
       height="15"
       width="15"
       y="-44.5"
       x="16.5" />
    <rect
       id="rect3448-9"
       style="opacity:0.4;fill:none;stroke:#000000;stroke-opacity:1"
       transform="scale(1,-1)"
       rx="1"
       ry="1"
       height="15"
       width="15"
       y="-44.5"
       x="16.5" />
    <path
       style="opacity:0.35;fill:#000000;fill-opacity:0.33598848;stroke:#000000;stroke-width:1;stroke-linecap:butt;stroke-linejoin:miter;stroke-miterlimit:4;stroke-dasharray:none;stroke-dashoffset:0;stroke-opacity:1"
       d="m 19.5,38.5 v 3 h 3 v -3 z m 6,0 v 3 h 3 v -3 z"
       id="rect3450" />
    <rect
       id="rect5391"
       style="opacity:1;fill:#f4f4f4;fill-opacity:1;stroke:none;stroke-width:0.99992192;stroke-linecap:butt;stroke-linejoin:round;stroke-miterlimit:4;stroke-dasharray:none;stroke-dashoffset:0;stroke-opacity:1;marker:none"
       rx="1.5"
       ry="1.5"
       height="33"
       width="20"
       y="2"
       x="14" />
    <rect
       id="rect5391-2"
       style="opacity:0.3;fill:none;fill-opacity:1;stroke:#000000;stroke-width:0.99992192;stroke-linecap:butt;stroke-linejoin:round;stroke-miterlimit:4;stroke-dasharray:none;stroke-dashoffset:0;stroke-opacity:1;marker:none"
       rx="2"
       ry="2"
       height="34"
       width="21"
       y="1.5"
       x="13.5" />
  </g>
  <path
     d="m 22.678,36.36641 c 0,-1.2774 0.42456,-1.6088 0.94461,-2.0548 0.4175,-0.20154 0.48421,-0.33913 0.47872,-0.9873 -0.006,-0.71628 -0.07462,-0.63446 -1.4022,-1.7869 -2.027,-1.7595 -2.2996,-2.1838 -2.5376,-3.9494 -0.17556,-1.3022 -0.05242,-1.0157 -0.55638,-1.5166 -0.92759,-0.92193 -0.76867,-2.274 0.33557,-2.8551 0.99478,-0.52348 2.1732,0.03328 2.5366,1.1985 0.17911,0.57427 -0.25029,1.566 -0.82688,1.9097 -0.52764,0.31455 -0.74654,-0.20987 -0.62588,0.94961 0.06678,0.64174 0.22952,1.3798 0.36164,1.6401 0.22691,0.44704 2.4489,2.5515 2.6906,2.5515 v -12.432 h -1.2317 c 0.57,-0.988 1.125,-1.9924 1.677,-2.987 l 1.7577,2.9874 h -1.1972 v 8.42 c 0.16651,0 1.799,-1.6568 2.3483,-2.4027 0.23734,-0.32228 0.38137,-0.77989 0.38137,-1.2117 0,-0.65124 0.21476,-0.78818 -0.28196,-0.78818 h -0.5292 v -3.0516 h 2.9988 v 3.0516 h -0.4851 c -0.43284,0.05068 -0.74221,0.2713 -0.82392,0.99341 -0.12186,1.0769 -0.58309,1.7837 -2.2805,3.4947 l -1.3278,1.4319 v 5.1064 l 0.39238,0.23418 c 0.26681,0.1288 0.63426,0.54499 0.81656,0.92487 0.649,1.355 -0.254,2.811 -1.743,2.811 -1.079,-0.04 -1.871,-0.594 -1.871,-1.68 z"
     style="opacity:0.95;fill:#aaaaaa"
     id="path3690" />
</svg>
