<?xml version="1.0" encoding="UTF-8" standalone="no"?>
<svg
   xmlns:dc="http://purl.org/dc/elements/1.1/"
   xmlns:cc="http://creativecommons.org/ns#"
   xmlns:rdf="http://www.w3.org/1999/02/22-rdf-syntax-ns#"
   xmlns:svg="http://www.w3.org/2000/svg"
   xmlns="http://www.w3.org/2000/svg"
   xmlns:xlink="http://www.w3.org/1999/xlink"
   version="1.1"
   width="64"
   height="64"
   id="svg3844">
  <defs
     id="defs3846">
    <linearGradient
       x1="-51.786404"
       y1="50.786446"
       x2="-51.786404"
       y2="2.9062471"
       id="linearGradient3033"
       xlink:href="#linearGradient3104-6"
       gradientUnits="userSpaceOnUse"
       gradientTransform="matrix(1.0843523,0,0,1.1997367,79.550862,-4.1628601)" />
    <linearGradient
       id="linearGradient3104-6">
      <stop
         id="stop3106-3"
         style="stop-color:#000000;stop-opacity:0.31782946"
         offset="0" />
      <stop
         id="stop3108-9"
         style="stop-color:#000000;stop-opacity:0.24031007"
         offset="1" />
    </linearGradient>
  </defs>
  <metadata
     id="metadata3849">
    <rdf:RDF>
      <cc:Work
         rdf:about="">
        <dc:format>image/svg+xml</dc:format>
        <dc:type
           rdf:resource="http://purl.org/dc/dcmitype/StillImage" />
        <dc:title />
      </cc:Work>
    </rdf:RDF>
  </metadata>
  <path
     style="display:inline;fill:#fafafa;fill-opacity:1;stroke:none"
     id="path4160-6"
     d="m 9,0.9998799 c 10.540935,0 45.999945,0.004 45.999945,0.004 L 55,59.00002 c 0,0 -30.666666,0 -46,0 0,-19.3334 0,-38.6665 0,-57.9998201 z" />
  <path
     style="color:#000000;display:inline;overflow:visible;visibility:visible;opacity:0.4;fill:#d4d4d4;fill-opacity:1;fill-rule:nonzero;stroke:none;stroke-width:0.98542744;marker:none;enable-background:accumulate"
     d="M 20,7.9999999 20,12 l 4,0 0,-4.0000001 -4,0 z M 24,12 l 0,4 4,0 0,-4 -4,0 z m 4,0 4,0 0,-4.0000001 -4,0 L 28,12 Z m 4,0 0,4 4,0 0,-4 -4,0 z m 4,0 4,0 0,-4.0000001 -4,0 L 36,12 Z m 4,0 0,4 4,0 0,-4 -4,0 z m 4,0 4,0 0,-4.0000001 -4,0 L 44,12 Z m 0,4 0,4 4,0 0,-4 -4,0 z m 0,4 -4,0 0,4 4,0 0,-4 z m 0,4 0,4 4,0 0,-4 -4,0 z m 0,4 -4,0 0,4 4,0 0,-4 z m 0,4 0,4 4,0 0,-4 -4,0 z m 0,4 -4,0 0,4 4,0 0,-4 z m 0,4 0,4 4,0 0,-4 -4,0 z m 0,4 -4,0 0,4 4,0 0,-4 z m 0,4 0,4 4,0 0,-4 -4,0 z m -4,0 -4,0 0,4 4,0 0,-4 z m -4,0 0,-4 -4,0 0,4 4,0 z m -4,0 -4,0 0,4 4,0 0,-4 z m -4,0 0,-4 -4,0 0,4 4,0 z m -4,0 -4,0 0,4 4,0 0,-4 z m -4,0 0,-4 -4,0 0,4 4,0 z m 0,-4 4,0 0,-4 -4,0 0,4 z m 0,-4 0,-4 -4,0 0,4 4,0 z m 0,-4 4,0 0,-4 -4,0 0,4 z m 0,-4 0,-4 -4,0 0,4 4,0 z m 0,-4 4,0 0,-4 -4,0 0,4 z m 0,-4 0,-4 -4,0 0,4 4,0 z m 0,-4 4,0 0,-4 -4,0 0,4 z m 0,-4 0,-4 -4,0 0,4 4,0 z m 4,4 0,4 4,0 0,-4 -4,0 z m 4,0 4,0 0,-4 -4,0 0,4 z m 4,0 0,4 4,0 0,-4 -4,0 z m 4,0 4,0 0,-4 -4,0 0,4 z m 0,4 0,4 4,0 0,-4 -4,0 z m 0,4 -4,0 0,4 4,0 0,-4 z m 0,4 0,4 4,0 0,-4 -4,0 z m 0,4 -4,0 0,4 4,0 0,-4 z m 0,4 0,4 4,0 0,-4 -4,0 z m -4,0 -4,0 0,4 4,0 0,-4 z m -4,0 0,-4 -4,0 0,4 4,0 z m 0,-4 4,0 0,-4 -4,0 0,4 z m 0,-4 0,-4 -4,0 0,4 4,0 z m 0,-4 4,0 0,-4 -4,0 0,4 z"
     id="rect3137-6-5-5" />
  <path
     style="display:inline;fill:none;stroke:url(#linearGradient3033);stroke-width:0.9999218;stroke-linecap:butt;stroke-linejoin:round;stroke-miterlimit:4;stroke-dasharray:none;stroke-dashoffset:0;stroke-opacity:1"
     id="path4160-6-1"
     d="m 8.4999684,0.4998999 c 10.7700936,0 47.0000286,0.004 47.0000286,0.004 l 4.9e-5,58.9962201 c 0,0 -31.333384,0 -47.0000776,0 0,-19.6668 0,-39.3334 0,-58.9999701 z" />
  <path
     style="opacity:1;fill:#7e8087;fill-opacity:1;fill-rule:evenodd;stroke:none"
     d="M 32 16 C 24.272 16 18 22.272001 18 30 C 18 37.728 24.272 44 32 44 C 39.728 44 46 37.728 46 30 C 46 22.272001 39.728 16 32 16 z M 32 18 C 38.624 18 44 23.376001 44 30 C 44 36.624 38.624 42 32 42 C 25.376 42 20 36.624 20 30 C 20 23.376001 25.376 18 32 18 z M 31.601562 21.224609 L 30.261719 30.607422 L 36.962891 35.96875 L 36.962891 34.628906 L 32.941406 29.267578 L 32.941406 21.224609 L 31.601562 21.224609 z "
     id="path2839" />
</svg>
